<?xml version="1.0" encoding="UTF-8"?>
<svg xmlns="http://www.w3.org/2000/svg" xmlns:xlink="http://www.w3.org/1999/xlink" viewBox="0 0 50 50">
  <defs>
    <clipPath id="clippath">
      <rect x="-70" width="50" height="50" fill="none"/>
    </clipPath>
    <clipPath id="clippath-1">
      <rect width="50" height="50" fill="none"/>
    </clipPath>
  </defs>
  <g id="rapid_fire" data-name="rapid fire">
    <g clip-path="url(#clippath)">
      <path d="M-72.1352539-4.4427876L2.1050568,30.3938484l-6.40625,25.1007576c-18.8995972-1.1648674-37.7992096-2.3297386-56.6988068-3.494606-5.8591766-18.5575218-11.7183533-37.1150455-17.5775299-55.6725686l6.442276-.7702191Z" fill="#1b4332"/>
      <path d="M-74.6760559-5.4346223L4.0964661,38.0983849,.1368713,61.0477142c-17.378952-3.0159035-34.7579193-6.0318108-52.1368713-9.0477142-9.1624146-19.36623-18.3248138-38.7324581-27.4872284-58.0986876l4.8111725,.6640654Z" fill="#2d6a4f"/>
      <path d="M-76.3439636-6.1928334L4.6330566,45.4135475-.5066528,64.6171494c-14.8311157-3.2057152-29.6622314-6.4114342-44.4933472-9.6171494-11.4178619-20.6571922-22.8357391-41.3143854-34.2536011-61.9715786l2.9096375,.7787452Z" fill="#40916c"/>
      <polygon points="-77.8561208 -7.5329717 4.1410149 53.0770124 .3251625 67.3342358 -31.0989217 58.9237855 -80.0280817 -8.7378955 -77.8561208 -7.5329717" fill="#52b788"/>
      <polygon points="-78.9994414 -9.0861994 4.9685742 60.4700494 2.3208398 70.3628166 -21.538187 63.9771043 -78.9994414 -9.0861994" fill="#74c69d"/>
    </g>
  </g>
  <g id="_Шар_4" data-name="Шар 4">
    <g clip-path="url(#clippath-1)">
      <rect width="50" height="50" fill="#081c15"/>
      <g>
        <path d="M37.9123161,33.7384856c-1.7387793,2.7576683-5.8824256,2.855944-8.2514011,2.9121215-4.7304507,.1121866-6.3215889-1.6639274-14.1397526-4.2172816-2.6904245-.8786786-12.0862985-3.9472967-13.1030923-1.915395-.6510714,1.3010647,2.6079006,3.745007,2.0733208,4.6037732-.8669029,1.3926255-11.5830697-1.5870243-12.1678531-6.2089773-.7637155-6.0361774,27.5287523-18.2805222,42.6764622-19.9127263,10.1999329-1.0990778,17.6574571,14.2786135,18,17,.2176855,1.7294516-12.8437623-7.4901752-14.4840554-3.237013-1.7881575,4.6365681,1.3554345,7.8684587-.6036285,10.9754986Z" fill="#b7e4c7"/>
        <path d="M34.1455734,28.7719727c-1.7387793,2.7576683-5.8824256,2.855944-8.2514011,2.9121215-4.7304507,.1121866-6.3215889-1.6639274-14.1397526-4.2172816-2.6904245-.8786786-12.0862985-3.9472967-13.1030923-1.915395-.6510714,1.3010647,2.6079006,3.745007,2.0733208,4.6037732-.8669029,1.3926255-11.5830697-1.5870243-12.1678531-6.2089773-.7637155-6.0361774,28.295495-16.3140094,43.4432049-17.9462134,10.1999329-1.0990778,25.6574571,13.2786135,26,16,.2176855,1.7294516-19-9-24-3-3.1813539,3.8176247,2.1046364,6.6649328,.1455734,9.7719727Z" fill="#95d5b2"/>
        <path d="M30.6090203,23.8919074c-1.7387793,2.7576683-5.8824256,2.855944-8.2514011,2.9121215-4.7304507,.1121866-6.3215889-1.6639274-14.1397526-4.2172816-2.6904245-.8786786-12.0862985-3.9472967-13.1030923-1.915395-.6510714,1.3010647,2.6079006,3.745007,2.0733208,4.6037732-.8669029,1.3926255-11.5830697-1.5870243-12.1678531-6.2089773-.7637155-6.0361774,32.8320481-12.4339441,47.979758-14.0661481,10.1999329-1.0990778,25.6574571,11.2786135,26,14,.2176855,1.7294516-21-9-27-4-3.8176247,3.1813539,.5680833,5.7848675-1.3909797,8.8919074Z" fill="#52b788"/>
        <path d="M26.2676113,20.622148c-1.7387793,2.7576683-5.8824256,2.855944-8.2514011,2.9121215-4.7304507,.1121866-6.3215889-1.6639274-14.1397526-4.2172816-2.6904245-.8786786-12.0862985-3.9472967-13.1030923-1.915395-.6510714,1.3010647,2.6079006,3.745007,2.0733208,4.6037732-.8669029,1.3926255-11.5830697-1.5870243-12.1678531-6.2089773C-20.0848826,9.7602113-3.5365933,1.1763337,11.6111166-.4558703c10.1999329-1.0990778,49.3888834-5.5441297,50.3888834,18.4558703,.0725661,1.7415866-18.8712398-10.6466494-32-6-4.6846737,1.658042-1.7733257,5.5151081-3.7323887,8.622148Z" fill="#40916c"/>
        <path d="M22.5507717,17.0404971c-1.7387793,2.7576683-5.8824256,2.855944-8.2514011,2.9121215-4.7304507,.1121866-6.3215889-1.6639274-14.1397526-4.2172816-2.6904245-.8786786-12.0862985-3.9472967-13.1030923-1.915395-.6510714,1.3010647,2.6079006,3.745007,2.0733208,4.6037732-.8669029,1.3926255-11.5830697-1.5870243-12.1678531-6.2089773C-23.8017221,6.1785604,15.8522901-10.367796,31-12c10.1999329-1.0990778,33.6574571,23.2786135,34,26,.2176855,1.7294516-24-11-37-8-4.8421724,1.1174244-3.4901653,7.9334571-5.4492283,11.0404971Z" fill="#1b4332"/>
      </g>
      <path d="M43.2535419,19.7045332c-2.8147299-.694654-5.8642971-.5539682-7.7642661,1.2899015-2.5183506,2.4440156,4.6778048,8.7249569,.3625059,12.2226866l4.0767158,3.3144005c4.6113919-3.9465783-2.3999694-11.5903551-.0330546-13.7986174,1.6391743-1.5294631,3.9081281-1.1197291,5.7075466-.0248551,1.7610236,1.0710267,2.5160035,2.3100681,1.0120533,3.2686817,3.3265031,.1385275,4.2303094-1.7651015,1.9067364-3.7577701-.3317199-.2846671-.7731982-.5778756-1.2374343-.8602038-1.1465579-.6974351-2.5563883-1.2904825-4.0309857-1.6543244l.0001829,.0001004Zm-8.1462498-.2786369L9.279008,13.6381669l-4.6570664,13.5495957c.6521169-.0248378,1.304071-.0229512,1.9470474-.0054827l4.1905232-12.1925086,23.1506555,5.187642c.3665116-.2823586,.7702036-.5303132,1.1971373-.7515681l-.0000128,.0000512Zm-22.4506834-3.5295503l26.8051124,24.7948664c-.473122,.1267946-.9631735,.2382831-1.4691059,.3351642L11.1929199,16.2367025l-.0291024,.0073764,24.0454891,25.1630597c-1.5466388,.138104-3.1981852,.1798088-4.9314395,.1462643l10.8603899,3.7765567-.102295-2.4490588,4.1403257,1.4189174-.3621868-6.4548295c-.7786567,.7800535-1.7186242,1.413808-2.7948285,1.9238707L12.6567044,15.8963699l-.0000957-.0000239Zm-3.8368525,12.6731901c-.0823803-.0212294-.1644055-.0414378-.2462664-.060673-.5360802-.1261882-1.0616329-.2110286-1.5770576-.2451843-6.44495-.426713-7.6135151,2.4361399-6.0123782,4.9075389,1.7810053,2.7499022,6.4246418,3.9361986,8.2920907,2.3317265-2.4897998,.0599888-4.1877993-.9383692-5.0333976-2.2430394-.8635754-1.3332899-.28987-2.4685868,3.2536286-2.2613369,5.0305842,.2937836,13.976694,7.152395,23.3392151,7.7059037l-3.2868207-3.4396437c-7.3739896-.3349007-13.540002-5.3617818-18.7289891-6.6953944l-.0000248,.0001026Z" fill="#d8f3dc"/>
    </g>
  </g>
</svg>