<?xml version="1.0" encoding="UTF-8"?>
<svg id="rundumschlag" xmlns="http://www.w3.org/2000/svg" xmlns:xlink="http://www.w3.org/1999/xlink" viewBox="0 0 50 50">
  <defs>
    <clipPath id="clippath">
      <rect width="50" height="50" fill="none"/>
    </clipPath>
  </defs>
  <g clip-path="url(#clippath)">
    <rect width="50" height="50" fill="#081c15"/>
    <g>
      <path d="M-53.9431818,31.4539878S-12.0637311-.1343137,48.485711,2.5377517l-9.4626173,9.2780846S-6.7073695,4.1897408-53.9431818,31.4539878Z" fill="#1b4332"/>
      <path d="M43.540085,10.5347941l-.9255142,1.4722775c-1.2440441,1.9599156-2.7323228,3.7455573-4.4459431,5.3064159l-.4601572,.4210176-1.0870062,.9859651c-.6421984-.0848956-1.3346056-.1785568-2.0570337-.2715089-.3410529-.042007-.6921723-.0837152-1.0532376-.1251885-.2004292-.0152909-.4110392-.0402929-.6217117-.0653544-.1704068-.015939-.3411124-.0419446-.5215277-.0577082-.0199529,.0004713-.0299599,.0007077-.0502088-.0087656-.1604013-.0162364-.3308705-.032235-.5012773-.048174-.2203821-.0148196-.4410616-.0396448-.6616786-.0644104-.3308705-.032235-.6717466-.0641726-1.0223323-.0858683-.5414806-.0572369-1.0927928-.1042291-1.654051-.1509863-.0899407,.0021244-.1801789-.0057567-.270356-.0136392-1.3026952-.0992711-2.6752028-.1868807-4.1171035-.2528262-17.7143519-.8219796-45.3887818,1.0120805-74.5062772,15.0135532,.936051-.6022886,28.9776417-18.2293907,70.4367592-21.7193756,5.0012926-.4282158,10.1977304-.640948,15.5704784-.5878108,.7002897,.0034841,1.4007534,.0169156,2.1112865,.0301703,.3801338,.0009726,.7705125,.0117769,1.1608301,.0225826l.010007-.0002364c.3604173,.0114509,.720775,.0229643,1.091376,.0442483,.0999477-.0023608,.2001928,.005284,.3003754,.0128691,.019779-.0104187,.039732-.01089,.0599808-.0014168l.0499739-.0011804c.0300209-.0007091,.0599808-.0014168,.0902381,.0078811l.0899407-.0021244c.2402207,.0043385,.4706098,.0189217,.7110044,.0332076,.7507363,.0223176,1.5119509,.0643519,2.2731655,.1063861Z" fill="#2d6a4f"/>
      <path d="M37.7084705,17.7345051l-1.0870062,.9859651-5.8848349,5.3704405-.4114262,.3698038c-.6019327-.0757731-1.2136375-.1413639-1.8353492-.2067183-.3009092-.0328816-.6117658-.0655893-.9223846-.0882291-.1606376-.0262434-.3310444-.0421824-.4912704-.0484104-.2206185-.0248266-.4412965-.0495908-.6616786-.0644104-.0202503-.0095342-.0402643-.0090615-.0602172-.0085902-.1904208-.0154663-.370836-.0312299-.5612582-.0467572-.090473-.0178271-.1704678-.0159376-.2606449-.0238201-.1104274-.0174168-.2306254-.0245902-.3408775-.0319986-.2906048-.0231125-.5912181-.0460496-.8918299-.0689257-.3508845-.0317622-.7014701-.0534579-1.0523532-.0851592-.2103751-.015056-.4208113-.0301106-.6411934-.0449302-17.4327175-1.178644-41.4984921,.1299925-67.2859823,10.2817385,.8691345-.4706059,28.7369199-15.2928338,68.7707822-16.4484635,1.4493105-.0442456,2.9191687-.0689515,4.4096875-.0641688l.2999041-.0070838c.600342,.0058449,1.2003853,.0016232,1.8009026,.0174765,.3698919-.0087369,.7403176,.0025386,1.1206268,.0135197,.2299774-.0054321,.470137-.0010922,.7105331,.0132547,.1799425-.0042503,.3601213,.0015064,.5403002,.0072631l.0599808-.0014168c.1702315,.0059306,.3504103,.0116873,.5203458,.0076734,.240396,.0143469,.4706098,.0189217,.7110044,.0332076,.3801353,.0010337,.7605069,.0120743,1.1510595,.032826,.7607433,.0220813,1.5219579,.0641155,2.2931795,.1059133Z" fill="#40916c"/>
      <path d="M30.7366294,24.0909108l-.4114262,.3698038-5.5127274,5.0316032c-.53171-.0674803-1.0729542-.1147102-1.6144958-.1719457-.2705909-.0235852-.5312372-.0474663-.8018906-.0711111-.1704068-.015939-.3408761-.0319376-.5212913-.0477013-.2106101-.025002-.4210462-.0400565-.6414269-.0548151-.0202503-.0095342-.0402643-.0090615-.0602172-.0085902-.1704693-.0159986-.3408775-.0319986-.501041-.038167-.2306865-.0245888-.4510686-.0394084-.6715102-.0541656-.2606464-.0238811-.5112843-.0479376-.7716333-.0618132-.2706533-.0236448-.5410689-.0372215-.8114248-.0508608-.220678-.0247641-.4510671-.0393474-.6712739-.0441586-15.5975436-.9819341-34.6668384,.1186322-55.163666,6.4244032,.7324637-.327385,25.0176268-10.9838354,59.8090031-11.3354539,.2299163-.0054307,.4598937-.0108628,.6900464-.0062865,.3698919-.0087369,.7500258-.0077643,1.1301611-.0067306,.3201545,.0024504,.6400726-.0051061,.9604634,.0073513,.1199617-.0028335,.2399233-.0056671,.3601213,.0015064,.0899407-.0021244,.1799425-.0042503,.2801266,.0033959,.1999564-.004723,.4001478,.0004999,.6103476,.0055475l.0599808-.0014168c.2301527,.0045763,.4703124,.0089162,.7104721,.0132561,.1799425-.0042503,.3601824,.001505,.5403598,.0072006,.3301004,.0022155,.6705052,.0142002,1.0106736,.0161779,.6607331,.0243825,1.3214663,.048765,1.9922689,.0729707Z" fill="#52b788"/>
      <path d="M24.7634459,29.533465l-4.6609215,4.2512616c-.4612494-.0491195-.9428102-.1077717-1.4138303-.1466478-.2306254-.0245902-.4613105-.049118-.6919359-.0737083-.220617-.0247656-.4410601-.0395838-.6616786-.0644104-.1604608-.0161739-.3308691-.032174-.5012773-.048174l-.0500349,.0011818c-.120433-.0171194-.240631-.0242929-.3610654-.0414733-.26041-.0138742-.5310009-.0374594-.8016542-.0611041-.2204417-.0147572-.4410601-.0395838-.6714478-.054106-.2706533-.0236448-.5310633-.0375189-.8017152-.0611027-.1704082-.016-.3305732-.0222294-.4907991-.0284574-1.4628587-.1054395-2.945321-.190452-4.4572109-.2548053-.1901858-.0055203-.3803702-.0109796-.5807994-.0262705-12.0141278-.4564198-25.4571729,.4212621-39.7442026,3.6795228,0,0,19.5981775-7.0847556,48.3733373-7.2042785,.2302137,.0045748,.470137-.0010922,.7102967,.0032477,.2799512-.0066125,.5600778-.0032166,.8502099-.0001181,.2701806,.0036308,.5403612,.0072616,.8204878,.0106575,.2399843-.0056685,.480144-.0013286,.7203037,.0030114,.1801774,.0056957,.3501129,.0016817,.5302918,.0074384l.0599808-.0014168c.2302137,.0045748,.4503595,.0093875,.6805732,.0139624,.1901248,.0055218,.3803092,.0109811,.570495,.0165014,.2801876,.0033945,.5705575,.016561,.8507451,.0199554,.570556,.0164999,1.1411135,.0330609,1.7218519,.0593329Z" fill="#74c69d"/>
      <path d="M8.7688738,41.3844918l1.5577887,1.5836516-1.3493953,1.3121983-3.2990676,.0779248c-.8100081,.00912-1.6297867,.0284834-2.4395584,.0476104l-.8297856,.0195998c.9006604-.8314973,1.7717726-1.6422716,2.6035645-2.4221405,.2251933-.2053871,.4404407-.4105393,.6556285-.615629,.5480346-.5130842,1.0862971-1.015986,1.6146151-1.5185919l1.4552438,1.4760577-.0975855,.1023695c.0102419,.0097096,.0104783,.0197166,.0306676,.0292522l.0978843-.092303Z" fill="#081c15"/>
      <path d="M49.0361385,1.8325783l-5.4960535,8.7022159-.9255142,1.4722775c-1.2440441,1.9599156-2.7323228,3.7455573-4.4459431,5.3064159l-.4601572,.4210176-1.0870062,.9859651-5.8848349,5.3704405-.4114262,.3698038-5.5127274,5.0316032c.2204417,.0147572,.4510671,.0393474,.6719815,.0741185-.2403946-.0142859-.4808517-.0286313-.7210114-.0329713l-4.6609215,4.2512616-5.9731225,5.4425528c.3484326,.3518557,.6970406,.7137198,1.0354677,1.0658729,.174274-.2442346,.3585564-.4886446,.5328318-.7328182,.6251647,.6354392,1.2403821,1.2710522,1.8655468,1.9064914-.8405289,.4099769-1.6811203,.8198943-2.5216492,1.2298712l-.317704-.3226049-.614981-.6256061c-.4100056-.4204282-.8300806-.8406796-1.2503295-1.2708783l-1.9064914,1.8655468-1.5478427-1.5838865c-.0292508,.0307286-.068571,.061634-.0978218,.0923625,.2730413-.2965693,.5563884-.5833083,.8394381-.880053l-.7722839,.7584382-1.4452979-1.4762926c.6653991-.6258724,1.3110801-1.2413275,1.9272145-1.8359986,.4402043-.4205463,.8705784-.8307868,1.2812956-1.2306114,1.0658119-1.0354662,2.0631137-2.0092999,3.0110897-2.9519309,1.3882414-1.3631787,2.6583496-2.6435276,3.810622-3.8310413,.1564469-.1537616,.3125979-.3174677,.4590379-.4709929,1.8262603-1.8736643,3.3578121-3.5202743,4.6641097-4.9614958,.0585641-.0613976,.1171281-.1227952,.1656852-.1839564,.5752205-.633816,1.0913461-1.2261248,1.5782195-1.7877661,1.1297209-1.2970581,2.3068185-2.7052512,3.6528465-4.1574237l.3221322-.337718c1.9227278-2.0259481,4.1941518-4.1101952,7.178645-6.0712315,.0097706-.0102433,.0095357-.0201893,.0195427-.0204257,.502311-.3319613,1.0640691-.6853519,1.7044676-1.1005532,1.2121622-.7688893,2.699554-1.7442865,4.5968942-3.1494668,.2359094-.1756026,.4621092-.3409632,.6880102-.5163904,1.3562428-1.0223012,2.553501-2.0008579,3.5826523-2.8954045,.5098962-.4321439,.9803578-.8433923,1.4112642-1.2336813,.1078303-.0925379,.2154227-.1951438,.323253-.2876817l.7001416-.4266861-.2442618,.2458878c-.0287795,.0506815-.0578564,.0913575-.0866969,.1420405l.3616888-.3586164Z" fill="#081c15"/>
      <g>
        <g>
          <path d="M49.0054084,1.8032665l-.2442618,.2458878c-.009772,.0101823-.019779,.0104187-.0294886,.0206606l-.4592742,.4609859-5.0152291,4.9197876-.0195412,.0204867-.0194802,.0204852-.1268987,.1330385-4.2172045,2.7103248-.010007,.0002364-1.8720424,1.2045148-1.2807347,.8304622-5.1098057,5.1521272-.4689838,.4712278-5.8327638,5.8793626-.0878773,.0920666-4.9828459,5.0190872-.4202528,.420014-3.8591167,3.8922621-3.0288039,3.0523528,.317704,.3226049,3.3825477-3.3208516,4.0081566-3.9357106,.3713983-.3688583,5.171676-5.0735492,.0192438-.0304922,5.9632662-5.86242,.5672784-.5435764,4.2915023-4.2225107,2.1823391-1.6219926,1.7694975-1.3121087,1.0517623-.7850646,1.1353269-1.0571333-1.8867138,1.8550671-.8116027,.7894046-.6158965,.6047391-5.8653819,5.770117-.6551557,.635643-5.8948705,5.7907776-.068571,.061634-5.1811492,5.0937981-.2933541,.2869754-4.0960325,4.0278382-4.2428842,4.161348c-.0307286-.0292508-.0613976-.0585641-.0821192-.0880512-.4407356-.44974-.8812348-.889473-1.3219689-1.339152-.0511542-.0487935-.1026059-.1075925-.1537616-.1564469l2.6740522-2.8239414,3.5911244-3.8058316,.4980607-.5119038,4.6453371-4.9110507,.2145383-.2351731,5.6019034-5.9138988,.292584-.3169949,4.8405706-5.1157301c.361155-.3786289,.732317-.7574941,1.1141326-1.1066344,.3718711-.3488443,.7439771-.6877427,1.1365698-1.0070999,.9808305-.8233784,2.0235299-1.5682398,3.1280996-2.2345232l9.1217972-5.5368893,.4634635-.281042,.7001416-.4266861Z" fill="#d8f3dc"/>
          <path d="M12.5397364,37.613498l-1.2684756,1.2454941c-1.1417029-1.1627694-2.2834059-2.3255387-3.4251088-3.488308,.4228248-.4151643,.8456508-.8303298,1.2684756-1.2454941,1.1417029,1.1627693,2.2834058,2.3255386,3.4251088,3.488308Z" fill="#d8f3dc"/>
          <polygon points="43.2901734 7.4824504 42.155476 8.53432 43.1068327 7.6001995 43.2901734 7.4824504" fill="#d8f3dc"/>
          <path d="M8.4688991,36.0049219c.7380289-.5170408,1.4760581-1.0340814,2.214087-1.5511222-.622747-.6342378-1.2454941-1.2684756-1.8682411-1.9027135-.4266554,.8341598-.853311,1.6683192-1.2799664,2.502479l.9341206,.9513567Z" fill="#d8f3dc"/>
          <polygon points="11.269831 38.8546979 10.1458668 39.9715771 9.3735829 40.7300153 7.928285 39.2537227 7.8157332 39.1463651 9.7119812 37.2710478 9.8554995 37.4177241 11.238866 38.8154401 11.269831 38.8546979" fill="#d8f3dc"/>
          <polygon points="8.7379074 41.345173 8.6403219 41.4475426 7.1637915 42.8827724 7.1442502 42.9032591 6.5804831 42.326384 6.3446634 42.0818844 5.6680484 41.3877073 5.5964075 41.3193726 7.1800576 39.7615229 7.2826635 39.8691153 8.7379074 41.345173" fill="#d8f3dc"/>
          <rect x="1.9977005" y="42.2653552" width="3.9998685" height="3.1110088" transform="translate(-29.5563259 15.3536759) rotate(-44.4762432)" fill="#d8f3dc"/>
        </g>
        <g>
          <path d="M49.0361385,1.8325783l-5.4960535,8.7022159-.9255142,1.4722775c-1.2440441,1.9599156-2.7323228,3.7455573-4.4459431,5.3064159l-.4601572,.4210176-1.0870062,.9859651-5.8848349,5.3704405-.4114262,.3698038-5.5127274,5.0316032-.0490298,.0411473-4.6609215,4.2512616-5.9731225,5.4425528c-.4814101-.4787559-.9531107-.9677536-1.4245748-1.4467444-.0411487-.0490908-.0920666-.0878773-.1332749-.1369057l4.2622501-4.1918431,4.1059785-4.0280731,.2935905-.2769685,5.1811492-5.0937981,.0683347-.0716409,5.8850984-5.7805953,.6649278-.6458253,5.8656168-5.7601711,1.3296788-1.3017201c.0292508-.0307286,.068571-.061634,.0975855-.1023695l1.857463-1.8243385-1.0739918,1.1156378-.2620903,.3362998-.2912282,.3769772-3.2612875,4.2182018-3.030396,2.9823635-.7530386,.728007-5.777506,5.6779894-.1662175,.1640049-5.1713801,5.0834937-.2052404,.2049158-4.1940907,4.1101937-4.4872085,4.4071762,.3175287,.3125965,4.8616157-4.6460644,4.3528999-4.1639466,.1563859-.1537601,5.291874-5.0663757,.2545066-.2360561,5.82007-5.5689788,.8508604-.8203695,2.8173341-2.687272,3.0342943-4.5129117,1.6040797-2.3885198,.2704441-.4065239,.0978233-.0923015,.0486181-.0611627,5.0344729-4.9502798,.3520921-.3384256,.3616888-.3586164Z" fill="#d8f3dc"/>
          <path d="M15.9949487,41.1337707c-.4204282,.4100056-.8406185,.8300791-1.2710537,1.240321l-.614981-.6256061c-.4100056-.4204282-.8300806-.8406796-1.2503295-1.2708783l-1.4757291-1.4955379-.0821206-.0881123c.4201918-.4200125,.8506255-.8303155,1.2708173-1.250328,.0412083,.0490284,.0921262,.0878149,.1332749,.1369057,.4714642,.4789908,.9431647,.9679886,1.4245748,1.4467444,.3484326,.3518557,.6970406,.7137198,1.0354677,1.0658729,.2767917,.283521,.553286,.5570365,.8300791,.8406185Z" fill="#d8f3dc"/>
          <polygon points="43.2590436 7.4507463 42.1866058 8.5660242 43.1379625 7.6319036 43.2590436 7.4507463" fill="#d8f3dc"/>
          <path d="M17.5632482,41.4668253c-.8405289,.4099769-1.6811203,.8198943-2.5216492,1.2298712l-.317704-.3226049-.614981-.6256061c.3486104-.4884097,.6971613-.9767569,1.0559555-1.4553335,.174274-.2442346,.3585564-.4886446,.5328318-.7328182,.6251647,.6354392,1.2403821,1.2710522,1.8655468,1.9064914Z" fill="#d8f3dc"/>
          <polygon points="12.8585846 40.4776073 10.9520932 42.3431541 9.4042505 40.7592675 11.3007349 38.8939571 11.3828555 38.9820694 12.8585846 40.4776073" fill="#d8f3dc"/>
          <polygon points="10.3266625 42.9681434 8.9772671 44.2803418 8.7330039 44.5261685 8.5074275 44.2914395 7.1752152 42.9425169 7.2047038 42.9218563 8.6709895 41.4767948 8.7688738 41.3844918 10.3266625 42.9681434" fill="#d8f3dc"/>
          <rect x="4.2084449" y="44.5168917" width="3.9998685" height="3.1110088" transform="translate(-30.5004951 17.5475261) rotate(-44.4762432)" fill="#d8f3dc"/>
        </g>
      </g>
      <path d="M48.7611466,2.0491542c-.0287795,.0506815-.0578564,.0913575-.0866969,.1420405-.0773352,.1119038-.1444894,.2335185-.2118801,.3451264-.0195412,.0204867-.0290769,.040676-.0385501,.0609249-1.0412255,1.6550535-2.0722077,3.3198777-3.1034263,4.9746949l-1.927891,.5356642-.1308245-.4570602-.0226111-.1094819-.0101823-.009772-.0007091-.0300209-.0102419-.0097096-.2300359-.8448402-.021902-.079461c1.1982023-.9385899,2.396345-1.8771172,3.6045543-2.8159435,.5206108-.4024204,1.0510547-.8150246,1.5814361-1.2276883,.1964152-.1546446,.3830585-.2991068,.5794723-.4538125,.0097096-.0102419,.0197166-.0104783,.0294886-.0206606Z" fill="#d8f3dc"/>
      <path d="M40.6295351,10.1234277c-.0878163,.0920652-.1659216,.1739494-.2537989,.266016-.409947,.4298442-.8098885,.8593909-1.219898,1.2891755l-4.948163,5.218336c-.2147151,.2251037-.4294897,.4502698-.6544481,.6656029-.2144772,.2351717-.4392603,.4605132-.6637459,.6958602-1.865518,1.9046292-3.7608221,3.8199135-5.696154,5.7361432l-.1171281,.1227952c-1.7105503,1.6908272-3.4410522,3.3821868-5.201401,5.0842028-.0882876,.0721122-.1663929,.1539965-.2544441,.2361157-1.4084307,1.353643-2.8368753,2.7077587-4.2852743,4.0622847-1.3308577,1.2518072-2.6816698,2.5040247-4.0426628,3.7465312-.1959425,.1746585-.3916487,.359324-.5875897,.5340436-.4406785,.4004713-.8812945,.8010022-1.3219716,1.2015346-.6560998,.5956761-1.312262,1.1912927-1.9786051,1.7771982-.0292508,.0307286-.068571,.061634-.0978218,.0923625,.2730413-.2965693,.5563884-.5833083,.8394381-.880053,.3609186-.3886359,.7220736-.7672648,1.0929993-1.156137,.4000011-.4296092,.8099495-.8593924,1.219898-1.2891755,.0195412-.0204867,.0390214-.0409719,.0585641-.0613976,1.2982396-1.3610528,2.6066616-2.7123336,3.905374-4.0533724,1.3087193-1.3412752,2.617614-2.672542,3.9268061-3.9938033,.1073561-.1126129,.21495-.2151577,.3226049-.317704,1.7096049-1.7308551,3.4101468-3.421507,5.120932-5.1023883,.0097706-.0102433,.0095357-.0201893,.0194816-.0204242,2.0039015-1.9779247,3.998682-3.9155227,6.0039407-5.8334041,.2052404-.2049158,.4106561-.3998232,.6161329-.5947321,.0783416-.0718773,.1564469-.1537616,.2347276-.2256374,2.0469397-1.8488391,4.0838725-3.6974418,6.1307512-5.5462795,.2154837-.1951452,.4409134-.3905254,.6560998-.5956761,.2547429-.2260492,.5192551-.4624027,.773998-.6884518,.0292508-.0307286,.068571-.061634,.0975855-.1023695l.010007-.0002364c.0978233-.0923015,.1959425-.1746585,.2937658-.2669601Z" fill="#d8f3dc"/>
      <path d="M9.8420928,42.7795211c-.6029678,.3043012-1.2159412,.6088997-1.8187336,.9232093-.2762594-.2635695-.5423364-.517367-.8186554-.7808741-.0102433-.0097706-.030669-.0293133-.0409123-.0390839l-.5833083-.5563884c-.0818828-.0780443-.1637061-.156151-.2455904-.2342563,0,0-.0002364-.010007,.0097706-.0102433,.3545439-.6585191,.7295121-1.2975565,1.1040685-1.9566094,.3905254,.4409134,.7910577,.8815905,1.19159,1.3222675,.0102419,.0097096,.0104783,.0197166,.0306676,.0292522,.380282,.4311428,.780578,.8618129,1.1711034,1.3027263Z" fill="#d8f3dc"/>
    </g>
  </g>
</svg>