<?xml version="1.0" encoding="UTF-8"?>
<svg xmlns="http://www.w3.org/2000/svg" xmlns:xlink="http://www.w3.org/1999/xlink" viewBox="0 0 50 50">
  <defs>
    <clipPath id="clippath">
      <rect x="-70" width="50" height="50" fill="none"/>
    </clipPath>
    <clipPath id="clippath-1">
      <rect width="50" height="50" fill="none"/>
    </clipPath>
  </defs>
  <g id="tierflüsterer">
    <g clip-path="url(#clippath)">
      <path d="M1.1928661-1.4679487V51.3177972H-83.3507768c8.0725743-5.7700248,23.7035147-11.3534914,38.58364-10.4661393,14.5797771,.8691324,24.5544829,7.7176501,32.7635665,1.8201981,4.254702-3.0579195,8.0088607-9.5196285,6.825743-15.4716842C-9.2095596,6.9595775-68.7118411,1.1258392-76.6206042,.3522494c-9.8245317-.9647028-16.258911-.8964343-18.5933173-1.8201981H1.1928661Z" fill="#1b4332"/>
    </g>
  </g>
  <g id="_Шар_3" data-name="Шар 3">
    <g clip-path="url(#clippath-1)">
      <rect width="50" height="50" fill="#081c15"/>
      <path d="M-2.1352539-4.4427876L72.1050568,30.3938484l-6.40625,25.1007576c-18.8995972-1.1648674-37.7992096-2.3297386-56.6988068-3.494606C3.1408234,33.4424782-2.7183533,14.8849545-8.5775299-3.6725686l6.442276-.7702191Z" fill="#1b4332"/>
      <path d="M-4.6760559-5.4346223L74.0964661,38.0983849l-3.9595947,22.9493294c-17.378952-3.0159035-34.7579193-6.0318108-52.1368713-9.0477142C8.8375854,32.63377-.3248138,13.2675419-9.4872284-6.0986876l4.8111725,.6640654Z" fill="#2d6a4f"/>
      <path d="M-6.3439636-6.1928334L74.6330566,45.4135475l-5.1397095,19.2036018c-14.8311157-3.2057152-29.6622314-6.4114342-44.4933472-9.6171494C13.5821381,34.3428078,2.1642609,13.6856146-9.2536011-6.9715786l2.9096375,.7787452Z" fill="#40916c"/>
      <polygon points="-7.8561208 -7.5329717 74.1410149 53.0770124 70.3251625 67.3342358 38.9010783 58.9237855 -10.0280817 -8.7378955 -7.8561208 -7.5329717" fill="#52b788"/>
      <polygon points="-8.9994414 -9.0861994 74.9685742 60.4700494 72.3208398 70.3628166 48.461813 63.9771043 -8.9994414 -9.0861994" fill="#74c69d"/>
      <path d="M4.0995907,11.4703045l-.5435879-.1520326-.3781086,1.3113405,5.5214716,10.013241c.331251-.328072,.7670586-.5392577,1.2334553-.592091L4.0995907,11.4703045Zm6.4008061,11.464941c-.6529176-.1897231-1.3241211,.180408-1.5138315,.8332823s.1786294,1.3250254,.831547,1.5147485,1.3254756-.1800144,1.515186-.8328887c.1897358-.6529616-.1799143-1.3254942-.832832-1.5152172l-.0000696,.0000752Zm6.3910623,2.6032332c-.8396871,.2966814-1.6156841,.4023835-2.3465206,.3366883,.7760596,2.1000819,1.2741762,3.7547637,1.502094,4.984347,.1255731,.6771234,.1729563,1.2245555,.1251175,1.6736857-.0478397,.4491285-.208209,.8593534-.5827894,1.0579173-.3745488,.1986193-.7998957,.1090383-1.2114964-.0899616-.4115567-.1989871-.8599596-.5284422-1.3792619-.9900154-.9551412-.8487748-2.1402681-2.1517991-3.5613019-3.9201748-.3230981,.6805332-.7978431,1.2940705-1.4359793,1.8344076,2.2457049,2.7170964,6.078808,5.7354717,9.6399803,7.007136,1.2399959-3.6781492,.4487978-8.4453621-.7497845-11.8940595l-.0000577,.0000295Zm-4.8257868-.6176617c-.3534156,.8290501-1.2122937,1.3332903-2.099938,1.2506427-.0055193,.5195066-.0682902,1.0136609-.1893019,1.4817952,1.5503202,1.9568284,2.8257849,3.3691022,3.7858172,4.2222345,.485238,.4312583,.8933191,.7183445,1.1861673,.8599097,.2928358,.1416079,.4198953,.1163275,.4417996,.1046901,.0219482-.0116246,.1030458-.0865961,.1361714-.397217,.0330322-.3104587,.0018056-.7972478-.1150907-1.4279344-.2288285-1.2341114-.7734512-3.0248151-1.6468204-5.3373141-.517158-.1639177-1.0139133-.4182648-1.4988312-.7567198l.0000267-.0000869Z" fill="#d8f3dc"/>
      <path d="M1.8604649,1.3148721l-.3771506,.011915,.0215625,.9170948L7.0324471,7.5541675c.1455409-.2770747,.3811834-.5002338,.6680597-.6279957L1.8604649,1.3148721Zm6.379231,6.0642904c-.4544304,.0097499-.8083618,.3822254-.7985591,.8391118s.3793834,.8138079,.8338138,.804058,.8093045-.3822456,.7995018-.8391321c-.0098039-.4569475-.3802968-.8138499-.8347272-.8041l-.0000293,.0000622Zm4.5976578,.3830736c-.4761027,.3592842-.9498456,.5832698-1.4291237,.6882451,.9156907,1.190612,1.5648819,2.1515266,1.9565798,2.8942047,.2157439,.4089758,.355637,.7505166,.4151051,1.0481815,.0594671,.2976639,.0393707,.5930288-.1597508,.7957691-.1990902,.2027695-.4883168,.2309357-.7906974,.1861626-.3023499-.0447737-.6543379-.1658024-1.078013-.3572899-.7792188-.352079-1.7961237-.9491838-3.0567153-1.7972425-.0697288,.5014736-.2495978,.9905057-.5483402,1.4654815,1.9766217,1.2904966,5.0260208,2.4546887,7.5520495,2.5534183,.0539688-2.6084587-1.4057113-5.5065043-2.8610631-7.4769609l-.0000309,.0000305Zm-3.2015579,.5752431c-.059311,.6028227-.5060709,1.099081-1.088755,1.2247475,.1005581,.3342802,.1595229,.6638254,.1761296,.9884066,1.3808032,.9428935,2.4772113,1.5918783,3.2604226,1.9457674,.3958761,.1789026,.7136592,.2808755,.9287947,.3127178,.2151361,.0318722,.2911081-.0099159,.3027469-.0217881,.0116694-.0118729,.0483724-.0762773,.0072694-.282152-.04113-.2057518-.1585694-.5116533-.3594762-.8925948-.3931859-.7453988-1.0992887-1.7841857-2.1195977-3.0914377-.3626751-.0010271-.7304542-.0641549-1.1075339-.1836055l-.0000004-.0000611Z" fill="#d8f3dc"/>
      <path d="M18.7997808,18.756104l-.8087328,.0142787,.0188644,1.9556266,11.6893107,11.4830377c.3202132-.5863546,.8319408-1.0551194,1.4506364-1.3190132l-12.3500787-12.1339298Zm13.492256,13.1154785c-.9743083,.0073847-1.7440271,.7909625-1.736643,1.7652062s.7888914,1.7459985,1.7631998,1.7386138,1.7460483-.7909778,1.7386642-1.7652215c-.0073852-.974374-.790848-1.746115-1.7651563-1.7387303l-.0000647,.0001318Zm9.8431075,.9521743c-1.0311851,.7518553-2.0532772,1.2153614-3.0836836,1.4250072,1.9271643,2.5650537,3.2899691,4.6325982,4.1073767,6.2273309,.4502237,.8781839,.7398815,1.6103789,.8584664,2.2466709,.118583,.63629,.0666994,1.2653331-.3661405,1.6916476-.4327738,.4263776-1.0535367,.4778919-1.7003181,.3735321-.6467158-.1043603-1.3975503-.3727386-2.2999365-.7934291-1.6596621-.7735106-3.8214682-2.0763567-6.498103-3.9213519-.1644118,1.0669459-.5645249,2.1041227-1.2190099,3.10783,4.1981646,2.8092627,10.6994669,5.3809117,16.1107644,5.6658589,.1934727-5.5589163-2.848744-11.7797831-5.9093487-16.0231608l-.0000672,.0000642Zm-6.8793152,1.1318559c-.1451051,1.2833012-1.1174829,2.3280125-2.3701448,2.5787173,.2055644,.7155574,.3221197,1.4197947,.3480338,2.112201,2.9314657,2.0507011,5.2621301,3.4664852,6.9302957,4.2439721,.8431776,.3930435,1.5212665,.6197915,1.9814341,.694014,.4601681,.0742862,.6242514-.0125542,.6495518-.0375194,.0253661-.0249657,.1059554-.1611756,.0239963-.6012551-.0820207-.4398184-.3246147-1.095378-.743873-1.9133632-.8205157-1.6005762-2.3029813-3.835801-4.4509038-6.6525835-.7773202-.0128834-1.5637284-.1582989-2.3683912-.4240529l.000001-.0001303Z" fill="#d8f3dc"/>
      <path d="M29.8392776,16.5754297l-.3800403,.0957779,.224213,.9207139,6.7800364,4.1314628c.0865405-.311935,.2763963-.5894689,.5392825-.7821085l-7.1634916-4.3658461Zm7.8105117,4.7032522c-.4589285,.1107544-.7358608,.5652419-.6251137,1.02414s.5644817,.737019,1.0234102,.6262646,.7368128-.5654717,.6260657-1.0243697c-.1107619-.4589594-.5654178-.7368586-1.0243463-.6261041l-.000016,.0000693Zm4.7494464-.634414c-.4038015,.4683058-.8350592,.7995487-1.2981898,1.0119193,1.191769,.99818,2.0624619,1.8237382,2.6237452,2.4862406,.3091313,.3648149,.5264241,.6784209,.652435,.9656085,.1260097,.2871869,.1707843,.5897223,.0134791,.8385401-.1572671,.2488402-.4445114,.341493-.7611945,.363459-.3166521,.0219585-.7004924-.0220139-1.1726138-.1211715-.8682981-.1822659-2.0318191-.5590212-3.4979594-1.1349156,.039889,.5215554-.0347185,1.0550142-.2330402,1.6006859,2.2902606,.8633799,5.6411293,1.3610662,8.225901,.899747-.5207354-2.6443566-2.6411577-5.2448195-4.552538-6.910151l-.0000246,.0000377Zm-3.1214893,1.2914849c.0728196,.6215202-.2709899,1.2215397-.8344744,1.4777546,.1757803,.3150138,.3083141,.6344859,.396775,.9583548,1.6090338,.6449032,2.8646674,1.0563588,3.7374158,1.2395648,.4411391,.0926307,.7860698,.1249685,1.0113784,.1093277,.2253158-.0156108,.2931799-.074653,.3023696-.0892187,.0092207-.0145732,.0322514-.0877186-.0548743-.2863529-.087126-.1985043-.2737737-.4811304-.5616657-.820949-.5633933-.6649176-1.5090111-1.5564237-2.8326631-2.6490805-.3682083,.0795026-.7552964,.0974685-1.1642474,.0606608l-.0000139-.0000616Z" fill="#d8f3dc"/>
    </g>
  </g>
</svg>