<?xml version="1.0" encoding="UTF-8"?>
<svg id="tierflüsterer" xmlns="http://www.w3.org/2000/svg" xmlns:xlink="http://www.w3.org/1999/xlink" viewBox="0 0 50 50">
  <defs>
    <clipPath id="clippath">
      <rect width="50" height="50" fill="none"/>
    </clipPath>
  </defs>
  <g clip-path="url(#clippath)">
    <path d="M38.9742501,46.9526486c-.0091099,.4550495-.0682685,.9100991-.172921,1.3651486H-29.9748642c-.3094304-.8054466-.5369551-1.6381672-.6734644-2.5027724-.8145287-5.173911,1.7428475-9.396784,2.2752477-10.2386145C-22.0979579,25.6790829-5.652461,26.944134,.2950397,27.3855187c16.2953227,1.2058924,38.8748784,9.6606927,38.6792104,19.56713Z" fill="#52b788"/>
    <g>
      <ellipse cx="16.3593972" cy="27.6552215" rx="48.0077258" ry="35.0388141" fill="#007f5f"/>
      <ellipse cx="22.1309422" cy="28.8303494" rx="39.6727352" ry="28.4781" fill="#2b9348"/>
      <ellipse cx="25.1721899" cy="30.8405682" rx="34.5230913" ry="25.4827739" fill="#55a630"/>
      <ellipse cx="26.5980117" cy="31.2956177" rx="26.392873" ry="22.2974272" fill="#80b918"/>
      <ellipse cx="31.1485071" cy="32.4332416" rx="21.8423776" ry="19.3396052" fill="#ac0"/>
    </g>
    <g>
      <path d="M25.2797194,32.3429946l-.7296996-.7445147,.003485-.4348132c.0005491-.0685122-.0257381-.1342399-.0730002-.1822658l-.7297416-.7415337,.0034851-.4348313c.0008354-.1042315-.0609745-.197058-.1559522-.2365404-.0949959-.0394826-.2023939-.0194921-.2774231,.0513863l-.4713411,.4668214c-.8906797,.0137126-1.8071116,.2714533-2.6907574,.5234941-.7672032,.2172342-1.4866247,.4199446-2.0614434,.4153375-.8368881-.0067076-1.5929518-.0633958-2.2626766-.1164106-.5357953-.0400342-1.0448202-.0768907-1.4885769-.0804473-.2620876-.0021006-.9538798,.0966112-1.6956314,.4838228-.8883456,.4664423-1.5315021,1.1880284-1.8603911,2.0878694-.1309987,.3652928-.3358092,.6495883-.5316228,.925012-.2710632,.3760774-.5482026,.7640497-.5822984,1.3028739-.0036256,.0803765,.0285102,.1580765,.0876731,.2091792,.0473519,.0391007,.1037541,.0604041,.1633228,.0608815,.0208499,.0001671,.0387426-.0026708,.0596402-.0084479,.0149115-.0028618,.0865299-.0201578,.2029725-.0549643l-.2523851,1.3889051c-.009355,.0535348-.0008593,.1072127,.0225898,.1550659l.2666685,.5442162c.0410077,.086697,.1269408,.1409955,.2252282,.1417833l.5390629,.0043205c.1399873,.001122,.2540694-.111146,.2551912-.2511151,.001122-.1399873-.111146-.2540694-.2511333-.2551914l-.384188-.0030792-.0937548-.1943393c.3191552-.4293199,.7858411-1.057008,.9212745-1.2316587,1.0638853-.4442023,1.5981524-.9551851,1.8237173-1.2273889,.1596972,.1412581,.3047692,.2496586,.4143663,.3249981l-.473892,1.1548024c-.0395304,.1009582-.0106918,.2203344,.0721408,.2894966l1.6123139,1.3651292c.0443707,.0390768,.100773,.0603802,.1603416,.0608576l.542044,.0043444c.1399873,.001122,.2540694-.111146,.2551912-.2511151,.001122-.1399873-.111146-.2540694-.2511333-.2551914l-.449719-.0036044-.7780302-.661497c.0135265-.5717476,.2693203-.9003003,.5672198-1.2791621,.18052-.2248996,.3731138-.4705718,.5066402-.7792714,.2677214,.040867,.595173,.0643427,.937661,.0670877,.2650688,.0021245,.5361771-.0076098,.7954746-.0293642l-.4671712,1.8041729c-.0031483,.0208261-.0062965,.0416521-.0064637,.062502l-.0086649,1.0811069c-.0011218,.1399691,.1111461,.2540512,.2511334,.2551732l.5420259,.0043443c.1399873,.001122,.2540694-.111146,.2551912-.2511151,.001122-.1399873-.111146-.2540694-.2511333-.2551914l-.2888817-.0023154,.0042488-.5301194c.039244-.0652207,.1863689-.2129636,.306461-.3311279,.3422759-.3427663,.8046383-.8007156,1.0118358-1.3828363,.1881325-.0610278,.5285886-.1744627,.9325073-.4035527-.0091106,.0207783-.018203,.0415567-.0302766,.0623112-.0544599,.1038018-.0316554,.2320736,.057068,.3102089l2.7681794,2.4526065,.1587901,.2544331c.0470712,.071857,.1271317,.1171826,.2134944,.1178748l.542044,.0043444c.1399873,.001122,.2540694-.111146,.2551912-.2511151,.001122-.1399873-.111146-.2540694-.2511333-.2551914l-.4020567-.0032224-1.7350482-2.7749108c.030629-.1040109,.0765569-.2614909,.1195459-.4219939,.0429649-.1575037,.0767478-.2853038,.1013427-.380419,.0092834-.0446095,.021566-.0891768,.0278444-.1308291,.6475112-.1467138,1.5880128-.4340388,2.3368486-.9611899,.1157026,.0575185,.2432401,.1240759,.3826306,.1996542,.0830474,.0423682,.1751816,.0669211,.2645255,.0676372,.113175,.0009071,.2266126-.0309422,.3224439-.0956912l.652718-.4266465c.0658891-.0441558,.1051568-.1123395,.1146789-.1867242,.0065591-.0744085-.0196564-.1490797-.0728331-.2031157Zm-14.0969966,3.3479639q-.0687087,.0262451-.2674319,.2927195c-.0872937,.115464-.198705,.2664746-.3131212,.4204242l.140279-.7792264c.5769249-.2604618,1.346181-.7338213,1.8142751-1.5372161,.1000092,.1556683,.214948,.308493,.3447983,.4584559-.1534693,.1953574-.6340641,.7008077-1.7187993,1.1448428Zm10.1190653,.5814794l-1.342691-1.1872502c.0667779-.1573128,.1429529-.3711597,.1414278-.5528526,.1678556-.1326882,.3418167-.2831975,.5129875-.4575435,.0328042-.0056998,.0715707-.0113518,.1193045-.0198951-.0523143,.2080754-.1411595,.5171148-.220793,.7904883-.0214228,.071308-.0130761,.145836,.0251413,.2086962l.764623,1.218357Zm3.006777-3.5351444c-.0239267,.0117336-.0507445,.0144819-.0744802,.0023844-.367725-.1995165-.8542053-.4476501-1.0711105-.5119425-.1336908-.0427741-.2772617,.0335176-.3170546,.1672323s.0364988,.2772856,.1702135,.3170785c.0148398,.0060816,.0356421,.0121929,.0593834,.0213272-1.1222868,.6700806-2.5980348,.8488774-2.6129406,.8487579-.0596222,.0084662-.1134615,.0348305-.1555013,.0791775-.8170402,.8601705-1.653167,1.1304621-1.9667154,1.2322055-.0448004,.0145295-.0806334,.0261495-.1134854,.0378116-.0746949,.0291785-.1317838,.0912748-.1532781,.1715081-.1134641,.4071359-.4172066,.7710623-.69955,1.0666437l.3688755-1.429674c.1323805-.1657311,.5359438-.7224454,.5715855-1.4518819,.0070842-.1399213-.0991919-.2599181-.2391132-.2670023-.1399397-.0070661-.2599181,.0991919-.2670023,.2391132-.0280801,.5299466-.3115215,.9625159-.4319536,1.1253796-.5753733,.0668682-1.2931899,.0670595-1.796014,.0004937,.0156993-.1011492,.022497-.205333,.0234041-.318508,.0054901-.6849943-.5540889-1.4728113-.5776336-1.5087399-.0795115-.1138196-.2401396-.1389396-.3539831-.0564469-.1138194,.0794934-.1389396,.2401396-.0564469,.3539831,.1354841,.1887293,.4852183,.7752956,.4817571,1.2071458-.004607,.5748004-.2633579,.9003481-.5612574,1.2792099-.2527592,.3196511-.5325989,.6748251-.6380504,1.1981706l-.1538246-.1322851,.4800454-1.1785857c.048575-.1157743,.0020052-.2501812-.1076875-.313596-.0148341-.0090629-1.4880943-.8846086-1.4773527-2.224822,.001122-.1399873-.1111221-.2570506-.2510912-.2581724-.1399873-.001122-.2540933,.1141271-.2552153,.2541144-.0022199,.2769752,.0462092,.5513751,.1423245,.8231758-.4132256,1.0183101-1.4300634,1.5373323-2.0006918,1.7561421,.0911342-.2226528,.2357076-.424026,.395354-.6461297,.2048582-.2902397,.4397964-.6159964,.5951331-1.0466111,.6790815-1.8560843,2.6300743-2.2425481,3.0768121-2.2389675,.428869,.0034373,.9021565,.0399892,1.4528393,.0801609,.6786683,.0530865,1.4466146,.1128513,2.2983903,.1196782,.6462938,.00518,1.4015723-.2121498,2.2016035-.4380468,.7074913-.1998429,1.4358804-.4054809,2.13342-.4773327,.0025037,.0595926,.0258574,.1193522,.0731435,.164397,.0472381,.0510252,.1125783,.0753634,.1780911,.0758885,.065531,.0005252,.1312347-.0227626,.1793028-.073024l.2731851-.2688408,.1170633-.1122441c.0028857,.0119304,.0087525,.0239028,.01162,.035833q.0029573,.0030051,.0029334,.0059862c.0117575,.0209455,.023497,.0418727,.0411987,.0628659l.0059145,.0060101,.0029391,.0030049,.732699,.7445206-.0034851,.4348313c-.000549,.068494,.0257199,.1342397,.0730241,.1792846l.5879191,.5974194-.3952559,.2619179Z" fill="#eeef20"/>
      <path d="M24.703821,32.4753756l-.3952559,.2619179c-.0239267,.0117336-.0507445,.0144819-.0744802,.0023844-.367725-.1995165-.8542053-.4476501-1.0711105-.5119425-.1336908-.0427741-.2772617,.0335176-.3170546,.1672323s.0364988,.2772856,.1702135,.3170785c.0148398,.0060816,.0356421,.0121929,.0593834,.0213272-1.1222868,.6700806-2.5980348,.8488774-2.6129406,.8487579-.0596222,.0084662-.1134615,.0348305-.1555013,.0791775-.8170402,.8601705-1.653167,1.1304621-1.9667154,1.2322055-.0448004,.0145295-.0806334,.0261495-.1134854,.0378116-.0746949,.0291785-.1317838,.0912748-.1532781,.1715081-.1134641,.4071359-.4172066,.7710623-.69955,1.0666437l.3688755-1.429674c.1323805-.1657311,.5359438-.7224454,.5715855-1.4518819,.0070842-.1399213-.0991919-.2599181-.2391132-.2670023-.1399397-.0070661-.2599181,.0991919-.2670023,.2391132-.0280801,.5299466-.3115215,.9625159-.4319536,1.1253796-.5753733,.0668682-1.2931899,.0670595-1.796014,.0004937,.0156993-.1011492,.022497-.205333,.0234041-.318508,.0054901-.6849943-.5540889-1.4728113-.5776336-1.5087399-.0795115-.1138196-.2401396-.1389396-.3539831-.0564469-.1138194,.0794934-.1389396,.2401396-.0564469,.3539831,.1354841,.1887293,.4852183,.7752956,.4817571,1.2071458-.004607,.5748004-.2633579,.9003481-.5612574,1.2792099-.2527592,.3196511-.5325989,.6748251-.6380504,1.1981706l-.1538246-.1322851,.4800454-1.1785857c.048575-.1157743,.0020052-.2501812-.1076875-.313596-.0148341-.0090629-1.4880943-.8846086-1.4773527-2.224822,.001122-.1399873-.1111221-.2570506-.2510912-.2581724-.1399873-.001122-.2540933,.1141271-.2552153,.2541144-.0022199,.2769752,.0462092,.5513751,.1423245,.8231758-.4132256,1.0183101-1.4300634,1.5373323-2.0006918,1.7561421,.0911342-.2226528,.2357076-.424026,.395354-.6461297,.2048582-.2902397,.4397964-.6159964,.5951331-1.0466111,.6790815-1.8560843,2.6300743-2.2425481,3.0768121-2.2389675,.428869,.0034373,.9021565,.0399892,1.4528393,.0801609,.6786683,.0530865,1.4466146,.1128513,2.2983903,.1196782,.6462938,.00518,1.4015723-.2121498,2.2016035-.4380468,.7074913-.1998429,1.4358804-.4054809,2.13342-.4773327,.0025037,.0595926,.0258574,.1193522,.0731435,.164397,.0472381,.0510252,.1125783,.0753634,.1780911,.0758885,.065531,.0005252,.1312347-.0227626,.1793028-.073024l.2731851-.2688408,.1170633-.1122441c.0028857,.0119304,.0087525,.0239028,.01162,.035833q.0029573,.0030051,.0029334,.0059862c.0117575,.0209455,.023497,.0418727,.0411987,.0628659l.0059145,.0060101,.0029391,.0030049,.732699,.7445206-.0034851,.4348313c-.000549,.068494,.0257199,.1342397,.0730241,.1792846l.5879191,.5974194Z" fill="#eeef20"/>
    </g>
    <g>
      <path d="M44.359844,36.0827681l-.6559043-.6606627v-.3889216c0-.0612812-.0239068-.1198796-.0663879-.1624951l-.6559205-.6579962v-.3889379c0-.0932306-.0557716-.1758114-.1407338-.2104437-.0849784-.0346322-.1805892-.0159829-.2469771,.0479486l-.4169015,.4209036c-.7940124,.0186494-1.6092411,.255742-2.3952793,.4875016-.6824692,.1997939-1.322441,.3862551-1.8349696,.3862551-.7461989,0-1.4206938-.0452821-2.0181845-.0878976-.4779894-.0319657-.9320882-.0612812-1.3277572-.0612812-.2336866,0-.8497679,.0932469-1.5083303,.444886-.7886962,.4235539-1.356964,1.0735505-1.6437641,1.8807255-.1141852,.3276567-.2947582,.5833987-.4673731,.8311411-.2389866,.3383065-.4833056,.6872954-.5098542,1.1694639-.0026581,.0719147,.0265487,.1411792,.0796622,.1864613,.0424973,.0346322,.0929365,.0532816,.1460501,.0532816,.0185905,0,.034523-.0026665,.0531135-.0079833,.0132743-.0026665,.0770041-.0186494,.180573-.0506151l-.215096,1.2440452c-.0079581,.0479486,0,.0958971,.0212487,.1385289l.2416447,.484835c.0371811,.0772478,.1141852,.1251963,.2018217,.1251963h.4806475c.1248176,0,.2257285-.1012302,.2257285-.2264265,0-.1252126-.1009108-.2264428-.2257285-.2264428h-.3425555l-.0849784-.1731449c.2814839-.3862714,.6930854-.9510207,.8125868-1.108199,.9453625-.4049207,1.4180519-.8657734,1.6172155-1.1108493,.1433919,.1251963,.2735096,.2211098,.3717623,.2877077l-.4142596,1.0362518c-.034523,.0905804-.0079581,.1971436,.0663879,.2584085l1.4472586,1.2094129c.0398392,.0346322,.0902784,.0532816,.1433919,.0532816h.4833056c.1248176,0,.2257285-.1012302,.2257285-.2264265,0-.1252126-.1009108-.2264428-.2257285-.2264428h-.4009853l-.6984016-.5860652c.0079743-.5114677,.2336866-.8071587,.4965799-1.148148,.1593406-.2024441,.3292974-.4235539,.4461407-.7006118,.2389866,.0346322,.5311029,.0532816,.8364773,.0532816,.2363447,0,.4779894-.0106498,.7090178-.0319657l-.4036272,1.6170002c-.0026581,.0186494-.0053162,.0372988-.0053162,.0559481v.9670036c0,.1251963,.1009108,.2264265,.2257285,.2264265h.4832894c.1248176,0,.2257285-.1012302,.2257285-.2264265,0-.1252126-.1009108-.2264428-.2257285-.2264428h-.2575771v-.474169c.034523-.0586147,.1646406-.1918106,.2708677-.2983575,.3027163-.3090236,.7116759-.7219276,.892249-1.2440614,.1672987-.0559319,.4700313-.1598286,.8285192-.367622-.0079743,.0186494-.0159324,.0372988-.0265487,.0559481-.0478135,.0932306-.0265649,.2077934,.0530973,.2770416l2.4855739,2.1737662,.1433919,.2264265c.0424811,.0639314,.1141852,.1038967,.1911893,.1038967h.4833056c.1248176,0,.2257285-.1012302,.2257285-.2264265,0-.1252126-.1009108-.2264428-.2257285-.2264428h-.358488l-1.56676-2.469441c.0265649-.0932469,.0663879-.2344261,.103569-.3782881,.0371811-.1411792,.0663879-.2557257,.0876365-.3409731,.0079581-.0399653,.0185905-.0799143,.0238906-.117213,.5762583-.1358624,1.4127357-.3995877,2.0766143-.8764394,.103569,.0506151,.2177541,.1092297,.3425717,.1758277,.074346,.0372988,.1566663,.0585984,.2363285,.0585984,.1009108,0,.2018217-.0292992,.2868001-.0878976l.5789002-.3862714c.0584297-.0399653,.0929527-.1012302,.1009108-.1678281,.0053162-.066598-.0185905-.1331959-.0663879-.1811445Zm-12.5446478,3.0954715q-.0610716,.0239662-.2363447,.2637253c-.0770041,.1038967-.1752568,.2397591-.2761677,.3782718l.1195014-.6979452c.5125124-.2370926,1.1949815-.6659795,1.606583-1.3878909,.0902784,.1385127,.1938474,.2743751,.3106907,.407571-.1354338,.1758277-.5603097,.6313473-1.5242627,1.036268Zm9.0260911,.4475363l-1.2055977-1.0522509c.0584135-.1411792,.1248014-.3329898,.1221433-.4954849,.1487082-.1198796,.3027325-.255742,.4540988-.412904,.0292068-.005333,.0637298-.0106661,.1062271-.0186494-.0451554,.1864775-.1221595,.4635191-.1912055,.708595-.0185905,.0639314-.0106162,.1305294,.0239068,.1864775l.6904273,1.0842166Zm2.6555145-3.1833853c-.0212487,.0106661-.0451392,.0133163-.0663879,.0026665-.3292812-.1758114-.7647895-.3942547-.9586368-.4502028-.1195014-.0372988-.2469609,.0319657-.2814839,.1518453s.034523,.2477424,.1540244,.2823747c.0132743,.005333,.0318649,.0106498,.0530973,.0186494-.9958179,.6073649-2.3102846,.7778595-2.3235752,.7778595-.0530973,.0079996-.1009108,.0319657-.1380757,.071931-.7223084,.775193-1.4658492,1.0229354-1.744675,1.1161823-.0398392,.0133163-.0717041,.0239662-.1009108,.0346322-.0663879,.0266327-.1168433,.0825808-.1354338,.1544955-.0982527,.3649555-.3664623,.6926285-.6160813,.9590203l.318665-1.2813439c.1168433-.1491788,.4726732-.6499967,.499238-1.3026598,.0053162-.1251963-.0902946-.2317596-.215096-.2370926-.1248176-.0053168-.2310285,.0905804-.2363447,.2157767-.0212487,.4741852-.2708677,.8631068-.3770785,1.0096354-.5125124,.0639314-1.1525004,.0692482-1.601283,.0133163,.0132743-.0905804,.0185905-.183811,.0185905-.2850412,0-.6126979-.504538-1.3133097-.5257867-1.3452754-.0717041-.1012302-.215096-.1225461-.3160069-.0479486-.1009108,.0719147-.1221595,.2157767-.0477973,.3170069,.1221433,.1678281,.4381502,.6899457,.4381502,1.076217,0,.5141342-.2283704,.8071587-.4912637,1.148148-.2230703,.2877077-.4700313,.6073811-.5603097,1.076217l-.1380919-.117213,.4195758-1.0575677c.0424811-.1038967,0-.2237763-.0982527-.2797081-.0132905-.0079996-1.3330735-.780526-1.3330735-1.9792892,0-.1252126-.1009108-.2291093-.2257122-.2291093-.1248176,0-.2257285,.1038967-.2257285,.2291093,0,.2477424,.0451392,.4928183,.1327757,.7352277-.3611461,.9137382-1.2640275,1.3852406-1.7712236,1.5850345,.0796622-.1997939,.2071217-.3809383,.3478717-.5807322,.180573-.2610588,.3877109-.5540995,.5231286-.9403546,.5921908-1.6649488,2.3288914-2.0245875,2.7272186-2.0245875,.3823947,0,.8046287,.0292992,1.2958924,.0612812,.6054651,.0426155,1.2905761,.0905641,2.0500494,.0905641,.5762583,0,1.248095-.1997939,1.959771-.407571,.6293556-.183811,1.2773018-.372955,1.8986993-.4422195,.0026581,.0532816,.0239068,.1065632,.0663879,.1465122,.0424811,.0452983,.1009108,.066598,.1593244,.066598,.0584297,0,.1168433-.0212996,.1593406-.066598l.2416447-.2424094,.103569-.1012302c.0026581,.0106498,.0079743,.0213159,.0106162,.0319657q.0026581,.0026665,.0026581,.005333c.0106324,.0186494,.0212487,.0372825,.0371811,.0559319l.0053162,.005333,.0026419,.0026665,.6585786,.6606465v.3889379c0,.0612649,.0238906,.1198796,.0663879,.1598286l.5284448,.5301171-.3505299,.2370926Z" fill="#ffff3f"/>
      <path d="M43.8473316,36.2052979l-.3505299,.2370926c-.0212487,.0106661-.0451392,.0133163-.0663879,.0026665-.3292812-.1758114-.7647895-.3942547-.9586368-.4502028-.1195014-.0372988-.2469609,.0319657-.2814839,.1518453s.034523,.2477424,.1540244,.2823747c.0132743,.005333,.0318649,.0106498,.0530973,.0186494-.9958179,.6073649-2.3102846,.7778595-2.3235752,.7778595-.0530973,.0079996-.1009108,.0319657-.1380757,.071931-.7223084,.775193-1.4658492,1.0229354-1.744675,1.1161823-.0398392,.0133163-.0717041,.0239662-.1009108,.0346322-.0663879,.0266327-.1168433,.0825808-.1354338,.1544955-.0982527,.3649555-.3664623,.6926285-.6160813,.9590203l.318665-1.2813439c.1168433-.1491788,.4726732-.6499967,.499238-1.3026598,.0053162-.1251963-.0902946-.2317596-.215096-.2370926-.1248176-.0053168-.2310285,.0905804-.2363447,.2157767-.0212487,.4741852-.2708677,.8631068-.3770785,1.0096354-.5125124,.0639314-1.1525004,.0692482-1.601283,.0133163,.0132743-.0905804,.0185905-.183811,.0185905-.2850412,0-.6126979-.504538-1.3133097-.5257867-1.3452754-.0717041-.1012302-.215096-.1225461-.3160069-.0479486-.1009108,.0719147-.1221595,.2157767-.0477973,.3170069,.1221433,.1678281,.4381502,.6899457,.4381502,1.076217,0,.5141342-.2283704,.8071587-.4912637,1.148148-.2230703,.2877077-.4700313,.6073811-.5603097,1.076217l-.1380919-.117213,.4195758-1.0575677c.0424811-.1038967,0-.2237763-.0982527-.2797081-.0132905-.0079996-1.3330735-.780526-1.3330735-1.9792892,0-.1252126-.1009108-.2291093-.2257122-.2291093-.1248176,0-.2257285,.1038967-.2257285,.2291093,0,.2477424,.0451392,.4928183,.1327757,.7352277-.3611461,.9137382-1.2640275,1.3852406-1.7712236,1.5850345,.0796622-.1997939,.2071217-.3809383,.3478717-.5807322,.180573-.2610588,.3877109-.5540995,.5231286-.9403546,.5921908-1.6649488,2.3288914-2.0245875,2.7272186-2.0245875,.3823947,0,.8046287,.0292992,1.2958924,.0612812,.6054651,.0426155,1.2905761,.0905641,2.0500494,.0905641,.5762583,0,1.248095-.1997939,1.959771-.407571,.6293556-.183811,1.2773018-.372955,1.8986993-.4422195,.0026581,.0532816,.0239068,.1065632,.0663879,.1465122,.0424811,.0452983,.1009108,.066598,.1593244,.066598,.0584297,0,.1168433-.0212996,.1593406-.066598l.2416447-.2424094,.103569-.1012302c.0026581,.0106498,.0079743,.0213159,.0106162,.0319657q.0026581,.0026665,.0026581,.005333c.0106324,.0186494,.0212487,.0372825,.0371811,.0559319l.0053162,.005333,.0026419,.0026665,.6585786,.6606465v.3889379c0,.0612649,.0238906,.1198796,.0663879,.1598286l.5284448,.5301171Z" fill="#ffff3f"/>
    </g>
    <g>
      <path d="M71.1928661-1.4679487V51.3177972H-13.3507768c8.0725743-5.7700248,23.7035147-11.3534914,38.58364-10.4661393,14.5797771,.8691324,24.5544829,7.7176501,32.7635665,1.8201981,4.254702-3.0579195,8.0088607-9.5196285,6.825743-15.4716842C60.7904404,6.9595775,1.2881589,1.1258392-6.6206042,.3522494c-9.8245317-.9647028-16.258911-.8964343-18.5933173-1.8201981H71.1928661Z" fill="#1b4332"/>
      <path d="M57.9964296,42.6718561c-8.2090836,5.897452-18.1837894-.9510657-32.7635665-1.8201981-14.8801253-.8873521-30.5110657,4.6961145-38.58364,10.4661393h-5.8564853c8.0088607-6.9303955,20.9504706-13.2009914,33.5189365-13.651486,15.8175262-.5688119,28.3768823,8.1772268,34.5837646,1.8201981,3.0169806-3.0897763,3.9589365-9.1510395,1.8201981-13.651486-5.6562624-11.9086385-28.4497058-3.5311888-57.7912908-16.8368328C-11.9856282,6.7729917-20.7043929,2.8186101-25.6689711-1.4679487h.4550495C-22.8795152-.5441848-16.4451359-.6124534-6.6206042,.3522494,1.2881589,1.1258392,60.7904404,6.9595775,64.8221726,27.2001719c1.1831177,5.9520557-2.571041,12.4137646-6.825743,15.4716842Z" fill="#2d6a4f"/>
      <path d="M48.8954389,39.4865094c-1.9430704,1.9885642-4.5095287,2.4982175-7.6038877,2.2798026,1.7792592-.5096533,3.294582-1.3788134,4.418541-2.7348521,2.2069791-2.6665836,2.976014-7.2853475,1.3651486-10.9211888-5.1784659-11.6856687-30.0105223-2.1660402-58.2463404-17.2918823C-16.8455539,7.7741062-25.109269,2.4272742-27.1661018-1.4679487h1.4971307C-20.7043929,2.8186101-11.9856282,6.7729917-7.0756538,8.9981906c29.3415851,13.3056439,52.1350285,4.9281942,57.7912908,16.8368328,2.1387384,4.5004466,1.1967825,10.5617097-1.8201981,13.651486Z" fill="#40916c"/>
    </g>
  </g>
</svg>