<?xml version="1.0" encoding="UTF-8"?>
<svg id="_Шар_1" data-name="Шар 1" xmlns="http://www.w3.org/2000/svg" xmlns:xlink="http://www.w3.org/1999/xlink" viewBox="0 0 50 50">
  <defs>
    <clipPath id="clippath">
      <rect width="50" height="50" fill="none"/>
    </clipPath>
  </defs>
  <g clip-path="url(#clippath)">
    <rect width="50" height="50" fill="#081c15"/>
    <g>
      <circle cx="32" cy="12" r="29" fill="#007f5f"/>
      <circle cx="34.5" cy="9.5" r="24.5" fill="#2b9348"/>
      <circle cx="37.5" cy="7.5" r="18.5" fill="#55a630"/>
      <circle cx="40.5" cy="4.5" r="14.5" fill="#80b918"/>
      <circle cx="42" cy="3" r="11" fill="#eeef20"/>
    </g>
    <g>
      <path d="M27.0481805,11.7201003c-.2830905-.1972416-.6444023-.2436807-.968486-.124563l-1.0876022,.3999299,.4687459-1.2918747c.0811947-.2235807,.085055-.4687467,.009307-.6947033l-.9461068-2.8389166c-.1152559-.3449754-.3991382-.6064792-.7526281-.6923266-.3526983-.0858474-.725597,.0154465-.9863083,.2692274l-6.1823249,6.0151854-3.0562589,.9259079c-.1229796,.0371314-.2374423,.0967401-.3388359,.1748647-.0850557,.0657474-2.1218357,1.6407126-4.6915248,4.0217745-3.4685659,3.2140914-6.1087557,6.2139114-7.8484846,8.9158886-.2088269,.3248754-.2235804,.7395575-.0387157,1.0783934s.5407319,.5492471,.9267003,.5492471H3.7556174c-.9622474,1.6089268-2.1451045,4.2174304-2.1991678,7.3765681-.0069312,.4053751,.2197187,.7796593,.5833091,.9622461l1.5625877,.7813424c.1260485,1.415646,.714804,4.7544001,3.4453965,7.4710313,.3140817,.3124983,.7898585,.3960681,1.1912735,.2104112l2.0065797-.9345214c.3589367,.53687,.87333,1.2902913,1.4303007,2.0515329,1.9601413,2.6810833,2.7708915,3.2055761,3.5103508,3.2055761,.8493682,0,1.6832892-.7178733,2.9743722-2.5619655,.2916058-.4177522,.5632091-.8323376,.7882743-1.1882042l1.9485559,1.4326766c.4068603,.2986344,.9676928,.2692267,1.3397998-.0726794,2.0669802-1.8967705,2.4576015-4.5407224,2.4923578-6.0600389h1.0179945c.5709312,0,1.0388869-.4517168,1.0559176-1.0241317,.143872-4.8116322-2.6185057-11.6188555-3.1668613-12.9184507l.0487168-7.863931,3.5212442-4.9809519c.1253547-.1779333,.1933805-.3914145,.1933805-.6095493v-1.1184967c-.000003-.3450744-.168729-.6684646-.4518195-.8664986Z" fill="#d8f3dc"/>
      <path d="M23.736657,27.1594282s-3.9597891,2.809508-5.2895884,2.7847538c-1.330591-.0216841-7.9753252-3.3293474-8.0766199-2.755346s6.3346133,4.8687646,8.0766199,4.8687646c1.7413131,0,5.3746434-4.6954848,5.2895884-4.8981724Z" fill="#b7e4c7"/>
      <g>
        <polygon points="3.6396684 28.4280323 2.9295185 29.9951772 7.4463774 25.2132489 3.6396684 28.4280323" fill="#b7e4c7"/>
        <polygon points="14.223498 13.4636918 13.1558967 17.8087552 16.6028767 12.7620574 14.223498 13.4636918" fill="#b7e4c7"/>
        <polygon points="24.9920938 11.9954672 25.3471686 11.0168817 23.4124751 13.3948742 26.0796975 11.5955373 24.9920938 11.9954672" fill="#b7e4c7"/>
      </g>
    </g>
  </g>
</svg>