<?xml version="1.0" encoding="UTF-8"?>
<svg id="_überspannen" data-name="überspannen" xmlns="http://www.w3.org/2000/svg" xmlns:xlink="http://www.w3.org/1999/xlink" viewBox="0 0 50 50">
  <defs>
    <clipPath id="clippath">
      <rect width="50" height="50" fill="none"/>
    </clipPath>
  </defs>
  <g clip-path="url(#clippath)">
    <rect width="50" height="50" fill="#081c15"/>
    <g>
      <ellipse cx="10.7967473" cy="11.2613337" rx="8.1504958" ry="53.3310879" transform="translate(-4.8006713 10.9328215) rotate(-45)" fill="#1b4332"/>
      <ellipse cx="8.2263086" cy="8.994225" rx="8.1504958" ry="53.3310879" transform="translate(-3.9504475 8.4512261) rotate(-45)" fill="#2d6a4f"/>
      <ellipse cx="2.7545138" cy="3.2191001" rx="8.1504958" ry="53.3310879" transform="translate(-1.4694691 2.890588) rotate(-45)" fill="#40916c"/>
      <ellipse cx="-2.1016014" cy="-1.637015" rx="8.1504958" ry="53.3310879" transform="translate(.5419996 -1.9655272) rotate(-45)" fill="#52b788"/>
      <ellipse cx="-5.895352" cy="-5.4307656" rx="8.1504958" ry="53.3310879" transform="translate(2.1134226 -5.7592778) rotate(-45)" fill="#74c69d"/>
      <path d="M28.129292,27.3560336l-.4739999,.0013438-.0059285,1.1460606,6.7496206,6.8299774c.1927203-.3407931,.496637-.6110215,.8614524-.7602771l-7.1311446-7.2171047Zm7.7918784,7.8021603c-.5709588-.0041336-1.0287789,.4483188-1.0329122,1.0192397s.4470881,1.029916,1.0180469,1.0340496,1.0299633-.4483102,1.0340967-1.0192311c.0041339-.5709973-.4482336-1.0300013-1.0191924-1.0341349l-.000039,.0000767Zm5.7592874,.6434c-.6107504,.4315941-1.2136689,.6943093-1.8192547,.8082032,1.1069452,1.5197248,1.8875249,2.743034,2.3526355,3.6845636,.2561821,.5184803,.4195485,.9500243,.4835078,1.3238885,.0639582,.3738631,.0280946,.7419995-.2292293,.9880392-.2572858,.2460773-.6214683,.2708715-.9995428,.2041056-.378036-.0667657-.815656-.2305416-1.3407548-.4848808-.9657599-.4676496-2.2211538-1.249823-3.773503-2.3541387-.1056019,.6237478-.3490542,1.2280057-.7412648,1.8104433,2.4355141,1.6825395,6.2226122,3.2458493,9.3908804,3.4598039,.1616372-3.2555596-1.5669255-6.927086-3.3234344-9.440065l-.0000399,.000037Zm-4.0407544,.6034714c-.096168,.7506886-.6750034,1.354392-1.4111761,1.4904143,.1142365,.421065,.1764165,.834724,.1855882,1.2406636,1.6998807,1.2270617,3.0532362,2.0768773,4.0239442,2.5469306,.4906457,.2376252,.886002,.3763763,1.1549921,.4238628,.2689898,.0475239,.3658883-.0019353,.3809298-.0163439,.01508-.0144083,.063484-.0935206,.0192817-.3520963-.0442407-.2584233-.1806956-.6446541-.4192563-1.1275922-.4668811-.9449806-1.3161198-2.267581-2.550232-3.9367229-.4553579-.014299-.91489-.106334-1.3840733-.2690397l.0000017-.0000764Z" fill="#d8f3dc"/>
      <path d="M20.3951629,19.6241929l1.240252-4.5897079-.7091131-.7241139-.6949298,1.5316285,.0034233-2.2380258-.9529925-.9731517-.500071,.8064454-.0852896-1.4041893-1.5676106-1.6005073-1.2404753,4.5844558-2.597724-2.6563769-.7478926,.7416523L29.1242739,30.0578634c.1844368,.0281016,.36887,.0562021,.5533068,.0843037-.4549945-.8594342-.9099907-1.7188712-1.3649852-2.5783054-2.639144-2.6465565-5.2782886-5.2931124-7.9174327-7.9396689Zm-6.0866016-3.6240013l-3.7893366,.9787181,.6775291,.6918596,2.0772683-.0259106-1.5198703,.5953642,1.5955713,1.6290602,1.3401451,.0929134-.5273651,.3615776,.8427713,.0586009-.6898737,.4730133,.7116999,.7270196,3.7828186-.979028-4.501358-4.6031883Z" fill="#d8f3dc"/>
    </g>
    <path d="M30.1952667,15.7409134c1.7246628,1.8156128,3.4280472,3.6492081,5.1101608,5.5008011,1.5385306,1.6700885,3.7875133,3.9722135,4.499468,6.0172974-2.0175051-1.5522175-3.6193412-3.468218-5.1102922-5.5007515-1.5465244-1.9662529-3.0717396-3.9505211-4.5756916-5.9527718l.076355-.0645752h0Z" fill="#74c69d"/>
    <path d="M17.1569214,31.7977676c2.0479126,1.4411621,4.0785065,2.9041443,6.091774,4.3889465,1.8368164,1.33507,4.4944442,3.1501741,5.5945276,5.015413-2.2832659-1.1253494-4.230494-2.689075-6.091893-4.3888721-1.902865-1.6238783-3.7883859-3.269615-5.6565805-4.9371641,0,0,.0621719-.0783234,.0621719-.0783234h0Z" fill="#74c69d"/>
    <path d="M-.6578369,18.5756836c1.8269492,1.1853243,4.3844848,3.0199067,6.174953,4.3139273,2.1729562,1.3911754,4.091773,2.9716274,5.2699542,5.3821688,.0000467-.0000588-.1292334,.1525367-.1292334,.1525367-2.5713244-.7661337-4.4456342-2.3990711-6.1748931-4.3139902-1.5764975-1.5602597-3.7919004-3.7660499-5.270035-5.3820409-.0000258-.0000062,.1292543-.1526017,.1292543-.1526017H-.6578369Z" fill="#1b4332"/>
    <path d="M20.3576126-.3913727c1.5744011,1.50467,3.745747,3.7832362,5.2640781,5.387901,1.8760411,1.7713195,3.4671521,3.6813048,4.1760582,6.2690237,.0000569-.0000491-.1553615,.1258207-.1553615,.1258207-2.3837828-1.2313554-3.9214006-3.1846242-5.2640076-5.3879516-1.2585262-1.8264288-3.0246557-4.4060386-4.1761614-6.2689131-.0000242-.0000109,.1553942-.1258807,.1553942-.1258807h0Z" fill="#1b4332"/>
  </g>
</svg>