<?xml version="1.0" encoding="UTF-8"?>
<svg xmlns="http://www.w3.org/2000/svg" xmlns:xlink="http://www.w3.org/1999/xlink" viewBox="0 0 50 50">
  <defs>
    <clipPath id="clippath">
      <rect x="-70" y="-70" width="50" height="50" fill="none"/>
    </clipPath>
    <clipPath id="clippath-1">
      <rect x="-70" width="50" height="50" fill="none"/>
    </clipPath>
    <clipPath id="clippath-2">
      <rect width="50" height="50" fill="none"/>
    </clipPath>
  </defs>
  <g id="rapid_fire" data-name="rapid fire">
    <g clip-path="url(#clippath)">
      <polygon points="-78.9994414 -79.0861994 4.9685742 -9.5299506 2.3208398 .3628166 -21.538187 -6.0228957 -78.9994414 -79.0861994" fill="#74c69d"/>
    </g>
  </g>
  <g id="pfeilhagel">
    <g clip-path="url(#clippath-1)">
      <rect x="-92.7076834" y="6.842916" width="100.9838073" height="42.596806" transform="translate(-24.15797 -19.2719851) rotate(-35.4625005)" fill="#081c15"/>
      <g>
        <path d="M-59.7262093-6.7326297L-13.4728344,42.2832349,4.4895969,20.7906274-37.0126196-34.5878047S-59.4790981-7.028306-59.7262093-6.7326297Z" fill="#52b788"/>
        <path d="M-54.9714481-12.4218493L-8.7180732,36.5940153,9.2443581,15.1014078-32.2578584-40.2770244S-54.7243368-12.7175256-54.9714481-12.4218493Z" fill="#40916c"/>
        <path d="M-49.9525335-18.4271367L-3.6991586,30.5887279,14.2632728,9.0961204-27.2389437-46.2823117s-22.4664785,27.5594988-22.7135897,27.8551751Z" fill="#2d6a4f"/>
        <path d="M-44.405312-25.0645596L1.8480629,23.951305,19.8104942,2.4586975-21.6917223-52.9197346s-22.4664785,27.5594988-22.7135897,27.8551751Z" fill="#1b4332"/>
        <path d="M-39.3863974-31.069847L6.8669775,17.9460176,24.8294089-3.5465898-16.6728076-58.925022s-22.4664785,27.5594988-22.7135897,27.8551751Z" fill="#081c15"/>
      </g>
    </g>
  </g>
  <g id="unterschtützung">
    <g clip-path="url(#clippath-2)">
      <rect width="50" height="50" fill="#081c15"/>
      <path d="M61.5474528,21.3823771c-.3145829-2.5109454-.9602941-5.0422727-.3971621-7.7043396-2.7278794-2.1831188-4.2468971-4.4969587-4.0788982-8.1935617-3.826199-.310857-5.9654182-2.004477-7.6597022-5.237755-2.9512139,.8690273-5.4575111,.1983966-8.2428842-.8540682-1.4326389,.5727973-2.823278,1.1284959-4.184663,1.7047056-1.3613666,.5762097-2.6934791,1.1729304-4.0091938,1.8203386-1.0164413,1.0022385-2.0165033,2.055146-3.1200244,2.4462027-.7972201,1.8016536-1.6978809,2.9414748-3.3096411,2.5402179-.0097944,1.7598199-.3156712,2.8807532-1.1733731,3.2932802-1.4338931-.0680075-1.9049836-1.2722947-1.9171943-3.4684543-1.6117602,.4012569-2.512421-.7385459-3.3096411-2.5402179-1.1035211-.3910567-2.1035831-1.4439642-3.1200244-2.4462027-1.3157147-.6473897-2.6478272-1.2441289-4.0091938-1.8203386-1.361385-.5762097-2.7520242-1.1319083-4.184663-1.7046871C6.0458209,.2699618,3.5395237,.9405925,.5883098,.0715652-1.1059743,3.3048247-3.245175,4.9984447-7.0713924,5.3093201c.1679989,3.6965845-1.3510188,6.0104429-4.0788982,8.1935617,.563132,2.6620485-.0825792,5.1933942-.3971621,7.7043212,.0718072,1.2703949,.2468706,2.543206,.5227001,3.7951557,.2998637,1.2665951,.700475,2.5123288,.5286579,3.4491237,1.7405262,2.7118874,3.2754806,5.026336,1.8908177,7.5289626,5.1208862,1.7793902,7.3221735,3.7469584,7.8792924,9.1205438,4.1998803-1.8962221,6.7555738-.3864085,10.0960368,3.0048341,1.8134032-.9402811,4.4115759,.0008854,6.8793226,.6075112,2.4591328,.5961674,4.787858,.8578126,6.8258684,.7242693,.5321072-.0348614,1.04315-.0982391,1.5328516-.1879751,.7188095,.1869421,1.4924566,.3091416,2.3166621,.3631491,2.0380104,.1335433,4.3667356-.1281019,6.8258684-.7242693,2.4677467-.6066443,5.0659194-1.5478107,6.8793226-.6075112,3.340463-3.3912611,5.8961564-4.9010562,10.0960368-3.0048526,.5571189-5.373567,2.7584062-7.3411351,7.8792924-9.1205438-1.3846629-2.5026081,.1502915-4.8170568,1.8908177-7.5289442-.1718171-.9367949,.2287943-2.1825286,.5286764-3.4491421,.2758111-1.2519312,.4508745-2.5247424,.5226817-3.7951372Z" fill="#007f5f"/>
      <path d="M58.9360351,21.8887927c-.2921051-2.3315313-.8916784-4.6819882-.3687838-7.153843-2.5329648-2.0271289-3.9434445-4.1756385-3.7874496-7.6081088-3.5528064-.2886454-5.5391724-1.8612515-7.1123951-4.8635027-2.7403414,.8069328-5.0675567,.1842206-7.6539071-.7930426-1.3302728,.5318693-2.6215469,1.0478617-3.8856572,1.5828996-1.2640931,.5350379-2.5010225,1.0891213-3.7227257,1.6902703-.9438137,.9306258-1.8724185,1.9083001-2.8970899,2.2714147-.7402565,1.6729204-1.5765625,2.7312982-3.073158,2.3587122-.0090946,1.6340758-.2931156,2.6749154-1.0895323,3.0579661-1.3314375-.0631481-1.7688672-1.1813857-1.7802054-3.2206235-1.4965954,.372586-2.3329015-.6857747-3.073158-2.3587122-1.0246714-.3631146-1.9532762-1.3407889-2.8970899-2.2714147-1.2217032-.6011319-2.4586326-1.1552324-3.7227257-1.6902703-1.2641103-.5350379-2.5553843-1.0510303-3.8856572-1.5828825-2.5863504,.9772632-4.9135656,1.5999755-7.6539071,.7930426C.7593706,5.1029319-1.2269783,6.6755381-4.7798018,6.9642006c.1559949,3.4324532-1.2544848,5.58098-3.7874496,7.6081088,.5228947,2.4718377-.0766787,4.8223117-.3687838,7.1538259,.0666763,1.1796216,.229231,2.3614869,.4853518,3.5239812,.2784376,1.1760934,.6504241,2.3328159,.4908839,3.2026742,1.6161607,2.5181155,3.0414383,4.6671903,1.7557135,6.9909972,4.7549845,1.6522478,6.7989837,3.4792277,7.3162949,8.4688555,3.8997871-1.7607318,6.2728691-.3587986,9.3746467,2.7901303,1.6838304-.8730954,4.0963565,.0008221,6.3877758,.5641028,2.2834209,.5535696,4.4457522,.7965195,6.338141,.6725182,.4940866-.0323705,.968614-.0912197,1.4233251-.1745437,.6674486,.1735846,1.3858164,.2870526,2.1511301,.3372011,1.8923889,.1240012,4.0547201-.1189487,6.338141-.6725182,2.2914193-.5632978,4.7039453-1.4372153,6.3877758-.5641028,3.1017776-3.148946,5.4748596-4.5508621,9.3746467-2.7901474,.5173112-4.9896106,2.5613104-6.8165905,7.3162949-8.4688555-1.2857249-2.3237898,.1395528-4.4728646,1.7557135-6.9909801-.1595402-.8698583,.2124463-2.0265808,.490901-3.2026913,.2561036-1.1624772,.4186583-2.3443425,.4853346-3.5239641Z" fill="#2b9348"/>
      <path d="M56.5725007,22.0673857c-.2742198-2.1887744-.837082-4.3953157-.3462036-6.7158218-2.3778744-1.9030102-3.7019921-3.9199691-3.5555485-7.1422734-3.3352723-.270972-5.2000155-1.7472893-6.6769116-4.5657163-2.5725536,.7575253-4.7572762,.172941-7.1852675-.7444856-1.2488218,.4993036-2.4610327,.9837024-3.647743,1.4859806-1.1866942,.5022781-2.3478879,1.0224357-3.4947877,1.5867771-.8860252,.8736447-1.7577725,1.7914571-2.7197046,2.1323387-.6949315,1.5704895-1.4800315,2.5640641-2.8849922,2.2142911-.0085377,1.5340233-.2751685,2.5111335-1.0228215,2.8707305-1.2499151-.0592817-1.6605616-1.1090509-1.6712056-3.0234286-1.4049607,.349773-2.1900607-.6437856-2.8849922-2.2142911-.961932-.3408816-1.8336794-1.258694-2.7197046-2.1323387-1.1468998-.5643253-2.3080934-1.0844989-3.4947877-1.5867771-1.1867103-.5022781-2.3989212-.9866769-3.647743-1.4859645-2.4279913,.9174266-4.6127139,1.5020109-7.1852675,.7444856C1.9579238,6.3093031,.0931967,7.7856205-3.2420916,8.0566085c.1464435,3.2222882-1.1776742,5.2392632-3.5555485,7.1422734,.4908785,2.32049-.0719837,4.5270473-.3462036,6.7158057,.0625938,1.1073948,.2151955,2.2168958,.4556342,3.308212,.2613892,1.1040826,.6105994,2.1899803,.4608276,3.0065783,1.5172051,2.3639343,2.8552147,4.3814238,1.6482132,6.5629468,4.4638425,1.5510826,6.3826901,3.2661988,6.8683269,7.9503175,3.6610078-1.6529242,5.8887888-.3368298,8.8006483,2.619294,1.5807315-.8196368,3.8455415,.0007718,5.9966599,.5295635,2.1436098,.5196752,4.1735441,.7477495,5.9500642,.6313408,.4638343-.0303885,.9093069-.0856344,1.3361766-.1638566,.6265815,.1629562,1.3009646,.2694767,2.019419,.3165547,1.7765201,.1164088,3.8064545-.1116656,5.9500642-.6313408,2.1511184-.5288078,4.4159284-1.3492163,5.9966599-.5295635,2.9118595-2.9561398,5.1396405-4.2722182,8.8006483-2.61931,.4856368-4.6841027,2.4044844-6.3992188,6.8683269-7.9503175-1.2070015-2.1815069,.1310081-4.1989965,1.6482132-6.5629307-.1497718-.8165979,.1994385-1.9024957,.4608437-3.0065943,.2404227-1.0913001,.3930243-2.2008012,.4556182-3.308196Z" fill="#55a630"/>
      <path d="M52.5839647,23.3106875c-.241272-1.9260864-.7366333-3.8677368-.3046265-5.909729-2.0924683-1.6746216-3.2576294-3.4494629-3.1287842-6.2849731-2.9349365-.2384644-4.5758667-1.5375977-5.8754883-4.0177002-2.2637939,.6665649-4.1862793,.1521606-6.3228149-.6551514-1.098938,.4393921-2.1656494,.8656616-3.2098999,1.3076172-1.0442505,.4420166-2.0661011,.8997192-3.0753174,1.3963013-.7796631,.7687988-1.546814,1.5764771-2.3932495,1.8764038-.6115112,1.382019-1.3023682,2.2562866-2.5386963,1.9485474-.0074463,1.3336182-.2376099,2.1877441-.8775024,2.5133667-1.1087036-.0463867-1.4837646-.9574585-1.4931641-2.6477661-1.2363281,.3078003-1.9271851-.5665283-2.5386963-1.9484863-.8464966-.2999878-1.6135864-1.107605-2.3933105-1.8764038-1.0092163-.496582-2.0310059-.9543457-3.0752563-1.3963013-1.0443115-.4420166-2.1110229-.8682861-3.2099609-1.3076172-2.1365356,.807312-4.059021,1.3217163-6.3228149,.6550903C4.5247606,9.4440494,2.8838914,10.7431216-.0510451,10.981586c.1288452,2.8355713-1.0363159,4.6104126-3.1287842,6.2850342,.4319458,2.0419312-.0633545,3.9836426-.3046875,5.909668,.0551147,.9744873,.1893921,1.9508057,.4009399,2.9111328,.2300415,.9715576,.5373535,1.927124,.4055176,2.6456909,1.335144,2.0802002,2.5125122,3.8555298,1.4503784,5.7752075,3.9281006,1.3649292,5.6165771,2.8741455,6.0439453,6.9960327,3.2215576-1.4545288,5.1819458-.2963867,7.7443237,2.3049316,1.3909912-.7212524,3.3839111,.0006714,5.2768555,.4660034,1.8862915,.4572754,3.6726074,.657959,5.2359009,.555542,.4180298-.0274048,.8168945-.0802612,1.2007446-.1518555,.5471191,.1411133,1.1256714,.2451782,1.7520752,.2861938,1.5632935,.102478,3.3495483-.0982666,5.2358398-.555542,1.8929443-.465332,3.8859253-1.1872559,5.2769165-.4660034,2.5623169-2.6013184,4.5227051-3.7593994,7.7443237-2.3048706,.4273071-4.1218872,2.1158447-5.6311646,6.0438843-6.9960938-1.0621338-1.9196167,.1152954-3.6949463,1.4503784-5.7751465-.1317749-.7186279,.1755371-1.6741333,.4055176-2.6456909,.2116089-.9603271,.3458862-1.9366455,.4009399-2.9111328Z" fill="#80b918"/>
      <g>
        <path d="M43.3471315,33.2768449c0,.6137113-.0773728,2.7625805-2.2253632,2.7625805-1.1509286,0-1.6881459-1.9185067-4.2186064-1.9185067-1.6872663,0-1.3812903,.6893266-4.5254616,.6893266-3.1459302,0-4.9870641-1.5333987-4.9870641-3.8343771,0-2.7625805,1.674078-1.8745453,3.3754126-3.2215446,1.8420135-1.4577843,1.6881459-2.6087129,3.9900031-2.6087129,1.9167492,0,2.9876662,2.6210222,4.2951004,3.1450514,1.9176263,.7666977,4.2959792,3.3754097,4.2959792,4.9861828Zm-13.9456682-9.0043239c.0501168-1.3109509-.5046852-2.4214339-1.5632934-2.4214339-1.1104834,0-1.6652855,1.110483-1.6652855,2.0169823,0,1.2617127,.7060318,2.4715509,1.6652856,2.4715509,.9583744-.0008788,1.5122973-.7552688,1.5632933-2.0670993Zm7.9676969-1.210717c.9583746,0,2.2192085-1.7646399,2.2693255-3.07647,.0509957-1.3118301-.1002339-2.6720184-1.1597212-2.6720184-1.1096043,0-2.6728975,1.6635272-2.6728975,3.0254739,0,1.2608339,.6057983,2.7230145,1.5632933,2.7230145Zm3.8334975,3.2277001c1.411184,0,2.2702051-1.5632933,2.3203212-2.8751229s-.2523432-2.4214339-1.3118305-2.4214339c-1.7136434,0-2.5717848,1.6652856-2.5717848,3.0263526,.0000008,1.2608331,.6049195,2.2702043,1.5632941,2.2702043Zm4.4876544-1.0586085c-1.7145238,0-2.7230145,1.965107-2.7230145,3.327934,0,1.2617127,.8062653,2.1690907,1.7655187,2.1690907,1.411184,0,2.3203212-1.411184,2.3695586-2.7230145,.0501178-1.3127093-.3534542-2.7740102-1.4120628-2.7740102Zm-13.6159514-1.7154025c.9583746,0,1.714523-.7051526,1.714523-2.0178619,0-2.2183289,1.007612-4.4375375-.050117-4.4375375-2.1189746,0-3.3296916,3.0755908-3.3296916,3.9838485,0,1.2617135,.7060318,2.4715509,1.6652856,2.4715509Zm-4.0963913-2.418796c.2936671,.0800107,.5679907,.2286033,.5600776-.1863998-.0131887-.6480018,.0536337-1.7057307-.2664105-1.732987-.1907957-.0149473-.724496,1.0964153-.8774842,1.6485799-.1424374,.5249075,.2453086,.1793655,.583817,.2708068Zm5.9726949-5.0855395c.3209242,.097596,.6189872,.2628936,.6374512-.1301279,.031653-.6145906,.1802447-1.6081348-.1749696-1.6591309-.2092597-.0307735-.8836389,.9742008-1.0928986,1.4832823-.1960707,.4844628,.2602562,.1890371,.630417,.3059765Zm5.6851833,.3640065c.2936667,.0800111,.5741453,.2286031,.5609572-.1872787-.026377-.746477-.079132-1.7813456-.398297-1.808602-.1899161-.0158264-.6181076,.9355142-.7702169,1.4876787-.1433166,.5257869,.2699276,.4158816,.6075566,.5082021Zm4.6854844,2.8654518c.2936667,.0808903,.5750241,.2294825,.5600768-.1863993-.0254974-.746477-.2022254-2.1435935-.52227-2.1690916-.1899161-.0158263-.4721539,1.094657-.698998,1.6951798-.1916753,.5082019,.3235613,.5688698,.6611912,.6603111Zm3.6761132,3.1283449c-.1899161-.0158261-.4914966,.7605447-.6436059,1.313588-.1424379,.524908,.2470673,.466878,.5855759,.559198,.2936667,.0800107,.5741453,.2286033,.5600768-.1863993-.0272566-.7464761-.1820022-1.6600088-.5020468-1.6863867Z" fill="#eeef20"/>
        <path d="M10.9488477,28.0300287c1.3074342-.5240292,2.3783512-3.1450514,4.2951004-3.1450514,2.3018572,0,2.1479896,1.1509286,3.9900031,2.6087129,1.7013346,1.3469993,3.3754126,.4589641,3.3754126,3.2215446,0,2.3009785-1.8411339,3.8343771-4.9870641,3.8343771-3.1441714,0-2.8381953-.6893266-4.5254616-.6893266-2.5304605,0-3.0676778,1.9185067-4.2186064,1.9185067-2.1479904,0-2.2253632-2.1488692-2.2253632-2.7625805,0-1.6107731,2.3783529-4.2194852,4.2959792-4.9861828Zm11.2129823-1.9510418c.9592538,0,1.6652856-1.2098382,1.6652856-2.4715509,0-.9064993-.5548021-2.0169823-1.6652855-2.0169823-1.0586082,0-1.6134101,1.110483-1.5632934,2.4214339,.0509959,1.3118305,.6049189,2.0662205,1.5632933,2.0670993Zm-7.9676969-6.0008308c0-1.3619466-1.5632933-3.0254739-2.6728975-3.0254739-1.0594873,0-1.210717,1.3601883-1.1597212,2.6720184,.050117,1.3118301,1.3109509,3.07647,2.2693255,3.07647,.957495,0,1.5632933-1.4621806,1.5632933-2.7230145Zm-3.8334967,3.6805104c0-1.361067-.8581415-3.0263526-2.5717848-3.0263526-1.0594873,0-1.3619466,1.1096043-1.3118305,2.4214339,.0501161,1.3118297,.9091372,2.8751229,2.3203212,2.8751229,.9583746,0,1.5632933-1.0093712,1.5632941-2.2702043Zm-7.4630113,3.985606c.0492374,1.3118305,.9583746,2.7230145,2.3695586,2.7230145,.9592534,0,1.7655187-.907378,1.7655187-2.1690907,0-1.3628271-1.0084907-3.327934-2.7230145-3.327934-1.0586085,0-1.4621806,1.461301-1.4120628,2.7740102Zm16.6932997-6.9609637c0-.9082576-1.210717-3.9838485-3.3296916-3.9838485-1.0577289,0-.050117,2.2192085-.050117,4.4375375,0,1.3127093,.7561484,2.0178619,1.714523,2.0178619,.9592538,0,1.6652856-1.2098374,1.6652856-2.4715509Zm3.0149228-.2180519c-.1529881-.5521646-.6866885-1.6635272-.8774842-1.6485799-.3200442,.0272562-.2532218,1.0849852-.2664105,1.732987-.007913,.415003,.2664105,.2664105,.5600776,.1863998,.3385084-.0914413,.7262544,.2541007,.583817-.2708068Zm-5.926095-5.1207092c-.2092597-.5090815-.8836389-1.5140558-1.0928986-1.4832823-.3552143,.0509961-.2066226,1.0445403-.1749696,1.6591309,.018464,.3930215,.316527,.2277239,.6374512,.1301279,.3701607-.1169394,.8264877,.1784863,.630417-.3059765Zm-5.7080436,.1617809c-.1521093-.5521645-.5803008-1.503505-.7702169-1.4876787-.319165,.0272564-.3719199,1.062125-.398297,1.808602-.0131881,.4158818,.2672905,.2672899,.5609572,.1872787,.337629-.0923205,.7508733,.0175848,.6075566-.5082021Zm-4.6318498,2.7133427c-.2268441-.6005228-.5090819-1.711006-.698998-1.6951798-.3200446,.0254981-.4967726,1.4226146-.52227,2.1690916-.0149473,.4158818,.2664101,.2672897,.5600768,.1863993,.3376299-.0914413,.8528664-.1521093,.6611912-.6603111ZM1.5005079,23.7947141c-.0140685,.4150026,.2664101,.2664101,.5600768,.1863993,.3385086-.0923201,.7280138-.0342901,.5855759-.559198-.1521093-.5530434-.4536899-1.3294141-.6436059-1.313588-.3200446,.0263779-.4747901,.9399106-.5020468,1.6863867Z" fill="#eeef20"/>
      </g>
    </g>
  </g>
</svg>