<?xml version="1.0" encoding="UTF-8"?>
<svg id="leder" xmlns="http://www.w3.org/2000/svg" viewBox="0 0 50 50">
  <rect width="50" height="50" fill="#081c15"/>
  <path d="M44.3747104,35.4458285h-.0131819c-.3445098-.4769763-.649312-.993741-.9275077-1.5369505-.6095236-1.2057843-1.0335294-2.5572171-1.3117251-3.9882267-.7817785-4.1472188-.1722549-8.8906983,1.8549346-12.1236722,0,0,.0132628-.0264448,.0397885-.0529704,1.0070038-1.6429721,2.398225-2.8752012,4.1604007-3.471462l-3.6437169-6.3466632c-.092678,0-.1589921,.0264448-.2516701,.0264448-1.7622566,0-3.299288-.3445098-4.6242759-.9406897-2.2789405-1.0335294-3.9086498-2.8222308-4.9023908-4.9422601l-3.0077486-.0132628c-1.1659959,.8480117-2.5307723,1.3780392-4.1604816,1.3780392-1.656235,0-3.0341933-.5432904-4.213452-1.404484l-2.4644582-.0132628c-.7950413,1.4972429-1.9212487,2.808968-3.391966,3.7497386-1.3117251,.8479308-2.8884641,1.4309288-4.7567424,1.5899209-.3709546,.0397885-.7685157,.0530513-1.1659959,.0530513-.2650138,0-.4902391-.0530513-.74199-.0662332l-3.6701617,6.2936928c4.6904283,1.8681974,6.6381218,8.6256037,5.8166357,14.548342-.1324664,1.0202666-.3576918,2.0271895-.662494,2.9679601-.5166838,1.6165274-1.2851995,3.0739818-2.2922033,4.2267148-.8214861,.9407706-1.8019642,1.6694978-2.9415153,2.1067664l4.0014895,6.9958944c1.1527331-.8082232,2.4909838-1.2984623,4.0677228-1.2984623,3.7099501,0,6.200934,2.5572171,7.5391847,6.0154162l8.8243843,.0397885c.7552528-2.0007448,1.8815411-3.6967682,3.391966-4.783268,.3577726-.2781957,.7288081-.5035019,1.1262883-.6889387,.9009821-.4372687,1.9212487-.6757568,3.0474561-.6757568,1.815227,0,3.2992071,.662494,4.544699,1.6827606l3.8689422-6.6514655c-1.2586739-.5697351-2.3187289-1.4972429-3.140215-2.6765016Z" fill="#020202" opacity=".61"/>
  <path d="M36.7150407,6.3098085c-17.2769648,6.9954597-21.4486066-1.2065703-21.4486066-1.2065703,1.4247573-.9113715,2.5157708-2.1821052,3.285967-3.6325592l2.3874439,.0128484c1.1424069,.8342814,2.477304,1.3605939,4.0817816,1.3605939,1.5787809,0,2.9009081-.5134642,4.0304666-1.3349755l2.9137564,.0128484c.9626866,2.0537783,2.5414675,3.7865828,4.7491911,4.7878145Z" fill="#1b4332"/>
  <path d="M44.3266731,36.4482909l-3.7480378,6.4436072c-1.2065703-.9883833-2.644176-1.6301743-4.4026772-1.6301743-1.0910134,0-2.0793967,.2310354-2.9522231,.6546394-.385059,.179642-.7444995,.3979073-1.0910918,.6674094-.1924903-1.2578854-1.411909-5.3782121-8.9465296-8.6127857-1.7970463-.7701963-3.0420833-2.0280816-3.8507463-3.5555475-.1027085-.1797203-.1925687-.3593622-.2823505-.5519309-.1668719-.3465922-.3081255-.6931061-.423604-1.0653951-.0770118-.2053387-.1411752-.4107557-.1925687-.6289427-.0770118-.2823505-.1540236-.5647793-.2053387-.8471297-.0513934-.2310354-.0898601-.4621491-.1284052-.6931845-.0770118-.436374-.1283269-.8856748-.1668719-1.3348972-.0256184-.2695804-.0384667-.5263125-.0513151-.7829663-.0128484-.2567321-.0256967-.5263125-.0256967-.7830446v-.0256184c-.0513151-4.9418381,1.450454-9.639714,1.450454-9.639714,.808663,.603246,1.6687194,1.245037,2.5928609,1.9382215,4.8519779,3.6453293,9.3572852,4.0047699,12.7716575,3.3758272,0,0-6.1098633,11.7961225,6.5976307,14.4787652h.01277c.7958146,1.1424069,1.822743,2.04093,3.0420833,2.5928609Z" fill="#80b918"/>
  <path d="M32.1326432,42.5837725c-1.463224,1.0525467-2.5543158,2.6955694-3.285967,4.6337909l-8.5486222-.0385451c-1.2964304-3.3501305-3.709571-5.8274345-7.3035852-5.8274345-1.5274658,0-2.8238963,.4749191-3.9406064,1.2578854l-3.876443-6.7772727c1.1039401-.423604,2.0537783-1.1295585,2.849593-2.04093,.9755349-1.1167102,1.7200345-2.5286191,2.2205719-4.09463,.2952772-.9113715,.5134642-1.8868281,.641791-2.8752113,.7958146-5.7376527-1.0910134-12.28389-5.6348658-14.0937063l3.5554691-6.0970149s2.3361288,1.3862122,10.4996921,7.4319121c0,0-1.5017691,4.697876-1.450454,9.639714v.0256184c0,.2567321,.0128484,.5263125,.0256967,.7830446,.0128484,.2566537,.0256967,.5133858,.0513151,.7829663,.0385451,.4492224,.0898601,.8985231,.1668719,1.3348972,.0385451,.2310354,.0770118,.4621491,.1284052,.6931845,.0513151,.2823505,.1283269,.5647793,.2053387,.8471297,.0513934,.205417,.1155569,.423604,.1925687,.6289427,.1154785,.3722889,.2567321,.7188028,.423604,1.0653951,.0897818,.1925687,.179642,.3722106,.2823505,.5519309,.808663,1.5274658,2.0537,2.7853512,3.8507463,3.5555475,7.5346206,3.2345736,8.7540393,7.3549003,8.9465296,8.6127857Z" fill="#1b4332"/>
  <path d="M41.2718198,33.85543c-12.707494-2.6826427-6.5976307-14.4787652-6.5976307-14.4787652,3.7993528-.6803361,6.2253418-2.6185576,6.2253418-2.6185576-1.9638399,3.1319434-2.5543158,7.7271892-1.7969679,11.7448075,.2695021,1.3862906,.6802578,2.6954911,1.2707337,3.8635946,.2695021,.5262342,.5647793,1.02685,.8985231,1.4889208Z" fill="#1b4332"/>
  <path d="M44.9684641,13.3438133c-1.7071078,.5776276-3.0548533,1.7713496-4.0303882,3.3629788-.0256967,.0256967-.0385451,.0513151-.0385451,.0513151,0,0-2.425989,1.9382215-6.2253418,2.6185576-3.4143722,.6289427-7.9196796,.2695021-12.7716575-3.3758272-.9241415-.6931845-1.7841979-1.3349755-2.5928609-1.9382215-8.1635633-6.0456998-10.4996921-7.4319121-10.4996921-7.4319121,.2438837,.01277,.4620707,.0641634,.7188028,.0641634,.385059,0,.7701963-.0128484,1.1295585-.0513934,1.8098946-.1540236,3.3373604-.7188028,4.6080942-1.5402358,0,0,4.1716418,8.20203,21.4486066,1.2065703,1.2835821,.5775493,2.7725812,.9112931,4.4797673,.9112931,.0897818,0,.1540236-.0256184,.2438054-.0256184l3.5298507,6.14833Z" fill="#eeef20"/>
  <path d="M23.1861137,33.9709868c-5.7761194,1.9253731-10.1916449,7.380597-10.1916449,7.380597-1.5274658,0-2.8238963,.4749191-3.9406064,1.2578854l-3.876443-6.7772727c1.1039401-.423604,2.0537783-1.1295585,2.849593-2.04093,.9755349-1.1167102,1.7200345-2.5286191,2.2205719-4.09463,0,0,6.7901994-1.4633024,7.6116324-5.9686881,0,.2567321,.0128484,.5263125,.0256967,.7830446,.0128484,.2566537,.0256967,.5133858,.0513151,.7829663,.0385451,.4492224,.0898601,.8985231,.1668719,1.3348972,.0385451,.2310354,.0770118,.4621491,.1284052,.6931845,.0513151,.2823505,.1283269,.5647793,.2053387,.8471297,.0513934,.218187,.1155569,.423604,.1925687,.6289427,.1154785,.3722889,.2567321,.7188028,.423604,1.0653951,.0897818,.1925687,.179642,.3722106,.2823505,.5519309,.808663,1.5274658,2.0537,2.7853512,3.8507463,3.5555475Z" fill="#55a630"/>
  <polygon points="45.5 23.9329998 46.2544224 25.4616266 47.9413623 25.7067533 46.7206811 26.8966233 47.0088449 28.5767468 45.5 27.7835001 43.9911551 28.5767468 44.2793189 26.8966233 43.0586377 25.7067533 44.7455776 25.4616266 45.5 23.9329998" fill="#55a630"/>
  <polygon points="22.5 20.9329998 23.2544224 22.4616266 24.9413623 22.7067533 23.7206811 23.8966233 24.0088449 25.5767468 22.5 24.7835001 20.9911551 25.5767468 21.2793189 23.8966233 20.0586377 22.7067533 21.7455776 22.4616266 22.5 20.9329998" fill="#eeef20"/>
  <polygon points="12.5 44.9329998 13.2544224 46.4616266 14.9413623 46.7067533 13.7206811 47.8966233 14.0088449 49.5767468 12.5 48.7835001 10.9911551 49.5767468 11.2793189 47.8966233 10.0586377 46.7067533 11.7455776 46.4616266 12.5 44.9329998" fill="#55a630"/>
  <polygon points="4.5 18.9329998 5.2544224 20.4616266 6.9413623 20.7067533 5.7206811 21.8966233 6.0088449 23.5767468 4.5 22.7835001 2.9911551 23.5767468 3.2793189 21.8966233 2.0586377 20.7067533 3.7455776 20.4616266 4.5 18.9329998" fill="#55a630"/>
  <polygon points="4.5 .9329998 5.2544224 2.4616266 6.9413623 2.7067533 5.7206811 3.8966233 6.0088449 5.5767468 4.5 4.7835001 2.9911551 5.5767468 3.2793189 3.8966233 2.0586377 2.7067533 3.7455776 2.4616266 4.5 .9329998" fill="#55a630"/>
</svg>