<?xml version="1.0" encoding="UTF-8"?>
<svg xmlns="http://www.w3.org/2000/svg" xmlns:xlink="http://www.w3.org/1999/xlink" viewBox="0 0 50 50">
  <defs>
    <clipPath id="clippath">
      <rect y="-70" width="50" height="50" fill="none"/>
    </clipPath>
    <clipPath id="clippath-1">
      <rect width="50" height="50" fill="none"/>
    </clipPath>
  </defs>
  <g id="rapid_fire" data-name="rapid fire">
    <g clip-path="url(#clippath)">
      <polygon points="-8.9994414 -79.0861994 74.9685742 -9.5299506 72.3208398 .3628166 48.461813 -6.0228957 -8.9994414 -79.0861994" fill="#74c69d"/>
    </g>
  </g>
  <g id="pfeilhagel">
    <g clip-path="url(#clippath-1)">
      <rect x="-22.7076834" y="6.842916" width="100.9838073" height="42.596806" transform="translate(-11.1726486 21.339915) rotate(-35.4625005)" fill="#081c15"/>
      <g>
        <path d="M-35.4917585,43.0591134L10.7616164,92.074978l17.9624313-21.4926075L-12.7781688,15.2039383s-22.4664785,27.5594988-22.7135897,27.8551751Z" fill="#081c15"/>
        <path d="M-30.7369973,37.3698938L15.5163776,86.3857584l17.9624313-21.4926075L-8.0234076,9.5147187s-22.4664785,27.5594988-22.7135897,27.8551751Z" fill="#1b4332"/>
        <path d="M-25.4539293,31.0485386L20.7994456,80.0644032l17.9624313-21.4926075L-2.7403395,3.1933636S-25.206818,30.7528624-25.4539293,31.0485386Z" fill="#2d6a4f"/>
        <path d="M-20.699168,25.359319L25.5542069,74.3751836l17.9624313-21.4926075L2.0144217-2.495856S-20.4520568,25.0636427-20.699168,25.359319Z" fill="#40916c"/>
        <path d="M-15.6802534,19.3540316L30.5731215,68.3698962l17.9624313-21.4926075L7.0333363-8.5011434S-15.4331422,19.0583553-15.6802534,19.3540316Z" fill="#52b788"/>
        <path d="M-10.133032,12.7166087L36.1203429,61.7324733l17.9624313-21.4926075L12.5805578-15.1385663S-9.8859207,12.4209325-10.133032,12.7166087Z" fill="#95d5b2"/>
        <path d="M-5.1141173,6.7113214L41.1392576,55.7271859l17.9624313-21.4926075L17.5994724-21.1438537S-4.8670061,6.4156451-5.1141173,6.7113214Z" fill="#b7e4c7"/>
      </g>
      <g>
        <path d="M.2359614,5.2779451L46.4893363,54.2938097l17.9624313-21.4926075L22.9495511-22.57723S.4830726,4.9822688,.2359614,5.2779451Z" fill="#b7e4c7"/>
        <path d="M4.9907226-.4112745L51.2440975,48.60459l17.9624313-21.4926075L27.7043124-28.2664496S5.2378339-.7069508,4.9907226-.4112745Z" fill="#95d5b2"/>
        <path d="M10.2737907-6.7326297L56.5271656,42.2832349l17.9624313-21.4926075L32.9873804-34.5878047S10.5209019-7.028306,10.2737907-6.7326297Z" fill="#52b788"/>
        <path d="M15.0285519-12.4218493L61.2819268,36.5940153l17.9624313-21.4926075L37.7421416-40.2770244S15.2756632-12.7175256,15.0285519-12.4218493Z" fill="#40916c"/>
        <path d="M20.0474665-18.4271367L66.3008414,30.5887279l17.9624313-21.4926075L42.7610563-46.2823117S20.2945778-18.722813,20.0474665-18.4271367Z" fill="#2d6a4f"/>
        <path d="M25.594688-25.0645596L71.8480629,23.951305,89.8104942,2.4586975,48.3082777-52.9197346S25.8417992-25.3602359,25.594688-25.0645596Z" fill="#1b4332"/>
        <path d="M30.6136026-31.069847L76.8669775,17.9460176,94.8294089-3.5465898,53.3271924-58.925022S30.8607139-31.3655232,30.6136026-31.069847Z" fill="#081c15"/>
      </g>
      <path d="M43.798564-10.1080584l-.56836-.0208514-.0614191,1.3737741L50.9374898-.2465591c.2472095-.3994567,.6243926-.7090412,1.0688567-.8707011l-8.2077825-8.9907983ZM52.7707996-.3845033c-.684348-.0320133-1.2546872,.488753-1.2866983,1.1730556-.0320112,.6843026,.4872236,1.2559922,1.1715717,1.2880055s1.2561069-.4886866,1.288118-1.1729892c.0320155-.6843941-.4885929-1.2561487-1.1729409-1.288162l-.0000504,.0000901Zm6.8745353,1.0443257c-.7527046,.4885112-1.4880161,.7749184-2.219473,.8827718,1.2551392,1.8745125,2.1330336,3.378175,2.6460537,4.5290515,.2825758,.6337658,.4579913,1.1589019,.5169574,1.6101728,.0589647,.4512694-.0014792,.8909424-.3216543,1.1737342-.320131,.2828387-.7579381,.295307-1.2080618,.1973421-.4500776-.0979628-.9669954-.3150584-1.584503-.6448793-1.1357241-.6064494-2.6037962-1.6037188-4.412633-3.0012892-.1561692,.7428303-.4766887,1.4557606-.974526,2.1354803,2.8402947,2.1326772,7.3067043,4.1864563,11.0951207,4.593117,.3480719-3.8955526-1.5503752-8.3793989-3.5372311-11.4755436l-.0000496,.0000425Zm-4.8732101,.5320356c-.1508741,.8954714-.8734707,1.5918433-1.7625418,1.7200388,.1170084,.5102442,.1719553,1.0091422,.1637143,1.496273,1.9799011,1.5517266,3.5622174,2.6347371,4.7037601,3.2443029,.5769927,.3081492,1.0444248,.4932387,1.3646767,.5629194,.3202498,.0697254,.4387689,.0150189,.4574856-.0015433,.0187628-.01656,.0805452-.1091168,.0398032-.4212277-.0407953-.3119299-.186093-.7814631-.4492262-1.3717809-.5149792-1.155098-1.4704861-2.781058-2.8710099-4.8407388-.545268-.0387228-1.0918568-.1708439-1.6466678-.3881522l.0000057-.0000915Z" fill="#d8f3dc"/>
      <path d="M20.4613553,21.5528264l-.70652-.0259201-.0763492,1.7077186,9.6571637,10.5768877c.3073026-.4965588,.7761734-.8813988,1.3286802-1.0823558l-10.2029748-11.1763304Zm11.1532553,12.0872097c-.8507031-.0397953-1.5596833,.6075617-1.599476,1.4582083s.6056606,1.5613056,1.4563636,1.6011009c.8507031,.0397953,1.5614481-.6074792,1.6012408-1.4581258,.039798-.8507604-.6073627-1.5615001-1.4580658-1.6012954l-.0000627,.000112Zm8.5456347,1.298186c-.9356761,.6072612-1.8497311,.9632898-2.7589945,1.0973607,1.5602453,2.3301792,2.651543,4.1993601,3.2892708,5.6299979,.3512659,.7878251,.5693224,1.4406141,.6426222,2.0015823,.0732982,.5609664-.0018388,1.1075175-.3998437,1.4590519-.3979502,.3515927-.9421818,.3670918-1.501724,.245313-.5594849-.1217761-1.2020578-.3916445-1.9696726-.8016401-1.4118021-.7538684-3.2367411-1.9935595-5.4852798-3.7308589-.1941316,.9234015-.5925647,1.8096348-1.2114191,2.6545845,3.530729,2.6511,9.0828576,5.2041229,13.7921829,5.7096368,.4326831-4.8425047-1.9272488-10.4163087-4.3970804-14.2650811l-.0000617,.0000528Zm-6.0578165,.6613656c-.1875494,1.1131474-1.0857988,1.9787972-2.19099,2.1381552,.1454514,.6342771,.2137552,1.25445,.2035109,1.8599952,2.4611862,1.9289287,4.4281406,3.2752033,5.8471756,4.0329457,.7172512,.3830558,1.2983092,.6131379,1.6964097,.6997569,.3980979,.0866746,.5454272,.0186698,.5686936-.0019184,.0233237-.0205856,.1001246-.1356415,.0494788-.523622-.050712-.3877555-.2313295-.9714254-.5584265-1.7052409-.6401632-1.4358854-1.8279398-3.4570927-3.5689105-6.0174518-.6778147-.0481358-1.3572712-.2123736-2.0469487-.4825063l.0000071-.0001137Z" fill="#e2f2e4"/>
      <path d="M1.8436609,26.8002766l-.4461086-.0163664-.0482082,1.0782822,6.0976953,6.6784244c.194036-.3135356,.4900889-.55653,.838951-.6834176L1.8436609,26.8002766Zm7.0423526,7.6320671c-.5371482-.0251274-.9848102,.3836247-1.009936,.9207372s.3824243,.9858346,.9195725,1.010962,.9859246-.3835725,1.0110503-.9206851c.0251291-.5371844-.383499-.9859574-.9206472-1.0110848l-.0000396,.0000707Zm5.3958572,.8196964c-.5908016,.3834349-1.1679513,.6082374-1.7420755,.692892,.9851651,1.4713142,1.6742288,2.6515465,2.0769008,3.5548752,.2217952,.497446,.3594797,.9096279,.4057624,1.2638327,.0462817,.3542036-.0011611,.6993051-.252468,.9212699-.2512724,.2220015-.5949094,.2317879-.9482137,.1548948-.3532681-.0768915-.7589995-.2472909-1.2436844-.506169-.8914355-.4760052-2.0437327-1.2587669-3.4634977-2.3557269-.122578,.5830512-.3741553,1.1426338-.7649103,1.6761492,2.2293615,1.673949,5.7350688,3.2859705,8.7086158,3.6051605,.2732034-3.0576388-1.2168973-6.5770322-2.7763904-9.0072116l-.0000389,.0000334Zm-3.825007,.4175974c-.1184218,.70286-.6855916,1.2494458-1.3834279,1.3500671,.0918405,.4004932,.1349686,.7920808,.1285002,1.1744322,1.5540343,1.217958,2.7960023,2.0680184,3.6920048,2.5464696,.4528844,.2418678,.8197742,.3871455,1.0711416,.4418383,.2513657,.0547278,.3443919,.0117884,.3590827-.0012113,.014727-.0129981,.0632204-.0856463,.0312418-.3306237-.0320204-.2448353-.1460653-.6133743-.3525999-1.0767177-.4042098-.9066422-1.1541919-2.1828664-2.25347-3.7995201-.4279836-.0303937-.8570038-.1340962-1.2924778-.3046626l.0000045-.0000718Z" fill="#d8f3dc"/>
      <path d="M25.5251484,6.8594317l-.6520803-.0239229-.0704662,1.5761334,8.9130482,9.7619045c.2836239-.4582974,.7163667-.8134842,1.2263011-.9989568L25.5251484,6.8594317Zm10.2938611,11.1558513c-.7851537-.0367289-1.4395047,.5607471-1.4762312,1.3458487s.5589925,1.441002,1.3441461,1.4777309,1.4411335-.5606709,1.47786-1.3457725c.0367314-.7852066-.5605635-1.4411815-1.3457171-1.4779104l-.0000579,.0001033Zm7.8871661,1.1981566c-.8635793,.5604698-1.7072034,.8890652-2.5464051,1.0128056,1.4400234,2.1506314,2.4472331,3.8757859,3.0358219,5.1961885,.3241997,.7271206,.5254542,1.3296102,.5931061,1.847354,.0676503,.5177421-.0016971,1.0221797-.3690345,1.3466273-.3672868,.3245014-.8695837,.3388062-1.3860113,.2264109-.5163748-.1123928-1.1094354-.3614671-1.817903-.7398711-1.3030182-.6957804-2.9873398-1.8399493-5.0626213-3.4433842-.1791732,.8522504-.5469057,1.6701967-1.1180753,2.4500402,3.258675,2.4468242,8.3829942,4.8031285,12.7294508,5.2696909,.3993435-4.4693742-1.7787481-9.6136986-4.0582712-13.1659107l-.0000569,.0000488Zm-5.5910423,.6104053c-.1730981,1.0273758-1.0021345,1.8263245-2.0221672,1.9734035,.1342439,.585404,.1972846,1.1577906,.1878297,1.7166766,2.2715439,1.7802985,4.0869381,3.0228384,5.3966319,3.7221943,.6619847,.3535401,1.1982703,.5658936,1.5656959,.6458384,.3674232,.0799961,.5034003,.0172312,.524874-.0017706,.0215266-.0189994,.0924097-.1251899,.0456663-.4832752-.0468045-.3578777-.2135048-.8965739-.5153979-1.5738466-.5908365-1.3252458-1.6870912-3.1907126-3.2939145-5.5537878-.6255869-.0444267-1.2526891-.1960095-1.8892248-.4453276l.0000065-.0001049Z" fill="#d8f3dc"/>
      <path d="M3.0540291,14.0412949l-.3343074-.0122647-.0361265,.8080493,4.5695258,5.004716c.1454078-.2349591,.3672656-.4170557,.6286979-.5121434L3.0540291,14.0412949Zm5.2774386,5.7193622c-.4025312-.0188301-.7380027,.2874829-.7568316,.6899873s.2865833,.7387704,.6891145,.7576005,.7388378-.2874438,.7576667-.6899483c.0188314-.4025583-.2873887-.7388624-.6899199-.7576925l-.0000297,.000053Zm4.0435784,.6142688c-.4427383,.2873407-.875246,.4558044-1.3054865,.5192434,.7382686,1.1025819,1.2546431,1.9870311,1.5563998,2.6639727,.1662101,.3727789,.269389,.6816622,.3040726,.9470982,.0346828,.2654351-.0008701,.5240493-.1891959,.6903865-.1883,.1663648-.4458166,.1736986-.7105778,.1160759-.2647341-.0576214-.5687834-.1853163-.9319993-.3793158-.6680291-.3567115-1.5315441-.943302-2.5954958-1.7653482-.0918582,.4369303-.2803867,.8562735-.5732129,1.2560823,1.6706517,1.2544335,4.2977787,2.4624594,6.5261124,2.7016558,.2047347-2.2913509-.9119254-4.928734-2.0805873-6.7498759l-.0000292,.000025Zm-2.8664057,.3129415c-.0887436,.5267132-.5137725,.9363168-1.0367211,1.011721,.0688239,.3001239,.1011435,.593574,.0962962,.8801027,1.1645711,.9127203,2.0952842,1.5497435,2.7667357,1.908288,.3393851,.1812523,.6143271,.2901213,.8026982,.3311073,.1883699,.0410123,.2580824,.0088341,.2690915-.0009077,.0110362-.0097406,.0473764-.0641821,.0234121-.2477647-.0239956-.1834761-.1094593-.4596539-.2642333-.8068769-.302909-.6794247-.8649349-1.6358089-1.6887183-2.8473061-.3207248-.0227766-.6422265-.1004898-.9685644-.2283098l.0000033-.0000538Z" fill="#d8f3dc"/>
      <path d="M11.0540291,2.0412949l-.3343074-.0122647-.0361265,.8080493,4.5695258,5.004716c.1454078-.2349591,.3672656-.4170557,.6286979-.5121434L11.0540291,2.0412949Zm5.2774386,5.7193622c-.4025312-.0188301-.7380027,.2874829-.7568316,.6899873s.2865833,.7387704,.6891145,.7576005,.7388378-.2874438,.7576667-.6899483c.0188314-.4025583-.2873887-.7388624-.6899199-.7576925l-.0000297,.000053Zm4.0435784,.6142688c-.4427383,.2873407-.875246,.4558044-1.3054865,.5192434,.7382686,1.1025819,1.2546431,1.9870311,1.5563998,2.6639727,.1662101,.3727789,.269389,.6816622,.3040726,.9470982,.0346828,.2654351-.0008701,.5240493-.1891959,.6903865-.1883,.1663648-.4458166,.1736986-.7105778,.1160759-.2647341-.0576214-.5687834-.1853163-.9319993-.3793158-.6680291-.3567115-1.5315441-.943302-2.5954958-1.7653482-.0918582,.4369303-.2803867,.8562735-.5732129,1.2560823,1.6706517,1.2544335,4.2977787,2.4624594,6.5261124,2.7016558,.2047347-2.2913509-.9119254-4.928734-2.0805873-6.7498759l-.0000292,.000025Zm-2.8664057,.3129415c-.0887436,.5267132-.5137725,.9363168-1.0367211,1.011721,.0688239,.3001239,.1011435,.593574,.0962962,.8801027,1.1645711,.9127203,2.0952842,1.5497435,2.7667357,1.908288,.3393851,.1812523,.6143271,.2901213,.8026982,.3311073,.1883699,.0410123,.2580824,.0088341,.2690915-.0009077,.0110362-.0097406,.0473764-.0641821,.0234121-.2477647-.0239956-.1834761-.1094593-.4596539-.2642333-.8068769-.302909-.6794247-.8649349-1.6358089-1.6887183-2.8473061-.3207248-.0227766-.6422265-.1004898-.9685644-.2283098l.0000033-.0000538Z" fill="#d8f3dc"/>
    </g>
  </g>
</svg>