<?xml version="1.0" encoding="UTF-8"?>
<svg id="_Шар_2" data-name="Шар 2" xmlns="http://www.w3.org/2000/svg" viewBox="0 0 24 23.93">
  <g id="Bogen">
    <g>
      <path d="M19.68,6.42c-.64,.64-1.68,.64-2.32,0s-.64-1.68,0-2.32c.14-.14,.3-.25,.46-.33-.29,.61-.18,1.36,.33,1.86s1.25,.61,1.86,.33c-.08,.17-.19,.32-.33,.46Z" fill="#381c14"/>
      <path d="M1.78,1.65s.05,.01,.08,.02l-.02,.05s-.04-.05-.06-.07Z" fill="#7c766b"/>
      <path d="M22.76,22.54s-.21-.15-.51-.43c-.01-.07-.02-.14-.04-.21,.36,.39,.55,.61,.55,.64Z" fill="#7c766b"/>
      <path d="M2.86,.63V1.84c-.31-.06-.59-.11-.85-.15h-.01s-.1-.02-.14-.02l.03-.09v-.02s.24-.59,.24-.59l.11-.29c.2-.02,.4-.03,.62-.05Z" fill="#916917"/>
      <path d="M1.1,1.54C.44,1.43,.04,1.35,.01,1.24c-.01,0-.01-.02-.01-.03,0,0,.01,0,.02-.01,.01-.01,.02-.02,.04-.03,.11-.11,.45-.22,.96-.33,.01,.05,.01,.11,.02,.17,.01,.14,.03,.29,.05,.43,0,.04,0,.07,.01,.1Z" fill="#4c4538"/>
      <path d="M1.9,1.56v.02s-.03-.01-.04-.02h.04Z" fill="#4c4538"/>
      <path d="M4.77,.61l-.09,.51-.17,.95-.02,.09c-.27-.06-.54-.11-.79-.16l.05-.1,.35-.84,.2-.46c.15,0,.31,.01,.47,.01Z" fill="#916917"/>
      <path d="M23.3,19.36l-.55-.24-1.1-.48-.1-.04c-.56-2.25-1.51-4.92-3.2-7.49-.12-.18-.24-.35-.36-.52-.61-.85-1.3-1.69-2.1-2.49-.82-.82-1.67-1.54-2.55-2.16-.32-.22-.63-.44-.96-.64-.11-.08-.23-.16-.36-.22-.11-.07-.23-.15-.35-.21-2.21-1.27-4.45-2.03-6.37-2.52l.03-.08,.42-1,.24-.59c3.76,.3,8.56,1.57,12.12,5.14,4.03,4.04,5.11,9.66,5.19,13.54Z" fill="#381c14"/>
      <path d="M23.3,20.05c-.01,.69-.05,1.3-.09,1.84l-.29-.2-.73-.53-.11-.08c-.08-.38-.16-.79-.23-1.24l.08,.02,.91,.12,.46,.07Z" fill="#b79e8d"/>
      <path d="M23.08,22.82c-.12,.64-.26,1.03-.39,1.1h-.01s-.01,.01-.02,0c-.12-.04-.2-.48-.32-1.22,.03,0,.07,0,.09,0,.15,.04,.31,.06,.46,.08,.07,0,.13,.01,.19,.03Z" fill="#2b2720"/>
      <path d="M1.09,1.44C.46,1.35,.07,1.3,.01,1.24c-.01,0-.01-.02-.01-.03,0,0,.01,0,.02-.01,.01-.01,.02-.02,.04-.03,.12-.06,.46-.12,.98-.16,.01,.14,.03,.29,.05,.43Z" fill="#2b2720"/>
      <path d="M22.75,19.12l-1.1-.48c-.59-2.24-1.57-4.95-3.3-7.53-.12-.18-.24-.35-.36-.52-.61-.85-1.3-1.69-2.1-2.49-.82-.82-1.67-1.54-2.55-2.16-.32-.22-.63-.44-.96-.64-.11-.08-.23-.16-.36-.22-.11-.07-.23-.15-.35-.21-2.2-1.29-4.43-2.09-6.34-2.6l.42-1c3.5,.55,7.96,2.02,11.42,5.49,3.77,3.78,5.16,8.74,5.58,12.36Z" fill="#190b09"/>
      <path d="M23.3,19.36c.01,.24,.01,.47,0,.69l-.46-.07-.91-.12-.08-.02c-.09-.39-.19-.81-.3-1.24l.1,.04,1.1,.48,.55,.24Z" fill="#916917"/>
      <path d="M23.21,21.89c-.04,.35-.09,.66-.13,.93-.06-.01-.12-.02-.19-.03-.15-.02-.3-.04-.46-.08-.03,0-.06-.01-.09-.01-.03-.18-.06-.38-.09-.59-.01-.07-.02-.14-.04-.21-.03-.25-.08-.53-.13-.82l.11,.08,.73,.53,.29,.2Z" fill="#916917"/>
      <path d="M5.99,.68l-.24,.59-.42,1-.03,.08c-.28-.07-.55-.13-.81-.19l.02-.09,.17-.95,.09-.51c.39,0,.8,.03,1.22,.07Z" fill="#916917"/>
      <path d="M4.3,.6l-.2,.46-.35,.84-.05,.1c-.29-.06-.58-.12-.84-.16V.63c.44-.03,.93-.04,1.44-.03Z" fill="#b79e8d"/>
      <path d="M2.24,.68l-.11,.29-.23,.59h-.04s.02,.01,.03,.02l-.03,.09s-.06-.01-.08-.02c-.25-.04-.48-.07-.68-.11-.01-.03-.01-.06-.01-.1-.02-.14-.04-.29-.05-.43-.01-.06-.01-.12-.02-.17,.34-.06,.75-.12,1.22-.16Z" fill="#b79e8d"/>
      <path d="M1.86,1.67l-.02,.05s-.04-.05-.06-.07c.02,.01,.05,.01,.08,.02Z" fill="#fff5ee"/>
      <path d="M22.25,22.11c-1.4-1.27-5.53-5.31-10.35-10.12-2.93-2.93-5.56-5.59-7.46-7.55-.11-.11-.21-.21-.3-.31-.34-.35-.66-.68-.94-.97-.12-.13-.23-.24-.34-.36-.42-.44-.77-.81-1.02-1.08l.02-.05s.09,0,.14,.02h.01c.23,.22,.51,.48,.85,.8,.14,.14,.29,.28,.45,.44,.27,.26,.57,.54,.89,.85h0c.12,.12,.24,.23,.36,.35h0c1.97,1.92,4.68,4.59,7.65,7.56,4.68,4.68,8.61,8.7,10,10.21,.02,.07,.03,.14,.04,.21Z" fill="#9b9794"/>
      <polygon points="20.57 3.74 12.18 12.14 11.75 12.57 10.87 13.44 10.24 14.07 10.03 13.86 9.98 13.81 9.74 13.57 9.78 13.53 10.37 12.94 11.25 12.07 11.68 11.64 20.07 3.24 20.36 3.54 20.57 3.74" fill="#0f0d09"/>
      <polygon points="20.36 3.54 11.97 11.93 11.54 12.36 10.66 13.23 10.03 13.86 9.98 13.81 9.74 13.57 9.78 13.53 10.37 12.94 11.25 12.07 11.68 11.64 20.07 3.24 20.36 3.54" fill="#2d120b"/>
      <rect x="19.43" y="2.83" width="2.27" height=".75" transform="translate(8.29 -13.6) rotate(45)" fill="#4c4a45"/>
      <polygon points="22.53 3.05 21.8 2.51 21.88 2.41 23.96 .09 22.54 3.03 22.53 3.05" fill="#6b7f8e"/>
      <polygon points="23.86 .05 21.33 1.87 21.23 1.94 20.65 1.28 20.66 1.27 20.69 1.26 23.86 .05" fill="#bcccd8"/>
      <polygon points="22.52 3.08 21.21 3.34 20.44 2.56 20.65 1.28 21.23 1.94 21.8 2.51 22.53 3.05 22.52 3.08" fill="#838e9b"/>
      <path d="M9.98,13.81l-.62,.62c-.15,0-.29-.03-.44-.04-.42-.04-.84-.08-1.26-.12l.86-.86c.4,.03,.78,.07,1.17,.11l.29,.29Z" fill="#21201e"/>
      <path d="M10.33,15.21c-.28,.28-.56,.55-.84,.83-.03-.38-.06-.75-.09-1.13-.01-.16-.03-.32-.04-.48l.62-.62,.05,.05,.21,.21,.02,.02c.02,.37,.04,.75,.07,1.12Z" fill="#21201e"/>
      <path d="M9.49,16.04l-.03,.03c-.01-.38-.04-.77-.07-1.15-.01-.16-.02-.32-.03-.49,.01,.16,.02,.32,.04,.48,.04,.38,.07,.76,.09,1.13Z" fill="#4c4a45"/>
      <path d="M9.36,14.43l-.66,.67h-.01c-.62,0-1.24,.02-1.86,.03h-.03l.86-.86c.42,.04,.84,.08,1.26,.12,.15,.01,.29,.03,.44,.04Z" fill="#605438"/>
      <path d="M9.49,16.04c-.27,.28-.55,.55-.82,.83,.01-.59,.02-1.17,.03-1.76h0s.66-.68,.66-.68c0,.16,.02,.32,.03,.49,.03,.38,.06,.76,.1,1.12Z" fill="#605438"/>
      <polygon points="21.8 2.51 21.23 1.94 21.33 1.87 23.86 .05 24 0 23.96 .09 21.88 2.41 21.8 2.51" fill="#9aa8b5"/>
      <rect x="19.25" y="3.26" width="1.15" height="1.29" transform="translate(8.57 -12.87) rotate(45)" fill="#381c14"/>
      <path d="M8.7,15.1h0c-.01,.6-.02,1.18-.03,1.77-.74,.15-1.48,.31-2.21,.46l2.03-2.03,.2-.2h.01Z" fill="#93867c"/>
      <path d="M8.69,15.1l-.2,.2-2.03,2.03c.12-.73,.24-1.46,.37-2.2,.62-.01,1.24-.02,1.86-.03Z" fill="#b2a193"/>
    </g>
  </g>
</svg>