<?xml version="1.0" encoding="UTF-8"?>
<svg id="_Шар_2" data-name="Шар 2" xmlns="http://www.w3.org/2000/svg" viewBox="0 0 24.05 24.06">
  <g id="Bogen">
    <g>
      <path d="M.46,.47C0,.93-.11,1.6,.11,2.16c0,0,0,0,0,.01,.03,.04,.12,.2,.25,.43h.01c.02,.05,.05,.08,.09,.12,.44,.44,1.08,.57,1.63,.38,.23-.07,.44-.19,.62-.38,.62-.62,.62-1.63,0-2.25S1.08-.16,.46,.47Zm1.9,1.9c-.18,.18-.41,.28-.64,.31-.32,.04-.66-.06-.9-.31-.12-.12-.21-.27-.27-.43-.12-.38-.04-.82,.27-1.12,.43-.43,1.13-.43,1.55,0s.43,1.12,0,1.55Z" fill="#443a27"/>
      <path d="M21.33,21.34c-.17,.17-.29,.36-.37,.57-.21,.57-.09,1.23,.37,1.68,.15,.15,.33,.27,.53,.35,.58,.23,1.26,.12,1.72-.35,.62-.62,.62-1.63,0-2.25s-1.63-.62-2.25,0Zm1.92,1.92c-.32,.32-.76,.4-1.16,.27-.15-.05-.3-.14-.43-.27-.27-.27-.38-.66-.32-1.01,.04-.22,.14-.42,.31-.58,.44-.44,1.16-.44,1.6,0s.43,1.15,0,1.59Z" fill="#443a27"/>
      <path d="M2.62,3.6c-.22,.07-.43,.19-.61,.38-.09,.09-.17,.2-.23,.3-.66-.61-1.14-1.24-1.41-1.65,.02,.04,.05,.06,.09,.1,.44,.44,1.08,.57,1.63,.38,.16,.17,.34,.34,.53,.5Z" fill="#7f714a"/>
      <path d="M6.54,5.84c-1.03,.14-1.94,0-2.73-.3,.25-.31,.37-.69,.33-1.02,.53,.21,1.12,.32,1.79,.3,.19,.39,.4,.76,.61,1.02Z" fill="#7f714a"/>
      <path d="M8.97,4.69c.03,.38,.06,.76,.09,1.1-.4-.06-.82-.09-1.26-.08,.12-.3,.2-.69,.28-1.09,.3,0,.6,.02,.89,.06Z" fill="#7f714a"/>
      <path d="M11.46,5.36c-.06,.38-.12,.76-.16,1.13-.3-.15-.63-.29-1-.4,.14-.31,.27-.66,.4-1.02,.27,.09,.52,.19,.76,.3Z" fill="#844d20"/>
      <path d="M16.36,9.32s.27,.29,.59,.74c-.14,.1-.31,.22-.48,.35-.14,.1-.28,.21-.43,.31-.06-.09-.12-.17-.17-.23-.72,.42-1.77,.18-2.55-.61-.66-.66-.93-1.49-.77-2.17,.3-.34,.59-.78,.81-1.27,.32,.24,.51,.4,.53,.43l.38,.37-.35,.4s-.07,.09-.14,.2h0c-.17,.17-.1,.71,.38,1.2,.23,.23,.49,.38,.7,.43,0,0,.02,0,.03,.01,.14,.09,.32,.04,.48-.04,.12-.07,.21-.15,.21-.15l.41-.37,.38,.4Z" fill="#443a27"/>
      <path d="M17.84,11.5c.15,.27,.28,.56,.4,.88-.26,.26-.58,.55-.89,.82-.17-.51-.38-.96-.6-1.35,.38-.14,.76-.26,1.09-.35Z" fill="#7f714a"/>
      <path d="M18.76,14.02c.04,.19,.07,.38,.11,.57-.34,.21-.7,.44-1.05,.68-.02-.28-.06-.56-.12-.82,.36-.14,.73-.3,1.07-.43Z" fill="#7f714a"/>
      <path d="M19.52,20.12c-.32,.02-.65,.17-.92,.44-.04,.04-.06,.06-.09,.1-.53-.96-.86-2.11-.76-3.47,.35,0,.74-.05,1.13-.14-.14,1.18,.15,2.21,.63,3.07Z" fill="#7f714a"/>
      <path d="M19.95,22.51c.12-.06,.24-.15,.35-.26,.18-.18,.31-.4,.38-.62,.1,.1,.19,.19,.3,.28-.21,.57-.09,1.23,.37,1.68,.15,.15,.33,.27,.53,.35v.02c-.09-.05-.98-.54-1.91-1.46Z" fill="#7f714a"/>
      <path d="M14.87,9.45l.02,.02s-.02-.02-.02,0h0Z" fill="#838e9b"/>
      <path d="M15.34,9.4l.02,.02c-.14,.08-.34,.14-.47,.04,.2,.04,.37,.02,.45-.06Z" fill="#838e9b"/>
      <path d="M7.8,5.72c-.34,0-.69,.04-1.05,.09-.07,.01-.14,.03-.22,.03-.21-.27-.42-.63-.61-1.02,.21,0,.42-.03,.64-.06,.52-.09,1.02-.13,1.51-.12-.08,.4-.17,.79-.28,1.09Z" fill="#844d20"/>
      <path d="M10.3,6.09c-.38-.13-.79-.23-1.23-.3-.04-.34-.06-.73-.09-1.1,.63,.06,1.21,.2,1.73,.38-.13,.36-.27,.71-.4,1.02Z" fill="#844d20"/>
      <path d="M12.55,7.71c.03-.14,.08-.28,.15-.41-.32-.23-.79-.53-1.4-.81,.04-.36,.1-.75,.16-1.13,.84,.35,1.48,.77,1.9,1.08-.22,.49-.51,.93-.81,1.27Z" fill="#7f714a"/>
      <path d="M17.84,11.5c-.32,.09-.71,.22-1.09,.35-.25-.47-.51-.85-.71-1.14,.14-.1,.28-.21,.43-.31,.17-.13,.34-.25,.48-.35,.27,.35,.58,.84,.89,1.45Z" fill="#844d20"/>
      <path d="M18.76,14.02c-.34,.14-.71,.29-1.07,.43-.08-.44-.19-.86-.34-1.25,.32-.27,.63-.56,.89-.82,.2,.49,.39,1.04,.51,1.64Z" fill="#844d20"/>
      <path d="M18.9,17.06c-.39,.09-.78,.13-1.13,.14,0-.09,.01-.2,.03-.3,.07-.56,.07-1.11,.02-1.62,.35-.24,.71-.47,1.05-.68,.11,.76,.14,1.58,.03,2.44t0,.03Z" fill="#844d20"/>
      <path d="M17.76,17.19c0-.09,.01-.2,.03-.3,.07-.56,.07-1.11,.02-1.62l-.05,1.93Z" fill="#838e9b"/>
      <ellipse cx="11.04" cy="12.94" rx=".25" ry="12.72" transform="translate(-5.92 11.59) rotate(-45)" fill="#844d20"/>
      <path d="M3.81,5.54c-.8-.31-1.48-.77-2.03-1.26,.06-.1,.14-.21,.23-.3,.18-.18,.39-.3,.61-.38,.42,.36,.92,.69,1.52,.92,.04,.34-.08,.71-.33,1.02Z" fill="#844d20"/>
      <path d="M20.3,22.25c-.11,.11-.22,.19-.35,.26-.51-.49-1.02-1.11-1.43-1.85,.02-.04,.05-.06,.09-.1,.27-.27,.59-.42,.92-.44,.32,.58,.74,1.1,1.15,1.51-.06,.22-.19,.44-.38,.62Z" fill="#844d20"/>
      <g>
        <path d="M6.29,17.05l-1.04,1.04h0s1.91-1.92,1.91-1.92c-.28,.28-.58,.58-.85,.87Z" fill="#7f714a"/>
        <rect x="5.64" y="10.05" width="14.61" height=".71" transform="translate(-3.56 12.2) rotate(-45)" fill="#7f714a"/>
        <rect x="5.53" y="10.09" width="14.61" height=".41" transform="translate(-3.52 12.09) rotate(-45)" fill="#605438"/>
        <rect x="17.22" y="4.58" width="2.27" height=".75" transform="translate(8.88 -11.53) rotate(45)" fill="#4c4a45"/>
        <polygon points="20.32 4.8 19.59 4.25 19.67 4.15 21.75 1.84 20.33 4.77 20.32 4.8" fill="#6b7f8e"/>
        <polygon points="21.65 1.8 19.12 3.62 19.02 3.68 18.44 3.02 18.45 3.01 18.48 3 21.65 1.8" fill="#bcccd8"/>
        <polygon points="20.31 4.82 19 5.08 18.23 4.31 18.44 3.02 19.02 3.68 19.59 4.25 20.32 4.8 20.31 4.82" fill="#838e9b"/>
        <path d="M7.77,15.56l-.62,.62c-.15,0-.29-.03-.44-.04-.42-.04-.84-.08-1.26-.12l.86-.86c.4,.03,.78,.07,1.16,.11l.29,.29Z" fill="#4c4a45"/>
        <path d="M7.48,15.26s.06,0,.09,0c.15,0,.29,.03,.44,.04l-.24,.24-.29-.29Z" fill="#938e82"/>
        <path d="M6.29,17.05l-1.49,1.49h-.02s2.36-2.36,2.36-2.36c-.28,.28-.58,.58-.85,.87Z" fill="#938e82"/>
        <path d="M8.11,16.95l-.86,.86c-.02-.38-.04-.77-.07-1.16-.02-.16-.03-.32-.03-.48l.62-.62,.28,.28c.03,.37,.04,.75,.07,1.12Z" fill="#4c4a45"/>
        <path d="M7.77,15.56l.24-.24c0,.16,.02,.33,.03,.48v.03s-.28-.28-.28-.28Z" fill="#938e82"/>
        <path d="M7.15,16.18l-.86,.86c-.15,0-.29-.03-.44-.04-.42-.04-.84-.08-1.26-.12l.86-.86c.42,.04,.84,.08,1.26,.12,.15,0,.29,.03,.44,.04Z" fill="#d6cfc1"/>
        <path d="M5.25,18.09l-1,1c.18-.18,.36-.36,.53-.55l.88-.88c-.14,.14-.28,.29-.41,.43Z" fill="#938e82"/>
        <path d="M7.25,17.82l-.86,.86c-.02-.38-.04-.77-.07-1.16,0-.15-.02-.31-.03-.47h0c.28-.3,.57-.6,.85-.88,0,.16,.02,.33,.03,.48,.03,.39,.05,.78,.07,1.16Z" fill="#d6cfc1"/>
        <path d="M5.25,18.09c.14-.14,.28-.29,.41-.43l1.48-1.48c-.28,.28-.58,.58-.85,.87l-1.04,1.04Z" fill="#938e82"/>
        <path d="M6.28,17.04l-1.5,1.5c-.69,.07-1.36,.14-2.06,.2l1.86-1.86c.42,.04,.84,.08,1.26,.12,.15,0,.29,.03,.44,.04Z" fill="#938e82"/>
        <path d="M6.39,18.68l-1.7,1.7c.04-.61,.09-1.23,.11-1.84l1.48-1.48c.02,.16,.03,.32,.03,.47,.03,.39,.05,.78,.07,1.16Z" fill="#938e82"/>
        <path d="M6.29,17.05l-2.04,2.04c.18-.18,.36-.36,.53-.55l1.5-1.5h0Z" fill="#938e82"/>
        <rect x="7.59" y="14.61" width=".89" height="1.16" transform="translate(-8.39 10.13) rotate(-45)" fill="#844d20"/>
        <polygon points="19.59 4.25 19.02 3.68 19.12 3.62 21.65 1.8 21.79 1.74 21.75 1.84 19.67 4.15 19.59 4.25" fill="#9aa8b5"/>
        <rect x="17.04" y="5.01" width="1.15" height="1.29" transform="translate(9.16 -10.8) rotate(45)" fill="#844d20"/>
      </g>
    </g>
  </g>
</svg>