<?xml version="1.0" encoding="UTF-8"?>
<svg id="_Шар_2" data-name="Шар 2" xmlns="http://www.w3.org/2000/svg" viewBox="0 0 24 23.93">
  <g id="Bogen">
    <g>
      <g>
        <ellipse cx="12.06" cy="11.84" rx=".22" ry="15.14" transform="translate(-4.84 11.99) rotate(-45)" fill="#7c766b"/>
        <path d="M18.11,5.82c4.03,4.04,5.11,9.66,5.19,13.54l-.54-.24-1.1-.48-.1-.04c-.6-2.4-1.64-5.29-3.56-8.01-.61-.86-1.3-1.69-2.1-2.49s-1.67-1.54-2.55-2.16c-.31-.23-.63-.44-.96-.64-.12-.08-.23-.16-.36-.23-.12-.07-.23-.15-.36-.21C6,1.62,.16,1.69,.01,1.23c0,0-.01-.01,0-.02h.01C.41,.51,11.42-.88,18.11,5.82Z" fill="#4c4538"/>
        <path d="M23.3,20.04c0,.69-.04,1.31-.09,1.85l-.29-.2-.73-.52-.12-.09c-.07-.38-.15-.79-.23-1.24h.09s.91,.14,.91,.14l.46,.07Z" fill="#824f04"/>
        <path d="M23.08,22.82c-.12,.64-.26,1.03-.39,1.1h-.01s-.01,.01-.02,0c-.12-.04-.2-.48-.32-1.22,.03,0,.07,0,.09,0,.15,.04,.31,.06,.46,.08,.07,0,.13,.01,.19,.03Z" fill="#2b2720"/>
        <path d="M17.17,6.75c3.77,3.79,5.16,8.75,5.58,12.37l-1.1-.48c-.62-2.4-1.7-5.32-3.66-8.05-.61-.86-1.3-1.69-2.1-2.49s-1.67-1.54-2.55-2.16c-.31-.23-.63-.44-.96-.64-.11-.08-.23-.16-.36-.23-.12-.07-.23-.15-.36-.21C6.07,1.58,.28,1.5,.01,1.23c0,0-.01-.01,0-.02h.01C.41,.8,10.59,.16,17.17,6.75Z" fill="#2b2720"/>
        <path d="M23.3,19.36c0,.24,0,.47,0,.68l-.46-.07-.91-.12h-.09c-.09-.41-.19-.83-.3-1.26l.1,.04,1.1,.48,.54,.24Z" fill="#5e3a00"/>
        <path d="M23.21,21.89c-.04,.35-.09,.65-.13,.93-.06-.01-.12-.02-.19-.03-.15-.02-.31-.04-.46-.08-.03,0-.07,0-.09,0-.07-.44-.15-1-.26-1.63l.12,.09,.73,.52,.29,.2Z" fill="#5e3a00"/>
      </g>
      <g>
        <polygon points="20.57 3.74 12.18 12.14 11.75 12.57 10.87 13.44 10.24 14.07 10.03 13.86 9.98 13.81 9.74 13.57 9.78 13.53 10.37 12.94 11.25 12.07 11.68 11.64 20.07 3.24 20.36 3.54 20.57 3.74" fill="#2b2720"/>
        <polygon points="20.36 3.54 11.97 11.93 11.54 12.36 10.66 13.23 10.03 13.86 9.98 13.81 9.74 13.57 9.78 13.53 10.37 12.94 11.25 12.07 11.68 11.64 20.07 3.24 20.36 3.54" fill="#5b3327"/>
        <rect x="19.42" y="2.83" width="2.27" height=".75" transform="translate(8.29 -13.6) rotate(45)" fill="#4c4a45"/>
        <polygon points="22.53 3.05 21.8 2.51 21.88 2.41 23.95 .09 22.54 3.03 22.53 3.05" fill="#6b7f8e"/>
        <polygon points="23.86 .05 21.33 1.87 21.23 1.94 20.65 1.28 20.66 1.27 20.68 1.26 23.86 .05" fill="#bcccd8"/>
        <polygon points="22.52 3.08 21.21 3.34 20.43 2.56 20.65 1.28 21.23 1.94 21.8 2.51 22.53 3.05 22.52 3.08" fill="#838e9b"/>
        <path d="M9.98,13.81l-.62,.62c-.15,0-.29-.03-.44-.04-.42-.04-.84-.08-1.26-.12l.86-.86c.4,.03,.78,.07,1.17,.11l.29,.29Z" fill="#6a737c"/>
        <path d="M10.33,15.21c-.28,.28-.56,.55-.84,.83-.03-.38-.06-.75-.09-1.13-.01-.16-.03-.32-.04-.48l.62-.62,.05,.05,.21,.21,.02,.02c.02,.37,.04,.75,.07,1.12Z" fill="#535a60"/>
        <path d="M9.49,16.04l-.03,.03c-.01-.38-.04-.77-.07-1.15-.01-.16-.02-.32-.03-.49,.01,.16,.02,.32,.04,.48,.04,.38,.07,.76,.09,1.13Z" fill="#4c4a45"/>
        <path d="M9.36,14.43l-.66,.67h-.01c-.62,0-1.24,.02-1.86,.03h-.03l.86-.86c.42,.04,.84,.08,1.26,.12,.15,.01,.29,.03,.44,.04Z" fill="#605438"/>
        <path d="M9.49,16.04c-.27,.28-.55,.55-.82,.83,.01-.59,.02-1.17,.03-1.76h0s.66-.68,.66-.68c0,.16,.02,.32,.03,.49,.03,.38,.06,.76,.1,1.12Z" fill="#605438"/>
        <polygon points="21.8 2.51 21.23 1.94 21.33 1.87 23.86 .05 24 0 23.95 .09 21.88 2.41 21.8 2.51" fill="#9aa8b5"/>
        <rect x="19.24" y="3.26" width="1.15" height="1.29" transform="translate(8.57 -12.87) rotate(45)" fill="#844d20"/>
        <path d="M8.7,15.1h0c-.01,.6-.02,1.18-.03,1.77-.74,.15-1.48,.31-2.21,.46l2.03-2.03,.2-.2h.01Z" fill="#93867c"/>
        <path d="M8.69,15.1l-.2,.2-2.03,2.03c.12-.73,.24-1.46,.37-2.2,.62-.01,1.24-.02,1.86-.03Z" fill="#b2a193"/>
      </g>
    </g>
  </g>
</svg>