<?xml version="1.0" encoding="UTF-8"?>
<svg id="_Шар_2" data-name="Шар 2" xmlns="http://www.w3.org/2000/svg" viewBox="0 0 24.05 23.85">
  <g id="Bogen">
    <g>
      <path d="M15.32,8.74c1.37,1.4,2.42,2.72,3.21,3.83l-.92,.92c-.69-1.06-1.69-2.42-3.09-3.85-1.56-1.6-3.07-2.74-4.22-3.49,.07,.02,.14,.06,.21,.1l.89-.89c1.14,.82,2.49,1.94,3.92,3.38Z" fill="#445759"/>
      <ellipse cx="12.58" cy="11.29" rx=".1" ry="14.66" transform="translate(-4.3 12.2) rotate(-45)" fill="#fff5ee"/>
      <path d="M13.05,3.69l.02,.02-2.53,2.53c-.06-.03-.13-.07-.21-.1-.27-.14-.54-.27-.81-.41l2.38-2.38c.46,.08,.85,.21,1.16,.33Z" fill="#86a0a3"/>
      <path d="M14.72,3.53c.42,.14,.84,.27,1.25,.41-.4,.21-.96,.57-1.51,1.13-.55,.56-.9,1.13-1.1,1.54l-.69-1.02,2.05-2.05Z" fill="#351b13"/>
      <path d="M15.06,8.99c1.37,1.39,2.45,2.69,3.27,3.76l-.73,.73c-.73-1.02-1.77-2.35-3.17-3.77-1.56-1.6-3.04-2.77-4.14-3.56,.07,.03,.13,.07,.19,.11l.7-.7c1.1,.85,2.44,2,3.87,3.44Z" fill="#86a0a3"/>
      <path d="M17.49,13.28l2.04-2.04,.77,.77-2.25,2.25c-.19-.33-.37-.65-.56-.98Z" fill="#86a0a3"/>
      <path d="M20.22,9.03c-.14-.42-.27-.84-.41-1.25-.21,.4-.57,.96-1.13,1.51-.56,.55-1.13,.9-1.54,1.1l1.02,.69,2.05-2.05Z" fill="#351b13"/>
      <path d="M23.36,21.33l-.2-.18-1.16-1.04-.19-.17c-.03-.2-.05-.39-.06-.58l.2,.08,1.05,.42,.27,.1c0,.14,0,.27,.02,.42,.02,.33,.05,.64,.07,.95Z" fill="#66301d"/>
      <path d="M23.28,19.96l-.27-.1-1.05-.42c-.03-1.22,.25-2.19,.34-2.69,.27-1.43-.05-3.63-2.82-6.98l.74-.74c2.75,2.69,3.35,4.88,3.37,6.42,.02,1.31-.39,2.41-.31,4.52Z" fill="#3a322d"/>
      <path d="M23.85,23.85c-.4-.49-.81-.99-1.2-1.48-.04-.09-.09-.18-.13-.3l.95,.48,.1,.05c.09,.49,.2,.91,.28,1.25Z" fill="#2b170a"/>
      <path d="M23.47,22.07l-.13-.05-.99-.38-.09-.03c-.02-.05-.04-.12-.06-.17-.2-.53-.32-1.02-.38-1.49l.19,.17,1.16,1.04,.2,.18c.03,.25,.07,.51,.11,.73Z" fill="#2b170a"/>
      <path d="M23.01,19.86l-1.05-.42-.2-.08c-.05-1.01,.11-1.8,.16-2.22,.16-1.32-.3-3.39-3.11-6.69l.68-.68c2.77,2.56,3.45,4.71,3.54,6.24,.06,1.06-.16,2.1-.02,3.85Z" fill="#ccb9a6"/>
      <path d="M23.85,23.85c-.4-.49-.81-.98-1.22-1.47-.05-.09-.12-.21-.19-.34-.05-.13-.12-.27-.18-.43l.09,.03c.05,.16,.1,.3,.16,.43,.04,.12,.09,.21,.13,.3,.4,.49,.81,.99,1.2,1.48Z" fill="#351b13"/>
      <path d="M23.57,22.6l-.1-.05-.95-.48c-.06-.13-.12-.27-.16-.43l.99,.38,.13,.05c.03,.19,.05,.37,.09,.53Z" fill="#66301d"/>
      <path d="M2.52,.48l.18,.2,1.04,1.16,.17,.19c.2,.03,.39,.05,.58,.06l-.08-.2-.42-1.05-.1-.27c-.14,0-.27,0-.42-.02-.33-.02-.64-.05-.95-.07Z" fill="#66301d"/>
      <path d="M3.88,.57l.1,.27,.42,1.05c1.22,.03,2.19-.25,2.69-.34,1.43-.27,3.63,.05,6.98,2.82l.74-.74C12.13,.88,9.93,.27,8.4,.26c-1.31-.02-2.41,.39-4.52,.31Z" fill="#3a322d"/>
      <path d="M0,0C.49,.4,.99,.81,1.48,1.2c.09,.04,.18,.09,.3,.13l-.48-.95-.05-.1C.76,.2,.34,.09,0,0Z" fill="#2b170a"/>
      <path d="M1.78,.38l.05,.13,.38,.99,.03,.09c.05,.02,.12,.04,.17,.06,.53,.2,1.02,.32,1.49,.38l-.17-.19L2.7,.68l-.18-.2c-.25-.03-.51-.07-.73-.11Z" fill="#2b170a"/>
      <path d="M3.99,.84l.42,1.05,.08,.2c1.01,.05,1.8-.11,2.22-.16,1.32-.16,3.39,.3,6.69,3.11l.68-.68C11.52,1.59,9.37,.91,7.83,.83c-1.06-.06-2.1,.16-3.85,.02Z" fill="#ccb9a6"/>
      <path d="M0,0C.49,.4,.98,.81,1.47,1.22c.09,.05,.21,.12,.34,.19,.13,.05,.27,.12,.43,.18l-.03-.09c-.16-.05-.3-.1-.43-.16-.12-.04-.21-.09-.3-.13C.99,.81,.49,.4,0,0Z" fill="#351b13"/>
      <path d="M1.25,.28l.05,.1,.48,.95c.13,.06,.27,.12,.43,.16l-.38-.99-.05-.13c-.19-.03-.37-.05-.53-.09Z" fill="#66301d"/>
      <polygon points="18.41 3.74 10.02 12.14 9.59 12.57 8.71 13.44 8.08 14.07 7.87 13.86 7.82 13.81 7.58 13.57 7.62 13.53 8.21 12.94 9.09 12.07 9.52 11.64 17.91 3.24 18.2 3.54 18.41 3.74" fill="#663021"/>
      <polygon points="18.2 3.54 9.81 11.93 9.38 12.36 8.5 13.23 7.87 13.86 7.82 13.81 7.58 13.57 7.62 13.53 8.21 12.94 9.09 12.07 9.52 11.64 17.91 3.24 18.2 3.54" fill="#604a45"/>
      <rect x="17.27" y="2.83" width="2.27" height=".75" transform="translate(7.66 -12.07) rotate(45)" fill="#4c4a45"/>
      <polygon points="20.37 3.05 19.64 2.51 19.73 2.41 21.8 .09 20.38 3.03 20.37 3.05" fill="#6b7f8e"/>
      <polygon points="21.7 .05 19.17 1.87 19.07 1.94 18.49 1.28 18.5 1.27 18.53 1.26 21.7 .05" fill="#bcccd8"/>
      <polygon points="20.36 3.08 19.05 3.34 18.28 2.56 18.49 1.28 19.07 1.94 19.64 2.51 20.37 3.05 20.36 3.08" fill="#838e9b"/>
      <path d="M7.82,13.81l-.62,.62c-.15,0-.29-.03-.44-.04-.42-.04-.84-.08-1.26-.12l.86-.86c.4,.03,.78,.07,1.17,.11l.29,.29Z" fill="#6a737c"/>
      <path d="M8.06,13.57l-.24,.24-.29-.29s.06,.01,.09,.01c.15,.01,.29,.03,.44,.04Z" fill="#938e82"/>
      <path d="M8.17,15.21c-.28,.28-.56,.55-.84,.83-.03-.38-.06-.75-.09-1.13-.01-.16-.03-.32-.04-.48l.62-.62,.05,.05,.21,.21,.02,.02c.02,.37,.04,.75,.07,1.12Z" fill="#535a60"/>
      <path d="M7.33,16.04l-.03,.03c-.01-.38-.04-.77-.07-1.15-.01-.16-.02-.32-.03-.49,.01,.16,.02,.32,.04,.48,.04,.38,.07,.76,.09,1.13Z" fill="#4c4a45"/>
      <path d="M8.1,14.05v.04s-.02-.02-.02-.02l-.21-.21-.05-.05,.24-.24s0,.06,.01,.09c0,.13,.01,.27,.03,.39Z" fill="#938e82"/>
      <path d="M7.2,14.43l-.66,.67h-.01c-.62,0-1.24,.02-1.86,.03h-.03s.86-.86,.86-.86c.42,.04,.84,.08,1.26,.12,.15,.01,.29,.03,.44,.04Z" fill="#cfffff"/>
      <path d="M7.33,16.04c-.27,.28-.55,.55-.82,.83,.01-.59,.02-1.17,.03-1.76h0s.66-.68,.66-.68c0,.16,.02,.32,.03,.49,.03,.38,.06,.76,.1,1.12Z" fill="#92d6d4"/>
      <polygon points="8.81 13.54 8.18 14.17 8.08 14.07 7.87 13.86 7.82 13.81 7.36 13.35 7.99 12.72 8.21 12.94 8.5 13.23 8.71 13.44 8.81 13.54" fill="#844d20"/>
      <polygon points="19.64 2.51 19.07 1.94 19.17 1.87 21.7 .05 21.84 0 21.8 .09 19.73 2.41 19.64 2.51" fill="#9aa8b5"/>
      <rect x="17.09" y="3.26" width="1.15" height="1.29" transform="translate(7.94 -11.34) rotate(45)" fill="#844d20"/>
      <path d="M6.54,15.1h0c-.01,.6-.02,1.18-.03,1.77-.74,.15-1.48,.31-2.21,.46l2.03-2.03,.2-.2h.01Z" fill="#706c69"/>
      <path d="M6.53,15.1l-.2,.2-2.03,2.03c.12-.73,.24-1.46,.37-2.2,.62-.01,1.24-.02,1.86-.03Z" fill="#e5dcd6"/>
      <polygon points="20.62 5.68 12.23 14.08 11.8 14.51 10.92 15.38 10.29 16.01 10.08 15.8 10.03 15.75 9.79 15.51 9.83 15.47 10.42 14.88 11.3 14.01 11.73 13.58 20.12 5.18 20.41 5.48 20.62 5.68" fill="#663021"/>
      <polygon points="20.41 5.48 12.02 13.87 11.59 14.3 10.71 15.17 10.08 15.8 10.03 15.75 9.79 15.51 9.83 15.47 10.42 14.88 11.3 14.01 11.73 13.58 20.12 5.18 20.41 5.48" fill="#604a45"/>
      <rect x="19.48" y="4.78" width="2.27" height=".75" transform="translate(9.68 -13.07) rotate(45)" fill="#4c4a45"/>
      <polygon points="22.58 5 21.85 4.45 21.94 4.35 24.01 2.04 22.59 4.97 22.58 5" fill="#6b7f8e"/>
      <polygon points="23.91 1.99 21.38 3.81 21.28 3.88 20.7 3.22 20.71 3.21 20.74 3.2 23.91 1.99" fill="#bcccd8"/>
      <polygon points="22.57 5.02 21.26 5.28 20.49 4.5 20.7 3.22 21.28 3.88 21.85 4.45 22.58 5 22.57 5.02" fill="#838e9b"/>
      <path d="M10.03,15.75l-.62,.62c-.15,0-.29-.03-.44-.04-.42-.04-.84-.08-1.26-.12l.86-.86c.4,.03,.78,.07,1.17,.11l.29,.29Z" fill="#6a737c"/>
      <path d="M10.27,15.51l-.24,.24-.29-.29s.06,.01,.09,.01c.15,.01,.29,.03,.44,.04Z" fill="#938e82"/>
      <path d="M10.38,17.15c-.28,.28-.56,.55-.84,.83-.03-.38-.06-.75-.09-1.13-.01-.16-.03-.32-.04-.48l.62-.62,.05,.05,.21,.21,.02,.02c.02,.37,.04,.75,.07,1.12Z" fill="#535a60"/>
      <path d="M9.54,17.98l-.03,.03c-.01-.38-.04-.77-.07-1.15-.01-.16-.02-.32-.03-.49,.01,.16,.02,.32,.04,.48,.04,.38,.07,.76,.09,1.13Z" fill="#4c4a45"/>
      <path d="M10.31,15.99v.04s-.02-.02-.02-.02l-.21-.21-.05-.05,.24-.24s0,.06,.01,.09c0,.13,.01,.27,.03,.39Z" fill="#938e82"/>
      <path d="M9.41,16.37l-.66,.67h-.01c-.62,0-1.24,.02-1.86,.03h-.03s.86-.86,.86-.86c.42,.04,.84,.08,1.26,.12,.15,.01,.29,.03,.44,.04Z" fill="#cfffff"/>
      <path d="M9.54,17.98c-.27,.28-.55,.55-.82,.83,.01-.59,.02-1.17,.03-1.76h0s.66-.68,.66-.68c0,.16,.02,.32,.03,.49,.03,.38,.06,.76,.1,1.12Z" fill="#92d6d4"/>
      <polygon points="11.02 15.48 10.39 16.11 10.29 16.01 10.08 15.8 10.03 15.75 9.57 15.29 10.2 14.66 10.42 14.88 10.71 15.17 10.92 15.38 11.02 15.48" fill="#844d20"/>
      <polygon points="21.85 4.45 21.28 3.88 21.38 3.81 23.91 1.99 24.05 1.94 24.01 2.04 21.94 4.35 21.85 4.45" fill="#9aa8b5"/>
      <rect x="19.3" y="5.21" width="1.15" height="1.29" transform="translate(9.96 -12.34) rotate(45)" fill="#844d20"/>
      <path d="M8.75,17.04h0c-.01,.6-.02,1.18-.03,1.77-.74,.15-1.48,.31-2.21,.46l2.03-2.03,.2-.2h.01Z" fill="#706c69"/>
      <path d="M8.74,17.04l-.2,.2-2.03,2.03c.12-.73,.24-1.46,.37-2.2,.62-.01,1.24-.02,1.86-.03Z" fill="#e5dcd6"/>
      <polygon points="14.75 15.47 6.78 22.03 14.08 14.73 14.75 15.47 14.75 15.47" fill="#cfffff"/>
      <polygon points="8.79 8.91 .82 15.46 8.12 8.16 8.79 8.91 8.79 8.91" fill="#cfffff"/>
    </g>
  </g>
</svg>