<?xml version="1.0" encoding="UTF-8"?>
<svg id="_Шар_2" data-name="Шар 2" xmlns="http://www.w3.org/2000/svg" viewBox="0 0 23.8 23.88">
  <g id="Bogen">
    <g>
      <g>
        <path d="M2.36,1.75v-.02c3.23-.71,10.19-1.27,14.96,3.05,5.1,4.61,4.9,12.22,4.31,15.9h-.04c.33-3.46,.04-10.55-5.01-15.16C11.85,1.2,5.37,1.29,2.36,1.75Z" fill="#7f714a"/>
        <path d="M2.44,2.29v-.11s-.06-.34-.06-.34l-.02-.09c3-.46,9.49-.55,14.21,3.78,5.05,4.61,5.33,11.7,5.01,15.15h-.03s-.02,0-.02,0l-.5-.05c0-3.46-.39-10.27-4.99-14.5C11.71,2.16,5.49,2.14,2.44,2.29Z" fill="#605438"/>
        <path d="M2.44,2.29l-.02-.1-.07-.33-.02-.1s.02,0,.03,0l.02,.09,.05,.34v.11Z" fill="#7f714a"/>
        <path d="M21.59,20.9c0-.11-.02-.19-.04-.21h.08c-.02,.08-.03,.15-.03,.21Z" fill="#7f714a"/>
        <path d="M2.38,1.84c-.09,0-.19-.02-.28-.04,.09-.02,.17-.03,.27-.06l.02,.1Z" fill="#7f714a"/>
        <path d="M1.61,2.34c.17-.03,.37-.08,.59-.11,.09-.02,.16-.03,.23-.04v.11c-.31,0-.58,.03-.82,.04Z" fill="#7f714a"/>
        <path d="M1.46,2.34l-.05-.36-.05-.41c.26,.1,.51,.18,.74,.22,.09,.03,.19,.03,.28,.04l.05,.34c-.07,.02-.15,.03-.23,.04-.22,.03-.42,.08-.59,.11,0,0,0,0-.02,0-.05,0-.09,0-.13,0Z" fill="#844d20"/>
        <path d="M.12,.76c.15-.08,.33,.27,.87,.62,.13,.08,.25,.15,.37,.2l.05,.41,.05,.36c-.42,.03-.71,.04-.82,.02-.03,0-.04,0-.06-.03C-.02,1.97-.12,.87,.12,.76Z" fill="#7f714a"/>
        <path d="M.64,2.36c.11,.03,.4,0,.82-.02,.03,0,.08,0,.13,0-.05,0-.09,0-.13,.03-.4,.04-.66,.06-.82,0Z" fill="#7f714a"/>
        <path d="M21.16,23.3c-.07-.1-.09-.27-.07-.51-.02,.02-.03,.03-.04,.03-.06,0-.05-.33-.03-.91l.21,.02,.15,.02,.35,.03c.08,.3,.19,.62,.39,.93,.33,.54,.69,.73,.63,.87-.13,.23-1.24,.14-1.58-.46Z" fill="#7f714a"/>
        <path d="M2.1,1.79c.09-.02,.17-.03,.27-.06l.02,.1c-.09,0-.19-.02-.28-.04Z" fill="#844d20"/>
        <path d="M1.61,2.34c.17-.03,.37-.08,.59-.11,.09-.02,.16-.03,.23-.04v.11c-.31,0-.58,.03-.82,.04Z" fill="#844d20"/>
        <path d="M1.46,2.36v-.02s.08,0,.13,0c-.05,0-.09,0-.13,.03Z" fill="#844d20"/>
        <path d="M21.02,21.9c0-.34,.02-.77,.02-1.27l.5,.05h.02s.03,.1,.04,.21v.03c.02,.24,.03,.61,.14,1.03l-.35-.03-.15-.02-.21-.02Z" fill="#844d20"/>
        <path d="M21.59,20.9c0-.11-.02-.19-.04-.21h.08c-.02,.08-.03,.15-.03,.21Z" fill="#7f714a"/>
        <path d="M16.08,16.68c2.22,2.17,5.54,5.4,5.58,5.36,.04-.04-3.78-3.9-5.4-5.53C10.7,10.91,1.62,1.84,1.55,1.92c-.07,.06,6.97,7.34,14.53,14.76Z" fill="#844d20"/>
      </g>
      <g>
        <path d="M8.61,15l-1.02,1.02h0s1.87-1.88,1.87-1.88c-.28,.28-.57,.57-.84,.85Z" fill="#7f714a"/>
        <rect x="7.97" y="8.14" width="14.31" height=".69" transform="translate(-1.57 13.18) rotate(-45)" fill="#7f714a"/>
        <rect x="7.87" y="8.18" width="14.31" height=".4" transform="translate(-1.53 13.08) rotate(-45)" fill="#605438"/>
        <rect x="19.32" y="2.78" width="2.23" height=".73" transform="translate(8.21 -13.53) rotate(45)" fill="#4c4a45"/>
        <polygon points="22.36 2.99 21.65 2.46 21.73 2.36 23.76 .09 22.37 2.97 22.36 2.99" fill="#6b7f8e"/>
        <polygon points="23.67 .05 21.19 1.83 21.09 1.9 20.52 1.25 20.53 1.24 20.55 1.23 23.67 .05" fill="#bcccd8"/>
        <polygon points="22.36 3.02 21.07 3.27 20.31 2.51 20.52 1.25 21.09 1.9 21.65 2.46 22.36 2.99 22.36 3.02" fill="#838e9b"/>
        <path d="M10.06,13.54l-.61,.61c-.14,0-.29-.03-.43-.04-.41-.04-.82-.08-1.23-.12l.85-.85c.39,.03,.76,.07,1.14,.11l.29,.29Z" fill="#4c4a45"/>
        <path d="M9.77,13.25s.06,0,.09,0c.14,0,.29,.03,.43,.04l-.24,.24-.29-.29Z" fill="#938e82"/>
        <path d="M8.61,15l-1.46,1.46h-.02s2.32-2.32,2.32-2.32c-.28,.28-.57,.57-.84,.85Z" fill="#938e82"/>
        <path d="M10.4,14.91l-.85,.85c-.02-.37-.04-.75-.07-1.13-.02-.15-.03-.31-.03-.47l.61-.61,.27,.27c.03,.36,.04,.74,.07,1.1Z" fill="#4c4a45"/>
        <path d="M10.06,13.54l.24-.24c0,.16,.02,.32,.03,.47v.03l-.27-.27Z" fill="#938e82"/>
        <path d="M9.45,14.15l-.85,.85c-.14,0-.29-.03-.43-.04-.41-.04-.82-.08-1.23-.12l.85-.85c.41,.04,.82,.08,1.23,.12,.14,0,.29,.03,.43,.04Z" fill="#d6cfc1"/>
        <path d="M7.59,16.02l-.98,.98c.18-.18,.36-.36,.52-.54l.86-.86c-.14,.14-.27,.29-.41,.42Z" fill="#938e82"/>
        <path d="M9.55,15.75l-.85,.85c-.02-.37-.04-.75-.07-1.13,0-.14-.02-.3-.03-.46h0c.27-.3,.56-.58,.84-.86,0,.16,.02,.32,.03,.47,.03,.38,.05,.76,.07,1.13Z" fill="#d6cfc1"/>
        <path d="M7.59,16.02c.14-.14,.27-.29,.41-.42l1.45-1.45c-.28,.28-.57,.57-.84,.85l-1.02,1.02Z" fill="#938e82"/>
        <path d="M8.61,14.99l-1.47,1.47c-.68,.07-1.34,.14-2.02,.19l1.83-1.83c.41,.04,.82,.08,1.23,.12,.14,0,.29,.03,.43,.04Z" fill="#938e82"/>
        <path d="M8.71,16.6l-1.67,1.67c.04-.6,.08-1.2,.11-1.8l1.45-1.45c.02,.15,.03,.31,.03,.46,.03,.38,.05,.76,.07,1.13Z" fill="#938e82"/>
        <path d="M8.61,15l-2,2c.18-.18,.36-.36,.52-.54l1.47-1.47h0Z" fill="#938e82"/>
        <rect x="9.89" y="12.61" width=".87" height="1.14" transform="translate(-6.3 11.16) rotate(-45)" fill="#844d20"/>
        <polygon points="21.65 2.46 21.09 1.9 21.19 1.83 23.67 .05 23.8 0 23.76 .09 21.73 2.36 21.65 2.46" fill="#9aa8b5"/>
        <rect x="19.14" y="3.2" width="1.12" height="1.27" transform="translate(8.48 -12.81) rotate(45)" fill="#844d20"/>
      </g>
    </g>
  </g>
</svg>