<?xml version="1.0" encoding="UTF-8"?>
<svg id="_Шар_2" data-name="Шар 2" xmlns="http://www.w3.org/2000/svg" viewBox="0 0 23.49 24.04">
  <g id="Bogen">
    <g>
      <path d="M21.31,7.07c-.9,.9-2.86,.42-4.36-1.08s-1.98-3.45-1.08-4.35c.17-.17,.38-.29,.61-.37-.32,1.01,.23,2.52,1.45,3.74s2.73,1.77,3.75,1.45c-.08,.23-.2,.44-.37,.61Z" fill="#b57221"/>
      <path d="M16.08,16.83c2.22,2.17,5.54,5.4,5.58,5.36,.04-.04-3.78-3.9-5.4-5.53C10.7,11.07,1.62,2,1.55,2.07c-.07,.06,6.97,7.34,14.53,14.76Z" fill="#d3c7be"/>
      <path d="M2.36,1.91v-.02c3.23-.71,10.19-1.27,14.96,3.05,5.1,4.61,4.9,12.22,4.31,15.9h-.04c.33-3.46,.04-10.55-5.01-15.16C11.85,1.36,5.37,1.45,2.36,1.91Z" fill="#b57221"/>
      <path d="M2.44,2.45v-.11s-.06-.34-.06-.34l-.02-.09c3-.46,9.49-.55,14.21,3.78,5.05,4.61,5.33,11.7,5.01,15.15h-.03s-.02,0-.02,0l-.5-.05c0-3.46-.39-10.27-4.99-14.5C11.71,2.32,5.49,2.3,2.44,2.45Z" fill="#63381a"/>
      <path d="M2.44,2.45l-.02-.1-.07-.33-.02-.1s.02,0,.03,0l.02,.09,.05,.34v.11Z" fill="#7f714a"/>
      <path d="M21.59,21.05c0-.11-.02-.19-.04-.21h.08c-.02,.08-.03,.15-.03,.21Z" fill="#7f714a"/>
      <path d="M2.38,2c-.09,0-.19-.02-.28-.04,.09-.02,.17-.03,.27-.06l.02,.1Z" fill="#7f714a"/>
      <path d="M1.61,2.49c.17-.03,.37-.08,.59-.11,.09-.02,.16-.03,.23-.04v.11c-.31,0-.58,.03-.82,.04Z" fill="#7f714a"/>
      <path d="M1.46,2.5l-.05-.36-.05-.41c.26,.1,.51,.18,.74,.22,.09,.03,.19,.03,.28,.04l.05,.34c-.07,.02-.15,.03-.23,.04-.22,.03-.42,.08-.59,.11,0,0,0,0-.02,0-.05,0-.09,0-.13,0Z" fill="#844d20"/>
      <path d="M.12,.92c.15-.08,.33,.27,.87,.62,.13,.08,.25,.15,.37,.2l.05,.41,.05,.36c-.42,.03-.71,.04-.82,.02-.03,0-.04,0-.06-.03C-.02,2.13-.12,1.03,.12,.92Z" fill="#441e0c"/>
      <path d="M.64,2.52c.11,.03,.4,0,.82-.02,.03,0,.08,0,.13,0-.05,0-.09,0-.13,.03-.4,.04-.66,.06-.82,0Z" fill="#7f714a"/>
      <path d="M21.16,23.46c-.07-.1-.09-.27-.07-.51-.02,.02-.03,.03-.04,.03-.06,0-.05-.33-.03-.91l.21,.02,.15,.02,.35,.03c.08,.3,.19,.62,.39,.93,.33,.54,.69,.73,.63,.87-.13,.23-1.24,.14-1.58-.46Z" fill="#441e0c"/>
      <path d="M2.1,1.95c.09-.02,.17-.03,.27-.06l.02,.1c-.09,0-.19-.02-.28-.04Z" fill="#844d20"/>
      <path d="M1.61,2.49c.17-.03,.37-.08,.59-.11,.09-.02,.16-.03,.23-.04v.11c-.31,0-.58,.03-.82,.04Z" fill="#844d20"/>
      <path d="M1.46,2.52v-.02s.08,0,.13,0c-.05,0-.09,0-.13,.03Z" fill="#844d20"/>
      <path d="M21.02,22.06c0-.34,.02-.77,.02-1.27l.5,.05h.02s.03,.1,.04,.21v.03c.02,.24,.03,.61,.14,1.03l-.35-.03-.15-.02-.21-.02Z" fill="#844d20"/>
      <path d="M21.59,21.05c0-.11-.02-.19-.04-.21h.08c-.02,.08-.03,.15-.03,.21Z" fill="#7f714a"/>
      <g>
        <polygon points="20.06 3.74 11.67 12.14 11.24 12.57 10.36 13.44 9.73 14.07 9.52 13.86 9.47 13.81 9.23 13.57 9.27 13.53 9.86 12.94 10.74 12.07 11.17 11.64 19.56 3.24 19.85 3.54 20.06 3.74" fill="#0f0d09"/>
        <polygon points="19.85 3.54 11.46 11.93 11.03 12.36 10.15 13.23 9.52 13.86 9.47 13.81 9.23 13.57 9.27 13.53 9.86 12.94 10.74 12.07 11.17 11.64 19.56 3.24 19.85 3.54" fill="#2b1b0b"/>
        <rect x="18.92" y="2.83" width="2.27" height=".75" transform="translate(8.14 -13.24) rotate(45)" fill="#4c4a45"/>
        <polygon points="22.02 3.05 21.29 2.51 21.38 2.41 23.45 .09 22.03 3.03 22.02 3.05" fill="#6b7f8e"/>
        <polygon points="23.35 .05 20.82 1.87 20.72 1.94 20.14 1.28 20.15 1.27 20.18 1.26 23.35 .05" fill="#bcccd8"/>
        <polygon points="22.01 3.08 20.7 3.34 19.93 2.56 20.14 1.28 20.72 1.94 21.29 2.51 22.02 3.05 22.01 3.08" fill="#838e9b"/>
        <path d="M9.47,13.81l-.62,.62c-.15,0-.29-.03-.44-.04-.42-.04-.84-.08-1.26-.12l.86-.86c.4,.03,.78,.07,1.17,.11l.29,.29Z" fill="#21201e"/>
        <path d="M9.82,15.21c-.28,.28-.56,.55-.84,.83-.03-.38-.06-.75-.09-1.13-.01-.16-.03-.32-.04-.48l.62-.62,.05,.05,.21,.21,.02,.02c.02,.37,.04,.75,.07,1.12Z" fill="#21201e"/>
        <path d="M8.85,14.43l-.66,.67h-.01c-.62,0-1.24,.02-1.86,.03h-.03l.86-.86c.42,.04,.84,.08,1.26,.12,.15,.01,.29,.03,.44,.04Z" fill="#b57221"/>
        <path d="M8.98,16.04c-.27,.28-.55,.55-.82,.83,.01-.59,.02-1.17,.03-1.76h0s.66-.68,.66-.68c0,.16,.02,.32,.03,.49,.03,.38,.06,.76,.1,1.12Z" fill="#512e05"/>
        <polygon points="21.29 2.51 20.72 1.94 20.82 1.87 23.35 .05 23.49 0 23.45 .09 21.38 2.41 21.29 2.51" fill="#9aa8b5"/>
        <rect x="18.74" y="3.26" width="1.15" height="1.29" transform="translate(8.42 -12.51) rotate(45)" fill="#63381a"/>
        <path d="M8.19,15.1h0c-.01,.6-.02,1.18-.03,1.77-.74,.15-1.48,.31-2.21,.46l2.03-2.03,.2-.2h.01Z" fill="#93867c"/>
        <path d="M8.18,15.1l-.2,.2-2.03,2.03c.12-.73,.24-1.46,.37-2.2,.62-.01,1.24-.02,1.86-.03Z" fill="#b2a193"/>
      </g>
    </g>
  </g>
</svg>