<?xml version="1.0" encoding="UTF-8"?>
<svg id="_Шар_2" data-name="Шар 2" xmlns="http://www.w3.org/2000/svg" viewBox="0 0 23.73 24.28">
  <g id="Bogen">
    <g>
      <path d="M2.31,1.54c-.25,.08-.49,.22-.7,.42-.1,.11-.19,.24-.26,.35-.43-.4-.8-.8-1.08-1.17-.03-.02-.06-.06-.09-.1-.03-.04-.06-.09-.09-.13-.05-.08-.08-.16-.1-.25,.49,.4,1.14,.51,1.71,.3l.09,.09c.16,.16,.34,.34,.52,.49Z" fill="#512e05"/>
      <path d="M6.79,4.1c-1.18,.16-2.22,0-3.12-.35,.29-.35,.42-.78,.38-1.17,.6,.24,1.28,.37,2.04,.35,.21,.45,.45,.87,.69,1.17Z" fill="#512e05"/>
      <path d="M9.56,2.79c.03,.43,.07,.87,.11,1.26-.45-.07-.94-.1-1.44-.09,.13-.35,.23-.79,.32-1.24,.35,0,.68,.02,1.01,.07Z" fill="#512e05"/>
      <path d="M12.41,3.56c-.07,.43-.13,.87-.18,1.29-.34-.17-.73-.33-1.15-.45,.16-.35,.31-.76,.46-1.17,.31,.1,.59,.21,.87,.34Z" fill="#b57221"/>
      <path d="M18.01,8.07s.31,.33,.68,.84c-.16,.12-.35,.26-.55,.4-.16,.12-.32,.24-.49,.35-.07-.1-.14-.19-.2-.26-.82,.48-2.02,.21-2.92-.69-.75-.75-1.06-1.71-.88-2.48,.34-.39,.68-.89,.92-1.45,.37,.27,.58,.46,.61,.49l.44,.42-.4,.45s-.08,.1-.16,.23h0c-.19,.2-.12,.82,.44,1.37,.26,.26,.56,.43,.8,.49,0,0,.02,0,.03,.02,.16,.11,.37,.04,.54-.05,.13-.08,.24-.17,.24-.17l.47-.42,.43,.46Z" fill="#63381a"/>
      <path d="M19.7,10.57c.17,.31,.32,.63,.46,1.01-.3,.3-.66,.63-1.02,.94-.2-.58-.44-1.1-.68-1.54,.44-.16,.87-.3,1.24-.4Z" fill="#512e05"/>
      <path d="M20.75,13.45c.05,.21,.08,.43,.12,.65-.39,.24-.8,.5-1.2,.78-.02-.32-.07-.63-.14-.93,.41-.16,.83-.34,1.22-.49Z" fill="#512e05"/>
      <path d="M21.63,20.42c-.37,.02-.74,.2-1.05,.5-.04,.04-.07,.07-.1,.12-.6-1.1-.98-2.42-.87-3.97,.4,0,.85-.06,1.29-.16-.16,1.35,.17,2.53,.72,3.5Z" fill="#512e05"/>
      <path d="M23.6,24.28c-.06,0-.13-.01-.19-.03-.18-.13-.38-.29-.61-.46,0,0,0-.01-.01-.01-.22-.18-.44-.39-.68-.62,.14-.08,.27-.17,.4-.29,.21-.21,.36-.45,.42-.71,.09,.09,.16,.16,.25,.23,.03,.04,.06,.06,.1,.1-.22,.61-.12,1.29,.32,1.81Z" fill="#512e05"/>
      <path d="M16.31,8.22l.02,.02s-.02-.02-.03,0h0Z" fill="#838e9b"/>
      <path d="M8.23,3.96c-.39,0-.78,.04-1.2,.11-.08,.02-.16,.03-.25,.03-.24-.31-.48-.73-.69-1.17,.24,0,.48-.03,.73-.07,.59-.1,1.17-.15,1.72-.14-.09,.45-.19,.9-.32,1.24Z" fill="#b57221"/>
      <path d="M11.08,4.39c-.43-.15-.91-.26-1.41-.34-.04-.39-.07-.83-.11-1.26,.72,.07,1.39,.23,1.98,.43-.15,.41-.31,.82-.46,1.17Z" fill="#b57221"/>
      <path d="M13.65,6.23c.03-.16,.09-.32,.17-.47-.36-.26-.91-.61-1.6-.92,.05-.41,.12-.86,.18-1.29,.96,.4,1.69,.88,2.17,1.23-.25,.56-.59,1.06-.92,1.45Z" fill="#512e05"/>
      <path d="M19.7,10.57c-.37,.11-.81,.25-1.24,.4-.29-.54-.58-.97-.81-1.3,.16-.12,.32-.24,.49-.35,.2-.15,.39-.29,.55-.4,.31,.4,.67,.96,1.01,1.66Z" fill="#b57221"/>
      <path d="M20.75,13.45c-.39,.16-.81,.33-1.22,.49-.09-.5-.22-.98-.39-1.43,.36-.31,.73-.64,1.02-.94,.23,.56,.45,1.19,.59,1.87Z" fill="#b57221"/>
      <path d="M20.91,16.92c-.45,.1-.89,.15-1.29,.16,0-.11,.02-.23,.03-.35,.08-.64,.08-1.27,.02-1.86,.4-.27,.82-.54,1.2-.78,.12,.87,.16,1.81,.03,2.79t0,.03Z" fill="#b57221"/>
      <ellipse cx="11.63" cy="12.43" rx=".16" ry="14.14" transform="translate(-5.38 11.87) rotate(-45)" fill="#d3c7be"/>
      <path d="M3.67,3.75c-.92-.35-1.69-.88-2.32-1.44,.07-.12,.16-.24,.26-.35,.21-.21,.45-.35,.69-.43,.48,.41,1.06,.79,1.74,1.05,.04,.39-.09,.82-.38,1.17Z" fill="#441e0c"/>
      <path d="M22.51,22.86c-.12,.12-.26,.22-.4,.3-.58-.56-1.17-1.27-1.63-2.11,.02-.04,.06-.07,.1-.12,.31-.31,.68-.48,1.05-.5,.37,.67,.84,1.25,1.31,1.72-.07,.26-.22,.5-.43,.71Z" fill="#441e0c"/>
      <polygon points="20.3 3.74 11.91 12.14 11.48 12.57 10.6 13.44 9.97 14.07 9.76 13.86 9.71 13.81 9.47 13.57 9.51 13.53 10.1 12.94 10.98 12.07 11.41 11.64 19.8 3.24 20.09 3.54 20.3 3.74" fill="#0f0d09"/>
      <polygon points="20.09 3.54 11.7 11.93 11.27 12.36 10.39 13.23 9.76 13.86 9.71 13.81 9.47 13.57 9.51 13.53 10.1 12.94 10.98 12.07 11.41 11.64 19.8 3.24 20.09 3.54" fill="#2b1b0b"/>
      <rect x="19.16" y="2.83" width="2.27" height=".75" transform="translate(8.21 -13.41) rotate(45)" fill="#4c4a45"/>
      <polygon points="22.26 3.05 21.53 2.51 21.62 2.41 23.69 .09 22.27 3.03 22.26 3.05" fill="#6b7f8e"/>
      <polygon points="23.59 .05 21.06 1.87 20.96 1.94 20.38 1.28 20.39 1.27 20.42 1.26 23.59 .05" fill="#bcccd8"/>
      <polygon points="22.25 3.08 20.94 3.34 20.17 2.56 20.38 1.28 20.96 1.94 21.53 2.51 22.26 3.05 22.25 3.08" fill="#838e9b"/>
      <path d="M9.71,13.81l-.62,.62c-.15,0-.29-.03-.44-.04-.42-.04-.84-.08-1.26-.12l.86-.86c.4,.03,.78,.07,1.17,.11l.29,.29Z" fill="#21201e"/>
      <path d="M10.06,15.21c-.28,.28-.56,.55-.84,.83-.03-.38-.06-.75-.09-1.13-.01-.16-.03-.32-.04-.48l.62-.62,.05,.05,.21,.21,.02,.02c.02,.37,.04,.75,.07,1.12Z" fill="#21201e"/>
      <path d="M9.22,16.04l-.03,.03c-.01-.38-.04-.77-.07-1.15-.01-.16-.02-.32-.03-.49,.01,.16,.02,.32,.04,.48,.04,.38,.07,.76,.09,1.13Z" fill="#4c4a45"/>
      <path d="M9.09,14.43l-.66,.67h-.01c-.62,0-1.24,.02-1.86,.03h-.03l.86-.86c.42,.04,.84,.08,1.26,.12,.15,.01,.29,.03,.44,.04Z" fill="#b57221"/>
      <path d="M9.22,16.04c-.27,.28-.55,.55-.82,.83,.01-.59,.02-1.17,.03-1.76h0s.66-.68,.66-.68c0,.16,.02,.32,.03,.49,.03,.38,.06,.76,.1,1.12Z" fill="#512e05"/>
      <polygon points="21.53 2.51 20.96 1.94 21.06 1.87 23.59 .05 23.73 0 23.69 .09 21.62 2.41 21.53 2.51" fill="#9aa8b5"/>
      <rect x="18.98" y="3.26" width="1.15" height="1.29" transform="translate(8.49 -12.68) rotate(45)" fill="#63381a"/>
      <path d="M8.43,15.1h0c-.01,.6-.02,1.18-.03,1.77-.74,.15-1.48,.31-2.21,.46l2.03-2.03,.2-.2h.01Z" fill="#93867c"/>
      <path d="M8.42,15.1l-.2,.2-2.03,2.03c.12-.73,.24-1.46,.37-2.2,.62-.01,1.24-.02,1.86-.03Z" fill="#b2a193"/>
      <polygon points="11.54 1.38 10.07 2.94 12.09 3.47 11.54 1.38" fill="#b57221"/>
      <polygon points="7.14 .94 6.28 2.9 8.36 2.71 7.14 .94" fill="#b57221"/>
      <polygon points="22.19 11.91 20.14 11.73 20.71 13.36 22.19 11.91" fill="#b57221"/>
      <polygon points="22.67 15.5 20.75 14.49 20.84 16.68 22.67 15.5" fill="#b57221"/>
    </g>
  </g>
</svg>