<?xml version="1.0" encoding="utf-8"?>
<!-- Generator: Adobe Illustrator 26.5.0, SVG Export Plug-In . SVG Version: 6.00 Build 0)  -->
<svg version="1.1" id="form" xmlns="http://www.w3.org/2000/svg" xmlns:xlink="http://www.w3.org/1999/xlink" x="0px" y="0px"
	 viewBox="0 0 40 80" style="enable-background:new 0 0 40 80;" xml:space="preserve">
<style type="text/css">
	.st0{fill:#43666D;}
	.st1{fill:#609395;}
	.st2{fill:#3B5657;}
	.st3{fill:#293D3E;}
	.st4{fill:#334747;}
	.st5{fill:#444443;}
	.st6{fill:#493B36;}
	.st7{fill:#2F2622;}
	.st8{fill:#515150;}
	.st9{fill:#333333;}
	.st10{fill:none;}
	.st11{fill:#352B27;}
	.st12{fill:#70706F;}
	.st13{fill:#A7A7A6;}
	.st14{fill:#A1C36B;}
	.st15{fill:#1E232A;}
	.st16{fill:#4E3025;}
	.st17{fill:#838283;}
	.st18{fill:#242930;}
	.st19{fill:#5D392F;}
	.st20{fill:#2D323A;}
	.st21{fill:#B3D074;}
	.st22{fill:#443730;}
	.st23{fill:none;stroke:#423531;stroke-width:0.3473;stroke-miterlimit:10;}
	.st24{fill:none;stroke:#564641;stroke-width:0.3109;stroke-miterlimit:10;}
	.st25{fill:none;stroke:#2F2622;stroke-width:0.4145;stroke-miterlimit:10;}
	.st26{fill:none;stroke:#191412;stroke-width:0.4145;stroke-miterlimit:10;}
	.st27{fill:#2F2622;stroke:#352B27;stroke-width:0.3109;stroke-miterlimit:10;}
	.st28{fill:#375357;}
	.st29{fill:#415A58;}
	.st30{fill:#141619;}
	.st31{fill:#C0A278;}
	.st32{fill:#7C7C7C;}
	.st33{fill:#496669;}
	.st34{fill:#517B80;}
	.st35{fill:#493B36;stroke:#564641;stroke-width:0.3109;stroke-miterlimit:10;}
	.st36{fill:none;stroke:#352B27;stroke-width:0.3473;stroke-miterlimit:10;}
	.st37{fill:#4F6B68;}
	.st38{fill:#999899;}
	.st39{fill:#5E5E5E;}
	.st40{fill:#4C757A;}
</style>
<g>
	<g>
		<path class="st0" d="M9.3,27.9c0.3,0.3,1.5-0.3,2.6-0.8c5.9-2.8,7.9-1.6,11.9-3.6c4.7-2.3,8-6.8,7.4-7.8
			c-0.3-0.5-3.6,0.7-10.3,3.2c-4.1,1.5-5.8,2.2-7.7,3.8C10.8,24.5,8.8,27.3,9.3,27.9z"/>
		<path class="st1" d="M26.3,30.8c-4.7,8.6-10.6,12.6-11.9,13.4c-3.3,2.1-7.6,4-7.8,3.5c-0.2-0.3,1.5-1.6,2.7-2.6
			c5.3-4.6,5.6-9.8,8.5-15.7c4-8.1,11.2-14.5,12.8-13.6C32.2,16.7,29.5,25,26.3,30.8z"/>
		<path class="st0" d="M27,27.2C20.6,34.5,9.4,35,9.2,34.4c-0.1-0.2,0.7-0.3,1.9-1.4c1.8-1.7,1.9-3.2,3.4-5.5c0.7-1,1.3-1.7,2.6-3
			C20.2,21.4,29,14,31,15.7C32.6,16.9,30.7,23,27,27.2z"/>
		<path class="st2" d="M23.2,44.8C15.7,58.1,3.5,67,2.5,66.2c-0.3-0.2,0.3-1.1,2.3-4.8c2.5-4.5,4.6-9.1,7.1-13.6
			c11.9-21.4,16.6-32.7,18.3-32.1C32.1,16.3,30.8,31.4,23.2,44.8z"/>
		<path class="st3" d="M24.3,49.5C15.8,65.2,0.9,74.8,0.5,74.4c-0.1-0.1,1.6-1.7,3.9-4.8c5-6.9,6.2-13.8,7.2-15.9
			c12.1-25.1,16.7-38.4,18.7-37.8C32.6,16.5,32.7,34,24.3,49.5z"/>
		<path class="st4" d="M34.7,34C33,54,13.6,69.7,13,69.1c-0.1-0.1,0.3-0.8,1.7-3c5-8.1,5.9-14.9,8-24.7c3.2-15.2,5.4-25.5,7.7-25.5
			C32.5,15.9,35.5,24.9,34.7,34z"/>
	</g>
	<path class="st3" d="M34.4,20.4L34.4,20.4c0,0-2.8,2.3-7.5,2.3h0c-1,0-12.5-0.6-12.5-2.4c0-1.1,5.7-2.9,11.1-2.5
		c0.5,0,0.9,0.1,1.2,0.2c0.5,0.1,0.9,0.2,1.3,0.3c1.1,0.3,1.8,0.6,2.8,1C32.6,19.9,34.4,20.4,34.4,20.4z"/>
	<path class="st5" d="M34.6,24.8c-0.8,0.2-1.6,0.4-2.4,0.7c-0.8-0.9-1.7-2.2-2.6-3.7c-0.7-1.2-1.2-2.4-1.5-3.4
		c1.1-1.2,2.2-2.3,3.3-3.5c0.7,2.2,1.5,4.4,2.2,6.6C33.8,22.6,34.2,23.7,34.6,24.8z"/>
	<path class="st6" d="M30.2,18.5l2.7,5.9c0.2,0.5,0.7,0.7,1.2,0.4l0.4-0.2c0.4-0.2,0.6-0.7,0.4-1.2l-2.6-5.7
		c-0.5-0.2-1.1-0.3-1.8-0.3C30.1,17.6,30,18.1,30.2,18.5z"/>
	<path class="st7" d="M34.3,23.2L34.3,23.2c0.3-0.2,0.5-0.6,0.3-0.9l-1.9-4c-0.2-0.3-0.6-0.5-0.9-0.3l0,0c-0.3,0.2-0.5,0.6-0.3,0.9
		l1.9,4C33.6,23.3,34,23.4,34.3,23.2z"/>
	<path class="st5" d="M11.3,38.3c-0.2,0.9,0.4,1.8,1.1,1.9c0.9,0.1,1.5-1.1,1.6-1.7c0.1-0.2,0.1-0.6-0.1-0.9
		c-0.1-0.1-0.3-0.2-0.6-0.3c-0.2-0.1-0.3-0.1-0.4-0.1C12.5,37,11.5,37.4,11.3,38.3z"/>
	<path class="st8" d="M14.7,27.9c0.7,0.2,1.4,0.5,2.1,0.7c0.6-0.9,1.3-2,1.8-3.4c1-2.5,1.4-4.7,1.5-6.3c-1.3-0.5-2.5-1.1-3.8-1.6
		c-0.5,2.1-1,4.5-1.3,7C14.9,25.5,14.8,26.7,14.7,27.9z"/>
	<ellipse transform="matrix(0.186 -0.9826 0.9826 0.186 -42.9548 64.8501)" class="st7" cx="17.7" cy="58.3" rx="1.4" ry="3.5"/>
	<ellipse transform="matrix(0.1879 -0.9822 0.9822 0.1879 -16.433 38.7571)" class="st9" cx="15.2" cy="29.3" rx="0.7" ry="2.2"/>
	<path class="st8" d="M32.8,18.5c-0.3,0.5-1.2,0.9-1.9,0.6c-0.8-0.3-1.1-1.2-1.2-1.2c-0.1,0,0.5,0.7,0.3,1.2
		c-0.3,0.7-1.9,0.6-4.1,1.1c-1.2,0.3-2.2,0.6-2.7,0.8c-0.9-0.3-1.9-0.5-2.8-0.8c0,0,0,0-0.1,0.1v-2.2c3.6-0.9,7.3-1.8,10.9-2.8
		C32.8,16.2,33.3,17.7,32.8,18.5z"/>
	<path class="st7" d="M24,32.8L24,32.8L24,32.8C24,32.9,24,32.8,24,32.8z"/>
	<line class="st10" x1="24" y1="34.1" x2="24" y2="32.9"/>
	<line class="st10" x1="23.5" y1="20.2" x2="22.9" y2="20.2"/>
	<line class="st10" x1="11.2" y1="37.9" x2="12" y2="38.8"/>
	<path class="st0" d="M16.5,19.2c-0.6,0.1-1.2,0.4-1.5,0.7l0-0.1c0.1-0.4,0.5-0.7,0.9-0.6l0.4,0.1C16.4,19.1,16.5,19.2,16.5,19.2z"
		/>
	<path class="st6" d="M18,19.7L16.5,26c-0.1,0.5-0.6,0.8-1.1,0.7L15,26.6c-0.5-0.1-0.8-0.6-0.7-1.1l1.4-6.1c0.4-0.3,1-0.5,1.7-0.7
		C17.9,18.9,18.1,19.3,18,19.7z"/>
	<path class="st7" d="M14.9,25.3L14.9,25.3c-0.4-0.1-0.6-0.5-0.5-0.8l1-4.3c0.1-0.4,0.5-0.6,0.8-0.5l0,0c0.4,0.1,0.6,0.5,0.5,0.8
		l-1,4.3C15.7,25.1,15.3,25.3,14.9,25.3z"/>
	<path class="st11" d="M17.2,25.1c-0.3-0.1-0.5-0.2-0.8-0.3c0.1-0.2,0.1-0.5,0.2-0.7c0.2,0.1,0.5,0.2,0.7,0.3"/>
	<path class="st7" d="M17,24.3l1.7,0.6c0,0.2,0,0.3-0.1,0.5l-1.8-0.7L17,24.3z"/>
	<path class="st11" d="M17.7,23.7c-0.3-0.1-0.5-0.2-0.8-0.3c0.1-0.2,0.1-0.5,0.2-0.7c0.2,0.1,0.4,0.2,0.7,0.3"/>
	<path class="st7" d="M17.6,23.1l1.7,0.7c0,0.2,0,0.3,0,0.5l-1.8-0.7L17.6,23.1z"/>
	<path class="st7" d="M24,32.8C24,32.8,24,32.8,24,32.8L24,32.8L24,32.8z"/>
	<path class="st12" d="M11.2,36.9l-1-1.4l1.2,0.1c0.1,0.3,0.3,0.5,0.4,0.8L11.2,36.9z"/>
	<path class="st13" d="M6.8,34l1.5,0.1l0.8,0.1l1,1.4l-0.9-0.1l-0.9-0.1C7.9,34.9,7.4,34.4,6.8,34z"/>
	<path class="st14" d="M6.2,30.2l-0.4-0.6l0.5,0.3C6.3,30.1,6.3,30.1,6.2,30.2z"/>
	<polygon class="st15" points="14.4,42.6 15.7,41.6 15.5,40 14,39.3 12.6,40.3 12.8,42 	"/>
	<path class="st16" d="M12.1,37.3c0.6,0.7,1.2,1.4,1.9,2l-1.3,0.9c-0.5-0.8-1-1.5-1.5-2.3C11.8,37.5,11.6,37.7,12.1,37.3z"/>
	<path class="st9" d="M10,37.7l2.2-1.6c0.2-0.2,0.6-0.1,0.7,0.1l0,0c0.2,0.2,0.1,0.6-0.1,0.7l-2.2,1.6c-0.2,0.2-0.6,0.1-0.7-0.1l0,0
		C9.7,38.2,9.8,37.9,10,37.7z"/>
	<path class="st12" d="M9.1,34.1L8,32.6l-1.7-2.4l-0.4-0.6l0.5,0.3l3.2,1.8l0,0c0.4,0.8,0.8,1.7,1.2,2.5L9.1,34.1z"/>
	<path class="st17" d="M8.4,35.4l0.9,0.1l0.9,0.1l1,1.4l-0.7,0.5C9.8,36.7,9.1,36.1,8.4,35.4z"/>
	<path class="st17" d="M6.7,33.8c0-0.5,0-1.1-0.1-1.8c-0.1-0.8-0.4-1.5-0.6-2c0-0.1,0-0.1-0.1-0.2c0,0,0,0,0-0.1L8,32.6l0.1,0.1
		c0,0,0,0,0,0l1,1.4l-0.8-0.1L6.8,34C6.8,33.9,6.7,33.9,6.7,33.8z"/>
	<polygon class="st12" points="8,32.6 5.7,29.6 5.8,29.7 5.8,29.7 	"/>
	<polygon class="st18" points="14.4,42 15.1,41.5 14.9,40.4 13.9,39.9 13.2,40.4 13.5,41.5 	"/>
	<path class="st11" d="M10.6,37.3l1.2-0.9c0.2-0.2,0.5-0.1,0.7,0.1l0,0c0.2,0.2,0.1,0.5-0.1,0.7l-1.2,0.9c-0.2,0.2-0.5,0.1-0.7-0.1
		h0C10.3,37.8,10.4,37.5,10.6,37.3z"/>
	<path class="st17" d="M10.1,35.5l-1-1.4l1.6,0.1c0.2,0.5,0.4,0.9,0.7,1.4L10.1,35.5z"/>
	<path class="st19" d="M12.3,37.9c0.4,0.4,0.8,0.8,1.1,1.2l-0.8,0.6c-0.3-0.5-0.6-0.9-0.9-1.4C12.1,38,12,38.1,12.3,37.9z"/>
	<path class="st20" d="M13.7,41.3c0.3,0.4,0.9,0.4,1,0.3c0,0-0.5-0.1-0.6-0.5c0,0-0.1-0.2,0-0.4c0.1-0.3,0.5-0.3,0.5-0.4
		c0-0.1-0.7-0.2-0.9,0.2C13.4,40.9,13.7,41.3,13.7,41.3z"/>
	<path class="st14" d="M6.6,32.7c0-0.2-0.1-0.5-0.1-0.7c-0.1-0.8-0.4-1.5-0.6-2c0-0.1,0-0.1-0.1-0.2c0,0,0,0,0-0.1l0.4,0.5
		c0,0.1,0,0.1,0,0.2c0,0.3,0.3,0.4,0.5,0.9c0.1,0.3,0.1,0.4,0.1,0.7c0.1,0.8,0.7,1.3,0.8,1.4c0.3,0.3,0.5,0.4,0.7,0.5
		c0.3,0.2,0.5,0.3,0.5,0.6c0,0.1,0,0.2,0.1,0.3c0.1,0.2,0.2,0.3,0.3,0.5c0.1,0.1,0.1,0.1,0.2,0.2c0.2,0.2,0.1,0.3,0.5,0.8
		c0.4,0.7,0.6,0.8,0.6,0.9c-0.3-0.3-0.6-0.6-0.9-0.9c0,0,0,0,0,0c-0.3-0.6-0.3-0.6-0.5-0.8c-0.1-0.1-0.2-0.2-0.2-0.2
		c-0.1-0.1-0.3-0.2-0.3-0.5c-0.1-0.2,0-0.2-0.1-0.3c-0.1-0.3-0.3-0.4-0.5-0.6c-0.2-0.1-0.5-0.3-0.7-0.5C7.1,33.4,6.8,33.2,6.6,32.7z
		"/>
	<path class="st21" d="M6.6,32.7c0.2,0.4,0.5,0.7,0.6,0.8c0.3,0.3,0.5,0.4,0.7,0.5c0.3,0.2,0.5,0.3,0.5,0.6c0,0.1,0,0.2,0.1,0.3
		c0.1,0.2,0.2,0.3,0.3,0.5c0.1,0.1,0.1,0.1,0.2,0.2c0.2,0.2,0.1,0.3,0.5,0.8c0,0,0,0,0,0c-0.4-0.4-0.8-0.8-1.2-1.1
		c-0.5-0.5-1-1-1.5-1.4c-0.1-0.1-0.1-0.1-0.2-0.1C6.7,33.5,6.7,33.1,6.6,32.7z"/>
	<path class="st21" d="M8.6,34.5c0.1,0,0.1,2.5,0,2.5c0,0-0.1-0.7-0.1-1.3c0-0.2,0-0.3,0-0.5C8.5,35,8.6,34.5,8.6,34.5z"/>
	<path class="st14" d="M6.7,33.3c0-0.4,0-0.5,0-0.5c0.1,0,0.5,0.6,0.3,1.1c0,0.1-0.1,0.2-0.1,0.4c-0.1,0.3-0.1,0.5-0.1,0.5
		C6.7,34.9,6.7,34.2,6.7,33.3z"/>
	<path class="st21" d="M8.5,34.5c0.1,0,0.1,1.8,0,1.8c0,0-0.1-0.5-0.1-0.9c0-0.1,0-0.2,0-0.4C8.4,34.8,8.4,34.5,8.5,34.5z"/>
	<path class="st21" d="M7.1,33.5c0.1,0,0.1,1.2,0,1.2c0,0-0.1-0.4-0.1-0.6C7,34,7,34,7,33.9C7,33.7,7.1,33.5,7.1,33.5z"/>
	<path class="st21" d="M7.1,34.2c0,0.1,0.2,0.1,0.3,0.4c0,0.1,0,0.1,0,0.3c0,0.3,0.1,0.5,0.1,0.5c0,0-0.1-0.3,0.1-0.4
		c0.1-0.1,0.1,0,0.2-0.1c0.1-0.1,0.1-0.3,0-0.4C7.8,34.2,7.2,34.1,7.1,34.2z"/>
	<path class="st21" d="M7.9,34.3c0.1,0,0.1,1.1,0,1.1c-0.1,0-0.2-0.3-0.2-0.5c0-0.1,0-0.1,0-0.2C7.8,34.5,7.9,34.3,7.9,34.3z"/>
	<path class="st21" d="M8.2,34.3c0.1,0,0.1,1.2,0,1.2c0,0-0.1-0.4-0.1-0.6c0-0.1,0-0.2,0-0.2C8.1,34.5,8.2,34.3,8.2,34.3z"/>
	<path class="st7" d="M18.1,79.8C17.9,80,17.7,80,15.8,80c-2.5,0-2.7,0-2.9-0.2c-0.9-1,1.8-5.9,3.7-5.6
		C18.2,74.5,19.3,78.9,18.1,79.8z"/>
	<path class="st9" d="M18.1,79.9C17.8,80,17,80,15.4,80c-1.5,0-2.2,0-2.5-0.1c-1-0.5,0.9-2.5,2.8-2.5C17.5,77.4,19.2,79.4,18.1,79.9
		z"/>
	<line class="st10" x1="24" y1="32.9" x2="24" y2="32.9"/>
	<line class="st10" x1="24.2" y1="32.9" x2="24" y2="32.9"/>
	<line class="st10" x1="24" y1="32.9" x2="24" y2="32.7"/>
	<path class="st7" d="M24.2,20.5v2c-0.4,0.3-1.3,0.9-2.7,1c-0.7,0-1.3-0.1-1.8-0.2c0-0.1-0.1-0.2-0.1-0.2c-0.4-0.5-0.7-1.1-0.7-1.8
		c0-0.5,0.1-0.9,0.3-1.3c0,0,0-0.1,0.1-0.1c0-0.1,0.1-0.2,0.2-0.2c0,0,0,0,0,0c0,0,0,0,0,0c0.4-0.5,1-0.9,1.7-0.9c0.1,0,0.2,0,0.3,0
		c0,0,0,0,0.1,0C23,19,23.3,20.6,24.2,20.5z"/>
	<path class="st22" d="M29.2,21.3c0,0.8-0.3,1.5-0.8,2c0,0,0,0.1,0,0.1c-0.4,0.1-0.9,0.2-1.5,0.1c-1.3-0.1-2.2-0.7-2.6-1
		c0,0,0,0,0,0v-2c0.6-0.1,0.8-0.7,1.3-1.2c0.4-0.4,0.9-0.6,1.5-0.6c0.8,0,1.4,0.4,1.8,1.1c0,0,0,0,0,0.1
		C29.1,20.3,29.2,20.8,29.2,21.3z"/>
	<path class="st6" d="M28.4,23.4C28,24.9,28,25,27.8,25.7c-0.3,1-0.7,1.8-1,2.5h-2.6v-5.6c0,0,0,0,0,0c0.4,0.3,1.3,0.9,2.6,1
		C27.4,23.6,27.9,23.5,28.4,23.4z"/>
	<path class="st11" d="M24.2,22.6v5.6h-2.5c-0.4-0.8-0.8-1.7-1.2-2.7c-0.3-0.7-0.6-1.5-0.8-2.1c0.5,0.1,1.1,0.3,1.8,0.2
		C22.8,23.5,23.8,22.9,24.2,22.6z"/>
	<path class="st23" d="M21.9,18.9c-0.2,0.2-1,0.7-1.4,1.7c-0.5,1.6,0.5,2.9,0.6,3c0.5,1.5,0.9,3.1,1.4,4.6"/>
	<path class="st24" d="M26.3,18.9c0.2,0.2,1,0.7,1.4,1.7c0.5,1.6-0.5,2.9-0.6,3c-0.5,1.5-0.9,3.1-1.4,4.6"/>
	<line class="st23" x1="23.7" y1="23.7" x2="24.8" y2="24.6"/>
	<line class="st25" x1="24.7" y1="23.7" x2="23.6" y2="24.6"/>
	<line class="st23" x1="23.7" y1="24.7" x2="24.8" y2="25.6"/>
	<line class="st25" x1="24.7" y1="24.7" x2="23.6" y2="25.7"/>
	<line class="st23" x1="23.7" y1="25.8" x2="24.8" y2="26.7"/>
	<line class="st25" x1="24.7" y1="25.8" x2="23.6" y2="26.7"/>
	<line class="st26" x1="23.7" y1="26.9" x2="24.7" y2="27.8"/>
	<line class="st25" x1="24.7" y1="26.9" x2="23.6" y2="27.8"/>
	<line class="st24" x1="23.7" y1="22.6" x2="24.8" y2="23.5"/>
	<line class="st23" x1="24.7" y1="22.6" x2="23.6" y2="23.5"/>
	<path class="st5" d="M16.4,53.9c1.4,0.1,2.7,0.1,4.1,0.2c-0.2,1-0.3,2-0.4,3.1c-0.1,1-0.1,1.9-0.2,2.7c-1.5-0.4-3-0.8-4.5-1.2
		c0-0.9,0.1-2,0.5-3.2C16,55,16.2,54.4,16.4,53.9z"/>
	<path class="st7" d="M20,61.3c-0.5,2.1-0.9,4-1.1,5.3c-0.7,3.9-1.1,5.8-0.9,7.2c0.2,1.5,0.6,2.4,0,3.1c-0.7,0.8-2.3,0.6-3.5,0.2
		c0.6-2,0.8-3.7,0.8-4.8c0.1-3.1-0.6-5-0.8-9.4c0-0.4,0.1-1.4,0-2.8c-0.1-1.1-0.2-2-0.3-2.6c0.6,0.4,1.5,1,2.7,1.4
		c1.5,0.5,2.9,0.5,3.7,0.4C20.5,59.9,20.2,60.5,20,61.3z"/>
	<path class="st11" d="M16.5,77.3c-0.2,0-0.5,0.1-0.7,0.1C16,75,16,73,15.9,71.7c-0.1-3.3-0.5-5-0.4-8.3c0-1.7,0.2-3,0.3-3.9
		c0.4,0.2,1.1,0.5,1.9,0.6c0.4,0,0.8,0,1.2,0c-0.5,2.7-1,5.6-1.4,8.6C17.1,71.6,16.8,74.5,16.5,77.3z"/>
	
		<rect x="16.1" y="71.5" transform="matrix(0.1023 -0.9948 0.9948 0.1023 -57.7956 82.0528)" class="st6" width="0.9" height="3.1"/>
	
		<rect x="16.1" y="69.8" transform="matrix(0.1023 -0.9948 0.9948 0.1023 -56.1282 80.6998)" class="st6" width="1.1" height="3.2"/>
	<ellipse transform="matrix(0.9826 -0.186 0.186 0.9826 -10.319 6.683)" class="st7" cx="30.5" cy="58.3" rx="3.5" ry="1.4"/>
	<circle class="st9" cx="30.1" cy="49.1" r="0.4"/>
	<path class="st7" d="M30,79.8c0.2,0.2,0.4,0.2,2.3,0.2c2.5,0,2.7,0,2.9-0.2c0.9-1-1.8-5.9-3.7-5.6C29.9,74.5,28.8,78.9,30,79.8z"/>
	<path class="st9" d="M30,79.9c0.3,0.1,1.1,0.1,2.7,0.1c1.5,0,2.2,0,2.5-0.1c1-0.5-0.9-2.5-2.8-2.5C30.6,77.4,29,79.4,30,79.9z"/>
	<circle class="st9" cx="30.1" cy="49.8" r="0.4"/>
	<circle class="st9" cx="30.6" cy="48.4" r="0.4"/>
	<path class="st5" d="M31.7,53.9c-1.4,0.1-2.7,0.1-4.1,0.2c0.2,1,0.3,2,0.4,3.1c0.1,1,0.1,1.9,0.2,2.7c1.5-0.4,3-0.8,4.5-1.2
		c0-0.9-0.1-2-0.5-3.2C32.1,55,31.9,54.4,31.7,53.9z"/>
	<path class="st7" d="M28.1,61.3c0.5,2.1,0.9,4,1.1,5.3c0.7,3.9,1.1,5.8,0.9,7.2c-0.2,1.5-0.6,2.4,0,3.1c0.7,0.8,2.3,0.6,3.5,0.2
		c-0.6-2-0.8-3.7-0.8-4.8c-0.1-3.1,0.6-5,0.8-9.4c0-0.4-0.1-1.4,0-2.8c0.1-1.1,0.2-2,0.3-2.6c-0.6,0.4-1.5,1-2.7,1.4
		c-1.5,0.5-2.9,0.5-3.7,0.4C27.7,59.9,27.9,60.5,28.1,61.3z"/>
	<path class="st11" d="M31.6,77.3c0.2,0,0.5,0.1,0.7,0.1c-0.2-2.4-0.2-4.4-0.1-5.7c0.1-3.3,0.5-5,0.4-8.3c0-1.7-0.2-3-0.3-3.9
		c-0.4,0.2-1.1,0.5-1.9,0.6c-0.4,0-0.8,0-1.2,0c0.5,2.7,1,5.6,1.4,8.6C31,71.6,31.4,74.5,31.6,77.3z"/>
	<rect x="30" y="72.6" transform="matrix(0.9948 -0.1023 0.1023 0.9948 -7.3075 3.6121)" class="st6" width="3.1" height="0.9"/>
	<rect x="29.9" y="70.9" transform="matrix(0.9948 -0.1023 0.1023 0.9948 -7.1442 3.5951)" class="st6" width="3.2" height="1.1"/>
	<line class="st10" x1="33.9" y1="34.8" x2="25.6" y2="41.5"/>
	<path class="st5" d="M27.7,51.2c1.5,0.2,3,0.4,4.5,0.6c0.3-2.4,0.4-4.4,0.4-5.9c0-4.5-0.9-8.1-1.4-9.5c-0.3-0.8-0.5-1.5-0.5-1.5
		c-0.3-0.9-0.6-1.6-0.9-2.2c-0.5,1-1.1,2.1-1.8,3.3c-1,1.6-2.1,3-3.1,4.1c0.3,2.1,0.8,4.4,1.4,6.8C26.8,48.5,27.2,49.9,27.7,51.2z"
		/>
	<g>
		<path class="st7" d="M29.8,55.8H30c1.4,0,2.6-1.2,2.6-2.6v-0.1c0-1.4-1.2-2.6-2.6-2.6h-0.2c-1.4,0-2.6,1.2-2.6,2.6v0.1
			C27.3,54.7,28.4,55.8,29.8,55.8z"/>
		<g>
			<polygon class="st8" points="30,51 31.6,52 31.5,53.9 29.9,54.6 29.9,55.4 29.9,55.4 32.1,54.1 32.1,51.5 29.9,50.3 29.9,51 			
				"/>
			<polygon class="st12" points="27.7,51.6 27.7,54.1 29.9,55.4 29.9,54.6 29.8,54.7 28.2,53.7 28.4,51.8 29.9,51 29.9,50.3 
				29.9,50.3 			"/>
			<polygon class="st12" points="28.2,53.7 29.8,54.7 29.9,54.6 31.5,53.9 31.6,52 30,51 29.9,51 28.4,51.8 			"/>
			<polygon class="st10" points="29.9,51 29.9,54.6 31.5,53.9 31.6,52 30,51 			"/>
			<polygon class="st17" points="28.2,53.7 29.8,54.7 29.9,54.6 29.9,51 28.4,51.8 			"/>
		</g>
	</g>
	<path class="st5" d="M20.6,51.1c-1.5,0.2-3,0.4-4.5,0.6c-0.3-2.4-0.4-4.4-0.4-5.9c0-4.5,0.9-8.1,1.4-9.5c0.3-0.8,0.5-1.5,0.5-1.5
		c0.3-0.9,0.6-1.6,0.9-2.2c0.4,1,1,2.1,1.8,3.3c1.1,1.6,2.2,2.7,3.2,3.6c-0.3,2.3-0.8,4.8-1.5,7.4C21.6,48.4,21.1,49.8,20.6,51.1z"
		/>
	<path class="st7" d="M21.2,49.3c-0.6,0.1-1.5,0.2-2.6,0c-1.2-0.2-2.2-0.7-2.7-1c-0.1-0.6-0.1-1.2-0.2-1.6c-0.1-1.1-0.2-2.2-0.3-3.6
		c0-0.5,0-1,0-1.6c0-0.7,0.1-3.8,1.3-4.1c0.5-0.1,1,0.3,1.6,0.8c1.2,0.9,2.7,2.3,4.6,4.2C22.4,44.8,21.8,47.1,21.2,49.3z"/>
	<path class="st27" d="M20.9,48.6c-0.5,0.1-1.3,0.2-2.2,0c-1-0.2-1.8-0.6-2.2-0.8c-0.1-0.5-0.1-1-0.2-1.4c-0.1-0.9-0.2-1.9-0.2-3
		c0-0.5,0-0.9,0-1.3c0-0.6,0.1-3.2,1.1-3.5c0.4-0.1,0.8,0.2,1.3,0.6c1,0.8,2.3,2,3.8,3.6C21.8,44.7,21.3,46.7,20.9,48.6z"/>
	<g>
		<path class="st7" d="M18.7,55.7h-0.2c-1.4,0-2.6-1.2-2.6-2.6V53c0-1.4,1.2-2.6,2.6-2.6h0.2c1.4,0,2.6,1.2,2.6,2.6v0.1
			C21.3,54.5,20.1,55.7,18.7,55.7z"/>
		<g>
			<polygon class="st8" points="18.5,50.8 16.9,51.9 17.1,53.7 18.6,54.5 18.6,55.2 18.6,55.2 16.4,53.9 16.4,51.4 18.6,50.1 
				18.6,50.9 			"/>
			<polygon class="st12" points="20.8,51.4 20.8,54 18.6,55.2 18.6,54.5 18.7,54.5 20.3,53.5 20.2,51.7 18.6,50.9 18.6,50.1 
				18.6,50.1 			"/>
			<polygon class="st12" points="20.3,53.5 18.7,54.5 18.6,54.5 17.1,53.7 16.9,51.9 18.5,50.8 18.6,50.9 20.2,51.7 			"/>
			<polygon class="st10" points="18.6,50.9 18.6,54.5 17.1,53.7 16.9,51.9 18.5,50.8 			"/>
			<polygon class="st17" points="20.3,53.5 18.7,54.5 18.6,54.5 18.6,50.9 20.2,51.7 			"/>
		</g>
	</g>
	<ellipse class="st5" cx="33.2" cy="25.2" rx="1.5" ry="1.5"/>
	<path class="st22" d="M26.5,13.8c-0.3,0.2-1.1,0.7-2.4,0.7v-0.1c0,0,0,0,0,0c0.9,0.1,0.9-0.4,2.4-0.7
		C26.5,13.7,26.5,13.7,26.5,13.8z"/>
	<path class="st7" d="M24.1,14.3v0.1H24c-1.2,0-2-0.5-2.3-0.7c0,0,0,0,0,0c0.3,0,0.4,0.1,0.5,0.1C23.3,14,23.5,14.2,24.1,14.3z"/>
	<path class="st5" d="M29.5,18.1c0,0,0.2,0.2,0.4,0.5c0,0.1,0.1,0.2,0.1,0.3c0,0-0.3-0.3-0.5-0.5c-0.1-0.2-0.2-0.3-0.3-0.4
		c-0.4-0.5-0.9-0.8-0.8-0.8C28.4,17.3,29,17.7,29.5,18.1z"/>
	<path class="st5" d="M29.5,18.1c0-0.3,0.3-0.5,0.3-0.4c0,0-0.2,0.3-0.1,0.7c0,0.2,0.1,0.3,0.1,0.3C29.8,18.6,29.5,18.4,29.5,18.1z"
		/>
	<path class="st5" d="M29.5,18.2c-0.1,0-0.1-0.3-0.3-0.6c-0.2-0.3-0.5-0.4-0.4-0.4c0,0,0.8,0.3,0.8,0.8
		C29.6,18.1,29.6,18.2,29.5,18.2z"/>
	<path class="st28" d="M34.6,20.4c-0.3,0-0.8,0.1-1.4,0.1c-1.6,0-2.9-0.3-3.7-0.5c-1.5-0.4-3.1-0.8-4.7-1.3
		c-2.8-0.8-5.6-1.6-8.3-2.4c0.7-0.6,1.5-1.1,2.3-1.7c0.3-0.2,0.6-0.4,0.9-0.6c2.9,2.2,4.1,2.4,4.6,2c0.5-0.4,0.4-1.4,1.1-1.7
		c0.3-0.1,0.5,0.1,1.3,0.1c0.5,0,1,0,1.4,0.1c0.4,0.3,0.8,0.6,1.2,1.2c0.9,1.3,1,2.7,1,3.3c0,0,0.1-0.1,0.2-0.2
		c1.2-1.3,1.5-1.8,2.1-2c0.1,0,0.2-0.1,0.4-0.1c0.3,0.8,0.7,1.7,1,2.5C34.2,19.5,34.4,20,34.6,20.4z"/>
	<path class="st0" d="M32.5,15.3c0.1,1.1-4.9,3-9.3,3.6c-2.4,0.3-4.4,0.3-5.8,0.1c-0.6,0-1.4,0.2-2.2,0.7c-0.5,0.3-0.8,0.7-0.8,0.6
		c-0.1-0.1,0.1-0.9,1.9-4.1c2.3,1.1,5.8,1.9,9.1,0.8c1.6-0.5,3.6-1.6,4.6-2.7C31.2,14.5,32.4,14.8,32.5,15.3z"/>
	<path class="st29" d="M29.9,14.3c-1,1-2.9,2.1-4.6,2.7c-3.3,1.1-6.8,0.4-9.1-0.8c0.3-0.7,0.6-1.2,0.7-1.2c0.8-0.6,1.5-0.8,1.5-0.8
		c0.4-0.1,1-0.3,1.8-0.3c0.8,0.4,2,0.8,3.6,0.8c1.7,0,2.4-0.5,4.2-0.5C28.5,14.2,29.2,14.2,29.9,14.3z"/>
	<line class="st10" x1="24" y1="20.2" x2="24" y2="10.7"/>
	<path class="st30" d="M28.9,13.3c-0.4,0.4-0.8,0.3-4.9,0.5c-4.1,0.1-4.4,0.2-4.8-0.2c-2.1-1.6-0.5-6.5,0.4-8.8
		c0.1-0.2,0.2-0.5,0.2-0.6c1.2-3.3,2.4-3.9,3.2-4.1c0.7-0.2,1.3,0,1.6,0c2.2,0.5,3.4,2.9,3.9,4C28.7,4.7,29,5.3,29.2,6
		C30.1,8.6,30.6,12,28.9,13.3z"/>
	<polyline class="st10" points="24,11.1 27.1,8.7 27.1,8.7 	"/>
	<line class="st10" x1="24.2" y1="15.8" x2="24.2" y2="4.4"/>
	<path class="st22" d="M26.2,11.8c0,0.7,0.1,1.3,0.3,1.8c-0.7,0.5-1.1,0.8-1.4,0.9c-0.6,0.4-0.8,0.6-1,0.5c-0.2-0.1-0.1-0.5,0-0.8
		c0,0,0,0,0,0c-0.1,0,0,0.3,0,0.8c0-1.6,0-3.1,0-4.7c0,0,0.1,0,0.1,0c1.1,0,1.9-0.4,2.3-0.6C26.3,10.3,26.2,11,26.2,11.8z"/>
	<path class="st7" d="M24.3,15.5c-0.9-0.3-1.3-0.6-1.4-0.9c-0.1-0.2-0.1-0.6-0.4-0.7c-0.2-0.1-0.4-0.1-0.5-0.1
		c0.1-0.5,0.3-1.1,0.3-1.9c0-0.5,0-0.9-0.1-1.2c0,0,0-0.1,0-0.1l0.6,0.5l0.4,0.3l0.1,0.1c0,0,0,0,0,0l0.4,0.3
		c0.2,0.1,0.4,0.2,0.6,0.2C24.2,13.1,24.2,14.3,24.3,15.5z"/>
	<path class="st7" d="M24.1,11.8c-0.2,0-0.5,0-0.6-0.2l-0.4-0.3c0,0,0,0,0,0L23,11.3L22.5,11l-0.7-0.5c-0.1-0.3-0.1-0.5-0.2-0.7
		c0.2,0.1,0.5,0.3,1,0.4c0.4,0.1,0.8,0.2,1.4,0.2C24.1,10.9,24.1,11.3,24.1,11.8z"/>
	<ellipse class="st6" cx="24.1" cy="11.8" rx="0.5" ry="0.5"/>
	<ellipse class="st6" cx="24.1" cy="13.4" rx="0.5" ry="0.5"/>
	<path class="st31" d="M27.8,7.1c0,1.2-0.2,2.2-0.6,3.1c-0.1,0.1-0.2,0.2-0.3,0.3l-1,0.8v0l-1.2,0.9c-0.1,0.1-0.3,0.2-0.5,0.2
		c-0.2,0-0.5,0-0.6-0.2l-0.4-0.3c0,0,0,0,0,0L23,11.8l-0.4-0.3L21.9,11l-0.2-0.2l-0.5-0.3c-0.1-0.2-0.2-0.5-0.3-0.7
		c-0.2-0.5-0.3-1.1-0.4-1.7c0-0.2,0-0.3,0-0.5c0,0,0,0,0-0.1c0-0.1,0-0.1,0-0.2c0-0.1,0-0.2,0-0.2c0-0.2,0-0.4,0-0.6
		c0.2-2.7,1.8-4.9,3.7-4.9C26.1,1.6,27.8,4,27.8,7.1z"/>
	<path class="st32" d="M27.8,7.1c0,1.2-0.2,2.2-0.6,3.1c-0.1,0.1-0.2,0.2-0.3,0.3c-0.3,0.3-0.6,0.5-1,0.8v0c0.1-0.5,0.2-1.3,0-2.3
		c-0.1-0.3-0.2-1-0.5-1.5c-0.1,0.1-0.2,0.2-0.4,0.3c-0.2,0.1-0.4,0.1-0.5,0.1c0.2-0.1,0.3-0.3,0.5-0.6C25,7.1,25,7,25,7
		c-0.1-0.1-0.2-0.1-0.3-0.2C24,6.7,23.4,8,23.3,8.2c-0.1,0.3-0.2,0.5-0.5,2.5c-0.1,0.3-0.1,0.6-0.1,0.8c-0.2-0.2-0.5-0.4-0.7-0.5
		c0,0,0,0.1,0,0.1c-0.1-0.1-0.2-0.2-0.3-0.3c-0.2-0.3-0.5-0.6-0.8-1.1c-0.2-0.2-0.3-0.5-0.5-0.8c0.1-0.7,0.1-1.1,0.1-1.4
		c0,0,0,0,0-0.1c0,0,0-0.1,0-0.2c0-0.1,0-0.2,0-0.2c0-0.2,0-0.4,0-0.6c0.2-2.7,1.8-4.9,3.7-4.9C26.1,1.6,27.8,4,27.8,7.1z"/>
	<path class="st0" d="M21.4,11.1c0.1,0.4,0.1,0.8,0.3,1.1c-0.2,0.3-0.8,1.1-1.9,1.7c-0.1,0-0.2-0.1-0.3-0.1
		c-0.2-0.1-0.2-0.1-0.3-0.1c0,0,0,0,0,0c0,0-0.3-0.2-0.4-0.4c-0.5-0.7-0.7-1.5-0.7-1.5c-0.4-2.1,1.1-6.2,1.5-7.4
		c0.1-0.2,0.1-0.2,0.1-0.3C21,1,22.1,0.3,22.9,0.1c0.5,1.6,1,3.2,1.6,4.7C22.2,6.3,21.1,8.8,21.4,11.1z"/>
	<path class="st30" d="M25.9,11.7c0.2-1.1,0.3-2.9-0.3-4.8c-0.4-1.2-1.2-2-1.1-2c0.1,0,0.4,0.3,0.7,0.6c0.6,0.7,0.9,1.4,1,1.8
		c0.3,0.9,1.1,3.1,0.3,5.4c-0.3,0.9-0.8,1.7-1,1.7C25.3,14.2,25.7,13.2,25.9,11.7z"/>
	<path class="st15" d="M25.4,13c0,0,0.3-0.7,0.5-1.3c1.3-3.5-0.7-7.3-1.4-7.7c0,0-0.3-0.1-0.3-0.3c0-0.1,0.2-0.3,0.3-0.3
		c0.7-0.1,3.2,4.3,1.8,7.7C26,12,25.4,13,25.4,13z"/>
	<path class="st2" d="M20,5.4c-0.6,2.2-0.1,4.2,0.1,4.2c0.3,0-0.2-2.6,1.5-4.3c0.6-0.6,1.2-0.9,1.3-1.7C23,3,22.7,2.2,22.3,2.1
		C21.5,1.9,20.4,3.8,20,5.4z"/>
	<path class="st28" d="M23.9,15.4c-0.8-0.3-1.6-0.6-2.4-0.9c-0.6-0.2-1.2-0.4-1.7-0.6c1.1-0.6,1.7-1.4,1.9-1.7
		c0.2,0.5,0.5,1.2,1,1.8C23.1,14.7,23.5,15.1,23.9,15.4z"/>
	<path class="st15" d="M23.5,6.3c-1,1.8-0.7,3.3-1.6,5.6c-0.1,0.2-0.2,0.5-0.4,0.8c-0.6,0.9-1.4,1.2-1.6,1.3c-0.2,0.1-0.4,0.2-1,0.3
		c-1.6,0.3-3,0.1-3,0c0-0.1,1.1,0,2.3-0.6c0.3-0.1,0.5-0.3,0.7-0.4c1.5-1,2.2-2.6,2.3-2.8c0.3-0.8,0.3-1.1,0.4-1.6
		c0.1-0.4,0.2-0.6,0.3-0.9c0,0,0.6-1.3,1.6-2.3c0.2-0.1,0.4-0.3,0.5-0.4c0.3-0.3,0.5-0.4,0.5-0.4C24.5,4.9,23.9,5.6,23.5,6.3z"/>
	<path class="st18" d="M16.5,14.6c0,0,0.3-0.7,1-1c0.5-0.2,0.9,0,1.5,0c0.8-0.1,1.4-0.6,1.9-1c1.7-1.4,0.7-3.4,2.4-6.2
		c0.6-0.9,1.2-1.6,1.1-1.7c-0.1-0.1-1.2,1-1.6,1.4c-0.3,0.3-0.5,0.6-0.5,0.6c-0.1,0.1-0.1,0.2-0.2,0.3c-0.3,0.5-0.4,1-0.6,1.6
		c-0.1,0.5-0.1,0.6-0.2,0.9c-0.2,0.9-0.8,1.9-1.7,2.5c-0.9,0.6-1.3,0.2-2.1,0.9C16.8,13.7,16.4,14.6,16.5,14.6z"/>
	<path class="st9" d="M30.1,18.4c0.1,0.2,1.1-0.1,1.8-0.5c0.7-0.4,1.5-1.1,1.4-1.3c-0.1-0.2-1.1,0-1.9,0.5
		C30.7,17.5,30,18.2,30.1,18.4z"/>
	<path class="st33" d="M33.5,17.5c-0.6,0.1-1.5,0.4-2.4,1.1c-0.7,0.5-1.1,1-1.4,1.4c0-0.2,0-0.6,0-0.9c-0.1-0.6-0.2-1-0.2-1.2
		c-0.2-0.9-0.6-1.5-0.8-1.8c-0.5-0.8-1.1-1.3-1.6-1.7c0.2,0.1,0.5,0.2,0.9,0.4c1.2,0.4,2,0.1,2.8,0.4c1.1,0.4,1.8,1,2.2,1.4
		C33,16.9,33.2,17.2,33.5,17.5z"/>
	<path class="st5" d="M27,14.4c0.3-0.1,1.9-1,3.8-0.2c1.7,0.6,2.4,2.1,2.5,2.4c-0.3,0.1-0.7,0.3-1.1,0.5c-0.9,0.5-1.5,1.1-1.9,1.6
		c-0.2-0.7-0.6-2.1-1.9-3.2C27.9,15,27.4,14.7,27,14.4z"/>
	<ellipse transform="matrix(0.5486 -0.8361 0.8361 0.5486 1.1327 32.8784)" class="st11" cx="31" cy="15.4" rx="1.3" ry="1.7"/>
	<ellipse transform="matrix(0.5486 -0.8361 0.8361 0.5486 1.1327 32.8784)" class="st6" cx="31" cy="15.4" rx="0.8" ry="1.1"/>
	<path class="st34" d="M29.4,12.8C28,15,24.7,15.5,24.5,15c-0.1-0.3,1.1-0.7,1.7-2.2c0.4-0.9,0.3-1.7,0.2-3.1
		c-0.1-1.2-0.2-2.3-0.8-3.4c-0.4-0.7-0.9-1.2-1.3-1.5c-0.5-1.6-1-3.2-1.6-4.7c0,0,0,0,0.1,0c0.7-0.2,1.3,0,1.6,0
		c2.2,0.5,3.4,2.9,3.9,4c0.1,0.2,0.2,0.4,0.3,0.8c0,0,0.2,0.6,0.4,1.2c0.7,2.3,1.4,4.3,0.5,6.2C29.6,12.6,29.4,12.8,29.4,12.8z"/>
	<path class="st1" d="M28.7,9.8c-0.1,0-0.1-3.1-2.4-6.2c-0.9-1.3-2-2.2-2-2.4c0.1-0.1,1.3,0.6,2.2,1.6C29.1,5.7,28.8,9.8,28.7,9.8z"
		/>
	<g>
		<polygon class="st8" points="24,14.8 23.1,15.4 23.2,16.5 24.1,17 24.1,17.4 24.1,17.4 22.8,16.7 22.8,15.2 24.1,14.4 24.1,14.8 
					"/>
		<polygon class="st12" points="25.4,15.2 25.4,16.7 24.1,17.4 24.1,17 24.2,17 25.1,16.4 25,15.3 24.1,14.8 24.1,14.4 24.1,14.4 		
			"/>
		<polygon class="st12" points="25.1,16.4 24.2,17 24.1,17 23.2,16.5 23.1,15.4 24,14.8 24.1,14.8 25,15.3 		"/>
		<polygon class="st10" points="24.1,14.8 24.1,17 23.2,16.5 23.1,15.4 24,14.8 		"/>
		<polygon class="st17" points="25.1,16.4 24.2,17 24.1,17 24.1,14.8 25,15.3 		"/>
	</g>
	<path class="st18" d="M25.5,6.6c-0.1,0.6-0.9,1-1,1c0-0.1,0.7-0.5,0.7-1.2c0.1-0.8-0.9-1.5-0.9-1.5C24.4,4.9,25.7,5.7,25.5,6.6z"/>
	<path class="st7" d="M30.2,23.2c0.9-0.3,1.7-0.5,2.6-0.8c-0.1-0.1-0.1-0.2-0.2-0.4c-0.9,0.3-1.7,0.5-2.6,0.8
		C30.1,23,30.1,23.1,30.2,23.2z"/>
	<path class="st7" d="M30.7,24.2c0.9-0.3,1.8-0.5,2.6-0.8c-0.1-0.1-0.1-0.2-0.2-0.4c-0.9,0.3-1.8,0.5-2.6,0.8
		C30.6,23.9,30.6,24.1,30.7,24.2z"/>
	<path class="st8" d="M12.4,37.3c0.5,0.1,1.1,0.2,1.6,0.2c0.2-0.6,0.6-1.5,1.1-2.6c1-2,1.6-2.7,1.9-4.1c0.1-0.6,0.2-1.6,0-2.7
		c-0.7-0.2-1.4-0.5-2.1-0.7c-0.3,0.6-0.7,1.2-1,1.9C12.4,32.4,12.3,35.3,12.4,37.3z"/>
	<path class="st5" d="M17.4,29.7c-0.5,0.1-1.3,0.2-2.2,0.1c-1-0.2-1.7-0.5-2.2-0.8c-0.3,1.6-0.5,3.4-0.6,5.4c0,1-0.1,2,0,2.9
		c0.5,0.1,1.1,0.2,1.6,0.2c0.9-1.7,1.8-3.5,2.6-5.6C16.9,31.1,17.2,30.4,17.4,29.7z"/>
	<path class="st11" d="M14,30.5c-0.2,1.2-0.4,2.4-0.5,3.7c-0.1,0-0.3-0.1-0.4-0.1c-0.3-0.1-0.6-0.5-0.5-0.9l0.1-2.3
		c0-0.4,0.3-0.6,0.6-0.6C13.5,30.4,13.8,30.5,14,30.5z"/>
	<g>
		<polygon class="st8" points="13,31 12.4,31.6 12.3,32.7 12.7,33.2 12.7,33.6 12.7,33.6 12.1,32.8 12.3,31.3 13,30.6 13,31.1 		"/>
		<polygon class="st12" points="13,31.1 12.7,33.2 12.3,32.7 12.4,31.6 13,31 		"/>
		<polygon class="st10" points="13,31.1 12.7,33.2 12.3,32.7 12.4,31.6 13,31 		"/>
	</g>
	<path class="st8" d="M11.3,38.8c0,0.4,0.2,0.9,0.7,1.1c0.7,0.3,1.7-0.6,1.7-1.2c0-0.4-0.4-0.7-0.6-0.8c-0.2-0.2-0.4-0.3-0.7-0.3
		C11.8,37.6,11.3,38.2,11.3,38.8z"/>
	<path class="st22" d="M27,49.3c0.6,0.1,1.5,0.2,2.6,0c1.2-0.2,2.2-0.7,2.7-1c0.1-0.6,0.1-1.2,0.2-1.6c0.1-1.1,0.2-2.2,0.3-3.6
		c0-0.5,0-1,0-1.6c0-0.7-0.1-3.8-1.3-4.1c-0.5-0.1-1,0.3-1.6,0.8c-1.2,0.9-2.7,2.3-4.6,4.2C25.9,44.8,26.5,47.1,27,49.3z"/>
	<path class="st35" d="M27.6,48.6c0.5,0.1,1.3,0.2,2.2,0c1-0.2,1.8-0.6,2.2-0.8c0.1-0.5,0.1-1,0.2-1.4c0.1-0.9,0.2-1.9,0.2-3
		c0-0.5,0-0.9,0-1.3c0-0.6-0.1-3.2-1.1-3.5c-0.4-0.1-0.8,0.2-1.3,0.6c-1,0.8-2.3,2-3.8,3.6C26.6,44.7,27.1,46.7,27.6,48.6z"/>
	<g>
		<path class="st0" d="M26.7,46c-0.8,1.7-1.6,3.4-2.3,5c0-0.1-0.1-0.2-0.1-0.2V29.9h1.5c0.1,1.7,0.2,3.3,0.3,5c0,0.3,0,0.6,0.1,1
			C26.3,39.3,26.5,42.6,26.7,46z"/>
		<path class="st2" d="M24.4,29.9v21.2c-0.8-1.6-1.7-3.2-2.5-4.9c0.2-3.3,0.4-6.6,0.6-9.9c0-0.3,0-0.6,0.1-0.9
			c0.1-1.8,0.2-3.7,0.4-5.5L24.4,29.9L24.4,29.9z"/>
		<path class="st4" d="M24.4,30v3.5l0,0l0,0l-1.9,2.9c0-0.3,0-0.6,0.1-0.9C23.1,33.4,23.7,31.6,24.4,30L24.4,30L24.4,30
			C24.4,29.9,24.4,30,24.4,30z"/>
		<path class="st2" d="M26.1,36l-1.7-2.5V30c0.4,1,0.7,2,1,3.1c0.2,0.6,0.4,1.3,0.6,1.9C26,35.3,26.1,35.7,26.1,36z"/>
	</g>
	<rect x="21.6" y="27.7" class="st9" width="5.3" height="1.2"/>
	<path class="st7" d="M23.9,40.5c-0.7-1-1.7-2.3-3.2-3.5c-1.1-1-2.2-1.7-3.2-2.2c0.1-0.4,0.3-1,0.6-1.7c0.6-1.7,1-2.7,2-3.6
		c0.3-0.3,0.8-0.7,1.6-1c1,0,2,0,3,0C24.4,32.5,24.1,36.5,23.9,40.5z"/>
	<path class="st27" d="M23.5,37.8C23,37,22.2,36,21.1,35c-0.9-0.8-1.7-1.3-2.5-1.7c0.1-0.3,0.2-0.8,0.4-1.3c0.5-1.3,0.8-2.1,1.5-2.8
		c0.2-0.2,0.6-0.5,1.3-0.8c0.8,0,1.6,0,2.4,0C24,31.6,23.7,34.7,23.5,37.8z"/>
	<path class="st22" d="M24.7,40.5c0.7-1,1.7-2.3,3.2-3.5c1.1-1,2.2-1.7,3.2-2.2c-0.1-0.4-0.3-1-0.6-1.7c-0.6-1.7-1-2.7-2-3.6
		c-0.3-0.3-0.8-0.7-1.6-1c-1,0-2,0-3,0C24.2,32.5,24.4,36.5,24.7,40.5z"/>
	<path class="st35" d="M25,37.7c0.5-0.8,1.3-1.7,2.4-2.7c0.9-0.7,1.7-1.3,2.4-1.6c-0.1-0.3-0.2-0.8-0.4-1.3
		c-0.5-1.3-0.8-2.1-1.5-2.7c-0.2-0.2-0.6-0.5-1.2-0.8c-0.8,0-1.5,0-2.3,0C24.6,31.6,24.8,34.7,25,37.7z"/>
	<path class="st24" d="M26,28.6c0.3,0.2,0.7,0.5,1.1,1.1c0.1,0.1,0.5,0.7,1.1,2.1c0.2,0.6,0.5,1.3,0.7,2.2"/>
	<path class="st36" d="M22.6,28.6c-0.3,0.2-0.7,0.5-1.1,1.1c-0.1,0.1-0.5,0.7-1.1,2.1c-0.2,0.6-0.5,1.3-0.7,2.2"/>
	<path class="st21" d="M30,46.8c0.1,0-0.1,1.6-0.1,1.6c0,0,0-0.5,0-0.8c0-0.1,0-0.2,0-0.3C29.9,47.1,30,46.8,30,46.8z"/>
	<g>
		<path class="st5" d="M24.4,28.4c-1,2-0.6,4.8,1.4,6.1c0,0-0.1,0.1-0.1,0.1c-2.1-1.3-2.7-4.2-1.6-6.4
			C24.1,28.2,24.4,28.4,24.4,28.4L24.4,28.4z"/>
	</g>
	<path class="st14" d="M30.5,51c0-0.3,0.2-0.5,0.2-0.5c0,0,0,0.1,0,0.2c0,0.2,0.1,0.2,0.2,0.4c0,0.2-0.1,0.4-0.2,0.4
		C30.6,51.4,30.5,51.2,30.5,51z"/>
	<path class="st21" d="M30.1,47c0.1,0-0.1,2-0.1,2c0,0,0-0.6,0-1c0-0.2,0-0.3,0-0.4C30,47.3,30.1,47,30.1,47z"/>
	<polygon class="st15" points="25.3,26.6 23.5,27 23,28.8 24.4,30.1 26.1,29.7 26.6,27.9 	"/>
	<path class="st16" d="M25.5,33c-0.4-0.9-0.7-1.9-1.1-2.8l1.7-0.5c0.2,1,0.4,2,0.6,3C25.9,32.8,26.2,32.8,25.5,33z"/>
	<path class="st5" d="M27.8,33.3l-3,0.8c-0.3,0.1-0.6-0.1-0.7-0.4v0c-0.1-0.3,0.1-0.6,0.4-0.7l3-0.8c0.3-0.1,0.6,0.1,0.7,0.4l0,0
		C28.3,32.9,28.1,33.3,27.8,33.3z"/>
	<polygon class="st18" points="25,27.2 24.1,27.4 23.9,28.6 24.7,29.5 25.6,29.3 25.8,28.1 	"/>
	<path class="st8" d="M27.1,33.5l-1.6,0.4c-0.3,0.1-0.6-0.1-0.7-0.4h0c-0.1-0.3,0.1-0.6,0.4-0.7l1.6-0.4c0.3-0.1,0.6,0.1,0.7,0.4
		l0,0C27.6,33.1,27.4,33.4,27.1,33.5z"/>
	<path class="st19" d="M25.7,32.7c-0.2-0.6-0.4-1.1-0.7-1.7l1-0.3c0.1,0.6,0.2,1.2,0.3,1.8C26,32.6,26.1,32.6,25.7,32.7z"/>
	<path class="st20" d="M25.5,28.2c-0.2-0.5-0.8-0.8-0.8-0.7c0,0,0.4,0.3,0.5,0.7c0,0.1,0,0.3-0.1,0.5c-0.2,0.3-0.6,0.1-0.7,0.2
		c0,0.1,0.6,0.4,1,0.1C25.6,28.7,25.5,28.2,25.5,28.2z"/>
	<path class="st12" d="M26.3,33.7l0.3,1.3l-1.2-0.1c-0.1-0.3-0.2-0.6-0.3-0.9C25.6,33.9,26,33.8,26.3,33.7z"/>
	<path class="st12" d="M27.2,37.1l3.6,13c0,0,0,0,0,0c-0.6-1.8-1.3-3.7-1.9-5.5c-0.9-2.5-1.8-5-2.6-7.6L27.2,37.1z"/>
	<path class="st17" d="M28.2,37.1c0.1,0.4,0.1,0.7,0.2,1.1c0.8,4,1.6,7.9,2.4,11.9l-3.6-13L28.2,37.1z"/>
	<path class="st17" d="M27.4,33.4c0.1,0.5,0.2,1.1,0.3,1.6L26.7,35l-0.3-1.3C26.7,33.6,27,33.5,27.4,33.4z"/>
	<path class="st17" d="M26.7,35l0.6,2.1l-1-0.1c-0.2-0.7-0.5-1.4-0.7-2.1L26.7,35z"/>
	<path class="st13" d="M27.7,35.1c0.1,0.7,0.3,1.4,0.4,2l-0.9-0.1L26.7,35L27.7,35.1z"/>
	<path class="st14" d="M28.4,38.2c0,0.2,0.1,0.5,0.1,0.7c0,0.2-0.1,0.3-0.1,0.5c0,0.2-0.1,0.4-0.1,0.6c-0.1,0.5-0.1,0.9,0.1,1.4
		c0.1,0.3,0.3,0.5,0.5,0.6c0.1,0.1,0.3,0.3,0.4,0.5c0,0.1,0.1,0.1,0.1,0.2c0,0.1,0,0.2,0.1,0.3c0,0.3,0,0.5,0,0.8
		c0,0.2-0.1,0.4-0.1,0.6c0,0.2,0,0.3,0,0.4c0.4,1.3,0.9,2.5,1.3,3.8c0.1,0.5,0.2,1.1,0.3,1.6c0,0,0,0,0,0c-0.6-1.8-1.3-3.7-1.9-5.5
		c0-0.1,0-0.3,0-0.4c0-0.2,0.1-0.4,0.1-0.6c0.1-0.4,0.1-0.8-0.1-1.2c-0.1-0.3-0.3-0.4-0.4-0.5c-0.2-0.1-0.3-0.3-0.5-0.6
		c-0.2-0.4-0.2-0.9-0.1-1.4c0-0.2,0.1-0.4,0.1-0.6C28.2,38.9,28.3,38.5,28.4,38.2z"/>
	<path class="st21" d="M28.5,38.9c0.3,1.3,0.5,2.5,0.8,3.8c0-0.1,0-0.1-0.1-0.2c-0.1-0.3-0.3-0.4-0.4-0.5c-0.2-0.1-0.3-0.3-0.5-0.6
		c-0.2-0.4-0.2-0.9-0.1-1.4c0-0.2,0.1-0.4,0.1-0.6C28.4,39.2,28.5,39,28.5,38.9z"/>
	<path class="st21" d="M29.3,42.9c0.4,1.9,0.8,3.7,1.1,5.6c-0.4-1.3-0.9-2.5-1.3-3.8c0-0.1,0-0.3,0-0.4c0-0.2,0.1-0.4,0.1-0.6
		C29.3,43.4,29.4,43.2,29.3,42.9z"/>
	<path class="st14" d="M29.6,47c-0.1-0.6-0.1-0.8-0.1-0.8c0.1,0,0.5,0.7,0.3,1.3c0,0.1-0.1,0.2-0.1,0.4c-0.1,0.3,0,0.6,0,0.6
		C29.6,48.5,29.6,47.8,29.6,47z"/>
	<path class="st7" d="M27.8,34.3c-0.8,0.3-1.6,0.7-2.3,1c-0.1-0.4-0.3-0.8-0.4-1.2c0.8-0.2,1.6-0.4,2.4-0.6
		C27.5,33.7,27.7,34,27.8,34.3z"/>
	<circle class="st9" cx="25.7" cy="34.5" r="0.3"/>
	<path class="st8" d="M27.3,31.5c0.6-0.5,1.3-1,2-1.5c1.6-1.2,3.2-2.3,4.8-3.3c0.1-0.1,0.6-0.5,0.6-1.3c0-0.9-0.8-1.3-0.8-1.4
		c-0.6,0-1.4,0.1-2.3,0.5c-0.9,0.4-1.3,1-2.2,1.9c-0.6,0.6-1.5,1.6-2.7,2.8C26.9,30,27.1,30.7,27.3,31.5z"/>
	<path class="st5" d="M32.3,28.2c-1.7,1.1-3.3,2.2-5,3.3c-0.2-0.1-0.5-0.3-0.7-0.7c-0.3-0.6-0.1-1.5,0.6-2.1
		c1.1-1.2,2.2-2.4,3.3-3.6c0.1,0.4,0.3,1,0.7,1.6C31.5,27.3,32,27.8,32.3,28.2z"/>
	<path class="st9" d="M24.4,30.9c0.1-0.5,0.5-0.7,1.2-1.2c0.6-0.4,1-0.6,1.3-0.5c0.5,0.2,0.8,0.9,0.7,1.5c-0.1,1.2-1.7,2.3-2.6,1.9
		C24.6,32.3,24.3,31.5,24.4,30.9z"/>
	<path class="st11" d="M27.6,28.5c0.7,1,0.4,0.7,1.1,1.7c0.8-0.4,1.5-0.8,2.3-1.1c0.3-0.1,0.3-0.6,0.1-0.9l-0.7-1
		c-0.3-0.4-0.7-0.5-1-0.3C28.8,27.3,28.2,27.9,27.6,28.5z"/>
	<g>
		<polygon class="st8" points="30,28.1 29.3,27.8 28.7,28.2 28.8,28.9 28.5,29.1 28.5,29.1 28.5,28 29.3,27.5 30.2,27.9 30,28.1 		
			"/>
		<polygon class="st12" points="30.3,29 29.4,29.5 28.5,29.1 28.8,28.9 28.8,29 29.5,29.3 30.1,28.8 30,28.1 30.2,27.9 30.3,27.9 		
			"/>
		<polygon class="st12" points="29.5,29.3 28.8,29 28.8,28.9 28.7,28.2 29.3,27.8 30,28.1 30,28.1 30.1,28.8 		"/>
		<polygon class="st10" points="30,28.1 28.8,28.9 28.7,28.2 29.3,27.8 30,28.1 		"/>
		<polygon class="st17" points="29.5,29.3 28.8,29 28.8,28.9 30,28.1 30.1,28.8 		"/>
	</g>
	<circle class="st9" cx="17.8" cy="35.8" r="0.4"/>
	<circle class="st9" cx="18.9" cy="36.7" r="0.4"/>
	<circle class="st9" cx="20.3" cy="37.8" r="0.4"/>
	<circle class="st9" cx="30.5" cy="35.9" r="0.4"/>
	<circle class="st9" cx="29.3" cy="36.8" r="0.4"/>
	<g>
		<path class="st7" d="M29.8,19.8c-2.1,3.3-4.8,6.2-7.9,8.6L21.6,28c3.1-2.3,5.9-5.1,8-8.4L29.8,19.8L29.8,19.8z"/>
	</g>
	<path class="st11" d="M32,22.1c0.3-0.1,0.5-0.2,0.8-0.3c0.1,0.2,0.2,0.4,0.3,0.6c-0.2,0.1-0.5,0.1-0.7,0.2"/>
	<path class="st11" d="M32.4,23.1c0.3-0.1,0.5-0.2,0.8-0.3c0.1,0.2,0.2,0.4,0.3,0.6c-0.2,0.1-0.5,0.1-0.7,0.2"/>
	<circle class="st9" cx="32.1" cy="57.6" r="0.4"/>
	<circle class="st9" cx="30.9" cy="58.5" r="0.4"/>
	<circle class="st9" cx="16" cy="57.5" r="0.4"/>
	<circle class="st9" cx="17.2" cy="58.4" r="0.4"/>
	<path class="st37" d="M20,14.8c0,0.1-0.4,0.1-1.4,0.3c-1.2,0.3-1.8,0.6-1.8,0.6c0-0.1,0.4-0.4,1-0.7C18.8,14.5,20,14.7,20,14.8z"/>
	<path class="st38" d="M24.9,15.7c0,0-0.1-0.1-0.3-0.3c-0.2-0.2-0.4-0.3-0.3-0.3c0,0,0.2,0,0.4,0.2C24.8,15.4,24.9,15.7,24.9,15.7z"
		/>
	<path class="st17" d="M23.4,16.3c-0.1-0.2-0.1-0.4-0.1-0.4C23.3,15.9,23.2,16.2,23.4,16.3c0,0.3,0.5,0.3,0.5,0.3
		C23.9,16.6,23.6,16.6,23.4,16.3z"/>
	<path class="st39" d="M28.4,14.4c0,0,0.3-0.1,0.7-0.1c0.3,0,0.4,0.1,0.4,0c0-0.1-0.2-0.3-0.5-0.3C28.6,14,28.4,14.3,28.4,14.4z"/>
	<path class="st8" d="M13.1,29.5c0,0.1,0.6,0.7,1.5,0.9c0.9,0.2,1.7-0.2,1.7-0.3c0-0.1-0.8,0.1-1.8-0.1
		C13.6,29.8,13.2,29.5,13.1,29.5z"/>
	<path class="st40" d="M15.2,19.1c0.1,0,0.2-0.7,1-1.2c0.6-0.4,1-0.4,1.1-0.7c0-0.2-0.4-0.6-0.8-0.5C15.6,16.8,15.1,19.1,15.2,19.1z
		"/>
	<path class="st38" d="M30.9,52.3c0,0-0.1-0.1-0.3-0.3c-0.2-0.2-0.4-0.3-0.3-0.3c0,0,0.2,0,0.4,0.2C30.9,52,31,52.3,30.9,52.3z"/>
	<path class="st17" d="M17.6,53.2c-0.1-0.2-0.1-0.4-0.1-0.4C17.5,52.8,17.4,53.1,17.6,53.2c0,0.3,0.5,0.3,0.5,0.3
		C18,53.5,17.7,53.5,17.6,53.2z"/>
</g>
</svg>
