<?xml version="1.0" encoding="utf-8"?>
<!-- Generator: Adobe Illustrator 26.5.0, SVG Export Plug-In . SVG Version: 6.00 Build 0)  -->
<svg version="1.1" id="form" xmlns="http://www.w3.org/2000/svg" xmlns:xlink="http://www.w3.org/1999/xlink" x="0px" y="0px"
	 viewBox="0 0 40 80" style="enable-background:new 0 0 40 80;" xml:space="preserve">
<style type="text/css">
	.st0{fill:#A2A1A1;}
	.st1{fill:#80171C;}
	.st2{fill:#5E121A;}
	.st3{fill:#372549;}
	.st4{fill:#231830;}
	.st5{fill:#1D1527;}
	.st6{fill:none;stroke:#1D1E1C;stroke-width:1.6065;stroke-miterlimit:10;}
	.st7{fill:none;stroke:#1D1E1C;stroke-width:0.8033;stroke-miterlimit:10;}
	.st8{fill:#252626;stroke:#1D1D1B;stroke-width:0.3931;stroke-miterlimit:10;}
	.st9{fill:none;stroke:#1D1D1B;stroke-width:0.3931;stroke-miterlimit:10;}
	.st10{fill:#2E213D;}
	.st11{fill:#422F58;}
	.st12{fill:#3F3254;}
	.st13{fill:#1D1527;stroke:#231635;stroke-width:0.3931;stroke-miterlimit:10;}
	.st14{fill:none;stroke:#1D1D1B;stroke-width:0.4259;stroke-miterlimit:10;}
	.st15{fill:#DD872A;}
	.st16{fill:#EAB52F;}
	.st17{fill:none;stroke:#784B22;stroke-width:0.3931;stroke-miterlimit:10;}
	.st18{fill:#5C506D;}
	.st19{fill:#3E324C;}
	.st20{fill:none;}
	.st21{fill:#C0A278;}
	.st22{fill:#7C7C7C;}
	.st23{fill:#ADACAC;}
	.st24{fill:#D0D0D0;}
	.st25{fill:#432C15;}
	.st26{fill:url(#SVGID_1_);}
	.st27{fill:#347680;}
	.st28{fill:#2D6167;}
	.st29{fill:#183233;}
	.st30{fill:#214249;}
	.st31{fill:#204649;}
	.st32{fill:#2B5863;}
	.st33{fill:#3D2818;}
	.st34{fill:#56381C;stroke:#3D2818;stroke-width:0.3931;stroke-miterlimit:10;}
	.st35{fill:#B97023;}
	.st36{fill:#56381C;stroke:#3D2818;stroke-width:0.2844;stroke-miterlimit:10;}
	.st37{fill:none;stroke:#DD872A;stroke-width:0.2948;stroke-miterlimit:10;}
	.st38{fill:#DDDDDD;}
</style>
<g>
	<path class="st0" d="M30.8,19.2c0.2,0.2,0.3,0.3,0.4,0.6C31.1,19.5,30.9,19.3,30.8,19.2z"/>
	<path class="st0" d="M30.5,18.9c0.1,0,0.2,0.1,0.3,0.2C30.7,19.1,30.6,19,30.5,18.9z"/>
	<path class="st1" d="M11.6,63.2c-1.1-0.4-2.9-1.1-4.6-2.7C4.4,58,3.5,55,3.2,53.7c2.3-2.1,7.5-7.4,10.2-16.3
		c0.5-1.7,0.8-3.3,1.1-4.9c0,0,0,0,0,0c0-1.7-0.1-8.8,2.4-9.6c2.6-0.9,7.2,5,8.7,10.1C29.3,46.3,13.6,61.4,11.6,63.2z"/>
	<path class="st2" d="M16.2,24c0,0-2.4,18.4-13.1,29.5c0,0,1,5,2.8,7.5C6,61,16.5,49.1,16.2,24z"/>
	<path class="st1" d="M29.8,14l-2.6,3.3h0c-1.1,1.5-2.2,3-3.4,4.5h-1.6c-1.4-1.9-2.8-3.7-4.1-5.6h0L16.3,14l2.4-3.2l8.7,0L29.8,14z"
		/>
	<path class="st2" d="M28.6,13.5l-2.1,2.7h0c-0.9,1.2-1.8,2.5-2.8,3.7h-1.4c-1.1-1.5-2.3-3.1-3.4-4.6h0l-1.5-1.8l2-2.6l7.2,0
		L28.6,13.5z"/>
	<path class="st1" d="M32.4,39.2l1.9-6.4l-3.1-11.6c-3.5,3.1-7,6.2-10.6,9.4c3,5,6.1,9.9,9.1,14.9v0.8v1l2.6-7.7
		c-0.3,1.1-0.7,2.2-1.1,3.3"/>
	<path class="st3" d="M24.8,35h5c-0.1-0.5-0.1-1-0.2-1.5c-0.2-1.8-0.2-3.5-0.2-5.2c0-1,0-2.1,0.1-3.1c-5.2,2.5-6.3,4-6.3,4.9
		c0,0.2,0,1.2,0,2.7c0,0.4,0,0.7,0,0.9"/>
	<path class="st4" d="M22.4,30v4.1l-1,0.8h-5c0.1-0.5,0.1-1,0.2-1.5c0.2-1.8,0.2-3.5,0.2-5.2c0-1,0-2-0.1-3c0,0,0,0,0,0
		c1.6,1.9,2.4,4.1,2.6,4.7H22.4z"/>
	<path class="st3" d="M23,29.9c0,0.2,0,1.2,0,2.6c0,0.4,0,0.7,0,0.9L22.4,34v-4.1h-3.1c-0.2-0.6-1-2.8-2.6-4.7c0,0,0,0,0,0
		c0,0,0,0,0,0c3.3,1.6,4.9,2.7,5.7,3.6C22.9,29.2,23,29.6,23,29.9L23,29.9z"/>
	<path class="st5" d="M16.8,25.1c1.4,2.2,2,4.5,2.2,5.3h8.5c0.1-0.6,0.7-3,2-5.3H16.8z"/>
	<path class="st6" d="M13.9,47.7"/>
	<path class="st7" d="M8.3,41.7"/>
	<path class="st5" d="M18.1,9.2c0.1,0,0.1,0,0.2,0l-0.8,1.4h-0.1c0,0,0,0,0,0c0,0-0.1,0-0.1,0c-0.3,0-0.7-0.1-1-0.1c0,0,0,0,0,0
		c0,0,0,0,0,0C16.6,10.4,17.5,9.6,18.1,9.2z"/>
	<path class="st5" d="M17.7,8.2c-2.2,0-4.4-0.1-6.6-0.2h7.3C18.2,8.1,18,8.2,17.7,8.2z"/>
	<path class="st5" d="M35.2,8.7c0,0.9-2.6,1.7-6.4,2.1c-0.3-0.3-0.4-0.7-0.4-0.7c0,0,0,0,0.1,0c0.3,0.3,1.1,0,1.1,0
		c-0.4-0.1-1.5-1.2-2-1.6c-0.1-0.1-0.2-0.2-0.2-0.2c0,0,0,0,0,0l0,0c0.4,0,0.7,0,1.1,0c2.2,0,4.4,0,6.6-0.1
		C35.2,8.4,35.2,8.5,35.2,8.7z"/>
	<path class="st5" d="M27.6,8.5c0.5,0.5,1.6,1.5,2,1.6c0,0-0.8,0.3-1.1,0c0,0,0,0-0.1,0c0,0,0.1,0.4,0.4,0.7c0,0,0,0-0.1,0l-1.3-2.2
		C27.5,8.5,27.5,8.5,27.6,8.5z"/>
	<path class="st5" d="M35,8.2c-2.2,0-4.3,0.1-6.6,0.1l0-0.1H35z"/>
	<path class="st8" d="M23.4,10.8h-0.9c0.2-0.2,0.3-0.4,0.5-0.4C23.1,10.4,23.2,10.6,23.4,10.8z"/>
	<line class="st9" x1="17.2" y1="5" x2="17.2" y2="5"/>
	<path class="st4" d="M19.7,18.4c-0.1,1-0.1,1.8-0.1,2.4c-0.5-0.2-0.9-0.3-1.1-0.4c-2.1-0.9-3.5-2.2-4.5-3.3
		c0.2-0.1,0.3-0.3,0.3-0.5c0-0.3-0.3-0.6-0.7-0.6c0,0,0,0,0,0c0.3-0.2,0.7-0.2,0.7-0.2c0,0,0.1,0,0.1,0c0.7-0.2,1.7-0.4,2.8-0.6l0,0
		L19.7,18.4z"/>
	<path class="st10" d="M22.4,27.6v2.3h-3.1c-0.2-0.6-1-2.8-2.6-4.7c0,0,0,0,0,0c-0.2-0.2-0.4-0.4-0.6-0.6c-0.8-0.7-1.7-1.4-2.8-1.8
		c-0.3-0.1-0.6-0.2-0.9-0.3c0,0-0.1,0-0.1,0c0,0,0,0,0,0c-0.5-0.1-0.9-0.1-1.3-0.2c0.7-1.7,1.3-3.4,2-5.1c0-0.1,0-0.3,0-0.4
		c0.1,0.2,0.3,0.4,0.6,0.4c0.2,0,0.3-0.1,0.4-0.1c0.9,1.1,2.4,2.5,4.5,3.3c0.2,0.1,0.5,0.2,1.1,0.4c0,0.3,0,0.6,0,0.9
		c0,0.3,0.1,0.5,0.1,0.7c0,0.1,0,0.2,0,0.3c0.2,1,0.4,1.8,0.7,2.5c0,0.1,0.1,0.2,0.1,0.2c0.1,0.2,0.2,0.4,0.3,0.6
		C21.3,26.6,21.9,27.1,22.4,27.6z"/>
	<path class="st3" d="M34.7,22.4c-0.1,0-0.3,0-0.4,0c-0.1,0-0.3,0-0.4,0c0,0,0,0-0.1,0h0c-0.5,0.1-0.9,0.2-1.2,0.3
		c-1.2,0.4-2.2,1.2-3,2.1l0,0v0c-0.1,0.1-0.1,0.1-0.2,0.2v0c-1.6,1.9-2.2,4.2-2.4,4.7h-4v-1.7c0.1,0,0.1,0.1,0.2,0.1
		c0.1-0.1,0.3-0.2,0.4-0.3c0.6-0.4,1.3-1.1,1.9-2.2c0.1-0.1,0.1-0.2,0.2-0.3c0-0.1,0.1-0.2,0.1-0.3c0.1-0.2,0.2-0.4,0.2-0.6
		c0-0.1,0.1-0.2,0.1-0.3c0-0.1,0.1-0.2,0.1-0.3c0,0,0-0.1,0-0.1c0,0,0-0.1,0-0.1c0.1-0.3,0.1-0.5,0.1-0.7c0-0.2,0-0.3,0-0.4
		c0-0.4,0-0.7,0-0.9c0-0.3,0-0.6,0-0.9c0.7-0.2,1.3-0.5,2-0.9c1.5-0.9,2.6-2,3.4-2.9c0.1,0.1,0.2,0.1,0.4,0.1c0.4,0,0.6-0.2,0.7-0.6
		c0.1,0.2,0.1,0.4,0.1,0.6C33.6,19,34.2,20.7,34.7,22.4z"/>
	<path class="st10" d="M23.1,28.2v1.7h-0.7v-2.3C22.7,27.8,22.9,28,23.1,28.2z"/>
	<path class="st11" d="M31.6,16.6c0,0.2,0.1,0.4,0.3,0.5c-0.7,0.9-1.8,2-3.4,2.9c-0.7,0.4-1.3,0.7-2,0.9c0-0.8-0.1-1.6-0.2-2.5
		l2.5-3.3c1.2,0.2,2.2,0.5,2.9,0.6c0.3,0,0.5,0.1,0.7,0.2c-0.1,0-0.1,0-0.2,0C31.9,16,31.6,16.3,31.6,16.6z"/>
	<polyline class="st5" points="24.7,34.9 29.7,34.9 29.7,35.8 24.7,35.8 	"/>
	<polyline class="st5" points="21.4,35.8 16.4,35.8 16.4,34.9 21.4,34.9 	"/>
	<path class="st3" d="M29.6,24.9L29.6,24.9l0,0.3C29.7,25.2,29.6,25,29.6,24.9L29.6,24.9z"/>
	<path class="st3" d="M35.6,33.7c0,0-0.1-0.1-0.2-0.1c-0.5-0.5-3.1,2.3-3.1,2.3c-0.3,0.3-0.8,0.8-1.3,1.4c-0.4-3-0.8-6.1-1.2-9.3
		c0-0.4-0.1-0.7-0.1-1.1c0.5-0.5,1.4-1.3,2.7-1.7c0.7-0.2,1.3-0.4,1.8-0.4c0.1,0.3,0.1,0.6,0.2,0.9c0,0,0.2,0.9,1.2,7.7
		C35.7,33.5,35.7,33.7,35.6,33.7z"/>
	<path class="st12" d="M37.5,78.4c-1.2,0.2-6.7,1.4-7.1,1.4c-1.8-9.2-3.5-19-4.8-29.4c-0.6-4.6-1.1-9.2-1.6-13.6l0.6-1h5.2
		c1.5,6.7,3,13.8,4.4,21.2C35.4,64.4,36.6,71.5,37.5,78.4z"/>
	<path class="st13" d="M30.4,79.6C30.4,79.6,30.3,79.6,30.4,79.6c-0.3,0-0.5,0.1-0.8,0.1c-0.5,0.1-1.1,0.1-1.6,0.2
		c-0.3,0-0.6,0-0.9,0.1c-0.2,0-0.4,0-0.7,0c-0.1,0-0.3,0-0.4,0c-0.2,0-0.3,0-0.5,0c-0.3,0-0.5,0-0.8,0c-0.1,0-0.1,0-0.2,0
		c-0.3,0-0.6,0-0.8,0c-0.3,0-0.7,0-1,0c-0.4,0-0.8,0-1.2,0c-0.2,0-0.4,0-0.6,0c-0.4,0-0.8,0-1.2-0.1c-0.2,0-0.4,0-0.6,0
		c-0.4,0-0.8-0.1-1.3-0.1c-0.1,0-0.3,0-0.4,0c-0.1,0-0.1,0-0.2,0c-0.1,0-0.1,0-0.2,0c-0.2,0-0.5-0.1-0.7-0.1c-0.5-0.1-1-0.1-1.2-0.2
		c1.8-9.3,3.5-18.9,4.9-28.9c0.7-4.5,1.3-9,1.8-13.4H24c0.4,4.4,1,8.9,1.6,13.5C26.9,60.8,28.5,70.4,30.4,79.6z"/>
	<path class="st0" d="M28.9,10.8c-0.3-0.3-0.5-0.7-0.4-0.7L28.9,10.8L28.9,10.8z"/>
	<line class="st14" x1="26.6" y1="20.9" x2="26.6" y2="20.9"/>
	<path class="st15" d="M14.3,16.6c0,0.2-0.1,0.4-0.3,0.5c-0.3-0.3-0.5-0.6-0.7-0.9c0.1-0.1,0.2-0.1,0.2-0.2c0,0,0,0,0,0
		C14,16,14.3,16.3,14.3,16.6z"/>
	<path class="st16" d="M14,17.1c-0.1,0.1-0.3,0.1-0.4,0.1c-0.3,0-0.5-0.2-0.6-0.4c0.1-0.2,0.2-0.5,0.4-0.6
		C13.5,16.5,13.7,16.8,14,17.1z"/>
	<path class="st16" d="M33,16.7L33,16.7c0,0.3-0.3,0.6-0.7,0.6c-0.1,0-0.3,0-0.4-0.1c0.3-0.4,0.5-0.7,0.7-1
		C32.8,16.3,32.9,16.5,33,16.7z"/>
	<path class="st15" d="M32.6,16.2c-0.2,0.3-0.4,0.6-0.7,1c-0.2-0.1-0.3-0.3-0.3-0.5c0-0.3,0.3-0.6,0.7-0.6c0.1,0,0.1,0,0.2,0
		C32.5,16.1,32.6,16.1,32.6,16.2z"/>
	<path class="st0" d="M20.3,8.2C20.3,8.2,20.3,8.2,20.3,8.2c-0.2,0.3-0.3,0.6-0.4,0.9c0,0.1,0,0.2,0,0.3l0,1.2c0,0.1,0,0.1,0,0.2
		c0,0,0,0,0,0.1h-1.1C18,11.9,17.1,13,16.3,14l0.9,1.1h0c-1.3,0.2-2.3,0.5-2.9,0.6l0,0l2.4-4c-0.3-0.1-0.5-0.2-0.5-0.2
		c0.5,0.1,1.1-0.7,1.2-0.9c0-0.1,0-0.1,0,0c0,0,0,0,0,0c-0.3,0.2-0.9-0.1-1-0.1c0,0,0,0,0,0c0,0,0,0,0,0c0.4-0.1,1.3-0.9,1.9-1.3
		C18.2,9.1,18.3,9,18.3,9l0.5-0.8l0,0H20.3z"/>
	<path class="st3" d="M15.8,27c0,0.2,0,0.3-0.1,0.5c-0.9,5.2-2.5,8.6-4.5,9.3c0-0.7-0.9-2-2.1-3.4c-1.3-1.4-2.7-2.3-3.3-2.2
		c0-0.1,0-0.1,0-0.2c1.1-0.6,2.6-1.6,3.9-3.3c0.6-0.7,1.1-1.4,1.5-2.2c0,0,0,0,0,0c0.3-0.6,0.6-1.2,0.8-1.8c0.5,0.2,1.3,0.6,2,1.3
		C14.9,25.7,15.5,26.5,15.8,27z"/>
	<path class="st3" d="M16.1,24.9c0,0.2,0,0.4-0.1,0.5C16.1,25.2,16.1,25,16.1,24.9C16.1,24.9,16.1,24.9,16.1,24.9z"/>
	<path class="st5" d="M11.3,36.6c-0.3,0.3-1.1-0.2-2-1c0.3-0.3,0.5-0.8,0.5-1.3c0-1-0.7-1.7-1.5-1.7c-0.4,0-0.8,0.2-1.1,0.6
		c-0.7-1.1-1-2-0.7-2.2c0.4-0.4,1.8,0.6,3.1,2.2C10.9,34.6,11.7,36.2,11.3,36.6z"/>
	<path class="st5" d="M32.2,36.1c0,0.5,0.1,0.9,0.4,1.2c-0.6,0.4-1.2,0.5-1.4,0.2c-0.3-0.4,0.3-1.5,1.3-2.6
		C32.3,35.3,32.2,35.6,32.2,36.1z"/>
	<path class="st5" d="M34.9,35.1c-0.3-0.6-0.7-0.9-1.3-0.9c-0.1,0-0.3,0-0.4,0.1c1-0.7,1.8-1.1,2.1-0.7
		C35.6,33.8,35.4,34.4,34.9,35.1z"/>
	<path class="st17" d="M14.1,47.2"/>
	<path class="st17" d="M8.5,41.3"/>
	<rect x="22.4" y="30.3" class="st5" width="1.3" height="3.3"/>
	<path class="st18" d="M16.1,24.6c0,0.1,0,0.2,0,0.3c0,0.2,0,0.4,0,0.5c-0.1,0.5-0.1,1.1-0.2,1.6c0,0,0,0,0,0
		c-0.4-0.6-0.9-1.3-1.7-2c-0.8-0.6-1.5-1-2-1.3c0.1-0.4,0.1-0.8,0.2-1.2c0,0,0,0,0,0c0,0,0.1,0,0.1,0c0.3,0.1,0.6,0.2,0.9,0.3
		C14.4,23.2,15.4,23.9,16.1,24.6z"/>
	<path class="st19" d="M15.8,27c0.1-0.5,0.2-1,0.2-1.6C16,26,15.9,26.5,15.8,27z"/>
	<path class="st18" d="M34.2,24.8c-0.5,0-1.1,0.2-1.8,0.4c-1.2,0.5-2.1,1.2-2.7,1.7c-0.1-0.5-0.1-1.1-0.2-1.6v-0.4
		c0.8-0.9,1.8-1.7,3-2.1c0.4-0.1,0.8-0.2,1.2-0.3h0C34,23.4,34.1,24.1,34.2,24.8z"/>
	<line class="st20" x1="23.1" y1="28.2" x2="23.1" y2="26.6"/>
	<line class="st20" x1="23.1" y1="29.9" x2="23.1" y2="29.9"/>
	<path class="st0" d="M29,15.1l0.8-1.1c-0.8-1.1-1.6-2.1-2.4-3.2h-1.1c0,0,0,0,0-0.1c0-0.1,0-0.1,0-0.2l0-1.2c0-0.3-0.1-0.6-0.2-0.8
		c-0.1-0.1-0.1-0.3-0.2-0.4c0,0,0,0,0,0h1.4l0,0l0,0c0,0,0,0,0,0c0,0,0.1,0.1,0.2,0.2c0.5,0.5,1.6,1.5,2,1.6c0,0-0.8,0.3-1.1,0
		c0,0,0,0-0.1,0c0,0,0.1,0.4,0.4,0.7c0,0,0,0,0.1,0.1c0,0,0,0,0,0c0.2,0.2,0.5,0.4,0.7,0.4c0,0-0.2,0.1-0.4,0.1l2.6,4.4
		C31.2,15.6,30.2,15.4,29,15.1z"/>
	<path class="st21" d="M26.3,9.5c0-0.3,0-0.5-0.1-0.8c-1.8,0.2-4.2,0.4-6.3,0.5c0,0.1,0,0.2,0,0.3l0,0.9l0,0.9c0,0.2,0,0.3,0.1,0.5
		c0.1,0.3,0.2,0.5,0.3,0.8h5.7c0.1-0.1,0.1-0.2,0.2-0.3v0c0.1-0.3,0.2-0.6,0.2-1l0-0.9L26.3,9.5z M23.4,10.8c-0.1,0-0.3,0-0.4,0
		c-0.2,0-0.4,0-0.6,0c-0.5,0-1.1-0.1-1.6-0.4c0,0,0,0,0,0c0,0,0,0,0,0c0,0,0,0,0,0c0.2-0.1,0.3-0.2,0.5-0.3c0.1,0,0.1,0,0.2-0.1
		c0.5-0.2,1-0.1,1.5-0.1c0.5,0,1.1,0,1.6,0.3c0.1,0,0.2,0.1,0.2,0.1c0,0,0.1,0,0.1,0.1c0,0,0,0,0,0C24.4,10.7,23.9,10.8,23.4,10.8z"
		/>
	<path class="st5" d="M18.7,8.2L18.3,9c-0.1,0-0.1,0.1-0.2,0.2c-0.5,0.4-1.5,1.2-1.8,1.3c0,0,0,0,0,0c-3.2-0.4-5.3-1.2-5.3-2
		c0-0.2,0.1-0.3,0.2-0.4c2.2,0.1,4.4,0.1,6.6,0.2C18.1,8.2,18.4,8.2,18.7,8.2z"/>
	<path class="st22" d="M27.6,8.5c-0.1,0-0.1,0-0.2,0c-0.4,0-0.8,0.1-1.3,0.1h0c-1.8,0.2-4.2,0.4-6.3,0.5h0c-0.5,0-1.1,0-1.5,0
		c-0.1,0-0.1,0-0.2,0C18.1,9.1,18.2,9,18.3,9l0.5-0.8c0.5,0,1,0,1.4,0c1,0,1.9,0,2.9,0c1,0,1.9,0,2.9,0c0.5,0,1,0,1.4,0l0,0
		c0,0,0,0,0,0C27.4,8.3,27.5,8.4,27.6,8.5z"/>
	<path class="st3" d="M28.5,8.2L28.5,8.2c-0.2,0-0.4,0-0.6,0c-0.1,0-0.1-0.1-0.2-0.1C27.4,8,27.2,8,27,8c-0.1,0-0.2,0-0.4,0
		c-0.2,0-0.4,0-0.6,0h-8.4c0.3-0.1,0.5-0.2,0.8-0.4c1-0.9,0.8-2.6,0.8-2.8l-2,0.1c0-0.1,0.1-0.2,0.1-0.3c1-2.1,2.8-3.5,4.7-3.6
		c1.5-0.1,2.7,0.6,3.2,0.9c1,2,2.1,4.1,3.1,6.1C28.4,8.1,28.4,8.1,28.5,8.2C28.5,8.2,28.5,8.2,28.5,8.2z"/>
	<g>
		<path class="st5" d="M17.2,4.8c0.9,0.2,1.9,0,2.7-0.6c0,0,0.1,0,0.1,0c0,0-0.1,0-0.1,0c0.2-0.2,0.5-0.4,0.6-0.6c0,0,0,0.1,0,0.1
			c0.1-0.5,0.1-1.1-0.3-1.3L20.6,2c0.6,0.5,0.5,1.3,0.2,1.9c-0.8,1-2.1,1.5-3.6,1.3c0,0,0,0,0,0C17.2,5.2,17.2,4.8,17.2,4.8
			L17.2,4.8z"/>
	</g>
	<path class="st10" d="M35,8.2c-2.2,0-4.3,0.1-6.6,0.1c-0.4,0-0.7,0-1.1,0c-0.5,0-1,0-1.4,0c-0.9,0-1.9,0-2.9,0c-1,0-2,0-2.9,0
		c-0.5,0-1,0-1.4,0c-0.3,0-0.6,0-1,0c-2.2,0-4.4-0.1-6.6-0.2c0.1-0.1,0.3-0.2,0.4-0.3c7.6,0,15.3,0.1,22.9,0.1
		C34.7,8,34.8,8.1,35,8.2z"/>
	<ellipse class="st11" cx="14.2" cy="18.4" rx="0.4" ry="0.4"/>
	<ellipse class="st11" cx="15.7" cy="19.5" rx="0.4" ry="0.4"/>
	<ellipse class="st11" cx="16.9" cy="20.5" rx="0.4" ry="0.4"/>
	<ellipse class="st11" cx="29.2" cy="20.5" rx="0.4" ry="0.4"/>
	<ellipse class="st11" cx="30.4" cy="19.5" rx="0.4" ry="0.4"/>
	<ellipse class="st11" cx="31.6" cy="18.4" rx="0.4" ry="0.4"/>
	<g>
		<path class="st0" d="M27.8,20.4C27.5,28,19.6,31.6,19,30.6c-0.1-0.2,0.2-0.6,0.4-1.6c0.6-3.3-1.2-5.6-1.6-8.6
			c-0.5-4.2,2.2-10.2,5-10.2C25.4,10.1,28,15.6,27.8,20.4z"/>
		<path class="st23" d="M26.2,20.7c-1.4,6.3-8.9,6.5-9.3,5.4c-0.1-0.2,0.2-0.4,0.6-1.2c0.9-2.1,0.2-3.9,0.4-6.6
			c0.3-3.6,2-5.9,2.2-6.2c0.5-0.6,1.9-2.4,3.3-2C25.5,10.9,27,16.7,26.2,20.7z"/>
		<path class="st24" d="M21.6,10.6c-1.5,0.8-2.3,2.5-2.8,3.6C17,18,16.9,23,17.4,23.3c0.1,0.1,0.2-0.3,0.7-0.8
			c1.2-1.3,2.2-0.8,3.7-1.5c0.2-0.1,2.1-0.9,3.4-3.4c0.5-0.9,1-1.9,1-3.3c0-1.9-1.2-3.5-2.4-4C22.8,10,22,10.4,21.6,10.6z"/>
	</g>
	<polygon class="st18" points="33.6,73.7 32.6,73.2 31.6,73.8 31.7,72.5 30.9,71.7 32,71.5 32.5,70.3 33.1,71.4 34.3,71.6 
		33.4,72.5 	"/>
	<polygon class="st18" points="34.9,65.1 33.8,65.7 33.7,67 32.8,66 31.7,66.3 32.2,65.1 31.7,64 32.8,64.2 33.7,63.3 33.8,64.6 	
		"/>
	<polygon class="st18" points="30.5,52.8 29.4,53.4 29.2,54.6 28.4,53.7 27.2,53.9 27.8,52.8 27.2,51.7 28.4,51.9 29.2,51 
		29.4,52.2 	"/>
	<polygon class="st18" points="30,41.3 29,41.8 28.8,43.1 28,42.2 26.8,42.4 27.4,41.3 26.8,40.1 28,40.3 28.8,39.4 29,40.7 	"/>
	<polygon class="st18" points="32.8,56.2 32.2,55.7 31.5,55.9 31.8,55.2 31.4,54.5 32.1,54.6 32.6,54 32.8,54.7 33.5,55 32.8,55.4 	
		"/>
	<polygon class="st18" points="31.5,69.8 30.9,69.2 30.2,69.5 30.5,68.7 30.1,68.1 30.8,68.1 31.3,67.5 31.4,68.3 32.1,68.6 
		31.5,69 	"/>
	<polygon class="st18" points="33.3,62.4 32.8,61.9 32.1,62.1 32.3,61.4 31.9,60.7 32.7,60.8 33.1,60.2 33.3,60.9 34,61.2 
		33.4,61.6 	"/>
	<polygon class="st18" points="30,59 29.4,58.5 28.7,58.7 29,58 28.6,57.3 29.3,57.4 29.8,56.8 30,57.5 30.7,57.8 30,58.2 	"/>
	<polygon class="st18" points="29.2,48 28.7,47.5 28,47.7 28.2,47 27.8,46.3 28.6,46.4 29,45.8 29.2,46.5 29.9,46.8 29.3,47.2 	"/>
	<polygon class="st18" points="31.2,51.6 30.6,51.1 29.9,51.3 30.2,50.6 29.8,49.9 30.5,50 31,49.4 31.1,50.1 31.8,50.4 31.2,50.8 	
		"/>
	<polygon class="st18" points="26.9,45.4 26.4,44.8 25.7,45.1 26,44.3 25.5,43.7 26.3,43.7 26.7,43.1 26.9,43.9 27.6,44.2 27,44.6 	
		"/>
	<polygon class="st18" points="26.7,38.2 26.2,37.7 25.5,37.9 25.7,37.2 25.3,36.5 26.1,36.6 26.5,36 26.7,36.7 27.4,37 26.8,37.4 	
		"/>
	<line class="st25" x1="6.9" y1="19.2" x2="10.9" y2="72"/>
	
		<radialGradient id="SVGID_1_" cx="-24.8086" cy="29.4747" r="5.3958" gradientTransform="matrix(0.9939 -0.1189 0.1107 1.0678 27.289 -22.2506)" gradientUnits="userSpaceOnUse">
		<stop  offset="0" style="stop-color:#3CE8DF;stop-opacity:0.6"/>
		<stop  offset="1" style="stop-color:#34D5FF;stop-opacity:0"/>
	</radialGradient>
	<ellipse class="st26" cx="5.9" cy="12.2" rx="5.4" ry="5.8"/>
	<path class="st27" d="M7,12.5L7,12.5L5.5,8.2C6.3,9.6,7.2,11,8,12.3L7,12.5z"/>
	<path class="st28" d="M8,12.4c-0.5,0.8-0.9,1.6-1.4,2.3l-0.5,0.1L7,12.5L8,12.4C8,12.4,8,12.4,8,12.4z"/>
	<polygon class="st29" points="6.2,14.8 5.5,14.9 3.9,12.8 4.9,12.7 	"/>
	<polygon class="st30" points="7,12.5 6.2,14.8 6.2,14.8 4.9,12.7 	"/>
	<path class="st31" d="M5.5,8.2l-0.7,4.5l-1,0.1C4.4,11.3,5,9.7,5.5,8.2z"/>
	<polygon class="st32" points="7,12.4 7,12.5 4.9,12.7 5.5,8.2 	"/>
	<polygon class="st25" points="7.4,15.8 4.9,16.1 3.8,14.3 3.6,14.8 5,17.1 7.5,16.9 8.4,14.3 8.1,13.8 	"/>
	<line class="st20" x1="6.2" y1="14.8" x2="6.2" y2="14.8"/>
	<line class="st20" x1="8" y1="12.3" x2="8" y2="12.3"/>
	<line class="st32" x1="6.2" y1="14.8" x2="6.2" y2="14.8"/>
	<g>
		<path class="st27" d="M4.3,9.2L4.3,9.2L3.6,7.3C4,7.9,4.3,8.6,4.7,9.2L4.3,9.2z"/>
		<path class="st28" d="M4.7,9.2c-0.2,0.3-0.4,0.7-0.6,1l-0.2,0l0.4-1.1L4.7,9.2C4.7,9.2,4.7,9.2,4.7,9.2z"/>
		<polygon class="st29" points="3.9,10.3 3.6,10.3 2.9,9.4 3.3,9.4 		"/>
		<polygon class="st30" points="4.3,9.2 3.9,10.3 3.9,10.3 3.3,9.4 		"/>
		<path class="st31" d="M3.6,7.3l-0.3,2L2.9,9.4C3.1,8.7,3.4,8,3.6,7.3z"/>
		<polygon class="st32" points="4.3,9.2 4.3,9.2 3.3,9.4 3.6,7.3 		"/>
		<line class="st20" x1="4.7" y1="9.2" x2="4.7" y2="9.2"/>
	</g>
	<g>
		<path class="st27" d="M8.5,10.1L8.5,10.1L8,8.8C8.3,9.2,8.5,9.6,8.8,10L8.5,10.1z"/>
		<path class="st28" d="M8.8,10.1c-0.1,0.2-0.3,0.5-0.4,0.7l-0.1,0l0.2-0.7L8.8,10.1C8.8,10.1,8.8,10.1,8.8,10.1z"/>
		<polygon class="st29" points="8.2,10.8 8,10.8 7.6,10.2 7.8,10.2 		"/>
		<polygon class="st30" points="8.5,10.1 8.2,10.8 8.2,10.8 7.8,10.2 		"/>
		<path class="st31" d="M8,8.8l-0.2,1.3l-0.3,0C7.7,9.7,7.9,9.3,8,8.8z"/>
		<polygon class="st32" points="8.5,10.1 8.5,10.1 7.8,10.2 8,8.8 		"/>
		<line class="st20" x1="8.8" y1="10" x2="8.8" y2="10"/>
	</g>
	<path class="st33" d="M13.6,75.2l-2.4,0.3c-1-13.5-2.3-27.3-4-41.5c-0.7-5.7-1.4-11.4-2.1-17c0.8-0.1,1.6-0.2,2.4-0.3
		c0.4,5.7,0.9,11.4,1.4,17.2C10.2,48.1,11.8,61.9,13.6,75.2z"/>
	<ellipse class="st34" cx="7.2" cy="25.7" rx="1.8" ry="1.9"/>
	<g>
		<polygon class="st35" points="13.8,76.9 11.4,77.2 9.9,75.2 10.8,72.9 13.2,72.6 14.7,74.6 		"/>
		<polygon class="st15" points="13.4,76.3 11.7,76.5 10.7,75.1 11.3,73.5 12.9,73.3 14,74.7 		"/>
	</g>
	<ellipse class="st36" cx="9" cy="42.9" rx="1.3" ry="1.4"/>
	<ellipse class="st36" cx="9.7" cy="49.6" rx="1.3" ry="1.4"/>
	<polygon class="st33" points="7.4,16.5 5,16.7 3.9,14.9 3.7,15.5 5.1,17.8 7.5,17.5 8.5,15 8.2,14.5 	"/>
	<path class="st4" d="M22.1,36.8c-0.6,4.5-1.2,9-1.8,13.6c-1.5,10.1-3.1,19.9-4.9,29.3h0c-0.9-0.1-3.2-0.6-6.3-1.3
		c2.5-14.2,4.9-28.3,7.4-42.5h5.2L22.1,36.8z"/>
	<polygon class="st10" points="19,44.2 18.1,43.4 17,43.6 17.5,42.5 16.9,41.4 18,41.5 18.8,40.6 19.1,41.8 20.1,42.4 19.1,43 	"/>
	<polygon class="st10" points="17.5,51.6 17.2,52.8 18,53.8 16.9,53.9 16.3,55 15.8,53.9 14.7,53.6 15.5,52.8 15.4,51.5 16.4,52.2 	
		"/>
	<polygon class="st10" points="14.7,74.8 14.4,76.1 15.2,77 14.1,77.1 13.5,78.2 13,77.1 11.8,76.9 12.7,76 12.6,74.7 13.6,75.4 	
		"/>
	<polygon class="st10" points="15.3,65.4 14.4,64.6 13.2,64.9 13.7,63.7 13,62.7 14.2,62.8 14.9,61.8 15.2,63 16.3,63.5 15.3,64.1 	
		"/>
	<polygon class="st10" points="15.9,48.5 15.4,47.9 14.7,48.2 14.9,47.4 14.5,46.8 15.3,46.8 15.7,46.2 15.9,47 16.6,47.3 16,47.7 	
		"/>
	<polygon class="st10" points="18.6,39.1 18.1,38.6 17.4,38.8 17.6,38 17.2,37.4 18,37.4 18.4,36.8 18.6,37.6 19.3,37.9 18.7,38.3 	
		"/>
	<polygon class="st10" points="17.5,58.9 16.9,58.4 16.2,58.6 16.5,57.9 16.1,57.3 16.8,57.3 17.3,56.7 17.5,57.5 18.2,57.7 
		17.5,58.1 	"/>
	<polygon class="st10" points="14.4,71.2 13.8,70.7 13.1,70.9 13.4,70.2 13,69.5 13.7,69.6 14.2,69 14.4,69.7 15,70 14.4,70.4 	"/>
	<polygon class="st10" points="14.6,61.2 14.1,60.7 13.4,60.9 13.6,60.1 13.2,59.5 14,59.5 14.4,58.9 14.6,59.7 15.3,60 14.6,60.4 	
		"/>
	<polygon class="st10" points="19.3,48.4 18.8,47.9 18.1,48.1 18.3,47.4 17.9,46.7 18.7,46.8 19.1,46.1 19.3,46.9 20,47.2 
		19.4,47.6 	"/>
	<path class="st22" d="M9.7,33.7c0,0.1,0.1,0.2,0.1,0.3c0.1,0.4,0,0.8-0.2,1.1c-0.2,0.3-0.4,0.6-0.8,0.7c-0.7,0.2-1.4-0.1-1.8-0.8
		C7,34.9,7,34.8,7,34.7c-0.1-0.4-0.1-0.9,0-1.2c0.2-0.4,0.5-0.8,0.9-0.9C8.6,32.3,9.5,32.8,9.7,33.7z"/>
	<polygon class="st15" points="24.9,35.4 24.7,35.8 24.5,36.1 24.5,36.1 24,37.1 22.1,37.1 21.5,36.1 21.4,35.8 21.2,35.4 
		21.4,34.9 21.4,34.9 22.1,33.6 24,33.6 24.7,34.9 24.7,34.9 	"/>
	<polygon class="st16" points="24.4,35.4 24.2,35.7 24.1,35.9 24.1,35.9 23.7,36.6 22.4,36.6 22,35.9 21.9,35.7 21.7,35.4 21.9,35 
		21.9,35 22.4,34.1 23.7,34.1 24.2,35 24.2,35 	"/>
	<path class="st21" d="M9.8,34.5c-0.1,0.4-0.2,0.7-0.5,1c-0.3,0.3-0.6,0.4-1,0.4c-0.7,0-1.3-0.6-1.4-1.4c0-0.3,0.2-0.6,0.3-0.8
		c0.3-0.4,0.6-0.6,1.1-0.6C9,33.1,9.6,33.7,9.8,34.5z"/>
	<g>
		<polygon class="st1" points="39.5,42.1 37.9,35.6 29.3,38 30.9,44.5 		"/>
		<polygon class="st2" points="38.1,40.7 36.9,35.7 30.2,37.5 31.4,42.5 		"/>
		<polyline class="st37" points="37.6,36.2 38.9,41.4 31.1,43.6 29.8,38.3 		"/>
	</g>
	<path class="st22" d="M35.1,36.1c0,1-0.7,1.9-1.5,1.9c-0.4,0-0.8-0.3-1.1-0.7c0,0,0,0,0-0.1c-0.2-0.3-0.3-0.7-0.3-1.2
		c0-0.4,0.1-0.8,0.3-1.1c0.1-0.1,0.1-0.1,0.2-0.2c0.2-0.2,0.4-0.4,0.6-0.5c0.1,0,0.3-0.1,0.4-0.1c0.5,0,1,0.4,1.3,0.9
		c0.1,0.2,0.2,0.5,0.2,0.8C35.1,35.9,35.1,36,35.1,36.1z"/>
	<path class="st21" d="M35.4,35.9c0,1.4-0.9,2.5-2,2.5c-0.6,0-1.1-0.3-1.5-0.9c0,0,0-0.1-0.1-0.1c0-0.1,0-0.2,0-0.2
		c0-0.6,0.1-1.1,0.4-1.5c0.1-0.1,0.2-0.2,0.3-0.3c0.3-0.2,0.5-0.5,0.8-0.7c0.2-0.1,0.3-0.1,0.5-0.1c0.6,0,1.2,0.4,1.5,0.9
		C35.4,35.8,35.4,35.8,35.4,35.9z"/>
	<path class="st38" d="M25.9,11.4c-0.1,0.1-1.1-0.1-1.9-0.6c-0.5-0.3-0.8-0.6-1.3-0.6c-0.4,0-0.6,0.2-0.8,0.5c-1,0.8-2.3,1-2.4,0.8
		c-0.1-0.2,1.3-1.8,3.2-1.8C24.6,9.6,26,11.2,25.9,11.4z"/>
</g>
</svg>
