<?xml version="1.0" encoding="utf-8"?>
<!-- Generator: Adobe Illustrator 26.5.0, SVG Export Plug-In . SVG Version: 6.00 Build 0)  -->
<svg version="1.1" id="form" xmlns="http://www.w3.org/2000/svg" xmlns:xlink="http://www.w3.org/1999/xlink" x="0px" y="0px"
	 viewBox="0 0 40 80" style="enable-background:new 0 0 40 80;" xml:space="preserve">
<style type="text/css">
	.st0{fill:#C0A278;}
	.st1{fill:#FBBA37;}
	.st2{fill:#F7AD2B;}
	.st3{fill:#3D5572;}
	.st4{fill:#314559;}
	.st5{fill:#84837F;}
	.st6{fill:#466289;}
	.st7{fill:#C9C7BC;}
	.st8{fill:#9E9C95;}
	.st9{fill:#5373A5;}
	.st10{fill:none;}
	.st11{fill:none;stroke:#9E9C95;stroke-width:0.1045;stroke-miterlimit:10;}
	.st12{fill:none;stroke:#9E9C95;stroke-width:0.1213;stroke-miterlimit:10;}
	.st13{fill:#EBE8D9;}
	.st14{fill:#686865;}
	.st15{fill:#6085BA;}
	.st16{fill:#BCAA5C;stroke:#52555B;stroke-width:0.1045;stroke-miterlimit:10;}
	.st17{fill:#CE9334;}
	.st18{fill:#BA862B;}
	.st19{fill:#AF7828;}
	.st20{fill:#CC8B36;}
	.st21{fill:none;stroke:#9E9C95;stroke-width:0.4182;stroke-miterlimit:10;}
	.st22{fill:#BCAA5C;stroke:#52555B;stroke-width:0.2252;stroke-miterlimit:10;}
	.st23{fill:#5373A5;stroke:#60605E;stroke-width:0.3136;stroke-miterlimit:10;}
	.st24{fill:#3D5572;stroke:#314559;stroke-width:0.1045;stroke-miterlimit:10;}
	.st25{fill:#EBE8D9;stroke:#1E4A98;stroke-width:1.172623e-02;stroke-miterlimit:10;}
	.st26{fill:none;stroke:#EBE8D9;stroke-width:8.208361e-02;stroke-miterlimit:10;}
	.st27{fill:url(#SVGID_1_);}
	.st28{fill:url(#SVGID_00000055708337110347042110000001622282124169380765_);}
	.st29{fill:url(#SVGID_00000161612649351358330440000009427129802348014756_);}
	.st30{fill:#BCAA5C;stroke:#52555B;stroke-width:0.1436;stroke-miterlimit:10;}
	.st31{fill:#FBC14B;}
	.st32{fill:#FDC85E;}
	.st33{fill:#FECF72;}
	.st34{fill:#FEDB9A;}
	.st35{fill:#F4F1E4;}
</style>
<g>
	<path class="st0" d="M21.2,7.5c0.1,0.5,0.4,1,0.7,1c0.3,0,0.6-0.6,0.7-1c0.3-1.3-0.4-2.2-1.3-4.6c-0.7-1.8-0.7-2.4-0.8-2.4
		C19.9,0.5,20.4,5,21.2,7.5z"/>
	<path class="st0" d="M28.5,7.5c-0.1,0.5-0.4,1-0.7,1c-0.3,0-0.6-0.6-0.7-1c-0.3-1.3,0.4-2.2,1.3-4.6c0.7-1.8,0.7-2.4,0.8-2.4
		C29.8,0.5,29.3,5,28.5,7.5z"/>
	<path class="st1" d="M25.1,2c0.4,0.5,0.2,1.2,0.1,1.4c-0.7,3,2,15.4-4.3,19.4c-4,2.6-10.3,0.8-10.3,0.2c0-0.2,0.6-0.3,1.3-0.6
		c4.1-1.6,5.7-7.5,6.4-10c1.3-4.6,0.5-6.5,2.5-8.7c1.2-1.3,2.9-2.3,3.7-2C24.9,1.7,25.1,2,25.1,2z"/>
	<path class="st2" d="M26.2,10.9c-0.7-0.4-4.7,3-6,7c-0.3,0.9-0.6,2.5-2,3.7c-1.1,1-2.4,1.2-2.4,1.4c0.1,0.2,2.1,0.2,3.5-0.4
		C24.9,20.7,27.1,11.4,26.2,10.9z"/>
	<path class="st1" d="M27.9,5c1.6,7.5-9.8,15.8-13.5,16c-0.3,0-1.8,0.1-1.8-0.1c0-0.1,0.6-0.4,0.7-0.4c1.8-0.7,7.6-6.1,10.9-15.5
		c0.5-1.4,1-3.1,1.8-3.1C26.9,1.8,27.7,3.8,27.9,5z"/>
	<path class="st1" d="M19.3,25.8c0.1,0.2,3.5-0.8,6-2.7c0.9-0.6,5.2-3.8,6-9.4c0.6-3.8-0.5-8.8-3.8-11.2c-0.8-0.5-1.7-1.2-2.3-0.9
		c-1.9,1,2.8,8.1,0.2,15.3c-0.7,2-2.9,6.4-5.4,8.3C19.8,25.3,19.3,25.7,19.3,25.8z"/>
	<path class="st3" d="M13.4,21.7c0.4,1,0.9,2,1.3,3c0.5-0.6,1.1-1.4,1.6-2.3c0.9-1.6,1.4-3.1,1.7-4.3c-0.5-1.1-1-2.1-1.5-3.2
		c-0.6,0.8-1.4,1.9-2,3.3C13.9,19.6,13.6,20.8,13.4,21.7z"/>
	<path class="st4" d="M17.3,58.2c1.1,1.2,2.9,2.9,5.4,4.3c2.2,1.3,4.2,1.9,5.7,2.3c-0.7-12.3-1.4-24.6-2.1-36.8
		c-0.7-0.1-1.3-0.1-2-0.2C21.9,37.9,19.6,48,17.3,58.2z"/>
	<path class="st3" d="M28.4,64.8c-2.7-5.2-5.7-7.1-8.1-7.9c-3.6-1.2-5.9,0.2-10-0.8c-3.7-0.9-6.3-3.5-8-5.5c1.8-0.8,4.4-2.1,6.4-4.7
		c2.2-2.8,2.3-5.3,3.4-8c1.2-2.9,3.8-6.7,10.2-10.1c1.7,0,3.4,0,5.1,0c1.8,2.9,5.7,10.2,5.5,20.2C32.7,55.8,30,61.8,28.4,64.8z"/>
	<path class="st3" d="M35.2,21.8c-0.4,1-0.9,2-1.3,3c-0.5-0.6-1.1-1.4-1.6-2.3c-0.9-1.6-1.4-3.1-1.7-4.3c0.5-1.1,1-2.1,1.5-3.2
		c0.6,0.8,1.4,1.9,2,3.3C34.7,19.6,35.1,20.8,35.2,21.8z"/>
	<path class="st5" d="M32.6,53.8c-1.4-0.3-2.8-0.5-4.2-0.8c-0.4-0.7-0.7-1.6-1-2.6c-0.7-2.1-0.8-4-0.8-5.4c2.1,0.4,4.2,0.7,6.3,1.1
		C32.8,48.7,32.7,51.2,32.6,53.8z"/>
	<path class="st6" d="M2.3,50.5c0.6,1,1.1,2.3,1.6,3.8c0.3,1.1,0.5,2.1,0.6,3c1.1-0.9,2.6-2.2,4.1-4.1c1.7-2.2,2.5-4,3.5-6.4
		c2.6-5.7,3.8-8.5,4.3-9.5c1.5-2.8,4.5-6.5,10.8-9.6c-1.7,0-3.4-0.1-5.1-0.1c-5.9,2.9-8.5,6.4-9.8,9.1c-1.7,3.5-1.6,6.7-4.6,10
		C6,48.9,3.8,49.9,2.3,50.5z"/>
	<path class="st5" d="M16.4,53.5c1.4-0.3,2.8-0.5,4.2-0.8c0.4-0.7,0.7-1.6,1-2.6c0.7-2.1,0.8-4,0.8-5.4c-2.1,0.4-4.2,0.7-6.3,1.1
		C16.2,48.4,16.3,50.9,16.4,53.5z"/>
	<path class="st7" d="M29.3,21c0.3-0.4,0.6-0.9,0.9-1.4c0.2-0.4,0.4-0.8,0.6-1.1c-0.4-0.7-0.8-1.3-1.2-2c-0.5,0.9-1,1.8-1.4,2.7
		C28.5,19.7,28.9,20.4,29.3,21z"/>
	<path class="st8" d="M19.9,20.4c-0.3-0.2-0.6-0.5-0.9-0.9c-0.5-0.7-0.8-1.4-0.9-1.9c0.4-0.7,0.8-1.3,1.2-2c0.5,0.9,1,1.8,1.4,2.7
		C20.4,19.1,20.2,19.7,19.9,20.4z"/>
	<rect x="22.1" y="17.7" class="st3" width="4.5" height="5.6"/>
	<path class="st3" d="M28.5,14.9c0.9,0.1,1.8,0.3,2.7,0.4c-0.3,0.7-0.9,1.7-2,2.6c-2.6,2.1-6.8,2.2-9.3,0c-0.9-0.8-1.4-1.7-1.6-2.2
		c0.9-0.3,1.7-0.5,2.6-0.8C23.5,14.9,26,14.9,28.5,14.9z"/>
	<path class="st6" d="M28.1,14.7c0.3,0.6-1.4,3.4-3.4,3.4c-2,0-3.5-2.8-3.3-3.4c0.2-0.4,1.2,0.4,3.3,0.5
		C26.8,15.2,27.9,14.3,28.1,14.7z"/>
	<path class="st9" d="M28.1,13.9c0.2,0.5-1.4,2.6-3.4,2.5c-2,0-3.5-2.1-3.2-2.5c0.2-0.3,1.2,0.3,3.3,0.3
		C26.9,14.3,27.9,13.6,28.1,13.9z"/>
	<path class="st7" d="M26.9,13.2c-0.5,0.1-1.3,0.2-2.2,0.2c-0.9,0-1.6-0.1-2.2-0.2c0.1-0.3,0.3-0.7,0.4-1.1c0.1-0.5,0.2-1,0.3-1.4
		c0.4,0.1,0.9,0.2,1.6,0.2c0.7,0,1.2-0.1,1.6-0.2c0,0.4,0,0.9,0.1,1.4C26.7,12.5,26.8,12.9,26.9,13.2z"/>
	<path class="st0" d="M28.5,7.1c-0.1,1.5-1,2.5-1.8,3.3c-0.6,0.6-1.2,1.2-1.9,1.2c-0.7,0-1.2-0.5-1.8-1.2c-0.8-0.9-1.8-1.9-1.9-3.4
		c-0.1-2,1.4-4.5,3.7-4.5C27,2.6,28.6,5.1,28.5,7.1z"/>
	<polyline class="st10" points="18.5,14.9 18.4,14.9 18.3,14.9 	"/>
	<path class="st7" d="M27.9,14c-0.4,0.3-1.5,1.1-3.2,1c-1.6,0-2.8-0.8-3.2-1.1c0.3-0.2,0.6-0.5,1-0.7c1.5,0,2.9,0,4.4,0
		C27.3,13.5,27.6,13.7,27.9,14z"/>
	<path class="st11" d="M23,11.8c0.3,0.1,0.6,0.2,1,0.2c0.2,0,0.5,0,0.7,0c0.2,0,0.5,0,0.7,0c0.4-0.1,0.8-0.1,1-0.2"/>
	<path class="st11" d="M22.9,12.2c0.5,0.2,1.1,0.3,1.9,0.3c0.7,0,1.4-0.1,1.8-0.3"/>
	<path class="st11" d="M22.8,12.6c0.5,0.2,1.2,0.3,2,0.3c0.8,0,1.5-0.2,1.9-0.3"/>
	<path class="st11" d="M22.6,13c0.2,0.1,0.5,0.2,0.8,0.2c0.4,0.1,0.8,0.2,1.3,0.2c0.5,0,0.9-0.1,1.3-0.2c0.3-0.1,0.6-0.2,0.8-0.2"/>
	<path class="st12" d="M22.3,13.5c0.5,0.2,1.4,0.5,2.5,0.5c1.1,0,1.9-0.3,2.5-0.5"/>
	<polyline class="st10" points="26.5,12 25.5,12 24,12 22.9,12 	"/>
	<line class="st10" x1="22.4" y1="12.8" x2="27.1" y2="12.8"/>
	<line class="st10" x1="27.3" y1="13.2" x2="21.9" y2="13.2"/>
	<path class="st7" d="M31.1,20.4c-0.2-0.4-0.4-0.9-0.8-1.3c-0.9-1.1-1.9-1.6-2.5-1.8c0.5-1.7,1-3.3,1.5-5c0.8,0.3,2.2,1.1,3.4,2.6
		c0.9,1,1.3,2.1,1.6,2.8c-0.3,0-1.4,0.1-2.3,1C31.4,19.3,31.2,20.1,31.1,20.4z"/>
	<path class="st13" d="M30.6,20.5c-0.1-0.4-0.3-1.1-0.8-1.8c-0.9-1.2-2.2-1.6-2.6-1.7c-0.1-1.3-0.1-2.7-0.2-4
		c0.4-0.3,2.2-1.5,4.2-0.5c2,1,2.8,3.4,2.9,4c-0.4,0.1-0.9,0.3-1.3,0.6C31.1,18.1,30.7,20.1,30.6,20.5z"/>
	<path class="st7" d="M27.6,17.1c0.3,0.1,0.7,0.2,1.2,0.5c0.6,0.4,1,0.9,1.2,1.2c0.1-0.8,0.4-1.9,0.9-3.1c0.5-1.1,1-1.9,1.5-2.6
		c-0.4-0.4-0.9-0.9-1.7-1.2c-1.2-0.4-2.2,0-2.6,0.3c-0.1,0.7-0.2,1.4-0.3,2.1C27.6,15.3,27.6,16.3,27.6,17.1z"/>
	<path class="st7" d="M24.7,19.9V22c-0.4,0.3-1.3,0.9-2.7,1c-0.7,0-1.3-0.1-1.8-0.2c0-0.1-0.1-0.2-0.1-0.2c-0.4-0.5-0.7-1.1-0.7-1.9
		c0-0.5,0.1-0.9,0.3-1.3c0,0,0-0.1,0.1-0.1c0-0.1,0.1-0.2,0.2-0.2c0,0,0,0,0,0c0,0,0,0,0,0c0.4-0.5,1-0.9,1.7-0.9c0.1,0,0.2,0,0.3,0
		c0,0,0,0,0.1,0C23.5,18.4,23.8,20,24.7,19.9z"/>
	<path class="st13" d="M29.7,20.7c0,0.8-0.3,1.5-0.8,2c0,0,0,0.1,0,0.1c-0.4,0.1-0.9,0.2-1.5,0.1c-1.3-0.1-2.2-0.7-2.6-1
		c0,0,0,0,0,0v-2.1c0.6-0.1,0.8-0.7,1.4-1.2c0.4-0.4,0.9-0.6,1.5-0.6c0.8,0,1.5,0.5,1.8,1.1c0,0,0,0,0,0.1
		C29.6,19.7,29.7,20.2,29.7,20.7z"/>
	<path class="st7" d="M28.9,22.8c-0.3,1.5-0.3,1.6-0.5,2.3c-0.3,1-0.7,1.8-1,2.6h-2.6V22c0,0,0,0,0,0c0.4,0.3,1.3,0.9,2.6,1
		C27.9,23,28.4,22.9,28.9,22.8z"/>
	<path class="st8" d="M24.7,22v5.7h-2.5C21.8,26.9,21.4,26,21,25c-0.3-0.8-0.6-1.5-0.8-2.2c0.5,0.2,1.1,0.3,1.8,0.2
		C23.4,22.9,24.3,22.3,24.7,22z"/>
	<line class="st10" x1="24.7" y1="22.2" x2="24.7" y2="30.3"/>
	<path class="st5" d="M17.2,43.5c0.4,2.8,0.8,3.4,1.2,3.4c0.3,0,0.5-0.4,1.2-0.4c0.5-0.1,0.8,0.1,0.9-0.1c0.2-0.2,0-0.5,0-0.7
		c-0.2-0.7,0.1-1.1,0.5-2.3c0.3-0.8,0.4-1.7,0.7-2.5c0.4-1.2,1.2-4.4,3.1-12.8c-0.9-0.1-1.8-0.1-2.7-0.2c-0.8,0.6-1.9,1.6-2.9,3.4
		C16.6,36.1,17.1,42.3,17.2,43.5z"/>
	<path class="st5" d="M16.3,49.9c2.2-1.5,4.3-3,6.5-4.6c0.7-5.8,1.3-11.5,2-17.3c-0.8-0.1-1.7-0.2-2.5-0.3c-0.5,0.3-1.1,0.7-1.8,1.3
		c-2,1.9-2.9,4.4-3.5,8.5C16.5,40.5,16.1,44.7,16.3,49.9z"/>
	<path class="st8" d="M17.2,33.2c2.3,0,4.7-0.1,7-0.1c0.1-0.9,0.2-1.8,0.3-2.8c-1,0-2.2,0-3.3,0.1c-0.7,0.1-1.4,0.1-2.1,0.2
		c-0.3,0.3-0.8,0.7-1.2,1.3C17.6,32.4,17.4,32.8,17.2,33.2z"/>
	<path class="st8" d="M16.4,36.4c2.5-0.1,5.1-0.2,7.6-0.3c0.1-1,0.2-2,0.2-2.9c-2.2,0.1-4.3,0.3-6.5,0.4c-0.2,0.3-0.4,0.6-0.6,0.9
		C16.8,35.1,16.6,35.8,16.4,36.4z"/>
	<path class="st8" d="M15.9,39.6c2.6-0.1,5.2-0.1,7.7-0.2c0.1-1.1,0.3-2.3,0.4-3.4c-2.3,0.3-4.7,0.5-7,0.8c-0.2,0.3-0.5,0.8-0.7,1.3
		C16,38.7,15.9,39.2,15.9,39.6z"/>
	<path class="st8" d="M15.7,43c2.5-0.4,5-0.8,7.6-1.3c0.1-0.8,0.3-1.5,0.4-2.3c-2.3,0.2-4.6,0.4-7,0.6c-0.2,0.3-0.5,0.7-0.6,1.2
		C15.7,42,15.7,42.6,15.7,43z"/>
	<path class="st8" d="M15.7,46.4c2.4-0.6,4.8-1.2,7.2-1.8c0.1-0.9,0.2-1.9,0.4-2.8c-2.3,0.5-4.6,1-6.9,1.5c-0.2,0.4-0.4,0.9-0.6,1.6
		C15.6,45.5,15.6,46,15.7,46.4z"/>
	<path class="st8" d="M16,50.9c0.6-0.4,1.7-1,3.3-1.1c0.9,0,1.7,0.2,2.3,0.3c0.4-1.9,0.8-3.7,1.2-5.6c-2.2,0.7-4.4,1.4-6.6,2.1
		c-0.1,0.5-0.2,1-0.3,1.7C15.9,49.3,15.9,50.2,16,50.9z"/>
	<g>
		<path class="st5" d="M32.1,43.6c-0.4,2.8-0.8,3.4-1.2,3.4c-0.3,0-0.5-0.4-1.2-0.4c-0.5-0.1-0.8,0.1-0.9-0.1c-0.2-0.2,0-0.5,0-0.7
			c0.2-0.7-0.1-1.1-0.5-2.3c-0.3-0.8-0.4-1.7-0.7-2.5c-0.4-1.2-1.2-4.4-3.1-12.8c0.9-0.1,1.8-0.1,2.7-0.2c0.8,0.6,1.9,1.6,2.9,3.4
			C32.7,36.2,32.2,42.4,32.1,43.6z"/>
		<path class="st5" d="M33,50c-2.2-1.5-4.3-3-6.5-4.6c-0.7-5.8-1.3-11.5-2-17.3c0.8-0.1,1.7-0.2,2.5-0.3c0.5,0.3,1.1,0.7,1.8,1.3
			c2,1.9,2.9,4.4,3.5,8.5C32.8,40.6,33.3,44.8,33,50z"/>
		<path class="st8" d="M32.1,33.3c-2.3,0-4.7-0.1-7-0.1c-0.1-0.9-0.2-1.8-0.3-2.8c1,0,2.2,0,3.3,0.1c0.7,0.1,1.4,0.1,2.1,0.2
			c0.3,0.3,0.8,0.7,1.2,1.3C31.7,32.5,31.9,32.9,32.1,33.3z"/>
		<path class="st8" d="M32.9,36.4c-2.5-0.1-5.1-0.2-7.6-0.3c-0.1-1-0.2-2-0.2-2.9c2.2,0.1,4.3,0.3,6.5,0.4c0.2,0.3,0.4,0.6,0.6,0.9
			C32.5,35.2,32.7,35.9,32.9,36.4z"/>
		<path class="st8" d="M33.4,39.7c-2.6-0.1-5.2-0.1-7.7-0.2c-0.1-1.1-0.3-2.3-0.4-3.4c2.3,0.3,4.7,0.5,7,0.8
			c0.2,0.3,0.5,0.8,0.7,1.3C33.3,38.8,33.4,39.3,33.4,39.7z"/>
		<path class="st8" d="M33.6,43.1c-2.5-0.4-5-0.8-7.6-1.3c-0.1-0.8-0.3-1.5-0.4-2.3c2.3,0.2,4.6,0.4,7,0.6c0.2,0.3,0.5,0.7,0.6,1.2
			C33.6,42,33.6,42.7,33.6,43.1z"/>
		<path class="st8" d="M33.6,46.5c-2.4-0.6-4.8-1.2-7.2-1.8c-0.1-0.9-0.2-1.9-0.4-2.8c2.3,0.5,4.6,1,6.9,1.5
			c0.2,0.4,0.4,0.9,0.6,1.6C33.7,45.6,33.7,46.1,33.6,46.5z"/>
		<path class="st8" d="M32.9,51.1c-0.9-1.1-2-2.2-3.4-3.4c-1.1-0.9-2.1-1.6-3-2.2c0-0.3,0-0.5,0-0.8c2.2,0.7,4.4,1.4,6.6,2.1
			c0.1,0.4,0.3,1,0.3,1.7C33.4,49.5,33.1,50.5,32.9,51.1z"/>
	</g>
	<path class="st14" d="M19.1,30.1c1.8,0.1,3.6,0.1,5.4,0.2V28c-0.8-0.1-1.5-0.2-2.3-0.3c-0.5,0.2-1,0.5-1.7,0.9
		C19.9,29.2,19.4,29.7,19.1,30.1z"/>
	<path class="st5" d="M30.3,30.1c-1.8,0.1-3.6,0.1-5.4,0.2V28c0.9-0.1,1.7-0.1,2.6-0.2c0.4,0.2,0.9,0.4,1.4,0.8
		C29.5,29.1,29.9,29.7,30.3,30.1z"/>
	<path class="st9" d="M24.7,27.9v25.5l0,0.1l-3.3-9.1l2.1-16.5C23.8,27.9,24.3,27.9,24.7,27.9z"/>
	<path class="st15" d="M27.9,44.4l-0.4,1.2l-0.7,2.1l-2.1,5.7V27.9c0.4,0,0.8,0,1.1,0C26.5,33.4,27.2,38.9,27.9,44.4z"/>
	<g>
		<path class="st16" d="M25.4,27.4l-0.6-0.3l-0.6,0.3v0.3l0,0.3l0.6,0.3l0,0l0.6-0.3v-0.3L25.4,27.4z M25,28.2h-0.5l-0.3-0.4
			l0.3-0.4H25l0.3,0.4L25,28.2z"/>
		<polygon class="st17" points="24.8,27.3 24.8,27.7 24.3,27.7 24.5,27.3 		"/>
		<polygon class="st18" points="24.8,27.7 24.8,28.2 24.5,28.2 24.3,27.7 		"/>
		<polygon class="st19" points="25.3,27.7 25,28.2 24.8,28.2 24.8,27.7 		"/>
		<polygon class="st20" points="25.3,27.7 24.8,27.7 24.8,27.3 25,27.3 		"/>
		<polyline class="st10" points="24.8,27.3 24.8,27.1 24.8,26.9 		"/>
	</g>
	<ellipse class="st8" cx="31" cy="54.1" rx="2.5" ry="2.8"/>
	<path class="st5" d="M15.3,67.1c1.1-0.8,2.2-1.6,3.3-2.4c0.3-0.9,0.7-2,1-3.1c0.6-2.4,0.8-4.6,0.9-6.4c-1.4,0-2.7,0-4.1,0
		c-0.6,1.5-1,2.8-1.2,3.9c-0.2,1.1-0.5,2.3-0.5,3.8C14.7,64.7,14.9,66,15.3,67.1z"/>
	<path class="st3" d="M24.5,66.7"/>
	<path class="st8" d="M15.5,56.6c0.4-0.3,1.6,0.3,2,1.3c0.1,0.3,0.1,0.5,0.2,0.6c0.6,0.6,2.6-1,3.1-0.5c0.4,0.4-0.6,1.8-1.3,3.8
		c-0.5,1.4-0.5,2.3-0.8,4.7c-0.5,5.9-0.8,8.9-1.1,8.9c-1.1,0.2-2.8-11.1-3-13.3c-0.1-0.8-0.1-1.4,0-2.1c0.2-1,0.6-1.4,0.7-2.5
		C15.4,56.9,15.4,56.7,15.5,56.6z"/>
	<path class="st7" d="M18.8,66.6c-0.3,3.9-1.3,4.1-0.9,7c0.2,1.4,0.6,2.5,0,3.1c-0.7,0.8-2.3,0.6-3.5,0.2c0.6-2,0.8-3.7,0.9-4.8
		c0.2-3.2-0.5-5.1-0.7-9.5c0-0.3,1.1-3.7,2.2-4c0.1,0,0.1,0,0.2,0c0,0,0.1,0,0.1,0C17.1,58.6,19.1,60.9,18.8,66.6z"/>
	<ellipse class="st8" cx="18.3" cy="53.7" rx="2.6" ry="3"/>
	<polygon class="st7" points="20.3,54.8 18.3,55.9 16.2,54.8 16.2,52.7 18.3,51.6 20.3,52.7 	"/>
	<line class="st21" x1="18.3" y1="51.3" x2="18.3" y2="55.9"/>
	<line class="st21" x1="15.7" y1="53.7" x2="20.9" y2="53.7"/>
	<path class="st8" d="M18.3,78.9c-0.5,0.5-1,0.1-2.4,0.1c-1.4,0-1.8,0.1-2,0c0,0,0,0-0.1-0.1c-0.4-0.5,0-1.3,0.2-1.9
		c0.2-0.5,0.4-0.8,0.6-1.1c0.7-0.7,2.2-1.1,3.2-0.3c0.8,0.7,1.1,1.9,0.8,2.7C18.6,78.5,18.5,78.8,18.3,78.9z"/>
	<path class="st5" d="M18.1,79c-0.2,0.1-0.9,0.1-2.1,0.1c-1.2,0-1.7,0-1.9-0.1c0,0-0.1-0.1-0.2-0.2c-0.2-0.4,1.1-1.3,1.3-1.5
		c0.5-0.3,0.7-0.5,1-0.5c0.3,0,0.6,0.2,0.9,0.4c0.4,0.3,1.3,1.1,1.2,1.5C18.2,78.9,18.1,78.9,18.1,79z"/>
	<path class="st13" d="M18.5,67.4c-0.2,2.6-0.7,3.3-0.9,4.6c-0.1,0.7,0,1.3,0,1.5c0.3,2.1,1.4,3.3,1.1,3.6c-0.2,0.2-0.8-0.5-1.9-0.9
		c-0.8-0.3-1.6-0.2-2.1-0.2c0.1-0.3,0.2-0.8,0.3-1.4c0,0,0.2-1.2,0.3-2.5c0.1-2.8-0.5-4.4-0.6-8.3c0-0.3,0.9-3.3,1.9-3.5
		c0.1,0,0.1,0,0.2,0c0,0,0,0,0.1,0C17,60.4,18.8,62.4,18.5,67.4z"/>
	<path class="st5" d="M33.8,67.4c-1.1-0.8-2.2-1.6-3.3-2.4c-0.3-0.9-0.7-2-1-3.1c-0.6-2.4-0.8-4.6-0.9-6.4c1.4,0,2.7,0,4.1,0
		c0.6,1.5,1,2.8,1.2,3.9c0.2,1.1,0.5,2.3,0.5,3.8C34.4,65,34.1,66.3,33.8,67.4z"/>
	<path class="st8" d="M33.5,56.9c-0.4-0.3-1.6,0.3-2,1.3c-0.1,0.3-0.1,0.5-0.2,0.6c-0.6,0.6-2.6-1-3.1-0.5c-0.4,0.4,0.6,1.8,1.3,3.8
		c0.5,1.4,0.5,2.3,0.8,4.7c0.5,5.9,0.8,8.9,1.1,8.9c1.1,0.2,2.8-11.1,3-13.3c0.1-0.8,0.1-1.4,0-2.1c-0.2-1-0.6-1.4-0.7-2.5
		C33.6,57.2,33.7,57,33.5,56.9z"/>
	<path class="st7" d="M30.3,66.9c0.3,3.9,1.3,4.1,0.9,7c-0.2,1.4-0.6,2.5,0,3.1c0.7,0.8,2.3,0.6,3.5,0.2c-0.6-2-0.8-3.7-0.9-4.8
		c-0.2-3.2,0.5-5.1,0.7-9.5c0-0.3-1.1-3.7-2.2-4c-0.1,0-0.1,0-0.2,0c0,0-0.1,0-0.1,0C32,58.9,29.9,61.2,30.3,66.9z"/>
	<ellipse class="st8" cx="30.8" cy="54" rx="2.6" ry="3"/>
	<polygon class="st7" points="28.7,55.1 30.8,56.2 32.8,55.1 32.8,53 30.8,51.9 28.7,53 	"/>
	<line class="st21" x1="30.8" y1="51.6" x2="30.8" y2="56.2"/>
	<line class="st21" x1="33.4" y1="54" x2="28.2" y2="54"/>
	<path class="st8" d="M30.7,79.2c0.5,0.5,1,0.1,2.4,0.1c1.4,0,1.8,0.1,2,0c0,0,0,0,0.1-0.1c0.4-0.5,0-1.3-0.2-1.9
		c-0.2-0.5-0.4-0.8-0.6-1.1c-0.7-0.7-2.2-1.1-3.2-0.3c-0.8,0.7-1.1,1.9-0.8,2.7C30.4,78.8,30.5,79.1,30.7,79.2z"/>
	<path class="st5" d="M31,79.3c0.2,0.1,0.9,0.1,2.1,0.1c1.2,0,1.7,0,1.9-0.1c0,0,0.1-0.1,0.2-0.2c0.2-0.4-1.1-1.3-1.3-1.5
		c-0.5-0.3-0.7-0.5-1-0.5c-0.3,0-0.6,0.2-0.9,0.4c-0.4,0.3-1.3,1.1-1.2,1.5C30.8,79.2,30.9,79.2,31,79.3z"/>
	<path class="st13" d="M30.6,67.7c0.2,2.6,0.7,3.3,0.9,4.6c0.1,0.7,0,1.3,0,1.5c-0.3,2.1-1.4,3.3-1.1,3.6c0.2,0.2,0.8-0.5,1.9-0.9
		c0.8-0.3,1.6-0.2,2.1-0.2c-0.1-0.3-0.2-0.8-0.3-1.4c0,0-0.2-1.2-0.3-2.5c-0.1-2.8,0.5-4.4,0.6-8.3c0-0.3-0.9-3.3-1.9-3.5
		c-0.1,0-0.1,0-0.2,0c0,0,0,0-0.1,0C32.1,60.7,30.2,62.7,30.6,67.7z"/>
	<path class="st14" d="M27,23.3l-1.2-2.1l-1.3,0l-1.2,0l-1.3,2.1l0,0l1.2,2.1l1.3,0l1.2,0L27,23.3L27,23.3z M25.6,25l-1,0l-1,0
		l-0.9-1.7l0,0l1-1.7l1,0l1,0l0.9,1.7l0,0L25.6,25z"/>
	<polygon class="st17" points="24.6,21.5 24.6,23.3 22.7,23.3 22.6,23.2 23.7,21.5 	"/>
	<polygon class="st18" points="24.6,23.3 24.6,25 23.6,25 22.7,23.3 	"/>
	<polygon class="st19" points="26.6,23.3 25.6,25 24.6,25 24.6,23.3 26.6,23.3 	"/>
	<polygon class="st20" points="26.6,23.3 24.6,23.3 24.6,21.5 25.6,21.6 	"/>
	<path class="st14" d="M25.8,25.4v27.7h-2.4c0-8.4,0-16.8,0-25.2v-0.5c0-0.7,0-1.4,0-2.1C24.2,25.3,25,25.4,25.8,25.4z"/>
	<rect x="23.4" y="46.7" class="st14" width="2.4" height="22.1"/>
	<path class="st14" d="M26.8,78.1h-4.3c-2.5,0-4.6-2.1-4.6-4.6v-0.1c0-2.5,2.1-4.6,4.6-4.6h4.3c2.5,0,4.6,2.1,4.6,4.6v0.1
		C31.4,76.1,29.3,78.1,26.8,78.1z"/>
	<path class="st5" d="M29.9,76.1H19.4c-1.4,0-2.5-1.1-2.5-2.5v-0.1c0-1.4,1.1-2.5,2.5-2.5h10.5c1.4,0,2.5,1.1,2.5,2.5v0.1
		C32.4,75,31.3,76.1,29.9,76.1z"/>
	<path class="st8" d="M25.5,76.8h-1.7c-1.8,0-3.2-1.4-3.2-3.2v-0.1c0-1.8,1.4-3.2,3.2-3.2h1.7c1.8,0,3.2,1.4,3.2,3.2v0.1
		C28.7,75.4,27.3,76.8,25.5,76.8z"/>
	<path class="st8" d="M26.5,68.8c0,0.1-0.7,1.1-2,1.1c-1.2,0-1.9-1.1-1.9-1.1c0.3-1.2,0.5-2.4,0.8-3.6c0.8,0,1.6,0,2.4,0
		C26.1,66.4,26.3,67.6,26.5,68.8z"/>
	<g>
		<path class="st22" d="M25.9,66.7L24.7,66l-1.2,0.7v0.7l0,0.7l1.2,0.7l0,0l1.2-0.7v-0.7L25.9,66.7z M25.2,68.3h-1.1l-0.5-1l0.5-1
			h1.1l0.5,1L25.2,68.3z"/>
		<polygon class="st17" points="24.7,66.4 24.7,67.4 23.6,67.4 24.1,66.4 		"/>
		<polygon class="st18" points="24.7,67.4 24.7,68.3 24.1,68.3 23.6,67.4 		"/>
		<polygon class="st19" points="25.8,67.4 25.2,68.3 24.7,68.3 24.7,67.4 		"/>
		<polygon class="st20" points="25.8,67.4 24.7,67.4 24.7,66.4 25.2,66.4 		"/>
		<polyline class="st10" points="24.7,66.4 24.7,66 24.7,65.6 		"/>
	</g>
	<ellipse class="st23" cx="24.6" cy="53.4" rx="1.8" ry="1.8"/>
	<rect x="20.8" y="77.6" class="st5" width="7.7" height="1.7"/>
	<rect x="23.4" y="31.1" class="st4" width="2.4" height="9.8"/>
	<polygon class="st24" points="25.8,33.4 25.8,34.8 25.6,34.7 24,33.8 23.4,33.4 23.4,32 25.1,33 	"/>
	<polygon class="st24" points="25.8,33.4 25.8,34.7 25.6,34.7 23.8,35.1 23.4,35.1 23.4,33.9 24,33.8 	"/>
	<polygon class="st24" points="25.8,35.4 25.8,36.7 24.7,36.5 23.4,36.3 23.4,35 23.8,35.1 	"/>
	<rect x="23.4" y="36.5" class="st24" width="2.4" height="1.3"/>
	<polygon class="st24" points="25.8,38.3 25.8,39.6 24.2,39.1 23.4,38.9 23.4,37.6 23.9,37.7 	"/>
	<polygon class="st24" points="25.8,39 25.8,40.2 23.4,40.4 23.4,39.2 24.2,39.1 	"/>
	<polygon class="st24" points="25.8,40.3 25.8,41.6 23.4,42 23.4,40.7 	"/>
	<polygon class="st24" points="25.8,31.6 25.8,32.9 25.1,33 23.4,33.2 23.4,31.9 25.3,31.7 	"/>
	<polygon class="st24" points="25.8,30.4 25.8,31.7 25.3,31.7 23.4,31.5 23.4,30.2 	"/>
	<g>
		<g>
			<path class="st13" d="M24.7,73.8l1.9-2.3l0.3,0.2C26.8,71.7,24.7,73.8,24.7,73.8L24.7,73.8z"/>
		</g>
		<g>
			<path class="st13" d="M24.7,73.8l2.9-0.4l0,0.4C27.7,73.7,24.7,73.8,24.7,73.8L24.7,73.8z"/>
		</g>
		<g>
			<path class="st13" d="M24.7,73.8l2.6-1.5l0.2,0.3C27.4,72.6,24.7,73.8,24.7,73.8L24.7,73.8z"/>
		</g>
		<g>
			<path class="st13" d="M24.7,73.8l0.8-2.9l0.3,0.1C25.8,71,24.7,73.8,24.7,73.8L24.7,73.8z"/>
		</g>
		<path class="st13" d="M24.1,73.5"/>
		<path class="st13" d="M25.6,73.7"/>
		<rect x="25.7" y="73.4" class="st25" width="0.7" height="0.3"/>
		<rect x="25.6" y="73.2" class="st25" width="1" height="0.2"/>
		<rect x="25.6" y="73" class="st25" width="0.2" height="0.2"/>
		<rect x="26.3" y="73" class="st25" width="0.2" height="0.2"/>
		<rect x="25.9" y="73" class="st25" width="0.2" height="0.2"/>
		<rect x="26.5" y="73.2" class="st25" width="0" height="0.2"/>
		<path class="st25" d="M26.5,74.4h-1c0-0.3,0.1-0.5,0.1-0.8c0.3,0,0.5,0,0.8,0C26.5,73.9,26.5,74.2,26.5,74.4z"/>
		<rect x="25.5" y="74.3" class="st25" width="1.1" height="0.2"/>
		<rect x="25.5" y="74.2" class="st25" width="1" height="0.1"/>
		<rect x="25.6" y="72.9" class="st25" width="0.1" height="0.1"/>
		<rect x="26" y="72.9" class="st25" width="0.1" height="0.1"/>
		<rect x="26.3" y="72.9" class="st25" width="0.1" height="0.1"/>
		<g>
			<path class="st10" d="M27.6,72.3"/>
		</g>
		<line class="st26" x1="24.7" y1="74.5" x2="27.6" y2="74.5"/>
		<path class="st25" d="M24.7,73.1v0.4h0.5c0-0.1,0-0.2,0-0.4C25,73.1,24.8,73.1,24.7,73.1z"/>
		<path class="st25" d="M24.7,74.4h0.6c0-0.3-0.1-0.6-0.1-1c-0.2,0-0.4,0-0.5,0V74.4z"/>
		<path class="st25" d="M24.7,73.1H25c0-0.3-0.1-0.6-0.1-0.9c-0.1,0-0.1,0-0.2,0V73.1z"/>
		<rect x="24.7" y="71.9" class="st25" width="0.1" height="0.2"/>
		<path class="st25" d="M24.7,71.9L24.7,71.9c0.1-0.2,0-0.3,0-0.5c0,0,0,0,0,0V71.9z"/>
		<rect x="24.7" y="74.3" class="st25" width="0.7" height="0.2"/>
		<rect x="24.7" y="74.1" class="st25" width="0.7" height="0.1"/>
		<rect x="25.5" y="73.2" class="st25" width="0" height="0.2"/>
		<g>
			<path class="st13" d="M24.6,73.8l-2.1-2.1l0.3-0.2C22.8,71.4,24.7,73.8,24.6,73.8L24.6,73.8z"/>
		</g>
		<g>
			<path class="st13" d="M24.6,73.8l-3-0.1l0-0.4C21.7,73.4,24.7,73.8,24.6,73.8L24.6,73.8z"/>
		</g>
		<g>
			<path class="st13" d="M24.6,73.8l-2.7-1.2l0.2-0.3C22.1,72.3,24.7,73.8,24.6,73.8L24.6,73.8z"/>
		</g>
		<g>
			<path class="st13" d="M24.6,73.8L23.5,71l0.3-0.1C23.8,70.9,24.7,73.8,24.6,73.8L24.6,73.8z"/>
		</g>
		<path class="st13" d="M25.2,73.5"/>
		<path class="st13" d="M23.8,73.7"/>
		
			<rect x="22.9" y="73.4" transform="matrix(-1 -5.063206e-11 5.063206e-11 -1 46.5931 147.0821)" class="st25" width="0.7" height="0.3"/>
		
			<rect x="22.8" y="73.2" transform="matrix(-1 -4.201984e-11 4.201984e-11 -1 46.5931 146.5774)" class="st25" width="1" height="0.2"/>
		
			<rect x="23.6" y="73" transform="matrix(-1 -3.757451e-11 3.757451e-11 -1 47.3007 146.1491)" class="st25" width="0.2" height="0.2"/>
		
			<rect x="22.9" y="73" transform="matrix(-1 -5.636170e-11 5.636170e-11 -1 45.9261 146.1491)" class="st25" width="0.2" height="0.2"/>
		
			<rect x="23.2" y="73" transform="matrix(-1 -5.636170e-11 5.636170e-11 -1 46.6134 146.1491)" class="st25" width="0.2" height="0.2"/>
		
			<rect x="22.8" y="73.2" transform="matrix(-1 -1.168222e-10 1.168222e-10 -1 45.6382 146.5835)" class="st25" width="0" height="0.2"/>
		<path class="st25" d="M22.8,74.4h1c0-0.3-0.1-0.5-0.1-0.8c-0.3,0-0.5,0-0.8,0C22.9,73.9,22.8,74.2,22.8,74.4z"/>
		
			<rect x="22.7" y="74.3" transform="matrix(-1 -4.461954e-11 4.461954e-11 -1 46.5968 148.7592)" class="st25" width="1.1" height="0.2"/>
		
			<rect x="22.8" y="74.2" transform="matrix(-1 -4.505297e-11 4.505297e-11 -1 46.5968 148.5012)" class="st25" width="1" height="0.1"/>
		
			<rect x="23.6" y="72.9" transform="matrix(-1 -3.966173e-11 3.966173e-11 -1 47.3061 145.8602)" class="st25" width="0.1" height="0.1"/>
		
			<rect x="23.3" y="72.9" transform="matrix(-1 -3.966173e-11 3.966173e-11 -1 46.6134 145.8602)" class="st25" width="0.1" height="0.1"/>
		
			<rect x="22.9" y="72.9" transform="matrix(-1 -7.932378e-11 7.932378e-11 -1 45.9261 145.8602)" class="st25" width="0.1" height="0.1"/>
		<g>
			<path class="st10" d="M21.7,72.3"/>
		</g>
		<line class="st26" x1="24.7" y1="74.5" x2="21.7" y2="74.5"/>
		<path class="st25" d="M24.7,73.1v0.4h-0.5c0-0.1,0-0.2,0-0.4C24.3,73.1,24.5,73.1,24.7,73.1z"/>
		<path class="st25" d="M24.7,74.4H24c0-0.3,0.1-0.6,0.1-1c0.2,0,0.4,0,0.5,0V74.4z"/>
		<path class="st25" d="M24.7,73.1h-0.3c0-0.3,0.1-0.6,0.1-0.9c0.1,0,0.1,0,0.2,0V73.1z"/>
		<rect x="24.6" y="71.9" class="st25" width="0.1" height="0.2"/>
		<path class="st25" d="M24.7,71.9L24.7,71.9c-0.1-0.2,0-0.3,0-0.5c0,0,0,0,0,0V71.9z"/>
		<rect x="23.9" y="74.3" class="st25" width="0.7" height="0.2"/>
		<rect x="24" y="74.1" class="st25" width="0.7" height="0.1"/>
		
			<rect x="23.8" y="73.2" transform="matrix(-1 -1.224647e-16 1.224647e-16 -1 47.5521 146.5723)" class="st25" width="0" height="0.2"/>
		<rect x="24.6" y="71.9" class="st13" width="0" height="3.9"/>
		<rect x="25.6" y="74.5" class="st25" width="0.5" height="0.2"/>
		<rect x="25.3" y="74.7" class="st25" width="0.5" height="0.2"/>
		<rect x="25.9" y="74.7" class="st25" width="0.5" height="0.2"/>
		<rect x="26.1" y="74.5" class="st25" width="0.5" height="0.2"/>
		<rect x="25.8" y="74.8" class="st25" width="0.5" height="0.2"/>
		<rect x="25" y="74.5" class="st25" width="0.5" height="0.2"/>
		<rect x="25.6" y="75" class="st25" width="0.5" height="0.2"/>
		<rect x="25.4" y="75.2" class="st25" width="0.5" height="0.2"/>
		<rect x="25.1" y="75.4" class="st25" width="0.5" height="0.2"/>
		<rect x="24.8" y="74.6" class="st25" width="0.5" height="0.2"/>
		<rect x="24.8" y="75.2" class="st25" width="0.5" height="0.2"/>
		<rect x="25.2" y="74.8" class="st25" width="0.5" height="0.2"/>
		<rect x="25.1" y="75" class="st25" width="0.5" height="0.2"/>
		<rect x="24.5" y="75.4" class="st25" width="0.5" height="0.2"/>
		<rect x="25" y="74.8" class="st25" width="0.3" height="0.2"/>
		<rect x="24.5" y="75" class="st25" width="0.5" height="0.2"/>
		<rect x="24.3" y="75.6" class="st25" width="0.5" height="0.2"/>
		<rect x="24.5" y="74.5" class="st25" width="0.5" height="0.2"/>
		<rect x="24.4" y="74.8" class="st25" width="0.5" height="0.2"/>
		<rect x="24.3" y="75.2" class="st25" width="0.5" height="0.2"/>
		<rect x="24" y="75" class="st25" width="0.3" height="0.2"/>
		
			<rect x="23.2" y="74.5" transform="matrix(-1 -4.769086e-11 4.769086e-11 -1 46.983 149.1095)" class="st25" width="0.5" height="0.2"/>
		
			<rect x="23.5" y="74.7" transform="matrix(-1 -4.769086e-11 4.769086e-11 -1 47.4355 149.496)" class="st25" width="0.5" height="0.2"/>
		
			<rect x="22.9" y="74.7" transform="matrix(-1 -4.769086e-11 4.769086e-11 -1 46.3573 149.496)" class="st25" width="0.5" height="0.2"/>
		
			<rect x="22.7" y="74.5" transform="matrix(-1 -4.087809e-11 4.087809e-11 -1 45.915 149.1095)" class="st25" width="0.5" height="0.2"/>
		
			<rect x="23" y="74.8" transform="matrix(-1 -4.087809e-11 4.087809e-11 -1 46.6074 149.8826)" class="st25" width="0.5" height="0.2"/>
		
			<rect x="23.8" y="74.5" transform="matrix(-1 -4.087809e-11 4.087809e-11 -1 48.0509 149.1095)" class="st25" width="0.5" height="0.2"/>
		
			<rect x="23.2" y="75" transform="matrix(-1 -5.450408e-11 5.450408e-11 -1 46.9145 150.2622)" class="st25" width="0.5" height="0.2"/>
		
			<rect x="23.4" y="75.2" transform="matrix(-1 -4.769086e-11 4.769086e-11 -1 47.3956 150.6419)" class="st25" width="0.5" height="0.2"/>
		
			<rect x="23.7" y="75.4" transform="matrix(-1 -4.087809e-11 4.087809e-11 -1 47.9695 151.0284)" class="st25" width="0.5" height="0.2"/>
		
			<rect x="24.1" y="75.6" transform="matrix(-1 -4.087809e-11 4.087809e-11 -1 48.5217 151.4149)" class="st25" width="0.3" height="0.2"/>
		
			<rect x="24" y="74.6" transform="matrix(-1 -4.087809e-11 4.087809e-11 -1 48.5034 149.4892)" class="st25" width="0.5" height="0.2"/>
		
			<rect x="24" y="75.2" transform="matrix(-1 -4.087809e-11 4.087809e-11 -1 48.4636 150.6419)" class="st25" width="0.5" height="0.2"/>
		
			<rect x="23.6" y="74.8" transform="matrix(-1 -4.769086e-11 4.769086e-11 -1 47.6754 149.8826)" class="st25" width="0.5" height="0.2"/>
		
			<rect x="24.3" y="75.4" transform="matrix(-1 -4.769086e-11 4.769086e-11 -1 49.0374 151.0284)" class="st25" width="0.5" height="0.2"/>
		
			<rect x="24.3" y="75" transform="matrix(-1 -4.769086e-11 4.769086e-11 -1 49.0374 150.2622)" class="st25" width="0.5" height="0.2"/>
		
			<rect x="24.4" y="75.6" transform="matrix(-1 -5.450408e-11 5.450408e-11 -1 49.3226 151.4149)" class="st25" width="0.5" height="0.2"/>
		
			<rect x="24.5" y="75.2" transform="matrix(-1 -4.769086e-11 4.769086e-11 -1 49.5352 150.6419)" class="st25" width="0.5" height="0.2"/>
		<rect x="24.5" y="74.6" class="st25" width="0.5" height="0.2"/>
		<rect x="24.3" y="74.5" class="st25" width="0.3" height="0.2"/>
		<rect x="23.7" y="75" class="st25" width="0.3" height="0.2"/>
		
			<rect x="24.1" y="74.8" transform="matrix(-1 -4.769086e-11 4.769086e-11 -1 48.7494 149.8757)" class="st25" width="0.5" height="0.2"/>
		
			<rect x="24.9" y="75.6" transform="matrix(-1 -4.087809e-11 4.087809e-11 -1 50.118 151.4149)" class="st25" width="0.3" height="0.2"/>
		<polygon class="st13" points="26.5,74.3 26.4,74.4 26.1,73.4 26.1,73.3 		"/>
		<polygon class="st13" points="23.3,73.4 23.2,73.3 22.9,74.3 23,74.4 		"/>
	</g>
	<ellipse transform="matrix(0.2126 -0.9771 0.9771 0.2126 3.8515 54.3742)" class="st9" cx="35.7" cy="24.8" rx="1.8" ry="1.3"/>
	<path class="st3" d="M26,31.8c-0.4-0.5-0.9-1-1.3-1.4c1.7-1.3,3.7-2.7,6.1-4c1-0.5,2-1,3-1.4c0.5,0.7,1,1.5,1.5,2.2
		c-0.2,0.2-0.5,0.5-0.8,0.8c-1.2,1-2.4,1.3-2.9,1.5C30.2,30,28.5,30.7,26,31.8z"/>
	
		<radialGradient id="SVGID_1_" cx="24.6962" cy="22.6406" r="6.2551" gradientTransform="matrix(0.9452 0 0 0.9571 1.0909 1.7248)" gradientUnits="userSpaceOnUse">
		<stop  offset="0" style="stop-color:#FFD473;stop-opacity:0.7"/>
		<stop  offset="1" style="stop-color:#CE9334;stop-opacity:0"/>
	</radialGradient>
	<ellipse class="st27" cx="24.4" cy="23.4" rx="5.9" ry="6"/>
	
		<radialGradient id="SVGID_00000180357180651939639010000005446153593975278761_" cx="24.6962" cy="22.6406" r="6.2551" gradientTransform="matrix(0.9452 0 0 0.9571 1.0909 1.7248)" gradientUnits="userSpaceOnUse">
		<stop  offset="0" style="stop-color:#FFD473;stop-opacity:0.7"/>
		<stop  offset="1" style="stop-color:#CE9334;stop-opacity:0"/>
	</radialGradient>
	<ellipse style="fill:url(#SVGID_00000180357180651939639010000005446153593975278761_);" cx="24.4" cy="23.4" rx="5.9" ry="6"/>
	
		<radialGradient id="SVGID_00000166663907137775967630000008716997590885558926_" cx="25.0136" cy="68.5974" r="3.2821" gradientTransform="matrix(0.9452 0 0 0.9571 1.0909 1.7248)" gradientUnits="userSpaceOnUse">
		<stop  offset="0" style="stop-color:#FFD473;stop-opacity:0.7"/>
		<stop  offset="1" style="stop-color:#CE9334;stop-opacity:0"/>
	</radialGradient>
	<ellipse style="fill:url(#SVGID_00000166663907137775967630000008716997590885558926_);" cx="24.7" cy="67.4" rx="3.1" ry="3.1"/>
	<path class="st13" d="M27.6,12.6c-0.1,1.5-0.3,2.9-0.4,4.4c-0.3-1.3-0.6-3-0.1-4.8c0.1-0.3,0.1-0.5,0.2-0.8c0,0.3,0.1,0.5,0.1,0.8
		C27.5,12.3,27.6,12.5,27.6,12.6z"/>
	<g>
		<path class="st30" d="M28,16.5l-0.8-0.4l-0.8,0.5V17l0,0.5l0.8,0.4l0,0l0.8-0.5V17L28,16.5z M27.6,17.6h-0.7L26.5,17l0.3-0.6h0.7
			l0.3,0.6L27.6,17.6z"/>
		<polygon class="st17" points="27.2,16.4 27.2,17 26.5,17 26.9,16.4 		"/>
		<polygon class="st18" points="27.2,17 27.2,17.6 26.9,17.6 26.5,17 		"/>
		<polygon class="st19" points="27.9,17 27.6,17.6 27.2,17.6 27.2,17 		"/>
		<polygon class="st20" points="27.9,17 27.2,17 27.2,16.4 27.6,16.4 		"/>
		<polyline class="st10" points="27.2,16.4 27.2,16.1 27.2,15.8 		"/>
	</g>
	<path class="st8" d="M35.4,25.8c-0.2,0.2-0.4,0.3-0.7,0.5c-0.6-0.6-1.2-1.3-1.9-2.2c-0.5-0.6-0.8-1.3-1.1-1.8
		c0.5-0.1,1.1-0.2,1.8-0.6C34,22.6,34.8,24.1,35.4,25.8z"/>
	<path class="st7" d="M36.7,24.8c-0.5,0.3-0.9,0.6-1.4,1c-0.6-1.6-1.3-3.2-1.8-4.2c0,0,0.1,0,0.1-0.1c0.7-0.4,1.3-0.9,1.6-1.2
		C35.7,21.8,36.2,23.3,36.7,24.8z"/>
	<path class="st14" d="M35.4,26c-0.8,0.6-1.6,1.1-2.6,1.7c-0.6,0.3-1.1,0.6-1.7,0.9c-0.6-0.8-1.3-1.2-1.8-1.5c1-0.8,2.6-1.7,4.5-2.1
		c0.3-0.1,0.6-0.1,0.9-0.1C34.9,25.2,35.1,25.6,35.4,26z"/>
	<path class="st5" d="M36,27.1c-0.7,0.6-1.6,1.2-2.6,1.7c-0.6,0.3-1.1,0.6-1.6,0.8c-0.2-0.3-0.4-0.6-0.6-1c0,0,0,0-0.1-0.1
		c0.5-0.3,1.1-0.6,1.7-0.9c1-0.5,1.8-1.1,2.6-1.7C35.6,26.4,35.8,26.7,36,27.1z"/>
	<path class="st7" d="M35.8,27.5c0,0-0.1,0-0.1,0c-0.9,0-1.7-1.1-1.7-2.4c0-1,0.5-1.9,1.1-2.2c0.3,0.5,0.8,1.2,0.9,2.2
		C36.2,26.1,36,26.9,35.8,27.5z"/>
	<path class="st13" d="M37.3,25.1c0,1.3-0.7,2.3-1.5,2.4c0.2-0.6,0.4-1.4,0.2-2.4c-0.1-1-0.6-1.8-0.9-2.2c0.2-0.1,0.4-0.1,0.5-0.1
		C36.6,22.8,37.3,23.8,37.3,25.1z"/>
	<path class="st8" d="M29.7,28.9l-4.5,2.2c-0.2-0.3-0.3-0.5-0.5-0.8c0.3-0.3,0.7-0.5,1-0.8c1.1-0.8,2.1-1.6,3.2-2.3
		C29,27.6,29.2,28.2,29.7,28.9z"/>
	<path class="st7" d="M30.8,30c-1.7,0.6-3.4,1.2-5.1,1.8c-0.2-0.3-0.3-0.5-0.5-0.8l4.5-2.2c0,0,0,0,0,0C30.1,29.4,30.5,29.8,30.8,30
		z"/>
	<path class="st5" d="M36.4,26.7c-0.2,0.1-0.4,0.1-0.8,0.1c-0.2,0-0.3,0-0.5-0.1c0.1-0.3,0.4-0.8,0.4-1.6c0-0.6-0.2-1.1-0.3-1.4
		c0.1-0.1,0.3-0.2,0.6-0.3c0.3-0.1,0.6,0,0.8,0c0.1,0.2,0.2,0.6,0.3,1C37,25.5,36.6,26.3,36.4,26.7z"/>
	<path class="st10" d="M35.1,22.9c-0.1-0.1-0.2-0.2-0.3-0.3"/>
	<path class="st10" d="M36.1,25.5c-0.2,0.2-0.5,0.3-0.7,0.5"/>
	<line class="st10" x1="30" y1="28.7" x2="29.7" y2="28.9"/>
	<ellipse transform="matrix(0.9771 -0.2126 0.2126 0.9771 -4.9722 3.324)" class="st9" cx="13" cy="24.8" rx="1.3" ry="1.8"/>
	<path class="st3" d="M22.7,31.8c0.4-0.5,0.9-1,1.3-1.4c-1.7-1.3-3.7-2.7-6.1-4c-1-0.5-2-1-3-1.4c-0.5,0.7-1,1.5-1.5,2.2
		c0.2,0.2,0.5,0.5,0.8,0.8c1.2,1,2.4,1.3,2.9,1.5C18.4,29.9,20.2,30.6,22.7,31.8z"/>
	<path class="st8" d="M13.3,25.7c0.2,0.2,0.4,0.3,0.7,0.5c0.6-0.6,1.2-1.3,1.9-2.2c0.5-0.6,0.8-1.3,1.1-1.8
		c-0.5-0.1-1.1-0.2-1.8-0.6C14.6,22.6,13.9,24.1,13.3,25.7z"/>
	<path class="st7" d="M11.9,24.8c0.5,0.3,0.9,0.6,1.4,1c0.6-1.6,1.3-3.2,1.8-4.2c0,0-0.1,0-0.1-0.1c-0.7-0.4-1.3-0.9-1.6-1.2
		C12.9,21.8,12.4,23.3,11.9,24.8z"/>
	<path class="st14" d="M13.3,26c0.8,0.6,1.6,1.1,2.6,1.7c0.6,0.3,1.1,0.6,1.7,0.9c0.6-0.8,1.3-1.2,1.8-1.5c-1-0.8-2.6-1.7-4.5-2.1
		c-0.3-0.1-0.6-0.1-0.9-0.1C13.7,25.2,13.5,25.6,13.3,26z"/>
	<path class="st5" d="M12.6,27.1c0.7,0.6,1.6,1.2,2.6,1.7c0.6,0.3,1.1,0.6,1.6,0.8c0.2-0.3,0.4-0.6,0.6-1c0,0,0,0,0.1-0.1
		c-0.5-0.3-1.1-0.6-1.7-0.9c-1-0.5-1.8-1.1-2.6-1.7C13,26.4,12.8,26.7,12.6,27.1z"/>
	<path class="st7" d="M12.9,27.5c0,0,0.1,0,0.1,0c0.9,0,1.7-1.1,1.7-2.4c0-1-0.5-1.9-1.1-2.2c-0.3,0.5-0.8,1.2-0.9,2.2
		C12.5,26.1,12.6,26.9,12.9,27.5z"/>
	<path class="st13" d="M11.3,25.1c0,1.3,0.7,2.3,1.5,2.4c-0.2-0.6-0.4-1.4-0.2-2.4c0.1-1,0.6-1.8,0.9-2.2c-0.2-0.1-0.4-0.1-0.5-0.1
		C12.1,22.7,11.3,23.8,11.3,25.1z"/>
	<path class="st8" d="M18.9,28.9l4.5,2.2c0.2-0.3,0.3-0.5,0.5-0.8c-0.3-0.3-0.7-0.5-1-0.8c-1.1-0.8-2.1-1.6-3.2-2.3
		C19.6,27.6,19.4,28.2,18.9,28.9z"/>
	<path class="st7" d="M17.8,30c1.7,0.6,3.4,1.2,5.1,1.8c0.2-0.3,0.3-0.5,0.5-0.8l-4.5-2.2c0,0,0,0,0,0C18.5,29.4,18.1,29.8,17.8,30z
		"/>
	<path class="st5" d="M12.3,26.6c0.2,0.1,0.4,0.1,0.8,0.1c0.2,0,0.3,0,0.5-0.1c-0.1-0.3-0.4-0.8-0.4-1.6c0-0.6,0.2-1.1,0.3-1.4
		c-0.1-0.1-0.3-0.2-0.6-0.3c-0.3-0.1-0.6,0-0.8,0c-0.1,0.2-0.2,0.6-0.3,1C11.7,25.5,12.1,26.3,12.3,26.6z"/>
	<path class="st10" d="M13.8,22.6c-0.1,0.1-0.2,0.2-0.3,0.3"/>
	<path class="st10" d="M13.3,26c-0.2-0.2-0.5-0.3-0.7-0.5"/>
	<path class="st7" d="M17.7,20.4c0.2-0.4,0.4-0.9,0.8-1.3c0.9-1.1,1.9-1.6,2.5-1.8c-0.5-1.7-1-3.3-1.5-5c-0.8,0.3-2.2,1.1-3.4,2.6
		c-0.9,1-1.3,2.1-1.6,2.8c0.3,0,1.4,0.1,2.3,1C17.5,19.3,17.7,20.1,17.7,20.4z"/>
	<path class="st13" d="M18.2,20.5c0.1-0.4,0.3-1.1,0.8-1.8c0.9-1.2,2.2-1.6,2.6-1.7c0.1-1.3,0.1-2.7,0.2-4c-0.4-0.3-2.2-1.5-4.2-0.5
		c-2,1-2.8,3.4-2.9,4c0.4,0.1,0.9,0.3,1.3,0.6C17.8,18,18.1,20,18.2,20.5z"/>
	<path class="st7" d="M21.3,17.1c-0.3,0.1-0.7,0.3-1.2,0.5c-0.6,0.4-0.9,0.8-1.2,1.1c-0.2-0.8-0.4-1.9-1-3.1c-0.5-1.1-1-1.9-1.5-2.6
		c0.4-0.4,0.9-0.9,1.7-1.2c1.2-0.4,2.2,0,2.6,0.3c0.1,0.7,0.2,1.4,0.3,2.1C21.2,15.3,21.3,16.3,21.3,17.1z"/>
	<path class="st13" d="M21.2,12.6c0.1,1.5,0.3,2.9,0.4,4.4c0.3-1.3,0.6-3,0.1-4.8c-0.1-0.3-0.1-0.5-0.2-0.8c0,0.3-0.1,0.5-0.1,0.8
		C21.3,12.3,21.2,12.5,21.2,12.6z"/>
	<g>
		<path class="st30" d="M22.8,16.5L22,16.1l-0.8,0.5V17l0,0.5l0.8,0.4l0,0l0.8-0.5V17L22.8,16.5z M22.4,17.6h-0.7L21.3,17l0.3-0.6
			h0.7l0.3,0.6L22.4,17.6z"/>
		<polygon class="st17" points="22,16.4 22,17 21.3,17 21.7,16.4 		"/>
		<polygon class="st18" points="22,17 22,17.6 21.7,17.6 21.3,17 		"/>
		<polygon class="st19" points="22.7,17 22.4,17.6 22,17.6 22,17 		"/>
		<polygon class="st20" points="22.7,17 22,17 22,16.4 22.4,16.4 		"/>
		<polyline class="st10" points="22,16.4 22,16.1 22,15.8 		"/>
	</g>
	<path class="st8" d="M33.3,51.3c-0.6-0.5-2.2-1.6-4.4-1.5c-0.6,0-1.1,0.1-1.6,0.3c-0.1-0.2-0.1-0.5-0.2-0.7
		c-0.1-0.6-0.3-1.2-0.4-1.8l0.7-2.1c1.8,0.4,3.7,0.8,5.6,1.1c0.1,0.3,0.1,0.6,0.2,1c0,0.1,0.1,0.5,0.1,1.1
		C33.4,49.8,33.3,50.8,33.3,51.3z"/>
	<path class="st31" d="M29.8,7.4c1,4.5-3.4,9.1-3.7,8.9c-0.2-0.1,2-2.3,1.7-5.5c-0.2-1.8-1.3-5.2-2.5-7.5c-0.1-0.2-0.4-0.8-0.3-1
		c0.3-0.3,1.6,0.4,2.5,1.1C27.6,3.6,29.3,5.1,29.8,7.4z"/>
	<path class="st31" d="M25.1,2.4c0,0.1-0.5,0.2-0.9,0.3C23,3.3,22.8,5.1,22.6,6c-0.3,1.8,0.1,2.8,0.1,3.7c0.1,4.4-8.9,8.1-9,7.9
		c-0.1-0.1,4.7-1.4,6-5.3c0.6-1.8,0.5-4.3,1.4-7c0-0.1,0.4-1,1.2-2c0.8-1,1.4-1.1,1.6-1.2C24.5,2.1,25.1,2.2,25.1,2.4z"/>
	<path class="st32" d="M27.3,11.4c0,0,0.3-1.2,0.1-3.1c-0.1-1.1-0.3-2.6-1.3-4.2c-0.6-0.9-1.3-1.5-1.2-1.6c0.1-0.1,1.2,0.4,1.9,1.2
		C29.2,6.2,27.4,11.4,27.3,11.4z"/>
	<path class="st32" d="M19.4,11c0,0,1.5-0.6,2.5-2c1.3-2,0.2-3.7,1.6-5.3C24.2,3,25.2,2.6,25,2.3c-0.1-0.2-0.5-0.2-0.8-0.1
		c-1.5,0.4-2.2,3.4-2.5,4.9c-0.2,1-0.3,1.6-0.7,2.4C20.3,10.5,19.4,11,19.4,11z"/>
	<path class="st33" d="M29.4,11.8c0,0,1.2-3.2,0.1-6.3c-0.8-2.1-2.5-3.8-3.7-3.7c-0.1,0-0.7,0.1-0.7,0.2c0,0.1,0.5,0.1,0.6,0.2
		c1.2,0.2,3.6,2.8,4,6.4C29.9,10.5,29.4,11.8,29.4,11.8z"/>
	<path class="st34" d="M28.4,12.2c0,0,1.4-3,0.2-6c-1-2.6-3.4-3.8-3.3-3.9c0-0.1,2.2,1,3.3,3.2C30,8.5,28.4,12.2,28.4,12.2z"/>
	<path class="st34" d="M25.8,5.6c0,0,0-0.4-0.1-0.8c-0.2-1.4-0.8-2.2-0.7-2.2c0.1,0,0.8,0.7,0.9,1.8C26,5,25.9,5.6,25.8,5.6z"/>
	<path class="st33" d="M24.8,2.2C25,2.5,22.9,3.1,21.6,5c-1.5,2.2-0.5,3.8-2.2,5.5c-0.9,0.9-2.2,1.4-2.2,1.3c0,0,0.6-0.4,1.1-0.8
		c2-1.8,1.1-4.4,3.1-7c0.2-0.3,0.7-0.9,1.5-1.3C23.7,2.2,24.7,2,24.8,2.2z"/>
	<path class="st34" d="M19.6,7.8c0,0,0.9-5,3.7-5.7C24,1.9,25,2,25,2c0,0-0.9,0-1.6,0.2C20.5,3,19.6,7.8,19.6,7.8z"/>
	<path class="st13" d="M31.8,13.2c0,0-0.6-0.5-1.4-0.4c-0.3,0-0.5,0.2-0.7,0.1c-0.2-0.1-0.3-0.6-0.2-0.8
		C29.9,11.7,31.8,13.1,31.8,13.2z"/>
	<path class="st35" d="M29.3,20.6c0,0-0.1-1.3-1.1-1.9c-0.6-0.4-1.2-0.3-1.2-0.4c0-0.1,0.6-0.2,1.2,0.1C29.3,19,29.4,20.6,29.3,20.6
		z"/>
	<path class="st35" d="M16.8,14c0,0.1-0.2,0.3-0.3,0.3c-0.8,0.6-1.2,1.8-1.2,1.8c-0.1,0,0.5-2.1,1.2-2.2C16.5,14,16.7,13.9,16.8,14z
		"/>
	<path class="st35" d="M17.8,18.4c-0.5-1.1-1.2-1.6-1.1-1.7c0.1-0.1,1.2,0.6,1.5,1.7c0.1,0.5,0.1,0.9,0,1
		C18.1,19.4,18,18.9,17.8,18.4z"/>
	<path class="st35" d="M30.9,18.5c0.3-0.8,1-1.2,0.9-1.2c0,0-1.3,0.6-1.3,1.5c0,0.2,0.1,0.5,0.1,0.5C30.7,19.2,30.7,18.9,30.9,18.5z
		"/>
	<path class="st9" d="M22,27.2c0.4,0.1,0.9,0.1,1.4,0.1v0.5c-0.4-0.1-0.8-0.1-1.1-0.2C22.2,27.5,22.1,27.4,22,27.2z"/>
	<path class="st9" d="M27.5,27.3c0,0.2-0.1,0.4-0.1,0.5c-0.5,0.1-1,0.1-1.6,0.2v-0.6C26.4,27.4,27,27.3,27.5,27.3z"/>
	<ellipse transform="matrix(0.9439 -0.3304 0.3304 0.9439 -9.0556 9.8212)" class="st8" cx="24.4" cy="31.6" rx="2.1" ry="1.7"/>
	<ellipse transform="matrix(0.5852 -0.8109 0.8109 0.5852 -15.6391 33.0802)" class="st7" cx="24.5" cy="31.8" rx="1.7" ry="2.1"/>
	<path class="st5" d="M30.2,27.6c0,0,0.5-0.7,1.5-1.4c0.9-0.6,1.8-0.7,1.8-0.8c0-0.1-0.7-0.1-1.5,0.2C30.7,26.2,30.1,27.6,30.2,27.6
		z"/>
	<path class="st13" d="M14.2,21.3c0,0.2-0.2,0.2-0.7,0.7c-0.4,0.3-0.4,0.4-0.5,0.4c-0.2-0.1,0.1-1.4,0.7-1.4
		C13.9,20.9,14.2,21.1,14.2,21.3z"/>
	<path class="st7" d="M31,32.6c0.2-0.5-1-1.4-1-1.5c0,0,1.6,1.1,1.3,1.6c-0.2,0.5-2.1,0.1-2.1,0C29.3,32.8,30.8,33.1,31,32.6z"/>
	<path class="st7" d="M32.5,38.9c0.2-0.5-1-1.4-1-1.5c0,0,1.6,1.1,1.3,1.6c-0.2,0.5-2.1,0.1-2.1,0C30.7,39.1,32.3,39.4,32.5,38.9z"
		/>
	<path class="st7" d="M33,45.4c0.3-0.4-0.7-1.6-0.6-1.6c0,0,1.3,1.4,0.9,1.9c-0.3,0.5-2.1-0.4-2-0.4C31.3,45.1,32.7,45.8,33,45.4z"
		/>
	<path class="st7" d="M17.3,35.5c0.2,0.5,1.7,0.2,1.7,0.2c0,0-1.9,0.5-2.1,0c-0.2-0.5,1.3-1.7,1.3-1.6C18.3,34.1,17.1,35,17.3,35.5z
		"/>
	<path class="st7" d="M16.4,42c0.3,0.5,1.7,0,1.7,0c0,0-1.8,0.7-2.1,0.2c-0.3-0.5,1.1-1.8,1.1-1.8C17.3,40.5,16.2,41.6,16.4,42z"/>
	<path class="st7" d="M16.6,49.8c0.4,0.4,1.7-0.4,1.7-0.4c0,0-1.6,1.1-2,0.6c-0.4-0.4,0.7-2,0.7-2C17.1,48.1,16.2,49.4,16.6,49.8z"
		/>
	<ellipse class="st15" cx="24.7" cy="53.4" rx="1.3" ry="1.3"/>
	<line class="st10" x1="24.7" y1="57.4" x2="24.7" y2="53.3"/>
	<line class="st10" x1="24.7" y1="27.9" x2="24.7" y2="26.5"/>
</g>
</svg>
