<?xml version="1.0" encoding="utf-8"?>
<!-- Generator: Adobe Illustrator 26.5.0, SVG Export Plug-In . SVG Version: 6.00 Build 0)  -->
<svg version="1.1" id="form" xmlns="http://www.w3.org/2000/svg" xmlns:xlink="http://www.w3.org/1999/xlink" x="0px" y="0px"
	 viewBox="0 0 40 80" style="enable-background:new 0 0 40 80;" xml:space="preserve">
<style type="text/css">
	.st0{fill:#373A35;}
	.st1{fill:#4F514D;}
	.st2{fill:#5B4D3C;}
	.st3{fill:#6F5E49;}
	.st4{fill:#16120F;}
	.st5{fill:#8B8C89;}
	.st6{fill:#344E41;}
	.st7{fill:#251F18;}
	.st8{fill:#7B6851;}
	.st9{fill:#3F342A;}
	.st10{fill:#312920;}
	.st11{fill:#496E5C;}
	.st12{fill:#416252;}
	.st13{fill:none;}
	.st14{fill:none;stroke:#312920;stroke-width:0.4086;stroke-miterlimit:10;}
	.st15{fill:none;stroke:#474A45;stroke-width:0.4421;stroke-miterlimit:10;}
	.st16{fill:#283618;}
	.st17{fill:#598392;}
	.st18{fill:#5A8772;}
	.st19{fill:#474A45;}
	.st20{fill:#686865;}
	.st21{fill:#656862;}
	.st22{fill:#293D32;}
	.st23{fill:none;stroke:#5B4D3C;stroke-width:0.3329;stroke-miterlimit:10;}
	.st24{fill:none;stroke:#6F5E49;stroke-width:0.3329;stroke-miterlimit:10;}
	.st25{fill:#293D32;stroke:#203027;stroke-width:0.1;stroke-miterlimit:10;}
	.st26{fill:#3A3027;}
	.st27{fill:#281A10;}
	.st28{fill:#3D2818;}
	.st29{fill:#C0A278;}
	.st30{fill:#585B56;}
	.st31{fill:#405C63;}
	.st32{fill:#44392D;}
	.st33{fill:#4F4235;}
	.st34{fill:none;stroke:#252624;stroke-width:0.4467;stroke-miterlimit:10;}
	.st35{fill:none;stroke:#5B4D3C;stroke-width:0.1171;stroke-miterlimit:10;}
	.st36{fill:none;stroke:#6F5E49;stroke-width:0.1171;stroke-miterlimit:10;}
	.st37{fill:none;stroke:#2B241C;stroke-width:0.4;stroke-miterlimit:10;}
	.st38{fill:none;stroke:#26201B;stroke-width:0.4;stroke-miterlimit:10;}
	.st39{fill:none;stroke:#5B4D3C;stroke-width:0.4158;stroke-miterlimit:10;}
	.st40{fill:none;stroke:#5B4D3C;stroke-width:0.4806;stroke-miterlimit:10;}
	.st41{fill:none;stroke:#5B4D3C;stroke-width:0.4349;stroke-miterlimit:10;}
	.st42{fill:#2F2622;}
	.st43{fill:#333333;}
	.st44{fill:none;stroke:#5B4D3C;stroke-width:0.3353;stroke-miterlimit:10;}
	.st45{fill:none;stroke:#6F5E49;stroke-width:0.3353;stroke-miterlimit:10;}
	.st46{fill:#213027;}
	.st47{fill:none;stroke:#251F18;stroke-width:0.4317;stroke-miterlimit:10;}
	.st48{fill:#605243;}
	.st49{fill:#302922;}
	.st50{fill:#383028;}
</style>
<g>
	<path class="st0" d="M0.5,62.4C2.8,64.6,5.9,67,9.8,69c9.2,4.8,17.9,4.7,22.5,4.3c-0.4-1-0.9-2.7-1.4-4.7c-1.5-6.5-0.4-11,0.4-19
		c0.6-5.3,1.1-10.6,0.9-16.3c-0.3-6.9-1.5-12.3-2.6-15.8c-6.4-0.1-12.7-0.1-19.1-0.2c0.8,7.3,1.2,19.8-4.1,33.4
		C4.7,55.4,2.6,59.3,0.5,62.4z"/>
	<path class="st1" d="M16.7,14.2c0.6,0.3,1.1,0.6,1.7,1C14.2,33,10,50.9,5.9,68.8C4.8,68.2,3.2,67,1.8,65c-0.5-0.8-0.9-1.6-1.2-2.2
		C6,46.6,11.3,30.4,16.7,14.2z"/>
	<path class="st2" d="M11.8,53.8c1.7-0.3,3.4-0.7,5.2-1c0.6-1.3,1.1-3,1.6-5c0.5-2.2,0.5-4.2,0.5-5.8c1.1-5.9-0.1-10.6-2.6-11.7
		c-0.5-0.2-1.3-0.4-2.5,0c-0.7,3-1.3,6.3-1.7,10C11.7,45.4,11.6,49.9,11.8,53.8z"/>
	<path class="st3" d="M27.4,53.6c-1.7-0.3-3.4-0.7-5.2-1c-0.6-1.3-1.1-2.9-1.6-4.9c-0.5-2.2-0.5-4.1-0.5-5.6
		c-1-5.9,0.1-10.5,2.5-11.5c0.5-0.2,1.2-0.3,2.2,0c0.8,2.9,1.5,6.2,2,9.9c0.1,0.5,0.1,1,0.1,1c0.1,0.6,0,1,0.1,1.8c0,0.2,0,1,0,2.5
		c0,0.7,0,1,0,1.4c0,0.2,0,0.8,0.1,1.7c0,0.4,0,0.8,0.1,1.3C27.3,51.1,27.3,52.2,27.4,53.6z"/>
	<g>
		<g>
			<g>
				<path class="st4" d="M28.4,6.6c-0.5,2.7-0.9,5.6-1.3,8.3c0,0.1-0.1,0.2,0.1,0.3c0,0-0.4-0.1-0.4-0.1c0.2,0,0.1-0.1,0.2-0.3
					c0,0,0-0.3,0-0.3c0-0.3,0.2-1.3,0.2-1.6c0.3-2.1,0.6-4.4,0.8-6.4C28,6.5,28.4,6.6,28.4,6.6L28.4,6.6z"/>
			</g>
			<polygon class="st5" points="28.5,4.9 28,8.3 27.4,7 27.7,5.4 			"/>
			<polygon class="st6" points="28.4,5.4 27.9,8.8 28.8,7.7 29,6.1 			"/>
			<ellipse transform="matrix(0.1279 -0.9918 0.9918 0.1279 16.0565 35.0596)" class="st7" cx="28" cy="8.4" rx="0.6" ry="0.4"/>
		</g>
		<g>
			<g>
				<path class="st4" d="M30,7.7c-1,2.6-1.9,5.4-2.8,8c0,0,0,0.1,0.1,0.2c0,0-0.4-0.1-0.4-0.1c0.1,0,0.1,0,0.2-0.1
					c0.4-1.1,0.9-2.9,1.3-4c0.4-1.4,0.9-2.7,1.3-4.1C29.6,7.5,30,7.7,30,7.7L30,7.7z"/>
			</g>
			<polygon class="st5" points="30.3,6 29.3,9.3 28.9,7.9 29.5,6.4 			"/>
			<polygon class="st6" points="30.2,6.5 29.1,9.7 30.2,8.9 30.7,7.3 			"/>
			<ellipse transform="matrix(0.2838 -0.9589 0.9589 0.2838 11.9267 34.754)" class="st7" cx="29.2" cy="9.4" rx="0.5" ry="0.4"/>
		</g>
		<g>
			<g>
				<path class="st4" d="M31.6,8.9c-1.2,2.6-2.3,5.3-3.4,7.9c0,0,0,0.1,0.1,0.2l-0.4-0.2c0.1,0,0.2,0,0.2-0.1
					c0.4-1.1,1.1-2.8,1.6-3.9c0.6-1.4,1.1-2.7,1.6-4.1C31.2,8.7,31.6,8.9,31.6,8.9L31.6,8.9z"/>
			</g>
			<polygon class="st5" points="32,7.3 30.7,10.5 30.5,9.1 31.1,7.5 			"/>
			<polygon class="st6" points="31.8,7.7 30.5,10.9 31.6,10.2 32.2,8.6 			"/>
			<ellipse transform="matrix(0.3319 -0.9433 0.9433 0.3319 10.485 35.9825)" class="st7" cx="30.6" cy="10.6" rx="0.6" ry="0.4"/>
		</g>
		<g>
			<path class="st2" d="M25.8,11.7c0,0,0,0.1,0,0.1c0.4-1.3,0.7-2.7,1.1-4c0,0,0,0,0,0.1l0,0c-0.2,0.2,0.2,2.1,1.4,3.2
				c0.1,0.1,0.2,0.2,0.3,0.2c-0.3,0.9-0.6,1.8-0.9,2.7C27,13.2,26.4,12.5,25.8,11.7z"/>
			<path class="st8" d="M31.3,11.9c-0.6,1.4-1.2,2.9-1.8,4.3c-0.6-0.7-1.2-1.5-1.8-2.2c0.3-0.9,0.6-1.8,0.9-2.7
				C29.7,12.2,31.2,12.1,31.3,11.9z"/>
			<path class="st2" d="M22.2,30.3c-0.1,0-0.1,0-0.2-0.1c-0.6-0.2-0.9-0.7-1.1-0.9c1.2-4.2,2.3-8.4,3.5-12.7l2.1,0.8
				C25.1,21.8,23.6,26.1,22.2,30.3z"/>
			<path class="st3" d="M28.6,18.3c-1.7,4-3.4,8-5.1,12c-0.2,0.1-0.7,0.2-1.2,0c1.4-4.3,2.8-8.5,4.3-12.8L28.6,18.3z"/>
			<path class="st9" d="M31.3,11.9L31.3,11.9c-0.1,0.2-1.6,0.3-2.7-0.6c-0.1-0.1-0.2-0.1-0.3-0.2c-1.2-1.1-1.6-3-1.4-3.2l0,0
				c0,0.5,0.3,2.1,1.5,3.2c0.1,0.1,0.1,0.1,0.2,0.2C29.7,12.1,31,12,31.3,11.9z"/>
			<path class="st10" d="M31.3,11.9L31.3,11.9c-0.1,0.2-1.6,0.3-2.7-0.6c-0.1-0.1-0.2-0.1-0.3-0.2c-1.2-1.1-1.6-3-1.4-3.2l0,0
				c0.2-0.1,0.8,1.5,2.7,2.8C30.6,11.6,31.3,11.8,31.3,11.9z"/>
			<path class="st11" d="M29.5,16.2c-0.3,0.7-0.6,1.4-0.9,2.1l-2.1-0.8c0.4-1.2,0.8-2.4,1.2-3.5C28.2,14.7,28.9,15.5,29.5,16.2z"/>
			<path class="st12" d="M26.5,17.5l-2.1-0.8c0.4-1.6,0.9-3.3,1.3-4.9c0,0,0-0.1,0-0.1c0.2,0.3,0.6,0.8,0.9,1.1
				c0.3,0.4,0.7,0.9,1,1.2C27.3,15.2,26.9,16.3,26.5,17.5z"/>
			<path class="st12" d="M24.4,16.7l-0.1,0c0.5-1.6,1-3.2,1.5-4.9C25.3,13.5,24.9,15.1,24.4,16.7z"/>
			<path class="st11" d="M29.5,16.2l-0.7,2.2l-0.2-0.1C28.9,17.6,29.2,16.9,29.5,16.2C29.5,16.2,29.5,16.2,29.5,16.2z"/>
			<line class="st13" x1="22.2" y1="30.3" x2="22.2" y2="30.3"/>
			<path class="st13" d="M28.5,11.3C28.5,11.3,28.6,11.3,28.5,11.3c0.1-0.2,0.1-0.3,0.1-0.4"/>
			<ellipse transform="matrix(0.2484 -0.9687 0.9687 0.2484 9.3688 38.4437)" class="st14" cx="29.5" cy="13.2" rx="0.5" ry="0.4"/>
		</g>
	</g>
	<polyline class="st13" points="19.2,12.7 19.2,18.9 19.2,23.7 	"/>
	<polyline class="st13" points="19.2,24.8 19.2,26.4 19.2,27.3 	"/>
	<path class="st15" d="M18.2,26.7"/>
	<ellipse transform="matrix(0.1764 -0.9843 0.9843 0.1764 4.5261 43.4038)" class="st10" cx="28.2" cy="19" rx="0.7" ry="2.7"/>
	<ellipse transform="matrix(0.1771 -0.9842 0.9842 0.1771 6.6737 40.9588)" class="st10" cx="27.8" cy="16.5" rx="0.7" ry="2.3"/>
	<rect x="14" y="41.5" class="st16" width="4.4" height="4.7"/>
	<rect x="14" y="51.4" class="st17" width="4.4" height="4.7"/>
	<path class="st18" d="M19.1,3.5L19.1,3.5C19.1,3.4,19.1,3.4,19.1,3.5C19.1,3.4,19.1,3.4,19.1,3.5L19.1,3.5z"/>
	<path class="st18" d="M19.1,3.4c0,0-0.1-0.1-0.1-0.1L19.1,3.4z"/>
	<ellipse class="st19" cx="25.7" cy="17.9" rx="0.5" ry="0.5"/>
	<ellipse class="st19" cx="11.8" cy="18.5" rx="0.5" ry="0.5"/>
	<line class="st13" x1="22.3" y1="32.9" x2="19.9" y2="32.9"/>
	<line class="st13" x1="16.7" y1="32.9" x2="14.3" y2="32.9"/>
	<g>
		<path class="st13" d="M36.7,37.3"/>
	</g>
	<rect x="21.6" y="7.4" class="st20" width="3.5" height="3.5"/>
	<path class="st21" d="M7.7,33.2c1,0.5,1.9,0.9,2.9,1.4c0.3-0.7,0.6-1.6,0.8-2.7c0.3-1.6,0.4-3,0.3-4.1c-0.9-0.2-1.8-0.4-2.7-0.6
		c-0.4,1-0.7,2.2-1,3.5C7.9,31.6,7.7,32.4,7.7,33.2z"/>
	<path class="st22" d="M27.8,27.3c0.9,0.6,1.9-1.8,2.8-0.2c0.1-2,0-1.9-0.1-4.3c-0.1,0.2-0.3-4-0.6-4c-0.3-1.2-0.6-2.1-0.9-3.2
		c-0.5,0.6-1,2.6-1.5,2.4c-0.5,0.5-1,2.4-1.5,2.4c-0.1-1.2-0.4-0.6-0.5,1.8c-0.1,0.9-0.1,2.5,0.6,3.4C26.6,27.8,27.3,26.8,27.8,27.3
		z"/>
	<path class="st21" d="M31.4,31.5c-1,0.5-1.9,0.9-2.9,1.4c-0.3-0.7-0.6-1.6-0.8-2.7c-0.1-0.9-0.2-1.7-0.2-2.3c1-0.1,1.9-0.3,2.9-0.4
		c0.2,0.4,0.4,0.9,0.6,1.6C31.4,30,31.4,30.8,31.4,31.5z"/>
	<path class="st2" d="M31.7,34.3c-0.1-0.7-0.2-1.4-0.2-2.4c0-0.8,0.2-1.4,0.3-1.9c-0.2,0-0.5,0-0.9,0c-0.5,0.1-0.6,0.2-1,0.2
		c-0.4,0.1-0.6-0.1-1.1-0.2c-0.4-0.1-0.9-0.1-1.6-0.1c0.4,1.4,0.8,2.8,1.2,4.3c0.5,1.6,1,3.2,1.4,4.7c0.5,1.4,0.7,1.9,0.7,1.8
		c0.1,0-0.1-0.6,0.1-0.7c0.1-0.1,0.4,0,0.7,0.3c0.1-0.2,0.1-0.3,0.2-0.5c0.2-0.7,0.2-1.4,0.2-1.9C31.9,36.4,31.9,35.2,31.7,34.3z"/>
	<path class="st12" d="M26,21.6C26,20,26,21.1,26,21.6c0,1.2,0,2.7-0.1,2.6c0,0.1-0.1,1.5-0.2,1.5c-0.3,1.2-0.7,4.3-0.9,5
		c0.1-1,0.4,2.1,0.2,2c-0.5,1.6-2.3,1.9-3.5,0.9c-1.3-1.9-1.9-2.4-2-2.5c0,0.4,0-3.9,0-6.8c0-3.4,0-6.7,0-6.8c1.1,1.4,2.2-0.3,3.3,0
		c1.1,0.8,2.2,0.1,3.3,0C26,19.5,26,20.9,26,21.6z"/>
	<path class="st3" d="M27.4,64.1h-4.4c-0.2-1-0.2-2.2-0.2-3.5c0-0.6,0.1-1.1,0.2-1.7c1.5,0,2.9,0,4.4,0c0.1,0.4,0.2,0.9,0.2,1.3
		C27.8,61.8,27.6,63.1,27.4,64.1z"/>
	<g>
		<path class="st10" d="M22.6,59c0.8,0.1,1.6,0.2,2.6,0.2c0.9,0,1.8-0.1,2.5-0.2c0-2.4,0-4.8,0-7.3c-0.8,0.1-1.6,0.1-2.5,0.1
			c-0.9,0-1.8,0-2.6-0.1C22.6,54.2,22.6,56.6,22.6,59z"/>
		<g>
			<ellipse class="st7" cx="25.1" cy="55.7" rx="2.5" ry="2.6"/>
			<path class="st23" d="M23.3,55.7l1.7,0l0-1.8C24.1,53.9,23.3,54.7,23.3,55.7z"/>
			<path class="st23" d="M23.3,55.7c0,1,0.8,1.8,1.7,1.8l0-1.8L23.3,55.7z"/>
			<path class="st23" d="M25.1,55.7l0,1.8c1,0,1.7-0.8,1.7-1.8L25.1,55.7z"/>
			<path class="st24" d="M25.1,53.9l0,1.8l1.7,0C26.8,54.7,26,53.9,25.1,53.9z"/>
			<line class="st13" x1="25.1" y1="57.6" x2="25.1" y2="59.8"/>
			<line class="st13" x1="25" y1="51.7" x2="25.1" y2="53.9"/>
			<line class="st13" x1="23.3" y1="55.7" x2="20.7" y2="55.8"/>
			<line class="st13" x1="29.4" y1="55.7" x2="26.8" y2="55.7"/>
			<path class="st2" d="M24,55.7l1.1,0l0-1.1C24.5,54.6,24,55.1,24,55.7z"/>
			<path class="st10" d="M24,55.7c0,0.6,0.5,1.1,1.1,1.1l0-1.1L24,55.7z"/>
			<path class="st3" d="M25.1,55.7l0,1.1c0.6,0,1.1-0.5,1.1-1.1L25.1,55.7z"/>
			<path class="st8" d="M25.1,54.6l0,1.1l1.1,0C26.1,55.1,25.7,54.6,25.1,54.6z"/>
		</g>
	</g>
	<path class="st22" d="M11.7,28.2c-0.4,0.1-0.9-0.1-1.5-0.3c-0.5-0.5-1-2-1.4,0c-0.1-2.4-0.2-3.4,0-4.8c0.1-0.5,0.3-1.2,0.6-4
		c0.3-0.7,0.6-0.2,0.9-3.2c0.5,2,1,1.2,1.5,2.4c0.5,1.1,1,1.9,1.5,2.4c0.1,1.3,0.3,2,0.4,2c0.1,1,0,3-0.4,3.2
		C12.7,26.4,12.1,26.8,11.7,28.2z"/>
	<path class="st6" d="M19.4,17.6c0,0.7,0,3.4,0,6.7c0,2.9,0,6.2,0,6.7c-0.2-0.5-1.1,2-2.8,2c-1.6-0.2-2.7-0.8-3-0.9
		c0-0.6,0-0.6,0-0.3c0.2-0.7,0.2-0.9,0.2-2.2c0-1.3-0.3-0.1-0.3-1.3c-0.3-1.9-0.5-2.9-0.7-3.4c-0.2-1.5-0.3-2.4-0.4-3.1
		c0,0.2,0,0.8,0,0c-0.1-1.9-0.1-3.2-0.1-4.1c1.2-0.1,2.4-0.6,3.5,0C17.1,17.3,18.3,17.8,19.4,17.6z"/>
	<path class="st10" d="M11.9,30.4c-0.3,1.3-0.7,2.7-1.2,4.3c-0.4,1.2-0.9,2.2-1.3,3.2c-0.2,0.1-0.5,0.2-0.8,0.4
		c0-1.1,0.1-2.3,0.3-3.6c0.3-1.9,0.8-3,1-3.8C10.7,30.8,11.4,30.6,11.9,30.4z"/>
	<path class="st22" d="M26.7,17.2c0,0-1.1,1.7-2.8,2.8c-1.6,0.8-3.7,1.9-5.7,1.1c-1.5,0.2-3.3-0.3-4.6-1.2c-1.3-1.4-2.3-1.2-2.3-2.6
		c0-0.1,0.9-1.6,2.3-2.7c1.3-1.8,3.1-2.3,4.7-1.4c2,0.8,4.1,0.6,5.7,1.1C25.6,14.7,26.7,16,26.7,17.2z"/>
	<path class="st2" d="M9.9,30.8c-0.2,0.8-0.7,2-1,3.8c-0.2,1.3-0.3,2.5-0.3,3.6c-0.2,0.1-0.4,0.3-0.6,0.6c-0.7,1.1-0.2,2.6-0.3,2.6
		c-0.1-0.1-0.3-0.3-0.4-0.5c-0.5-0.8-0.1-1.8-0.1-2c0.2-1.2,0.4-2.7,0.4-4.5c0-1.6-0.2-3-0.4-4.1C8.1,30.6,9,30.7,9.9,30.8z"/>
	<polygon class="st25" points="11.7,28.3 8.7,27.9 8.8,26.8 11.9,27.2 	"/>
	<polygon class="st25" points="27.5,27.9 30.5,27.5 30.4,26.4 27.4,26.8 	"/>
	<g>
		<path class="st2" d="M11.8,19.9c0.3-0.5,1-1.3,2.2-2.1c1.2-0.7,2.3-1,2.8-1c-0.6-1.1-1.2-2.2-1.8-3.3c-0.9,0.1-3,0.6-5.1,2.1
			c-2.9,2-4.1,4.7-4.4,5.6c0.6-0.3,1.4-0.8,2.4-1C9.7,19.6,11.1,19.8,11.8,19.9z"/>
		<path class="st3" d="M11.8,17.4c0.3-0.4,0.8-1.2,1.7-1.8c1-0.6,1.9-0.7,2.3-0.7c-0.6-1.1-1.2-2.2-1.8-3.3
			c-0.8,0.1-2.5,0.3-4.2,1.5c-2.3,1.7-3.1,4.2-3.4,4.9c0.5-0.3,1.1-0.6,2-0.8C9.9,17,11.1,17.2,11.8,17.4z"/>
		<path class="st8" d="M11.4,16.2c0.2-0.3,0.5-0.8,1.1-1.1c0.6-0.4,1.2-0.5,1.5-0.5c-0.4-0.7-0.8-1.4-1.2-2.1c-0.5,0-1.6,0.2-2.7,1
			c-1.5,1.1-2,2.7-2.2,3.2c0.3-0.2,0.7-0.4,1.3-0.5C10.2,15.9,10.9,16.1,11.4,16.2z"/>
	</g>
	<g>
		<path class="st2" d="M27,20.1c-0.3-0.5-1-1.3-2.2-2.1c-1.2-0.7-2.3-1-2.8-1c0.6-1.1,1.2-2.2,1.8-3.3c0.9,0.1,3,0.6,5.1,2.1
			c2.9,2,4.1,4.7,4.4,5.6c-0.6-0.3-1.4-0.8-2.4-1C29.1,19.8,27.7,20,27,20.1z"/>
		<path class="st3" d="M27.1,17.7c-0.3-0.4-0.8-1.2-1.7-1.8c-1-0.6-1.9-0.7-2.3-0.7c0.6-1.1,1.2-2.2,1.8-3.3
			c0.8,0.1,2.5,0.3,4.2,1.5c2.3,1.7,3.1,4.2,3.4,4.9c-0.5-0.3-1.1-0.6-2-0.8C28.9,17.2,27.7,17.5,27.1,17.7z"/>
		<path class="st8" d="M27.5,16.4c-0.2-0.3-0.5-0.8-1.1-1.1c-0.6-0.4-1.2-0.5-1.5-0.5c0.4-0.7,0.8-1.4,1.2-2.1c0.5,0,1.6,0.2,2.7,1
			c1.5,1.1,2,2.7,2.2,3.2c-0.3-0.2-0.7-0.4-1.3-0.5C28.7,16.1,27.9,16.3,27.5,16.4z"/>
	</g>
	<g>
		<path class="st19" d="M16.1,14.9c-0.6,1.3-0.9,2-1.2,2c-0.5-0.1-1.1-2.3-0.3-3.9c0.1-0.2,0.4-0.8,0.9-0.9c0.5,0,0.9,0.6,1,1.1
			C16.5,13.6,16.5,14,16.1,14.9z"/>
		<line class="st13" x1="19.5" y1="19.9" x2="19.5" y2="19.2"/>
		<path class="st19" d="M24.8,13.9c-0.1,0.1-0.5-0.2-1.1-0.6c-0.5-0.3-0.6-0.4-0.6-0.5c-0.2-0.6,0.6-1.8,1.2-1.6
			C24.9,11.3,25.2,13.6,24.8,13.9z"/>
		<path class="st19" d="M13.6,13.8c0.1,0.1,0.5-0.1,1.2-0.5c0.5-0.3,0.6-0.4,0.6-0.4c0.2-0.6-0.6-1.8-1.1-1.7
			C13.6,11.2,13.2,13.5,13.6,13.8z"/>
		<path class="st19" d="M21.8,13.8c-0.4,0.8-0.6,2-0.2,2.2c0.6,0.3,2.7-1.9,2.3-2.8c-0.2-0.4-0.7-0.6-1.2-0.5
			C22.2,12.9,21.9,13.4,21.8,13.8z"/>
		<ellipse class="st26" cx="19.5" cy="14.5" rx="3" ry="0.5"/>
		<ellipse class="st26" cx="19.5" cy="12.7" rx="2.9" ry="0.3"/>
		<path class="st27" d="M19.5,10.7C19.5,10.8,19.5,10.8,19.5,10.7c-0.1,0-0.1-0.1-0.1-0.1c0,0,0,0,0-0.1
			C19.4,10.6,19.5,10.7,19.5,10.7z"/>
		<path class="st27" d="M19.4,10.6c0,0.1,0.1,0.1,0.1,0.2c0,0,0,0,0,0C19.4,10.7,19.4,10.7,19.4,10.6C19.4,10.6,19.4,10.6,19.4,10.6
			z"/>
		<path class="st28" d="M19.4,10.6C19.4,10.6,19.4,10.6,19.4,10.6c0.1,0,0.1,0.1,0.1,0.1c0,0,0,0,0,0C19.4,10.7,19.4,10.7,19.4,10.6
			z"/>
		<path class="st7" d="M19.5,10.8c0,0.2-0.3,0.3-0.4,0.4c-0.1,0-0.1,0.1-0.2,0.1c-0.1,0-0.2,0-0.4,0c-0.2-0.1-0.2-0.2-0.4-0.2
			c-0.1,0-0.2,0-0.4,0.2c0.1-0.2,0.4-0.6,0.8-0.8c0.2-0.1,0.4-0.1,0.7,0C19.4,10.5,19.4,10.7,19.5,10.8z"/>
		<ellipse class="st7" cx="19.4" cy="10.8" rx="0.4" ry="0.2"/>
		<path class="st19" d="M22.2,9.8c0,0.4,0.6,0.3,1.6,1c0.7,0.4,0.8,0.7,1,0.6c0.4-0.2,0.1-2.9-0.8-3.1c-0.3-0.1-0.7,0.2-1.1,0.6
			C22.5,9.4,22.2,9.6,22.2,9.8z"/>
		<path class="st19" d="M16.4,9.9c-0.1,0.4-0.6,0.3-1.6,0.9c-0.7,0.4-0.8,0.7-1,0.6c-0.4-0.2,0.1-2.9,0.9-3c0.3,0,0.7,0.3,1.1,0.7
			C16.1,9.4,16.4,9.6,16.4,9.9z"/>
		<ellipse class="st26" cx="19.4" cy="11.2" rx="2" ry="0.3"/>
		<g>
			<path class="st19" d="M24.5,8.4c-0.4-2.7-2.4-6.1-5-6.1c-3.4,0.1-4.8,5.6-4.9,6.1c-0.4,1.7-0.8,5.1,0.9,6.3
				C16,15,17.2,15,19.5,15c1.7,0,2.5-0.1,2.9-0.3C24.3,13.6,24.8,10.6,24.5,8.4z"/>
			<path class="st19" d="M17.9,3.3L17,4.2l-1.4-2.2L15.5,1C16.4,1.2,17.9,3.3,17.9,3.3z"/>
			<path class="st19" d="M23.6,1l-0.7,4.1l-1.8-1.8C21.1,3.3,22.7,1.2,23.6,1z"/>
			<path class="st29" d="M21.1,5.6H18c0.2-0.3,0.6-0.5,1-0.5h1.1C20.5,5.1,20.8,5.3,21.1,5.6z"/>
			<path class="st30" d="M18.5,3.5c-0.2,0.4-0.8,0.6-0.9,0.5c0,0,0-0.1,0.1-0.2c0.2-0.4-0.1-0.7-0.1-1.4c0-0.3,0-0.5,0.1-0.5
				C17.8,1.8,18.8,2.8,18.5,3.5z"/>
			<path class="st30" d="M21.4,3.6c0,0.1,0,0.1,0,0.2c-0.1,0.2-0.9,0.2-1-0.2c-0.1-0.2,0.3-0.4,0.5-1.2c0.1-0.3,0.1-0.5,0.2-0.5
				c0.1,0,0.2,0.4,0.3,0.8C21.4,3.1,21.3,3.2,21.4,3.6z"/>
			<path class="st30" d="M18.2,3.3c0.1,0.2,0.2,0.4,0.4,0.4c0.2,0,0.5-0.1,0.6-0.4c0.1-0.2,0-0.4-0.1-1.1c0-0.4,0-0.5-0.1-0.5
				C18.9,1.7,18,2.6,18.2,3.3z"/>
			<path class="st30" d="M21,3.5c-0.1,0.2-0.2,0.4-0.5,0.4c-0.2,0-0.5-0.2-0.6-0.4c-0.1-0.3,0.1-0.4,0.2-1.1
				c0.1-0.4,0.1-0.5,0.1-0.5C20.5,1.8,21.3,2.9,21,3.5z"/>
			<polygon class="st19" points="17,4.6 18.9,8 20,8 22.1,4.6 			"/>
			<path class="st30" d="M17.6,5.1L19,7.5h1.2L21.6,5c0.3-0.5,0.1-1.3-0.4-1.5c-0.4-0.2-1-0.4-1.7-0.4c-0.5,0-1,0.2-1.4,0.3
				C17.5,3.7,17.3,4.5,17.6,5.1z"/>
			<rect x="19" y="6.5" class="st31" width="1.2" height="1"/>
			<polygon class="st5" points="22,3.5 22.8,4.2 23.3,1.9 			"/>
			<path class="st5" d="M20.2,7.2h-1.4c0.1-0.7,0.1-1.3,0.2-2c0.3,0,0.7,0,1,0C20.1,5.9,20.2,6.5,20.2,7.2z"/>
			<polyline class="st5" points="21.1,4.6 20.1,5.3 19,5.3 18,4.5 			"/>
			<path class="st19" d="M24.4,6.4c-0.1,0.1-0.9-0.3-1.2-0.6C23,5.7,23,5.6,22.9,5.5c-0.2-0.4-0.2-0.9,0-1
				C23.2,4.3,24.6,6.2,24.4,6.4z"/>
			<path class="st19" d="M24.8,9c-0.1,0.1-0.2-0.3-1-0.8c-0.3-0.2-0.5-0.3-0.5-0.5c0-0.2,0.2-0.5,0.5-0.5C24.4,7.2,25,8.9,24.8,9z"
				/>
			<path class="st19" d="M24.7,7.6c-0.1,0.2-0.6,0.2-0.9,0c-0.1,0-0.3-0.2-0.5-0.5c-0.1-0.4,0-0.9,0.2-1C24,5.9,24.9,7.2,24.7,7.6z"
				/>
			<path class="st19" d="M13.8,8.9C13.9,9,14,8.7,14.8,8.2c0.3-0.2,0.5-0.3,0.5-0.5c0-0.2-0.2-0.5-0.4-0.5
				C14.3,7.1,13.6,8.8,13.8,8.9z"/>
			<path class="st19" d="M14,7c0.1,0.3,1,0.1,1.5,0c0.3-0.1,0.5-0.2,0.8-0.5C16.6,6,16.7,5.2,16.4,5C15.8,4.6,13.8,6.5,14,7z"/>
			<path class="st19" d="M15.3,5.1c-0.1-0.2,0.4-1.1,1.1-1.3c0.3-0.1,0.8-0.1,0.9,0.1C17.4,4.1,17,4.5,17,4.5
				C16.4,5.1,15.5,5.3,15.3,5.1z"/>
			<path class="st5" d="M17.3,7.4l1.5,2c0,0.1,0.1,0.1,0.2,0.1h1.3c0.6-1,0.8-1.4,1.5-2.4L21.7,7l-0.1-0.3l-1.4,2.3
				C20.2,9,20.1,9,20,9h-0.9C19,9,19,9,18.9,8.9c-0.4-0.8-0.8-1.5-1.2-2.3c0-0.1-0.1-0.2-0.1-0.2c0,0-0.1,0.1-0.2,0.3
				c0,0.1-0.1,0.2-0.1,0.4C17.2,7.3,17.3,7.4,17.3,7.4z"/>
			<polygon class="st5" points="17,3.5 16.2,4.2 15.6,1.9 			"/>
			<g>
				<path class="st27" d="M20,8.6c-0.4,0-0.4,0-0.9,0c-0.1-0.3-0.2-0.7-0.3-1c-0.1-0.3,0.1-0.5,0.3-0.5L20,7c0.2,0,0.4,0.2,0.3,0.5
					L20,8.6z"/>
				<path class="st28" d="M18.8,7.6C18.8,7.6,18.8,7.6,18.8,7.6c0.3,0,0.6,0.2,0.6,0.5c0,0.2-0.1,0.4-0.2,0.5c0.4,0,0.4,0,0.7,0
					c-0.1-0.1-0.2-0.3-0.2-0.4c0-0.3,0.2-0.5,0.5-0.5c0.1,0,0.1,0,0.2,0l0-0.2C20.4,7.3,20.2,7,20,7c-0.3,0-0.6,0-0.9,0
					C18.8,7.1,18.7,7.3,18.8,7.6C18.7,7.6,18.8,7.6,18.8,7.6z"/>
			</g>
			<path class="st30" d="M19.2,3.4c-0.4-0.3,0-1.8,0.4-1.8c0.4,0,0.8,1.4,0.5,1.7c-0.1,0.1-0.4,0.1-0.5,0.1
				C19.5,3.5,19.3,3.5,19.2,3.4z"/>
			<path class="st29" d="M22.1,8.9l-0.7,1.5l-0.1,0.3c0,0,0,0,0,0c-0.2,0.5-0.7,0.8-1.2,0.8H19c-0.5,0-1-0.3-1.2-0.8L17,8.9
				c-0.2-0.4-0.2-0.8,0-1.1l0.6-1.3L19,9h1.2l1.4-2.4l0.5,1.1C22.2,8.1,22.2,8.6,22.1,8.9z"/>
		</g>
		<path class="st7" d="M22.3,16.7c-0.6,1.6-1.9,2.7-3.1,2.6c-1.3-0.1-2.2-1.4-2.3-1.6c-0.2-0.4-0.3-0.7-0.4-1c0-0.1,0.2-0.4,0.1-0.8
			c-0.1-0.4-0.3-0.7-0.7-0.8c0-0.5,0-1.6,0.5-2.8c0.4-0.8,0.9-1.4,1.2-1.8c1.2,0,2.4-0.1,3.6-0.1c0.4,0.4,1.3,1.4,1.6,3.1
			c0.2,1.2,0,2.3-0.1,2.8C22.6,16.5,22.4,16.6,22.3,16.7z"/>
		<path class="st32" d="M20,12.7c-0.1,0.7-0.7,1.1-1.1,1.5c-1.9,1.8-2,3.6-2.5,3.5c-0.6-0.1-1-2.4-0.3-4.3c0.6-1.7,2.1-3.3,2.9-3
			c0.3,0.1,0.6,0.5,0.7,0.8C19.7,11.4,20.1,12,20,12.7z"/>
		<path class="st10" d="M23.1,16.1c-0.2,1.1-0.8,2.5-1.6,2.6c-0.6,0-1-0.7-1.6-1.6c-0.1-0.2-1.4-2.3-1.2-4.3c0.1-0.5,0.2-1,0.2-1.1
			c0.2-0.4,0.4-1.2,0.8-1.3C20.7,10.1,23.5,13.2,23.1,16.1z"/>
		<path class="st7" d="M20.4,12.4c0.4,3-0.6,7.3-1.6,7.3c-1,0-2.4-4.8-0.8-7.5c0.3-0.5,1.1-1.6,1.7-1.4
			C19.9,10.8,20.3,11.1,20.4,12.4z"/>
		<path class="st9" d="M21.5,12.2c1.1,1.7,1.1,4.2,0.6,4.4c-0.1,0-0.2,0-0.2,0c-0.6-0.2,0.1-2.1-0.6-3.8c-0.5-1.4-1.6-2-1.5-2.1
			C19.8,10.7,20.8,11.2,21.5,12.2z"/>
		<path class="st33" d="M16,16.3c-0.2-0.9,0.7-3,0.9-2.9c0.1,0,0,0.2-0.1,1.3c-0.1,1.3,0,2.1-0.4,2.2c-0.1,0-0.1,0-0.2,0
			C16,16.7,16,16.4,16,16.3z"/>
		<path class="st10" d="M16.7,11.6c0.2,0.4,1.4,0,1.9-0.2c0.4-0.2,1.1-0.4,1.1-0.8c0-0.4-0.6-0.8-1.1-0.8
			C17.5,9.7,16.5,11.2,16.7,11.6z"/>
		<path class="st10" d="M19.6,10.6c0,0.3,0.5,0.6,1.1,0.8c0.3,0.1,1.8,0.8,2.1,0.4c0.2-0.4-0.9-2.1-2.1-2
			C20.1,9.9,19.6,10.3,19.6,10.6z"/>
		<path class="st7" d="M19.6,10.6c0,0.1,0,0.3,0,0.3c-0.1,0-0.3-0.4-0.7-0.6C18.5,10,18.2,10,18.2,10c0-0.1,0.6-0.2,1.1,0.1
			C19.4,10.2,19.6,10.3,19.6,10.6z"/>
		<path class="st7" d="M21.5,10.3c0,0.1-0.8-0.2-1.3,0.2c-0.2,0.2-0.4,0.4-0.5,0.4c-0.1,0-0.1-0.2-0.1-0.3c0.1-0.4,0.4-0.6,0.8-0.7
			C21,9.8,21.5,10.2,21.5,10.3z"/>
		<path class="st9" d="M16.9,11.6c-0.1-0.1,0.6-1.5,1.4-1.5c0.3,0,0.7,0.2,0.7,0.3c0,0.1-0.3,0.2-0.7,0.3
			C17.3,11.1,17,11.6,16.9,11.6z"/>
		<path class="st9" d="M22.3,11.5c-0.1,0.1-0.5-0.1-1.1-0.4c-0.5-0.2-0.8-0.4-0.8-0.5c0-0.1,0.4-0.3,0.8-0.2
			C21.9,10.6,22.4,11.4,22.3,11.5z"/>
		<path class="st19" d="M24.6,12.9c0.3,0.9-0.3,2.1-0.7,2.1c-0.4,0-0.7-0.9-0.7-1.7c0-0.5,0.3-1.3,0.6-1.3
			C24.1,12,24.4,12.5,24.6,12.9z"/>
		<path class="st4" d="M19.9,18.3c-0.2,0.5-0.4,0.7-0.3,0.7c0.1,0.1,0.7,0,0.9-0.4c0.2-0.5-0.2-1.1-0.3-1.1
			C20,17.6,20,17.8,19.9,18.3z"/>
		<path class="st4" d="M17.1,17.3c-0.1-0.5,0.2-1,0.3-0.9c0,0,0,0.1,0.1,0.5c0,0,0,0.2,0.1,0.4c0.1,0.5,0.2,0.6,0.2,0.7
			c-0.1,0.1-0.3-0.1-0.5-0.3C17.2,17.6,17.2,17.5,17.1,17.3z"/>
		<path class="st10" d="M18.1,13.1c-0.3,1,0.2,2,0.4,2c0.1,0,0-0.7,0.3-2c0.2-0.7,0.3-1,0.3-1.1C18.8,11.9,18.3,12.4,18.1,13.1z"/>
		<path class="st10" d="M18.2,16.4c0,0.7,0.2,1.7,0.6,1.9c0.3,0.1,0.6-0.2,0.7-0.1c0.1,0.1-0.3,0.8-0.7,0.8c-0.6,0-1.4-1.6-1-2.7
			c0.1-0.3,0.3-0.7,0.4-0.6C18.3,15.6,18.2,16,18.2,16.4z"/>
		<path class="st10" d="M19.9,12.7c0.5,2.5-0.7,5-1,5c-0.1,0,0-0.2,0.2-4.7c0-0.9,0.1-1.6,0.2-1.6C19.6,11.3,19.8,12.1,19.9,12.7z"
			/>
	</g>
	<g>
		<path class="st34" d="M12.2,19.2c1.1,0.6,3.5,1.9,6.7,1.9c3.6,0,6.2-1.6,7.2-2.3"/>
		<g>
			<ellipse class="st7" cx="26" cy="18.6" rx="0.9" ry="0.9"/>
			<path class="st35" d="M26.6,18.6H26v-0.6C26.3,17.9,26.6,18.2,26.6,18.6z"/>
			<path class="st35" d="M26.6,18.6c0,0.4-0.3,0.6-0.6,0.6v-0.6H26.6z"/>
			<path class="st35" d="M26,18.6v0.6c-0.3,0-0.6-0.3-0.6-0.6H26z"/>
			<path class="st36" d="M26,17.9v0.6h-0.6C25.4,18.2,25.6,17.9,26,17.9z"/>
			<line class="st13" x1="26" y1="20" x2="26" y2="19.2"/>
			<line class="st13" x1="26" y1="17.9" x2="26" y2="17.2"/>
			<line class="st13" x1="27.5" y1="18.6" x2="26.6" y2="18.6"/>
			<line class="st13" x1="25.4" y1="18.6" x2="24.5" y2="18.6"/>
			<path class="st2" d="M26.3,18.6H26v-0.4C26.2,18.2,26.3,18.4,26.3,18.6z"/>
			<path class="st10" d="M26.3,18.6c0,0.2-0.2,0.4-0.4,0.4v-0.4H26.3z"/>
			<path class="st3" d="M26,18.6V19c-0.2,0-0.4-0.2-0.4-0.4H26z"/>
			<path class="st8" d="M26,18.2v0.4h-0.4C25.6,18.4,25.8,18.2,26,18.2z"/>
		</g>
		<g>
			<ellipse class="st7" cx="12.1" cy="19" rx="0.9" ry="0.9"/>
			<path class="st35" d="M12.7,19h-0.6v-0.6C12.4,18.4,12.7,18.7,12.7,19z"/>
			<path class="st35" d="M12.7,19c0,0.4-0.3,0.6-0.6,0.6V19H12.7z"/>
			<path class="st35" d="M12.1,19v0.6c-0.3,0-0.6-0.3-0.6-0.6H12.1z"/>
			<path class="st36" d="M12.1,18.4V19h-0.6C11.4,18.7,11.7,18.4,12.1,18.4z"/>
			<line class="st13" x1="12.1" y1="20.4" x2="12.1" y2="19.7"/>
			<line class="st13" x1="12.1" y1="18.4" x2="12.1" y2="17.6"/>
			<line class="st13" x1="13.6" y1="19" x2="12.7" y2="19"/>
			<line class="st13" x1="11.4" y1="19" x2="10.5" y2="19"/>
			<path class="st2" d="M12.4,19h-0.4v-0.4C12.3,18.6,12.4,18.8,12.4,19z"/>
			<path class="st10" d="M12.4,19c0,0.2-0.2,0.4-0.4,0.4V19H12.4z"/>
			<path class="st3" d="M12.1,19v0.4c-0.2,0-0.4-0.2-0.4-0.4H12.1z"/>
			<path class="st8" d="M12.1,18.6V19h-0.4C11.7,18.8,11.8,18.6,12.1,18.6z"/>
		</g>
		<path class="st34" d="M25.9,19.3c-0.7,1.8-2,4.3-4.2,6.8c-1.7,1.9-3.4,3.3-4.7,4.2"/>
	</g>
	<g>
		<line class="st37" x1="25.3" y1="27.6" x2="23.2" y2="33.5"/>
		<line class="st37" x1="23.1" y1="27.5" x2="25.5" y2="33.6"/>
		<path class="st37" d="M23.2,27.6c-0.7,2.1-1.4,4.1-2.2,6.2"/>
		<line class="st37" x1="21.2" y1="27.8" x2="23.2" y2="33.5"/>
	</g>
	<g>
		<line class="st37" x1="25.4" y1="33.5" x2="23.3" y2="39.5"/>
		<line class="st37" x1="23.2" y1="33.5" x2="25.5" y2="39.6"/>
		<path class="st37" d="M23.2,33.5c-0.7,2.1-1.4,4.1-2.2,6.2"/>
		<line class="st37" x1="21.3" y1="33.7" x2="23.3" y2="39.5"/>
	</g>
	<g>
		<line class="st38" x1="18" y1="27.7" x2="15.9" y2="33.6"/>
		<line class="st38" x1="15.9" y1="27.6" x2="18.2" y2="33.7"/>
		<path class="st38" d="M15.9,27.7c-0.7,2.1-1.4,4.1-2.2,6.2"/>
		<line class="st38" x1="13.9" y1="27.9" x2="15.9" y2="33.6"/>
	</g>
	<path class="st6" d="M14.2,56.1h8.3c-0.2-7.1-0.5-14.2-0.7-21.2c-2.1,0-4.2,0-6.3,0C15.1,41.9,14.7,49,14.2,56.1z"/>
	<g>
		<path class="st2" d="M25.4,33.5c0.2,0.2,0.3,0.5,0.5,0.8c2.5,4,3.7,8.2,4.1,12.3c-3.2,5.3-6.3,10.6-9.5,15.9
			c-0.2-9.6-0.3-19.1-0.5-28.7C21.7,33.7,23.5,33.6,25.4,33.5z"/>
		<path class="st3" d="M24.7,33.5c0.6,1.1,1.2,2.3,1.7,3.6c1.2,2.7,1.9,5.3,2.4,7.5c-2.3,4.3-4.7,8.7-7,13c-0.5-7.8-1-15.6-1.4-23.4
			L24.7,33.5z"/>
		<line class="st39" x1="21" y1="35.3" x2="24.2" y2="51.8"/>
		<line class="st39" x1="28" y1="44.2" x2="23.1" y2="34"/>
		<line class="st39" x1="21.8" y1="34.3" x2="26.1" y2="48"/>
	</g>
	<g>
		<path class="st2" d="M26,28.9L25.8,30l-0.2,1.5l-0.1,0.7l-0.8,0l-10.4,0.3l-0.8,0h0v0c0-0.3-0.1-0.6-0.1-0.9
			c0-0.4-0.1-0.8-0.1-1.3c0-0.3-0.1-0.6-0.1-0.9c1-1.5,2.2-3.2,3.7-5c1-1.1,1.9-2.1,2.8-3c0,0,0.1,0.1,0.1,0.1
			c0.3,0.3,0.6,0.6,1,0.9c0.6,0.6,1.3,1.4,2,2.1C24,26,25.1,27.5,26,28.9z"/>
		<path class="st3" d="M19.6,22.9c-0.8,0.8-1.6,1.6-2.4,2.6c-1.3,1.5-2.3,3-3.2,4.3c0.1,0.9,0.2,1.8,0.2,2.7l10.4-0.3l0.5-2.8
			c-0.8-1.2-1.7-2.4-2.9-3.8C21.4,24.6,20.5,23.7,19.6,22.9z"/>
		<polygon class="st40" points="19.6,24.3 16.1,28.8 16,30.6 23.3,30.6 23.2,28.5 		"/>
		<line class="st41" x1="21.6" y1="26.3" x2="21.6" y2="30.5"/>
		<line class="st41" x1="17.8" y1="26.3" x2="17.8" y2="30.5"/>
		<line class="st40" x1="19.7" y1="24.6" x2="19.7" y2="29.2"/>
		<line class="st13" x1="19.7" y1="28.8" x2="19.7" y2="26.8"/>
	</g>
	<g>
		<path class="st7" d="M27.2,75.3c-1,0.1-2,0.2-3,0.4c-0.7-2.3-1.4-5.3-1.7-8.8c-0.2-2.3-0.1-4.4,0.1-6.1c1.2,0.2,2.8,0.2,4.6-0.4
			c0.4-0.1,0.8-0.3,1.1-0.5c-0.1,2.2-0.2,4.5-0.4,6.8C27.7,69.6,27.5,72.5,27.2,75.3z"/>
		<path class="st10" d="M26.7,69.2c-0.2,2.9-0.4,3.7-0.1,5.2c0.1,0.6,0.3,1.5,0.1,1.6c-0.2,0.1-0.9-0.9-1.3-1.4
			c-1.1-1.9-1.2-3.8-1.3-5.2c-0.5-6.1-1.6-7.5-0.5-8.7c0.7-0.7,1.9-1.1,2.7-0.6C27.3,60.5,27.1,63.4,26.7,69.2z"/>
		<path class="st42" d="M24.3,79.8c0.4,0.4,0.8,0.2,3.1,0.1c2.2-0.1,2.5,0.1,2.7-0.2c0.6-1-1.9-4.9-4-4.5c-0.6,0.1-1,0.6-1.2,0.8
			C23.9,77.1,23.6,79,24.3,79.8z"/>
		<path class="st43" d="M24.7,79.8c0.3,0.1,1.1,0.1,2.8,0c1.5-0.1,2.2-0.1,2.5-0.2c0.1,0,0.2-0.1,0.2-0.2c0.2-0.6-1.4-1.7-1.7-1.9
			c-0.6-0.4-0.9-0.6-1.4-0.6c-0.4,0-0.7,0.2-1.2,0.6c-0.6,0.4-1.7,1.5-1.4,2C24.5,79.7,24.7,79.8,24.7,79.8z"/>
		<path class="st7" d="M24.1,79.5c0.9-2.6,1.8-3.3,2.6-3.4c1.4-0.2,2.7,1.7,2.9,1.5c0.1-0.1-0.4-0.7-0.9-1.2
			c-0.6-0.6-1.1-0.9-1.5-1.2c-1,0.1-2,0.2-3,0.3c-0.1,0.2-0.1,0.5-0.2,0.8c-0.2,0.8-0.3,0.8-0.3,1c0,0.3,0.1,0.7,0.2,1.4
			C23.9,79,24,79.3,24.1,79.5z"/>
		<ellipse class="st7" cx="23.9" cy="61.6" rx="0.4" ry="0.4"/>
		<ellipse class="st7" cx="24" cy="63.9" rx="0.5" ry="0.5"/>
		<ellipse class="st7" cx="24.2" cy="65.6" rx="0.4" ry="0.4"/>
		<rect x="22.6" y="68" class="st7" width="5.3" height="0.7"/>
		<rect x="22.8" y="70.1" class="st7" width="5.2" height="0.7"/>
	</g>
	<path class="st3" d="M11.2,63.8h4.4c0.2-1,0.2-2.2,0.2-3.5c0-0.6-0.1-1.1-0.2-1.7c-1.5,0-2.9,0-4.4,0C11.1,59,11,59.4,11,59.9
		C10.8,61.4,11,62.7,11.2,63.8z"/>
	<g>
		<path class="st7" d="M11.4,75.3c1,0.1,2,0.2,3,0.4c0.7-2.3,1.4-5.3,1.7-8.8c0.2-2.3,0.1-4.4-0.1-6.1c-1.2,0.2-2.8,0.2-4.6-0.4
			c-0.4-0.1-0.8-0.3-1.1-0.5c0.1,2.2,0.2,4.5,0.4,6.8C10.9,69.6,11.1,72.5,11.4,75.3z"/>
		<path class="st10" d="M11.9,69.1c0.2,2.9,0.4,3.7,0.1,5.2c-0.1,0.6-0.3,1.5-0.1,1.6c0.2,0.1,0.9-0.9,1.3-1.4
			c1.1-1.9,1.2-3.8,1.3-5.2c0.5-6.1,1.6-7.5,0.5-8.7c-0.7-0.7-1.9-1.1-2.7-0.6C11.2,60.5,11.4,63.4,11.9,69.1z"/>
		<path class="st42" d="M14.2,79.8c-0.4,0.4-0.8,0.2-3.1,0.1c-2.2-0.1-2.5,0.1-2.7-0.2c-0.6-1,1.9-4.9,4-4.5c0.6,0.1,1,0.6,1.2,0.8
			C14.7,77.1,15,79,14.2,79.8z"/>
		<path class="st43" d="M13.8,79.8c-0.3,0.1-1.1,0.1-2.8,0c-1.5-0.1-2.2-0.1-2.5-0.2c-0.1,0-0.2-0.1-0.2-0.2
			c-0.2-0.6,1.4-1.7,1.7-1.9c0.6-0.4,0.9-0.6,1.4-0.6c0.4,0,0.7,0.2,1.2,0.6c0.6,0.4,1.7,1.5,1.4,2C14,79.7,13.9,79.8,13.8,79.8z"/>
		<path class="st7" d="M14.5,79.4c-0.9-2.6-1.8-3.3-2.6-3.4c-1.4-0.2-2.7,1.7-2.9,1.5c-0.1-0.1,0.4-0.7,0.9-1.2
			c0.6-0.6,1.1-0.9,1.5-1.2c1,0.1,2,0.2,3,0.3c0.1,0.2,0.1,0.5,0.2,0.8c0.2,0.8,0.3,0.8,0.3,1c0,0.3-0.1,0.7-0.2,1.4
			C14.6,79,14.6,79.3,14.5,79.4z"/>
		<ellipse class="st7" cx="14.7" cy="61.6" rx="0.4" ry="0.4"/>
		<ellipse class="st7" cx="14.6" cy="63.9" rx="0.5" ry="0.5"/>
		<ellipse class="st7" cx="14.4" cy="65.6" rx="0.4" ry="0.4"/>
		
			<rect x="10.8" y="68" transform="matrix(-1 -4.813717e-11 4.813717e-11 -1 26.7976 136.6832)" class="st7" width="5.3" height="0.7"/>
		
			<rect x="10.7" y="70" transform="matrix(-1 -4.765978e-11 4.765978e-11 -1 26.4974 140.8379)" class="st7" width="5.2" height="0.7"/>
	</g>
	<g>
		<path class="st10" d="M16.1,59.1c-0.8,0.1-1.6,0.2-2.6,0.2c-0.9,0-1.8-0.1-2.5-0.2c0-2.4,0-4.8,0-7.3c0.8,0.1,1.6,0.1,2.5,0.1
			c0.9,0,1.8,0,2.6-0.1C16.1,54.3,16.1,56.7,16.1,59.1z"/>
		<g>
			<ellipse class="st7" cx="13.7" cy="55.8" rx="2.5" ry="2.6"/>
			<path class="st23" d="M15.4,55.8l-1.7,0l0-1.8C14.6,54,15.4,54.8,15.4,55.8z"/>
			<path class="st23" d="M15.4,55.8c0,1-0.8,1.8-1.7,1.8l0-1.8L15.4,55.8z"/>
			<path class="st23" d="M13.7,55.8l0,1.8c-1,0-1.7-0.8-1.7-1.8L13.7,55.8z"/>
			<path class="st24" d="M13.7,54l0,1.8l-1.7,0C11.9,54.8,12.7,54,13.7,54z"/>
			<line class="st13" x1="13.7" y1="57.6" x2="13.7" y2="59.8"/>
			<line class="st13" x1="13.7" y1="51.8" x2="13.7" y2="54"/>
			<line class="st13" x1="15.4" y1="55.8" x2="18" y2="55.8"/>
			<line class="st13" x1="9.4" y1="55.8" x2="11.9" y2="55.8"/>
			<path class="st2" d="M14.8,55.8l-1.1,0l0-1.1C14.3,54.7,14.8,55.2,14.8,55.8z"/>
			<path class="st10" d="M14.8,55.8c0,0.6-0.5,1.1-1.1,1.1l0-1.1L14.8,55.8z"/>
			<path class="st3" d="M13.7,55.8l0,1.1c-0.6,0-1.1-0.5-1.1-1.1L13.7,55.8z"/>
			<path class="st8" d="M13.7,54.7l0,1.1l-1.1,0C12.6,55.2,13.1,54.7,13.7,54.7z"/>
		</g>
	</g>
	<g>
		<path class="st2" d="M13.8,33.5c-0.2,0.2-0.3,0.5-0.5,0.8c-2.5,4-3.7,8.2-4.1,12.3c3.2,5.3,6.3,10.6,9.5,15.9
			c0.2-9.6,0.3-19.1,0.5-28.7C17.4,33.7,15.6,33.6,13.8,33.5z"/>
		<path class="st3" d="M14.4,33.5c-0.6,1.1-1.2,2.3-1.7,3.6c-1.2,2.7-1.9,5.3-2.4,7.5c2.3,4.3,4.7,8.7,7,13c0.5-7.8,1-15.6,1.4-23.4
			L14.4,33.5z"/>
		<line class="st39" x1="18.2" y1="35.3" x2="15" y2="51.8"/>
		<line class="st39" x1="11.2" y1="44.2" x2="16.1" y2="34"/>
		<line class="st39" x1="17.3" y1="34.3" x2="13.1" y2="48"/>
	</g>
	<g>
		<rect x="13.1" y="30.9" class="st7" width="12.7" height="2.8"/>
		<g>
			<ellipse class="st7" cx="19.4" cy="32.6" rx="2.5" ry="2.6"/>
			<path class="st44" d="M17.7,32.6l1.8,0l0-1.8C18.5,30.8,17.7,31.6,17.7,32.6z"/>
			<path class="st44" d="M17.7,32.6c0,1,0.8,1.8,1.8,1.8l0-1.8L17.7,32.6z"/>
			<path class="st44" d="M19.4,32.6l0,1.8c1,0,1.8-0.8,1.8-1.8L19.4,32.6z"/>
			<path class="st45" d="M19.5,30.8l0,1.8l1.8,0C21.2,31.6,20.4,30.8,19.5,30.8z"/>
			<line class="st13" x1="19.4" y1="34.4" x2="19.4" y2="36.6"/>
			<line class="st13" x1="19.5" y1="28.6" x2="19.5" y2="30.8"/>
			<line class="st13" x1="17.7" y1="32.6" x2="15" y2="32.6"/>
			<line class="st13" x1="23.8" y1="32.6" x2="21.2" y2="32.6"/>
			<path class="st2" d="M18.3,32.6l1.1,0l0-1.1C18.8,31.5,18.3,32,18.3,32.6z"/>
			<path class="st10" d="M18.3,32.6c0,0.6,0.5,1.1,1.1,1.1l0-1.1L18.3,32.6z"/>
			<path class="st3" d="M19.4,32.6l0,1.1c0.6,0,1.1-0.5,1.1-1.1L19.4,32.6z"/>
			<path class="st8" d="M19.4,31.5l0,1.1l1.1,0C20.6,32,20.1,31.5,19.4,31.5z"/>
		</g>
		<g>
			<path class="st10" d="M17.4,29.5c-0.1,0.2-1,0-1.9-0.5c-1-0.5-1.7-1-1.6-1.2c0.1-0.2,1,0,1.9,0.5S17.5,29.3,17.4,29.5z"/>
			<line class="st13" x1="15.1" y1="33.7" x2="15" y2="34.4"/>
			<line class="st13" x1="15.9" y1="28.5" x2="15.9" y2="28.8"/>
			<path class="st19" d="M15.9,28.8l-0.8,4.8h-1.2v-5.8C14.5,28.2,15.2,28.5,15.9,28.8z"/>
			<path class="st30" d="M17.4,29.6c-0.3,1.4-0.7,2.7-1,4.1h-1.3l0.8-4.8C16.4,29.1,16.9,29.3,17.4,29.6z"/>
			<path class="st7" d="M17.1,34.5c-0.5-0.1-1-0.2-1.6-0.3c-0.8-0.1-1.5-0.1-2.1,0c0-0.2,0-0.4,0-0.6h3.3C16.9,34,17,34.2,17.1,34.5
				z"/>
			<path class="st7" d="M13.1,43.8c0.1-0.8,0.2-1.7,0.2-2.5c0.2-2.4,0.3-4.8,0.5-7.2c0.8,0,1.6,0,2.4,0v4.4c0,0.6-0.2,2.2-1.3,3.7
				C14.3,43.1,13.6,43.6,13.1,43.8z"/>
			<polygon class="st10" points="15.8,34.5 15.7,39.4 13.9,42.4 14.2,34.4 			"/>
		</g>
	</g>
	<path class="st6" d="M26,21.5c-0.1,0.1,0.9,1.2,2.3,1.4c1.2,0.1,2.2-0.5,2.1-0.6c0-0.1-0.8,0.2-1.9,0.1C26.9,22.3,26,21.4,26,21.5z
		"/>
	<path class="st46" d="M30.2,22.2c0,0.1-0.7,0.2-1.5,0.2c-0.8,0-1.6-0.3-1.6-0.3c0,0,0.2,0,1.6,0.1C30,22.2,30.2,22.2,30.2,22.2z"/>
	<path class="st6" d="M26.4,22.3c-0.1,0,0.1,2,1.6,2.9c1,0.6,2.5,0.7,2.8,0.1c0.2-0.4-0.2-1.2-0.2-1.2c0,0,0.2,0.4,0,0.7
		c-0.3,0.5-1.6,0.3-2.6-0.3C26.7,23.7,26.4,22.3,26.4,22.3z"/>
	<path class="st46" d="M30.7,24.8c0,0.1-0.4,0.4-1,0.5c-0.9,0.1-1.6-0.5-1.6-0.6c0-0.1,0.6,0.3,1.6,0.3
		C30.3,24.9,30.7,24.7,30.7,24.8z"/>
	<path class="st6" d="M12.6,22.2c0.1,0.1-0.6,1.5-1.9,2c-0.9,0.4-2.2,0.3-2.4-0.3c-0.2-0.4,0.3-1.1,0.5-1c0.1,0-0.1,0.4,0.1,0.7
		c0.4,0.5,1.7,0,1.8-0.1C11.9,23,12.5,22.1,12.6,22.2z"/>
	<path class="st6" d="M8.8,24.4c-0.1,0-0.5,0.8-0.3,1.4c0.3,0.7,1.4,0.6,2,0.5c1.5-0.3,2.3-1.8,2.3-1.9c-0.1-0.1-0.7,0.8-2.1,1.2
		c-0.4,0.1-1.2,0.4-1.7-0.1C8.7,25.1,8.9,24.4,8.8,24.4z"/>
	<path class="st46" d="M11.8,25c0,0.1-1.3,1.1-2.3,0.6c-0.4-0.2-0.7-0.7-0.7-0.8c0.1-0.1,0.5,0.3,1.2,0.5C11,25.5,11.7,24.9,11.8,25
		z"/>
	<path class="st46" d="M10.3,23.4c0,0.1-1,0.6-1.3,0.3C8.8,23.5,8.8,23.1,9,23c0.1-0.1,0.2,0.2,0.6,0.3C10,23.5,10.3,23.3,10.3,23.4
		z"/>
	<g>
		<g>
			<path class="st7" d="M36.2,16c0.4,0,4.1,17.1-5.3,28.2c-8.8,10.4-23.8,9-23.9,8.6c-0.1-0.4,14.2,0,22.7-10.4
				C38.6,31.7,35.9,16,36.2,16z"/>
			<path class="st7" d="M6.5,53.1c0.9-1,2.6-0.6,2.6-0.4c0,0.2-0.7,0.2-1.6,0.9c-1.1,1-1.2,2.3-1.5,2.2C5.8,55.9,5.6,54.1,6.5,53.1z
				"/>
			<path class="st7" d="M36.9,15.3c0.9-1,2.6-0.6,2.6-0.4c0,0.2-0.7,0.2-1.6,0.9c-1.1,1-1.2,2.3-1.5,2.2
				C36.2,18.1,35.9,16.3,36.9,15.3z"/>
		</g>
		<line class="st47" x1="36.4" y1="16.8" x2="7" y2="53.2"/>
	</g>
	<path class="st48" d="M31,39.4c-0.2,0-0.4,0.1-0.5,0.1c-0.6-3.3-1.2-6.6-1.8-9.9c0.7-0.1,1.4-0.2,2-0.2
		C30.8,32.7,30.9,36.1,31,39.4z"/>
	<path class="st2" d="M30.1,41c-0.3,0.8-0.2,1.8,0,1.9c0.3,0.1,0.5-0.8,1.5-1.7c0.5-0.5,0.9-0.6,0.9-0.8c0-0.4-0.8-0.9-1.4-0.7
		C30.5,39.8,30.3,40.6,30.1,41z"/>
	<g>
		<g>
			<path class="st49" d="M28.6,46.2c0.6,0,0.6-1.2,0-1.2C28,45,28,46.2,28.6,46.2L28.6,46.2z"/>
		</g>
	</g>
	<g>
		<g>
			<path class="st49" d="M27.9,46.8c0.6,0,0.5-1.2,0-1.2C27.3,45.6,27.3,46.8,27.9,46.8L27.9,46.8z"/>
		</g>
	</g>
	<g>
		<g>
			<path class="st49" d="M27,47.6c0.6,0,0.6-1.2,0-1.2C26.4,46.4,26.4,47.6,27,47.6L27,47.6z"/>
		</g>
	</g>
	<g>
		<g>
			<path class="st49" d="M26.4,48.1c0.5,0,0.5-1.2,0-1.2C25.9,46.9,25.9,48.1,26.4,48.1L26.4,48.1z"/>
		</g>
	</g>
	<g>
		<g>
			<path class="st49" d="M25.6,48.6c0.4,0,0.4-1.2,0-1.2C25.1,47.4,25.1,48.6,25.6,48.6L25.6,48.6z"/>
		</g>
	</g>
	<g>
		<g>
			<path class="st49" d="M32.7,41.3c0.5,0,0.5-1.2,0-1.2C32.2,40.1,32.2,41.3,32.7,41.3L32.7,41.3z"/>
		</g>
	</g>
	<g>
		<g>
			<path class="st49" d="M33.2,40.4c0.5,0,0.5-1.2,0-1.2C32.7,39.2,32.7,40.4,33.2,40.4L33.2,40.4z"/>
		</g>
	</g>
	<g>
		<g>
			<path class="st49" d="M33.6,39.4c0.2,0,0.2-1.2,0-1.2C33.4,38.2,33.4,39.4,33.6,39.4L33.6,39.4z"/>
		</g>
	</g>
	<g>
		<g>
			<path class="st49" d="M34.3,38.4c0.5,0,0.5-1.2,0-1.2C33.7,37.2,33.8,38.4,34.3,38.4L34.3,38.4z"/>
		</g>
	</g>
	<g>
		<g>
			<path class="st49" d="M34.7,37.2c0.4,0,0.4-1.2,0-1.2C34.2,36,34.2,37.2,34.7,37.2L34.7,37.2z"/>
		</g>
	</g>
	<g>
		<g>
			<path class="st49" d="M35.1,36.3c0.2,0,0.2-1.2,0-1.2C34.8,35.1,34.8,36.3,35.1,36.3L35.1,36.3z"/>
		</g>
	</g>
	<g>
		<path class="st49" d="M36.8,21.9c0,3.7,0,7.7-1.5,11c0-0.1-0.1,0-0.1,0c0.4-0.4,0.7-1,1.1-1.5c-0.3,0.5-0.6,1.3-1,1.7
			c-0.1,0-0.2-0.1-0.1-0.2C36.3,29.3,36.2,25.5,36.8,21.9L36.8,21.9z"/>
	</g>
	<g>
		<path class="st49" d="M24.8,48.9c-3.8,2.4-8.4,3.8-13,3.8c-0.1,0-0.4-0.1-0.2-0.3c0.2-0.1,0.1,0,0.1,0c0,0,0.1,0,0.1,0l0.7-0.1
			c2.2-0.2,4.3-0.8,6.3-1.7c-1.9,1-4.1,1.8-6.3,2c0,0-0.7,0.1-0.7,0.1c0,0-0.1,0,0.1,0c0.1-0.1,0.1-0.2,0-0.3c-0.1-0.1-0.1,0,0,0
			C16.3,52.3,20.8,50.9,24.8,48.9L24.8,48.9z"/>
	</g>
	<ellipse class="st48" cx="28.2" cy="31.2" rx="0.4" ry="0.4"/>
	<ellipse class="st48" cx="31.4" cy="35.8" rx="0.4" ry="0.4"/>
	<ellipse class="st2" cx="29.8" cy="30.4" rx="0.6" ry="0.7"/>
	<g>
		<path class="st50" d="M10,39.8c0.5,1.6,0.5,3.5,0.2,3.6c-0.3,0.1-0.9-1.5-1.1-2.7c-0.2-1.1-0.3-2.6,0-2.7C9.3,38,9.8,39,10,39.8z"
			/>
		<path class="st50" d="M7.3,40.1c0.4-0.3,1,0.2,1.1,0.2c0.5,0.4,0.7,1.1,0.8,1.7c0.1,0.6,0,0.7,0.1,1.4c0.2,1.2,0.5,1.7,0.4,1.8
			c-0.2,0.2-1.1-0.6-1.8-1.6C7.1,42.4,6.8,40.5,7.3,40.1z"/>
		<path class="st10" d="M9.2,40.2c0,1.3,0.3,1.7,0.1,2c-0.4,0.4-1.9-0.3-2.1-1.3c-0.1-0.2,0-0.6,0.2-1.3c0.1-0.7,0.2-1,0.4-1.2
			c0.4-0.5,1.2-0.7,1.6-0.4C9.5,38.2,9.2,38.8,9.2,40.2z"/>
		<g>
			<path class="st10" d="M9.1,41.5c0.1,1.3,0.3,2.4,0.7,3.7C8.9,44.2,8.6,42.7,9.1,41.5L9.1,41.5z"/>
		</g>
		<g>
			<path class="st10" d="M8.5,41.4c0.1,1.3,0.3,2.4,0.7,3.7C8.3,44.1,8,42.6,8.5,41.4L8.5,41.4z"/>
		</g>
		<g>
			<path class="st10" d="M7.9,41.2c0.1,1.2,0.4,2.2,0.7,3.3C7.8,43.7,7.5,42.3,7.9,41.2L7.9,41.2z"/>
		</g>
		<g>
			<path class="st10" d="M7.5,39.8c0,1.2,0.1,2.2,0.4,3.4C7.1,42.3,6.9,40.9,7.5,39.8L7.5,39.8z"/>
		</g>
	</g>
	<ellipse class="st3" cx="8.6" cy="31.8" rx="0.5" ry="0.5"/>
	<path class="st2" d="M30,42.2c-0.2,0.8,0.1,2,0.6,2.2c0.9,0.3,2.8-1.6,2.5-3.1c0-0.1-0.2-0.8-0.7-1C31.6,39.9,30.3,40.9,30,42.2z"
		/>
</g>
</svg>
