<?xml version="1.0" encoding="utf-8"?>
<!-- Generator: Adobe Illustrator 26.5.0, SVG Export Plug-In . SVG Version: 6.00 Build 0)  -->
<svg version="1.1" id="form" xmlns="http://www.w3.org/2000/svg" xmlns:xlink="http://www.w3.org/1999/xlink" x="0px" y="0px"
	 viewBox="0 0 40 80" style="enable-background:new 0 0 40 80;" xml:space="preserve">
<style type="text/css">
	.st0{fill:#4C0505;}
	.st1{fill:#661B1B;}
	.st2{fill:#8E8883;}
	.st3{fill:#84331E;}
	.st4{fill:#999490;}
	.st5{fill:#A39F9B;}
	.st6{fill:#752616;}
	.st7{fill:#A85116;}
	.st8{fill:#BF6330;}
	.st9{fill:#230908;}
	.st10{fill:#777471;}
	.st11{fill:#777471;stroke:#999490;stroke-width:0.3979;stroke-miterlimit:10;}
	.st12{fill:none;}
	.st13{fill:#666360;}
	.st14{fill:#AA8F6D;}
	.st15{fill:#C0A278;}
	.st16{fill:#242930;}
	.st17{fill:#161513;}
	.st18{fill:#1C1B1A;}
	.st19{fill:#11100F;}
	.st20{fill:#1E1D1C;}
	.st21{fill:#490707;}
	.st22{fill:#5E0F0F;}
	.st23{fill:#510B0B;}
	.st24{fill:#302521;stroke:#261E1B;stroke-width:0.2504;stroke-miterlimit:10;}
	.st25{fill:#895634;}
	.st26{fill:#6D6B69;}
	.st27{fill:#666666;}
	.st28{fill:#686562;}
	.st29{fill:#7C7976;}
	.st30{fill:#2D0F0B;}
	.st31{fill:#565350;}
	.st32{fill:#9E9D9D;}
	.st33{fill:#595755;}
	.st34{fill:#1C1408;}
	.st35{fill:#AAA7A5;}
	.st36{fill:#282D33;}
</style>
<g>
	<path class="st0" d="M0.7,62.1c2.8,0.3,7.4,1.3,12.2,4.5c2.6,1.7,4.6,3.6,6,5.3c5.3-3.6,12.1-9.8,13.6-18.7
		c0.6-3.6,0.1-6.4-0.4-9.3c-1.1-6.9-2.3-17-2.6-30.3c-5.4,0.1-10.9,0.2-16.3,0.3C8,23.3,6.3,31,5.7,36.4C5.4,40.1,5.2,45,3.6,52.2
		C2.6,56.5,1.5,59.8,0.7,62.1z"/>
	<path class="st1" d="M0.5,63.7c0.7,0.7,1.8,1.6,3.2,2.4C5.4,66.9,7,67.2,8,67.3C6.8,62,5.5,53.4,7.1,43c2.3-15.1,9.4-25.4,13-30
		c-1.7-0.4-3.4-0.9-5.2-1.3C11.9,16.8,8.7,23.2,6,31C1.7,43.9,0.6,55.5,0.5,63.7z"/>
	<path class="st2" d="M29.6,11.6l-2.5,5.5c-0.8-0.9-1.5-1.7-2.3-2.6l2-4.4L29.6,11.6z"/>
	<path class="st2" d="M21.6,21.6c0.9,0.7,1.7,1.3,2.6,2l-2.9,6.3c-0.8,1.7-2.6,2.4-4.2,1.6L21.6,21.6z"/>
	<path class="st3" d="M28.1,10.4l-0.6-0.3c0.3-1,0.6-2.2,1.2-3.5c0.7-1.7,1.5-3,2.2-4c0.1,0.5,0.3,1.1,0.4,1.6
		C30.2,5.4,29,7.9,28.1,10.4z"/>
	<path class="st4" d="M27.1,17.2l-2.9,6.4c-0.4-0.3-0.9-0.7-1.3-1l3.1-6.7C26.3,16.3,26.7,16.7,27.1,17.2z"/>
	<path class="st5" d="M25.9,15.8l-3.1,6.7c-0.4-0.3-0.8-0.6-1.2-1l3.2-7C25.2,15,25.5,15.4,25.9,15.8z"/>
	<path class="st6" d="M30.5,8c-0.6,1.1-1,2-1.3,2.9l-1.1-0.5c0.9-2.5,2.1-4.9,3.3-6.2c0.2,0.6,0.3,1.3,0.5,1.9
		C31.5,6.5,31,7.2,30.5,8z"/>
	<path class="st7" d="M28.8,12c-0.2-0.2-0.6-0.6-1.2-0.8c-1.2-0.4-2.2,0.1-2.5,0.3c-0.2-0.2-0.5-0.3-0.7-0.6
		c-0.3-0.3-0.6-0.6-0.8-0.9c0.7-0.2,1.6-0.5,2.8-0.3c0.7,0.1,1.1,0.4,1.9,0.6c0.8,0.3,1.9,0.6,3.4,0.6c0,0.1-0.3,0.9-1.1,1.3
		C29.7,12.7,28.9,12,28.8,12z"/>
	<path class="st8" d="M29.8,11.6c0-0.1-1.2-1.2-2.9-1.4c-1.3-0.2-2.4,0.2-2.4,0.3c0,0.1,1.1,0,2.7,0.3
		C28.9,11.1,29.8,11.7,29.8,11.6z"/>
	<path class="st2" d="M13.2,11.6l2.4,5.6c0.8-0.9,1.6-1.7,2.3-2.6l-1.9-4.4L13.2,11.6z"/>
	<path class="st2" d="M21.1,21.6c-0.9,0.7-1.7,1.3-2.6,2l2.8,6.3c0.7,1.7,2.6,2.4,4.2,1.6L21.1,21.6z"/>
	<path class="st3" d="M14.8,10.3l0.6-0.3c-0.2-1-0.6-2.3-1.1-3.5c-0.7-1.7-1.5-3-2.2-4.1C11.8,3,11.7,3.5,11.6,4
		C12.7,5.4,13.9,7.8,14.8,10.3z"/>
	<path class="st4" d="M15.7,17.1l2.8,6.4c0.5-0.3,0.9-0.7,1.4-1l-3-6.8C16.5,16.3,16.1,16.7,15.7,17.1z"/>
	<path class="st5" d="M16.9,15.8l3,6.8c0.4-0.3,0.8-0.6,1.2-0.9l-3.1-7C17.6,15,17.3,15.4,16.9,15.8z"/>
	<path class="st6" d="M12.4,8c0.6,1.1,1,2.1,1.3,2.9l1.1-0.5c-0.8-2.5-2-4.9-3.2-6.3c-0.2,0.6-0.3,1.3-0.5,1.9
		C11.5,6.5,12,7.1,12.4,8z"/>
	<path class="st7" d="M14,11.9c0.2-0.2,0.7-0.6,1.3-0.8c1.2-0.4,2.2,0.2,2.5,0.3c0.2-0.1,0.5-0.3,0.7-0.6c0.3-0.3,0.6-0.6,0.8-0.9
		c-0.7-0.2-1.6-0.5-2.8-0.3c-0.7,0.1-1.1,0.3-1.9,0.6c-0.8,0.3-1.9,0.5-3.4,0.6c0,0.1,0.3,0.9,1.1,1.3C13.1,12.6,14,12,14,11.9z"/>
	<path class="st8" d="M13,11.5c0-0.1,1.2-1.1,2.9-1.4c1.3-0.2,2.4,0.2,2.4,0.3c0,0.1-1.1,0-2.7,0.3C14,11,13.1,11.6,13,11.5z"/>
	<path class="st9" d="M14.9,21c-0.4-0.8-1.4-1.7-2.2-1.4c-0.6,0.2-0.9,1-1,1.6c-0.4,1.3,0.1,1.7-0.3,3.1c-0.1,0.3-0.1,0.1-0.7,1.7
		C10,27.6,10,27.7,10,27.9c0.2,1.3,2.7,2.4,3.5,1.7c0.7-0.6-0.4-2.1,0.5-3.9c0.4-0.8,0.6-0.7,0.9-1.5C15,23.9,15.6,22.4,14.9,21z"/>
	<g>
		<path class="st10" d="M11.7,17.8c0,0-1.4,4.3-1,6.1c0.4,0.1,0.8,0.3,1.2,0.5c1.2,0.8,1.8,1.9,2.1,2.5c2-2.9,2.6-5.5,2.8-7.1
			c0.3-2.2-0.1-2.6-0.3-2.8c-0.9-0.8-3.2,0.2-4.5,0.7C11.9,17.8,11.8,17.8,11.7,17.8z"/>
		<path class="st11" d="M12.1,18.9c0,0-0.9,2.9-0.7,4.1c0.2,0.1,0.5,0.2,0.8,0.4c0.9,0.5,1.3,1.3,1.5,1.7c1.3-2,1.7-3.8,1.9-4.9
			c0.2-1.4-0.1-1.8-0.2-1.9c-0.6-0.5-2.2,0.1-3.1,0.5C12.2,18.9,12.2,18.9,12.1,18.9z"/>
	</g>
	<line class="st12" x1="21.7" y1="13.9" x2="21.7" y2="12.8"/>
	<path class="st13" d="M27.6,31.5c-3.9,0-7.9,0-11.8,0c0-1.2,0-2.1-0.1-2.8c-0.2-4.1-0.8-5.8-0.9-9.7c0-1.1,0-2,0-2.7
		c4.5-0.2,8.9-0.3,13.4-0.5c0,0.5,0,1.5,0,2.6c-0.1,3.8-0.6,5-0.6,8.1c0,0.4,0,1.4,0,2.9C27.6,30.4,27.6,31.1,27.6,31.5z"/>
	<path class="st11" d="M26.9,17.7c-0.5,0.4-2.5,1.9-5.5,1.9c-2.5,0-4.3-1.1-4.9-1.5c0.5-1.7,1-3.4,1.5-5.1h7.3
		C25.9,14.6,26.4,16.2,26.9,17.7z"/>
	<path class="st14" d="M26.2,12.9c0-0.1,0.1-0.1,0.1-0.2c-0.2,0-1.6-0.1-2.5-1.4c-0.9-1.4-0.4-2.9-0.4-3.1c-0.6,0-1.2,0-1.8,0v0.2
		c-0.7,0-1.3,0-2,0c0.5,1.1,0.3,2.4-0.4,3.2c-0.7,0.8-1.7,1-1.9,1c0,0,0,0.1,0.1,0.1h0v2.2h2.8c0.7,0.1,1.3,0.1,1.5,0v0h1
		c0.3,0.1,0.7,0.1,1.2,0.1c0.1,0,0.3,0,0.4-0.1h2.1V12.9z"/>
	<path class="st15" d="M24.6,4.1c0.1,0.3,1,2.6-0.2,4.6c-0.2,0.3-1.2,2-2.9,2c-1.5,0-2.4-1.5-2.7-1.8c-1-1.6-1-3.6-0.3-5.1
		c0.2-0.4,1.2-2.6,2.9-2.6C23.4,1.2,24.5,3.8,24.6,4.1z"/>
	<path class="st16" d="M19.5,9c-0.3,1.2,0.7,2.3,0.9,2.2c0.2-0.1-0.3-1.2,0.2-2.6c0.3-0.8,0.8-1.2,0.7-1.3C21.2,7.3,19.8,7.8,19.5,9
		z"/>
	<path class="st16" d="M23.7,9.1c0.3,1.2-0.7,2.3-0.9,2.2c-0.2-0.1,0.3-1.2-0.2-2.6c-0.3-0.8-0.8-1.2-0.7-1.3
		C22,7.3,23.5,7.8,23.7,9.1z"/>
	<g>
		<g>
			<path class="st10" d="M24.3,21.4c0.3,0,0.3-1.3,0-1.3C24,20.1,24,21.4,24.3,21.4L24.3,21.4z"/>
		</g>
	</g>
	<g>
		<g>
			<path class="st10" d="M25.4,22.3c0.6,0,0.6-1.3,0-1.3C24.8,21,24.8,22.3,25.4,22.3L25.4,22.3z"/>
		</g>
	</g>
	<g>
		<g>
			<path class="st10" d="M26.4,21.4c0.5,0,0.5-1.3,0-1.3C25.9,20.1,25.9,21.4,26.4,21.4L26.4,21.4z"/>
		</g>
	</g>
	<g>
		<g>
			<path class="st10" d="M27.2,22.1c0.5,0,0.4-1.3,0-1.3C26.7,20.8,26.7,22.1,27.2,22.1L27.2,22.1z"/>
		</g>
	</g>
	<g>
		<g>
			<path class="st10" d="M26.7,23.5c0.3,0,0.3-1.3,0-1.3C26.4,22.3,26.4,23.5,26.7,23.5L26.7,23.5z"/>
		</g>
	</g>
	<g>
		<g>
			<path class="st10" d="M25.8,24.8c0.5,0,0.5-1.3,0-1.3C25.3,23.5,25.3,24.8,25.8,24.8L25.8,24.8z"/>
		</g>
	</g>
	<g>
		<g>
			<path class="st10" d="M24.3,23.3c0.2,0,0.2-1.3,0-1.3C24,22.1,24.1,23.3,24.3,23.3L24.3,23.3z"/>
		</g>
	</g>
	<g>
		<g>
			<path class="st10" d="M26.3,24.4c0.3,0,0.3-1.3,0-1.3C25.9,23.2,25.9,24.4,26.3,24.4L26.3,24.4z"/>
		</g>
	</g>
	<g>
		<g>
			<path class="st10" d="M24.8,23.2c0.4,0,0.4-1.3,0-1.3C24.4,21.9,24.4,23.2,24.8,23.2L24.8,23.2z"/>
		</g>
	</g>
	<g>
		<g>
			<path class="st10" d="M25.9,22.2c0.4,0,0.4-1.3,0-1.3C25.5,21,25.5,22.2,25.9,22.2L25.9,22.2z"/>
		</g>
	</g>
	<g>
		<g>
			<path class="st10" d="M27.4,23.5c0.6,0,0.6-1.3,0-1.3C26.8,22.2,26.8,23.5,27.4,23.5L27.4,23.5z"/>
		</g>
	</g>
	<g>
		<g>
			<path class="st10" d="M26.9,25.1c0.6,0,0.6-1.3,0-1.3C26.3,23.8,26.3,25.1,26.9,25.1L26.9,25.1z"/>
		</g>
	</g>
	<g>
		<g>
			<path class="st10" d="M23.7,21.2c0.5,0,0.5-1.3,0-1.3C23.1,19.9,23.1,21.2,23.7,21.2L23.7,21.2z"/>
		</g>
	</g>
	<g>
		<g>
			<path class="st10" d="M25.2,24.9c0.4,0,0.3-1.3,0-1.3C24.9,23.6,24.9,24.9,25.2,24.9L25.2,24.9z"/>
		</g>
	</g>
	<g>
		<g>
			<path class="st10" d="M24.6,24.9c0.4,0,0.4-1.3,0-1.3C24.3,23.6,24.3,24.9,24.6,24.9L24.6,24.9z"/>
		</g>
	</g>
	<g>
		<g>
			<path class="st10" d="M24.1,25.7c0.2,0,0.2-1.3,0-1.3C23.8,24.4,23.9,25.7,24.1,25.7L24.1,25.7z"/>
		</g>
	</g>
	<g>
		<g>
			<path class="st10" d="M27.7,21c0.5,0,0.5-1.3,0-1.3C27.2,19.8,27.2,21,27.7,21L27.7,21z"/>
		</g>
	</g>
	<g>
		<g>
			<path class="st10" d="M27.1,20.4c0.5,0,0.5-1.3,0-1.3C26.5,19.2,26.6,20.4,27.1,20.4L27.1,20.4z"/>
		</g>
	</g>
	<g>
		<g>
			<path class="st10" d="M26.2,26c0.4,0,0.4-1.3,0-1.3C25.8,24.7,25.8,26,26.2,26L26.2,26z"/>
		</g>
	</g>
	<path class="st17" d="M13.7,66.5c1.2-0.1,2.4-0.2,3.6-0.3c0.3-0.4,0.6-0.9,1-1.5c0.5-0.8,1.1-1.5,1.4-2.2c0.6-1.9,0.9-3.5,1-4.6
		c0.1-0.7,0.1-1.7,0.2-3.9c0.1-1.4,0.1-2.1,0.2-3.4c0.1-2.1,0.6-7.7,0.7-9.7c0.1-1.7,0.3-4.2,0.3-7.2c-2.3-0.1-4.6-0.3-6.9-0.4
		c-0.3,1.3-0.6,3-0.9,5.1c-0.4,2.8-0.3,2.5-0.7,5.4c-0.6,3.9-1,5.7-1,9.4c0,0,0,0,0,0c0,0-0.3,5,0.3,8.9c0.1,0.8,0.2,1.6,0.2,1.6
		C13.3,64.8,13.6,65.8,13.7,66.5z"/>
	<path class="st18" d="M18.4,49.1c-0.4,0.4-1.2,1.1-2.4,1.7c-1.1,0.5-2.7,0.9-3.1,0.3c-0.2-0.3,0-0.7,0-0.8c-0.1,0-0.5,0.6-0.4,1.1
		c0.3,0.9,2.9,1.5,4.9,0.7c3.6-1.5,4.3-7.4,4.1-7.5C21.4,44.5,20.7,46.9,18.4,49.1z"/>
	<path class="st18" d="M19.9,50.9c-0.9,1.9-1.5,2.7-2.2,3.4c-0.6,0.6-1.1,1-1.8,1.2c-1.1,0.2-2.5-0.3-3-1.2
		c-0.2-0.4-0.2-0.6-0.3-0.6c-0.2,0-0.5,1.9,0.2,3.1c0.9,1.6,3.4,2,5,1.3c3.8-1.7,3.9-10.5,3.6-10.5C21.2,47.4,21,48.6,19.9,50.9z"/>
	<path class="st19" d="M18.8,48.7c-0.1-0.1-1.4,1.8-3.7,2.3c-1.1,0.2-2.1,0-2.2,0.2c0,0.1,0.4,0.2,0.8,0.3c0.2,0,1.2,0.2,2.8-0.7
		C18,49.9,18.9,48.8,18.8,48.7z"/>
	<path class="st19" d="M17.7,54.2c0,0.1-0.9,1.3-2.2,1.4c-1.6,0.1-2.8-1.5-2.8-1.6c0.1-0.1,1.3,1.3,3,1.1
		C16.9,55,17.7,54.1,17.7,54.2z"/>
	<path class="st20" d="M12.6,55c-0.1,0.1,1.3,2.3,3.3,2.3c2.7,0.1,4.2-4,4.2-4c-0.1-0.1-1.7,3.4-4.2,3.4C14,56.8,12.7,54.9,12.6,55z
		"/>
	<path class="st18" d="M13.1,47.2c-0.2,0-0.8,1.8-0.2,2.5c0.8,0.8,4-0.7,6-2.9c2.6-2.8,3.3-6.6,3-6.7c-0.2-0.1-1.1,2.5-3.8,5.3
		c-1.6,1.7-4,3.7-4.8,3.1C13,48.1,13.2,47.2,13.1,47.2z"/>
	<path class="st19" d="M17.7,45.9c0,0-0.6,0.8-1.8,1.6c-1,0.7-1.7,1.1-2.2,0.9c-0.4-0.2-0.6-0.7-0.5-0.8c0.1-0.1,0.5,0.2,0.9,0.3
		C15.6,48.3,17.6,45.8,17.7,45.9z"/>
	<path class="st20" d="M12.8,48.5c-0.1,0.1,0.1,0.6,0.4,0.8c0.3,0.2,0.8,0.3,2.2-0.6c2.3-1.4,3.7-3.2,3.6-3.3
		c-0.1-0.1-3.7,4.1-5.4,3.3C13.4,48.6,13,48.4,12.8,48.5z"/>
	<path class="st20" d="M14.1,51.9c0,0.2,1.7,0.6,3.2-0.3c1.5-0.8,2.1-2.5,2-2.6c-0.1-0.1-0.5,0.6-1.3,1.3
		C16.1,51.8,14.1,51.7,14.1,51.9z"/>
	<path class="st18" d="M13.2,46.6c0,0.1,1.2,0.6,2.4,0.5c2.8-0.2,4.4-3.8,4.3-3.9c-0.1-0.1-2.1,3.3-5.2,3.4
		C14,46.7,13.2,46.6,13.2,46.6z"/>
	<path class="st18" d="M21.2,51.6c0.1,0,0.7,10.1-3.1,12c-1.3,0.6-3.1,0.3-4.2-0.7c-1.5-1.2-1.6-3.3-1.6-4.1c0-0.7,0-2.2,0.4-2.3
		c0.7-0.2,1.4,4.6,3.2,4.8c1.7,0.2,3.7-3.6,4.6-6C21.2,53.1,21.1,51.6,21.2,51.6z"/>
	<path class="st19" d="M14.3,59.6c-0.1,0.1,0.6,1.9,1.8,2c1.5,0.1,2.3-2.3,2.2-2.4c-0.1-0.1-0.9,1.6-2.2,1.6
		C15.1,60.8,14.4,59.5,14.3,59.6z"/>
	<path class="st20" d="M19.4,60.6c0.1,0.2-1,2.8-3,2.9c-2.3,0.1-3.6-3.3-3.4-3.5c0.1-0.1,1.4,2.3,3.4,2.3
		C18.1,62.3,19.3,60.4,19.4,60.6z"/>
	<path class="st17" d="M29.6,66.7c-1.2-0.1-2.4-0.2-3.6-0.3c-0.3-0.4-0.6-0.9-1-1.5c-0.5-0.8-1.1-1.5-1.4-2.2
		c-0.6-1.9-0.9-3.5-1-4.6c-0.1-0.7-0.1-1.7-0.2-3.9c-0.1-1.4-0.1-2.1-0.2-3.4c-0.1-2.1-0.6-7.7-0.7-9.7c-0.1-1.7-0.3-4.2-0.3-7.2
		c2.3-0.1,4.6-0.3,6.9-0.4c0.3,1.3,0.6,3,0.9,5.1c0.3,2,0.3,2.4,0.5,3.5c0.1,0.6,0.2,1.2,0.3,1.9c0.1,0.7,0.2,1.2,0.3,1.6
		c0.4,1.8,0.3,2.4,0.6,5.1c0.1,0.5,0.2,1.2,0.3,2.1c0,0.3,0.1,0.7,0.2,1.2c0.2,1.8,0.4,3.4,0.1,5.2c-0.2,1.1-0.4,1.3-0.7,3.2
		c-0.1,0.7-0.2,1.2-0.2,1.6C30,65,29.8,66,29.6,66.7z"/>
	<path class="st18" d="M24.9,49.4c0.4,0.4,1.2,1.1,2.4,1.7c1.1,0.5,2.7,0.9,3.1,0.3c0.2-0.3,0-0.7,0-0.8c0.1,0,0.5,0.6,0.4,1.1
		c-0.3,0.9-2.9,1.5-4.9,0.7c-3.6-1.5-4.3-7.4-4.1-7.5C21.9,44.7,22.6,47.1,24.9,49.4z"/>
	<path class="st18" d="M23.4,51.1c0.9,1.9,1.5,2.7,2.2,3.4c0.6,0.6,1.1,1,1.8,1.2c1.1,0.2,2.5-0.3,3-1.2c0.2-0.4,0.2-0.6,0.3-0.6
		c0.2,0,0.5,1.9-0.2,3.1c-0.9,1.6-3.4,2-5,1.3c-3.8-1.7-3.9-10.5-3.6-10.5C22.1,47.6,22.3,48.8,23.4,51.1z"/>
	<path class="st19" d="M24.5,48.9c0.1-0.1,1.4,1.8,3.7,2.3c1.1,0.2,2.1,0,2.2,0.2c0,0.1-0.4,0.2-0.8,0.3c-0.2,0-1.2,0.2-2.8-0.7
		C25.4,50.1,24.5,49,24.5,48.9z"/>
	<path class="st19" d="M25.6,54.4c0,0.1,0.9,1.3,2.2,1.4c1.6,0.1,2.8-1.5,2.8-1.6c-0.1-0.1-1.3,1.3-3,1.1
		C26.4,55.2,25.6,54.3,25.6,54.4z"/>
	<path class="st20" d="M30.7,55.2c0.1,0.1-1.3,2.3-3.3,2.3c-2.7,0.1-4.2-4-4.2-4c0.1-0.1,1.7,3.4,4.2,3.4
		C29.3,57,30.7,55.1,30.7,55.2z"/>
	<path class="st18" d="M30.3,47.4c0.2,0,0.8,1.8,0.2,2.5c-0.8,0.8-4.1-0.7-6-2.9c-3.4-3.9-2.9-9.6-2.7-9.7c0.2,0,0.3,4.5,3.5,8.2
		c1.6,1.9,4,3.6,4.8,3.1C30.3,48.3,30.1,47.4,30.3,47.4z"/>
	<path class="st19" d="M25.7,46.1c0,0,0.6,0.8,1.8,1.6c1,0.7,1.7,1.1,2.2,0.9c0.4-0.2,0.6-0.7,0.5-0.8c-0.1-0.1-0.5,0.2-0.9,0.3
		C27.8,48.6,25.7,46,25.7,46.1z"/>
	<path class="st20" d="M30.5,48.7c0.1,0.1-0.1,0.6-0.4,0.8c-0.3,0.2-0.8,0.3-2.2-0.6c-2.3-1.4-3.7-3.2-3.6-3.3
		c0.1-0.1,3.7,4.1,5.4,3.3C29.9,48.9,30.4,48.6,30.5,48.7z"/>
	<path class="st20" d="M29.2,52.1c0,0.2-1.7,0.6-3.2-0.3c-1.5-0.8-2.1-2.5-2-2.6c0.1-0.1,0.5,0.6,1.3,1.3
		C27.2,52.1,29.2,51.9,29.2,52.1z"/>
	<path class="st18" d="M30.1,46.8c0,0.1-1.2,0.6-2.4,0.5c-2.8-0.2-4.4-3.8-4.3-3.9c0.1-0.1,2.1,3.3,5.2,3.4
		C29.3,46.9,30.1,46.8,30.1,46.8z"/>
	<path class="st18" d="M22.1,51c-0.1,0-0.9,10.9,3.1,12.8c1.3,0.6,3.1,0.3,4.2-0.7c1.5-1.2,1.6-3.3,1.6-4.1c0-0.7,0-2.2-0.4-2.3
		c-0.7-0.2-1.4,4.6-3.2,4.8c-1.7,0.2-3.7-3.5-4.6-6C22,52.9,22.2,51,22.1,51z"/>
	<path class="st19" d="M29,59.8c0.1,0.1-0.6,1.9-1.8,2c-1.5,0.1-2.3-2.3-2.2-2.4c0.1-0.1,0.9,1.6,2.2,1.6C28.2,61,29,59.7,29,59.8z"
		/>
	<path class="st20" d="M23.9,60.8c-0.1,0.2,1,2.8,3,2.9c2.3,0.1,3.6-3.3,3.4-3.5c-0.1-0.1-1.4,2.3-3.4,2.3
		C25.2,62.5,24.1,60.7,23.9,60.8z"/>
	<path class="st18" d="M18.6,41.6c-0.6,2.4-1.2,3.5-1,3.6c0.2,0.1,2.2-2.8,2.8-6.5c0.5-2.8,0.1-5.5-0.2-5.5
		C19.9,33.1,20,36.5,18.6,41.6z"/>
	<path class="st18" d="M18.7,40c-1.1,2.6-2.7,4.8-3,4.7c-0.2-0.1,0.8-2.5,2.1-5.4c1.1-2.6,2-4.4,2.2-4.3
		C20.2,35.1,19.7,37.6,18.7,40z"/>
	<path class="st18" d="M17.7,38.6c1.8-2,2.4-4.5,2.2-4.6c-0.2-0.1-0.9,2.1-3.1,4.5c-1.3,1.4-2.3,2.1-2.2,2.2
		C14.7,40.9,16.4,40.1,17.7,38.6z"/>
	<path class="st21" d="M28,33.2H15.3c0-1,0-2.1,0-3.1c0-1.4,0-2.8,0-4.1c1.9,0.2,4,0.4,6.3,0.4c2.3,0,4.4-0.1,6.2-0.3
		c0.1,0.1,0.1,0.3,0.2,0.6c0.4,1.3,0.2,2.3,0.1,3.1C28,30.5,27.9,31.7,28,33.2z"/>
	<path class="st22" d="M28.1,33.3c-1.9,0.3-4.1,0.4-6.4,0.4c-2.4,0-4.5-0.2-6.4-0.5c-0.1-0.3-0.1-0.7-0.2-1.1c0-0.5,0-1,0.1-1.3
		c4.3,0.2,8.5,0.3,12.8,0.5c0.1,0.2,0.1,0.5,0.1,0.8C28.3,32.6,28.2,33,28.1,33.3z"/>
	<path class="st22" d="M28.1,29.5c-2.3,0.2-5,0.2-7.9-0.1c-1.8-0.2-3.4-0.4-5-0.7c0-0.4-0.1-0.9,0-1.4c0-0.4,0-0.7,0.1-1.1
		c1.5,0.6,4,1.4,7.1,1.4c2.3,0,4.3-0.4,5.6-0.9c0.1,0.4,0.2,0.9,0.2,1.4C28.3,28.8,28.2,29.2,28.1,29.5z"/>
	<path class="st23" d="M28.1,31.2c-2.1,0.3-4.4,0.5-6.9,0.7c-2.1,0.1-4,0.2-5.9,0.1c-0.1-0.3-0.2-0.8-0.2-1.4c0-0.5,0.1-1,0.2-1.3
		c1.7,0.2,3.6,0.4,5.8,0.3c2.7-0.1,5.1-0.6,7-1.1c0.1,0.3,0.3,0.8,0.2,1.5C28.3,30.6,28.2,31,28.1,31.2z"/>
	<path class="st18" d="M24.4,38.6c1.7,3.8,4.1,5.5,3.9,5.7c-0.2,0.3-4.1-1.6-5.4-5.4c-0.8-2.4-0.4-5-0.1-5
		C23.1,33.8,23.2,35.9,24.4,38.6z"/>
	<path class="st18" d="M25.7,39.1c1.5,1.2,3.1,1.1,3,1.2c0,0.1-4,0.1-5.4-2.3c-0.8-1.4-0.6-3.1-0.3-3.2
		C23.3,34.6,23.5,37.4,25.7,39.1z"/>
	<path class="st17" d="M29.1,39.6c1.6,3.2,1.1,6.9,0.7,6.9c-0.3,0-0.4-2.6-2.2-6.9c-0.8-2-1.5-3.1-1.3-3.3
		C26.6,36.2,28.2,37.7,29.1,39.6z"/>
	<path class="st17" d="M14.2,42.2c-0.4,2.9-0.5,4-0.6,4c-0.2,0-0.3-2.2-0.1-4.6c0.3-3.1,1.3-5.7,1.4-5.6
		C15.1,36,14.8,37.5,14.2,42.2z"/>
	<path class="st17" d="M29,36.9c0.2,1.1,0.5,3.3,0.1,3.4c-0.3,0.1-1.2-1.5-1.4-3.1c-0.3-1.7,0-3.5,0.3-3.5
		C28.4,33.6,28.8,35.8,29,36.9z"/>
	<g>
		<g>
			<path class="st10" d="M17.5,24.2c0.4,0,0.4-1.3,0-1.3C17.1,22.9,17.1,24.2,17.5,24.2L17.5,24.2z"/>
		</g>
	</g>
	<g>
		<g>
			<path class="st10" d="M18,23c0.3,0,0.3-1.3,0-1.3C17.6,21.8,17.6,23,18,23L18,23z"/>
		</g>
	</g>
	<g>
		<g>
			<path class="st10" d="M16.9,24c0.4,0,0.4-1.3,0-1.3C16.5,22.7,16.5,24,16.9,24L16.9,24z"/>
		</g>
	</g>
	<g>
		<g>
			<path class="st10" d="M18.1,24.7c0.3,0,0.3-1.3,0-1.3C17.9,23.5,17.9,24.7,18.1,24.7L18.1,24.7z"/>
		</g>
	</g>
	<g>
		<g>
			<path class="st10" d="M16.4,22.1c0.5,0,0.5-1.3,0-1.3C15.9,20.8,15.9,22.1,16.4,22.1L16.4,22.1z"/>
		</g>
	</g>
	<g>
		<g>
			<path class="st10" d="M16.9,21.5c0.4,0,0.3-1.3,0-1.3C16.6,20.2,16.6,21.5,16.9,21.5L16.9,21.5z"/>
		</g>
	</g>
	<g>
		<g>
			<path class="st10" d="M15.8,21.3c0.4,0,0.4-1.3,0-1.3C15.4,20.1,15.4,21.3,15.8,21.3L15.8,21.3z"/>
		</g>
	</g>
	<g>
		<g>
			<path class="st10" d="M17.5,21.5c0.5,0,0.5-1.3,0-1.3C17,20.2,17,21.5,17.5,21.5L17.5,21.5z"/>
		</g>
	</g>
	<g>
		<g>
			<path class="st10" d="M16.4,24.7c0.3,0,0.3-1.3,0-1.3C16,23.5,16.1,24.7,16.4,24.7L16.4,24.7z"/>
		</g>
	</g>
	<g>
		<g>
			<path class="st10" d="M18.7,23.8c0.3,0,0.3-1.3,0-1.3C18.4,22.5,18.4,23.8,18.7,23.8L18.7,23.8z"/>
		</g>
	</g>
	<g>
		<g>
			<path class="st10" d="M16,23.2c0.2,0,0.2-1.3,0-1.3C15.7,21.9,15.7,23.2,16,23.2L16,23.2z"/>
		</g>
	</g>
	<g>
		<g>
			<path class="st10" d="M17.2,25.8c0.3,0,0.3-1.3,0-1.3C16.9,24.5,16.9,25.8,17.2,25.8L17.2,25.8z"/>
		</g>
	</g>
	<g>
		<g>
			<path class="st10" d="M18.5,26c0.4,0,0.4-1.3,0-1.3C18,24.7,18.1,26,18.5,26L18.5,26z"/>
		</g>
	</g>
	<g>
		<g>
			<path class="st10" d="M18.9,25.4c0.5,0,0.5-1.3,0-1.3C18.4,24.1,18.4,25.4,18.9,25.4L18.9,25.4z"/>
		</g>
	</g>
	<g>
		<g>
			<path class="st10" d="M19.4,23.6c0.6,0,0.6-1.3,0-1.3C18.8,22.4,18.8,23.6,19.4,23.6L19.4,23.6z"/>
		</g>
	</g>
	<g>
		<g>
			<path class="st10" d="M18.6,22.2c0.5,0,0.5-1.3,0-1.3C18.1,20.9,18.1,22.2,18.6,22.2L18.6,22.2z"/>
		</g>
	</g>
	<g>
		<g>
			<path class="st10" d="M19.3,21.3c0.4,0,0.4-1.3,0-1.3C18.8,20,18.8,21.3,19.3,21.3L19.3,21.3z"/>
		</g>
	</g>
	<g>
		<g>
			<path class="st10" d="M23.6,24.5c0.5,0,0.5-1.3,0-1.3C23.1,23.2,23.1,24.5,23.6,24.5L23.6,24.5z"/>
		</g>
	</g>
	<g>
		<g>
			<path class="st10" d="M25.1,26.2c0.4,0,0.4-1.3,0-1.3C24.7,24.9,24.7,26.2,25.1,26.2L25.1,26.2z"/>
		</g>
	</g>
	<g>
		<g>
			<path class="st10" d="M19.7,25c0.4,0,0.4-1.3,0-1.3C19.3,23.7,19.3,25,19.7,25L19.7,25z"/>
		</g>
	</g>
	<g>
		<g>
			<path class="st10" d="M19.8,22.4c0.6,0,0.6-1.3,0-1.3C19.2,21.2,19.2,22.4,19.8,22.4L19.8,22.4z"/>
		</g>
	</g>
	<g>
		<g>
			<path class="st10" d="M23.7,22.5c0.6,0,0.6-1.3,0-1.3C23,21.2,23,22.5,23.7,22.5L23.7,22.5z"/>
		</g>
	</g>
	<g>
		<g>
			<path class="st10" d="M23.1,23.5c0.5,0,0.5-1.3,0-1.3C22.6,22.3,22.6,23.5,23.1,23.5L23.1,23.5z"/>
		</g>
	</g>
	<g>
		<g>
			<path class="st10" d="M23,21.2c0.6,0,0.6-1.3,0-1.3C22.3,19.9,22.3,21.2,23,21.2L23,21.2z"/>
		</g>
	</g>
	<path class="st2" d="M19.8,34.7v6.1c-1-0.4-2.1-0.8-3.1-1.3v-4.9H19.8z"/>
	<path class="st2" d="M16.7,47.3c1,0.2,2.1,0.4,3.1,0.6v7c0,1.8-1.4,3.3-3.1,3.3V47.3z"/>
	<path class="st24" d="M17.9,34.2h-0.6c-0.2-1.1-0.3-2.3-0.4-3.7c0-1.8,0.1-3.4,0.4-4.7c0.3,0.4,0.7,0.8,1,1.3
		C17.8,28.8,17.7,31.6,17.9,34.2z"/>
	<path class="st4" d="M19.8,40.8v7.1c-0.5-0.1-1.1-0.2-1.6-0.3v-7.5C18.7,40.4,19.3,40.6,19.8,40.8z"/>
	<path class="st5" d="M18.2,40.2v7.5c-0.5-0.1-1-0.2-1.5-0.3v-7.8C17.2,39.8,17.7,40,18.2,40.2z"/>
	<path class="st24" d="M19.1,31c-0.1,1.2-0.1,2.3,0,3.2h-1.2c-0.2-2.6-0.1-5.4,0.4-7.1c0.4,0.5,0.8,1,1.2,1.5
		C19.4,29.3,19.2,30.1,19.1,31z"/>
	<path class="st7" d="M19.3,35.4c-0.3-0.1-0.8-0.2-1.4-0.1c-1.3,0.2-2,1.2-2.1,1.4c-0.3,0-0.6-0.1-0.9-0.2c-0.4-0.1-0.8-0.3-1.1-0.5
		c0.5-0.5,1.3-1.2,2.4-1.5c0.7-0.2,1.2-0.2,2-0.3c0.8-0.1,1.9-0.4,3.3-1c0,0.1,0.1,1-0.4,1.7C20.3,35.6,19.3,35.4,19.3,35.4z"/>
	<path class="st8" d="M20,34.5c0-0.1-1.6-0.5-3.2,0.1c-1.2,0.4-2.1,1.3-2.1,1.4c0,0.1,0.9-0.5,2.5-1C18.9,34.5,20,34.6,20,34.5z"/>
	<path class="st2" d="M26.4,34.3l-1.2,0.3c0.5,1.4,0.9,2.8,1.4,4.3c0.2,0.6,0.4,1.1,0.6,1.7C26.9,38.5,26.7,36.4,26.4,34.3z"/>
	<path class="st24" d="M26.1,33.9c-0.2,0.1-0.5,0.2-0.7,0.3c-0.4-1.2-0.9-2.4-1.3-3.6c0.5-0.1,1.1-0.3,1.6-0.4
		C25.8,31.4,26,32.7,26.1,33.9z"/>
	<polygon class="st25" points="27.1,34.2 24.7,34.9 24.5,34.3 26.9,33.6 	"/>
	<g>
		<g>
			<path class="st10" d="M20.9,24.3c0.3,0,0.3-1.3,0-1.3C20.7,23,20.7,24.3,20.9,24.3L20.9,24.3z"/>
		</g>
	</g>
	<g>
		<g>
			<path class="st10" d="M20.3,25.4c0.3,0,0.3-1.3,0-1.3C20,24.2,20,25.4,20.3,25.4L20.3,25.4z"/>
		</g>
	</g>
	<g>
		<g>
			<path class="st10" d="M23.4,26c0.6,0,0.6-1.3,0-1.3C22.8,24.8,22.8,26,23.4,26L23.4,26z"/>
		</g>
	</g>
	<g>
		<g>
			<path class="st10" d="M22.9,25.2c0.4,0,0.4-1.3,0-1.3C22.4,23.9,22.4,25.2,22.9,25.2L22.9,25.2z"/>
		</g>
	</g>
	<g>
		<g>
			<path class="st10" d="M15.7,25.2c0.3,0,0.3-1.3,0-1.3C15.4,24,15.4,25.2,15.7,25.2L15.7,25.2z"/>
		</g>
	</g>
	<g>
		<g>
			<path class="st10" d="M22.3,22.1c0.5,0,0.5-1.3,0-1.3C21.8,20.9,21.8,22.1,22.3,22.1L22.3,22.1z"/>
		</g>
	</g>
	<g>
		<g>
			<path class="st10" d="M20.5,21.4c0.3,0,0.3-1.3,0-1.3C20.2,20.1,20.2,21.4,20.5,21.4L20.5,21.4z"/>
		</g>
	</g>
	<g>
		<path class="st26" d="M12.5,38.4c0.5,1.7,0.5,3.7,0.2,3.8c-0.3,0.1-0.9-1.6-1.2-2.9c-0.2-1.2-0.3-2.8,0-2.8
			C11.7,36.4,12.2,37.6,12.5,38.4z"/>
		<path class="st26" d="M9.6,38.7c0.4-0.3,1.1,0.2,1.1,0.2c0.6,0.4,0.7,1.1,0.9,1.8c0.1,0.7,0,0.7,0.1,1.5c0.2,1.3,0.5,1.8,0.4,1.9
			c-0.2,0.2-1.2-0.6-1.9-1.7C9.4,41.1,9.1,39.1,9.6,38.7z"/>
		<path class="st13" d="M11.6,38.8c0,1.4,0.3,1.9,0.1,2.1c-0.5,0.4-2-0.3-2.2-1.4c-0.1-0.2,0-0.6,0.2-1.4c0.1-0.7,0.2-1.1,0.4-1.3
			c0.4-0.5,1.3-0.8,1.7-0.5C12,36.7,11.6,37.2,11.6,38.8z"/>
		<g>
			<path class="st27" d="M11.5,40.2c0.2,1.4,0.4,2.6,0.7,3.9C11.3,43.1,11,41.5,11.5,40.2L11.5,40.2z"/>
		</g>
		<g>
			<path class="st27" d="M10.9,40c0.2,1.4,0.4,2.6,0.7,3.9C10.7,42.9,10.4,41.3,10.9,40L10.9,40z"/>
		</g>
		<g>
			<path class="st27" d="M10.2,39.9c0.2,1.2,0.4,2.3,0.8,3.5C10.1,42.5,9.8,41,10.2,39.9L10.2,39.9z"/>
		</g>
		<g>
			<path class="st27" d="M9.8,38.4c0,1.3,0.1,2.3,0.4,3.6C9.3,41,9.2,39.5,9.8,38.4L9.8,38.4z"/>
		</g>
		<path class="st28" d="M9.3,37.6c0.8-0.4,1.6-0.9,2.5-1.3c0.7-2.6,1.5-5.1,2.2-7.7c-0.6-0.2-1.2-0.4-1.9-0.6
			c-0.9-0.3-1.7-0.7-2.4-1.1c-0.2,2.2-0.3,4.5-0.4,6.9C9.3,35.1,9.3,36.3,9.3,37.6z"/>
		<path class="st10" d="M9.5,40.2c0.3-0.4,0.6-0.8,1-1.2c0.6-3.8,1.3-7.6,1.9-11.5c-1.1,0.6-2.2,1.2-3.3,1.8
			C9.2,32.9,9.3,36.5,9.5,40.2z"/>
		<path class="st29" d="M9.6,33.5c0.7,0.6,0.8,1.2,0.8,4.1c0.3-2.9,0.3-3.6,0.7-4.1c-0.4-1-0.4-1.7-0.7-4.4
			C10.4,31.8,10.3,32.4,9.6,33.5z"/>
	</g>
	<path class="st9" d="M28.2,21.3c0.4-0.8,1.4-1.7,2.2-1.4c0.6,0.2,0.9,1.1,1,1.6c0.4,1.2-0.2,1.6,0.2,2.8c0.2,0.7,0.3,0.6,0.8,1.9
		c0.3,0.9,0.5,1.4,0.4,1.7c-0.3,1-2.7,1.4-3.4,0.5c-0.4-0.6,0.1-1.2-0.4-2.4c-0.3-0.8-0.6-0.7-0.9-1.5C28,24.1,27.5,22.6,28.2,21.3z
		"/>
	<g>
		<path class="st10" d="M31.3,17.8c0,0,1.4,4.3,1,6.1c-0.4,0.1-0.8,0.3-1.2,0.5c-1.2,0.8-1.8,1.9-2.1,2.5c-2-2.9-2.6-5.5-2.8-7.1
			c-0.3-2.2,0.1-2.6,0.3-2.8c0.9-0.8,3.2,0.2,4.5,0.7C31.1,17.7,31.2,17.8,31.3,17.8z"/>
		<path class="st11" d="M30.9,18.9c0,0,0.9,2.9,0.7,4.1c-0.2,0.1-0.5,0.2-0.8,0.4c-0.9,0.5-1.3,1.3-1.5,1.7c-1.3-2-1.7-3.8-1.9-4.9
			c-0.2-1.4,0.1-1.8,0.2-1.9c0.6-0.5,2.2,0.1,3.1,0.5C30.8,18.8,30.8,18.9,30.9,18.9z"/>
	</g>
	<g>
		<path class="st26" d="M30.5,38.3c-0.5,1.7-0.5,3.7-0.2,3.8c0.3,0.1,0.9-1.6,1.2-2.9c0.2-1.2,0.3-2.8,0-2.8
			C31.3,36.4,30.8,37.5,30.5,38.3z"/>
		<path class="st26" d="M33.4,38.7c-0.4-0.3-1.1,0.2-1.1,0.2c-0.6,0.4-0.7,1.1-0.9,1.8c-0.1,0.7,0,0.7-0.1,1.5
			c-0.2,1.3-0.5,1.8-0.4,1.9c0.2,0.2,1.2-0.6,1.9-1.7C33.6,41,33.9,39.1,33.4,38.7z"/>
		<path class="st13" d="M31.4,38.7c0,1.4-0.3,1.9-0.1,2.1c0.5,0.4,2-0.3,2.2-1.4c0.1-0.2,0-0.6-0.2-1.4c-0.1-0.7-0.2-1.1-0.4-1.3
			c-0.4-0.5-1.3-0.8-1.7-0.5C31,36.6,31.4,37.2,31.4,38.7z"/>
		<g>
			<path class="st27" d="M31.5,40.1c0.5,1.3,0.2,2.9-0.7,3.9C31.1,42.7,31.4,41.5,31.5,40.1L31.5,40.1z"/>
		</g>
		<g>
			<path class="st27" d="M32.1,40c0.5,1.3,0.2,2.9-0.7,3.9C31.8,42.6,32,41.4,32.1,40L32.1,40z"/>
		</g>
		<g>
			<path class="st27" d="M32.7,39.8c0.5,1.2,0.2,2.6-0.8,3.5C32.4,42.1,32.6,41.1,32.7,39.8L32.7,39.8z"/>
		</g>
		<g>
			<path class="st27" d="M33.2,38.3c0.6,1.1,0.4,2.6-0.4,3.6C33.1,40.6,33.2,39.6,33.2,38.3L33.2,38.3z"/>
		</g>
		<path class="st28" d="M33.7,37.5c-0.8-0.4-1.6-0.9-2.5-1.3c-0.7-2.6-1.5-5.1-2.2-7.7c0.6-0.2,1.2-0.4,1.9-0.6
			c0.9-0.3,1.7-0.7,2.4-1.1c0.2,2.2,0.3,4.5,0.4,6.9C33.7,35,33.7,36.3,33.7,37.5z"/>
		<path class="st10" d="M33.5,40.1c-0.3-0.4-0.6-0.8-1-1.2c-0.6-3.8-1.3-7.6-1.9-11.5c1.1,0.6,2.2,1.2,3.3,1.8
			C33.8,32.9,33.7,36.5,33.5,40.1z"/>
		<path class="st29" d="M33.4,33.4c-0.7,0.6-0.8,1.2-0.8,4.1c-0.3-2.9-0.3-3.6-0.7-4.1c0.4-1,0.4-1.7,0.7-4.4
			C32.6,31.8,32.7,32.4,33.4,33.4z"/>
	</g>
	<path class="st9" d="M16.4,13.1c-0.3,0.4,2,4.3,5.1,4.2c3.2-0.2,5.1-4.5,4.8-4.9c-0.3-0.3-1.9,2.3-4.8,2.5
		C18.6,15,16.7,12.7,16.4,13.1z"/>
	<path class="st30" d="M16.7,15c-0.3,0.4,2,4.3,5.1,4.2c3.2-0.2,5.1-4.5,4.8-4.9c-0.3-0.3-1.9,2.3-4.8,2.5
		C18.9,17,16.9,14.7,16.7,15z"/>
	<g>
		<g>
			<path class="st31" d="M15.1,22.4c-0.3-0.8-1.1-2.3-2.6-3.5c-0.8-0.6-1.5-1-2.1-1.2c0.7-1.5,1.4-2.9,2.1-4.4c1.5-0.5,3-1,4.4-1.5
				c1,0.9,2,1.7,3,2.6c-0.2,1.2-0.4,2.3-0.5,3.5C17.9,19.5,16.5,21,15.1,22.4z"/>
			<path class="st10" d="M15,20.2c-0.6-0.7-1.3-1.5-2.3-2.3c-0.7-0.6-1.4-1-2-1.3c0.5-1.1,1.1-2.3,1.6-3.4c1.2-0.4,2.3-0.8,3.5-1.2
				c0.8,0.7,1.5,1.4,2.3,2c-0.1,0.9-0.3,1.8-0.4,2.7C16.7,17.9,15.8,19.1,15,20.2z"/>
		</g>
		<path class="st11" d="M11.6,16c0.4-0.8,0.7-1.5,1.1-2.3c0.9-0.3,1.7-0.5,2.6-0.8c0.5,0.5,1,1,1.5,1.5c-0.1,0.6-0.2,1.3-0.3,1.9
			c-0.6,0.9-1.2,1.7-1.8,2.6C13.7,17.9,12.7,17,11.6,16z"/>
		<path class="st32" d="M15.8,15.4c-1.1,0.5-1.3,0.7-1.7,1.5c-0.1-0.8-0.4-1-1.7-1.5c1.3,0,1.6-0.1,1.7-1.5
			C14.5,15.2,14.7,15.4,15.8,15.4z"/>
		<ellipse transform="matrix(0.6852 -0.7284 0.7284 0.6852 -8.7548 18.5069)" class="st33" cx="17" cy="19.4" rx="2.8" ry="0.3"/>
	</g>
	<g>
		<polygon class="st11" points="21,14.5 21.3,15.7 20.4,16.6 19.2,16.2 19,15 19.9,14.1 		"/>
		<path class="st29" d="M20.8,15.3c-0.5,0.2-0.6,0.3-0.8,0.7c-0.1-0.4-0.2-0.5-0.8-0.7c0.6,0,0.7-0.1,0.8-0.7
			C20.2,15.3,20.3,15.3,20.8,15.3z"/>
	</g>
	<g>
		<g>
			<path class="st31" d="M27.9,22.4c0.3-0.8,1.1-2.3,2.6-3.5c0.8-0.6,1.5-1,2.1-1.2c-0.7-1.5-1.4-2.9-2.1-4.4c-1.5-0.5-3-1-4.4-1.5
				c-1,0.9-2,1.7-3,2.6c0.2,1.2,0.4,2.3,0.5,3.5C25.1,19.4,26.5,20.9,27.9,22.4z"/>
			<path class="st10" d="M28,20.2c0.6-0.7,1.3-1.5,2.3-2.3c0.7-0.6,1.4-1,2-1.3c-0.5-1.1-1.1-2.3-1.6-3.4c-1.2-0.4-2.3-0.8-3.5-1.2
				c-0.8,0.7-1.5,1.4-2.3,2c0.1,0.9,0.3,1.8,0.4,2.7C26.3,17.9,27.2,19,28,20.2z"/>
		</g>
		<path class="st11" d="M31.4,16c-0.4-0.8-0.7-1.5-1.1-2.3c-0.9-0.3-1.7-0.5-2.6-0.8c-0.5,0.5-1,1-1.5,1.5c0.1,0.6,0.2,1.3,0.3,1.9
			c0.6,0.9,1.2,1.7,1.8,2.6C29.3,17.9,30.3,16.9,31.4,16z"/>
		<path class="st32" d="M27.2,15.3c1.1,0.5,1.3,0.7,1.7,1.5c0.1-0.8,0.4-1,1.7-1.5c-1.3,0-1.6-0.1-1.7-1.5
			C28.5,15.2,28.3,15.4,27.2,15.3z"/>
		<ellipse transform="matrix(0.7284 -0.6852 0.6852 0.7284 -6.199 23.0389)" class="st33" cx="26" cy="19.3" rx="0.3" ry="2.8"/>
	</g>
	<g>
		<polygon class="st11" points="24,14.8 23.9,16.1 22.7,16.5 21.8,15.7 22,14.5 23.1,14 		"/>
		<path class="st29" d="M23.6,15.5c-0.6,0-0.7,0-1,0.3c0.1-0.4,0-0.5-0.5-1c0.6,0.3,0.7,0.2,1-0.3C23,15.2,23.1,15.3,23.6,15.5z"/>
	</g>
	<ellipse class="st5" cx="16.4" cy="66" rx="0.4" ry="0.5"/>
	<path class="st34" d="M13.8,73.4c0.9,0,1.9,0.1,2.8,0.1c-0.1-1.3-0.1-2.8,0.1-4.6c0.1-1.2,0.4-2.2,0.6-3.2c-0.6,0.1-1.3,0.3-2,0.4
		c-0.6,0.1-1.1,0.1-1.6,0.2c0,0.8-0.1,1.7-0.1,2.5C13.7,70.4,13.7,72,13.8,73.4z"/>
	<path class="st28" d="M13.3,75.1c1.1,0.1,2.1,0.2,3.2,0.3c0.7-3.2,1.2-5,1.5-6.1c0.1-0.3,0.2-0.9,0.4-1.8c0.2-1.1,0.3-2.1,0.3-2.7
		c-1,0.4-1.8,0.5-2.4,0.5c-0.5,0-1.3,0-2.2-0.3c-0.5-0.2-0.9-0.4-1.2-0.6c0,1.7,0.1,3.5,0.2,5.3C13.1,71.5,13.2,73.3,13.3,75.1z"/>
	<path class="st4" d="M16.3,79.8c-0.4,0.4-0.8,0.2-3.3,0.1c-2.3-0.1-2.7,0.1-2.9-0.2c-0.7-1.1,2-5.2,4.3-4.8
		c0.7,0.1,1.1,0.6,1.3,0.9C16.8,76.9,17.1,79,16.3,79.8z"/>
	<path class="st2" d="M15.9,79.8c-0.3,0.1-1.2,0.1-2.9,0c-1.6-0.1-2.4-0.1-2.6-0.2c-0.1,0-0.2-0.1-0.2-0.2c-0.2-0.6,1.5-1.8,1.8-2
		c0.6-0.4,1-0.7,1.5-0.6c0.5,0,0.8,0.3,1.3,0.7c0.6,0.5,1.8,1.6,1.5,2.2C16.1,79.7,16,79.8,15.9,79.8z"/>
	<path class="st2" d="M16.6,79.4c-1-2.7-2-3.6-2.8-3.7c-1.4-0.2-2.9,1.8-3,1.6c-0.1-0.1,0.5-0.8,0.9-1.3c0.6-0.6,1.2-1,1.6-1.3
		c0.3-0.1,0.8-0.1,1.3-0.1c0.8,0,1.5,0.2,1.9,0.4c0.1,0.2,0.1,0.5,0.3,0.9c0.3,0.8,0.3,0.8,0.3,1c0,0.4-0.1,0.7-0.2,1.5
		C16.8,78.9,16.7,79.2,16.6,79.4z"/>
	<path class="st10" d="M13.8,70.7c0.2,1.6,0.3,2.3,0.2,3.1c0,0.2,0,0.4-0.1,0.7c-0.3,0.9-1.1,1.4-1.1,1.4c0,0,0.7-0.8,1.7-1
		c0.6-0.1,0.8,0.1,1.1,0c0.8-0.3,0.7-2,1-4.1c0.4-3.4,1.6-5.3,0.9-5.8c-0.3-0.2-0.5,0.1-1.4,0c-1.2-0.2-1.5-1.1-2-1
		C13.3,64.3,13.5,68.3,13.8,70.7z"/>
	<ellipse class="st5" cx="15.4" cy="72.6" rx="0.4" ry="0.5"/>
	<path class="st29" d="M15.2,68.5c-0.7,0.5-0.8,1-0.7,3.7c-0.3-2.7-0.4-3.2-0.6-3.7c0.2-0.8,0.3-1.3,0.6-3.8
		C14.4,67.3,14.5,67.8,15.2,68.5z"/>
	<path class="st34" d="M29.2,73.2c-0.9,0-1.9,0.1-2.8,0.1c0.1-1.3,0.1-2.8-0.1-4.6c-0.1-1.2-0.4-2.2-0.6-3.2c0.6,0.1,1.3,0.3,2,0.4
		c0.6,0.1,1.1,0.1,1.6,0.2c0,0.8,0.1,1.7,0.1,2.5C29.3,70.3,29.3,71.8,29.2,73.2z"/>
	<path class="st28" d="M29.7,74.9c-1.1,0.1-2.1,0.2-3.2,0.3c-0.7-3.2-1.2-5-1.5-6.1c-0.1-0.3-0.2-0.9-0.4-1.8
		c-0.2-1.1-0.3-2.1-0.3-2.7c1,0.4,1.8,0.5,2.4,0.5c0.5,0,1.3,0,2.2-0.3c0.5-0.2,0.9-0.4,1.2-0.6c0,1.7-0.1,3.5-0.2,5.3
		C29.9,71.3,29.8,73.1,29.7,74.9z"/>
	<path class="st4" d="M26.6,79.6c0.4,0.4,0.8,0.2,3.3,0.1c2.3-0.1,2.7,0.1,2.9-0.2c0.7-1.1-2-5.2-4.3-4.8c-0.7,0.1-1.1,0.6-1.3,0.9
		C26.2,76.7,25.9,78.8,26.6,79.6z"/>
	<path class="st2" d="M27.1,79.6c0.3,0.1,1.2,0.1,2.9,0c1.6-0.1,2.4-0.1,2.6-0.2c0.1,0,0.2-0.1,0.2-0.2c0.2-0.6-1.5-1.8-1.8-2
		c-0.6-0.4-1-0.7-1.5-0.6c-0.5,0-0.8,0.3-1.3,0.7c-0.6,0.5-1.8,1.6-1.5,2.2C26.8,79.5,27,79.6,27.1,79.6z"/>
	<path class="st2" d="M26.4,79.2c1-2.7,2-3.6,2.8-3.7c1.4-0.2,2.9,1.8,3,1.6c0.1-0.1-0.5-0.8-0.9-1.3c-0.6-0.6-1.2-1-1.6-1.3
		c-0.3-0.1-0.8-0.1-1.3-0.1c-0.8,0-1.5,0.2-1.9,0.4c-0.1,0.2-0.1,0.5-0.3,0.9c-0.3,0.8-0.3,0.8-0.3,1c0,0.4,0.1,0.7,0.2,1.5
		C26.2,78.7,26.3,79,26.4,79.2z"/>
	<path class="st10" d="M29.2,70.6c-0.2,1.6-0.3,2.3-0.2,3.1c0,0.2,0,0.4,0.1,0.7c0.3,0.9,1.1,1.4,1.1,1.4c0,0-0.7-0.8-1.7-1
		c-0.6-0.1-0.8,0.1-1.1,0c-0.8-0.3-0.7-2-1-4.1c-0.4-3.4-1.6-5.3-0.9-5.8c0.3-0.2,0.5,0.1,1.4,0c1.2-0.2,1.5-1.1,2-1
		C29.7,64.1,29.4,68.1,29.2,70.6z"/>
	<ellipse class="st5" cx="27.6" cy="72.4" rx="0.4" ry="0.5"/>
	<path class="st29" d="M27.8,68.3c0.7,0.5,0.8,1,0.7,3.7c0.3-2.7,0.4-3.2,0.6-3.7c-0.2-0.8-0.3-1.3-0.6-3.8
		C28.6,67.1,28.5,67.6,27.8,68.3z"/>
	<path class="st35" d="M17.9,43.7c-0.4,0.4-0.4,0.9-0.4,3.4c-0.1-2.5-0.2-3-0.3-3.4c0.2-0.9,0.2-1.4,0.3-3.7
		C17.5,42.3,17.5,42.8,17.9,43.7z"/>
	<path class="st35" d="M26.5,36.6c-0.2,0.2-0.1,0.5,0.1,1.8c-0.3-1.3-0.4-1.5-0.5-1.7c0-0.5,0-0.7-0.2-1.9
		C26.2,35.9,26.3,36.2,26.5,36.6z"/>
	<path class="st16" d="M17.7,7.9c0.1,0,0.3-0.2,0.5-0.4c1-1.4,1.6-3,2.5-3.9c1.3-1.2,2.9-0.5,3-1.1c0.1-0.6-1.6-1.8-3.2-1.4
		c-0.8,0.2-1.4,0.7-1.6,0.9c-1.1,1.2-1.2,2.9-1.2,3c0,0.8,0.2,1.3,0,2.2C17.8,7.5,17.7,7.8,17.7,7.9z"/>
	<path class="st36" d="M18.1,6.8c-0.1,0,0.1-5.1,2.6-5.7c1.2-0.3,2.4,0.6,2.4,0.6c0,0.1-1-0.5-1.9-0.3C18.9,1.9,18.2,6.8,18.1,6.8z"
		/>
	<path class="st36" d="M20.4,3.6C20,4.2,20,5,20.1,5c0.1,0,0.3-0.9,1-1.7c1-1.1,2.5-1,2.4-1C23.5,2.3,21.3,2.2,20.4,3.6z"/>
	<path class="st16" d="M17.9,4.7c-0.3,1.2-0.4,1.6-0.3,1.6c0.1,0,0.5-0.7,0.6-1.5c0.2-0.8,0.1-1.5,0.1-1.5
		C18.2,3.2,18.2,3.6,17.9,4.7z"/>
	<path class="st16" d="M19,5.3c0,0.1-0.1,0.9-0.1,0.9c0.1,0,0.2-0.5,0.3-1c0.2-0.9,0.3-2,0.3-2C19.4,3.3,19.1,4.4,19,5.3z"/>
	<path class="st16" d="M18.7,5.7c-0.1,0.6-0.1,1.6,0,1.6c0.1,0,0.2-0.6,0.3-0.9c0.7-2.6,2.4-4.4,2.2-4.5C21,1.8,19.1,3.4,18.7,5.7z"
		/>
</g>
</svg>
