<?xml version="1.0" encoding="utf-8"?>
<!-- Generator: Adobe Illustrator 26.5.0, SVG Export Plug-In . SVG Version: 6.00 Build 0)  -->
<svg version="1.1" id="form" xmlns="http://www.w3.org/2000/svg" xmlns:xlink="http://www.w3.org/1999/xlink" x="0px" y="0px"
	 viewBox="0 0 40 80" style="enable-background:new 0 0 40 80;" xml:space="preserve">
<style type="text/css">
	.st0{fill:#3F1111;}
	.st1{fill:#591717;}
	.st2{fill:#8A969E;}
	.st3{fill:#495057;}
	.st4{fill:#6C757D;stroke:#5E666B;stroke-width:0.3906;stroke-miterlimit:10;}
	.st5{fill:#AA8F6D;}
	.st6{fill:#5E666B;}
	.st7{fill:#8C5834;}
	.st8{fill:#7C868E;}
	.st9{fill:#7C868E;stroke:#5E666B;stroke-width:0.3906;stroke-miterlimit:10;}
	.st10{fill:#494F54;stroke:#5E666B;stroke-width:0.3906;stroke-miterlimit:10;}
	.st11{fill:#AA7202;stroke:#AA7202;stroke-width:0.3906;stroke-miterlimit:10;}
	.st12{fill:#6D462C;}
	.st13{fill:#7C4F31;}
	.st14{fill:#845535;}
	.st15{fill:#935B35;}
	.st16{fill:#9B623B;}
	.st17{fill:#AA6B3F;}
	.st18{fill:#96603C;}
	.st19{fill:#9E6138;}
	.st20{fill:#AA8D6B;}
	.st21{fill:#97A3AA;}
	.st22{fill:#7C868E;stroke:#5E666B;stroke-width:0.4954;stroke-miterlimit:10;}
	.st23{fill:#AA7202;}
	.st24{fill:#5B2020;}
	.st25{fill:#701D1D;}
	.st26{fill:#6C757D;stroke:#5E666B;stroke-width:0.3759;stroke-miterlimit:10;}
	.st27{fill:#C78800;}
	.st28{fill:#7C868E;stroke:#5E666B;stroke-width:0.4101;stroke-miterlimit:10;}
	.st29{fill:#42484C;stroke:#5E666B;stroke-width:0.3906;stroke-miterlimit:10;}
	.st30{fill:none;stroke:#5E666B;stroke-width:0.4101;stroke-miterlimit:10;}
	.st31{fill:none;stroke:#5E666B;stroke-width:0.4433;stroke-miterlimit:10;}
	.st32{fill:#FAB811;}
	.st33{fill:#1D1D1B;}
	.st34{fill:none;stroke:#641B1B;stroke-width:2.934520e-02;stroke-miterlimit:10;}
	.st35{fill:none;}
	.st36{fill:#641B1B;}
	.st37{fill:none;stroke:#641B1B;stroke-width:2.897581e-02;stroke-miterlimit:10;}
	.st38{fill:#7C868E;stroke:#737C82;stroke-width:0.3906;stroke-miterlimit:10;}
	.st39{fill:#8A969E;stroke:#737C82;stroke-width:0.3906;stroke-miterlimit:10;}
	.st40{fill:#495057;stroke:#5E666B;stroke-width:0.3906;stroke-miterlimit:10;}
	.st41{fill:#6C757D;}
	.st42{fill:none;stroke:#5E666B;stroke-width:0.3906;stroke-miterlimit:10;}
	.st43{fill:#7C868E;stroke:#5E666B;stroke-width:0.3363;stroke-miterlimit:10;}
	.st44{fill:#7C868E;stroke:#5E666B;stroke-width:0.3369;stroke-miterlimit:10;}
	.st45{fill:#543829;}
	.st46{fill:#4F1515;}
	.st47{fill:#6F1D1B;stroke:#601818;stroke-width:0.1632;stroke-miterlimit:10;}
	.st48{fill:#3F2920;}
</style>
<g>
	<path class="st0" d="M1.8,54.8c2,2,5.9,5.6,11.8,7.5c7.1,2.3,13.1,0.9,15.7,0.1c1.5-8.3,2.5-19.6,0.9-32.5c-0.6-5-1.5-9.5-2.5-13.5
		c-2.9-0.1-5.8-0.2-8.6-0.3C13.4,28.9,7.6,41.9,1.8,54.8z"/>
	<path class="st1" d="M1.4,55.4c0.6,1.5,1.3,3,1.9,4.5C5,57.5,6.6,55,8.2,52.3c7.2-12.1,12-24.1,15.2-34.8c-1.4-0.5-2.9-1-4.3-1.5
		L1.4,55.4z"/>
	<path class="st2" d="M30.8,78.3c0.6,0.6,1.1,0.2,2.6,0.2c1.5,0,2,0.1,2.2-0.1c0,0,0,0,0.1-0.1c0.4-0.5,0-1.6-0.3-2.3
		c-0.3-0.7-0.4-1-0.7-1.3c-0.7-0.8-2.3-1.3-3.4-0.4c-0.9,0.8-1.2,2.2-0.8,3.2C30.5,77.8,30.6,78.1,30.8,78.3L30.8,78.3z"/>
	<path class="st3" d="M31.1,78.4c0.2,0.1,0.9,0.1,2.3,0.1c1.2,0,1.9,0,2.1-0.1c0.1,0,0.1-0.1,0.2-0.2c0.2-0.5-1.1-1.6-1.4-1.7
		c-0.5-0.4-0.7-0.6-1.1-0.6c-0.4,0-0.6,0.2-1,0.5c-0.5,0.4-1.4,1.3-1.2,1.8C30.9,78.3,31,78.3,31.1,78.4z"/>
	<path class="st4" d="M25.4,49.9c0.9,0.6,1.8,1.2,2.7,1.8c0.4-3.5,0.7-7.5,0.5-12c-0.1-1.8-0.2-3.4-0.4-5c-1.5-0.1-3-0.1-4.5-0.2
		c0.3,3,0.6,6,1,9.1C24.9,45.7,25.2,47.8,25.4,49.9z"/>
	<path class="st5" d="M25.8,16.3c-0.6-0.8-0.8-1.9-0.4-2.9h-3.6c0.4,1,0.3,2.1-0.4,2.9c-0.6,0.7-1.5,0.9-1.7,0.9
		c0.2,0.3,0.6,1.2,1.6,1.7c1,0.6,2,0.5,2.3,0.4c0.3,0.1,1.3,0.2,2.3-0.4c0.9-0.5,1.4-1.4,1.6-1.7C27.3,17.2,26.5,17,25.8,16.3z"/>
	<path class="st6" d="M17.7,24.3h11.8c-0.7-2.4-1.3-4.8-2-7.2h-7.7C19.1,19.6,18.4,21.9,17.7,24.3z"/>
	<path class="st7" d="M24.4,15.5c0-0.1-0.1-0.3-0.2-0.3c-0.2,0-0.3,0.3-0.5,0.7c-0.6,1.1-1.1,1.5-1,1.6
		C22.8,17.6,24.5,16.4,24.4,15.5z"/>
	<ellipse transform="matrix(0.5297 -0.8482 0.8482 0.5297 -14.2338 35.5586)" class="st8" cx="24.9" cy="30.6" rx="0.1" ry="1"/>
	<path class="st9" d="M29.4,23.7c-0.4,2.7-0.9,5.4-1.3,8c-1.5,0-2.9,0.1-4.4,0.1V21.2C26.8,21.2,28.9,23.2,29.4,23.7z"/>
	<path class="st2" d="M27.9,27.2c0.1-0.6,0.3-2.1,0.5-2.1c0.1,0,0.1,1.8-0.3,3.6c0,0.1-0.3,1.1-0.4,1.1
		C27.5,29.9,27.7,28.3,27.9,27.2z"/>
	<path class="st4" d="M16.9,29.7l-4-1.4c0.2-1.2,0.5-2.5,0.8-3.8c0.4-1.6,0.9-3.1,1.3-4.5c1.2,0.4,2.5,0.8,3.7,1.1
		c-0.2,1.4-0.4,3.1-0.8,4.8C17.6,27.3,17.2,28.6,16.9,29.7z"/>
	<path class="st10" d="M11.2,32.6c0.4,1.4,0.8,2.9,1.2,4.3c1.1-1.1,2.3-2.7,3.3-4.7c0.5-0.9,0.8-1.7,1.1-2.5l-4-1.4
		C12.3,29.8,11.8,31.2,11.2,32.6z"/>
	<path class="st11" d="M9.6,35.5c0.7,0.9,1.4,1.7,2.1,2.6c1.6-1.9,3.2-3.7,4.9-5.6c-0.7-0.1-1.6-0.3-2.5-0.7c-1-0.4-1.8-0.8-2.5-1.2
		C10.9,32.2,10.2,33.8,9.6,35.5z"/>
	<path class="st8" d="M14.3,27.3c-0.5-1.5,0.5-3.1,0.4-3.1c-0.1-0.1-1.7,2.3-1,3.5c0.3,0.5,0.9,0.7,1,0.6
		C14.9,28.2,14.5,27.8,14.3,27.3z"/>
	<path class="st4" d="M23.6,21.2v10.6c-1.6,0-3.2,0.1-4.7,0.1c-0.4-2.7-0.8-5.5-1.2-8.2C18.2,23.2,20.3,21.1,23.6,21.2
		C23.6,21.2,23.6,21.2,23.6,21.2z"/>
	<path class="st8" d="M18.3,24.1c0,0,0.2-0.1,1.8-1c0.6-0.3,1-0.5,1-0.6c0-0.1-0.5,0-0.8,0.1C19.1,23,18.2,24,18.3,24.1z"/>
	<ellipse class="st8" cx="23.1" cy="27.3" rx="0.1" ry="1.5"/>
	<path class="st10" d="M20.8,15.9c-0.1,1.7-0.1,3.5-0.2,5.2c-0.9,0.8-1.8,1.6-2.8,2.4c-1.4-0.1-2.8-0.1-4.3-0.2
		c0.2-1.3,0.4-2.7,0.6-4c0.9-0.8,1.9-1.7,2.8-2.5C18.3,16.5,19.6,16.2,20.8,15.9z"/>
	<path class="st11" d="M19.8,16.1c-0.1,1.4-0.1,2.8-0.2,4.1c-0.7,0.6-1.5,1.3-2.2,1.9c-1.1,0-2.3-0.1-3.4-0.1
		c0.2-1.1,0.3-2.1,0.5-3.2c0.7-0.7,1.5-1.3,2.2-2C17.7,16.6,18.8,16.3,19.8,16.1z"/>
	<path class="st9" d="M19.4,15.5c-0.1,1.4-0.1,2.8-0.2,4.1c-0.7,0.6-1.5,1.3-2.2,1.9c-1.1,0-2.3-0.1-3.4-0.1
		c0.2-1.1,0.3-2.1,0.5-3.2c0.7-0.7,1.5-1.3,2.2-2C17.4,16,18.4,15.8,19.4,15.5z"/>
	<path class="st2" d="M16.9,16.6c0-0.1-0.8,0.5-1.3,1c-0.5,0.5-1.1,1.1-1,1.1c0,0.1,0.6-0.4,0.9-0.6C16.2,17.5,16.9,16.7,16.9,16.6z
		"/>
	<path class="st2" d="M16.9,21c-1.2,0-2.5,0-2.5-0.1"/>
	<path class="st9" d="M29.4,29.9l4.2-0.4c0.1-1.2,0.1-2.7-0.1-4.3c-0.1-0.8-0.2-1.5-0.4-2.1c-1.4,0.1-2.8,0.3-4.2,0.4
		c-0.1,0.7-0.2,1.7-0.2,2.8C28.8,27.8,29.1,29.1,29.4,29.9z"/>
	<path class="st10" d="M31.3,38.8c0.7-0.3,1.5-0.5,2.2-0.8c0-2.8,0.1-5.7,0.1-8.5l-4.2,0.4C30,32.9,30.6,35.8,31.3,38.8z"/>
	<path class="st11" d="M33.5,38.9c-0.8,0.1-1.7,0.2-2.5,0.3c-0.5-2.2-1.1-4.4-1.6-6.5c0.6,0.1,1.3,0.2,2,0.2c1,0,1.8-0.1,2.5-0.2
		C33.8,34.7,33.6,36.8,33.5,38.9z"/>
	<path class="st10" d="M26.5,16.1c0.1,1.7,0.1,3.5,0.2,5.2c0.9,0.8,1.8,1.6,2.8,2.4c1.4-0.1,2.8-0.1,4.3-0.2c-0.2-1.3-0.4-2.7-0.6-4
		c-0.9-0.8-1.9-1.7-2.8-2.5C29.1,16.7,27.8,16.4,26.5,16.1z"/>
	<path class="st11" d="M27.6,16.3c0.1,1.4,0.1,2.8,0.2,4.1c0.7,0.6,1.5,1.3,2.2,1.9c1.1,0,2.3-0.1,3.4-0.1c-0.2-1.1-0.3-2.1-0.5-3.2
		c-0.7-0.7-1.5-1.3-2.2-2C29.6,16.8,28.6,16.5,27.6,16.3z"/>
	<path class="st9" d="M28,15.7c0.1,1.4,0.1,2.8,0.2,4.1c0.7,0.6,1.5,1.3,2.2,1.9c1.1,0,2.3-0.1,3.4-0.1c-0.2-1.1-0.3-2.1-0.5-3.2
		c-0.7-0.7-1.5-1.3-2.2-2C30,16.2,29,16,28,15.7z"/>
	<path class="st2" d="M30.2,16.8c0-0.1,0.8,0.5,1.3,1c0.5,0.5,1.1,1.1,1,1.1c0,0.1-0.6-0.4-0.9-0.6C30.8,17.6,30.1,16.8,30.2,16.8z"
		/>
	<path class="st2" d="M30.7,21c0,0,0.6,0.1,1.1,0.1c0.6,0,1.2,0,1.2-0.1c0,0-0.7-0.1-1.2-0.1C31.3,20.9,30.7,21,30.7,21z"/>
	<g>
		<path class="st12" d="M23.4,24.2c0.3-0.2-0.2-0.8-0.1-2.3c0.1-2.7,1.5-3.4,1.4-5.7c0-0.9-0.3-2.5-1.1-2.7
			c-1.1-0.4-3.6,2.4-3.5,5.4C20.1,22,22.9,24.5,23.4,24.2z"/>
		<path class="st13" d="M26.2,21.6c-0.9,1.5-2.7,2.4-3.3,1.9c-0.8-0.8,2.1-4.1,1.2-8c-0.2-0.8-0.5-1.5-0.3-1.7
			c0.3-0.3,1.8,0.8,2.5,2.4C26.4,16.2,27.8,19.2,26.2,21.6z"/>
		<path class="st14" d="M25.9,15.8c0.7,2.9-1.3,6.6-3.1,6.5c-1.3-0.1-2.6-2.3-2.6-4.3c0-2.5,1.8-5.1,3.5-4.9
			C24.8,13.3,25.6,14.8,25.9,15.8z"/>
		<path class="st7" d="M27.2,16.4c0.2,0.8,0.4,2.3-0.3,2.8c-0.9,0.7-3.5-0.9-3.7-2.7c-0.1-0.7,0.3-1.3,0.1-2.7
			c-0.1-0.8-0.3-1-0.1-1.2C23.7,12.2,26.6,13.7,27.2,16.4z"/>
		<path class="st15" d="M24.9,15.4c0.4,1.6-0.4,2.9-0.6,3.1c-1.1,1.7-3.4,2.4-4.2,1.6c-0.5-0.5-0.3-1.5-0.2-2.1
			c0.4-2.4,2.4-4.8,3.7-4.4C24.5,14,24.8,15.2,24.9,15.4z"/>
		<path class="st16" d="M21.2,14.5c-0.9,1-1.7,2.7-1.3,3.2c0.4,0.5,1.6-0.2,1.7-0.3c1.9-1.1,2.9-3.8,2.4-4.4
			C23.6,12.6,22.1,13.5,21.2,14.5z"/>
		<path class="st17" d="M19.6,16.4c0.2,0.4,2,0.1,3.1-1.2c0.6-0.7,0.6-1.4,1-1.4c0.4,0,0.5,0.8,1.1,1.5c1,1.2,2.7,1.4,2.9,1.1
			c0.1-0.1-0.1-0.4-0.5-0.8c-1.7-2.1-2.5-3.2-3.6-3.1c-0.8,0-1.7,1.1-3.6,3.4C19.7,16,19.5,16.2,19.6,16.4z"/>
		<path class="st16" d="M21.3,20.1c0.1,0.2,1.1,0,1.9-0.7c1.1-0.9,1.4-2.5,1.2-2.6c-0.1-0.1-0.3,0.3-1.2,1.3
			C21.9,19.5,21.2,19.9,21.3,20.1z"/>
		<path class="st18" d="M26.9,18.1c0.2-0.5-1.2-2-1.4-1.9c-0.1,0.1,0.1,0.3,0.4,1.3c0.1,0.4,0.1,0.6,0.3,0.8
			C26.3,18.5,26.8,18.4,26.9,18.1z"/>
		<path class="st15" d="M24.6,20.3c-0.1-0.1-0.4,0.7-1.1,0.9c-0.8,0.3-1.6-0.3-1.6-0.2c0,0.1,0.8,1,1.6,0.7
			C24.3,21.5,24.6,20.3,24.6,20.3z"/>
		<path class="st14" d="M26.6,19.8c0,0-0.4,1.3-1.6,1.9c-0.4,0.2-0.9,0.3-0.9,0.5c0,0.1,0.2,0.3,0.4,0.3
			C25.6,22.6,26.7,19.8,26.6,19.8z"/>
		<path class="st17" d="M21.1,17.1c0-0.2-0.5-0.3-0.7-0.1c0,0-0.2,0.1-0.2,0.3c0,0.1,0.1,0.2,0.2,0.3C20.7,17.6,21.2,17.2,21.1,17.1
			z"/>
		<path class="st13" d="M24.2,19.3c0.1-0.2,0.1-0.4,0.2-0.4c0.1,0,0.1,0.2,0.3,0.4c0.2,0.2,0.6,0,0.6,0.1c0.1,0.1-1.3,1.1-1.5,0.9
			C23.7,20.1,23.9,20,24.2,19.3z"/>
	</g>
	<g>
		<path class="st19" d="M26.2,9.2c0.1,0.3,0.8,2.2-0.2,4c-0.1,0.3-1,1.8-2.3,1.8c-1.2,0-2-1.3-2.2-1.6c-0.8-1.4-0.8-3.1-0.2-4.5
			c0.1-0.3,1-2.3,2.4-2.3C25.2,6.7,26.1,8.9,26.2,9.2z"/>
		<path class="st3" d="M26.5,10.7c-0.9-0.6-1.9-1.3-2.8-1.9V6.2C24.8,6.4,25.9,6.7,27,7C26.8,8.2,26.7,9.5,26.5,10.7z"/>
		<path class="st3" d="M20.8,10.7c0.9-0.6,1.9-1.3,2.8-1.9V6.2c-1.1,0.3-2.2,0.5-3.3,0.8C20.5,8.2,20.7,9.5,20.8,10.7z"/>
		<ellipse class="st2" cx="23.6" cy="9" rx="2.8" ry="2.4"/>
		<path class="st9" d="M22.9,5.8l0.4,3.1H24l0.4-3.1c-0.2-0.1-0.4-0.1-0.7-0.1C23.3,5.7,23.1,5.7,22.9,5.8z"/>
		<path class="st3" d="M22.2,15h-1.4v-5c0.9,0,1.8,0,2.7,0C23.1,11.7,22.7,13.4,22.2,15z"/>
		<path class="st3" d="M25.2,15h1.4v-5c-0.9,0-1.8,0-2.7,0C24.3,11.6,24.7,13.3,25.2,15z"/>
		<path class="st20" d="M25.5,10.4c-0.5,0.1-1,0.2-1.6,0.2c0-0.2,0-0.4,0-0.6h1.6C25.5,10.2,25.5,10.3,25.5,10.4z"/>
		<path class="st20" d="M21.7,10.4c0.5,0.1,1,0.2,1.6,0.2c0-0.2,0-0.4,0-0.6h-1.6C21.7,10.2,21.7,10.3,21.7,10.4z"/>
		<rect x="20.8" y="8.8" class="st4" width="5.7" height="1.2"/>
		<path class="st21" d="M21.3,8.2c0,0,0.1,0,1.1-0.6c0.1,0,0.2-0.1,0.2-0.3c0-0.1,0-0.3-0.1-0.3C22.3,6.8,21.2,8.1,21.3,8.2z"/>
		<path class="st2" d="M23.8,6.7c0,0.7-0.1,1.5-0.2,1.5c-0.1,0-0.1-0.8-0.1-1.5c0-0.2,0.1-0.7,0.1-0.7C23.7,6,23.8,6.4,23.8,6.7z"/>
		<polygon class="st4" points="20.7,10.9 23.3,11.1 22.9,15.5 20.3,15.3 		"/>
		<polygon class="st9" points="27.1,15.2 24.5,15.5 24.1,11.1 26.7,10.8 		"/>
		<path class="st22" d="M24.4,12.3c-0.5,0-1,0-1.4,0c0.1-0.8,0.2-1.6,0.2-2.4h0.9C24.2,10.7,24.3,11.5,24.4,12.3z"/>
		<ellipse transform="matrix(0.9949 -0.1011 0.1011 0.9949 -1.0163 2.6445)" class="st2" cx="25.6" cy="11.3" rx="0.8" ry="0.1"/>
		
			<ellipse transform="matrix(7.877439e-02 -0.9969 0.9969 7.877439e-02 6.046 32.9468)" class="st2" cx="20.8" cy="13.2" rx="1.7" ry="0.1"/>
	</g>
	<path class="st4" d="M19.1,54.9h-2.8c-0.3-1.7-0.5-3.8-0.4-6.2c0-1.9,0.2-3.6,0.4-5c0.9-0.1,1.9-0.3,2.8-0.4V54.9z"/>
	<path class="st3" d="M16.5,66.7h3.2c0.1-2.8,0.2-5.6,0.3-8.4h-4C16.2,61.1,16.3,63.9,16.5,66.7z"/>
	<path class="st3" d="M16.6,53.5h3c0.6,0,1.2,0.6,1.2,1.3V60c0,0.7-0.5,1.3-1.2,1.3h-3c-0.6,0-1.2-0.6-1.2-1.3v-5.2
		C15.5,54,16,53.5,16.6,53.5z"/>
	<polygon class="st23" points="16.5,60.6 14.8,57.4 16.4,54.2 19.6,54.1 21.3,57.3 19.7,60.5 	"/>
	<path class="st4" d="M19.6,75.2c-1.3-0.1-2.5-0.2-3.8-0.3c-0.1-4.6-0.3-9.1-0.4-13.7c0.6,0.3,1.7,0.8,3,0.9c0.9,0,1.6-0.1,2.2-0.3
		C20.3,66.2,19.9,70.7,19.6,75.2z"/>
	<path class="st2" d="M16.5,74.9h2.6c0.2-3.9,0.4-7.7,0.7-11.6c-0.5,0.2-1.3,0.4-2.3,0.2c-0.5-0.1-0.8-0.2-1.1-0.4
		C16.3,67,16.4,70.9,16.5,74.9z"/>
	<path class="st24" d="M24,34.3c-1.1,5.8-2.2,11.6-3.3,17.3c-0.3,0.1-0.5,0.1-0.8,0.2C18.6,52,17.5,52,16.6,52
		c1.3-5.9,2.7-11.8,4-17.7H24z"/>
	<path class="st25" d="M26.4,34.3c0,2.6-0.2,5.8-1,9.5c-0.6,2.8-1.4,5.1-2.1,7c-0.7,0.3-1.6,0.6-2.6,0.9c1.1-5.8,2.2-11.6,3.3-17.3
		H26.4z"/>
	<path class="st9" d="M31.2,43.3c-0.9,1.9-1.9,3.8-2.8,5.6c-0.9-4.7-1.8-9.3-2.7-14c0.7-0.3,1.5-0.6,2.2-0.9
		C29,37.2,30.1,40.2,31.2,43.3z"/>
	<path class="st4" d="M15.4,43c0.9,1.9,1.9,3.8,2.8,5.6c0.9-4.7,1.8-9.3,2.7-14c-0.7-0.3-1.5-0.6-2.2-0.9
		C17.6,36.9,16.5,39.9,15.4,43z"/>
	<g>
		<rect x="18.7" y="30.6" class="st10" width="9.5" height="3.9"/>
		<g>
			<polygon class="st26" points="26.4,34.7 23.6,36.5 20.9,34.7 20.9,31.1 23.6,29.2 26.4,31.1 			"/>
			<path class="st23" d="M23.6,30.7V35c0,0,0,0,0,0c-1.1,0-2.1-1-2.1-2.1C21.5,31.7,22.5,30.7,23.6,30.7
				C23.6,30.7,23.6,30.7,23.6,30.7z"/>
			<path class="st27" d="M25.7,32.9c0,1.2-0.9,2.1-2,2.1v-4.3C24.8,30.8,25.7,31.7,25.7,32.9z"/>
		</g>
	</g>
	<polygon class="st4" points="16.9,59.5 15.8,57.4 16.8,55.2 19,55.2 20.1,57.3 19.1,59.4 	"/>
	<g>
		<polygon class="st4" points="28.3,51.2 28.3,79.3 28.3,79.3 28.3,79.3 19.3,73.4 19.3,45.4 28.2,51.3 28.2,51.2 28.2,51.3 
			28.3,51.2 		"/>
		<polygon class="st9" points="37.4,45.2 37.4,73.4 28.3,79.3 28.3,79.3 28.3,51.2 		"/>
		<polygon class="st3" points="32.8,39.5 28.3,42.5 28.3,39.5 		"/>
		<polygon class="st3" points="28.3,39.5 28.3,42.5 28.2,42.6 23.5,39.5 		"/>
		<polygon class="st28" points="28.3,42.5 28.3,42.7 28.2,42.6 		"/>
		<polygon class="st28" points="28.2,51.2 28.3,51 28.3,51.2 28.2,51.3 28.2,51.2 		"/>
		<polygon class="st29" points="24.9,44.8 28.2,51.2 28.2,51.2 28.2,51.3 19.3,45.4 16.4,43.5 19.7,37 23.5,39.5 28.2,42.6 		"/>
		<polygon class="st29" points="40,43.5 37.4,45.2 28.3,51.2 28.3,51 31.5,44.8 28.3,42.7 28.3,42.5 32.8,39.5 36.7,37 		"/>
		<polygon class="st30" points="31.5,44.8 28.3,51 28.3,42.7 		"/>
		<polygon class="st30" points="28.3,42.7 28.3,51 28.2,51.2 24.9,44.8 28.2,42.6 		"/>
		<polygon class="st28" points="28.3,42.5 28.3,42.7 28.2,42.6 		"/>
		<polygon class="st28" points="28.2,51.2 28.3,51 28.3,51.2 28.2,51.3 28.2,51.2 		"/>
		<line class="st31" x1="28.3" y1="53.2" x2="28.3" y2="52"/>
		<ellipse class="st2" cx="36.2" cy="60.6" rx="0.3" ry="11.4"/>
		<g>
			<g>
				<path class="st32" d="M29.6,62.4c-0.3,1.1-0.3,2.2-0.1,3.2c0,0-0.3,0-0.3,0c0.3-0.7,0.8-1.5,1.5-1.6c0.3,0,0.5,0.1,0.7,0.3l0,0
					c-1.1-0.7-1.7,1-2.1,1.9c-0.1-0.4-0.2-0.9-0.2-1.4C29,64,29.2,63,29.6,62.4L29.6,62.4z"/>
				<path class="st32" d="M30.4,61.7c-0.6,0.8-0.6,1.8,0.3,2.1c0,0,0,0,0,0c-0.5,0.2-1.1-0.3-1-0.9C29.7,62.4,30,61.9,30.4,61.7
					L30.4,61.7L30.4,61.7z"/>
				<path class="st32" d="M30.7,64.7c-0.3,0.3-0.9,1-1.1,1.2c0,0,0.7-0.3,0.7-0.3l-0.1,0.1l0.3-0.4l0,0c0,0.1-0.1,0.6-0.1,0.6
					l-0.1,0l-0.8,0l0,0C29.9,65.6,30.4,64.9,30.7,64.7L30.7,64.7z"/>
				<path class="st32" d="M30.4,61.6c-0.7,0-1.2,0.4-1.6,1c0,0,0,0,0,0c0-0.6,0.6-1.1,1.1-1.1C30.1,61.5,30.3,61.5,30.4,61.6
					L30.4,61.6L30.4,61.6z"/>
				<path class="st32" d="M29.6,66.1c0.1,0.1,0.1,0.2,0.1,0.3c0,0.1,0,0.2,0,0.3c-0.1,0.5-0.3,0.9-0.6,1.2c0,0,0-0.1,0-0.1
					c0.2,0,0.4-0.2,0.6-0.1c0.2,0.2,0,0.6-0.2,0.7c-0.3,0.1-0.5,0.5-0.5,0.9c0-0.2,0-0.4,0.1-0.6c0.1-0.4,0.6-0.4,0.6-0.8
					c0-0.2-0.2-0.1-0.3,0c-0.1,0-0.2,0.1-0.3,0.1c-0.1-0.1,0-0.2,0-0.2c0.4-0.3,0.5-0.8,0.5-1.3C29.4,66.3,29.4,66.2,29.6,66.1
					L29.6,66.1L29.6,66.1L29.6,66.1z"/>
				<path class="st32" d="M28.9,69.3c1.1-0.1,1.1-0.8,0.9-1.8c0-0.1-0.1-0.3-0.1-0.5c0-0.2,0.1-0.3,0.2-0.4l0,0
					c-0.1,0.1-0.2,0.2-0.2,0.4c0.1,0.6,0.4,1.1,0.2,1.8C29.9,69.4,29.3,69.4,28.9,69.3C28.9,69.3,28.9,69.3,28.9,69.3L28.9,69.3z"/>
				<path class="st32" d="M30.5,62.5c-0.3-0.1-0.3-0.1-0.3-0.2c0.3-1.2,1.6-1.1,2.4-0.8c1.4,0.5,1.7,2.3,1.4,3.7
					c-0.2,1.3-0.7,3.2-2.1,3.3c-2,0.1-1.6-2.1-0.4-3.1c0.7-0.6,1.6-0.8,2.4-0.4c0.4,0.2,0.7,0.6,0.9,1c0.3,0.8,0,2.2-1,2
					c0,0,0,0,0,0c0.2,0,0.4,0,0.5-0.1c0.8-0.7,0.4-2.2-0.5-2.5c-1.1-0.4-2.3,0.3-2.7,1.4c-0.2,0.4-0.2,0.8,0,1
					c0.2,0.2,0.5,0.3,0.9,0.3c1.5-0.2,2-4,1.3-5.2c-0.4-0.7-2-1.3-2.3-0.4C30.7,62.6,30.8,62.6,30.5,62.5L30.5,62.5z"/>
				<path class="st32" d="M30.2,62.4c1.2-0.5,3,0.1,3.3,1.6c0,0,0,0,0,0c-0.3-1.4-2-1.9-3.1-1.3C30.3,62.8,30.2,62.4,30.2,62.4
					L30.2,62.4z"/>
				<path class="st32" d="M30.3,62.7c1.3-0.3,3.2,0.3,3,2.1c0,0,0,0,0,0c0-1.7-1.8-2.1-2.9-1.7C30.4,63.2,30.3,62.7,30.3,62.7
					C30.3,62.7,30.3,62.7,30.3,62.7z"/>
				<path class="st32" d="M30.9,65.1c0.1,0.5,0.1,1.3-0.4,1.4c-0.2,0.1-0.3,0.3-0.3,0.5c0,0.2,0,0.5,0.1,0.8l0,0
					C30.1,67.6,30,67.3,30,67c0-0.3,0.2-0.6,0.4-0.7c0.2-0.1,0.4-0.2,0.4-0.5C30.9,65.6,30.9,65.4,30.9,65.1L30.9,65.1L30.9,65.1z"
					/>
				<path class="st32" d="M29,68.4c0-0.1-0.1-0.3-0.1-0.4h0.1l0.5-0.1c0,0,0,0,0,0C29.2,68,29.1,68.2,29,68.4L29,68.4z M29,68.4
					c0-0.2,0.2-0.5,0.4-0.5c0,0,0,0,0,0L29,68.1C29,67.9,29,68.2,29,68.4L29,68.4z"/>
				<path class="st32" d="M30.4,63.1c1.1-0.2,2.9,0.2,2.8,1.8c0,0,0,0,0,0c0-1.5-1.7-1.7-2.6-1.4C30.4,63.5,30.4,63.1,30.4,63.1
					L30.4,63.1z"/>
				<path class="st32" d="M30.3,62.2c-0.2,0.1-0.2,0.6,0,1.1c0.1,0.1,0.1,0.2,0.2,0.2c0.2,0,0.3-1,0-1.3
					C30.4,62.2,30.4,62.1,30.3,62.2L30.3,62.2z"/>
				<path class="st32" d="M34.3,67.5c0.6-0.6,0.1-1.6-0.6-1.8c-0.7-0.2-1.4,0-1.9,0.6c-0.4,0.5-0.9,1.5,0.1,1.4
					c0.7-0.1,1.1-0.8,1.3-1.4c0,0,0.1,0,0.2,0c0.1,0.1,0.1,0.1,0.1,0.1c-0.3,0.8-0.8,1.5-1.6,1.6c-0.3,0-0.7,0-0.9-0.4
					c-0.2-0.6,0.2-1.1,0.5-1.5c0.5-0.6,1.4-0.9,2.1-0.6C34.4,65.8,35,67,34.3,67.5C34.3,67.6,34.3,67.5,34.3,67.5L34.3,67.5
					L34.3,67.5z"/>
				<path class="st32" d="M34.3,67.1c0.1-0.6-0.4-1-0.8-1.1c-0.7-0.2-1.4,0.3-1.7,1c0,0.1-0.1,0.2,0,0.2c0.6,0.2,1.1-0.3,1.4-0.8
					c0,0,0.2,0.2,0.2,0.2c-0.4,0.5-1.1,1-1.7,0.8c-0.1,0-0.2-0.1-0.2-0.2c0-0.4,0.3-0.7,0.5-0.9c0.4-0.3,0.9-0.5,1.4-0.3
					C34,66,34.5,66.5,34.3,67.1C34.3,67.1,34.3,67.1,34.3,67.1C34.3,67.1,34.3,67.1,34.3,67.1z"/>
				<path class="st32" d="M31.3,63.8c0.6-0.2,1,0.8,0.3,1c0,0,0,0,0,0C31.8,64.4,31.7,63.9,31.3,63.8C31.3,63.8,31.3,63.8,31.3,63.8
					L31.3,63.8z"/>
			</g>
			<g>
				<path class="st32" d="M27.1,62.4c0.5,1,0.6,2.2,0.3,3.3c0,0-0.1,0.5-0.1,0.5l-0.2-0.5c-0.3-0.8-1-2-1.9-1.5c0.3-0.5,1-0.3,1.3,0
					c0.4,0.3,0.7,0.8,0.8,1.3l-0.3,0C27.4,64.5,27.3,63.4,27.1,62.4L27.1,62.4z"/>
				<path class="st32" d="M26.2,61.7c1,0.5,1,2.4-0.3,2.2c0,0,0,0,0,0C26.9,63.3,26.7,62.5,26.2,61.7L26.2,61.7z"/>
				<path class="st32" d="M25.9,64.7c0.4,0.4,0.8,0.8,1.1,1.2c0,0,0,0,0,0l-0.8,0l-0.1,0c0-0.1-0.1-0.5-0.1-0.6l0,0l0.3,0.4
					l-0.1-0.1l0.7,0.3l0,0c-0.2-0.2-0.4-0.4-0.6-0.6C26.3,65.2,25.9,64.8,25.9,64.7L25.9,64.7z"/>
				<path class="st32" d="M26.2,61.6c0.7-0.3,1.6,0.2,1.6,1c0,0,0,0,0,0C27.4,62,26.9,61.7,26.2,61.6C26.2,61.6,26.2,61.6,26.2,61.6
					L26.2,61.6z"/>
				<path class="st32" d="M27.2,66.1c0.1,0.1,0,0.2,0,0.3c0,0.3,0,0.5,0.1,0.8c0.1,0.3,0.3,0.4,0.4,0.6c0.1,0.1,0,0.2-0.1,0.2
					c-0.2,0-0.6-0.3-0.6-0.1c0,0.2,0.1,0.3,0.2,0.4c0.3,0.2,0.5,0.6,0.5,1c0-0.4-0.2-0.7-0.5-0.9c-0.2-0.1-0.4-0.5-0.2-0.7
					c0.2-0.2,0.5,0,0.6,0.1c0,0-0.1,0,0,0.1c0,0-0.1-0.1-0.1-0.1c-0.4-0.3-0.5-0.9-0.5-1.4C27,66.3,27,66.2,27.2,66.1L27.2,66.1
					L27.2,66.1L27.2,66.1z"/>
				<path class="st32" d="M27.7,69.3c-1.2,0.2-1.4-0.8-1-1.9c0.1-0.2,0.1-0.3,0.1-0.4c0-0.1-0.1-0.3-0.2-0.4l0,0
					c0.1,0.1,0.2,0.2,0.2,0.4c0,0.2,0,0.4-0.1,0.5c-0.1,0.5-0.3,1.3,0.1,1.6C27.2,69.2,27.4,69.3,27.7,69.3L27.7,69.3L27.7,69.3z"/>
				<path class="st32" d="M26.2,62.5c-0.3,0-0.3,0.1-0.3-0.1c-0.2-0.6-1.1-0.4-1.5-0.3c-1.5,0.6-1.2,2.9-0.9,4.3
					c0.2,0.8,0.7,1.5,1.3,1.6c0.8,0.1,1.2-0.4,0.8-1.3c-0.5-1.5-2.8-2.3-3.5-0.6c-0.3,0.7-0.1,2,0.8,1.9c0,0,0,0,0,0
					c-0.2,0-0.4,0-0.6-0.1c-0.9-0.7-0.5-2.5,0.5-2.9c0.8-0.4,1.7-0.2,2.4,0.4c1.2,1,1.6,3.2-0.4,3.1c-1.4-0.1-1.9-2-2.1-3.3
					c-0.2-1.4,0.1-3.2,1.4-3.7c0.8-0.4,2.1-0.4,2.4,0.8C26.5,62.4,26.4,62.4,26.2,62.5L26.2,62.5L26.2,62.5z"/>
				<path class="st32" d="M26.3,62.8c-1.1-0.6-2.7-0.1-3.1,1.3c0,0,0,0,0,0c0.3-1.6,2.1-2.2,3.3-1.6C26.5,62.4,26.3,62.8,26.3,62.8
					L26.3,62.8z"/>
				<path class="st32" d="M26.3,63.2c-0.9-0.2-2-0.2-2.6,0.7c-0.2,0.3-0.3,0.7-0.3,1l0,0c-0.2-1.8,1.8-2.4,3-2.1
					C26.3,62.7,26.3,63.2,26.3,63.2L26.3,63.2z"/>
				<path class="st32" d="M25.7,65.1c-0.1,0.5,0,1.1,0.5,1.3c0.3,0.1,0.4,0.4,0.4,0.7c0,0.3-0.1,0.6-0.2,0.8l0,0
					c0.1-0.2,0.1-0.5,0.1-0.8c0-0.3-0.1-0.5-0.3-0.5c-0.1,0-0.2-0.1-0.3-0.2C25.6,66,25.6,65.5,25.7,65.1L25.7,65.1L25.7,65.1z"/>
				<path class="st32" d="M27.6,68.4c0-0.2,0-0.5,0.1-0.3c0,0-0.5-0.2-0.5-0.2c0,0,0,0,0,0C27.4,67.9,27.7,68.1,27.6,68.4L27.6,68.4
					z M27.6,68.4c-0.1-0.2-0.2-0.4-0.4-0.5c0,0,0,0,0,0c0,0,0.5,0.1,0.5,0.1h0.1C27.7,68.1,27.6,68.3,27.6,68.4L27.6,68.4z"/>
				<path class="st32" d="M26.2,63.5c-0.8-0.2-1.8-0.2-2.4,0.5c-0.2,0.2-0.3,0.6-0.3,0.9l0,0c-0.1-1.6,1.7-2,2.8-1.8
					C26.3,63.1,26.2,63.5,26.2,63.5L26.2,63.5z"/>
				<path class="st32" d="M26.3,62.2c0.2,0.1,0.2,0.6,0,1.1c-0.1,0.1-0.1,0.2-0.2,0.2c-0.2,0-0.3-1,0-1.3
					C26.2,62.2,26.3,62.1,26.3,62.2L26.3,62.2z"/>
				<path class="st32" d="M22.3,67.6c-0.7-0.6-0.1-1.8,0.6-2c0.7-0.3,1.6,0,2.1,0.6c0.3,0.4,0.7,0.9,0.5,1.5C25.4,68,25,68,24.7,68
					c-0.8-0.1-1.3-0.9-1.6-1.6c0,0,0-0.1,0.1-0.1c0.1,0,0.2,0,0.2,0c0.3,0.8,1,1.7,1.8,1.4c0.4-0.2-0.1-1-0.3-1.3
					c-0.7-0.8-2.1-1-2.6,0.2C22,66.8,22.1,67.3,22.3,67.6L22.3,67.6L22.3,67.6L22.3,67.6z"/>
				<path class="st32" d="M22.3,67.1c-0.1-0.6,0.3-1.1,0.8-1.2c0.5-0.2,1,0,1.4,0.3c0.2,0.2,0.5,0.5,0.5,0.9c0,0.1-0.1,0.2-0.2,0.2
					c-0.7,0.2-1.3-0.3-1.7-0.8c0,0,0.2-0.2,0.2-0.2c0.4,0.5,0.9,0.9,1.4,0.8c0,0,0.1,0,0.1-0.1c0-0.3-0.3-0.5-0.4-0.7
					c-0.5-0.5-1.4-0.6-1.9,0C22.4,66.5,22.3,66.8,22.3,67.1L22.3,67.1L22.3,67.1z"/>
				<path class="st32" d="M25.4,63.8c-0.5,0.1-0.6,0.6-0.3,1c0,0,0,0,0,0c-0.3,0-0.4-0.4-0.3-0.7C24.8,63.8,25.2,63.7,25.4,63.8
					L25.4,63.8L25.4,63.8z"/>
			</g>
			<rect x="29.2" y="70.8" class="st33" width="0.3" height="1.5"/>
			<rect x="27.9" y="71.2" class="st33" width="1.2" height="0.7"/>
			<polygon class="st33" points="29.5,59.9 29.5,59.6 31.1,59.6 30.7,59.9 			"/>
			<polygon class="st33" points="33.3,56.7 33.3,57.4 33.3,58.1 34.5,57.4 			"/>
			<path class="st33" d="M33.3,56.6c-0.5,0.4-0.5,1.3,0,1.7c0,0,0,0,0,0c-0.5-0.2-0.6-0.9-0.4-1.4C33,56.7,33.1,56.6,33.3,56.6
				L33.3,56.6L33.3,56.6z"/>
			<polygon class="st33" points="33.5,57.9 33.5,58.1 33.3,58.1 33.3,56.7 33.5,56.7 33.5,56.9 			"/>
			<rect x="29.3" y="56" class="st33" width="0.1" height="2.6"/>
			<polygon class="st33" points="32.3,54.9 32.3,55.3 30.3,55.3 30.3,54.9 30.6,54.9 30.6,55.2 30.6,55.2 30.6,54.9 			"/>
			<path class="st33" d="M29.3,56.3v2.1h-0.3c-0.1-0.2-0.2-0.3-0.4-0.3v-1.3c0.2-0.1,0.4-0.2,0.4-0.5H29.3z"/>
			<rect x="27.5" y="56.3" class="st33" width="0" height="2.1"/>
			<path class="st33" d="M28.5,56.8v1.3c0,0-0.1,0-0.1,0c0,0,0,0,0,0c0,0-0.1,0-0.1,0v-1.3c0,0,0.1,0,0.1,0
				C28.4,56.8,28.4,56.8,28.5,56.8C28.5,56.8,28.5,56.8,28.5,56.8z"/>
			<rect x="29.3" y="56.3" class="st33" width="0.1" height="2.1"/>
			<polygon class="st33" points="29.6,71.1 29.6,71.6 29.6,72 30.4,71.6 			"/>
			<path class="st33" d="M28.5,63l0.2-0.2l-0.1-0.2l-0.2,0.2l-0.2-0.2L28,62.8l0.2,0.2L28,63.2l0.1,0.1L28,63.5l0.2,0.2L28,63.9
				l0.1,0.2l0.2-0.2l0.2,0.2l0.1-0.2l-0.2-0.2l0.2-0.2l-0.1-0.1l0.1-0.1L28.5,63z M28.3,63.5l-0.2-0.2l0.2-0.2l0.2,0.2L28.3,63.5z"
				/>
			<path class="st33" d="M28.5,64.4l0.2-0.2l-0.1-0.2l-0.2,0.2l-0.2-0.2L28,64.2l0.2,0.2L28,64.6l0.1,0.1L28,64.9l0.2,0.2L28,65.3
				l0.1,0.2l0.2-0.2l0.2,0.2l0.1-0.2l-0.2-0.2l0.2-0.2l-0.1-0.1l0.1-0.1L28.5,64.4z M28.3,64.9l-0.2-0.2l0.2-0.2l0.2,0.2L28.3,64.9z
				"/>
			<path class="st33" d="M28.5,65.8l0.2-0.2l-0.1-0.2l-0.2,0.2l-0.2-0.2L28,65.6l0.2,0.2L28,66l0.1,0.1L28,66.3l0.2,0.2L28,66.7
				l0.1,0.2l0.2-0.2l0.2,0.2l0.1-0.2l-0.2-0.2l0.2-0.2l-0.1-0.1l0.1-0.1L28.5,65.8z M28.3,66.3l-0.2-0.2l0.2-0.2l0.2,0.2L28.3,66.3z
				"/>
			<g>
				<path class="st33" d="M28.7,69.4v-2.5h-0.8v4.3h0.9v-1.8H28.7z M28,69.3L28,69.3l0-2.4h0V69.3z"/>
				<polygon class="st33" points="27.9,59.5 28.2,59.6 27.9,59.8 27.9,59.8 27.9,59.5 				"/>
				<polygon class="st33" points="28.9,58.7 28.9,59.4 28.3,59.6 27.9,59.4 27.9,59.4 27.9,58.7 				"/>
				<polygon class="st33" points="28.3,59.7 28.9,59.9 28.9,60 28.3,60.2 27.9,60.1 27.9,60 27.9,59.9 27.9,59.9 				"/>
				<polygon class="st33" points="27.9,60.4 27.9,60.4 27.9,60.1 27.9,60.2 28.2,60.3 				"/>
				<polygon class="st33" points="28.9,60.5 28.9,61.4 28.7,61.4 28.7,62.7 27.9,62.7 27.9,60.5 27.9,60.5 28.3,60.3 				"/>
				<polygon class="st33" points="28.9,60.1 28.9,60.4 28.5,60.3 				"/>
				<polygon class="st33" points="28.9,59.5 28.9,59.8 28.5,59.6 				"/>
			</g>
			<rect x="27.9" y="62.6" class="st33" width="0" height="4.3"/>
			<rect x="28.7" y="62.7" class="st33" width="0" height="4.3"/>
			<g>
				<path class="st33" d="M29.9,57.4L29.9,57.4l2.7,0c0,0,0,0,0,0c0,0.3,0.1,0.7,0.4,0.8v1.2h-3.3v-4h0.2v1h2.6v-1H33v1.2
					c-0.2,0.2-0.3,0.5-0.4,0.8H29.9z"/>
				<rect x="29.5" y="55.4" class="st33" width="0.2" height="4"/>
			</g>
			<path class="st33" d="M29.8,60.9c0-0.3,0.2-0.5,0.5-0.5c0,0,0.1,0,0.1,0l0.4-0.4h-1.2v1.4L29.8,60.9C29.8,61,29.8,60.9,29.8,60.9
				L29.8,60.9z"/>
			<path class="st33" d="M32.3,55.2v0.1h-1.7V56h0v-0.7h-0.3v-0.1H30v1.3h2.4v-1.3H32.3z M31.7,55.9c0,0,0,0.1-0.1,0.1L31.7,55.9
				l-0.2,0.2l0,0c0,0-0.1,0.1-0.2,0.1v0h-0.2v0c0,0-0.1,0-0.1,0l0,0L30.9,56l0,0c0,0-0.1-0.1-0.1-0.2h0v-0.2h0c0,0,0-0.1,0-0.1l0,0
				l0.1-0.1l0,0c0.1,0,0.1-0.1,0.2-0.1v0h0.2v0c0.1,0,0.1,0,0.2,0.1l0,0l0.1,0.1l0,0c0,0,0,0.1,0.1,0.1h0L31.7,55.9L31.7,55.9z"/>
			<polygon class="st34" points="32.9,58.9 32.9,59.1 32.7,59.1 32.7,58.9 32.5,58.9 32.5,59.1 32.5,59.1 32.4,59.1 32.4,59.1 
				32.4,58.9 32.2,58.9 32.2,59.1 32.1,59.1 32.1,58.9 31.9,58.9 31.9,58.9 31.9,58.9 31.9,59.1 31.8,59.1 31.8,58.9 31.8,58.9 
				31.8,58.9 31.6,58.9 31.6,59.1 31.5,59.1 31.5,59.1 31.5,58.9 31.3,58.9 31.3,58.9 31.3,58.9 31.3,59.1 31.1,59.1 31.1,58.9 
				31,58.9 31,58.9 31,58.9 31,59.1 30.8,59.1 30.8,58.9 30.7,58.9 30.7,58.9 30.7,58.9 30.7,59.1 30.5,59.1 30.5,58.9 30.3,58.9 
				30.3,59.1 30.3,59.1 30.2,59.1 30.2,59.1 30.2,58.9 30,58.9 30,59.1 29.9,59.1 29.9,58.9 29.7,58.9 29.7,59.1 29.7,59.1 
				29.7,59.2 30.2,59.2 30.2,59.2 30.3,59.2 30.8,59.2 30.8,59.2 31,59.2 31.1,59.2 31.1,59.2 31.3,59.2 31.4,59.2 31.6,59.2 
				31.8,59.2 32.1,59.2 32.1,59.2 32.4,59.2 32.4,59.2 32.5,59.2 33,59.2 33,59.1 33,59.1 33,58.9 			"/>
			<polygon class="st33" points="27.3,59.9 27.3,59.5 25.8,59.5 26.1,59.9 			"/>
			<polygon class="st33" points="23.6,56.7 23.6,57.4 23.6,58 22.4,57.4 			"/>
			<path class="st33" d="M23.6,56.5c0.7,0.3,0.7,1.5,0,1.8c0,0,0,0,0,0C24.1,57.8,24.1,57,23.6,56.5C23.6,56.5,23.6,56.5,23.6,56.5
				L23.6,56.5z"/>
			<rect x="23.3" y="56.7" class="st33" width="0.3" height="1.4"/>
			<rect x="27.5" y="56" class="st33" width="0.1" height="2.6"/>
			<path class="st33" d="M28.3,56.8v1.3c-0.1,0.1-0.3,0.2-0.3,0.3h-0.3v-2.1h0.2C27.9,56.6,28,56.7,28.3,56.8z"/>
			<rect x="27.5" y="56.3" class="st33" width="0.1" height="2.1"/>
			<path class="st33" d="M28.3,56.8L28.3,56.8c-0.2,0-0.4-0.2-0.5-0.4h0.1C27.9,56.5,28.1,56.7,28.3,56.8z"/>
			<path class="st33" d="M28.5,56.8v1.3c0,0,0,0-0.1,0c0,0,0,0,0,0c0,0-0.1,0-0.1,0v-1.3C28.3,56.8,28.4,56.8,28.5,56.8
				C28.4,56.8,28.4,56.8,28.5,56.8C28.5,56.8,28.5,56.8,28.5,56.8z"/>
			<rect x="29.3" y="56.3" class="st33" width="0" height="2.1"/>
			<g>
				<path class="st33" d="M27.1,55.4v4h-3.3v-1.2c0.2-0.2,0.4-0.5,0.4-0.8v0h2.7v0h-2.7c0-0.3-0.1-0.6-0.4-0.8v-1.2h0.4v1h2.6v-1
					H27.1z"/>
				<rect x="27.1" y="55.4" class="st33" width="0.2" height="4"/>
			</g>
			<path class="st33" d="M27,60.9c0-0.3-0.2-0.5-0.5-0.5c0,0-0.1,0-0.1,0l-0.4-0.4h1.2v1.4C27.2,61.2,27.1,61.1,27,60.9
				C27,60.9,27,60.9,27,60.9L27,60.9z"/>
			<polygon class="st34" points="24,58.9 24,59.1 24.1,59.1 24.1,58.9 24.3,58.9 24.3,59.1 24.3,59.1 24.4,59.1 24.4,59.1 
				24.4,58.9 24.6,58.9 24.6,59.1 24.7,59.1 24.7,58.9 24.9,58.9 24.9,58.9 24.9,58.9 24.9,59.1 25.1,59.1 25.1,58.9 25.1,58.9 
				25.1,58.9 25.2,58.9 25.2,59.1 25.4,59.1 25.4,59.1 25.4,58.9 25.5,58.9 25.5,58.9 25.5,58.9 25.5,59.1 25.7,59.1 25.7,58.9 
				25.9,58.9 25.9,58.9 25.9,58.9 25.9,59.1 26,59.1 26,58.9 26.2,58.9 26.2,58.9 26.2,58.9 26.2,59.1 26.3,59.1 26.3,58.9 
				26.5,58.9 26.5,59.1 26.5,59.1 26.6,59.1 26.6,59.1 26.6,58.9 26.8,58.9 26.8,59.1 26.9,59.1 26.9,58.9 27.1,58.9 27.1,59.1 
				27.1,59.1 27.1,59.2 26.7,59.2 26.7,59.2 26.5,59.2 26,59.2 26,59.2 25.9,59.2 25.7,59.2 25.7,59.2 25.5,59.2 25.4,59.2 
				25.2,59.2 25.1,59.2 24.7,59.2 24.7,59.2 24.5,59.2 24.5,59.2 24.3,59.2 23.8,59.2 23.8,59.1 23.8,59.1 23.8,58.9 			"/>
			<g>
				<rect x="27.1" y="70.8" class="st33" width="0.3" height="1.5"/>
				<rect x="27.5" y="71.2" class="st33" width="1.2" height="0.7"/>
				<polygon class="st33" points="27,71.1 27,71.6 27,72 26.2,71.6 				"/>
			</g>
			<polygon class="st33" points="27.9,60.5 27.9,60.5 27.9,61.4 27.8,61.4 27.8,60.6 			"/>
			<polygon class="st33" points="27.9,60.2 27.9,60.4 27.9,60.4 27.8,60.5 27.8,60.1 27.9,60.1 			"/>
			<polygon class="st33" points="27.9,59.9 27.9,59.9 27.9,60.1 27.9,60 27.8,60 27.8,59.9 			"/>
			<polygon class="st33" points="27.9,59.5 27.9,59.5 27.9,59.8 27.9,59.8 27.8,59.8 27.8,59.5 			"/>
			<polygon class="st33" points="27.9,58.7 27.9,59.4 27.9,59.4 27.8,59.4 27.8,58.7 			"/>
			<path class="st35" d="M27.9,60.2L27.9,60.2 M27.9,60.1L27.9,60.1"/>
			<path class="st36" d="M24.2,57.4L24.2,57.4L24.2,57.4C24.2,57.4,24.2,57.4,24.2,57.4z"/>
			<rect x="27.8" y="69.4" class="st33" width="1.1" height="1.8"/>
			<polygon class="st37" points="27.8,70.3 28.3,69.7 28.8,70.3 28.3,70.9 			"/>
			<polygon class="st34" points="28,70.3 28.3,69.9 28.7,70.3 28.3,70.7 			"/>
			<rect x="28.1" y="70" class="st34" width="0.5" height="0.6"/>
			<polygon class="st33" points="24.6,54.9 24.6,55.2 26.6,55.2 26.6,54.9 26.3,54.9 26.3,55.1 26.3,55.1 26.3,54.9 			"/>
			<path class="st33" d="M24.3,55.1v1.3h2.4v-1.3h-0.2v0.1h-0.3v0.7h0v-0.7h-1.7v-0.1H24.3z M25.2,55.8v-0.2h0c0-0.1,0-0.1,0.1-0.1
				l0,0l0.1-0.1l0,0c0.1,0,0.1-0.1,0.2-0.1v0h0.2v0c0.1,0,0.1,0,0.2,0.1l0,0l0.1,0.1l0,0c0,0,0,0.1,0,0.1h0v0.2h0
				c0,0.1,0,0.1-0.1,0.2l0,0l-0.1,0.1l0,0c0,0-0.1,0-0.1,0v0h-0.2v0c-0.1,0-0.1,0-0.2-0.1l0,0L25.2,55.8l0,0.1
				C25.2,55.9,25.1,55.9,25.2,55.8L25.2,55.8z"/>
		</g>
		<path class="st38" d="M28.3,41.6V52c0,0,0,0-0.1,0c-2.7,0-5-2.3-5-5.2C23.3,44,25.5,41.6,28.3,41.6C28.3,41.6,28.3,41.6,28.3,41.6
			z"/>
		<path class="st39" d="M33.2,46.8c0,2.9-2.2,5.2-4.9,5.2V41.6C31,41.7,33.2,44,33.2,46.8z"/>
		<polygon class="st40" points="30.6,48.4 28.3,50 25.9,48.5 25.9,45.4 28.2,43.8 30.6,45.3 		"/>
		<path class="st41" d="M29.9,46.5c-0.1,0-0.3-0.6-1.1-1.1c-0.3-0.2-0.6-0.3-0.6-0.4c0-0.1,0.2-0.2,0.4-0.3
			C29.2,44.6,30,46.4,29.9,46.5z"/>
		<path class="st2" d="M24.4,45.1c0,0,1-2,2.4-2.1c0.4,0,0.8,0.1,0.9-0.1c0.1-0.2-0.3-0.5-0.6-0.6C26,41.9,24.4,45,24.4,45.1z"/>
		<line class="st42" x1="39.4" y1="42.3" x2="33.2" y2="46.6"/>
		<line class="st42" x1="23.2" y1="46.8" x2="17.1" y2="42.5"/>
	</g>
	<path class="st43" d="M33.3,38.5c-0.7,0.1-1.4,0.2-2.2,0.3c-0.5-1.9-0.9-3.8-1.4-5.6c0.5,0.1,1.1,0.2,1.7,0.2
		c0.8,0,1.6-0.1,2.2-0.2C33.5,34.9,33.4,36.7,33.3,38.5z"/>
	<path class="st9" d="M34.2,38.4c0.1,0.8-0.9,1.8-1.9,1.8c-0.9,0-2-0.7-2-1.5c0-0.8,1.2-1.5,2.2-1.5C33.2,37.3,34.1,37.7,34.2,38.4z
		"/>
	<path class="st10" d="M9.8,39.9c0.6-0.7,1.2-1.4,1.8-2c0.1-0.2,0.1-0.4,0.2-0.7c0-0.3,0-0.6,0-0.7c-0.8-1.3-1.2-1.5-1.4-1.4
		c-0.2,0.1-0.3,0.5-0.7,0.5c0,0-0.1,0-0.1,0c-0.7,0.5-1.4,1-2,1.5c-0.5,0.5-0.5,1.4,0,1.9l0.9,1C8.9,40.3,9.5,40.3,9.8,39.9z"/>
	<path class="st44" d="M9.9,35.5c0.6,0.7,1.2,1.5,1.8,2.2c1.4-1.6,2.8-3.2,4.2-4.8c-0.6-0.1-1.3-0.3-2.1-0.6
		c-0.9-0.3-1.6-0.7-2.2-1.1C11,32.7,10.4,34.1,9.9,35.5z"/>
	<path class="st2" d="M14,33.6c-0.1-0.1-1.1,1.8-2.5,1.8c-0.3,0-0.6-0.1-0.7,0.1c-0.1,0.2,0.2,0.8,0.6,0.9
		C12.5,36.7,14.1,33.7,14,33.6z"/>
	<g>
		<polygon class="st45" points="7.8,19.9 9.1,19.8 12.9,78.2 11.6,78.3 		"/>
		<polygon class="st46" points="8.8,39.1 10.6,38.9 11.1,46.9 9.3,47.1 		"/>
		<polygon class="st47" points="9,41.2 9,42.3 9.8,42.1 10.8,41.8 10.7,40.7 10.4,40.8 		"/>
		<polygon class="st47" points="9,42.1 10.8,42 10.8,43 9.1,43.2 		"/>
		<polygon class="st47" points="9.1,43.6 9.2,44.7 10.3,44.2 10.9,44 10.8,42.9 10.4,43 		"/>
		<polygon class="st47" points="9.1,44.2 9.2,45.2 11,45.2 10.9,44.2 10.3,44.2 		"/>
		<polygon class="st47" points="9.2,45.2 9.3,46.3 11.1,46.5 11,45.5 		"/>
		<g>
			<path class="st3" d="M12.6,79.6l1.7-3.1c-0.1-1.6-0.2-3.1-0.3-4.7L12.1,72L12.6,79.6z"/>
			<path class="st2" d="M12.2,79.8c0.1,0.1,0.2,0.2,0.2,0.2l0,0c0,0,0.1-0.1,0.2-0.2c-0.2-2.7-0.3-5.3-0.5-8l-0.4,0L12.2,79.8
				L12.2,79.8z"/>
			<path class="st41" d="M12.2,79.6c-0.6-0.9-1.3-1.9-1.9-2.8c-0.1-1.6-0.2-3.1-0.3-4.7l1.7-0.1L12.2,79.6z"/>
			<polygon class="st3" points="14.1,72.1 9.8,72.5 9.8,71.2 14,70.8 			"/>
			<polygon class="st41" points="13.7,71.8 10.2,72.1 10.1,70 13.5,69.7 			"/>
		</g>
		<path class="st8" d="M6.2,5l0.6,9.1c0.5,0,0.9-0.1,1.4-0.1l-0.2-3.2l1.2-2.1C9,6.1,8.8,3.6,8.7,1C7.9,2.3,7.1,3.6,6.3,4.9
			C6.2,4.9,6.2,5,6.2,5z"/>
		<path class="st41" d="M7.4,24.7L7.4,24.7L7.4,24.7C7.4,24.7,7.4,24.7,7.4,24.7z"/>
		<polygon class="st41" points="5.7,5.6 6,5.9 5.7,6.1 5.8,6.9 6.1,6.9 5.8,7.4 6.1,7.7 5.9,8.1 5.9,8.6 6.2,8.8 5.9,9.3 6.2,9.6 
			6,9.9 6,10.3 6.3,10.5 6,10.7 6,11.1 6.4,11.3 6.1,11.5 6.1,11.8 6.4,11.7 6.3,12 7.5,11.9 7,4.8 5.6,4.9 		"/>
		<path class="st2" d="M9.5,14.3c0.1,2.2,0.3,4.4,0.4,6.6l0,0C9.8,18.7,9.6,16.5,9.5,14.3C9.5,14.3,9.5,14.3,9.5,14.3
			C9.5,14.3,9.5,14.3,9.5,14.3z"/>
		<path class="st8" d="M7.4,23.3L7.4,23.3C7.4,23.3,7.4,23.3,7.4,23.3c0.3,0.8,0.5,1.6,0.8,2.4c0.2,0,0.5,0,0.7,0l-0.3-4.7
			c-0.4,0-0.7-0.3-0.7-0.7c0-0.4,0.3-0.8,0.6-0.8L8.1,14c-0.5,0-0.9,0.1-1.4,0.1C6.8,14.1,7.4,23.3,7.4,23.3z"/>
		<path class="st2" d="M9.9,20.6L9.9,20.6c0.7-0.5,1.4-0.9,2-1.4c0,0,0.1-0.1,0.1-0.1c0.1-0.6,0.4-1.4,0.8-2.3
			c0.4-0.8,0.9-1.5,1.3-1.9l-3.5,0.3c0,0-0.5,0.7-1,0.5C9.7,17.3,9.8,19,9.9,20.6z"/>
		<path class="st2" d="M2,23.1c-0.1,1.1-0.4,2-0.7,2.7l3.4-0.3c-0.3-0.3-0.4-0.7-0.4-1c0-1,1.2-1.7,2-1.9c0.4-0.1,0.7,0,0.9,0
			L6.6,12.5l-0.1,0c0,0.1,0,0.1,0,0.2c0.1,0.8-0.5,1.4-1.2,1.5c-0.7,0.1-1.3-0.5-1.3-1.3c0-0.1,0-0.1,0-0.2C2.7,12.8,1.4,12.9,0,13
			c1.1,1.1,1.9,3.7,2.1,6.7c0,0.7,0.1,1.3,0,1.9l0.7-0.1L2.1,22c0,0.2,0,0.4-0.1,0.6l0.8-0.2C2.9,22.4,2,23.1,2,23.1z"/>
		<path class="st41" d="M7.4,24.7L7.4,24.7C7.4,24.7,7.4,24.7,7.4,24.7L7.4,24.7z"/>
		<path class="st41" d="M9.5,13.8C9.5,13.8,9.5,13.8,9.5,13.8L9.5,13.8C9.5,13.8,9.5,13.8,9.5,13.8z"/>
		<path class="st41" d="M8.9,25.6c0.2,0,0.4,0,0.6,0c0.1-0.4,0.5-2.2,0.6-2.6c0-0.7-0.1-1.4-0.1-2.2l0,0c-0.1-1.8-0.2-3.6-0.3-5.4
			c0-0.4,0-0.8-0.1-1.2l0,0c0,0,0,0,0,0l0-0.6l0,0c-0.1-1.7-0.2-3.4-0.3-5.1l-1.2,2.1L8.1,14l0.3,5.4c0.4,0,0.7,0.3,0.7,0.7
			c0,0.4-0.3,0.8-0.6,0.8C8.6,20.9,8.9,25.6,8.9,25.6z"/>
		<path class="st2" d="M8.5,19.4l0.1,1.5c0.4,0,0.7-0.4,0.6-0.8C9.2,19.7,8.8,19.4,8.5,19.4z"/>
		<path class="st41" d="M7.8,20.2c0,0.4,0.4,0.7,0.7,0.7l-0.1-1.5C8.1,19.4,7.8,19.8,7.8,20.2z"/>
		<ellipse class="st41" cx="8.8" cy="14.4" rx="0.5" ry="0.5"/>
		<ellipse class="st2" cx="8.7" cy="12.3" rx="0.5" ry="0.5"/>
		<ellipse class="st2" cx="9" cy="16.6" rx="0.5" ry="0.5"/>
		<path class="st41" d="M9.6,15.7c0.5,0.2,1-0.5,1-0.5l3.5-0.3c0.3-0.3,0.6-0.6,0.8-0.8c-0.9,0.1-1.9,0.2-2.8,0.2
			c-0.4,0-0.8,0.1-1.2,0.1c-0.2,0-0.4,0-0.6,0c0,0.2-0.2,0.4-0.4,0.5c-0.2,0-0.4-0.1-0.4-0.4c0,0,0,0,0,0l0,0
			C9.5,15,9.5,15.3,9.6,15.7z"/>
		<path class="st41" d="M0.9,26.7c1.7-0.1,3.5-0.3,5.2-0.4c-0.5-0.1-1-0.4-1.3-0.7l-3.4,0.3C1.2,26.1,1.1,26.4,0.9,26.7z"/>
		<polygon class="st41" points="9.7,26.5 8,26.6 8,25.4 9.7,25.3 		"/>
		<path class="st21" d="M11.8,18.5c0.1-1.5,1.9-3.2,1.8-3.3c-0.1-0.1-2.6,1.9-2.3,3.3c0,0.2,0.2,0.6,0.3,0.6
			C11.8,19.1,11.8,18.6,11.8,18.5z"/>
		<path class="st21" d="M2.7,20.6c0.1,0,0.6-2.6-0.4-5c-0.6-1.3-1.4-2.3-1.5-2.2c-0.1,0.1,0.6,1.2,1.2,3.1
			C2.7,18.9,2.6,20.6,2.7,20.6z"/>
		
			<ellipse transform="matrix(0.9979 -6.493478e-02 6.493478e-02 0.9979 -1.1619 0.4443)" class="st21" cx="6.3" cy="18.1" rx="0.2" ry="3.9"/>
		
			<ellipse transform="matrix(0.9979 -6.492270e-02 6.492270e-02 0.9979 -0.3346 0.5656)" class="st2" cx="8.5" cy="5.4" rx="0.2" ry="3.6"/>
		<polygon class="st46" points="8.4,32.2 10.1,32 10.6,40 8.9,40.2 		"/>
		<polygon class="st47" points="8.4,32.7 8.5,33.7 8.6,33.8 9.9,33.9 10.2,34 10.2,32.9 9.8,32.9 		"/>
		<polygon class="st47" points="8.5,34.3 8.6,35.4 9.4,35.2 10.3,34.9 10.2,33.8 9.9,33.9 		"/>
		<polygon class="st47" points="8.6,35.2 10.3,35.1 10.4,36.1 8.6,36.3 		"/>
		<polygon class="st47" points="8.7,36.7 8.7,37.8 9.9,37.3 10.4,37.1 10.4,36 10,36.1 		"/>
		<polygon class="st47" points="8.7,37.3 8.8,38.3 10.5,38.3 10.5,37.3 9.9,37.3 		"/>
		<polygon class="st47" points="8.8,38.3 8.8,39.4 10.6,39.6 10.5,38.6 		"/>
		<polygon class="st47" points="8.8,39.6 8.9,40.6 9.1,40.7 10.4,40.8 10.7,40.9 10.6,39.8 10.2,39.8 		"/>
	</g>
	<rect x="17.4" y="63.5" class="st23" width="0.5" height="11.3"/>
	<rect x="19.7" y="31.2" class="st23" width="0.3" height="2.6"/>
	<rect x="27.1" y="31.2" class="st23" width="0.3" height="2.7"/>
	<path class="st35" d="M20.7,51.6c-0.2,1-0.4,1.9-0.6,2.9"/>
	<rect x="21.2" y="9.2" class="st23" width="5" height="0.3"/>
	<path class="st9" d="M7.4,37.5c-0.4,1.1,0.4,2.6,1.5,2.7c0.8,0,1.7-0.8,1.6-1.9c0-1-0.8-1.7-1.5-1.8C8.3,36.4,7.7,36.8,7.4,37.5z"
		/>
	<polygon class="st48" points="10,47.7 10.3,47.7 11.7,69.1 11.4,69.2 	"/>
	<path class="st2" d="M33,27.8c0.6-1.5-0.2-3.6-0.7-3.6c-0.4,0-0.6,1.7-0.5,2.8c0,0.2,0.1,1.6,0.5,1.6C32.6,28.7,32.9,28.2,33,27.8z
		"/>
	<path class="st2" d="M19.7,78.3c-0.6,0.6-1.1,0.2-2.6,0.2c-1.5,0-2,0.1-2.2-0.1c0,0,0,0-0.1-0.1c-0.4-0.5,0-1.6,0.3-2.3
		c0.3-0.7,0.4-1,0.7-1.3c0.7-0.8,2.3-1.3,3.4-0.4c0.9,0.8,1.2,2.2,0.8,3.2C20,77.8,19.9,78,19.7,78.3L19.7,78.3z"/>
	<path class="st3" d="M19.4,78.3c-0.2,0.1-0.9,0.1-2.3,0.1c-1.2,0-1.9,0-2.1-0.1c-0.1,0-0.1-0.1-0.2-0.2c-0.2-0.5,1.1-1.6,1.4-1.7
		c0.5-0.4,0.7-0.6,1.1-0.6c0.4,0,0.6,0.2,1,0.5c0.5,0.4,1.4,1.3,1.2,1.8C19.6,78.2,19.5,78.3,19.4,78.3z"/>
	<path class="st2" d="M30.8,38.5c0,0.3,0.8,0.5,1.5,0.3c0.2-0.1,0.3-0.1,0.8-0.3c0.4-0.1,0.5-0.1,0.5-0.2c0-0.2-0.6-0.6-1.4-0.6
		C31.5,37.7,30.8,38.2,30.8,38.5z"/>
	<path class="st2" d="M8.5,38.5c0.2,0.7,0.4,1,0.4,1.1c-0.1,0.1-1.4-0.9-1.2-1.8c0.1-0.4,0.4-0.7,0.6-0.6
		C8.4,37.2,8.3,37.7,8.5,38.5z"/>
</g>
</svg>
