<?xml version="1.0" encoding="utf-8"?>
<!-- Generator: Adobe Illustrator 26.5.0, SVG Export Plug-In . SVG Version: 6.00 Build 0)  -->
<svg version="1.1" id="form" xmlns="http://www.w3.org/2000/svg" xmlns:xlink="http://www.w3.org/1999/xlink" x="0px" y="0px"
	 viewBox="0 0 40 80" style="enable-background:new 0 0 40 80;" xml:space="preserve">
<style type="text/css">
	.st0{opacity:0.31;}
	.st1{fill:#07F49E;}
	.st2{fill:url(#SVGID_1_);}
	.st3{fill:#011923;}
	.st4{fill:#AA8F6D;}
	.st5{fill:#062230;}
	.st6{fill:#09293D;}
	.st7{fill:#474747;}
	.st8{fill:#2A2620;stroke:#191613;stroke-width:0.3643;stroke-miterlimit:10;}
	.st9{fill:#1E1B17;stroke:#191613;stroke-width:0.3414;stroke-miterlimit:10;}
	.st10{fill:#2A2620;stroke:#191613;stroke-width:0.3871;stroke-miterlimit:10;}
	.st11{fill:#1E1B17;stroke:#191613;stroke-width:0.3871;stroke-miterlimit:10;}
	.st12{fill:#2A2620;stroke:#191613;stroke-width:0.3758;stroke-miterlimit:10;}
	.st13{fill:#1E1B17;stroke:#191613;stroke-width:0.3758;stroke-miterlimit:10;}
	.st14{fill:#2A2620;stroke:#191613;stroke-width:0.3989;stroke-miterlimit:10;}
	.st15{fill:#1E1B17;stroke:#191613;stroke-width:0.3989;stroke-miterlimit:10;}
	.st16{fill:#2A2620;}
	.st17{fill:#383028;}
	.st18{fill:#35312D;}
	.st19{fill:#344E41;}
	.st20{fill:none;}
	.st21{fill:#383431;}
	.st22{fill:#191613;}
	.st23{fill:#092733;}
	.st24{fill:#3A5446;}
	.st25{fill:#35493D;}
	.st26{fill:#3D3D3D;}
	.st27{fill:#365444;}
	.st28{fill:#051E2B;}
	.st29{fill:#C0A278;}
	.st30{fill:#4C3C26;}
	.st31{fill:#443523;}
	.st32{fill:#736357;}
	.st33{fill:#5E4836;stroke:#49382A;stroke-width:0.3989;stroke-miterlimit:10;}
	.st34{fill:#232120;}
	.st35{opacity:0.25;fill:#FFFFFF;}
	.st36{opacity:0.18;fill:#FFFFFF;}
	.st37{opacity:0.47;fill:#43FFB7;}
	.st38{opacity:0.25;fill:#43FFB7;}
</style>
<g class="st0">
	<g>
		<path class="st1" d="M4.6,1.4C4.2,3.1,3.9,6,6.5,5.7c2.2-0.2,4.7,0.1,6.5,1.6c1.2,0.9,2.2,2.1,2.9,3.4c0.1,0.2,0.1,0.5-0.2,0.6
			c-0.2,0.1-0.5,0.1-0.6-0.1c-1.6-2.2-3.7-4.2-6.5-4.5c-1.1-0.2-2.2,0-3.3-0.3C3.2,5.7,3.7,2.9,4.4,1.3C4.4,1.2,4.6,1.2,4.6,1.4
			L4.6,1.4z"/>
	</g>
	<g>
		<path class="st1" d="M14.4,2.8c-1.8,2.3-1,5.6,1.3,7.2c0.2,0.2,0.3,0.4,0.1,0.7c-0.2,0.2-0.5,0.3-0.7,0.1
			C12.7,8.8,12.2,4.7,14.4,2.8L14.4,2.8z"/>
	</g>
	<g>
		<path class="st1" d="M5.9,2C5.6,3.5,6.1,5,7.2,5.8C7.7,6.3,6.9,7,6.5,6.5C5.4,5.3,5.2,3.5,5.9,2C5.8,2,5.9,2,5.9,2L5.9,2z"/>
	</g>
	<g>
		<path class="st1" d="M4.8,5.6c-0.6,1-0.3,2.5,0.6,3.3C4.1,8.3,3.5,6.6,3.9,5.2C4.1,4.6,5.1,5,4.8,5.6L4.8,5.6z"/>
	</g>
	<g>
		<path class="st1" d="M8.1,2.5C7.2,3.9,8.2,5.9,9.8,6c0.3,0,0.5,0.2,0.4,0.5c0,0.3-0.3,0.5-0.6,0.4C7.6,6.5,6.7,4,8.1,2.5
			C8,2.4,8.1,2.5,8.1,2.5L8.1,2.5z"/>
	</g>
	<g>
		<path class="st1" d="M9.8,3.3C9.6,4.1,8.9,4.8,8,4.8c-0.4,0-0.4-0.6,0-0.6C8.6,4.4,9.4,4,9.8,3.3C9.8,3.3,9.8,3.3,9.8,3.3L9.8,3.3
			z"/>
	</g>
	<g>
		<path class="st1" d="M3,1C2.4,2.2,3,3.7,4.2,4c0.2,0,0.3,0.2,0.2,0.4c0,0.2-0.3,0.3-0.4,0.2C3.3,4.3,2.7,3.7,2.6,3
			C2.4,2.3,2.5,1.3,3,1C3,1,3,1,3,1L3,1z"/>
	</g>
	<g>
		<path class="st1" d="M12.2,3.4c-0.4,1,0,2.3,1,2.6c0.1,0.1,0.2,0.2,0.2,0.4c-0.1,0.1-0.2,0.2-0.4,0.2c-0.6-0.3-1-0.9-1.2-1.5
			C11.7,4.6,11.8,3.5,12.2,3.4C12.2,3.3,12.2,3.3,12.2,3.4L12.2,3.4z"/>
	</g>
</g>
<radialGradient id="SVGID_1_" cx="87.6797" cy="43.6087" r="24.0258" fx="87.4149" fy="30.8605" gradientTransform="matrix(1.1303 0 0 1.0991 -79.586 -3.7987)" gradientUnits="userSpaceOnUse">
	<stop  offset="0.5311" style="stop-color:#07F49E;stop-opacity:0.7"/>
	<stop  offset="0.9023" style="stop-color:#CE04E0;stop-opacity:0.3"/>
</radialGradient>
<path class="st2" d="M21.1,79.4c0-0.5-0.7-1-1.8-0.6c-1.1,0.1-2.6-0.8-4-0.9c-1.5-0.3-2.9-1.4-4-1.5c-1.1-0.9-1.8-1.1-1.8-1.6
	c0-1,0.7-1.4,1.8-1.6c1.1-0.7,2.6-1.1,4.1-1.3c0,0,0.9-0.1,2.7-1.2c0.9,0.7,2.1-1.1,3.5-1.7c0.7,0.1,1.5,0.1,2.3-1
	c0.8-0.6,1.7-1.4,2.7-1.7c0.8-0.3,2-1.7,3.3-2.7c0.7-1,1.4-1.3,2.1-2.5c0.7-0.1,1.5-2.6,2.2-2.8c0.7-0.6,1.4-2.3,2-3.5
	c0.6-1.1,1.2-2.2,1.7-4.1c0.5-1.2,0.9-3.6,1.2-4.5c0.1-0.7,0.2-1.9,0.3-2.5c0.1-1.1,0.1-1.4,0.1-2.7c0-0.5-0.1-1.6-0.2-3.4
	c-0.1-1.8-0.3-3.2-0.6-3.6c-0.3-0.9-0.6-3.2-1-4c-0.4-1-0.8-2-1.4-3.3c-0.5-0.9-1.1-2.3-1.8-3c-0.7-1.4-1.4-1-2.3-3.2
	c-0.8,0-1.7-2.6-2.7-2.3c-1-1.5-2.1-1-3.2-1.7c-1.6,0.2-3.6-1-5.5-1C19,15.3,17,15.9,15.3,16c-1.7-0.1-3.2,1.2-4.2,3
	c-1.2,3-1.5,5.8-1.8,6c-0.3,1.6-0.8,4.1-2.4,4.6c-1,1.2-2.5,1-3.1,0.1c-0.9-1.5,0.5-3.6,0.4-4c-0.1,0.5-1.4,0.8-2.5,4
	C0.7,31,0,35,0.9,35.5c0.5,0,1.2,0.7,2,0.5c0.9,0.1,2-1.1,3.2-1.1c1.2,0.7,2.6-1.2,4-1.9c1.4-0.2,3-2.3,4.5-1.8
	c1.6,1,3.1-0.9,4.7-1.1c1.6,0.1,3.1,1,4.5,0.9c0.9-1.9,1.8,0.5,2.6,1.6c0.8,2.1,1.6,2.7,2.3,2.4c0.7,0.5,1.3,1.5,1.8,3
	c0.5,1.4,1,3.2,1.4,3.4c0.4,0.3,0.7,2.8,0.9,3.5c0.2,2,0.3,3.1,0.3,4c0,1.6-0.1,2.8-0.4,3.9c-0.2,2.4-0.6,2.2-1.1,3.5
	C31,56.7,30,60,29,60.4c-0.5,1.5-1.1,2.3-1.7,1.9c-0.6,0.9-1.3,1.2-1.9,1.7c-0.7,0.3-1.3,1.1-2,1.6c-0.7-0.1-1.4,1.2-2.1,1
	c-1.4-0.3-2.9,1.6-4.3,2.2c-1.4,0.8-2.8,2-4,1.7c-1.2,0.2-2.4,0.9-3.3,1.5c-1.9,1.5-3,1.1-2.9,3c0.1,0.2,0.5,1.4,1.2,1.3
	c0.7,0.4,1.6,0.7,2.7,1.5c1.1,0.4,2.2,0.7,3.4,1.1c1.2,0.1,2.4,0.3,3.4,0.3C19.5,78.9,21.1,80,21.1,79.4z"/>
<ellipse class="st3" cx="19.9" cy="15.2" rx="4.9" ry="6.3"/>
<polygon class="st4" points="21.2,14 21.2,17.1 20,19.9 18.9,19.7 17.8,16.9 17.9,14.2 "/>
<g>
	<path class="st5" d="M6.3,51.8C3.4,63.7,1.1,72.8,2,73.1c1,0.4,5.9-10.1,9.1-21.5c4.4-15.3,5.3-30.4,4.1-30.6
		C14,20.7,10.1,36.5,6.3,51.8z"/>
	<path class="st5" d="M9.4,50.3c-2.2,12-4,21.3-3.1,21.6c1,0.3,5.3-10.5,7.9-22.1c3.5-15.6,3.5-30.7,2.3-30.9
		C15.3,18.7,12.3,34.7,9.4,50.3z"/>
	<path class="st5" d="M12.3,53.9C9.6,67,7.8,75.1,8.7,75.4c1.1,0.4,5.9-10.3,8.9-22.1C21.5,38,21.5,23,20.2,22.8
		C19,22.6,16.2,35.9,12.3,53.9z"/>
	<path class="st5" d="M7.2,38.3c-1.3,3.1-5,11.9-4.3,12.4C3.5,51,7.2,45.4,10,39.6c4.3-8.8,6.6-18.1,5.8-18.5
		C14.9,20.7,9.4,33,7.2,38.3z"/>
	<path class="st5" d="M6.1,47.5c-1.3,3.1-5,11.9-4.3,12.4c0.6,0.4,4.3-5.3,7.1-11.1c4.3-8.8,6.6-18.1,5.8-18.5
		C13.8,29.9,8.3,42.1,6.1,47.5z"/>
</g>
<g>
	<path class="st6" d="M14.3,18.9c-0.7-0.1-1.5-0.2-2.3-0.3c-1.4-0.1-2.6-0.1-3.7,0c0.3-0.2,2.6-0.8,4.7-0.3
		C13.5,18.4,14.3,18.7,14.3,18.9z"/>
	<path class="st5" d="M14.3,18.9C14.3,18.9,14.3,18.9,14.3,18.9c-0.1,0.3-1.3,0.2-1.6,0.2c-1.3,0-1.6-0.3-3.2-0.4
		c-1-0.1-1.3,0-1.3-0.1c0,0,0,0,0,0c0,0,0,0,0,0c1.1-0.1,2.3-0.1,3.7,0C12.8,18.6,13.6,18.7,14.3,18.9z"/>
</g>
<g>
	<path class="st6" d="M13,19c-0.7,0.1-1.5,0.2-2.3,0.4c-1.4,0.3-2.6,0.7-3.6,1c0.2-0.3,2.3-1.5,4.5-1.6C12.1,18.8,13,18.9,13,19z"/>
	<path class="st5" d="M13,19C13,19,13,19.1,13,19c0,0.3-1.2,0.6-1.5,0.7c-1.3,0.3-1.7,0.2-3.2,0.5c-1,0.2-1.3,0.4-1.3,0.3
		c0,0,0,0,0,0c0,0,0,0,0,0c1-0.4,2.2-0.7,3.6-1C11.5,19.2,12.3,19.1,13,19z"/>
</g>
<g>
	<path class="st6" d="M11.5,19.7c-0.7,0.3-1.4,0.7-2.1,1.1c-1.2,0.7-2.3,1.5-3.1,2.2c0.1-0.3,1.8-2.2,3.8-3
		C10.6,19.7,11.4,19.5,11.5,19.7z"/>
	<path class="st5" d="M11.5,19.7C11.5,19.7,11.5,19.7,11.5,19.7c0.1,0.2-1,1-1.2,1.1c-1.1,0.7-1.5,0.7-2.9,1.5
		c-0.9,0.5-1.1,0.7-1.1,0.7c0,0,0,0,0,0c0,0,0,0,0,0c0.9-0.7,1.9-1.4,3.1-2.2C10.1,20.4,10.8,20,11.5,19.7z"/>
</g>
<g>
	<path class="st6" d="M10.9,21.8c-0.7,0.3-1.4,0.7-2.1,1.1c-1.2,0.7-2.3,1.5-3.1,2.2c0.1-0.3,1.8-2.2,3.8-3
		C10,21.9,10.8,21.7,10.9,21.8z"/>
	<path class="st5" d="M10.9,21.8C10.9,21.8,10.9,21.8,10.9,21.8c0.1,0.2-1,1-1.2,1.1c-1.1,0.7-1.5,0.7-2.9,1.5
		C6,25,5.7,25.2,5.7,25.2c0,0,0,0,0,0c0,0,0,0,0,0c0.9-0.7,1.9-1.5,3.1-2.2C9.6,22.5,10.3,22.1,10.9,21.8z"/>
</g>
<path class="st7" d="M12.5,68.9c1.1-2,2.1-0.6,3.2-1.6c0.8-2.8,0.9-4,0.9-3.9c0,0.7-0.3-0.1-0.3-2.8c0,0.6,0.1-2.1,0.2-2.6
	c0.1-2.2,0.2-1.3,0.4-2.9c-1.4,1.7-2.8,1.1-4.2-0.1c-0.2,2.2-0.4,1.1-0.5,3c-0.1,0.4-0.2,1.8-0.3,3.5c-0.1,0.1,0,2.3,0.1,4.1
	C12.2,66.2,12.3,66.8,12.5,68.9z"/>
<path class="st7" d="M16.6,57.5c-0.9,0-1.9,0-2.8-0.1c-0.3-0.5-0.7-1.2-1.1-2.1c-0.5-1.2-1.5-4.2-0.1-12.4c0.3-1.9,0.9-4.5,1.7-7.5
	c1.6,0,3.1,0,4.7,0.1c0.5,9.8,0.3,13.6-0.2,14.7c-0.1,0.1-0.4,0.9-0.7,1.9c-0.3,1-0.3,1.5-0.5,2.4C17.5,55.2,17.2,56.3,16.6,57.5z"
	/>
<polygon class="st8" points="15.2,47 14.5,56.6 14.4,56.7 11.3,52 11.9,47.9 "/>
<polygon class="st9" points="18.3,47.8 18.6,54.4 13.9,56.5 15.5,48.2 "/>
<polygon class="st10" points="16.2,42.7 15.2,52.4 15.1,52.4 11.7,47.8 12.4,43.6 "/>
<polygon class="st11" points="19.3,42 20.2,49.5 15.2,52.4 16.2,42.7 "/>
<polygon class="st12" points="16.8,38.6 15.5,48.1 15.4,48.2 12.4,43.3 13.2,39.2 "/>
<polygon class="st13" points="19.8,38.1 20.3,45.6 15.5,48.1 16.8,38.6 "/>
<polygon class="st14" points="18.6,34.5 16.1,43.8 16,43.8 13.2,38.6 14.6,34.7 "/>
<polygon class="st15" points="22,34.3 21.7,41.8 16.1,43.8 18.6,34.5 "/>
<path class="st16" d="M11.3,42.2c0.7,1.6,0.8,3.5,0.5,3.6c-0.3,0.1-1.1-1.4-1.5-2.6c-0.4-1.1-0.5-2.6-0.2-2.7
	C10.4,40.3,11,41.4,11.3,42.2z"/>
<path class="st17" d="M8.4,42.7c0.4-0.3,1.2,0.1,1.2,0.1c0.6,0.3,0.9,1,1.1,1.6c0.2,0.6,0.1,0.7,0.3,1.4c0.3,1.2,0.7,1.7,0.6,1.8
	c-0.2,0.2-1.3-0.5-2.1-1.5C8.4,45,7.8,43.1,8.4,42.7z"/>
<path class="st18" d="M10.5,42.6c0.1,1.3,0.5,1.7,0.2,2c-0.5,0.4-2.1-0.1-2.5-1.1c-0.1-0.2,0-0.6,0-1.3c0.1-0.7,0.1-1,0.3-1.3
	c0.4-0.5,1.3-0.8,1.7-0.6C10.7,40.6,10.3,41.2,10.5,42.6z"/>
<g>
	<path class="st16" d="M10.4,43.9c0.3,1.3,0.6,2.4,1.1,3.6C10.5,46.7,10.1,45.2,10.4,43.9L10.4,43.9z"/>
</g>
<g>
	<path class="st16" d="M9.8,43.9c0.3,1.3,0.6,2.4,1.1,3.6C9.9,46.6,9.4,45.1,9.8,43.9L9.8,43.9z"/>
</g>
<g>
	<path class="st16" d="M9.1,43.7c0.3,1.2,0.6,2.1,1.1,3.2C9.2,46.3,8.8,44.9,9.1,43.7L9.1,43.7z"/>
</g>
<g>
	<path class="st16" d="M8.5,42.4c0.1,1.2,0.3,2.2,0.7,3.3C8.3,44.9,8,43.5,8.5,42.4L8.5,42.4z"/>
</g>
<path class="st19" d="M9.1,35.6c0.7,0,1.3,0,2,0c0.3-0.4,0.9-1.1,1.2-2.2c0.3-1,0.3-1.9,0.3-2.4c-1-0.4-2-0.8-3-1.2
	c-0.2,0.6-0.4,1.4-0.5,2.3C8.9,33.5,8.9,34.7,9.1,35.6z"/>
<path class="st19" d="M9.6,30.1c0.9,0.7,1.8,1.3,2.7,2c0.4-0.8,0.9-1.7,1.3-2.6c1.4-3.3,1.9-6.4,2.1-8.9c-1.6,1.6-3.2,3.2-4.8,4.7
	C10.5,26.8,10,28.5,9.6,30.1z"/>
<line class="st20" x1="10.4" y1="31.3" x2="10.3" y2="32"/>
<g>
	<path class="st18" d="M10.3,32l-1.1,9.5c-0.3,0.2-0.7,0.5-1.1,0.7c0.1-3.7,0.2-7.3,0.3-11C9.1,31.5,9.7,31.7,10.3,32z"/>
	<path class="st16" d="M12.9,33.2l-2.8,7.6c-0.3,0.2-0.5,0.4-0.8,0.6l1-9.1L12.9,33.2z"/>
	<ellipse class="st21" cx="10.2" cy="33" rx="0.5" ry="0.5"/>
	<ellipse class="st21" cx="10" cy="34.9" rx="0.5" ry="0.5"/>
	<ellipse class="st21" cx="9.7" cy="37.1" rx="0.5" ry="0.5"/>
	<ellipse class="st21" cx="9.5" cy="39.4" rx="0.5" ry="0.5"/>
	<path class="st22" d="M13.3,32.9c-1,2.6-1.9,5.1-2.9,7.7c-0.1,0.1-0.2,0.2-0.4,0.3l2.8-7.6l-2.6-0.9l0-0.4c0.4,0.1,0.8,0.3,1.2,0.4
		C12.1,32.6,12.8,32.8,13.3,32.9z"/>
</g>
<path class="st5" d="M14.8,35.6c3.3,0,6.6,0.1,9.9,0.1c0.4,0,0.7-0.3,0.6-0.7L25,33c0-0.3-0.3-0.5-0.6-0.5c-3.1,0-6.2,0-9.3,0
	c-0.3,0-0.6,0.2-0.6,0.5c-0.1,0.6-0.2,1.2-0.2,1.9C14.1,35.3,14.4,35.6,14.8,35.6z"/>
<path class="st23" d="M14.6,35.1c3.2,0,6.5,0.1,9.7,0.1c0.5,0,0.9-0.5,0.8-1.1l-0.3-1.3c-3.5,0-6.9,0-10.4,0
	c-0.1,0.6-0.2,1.1-0.3,1.7C14.1,34.8,14.4,35.1,14.6,35.1z"/>
<path class="st24" d="M13.4,29.9c0.1,0.1-0.7,1.9-2.1,2c-1.1,0.1-2-1.1-1.9-1.2c0.1-0.1,0.8,0.6,1.8,0.6
	C12.5,31.1,13.3,29.8,13.4,29.9z"/>
<path class="st25" d="M12.7,30.5c0,0-0.7,0.9-1.6,0.8c-0.6,0-1-0.4-1-0.5c0-0.1,0.7,0.3,1.6,0.2C12.3,30.9,12.7,30.5,12.7,30.5z"/>
<path class="st24" d="M14,28c0.1,0.1-0.6,1.5-1.9,2c-0.9,0.4-2.2,0.3-2.4-0.3c-0.2-0.4,0.3-1.1,0.4-1c0.1,0-0.1,0.4,0.1,0.7
	c0.3,0.5,1.7,0,1.8-0.1C13.4,28.9,14,28,14,28z"/>
<path class="st25" d="M11.8,29.3c0,0.1-0.9,0.6-1.3,0.3c-0.2-0.2-0.2-0.6,0-0.6c0.1-0.1,0.2,0.2,0.6,0.3
	C11.4,29.4,11.7,29.2,11.8,29.3z"/>
<path class="st24" d="M14.6,26.7c0.1,0.1-0.6,1.5-1.9,2c-0.9,0.4-2.2,0.3-2.4-0.3c-0.2-0.4,0.3-1.1,0.4-1c0.1,0-0.1,0.4,0.1,0.7
	c0.3,0.5,1.7,0,1.8-0.1C14,27.5,14.6,26.6,14.6,26.7z"/>
<path class="st25" d="M12.4,27.9c0,0.1-0.9,0.6-1.3,0.3c-0.2-0.2-0.2-0.6,0-0.6c0.1-0.1,0.2,0.2,0.6,0.3C12,28,12.4,27.8,12.4,27.9z
	"/>
<path class="st24" d="M14.6,23.8c0,0.1-0.4,1.5-1.2,2c-0.6,0.4-1.4,0.3-1.5-0.3c-0.1-0.4,0.2-1.1,0.3-1c0.1,0-0.1,0.4,0.1,0.7
	c0.2,0.5,1.1,0,1.2-0.1C14.2,24.6,14.6,23.7,14.6,23.8z"/>
<path class="st25" d="M13.1,25c0,0.1-0.6,0.6-0.8,0.3c-0.1-0.2-0.1-0.6,0-0.6c0.1-0.1,0.2,0.2,0.4,0.3C12.9,25.1,13.1,24.9,13.1,25z
	"/>
<line class="st20" x1="13.9" y1="43.1" x2="12.1" y2="47.7"/>
<line class="st20" x1="17.3" y1="34.2" x2="16.8" y2="35.5"/>
<path class="st16" d="M12.4,75.2c1,0.1,1.9,0.2,2.9,0.4c0.7-2.4,1.4-5.4,1.6-8.9C17,65.3,17,64,17,62.8c-1.2-0.1-2.6-0.4-4.2-1
	c-0.4-0.2-0.7-0.3-1.1-0.5c-0.1,1.6-0.2,3.3-0.2,5.1C11.7,69.7,12,72.7,12.4,75.2z"/>
<path class="st18" d="M12.8,69.1c0,0,0.3,2.6,0.2,4.2c0,0.3-0.1,0.6-0.1,0.9c-0.1,0.6-0.3,1.5-0.1,1.6C13,76,13.7,75,14,74.4
	c1.1-1.8,0.9-3.2,1.3-5.3c0.7-3.9,2.4-5.7,1.6-6.5c-0.3-0.4-0.7-0.1-2.3-0.5c-1.5-0.4-1.7-0.8-2-0.6C11.6,62,12.4,66.7,12.8,69.1z"
	/>
<path class="st18" d="M15.1,79.7c-0.4,0.4-0.8,0.2-3.1,0.1c-2.2-0.1-2.5,0.1-2.7-0.2c-0.6-1,1.9-4.9,4-4.5c0.6,0.1,1,0.6,1.2,0.8
	C15.6,77,15.9,79,15.1,79.7z"/>
<path class="st26" d="M14.7,79.8c-0.3,0.1-1.1,0.1-2.7,0c-1.5-0.1-2.2-0.1-2.4-0.2c-0.1,0-0.2-0.1-0.2-0.2c-0.2-0.6,1.4-1.7,1.7-1.9
	c0.6-0.4,0.9-0.6,1.3-0.6c0.4,0,0.7,0.2,1.2,0.6c0.6,0.4,1.7,1.5,1.4,2C15,79.7,14.8,79.7,14.7,79.8z"/>
<path class="st16" d="M15.4,79.4c-0.9-2.6-1.8-3.4-2.6-3.4c-1.3-0.2-2.7,1.7-2.8,1.5c-0.1-0.1,0.4-0.7,0.9-1.2
	c0.6-0.6,1.1-1,1.5-1.2c1,0.1,2,0.2,3,0.3c0.1,0.2,0.1,0.5,0.2,0.8c0.2,0.8,0.3,0.8,0.3,1c0,0.3,0,0.7-0.2,1.4
	C15.5,78.9,15.5,79.2,15.4,79.4z"/>
<ellipse class="st21" cx="15.5" cy="63.8" rx="0.4" ry="0.5"/>
<ellipse class="st21" cx="15.3" cy="65.5" rx="0.4" ry="0.4"/>
<rect x="11.7" y="67.9" transform="matrix(-1 -4.790980e-11 4.790980e-11 -1 28.6205 136.506)" class="st22" width="5.2" height="0.7"/>
<rect x="11.6" y="70" transform="matrix(-1 -4.955293e-11 4.955293e-11 -1 28.3233 140.6775)" class="st22" width="5.1" height="0.7"/>
<path class="st24" d="M17.2,54.7c0,0,1.1-1,2.2,0c1.1,1.7,2.2,0.7,2.2,0c0,0.2,0-5,0-9.6c0-4.6,0-9.9,0-9.6c0-0.4-1.1-0.4-2.2,0
	c-1.1-0.6-2.2-0.6-2.2,0c0-1,0,5.1,0,9.6C17.2,50,17.2,54.9,17.2,54.7z"/>
<g>
	<path class="st16" d="M12.5,60.4l-0.4-0.9c-0.2-0.5-0.2-1,0-1.5l0.4-0.9c0.3-0.6,1-1,1.7-1l0.3,0c0.7,0,1.3,0.4,1.6,1.1l0.4,0.9
		c0.2,0.5,0.2,1,0,1.5L16,60.5c-0.3,0.6-1,1-1.7,1l-0.3,0C13.4,61.5,12.8,61.1,12.5,60.4z"/>
	<path class="st18" d="M12.9,60l-0.3-0.7c-0.2-0.4-0.2-0.8,0-1.1l0.3-0.7c0.2-0.5,0.7-0.8,1.2-0.7l0.2,0c0.5,0,1,0.3,1.2,0.8
		l0.3,0.7c0.2,0.4,0.2,0.8,0,1.1L15.6,60c-0.2,0.5-0.7,0.8-1.2,0.7l-0.2,0C13.6,60.8,13.2,60.4,12.9,60z"/>
</g>
<path class="st7" d="M26.7,69c-1.1-2-2.1-0.6-3.2-1.6c-0.8-2.8-0.9-4-0.9-3.9c0,0.7,0.3-0.1,0.3-2.8c0,0.6-0.1-2.1-0.2-2.6
	c-0.1-2.2-0.2-1.3-0.4-2.9c1.4,1.7,2.8,1.1,4.2-0.1c0.2,2.2,0.4,1.1,0.5,3c0.1,0.4,0.2,1.8,0.3,3.5c0.1,0.1,0,2.3-0.1,4.1
	C27,66.2,26.9,66.9,26.7,69z"/>
<path class="st7" d="M22.6,57.6c0.9,0,1.9,0,2.8-0.1c0.3-0.5,0.7-1.2,1.1-2.1c0.5-1.2,1.5-4.2,0.1-12.4c-0.3-1.9-0.9-4.5-1.7-7.5
	c-1.6,0-3.1,0-4.7,0.1c-0.5,9.8-0.3,13.6,0.2,14.7c0.1,0.1,0.4,0.9,0.7,1.9c0.3,1,0.3,1.5,0.5,2.4C21.8,55.3,22,56.3,22.6,57.6z"/>
<polygon class="st8" points="24,47.1 24.7,56.7 24.8,56.7 27.9,52 27.4,47.9 "/>
<polygon class="st9" points="20.9,47.9 20.6,54.4 25.3,56.5 23.7,48.3 "/>
<polygon class="st10" points="23,42.8 24,52.4 24.1,52.5 27.5,47.8 26.8,43.7 "/>
<polygon class="st11" points="19.9,42 19,49.5 24,52.4 23,42.8 "/>
<polygon class="st12" points="22.4,38.6 23.8,48.2 23.8,48.2 26.8,43.4 26,39.3 "/>
<polygon class="st13" points="19.4,38.1 18.9,45.6 23.8,48.2 22.4,38.6 "/>
<polygon class="st14" points="20.6,34.5 23.1,43.9 23.2,43.9 26.1,38.7 24.6,34.7 "/>
<polygon class="st15" points="17.2,34.3 17.5,41.9 23.1,43.9 20.6,34.5 "/>
<path class="st16" d="M27.9,42.2c-0.7,1.6-0.8,3.5-0.5,3.6c0.3,0.1,1.1-1.4,1.5-2.6c0.4-1.1,0.5-2.6,0.2-2.7
	C28.8,40.4,28.2,41.5,27.9,42.2z"/>
<g>
	<path class="st16" d="M28.8,44c0.4,1.3-0.1,2.8-1.1,3.6C28.2,46.4,28.5,45.3,28.8,44L28.8,44z"/>
</g>
<path class="st5" d="M24.4,35.7c-0.7,0-1.4,0-2.1,0h0c-0.1,0-0.2,0-0.3,0c-0.7,0-1.5,0-2.2,0h0c-0.7,0-1.4,0-2.1,0
	c-0.1,0-0.3,0-0.4,0c-0.9,0-1.7,0-2.6,0c-0.4,0-0.7-0.3-0.6-0.6l0.3-2c0-0.3,0.3-0.5,0.6-0.5c3.1,0,6.2,0,9.3,0
	c0.3,0,0.6,0.2,0.6,0.5c0.1,0.6,0.2,1.2,0.2,1.8C25.1,35.4,24.8,35.7,24.4,35.7z"/>
<path class="st23" d="M24.6,35.2c-3.2,0-6.5,0.1-9.7,0.1c-0.5,0-0.9-0.5-0.8-1.1l0.3-1.3c3.5,0,6.9,0,10.4,0
	c0.1,0.6,0.2,1.1,0.3,1.7C25.1,34.9,24.9,35.2,24.6,35.2z"/>
<path class="st19" d="M22.3,35.7v20.9c0,0-1.3-1.1-2.6,0c-1.3,1.8-2.6,0.7-2.6,0V35.8c0.1,0,0.3,0,0.4,0c0.7,0,1.4,0,2.1,0
	c0,0,0,0,0,0c0,0,0,0,0,0c0.7,0,1.5,0,2.2,0C22.1,35.7,22.2,35.7,22.3,35.7C22.3,35.7,22.3,35.7,22.3,35.7z"/>
<path class="st19" d="M30.1,35.7c-0.7,0-1.3,0-2,0c-0.3-0.4-0.9-1.1-1.2-2.2c-0.3-1-0.3-1.9-0.3-2.4c1-0.4,2-0.8,3-1.2
	c0.2,0.6,0.4,1.4,0.5,2.3C30.3,33.6,30.3,34.8,30.1,35.7z"/>
<g>
	<path class="st19" d="M14.7,32.4c1.6,0.1,3.2,0.1,4.8,0.2V17.1c-0.6-0.3-1.1-0.6-1.7-1c-0.4,0.4-1.1,0.9-1.9,1.6
		c-2.3,2-2.2,1.8-2.4,2c-0.6,0.8-0.9,2,0.4,9.3C14.3,30.5,14.5,31.7,14.7,32.4z"/>
	<path class="st19" d="M24.3,32.4c-1.6,0.1-3.2,0.1-4.8,0.2V17.2c0.6-0.3,1.1-0.6,1.7-1c0.4,0.4,1.1,0.9,1.9,1.6
		c2.3,2,2.2,1.8,2.4,2c0.6,0.8,0.9,2-0.4,9.3C24.8,30.5,24.5,31.7,24.3,32.4z"/>
</g>
<path class="st19" d="M29.6,30.1c-0.9,0.7-1.8,1.3-2.7,2c-0.4-0.8-0.9-1.7-1.3-2.6c-1.4-3.3-1.9-6.4-2.1-8.9
	c1.6,1.6,3.2,3.2,4.8,4.7C28.7,26.9,29.2,28.5,29.6,30.1z"/>
<line class="st20" x1="28.9" y1="32" x2="28.8" y2="31.3"/>
<g>
	<path class="st18" d="M28.9,32l1.1,9.5c0.3,0.2,0.7,0.5,1.1,0.7c-0.1-3.7-0.2-7.3-0.3-11C30.1,31.5,29.5,31.8,28.9,32z"/>
	<path class="st16" d="M26.3,33.3l2.8,7.6c0.3,0.2,0.5,0.4,0.8,0.6l-1-9.1L26.3,33.3z"/>
	<ellipse class="st21" cx="29" cy="33.1" rx="0.5" ry="0.5"/>
	<ellipse class="st21" cx="29.2" cy="34.9" rx="0.5" ry="0.5"/>
	<ellipse class="st21" cx="29.5" cy="37.2" rx="0.5" ry="0.5"/>
	<ellipse class="st21" cx="29.7" cy="39.4" rx="0.5" ry="0.5"/>
	<path class="st22" d="M25.9,33c1,2.6,1.9,5.1,2.9,7.7c0.1,0.1,0.2,0.2,0.4,0.3l-2.8-7.6l2.6-0.9l0-0.4c-0.4,0.1-0.8,0.3-1.2,0.4
		C27.1,32.7,26.4,32.8,25.9,33z"/>
</g>
<path class="st24" d="M25.8,29.9c-0.1,0.1,0.7,1.9,2.1,2c1.1,0.1,2-1.1,1.9-1.2c-0.1-0.1-0.8,0.6-1.8,0.6
	C26.7,31.2,25.9,29.8,25.8,29.9z"/>
<path class="st25" d="M26.5,30.6c0,0,0.7,0.9,1.6,0.8c0.6,0,1-0.4,1-0.5c0-0.1-0.7,0.3-1.6,0.2C26.9,30.9,26.5,30.5,26.5,30.6z"/>
<path class="st22" d="M24,33.3c-0.7,0-1.3,0.1-2,0.1c-0.7,0-1.4-0.5-1.4-1.1c-0.2-4.1-0.4-8.1-0.6-12.2c0.1-0.3,0.5-1.2,1.5-1.8
	c0.2-0.1,0.5-0.3,0.9-0.3c1.5-0.2,2.7,1.2,2.8,1.3l-0.2,13C25,32.8,24.6,33.3,24,33.3z"/>
<path class="st16" d="M23.8,32.4c-0.5,0-1.1,0.1-1.6,0.1c-0.6,0-1.1-0.4-1.2-0.9c-0.2-3.3-0.3-6.7-0.5-10c0.1-0.3,0.4-1,1.2-1.5
	c0.1-0.1,0.4-0.2,0.7-0.3c1.2-0.2,2.3,1,2.3,1.1l-0.1,10.7C24.7,32,24.3,32.4,23.8,32.4z"/>
<path class="st22" d="M24.1,25.1c-0.1,1.8,0.7,3.2,0.8,3.2c0.1,0-0.6-1.5-0.4-3.3c0.2-2.4,1.6-3.9,1.6-3.9
	C26,21,24.2,22.7,24.1,25.1z"/>
<path class="st19" d="M24.8,23.3c0.5-1.7,1.5-3,1.8-2.8c0.2,0.1-0.2,1.2-0.7,3.5c-0.6,3.1-0.4,4.6-0.6,4.6
	C24.9,28.6,24,25.8,24.8,23.3z"/>
<path class="st24" d="M25.2,28.1c-0.1,0.1,0.6,1.5,1.9,2c0.9,0.4,2.2,0.3,2.4-0.3c0.2-0.4-0.3-1.1-0.4-1c-0.1,0,0.1,0.4-0.1,0.7
	c-0.3,0.5-1.7,0-1.8-0.1C25.8,28.9,25.2,28,25.2,28.1z"/>
<path class="st25" d="M27.4,29.3c0,0.1,0.9,0.6,1.3,0.3c0.2-0.2,0.2-0.6,0-0.6c-0.1-0.1-0.2,0.2-0.6,0.3
	C27.8,29.4,27.5,29.3,27.4,29.3z"/>
<path class="st24" d="M24.6,26.7c-0.1,0.1,0.6,1.5,1.9,2c0.9,0.4,2.2,0.3,2.4-0.3c0.2-0.4-0.3-1.1-0.4-1c-0.1,0,0.1,0.4-0.1,0.7
	c-0.3,0.5-1.7,0-1.8-0.1C25.2,27.6,24.6,26.7,24.6,26.7z"/>
<path class="st25" d="M26.8,27.9c0,0.1,0.9,0.6,1.3,0.3c0.2-0.2,0.2-0.6,0-0.6c-0.1-0.1-0.2,0.2-0.6,0.3
	C27.2,28,26.9,27.9,26.8,27.9z"/>
<path class="st24" d="M24.6,23.8c0,0.1,0.4,1.5,1.2,2c0.6,0.4,1.4,0.3,1.5-0.3c0.1-0.4-0.2-1.1-0.3-1c-0.1,0,0.1,0.4-0.1,0.7
	c-0.2,0.5-1.1,0-1.2-0.1C25,24.7,24.6,23.8,24.6,23.8z"/>
<path class="st25" d="M26.1,25c0,0.1,0.6,0.6,0.8,0.3c0.1-0.2,0.1-0.6,0-0.6c-0.1-0.1-0.2,0.2-0.4,0.3C26.3,25.2,26.1,25,26.1,25z"
	/>
<line class="st20" x1="27.1" y1="47.7" x2="25.4" y2="43.2"/>
<line class="st20" x1="22.4" y1="35.6" x2="21.9" y2="34.2"/>
<g>
	<path class="st6" d="M24.9,18.9c0.7-0.1,1.5-0.2,2.3-0.3c1.4-0.1,2.6-0.1,3.7,0c-0.3-0.2-2.6-0.8-4.7-0.3
		C25.7,18.4,24.9,18.7,24.9,18.9z"/>
	<path class="st5" d="M24.9,18.9C24.9,18.9,24.9,18.9,24.9,18.9c0.1,0.3,1.3,0.2,1.6,0.2c1.3,0,1.6-0.3,3.2-0.4c1-0.1,1.3,0,1.3-0.1
		c0,0,0,0,0,0c0,0,0,0,0,0c-1.1-0.1-2.3-0.1-3.7,0C26.4,18.7,25.6,18.8,24.9,18.9z"/>
</g>
<g>
	<path class="st6" d="M26.2,19.1c0.7,0.1,1.5,0.2,2.3,0.4c1.4,0.3,2.6,0.7,3.6,1c-0.2-0.3-2.3-1.5-4.5-1.6
		C27.1,18.9,26.2,18.9,26.2,19.1z"/>
	<path class="st5" d="M26.2,19.1C26.2,19.1,26.2,19.1,26.2,19.1c0,0.3,1.2,0.6,1.5,0.7c1.3,0.3,1.7,0.2,3.2,0.5
		c1,0.2,1.3,0.4,1.3,0.3c0,0,0,0,0,0c0,0,0,0,0,0c-1-0.4-2.2-0.7-3.6-1C27.7,19.3,26.9,19.2,26.2,19.1z"/>
</g>
<g>
	<path class="st6" d="M27.7,19.7c0.7,0.3,1.4,0.7,2.1,1.1c1.2,0.7,2.3,1.5,3.1,2.2c-0.1-0.3-1.8-2.2-3.8-3
		C28.6,19.8,27.8,19.6,27.7,19.7z"/>
	<path class="st5" d="M27.7,19.7C27.7,19.7,27.7,19.7,27.7,19.7c-0.1,0.2,1,1,1.2,1.1c1.1,0.7,1.5,0.7,2.9,1.5
		c0.9,0.5,1.1,0.7,1.1,0.7c0,0,0,0,0,0c0,0,0,0,0,0c-0.9-0.7-1.9-1.4-3.1-2.2C29.1,20.4,28.4,20.1,27.7,19.7z"/>
</g>
<g>
	<path class="st6" d="M28.3,21.9c0.7,0.3,1.4,0.7,2.1,1.1c1.2,0.7,2.3,1.5,3.1,2.2c-0.1-0.3-1.8-2.2-3.8-3
		C29.2,21.9,28.4,21.7,28.3,21.9z"/>
	<path class="st5" d="M28.3,21.9C28.3,21.9,28.3,21.9,28.3,21.9c-0.1,0.2,1,1,1.2,1.1c1.1,0.7,1.5,0.7,2.9,1.5
		c0.9,0.5,1.1,0.7,1.1,0.7c0,0,0,0,0,0c0,0,0,0,0,0c-0.9-0.7-1.9-1.5-3.1-2.2C29.6,22.6,28.9,22.2,28.3,21.9z"/>
</g>
<path class="st16" d="M26.9,75.3c-1,0.1-1.9,0.2-2.9,0.4c-0.7-2.4-1.4-5.4-1.6-8.9c-0.1-1.4-0.1-2.7-0.1-3.9c1.2-0.1,2.6-0.4,4.2-1
	c0.4-0.2,0.7-0.3,1.1-0.5c0.1,1.6,0.2,3.3,0.2,5.1C27.6,69.8,27.3,72.7,26.9,75.3z"/>
<path class="st18" d="M26.4,69.1c0,0-0.3,2.6-0.2,4.2c0,0.3,0.1,0.6,0.1,0.9c0.1,0.6,0.3,1.5,0.1,1.6c-0.2,0.1-0.9-0.9-1.2-1.4
	c-1.1-1.8-0.9-3.2-1.3-5.3c-0.7-3.9-2.4-5.7-1.6-6.5c0.3-0.4,0.7-0.1,2.3-0.5c1.5-0.4,1.7-0.8,2-0.6C27.6,62.1,26.8,66.7,26.4,69.1z
	"/>
<path class="st18" d="M24.1,79.8c0.4,0.4,0.8,0.2,3.1,0.1c2.2-0.1,2.5,0.1,2.7-0.2c0.6-1-1.9-4.9-4-4.5c-0.6,0.1-1,0.6-1.2,0.8
	C23.6,77.1,23.3,79,24.1,79.8z"/>
<path class="st26" d="M24.5,79.8c0.3,0.1,1.1,0.1,2.7,0c1.5-0.1,2.2-0.1,2.4-0.2c0.1,0,0.2-0.1,0.2-0.2c0.2-0.6-1.4-1.7-1.7-1.9
	c-0.6-0.4-0.9-0.6-1.3-0.6c-0.4,0-0.7,0.2-1.2,0.6c-0.6,0.4-1.7,1.5-1.4,2C24.3,79.7,24.4,79.8,24.5,79.8z"/>
<path class="st16" d="M23.8,79.5c0.9-2.6,1.8-3.4,2.6-3.4c1.3-0.2,2.7,1.7,2.8,1.5c0.1-0.1-0.4-0.7-0.9-1.2c-0.6-0.6-1.1-1-1.5-1.2
	c-1,0.1-2,0.2-3,0.3c-0.1,0.2-0.1,0.5-0.2,0.8c-0.2,0.8-0.3,0.8-0.3,1c0,0.3,0,0.7,0.2,1.4C23.7,79,23.7,79.3,23.8,79.5z"/>
<ellipse class="st21" cx="23.7" cy="63.9" rx="0.4" ry="0.5"/>
<ellipse class="st21" cx="23.9" cy="65.5" rx="0.4" ry="0.4"/>
<rect x="22.3" y="67.9" class="st22" width="5.2" height="0.7"/>
<rect x="22.5" y="70" class="st22" width="5.1" height="0.7"/>
<path class="st24" d="M22,35.7v19.1c0,0-1.1-1-2.2,0c-1.1,1.7-2.2,0.7-2.2,0v-19c0.7,0,1.4,0,2.1,0h0C20.5,35.7,21.2,35.7,22,35.7z"
	/>
<g>
	<path class="st16" d="M26.7,60.5l0.4-0.9c0.2-0.5,0.2-1,0-1.5l-0.4-0.9c-0.3-0.6-1-1-1.7-1l-0.3,0c-0.7,0-1.3,0.4-1.6,1.1l-0.4,0.9
		c-0.2,0.5-0.2,1,0,1.5l0.4,0.9c0.3,0.6,1,1,1.7,1l0.3,0C25.8,61.5,26.4,61.1,26.7,60.5z"/>
	<path class="st18" d="M26.3,60l0.3-0.7c0.2-0.4,0.2-0.8,0-1.1l-0.3-0.7c-0.2-0.5-0.7-0.8-1.2-0.7l-0.2,0c-0.5,0-1,0.3-1.2,0.8
		l-0.3,0.7c-0.2,0.4-0.2,0.8,0,1.1l0.3,0.7c0.2,0.5,0.7,0.8,1.2,0.7l0.2,0C25.6,60.8,26,60.5,26.3,60z"/>
</g>
<g class="st0">
	<g>
		<path class="st1" d="M34.8,1.3c0.7,1.6,1.2,4.4-1,5.2c-1.1,0.4-2.2,0.2-3.3,0.3c-2.8,0.3-4.8,2.3-6.5,4.5
			c-0.2,0.2-0.5,0.3-0.7,0.1c-0.2-0.1-0.2-0.4-0.1-0.6C24,9.5,25,8.3,26.2,7.4c1.2-0.9,2.7-1.6,4.3-1.6c2.1-0.1,4.4,0.7,4.4-2.3
			c0-0.7-0.1-1.4-0.3-2.1C34.6,1.2,34.8,1.2,34.8,1.3L34.8,1.3z"/>
	</g>
	<g>
		<path class="st1" d="M24.8,2.8c2.1,2.2,1.6,6-0.7,8c-0.2,0.2-0.5,0.2-0.7,0c-0.2-0.2-0.1-0.5,0.1-0.7C26,8.2,26.4,5.1,24.8,2.8
			L24.8,2.8z"/>
	</g>
	<g>
		<path class="st1" d="M33.4,2c0.6,1.5,0.4,3.3-0.7,4.5C32.3,7,31.6,6.4,32,5.9C33,5.1,33.6,3.6,33.4,2C33.3,2,33.4,2,33.4,2L33.4,2
			z"/>
	</g>
	<g>
		<path class="st1" d="M35.3,5.3c0.4,1.4-0.2,3.1-1.5,3.6c1-0.8,1.2-2.2,0.6-3.3C34.1,5,35.1,4.6,35.3,5.3L35.3,5.3z"/>
	</g>
	<g>
		<path class="st1" d="M31.2,2.5c1.3,1.5,0.4,4-1.6,4.5C29.3,7,29.1,6.9,29,6.6c-0.1-0.3,0.1-0.5,0.3-0.6C31,6,32,4,31.2,2.5
			C31.1,2.5,31.2,2.4,31.2,2.5L31.2,2.5z"/>
	</g>
	<g>
		<path class="st1" d="M29.4,3.3c0.3,0.7,1.1,1.1,1.7,0.9c0.4-0.1,0.5,0.6,0,0.6C30.3,4.8,29.6,4.1,29.4,3.3
			C29.4,3.3,29.4,3.3,29.4,3.3L29.4,3.3z"/>
	</g>
	<g>
		<path class="st1" d="M36.3,1c0.8,1.2,0.3,3.1-1.1,3.6c-0.2,0.1-0.4,0-0.4-0.2c-0.1-0.2,0-0.4,0.2-0.4c1.2-0.3,1.8-1.8,1.2-3
			C36.2,1,36.3,0.9,36.3,1L36.3,1z"/>
	</g>
	<g>
		<path class="st1" d="M27.1,3.3c0.6,1.1,0.3,2.6-0.9,3.2c-0.1,0.1-0.3,0-0.4-0.1s0-0.3,0.1-0.4c1-0.4,1.5-1.6,1.1-2.7
			C26.9,3.3,27.1,3.3,27.1,3.3L27.1,3.3z"/>
	</g>
</g>
<g>
	<path class="st22" d="M15.2,33.4c0.7,0,1.3,0.1,2,0.1c0.7,0,1.4-0.5,1.4-1.1c0.2-4.1,0.4-8.1,0.6-12.2c-0.1-0.3-0.5-1.2-1.5-1.8
		c-0.2-0.1-0.5-0.3-0.9-0.3c-1.5-0.2-2.7,1.2-2.8,1.3l0.2,13C14.1,32.9,14.6,33.4,15.2,33.4z"/>
	<path class="st16" d="M15.4,32.5c0.5,0,1.1,0.1,1.6,0.1c0.6,0,1.1-0.4,1.2-0.9c0.2-3.3,0.3-6.7,0.5-10c-0.1-0.3-0.4-1-1.2-1.5
		C17.3,20.2,17,20,16.7,20c-1.2-0.2-2.3,1-2.3,1.1l0.1,10.7C14.5,32.1,14.9,32.5,15.4,32.5z"/>
	<path class="st22" d="M15,25.2c0.1,1.8-0.7,3.2-0.8,3.2c-0.1,0,0.6-1.5,0.4-3.3c-0.2-2.4-1.6-3.9-1.6-3.9
		C13.2,21.1,14.9,22.8,15,25.2z"/>
</g>
<path class="st19" d="M14.4,23.2c-0.5-1.7-1.5-3-1.8-2.8c-0.2,0.1,0.2,1.2,0.7,3.5c0.6,3.1,0.4,4.6,0.6,4.6
	C14.3,28.5,15.2,25.8,14.4,23.2z"/>
<path class="st27" d="M20,22c1.5-1.1,3-2.3,4.5-3.4c-0.7-0.5-1.4-1-2.1-1.5c-0.9,0.3-1.9,0.6-2.8,0.8c-1-0.3-2-0.6-3-0.9
	c-0.7,0.5-1.4,1-2.1,1.5c1.5,1.1,3,2.3,4.5,3.4v0.8c0.2-0.1,0.3-0.3,0.5-0.4c0.1,0.1,0.3,0.2,0.4,0.3V22z"/>
<g>
	<g>
		<path class="st28" d="M9.2,31.5c0.7,0.1,0.8-1.9,3.1-5.2c2.5-3.6,4.7-4.5,4.3-5.8c-0.3-1.1-2.3-1.6-3.6-1.5
			c-2,0.2-3.1,1.7-3.6,2.3C6.6,25.1,8,31.4,9.2,31.5z"/>
		<g>
			<path class="st6" d="M15.8,19.8c-0.4-0.2-0.8-0.4-1.2-0.5c-0.7-0.2-1.4-0.3-2-0.3c0.2-0.2,1.5-0.7,2.6,0.1
				C15.5,19.2,15.9,19.6,15.8,19.8z"/>
			<path class="st5" d="M15.8,19.8C15.8,19.8,15.8,19.8,15.8,19.8c-0.1,0.3-0.8,0.1-0.9,0.1c-0.7-0.1-0.8-0.5-1.7-0.7
				C12.8,19,12.6,19,12.6,19c0,0,0,0,0,0c0,0,0,0,0,0c0.6,0,1.3,0.1,2,0.3C15.1,19.4,15.5,19.6,15.8,19.8z"/>
		</g>
		<g>
			<path class="st6" d="M14.2,19.7c-0.4-0.1-0.8-0.1-1.3-0.1c-0.8,0-1.5,0.1-2,0.3c0.1-0.3,1.3-1.1,2.5-0.7
				C13.7,19.3,14.2,19.5,14.2,19.7z"/>
			<path class="st5" d="M14.2,19.7C14.2,19.7,14.2,19.7,14.2,19.7c0,0.3-0.7,0.4-0.8,0.4c-0.7,0.1-0.9-0.2-1.8-0.2
				c-0.5,0-0.7,0.1-0.7,0c0,0,0,0,0,0c0,0,0,0,0,0c0.6-0.2,1.3-0.3,2-0.3C13.4,19.6,13.8,19.6,14.2,19.7z"/>
		</g>
		<g>
			<path class="st6" d="M12.5,20.1c-0.4,0.1-0.8,0.1-1.3,0.3c-0.7,0.2-1.4,0.5-1.9,0.9c0-0.3,0.9-1.4,2.2-1.4
				C11.9,19.9,12.4,20,12.5,20.1z"/>
			<path class="st5" d="M12.5,20.1C12.5,20.1,12.5,20.2,12.5,20.1c0.1,0.3-0.6,0.6-0.7,0.6c-0.7,0.3-0.9,0.1-1.8,0.3
				c-0.5,0.1-0.7,0.3-0.7,0.2c0,0,0,0,0,0c0,0,0,0,0,0c0.5-0.3,1.1-0.6,1.9-0.9C11.6,20.3,12.1,20.2,12.5,20.1z"/>
		</g>
		<g>
			<path class="st6" d="M11.6,21.3c-0.4,0.1-0.8,0.1-1.3,0.3c-0.7,0.2-1.4,0.5-1.9,0.9c0-0.3,0.9-1.4,2.2-1.4
				C11,21,11.6,21.1,11.6,21.3z"/>
			<path class="st5" d="M11.6,21.3C11.7,21.3,11.7,21.3,11.6,21.3c0.1,0.3-0.6,0.6-0.7,0.6c-0.7,0.3-0.9,0.1-1.8,0.3
				c-0.5,0.1-0.7,0.3-0.7,0.2c0,0,0,0,0,0c0,0,0,0,0,0c0.5-0.3,1.1-0.6,1.9-0.9C10.8,21.4,11.2,21.3,11.6,21.3z"/>
		</g>
		<g>
			<path class="st6" d="M10.3,21.7c-0.3,0.2-0.7,0.5-1,0.9c-0.6,0.6-1,1.1-1.3,1.7c-0.1-0.3,0.2-1.7,1.3-2.3
				C9.6,21.7,10.1,21.6,10.3,21.7z"/>
			<path class="st5" d="M10.3,21.7C10.3,21.7,10.3,21.7,10.3,21.7c0.2,0.2-0.3,0.8-0.3,0.9c-0.4,0.6-0.8,0.5-1.4,1.2
				c-0.4,0.4-0.4,0.6-0.5,0.5c0,0,0,0,0,0c0,0,0,0,0,0c0.3-0.5,0.7-1.1,1.3-1.7C9.6,22.2,10,21.9,10.3,21.7z"/>
		</g>
		<g>
			<path class="st6" d="M10,23.1c-0.3,0.2-0.7,0.5-1,0.9c-0.6,0.6-1,1.1-1.3,1.7c-0.1-0.3,0.2-1.7,1.3-2.3C9.3,23.2,9.8,23,10,23.1z
				"/>
			<path class="st5" d="M10,23.1C10,23.1,10,23.1,10,23.1c0.2,0.2-0.3,0.8-0.3,0.9c-0.4,0.6-0.8,0.5-1.4,1.2
				c-0.4,0.4-0.4,0.6-0.5,0.5c0,0,0,0,0,0c0,0,0,0,0,0C8,25.1,8.4,24.5,8.9,24C9.3,23.6,9.6,23.4,10,23.1z"/>
		</g>
		<g>
			<path class="st6" d="M9.1,24.5c-0.2,0.3-0.5,0.7-0.7,1.2c-0.4,0.7-0.6,1.4-0.7,2c-0.2-0.2-0.4-1.7,0.6-2.6
				C8.5,24.8,8.9,24.5,9.1,24.5z"/>
			<path class="st5" d="M9.1,24.5C9.1,24.5,9.1,24.6,9.1,24.5c0.2,0.1,0,0.8-0.1,0.9c-0.3,0.7-0.6,0.8-1,1.6
				c-0.3,0.5-0.3,0.7-0.3,0.7c0,0,0,0,0,0c0,0,0,0,0,0c0.1-0.6,0.3-1.3,0.7-2C8.6,25.3,8.8,24.9,9.1,24.5z"/>
		</g>
		<g>
			<path class="st6" d="M9.2,26.1c-0.2,0.3-0.5,0.7-0.7,1.2c-0.4,0.7-0.6,1.4-0.7,2c-0.2-0.2-0.4-1.7,0.6-2.6
				C8.6,26.3,9,26,9.2,26.1z"/>
			<path class="st5" d="M9.2,26.1C9.2,26.1,9.3,26.1,9.2,26.1c0.2,0.1,0,0.8-0.1,0.9c-0.3,0.7-0.6,0.8-1,1.6
				c-0.3,0.5-0.3,0.7-0.3,0.7c0,0,0,0,0,0c0,0,0,0,0,0c0.1-0.6,0.3-1.3,0.7-2C8.7,26.8,9,26.4,9.2,26.1z"/>
		</g>
		<g>
			<path class="st6" d="M9.4,26.6c-0.2,0.3-0.5,0.7-0.7,1.2c-0.4,0.7-0.6,1.4-0.7,2c-0.2-0.2-0.4-1.7,0.6-2.6
				C8.8,26.9,9.2,26.6,9.4,26.6z"/>
			<path class="st5" d="M9.4,26.6C9.4,26.6,9.4,26.6,9.4,26.6c0.2,0.1,0,0.8-0.1,0.9c-0.3,0.7-0.6,0.8-1,1.6
				c-0.3,0.5-0.3,0.7-0.3,0.7c0,0,0,0,0,0c0,0,0,0,0,0c0.1-0.6,0.3-1.3,0.7-2C8.9,27.4,9.2,27,9.4,26.6z"/>
		</g>
		<g>
			<path class="st6" d="M9.7,27.4c-0.2,0.3-0.5,0.7-0.7,1.2c-0.4,0.7-0.6,1.4-0.7,2c-0.2-0.2-0.4-1.7,0.6-2.6
				C9.1,27.6,9.5,27.3,9.7,27.4z"/>
			<path class="st5" d="M9.7,27.4C9.7,27.4,9.7,27.4,9.7,27.4c0.2,0.1,0,0.8-0.1,0.9c-0.3,0.7-0.6,0.8-1,1.6
				c-0.3,0.5-0.3,0.7-0.3,0.7c0,0,0,0,0,0c0,0,0,0,0,0c0.1-0.6,0.3-1.3,0.7-2C9.2,28.1,9.5,27.7,9.7,27.4z"/>
		</g>
		<g>
			<path class="st6" d="M9.9,28c-0.2,0.3-0.5,0.7-0.7,1.2c-0.4,0.7-0.6,1.4-0.7,2c-0.2-0.2-0.4-1.7,0.6-2.6
				C9.3,28.2,9.7,27.9,9.9,28z"/>
			<path class="st5" d="M9.9,28C9.9,28,9.9,28,9.9,28c0.2,0.1,0,0.8-0.1,0.9c-0.3,0.7-0.6,0.8-1,1.6c-0.3,0.5-0.3,0.7-0.3,0.7
				c0,0,0,0,0,0c0,0,0,0,0,0c0.1-0.6,0.3-1.3,0.7-2C9.4,28.7,9.7,28.3,9.9,28z"/>
		</g>
		<g>
			<path class="st6" d="M16.5,20.8c-0.2,0.3-0.5,0.7-0.7,1.2c-0.4,0.7-0.6,1.4-0.7,2c-0.2-0.2-0.4-1.7,0.6-2.6
				C15.9,21.1,16.3,20.8,16.5,20.8z"/>
			<path class="st5" d="M16.5,20.8C16.5,20.8,16.5,20.8,16.5,20.8c0.2,0.1,0,0.8-0.1,0.9c-0.3,0.7-0.6,0.8-1,1.6
				c-0.3,0.5-0.3,0.7-0.3,0.7c0,0,0,0,0,0c0,0,0,0,0,0c0.1-0.6,0.3-1.3,0.7-2C16,21.6,16.2,21.2,16.5,20.8z"/>
		</g>
		<g>
			<path class="st6" d="M15.1,21.1c-0.1,0.4-0.3,0.8-0.3,1.3c-0.1,0.8-0.1,1.5-0.1,2.1c-0.2-0.2-0.8-1.5-0.3-2.7
				C14.6,21.5,14.9,21.1,15.1,21.1z"/>
			<path class="st5" d="M15.1,21.1C15.2,21.1,15.2,21.1,15.1,21.1c0.3,0,0.2,0.8,0.2,0.9c0,0.7-0.3,0.9-0.5,1.8
				c-0.1,0.5,0,0.7-0.1,0.7c0,0,0,0,0,0c0,0,0,0,0,0c-0.1-0.6-0.1-1.3,0.1-2.1C14.9,21.9,15,21.5,15.1,21.1z"/>
		</g>
		<g>
			<path class="st6" d="M14.1,21.5C14,21.9,14,22.4,14,22.9c0,0.8,0.2,1.5,0.3,2.1c-0.3-0.1-1.1-1.3-0.8-2.6
				C13.7,22.1,13.9,21.6,14.1,21.5z"/>
			<path class="st5" d="M14.1,21.5C14.1,21.5,14.1,21.5,14.1,21.5c0.3,0,0.4,0.7,0.4,0.8c0.1,0.7-0.2,1-0.1,1.9c0,0.6,0.1,0.7,0,0.7
				c0,0,0,0,0,0c0,0,0,0,0,0c-0.2-0.6-0.3-1.3-0.3-2.1C14,22.4,14,21.9,14.1,21.5z"/>
		</g>
		<g>
			<path class="st6" d="M14.2,22.4c-0.2,0.4-0.4,0.8-0.5,1.3c-0.2,0.8-0.3,1.5-0.4,2.1c-0.2-0.2-0.6-1.6,0.1-2.7
				C13.7,22.8,14,22.4,14.2,22.4z"/>
			<path class="st5" d="M14.2,22.4C14.2,22.4,14.2,22.4,14.2,22.4c0.3,0.1,0.1,0.8,0.1,0.9c-0.1,0.7-0.5,0.9-0.8,1.7
				c-0.2,0.5-0.1,0.7-0.2,0.7c0,0,0,0,0,0c0,0,0,0,0,0c0-0.6,0.1-1.3,0.4-2.1C13.8,23.2,14,22.8,14.2,22.4z"/>
		</g>
		<g>
			<path class="st6" d="M13.5,23.2c-0.2,0.4-0.4,0.8-0.5,1.3c-0.2,0.8-0.3,1.5-0.4,2.1c-0.2-0.2-0.6-1.6,0.1-2.7
				C13,23.6,13.3,23.2,13.5,23.2z"/>
			<path class="st5" d="M13.5,23.2C13.5,23.2,13.6,23.2,13.5,23.2c0.3,0.1,0.1,0.8,0.1,0.9c-0.1,0.7-0.5,0.9-0.8,1.7
				c-0.2,0.5-0.1,0.7-0.2,0.7c0,0,0,0,0,0c0,0,0,0,0,0c0-0.6,0.1-1.3,0.4-2.1C13.2,24,13.3,23.6,13.5,23.2z"/>
		</g>
		<g>
			<path class="st6" d="M10.8,24.9c0.2,0.4,0.4,0.8,0.5,1.3c0.2,0.8,0.3,1.5,0.4,2.1c0.2-0.2,0.6-1.6-0.1-2.7
				C11.3,25.2,11,24.8,10.8,24.9z"/>
			<path class="st5" d="M10.8,24.9C10.8,24.9,10.8,24.9,10.8,24.9c-0.3,0.1-0.1,0.8-0.1,0.9c0.1,0.7,0.5,0.9,0.8,1.7
				c0.2,0.5,0.1,0.7,0.2,0.7c0,0,0,0,0,0c0,0,0,0,0,0c0-0.6-0.1-1.3-0.4-2.1C11.2,25.7,11,25.2,10.8,24.9z"/>
		</g>
		<g>
			<path class="st6" d="M10.3,25.6c0.2,0.4,0.4,0.8,0.5,1.3c0.2,0.8,0.3,1.5,0.4,2.1c0.2-0.2,0.6-1.6-0.1-2.7
				C10.8,26,10.5,25.6,10.3,25.6z"/>
			<path class="st5" d="M10.3,25.6C10.3,25.6,10.3,25.6,10.3,25.6c-0.3,0.1-0.1,0.8-0.1,0.9c0.1,0.7,0.5,0.9,0.8,1.7
				c0.2,0.5,0.1,0.7,0.2,0.7c0,0,0,0,0,0c0,0,0,0,0,0c0-0.6-0.1-1.3-0.4-2.1C10.7,26.4,10.5,26,10.3,25.6z"/>
		</g>
		<g>
			<path class="st6" d="M9.7,26.7c0.2,0.4,0.4,0.8,0.5,1.3c0.2,0.8,0.3,1.5,0.4,2.1c0.2-0.2,0.6-1.6-0.1-2.7
				C10.3,27,9.9,26.6,9.7,26.7z"/>
			<path class="st5" d="M9.7,26.7C9.7,26.7,9.7,26.7,9.7,26.7c-0.3,0.1-0.1,0.8-0.1,0.9c0.1,0.7,0.5,0.9,0.8,1.7
				c0.2,0.5,0.1,0.7,0.2,0.7c0,0,0,0,0,0c0,0,0,0,0,0c0-0.6-0.1-1.3-0.4-2.1C10.1,27.5,9.9,27,9.7,26.7z"/>
		</g>
		<g>
			<path class="st6" d="M9.3,27.4c0.2,0.4,0.4,0.8,0.5,1.3c0.2,0.8,0.3,1.5,0.4,2.1c0.2-0.2,0.6-1.6-0.1-2.7
				C9.8,27.7,9.5,27.4,9.3,27.4z"/>
			<path class="st5" d="M9.3,27.4C9.3,27.4,9.3,27.4,9.3,27.4c-0.3,0.1-0.1,0.8-0.1,0.9C9.3,29,9.7,29.2,9.9,30
				c0.2,0.5,0.1,0.7,0.2,0.7c0,0,0,0,0,0c0,0,0,0,0,0c0-0.6-0.1-1.3-0.4-2.1C9.7,28.2,9.5,27.8,9.3,27.4z"/>
		</g>
		<g>
			<path class="st6" d="M8.8,28.5c0.2,0.4,0.4,0.8,0.5,1.3c0.2,0.8,0.3,1.5,0.4,2.1c0.2-0.2,0.6-1.6-0.1-2.7
				C9.4,28.8,9,28.5,8.8,28.5z"/>
			<path class="st5" d="M8.8,28.5C8.8,28.5,8.8,28.5,8.8,28.5c-0.3,0.1-0.1,0.8-0.1,0.9c0.1,0.7,0.5,0.9,0.8,1.7
				c0.2,0.5,0.1,0.7,0.2,0.7c0,0,0,0,0,0c0,0,0,0,0,0c0-0.6-0.1-1.3-0.4-2.1C9.2,29.3,9,28.9,8.8,28.5z"/>
		</g>
		<g>
			<path class="st6" d="M11.4,24.4c0.2,0.4,0.4,0.8,0.5,1.3c0.2,0.8,0.3,1.5,0.4,2.1c0.2-0.2,0.6-1.6-0.1-2.7
				C11.9,24.7,11.6,24.3,11.4,24.4z"/>
			<path class="st5" d="M11.4,24.4C11.3,24.4,11.3,24.4,11.4,24.4c-0.3,0.1-0.1,0.8-0.1,0.9c0.1,0.7,0.5,0.9,0.8,1.7
				c0.2,0.5,0.1,0.7,0.2,0.7c0,0,0,0,0,0c0,0,0,0,0,0c0-0.6-0.1-1.3-0.4-2.1C11.7,25.2,11.5,24.7,11.4,24.4z"/>
		</g>
		<g>
			<path class="st6" d="M9.6,28.8c-0.1,0.4-0.2,0.9-0.3,1.5c-0.1,0.9,0,1.6,0.1,2.3c-0.3-0.1-1.1-1.5-0.5-2.9
				C9,29.4,9.3,28.8,9.6,28.8z"/>
			<path class="st5" d="M9.6,28.8C9.6,28.8,9.6,28.8,9.6,28.8c0.3,0,0.3,0.8,0.4,0.9c0,0.8-0.3,1-0.4,2c-0.1,0.6,0,0.8,0,0.8
				c0,0,0,0,0,0c0,0,0,0,0,0c-0.1-0.7-0.2-1.4-0.1-2.3C9.3,29.8,9.4,29.3,9.6,28.8z"/>
		</g>
		<g>
			<path class="st6" d="M14.1,21.4c-0.4,0.4-0.8,0.9-1.2,1.5c-0.6,0.9-1,1.9-1.2,2.7c-0.3-0.4-0.6-2.5,0.9-3.7
				C13.1,21.6,13.8,21.2,14.1,21.4z"/>
			<path class="st5" d="M14.1,21.4C14.1,21.4,14.1,21.4,14.1,21.4c0.4,0.2,0,1.2-0.1,1.3c-0.4,0.9-1,1-1.7,2.1
				c-0.4,0.7-0.4,0.9-0.5,0.9c0,0,0,0-0.1,0c0,0,0,0,0,0c0.2-0.8,0.6-1.8,1.2-2.7C13.3,22.3,13.7,21.8,14.1,21.4z"/>
		</g>
		<g>
			<path class="st6" d="M16.5,20.6c-0.6,0.2-1.1,0.4-1.7,0.8c-0.9,0.5-1.7,1.2-2.3,1.8c-0.1-0.4,0.6-2.5,2.5-2.8
				C15.5,20.3,16.3,20.3,16.5,20.6z"/>
			<path class="st5" d="M16.5,20.6C16.5,20.6,16.5,20.6,16.5,20.6c0.2,0.4-0.5,1-0.7,1.1c-0.8,0.6-1.3,0.4-2.4,1
				c-0.7,0.4-0.8,0.6-0.9,0.6c0,0,0,0,0-0.1c0,0,0,0,0,0c0.6-0.6,1.3-1.3,2.3-1.8C15.4,21,16,20.8,16.5,20.6z"/>
		</g>
		<g>
			<path class="st6" d="M10.8,22.4c-0.3,0.5-0.5,1.1-0.7,1.8c-0.3,1.1-0.4,2.1-0.4,3c-0.4-0.3-1.2-2.3,0-3.8
				C9.9,23,10.5,22.4,10.8,22.4z"/>
			<path class="st5" d="M10.8,22.4C10.9,22.4,10.9,22.4,10.8,22.4c0.4,0.1,0.3,1.1,0.2,1.3c-0.2,1-0.7,1.2-1.1,2.4
				c-0.2,0.7-0.2,1-0.3,1c0,0,0,0-0.1,0c0,0,0,0,0,0c0-0.9,0.1-1.9,0.4-3C10.3,23.6,10.6,23,10.8,22.4z"/>
		</g>
		<g>
			<path class="st6" d="M12.4,20.3c-0.3,0.5-0.5,1.1-0.7,1.8c-0.3,1.1-0.4,2.1-0.4,3c-0.4-0.3-1.2-2.3,0-3.8
				C11.6,20.9,12.1,20.3,12.4,20.3z"/>
			<path class="st5" d="M12.4,20.3c0,0,0.4-0.1,0.7,0.1c0,0,0.1,0.1,0.2,0.2c0.1,0.3-0.3,0.6-0.6,0.9c-0.6,0.7-0.8,1.4-1.1,2.4
				c-0.2,0.7-0.2,1-0.3,1c0,0,0,0-0.1,0c0,0,0,0,0,0c0-0.9,0.1-1.9,0.4-3C11.9,21.5,12.2,20.9,12.4,20.3z"/>
		</g>
		<g>
			<path class="st6" d="M10.2,26.2c-0.1,0.2-0.2,0.5-0.3,0.7c-0.1,0.4-0.2,0.9-0.2,1.2c-0.1-0.1-0.5-0.9,0-1.6
				C9.8,26.4,10,26.2,10.2,26.2z"/>
			<path class="st5" d="M10.2,26.2C10.2,26.2,10.2,26.2,10.2,26.2c0.2,0,0.1,0.5,0.1,0.5c-0.1,0.4-0.3,0.5-0.4,1
				c-0.1,0.3-0.1,0.4-0.1,0.4c0,0,0,0,0,0c0,0,0,0,0,0c0-0.4,0-0.8,0.2-1.2C10,26.7,10.1,26.4,10.2,26.2z"/>
		</g>
		<g>
			<path class="st6" d="M10.4,21.6c-0.1,0.2-0.2,0.5-0.3,0.7c-0.1,0.4-0.2,0.9-0.2,1.2c-0.1-0.1-0.5-0.9,0-1.6
				C10,21.8,10.2,21.6,10.4,21.6z"/>
			<path class="st5" d="M10.4,21.6C10.4,21.6,10.4,21.6,10.4,21.6c0.2,0,0.1,0.5,0.1,0.5c-0.1,0.4-0.3,0.5-0.4,1
				c-0.1,0.3-0.1,0.4-0.1,0.4c0,0,0,0,0,0c0,0,0,0,0,0c0-0.4,0-0.8,0.2-1.2C10.1,22,10.3,21.8,10.4,21.6z"/>
		</g>
		<g>
			<path class="st6" d="M11,25.6c-0.1,0.2-0.2,0.5-0.3,0.7c-0.1,0.4-0.2,0.9-0.2,1.2c-0.1-0.1-0.5-0.9,0-1.6
				C10.6,25.8,10.8,25.6,11,25.6z"/>
			<path class="st5" d="M11,25.6C11,25.6,11,25.6,11,25.6c0.2,0,0.1,0.5,0.1,0.5c-0.1,0.4-0.3,0.5-0.4,1c-0.1,0.3-0.1,0.4-0.1,0.4
				c0,0,0,0,0,0c0,0,0,0,0,0c0-0.4,0-0.8,0.2-1.2C10.8,26.1,10.9,25.9,11,25.6z"/>
		</g>
		<g>
			<path class="st6" d="M13.8,22.7c-0.1,0.2-0.2,0.5-0.3,0.7c-0.1,0.4-0.2,0.9-0.2,1.2c-0.1-0.1-0.5-0.9,0-1.6
				C13.5,22.9,13.7,22.6,13.8,22.7z"/>
			<path class="st5" d="M13.8,22.7C13.8,22.7,13.9,22.7,13.8,22.7c0.2,0,0.1,0.5,0.1,0.5c-0.1,0.4-0.3,0.5-0.4,1
				c-0.1,0.3-0.1,0.4-0.1,0.4c0,0,0,0,0,0c0,0,0,0,0,0c0-0.4,0-0.8,0.2-1.2C13.6,23.1,13.7,22.9,13.8,22.7z"/>
		</g>
		<g>
			<path class="st6" d="M9.4,28c-0.1,0.2-0.2,0.5-0.3,0.7c-0.1,0.4-0.2,0.9-0.2,1.2c-0.1-0.1-0.5-0.9,0-1.6C9,28.2,9.2,28,9.4,28z"
				/>
			<path class="st5" d="M9.4,28C9.4,28,9.4,28,9.4,28c0.2,0,0.1,0.5,0.1,0.5c-0.1,0.4-0.3,0.5-0.4,1C8.9,29.8,9,30,8.9,30
				c0,0,0,0,0,0c0,0,0,0,0,0c0-0.4,0-0.8,0.2-1.2C9.2,28.4,9.3,28.2,9.4,28z"/>
		</g>
		<g>
			<path class="st6" d="M8.9,25.4c-0.1,0.2-0.2,0.5-0.3,0.7c-0.1,0.4-0.2,0.9-0.2,1.2c-0.1-0.1-0.5-0.9,0-1.6
				C8.6,25.6,8.8,25.4,8.9,25.4z"/>
			<path class="st5" d="M8.9,25.4C8.9,25.4,8.9,25.4,8.9,25.4c0.2,0,0.1,0.5,0.1,0.5c-0.1,0.4-0.3,0.5-0.4,1
				c-0.1,0.3-0.1,0.4-0.1,0.4c0,0,0,0,0,0c0,0,0,0,0,0c0-0.4,0-0.8,0.2-1.2C8.7,25.9,8.8,25.6,8.9,25.4z"/>
		</g>
		<g>
			<path class="st6" d="M14.9,20.1c-0.1-0.2-0.3-0.4-0.5-0.6c-0.3-0.3-0.7-0.5-1-0.7c0.2-0.1,1-0.1,1.4,0.6
				C14.8,19.7,14.9,20,14.9,20.1z"/>
			<path class="st5" d="M14.9,20.1C14.9,20.1,14.9,20.2,14.9,20.1c-0.1,0.1-0.5-0.1-0.5-0.1c-0.3-0.2-0.3-0.5-0.7-0.8
				c-0.2-0.2-0.3-0.2-0.3-0.3c0,0,0,0,0,0c0,0,0,0,0,0c0.3,0.1,0.7,0.4,1,0.7C14.6,19.7,14.7,19.9,14.9,20.1z"/>
		</g>
		<g>
			<path class="st6" d="M13.4,20.1C13.2,20,12.9,20,12.6,20c-0.4,0-0.8,0-1.2,0.1c0.1-0.2,0.8-0.7,1.5-0.4
				C13.1,19.8,13.4,19.9,13.4,20.1z"/>
			<path class="st5" d="M13.4,20.1C13.4,20.1,13.4,20.1,13.4,20.1c0,0.2-0.4,0.2-0.5,0.2c-0.4,0-0.5-0.2-1.1-0.2c-0.3,0-0.4,0-0.4,0
				c0,0,0,0,0,0c0,0,0,0,0,0c0.3-0.1,0.7-0.1,1.2-0.1C12.9,20,13.2,20,13.4,20.1z"/>
		</g>
		<g>
			<path class="st6" d="M16.2,20.1c-0.2-0.1-0.5-0.1-0.8-0.1c-0.4,0-0.8,0-1.2,0.1c0.1-0.2,0.8-0.7,1.5-0.4
				C15.9,19.8,16.2,20,16.2,20.1z"/>
			<path class="st5" d="M16.2,20.1C16.2,20.2,16.2,20.2,16.2,20.1c0,0.2-0.4,0.2-0.5,0.2c-0.4,0-0.5-0.2-1.1-0.2c-0.3,0-0.4,0-0.4,0
				c0,0,0,0,0,0c0,0,0,0,0,0C14.6,20,15,20,15.4,20C15.7,20,15.9,20.1,16.2,20.1z"/>
		</g>
		<g>
			<path class="st6" d="M13.8,21.4c-0.2,0.1-0.5,0.2-0.7,0.3c-0.4,0.2-0.7,0.5-1,0.7c0-0.2,0.3-1,1.1-1.1
				C13.4,21.2,13.7,21.3,13.8,21.4z"/>
			<path class="st5" d="M13.8,21.4C13.8,21.4,13.8,21.4,13.8,21.4c0.1,0.2-0.2,0.4-0.3,0.4c-0.3,0.2-0.5,0.1-1,0.4
				c-0.3,0.1-0.3,0.2-0.4,0.2c0,0,0,0,0,0c0,0,0,0,0,0c0.3-0.2,0.6-0.5,1-0.7C13.3,21.5,13.5,21.4,13.8,21.4z"/>
		</g>
		<g>
			<path class="st6" d="M14.8,20.7c-0.2,0-0.5-0.1-0.8,0c-0.4,0-0.8,0.1-1.2,0.3c0-0.2,0.7-0.8,1.4-0.6
				C14.4,20.4,14.7,20.5,14.8,20.7z"/>
			<path class="st5" d="M14.8,20.7C14.8,20.7,14.8,20.7,14.8,20.7c0,0.2-0.4,0.3-0.5,0.3c-0.4,0.1-0.6-0.1-1.1-0.1
				c-0.3,0-0.4,0.1-0.4,0c0,0,0,0,0,0c0,0,0,0,0,0c0.3-0.1,0.7-0.2,1.2-0.3C14.3,20.6,14.5,20.6,14.8,20.7z"/>
		</g>
		<g>
			<path class="st6" d="M14.4,20.1c-0.2,0-0.5-0.1-0.8,0c-0.4,0-0.8,0.1-1.2,0.3c0-0.2,0.7-0.8,1.4-0.6C14.1,19.9,14.4,20,14.4,20.1
				z"/>
			<path class="st5" d="M14.4,20.1C14.4,20.2,14.4,20.2,14.4,20.1c0,0.2-0.4,0.3-0.5,0.3c-0.4,0.1-0.6-0.1-1.1-0.1
				c-0.3,0-0.4,0.1-0.4,0c0,0,0,0,0,0c0,0,0,0,0,0c0.3-0.1,0.7-0.2,1.2-0.3C13.9,20.1,14.1,20.1,14.4,20.1z"/>
		</g>
		<g>
			<path class="st6" d="M15.7,19.9c0.2,0.2,0.4,0.4,0.5,0.6c0.3,0.4,0.5,0.7,0.6,1.1c0.1-0.2,0.1-1-0.5-1.5
				C16.1,20,15.8,19.9,15.7,19.9z"/>
			<path class="st5" d="M15.7,19.9C15.7,19.9,15.7,19.9,15.7,19.9c-0.1,0.1,0.1,0.5,0.1,0.5c0.2,0.4,0.4,0.4,0.8,0.8
				c0.2,0.3,0.2,0.4,0.3,0.4c0,0,0,0,0,0c0,0,0,0,0,0c-0.1-0.3-0.3-0.7-0.6-1.1C16.1,20.3,15.9,20.1,15.7,19.9z"/>
		</g>
		<g>
			<path class="st6" d="M15.3,19.5c0.2,0.1,0.5,0.2,0.7,0.3c0.4,0.2,0.7,0.5,1,0.7c0-0.2-0.3-1-1.1-1.1
				C15.7,19.4,15.4,19.4,15.3,19.5z"/>
			<path class="st5" d="M15.3,19.5C15.3,19.5,15.3,19.5,15.3,19.5c-0.1,0.2,0.2,0.4,0.3,0.5c0.3,0.2,0.5,0.1,1,0.4
				c0.3,0.1,0.3,0.2,0.4,0.2c0,0,0,0,0,0c0,0,0,0,0,0c-0.2-0.3-0.6-0.5-1-0.7C15.8,19.7,15.5,19.6,15.3,19.5z"/>
		</g>
		<g>
			<path class="st6" d="M15.6,19.5c-0.1-0.2-0.2-0.3-0.3-0.5c-0.2-0.3-0.5-0.4-0.7-0.6c0.1-0.1,0.8,0,1,0.6
				C15.6,19.2,15.7,19.4,15.6,19.5z"/>
			<path class="st5" d="M15.6,19.5C15.6,19.5,15.6,19.5,15.6,19.5c-0.1,0.1-0.3-0.1-0.4-0.1C15,19.2,15,19,14.7,18.7
				c-0.2-0.2-0.2-0.2-0.2-0.2c0,0,0,0,0,0c0,0,0,0,0,0c0.2,0.1,0.5,0.3,0.7,0.6C15.4,19.2,15.5,19.4,15.6,19.5z"/>
		</g>
		<g>
			<path class="st6" d="M9,30.6C9,30.8,8.9,31,8.8,31.2c-0.1,0.3-0.1,0.7,0,0.9c-0.1-0.1-0.4-0.7-0.1-1.2C8.8,30.8,8.9,30.6,9,30.6z
				"/>
			<path class="st5" d="M9,30.6C9,30.6,9,30.6,9,30.6c0.1,0,0.1,0.3,0.1,0.4c0,0.3-0.2,0.4-0.3,0.8c-0.1,0.2,0,0.3-0.1,0.3
				c0,0,0,0,0,0c0,0,0,0,0,0c0-0.3,0-0.6,0-0.9C8.9,31,9,30.8,9,30.6z"/>
		</g>
	</g>
	<g>
		<path class="st28" d="M30.2,30.2c-0.6,0.1-0.7-1.7-2.7-4.7c-2.2-3.3-4.1-4.1-3.8-5.3c0.3-1,2-1.5,3.2-1.4c1.7,0.2,2.8,1.6,3.1,2.1
			C32.5,24.3,31.3,30,30.2,30.2z"/>
		<g>
			<path class="st6" d="M24.3,19.4c0.3-0.2,0.7-0.3,1.1-0.5c0.6-0.2,1.2-0.3,1.8-0.3c-0.2-0.2-1.3-0.6-2.3,0.1
				C24.7,18.9,24.3,19.3,24.3,19.4z"/>
			<path class="st5" d="M24.3,19.4C24.3,19.5,24.3,19.5,24.3,19.4c0.1,0.2,0.7,0.1,0.8,0.1c0.6-0.1,0.7-0.4,1.5-0.7
				c0.4-0.2,0.6-0.1,0.6-0.2c0,0,0,0,0,0c0,0,0,0,0,0c-0.5,0-1.1,0.1-1.8,0.3C25,19.1,24.7,19.3,24.3,19.4z"/>
		</g>
		<g>
			<path class="st6" d="M25.8,19.4c0.4-0.1,0.7-0.1,1.2-0.1c0.7,0,1.3,0.1,1.8,0.2c-0.1-0.2-1.1-1-2.2-0.6
				C26.2,19,25.8,19.2,25.8,19.4z"/>
			<path class="st5" d="M25.8,19.4C25.8,19.4,25.8,19.4,25.8,19.4c0,0.3,0.6,0.3,0.7,0.3c0.6,0.1,0.8-0.2,1.6-0.2
				c0.5,0,0.6,0.1,0.6,0c0,0,0,0,0,0c0,0,0,0,0,0c-0.5-0.1-1.1-0.2-1.8-0.2C26.5,19.3,26.1,19.3,25.8,19.4z"/>
		</g>
		<g>
			<path class="st6" d="M27.3,19.8c0.4,0,0.7,0.1,1.1,0.2c0.6,0.2,1.2,0.5,1.6,0.8c0-0.3-0.8-1.3-1.9-1.3
				C27.8,19.5,27.4,19.6,27.3,19.8z"/>
			<path class="st5" d="M27.3,19.8C27.3,19.8,27.3,19.8,27.3,19.8c-0.1,0.2,0.5,0.5,0.6,0.6c0.6,0.3,0.8,0.1,1.6,0.3
				c0.5,0.1,0.6,0.3,0.6,0.2c0,0,0,0,0,0c0,0,0,0,0,0c-0.4-0.3-1-0.6-1.6-0.8C28,19.9,27.7,19.8,27.3,19.8z"/>
		</g>
		<g>
			<path class="st6" d="M28,20.8c0.4,0,0.7,0.1,1.1,0.2c0.6,0.2,1.2,0.5,1.6,0.8c0-0.3-0.8-1.3-1.9-1.3C28.6,20.6,28.1,20.6,28,20.8
				z"/>
			<path class="st5" d="M28,20.8C28,20.8,28,20.8,28,20.8c-0.1,0.2,0.5,0.5,0.6,0.6c0.6,0.3,0.8,0.1,1.6,0.3
				c0.5,0.1,0.6,0.3,0.6,0.2c0,0,0,0,0,0c0,0,0,0,0,0c-0.4-0.3-1-0.6-1.6-0.8C28.8,20.9,28.4,20.9,28,20.8z"/>
		</g>
		<g>
			<path class="st6" d="M29.2,21.2c0.3,0.2,0.6,0.5,0.9,0.8c0.5,0.5,0.8,1,1.1,1.5c0.1-0.2-0.1-1.6-1.2-2.1
				C29.8,21.2,29.4,21.1,29.2,21.2z"/>
			<path class="st5" d="M29.2,21.2C29.2,21.2,29.2,21.2,29.2,21.2c-0.2,0.2,0.2,0.7,0.3,0.8c0.4,0.5,0.7,0.5,1.3,1.1
				c0.3,0.3,0.4,0.5,0.4,0.5c0,0,0,0,0,0c0,0,0,0,0,0c-0.3-0.5-0.6-1-1.1-1.5C29.8,21.7,29.5,21.4,29.2,21.2z"/>
		</g>
		<g>
			<path class="st6" d="M29.5,22.5c0.3,0.2,0.6,0.5,0.9,0.8c0.5,0.5,0.8,1,1.1,1.5c0.1-0.2-0.1-1.6-1.2-2.1
				C30.1,22.6,29.6,22.4,29.5,22.5z"/>
			<path class="st5" d="M29.5,22.5C29.5,22.5,29.5,22.5,29.5,22.5c-0.2,0.2,0.2,0.7,0.3,0.8c0.4,0.5,0.7,0.5,1.3,1.1
				c0.3,0.3,0.4,0.5,0.4,0.5c0,0,0,0,0,0c0,0,0,0,0,0c-0.3-0.5-0.6-1-1.1-1.5C30.1,23,29.8,22.7,29.5,22.5z"/>
		</g>
		<g>
			<path class="st6" d="M30.3,23.8c0.2,0.3,0.4,0.7,0.6,1.1c0.3,0.6,0.5,1.3,0.6,1.8c0.2-0.2,0.3-1.5-0.5-2.4
				C30.8,24.1,30.5,23.8,30.3,23.8z"/>
			<path class="st5" d="M30.3,23.8C30.3,23.8,30.3,23.8,30.3,23.8c-0.2,0.1,0,0.7,0,0.9c0.2,0.6,0.5,0.7,0.9,1.4
				c0.2,0.4,0.2,0.6,0.3,0.6c0,0,0,0,0,0c0,0,0,0,0,0c-0.1-0.6-0.3-1.2-0.6-1.8C30.7,24.5,30.5,24.1,30.3,23.8z"/>
		</g>
		<g>
			<path class="st6" d="M30.1,25.2c0.2,0.3,0.4,0.7,0.6,1.1c0.3,0.6,0.5,1.3,0.6,1.8c0.2-0.2,0.3-1.5-0.5-2.4
				C30.7,25.5,30.3,25.2,30.1,25.2z"/>
			<path class="st5" d="M30.1,25.2C30.1,25.2,30.1,25.2,30.1,25.2c-0.2,0.1,0,0.7,0,0.9c0.2,0.6,0.5,0.7,0.9,1.4
				c0.2,0.4,0.2,0.6,0.3,0.6c0,0,0,0,0,0c0,0,0,0,0,0c-0.1-0.6-0.3-1.2-0.6-1.8C30.6,25.9,30.4,25.5,30.1,25.2z"/>
		</g>
		<g>
			<path class="st6" d="M30,25.7c0.2,0.3,0.4,0.7,0.6,1.1c0.3,0.6,0.5,1.3,0.6,1.8c0.2-0.2,0.3-1.5-0.5-2.4
				C30.5,26,30.1,25.7,30,25.7z"/>
			<path class="st5" d="M30,25.7C30,25.7,30,25.7,30,25.7c-0.2,0.1,0,0.7,0,0.9c0.2,0.6,0.5,0.7,0.9,1.4c0.2,0.4,0.2,0.6,0.3,0.6
				c0,0,0,0,0,0c0,0,0,0,0,0c-0.1-0.6-0.3-1.2-0.6-1.8C30.4,26.4,30.2,26,30,25.7z"/>
		</g>
		<g>
			<path class="st6" d="M29.7,26.4c0.2,0.3,0.4,0.7,0.6,1.1c0.3,0.6,0.5,1.3,0.6,1.8c0.2-0.2,0.3-1.5-0.5-2.4
				C30.3,26.6,29.9,26.3,29.7,26.4z"/>
			<path class="st5" d="M29.7,26.4C29.7,26.4,29.7,26.4,29.7,26.4c-0.2,0.1,0,0.7,0,0.9c0.2,0.6,0.5,0.7,0.9,1.4
				c0.2,0.4,0.2,0.6,0.3,0.6c0,0,0,0,0,0c0,0,0,0,0,0c-0.1-0.6-0.3-1.2-0.6-1.8C30.2,27.1,30,26.7,29.7,26.4z"/>
		</g>
		<g>
			<path class="st6" d="M29.6,27c0.2,0.3,0.4,0.7,0.6,1.1c0.3,0.6,0.5,1.3,0.6,1.8c0.2-0.2,0.3-1.5-0.5-2.4
				C30.1,27.2,29.7,26.9,29.6,27z"/>
			<path class="st5" d="M29.6,27C29.5,27,29.5,27,29.6,27c-0.2,0.1,0,0.7,0,0.9c0.2,0.6,0.5,0.7,0.9,1.4c0.2,0.4,0.2,0.6,0.3,0.6
				c0,0,0,0,0,0c0,0,0,0,0,0c-0.1-0.6-0.3-1.2-0.6-1.8C30,27.6,29.8,27.3,29.6,27z"/>
		</g>
		<g>
			<path class="st6" d="M23.8,20.4c0.2,0.3,0.4,0.7,0.6,1.1c0.3,0.6,0.5,1.3,0.6,1.8c0.2-0.2,0.3-1.5-0.5-2.4
				C24.3,20.7,23.9,20.4,23.8,20.4z"/>
			<path class="st5" d="M23.8,20.4C23.8,20.4,23.8,20.4,23.8,20.4c-0.2,0.1,0,0.7,0,0.9c0.2,0.6,0.5,0.7,0.9,1.4
				c0.2,0.4,0.2,0.6,0.3,0.6c0,0,0,0,0,0c0,0,0,0,0,0c-0.1-0.6-0.3-1.2-0.6-1.8C24.2,21.1,24,20.7,23.8,20.4z"/>
		</g>
		<g>
			<path class="st6" d="M25,20.6c0.1,0.4,0.2,0.8,0.3,1.2c0.1,0.7,0.1,1.4,0.1,1.9c0.2-0.1,0.7-1.4,0.2-2.5
				C25.4,21,25.1,20.6,25,20.6z"/>
			<path class="st5" d="M25,20.6C25,20.6,24.9,20.6,25,20.6c-0.2,0-0.2,0.7-0.2,0.8c0,0.7,0.3,0.8,0.4,1.7c0.1,0.5,0,0.7,0.1,0.7
				c0,0,0,0,0,0c0,0,0,0,0,0c0.1-0.6,0.1-1.2-0.1-1.9C25.2,21.4,25.1,21,25,20.6z"/>
		</g>
		<g>
			<path class="st6" d="M25.9,21c0.1,0.4,0.1,0.8,0.1,1.3c0,0.7-0.1,1.4-0.3,1.9c0.2-0.1,1-1.2,0.7-2.4C26.2,21.5,26.1,21.1,25.9,21
				z"/>
			<path class="st5" d="M25.9,21C25.9,21,25.9,21,25.9,21c-0.2,0-0.3,0.6-0.3,0.8c-0.1,0.7,0.1,0.9,0.1,1.7c0,0.5-0.1,0.7,0,0.7
				c0,0,0,0,0,0c0,0,0,0,0,0c0.2-0.5,0.3-1.2,0.3-1.9C26,21.9,25.9,21.4,25.9,21z"/>
		</g>
		<g>
			<path class="st6" d="M25.8,21.9c0.2,0.3,0.3,0.7,0.5,1.2c0.2,0.7,0.3,1.3,0.3,1.9c0.2-0.2,0.5-1.5-0.1-2.5
				C26.3,22.2,25.9,21.8,25.8,21.9z"/>
			<path class="st5" d="M25.8,21.9C25.8,21.9,25.8,21.9,25.8,21.9c-0.2,0.1-0.1,0.7-0.1,0.8c0.1,0.7,0.4,0.8,0.7,1.6
				c0.2,0.5,0.1,0.7,0.2,0.7c0,0,0,0,0,0c0,0,0,0,0,0c0-0.6-0.1-1.2-0.3-1.9C26.1,22.6,25.9,22.2,25.8,21.9z"/>
		</g>
		<g>
			<path class="st6" d="M26.4,22.6c0.2,0.3,0.3,0.7,0.5,1.2c0.2,0.7,0.3,1.3,0.3,1.9c0.2-0.2,0.5-1.5-0.1-2.5
				C26.9,22.9,26.5,22.6,26.4,22.6z"/>
			<path class="st5" d="M26.4,22.6C26.4,22.6,26.4,22.6,26.4,22.6c-0.2,0.1-0.1,0.7-0.1,0.8c0.1,0.7,0.4,0.8,0.7,1.6
				c0.2,0.5,0.1,0.7,0.2,0.7c0,0,0,0,0,0c0,0,0,0,0,0c0-0.6-0.1-1.2-0.3-1.9C26.7,23.3,26.5,22.9,26.4,22.6z"/>
		</g>
		<g>
			<path class="st6" d="M28.8,24.1c-0.2,0.3-0.3,0.7-0.5,1.2c-0.2,0.7-0.3,1.3-0.3,1.9c-0.2-0.2-0.5-1.5,0.1-2.5
				C28.3,24.4,28.6,24.1,28.8,24.1z"/>
			<path class="st5" d="M28.8,24.1C28.8,24.1,28.8,24.1,28.8,24.1c0.2,0.1,0.1,0.7,0.1,0.8c-0.1,0.7-0.4,0.8-0.7,1.6
				c-0.2,0.5-0.1,0.7-0.2,0.7c0,0,0,0,0,0c0,0,0,0,0,0c0-0.6,0.1-1.2,0.3-1.9C28.5,24.8,28.6,24.4,28.8,24.1z"/>
		</g>
		<g>
			<path class="st6" d="M29.2,24.8c-0.2,0.3-0.3,0.7-0.5,1.2c-0.2,0.7-0.3,1.3-0.3,1.9c-0.2-0.2-0.5-1.5,0.1-2.5
				C28.7,25.1,29.1,24.8,29.2,24.8z"/>
			<path class="st5" d="M29.2,24.8C29.2,24.8,29.2,24.8,29.2,24.8c0.2,0.1,0.1,0.7,0.1,0.8c-0.1,0.7-0.4,0.8-0.7,1.6
				c-0.2,0.5-0.1,0.7-0.2,0.7c0,0,0,0,0,0c0,0,0,0,0,0c0-0.6,0.1-1.2,0.3-1.9C28.9,25.5,29.1,25.2,29.2,24.8z"/>
		</g>
		<g>
			<path class="st6" d="M29.7,25.7c-0.2,0.3-0.3,0.7-0.5,1.2c-0.2,0.7-0.3,1.3-0.3,1.9c-0.2-0.2-0.5-1.5,0.1-2.5
				C29.2,26.1,29.5,25.7,29.7,25.7z"/>
			<path class="st5" d="M29.7,25.7C29.7,25.7,29.7,25.7,29.7,25.7c0.2,0.1,0.1,0.7,0.1,0.8c-0.1,0.7-0.4,0.8-0.7,1.6
				C29,28.6,29,28.8,29,28.8c0,0,0,0,0,0c0,0,0,0,0,0c0-0.6,0.1-1.2,0.3-1.9C29.4,26.5,29.5,26.1,29.7,25.7z"/>
		</g>
		<g>
			<path class="st6" d="M30.1,26.4c-0.2,0.3-0.3,0.7-0.5,1.2c-0.2,0.7-0.3,1.3-0.3,1.9c-0.2-0.2-0.5-1.5,0.1-2.5
				C29.6,26.7,29.9,26.4,30.1,26.4z"/>
			<path class="st5" d="M30.1,26.4C30.1,26.4,30.1,26.4,30.1,26.4c0.2,0.1,0.1,0.7,0.1,0.8c-0.1,0.7-0.4,0.8-0.7,1.6
				c-0.2,0.5-0.1,0.7-0.2,0.7c0,0,0,0,0,0c0,0,0,0,0,0c0-0.6,0.1-1.2,0.3-1.9C29.8,27.1,29.9,26.7,30.1,26.4z"/>
		</g>
		<g>
			<path class="st6" d="M30.5,27.4c-0.2,0.3-0.3,0.7-0.5,1.2c-0.2,0.7-0.3,1.3-0.3,1.9c-0.2-0.2-0.5-1.5,0.1-2.5
				C30,27.7,30.3,27.4,30.5,27.4z"/>
			<path class="st5" d="M30.5,27.4C30.5,27.4,30.5,27.4,30.5,27.4c0.2,0.1,0.1,0.7,0.1,0.8c-0.1,0.7-0.4,0.8-0.7,1.6
				c-0.2,0.5-0.1,0.7-0.2,0.7c0,0,0,0,0,0c0,0,0,0,0,0c0-0.6,0.1-1.2,0.3-1.9C30.2,28.1,30.3,27.7,30.5,27.4z"/>
		</g>
		<g>
			<path class="st6" d="M28.3,23.7c-0.2,0.3-0.3,0.7-0.5,1.2c-0.2,0.7-0.3,1.3-0.3,1.9c-0.2-0.2-0.5-1.5,0.1-2.5
				C27.8,24,28.1,23.6,28.3,23.7z"/>
			<path class="st5" d="M28.3,23.7C28.3,23.7,28.3,23.7,28.3,23.7c0.2,0.1,0.1,0.7,0.1,0.8c-0.1,0.7-0.4,0.8-0.7,1.6
				c-0.2,0.5-0.1,0.7-0.2,0.7c0,0,0,0,0,0c0,0,0,0,0,0c0-0.6,0.1-1.2,0.3-1.9C28,24.4,28.1,24,28.3,23.7z"/>
		</g>
		<g>
			<path class="st6" d="M29.9,27.7c0.1,0.4,0.2,0.9,0.2,1.3c0.1,0.8,0,1.5-0.1,2.1c0.3-0.1,1-1.4,0.5-2.6
				C30.4,28.2,30.1,27.7,29.9,27.7z"/>
			<path class="st5" d="M29.9,27.7C29.9,27.7,29.9,27.7,29.9,27.7c-0.3,0-0.3,0.7-0.3,0.9c0,0.7,0.3,0.9,0.4,1.8
				c0.1,0.5,0,0.7,0,0.7c0,0,0,0,0,0c0,0,0,0,0,0c0.1-0.6,0.2-1.3,0.1-2.1C30.1,28.6,30,28.1,29.9,27.7z"/>
		</g>
		<g>
			<path class="st6" d="M25.9,20.9c0.4,0.4,0.7,0.9,1,1.4c0.5,0.9,0.8,1.7,1,2.5c0.2-0.3,0.5-2.3-0.8-3.4
				C26.7,21.1,26.1,20.8,25.9,20.9z"/>
			<path class="st5" d="M25.9,20.9C25.8,20.9,25.8,20.9,25.9,20.9c-0.3,0.2,0,1.1,0.1,1.2c0.4,0.9,0.9,0.9,1.5,1.9
				c0.4,0.6,0.4,0.9,0.5,0.8c0,0,0,0,0,0c0,0,0,0,0,0c-0.2-0.8-0.5-1.6-1-2.5C26.6,21.8,26.2,21.3,25.9,20.9z"/>
		</g>
		<g>
			<path class="st6" d="M23.7,20.2c0.5,0.2,1,0.4,1.5,0.7c0.8,0.5,1.5,1.1,2,1.7c0.1-0.4-0.6-2.3-2.2-2.5
				C24.6,19.9,23.9,19.9,23.7,20.2z"/>
			<path class="st5" d="M23.7,20.2C23.7,20.2,23.7,20.2,23.7,20.2c-0.2,0.3,0.5,0.9,0.6,1c0.7,0.6,1.2,0.4,2.1,0.9
				c0.6,0.3,0.7,0.6,0.8,0.5c0,0,0,0,0-0.1c0,0,0,0,0,0c-0.5-0.6-1.2-1.2-2-1.7C24.7,20.6,24.2,20.4,23.7,20.2z"/>
		</g>
		<g>
			<path class="st6" d="M28.7,21.9c0.2,0.5,0.5,1,0.7,1.6c0.3,1,0.4,1.9,0.4,2.7c0.3-0.2,1-2.1,0-3.5C29.5,22.4,29,21.9,28.7,21.9z"
				/>
			<path class="st5" d="M28.7,21.9C28.7,21.9,28.7,21.9,28.7,21.9c-0.4,0.1-0.2,1-0.2,1.2c0.2,0.9,0.6,1.1,1,2.2
				c0.2,0.7,0.1,0.9,0.2,0.9c0,0,0,0,0.1,0c0,0,0,0,0,0c0-0.8-0.1-1.7-0.4-2.7C29.2,22.9,29,22.4,28.7,21.9z"/>
		</g>
		<g>
			<path class="st6" d="M27.3,20c0.2,0.5,0.5,1,0.7,1.6c0.3,1,0.4,1.9,0.4,2.7c0.3-0.2,1-2.1,0-3.5C28.1,20.4,27.6,19.9,27.3,20z"/>
			<path class="st5" d="M27.3,20c0,0-0.4-0.1-0.6,0.1c0,0-0.1,0.1-0.1,0.2c-0.1,0.3,0.3,0.5,0.6,0.9c0.5,0.6,0.7,1.3,1,2.2
				c0.2,0.7,0.1,0.9,0.2,0.9c0,0,0,0,0.1,0c0,0,0,0,0,0c0-0.8-0.1-1.7-0.4-2.7C27.8,21,27.6,20.5,27.3,20z"/>
		</g>
		<g>
			<path class="st6" d="M29.3,25.3c0.1,0.2,0.2,0.4,0.3,0.7c0.1,0.4,0.2,0.8,0.2,1.1c0.1-0.1,0.4-0.8,0-1.4
				C29.6,25.5,29.4,25.3,29.3,25.3z"/>
			<path class="st5" d="M29.3,25.3C29.3,25.3,29.3,25.3,29.3,25.3c-0.2,0-0.1,0.4-0.1,0.5c0.1,0.4,0.2,0.5,0.4,0.9
				c0.1,0.3,0.1,0.4,0.1,0.4c0,0,0,0,0,0c0,0,0,0,0,0c0-0.3,0-0.7-0.2-1.1C29.5,25.8,29.4,25.5,29.3,25.3z"/>
		</g>
		<g>
			<path class="st6" d="M29.2,21.1c0.1,0.2,0.2,0.4,0.3,0.7c0.1,0.4,0.2,0.8,0.2,1.1c0.1-0.1,0.4-0.8,0-1.4
				C29.5,21.3,29.3,21.1,29.2,21.1z"/>
			<path class="st5" d="M29.2,21.1C29.1,21.1,29.1,21.1,29.2,21.1c-0.2,0-0.1,0.4-0.1,0.5c0.1,0.4,0.2,0.5,0.4,0.9
				c0.1,0.3,0.1,0.4,0.1,0.4c0,0,0,0,0,0c0,0,0,0,0,0c0-0.3,0-0.7-0.2-1.1C29.3,21.5,29.3,21.3,29.2,21.1z"/>
		</g>
		<g>
			<path class="st6" d="M28.6,24.8c0.1,0.2,0.2,0.4,0.3,0.7c0.1,0.4,0.2,0.8,0.2,1.1c0.1-0.1,0.4-0.8,0-1.4
				C28.9,25,28.7,24.8,28.6,24.8z"/>
			<path class="st5" d="M28.6,24.8C28.6,24.8,28.6,24.8,28.6,24.8c-0.2,0-0.1,0.4-0.1,0.5c0.1,0.4,0.2,0.5,0.4,0.9
				c0.1,0.3,0.1,0.4,0.1,0.4c0,0,0,0,0,0c0,0,0,0,0,0c0-0.3,0-0.7-0.2-1.1C28.8,25.2,28.7,25,28.6,24.8z"/>
		</g>
		<g>
			<path class="st6" d="M26.1,22.1c0.1,0.2,0.2,0.4,0.3,0.7c0.1,0.4,0.2,0.8,0.2,1.1c0.1-0.1,0.4-0.8,0-1.4
				C26.4,22.3,26.2,22.1,26.1,22.1z"/>
			<path class="st5" d="M26.1,22.1C26.1,22.1,26.1,22.1,26.1,22.1c-0.2,0-0.1,0.4-0.1,0.5c0.1,0.4,0.2,0.5,0.4,0.9
				c0.1,0.3,0.1,0.4,0.1,0.4c0,0,0,0,0,0c0,0,0,0,0,0c0-0.3,0-0.7-0.2-1.1C26.3,22.5,26.2,22.3,26.1,22.1z"/>
		</g>
		<g>
			<path class="st6" d="M30,27c0.1,0.2,0.2,0.4,0.3,0.7c0.1,0.4,0.2,0.8,0.2,1.1c0.1-0.1,0.4-0.8,0-1.4C30.3,27.2,30.1,26.9,30,27z"
				/>
			<path class="st5" d="M30,27C30,27,30,27,30,27c-0.2,0-0.1,0.4-0.1,0.5c0.1,0.4,0.2,0.5,0.4,0.9c0.1,0.3,0.1,0.4,0.1,0.4
				c0,0,0,0,0,0c0,0,0,0,0,0c0-0.3,0-0.7-0.2-1.1C30.2,27.4,30.1,27.2,30,27z"/>
		</g>
		<g>
			<path class="st6" d="M30.4,24.6c0.1,0.2,0.2,0.4,0.3,0.7c0.1,0.4,0.2,0.8,0.2,1.1c0.1-0.1,0.4-0.8,0-1.4
				C30.7,24.8,30.5,24.6,30.4,24.6z"/>
			<path class="st5" d="M30.4,24.6C30.4,24.6,30.4,24.6,30.4,24.6c-0.2,0-0.1,0.4-0.1,0.5c0.1,0.4,0.2,0.5,0.4,0.9
				c0.1,0.3,0.1,0.4,0.1,0.4c0,0,0,0,0,0c0,0,0,0,0,0c0-0.3,0-0.7-0.2-1.1C30.6,25,30.5,24.8,30.4,24.6z"/>
		</g>
		<g>
			<path class="st6" d="M25.2,19.8c0.1-0.2,0.3-0.4,0.5-0.5c0.3-0.3,0.6-0.5,0.9-0.6c-0.1-0.1-0.9-0.1-1.2,0.6
				C25.2,19.4,25.1,19.7,25.2,19.8z"/>
			<path class="st5" d="M25.2,19.8C25.2,19.8,25.2,19.8,25.2,19.8c0.1,0.1,0.4-0.1,0.5-0.1c0.3-0.2,0.3-0.4,0.6-0.8
				c0.2-0.2,0.3-0.2,0.3-0.3c0,0,0,0,0,0c0,0,0,0,0,0c-0.3,0.1-0.6,0.3-0.9,0.6C25.5,19.4,25.3,19.6,25.2,19.8z"/>
		</g>
		<g>
			<path class="st6" d="M26.5,19.7c0.2-0.1,0.4-0.1,0.7-0.1c0.4,0,0.7,0,1,0.1c-0.1-0.2-0.7-0.6-1.3-0.3
				C26.7,19.4,26.5,19.6,26.5,19.7z"/>
			<path class="st5" d="M26.5,19.7C26.5,19.7,26.5,19.7,26.5,19.7c0,0.2,0.4,0.2,0.4,0.2c0.4,0,0.5-0.2,0.9-0.2c0.3,0,0.4,0,0.4,0
				c0,0,0,0,0,0c0,0,0,0,0,0c-0.3-0.1-0.6-0.1-1-0.1C26.9,19.6,26.7,19.7,26.5,19.7z"/>
		</g>
		<g>
			<path class="st6" d="M24,19.8c0.2-0.1,0.4-0.1,0.7-0.1c0.4,0,0.7,0,1,0.1c-0.1-0.2-0.7-0.6-1.3-0.3C24.3,19.5,24.1,19.7,24,19.8z
				"/>
			<path class="st5" d="M24,19.8C24,19.8,24,19.8,24,19.8c0,0.2,0.4,0.2,0.4,0.2c0.4,0,0.5-0.2,0.9-0.2c0.3,0,0.4,0,0.4,0
				c0,0,0,0,0,0c0,0,0,0,0,0c-0.3-0.1-0.6-0.1-1-0.1C24.5,19.7,24.3,19.7,24,19.8z"/>
		</g>
		<g>
			<path class="st6" d="M26.2,20.9c0.2,0.1,0.4,0.1,0.6,0.3c0.4,0.2,0.6,0.4,0.9,0.6c0-0.2-0.3-0.9-1-1
				C26.5,20.8,26.2,20.8,26.2,20.9z"/>
			<path class="st5" d="M26.2,20.9C26.2,20.9,26.2,20.9,26.2,20.9c-0.1,0.1,0.2,0.4,0.3,0.4c0.3,0.2,0.5,0.1,0.9,0.3
				c0.3,0.1,0.3,0.2,0.3,0.2c0,0,0,0,0,0c0,0,0,0,0,0c-0.2-0.2-0.5-0.5-0.9-0.6C26.6,21.1,26.4,21,26.2,20.9z"/>
		</g>
		<g>
			<path class="st6" d="M25.3,20.3c0.2,0,0.4,0,0.7,0c0.4,0,0.7,0.1,1,0.2c0-0.2-0.6-0.7-1.2-0.5C25.6,20,25.3,20.2,25.3,20.3z"/>
			<path class="st5" d="M25.3,20.3C25.3,20.3,25.3,20.3,25.3,20.3c0,0.2,0.3,0.2,0.4,0.3c0.4,0.1,0.5-0.1,0.9-0.1
				c0.3,0,0.4,0.1,0.4,0c0,0,0,0,0,0c0,0,0,0,0,0c-0.3-0.1-0.6-0.2-1-0.2C25.7,20.2,25.5,20.2,25.3,20.3z"/>
		</g>
		<g>
			<path class="st6" d="M25.6,19.8c0.2,0,0.4,0,0.7,0c0.4,0,0.7,0.1,1,0.2c0-0.2-0.6-0.7-1.2-0.5C25.9,19.5,25.7,19.7,25.6,19.8z"/>
			<path class="st5" d="M25.6,19.8C25.6,19.8,25.6,19.8,25.6,19.8c0,0.2,0.3,0.2,0.4,0.3c0.4,0.1,0.5-0.1,0.9-0.1
				c0.3,0,0.4,0.1,0.4,0c0,0,0,0,0,0c0,0,0,0,0,0c-0.3-0.1-0.6-0.2-1-0.2C26.1,19.7,25.8,19.8,25.6,19.8z"/>
		</g>
		<g>
			<path class="st6" d="M24.5,19.6c-0.2,0.1-0.3,0.3-0.5,0.5c-0.2,0.3-0.4,0.7-0.5,1c-0.1-0.1-0.1-1,0.5-1.3
				C24.1,19.6,24.4,19.5,24.5,19.6z"/>
			<path class="st5" d="M24.5,19.6C24.5,19.6,24.5,19.6,24.5,19.6c0.1,0.1-0.1,0.4-0.1,0.5c-0.2,0.3-0.4,0.3-0.7,0.7
				c-0.2,0.2-0.2,0.3-0.2,0.3c0,0,0,0,0,0c0,0,0,0,0,0c0.1-0.3,0.3-0.6,0.5-1C24.1,19.9,24.3,19.7,24.5,19.6z"/>
		</g>
		<g>
			<path class="st6" d="M24.8,19.2c-0.2,0.1-0.4,0.2-0.6,0.3c-0.4,0.2-0.6,0.4-0.8,0.7c0-0.2,0.3-0.9,0.9-1
				C24.5,19.1,24.7,19.1,24.8,19.2z"/>
			<path class="st5" d="M24.8,19.2C24.8,19.2,24.8,19.2,24.8,19.2c0.1,0.1-0.2,0.4-0.3,0.4c-0.3,0.2-0.5,0.1-0.9,0.4
				c-0.2,0.1-0.3,0.2-0.3,0.2c0,0,0,0,0,0c0,0,0,0,0,0c0.2-0.2,0.5-0.5,0.8-0.7C24.4,19.3,24.6,19.3,24.8,19.2z"/>
		</g>
		<g>
			<path class="st6" d="M24.6,19.2c0.1-0.1,0.2-0.3,0.3-0.4c0.2-0.2,0.4-0.4,0.6-0.5c-0.1-0.1-0.7,0-0.9,0.5
				C24.6,18.9,24.5,19.1,24.6,19.2z"/>
			<path class="st5" d="M24.6,19.2C24.6,19.2,24.6,19.2,24.6,19.2c0.1,0.1,0.3-0.1,0.3-0.1c0.2-0.2,0.2-0.4,0.4-0.6
				c0.1-0.2,0.2-0.2,0.2-0.2c0,0,0,0,0,0c0,0,0,0,0,0c-0.2,0.1-0.4,0.3-0.6,0.5C24.7,18.9,24.6,19.1,24.6,19.2z"/>
		</g>
		<g>
			<path class="st6" d="M30.3,29.4c0.1,0.2,0.1,0.3,0.2,0.5c0.1,0.3,0.1,0.6,0,0.9c0.1-0.1,0.4-0.6,0.1-1.1
				C30.6,29.5,30.4,29.4,30.3,29.4z"/>
			<path class="st5" d="M30.3,29.4C30.3,29.4,30.3,29.4,30.3,29.4c-0.1,0-0.1,0.3-0.1,0.4c0,0.3,0.2,0.4,0.2,0.7c0,0.2,0,0.3,0,0.3
				c0,0,0,0,0,0c0,0,0,0,0,0c0-0.2,0-0.5,0-0.9C30.5,29.7,30.4,29.5,30.3,29.4z"/>
		</g>
	</g>
	<path class="st5" d="M15.4,19.3c-0.3,0.4,1.4,4,4.1,4.2c3.1,0.2,5.1-4.4,4.9-4.7c-0.2-0.3-2.1,2.4-4.9,2.4
		C17.1,21,15.7,19,15.4,19.3z"/>
</g>
<path class="st29" d="M21.6,8.4c1,1.2,1.1,2.9,0.7,4.3c0,0.2-0.9,3-2.7,3c-1.4,0.1-2.3-1.5-2.5-1.7c-0.5-0.9-0.6-1.8-0.6-2.5
	c0-1-0.1-2.4,0.9-3.4C17.6,8.1,18.7,7,20,7.3C20.9,7.5,21.4,8.1,21.6,8.4z"/>
<path class="st29" d="M16.3,11.3c0.1,0.5,0.3,1,0.6,1c0.3,0,0.5-0.6,0.6-1c0.3-1.3-0.4-2.1-1.2-4.6c-0.6-1.8-0.6-2.4-0.8-2.3
	C15.2,4.4,15.6,8.9,16.3,11.3z"/>
<path class="st29" d="M23.1,11.3c-0.1,0.5-0.3,1-0.6,1c-0.3,0-0.5-0.6-0.6-1c-0.3-1.3,0.4-2.1,1.2-4.6c0.6-1.8,0.6-2.4,0.8-2.3
	C24.3,4.4,23.9,8.9,23.1,11.3z"/>
<path class="st30" d="M21,18.1c-0.1,4.7,0.6,8.8,0.9,8.8c0.2,0,0-2.8,0.4-8.8c0.3-5.1,0.7-7.8-1-9.7c-0.6-0.7-1.6-1.4-1.9-1.2
	C19.2,7.4,20,8.7,20.6,10C21.6,12.6,21.1,14.4,21,18.1z"/>
<path class="st31" d="M22.1,17.3c0,0-0.1,5.7,0,5.7c0.1,0-0.1-1.4,0.7-2.8c0.2-0.4,0.4-0.6,0.6-1.1c0.3-0.7,0.3-1.3,0.3-1.7
	c0.1-3.5,0.2-6.1-1.4-7.7c-0.8-0.7-1.7-1.1-2-0.9C20.1,9,21,10,21.6,11C22.3,12.3,22.2,13.4,22.1,17.3z"/>
<path class="st30" d="M18.2,8c-1.3,1-1.5,3-1.3,9.9c0.1,3.3,0.3,8.3,0.5,8.3c0.2,0,0.5-4.5,0.6-8.3c0.1-4-0.1-5.6,1-7.5
	c0.9-1.5,2-2.4,1.8-2.8C20.6,7.2,19.2,7.3,18.2,8z"/>
<path class="st31" d="M17.7,8.7c-0.4,0.2-0.9,0.5-1.3,0.9c-2.8,2.8-0.9,9.2-0.1,10.7c0,0.1,0.2,0.4,0.4,0.7c0.6,1.3,0.5,2.3,0.6,2.3
	c0.1,0,0.1-2.2,0.1-5.4c0-0.3,0-0.5,0-0.7c0-1,0.1-2.7,0.5-4.8c0.3-1.7,0.5-2.4,1.1-2.8c1.1-1,3.1-0.8,3.1-1.1c0,0,0-0.1-0.1-0.1
	C21.6,8,19.3,8.1,17.7,8.7z"/>
<path class="st5" d="M14.3,13.8c-0.6,1.9-1.3,3.9-0.4,5.6c0.7,1.3,2.4,2.2,2.6,2c0.1-0.1-0.1-0.4-0.2-0.6c-1.6-3,1.9-10,3-10.9
	c0.1,0,0.3-0.2,0.4-0.5c0.1-0.4,0-0.7-0.1-1.2c-0.3-1.2-0.1-1.4-0.3-1.5C18.7,6.2,15.7,9.4,14.3,13.8z"/>
<path class="st5" d="M24.9,19.9c-0.5,0.5-1.6,0.9-1.8,0.5c-0.2-0.3,0.2-0.9,0.4-1.5c0.9-2.3-0.5-5.1-0.8-5.7
	c-1.3-2.6-3.4-3.3-3.8-5.6c-0.1-0.5,0-0.8,0.1-1c0.5-0.5,2.1,0.6,2.5,0.9C25,10.1,27,17.9,24.9,19.9z"/>
<path class="st6" d="M15.3,12.2c-0.8,1.8-0.8,3.7-0.6,3.8c0.2,0.1,0.5-1.8,1.8-4.3c1.2-2.1,2.2-3.1,2.1-3.2
	C18.5,8.4,16.4,9.8,15.3,12.2z"/>
<path class="st6" d="M17.6,8.3c-0.6,0.6-1,1.3-0.9,1.3c0,0,0.5-0.7,1.6-1.5c0.5-0.4,0.9-0.6,0.8-0.6C19,7.5,18.3,7.7,17.6,8.3z"/>
<polygon class="st32" points="34.4,23.7 32.9,24.7 30.3,20.1 31.8,19.1 "/>
<polygon class="st32" points="33.2,28.7 31.8,29.6 29.2,25 30.6,24 "/>
<polygon class="st32" points="32.4,34.1 30.9,35.1 28.3,30.5 29.7,29.5 "/>
<path class="st32" d="M31.2,39.2c-0.4,0.4-0.8,0.8-1.2,1.2c-1-1.6-2-3.3-2.9-4.9l1.5-1L31.2,39.2z"/>
<path class="st33" d="M22,79.8c-0.3-0.1-0.6-0.1-0.9-0.2c3.7-21.1,7.5-42.2,11.2-63.3l1.7,0.4C30,37.7,26,58.8,22,79.8z"/>
<polygon class="st33" points="30.1,26.6 29.2,25 33.5,22.1 34.4,23.7 "/>
<path class="st33" d="M31.1,21.5l-0.9-1.6l4.4-2.9c-0.1,0.4-0.2,0.8-0.3,1.2C33.2,19.3,32.1,20.4,31.1,21.5z"/>
<polygon class="st33" points="28.9,31.6 28,30 32.4,27.1 33.3,28.7 "/>
<polygon class="st33" points="28,37 27.1,35.4 31.5,32.5 32.4,34.1 "/>
<path class="st33" d="M27.6,43.1c-0.1-0.5-0.2-1.1-0.2-1.6c1-1.3,2-2.6,3-3.8l0.9,1.6C30,40.5,28.8,41.8,27.6,43.1z"/>
<g>
	<g>
		<path class="st34" d="M24.2,29.2C24.2,29.2,24.2,29.2,24.2,29.2C24.2,29.2,24.2,29.2,24.2,29.2C24.1,29.1,24.1,29.1,24.2,29.2
			C24.1,29.2,24.1,29.2,24.2,29.2c0,0.1,0,0.1,0,0.1c0,0.1,0,0.1,0,0.2c0,0.2,0,0.3,0,0.5c0,0.3,0,0.6,0,0.9c0,0.1,0,0.2,0.1,0.2
			c0.1,0,0.1-0.1,0.1-0.1c0-0.4,0-0.8,0-1.1c0-0.2,0-0.4-0.1-0.6c0-0.1,0-0.4-0.2-0.4C24,28.9,24,29.2,24.2,29.2L24.2,29.2z"/>
	</g>
</g>
<g>
	<g>
		<path class="st34" d="M23.9,30c0.1,0.5,0.1,1,0,1.5c0,0,0,0.2,0,0.2c0.1,0,0.1-0.1,0.1-0.1c0.1-0.5,0.1-1.1,0-1.7
			c0,0,0-0.1-0.1-0.1C23.9,29.9,23.9,30,23.9,30L23.9,30z"/>
	</g>
</g>
<g>
	<g>
		<path class="st34" d="M23.7,30.6c0,0.4,0,0.8-0.1,1.2c0,0.1,0,0.2,0.1,0.2c0.1,0,0.1-0.1,0.1-0.1c0.1-0.4,0.1-0.8,0.1-1.3
			c0-0.1,0-0.1-0.1-0.1C23.7,30.4,23.7,30.5,23.7,30.6L23.7,30.6z"/>
	</g>
</g>
<g>
	<g>
		<path class="st34" d="M24.6,29.5c-0.2,0.3-0.4,0.7-0.7,1c-0.2,0.3-0.5,0.5-0.8,0.7c-0.1,0-0.1,0.3,0,0.3c0.3-0.1,0.6-0.4,0.8-0.7
			c0.2-0.3,0.5-0.7,0.7-1C24.7,29.7,24.7,29.6,24.6,29.5C24.7,29.5,24.6,29.5,24.6,29.5L24.6,29.5z"/>
	</g>
</g>
<path class="st18" d="M28.6,42.6c-0.8,1-1.4,1-1.3,1.4c0.1,0.6,1.8,1.3,2.6,0.7c0.2-0.1,0.4-0.5,0.7-1.1c0.3-0.6,0.5-0.9,0.5-1.2
	c0-0.7-0.6-1.5-1-1.6C29.6,40.8,29.5,41.5,28.6,42.6z"/>
<path class="st16" d="M30.2,44.3c-0.8-0.7-1.3-0.7-1.6-0.6c-0.1,0-0.4,0.1-1.1,0.3c-0.1,0-0.2,0-0.2,0.1c0.2-0.6,0.1-0.7,0-0.8
	c-0.2-0.1-0.8,0.3-1,1c-0.1,0.4-0.1,0.7-0.1,0.9c0.1,0.1,0.6,1.1,1.6,1.2C28.8,46.3,29.9,45.5,30.2,44.3z"/>
<path class="st35" d="M38.3,35.2c0.5,3.2,0.3,3.5,0,7.4c-0.4,1.4-0.9,2.1-1.1,3.2c-0.2,2.4,0-2,0-2.9c0.1-2,0-4.3-0.5-7.5
	c-0.5-4.4-1.3-3.4-1.9-6.6c-0.6-1.8-1-1.1-0.9-2.5c0.2-1.3,1,0,1.9,2.4C36.8,31.5,37.8,32.1,38.3,35.2z"/>
<path class="st36" d="M2,31.1c-0.3-0.4-1.2,0.9-0.2,3c0.6,1.1,1.8,1.5,2.8-0.3c1-0.9,1.9-1.9,1.8-1.2c-0.1-0.8-2.5,0.4-3.7,0.2
	C1.9,33.2,2.2,31,2,31.1z"/>
<path class="st36" d="M36.3,53.1c0.7-1.1,1.1-2,1.4-4.5c0.3-1.8,0.3-3.6,0.3-2.1C38,46,37.8,45,37.5,48c-0.3,3.2-0.7,4-1.3,3.5
	c-1.4,2.6-3.1,3.7-4.5,7.7c-1.4,1.2-2.4,2.1-2.3,2.7c0.1,1.5,1.2-0.2,2.6-2.2C33.4,58.5,35.1,54.7,36.3,53.1z"/>
<path class="st37" d="M7,6.6c0-0.2,4-0.9,6.5,1.6c0.9,0.9,1.7,2.2,1.6,2.2c-0.1,0.1-0.7-0.7-1.3-1.3C11,6.4,7,6.7,7,6.6z"/>
<path class="st38" d="M33.1,6.4c0-0.2-1.5-0.7-3.2-0.4c-2.7,0.4-4.3,2.8-4.3,2.9c0.1,0.1,1.3-1.3,3.7-2C31.4,6.2,33.1,6.6,33.1,6.4z
	"/>
<path class="st36" d="M34.4,34.9c-0.8-2.3-1.3-5.1-1.1-4.7c0.1,0.9,0.6-1.1,1,1.4c0.5,0.8,1,1.2,1.3,3.5c0.6,4.2,0.6,6.1,0.3,4.8
	c-0.1-2-0.3-1.3-0.5-1.2C35.1,36.7,34.8,37.1,34.4,34.9z"/>
<path class="st33" d="M36.9,16c0.2,0.2-2.1,2.8-4,2.3c-2-0.5-2.9-4.1-2.1-6.5c0.6-1.6,1.9-2.6,2-2.5c0.2,0.1-1.1,1.5-1,3.6
	c0.1,1.4,0.8,3.3,2.1,3.7C35.4,17.1,36.8,15.9,36.9,16z"/>
</svg>
