<?xml version="1.0" encoding="UTF-8"?>
<svg id="_Шар_2" data-name="Шар 2" xmlns="http://www.w3.org/2000/svg" viewBox="0 0 84.3437753 193.1862937">
  <g id="_Шар_1-2" data-name="Шар 1">
    <g>
      <path d="M21.0987959,67.3312459c.6940591,.8066269,3.5196182-.6988789,6.162218-1.9459582,14.2594634-6.7292373,18.9980734-3.9551998,28.7106564-8.7401153,11.3225383-5.5780419,19.2833089-16.4346865,17.7578977-18.8344698-.7655246-1.2043279-8.7792104,1.73036-24.737571,7.6244864-9.8946346,3.6545077-13.9374851,5.3326301-18.4877023,9.0851185-5.7028572,4.7030434-10.5227128,11.5125419-9.4054987,12.8109383Z" fill="#43666d"/>
      <path d="M62.2817647,74.3606975c-11.2214638,20.7947722-25.5908742,30.3717114-28.7049033,32.3758647-8.0096331,5.1548997-18.2129756,9.5453614-18.8631583,8.4894363-.4454768-.7234763,3.7052751-3.8222407,6.4865486-6.2703495,12.7329655-11.2076565,13.5951155-23.5933304,20.5407565-37.8382322,9.5938659-19.6762029,26.9915468-35.0999403,30.9192471-32.8652052,3.8083184,2.1668237-2.8614069,22.1783903-10.3784906,36.1084859Z" fill="#609395"/>
      <path d="M63.9582144,65.5805586c-15.433134,17.7303726-42.4090197,19.0556676-42.9675373,17.4805885-.1516756-.4277447,1.7375576-.808161,4.5405904-3.4595182,4.3395538-4.1047532,4.53136-7.6575472,8.2163077-13.1893091,1.6631261-2.4966388,3.1842801-4.0542799,6.2265753-7.1695363,7.4171726-7.5950565,28.6257671-25.4042329,33.6322512-21.3669309,3.6341676,2.9306479-.9079954,17.6635351-9.6481873,27.704706Z" fill="#43666d"/>
      <path d="M54.7207683,108.142494c-18.1469819,32.0394016-47.5897058,53.7437672-49.9464691,51.6762026-.6090037-.5342653,.6714433-2.5849543,5.5316085-11.5063286,5.9064508-10.8419424,11.1849512-22.0204502,17.1713309-32.818465,28.624054-51.6310477,39.8912736-79.080549,44.108569-77.6224227,4.6119536,1.5945627,1.4250783,37.9789132-16.8650392,70.2710137Z" fill="#3b5657"/>
      <path d="M57.3431046,119.48178C36.8424404,157.5260733,.90551,180.6191963,.0174841,179.7107791c-.3250466-.3324999,3.9224458-4.0067726,9.3754039-11.5794817,12.0040558-16.6704076,14.8898811-33.2689661,17.4071798-38.4957915,29.2184449-60.6680708,40.253472-92.663647,45.1513644-91.2790829,5.4583532,1.54299,5.5976533,43.6279347-14.6083275,81.1253571Z" fill="#293d3e"/>
      <path d="M82.3967219,82.196274c-4.1385555,48.2456798-50.7388796,86.0068469-52.3248639,84.7576453-.3007943-.2369228,.806678-1.9932098,4.1081539-7.3514346,11.9961422-19.4694772,14.3033655-35.92871,19.2434468-59.6762984,7.6317992-36.6870113,13.0354474-61.6462915,18.5279736-61.5697634,5.0947101,.0709797,12.3417462,21.7317757,10.4452897,43.839851Z" fill="#334747"/>
    </g>
    <path d="M81.640921,49.2943709h0c-.0000763,.0000305-6.7501221,5.4973755-18.1043854,5.497406h-.0001068c-2.3300629-.1048279-30.1150513-1.4428711-30.2355042-5.7320251-.0779419-2.7756042,13.6716461-7.111145,26.6679077-6.0518799,1.1714325,.0954895,2.0908051,.2154236,2.9766235,.3947449,1.2096405,.2448425,2.2496338,.5036011,3.1968689,.7770081,2.6833954,.7745361,4.2774048,1.5094299,6.6751251,2.3763123,4.4781799,1.6190796,8.8226471,2.7384644,8.8234711,2.7384338Z" fill="#293d3e"/>
    <path d="M82.0924699,59.9898957c-1.9620056,.5415649-3.9240265,1.0831299-5.8860321,1.6246338-1.964798-2.2673035-4.1994324-5.241272-6.2502594-8.96698-1.6430511-2.9848938-2.8034058-5.7897339-3.6332092-8.2128906,2.6407623-2.8224792,5.2815247-5.644989,7.922287-8.4674683,1.7603607,5.2296448,3.5050354,10.5142822,5.232193,15.8536987,.8837585,2.7321472,1.7553864,5.4552002,2.6150208,8.1690063Z" fill="#444443"/>
    <path d="M71.5811232,44.6003058l6.4834616,14.1315863c.5082518,1.0928897,1.7929158,1.578543,2.870782,1.070982l.9675927-.4513879c1.0800614-.4984244,1.5528731-1.7945739,1.0446213-2.8874636l-6.3170886-13.7665585c-1.1473765-.5485481-2.6773039-.7512924-4.4030406-.7413931-.7876715,.6003355-1.0893965,1.699617-.6463283,2.644235Z" fill="#493b36"/>
    <rect x="76.9318477" y="42.7683698" width="3.3268194" height="14.0080045" rx="1.2906763" ry="1.2906763" transform="translate(170.7958021 62.164428) rotate(155.3098302)" fill="#2f2622"/>
    <path d="M26.0689453,92.4338362c-.5240173,2.0880127,1.0144348,4.2689209,2.6773224,4.497406,2.0963745,.2880554,3.5660248-2.6365662,3.9354858-4.193573,.124527-.5248108,.3342285-1.4673767-.1918335-2.1369324-.2385101-.3035583-.6857758-.421814-1.4592743-.6810608-.3672333-.1230774-.7618713-.2316895-.9443359-.2657166-1.1168518-.208374-3.48526,.6596375-4.0173645,2.7798767Z" fill="#444443"/>
    <path d="M34.2428954,67.308409c1.6690063,.5784607,3.3379974,1.1569214,5.0070038,1.7354126,1.4729614-2.2000122,3.0278778-4.9082031,4.387085-8.1290283,2.4975739-5.9183655,3.3853302-11.3188782,3.6899414-15.2738953-3.0392914-1.3087158-6.0785675-2.6174011-9.1178589-3.9261169-1.22789,5.1462708-2.3064728,10.7859497-3.0882111,16.8774414-.3858643,3.006897-.6727295,5.9158325-.8779602,8.7161865Z" fill="#515150"/>
    <ellipse cx="41.3528613" cy="140.9017895" rx="3.3478508" ry="8.4325225" transform="translate(-104.7887268 155.254826) rotate(-79.2529294)" fill="#2f2622"/>
    <ellipse cx="35.4763747" cy="70.7936991" rx="1.6576395" ry="5.4187961" transform="translate(-40.7330774 92.2981264) rotate(-79.1412392)" fill="#333"/>
    <path d="M77.9127105,44.570555c-.789978,1.3099976-2.9299927,2.0599976-4.5199585,1.5200195-1.8700562-.6199951-2.75-2.9199829-2.9400024-2.8099976-.1800537,.0999756,1.25,1.7799683,.8099976,2.9199829-.6700439,1.7399902-4.4700317,1.4400024-10,2.6000366-2.9299927,.6199951-5.2200317,1.4199829-6.5800171,1.9400024-2.2399902-.6300049-4.4700317-1.25-6.710022-1.8700562-.0299683,.0300293-.0799561,.0800171-.1399536,.1500244v-5.2299805c8.7799683-2.2300415,17.5699463-4.4500122,26.3499756-6.6700439,3.7000122,2.0300293,4.8399658,5.6200562,3.7299805,7.4500122Z" fill="#515150"/>
    <path d="M56.7260743,79.274208v.1675284h-.0669909c.0251088-.0586554,.0418821-.1172597,.0669909-.1675284Z" fill="#2f2622"/>
    <line x1="25.8280718" y1="91.5122304" x2="27.7613707" y2="93.7655333" fill="none"/>
    <path d="M38.6118335,46.3216845c-1.5165004,.3602679-2.8151525,.8629555-3.7032679,1.5835425l.0670421-.3519324c.2094617-1.055695,1.23161-1.7426842,2.287305-1.5416092l.9467708,.1843017c.1424196,.0251599,.2765037,.0670421,.40215,.1256975Z" fill="#43666d"/>
    <path d="M42.1495046,47.6843969l-3.4946891,15.1500546c-.276969,1.1730371-1.4370222,1.9082222-2.595206,1.6288945l-1.0388354-.2465921c-1.1584878-.2699361-1.8834167-1.4438323-1.6064477-2.6168694l3.4054953-14.7589412c1.0128899-.7690462,2.4703062-1.2767082,4.1624553-1.615672,.8927171,.4288184,1.4103132,1.444472,1.1672276,2.4591256Z" fill="#493b36"/>
    <rect x="34.6615415" y="47.1629038" width="3.3268194" height="14.0080045" rx="1.2906763" ry="1.2906763" transform="translate(13.1522872 -6.7968818) rotate(13.0341935)" fill="#2f2622"/>
    <path d="M40.3557467,60.4951165l-1.9554524-.6857066c.1593614-.5875563,.3186996-1.1750991,.478061-1.7626554,.545902,.2313183,1.0918273,.4626232,1.6377293,.6939415" fill="#352b27"/>
    <path d="M39.8501545,58.7172083l4.1503633,1.5515598c-.0349773,.4048919-.0843356,.8181108-.1337199,1.2312846l-4.4086084-1.6485827,.391965-1.1342617Z" fill="#2f2622"/>
    <path d="M41.3967642,57.2987632l-1.8724743-.7152295c.1375248-.5698657,.2750279-1.1397188,.4125527-1.7095845,.5236716,.2386126,1.047365,.4772127,1.5710366,.7158253" fill="#352b27"/>
    <path d="M41.1929318,55.7095975l3.976499,1.6119362c-.0237201,.3944545-.0608977,.7967012-.098101,1.1989033l-4.2239371-1.7127045,.3455392-1.098135Z" fill="#2f2622"/>
    <path d="M56.7512342,79.207166c-.0083866,.0251088-.0167733,.0418821-.0251599,.0670421v-.0670421h.0251599Z" fill="#2f2622"/>
    <path d="M25.7039337,89.0850496l-2.4548252-3.286897,2.911599,.2303413c.3226545,.6630114,.6491819,1.3265841,.9718363,1.9895955l-1.4286101,1.0669602Z" fill="#70706f"/>
    <path d="M15.2752645,81.9958709l3.5191265,.2769113,1.9370218,.1542929,2.5176957,3.3710776-2.1929573-.1736124-2.0658175-.1650612c-1.2389162-1.1552762-2.476153-2.308332-3.7150692-3.4636082Z" fill="#a7a7a6"/>
    <path d="M13.8337368,73.0250998l-.9940846-1.3726241,1.1663719,.6608433c.0718233,.294846-.0557037,.4798019-.1722873,.7117808Z" fill="#a1c36b"/>
    <polygon points="33.4853743 102.940385 36.7387693 100.5105808 36.2611946 96.478156 32.530225 94.8755354 29.27683 97.3053396 29.7544047 101.3377644 33.4853743 102.940385" fill="#1e232a"/>
    <path d="M27.9622479,90.0469405c1.491374,1.6329004,2.9827361,3.2657993,4.4741101,4.8986997l-3.0538273,2.2807567c-1.1699449-1.8641382-2.3398965-3.7282715-3.5098416-5.5924096l2.0895588-1.5870468Z" fill="#4e3025"/>
    <rect x="21.7762506" y="88.920464" width="9.1226554" height="2.4879969" rx="1.0334608" ry="1.0334608" transform="translate(101.3925027 146.6450488) rotate(143.2457159)" fill="#333"/>
    <path d="M20.7314128,82.4270751l-2.7079225-3.6257824-4.1897535-5.7761928-.9940846-1.3726241,1.1663719,.6608433,7.5985018,4.306866-.0309983,.0231511c.991658,2.0300088,1.9816501,4.057787,2.9755252,6.08614l-3.81764-.3024011Z" fill="#70706f"/>
    <path d="M18.9903336,85.4594791l2.0658175,.1650612,2.1929573,.1736124,2.4548252,3.286897-1.5703667,1.1728313c-1.7156897-1.5996566-3.4297472-3.1970996-5.1432334-4.7984019Z" fill="#838283"/>
    <path d="M14.8889754,81.6357066c.0107724-1.2329107-.0720037-2.6788847-.3474534-4.2673438-.3290058-1.9003807-.8526065-3.5346745-1.3978341-4.869907-.0555609-.1344537-.1078304-.2645003-.1645239-.3912218-.0203584-.0503525-.0429204-.0990593-.06384-.145539l5.1081664,6.8395976,.2321151,.32004,.0044341-.0033116,2.4713733,3.309054-1.9370218-.1542929-3.5191265-.2769113c-.1285759-.1213457-.2577131-.2388186-.386289-.3601643Z" fill="#838283"/>
    <polygon points="18.0234903 78.8012926 12.5712478 71.5009931 12.7557049 71.6047587 12.8396522 71.6524757 18.0234903 78.8012926" fill="#70706f"/>
    <polygon points="33.6072448 101.4788332 35.3027469 100.2125443 34.7033018 97.6416713 32.4083545 96.3370872 30.7128524 97.6033762 31.3122976 100.1742492 33.6072448 101.4788332" fill="#242930"/>
    <rect x="23.4698758" y="88.8885696" width="5.9097433" height="2.4162029" rx="1.0036405" ry="1.0036405" transform="translate(101.5089473 146.4707815) rotate(143.2457158)" fill="#352b27"/>
    <path d="M23.2491085,85.7981527l-2.5176957-3.3710776,3.81764,.3024011c.5357458,1.1007652,1.0737053,2.1998983,1.6116547,3.2990178l-2.911599-.2303413Z" fill="#838283"/>
    <path d="M28.4331147,91.4457825c.9076245,.993755,1.8152417,1.9875091,2.7228662,2.9812641l-1.8585066,1.3880292c-.7120083-1.1344824-1.4240206-2.2689617-2.136029-3.403444l1.2716695-.9658493Z" fill="#5d392f"/>
    <path d="M31.8222302,99.7650837c.7873805,.9847658,2.260933,.9170295,2.2962037,.7996158,.0316888-.1054803-1.0959074-.2560673-1.5440617-1.1574691-.0529119-.1064288-.2833577-.5699255-.1181873-1.024459,.2510484-.6908926,1.2098764-.7935387,1.1784637-.9227323-.0399071-.1641259-1.6834646-.3944225-2.1791144,.540112-.4081989,.7696525,.3034761,1.6858653,.366696,1.7649326Z" fill="#2d323a"/>
    <path d="M14.7731031,79.0551426c-.0542111-.5391664-.1304753-1.1032647-.2315811-1.6867798-.3290058-1.9003807-.8526065-3.5346745-1.3978341-4.869907-.0555609-.1344537-.1078304-.2645003-.1645239-.3912218-.0203584-.0503525-.0429204-.0990593-.06384-.145539l.8717659,1.1672541c-.0660782,.1425164-.1161897,.3110358-.1127564,.5327519,.0116221,.8194092,.7608994,1.0326821,1.2082114,2.1166896,.2811567,.6767567,.1368619,.9501329,.2591384,1.7283021,.2986423,1.8782228,1.5969543,3.1823361,1.8761483,3.4637614,.6240612,.6276906,1.2491901,.9888801,1.7765595,1.3023281,.6577051,.3955308,1.1574124,.7227519,1.301414,1.4191384,.0585759,.290925,.0140175,.4484106,.1470589,.8251966,.1841783,.5145648,.4716793,.7932398,.8132873,1.1074231,.1743794,.1595809,.359255,.3285913,.553445,.5423875,.4887716,.5389465,.3437415,.6265614,1.1300125,1.9611734,.9383631,1.593664,1.4765322,2.0370682,1.3939584,2.1297798-.7394676-.68984-1.4773029-1.3774664-2.2167705-2.0673064-.0220522-.0387474-.0462979-.0758356-.0683265-.1145796-.7862845-1.334602-.6412544-1.4222168-1.130026-1.9611633-.1941867-.2138198-.3790521-.3828167-.5534551-.542401-.341608-.3141834-.6290955-.5928684-.8132738-1.1074332-.1330313-.3767724-.0884965-.5342614-.1470589-.8251966-.1440151-.6963764-.6437123-1.023584-1.3014039-1.4191249-.5273694-.313448-1.1525218-.6746409-1.776573-1.302318-.1914608-.1917008-.8569049-.860928-1.3535762-1.8632154Z" fill="#a1c36b"/>
    <path d="M14.7731031,79.0551426c.4966713,1.0022874,1.1621154,1.6715146,1.3535762,1.8632154,.6240512,.627677,1.2492036,.98887,1.776573,1.302318,.6576916,.3955409,1.1573887,.7227485,1.3014039,1.4191249,.0585624,.2909351,.0140276,.4484241,.1470589,.8251966,.1841783,.5145648,.4716657,.7932499,.8132738,1.1074332,.174403,.1595843,.3592685,.3285812,.5534551,.542401,.4887716,.5389465,.3437415,.6265614,1.130026,1.9611633,.0220286,.038744,.0462743,.0758322,.0683265,.1145796-.9762356-.9098065-1.9524578-1.8196231-2.9264628-2.7310954-1.2389162-1.1552762-2.476153-2.308332-3.7150692-3.4636082-.1285759-.1213457-.2577131-.2388186-.386289-.3601643,.0065437-.7812129-.0243287-1.6448949-.1158724-2.580564Z" fill="#b3d074"/>
    <path d="M19.6173529,83.3916252c.2055211,.0089669,.2002889,6.0690735,.0174401,6.0760799-.0989165,.0037849-.2565081-1.7635388-.297408-3.0367027-.0148972-.4636288-.012819-.815132,.0090846-1.1947238,.0453164-.7855639,.1845654-1.848427,.2708834-1.8446533Z" fill="#b3d074"/>
    <path d="M14.8631825,80.5186325c-.0616521-.8831681-.1096667-1.1085264-.0426019-1.1275026,.1811087-.0512448,1.1029522,1.4303709,.7252128,2.638687-.0819269,.2620773-.1963324,.419614-.3324261,.9213652-.1967904,.7255503-.1793154,1.2137218-.2143636,1.2129849-.0625528-.0013104,.0102185-1.5536009-.1358212-3.6455345Z" fill="#a1c36b"/>
    <path d="M19.163365,83.22664c.1465931,.0063959,.142861,4.3289175,.0124396,4.333915-.0705546,.0026997-.1829608-1.2578879-.2121337-2.1660037-.0106258-.3306948-.0091435-.5814132,.0064798-.8521665,.0323231-.560323,.1316459-1.3184365,.1932143-1.3157448Z" fill="#b3d074"/>
    <path d="M15.8876167,80.9154793c.1753444,.0041636,.1645344,2.9634875,.0085177,2.9671004-.084401,.0019519-.21701-.8609164-.2505733-1.4825949-.012225-.2263872-.0100839-.3980382,.0090021-.5834264,.0394873-.3836601,.1594096-.9028315,.2330535-.9010791Z" fill="#b3d074"/>
    <path d="M16.014141,82.6715219c-.0658102,.1332536,.4160855,.3250418,.6274141,.979722,.0642105,.1989081,.0415262,.2331422,.1158995,.7024994,.1112387,.702008,.2711605,1.2795674,.3319907,1.2713747,.0679816-.0091644-.1295033-.7310186,.2431948-1.0678175,.161234-.1457001,.2788667-.0942019,.4235433-.2422813,.2230834-.2283296,.1813694-.679143,.0655553-.9493666-.3415301-.7968843-1.704496-.9029155-1.8075977-.6941308Z" fill="#b3d074"/>
    <path d="M17.896901,82.8502248c.3284933,.0031644,.2998044,2.607611,.0074991,2.6112354-.1581296,.0019584-.4041106-.7570491-.4652187-1.3040748-.022258-.1992021-.0177572-.3502732,.0185286-.5134824,.0750726-.3377608,.3012253-.7950105,.439191-.7936782Z" fill="#b3d074"/>
    <path d="M18.5939187,82.7839888c.146587,.0042711,.1389884,2.9794331,.0085628,2.9829896-.0705569,.0019213-.1818351-.865631-.2101956-1.4906541-.0103299-.2276052-.0086234-.4001741,.007242-.5865455,.0328242-.3856949,.1328249-.9075876,.1943907-.90579Z" fill="#b3d074"/>
    <path d="M42.4331557,192.7869408c-.5552064,.4673511-1.0555543,.4000534-5.6110899,.3907462-6.0037538-.012222-6.5210285,.101816-6.9295836-.3907462-2.1020317-2.5341486,4.3146751-14.3248563,8.8516219-13.5081808,3.9813441,.7167005,6.5027722,11.1397707,3.6890515,13.5081808Z" fill="#2f2622"/>
    <path d="M42.4331517,192.8843282c-.6649487,.3063336-2.6601146,.3073806-6.6233175,.2969791-3.5563482-.0093318-5.3461689-.0196651-5.917356-.2969791-2.4247898-1.1772644,2.1405387-6.1170906,6.6561609-6.0628068,4.4169768,.0531003,8.450891,4.8804896,5.8845125,6.0628068Z" fill="#333"/>
    <line x1="57.0193349" y1="79.4669005" x2="56.7260886" y2="79.4501435" fill="none"/>
    <path d="M57.0799936,49.6122542v4.9299927c-.9599609,.7000122-3.2299805,2.1300049-6.4799805,2.3400269-1.6799927,.1099854-3.1400146-.1500244-4.3200073-.5100098-.0700073-.1900024-.1300049-.3800049-.1900024-.5599976-1-1.1199951-1.6300049-2.6699829-1.6300049-4.4000244,0-1.1099854,.2700195-2.1499634,.7200317-3.0499878,.0499878-.0999756,.0999756-.2000122,.1599731-.3099976,.1199951-.2000122,.25-.4000244,.3900146-.5900269,.0100098-.0099487,.0100098-.0199585,.0100098-.0199585,.0100098-.0100098,.0199585-.0200195,.0299683-.0300293,.9800415-1.2999878,2.4299927-2.1300049,4.0499878-2.1300049,.2900391,0,.5700073,.0400391,.8400269,.0900269,.0599976,0,.1099854,0,.1599731,.0100098,3.3099976,.5299683,4.0200195,4.4499512,6.2600098,4.2299805Z" fill="#2f2622"/>
    <path d="M69.2099984,51.412242c0,1.9500122-.7999878,3.6799927-2.039978,4.7999878-.0200195,.0900269-.0400391,.1800537-.0499878,.2600098-1.0500488,.25-2.2800293,.4000244-3.6500244,.2999878-3.1900024-.2299805-5.4000244-1.6699829-6.2700195-2.3199463-.039978,.0299683-.0799561,.0599976-.1199951,.0899658v-4.9299927c1.4899902-.1500244,1.8300171-1.710022,3.25-2.8099976,.9400024-.9400024,2.1700439-1.5200195,3.5200195-1.5200195,1.8599854,0,3.4899902,1.0800171,4.4500122,2.7300415,.039978,.0499878,.0700073,.1099854,.0899658,.1699829,.5200195,.9400024,.8200073,2.039978,.8200073,3.2299805Z" fill="#443730"/>
    <path d="M67.1200326,56.4722396c-.75,3.5900269-.7400513,3.9200439-1.2400513,5.4800415-.7399902,2.3499756-1.5999756,4.3899536-2.4499512,6.0899658h-6.3500366v-13.5c.0400391-.0299683,.0800171-.0599976,.1199951-.0899658,.8699951,.6499634,3.0800171,2.0899658,6.2700195,2.3199463,1.3699951,.1000366,2.5999756-.0499878,3.6500244-.2999878Z" fill="#493b36"/>
    <path d="M57.0799936,54.5422469v13.5h-5.9099731c-1-1.960022-2-4.1300049-2.960022-6.4799805-.7399902-1.7999878-1.3800049-3.5300293-1.9299927-5.1900024,1.1799927,.3599854,2.6400146,.6199951,4.3200073,.5100098,3.25-.210022,5.5200195-1.6400146,6.4799805-2.3400269Z" fill="#352b27"/>
    <path d="M51.462088,45.5359786c-.585022,.3634033-2.5007019,1.6551514-3.296463,4.1694336-1.1915436,3.764801,1.191864,6.9087524,1.4187164,7.1977539,1.0969849,3.7130127,2.193985,7.4260559,3.2909698,11.1390686" fill="none" stroke="#423531" stroke-miterlimit="10" stroke-width=".8378467"/>
    <path d="M62.2470382,45.5359786c.585022,.3634033,2.5007019,1.6551514,3.296463,4.1694336,1.1915436,3.764801-1.191864,6.9087524-1.4187164,7.1977539-1.0969849,3.7130127-2.193985,7.4260559-3.2909698,11.1390686" fill="none" stroke="#564641" stroke-miterlimit="10" stroke-width=".75"/>
    <line x1="55.9524173" y1="57.1439809" x2="58.5293583" y2="59.2926928" fill="none" stroke="#423531" stroke-miterlimit="10" stroke-width=".8378467"/>
    <line x1="58.3648727" y1="57.1439809" x2="55.7331031" y2="59.3384101" fill="none" stroke="#2f2622" stroke-miterlimit="10"/>
    <line x1="55.9389296" y1="59.7473853" x2="58.5158706" y2="61.8960972" fill="none" stroke="#423531" stroke-miterlimit="10" stroke-width=".8378467"/>
    <line x1="58.351385" y1="59.7473853" x2="55.7196154" y2="61.9418144" fill="none" stroke="#2f2622" stroke-miterlimit="10"/>
    <line x1="55.8634306" y1="62.3507897" x2="58.4403717" y2="64.4995016" fill="none" stroke="#423531" stroke-miterlimit="10" stroke-width=".8378467"/>
    <line x1="58.2758861" y1="62.3507897" x2="55.6441165" y2="64.5452188" fill="none" stroke="#2f2622" stroke-miterlimit="10"/>
    <line x1="55.8499429" y1="64.954194" x2="58.426884" y2="67.1029059" fill="none" stroke="#191412" stroke-miterlimit="10"/>
    <line x1="58.2623984" y1="64.954194" x2="55.6306288" y2="67.1486232" fill="none" stroke="#2f2622" stroke-miterlimit="10"/>
    <line x1="55.9011801" y1="54.5247943" x2="58.4781212" y2="56.6735061" fill="none" stroke="#564641" stroke-miterlimit="10" stroke-width=".75"/>
    <line x1="58.3136356" y1="54.5247943" x2="55.681866" y2="56.7192234" fill="none" stroke="#423531" stroke-miterlimit="10" stroke-width=".8378467"/>
    <path d="M38.2921356,130.2698043c3.274704,.1700134,6.5493927,.3400574,9.8240967,.5100708-.4232025,2.3399353-.7883453,4.8805237-1.0473785,7.6029663-.2204895,2.3173218-.340332,4.5167236-.3871002,6.580658-3.6451569-1-7.290329-2-10.9354858-3,.0310822-2.1261902,.2909088-4.7999268,1.1308594-7.7667236,.4157257-1.4683838,.9088135-2.7799072,1.4150085-3.9269714Z" fill="#444443"/>
    <path d="M47.0388406,148.0768085c-1.2713808,5.1723221-2.1532654,9.5457905-2.7511016,12.7865101-1.7364003,9.4125731-2.604594,14.1188603-2.209129,17.3505693,.4535511,3.7062878,1.4228986,5.8975021,.0858944,7.4613503-1.6465698,1.9259434-5.4850351,1.3726389-8.5224598,.5811471,1.448747-4.8857913,1.8389584-8.8821564,1.9407356-11.5433392,.2883884-7.5400415-1.4457101-12.0216306-1.8777258-22.6115935-.0349095-.8558552,.1582016-3.3206767-.0235626-6.6737933-.1446044-2.6675015-.4247334-4.8250868-.6286823-6.1825837,1.4258322,1.0370369,3.6069211,2.3699339,6.5090106,3.2791625,3.7306153,1.1688134,6.9677612,1.1096862,8.9258005,.9198688-.382191,1.1231744-.9718603,2.6924796-1.44878,4.6327017Z" fill="#2f2622"/>
    <path d="M38.599959,186.6586045c-.5872765,.074888-1.1745351,.1497265-1.7618117,.2246146,.4353839-5.8316874,.3936703-10.5513693,.2841395-13.7078567-.2784179-8.0231958-1.2046467-11.9881505-1.0456883-20.0334373,.0800813-4.053054,.3999369-7.3380498,.6415765-9.3891946,1.0374236,.521373,2.6261877,1.1533137,4.6430794,1.347957,1.0776108,.1039869,2.033329,.0595895,2.8178116-.0356395-1.1928615,6.6220238-2.292365,13.5449776-3.2589933,20.7536814-.964749,7.1947085-1.7267964,14.1496379-2.3201137,20.8398752Z" fill="#352b27"/>
    <rect x="35.0310011" y="175.2646074" width="7.3622271" height="2.2702942" transform="translate(18.2874561 -3.0391893) rotate(5.8839752)" fill="#493b36"/>
    <rect x="35.038717" y="171.1568526" width="7.7517456" height="2.7567858" transform="translate(17.8923553 -3.0803059) rotate(5.8839752)" fill="#493b36"/>
    <ellipse cx="72.2099373" cy="140.8997171" rx="8.4325225" ry="3.3478508" transform="translate(-25.0075393 15.9366523) rotate(-10.7470706)" fill="#2f2622"/>
    <circle cx="71.3252778" cy="118.557302" r="1.0482781" fill="#333"/>
    <path d="M71.1296429,192.7848684c.5552064,.4673511,1.0555543,.4000534,5.6110899,.3907462,6.0037538-.012222,6.5210285,.101816,6.9295836-.3907462,2.1020317-2.5341486-4.3146751-14.3248563-8.8516219-13.5081808-3.9813441,.7167005-6.5027722,11.1397707-3.6890515,13.5081808Z" fill="#2f2622"/>
    <path d="M71.129647,192.8822558c.6649487,.3063336,2.6601146,.3073806,6.6233175,.2969791,3.5563482-.0093318,5.3461689-.0196651,5.917356-.2969791,2.4247898-1.1772644-2.1405387-6.1170906-6.6561609-6.0628068-4.4169768,.0531003-8.450891,4.8804896-5.8845125,6.0628068Z" fill="#333"/>
    <circle cx="71.3252778" cy="120.2980149" r="1.0482781" fill="#333"/>
    <circle cx="72.5618708" cy="116.8165891" r="1.0482781" fill="#333"/>
    <path d="M75.2706631,130.2677318c-3.274704,.1700134-6.5493927,.3400574-9.8240967,.5100708,.4232025,2.3399353,.7883453,4.8805237,1.0473785,7.6029663,.2204895,2.3173218,.340332,4.5167236,.3871002,6.580658,3.6451569-1,7.290329-2,10.9354858-3-.0310822-2.1261902-.2909088-4.7999268-1.1308594-7.7667236-.4157257-1.4683838-.9088135-2.7799072-1.4150085-3.9269714Z" fill="#444443"/>
    <path d="M66.523958,148.0747361c1.2713808,5.1723221,2.1532654,9.5457905,2.7511016,12.7865101,1.7364003,9.4125731,2.604594,14.1188603,2.209129,17.3505693-.4535511,3.7062878-1.4228986,5.8975021-.0858944,7.4613503,1.6465698,1.9259434,5.4850351,1.3726389,8.5224598,.5811471-1.448747-4.8857913-1.8389584-8.8821564-1.9407356-11.5433392-.2883884-7.5400415,1.4457101-12.0216306,1.8777258-22.6115935,.0349095-.8558552-.1582016-3.3206767,.0235626-6.6737933,.1446044-2.6675015,.4247334-4.8250868,.6286823-6.1825837-1.4258322,1.0370369-3.6069211,2.3699339-6.5090106,3.2791625-3.7306153,1.1688134-6.9677612,1.1096862-8.9258005,.9198688,.382191,1.1231744,.9718603,2.6924796,1.44878,4.6327017Z" fill="#2f2622"/>
    <path d="M74.9628396,186.6565321c.5872765,.074888,1.1745351,.1497265,1.7618117,.2246146-.4353839-5.8316874-.3936703-10.5513693-.2841395-13.7078567,.2784179-8.0231958,1.2046467-11.9881505,1.0456883-20.0334373-.0800813-4.053054-.3999369-7.3380498-.6415765-9.3891946-1.0374236,.521373-2.6261877,1.1533137-4.6430794,1.347957-1.0776108,.1039869-2.033329,.0595895-2.8178116-.0356395,1.1928615,6.6220238,2.292365,13.5449776,3.2589933,20.7536814,.964749,7.1947085,1.7267964,14.1496379,2.3201137,20.8398752Z" fill="#352b27"/>
    <rect x="71.1695703" y="175.262535" width="7.3622271" height="2.2702942" transform="translate(167.3903091 344.1927503) rotate(174.1160248)" fill="#493b36"/>
    <rect x="70.7723361" y="171.1547802" width="7.7517456" height="2.7567858" transform="translate(166.5902581 336.5048489) rotate(174.1160248)" fill="#493b36"/>
    <line x1="80.5099891" y1="84.1419417" x2="60.4236929" y2="100.2538101" fill="none"/>
    <path d="M65.4465698,123.6517317c3.600769,.4963074,7.2015228,.9926453,10.8022919,1.4889526,.7773285-5.7409363,.989212-10.6079102,1.0135345-14.2416992,.0726166-10.8496094-2.2420807-19.6323242-3.3567505-22.8330688-.6345978-1.8222351-1.2238617-3.7152405-1.2238922-3.715332-.7438049-2.0921936-1.4782104-3.8944397-2.1144257-5.3565369-1.1688232,2.4916077-2.5943451,5.1897278-4.3371887,8.001709-2.4468994,3.947937-4.9913483,7.2685242-7.3548279,10,.7367096,5.0599976,1.8236542,10.608429,3.419342,16.5161133,.9747925,3.6089783,2.0421906,6.9918823,3.1519165,10.1398621Z" fill="#444443"/>
    <g>
      <rect x="64.4817209" y="122.03279" width="12.7831302" height="12.7831302" rx="4.2611368" ry="4.2611368" transform="translate(141.746572 256.8487102) rotate(-180)" fill="#2f2622"/>
      <g>
        <polygon points="71.150313 123.0893956 74.8935414 125.5690871 74.6164938 130.0487712 70.8733061 131.9136218 70.8733059 133.7108813 70.8935545 133.7244079 76.211061 130.6298362 76.1908131 124.4745079 70.8733073 121.434 70.8733071 123.2244962 71.150313 123.0893956" fill="#515150"/>
        <polygon points="65.535511 124.5082819 65.5558001 130.6636101 70.8733059 133.7108813 70.8733061 131.9136218 70.596259 132.0487224 66.8530718 129.5690309 67.1301194 125.0893469 70.8733071 123.2244962 70.8733073 121.434 70.8530175 121.4204734 65.535511 124.5082819" fill="#70706f"/>
        <polygon points="66.8530718 129.5690309 70.596259 132.0487224 70.8733061 131.9136218 74.6164938 130.0487712 74.8935414 125.5690871 71.150313 123.0893956 70.8733071 123.2244962 67.1301194 125.0893469 66.8530718 129.5690309" fill="#70706f"/>
        <polygon points="70.8733071 123.2244962 70.8733061 131.9136218 74.6164938 130.0487712 74.8935414 125.5690871 71.150313 123.0893956 70.8733071 123.2244962" fill="none"/>
        <polygon points="66.8530718 129.5690309 70.596259 132.0487224 70.8733061 131.9136218 70.8733071 123.2244962 67.1301194 125.0893469 66.8530718 129.5690309" fill="#838283"/>
      </g>
    </g>
    <path d="M48.5562652,123.3220503c-3.600769,.4963074-7.2015228,.9926453-10.8022919,1.4889526-.7773285-5.7409363-.989212-10.6079102-1.0135345-14.2416992-.0726166-10.8496094,2.2420807-19.6323242,3.3567505-22.8330688,.6345978-1.8222351,1.2238617-3.7152405,1.2238922-3.715332,.7438049-2.0921936,1.4782104-3.8944397,2.1144257-5.3565369,.9825287,2.3397217,2.3687897,5.1000977,4.3371887,8.001709,2.5796661,3.8026733,5.3391876,6.6391907,7.6187439,8.6522522-.7791138,5.4692993-1.94664,11.4721985-3.6832581,17.8638611-.9768524,3.5953369-2.042511,6.9777832-3.1519165,10.1398621Z" fill="#444443"/>
    <path d="M49.9858593,119.1009308c-1.3667125,.259703-3.6123471,.5221701-6.3179389,.0787805-3.0102878-.493312-5.208444-1.6340536-6.4233302-2.3783531-.1938991-1.5427742-.3404577-2.8653578-.4477397-3.8952701-.2710151-2.6017005-.5446487-5.2816701-.652454-8.584761-.0421816-1.292332-.0497146-2.5013794-.0402925-3.7877953,.0129813-1.7716356,.1666095-9.1376167,3.0914357-9.7994691,1.1995858-.2714607,2.426905,.6840116,3.8192032,1.8288716,2.7855162,2.2904552,6.6019369,5.6436022,10.9954384,10.2111837-1.3414355,5.4422803-2.6828865,10.8845325-4.0243221,16.3268128Z" fill="#2f2622"/>
    <path d="M49.0846262,117.3438663c-1.1443242,.2234139-3.0243526,.4502682-5.2885196,.0750301-2.5191511-.4174872-4.3577124-1.388746-5.3737163-2.0227328-.1604063-1.316977-.2814569-2.4460143-.3699909-3.325218-.2236542-2.22099-.449404-4.5088026-.5355813-7.3288379-.0337192-1.1033368-.0385382-2.1356082-.0290699-3.2339574,.0130441-1.5126324,.1506944-7.8018712,2.5997302-8.3705545,1.0044455-.233247,2.0305968,.5810231,3.1946107,1.5567889,2.3287968,1.9521583,5.5192044,4.8103719,9.1911637,8.704756-1.1295379,4.6482499-2.2590887,9.2964757-3.3886266,13.9447256Z" fill="#2f2622" stroke="#352b27" stroke-miterlimit="10" stroke-width=".75"/>
    <g>
      <rect x="37.2383477" y="121.6727485" width="12.7831302" height="12.7831302" rx="4.2611368" ry="4.2611368" fill="#2f2622"/>
      <g>
        <polygon points="43.3528858 122.7293541 39.6096574 125.2090457 39.886705 129.6887297 43.6298927 131.5535803 43.6298929 133.3508398 43.6096443 133.3643664 38.2921378 130.2697947 38.3123857 124.1144665 43.6298915 121.0739585 43.6298917 122.8644548 43.3528858 122.7293541" fill="#515150"/>
        <polygon points="48.9676878 124.1482404 48.9473987 130.3035686 43.6298929 133.3508398 43.6298927 131.5535803 43.9069398 131.688681 47.650127 129.2089894 47.3730794 124.7293054 43.6298917 122.8644548 43.6298915 121.0739585 43.6501813 121.060432 48.9676878 124.1482404" fill="#70706f"/>
        <polygon points="47.650127 129.2089894 43.9069398 131.688681 43.6298927 131.5535803 39.886705 129.6887297 39.6096574 125.2090457 43.3528858 122.7293541 43.6298917 122.8644548 47.3730794 124.7293054 47.650127 129.2089894" fill="#70706f"/>
        <polygon points="43.6298917 122.8644548 43.6298927 131.5535803 39.886705 129.6887297 39.6096574 125.2090457 43.3528858 122.7293541 43.6298917 122.8644548" fill="none"/>
        <polygon points="47.650127 129.2089894 43.9069398 131.688681 43.6298927 131.5535803 43.6298917 122.8644548 47.3730794 124.7293054 47.650127 129.2089894" fill="#838283"/>
      </g>
    </g>
    <circle cx="78.8653025" cy="60.8445999" r="3.7295826" fill="#444443"/>
    <path d="M62.658043,33.2429103c-.6199983,.3853767-2.739775,1.6254246-5.8230445,1.6337601v-.3183858c.0167733,.0083866,.0335466,.0083866,.0502688,.0083866,2.1364988,.2513438,2.2454229-.8881154,5.6890116-1.6086513,.0251088,.1005375,.0502688,.1926884,.0837642,.2848904Z" fill="#443730"/>
    <path d="M56.8349984,34.5582846v.3183858h-.3099992c-2.8654213-.0837642-4.8343916-1.2148368-5.5130454-1.6337601,0-.0083866,.0083866-.0167733,.0083866-.0251599,.628385,.0670421,1.055695,.134033,1.323812,.1843529,2.580582,.4272588,3.1084295,.9802663,4.4908458,1.1561813Z" fill="#2f2622"/>
    <path d="M69.7865026,43.8051785c.0790851,.0815141,.5435725,.567096,.9510025,1.317701,.0965871,.1779606,.3210578,.5914889,.2587204,.6359023-.0890187,.0634368-.721776-.6551558-1.1489197-1.2036119-.3068925-.3940446-.4632729-.6432918-.6081087-.8513471-.9219688-1.3244768-2.0550741-1.9562881-2.0270504-1.9932609,.0330352-.0435952,1.4960324,.9830022,2.574356,2.0946167Z" fill="#444443"/>
    <path d="M69.8777074,43.7545006c.0143315-.6572269,.634317-1.1356238,.7398788-1.0743348,.1122353,.0651499-.3879592,.7223513-.2128368,1.5912387,.0813224,.4034796,.2616865,.6215069,.2181551,.6496584-.0735366,.0475584-.7605386-.4632089-.7451972-1.1665624Z" fill="#444443"/>
    <path d="M69.9587997,43.9774627c-.1770529,.0111737-.2041561-.7204847-.7094772-1.489883-.4965765-.7560768-1.0996098-1.0075996-1.0743348-1.0439076,.0451422-.0648431,1.9589601,.7498636,2.0133966,1.885155,.0150602,.3141414-.1128107,.6412718-.2295845,.6486357Z" fill="#444443"/>
    <path d="M82.1132415,49.2431319c-.7812805,.0918579-1.9230347,.1950684-3.3024445,.2042236-3.9223022,.026062-6.8779449-.7295837-8.9032288-1.2580566-3.7229156-.9714661-7.4804535-1.9816589-11.2711792-3.0322266-6.8206329-1.8902588-13.4850159-3.8381348-19.9910126-5.8314514,1.7175751-1.3321228,3.6027374-2.6727295,5.6470795-3.9964752,.7624207-.4859772,1.5248871-.9551697,2.2705383-1.3992462,7.0127716,5.2868042,9.9201202,5.7895508,11.1350098,4.8595581,1.2316132-.938385,.8797302-3.4352112,2.6140747-4.1305847,.804306-.3183899,1.2400055,.2094574,3.2256927,.3518829,1.2567749,.0837555,2.3627319,.1173096,3.2676239,.1256409,.8489227,.6380463,1.8641968,1.5574493,2.781662,2.8403168,2.2326813,3.1218872,2.4709625,6.4173584,2.4817963,7.8900146,.0764008-.0884399,.2290192-.2652283,.4200439-.4875488,2.7796326-3.235199,3.5370636-4.2962341,5.0995789-4.939209,.1709137-.070343,.4641418-.1820374,.8496552-.2791748,.7830353,1.9864807,1.5845032,3.9854126,2.4049225,5.9962463,.4220734,1.0345154,.8455048,2.0632019,1.2701874,3.0860901Z" fill="#375357"/>
    <path d="M77.0773986,37.0215438c.3294525,2.7316895-11.7344513,7.1413574-22.4040527,8.5795898-5.7805023,.7791748-10.6604919,.6200562-14.0238495,.3301086-1.4738617,.0867615-3.4391022,.4380493-5.3041992,1.6585693-1.2348633,.8081055-1.8293915,1.6069031-2.0453796,1.4715881-.3076477-.192749,.3385925-2.1641235,4.4824524-9.9116821,5.563324,2.7313843,13.9585114,4.5411072,21.9683685,1.8599854,3.9294586-1.3070374,8.5627747-3.9629822,11.0176544-6.476532,3.2760162,.4021606,6.1665344,1.3070374,6.3090057,2.4883728Z" fill="#43666d"/>
    <path d="M70.7683925,34.5331758c-2.4548846,2.51354-7.0882012,5.1694996-11.0176529,6.4765383-8.0098632,2.6811195-16.405052,.8713933-21.9683661-1.859995,.8210734-1.6170379,1.457845-2.806817,1.5919291-2.8905812,2.0024147-1.3489209,3.5943438-1.9019283,3.5943438-1.9019283,.9886529-.3434946,2.48838-.7456447,4.3651995-.8126867,1.8767683,.8462333,4.9097692,1.9438104,8.6884658,2.0275746,4.1892333,.1005375,5.7643891-1.1310725,10.0708821-1.2735433,1.4746183-.0502688,3.1168162,.0335466,4.6751987,.2346216Z" fill="#415a58"/>
    <path d="M68.4475409,32.1872153c-1.0808038,.8629555-1.8097263,.8043001-11.8136175,1.1310725-9.920127,.3183858-10.6322762,.42731-11.6711979-.3770412-4.9433158-3.8205787-1.1059637-15.7431204,.9216109-21.3315433,.2094617-.5948895,.4105367-1.1143504,.5697296-1.550047C49.394916,2.1755418,52.2854972,.642268,54.0701147,.1982359c1.6254246-.4105878,3.0246142-.0838153,3.7535367,.0921509,5.3538524,1.2902655,8.1857783,6.9457304,9.5095903,9.6771187,.6367716,1.3154254,1.2818788,2.8989679,1.859995,4.6165433,2.1197766,6.2922366,3.2676224,14.3774262-.7456958,17.6031666Z" fill="#141619"/>
    <polyline points="56.7260886 26.8417516 64.04049 21.0689881 64.0488684 21.0606096" fill="none"/>
    <path d="M61.8788517,28.5844849c.0167733,1.7510709,.335108,3.2340758,.695427,4.373535-1.5766772,1.0955827-2.682104,1.8666686-3.2541092,2.2659804-1.3725339,.9581235-2.0247109,1.4166021-2.3784076,1.189191-.3980334-.2558951-.2088224-1.245852-.0564948-1.8465202-.0089747-.0026848-.0173358-.0030427-.0251088-.0010483-.1227059,.0314755-.0955132,.6472805,.0816036,1.8475685-.0355921-3.7658098-.0711715-7.5315941-.1067636-11.2974039,.1089242,0,.226235-.0083866,.3435458-.0083866,2.7397238-.0754287,4.6919209-1.030535,5.4794988-1.4662317-.40215,1.2148879-.8043512,2.9073034-.7791913,4.9433158Z" fill="#443730"/>
    <path d="M57.2372039,37.4572432c-2.2299652-.6359863-3.0224915-1.5476685-3.3224945-2.2872925-.2292938-.5652771-.3100281-1.3731384-.9746246-1.7678528-.4027252-.2391663-.8534851-.2278442-1.1625671-.1843414,.3458405-1.1562347,.6916504-2.7397766,.7063751-4.6332703,.00737-1.0892487-.0956573-2.0862885-.2501831-2.9576263-.0146942-.1005402-.0294189-.2094574-.0515137-.3016052l1.4274597,1.1813354,.927124,.7624664,.1839447,.1508026c0-.0083771,.0073547-.0167694,.0073547-.0251465l.8829803,.7456818c.4046783,.3435059,.8903351,.4775848,1.368576,.4021606,.0883026,2.9743958,.16922,5.9403534,.2575684,8.9146881Z" fill="#2f2622"/>
    <path d="M56.9439226,28.5425517c-.5445696,.0754287-1.0975771-.0586554-1.5583825-.40215l-1.0054262-.7456958c0,.0083866-.0083866,.0167733-.0083866,.0251599l-.2094617-.1508063-1.055695-.7624691-1.6254246-1.1813413c-.134033-.6367716-.3016125-1.1981146-.4691921-1.68408,.4189233,.226235,1.2987032,.6786538,2.5219266,1.0221484,.921662,.2597304,2.0359613,.4524699,3.3011179,.4524699,.0335466,1.1394592,.0754287,2.287305,.1089242,3.4267642Z" fill="#2f2622"/>
    <ellipse cx="56.8336481" cy="28.5693265" rx="1.1939111" ry="1.247962" fill="#493b36"/>
    <ellipse cx="56.8336481" cy="32.26906" rx="1.1939111" ry="1.247962" fill="#493b36"/>
    <path d="M65.7521099,17.0387672c0,2.7816059-.5697296,5.3705746-1.5499959,7.4986867-.2765037,.2178483-.5446208,.42731-.8211245,.6451583l-2.3040783,1.8181129v.0083866l-2.8821946,2.2705829c-.3267213,.2513438-.7037626,.4105367-1.0891904,.4440321-.5445696,.0754287-1.0975771-.0586554-1.5583825-.40215l-1.0054262-.7456958c0,.0083866-.0083866,.0167733-.0083866,.0251599l-.2094617-.1508063-1.055695-.7624691-1.6254246-1.1813413-.5948384-.4356966-1.1143504-.8043512c-.2932259-.5613429-.5613429-1.1561813-.7959646-1.7845663-.4775787-1.2651566-.8126867-2.6727329-.9802663-4.1557379-.0502688-.3686546-.0837642-.7540825-.1005375-1.1311237,0-.0334955-.0083866-.0921509-.0083866-.1591418-.0083866-.1340841-.0167733-.2681171-.0167733-.4105878-.0083355-.1675284-.0083355-.3686546-.0083355-.5864518,0-.494352,.0167222-.9887041,.0502688-1.4746183,.4943009-6.6273957,4.2562242-11.7885087,8.8141121-11.7885087,4.893047,0,8.864432,5.9403042,8.864432,13.263127Z" fill="#c0a278"/>
    <path d="M65.7521155,17.03878c0,2.7816059-.5697296,5.3705746-1.5499959,7.4986867-.2765037,.2178483-.5446208,.42731-.8211245,.6451583-.7708046,.6116117-1.5416092,1.2148879-2.3040783,1.8264996v-.0083866c.2178483-1.25677,.4022012-3.2256892-.0837642-5.5129942-.1424196-.695427-.494352-2.3711204-1.1311237-3.6111171-.1401695,.1822051-.4606137,.5482772-1.0053751,.7875779-.5408877,.2376132-1.023772,.2276413-1.2527173,.2082855,.3618404-.2877541,.84002-.7517045,1.2024485-1.4399467,.1192413-.2264395,.2087074-.4444157,.2764526-.6451583-.2345705-.2094617-.5026875-.3518813-.7875779-.3853767-1.6254246-.1927395-3.2173025,3.0162275-3.4099909,3.4100421-.3519324,.7205359-.4440833,1.2902655-1.1897791,6.0324551-.1256463,.7792424-.2261838,1.4411229-.3016125,1.9354237-.5865029-.4272588-1.1646191-.8461822-1.751122-1.2734922,.0251599,.0921509,.0419332,.201075,.0586554,.3016125-.201075-.201075-.4189233-.4440833-.6534938-.7373092-.5278475-.628385-1.1562325-1.4746183-1.9103149-2.5889175-.3770412-.5530074-.7791913-1.1813924-1.2232234-1.885155,.1675284-1.7176266,.1759151-2.7565482,.1424196-3.4017065,0-.0334955-.0083866-.0921509-.0083866-.1591418-.0083866-.1005886-.0083866-.2430083-.0167733-.4105878-.0083355-.1675284-.0083355-.3686546-.0083355-.5864518,0-.494352,.0167222-.9887041,.0502688-1.4746183,.4943009-6.6273957,4.2562242-11.7885087,8.8141121-11.7885087,4.893047,0,8.864432,5.9403042,8.864432,13.263127Z" fill="#7c7c7c"/>
    <path d="M50.3500735,26.900405c.134033,.9551063,.3518813,1.8348862,.6367716,2.6559596-.4440833,.628385-1.9940791,2.6224641-4.5746612,4.038427-.2261838-.0921509-.4440321-.1843529-.6618805-.2765037-.42731-.1843017-.5865029-.2597304-.7038137-.3267725,0,0-.0418821-.0251088-.0837642-.0502688-.0285223-.0171313-.6138618-.4796754-.8713421-.8462333-1.2541108-1.7854101-1.5704255-3.5420551-1.5704383-3.5421318-.9204475-5.1117391,2.6413213-15.0162178,3.665055-17.7810249,.134685-.3637198,.206713-.5476379,.2680659-.7122003C49.3027651,2.4184989,52.1011955,.7428056,53.9025351,.240118c1.2483833,3.8038054,2.4968178,7.607662,3.7452012,11.4198541-5.2365416,3.5859571-8.0936274,9.4844304-7.2976628,15.2404328Z" fill="#43666d"/>
    <path d="M61.2120876,28.1428563c.3877035-2.7423063,.7358261-7.0840334-.8108202-11.5676944-.9900464-2.8701004-2.9657542-4.7614431-2.7567912-4.918974,.1443756-.1088475,1.0444446,.8264429,1.5891804,1.4713966,1.413585,1.6736478,2.0897074,3.3529464,2.4127084,4.2577072,.7751258,2.1711704,2.6380996,7.389379,.6468075,13.0278406-.7696284,2.1792502-2.0091905,4.1216543-2.3063028,4.0076931-.3226303-.1237542,.7026503-2.5816815,1.2252178-6.2779691Z" fill="#141619"/>
    <path d="M59.8905895,31.2847301c-.0791618-.0393763,.7574064-1.588912,1.321498-3.1418738,3.0759057-8.4681117-1.7050594-17.7134714-3.3206527-18.5529034-.1144599-.0594736-.6940591-.3266702-.6966288-.6966288-.002314-.3326534,.4625313-.6568689,.6966288-.6966288,1.6100959-.2734866,7.6063069,10.3102084,4.4557907,18.6488385-.8102321,2.1444763-2.3570063,4.4887747-2.4566361,4.4391964Z" fill="#1e232a"/>
    <path d="M46.941655,12.9534848c-1.479796,5.2404537-.2991963,10.1982927,.3243306,10.2163444,.6992752,.0202251-.4300714-6.2053018,3.5676113-10.3785034,1.4055947-1.4673056,2.9798044-2.195282,3.2432807-4.0541009,.2227831-1.5717807-.5524705-3.5225203-1.6216404-3.7297575-1.7712193-.3433412-4.4229984,4.0839144-5.5135823,7.9460173Z" fill="#3b5657"/>
    <path d="M56.3471665,37.2780901c-1.8502277-.7435991-3.7597627-1.4781468-5.7279404-2.198248-1.4218182-.5202023-2.824677-1.0147589-4.2070422-1.4850505,2.580582-1.4159629,4.1305779-3.4100421,4.5746612-4.038427,.5047459,1.2512982,1.2746555,2.8172492,2.4569685,4.459447,.9915422,1.3772002,2.016874,2.4520976,2.903353,3.2622785Z" fill="#375357"/>
    <path d="M55.4274222,15.1118963c-2.472182,4.2764493-1.7473762,7.9861095-3.9032818,13.6045505-.1614686,.4207899-.4505778,1.1428343-1.014874,1.966976-1.4315472,2.0907557-3.3729158,2.9967695-3.9459821,3.2432807-.3850827,.1656363-1.0678403,.42731-2.4970607,.6735144-3.7894612,.652829-7.2306208,.2322437-7.2306208-.0419332,0-.3267213,2.5554221-.0753776,5.5633141-1.4997271,.6032251-.2848392,1.1646191-.6116117,1.6924666-.9635441,3.6529992-2.4716067,5.3035326-6.2335301,5.5548763-6.820033,.8165988-1.9248126,.630226-2.6395954,.9278114-3.9817405,.1944271-.876865,.4428432-1.4803458,.7898152-2.268614,.0000384-.0000767,1.3697596-3.1118813,3.9757829-5.5249861,.378422-.3503983,.9236692-.7985982,1.1426298-.9785787,.7375776-.6062678,1.1063601-.9094144,1.1654373-.8610889,.1526728,.1249048-1.2689409,1.8062233-2.2203141,3.4519242Z" fill="#1e232a"/>
    <path d="M38.4827354,35.3352002c.0672466,.0456152,.7522543-1.7345788,2.4588606-2.3815014,1.3024107-.4936872,2.1040389,.0879831,3.5676113,0,2.0366388-.1224502,3.4488431-1.4789139,4.4865247-2.324329,4.2021073-3.4235169,1.7434897-8.1408023,5.8919531-14.865028,1.3799873-2.2368317,2.9336523-3.8258971,2.7297647-4.0135484-.2669281-.2456674-3.0116379,2.4010106-3.8713972,3.3438949-.6544526,.7177233-1.1644274,1.4875818-1.1887563,1.5245802-.1797376,.2733332-.3097435,.4949146-.3723365,.6045546-.7367978,1.2903933-1.0436008,2.4266308-1.4169473,3.8093028-.2953737,1.0939207-.2911931,1.495048-.4320147,2.1283678-.4860037,2.1857703-1.9233552,4.6599851-3.9889382,6.1165005-2.1439266,1.5117701-3.0353532,.5667636-5.1351859,2.2162486-2.0434274,1.6051739-2.8028794,3.7909442-2.7291382,3.8409573Z" fill="#242930"/>
    <path d="M71.3849465,44.404922c.2943865,.5127736,2.6665289-.1946537,4.4025607-1.1510297,1.798244-.990644,3.6925329-2.6772923,3.4075347-3.2037021-.2833956-.5234223-2.7231514,.0971726-4.578735,1.1507269-1.7707173,1.0053604-3.5227932,2.6963696-3.2313603,3.204005Z" fill="#333"/>
    <path d="M79.4403217,42.3231788c-1.3988242,.3217192-3.6096341,1.0212414-5.8720123,2.6532678-1.5923957,1.148732-2.7035735,2.3938333-3.4356831,3.36127,.0269285-.5980026,.0296977-1.3630317-.0479266-2.247032-.1278967-1.4564629-.4124638-2.534748-.4867958-2.8077212-.5844503-2.1460856-1.5547763-3.6454131-2.021766-4.3546557-1.240397-1.8838282-2.6564127-3.1906792-3.7643285-4.0434411,.4655195,.2455615,1.2054767,.6030797,2.1533071,.9158615,2.9222891,.9643693,4.7318354,.1580777,6.6975731,.888449,2.5998835,.965929,4.3461504,2.4342356,5.2859695,3.3470551,.4578352,.7436601,.952059,1.5059416,1.4916625,2.2869465Z" fill="#496669"/>
    <path d="M63.8118146,34.8848633c.6131328-.3215573,4.6281869-2.3416976,9.2467097-.5730851,4.0855188,1.564497,5.79135,5.0016322,6.1365037,5.738414-.8350019,.3071882-1.7711566,.7242418-2.7503643,1.29691-2.1020233,1.2292966-3.5770188,2.6929189-4.5419432,3.8396293-.4131353-1.6617451-1.5032387-5.002337-4.5131636-7.8158237-1.2522411-1.1705105-2.5235433-1.9569704-3.5777424-2.4860445Z" fill="#444443"/>
    <ellipse cx="73.5368151" cy="37.164705" rx="3.0856536" ry="4.2143568" transform="translate(1.9921204 78.0332152) rotate(-56.5478611)" fill="#352b27"/>
    <ellipse cx="73.5368151" cy="37.164705" rx="1.9181342" ry="2.6197697" transform="translate(1.9921204 78.0332152) rotate(-56.5478611)" fill="#493b36"/>
    <path d="M69.6040674,30.9942401c-3.4256392,5.3340364-11.1690728,6.3162204-11.7016506,5.2318625-.3427276-.697805,2.6315284-1.5805253,4.1573359-5.2032252,.9071388-2.153809,.7762252-4.0310632,.5550402-7.3849556-.194133-2.9436626-.3618404-5.4868371-1.9310898-8.2519765-1.0127518-1.7845408-2.2338785-3.000119-3.081109-3.7297575-1.2473094-3.8053652-2.4946317-7.6107047-3.7419411-11.4160699,.0586554-.0167733,.1089242-.0251599,.1675796-.0418821,1.6254246-.4105878,3.0246142-.0838153,3.7535367,.0921509,5.3538524,1.2902655,8.1857783,6.9457304,9.5095903,9.6771187,.1783953,.3680665,.4857353,.9904939,.8431778,1.8386705,.0000384,.0000767,.5670704,1.3493555,1.0168172,2.7778728,1.7220117,5.469578,3.2656536,10.3732617,1.195954,15.0182634-.3295339,.7395592-.6501443,1.2469515-.7432412,1.391928Z" fill="#517b80"/>
    <path d="M67.8607951,23.656306c-.3488002,.0631811-.2662889-7.4554239-5.6757284-14.919081-2.2865891-3.1549141-4.9258905-5.432733-4.7027493-5.6757157,.217273-.2365904,3.0471405,1.5663089,5.1892389,3.8919164,6.1793109,6.7087309,5.5881544,16.6306221,5.1892389,16.7028803Z" fill="#609395"/>
    <g>
      <polygon points="56.6703024 35.7757111 54.468479 37.234303 54.6314426 39.8693208 56.8332421 40.9662541 56.8332422 42.0234293 56.8213317 42.0313858 53.6934941 40.211112 53.7054042 36.590455 56.8332414 34.8019824 56.8332415 35.8551793 56.6703024 35.7757111" fill="#515150"/>
      <polygon points="59.9730138 36.6103214 59.9610794 40.2309784 56.8332422 42.0234293 56.8332421 40.9662541 56.9962054 41.0457224 59.1980046 39.5871304 59.035041 36.9521126 56.8332415 35.8551793 56.8332414 34.8019824 56.8451761 34.7940258 59.9730138 36.6103214" fill="#70706f"/>
      <polygon points="59.1980046 39.5871304 56.9962054 41.0457224 56.8332421 40.9662541 54.6314426 39.8693208 54.468479 37.234303 56.6703024 35.7757111 56.8332415 35.8551793 59.035041 36.9521126 59.1980046 39.5871304" fill="#70706f"/>
      <polygon points="56.8332415 35.8551793 56.8332421 40.9662541 54.6314426 39.8693208 54.468479 37.234303 56.6703024 35.7757111 56.8332415 35.8551793" fill="none"/>
      <polygon points="59.1980046 39.5871304 56.9962054 41.0457224 56.8332421 40.9662541 56.8332415 35.8551793 59.035041 36.9521126 59.1980046 39.5871304" fill="#838283"/>
    </g>
    <path d="M60.3479176,15.9741869c-.2838932,1.5424019-2.2112371,2.4448359-2.3243546,2.3243546-.1138462-.1212484,1.6771508-1.2068336,1.7837993-2.9189629,.1268225-2.0360635-2.2124644-3.6078187-2.1899125-3.6287853,.0259526-.0241372,3.129882,2.0533482,2.7304678,4.2233936Z" fill="#242930"/>
    <path d="M71.5241273,56.1247847c2.0979651-.6568849,4.1959417-1.3137697,6.2939068-1.9706546-.1426187-.2949206-.285226-.5898651-.4278447-.8847856-2.1037141,.6220365-4.2074169,1.2440969-6.311131,1.8661333l.4450689,.9893069Z" fill="#2f2622"/>
    <path d="M72.8051445,58.4715622c2.1147811-.6607892,4.2295737-1.3215783,6.3443549-1.9823675-.1437618-.2966735-.2875122-.593371-.431274-.8900445-2.1205762,.6257337-4.2411409,1.2514914-6.3617171,1.877225l.4486363,.995187Z" fill="#2f2622"/>
    <path d="M28.6172393,90.0280135c1.2908936,.190918,2.5817871,.3818054,3.8726807,.5727234,.5193634-1.4597778,1.362793-3.6616211,2.6072845-6.253479,2.3054504-4.8014526,3.8281708-6.4445496,4.4888458-9.8292847,.303299-1.5538025,.4800262-3.7569275-.1054535-6.5588074-1.6690063-.5784912-3.3379974-1.1569519-5.0070038-1.7354431-.8393097,1.3649292-1.6551056,2.8762207-2.3996582,4.5393372-3.2973633,7.3654785-3.7048645,14.3751221-3.4566956,19.2649536Z" fill="#515150"/>
    <path d="M40.8187164,71.6002486c-1.1906128,.2505493-3.1074982,.5029297-5.416214,.1401367-2.3980865-.3768005-4.1983795-1.256958-5.2634277-1.8821106-.7004395,3.9291382-1.2438812,8.3295898-1.4573212,13.1374817-.1091309,2.4584351-.1223755,4.8066711-.0645142,7.0322571,1.2908936,.190918,2.5817871,.3818054,3.8726807,.5727234,2.2245636-4.0153809,4.4161835-8.5497742,6.3853912-13.6049805,.7163696-1.8390198,1.361618-3.6399536,1.9434052-5.3955078Z" fill="#444443"/>
    <path d="M32.5877012,73.7044505c-.4366555,2.9529186-.8733237,5.9058116-1.3099792,8.8587301-.3377799-.0987988-.6755599-.1975721-1.0133398-.2963709-.8155632-.2385337-1.3688647-1.1192085-1.3161413-2.0948979l.2980456-5.5166506c.0472133-.8739502,.7403135-1.5038949,1.4813046-1.3463384,.6200367,.131834,1.2400734,.2636936,1.8601101,.3955276Z" fill="#352b27"/>
    <g>
      <polygon points="30.0407957 74.9169986 28.7655264 76.2347364 28.5418506 78.8574263 29.5182484 80.077573 29.3947787 81.1260229 29.3853944 81.1333109 28.0312092 79.1431592 28.458736 75.5489909 30.2394671 73.9533033 30.1159974 75.0017532 30.0407957 74.9169986" fill="#515150"/>
      <polygon points="30.1159974 75.0017532 29.5182484 80.077573 28.5418506 78.8574263 28.7655264 76.2347364 30.0407957 74.9169986 30.1159974 75.0017532" fill="#70706f"/>
      <polygon points="30.1159974 75.0017532 29.5182484 80.077573 28.5418506 78.8574263 28.7655264 76.2347364 30.0407957 74.9169986 30.1159974 75.0017532" fill="none"/>
    </g>
    <path d="M26.0020965,93.7834151c-.0085907,1.0601196,.5757599,2.2775879,1.6145325,2.6813965,1.8037109,.7011414,4.1603699-1.3686218,4.0328674-2.9529419-.0723724-.8993225-.9419403-1.6018677-1.3548431-1.9354858-.4709015-.3804626-1.0178223-.8223572-1.7175293-.8172302-1.2583618,.0092163-2.5623627,1.460907-2.5750275,3.0242615Z" fill="#515150"/>
    <path d="M63.9326668,119.1009308c1.3667125,.259703,3.6123471,.5221701,6.3179389,.0787805,3.0102878-.493312,5.208444-1.6340536,6.4233302-2.3783531,.1938991-1.5427742,.3404577-2.8653578,.4477397-3.8952701,.2710151-2.6017005,.5446487-5.2816701,.652454-8.584761,.0421816-1.292332,.0497146-2.5013794,.0402925-3.7877953-.0129813-1.7716356-.1666095-9.1376167-3.0914357-9.7994691-1.1995858-.2714607-2.426905,.6840116-3.8192032,1.8288716-2.7855162,2.2904552-6.6019369,5.6436022-10.9954384,10.2111837,1.3414355,5.4422803,2.6828865,10.8845325,4.0243221,16.3268128Z" fill="#443730"/>
    <path d="M65.2627084,117.3438663c1.1443242,.2234139,3.0243526,.4502682,5.2885196,.0750301,2.5191511-.4174872,4.3577124-1.388746,5.3737163-2.0227328,.1604063-1.316977,.2814569-2.4460143,.3699909-3.325218,.2236542-2.22099,.449404-4.5088026,.5355813-7.3288379,.0337192-1.1033368,.0385382-2.1356082,.0290699-3.2339574-.0130441-1.5126324-.1506944-7.8018712-2.5997302-8.3705545-1.0044455-.233247-2.0305968,.5810231-3.1946107,1.5567889-2.3287968,1.9521583-5.5192044,4.8103719-9.1911637,8.704756,1.1295379,4.6482499,2.2590887,9.2964757,3.3886266,13.9447256Z" fill="#493b36" stroke="#564641" stroke-miterlimit="10" stroke-width=".75"/>
    <g>
      <path d="M63.0560636,110.9931457c-1.8869298,4.0510561-3.765539,8.1020621-5.6441483,12.153068-.0997447-.1972015-.2078099-.386228-.3075545-.5834295v-50.2884345h3.6657944c.2410412,4.0346059,.4737618,8.0609366,.7148537,12.0955426,.0498723,.780631,.0914242,1.5694369,.1412965,2.3500679,.4738126,8.0937868,.9476251,16.1793987,1.4297582,24.2731855Z" fill="#43666d"/>
      <path d="M57.5283011,72.2827108v51.1118205c-2.0448673-3.9175446-4.0730936-7.8434503-6.1179101-11.7609949,.5153644-7.951992,1.0307288-15.904035,1.5460932-23.8560779,.0498723-.7433755,.0997447-1.4784409,.1412965-2.2218674,.2909642-4.4270635,.5818778-8.8541269,.8645215-13.2812414h3.5327676l.0332313,.0083611Z" fill="#3b5657"/>
      <path d="M57.5864939,72.3575041v8.4786525l-.0581928-.0831544-.0332313-.0498723-4.5385856,6.9990219c.0498723-.7397645,.0997447-1.4712593,.1412965-2.2110746,1.3632449-4.7713063,2.8677862-9.1851857,4.3972891-13.2167274l.0332313,.0083205h.0332313c.0083205,.0249615,.016641,.0498723,.0249615,.0748339Z" fill="#334747"/>
      <path d="M61.6263054,86.8875533l-4.0398115-6.0513968v-8.4786525c.8644708,2.4105639,1.7123512,4.9209233,2.5269496,7.5476176,.4821331,1.5544644,.9476251,3.0922371,1.3715654,4.605099,.0498723,.7896876,.0914242,1.587645,.1412965,2.3773326Z" fill="#3b5657"/>
    </g>
    <rect x="50.8202563" y="66.8398556" width="12.8419435" height="2.8498237" fill="#333"/>
    <path d="M56.2928994,97.8344405c-1.6753387-2.4511719-4.1434021-5.5259399-7.6451569-8.5161133-2.7435913-2.3427734-5.4099884-4.0258484-7.6451569-5.2257996,.2798615-.9623108,.7327118-2.4245605,1.3898773-4.1725464,1.5608978-4.1517944,2.497345-6.5642395,4.7068939-8.6016541,.7427368-.6848755,1.9964142-1.665863,3.9227753-2.4361267,2.4450989-.0266724,4.8901825-.0533447,7.3352814-.0800171-.6881714,9.6774292-1.3763428,19.3548279-2.0645142,29.0322571Z" fill="#2f2622"/>
    <path d="M55.4698223,91.2168741c-1.2959204-1.8960486-3.2050351-4.274466-5.9137384-6.5874471-2.1222431-1.8121995-4.1847743-3.1141041-5.9137384-4.0422992,.2164805-.7443738,.5667727-1.875464,1.0751082-3.227579,1.2073973-3.2115268,1.9317648-5.0776192,3.6409115-6.6536152,.5745273-.52977,1.5442811-1.2885907,3.0343742-1.8844108,1.891351-.0206318,3.7826902-.0412636,5.6740412-.0618954-.5323194,7.4857568-1.0646389,14.9714899-1.5969583,22.4572467Z" fill="#2f2622" stroke="#352b27" stroke-miterlimit="10" stroke-width=".75"/>
    <path d="M58.3914398,97.8344405c1.6753387-2.4511719,4.1434021-5.5259399,7.6451569-8.5161133,2.7435913-2.3427734,5.4099884-4.0258484,7.6451569-5.2257996-.2798615-.9623108-.7327118-2.4245605-1.3898773-4.1725464-1.5608978-4.1517944-2.497345-6.5642395-4.7068939-8.6016541-.7427368-.6848755-1.9964142-1.665863-3.9227753-2.4361267-2.4450989-.0266724-4.8901825-.0533447-7.3352814-.0800171,.6881714,9.6774292,1.3763428,19.3548279,2.0645142,29.0322571Z" fill="#443730"/>
    <path d="M59.1400517,91.1421305c1.2769852-1.8683447,3.1582051-4.2120101,5.8273304-6.4911953,2.0912341-1.7857207,4.1236289-3.0686027,5.8273304-3.9832356-.2133174-.7334974-.5584913-1.8480609-1.0593994-3.1804196-1.1897555-3.1646019-1.903539-5.0034281-3.5877127-6.5563966-.5661326-.5220293-1.521717-1.2697626-2.9900378-1.8568769-1.8637157-.0203303-3.7274198-.0406607-5.5911355-.060991,.5245415,7.3763794,1.049083,14.7527355,1.5736245,22.1291149Z" fill="#493b36" stroke="#564641" stroke-miterlimit="10" stroke-width=".75"/>
    <path d="M61.3395904,69.0130293c.7360382,.4963379,1.781601,1.3083801,2.7712402,2.5361328,.2863007,.3551941,1.246048,1.5864868,2.6031799,5.1885071,.5015717,1.3312683,1.1173248,3.1453247,1.6706085,5.3616638" fill="none" stroke="#564641" stroke-miterlimit="10" stroke-width=".75"/>
    <path d="M53.202514,69.0130294c-.7360382,.4963379-1.781601,1.3083801-2.7712402,2.5361328-.2863007,.3551941-1.246048,1.5864868-2.6031799,5.1885071-.5015717,1.3312683-1.1173248,3.1453247-1.6706085,5.3616638" fill="none" stroke="#352b27" stroke-miterlimit="10" stroke-width=".8378467"/>
    <path d="M71.0525067,113.0394147c.1634032,.0179405-.1313972,3.8069296-.277493,3.8003376-.0790338-.0035695-.1199025-1.1181105-.0914482-1.9166573,.0103592-.2907949,.0288731-.5104604,.0645382-.7464996,.0737984-.488483,.2357747-1.1447205,.304403-1.1371808Z" fill="#b3d074"/>
    <path d="M57.5678792,68.5070483c-2.4968085,4.9415934-1.3645627,11.5086685,3.3409561,14.7223639-.0001968,.0000482-.2373184,.3349481-.2373184,.3349481-5.0419158-3.2508416-6.3981362-10.1516914-3.9079638-15.4347906-.0001935,.0000372,.8043261,.3774786,.8043261,.3774786h0Z" fill="#444443"/>
    <path d="M72.4081993,123.1396149c.0037748-.7268554,.4527415-1.3234796,.5276037-1.2951086,.0424179,.0160665-.0759646,.2173195-.0339413,.549492,.05714,.451687,.3351852,.5473398,.3669953,.8986376,.0372434,.4112696-.2905277,.869-.5007582,.8466908-.2221402-.0235769-.3620359-.5883408-.3598995-.9997119Z" fill="#a1c36b"/>
    <path d="M71.4253615,113.4065956c.1632833,.0195828-.2075537,4.8499238-.3537309,4.8444456-.0790777-.0029679-.097766-1.4212795-.0533356-2.4386239,.0161769-.3704711,.0391011-.6505371,.0795282-.9517936,.0836533-.6234501,.2589605-1.4622588,.3275383-1.4540281Z" fill="#b3d074"/>
    <polygon points="59.7676337 64.133371 55.4536431 65.3116775 54.3170912 69.6368562 57.4945299 72.7837283 61.8085205 71.6054218 62.9450724 67.2802431 59.7676337 64.133371" fill="#1e232a"/>
    <path d="M60.2289636,79.574227c-.8699926-2.2748338-1.7399738-4.5496613-2.6099664-6.8244951l4.0493645-1.1060276c.4473361,2.382207,.894681,4.7644116,1.3420175,7.1466184l-2.7814156,.7839043Z" fill="#4e3025"/>
    <rect x="56.7081518" y="78.7716677" width="10.2244002" height="2.7884728" rx="1.2328317" ry="1.2328317" transform="translate(-18.9379639 19.1214735) rotate(-15.2769188)" fill="#444443"/>
    <polygon points="59.053395 65.5820919 56.8051651 66.1961647 56.3828518 69.0726224 58.2087685 71.3350074 60.4569985 70.7209346 60.8793117 67.8444769 59.053395 65.5820919" fill="#242930"/>
    <rect x="58.5021421" y="78.7881839" width="6.6234641" height="2.7080081" rx="1.1972566" ry="1.1972566" transform="translate(-18.931944 19.1189287) rotate(-15.2769188)" fill="#515150"/>
    <path d="M60.6962873,79.0276184c-.5294625-1.3844246-1.058918-2.7688454-1.5883805-4.15327l2.4643734-.6731093c.2722411,1.4497701,.5444874,2.8995387,.8167287,4.3493087l-1.6927215,.4770706Z" fill="#5d392f"/>
    <path d="M60.1917228,68.0581879c-.4098559-1.3267262-1.9473307-1.8514865-2.0308223-1.7453779-.0750088,.095323,1.0198803,.704331,1.1156971,1.8088361,.0113113,.1304086,.0605869,.6983428-.2919682,1.0975673-.5358735,.6068271-1.5599127,.325396-1.5798141,.4704657-.0252819,.1842952,1.5662461,1.0830436,2.4510414,.3251519,.7286866-.6241761,.3687744-1.8501195,.3358661-1.9566432Z" fill="#2d323a"/>
    <path d="M62.2365878,81.4626272l.8351293,3.0575574-2.7861991-.1704172c-.2491967-.7123995-.4945662-1.4226295-.7437447-2.135034,.8979853-.2517021,1.7959888-.5034091,2.6948145-.7521062Z" fill="#70706f"/>
    <path d="M64.4293154,89.4905943l8.5807033,31.4154862c.0051698,.0306981,.0133364,.0605972,.0185062,.0912953-1.547882-4.4559369-3.099568-8.9140301-4.6474683-13.369962-2.1207949-6.0948564-4.2386113-12.1905068-6.3594062-18.2853632l2.407665,.1485438Z" fill="#70706f"/>
    <path d="M66.6405132,89.6253455c.1750586,.8643439,.3522868,1.7248607,.5273455,2.5892047,1.9501061,9.562029,3.8950458,19.128684,5.8421601,28.6915302l-8.5807033-31.4154862,2.2111978,.1347513Z" fill="#838283"/>
    <path d="M64.8297876,80.7382561c.2681712,1.3110362,.5341496,2.6258862,.8023208,3.9369224l-2.5603913-.1549939-.8351293-3.0575574c.8651309-.2427283,1.7272518-.4846346,2.5931998-.7243712Z" fill="#838283"/>
    <path d="M63.0717171,84.5201846l1.3575983,4.9704097-2.407665-.1485438c-.5794401-1.662817-1.1596791-3.3286307-1.7361325-4.9922831l2.7861991,.1704172Z" fill="#838283"/>
    <path d="M65.6321084,84.6751785c.3348565,1.6493463,.6727179,3.2978523,1.0084048,4.9501671l-2.2111978-.1347513-1.3575983-4.9704097,2.5603913,.1549939Z" fill="#a7a7a6"/>
    <path d="M67.1678586,92.2145502c.1118956,.5507716,.2246084,1.104535,.336504,1.6553066-.0974111,.3959513-.1871994,.79627-.2715762,1.1693912-.11313,.5030441-.2208253,.978904-.3040646,1.4384392-.2155783,1.1862259-.2641038,2.2433137,.1928277,3.316503,.3247413,.7656306,.7188938,1.0915776,1.1076248,1.4446857,.3441381,.307478,.6812071,.6361568,.9692382,1.3026242,.0704485,.1638327,.1272957,.3249506,.1705599,.4833486,.0427506,.2035277,.0854781,.4070422,.125232,.6113688,.0741552,.6124796,.0021029,1.2070642-.1049882,1.8497787-.0742824,.4570888-.1654079,.9348331-.230703,1.4601369-.0455207,.3625082-.0763678,.7081879-.0870949,1.0451376,1.0524987,3.0303157,2.1088195,6.0627827,3.1613364,9.0930934,.2583571,1.2751768,.518907,2.5465397,.7772641,3.8217165,.0051698,.0306981,.0133364,.0605972,.0185062,.0912953-1.547882-4.4559369-3.099568-8.9140301-4.6474683-13.369962,.0107404-.3369729,.0415925-.6826345,.0870899-1.0451559,.0653002-.5252855,.1564207-1.0030481,.230703-1.4601369,.1697268-1.0131123,.2547026-1.9131364-.1907855-2.944501-.2880311-.6664674-.6251183-.9951412-.9692564-1.3026192-.3887128-.353113-.7828602-.6790418-1.1076065-1.4446906-.4569315-1.0731893-.4084243-2.1302721-.192846-3.316498,.0832576-.4595402,.1909529-.9354001,.3040696-1.438421,.180417-.7976324,.3890336-1.7153722,.6254338-2.4608409Z" fill="#a1c36b"/>
    <path d="M67.5043627,93.8698568c.6245206,3.0508424,1.2460544,6.1025201,1.8646098,9.1549918-.0432642-.158398-.1001114-.3195158-.1705599-.4833486-.2880311-.6664674-.6251001-.9951462-.9692382-1.3026242-.388731-.353108-.7828835-.679055-1.1076248-1.4446857-.4569315-1.0731893-.408406-2.1302771-.1928277-3.316503,.0832393-.4595353,.1909346-.9353951,.3040646-1.4384392,.0843768-.3731212,.1741651-.7734399,.2715762-1.1693912Z" fill="#b3d074"/>
    <path d="M69.4942044,103.6362174c.9125871,4.4817288,1.8259681,8.966436,2.7385502,13.4481466-1.0525169-3.0303107-2.1088377-6.0627777-3.1613364-9.0930934,.0107271-.3369497,.0415742-.6826295,.0870949-1.0451376,.0652952-.5253038,.1564207-1.0030481,.230703-1.4601369,.1070911-.6427145,.1791435-1.2372991,.1049882-1.8497787Z" fill="#b3d074"/>
    <path d="M70.0579992,113.4731842c-.1311962-1.5250635-.2497264-1.9323831-.1740493-1.9515861,.1597849-.0405393,1.1030756,1.6699761,.7233197,3.1342992-.0600776,.2316608-.1728493,.5326374-.2584006,1.0669394-.1277408,.7977735-.0765635,1.3771659-.0914282,1.3775229-.0251967,.0006114-.0308578-1.6675373-.1994417-3.6271754Z" fill="#a1c36b"/>
    <path d="M65.7725944,82.8399889c-1.8707637,.8085514-3.7415429,1.6170809-5.6123066,2.4256323-.3336448-.9884416-.667274-1.9768614-1.0009188-2.965303,1.8901353-.5206799,3.7802789-1.0413854,5.6704142-1.5620653,.3142731,.7005701,.6285381,1.4011658,.9428112,2.1017359Z" fill="#2f2622"/>
    <circle cx="60.7900849" cy="83.3969053" r=".6511791" fill="#333"/>
    <path d="M64.6858276,76.0371382c1.5416412-1.1910706,3.1252441-2.3834534,4.7514496-3.5743713,3.9337311-2.8807678,7.8101501-5.5284424,11.5968323-7.9625244,.1693268-.1387024,1.4992065-1.2666016,1.4645386-3.1274109-.0397949-2.136261-1.8410492-3.255249-1.9534912-3.3224182-1.3370361,.0145264-3.3697662,.214325-5.4951019,1.2505493-2.1119843,1.0297241-3.1906891,2.3737183-5.380722,4.6757202-1.4732971,1.5486145-3.6853638,3.8387146-6.5305328,6.6491394,.5156708,1.803772,1.0313568,3.6075439,1.5470276,5.4113159Z" fill="#515150"/>
    <path d="M76.6817535,68.0280135l-11.9959259,8.0091248c-.4339447-.2166748-1.287323-.7286987-1.7460022-1.718811-.7018127-1.5149536-.1901093-3.5244141,1.3307648-4.9570312,2.6209259-2.9283142,5.2418518-5.8565979,7.8627777-8.7849121,.3125305,1.0435181,.8153229,2.3622742,1.6451569,3.7742004,.9646301,1.6412964,2.043045,2.8501892,2.9032288,3.6774292Z" fill="#444443"/>
    <path d="M57.6172393,74.7054122c.2750092-1.1416931,1.1833344-1.7288818,3-2.9032288,1.5643311-1.0112305,2.355011-1.5223694,3.1935577-1.2580566,1.2185059,.3840637,1.8682404,2.1944275,1.7419281,3.580658-.2611084,2.865448-3.9851074,5.5300903-6.2046814,4.4964905-1.2814484-.5967407-2.086792-2.4379883-1.7308044-3.915863Z" fill="#333"/>
    <path d="M65.3594032,68.7280331l2.7118454,3.9896839c1.8163981-.9194286,3.6327869-1.8388771,5.4491883-2.7583116,.6636836-.3359464,.7624596-1.3413012,.2139299-2.1774631l-1.6203858-2.4700664c-.625211-.9530524-1.7290631-1.2822298-2.3507331-.7010277-1.4679522,1.3723951-2.9358913,2.7448042-4.4038447,4.1171849Z" fill="#352b27"/>
    <g>
      <polygon points="71.0634933 67.7429145 69.3814773 67.0161132 67.9119523 68.1093646 68.1088737 69.8045769 67.4945205 70.205197 67.4853832 70.2012906 67.3578893 67.6938201 69.4664652 66.3286813 71.6910998 67.468605 71.0790584 67.8677176 71.0634933 67.7429145" fill="#515150"/>
      <polygon points="71.830052 69.9784884 69.721467 71.3436132 67.4945205 70.205197 68.1088737 69.8045769 68.1244481 69.929394 69.8064548 70.6561812 71.2759799 69.5629298 71.0790584 67.8677176 71.6910998 67.468605 71.7002463 67.4725255 71.830052 69.9784884" fill="#70706f"/>
      <polygon points="69.8064548 70.6561812 68.1244481 69.929394 68.1088737 69.8045769 67.9119523 68.1093646 69.3814773 67.0161132 71.0634933 67.7429145 71.0790584 67.8677176 71.2759799 69.5629298 69.8064548 70.6561812" fill="#70706f"/>
      <polygon points="71.0790584 67.8677176 68.1088737 69.8045769 67.9119523 68.1093646 69.3814773 67.0161132 71.0634933 67.7429145 71.0790584 67.8677176" fill="none"/>
      <polygon points="69.8064548 70.6561812 68.1244481 69.929394 68.1088737 69.8045769 71.0790584 67.8677176 71.2759799 69.5629298 69.8064548 70.6561812" fill="#838283"/>
    </g>
    <circle cx="41.619775" cy="86.4004665" r="1.0482781" fill="#333"/>
    <circle cx="44.4599984" cy="88.6189741" r="1.0482781" fill="#333"/>
    <circle cx="47.8338149" cy="91.2168741" r="1.0482781" fill="#333"/>
    <circle cx="72.1784382" cy="86.6768458" r="1.0482781" fill="#333"/>
    <circle cx="69.3382147" cy="88.8953535" r="1.0482781" fill="#333"/>
    <path d="M70.6215138,47.7310474c-5.0547791,7.9752197-11.5660858,15.0469971-19.1549683,20.7137756l-.5930481-.8051758c7.574646-5.4810791,14.126709-12.3794556,19.2634888-20.2209778l.4845276,.3123779h0Z" fill="#2f2622"/>
    <path d="M75.9100342,53.274083l1.8695647-.7228007c.2794968,.5153072,.5590014,1.0305905,.8384982,1.5458977-.5486981,.1734889-1.0974039,.3470016-1.646102,.5204905" fill="#352b27"/>
    <path d="M76.9648396,55.7697906l1.8695647-.7228007c.2794968,.5153072,.5590014,1.0305905,.8384982,1.5458977-.5486981,.1734889-1.0974039,.3470016-1.646102,.5204905" fill="#352b27"/>
    <circle cx="76.0683206" cy="139.087692" r="1.0482781" fill="#333"/>
    <circle cx="73.2280971" cy="141.3061997" r="1.0482781" fill="#333"/>
    <circle cx="37.292003" cy="138.7486563" r="1.0482781" fill="#333"/>
    <circle cx="40.1322264" cy="140.967164" r="1.0482781" fill="#333"/>
    <path d="M46.9720825,35.7054122c.009552,.1448059-1.029892,.1478271-3.3871002,.7742004-2.8252563,.7507324-4.3519897,1.5488586-4.4516144,1.3548279-.0900116-.1753235,1.030426-1.0720215,2.3225861-1.6451416,2.6792755-1.1883698,5.500473-.7210999,5.5161285-.4838867Z" fill="#4f6b68"/>
    <path d="M58.7785247,38.0280135c-.0477295,.0325623-.2114716-.2182922-.8187103-.7940369-.5743866-.5445862-.860672-.7304688-.8264465-.7866211,.0405579-.0665283,.5136566,.0776367,.9032288,.387085,.5700226,.4527588,.8153534,1.1434937,.7419281,1.193573Z" fill="#999899"/>
    <path d="M55.2454358,39.4182015c-.2752686-.4579773-.1445007-.9654541-.1935425-.9677429-.0530853-.0024719-.2826996,.588623-.0322571,1.0645142,.3398285,.6456909,1.3408966,.6562805,1.3548279,.612915,.0124969-.0388489-.7707367-.1135864-1.1290283-.7096863Z" fill="#838283"/>
    <path d="M67.197882,34.7054274c.0521545,.1156158,.6410522-.2186737,1.7096863-.1935577,.6184387,.0145264,.9387512,.1386414,.9698792,.056076,.0457764-.12146-.557724-.6275787-1.2602081-.6367188-.8094025-.0105438-1.4788971,.6422119-1.4193573,.7742004Z" fill="#5e5e5e"/>
    <path d="M30.4236968,71.3183272c-.0923309,.1601562,1.4651184,1.7215271,3.6774139,2.1290283,2.1526489,.3965149,4.0918884-.4530029,4.0645142-.6451721-.0260315-.1828003-1.8207092,.304657-4.3557434-.2580566-2.1277618-.4723206-3.3095551-1.3587036-3.3861847-1.2257996Z" fill="#515150"/>
    <path d="M35.4559539,46.221556c.1826477,.085083,.6013336-1.5878296,2.4225464-2.8974304,1.370575-.9855652,2.5072479-1.026001,2.5451965-1.6187134,.0367737-.5743713-.9774323-1.3673096-1.8709717-1.2903137-2.204483,.1899719-3.4250031,5.6535645-3.0967712,5.8064575Z" fill="#4c757a"/>
    <path d="M73.3729894,126.3462338c-.0477295,.0325623-.2114716-.2182922-.8187103-.7940369-.5743866-.5445862-.860672-.7304688-.8264465-.7866211,.0405579-.0665283,.5136566,.0776367,.9032288,.387085,.5700226,.4527588,.8153534,1.1434937,.7419281,1.193573Z" fill="#999899"/>
    <path d="M41.1135781,128.5879171c-.2752686-.4579773-.1445007-.9654541-.1935425-.9677429-.0530853-.0024719-.2826996,.588623-.0322571,1.0645142,.3398285,.6456909,1.3408966,.6562805,1.3548279,.612915,.0124969-.0388489-.7707367-.1135864-1.1290283-.7096863Z" fill="#838283"/>
  </g>
</svg>