<?xml version="1.0" encoding="UTF-8"?>
<svg id="_Шар_2" data-name="Шар 2" xmlns="http://www.w3.org/2000/svg" xmlns:xlink="http://www.w3.org/1999/xlink" viewBox="0 0 102.8332398 194.3695245">
  <defs>
    <radialGradient id="_Градієнт_без_назви_26" data-name="Градієнт без назви 26" cx="-7.674707" cy="-28.6992372" fx="-7.674707" fy="-28.6992372" r="14.2270249" gradientTransform="translate(25.0328387 55.093638) rotate(-6.3556929)" gradientUnits="userSpaceOnUse">
      <stop offset="0" stop-color="#8bcfdf" stop-opacity=".6"/>
      <stop offset="1" stop-color="#2580c3" stop-opacity="0"/>
    </radialGradient>
  </defs>
  <g id="_Шар_1-2" data-name="Шар 1">
    <path d="M79.810654,44.5420448c.4787666,.3761775,.8378807,.8378285,1.0259433,1.3593319-.2735884-.5215034-.6412081-1.0088278-1.0259433-1.3593319Z" fill="#a2a1a1"/>
    <path d="M79.0070045,43.9948681c.2650306,.1025891,.5386189,.2907039,.8036495,.5471767-.2393572-.213736-.5129456-.3847353-.8036495-.5471767Z" fill="#a2a1a1"/>
    <path d="M29.3684866,152.7377599c-2.9054413-.8836517-7.570755-2.727951-12.1100006-6.6900024-7.0019836-6.1116486-9.4329529-13.5344086-10.2599945-16.6499939,6-5.0400085,19.8199921-18.0500031,26.7700043-39.9600067,1.2999878-4.1000061,2.2299957-8.0899963,2.8600006-11.9199982v-.0200043c-.1022491-4.247879-.2734833-21.4877167,6.3067932-23.6604843,6.7898712-2.2419739,18.9718781,12.1513901,22.8386993,24.6774216,10.1089783,32.7467041-31.3428192,69.8010864-36.4055023,74.2230682Z" fill="#80171c"/>
    <path d="M41.5209626,56.5196373s-6.3066433,45.2669133-34.4765168,72.5077259c0,0,2.6791546,12.1654348,7.3868593,18.2971362,0,0,27.8296131-29.25628,27.0896576-90.8048621Z" fill="#5e121a"/>
    <path d="M77.2654417,32.0058976l-6.7799683,8.0700073h-.0900269c-2.960022,3.6600342-5.9000244,7.3200073-8.8400269,10.9899902h-4.3199463c-3.6500244-4.5599976-7.2900391-9.1199951-10.9300537-13.6699829h.0200195l-4.789978-5.4199829,6.3999634-7.8200073,22.9300537,.0899658,6.3999634,7.7600098Z" fill="#80171c"/>
    <path d="M74.131948,30.6290232l-5.5907716,6.6545396h-.0742363c-2.4408384,3.0180694-4.8651686,6.0360885-7.2894988,9.0623617h-3.5622339c-3.0098154-3.7601805-6.0113767-7.5203611-9.012938-11.2722875h.0165081l-3.9498227-4.4693257,5.277419-6.4483893,18.9081552,.0741859,5.277419,6.3989152Z" fill="#5e121a"/>
    <path d="M84.2304686,93.643715l5.0596619-15.7554779-8.2916412-28.4300003c-9.2774658,7.6532211-18.5549316,15.3064499-27.8323975,22.959671,8.0074005,12.1935501,16.0148163,24.3871002,24.0222168,36.5806503v4.5161285l6.7301788-18.8169327c-.8699951,2.8100128-1.8500061,5.5-2.9199982,8.0900116" fill="#80171c"/>
    <path d="M63.9483035,83.3182157h13.2400055c-.1600037-1.217172-.3000031-2.4546345-.4300079-3.7123877-.4399872-4.3716846-.6399994-8.6216567-.6299896-12.7397632,0-2.5763548,.0800018-5.1121362,.2399902-7.5870536-13.5884552,6.1292733-16.7414093,9.7136183-16.7286224,11.9075397,.0021973,.3781075,.1112366,2.9086576,.0529633,6.5822595-.0147858,.932268-.0365601,1.6997814-.0529633,2.20977" fill="#372549"/>
    <path d="M57.8154295,71.059505v10.0680114l-2.6999512,2.080242h-13.2400513c.1600342-1.2118052,.3000488-2.4437651,.4299927-3.6960028,.4400024-4.3523537,.6400146-8.583533,.6300049-12.6834298,0-2.5245685-.0799561-5.0188127-.2299805-7.4424231,.0300293,.0404325,.0700073,.0808035,.1099854,.1211744,4.2600098,4.594764,6.2399902,9.946837,6.8000488,11.5524281h8.1999512Z" fill="#231830"/>
    <path d="M59.4254759,71.0159074c-.0100098,.3800049-.1100464,2.8699951-.0599976,6.4899902,.0199585,.9200439,.039978,1.6799927,.0599976,2.1799927l-1.6100464,1.2300415v-9.9700317h-8.1999512c-.5600586-1.5899658-2.5400391-6.8899536-6.8000488-11.4400024-.039978-.039978-.0799561-.0799561-.1099854-.1199951-.0100098-.039978-.0100098-.0700073-.0100098-.1099854,8.6199951,3.8400269,13.0400391,6.6599731,15.1199951,8.7700195,1.1600342,1.1699829,1.5900269,2.1300049,1.6100464,2.8999634v.0700073Z" fill="#372549"/>
    <path d="M42.9488355,59.1009294c3.5684641,5.4475256,5.2996917,11.138358,5.8239498,12.9924218h22.2884004c.353941-1.4956602,1.820722-7.3865253,5.1492656-12.9924218H42.9488355Z" fill="#1d1527"/>
    <path d="M46.3054197,20.0359269c.1700439,.0100098,.3500366,.0100098,.5300293,.0100098l-2.2199707,3.4799805h-.2000122c-.0400391,0-.0900269-.0100098-.1300049-.0100098-.0700073-.0100098-.1400146-.0200195-.2000122-.0200195-.8699951-.0899658-1.7199707-.1799927-2.5300293-.2799683-.0199585-.0100098-.0299683-.0100098-.039978-.0100098l-.0100098-.0100098c.960022-.2299805,3.4400024-2.0999756,4.7999878-3.1599731Z" fill="#1d1527"/>
    <path d="M45.4754637,17.7059098c-5.8800049-.1099854-11.6799927-.2600098-17.4000244-.4500122h19.1500244c-.5900269,.1400146-1.1799927,.3000488-1.75,.4500122Z" fill="#1d1527"/>
    <path d="M91.545471,18.825905c0,2.2399902-6.8300171,4.1799927-16.8900146,5.1699829-.6699829-.7599487-1.1000366-1.5999756-.9899902-1.6199951,.0199585-.0199585,.0700073,.0100098,.1399536,.0800171,.7300415,.7000122,2.960022,0,2.960022,0-1.1199951-.3599854-4.0299683-2.8800049-5.2999878-4.0100098-.3200073-.2799683-.539978-.4799805-.5999756-.5199585,0,.0199585,.0099487,.0499878,.0199585,.0999756l-.0700073-.1099854c.960022,.0100098,1.9200439,0,2.8800049,0,5.8400269-.0200195,11.6000366-.0800171,17.2900391-.1900024,.3800049,.3499756,.5599976,.7199707,.5599976,1.0999756Z" fill="#1d1527"/>
    <path d="M71.4654539,18.4459001c1.2700195,1.1300049,4.1799927,3.6500244,5.2999878,4.0100098,0,0-2.2299805,.7000122-2.960022,0-.0699463-.0700073-.1199951-.0999756-.1399536-.0800171-.1100464,.0200195,.3200073,.8600464,.9899902,1.6199951-.0599976,.0100098-.1099854,.0100098-.1699829,.0200195l-3.5100098-5.5200195c.1699829-.0199585,.3299561-.0299683,.4899902-.0499878Z" fill="#1d1527"/>
    <path d="M90.9854735,17.7259294c-5.6900024,.1099854-11.4500122,.1699829-17.2900391,.1900024l.0300293-.1900024h17.2600098Z" fill="#1d1527"/>
    <path d="M60.2504294,24.008222h-2.4299927c.4500122-.6099854,.8400269-1,1.3400269-.960022,.4699707,.0400391,.7600098,.4200439,1.0899658,.960022Z" fill="#252626" stroke="#1d1d1b" stroke-miterlimit="10"/>
    <path d="M44.1404465,9.7082342h-.01" fill="none" stroke="#1d1d1b" stroke-miterlimit="10"/>
    <path d="M50.6354368,42.7059098c-.1900024,2.539978-.3399658,4.3699951-.3699951,6-1.4400024-.4199829-2.4199829-.8099976-2.8399658-.9799805-5.4500122-2.2000122-9.3099976-5.5200195-11.7900391-8.2200317,.4100342-.2799683,.6799927-.7099609,.6799927-1.1900024,0-.8499756-.8099976-1.5299683-1.7999878-1.5299683-.039978,0-.0899658,0-.1300049,.0100098,.8699951-.5400391,1.7399902-.5599976,1.9299927-.5599976,.1100464-.0300293,.2300415-.0599976,.3400269-.0800171,1.8900146-.4799805,4.3900146-1.0499878,7.3800049-1.539978l.0800171,.0899658,6.5199585,8Z" fill="#231830"/>
    <path d="M57.8154295,65.2359391v5.7099609h-8.1999512c-.5600586-1.5899658-2.5400391-6.8899536-6.8000488-11.4400024-.039978-.039978-.0799561-.0799561-.1099854-.1199951-.4699707-.5-.960022-1-1.5100098-1.4699707-2.0199585-1.8200073-4.4799805-3.4000244-7.4299927-4.4100342-.8300171-.2799683-1.6499634-.5100098-2.4500122-.6799927-.0700073-.0100098-.1399536-.0299683-.2099609-.039978-.0300293-.0100098-.0500488-.0100098-.0800171-.0200195-1.210022-.2399902-2.3699951-.3599854-3.4799805-.3999634,1.7199707-4.1700439,3.4400024-8.3400269,5.1699829-12.5200195,0-.3300171,.039978-.6600342,.1300049-.960022,.2700195,.5599976,.9099731,.960022,1.6699829,.960022,.4199829,0,.8099976-.1300049,1.1199951-.3400269,2.4800415,2.7000122,6.3400269,6.0200195,11.7900391,8.2200317,.4199829,.1699829,1.3999634,.5599976,2.8399658,.9799805-.0100098,.7700195,.0300293,1.5,.1000366,2.2399902,.0599976,.6300049,.1399536,1.2399902,.2299805,1.8300171,.039978,.2399902,.0800171,.4699707,.1199951,.7000122,.4400024,2.4199829,1.1099854,4.5,1.7999878,6.1699829,.0700073,.1900024,.1500244,.3699951,.2200317,.539978,.2299805,.5300293,.4599609,1.0100098,.6699829,1.4400024,1.460022,1.210022,2.9400024,2.4100342,4.4099731,3.6100464Z" fill="#2e213d"/>
    <path d="M90.255432,52.6258928c-.3599854,0-.7099609,.0200195-1.0499878,.0400391-.3599854,.0299683-.710022,.0599976-1.039978,.0999756-.0499878,0-.1100464,.0100098-.1500244,.0200195h-.0100098c-1.2099609,.1499634-2.2699585,.4199829-3.2000122,.7199707-3.2399902,1.0599976-5.8299561,2.960022-7.8899536,5.1400146l-.0900269,.0900269v.0099487c-.1599731,.1800537-.3300171,.3600464-.5,.5400391v.0100098c-4.0999756,4.6900024-5.8300171,10.3499756-6.2000122,11.6499634h-10.4899902v-4.2199707c.1400146,.1199951,.2900391,.2299805,.4299927,.3499756,.3099976-.1900024,.6900024-.4199829,1.1000366-.7199707,1.4799805-1.0400391,3.4799805-2.7900391,5.0899658-5.4700317,.1400146-.2399902,.2800293-.4699707,.4000244-.7099609,.1300049-.2300415,.25-.4700317,.3599854-.7000122,.2299805-.4700317,.4299927-.9400024,.6099854-1.4000244,.0800171-.2199707,.1600342-.4400024,.2300415-.6499634,.0799561-.2200317,.1499634-.4400024,.2099609-.6600342,.0300293-.0999756,.0599976-.1900024,.0900269-.289978,.0299683-.1099854,.0599976-.2300415,.0899658-.3400269,.1600342-.6300049,.2800293-1.2399902,.3700562-1.8099976,.0599976-.3699951,.0999756-.7299805,.1299438-1.0599976,.0900269-.9799805,.0900269-1.7799683,.0700073-2.3200073-.0199585-.6900024-.0299683-1.3899536-.0799561-2.1099854,1.75-.5200195,3.5-1.2199707,5.2599487-2.1500244,4.0200195-2.1099854,6.9100342-4.8199463,8.8500366-7.0799561,.2700195,.1499634,.5999756,.2399902,.9500122,.2399902,.9400024,0,1.7099609-.6099854,1.7799683-1.3900146,.1900024,.4299927,.2900391,.8900146,.2900391,1.3900146,1.4599609,4.2600098,2.9299927,8.5200195,4.3899536,12.7799683Z" fill="#372549"/>
    <path d="M59.6354368,66.7259294v4.2199707h-1.8200073v-5.7099609c.6100464,.4899902,1.210022,.9899902,1.8200073,1.4899902Z" fill="#2e213d"/>
    <path d="M81.9904196,38.3182195c0,.539978,.3400269,1.0200195,.8500366,1.289978-1.9400024,2.2600098-4.8200073,4.9700317-8.8400269,7.0800171-1.7699585,.9299927-3.5199585,1.6300049-5.2600098,2.1500244-.0999756-1.9400024-.2699585-3.9899902-.5499878-6.1300049l6.5499878-8c3.2600098,.5299683,5.8800049,1.1300049,7.5200195,1.5299683,.7299805,0,1.4100342,.2200317,1.9700317,.6000366-.1400146-.0300293-.2800293-.0500488-.4300537-.0500488-1,0-1.8099976,.6800537-1.8099976,1.5300293Z" fill="#422f58"/>
    <polyline points="63.7331848 83.2077583 76.9731848 83.2077583 76.9731848 85.3977583 63.7331848 85.3977583" fill="#1d1527"/>
    <polyline points="55.1131848 85.3977583 41.8731848 85.3977583 41.8731848 83.2077583 55.1131848 83.2077583" fill="#1d1527"/>
    <path d="M76.8254393,58.7359391l.0900269-.0900269v.9100342c-.0400391-.2700195-.0599976-.5400391-.0900269-.8100586v-.0099487Z" fill="#372549"/>
    <path d="M92.6154783,80.2059098c-.1300049,.0599976-.3400269-.1599731-.4200439-.2199707-1.3999634-1.1100464-8.1699829,5.5999756-8.1799927,5.5999756-.8399658,.8400269-1.9799805,1.9899902-3.3099976,3.4099731-1.1500244-7.3899536-2.1900024-14.9799805-3.0800171-22.7799683-.0999756-.8900146-.1999512-1.7800293-.289978-2.6599731,1.4299927-1.3200073,3.75-3.0700073,6.9899902-4.2000122,1.7299805-.6000366,3.3099976-.8900146,4.6300049-1.0100098,.1500244,.7999878,.3099976,1.5100098,.4500122,2.1199951,0,0,.4699707,2.1199951,3.2700195,18.9799805,.0299683,.2000122,.1099854,.6799927-.0599976,.7600098Z" fill="#372549"/>
    <path d="M97.6304343,189.9773181c-3.1199951,.5835298-17.7399902,3.3300437-18.8399658,3.4709064-4.8600464-22.6664768-9.210022-46.7111844-12.7600098-72.0336031-1.6000366-11.3785552-2.9700317-22.5356846-4.1300049-33.4614408l1.460022-2.5554222h13.6099854c4.0799561,16.5194879,7.9699707,33.8538175,11.5499878,51.9729004,3.5900269,18.1693735,6.5999756,35.7350763,9.1099854,52.6066593Z" fill="#3f3254"/>
    <path d="M78.7904684,192.7848986c-.0700073,.0099464-.1500244,.0198929-.1500244,.0198929-.6300049,.0794503-1.2700195,.1490147-1.9199829,.2086328-1.4100342,.1490754-2.8599854,.2882043-4.3300171,.3974939-.7399902,.059618-1.5,.1092896-2.2799683,.1490147-.5700073,.0397858-1.1500244,.0795109-1.7300415,.0994038-.3399658,.0297787-.6799927,.0496716-1.0199585,.059618-.4100342,.0099464-.8200073,.0297787-1.2300415,.0397251-.6699829,.0298393-1.3499756,.0496716-2.0299683,.059618-.1400146,.0099464-.2900391,.0198929-.4400024,.0099464-.7300415,.0198929-1.460022,.0298393-2.2000122,.0298393-.9000244,.0198322-1.8099976,.0098858-2.7299805,0-1.0400391-.0099464-2.0700073-.0397858-3.0900269-.0695645-.5299683-.0198929-1.0499878-.0397858-1.5800171-.059618-1.0499878-.0397858-2.0899658-.0894574-3.1099854-.1590218-.5100098-.0297787-1.0200195-.059618-1.5299683-.0993432-1.1200562-.0795109-2.2200317-.1590218-3.3000488-.2683114-.3699951-.0397251-.7399902-.0795109-1.0999756-.0993432-.1500244-.0099464-.289978-.0198929-.4299927-.0397858-.1500244-.0098858-.2999878-.0198322-.4400024-.0397251-.6000366-.059618-1.1900024-.1291825-1.7800293-.198747-1.4400024-.1788541-2.7299805-.3676546-3.2699585-.4471655,4.7299805-22.7849416,9.0999756-46.4343749,12.9899902-70.9284069,1.7700195-11.0993842,3.3800049-22.0496324,4.8599854-32.8608123h4.9500122c1.1599731,10.791287,2.5299683,21.8110997,4.1300049,33.0496128,3.5499878,25.010762,7.8999634,48.7595385,12.7600098,71.1470468Z" fill="#1d1527" stroke="#231635" stroke-miterlimit="10"/>
    <path d="M74.8054197,24.0658952c-.7599487-.789978-1.2599487-1.7699585-1.1399536-1.789978l1.1099854,1.7399902,.0299683,.0499878Z" fill="#a2a1a1"/>
    <line x1="68.7404465" y1="48.8382342" x2="68.7304465" y2="48.8382342" fill="none" stroke="#1d1d1b" stroke-miterlimit="10" stroke-width="1.0833068"/>
    <path d="M36.3204367,38.3182195c0,.4799805-.2700195,.9099731-.6799927,1.1900024-.7399902-.8099976-1.3599854-1.5599976-1.8699951-2.210022,.2000122-.1999512,.4099731-.3599854,.6199951-.5,.039978-.0100098,.0800171-.0100098,.1300049-.0100098,.9899902,0,1.7999878,.6800537,1.7999878,1.5300293Z" fill="#b97023"/>
    <path d="M35.640444,39.508222c-.3099976,.210022-.7000122,.3400269-1.1199951,.3400269-.7600098,0-1.4099731-.4000244-1.6799927-.960022,.1699829-.6099854,.4899902-1.1600342,.9299927-1.5900269,.5100098,.6500244,1.1300049,1.4000244,1.8699951,2.210022Z" fill="#dd872a"/>
    <path d="M85.5804465,38.4482244v.0100098c-.0700073,.7799683-.8499756,1.3900146-1.7800293,1.3900146-.3499756,0-.6799927-.0900269-.9599609-.2400513,.7700195-.8899536,1.3900146-1.7099609,1.8699951-2.3999634,.3800049,.3399658,.6799927,.7699585,.8699951,1.2399902Z" fill="#dd872a"/>
    <path d="M84.7104514,37.2082342c-.4799805,.6900024-1.0999756,1.5100098-1.8699951,2.3999634-.5100098-.2699585-.8500366-.75-.8500366-1.289978,0-.8499756,.8099976-1.5300293,1.8099976-1.5300293,.1500244,0,.2900391,.0200195,.4300537,.0500488,.1699829,.0999756,.3299561,.2299805,.4799805,.3699951Z" fill="#b97023"/>
    <path d="M52.1983523,17.7259294c-.0204855,.0299683-.0409086,.0499878-.0613942,.0800171-.4604876,.6299438-.7777012,1.3699951-.9004896,2.1599731-.0511514,.2600098-.0716369,.5200195-.0716369,.789978l.0102428,2.8600464c0,.1299438,0,.25,.0204855,.3799438,0,.0500488,0,.1100464,.0102428,.1600342h-2.9982592c-2.1795869,2.6099854-4.3693542,5.210022-6.5489411,7.8200073l2.2818898,2.7299805h-.0102428c-3.335896,.5300293-6.0066363,1.1300049-7.6848271,1.5300293l.0512139-.0800171,6.41591-9.8499756c-.7367301-.2300415-1.320006-.4700317-1.320006-.4700317,1.320006,.1799927,2.824257-1.7399902,3.0800765-2.3200073,.09206-.1699829,.0613942-.2299805-.1023653-.0899658-.0306659,.0299683-.0613942,.0499878-.1023028,.0699463-.7265498,.4300537-2.3023753-.1599731-2.5889231-.2799683-.0204231-.0100098-.0306659-.0100098-.0409086-.0100098l-.0102428-.0100098c.9823693-.2299805,3.5200785-2.0999756,4.9117215-3.1599731,.1944253-.1500244,.3684275-.2900391,.511639-.4000244l1.227946-1.8800049,.0204855-.0299683h3.8986863Z" fill="#a2a1a1"/>
    <path d="M40.4154661,63.8559343c-.0599976,.3699951-.1300049,.7399902-.2000122,1.1099854-2.4000244,12.7600098-6.6699829,21.2000122-11.8099976,22.7700195-.0800171-1.6700439-2.289978-5-5.6099854-8.2700195-3.4500122-3.3699951-6.9900513-5.5700073-8.6199951-5.4799805-.0200195-.1400146-.0400391-.2800293-.0500488-.4000244,2.8500366-1.4799805,6.7400513-3.9899902,10.3200073-8.0599976,1.5400391-1.75,2.7999878-3.5499878,3.8500366-5.3200073v-.0100098c.8699951-1.4799805,1.5899658-2.9500122,2.1799927-4.3699951,1.4500122,.5900269,3.3699951,1.5599976,5.3699951,3.1400146,2.1699829,1.7199707,3.6400146,3.5299683,4.5700073,4.8900146Z" fill="#372549"/>
    <path d="M41.1954344,58.5859147c-.0499878,.4299927-.1099854,.8599854-.1599731,1.2800293,.0499878-.4300537,.0899658-.8700562,.1099854-1.3200073,.0200195,.0100098,.0300293,.0299683,.0499878,.039978Z" fill="#372549"/>
    <path d="M28.4304221,87.258222c-.7299805,.6500244-2.8099976-.4299927-5.1900024-2.539978,.8200073-.7800293,1.3400269-1.9400024,1.3400269-3.2300415,0-2.3699951-1.7399902-4.289978-3.8699951-4.289978-1.1400146,0-2.1600342,.5499878-2.8699951,1.4199829-1.8099976-2.6499634-2.6300049-4.8599854-1.8900146-5.5199585,1.0200195-.9000244,4.6500244,1.539978,8.0900269,5.4499512,3.4499512,3.9100342,5.4099731,7.8099976,4.3899536,8.710022Z" fill="#1d1527"/>
    <path d="M83.5804465,86.0482c0,1.1600342,.3599854,2.2200317,.9500122,3.0300293-1.6799927,.8900146-3.0599976,1.1300049-3.6000366,.5200195-.8499756-.960022,.6600342-3.6900024,3.4000244-6.2800293-.4699707,.7700195-.75,1.710022-.75,2.7299805Z" fill="#1d1527"/>
    <path d="M90.8004172,83.6982244c-.6699829-1.3699951-1.9199829-2.2800293-3.3399658-2.2800293-.3599854,0-.710022,.0599976-1.039978,.1800537,2.5299683-1.8400269,4.8699951-2.6400146,5.6199951-1.7900391,.5899658,.6600342,.0499878,2.1699829-1.2400513,3.8900146Z" fill="#1d1527"/>
    <rect x="57.8154295" y="71.7809221" width="3.3500366" height="8.1976585" fill="#1d1527"/>
    <path d="M41.1954344,57.9159318c-.0100098,.2099609-.0299683,.4199829-.0499878,.6300049-.0200195,.4499512-.0599976,.8899536-.1099854,1.3200073-.1799927,1.3299561-.3800049,2.6299438-.6000366,3.8899536-.0099487,.0300293-.0099487,.0700073-.0199585,.1000366-.9299927-1.3600464-2.4000244-3.1700439-4.5700073-4.8900146-2-1.5800171-3.9199829-2.5499878-5.3699951-3.1400146,.1799927-1.0199585,.3699951-2.039978,.5499878-3.0599976,.0299683,.0100098,.0499878,.0100098,.0800171,.0200195,.0700073,.0100098,.1399536,.0299683,.2099609,.039978,.8000488,.1699829,1.6199951,.4000244,2.4500122,.6799927,2.9500122,1.0100098,5.4100342,2.5900269,7.4299927,4.4100342Z" fill="#5c506d"/>
    <path d="M40.4354246,63.7558976c.2200317-1.2600098,.4200439-2.5599976,.6000366-3.8899536-.1500244,1.4199829-.3599854,2.7199707-.6000366,3.8899536Z" fill="#3e324c"/>
    <path d="M88.9554442,58.3459245c-1.3200073,.1199951-2.9000244,.4099731-4.6300049,1.0100098-3.2399902,1.1300049-5.5599976,2.8800049-6.9899902,4.2000122-.1500244-1.3400269-.289978-2.6800537-.4199829-4v-.9100342c2.0599976-2.1799927,4.6499634-4.0800171,7.8899536-5.1400146,.9300537-.2999878,1.9900513-.5700073,3.2000122-.7199707h.0100098c.289978,2.1499634,.6199951,4.0200195,.9400024,5.5599976Z" fill="#5c506d"/>
    <path d="M75.0354612,34.7159196l2.2299805-2.710022c-2.1300049-2.5899658-4.2700195-5.1699829-6.3999634-7.7600098h-2.9300537c.0100098-.0499878,.0100098-.0999756,.0100098-.1499634,.0100098-.1300049,.0200195-.2600098,.0200195-.3900146l.0100098-2.8399658c0-.710022-.1600342-1.4100342-.4400024-2.0400391-.1400146-.3200073-.3200073-.6199951-.5200195-.8999634-.0200195-.0200195-.0299683-.0500488-.0499878-.0700073h3.8099976l.039978,.0599976,.0700073,.1099854c-.0100098-.0499878-.0199585-.0800171-.0199585-.0999756,.0599976,.039978,.2799683,.2399902,.5999756,.5199585,1.2700195,1.1300049,4.1799927,3.6500244,5.2999878,4.0100098,0,0-2.2299805,.7000122-2.960022,0-.0699463-.0700073-.1199951-.0999756-.1399536-.0800171-.1100464,.0200195,.3200073,.8600464,.9899902,1.6199951,.0499878,.0500488,.0999756,.1100464,.1499634,.1600342,0,.0100098,.0100098,.0100098,.0100098,.0100098,.5599976,.5799561,1.25,1.0599976,1.9500122,1.0299683,0,0-.4699707,.1500244-1.0999756,.2999878l6.8899536,10.7400513c-1.6399536-.4000244-4.2599487-.9900513-7.5199585-1.5200195Z" fill="#a2a1a1"/>
    <path d="M67.9354246,20.7558976c0-.6699829-.1299285-1.3200073-.3697776-1.9299927-4.6372264,.4199829-11.1334058,.9500122-16.5902186,1.1400146-.0399545,.2600098-.0599623,.5200195-.0599623,.789978l.0100039,2.1900024-.0100039,2.1799927c0,.4100342,.0499584,.8200073,.1498752,1.2200317,.1599401,.6900024,.4697555,1.3399658,.8894915,1.9099731h14.941225c.1798869-.25,.339827-.5,.4796983-.7699585v-.0100098c.3598348-.7200317,.5596684-1.5200195,.5596684-2.3500366l-.0099429-2.1799927,.0099429-2.1900024Zm-7.6754786,3.2600098c-.339766,.0200195-.679593,.0300293-1.0094161,.0400391-.4897022,.0199585-.9894083,.0299683-1.4791106,.0199585-1.439156-.0199585-2.8683082-.2099609-4.1975436-1.0999756-.0100039,0-.0100039-.0100098-.0199468-.0100098-.0100039-.0100098-.0200078-.0100098-.0300116-.0200195,.0100039-.0199585,.0200078-.0199585,.0300116-.0299683,.4097322-.2700195,.8294682-.4800415,1.2492653-.6300049,.1398714-.0599976,.2898076-.1099854,.4397438-.1500244,1.2992237-.3800049,2.6684136-.3399658,4.0075918-.3099976,1.439156,.0400391,2.8983199,.0700073,4.2575058,.6300049,.2098985,.0900269,.4097932,.1900024,.6196307,.3099976,.1099817,.0499878,.2098985,.1099854,.3098154,.1799927-.0099429,0-.0099429,.0100098-.0199468,.0100098-1.3092276,.8300171-2.7284369,1-4.157589,1.0599976Z" fill="#c0a278"/>
    <path d="M48.005432,17.7558976l-1.2000122,1.8800049c-.1399536,.1099854-.3099976,.25-.5,.4000244-1.3599854,1.0599976-3.8399658,2.9299927-4.7999878,3.1599731l.0100098,.0100098c-8.460022-1.0599976-14-2.8399658-14-4.8499756,0-.3800049,.1900024-.75,.5599976-1.1000366,5.7200317,.1900024,11.5200195,.3400269,17.4000244,.4500122,.8399658,.0200195,1.6799927,.039978,2.5299683,.0499878Z" fill="#1d1527"/>
    <path d="M71.4654539,18.4459001c-.1600342,.0200195-.3200073,.0300293-.4899902,.0499878-.9500122,.1000366-2.1000366,.210022-3.4100342,.3300171h-.0299683c-4.6400146,.4199829-11.1199951,.9500122-16.5700073,1.1400146h-.0700073c-1.4400024,.0499878-2.8200073,.0800171-4.0599976,.0800171-.1799927,0-.3599854,0-.5300293-.0100098,.1900024-.1500244,.3600464-.2900391,.5-.4000244l1.2000122-1.8800049c1.25,.0200195,2.5100098,.0400391,3.7700195,.0500488,2.5499878,.039978,5.1300049,.0699463,7.710022,.0899658,2.5299683,.0200195,5.039978,.0300293,7.5299683,.0300293,1.2700195,0,2.539978,0,3.7999878-.0100098l.0700073,.1099854c-.0100098-.0499878-.0199585-.0800171-.0199585-.0999756,.0599976,.039978,.2799683,.2399902,.5999756,.5199585Z" fill="#7c7c7c"/>
    <path d="M73.8054197,17.7259294h-.0799561c-.4800415-.0100098-.9800415-.0100098-1.460022-.0200195-.1699829-.0899658-.3599854-.1799927-.5800171-.2600098-.6999512-.2399902-1.3199463-.2399902-1.75-.1900024-.2999878,.0300293-.6199951,.0500488-.9599609,.0599976-.6199951,.0200195-1.1799927-.0099487-1.6799927-.0599976h-22.1300049c.6699829-.1799927,1.3999634-.5,2.0899658-1.0599976,2.7300415-2.2399902,2.1700439-6.3599854,2.1100464-6.75l-5.3300171,.25c.1199951-.2600098,.2399902-.5199585,.3800049-.7699585C47.005432,3.8059465,51.7054442,.3559343,56.9054564,.0259172c3.9699707-.25,7.0299683,1.3699951,8.4199829,2.2199707,2.75,5.0100098,5.4899902,10.0100098,8.2299805,15.0200195,.0600586,.1199951,.1300049,.2299805,.1900024,.3500366,.0200195,.039978,.0400391,.0699463,.0599976,.1099854Z" fill="#372549"/>
    <path d="M44.040446,9.4295661c.0447494,.09852,.0707994,.0985265,.1332361,.09909,2.4038912,.3204166,4.8901584-.1332461,6.9372164-1.4344975,.0000279,.0000698,.109647-.0018528,.109647-.0018528l.0098-.0001717-.2465248,.0721731c.6363754-.4245939,1.2030907-.9383554,1.6859818-1.5288877,.0014523-.0020135-.0895197,.1535923-.0891984,.1532051,.2676834-1.022949,.3041561-2.5166364-.6594368-3.0827636l.9385537-1.2725971c1.4432581,1.1654884,1.2949151,3.2820692,.6210498,4.7947613-2.2395275,2.535544-5.5945372,3.6022324-9.3942292,3.1199439,.000009-.0000376,.0538038,.0035034,.0538038,.0035034-.0334015-.0020256-.0665932,.0053148-.0998993,.0780935v-1h0Z" fill="#1d1527"/>
    <path d="M90.9854735,17.7259294c-5.6900024,.1099854-11.4500122,.1699829-17.2900391,.1900024-.9599609,0-1.9199829,.0100098-2.8800049,0-1.2600098,.0100098-2.5299683,.0100098-3.7999878,.0100098-2.4899902,0-5-.0100098-7.5299683-.0300293-2.5800171-.0200195-5.1600342-.0499878-7.710022-.0899658-1.2600098-.0100098-2.5200195-.0300293-3.7700195-.0500488-.8499756-.0100098-1.6900024-.0299683-2.5299683-.0499878-5.8800049-.1099854-11.6799927-.2600098-17.4000244-.4500122,.3800049-.2099609,.7700195-.4299927,1.1600342-.6499634,20.1199951,.0899658,40.25,.1799927,60.3800049,.2600098,.4599609,.289978,.9199829,.5799561,1.3699951,.8599854Z" fill="#2e213d"/>
    <circle cx="36.2454222" cy="42.6158397" r=".9624939" fill="#422f58"/>
    <circle cx="40.0729674" cy="45.3834306" r=".9624939" fill="#422f58"/>
    <circle cx="43.2079466" cy="47.8279675" r=".9624939" fill="#422f58"/>
    <circle cx="75.7229307" cy="47.9470792" r=".9624939" fill="#422f58"/>
    <circle cx="78.9080297" cy="45.3834306" r=".9624939" fill="#422f58"/>
    <circle cx="81.9904196" cy="42.6158397" r=".9624939" fill="#422f58"/>
    <g>
      <path d="M71.9723695,47.6514418c-.751546,18.5809631-21.6440243,27.430481-23.0721738,24.8938751-.3161838-.5615997,.4407329-1.4377747,.955655-3.8709717,1.693037-8.000145-3.2533666-13.820343-4.0956552-21.0229034-1.1994256-10.2564774,5.7261809-24.9251938,13.1060924-25.101326,6.9072986-.164856,13.582892,13.3127518,13.1060816,25.101326Z" fill="#a2a1a1"/>
      <path d="M67.6457517,48.3241637c-3.6520486,15.5211792-23.5761177,15.9936295-24.4331408,13.358902-.1781164-.5475922,.5890897-.9775085,1.4684784-2.9642487,2.2965922-5.1884995,.4080996-9.6244125,.9425888-16.1735001,.717901-8.7964325,5.2325264-14.3659821,5.8666915-15.1255798,1.2853679-1.5396042,4.8863677-5.8528442,8.5835992-4.8220291,5.8034267,1.6180267,9.9038822,15.815033,7.571783,25.7264557Z" fill="#adacac"/>
      <path d="M55.5933973,23.554373c-3.9658,1.9016876-6.1349047,6.2450256-7.3523798,8.754715-4.6136448,9.5105209-5.0579725,21.7672424-3.7454281,22.418457,.3593649,.178299,.4828807-.6530685,1.7430848-1.9393005,3.0615919-3.1248245,5.8279017-2.0024185,9.7836706-3.6179276,.4985301-.203598,5.4131721-2.198204,8.9571927-8.2936325,1.3464478-2.3157806,2.7434277-4.718483,2.6529757-8.0043411-.1306948-4.7475357-3.2935555-8.6887665-6.3517356-9.860527-2.4787017-.9497299-4.5895788,.0161362-5.6873804,.5425568Z" fill="#d0d0d0"/>
    </g>
    <polygon points="87.3924421 178.5253036 84.604426 177.1281508 81.872916 178.6327845 82.340143 175.5494796 80.0650682 173.4166166 83.1418465 172.9081823 84.467283 170.0853667 85.9016096 172.8544418 88.9958491 173.2427089 86.8055334 175.4625258 87.3924421 178.5253036" fill="#5c506d"/>
    <polygon points="90.6688329 157.3967553 87.8716415 158.7754467 87.4216041 161.8613074 85.2460109 159.6270594 82.1721137 160.1526318 83.6247146 157.3930991 82.1749792 154.63206 85.2483291 155.160823 87.4262404 152.9288346 87.8730742 156.0151608 90.6688329 157.3967553" fill="#5c506d"/>
    <polygon points="79.0087964 127.1069364 76.211605 128.4856278 75.7615676 131.5714885 73.5859744 129.3372405 70.5120772 129.8628129 71.9646781 127.1032802 70.5149427 124.3422411 73.5882926 124.8710041 75.7662039 122.6390157 76.2130377 125.7253419 79.0087964 127.1069364" fill="#5c506d"/>
    <polygon points="77.8960668 98.7936204 75.0988754 100.1723119 74.6488379 103.2581726 72.4732447 101.0239246 69.3993476 101.5494969 70.8519485 98.7899642 69.402213 96.0289251 72.4755629 96.5576882 74.6534743 94.3256998 75.1003081 97.412026 77.8960668 98.7936204" fill="#5c506d"/>
    <polygon points="85.1866324 135.5145021 83.7106718 134.2750711 81.8529136 134.7882799 82.5755856 133.0015527 81.5134162 131.3933099 83.4360126 131.5284828 84.6373141 130.0213253 85.102872 131.8915939 86.9074865 132.5683621 85.2726207 133.5890788 85.1866324 135.5145021" fill="#5c506d"/>
    <polygon points="81.66994 168.7199254 80.1939794 167.4804945 78.3362213 167.9937032 79.0588932 166.2069761 77.9967239 164.5987333 79.9193203 164.7339061 81.1206217 163.2267487 81.5861797 165.0970172 83.3907941 165.7737855 81.7559284 166.7945022 81.66994 168.7199254" fill="#5c506d"/>
    <polygon points="86.5566275 150.7401709 85.0806669 149.50074 83.2229087 150.0139487 83.9455807 148.2272216 82.8834113 146.6189788 84.8060078 146.7541516 86.0073092 145.2469941 86.4728671 147.1172627 88.2774816 147.794031 86.6426158 148.8147477 86.5566275 150.7401709" fill="#5c506d"/>
    <polygon points="77.8016203 142.3321646 76.3256597 141.0927337 74.4679015 141.6059424 75.1905735 139.8192153 74.1284041 138.2109724 76.0510006 138.3461453 77.252302 136.8389878 77.7178599 138.7092564 79.5224744 139.3860247 77.8876086 140.4067414 77.8016203 142.3321646" fill="#5c506d"/>
    <polygon points="75.7366179 115.3751842 74.2606573 114.1357532 72.4028991 114.648962 73.1255711 112.8622348 72.0634017 111.253992 73.9859981 111.3891648 75.1872995 109.8820074 75.6528575 111.7522759 77.457472 112.4290442 75.8226062 113.4497609 75.7366179 115.3751842" fill="#5c506d"/>
    <polygon points="80.8467046 124.1792275 79.370744 122.9397965 77.5129858 123.4530053 78.2356578 121.6662781 77.1734885 120.0580353 79.0960849 120.1932082 80.2973863 118.6860507 80.7629442 120.5563193 82.5675587 121.2330875 80.9326929 122.2538042 80.8467046 124.1792275" fill="#5c506d"/>
    <polygon points="69.7166275 108.8446582 68.2406669 107.6052272 66.3829087 108.118436 67.1055807 106.3317088 66.0434113 104.723466 67.9660078 104.8586389 69.1673092 103.3514814 69.6328671 105.22175 71.4374816 105.8985182 69.8026158 106.9192349 69.7166275 108.8446582" fill="#5c506d"/>
    <polygon points="69.1666128 91.3348274 67.6906523 90.0953965 65.8328941 90.6086052 66.5555661 88.8218781 65.4933967 87.2136353 67.4159931 87.3488081 68.6172945 85.8416507 69.0828525 87.7119192 70.887467 88.3886875 69.2526012 89.4094042 69.1666128 91.3348274" fill="#5c506d"/>
    <line x1="17.0059451" y1="44.6347099" x2="27.5154417" y2="174.3590756" fill="#432c15"/>
    <circle cx="14.2282844" cy="27.4203847" r="14.2270249" fill="url(#_Градієнт_без_назви_26)"/>
    <path d="M17.1982026,28.1129262l.0629175-.1579603-4.0059592-10.3099076c2.1488261,3.3930246,4.2987535,6.7959368,6.4475728,10.1889007l-2.504531,.2789672Z" fill="#347680"/>
    <path d="M19.8606621,28.0779859c-1.1965251,1.904169-2.3931109,3.8083447-3.5885348,5.7224012l-1.2622138,.1405917,2.1882891-5.8280526,2.504531-.2789672c.0596466,.0839399,.1082301,.1589789,.1579284,.2440269Z" fill="#2d6167"/>
    <polygon points="14.990017 33.9431949 13.1414635 34.1490961 8.9392798 29.0328464 11.4835432 28.7494536 14.990017 33.9431949" fill="#183233"/>
    <polygon points="17.1982026 28.1129262 15.0099135 33.9409788 14.990017 33.9431949 11.4835432 28.7494536 17.1982026 28.1129262" fill="#214249"/>
    <path d="M13.2551609,17.6450583l-1.7716178,11.1043953-2.5442634,.2833928c1.4389784-3.7925908,2.8769094-7.5951366,4.3158811-11.3877881Z" fill="#204649"/>
    <polygon points="17.2611202 27.9549659 17.1982026 28.1129262 11.4835432 28.7494536 13.2551609 17.6450583 17.2611202 27.9549659" fill="#2b5863"/>
    <polygon points="18.0889085 36.391182 11.7321137 37.0178465 8.7665612 32.5939464 8.2128525 33.9363822 11.9882039 39.5683427 18.3449987 38.9416782 20.926442 32.6830532 20.1165894 31.4749989 18.0889085 36.391182" fill="#432c15"/>
    <line x1="15.0099168" y1="33.9410079" x2="15.0021922" y2="33.961992" fill="none"/>
    <line x1="19.8319099" y1="27.8195879" x2="19.7027089" y2="27.833979" fill="none"/>
    <line x1="15.0021922" y1="33.961992" x2="14.9900397" y2="33.9432219" fill="#2b5863"/>
    <g>
      <path d="M9.9682199,20.2189813l.0282915-.0710283-1.8013171-4.6359466c.9662398,1.5257053,1.9329748,3.0558567,2.8992115,4.5815347l-1.1261859,.1254402Z" fill="#347680"/>
      <path d="M11.1654197,20.2032701c-.5380287,.8562274-1.0760848,1.7124579-1.6136183,2.5731313l-.5675662,.0632184,.9839847-2.6206385,1.1261859-.1254402c.0268206,.0377443,.0486667,.0714864,.071014,.109729Z" fill="#2d6167"/>
      <polygon points="8.9752886 22.8406163 8.1440691 22.9332017 6.2545178 20.6326321 7.3985697 20.5052018 8.9752886 22.8406163" fill="#183233"/>
      <polygon points="9.9682199 20.2189813 8.9842352 22.8396198 8.9752886 22.8406163 7.3985697 20.5052018 9.9682199 20.2189813" fill="#214249"/>
      <path d="M8.1951942,15.5120064l-.7966245,4.9931954-1.1440519,.1274302c.6470501-1.705374,1.2936293-3.4152244,1.9406764-5.1206256Z" fill="#204649"/>
      <polygon points="9.9965114 20.147953 9.9682199 20.2189813 7.3985697 20.5052018 8.1951942 15.5120064 9.9965114 20.147953" fill="#2b5863"/>
      <line x1="11.1524911" y1="20.087079" x2="11.0943946" y2="20.0935501" fill="none"/>
    </g>
    <g>
      <path d="M21.0476877,22.287414l.0187114-.0469767-1.191355-3.0661221c.6390516,1.0090709,1.2784307,2.0210823,1.9174803,3.0301351l-.7448367,.0829636Z" fill="#347680"/>
      <path d="M21.8394917,22.2770229c-.3558414,.5662916-.7117009,1.1325853-1.0672148,1.7018174l-.3753769,.0418114,.6507877-1.7332377,.7448367-.0829636c.0177386,.0249634,.0321872,.0472796,.0469672,.0725725Z" fill="#2d6167"/>
      <polygon points="20.3909828 24.0213108 19.841231 24.0825449 18.5915197 22.5609943 19.3481726 22.4767145 20.3909828 24.0213108" fill="#183233"/>
      <polygon points="21.0476877 22.287414 20.3969 24.0206517 20.3909828 24.0213108 19.3481726 22.4767145 21.0476877 22.287414" fill="#214249"/>
      <path d="M19.8750441,19.1743153l-.5268715,3.3023993-.756653,.0842798c.427946-1.1279001,.8555805-2.2587609,1.2835244-3.3866791Z" fill="#204649"/>
      <polygon points="21.0663991 22.2404373 21.0476877 22.287414 19.3481726 22.4767145 19.8750441 19.1743153 21.0663991 22.2404373" fill="#2b5863"/>
      <line x1="21.8309409" y1="22.2001765" x2="21.7925171" y2="22.2044563" fill="none"/>
    </g>
    <path d="M34.4267908,182.0660772l-6.4060473,.7135376c-2.7289327-33.1048503-6.1878342-67.0701861-10.4822294-101.8350389-1.7381224-14.0707674-3.5763119-27.9746387-5.5064502-41.7092327l6.4060473-.7135376c1.1026723,13.8733274,2.3457684,27.9086497,3.738435,42.1009024,3.4233957,34.886772,7.5537465,68.715875,12.2502446,101.4433692Z" fill="#3d2818" stroke="#56381c" stroke-miterlimit="10"/>
    <circle cx="17.6166741" cy="60.5321699" r="4.727173" fill="#56381c" stroke="#3d2818" stroke-miterlimit="10"/>
    <g>
      <polygon points="35.0740332 186.2439531 28.807172 186.9739507 24.8957836 182.0234468 27.2512566 176.3429452 33.5181178 175.6129476 37.4295061 180.5634516 35.0740332 186.2439531" fill="#b97023"/>
      <polygon points="33.8955572 184.6963846 29.5412661 185.2035958 26.8235862 181.7639257 28.4601973 177.8170444 32.8144884 177.3098332 35.5321684 180.7495033 33.8955572 184.6963846" fill="#dd872a"/>
    </g>
    <circle cx="22.3036528" cy="102.7446061" r="3.4193548" fill="#56381c" stroke="#3d2818" stroke-miterlimit="10" stroke-width=".7233403"/>
    <circle cx="24.146279" cy="119.2874632" r="3.4193548" fill="#56381c" stroke="#3d2818" stroke-miterlimit="10" stroke-width=".7233403"/>
    <polygon points="18.3068423 37.9423843 11.9500475 38.5690488 8.9844951 34.1451487 8.4307863 35.4875845 12.2061378 41.119545 18.5629325 40.4928805 21.1443758 34.2342555 20.3345232 33.0262012 18.3068423 37.9423843" fill="#3d2818"/>
    <path d="M56.9504416,87.7519649c-1.4799805,10.9461495-3.0899658,22.0331034-4.8599854,33.2710552-3.8900146,24.7998219-8.2600098,48.7445009-12.9899902,71.8138956h-.0100098c-2.3699951-.3420326-8.5-1.4084744-16.6600342-3.2898381,6.4800415-34.7801744,12.960022-69.5704194,19.4400024-104.3505938h13.6100464l1.4699707,2.5554811Z" fill="#231830"/>
    <polygon points="48.6843277 106.0980698 46.4279767 103.9454086 43.375506 104.5837602 44.7255576 101.772634 43.1751839 99.0668234 46.2659126 99.482113 48.3601997 97.1714784 48.9203235 100.2392678 51.7650378 101.5170277 49.0204846 102.9977362 48.6843277 106.0980698" fill="#2e213d"/>
    <polygon points="44.7769344 124.1886719 44.127146 127.2387285 46.2713347 129.5031323 43.1697629 129.8276661 41.6787776 132.56665 40.4116892 129.7171664 37.3460209 129.1455477 39.6644891 127.0599362 39.2607872 123.9676725 41.9607676 125.5281773 44.7769344 124.1886719" fill="#2e213d"/>
    <polygon points="37.3536934 181.185228 36.703905 184.2352846 38.8480937 186.4996884 35.7465219 186.8242221 34.2555366 189.5632061 32.9884483 186.7137224 29.92278 186.1421037 32.2412481 184.0564922 31.8375462 180.9642286 34.5375267 182.5247334 37.3536934 181.185228" fill="#2e213d"/>
    <polygon points="38.9255145 158.0492378 36.5373609 156.0437971 33.531446 156.874186 34.7007534 153.9832017 32.9821279 151.3810111 36.0929532 151.5997252 38.0366991 149.1610941 38.7899874 152.1872511 41.709914 153.2822849 39.0646465 154.9338386 38.9255145 158.0492378" fill="#2e213d"/>
    <polygon points="40.6666128 116.4567898 39.1906523 115.2173589 37.3328941 115.7305676 38.0555661 113.9438404 36.9933967 112.3355976 38.9159931 112.4707705 40.1172945 110.963613 40.5828525 112.8338816 42.387467 113.5106499 40.7526012 114.5313665 40.6666128 116.4567898" fill="#2e213d"/>
    <polygon points="47.8116301 93.4247933 46.3356695 92.1853623 44.4779113 92.6985711 45.2005833 90.9118439 44.1384139 89.3036011 46.0610103 89.4387739 47.2623117 87.9316165 47.7278697 89.801885 49.5324842 90.4786533 47.8976184 91.49937 47.8116301 93.4247933" fill="#2e213d"/>
    <polygon points="44.8294576 142.1695797 43.353497 140.9301488 41.4957388 141.4433575 42.2184108 139.6566304 41.1562414 138.0483876 43.0788379 138.1835604 44.2801393 136.676403 44.7456972 138.5466715 46.5503117 139.2234398 44.9154459 140.2441565 44.8294576 142.1695797" fill="#2e213d"/>
    <polygon points="36.6166251 172.2533216 35.1406645 171.0138906 33.2829063 171.5270994 34.0055783 169.7403722 32.9434089 168.1321294 34.8660053 168.2673022 36.0673067 166.7601448 36.5328647 168.6304134 38.3374792 169.3071816 36.7026134 170.3278983 36.6166251 172.2533216" fill="#2e213d"/>
    <polygon points="37.2216032 147.6607263 35.7456426 146.4212954 33.8878845 146.9345041 34.6105564 145.147777 33.5483871 143.5395342 35.4709835 143.674707 36.6722849 142.1675496 37.1378429 144.0378181 38.9424573 144.7145864 37.3075915 145.7353031 37.2216032 147.6607263" fill="#2e213d"/>
    <polygon points="49.6727042 116.2612751 48.1967436 115.0218442 46.3389854 115.5350529 47.0616574 113.7483257 45.999488 112.1400829 47.9220844 112.2752558 49.1233858 110.7680983 49.5889438 112.6383669 51.3935583 113.3151351 49.7586925 114.3358518 49.6727042 116.2612751" fill="#2e213d"/>
    <path d="M24.3797151,80.2616851c.0888034,.2655755,.1554269,.5279487,.190474,.7903902,.1432346,.9643756-.0234975,1.9163625-.437038,2.6978259-.4260904,.8384326-1.1433104,1.5000527-2.0632159,1.8076515-1.7545467,.5866869-3.6938551-.2937736-4.6599698-2.016309-.1488785-.2560421-.2724326-.5310424-.3707395-.8250394-.3488262-1.0432002-.3119057-2.131079,.038247-3.0389816,.3974218-1.0502342,1.1903798-1.8953047,2.2715524-2.2568281,2.0200643-.6754709,4.279113,.593623,5.03069,2.8412905Z" fill="#7c7c7c"/>
    <polygon points="64.3704527 84.3077327 63.7404478 85.3977595 63.3704527 86.0477229 63.360504 86.0477229 61.900482 88.587762 56.9504698 88.587762 55.4804991 86.0477229 55.110504 85.3977595 54.4804991 84.3077327 55.110504 83.2177669 55.110504 83.2077571 56.9504698 80.0177547 61.900482 80.0177547 63.7304991 83.2077571 63.7404478 83.2077571 64.3704527 84.3077327" fill="#dd872a"/>
    <polygon points="62.9697976 84.3062583 62.526518 85.0732154 62.2661846 85.530538 62.2591846 85.530538 61.2318942 87.3177425 57.7490014 87.3177425 56.714711 85.530538 56.4543776 85.0732154 56.011098 84.3062583 56.4543776 83.5393443 56.4543776 83.5323013 57.7490014 81.2877742 61.2318942 81.2877742 62.519518 83.5323013 62.526518 83.5323013 62.9697976 84.3062583" fill="#b97023"/>
    <path d="M24.5094679,82.2989407c-.1699829,.960022-.6300049,1.8099976-1.2700195,2.4199829-.6699829,.6600342-1.5599976,1.0600586-2.5299683,1.0600586-1.8500366,0-3.4100342-1.4500122-3.7800293-3.3900146,.1199951-.7399902,.4200439-1.4200439,.8400269-1.960022,.6900024-.8900146,1.6900024-1.4799805,2.8300171-1.5100098,1.8899536-.0499878,3.5099487,1.4000244,3.9099731,3.3800049Z" fill="#c0a278"/>
    <g>
      <rect x="81.0845796" y="84.0876963" width="16.5300544" height="23.5309206" transform="translate(19.4392926 206.6851368) rotate(-104.7683579)" fill="#80171c"/>
      <rect x="82.3716067" y="84.4435036" width="12.7100702" height="18.0930835" transform="translate(20.9425708 203.1172558) rotate(-104.7683579)" fill="#5e121a"/>
      <polyline points="97.876252 86.2646188 101.2857184 99.1978472 80.6275325 104.643772 77.168553 91.5227244" fill="none" stroke="#dd872a" stroke-miterlimit="10" stroke-width=".75"/>
    </g>
    <path d="M91.339485,86.0489407c0,2.5599976-1.7399902,4.6300049-3.8800049,4.6300049-1.1700439,0-2.2200317-.6199951-2.9299927-1.5999756-.0400391-.0499878-.0800171-.1100464-.1100464-.1600342-.5199585-.789978-.8399658-1.7799683-.8399658-2.8699951,0-1.0199585,.2799683-1.9599609,.75-2.7299805,.1699829-.1500244,.3399658-.3099976,.5200195-.4700317,.5199585-.4599609,1.0499878-.8800049,1.5699463-1.25,.3300171-.1199951,.6800537-.1799927,1.0400391-.1799927,1.4199829,0,2.6699829,.9100342,3.3399658,2.2800293,.2800293,.5599976,.460022,1.2000122,.5100098,1.8800049,.0200195,.1499634,.0300293,.3099976,.0300293,.4699707Z" fill="#7c7c7c"/>
    <path d="M92.0595007,85.7133205c0,3.3936707-2.3066248,6.137784-5.1435436,6.137784-1.5510733,0-2.9429937-.8218989-3.8841562-2.1210139-.0530779-.0662665-.106075-.1458834-.1458834-.2121499-.0131886-.1987995-.0264581-.39768-.0264581-.609749,0-1.3521929,.371141-2.5983108,.9942404-3.6190901,.2253385-.1987995,.450677-.4109495,.689285-.6230185,.6893659-.6098299,1.3920013-1.1665819,2.0812863-1.6570674,.4374884-.159072,.9014349-.238608,1.3787318-.238608,1.6305284,0,3.0887153,.9014349,4.0166892,2.3198943,.026539,.1987995,.0398085,.4109495,.0398085,.6230185Z" fill="#c0a278"/>
  </g>
</svg>