<?xml version="1.0" encoding="UTF-8"?>
<svg id="_Шар_2" data-name="Шар 2" xmlns="http://www.w3.org/2000/svg" viewBox="0 0 87.6715512 194.9427232">
  <g id="_Шар_1-2" data-name="Шар 1">
    <path d="M.5806274,150.6800016c7.3744812,.8532715,19.4543152,3.2789001,31.9874878,11.0371399,6.8692932,4.2522278,12.0405273,8.9709473,15.7544556,12.9628601,13.7927856-8.9555664,31.8085938-24.0855713,35.612915-46.1935425,1.5349731-8.9202576,.1950684-15.7148743-1.0322571-22.9677429-2.9017334-17.1477966-6.0507812-42.0372314-6.68573-74.7496338-14.269989,.2798004-28.539978,.5596313-42.809967,.8394165-13.6402283,23.3586731-18.1377258,42.4775696-19.6656189,55.8457031-1.0252075,8.9698792-1.3720703,21.1132202-5.6773987,38.9677429-2.5155029,10.4320068-5.4119873,18.7894592-7.4838867,24.2580566Z" fill="#3f1d19"/>
    <path d="M0,154.6154875c1.8865356,1.7389832,4.702301,3.9560852,8.5161133,5.8064575,4.4339905,2.1512756,8.4736023,2.9610291,11.2257996,3.2903137-3.2038879-13.0691223-6.625061-34.3913574-2.5161133-60,5.995575-37.3670654,24.630249-62.7101746,34.0645142-73.9354706-4.5161438-1.0967712-9.0322571-2.1935577-13.5484009-3.290329-7.848999,12.474762-16.2995605,28.3716431-23.2257996,47.612915C3.0566101,105.9341826,.26474,134.4367155,0,154.6154875Z" fill="#4c2625"/>
    <g>
      <path d="M76.2992656,26.2382875l-6.5803759,13.639557c-2.0157687-2.1318189-4.0202614-4.2675745-6.0323605-6.4069997l5.2119172-10.8030671,7.4008191,3.5705098Z" fill="#8e8883"/>
      <path d="M55.3467322,50.7572641c2.2481489,1.6501499,4.4924061,3.2889306,6.7479393,4.9237747l-7.4988202,15.5432741c-1.9696709,4.0826602-6.8810157,5.8036724-10.9713289,3.8303094l11.7222098-24.2973582Z" fill="#8e8883"/>
      <path d="M72.378147,23.0741985l-1.4985309-.7229631c.6736762-2.5684717,1.6529897-5.5361562,3.1115385-8.7155824,1.8594907-4.0887029,3.9843803-7.3990941,5.8848304-9.9317548,.3680577,1.32745,.73983,2.6472003,1.1078876,3.9746503-3.0823239,3.2631243-6.3228641,9.2962893-8.6057257,15.39565Z" fill="#2f2622" stroke="#352b27" stroke-miterlimit="10" stroke-width=".6366556"/>
      <path d="M69.7188897,39.8778445l-7.6242181,15.8031943c-1.1737832-.8490281-2.3362213-1.702017-3.5063123-2.558698l7.9967649-16.5753953c1.0446931,1.1166012,2.0854028,2.221904,3.1337656,3.330899Z" fill="#999490"/>
      <path d="M66.5851241,36.5469455l-7.9967649,16.5753953c-1.0817967-.7858385-2.1635692-1.5716078-3.241627-2.3650767l8.339797-17.2864193c.9637138,1.0304769,1.9311423,2.0532542,2.8985949,3.0761007Z" fill="#a39f9b"/>
      <path d="M78.5953928,17.3178234c-1.6110377,2.5969284-2.6924951,5.0535174-3.4266736,7.1026809l-2.7905722-1.3463058c2.2828616-6.0993607,5.5234018-12.1325257,8.6057257-15.39565,.4282256,1.5543663,.8564513,3.1087326,1.2883691,4.6554459-1.1693244,1.3491668-2.4481343,3.0036101-3.6768489,4.983829Z" fill="#302521" stroke="#352b27" stroke-miterlimit="10" stroke-width=".6366556"/>
      <path d="M74.2518561,27.0759535c-.6040124-.5790906-1.68594-1.4503891-3.2607065-1.9379491-3.1642429-.9796855-5.88402,.3435888-6.5304203,.6802216-.5708851-.3757759-1.2063994-.8498645-1.8575069-1.4434211-.8613666-.7852247-1.5209347-1.5706845-2.0158683-2.2494783,1.715235-.558369,4.2903747-1.1305315,7.2820375-.6784642,1.9600687,.2961946,2.9994263,.8658848,5.0753026,1.5324723,2.0200189,.648642,5.0010204,1.3824465,8.9136581,1.5641081-.0715768,.2551386-.6924967,2.3313887-2.8206251,3.1996605-2.4919536,1.01673-4.6828024-.5888344-4.785871-.6671499Z" fill="#84532f"/>
      <path d="M76.8829769,26.0650996c.1280467-.2741743-3.1697234-2.8396332-7.599081-3.4381576-3.3937597-.4585818-6.3986894,.3798097-6.3837581,.6597714,.0142702,.2676199,2.7825713-.0765408,6.9542509,.7100032,4.4653228,.841923,6.9216504,2.2973727,7.0285882,2.068383Z" fill="#895634"/>
    </g>
    <g>
      <path d="M33.39399,26.1089883l6.3980231,13.7260396c2.0439995-2.1047663,4.0767765-4.2136193,6.1172081-6.3260401l-5.0674867-10.8715647-7.4477445,3.4715652Z" fill="#8e8883"/>
      <path d="M54.0179091,50.9050128c-2.2699401,1.6200433-4.5358373,3.2287702-6.812957,4.8334106l7.2910159,15.6418273c1.9150882,4.1085466,6.8030617,5.8948573,10.9193098,3.9761793l-11.3973686-24.4514172Z" fill="#8e8883"/>
      <path d="M37.3569268,22.9974353l1.5080324-.7029286c-.6393874-2.5772214-1.579065-5.5576932-2.9951135-8.7562745-1.8048372-4.1131205-3.885422-7.4515351-5.7519517-10.0092974-.3857153,1.3224271-.7750424,2.6371058-1.1607577,3.959533,3.0385639,3.3039113,6.1984151,9.3797258,8.3997904,15.5089676Z" fill="#2f2622" stroke="#352b27" stroke-miterlimit="10" stroke-width=".6366556"/>
      <path d="M39.7920132,39.8350278l7.4129389,15.9033955c1.1849936-.8333102,2.3586958-1.670732,3.5400996-2.5117437l-7.7751618-16.6804927c-1.0594808,1.1025799-2.114828,2.1939155-3.1778767,3.2888409Z" fill="#999490"/>
      <path d="M42.9698899,36.546187l7.7751618,16.6804927c1.0921731-.7713521,2.1843212-1.5426353,3.2728575-2.3216669l-8.1086879-17.396025c-.977361,1.0175424-1.9583336,2.0273364-2.9393314,3.0371993Z" fill="#a39f9b"/>
      <path d="M31.2169458,17.1587168c1.5762865,2.6181674,2.62491,5.0889503,3.331715,7.1477159l2.8082661-1.3089975c-2.2013753-6.1292418-5.3612265-12.2050563-8.3997904-15.5089676-.448902,1.5485215-.8978039,3.097043-1.3502958,4.637863,1.1512408,1.3646301,2.4078891,3.0359685,3.6101051,5.0323861Z" fill="#302521" stroke="#352b27" stroke-miterlimit="10" stroke-width=".6366556"/>
      <path d="M35.4300545,26.9738648c.6116761-.5709898,1.705119-1.4277926,3.2862432-1.894323,3.1770177-.93743,5.8789187,.421972,6.5207754,.7671892,.5758422-.3681346,1.217618-.8337119,1.8765778-1.4185388,.8717545-.7736759,1.5417315-1.5502762,2.0456671-2.2224139-1.7076415-.5811776-4.2749276-1.187607-7.2723492-.7754484-1.9638419,.2700473-3.0106992,.8258359-5.0952745,1.4646999-2.0284837,.6216645-5.0189996,1.3156774-8.9337108,1.4451808,.0681703,.2560698,.6613658,2.3404102,2.7777342,3.2369656,2.4781827,1.0498488,4.6902337-.5263765,4.7943368-.6033114Z" fill="#84532f"/>
      <path d="M32.8126385,25.9280369c-.1243815-.2758563,3.2072844-2.7971395,7.6442249-3.3365827,3.3995696-.413314,6.3930596,.4650485,6.3743987,.7447864-.0178354,.2674059-2.7813042-.1136161-6.9630952,.6172639-4.4761462,.7823408-6.9516518,2.2049269-7.0555284,1.9745324Z" fill="#895634"/>
    </g>
    <path d="M37.7518417,49.4740901c-1.1701029-2.0391681-3.7941735-4.1395827-5.8758932-3.4625953-1.62563,.5286524-2.2942792,2.567655-2.7280673,3.8822878-1.0499922,3.1821716,.2260595,4.2304763-.7768149,7.6314942-.2071661,.7025647-.1579968,.306398-1.7837261,4.092134-1.7019317,3.9631888-1.7331671,4.3445649-1.6788361,4.7217058,.4590345,3.1871349,7.0110879,5.9669192,9.1286092,4.197024,1.7866048-1.4933098-.9360029-5.0950084,1.4063536-9.7300228,.9444073-1.8687631,1.5685196-1.8077813,2.4132979-3.7773316,.2688758-.6268586,1.7593731-4.3057854-.1049231-7.5546962Z" fill="#230908"/>
    <g>
      <path d="M29.3503819,41.541525s-3.6374341,10.4926097-2.518221,14.9694949c.9402382,.2386993,2.0644476,.634899,3.2352122,1.3115555,3.2516571,1.8793514,4.8102833,4.7362647,5.438697,6.1032101,5.1714094-7.2430371,6.7321201-13.615851,7.2749012-17.487716,.7448185-5.3130606-.3404128-6.5351122-.8856755-6.9657569-2.3872905-1.8855058-8.324364,.4213138-11.8453933,1.7893842-.2937583,.1141548-.5356009,.212361-.6995205,.2798281Z" fill="#777471"/>
      <path d="M30.4777346,44.2045076s-2.4855628,7.1698788-1.7207921,10.229028c.6474726,.1671292,1.4133353,.4397109,2.2107311,.8962307,2.2770732,1.3036474,3.3846061,3.290172,3.8388759,4.2590647,3.4193819-4.9879015,4.4752639-9.3479848,4.8486327-12.0383976,.4943398-3.5621912-.1767248-4.4216608-.6051526-4.7598567-1.631983-1.2882613-5.6940397,.2900855-8.0943008,1.2227133-.2007469,.0779892-.3659901,.1450924-.4779941,.1912175Z" fill="#777471" stroke="#999490" stroke-miterlimit="10" stroke-width="1.0117723"/>
    </g>
    <path d="M70.9711763,75.2578464c-10.3177709,.0349744-20.6355088,.0699487-30.9532797,.1049231-.0069155-2.8544978-.1104158-5.2264353-.2098462-6.9251244-.5917518-10.1099431-2.0960138-14.4341587-2.4132979-23.818276-.0933422-2.7605269-.053173-5.0484201,0-6.6103881,11.716779-.3847181,23.4335248-.7694693,35.1503038-1.1541874,.0377538,1.3296549,.0783532,3.5926325,0,6.4005088-.2637802,9.4523786-1.5198466,12.3301044-1.4689568,20.0409445,.0072463,1.0971762,.0493678,3.5682133,0,7.2398938-.0270663,2.0135246-.0718679,3.65914-.1049231,4.7217058Z" fill="#666360"/>
    <path d="M69.2923402,41.3101765c-1.3706844,1.0069908-6.6498956,4.6426052-14.4798206,4.568469-6.6031087-.0625245-11.2083105-2.7272511-12.8010176-3.7461417,1.3290593-4.1725475,2.6581516-8.3450661,3.9872109-12.5176136h19.2014933c1.3640336,3.8984192,2.7281004,7.7968671,4.092134,11.6952863Z" fill="#777471" stroke="#999490" stroke-miterlimit="10" stroke-width="1.0117723"/>
    <path d="M67.4036909,29.3578366c.0687576-.1600814,.1493608-.3122216,.2098462-.4774647-.4257807-.0158162-4.2034101-.2222213-6.5306452-3.5421066-2.4136619-3.4432386-1.1520697-7.2181547-1.0240179-7.580075h-4.8351988v.4161189h-5.2640898c1.2009743,2.7857733,.7771127,5.8956139-1.1148785,7.9957307-1.8541381,2.0580946-4.4026681,2.3520514-5.0537142,2.4082354,.0438751,.0848385,.1036989,.1935006,.1639196,.3020965h-.0547281v5.4562007h7.3994788c1.8232336,.3570893,3.3078411,.1529343,3.9240122,.0381178v-.0381178h2.6475303c.8753851,.2376404,1.9086677,.3699276,3.0570315,.2125595,.337501-.0462575,.667317-.1223607,.9923854-.2125595h5.4830685v-4.978736Z" fill="#aa8f6d"/>
    <path d="M63.1009477,7.5774717c.3358139,.7948596,2.5647804,6.3220826-.5192678,11.3272144-.4749501,.7707708-3.1107461,5.0484845-7.4801509,4.9947135-3.9445981-.048535-6.3749601-3.5912537-7.0267879-4.5413862-2.6302563-3.8340898-2.5113847-8.8517663-.6863885-12.5909483,.4225551-.865768,3.1091378-6.370296,7.7131763-6.3705819,4.9655496-.0003038,7.6704312,6.4022477,7.9994187,7.1809885Z" fill="#c0a278"/>
    <path d="M49.7276573,19.8404376c-.6728183,2.8641927,1.7252921,5.6412142,2.3083748,5.4561842,.5545936-.1759969-.7271162-2.9700919,.6295718-6.2956022,.8355467-2.0481019,2.1034587-2.9045439,1.8886823-3.1477763-.3353503-.3797549-4.1095054,.9343816-4.8266289,3.9871943Z" fill="#242930"/>
    <path d="M60.8719327,19.8894065c.6728183,2.8641927-1.7252921,5.6411976-2.3083748,5.4561676-.5545936-.1759969,.7271162-2.9700754-.6295718-6.2955857-.8355467-2.0481019-2.1034587-2.9045605-1.8886823-3.1477928,.3353503-.3797549,4.1095054,.9343816,4.8266289,3.9872109Z" fill="#242930"/>
    <path d="M62.2906658,50.4425173c1.2732375,0,1.236846-3.2522205-.0567677-3.2522205-1.2732375,0-1.236846,3.2522205,.0567677,3.2522205h0Z" fill="#777471"/>
    <path d="M65.2286028,52.6459701c.6885877,0,.6706277-3.2522205-.0567677-3.2522205-.6885877,0-.6706277,3.2522205,.0567677,3.2522205h0Z" fill="#777471"/>
    <path d="M67.8517609,50.4425173c1.1492912,0,1.1169502-3.2522205-.0567677-3.2522205-1.1492912,0-1.1169502,3.2522205,.0567677,3.2522205h0Z" fill="#777471"/>
    <path d="M69.9502873,52.0164121c1.4142124,0,1.373408-3.2522205-.0567677-3.2522205-1.4142124,0-1.373408,3.2522205,.0567677,3.2522205h0Z" fill="#777471"/>
    <path d="M68.6911714,55.6888334c1.5310924,0,1.4868653-3.2522205-.0567677-3.2522205-1.5310924,0-1.4868653,3.2522205,.0567677,3.2522205h0Z" fill="#777471"/>
    <path d="M66.3827924,58.836623c.7504232,0,.7307792-3.2522205-.0567677-3.2522205-.7504232,0-.7307792,3.2522205,.0567677,3.2522205h0Z" fill="#777471"/>
    <path d="M62.3955922,55.1642018c.9530271,0,.9271589-3.2522205-.0567677-3.2522205-.9530271,0-.9271589,3.2522205,.0567677,3.2522205h0Z" fill="#777471"/>
    <path d="M67.5369819,57.8922861c1.0744564,0,1.0445946-3.2522205-.0567677-3.2522205-1.0744564,0-1.0445946,3.2522205,.0567677,3.2522205h0Z" fill="#777471"/>
    <path d="M63.654708,54.7444965c1.1866853,0,1.1531116-3.2522205-.0567677-3.2522205-1.1866853,0-1.1531116,3.2522205,.0567677,3.2522205h0Z" fill="#777471"/>
    <path d="M66.592645,52.4361174c.847261,0,.8247469-3.2522205-.0567677-3.2522205-.847261,0-.8247469,3.2522205,.0567677,3.2522205h0Z" fill="#777471"/>
    <path d="M70.4749189,55.4789807c1.1979547,0,1.1640109-3.2522205-.0567677-3.2522205-1.1979547,0-1.1640109,3.2522205,.0567677,3.2522205h0Z" fill="#777471"/>
    <path d="M69.2158031,59.466181c.8367718,0,.8145797-3.2522205-.0567677-3.2522205-.8367718,0-.8145797,3.2522205,.0567677,3.2522205h0Z" fill="#777471"/>
    <path d="M60.716771,49.8129594c.957362,0,.9313531-3.2522205-.0567677-3.2522205-.957362,0-.9313531,3.2522205,.0567677,3.2522205h0Z" fill="#777471"/>
    <path d="M64.8088976,58.9415493c1.2640103,0,1.2279161-3.2522205-.0567677-3.2522205-1.2640103,0-1.2279161,3.2522205,.0567677,3.2522205h0Z" fill="#777471"/>
    <path d="M63.2350027,59.0464757c1.3477375,0,1.3089808-3.2522205-.0567677-3.2522205-1.3477375,0-1.3089808,3.2522205,.0567677,3.2522205h0Z" fill="#777471"/>
    <path d="M61.8709606,61.0400758c.7382418,0,.71894-3.2522205-.0567677-3.2522205-.7382418,0-.71894,3.2522205,.0567677,3.2522205h0Z" fill="#777471"/>
    <path d="M71.2094032,49.4981804c1.1806805,0,1.1473043-3.2522205-.0567677-3.2522205-1.1806805,0-1.1473043,3.2522205,.0567677,3.2522205h0Z" fill="#777471"/>
    <path d="M69.6355083,48.0292119c1.1090313,0,1.0780232-3.2522205-.0567677-3.2522205-1.1090313,0-1.0780232,3.2522205,.0567677,3.2522205h0Z" fill="#777471"/>
    <path d="M67.4320556,61.77456c.6204999,0,.6042176-3.2522205-.0567677-3.2522205-.6204999,0-.6042176,3.2522205,.0567677,3.2522205h0Z" fill="#777471"/>
    <path d="M34.666652,161.5072644c3.1477928-.279795,6.2955857-.55959,9.4433785-.839385,.6643807-.8836571,1.6198396-2.1796612,2.7280673-3.7773646,1.393019-2.0082636,2.9823842-3.8165743,3.5675184-5.4561676,1.6728471-4.6872939,2.387125-8.597409,2.7280673-11.3320278,.2008462-1.6109057,.3437547-4.2916898,.6295718-9.6532248,.1809932-3.3952605,.2691075-5.0930231,.4196925-8.3941142,.2378059-5.2128029,1.4881149-18.953397,1.8886823-23.9231991,.3398503-4.2164138,.7286052-10.3128077,.839418-17.8374928-6.0507651-.3497437-12.1014971-.6995205-18.1522621-1.0492643-.6713293,3.0906162-1.5492952,7.4038465-2.4132979,12.5911714-1.1576286,6.9502715-.7233111,6.0624122-1.8886823,13.4305563-1.5332143,9.6938903-2.7280673,14.0318707-2.7280673,23.1887373v.0002978c-.0039044,.0708752-.6701381,12.2451335,.7279765,21.9182113,.2800266,1.9373884,.636024,3.8932731,.6360571,3.8933724,.5703106,3.1314803,1.1732463,5.6595286,1.5738799,7.2398938Z" fill="#161513"/>
    <path d="M46.943054,118.8022644c-1.1649742,1.0762975-3.2331608,2.8329242-6.2955857,4.092134-2.8381853,1.1670257-7.1548898,2.1636464-8.0793449,.7344618-.4646595-.7183478,.0596252-1.845469-.1049231-1.8886492-.2035925-.0534377-1.2736032,1.6022697-.9443412,2.7280673,.6807595,2.327566,7.7148768,3.6633091,12.8010176,1.6788361,9.3940769-3.6653275,11.3363292-18.3425201,10.8074122-18.5719546-.344582-.14946-2.1516023,5.6536719-8.1842349,11.2271046Z" fill="#1c1b1a"/>
    <path d="M50.8253087,123.1042447c-2.3307425,4.6024885-3.9810234,6.6718332-5.770937,8.2891911-1.610244,1.4549935-2.8294499,2.5566697-4.8266289,2.9379135-2.9730202,.5675312-6.589741-.6676565-7.9743887-3.0428697-.5057552-.8675431-.5428142-1.5939976-.7344949-1.5738799-.4766044,.0499965-1.4336515,4.6646284,.4197256,7.7645424,2.3592978,3.946049,8.9811014,4.949883,13.2207101,3.1477928,10.0638841-4.2777265,10.1058732-25.8120469,9.343551-25.994132-.2818134-.0673017-.7838296,2.7573174-3.6775371,8.4714417Z" fill="#1c1b1a"/>
    <path d="M47.9923183,117.7530002c-.1414196-.1661696-3.7608536,4.5594075-9.7581479,5.5610908-2.7756152,.4636007-5.6250174,.0572097-5.666047,.4197256-.0253788,.2241735,1.0787129,.5769613,1.9936054,.7344618,.5717665,.0984378,3.1455759,.4746191,7.34485-1.7837261,3.8354016-2.0626608,6.1965523-4.8013494,6.0857394-4.931552Z" fill="#11100f"/>
    <path d="M45.1592948,131.1835565c.1010849,.1463828-2.3021873,3.2305468-5.8758932,3.4625953-4.2587338,.2765192-7.3757545-3.679357-7.2398938-3.8822878,.1351989-.2019712,3.5093822,3.2899734,7.8694656,2.8330235,3.1461053-.3297253,5.1569829-2.5426733,5.2463214-2.413331Z" fill="#11100f"/>
    <path d="M31.7287385,133.1771619c-.1840704,.2291037,3.428415,5.6757749,8.6039274,5.7709701,7.0647572,.1299379,11.0959425-9.8210157,10.9123684-9.9680272-.1745079-.1397321-4.4440947,8.350934-10.9123684,8.4990374-4.8476069,.1110114-8.4279305-4.521025-8.6039274-4.3019802Z" fill="#1e1d1c"/>
    <path d="M32.987849,113.9756686c-.4560896-.0143934-2.0086937,4.5650325-.4197256,6.0857064,2.1906134,2.0964771,10.4643192-1.7501745,15.8438873-7.2399268,6.8888596-7.0299483,8.5494309-16.262521,7.8694656-16.5783492-.5842408-.2713575-2.8455309,6.0640666-9.863071,13.115787-4.2691566,4.2899361-10.4633596,9.0102191-12.4862152,7.5546962-1.0552864-.7593112-.63116-2.9280201-.9443412-2.9379135Z" fill="#1c1b1a"/>
    <path d="M44.9494486,110.7229526c.0514193,.0588642-1.6611669,1.9115133-4.7217058,3.8822547-2.4959195,1.6071337-4.4405211,2.8255786-5.8758601,2.0985286-.9466904-.4795162-1.5007877-1.7187075-1.2591105-1.9936054,.2489567-.28317,1.2836621,.523656,2.3083748,.839418,4.1088105,1.2660922,9.4558528-4.9324123,9.5483016-4.8265958Z" fill="#11100f"/>
    <path d="M32.3582772,117.2283846c-.288398,.31874,.1950888,1.473556,.9443412,1.9935724,.6595498,.4577772,2.0274879,.7723811,5.8758601-1.3640336,6.0590041-3.3636612,9.6270519-8.0068153,9.4433785-8.1842349-.2847582-.2750634-9.7724751,10.0085273-14.2699744,8.0793118-.4640308-.1990594-1.6785383-.8728373-1.9936054-.5246156Z" fill="#1e1d1c"/>
    <path d="M35.7159163,125.5175426c.0326913,.4231998,4.4194108,1.4564825,8.3941142-.6295387,3.8776223-2.0350651,5.5867673-6.1066844,5.3512445-6.2955857-.1616365-.1296401-1.229695,1.5766593-3.5150403,3.252716-4.947633,3.6285995-10.2665502,3.2035467-10.2303185,3.6724084Z" fill="#1e1d1c"/>
    <path d="M33.3026184,112.6116019c-.0388788,.2499493,3.168837,1.5159753,6.2955857,1.2591105,7.3299271-.6021416,11.6535141-9.3630731,11.3320278-9.6531917-.3286003-.2965377-5.5853776,8.1881063-13.6404026,8.4990043-1.8883845,.0728936-3.9564718-.3024605-3.9872109-.1049231Z" fill="#1c1b1a"/>
    <path d="M54.1829478,124.7830477c.3826335,.0446031,1.9073111,25.0405592-8.1842349,29.5892461-3.3968488,1.5310967-8.1036648,.7427339-11.1222146-1.6788361-3.8322913-3.0743698-4.0941855-8.0999589-4.197024-10.0729172-.0839451-1.6104756-.0439082-5.4305573,1.0492643-5.6660139,1.9453957-.4190307,3.5451838,11.3072446,8.3940812,11.9615996,4.5628156,.6157409,9.7871333-8.8715128,11.9615996-14.6896999,2.1141793-5.6568484,1.9491016-9.460783,2.0985286-9.4433785Z" fill="#1c1b1a"/>
    <path d="M36.1356419,144.5092228c-.2686442,.2462434,1.5313283,4.6066246,4.8265958,4.8265958,3.9536924,.2639126,6.0961954-5.6970177,5.8758601-5.8758601-.1931366-.1567725-2.3817316,3.9828763-5.6660139,3.9871778-2.873656,.0037721-4.7932759-3.1607966-5.0364421-2.9379135Z" fill="#11100f"/>
    <path d="M49.5661982,147.0274438c.388424,.3954387-2.7310121,6.9617201-7.9743887,7.1350037-6.0399783,.1996219-9.4081725-8.2652352-9.023686-8.6039605,.3411408-.3005414,3.7927838,5.6586683,9.023686,5.6660139,4.5768451,.0064191,7.629906-4.5477604,7.9743887-4.1970571Z" fill="#1e1d1c"/>
    <path d="M76.2766927,162.0319131c-3.1477928-.279795-6.2955857-.55959-9.4433785-.839385-.6643807-.8836571-1.6198396-2.1796612-2.7280673-3.7773646-1.393019-2.0082636-2.9823842-3.8165743-3.5675184-5.4561676-1.6728471-4.6872939-2.387125-8.597409-2.7280673-11.3320278-.2008462-1.6109057-.3437547-4.2916898-.6295718-9.6532248-.1809932-3.3952605-.2691075-5.0930231-.4196925-8.3941142-.2378059-5.2128029-1.4881149-18.953397-1.8886823-23.9231991-.3398503-4.2164138-.7286052-10.3128077-.839418-17.8374928,6.0507651-.3497437,12.1014971-.6995205,18.1522621-1.0492643,.6713293,3.0906162,1.5492952,7.4038465,2.4132979,12.5911714,.8153959,4.8954527,.8409732,5.9022977,1.1920735,8.6444275,.201508,1.573913,.3945123,3.0454837,.6966088,4.7861288,.3128833,1.8027188,.573454,2.9088289,.780223,3.8822878,.9383522,4.4178225,.7383332,5.963478,1.6807883,12.4667592,.168916,1.1655367,.4420602,2.9563768,.8374327,5.1608542,.1157099,.6971382,.2724163,1.7109979,.4196925,2.9379466,.5271965,4.3917489,1.0037016,8.3614561,.2098462,12.8009845-.4990052,2.7906042-1.0333157,3.1572892-1.927892,7.8584141-.3118907,1.6390308-.5136303,2.9959835-.6360571,3.8933724-.5703106,3.1314803-1.1732463,5.6595286-1.5738799,7.2398938Z" fill="#161513"/>
    <path d="M64.0003053,119.3269099c1.1649742,1.0762975,3.2331608,2.8329242,6.2955857,4.092134,2.8381853,1.1670257,7.1548898,2.1636464,8.0793449,.7344618,.4646595-.7183478-.0596252-1.845469,.1049231-1.8886492,.2035925-.0534377,1.2736032,1.6022697,.9443412,2.7280673-.6807595,2.327566-7.7148768,3.6633091-12.8010176,1.6788361-9.3940769-3.6653275-11.3363292-18.3425201-10.8074122-18.5719546,.344582-.14946,2.1516023,5.6536719,8.1842349,11.2271046Z" fill="#1c1b1a"/>
    <path d="M60.1180506,123.6288902c2.3307425,4.6024885,3.9810234,6.6718332,5.770937,8.2891911,1.610244,1.4549935,2.8294499,2.5566697,4.8266289,2.9379135,2.9730202,.5675312,6.589741-.6676565,7.9743887-3.0428697,.5057552-.8675431,.5428142-1.5939976,.7344949-1.5738799,.4766044,.0499965,1.4336515,4.6646284-.4197256,7.7645424-2.3592978,3.946049-8.9811014,4.949883-13.2207101,3.1477928-10.0638841-4.2777265-10.1058732-25.8120469-9.343551-25.994132,.2818134-.0673017,.7838296,2.7573174,3.6775371,8.4714417Z" fill="#1c1b1a"/>
    <path d="M62.951041,118.2776456c.1414196-.1661696,3.7608536,4.5594075,9.7581479,5.5610908,2.7756152,.4636007,5.6250174,.0572097,5.666047,.4197256,.0253788,.2241735-1.0787129,.5769613-1.9936054,.7344618-.5717665,.0984378-3.1455759,.4746191-7.34485-1.7837261-3.8354016-2.0626608-6.1965523-4.8013494-6.0857394-4.931552Z" fill="#11100f"/>
    <path d="M65.7840645,131.708202c-.1010849,.1463828,2.3021873,3.2305468,5.8758932,3.4625953,4.2587338,.2765192,7.3757545-3.679357,7.2398938-3.8822878-.1351989-.2019712-3.5093822,3.2899734-7.8694656,2.8330235-3.1461053-.3297253-5.1569829-2.5426733-5.2463214-2.413331Z" fill="#11100f"/>
    <path d="M79.2146208,133.7018074c.1840704,.2291037-3.428415,5.6757749-8.6039274,5.7709701-7.0647572,.1299379-11.0959425-9.8210157-10.9123684-9.9680272,.1745079-.1397321,4.4440947,8.350934,10.9123684,8.4990374,4.8476069,.1110114,8.4279305-4.521025,8.6039274-4.3019802Z" fill="#1e1d1c"/>
    <path d="M77.9554957,114.5003173c.4560896-.0143934,2.0086937,4.5650325,.4197256,6.0857064-2.1688082,2.0755983-10.6142755-1.6700346-15.8438873-7.2399268-8.9777594-9.5619671-7.7236122-23.6963786-7.0892756-23.818276,.5677297-.1091253,.7353883,10.9885708,9.0828811,20.3557138,4.2569139,4.7768972,10.5227201,8.9675021,12.4862152,7.5546962,1.0552864-.7593112,.63116-2.9280201,.9443412-2.9379135Z" fill="#1c1b1a"/>
    <path d="M65.9939107,111.2475981c-.0514193,.0588642,1.6611669,1.9115133,4.7217058,3.8822547,2.4959195,1.6071337,4.4405211,2.8255786,5.8758601,2.0985286,.9466904-.4795162,1.5007877-1.7187075,1.2591105-1.9936054-.2489567-.28317-1.2836621,.523656-2.3083748,.839418-4.1088105,1.2660922-9.4558528-4.9324123-9.5483016-4.8265958Z" fill="#11100f"/>
    <path d="M78.5850821,117.7530301c.288398,.31874-.1950888,1.473556-.9443412,1.9935724-.6595498,.4577772-2.0274879,.7723811-5.8758601-1.3640336-6.0590041-3.3636612-9.6270519-8.0068153-9.4433785-8.1842349,.2847582-.2750634,9.7724751,10.0085273,14.2699744,8.0793118,.4640308-.1990594,1.6785383-.8728373,1.9936054-.5246156Z" fill="#1e1d1c"/>
    <path d="M75.227443,126.0421881c-.0326913,.4231998-4.4194108,1.4564825-8.3941142-.6295387-3.8776223-2.0350651-5.5867673-6.1066844-5.3512445-6.2955857,.1616365-.1296401,1.229695,1.5766593,3.5150403,3.252716,4.947633,3.6285995,10.2665502,3.2035467,10.2303185,3.6724084Z" fill="#1e1d1c"/>
    <path d="M77.640741,113.1362474c.0388788,.2499493-3.168837,1.5159753-6.2955857,1.2591105-7.3299271-.6021416-11.6535141-9.3630731-11.3320278-9.6531917,.3286003-.2965377,5.5853776,8.1881063,13.6404026,8.4990043,1.8883845,.0728936,3.9564718-.3024605,3.9872109-.1049231Z" fill="#1c1b1a"/>
    <path d="M56.7012019,123.3140909c-.2045852,.0182317-2.3223381,26.9001238,8.24343,31.5828515,3.3677641,1.4925818,8.0857971,.7570612,11.1222146-1.6788361,3.8322913-3.0743698,4.0941855-8.0999589,4.197024-10.0729172,.0839451-1.6104756,.0439082-5.4305573-1.0492643-5.6660139-1.9453957-.4190307-3.5451838,11.3072446-8.3940812,11.9615996-4.554709,.614649-9.7635413-8.7414094-11.9615996-14.6896999-2.4441362-6.6142264-2.0709991-11.4447266-2.1577236-11.436984Z" fill="#1c1b1a"/>
    <path d="M74.8077175,145.0338683c.2686442,.2462434-1.5313283,4.6066246-4.8265958,4.8265958-3.9536924,.2639126-6.0961954-5.6970177-5.8758601-5.8758601,.1931366-.1567725,2.3817316,3.9828763,5.6660139,3.9871778,2.873656,.0037721,4.7932759-3.1607966,5.0364421-2.9379135Z" fill="#11100f"/>
    <path d="M61.3771611,147.5520893c-.388424,.3954387,2.7310121,6.9617201,7.9743887,7.1350037,6.0399783,.1996219,9.4081725-8.2652352,9.023686-8.6039605-.3411408-.3005414-3.7927838,5.6586683-9.023686,5.6660139-4.5768451,.0064191-7.629906-4.5477604-7.9743887-4.1970571Z" fill="#1e1d1c"/>
    <path d="M47.4676696,100.2302768c-1.6991192,5.9023308-3.0607374,8.6614018-2.7280673,8.8138398,.55509,.2543501,5.6895728-6.8125579,7.3448169-16.1586567,1.24207-7.0130732,.2251661-13.6160165-.4196925-13.6404356-.7301273-.0276288-.5721635,8.393287-4.1970571,20.9852525Z" fill="#1c1b1a"/>
    <path d="M47.6775159,96.2431086c-2.9391709,6.5137371-7.1642207,11.8812942-7.7645424,11.5419071-.5907261-.3339606,2.1944517-6.2695452,5.4561676-13.2207432,2.9755019-6.3411814,5.1171445-10.9053867,5.6660139-10.702489,.6118034,.2261919-.6632226,6.4100052-3.3576391,12.3813251Z" fill="#1c1b1a"/>
    <path d="M45.1592948,92.8854599c4.8117061-4.929269,6.2918467-11.1221815,5.8758601-11.3320278-.395902-.1997212-2.3607206,5.095207-8.1842349,11.1221815-3.3519148,3.4690475-6.0609232,5.192222-5.8758932,5.4561676,.2234125,.3186738,4.6031834-1.5777512,8.184268-5.2463214Z" fill="#1c1b1a"/>
    <g>
      <path d="M72.0765327,79.5598171H38.8149113c-.0547612-2.5547837-.090265-5.1432181-.1049231-7.7645424-.0192905-3.4491283-.0018199-6.8423705,.0488053-10.1778404,4.9766845,.5420532,10.4936685,.9082418,16.473426,.9443081,5.934625,.0358016,11.416767-.2590817,16.368536-.7344618,.1415519,.3334643,.3402143,.8389217,.5246156,1.4689568,.9179036,3.1363443,.4151263,5.7158449,.1610409,7.5546962-.2815156,2.037249-.503803,4.9455153-.2098793,8.7088836Z" fill="#230908"/>
      <path d="M72.4401405,79.6647402c-4.9471697,.6365865-10.6216211,1.0738158-16.8931516,1.0492643-6.1891736-.0242207-11.7915255-.4936118-16.6832723-1.1541874-.1986624-.7345611-.3857769-1.6972001-.4196925-2.8329904-.0380847-1.2747944,.129243-2.3517867,.3147694-3.1477928,11.1921303,.4196925,22.3842936,.839418,33.5764239,1.2591105,.1396328,.5291487,.2626221,1.1647757,.3148024,1.8886823,.0853017,1.1831066-.0481104,2.1913744-.2098793,2.9379135Z" fill="#33120c"/>
      <path d="M72.4401245,70.4312356c-6.0984123,.4090711-13.0904413,.4634353-20.7754063-.2098462-4.6780954-.4098322-9.0269949-1.0379812-13.0108638-1.7837592-.0938716-1.0013855-.1431071-2.1278448-.1049231-3.3576391,.0293494-.9449368,.1063128-1.8224395,.2098462-2.6231772,4.029961,1.5894314,10.5228194,3.565136,18.6768777,3.5675184,6.1209785,.0017868,11.1954391-1.1089556,14.794623-2.2034517,.2563684,.8901094,.50827,2.1089845,.5246487,3.5674853,.0135331,1.2054081-.1376144,2.2397496-.3148024,3.0428697Z" fill="#33120c"/>
      <path d="M72.2302782,74.5233697c-5.5980173,.7423038-11.6279368,1.3339233-18.047339,1.678803-5.4155021,.2909458-10.5677533,.3772071-15.4241618,.3147694-.2767509-.7585832-.5999247-1.9172706-.6295387-3.3576391-.0271324-1.3200923,.2019712-2.4057869,.4196925-3.1477928,4.3403296,.5837114,9.5095883,.9552934,15.3192386,.7344949,7.1983348-.2735744,13.4091813-1.3816697,18.3621084-2.6231442,.3027914,.7239728,.7490869,2.0708667,.6295718,3.7773316-.0780885,1.1150439-.3718137,2.0127636-.6295718,2.6231772Z" fill="#2d0f0b"/>
    </g>
    <path d="M62.577062,92.8854599c4.3764952,9.45443,10.7820334,13.4885602,10.2827635,14.0601281-.5962518,.6826124-10.6734706-3.9935969-14.0601281-13.4305563-2.1479625-5.9852833-1.0327863-12.2922182-.2098462-12.3813251,.7545134-.0816951,.9089697,5.1019239,3.9872109,11.7517533Z" fill="#1c1b1a"/>
    <path d="M65.9347011,93.9347242c3.9246739,2.9234208,8.0041351,2.8069168,7.9743887,2.9379466-.0476803,.2099786-10.4660398,.2474677-14.2699744-5.7709701-2.1446206-3.3931429-1.5449276-7.6956194-.839385-7.8694656,.913569-.2251331,1.5921777,6.5737263,7.1349706,10.702489Z" fill="#1c1b1a"/>
    <path d="M74.958353,95.2987738c4.113112,7.9910321,2.847086,16.9850048,1.8886823,17.1029978-.8218481,.1011841-1.0865879-6.3650712-5.6660139-17.1029978-2.1280764-4.9899861-3.8424825-7.7476012-3.3576391-8.0793449,.6214321-.4251851,4.6591027,3.269194,7.1349706,8.0793449Z" fill="#161513"/>
    <path d="M35.9257625,101.6992666c-.9760729,7.2390996-1.1830404,9.875413-1.4689568,9.863071-.4100969-.0177023-.8562931-5.4796935-.2098462-11.3320278,.8395835-7.6009206,3.3123742-13.9606977,3.7773316-13.8502819,.342365,.081298-.5240862,3.6420995-2.0985286,15.3192386Z" fill="#161513"/>
    <path d="M74.7485078,88.4785565c.4685309,2.6119603,1.1813198,8.1316576,.2098462,8.3941142-.8564916,.2313867-3.0294359-3.6214524-3.7773316-7.6596193-.7693039-4.1536783-.0537024-8.6268245,.839418-8.7088836,1.0042641-.0922834,2.2599666,5.36491,2.7280673,7.9743887Z" fill="#161513"/>
    <path d="M44.5581175,57.3676545c1.410249,0,1.3695648-3.2522205-.0567677-3.2522205-1.410249,0-1.3695648,3.2522205,.0567677,3.2522205h0Z" fill="#777471"/>
    <path d="M45.8172334,54.4297175c.9828621,0,.9560216-3.2522205-.0567677-3.2522205-.9828621,0-.9560216,3.2522205,.0567677,3.2522205h0Z" fill="#777471"/>
    <path d="M43.089149,56.7380966c1.4204737,0,1.3794799-3.2522205-.0567677-3.2522205-1.4204737,0-1.3794799,3.2522205,.0567677,3.2522205h0Z" fill="#777471"/>
    <path d="M46.2369387,58.6267704c1.4648781,0,1.42256-3.2522205-.0567677-3.2522205-1.4648781,0-1.42256,3.2522205,.0567677,3.2522205h0Z" fill="#777471"/>
    <path d="M41.6201805,52.1213385c1.3635133,0,1.3242647-3.2522205-.0567677-3.2522205-1.3635133,0-1.3242647,3.2522205,.0567677,3.2522205h0Z" fill="#777471"/>
    <path d="M43.089149,50.65237c1.0050389,0,.9774708-3.2522205-.0567677-3.2522205-1.0050389,0-.9774708,3.2522205,.0567677,3.2522205h0Z" fill="#777471"/>
    <path d="M40.151212,50.2326647c1.1937386,0,1.1599332-3.2522205-.0567677-3.2522205-1.1937386,0-1.1599332,3.2522205,.0567677,3.2522205h0Z" fill="#777471"/>
    <path d="M44.5581175,50.65237c.6399256,0,.623186-3.2522205-.0567677-3.2522205-.6399256,0-.623186,3.2522205,.0567677,3.2522205h0Z" fill="#777471"/>
    <path d="M41.6201805,58.6267704c.6212675,0,.6049675-3.2522205-.0567677-3.2522205-.6212675,0-.6049675,3.2522205,.0567677,3.2522205h0Z" fill="#777471"/>
    <path d="M47.7059072,56.3183913c1.1037727,0,1.072939-3.2522205-.0567677-3.2522205-1.1037727,0-1.072939,3.2522205,.0567677,3.2522205h0Z" fill="#777471"/>
    <path d="M40.5709173,54.8494228c1.3910714,0,1.3509723-3.2522205-.0567677-3.2522205-1.3910714,0-1.3509723,3.2522205,.0567677,3.2522205h0Z" fill="#777471"/>
    <path d="M43.718707,61.1450021c.7617314,0,.7417654-3.2522205-.0567677-3.2522205-.7617314,0-.7417654,3.2522205,.0567677,3.2522205h0Z" fill="#777471"/>
    <path d="M47.0763493,61.77456c.651889,0,.6348589-3.2522205-.0567677-3.2522205-.651889,0-.6348589,3.2522205,.0567677,3.2522205h0Z" fill="#777471"/>
    <path d="M48.3354651,60.3055915c1.1969913,0,1.1630791-3.2522205-.0567677-3.2522205-1.1969913,0-1.1630791,3.2522205,.0567677,3.2522205h0Z" fill="#777471"/>
    <path d="M49.594581,55.898686c.9527442,0,.9268852-3.2522205-.0567677-3.2522205-.9527442,0-.9268852,3.2522205,.0567677,3.2522205h0Z" fill="#777471"/>
    <path d="M47.4960545,52.3311911c1.486954,0,1.4439904-3.2522205-.0567677-3.2522205-1.486954,0-1.4439904,3.2522205,.0567677,3.2522205h0Z" fill="#777471"/>
    <path d="M49.1748757,50.022812c.8914946,0,.8675992-3.2522205-.0567677-3.2522205-.8914946,0-.8675992,3.2522205,.0567677,3.2522205h0Z" fill="#777471"/>
    <path d="M60.5069184,57.9972125c.8204361,0,.7987407-3.2522205-.0567677-3.2522205-.8204361,0-.7987407,3.2522205,.0567677,3.2522205h0Z" fill="#777471"/>
    <path d="M64.4941186,62.1942653c.6412561,0,.6244845-3.2522205-.0567677-3.2522205-.6412561,0-.6244845,3.2522205,.0567677,3.2522205h0Z" fill="#777471"/>
    <path d="M50.4339915,59.2563283c1.2969889,0,1.2598363-3.2522205-.0567677-3.2522205-1.2969889,0-1.2598363,3.2522205,.0567677,3.2522205h0Z" fill="#777471"/>
    <path d="M50.6438442,52.960749c1.1027327,0,1.0719334-3.2522205-.0567677-3.2522205-1.1027327,0-1.0719334,3.2522205,.0567677,3.2522205h0Z" fill="#777471"/>
    <path d="M60.716771,53.1706017c1.5129084,0,1.4691974-3.2522205-.0567677-3.2522205-1.5129084,0-1.4691974,3.2522205,.0567677,3.2522205h0Z" fill="#777471"/>
    <path d="M59.2478025,55.6888334c.8823967,0,.8587883-3.2522205-.0567677-3.2522205-.8823967,0-.8587883,3.2522205,.0567677,3.2522205h0Z" fill="#777471"/>
    <path d="M58.8280972,49.8129594c1.2601666,0,1.2241965-3.2522205-.0567677-3.2522205-1.2601666,0-1.2241965,3.2522205,.0567677,3.2522205h0Z" fill="#777471"/>
    <path d="M50.6174588,83.1588476v15.1439381c-2.741847-1.0441505-5.4752488-2.0967462-8.2170958-3.1493419v-11.9945963h8.2170958Z" fill="#8e8883"/>
    <path d="M42.4003629,114.3464766c2.741847,.5093556,5.4752488,1.0101623,8.2170958,1.5025239v17.2576266c0,4.5329591-3.6756397,8.2170958-8.2170958,8.2170958v-26.9772463Z" fill="#8e8883"/>
    <path d="M45.710993,82.0128882h-1.663812c-.5093038-2.6060499-.9167986-5.7044614-.9846713-9.2018189-.1018608-4.4905258,.3735067-8.3953781,.9846713-11.5022348,.9083016,1.0356534,1.8166032,2.062758,2.7249048,3.0984115-1.3582298,4.2783072-1.655315,11.120231-1.0610927,17.6056422Z" fill="#302521" stroke="#261e1b" stroke-miterlimit="10" stroke-width=".6366556"/>
    <path d="M50.6174588,98.3027857v17.5462148c-1.4261024-.2546519-2.8437078-.5178008-4.2698102-.7809497v-18.403586c1.4261024,.5517371,2.8437078,1.095029,4.2698102,1.6383209Z" fill="#999490"/>
    <path d="M46.3476486,96.6644648v18.403586c-1.3157964-.2377096-2.631541-.4753675-3.9472857-.7215741v-19.1930327c1.3157446,.5093556,2.6314892,1.0101623,3.9472857,1.5110209Z" fill="#a39f9b"/>
    <path d="M48.8093526,74.1268139c-.3225763,3.0389841-.2291608,5.7214555,0,7.8860743h-3.0983597c-.5942223-6.4854112-.297137-13.327335,1.0610927-17.6056422,1.0610927,1.2138839,2.1221854,2.4277677,3.1832782,3.6331545-.4669222,1.7232395-.8998046,3.7690034-1.1460112,6.0864134Z" fill="#302521" stroke="#261e1b" stroke-miterlimit="10" stroke-width=".6366556"/>
    <path d="M49.1374209,84.8029455c-.7956382-.2591077-2.1486869-.573731-3.7788735-.3285864-3.2756057,.4925688-5.1502114,2.8661938-5.5861247,3.4502611-.6774569-.0903846-1.455842-.2412328-2.3001827-.4929055-1.116997-.3329386-2.052344-.7537748-2.7930624-1.1500784,1.3022219-1.2482088,3.3729329-2.8824884,6.2638407-3.7752726,1.8940609-.5849222,3.0777129-.5234482,5.2370211-.8250929,2.1012019-.2935362,5.1049285-.927938,8.7078253-2.46445,.0463969,.2608951,.389335,2.4006964-1.1501043,4.107434-1.8026142,1.9985381-4.4734799,1.5044409-4.6003395,1.4786907Z" fill="#84532f"/>
    <path d="M51.067931,82.7492285c-.0038081-.3025772-4.0887301-1.1802325-8.3381526,.2053536-3.2558915,1.0616367-5.5980154,3.1224519-5.4629178,3.3681145,.1291393,.2348341,2.4728952-1.2780261,6.5719358-2.3823034,4.387577-1.1819941,7.232321-.9384557,7.2291346-1.1911647Z" fill="#895634"/>
    <path d="M67.8192162,82.2100343l-3.0689116,.8396239c1.2153424,3.4973119,2.4505364,7.0078607,3.7059165,10.5312902,.4982696,1.3984808,.9977078,2.7933402,1.4982922,4.1845981-.71177-5.1851696-1.4235271-10.3703427-2.1352971-15.5555122Z" fill="#8e8883"/>
    <path d="M67.0809328,81.2339342c-.6110961,.2064627-1.2221792,.4129218-1.8332753,.6193845-1.1584462-2.9424261-2.3168759-5.8848427-3.4753222-8.8272688,1.434845-.3532866,2.8697029-.7065767,4.3045479-1.0598633,.3346844,3.0892535,.6693652,6.1784941,1.0040495,9.2677476Z" fill="#302521" stroke="#261e1b" stroke-miterlimit="10" stroke-width=".6366556"/>
    <rect x="63.0757166" y="81.3530381" width="6.4770293" height="1.4772172" transform="translate(-19.3126351 20.4097572) rotate(-15.3011234)" fill="#895634"/>
    <path d="M53.5817812,57.5075563c.9207204,0,.8958944-3.2522205-.0567677-3.2522205-.9207204,0-.8958944,3.2522205,.0567677,3.2522205h0Z" fill="#777471"/>
    <path d="M51.90296,60.3755424c1.5652538,0,1.520075-3.2522205-.0567677-3.2522205-1.5652538,0-1.520075,3.2522205,.0567677,3.2522205h0Z" fill="#777471"/>
    <path d="M60.0872131,61.8445109c1.2596003,0,1.2236485-3.2522205-.0567677-3.2522205-1.2596003,0-1.2236485,3.2522205,.0567677,3.2522205h0Z" fill="#777471"/>
    <path d="M58.6182446,59.8159354c1.4341425,0,1.3927375-3.2522205-.0567677-3.2522205-1.4341425,0-1.3927375,3.2522205,.0567677,3.2522205h0Z" fill="#777471"/>
    <path d="M39.8714085,59.8858862c1.4832887,0,1.4404316-3.2522205-.0567677-3.2522205-1.4832887,0-1.4404316,3.2522205,.0567677,3.2522205h0Z" fill="#777471"/>
    <path d="M57.0793252,52.1912893c1.0377824,0,1.0091346-3.2522205-.0567677-3.2522205-1.0377824,0-1.0091346,3.2522205,.0567677,3.2522205h0Z" fill="#777471"/>
    <path d="M52.4625671,50.3725664c.6568001,0,.6396489-3.2522205-.0567677-3.2522205-.6568001,0-.6396489,3.2522205,.0567677,3.2522205h0Z" fill="#777471"/>
    <g>
      <path d="M31.3890233,92.2615168c1.3888168,4.3053553,1.292447,9.2002123,.4197007,9.3734298-.8227002,.1632579-2.4058365-3.8551222-3.0778441-7.1350037-.6173457-3.0130571-.7555391-6.8172233,0-6.9950731,.6854911-.1613718,1.9913306,2.6895194,2.6581433,4.7566471Z" fill="#6d6b69"/>
      <path d="M23.9392585,93.0659605c1.0184094-.6904213,2.8803729,.5323914,2.9729044,.5945643,1.5129477,1.0164076,1.8927522,2.7621483,2.2734004,4.5118265,.3498926,1.6082587,.0855168,1.7428951,.3847346,3.7074159,.4825107,3.1679106,1.4198619,4.4583888,1.0142899,4.7566471-.5684742,.4180381-3.1988978-1.5371187-4.9665099-4.2670059-2.22754-3.4401614-3.1926772-8.2771139-1.6788195-9.3034479Z" fill="#6d6b69"/>
      <path d="M29.150589,93.2408324c.0459432,3.4519078,.8624972,4.5930583,.139914,5.1763727-1.2077243,.9749148-5.2364611-.8020613-5.8758767-3.3576391-.1481034-.5919504,.0411619-1.5604791,.4196925-3.4975697,.3470305-1.7758842,.5297112-2.6748943,.9793155-3.2177416,1.0772405-1.3006695,3.368459-1.9331861,4.3369546-1.119213,.9075304,.7627193-.050741,2.2034848,0,6.0157907Z" fill="#666360"/>
      <path d="M28.7919312,96.7082609c.3875787,3.4238029,.962127,6.3576402,1.8627065,9.6833002-2.3358772-2.511939-3.0976896-6.4841358-1.8627065-9.6833002h0Z" fill="#666"/>
      <path d="M27.138031,96.3486113c.3907373,3.4381256,.9690441,6.3882619,1.8727468,9.7281915-2.3394697-2.5282921-3.104319-6.5121685-1.8727468-9.7281915h0Z" fill="#666"/>
      <path d="M25.5237122,95.8860869c.4351056,3.1006387,1.0220965,5.6565346,1.9669526,8.6416407-2.3359301-2.0696402-3.1699871-5.7650107-1.9669526-8.6416407h0Z" fill="#666"/>
      <path d="M24.2759705,92.20054c.0825089,3.1299424,.377324,5.7357661,.9792836,8.8083995-2.0874657-2.3200223-2.4992043-6.0858696-.9792836-8.8083995h0Z" fill="#666"/>
      <path d="M23.0548293,90.2273413c2.14515-1.0725916,4.2903001-2.14515,6.4354501-3.2177416,1.9586311-6.3422072,3.9172621-12.6844474,5.8758932-19.0266545-1.5765269-.4054976-3.2645947-.9093999-5.0364752-1.5389055-2.3438124-.8327011-4.4451866-1.7468326-6.2955857-2.6581516-.5078729,5.3696747-.8575174,11.0689093-.9792824,17.0680235-.0652833,3.2152269-.0615443,6.3415454,0,9.3734298Z" fill="#686562" stroke="#89837e" stroke-miterlimit="10" stroke-width=".5421193"/>
      <path d="M23.4745217,96.6628245c.839418-.9793155,1.678803-1.9586311,2.518221-2.9379466,1.6788361-9.4200512,3.3576391-18.8401025,5.0364752-28.2601537-2.8446706,1.4456626-5.6893412,2.891292-8.5340117,4.3369546,.3264495,8.9537042,.652866,17.9074415,.9793155,26.8611457Z" fill="#777471" stroke="#999490" stroke-miterlimit="10" stroke-width=".2710597"/>
      <path d="M23.8456438,80.0993203c1.9167379,1.3607721,2.1559562,2.9367986,2.088465,10.1280082,.6576727-7.1912096,.896891-8.7672361,1.8256807-10.1203153-.9287896-2.5351751-1.1680079-4.1112016-1.8487618-10.8603056,.0905724,6.7491041-.1486459,8.3251305-2.0653839,10.8526127Z" fill="#7c7976"/>
    </g>
    <path d="M72.5450439,50.07554c1.170105-2.0391846,3.7941895-4.1395874,5.8759155-3.4625854,1.7013855,.5533142,2.3790283,2.7563171,2.7280579,3.8822632,.9287109,2.9958496-.3953552,3.8421021,.4638672,6.8944702,.4589539,1.6304016,.8678894,1.4996033,2.1593018,4.7523804,.8873596,2.2350464,1.3131714,3.362793,1.0492249,4.0921021-.9150391,2.5281982-7.0765076,3.3488464-8.9187012,1.1542053-1.1427612-1.3613586,.2183533-2.8799744-1.0492859-5.9808044-.8204041-2.0068665-1.5834961-1.842804-2.4132996-3.7773438-.2688599-.6268616-1.7593689-4.3057861,.1049194-7.5546875Z" fill="#230908"/>
    <g>
      <path d="M80.6777808,41.434635s3.6374341,10.4926097,2.518221,14.9694949c-.9402382,.2386993-2.0644476,.634899-3.2352122,1.3115555-3.2516571,1.8793514-4.8102833,4.7362647-5.438697,6.1032101-5.1714094-7.2430371-6.7321201-13.615851-7.2749012-17.487716-.7448185-5.3130606,.3404128-6.5351122,.8856755-6.9657569,2.3872905-1.8855058,8.324364,.4213138,11.8453933,1.7893842,.2937583,.1141548,.5356009,.212361,.6995205,.2798281Z" fill="#777471"/>
      <path d="M79.550428,44.0976176s2.4855628,7.1698788,1.7207921,10.229028c-.6474726,.1671292-1.4133353,.4397109-2.2107311,.8962307-2.2770732,1.3036474-3.3846061,3.290172-3.8388759,4.2590647-3.4193819-4.9879015-4.4752639-9.3479848-4.8486327-12.0383976-.4943398-3.5621912,.1767248-4.4216608,.6051526-4.7598567,1.631983-1.2882613,5.6940397,.2900855,8.0943008,1.2227133,.2007469,.0779892,.3659901,.1450924,.4779941,.1912175Z" fill="#777471" stroke="#999490" stroke-miterlimit="10" stroke-width="1.0117723"/>
    </g>
    <g>
      <path d="M78.6391393,92.1546268c-1.3888168,4.3053553-1.292447,9.2002123-.4197007,9.3734298,.8227002,.1632579,2.4058365-3.8551222,3.0778441-7.1350037,.6173457-3.0130571,.7555391-6.8172233,0-6.9950731-.6854911-.1613718-1.9913306,2.6895194-2.6581433,4.7566471Z" fill="#6d6b69"/>
      <path d="M86.0889041,92.9590705c-1.0184094-.6904213-2.8803729,.5323914-2.9729044,.5945643-1.5129477,1.0164076-1.8927522,2.7621483-2.2734004,4.5118265-.3498926,1.6082587-.0855168,1.7428951-.3847346,3.7074159-.4825107,3.1679106-1.4198619,4.4583888-1.0142899,4.7566471,.5684742,.4180381,3.1988978-1.5371187,4.9665099-4.2670059,2.22754-3.4401614,3.1926772-8.2771139,1.6788195-9.3034479Z" fill="#6d6b69"/>
      <path d="M80.8775736,93.1339424c-.0459432,3.4519078-.8624972,4.5930583-.139914,5.1763727,1.2077243,.9749148,5.2364611-.8020613,5.8758767-3.3576391,.1481034-.5919504-.0411619-1.5604791-.4196925-3.4975697-.3470305-1.7758842-.5297112-2.6748943-.9793155-3.2177416-1.0772405-1.3006695-3.368459-1.9331861-4.3369546-1.119213-.9075304,.7627193,.050741,2.2034848,0,6.0157907Z" fill="#666360"/>
      <path d="M81.2362366,96.6013578c1.2349665,3.199132,.4732058,7.1712592-1.8625298,9.6833669,.9004195-3.3257351,1.4749176-6.259558,1.8625298-9.6833669h0Z" fill="#666"/>
      <path d="M82.8901367,96.2417387c1.2315268,3.2159131,.4667682,7.1998271-1.8725696,9.7281974,.9034969-3.3399663,1.4818434-6.290073,1.8725696-9.7281974h0Z" fill="#666"/>
      <path d="M84.5044556,95.7791838c1.2029779,2.8765911,.3690563,6.5719501-1.9667923,8.6416795,.9446741-2.9851352,1.5316545-5.54105,1.9667923-8.6416795h0Z" fill="#666"/>
      <path d="M85.7521973,92.0936369c1.5198881,2.7224537,1.1082278,6.4883507-.9791199,8.8084201,.6018076-3.0726679,.8966077-5.6785091,.9791199-8.8084201h0Z" fill="#666"/>
      <path d="M86.9733334,90.1204513c-2.14515-1.0725916-4.2903001-2.14515-6.4354501-3.2177416-1.9586311-6.3422072-3.9172621-12.6844474-5.8758932-19.0266545,1.5765269-.4054976,3.2645947-.9093999,5.0364752-1.5389055,2.3438124-.8327011,4.4451866-1.7468326,6.2955857-2.6581516,.5078729,5.3696747,.8575174,11.0689093,.9792824,17.0680235,.0652833,3.2152269,.0615443,6.3415454,0,9.3734298Z" fill="#686562" stroke="#89837e" stroke-miterlimit="10" stroke-width=".5421193"/>
      <path d="M86.5536409,96.5559345c-.839418-.9793155-1.678803-1.9586311-2.518221-2.9379466-1.6788361-9.4200512-3.3576391-18.8401025-5.0364752-28.2601537,2.8446706,1.4456626,5.6893412,2.891292,8.5340117,4.3369546-.3264495,8.9537042-.652866,17.9074415-.9793155,26.8611457Z" fill="#777471" stroke="#999490" stroke-miterlimit="10" stroke-width=".2710597"/>
      <path d="M86.1825189,79.9924303c-1.9167379,1.3607721-2.1559562,2.9367986-2.088465,10.1280082-.6576727-7.1912096-.896891-8.7672361-1.8256807-10.1203153,.9287896-2.5351751,1.1680079-4.1112016,1.8487618-10.8603056-.0905724,6.7491041,.1486459,8.3251305,2.0653839,10.8526127Z" fill="#7c7976"/>
    </g>
    <path d="M41.6967358,29.8247525c-.7535869,.9850729,5.1142658,10.6430624,13.3256332,10.2827635,8.5040668-.3731372,13.4214901-11.2237627,12.5911714-12.0665227-.6819176-.6921088-5.0296921,5.5795871-12.5911714,6.0857394-7.5628028,.5062516-12.6896754-5.1333247-13.3256332-4.3019802Z" fill="#230908"/>
    <path d="M42.3262937,34.6513633c-.7535869,.9850729,5.1142658,10.6430624,13.3256332,10.2827635,8.5040668-.3731372,13.4214901-11.2237627,12.5911714-12.0665227-.6819176-.6921088-5.0296921,5.5795871-12.5911714,6.0857394-7.5628028,.5062516-12.6896754-5.1333247-13.3256332-4.3019802Z" fill="#2d0f0b"/>
    <g>
      <g>
        <path d="M38.3041192,52.8735528c-.9036425-1.9954584-2.8876854-5.6157527-6.8552087-8.5340117-2.0453556-1.5044275-4.038928-2.396456-5.5960651-2.9379135,1.8187336-3.5908126,3.6374341-7.1816252,5.4561676-10.7724378,3.8706076-1.2124891,7.7412483-2.4249781,11.6118558-3.6374672,2.5775815,2.1434956,5.1551299,4.2869581,7.7327115,6.4304537-.479053,2.8463581-.9580728,5.6926831-1.4371258,8.5390412-3.6374341,3.6374341-7.2749012,7.2749012-10.9123353,10.9123353Z" fill="#565350"/>
        <path d="M37.8843936,47.4173852c-1.5114091-1.7093104-3.5353235-3.6915997-6.1556551-5.5960651-1.8901713-1.3737616-3.7050335-2.426798-5.314351-3.2344843,1.4209787-2.805494,2.8419242-5.610988,4.2629029-8.416482,3.0240755-.9473191,6.0481842-1.8946382,9.0722928-2.8419573,2.0138555,1.6747331,4.0276779,3.3494001,6.0415334,5.0241001-.3742622,2.2238672-.7485244,4.4476682-1.1228197,6.6715354-2.2612901,2.7977844-4.5226133,5.5955688-6.7839034,8.3933532Z" fill="#777471"/>
      </g>
      <path d="M29.0705869,37.0646729c.9793155-1.865355,1.9586311-3.7307432,2.9379466-5.5960982,2.2850475-.652866,4.5701281-1.305732,6.8551757-1.958598,1.3523865,1.2124891,2.7047731,2.424945,4.0571596,3.6374341-.279795,1.5855601-.5596231,3.171087-.839418,4.7566471-1.5389055,2.0985286-3.0778441,4.1970571-4.6167496,6.2955857-2.7980491-2.3783235-5.5960651-4.7566471-8.3941142-7.1349706Z" fill="#777471" stroke="#999490" stroke-miterlimit="10" stroke-width="1.0117723"/>
      <path d="M40.1408157,35.4628419c-2.9648181,1.2094021-3.5168384,1.6610551-4.4976852,3.7003436-.3810561-2.0392885-.9330764-2.4909415-4.4606731-3.6948097,3.5275967,.0895839,4.079617-.362069,4.4653307-3.6687327,.9761893,3.3066637,1.5282096,3.7583167,4.4930277,3.6631988Z" fill="#7c7976"/>
      <ellipse cx="43.3192319" cy="45.3579202" rx="6.995583" ry=".6555459" transform="translate(-19.3849837 43.9163499) rotate(-45)" fill="#595755"/>
    </g>
    <g>
      <polygon points="53.7250165 33.3409204 54.4039858 36.3946479 52.0988647 38.5095164 49.1147744 37.5706572 48.4358051 34.5169296 50.7409262 32.4020612 53.7250165 33.3409204" fill="#777471" stroke="#999490" stroke-miterlimit="10" stroke-width="1.0117723"/>
      <path d="M53.2600427,35.3422174c-1.3800681,.5629544-1.6370234,.7731905-2.0935895,1.7224417-.1773746-.9492512-.4343298-1.1594873-2.0763611-1.7198658,1.6420312,.0416997,1.8989865-.1685364,2.0785291-1.7077274,.4543981,1.539191,.7113534,1.7494271,2.0914215,1.7051515Z" fill="#7c7976"/>
    </g>
    <g>
      <g>
        <path d="M71.7240435,52.7666628c.9036425-1.9954584,2.8876854-5.6157527,6.8552087-8.5340117,2.0453556-1.5044275,4.038928-2.396456,5.5960651-2.9379135-1.8187336-3.5908126-3.6374341-7.1816252-5.4561676-10.7724378-3.8706076-1.2124891-7.7412483-2.4249781-11.6118558-3.6374672-2.5775815,2.1434956-5.1551299,4.2869581-7.7327115,6.4304537,.479053,2.8463581,.9580728,5.6926831,1.4371258,8.5390412,3.6374341,3.6374341,7.2749012,7.2749012,10.9123353,10.9123353Z" fill="#565350"/>
        <path d="M72.143769,47.3104952c1.5114091-1.7093104,3.5353235-3.6915997,6.1556551-5.5960651,1.8901713-1.3737616,3.7050335-2.426798,5.314351-3.2344843-1.4209787-2.805494-2.8419242-5.610988-4.2629029-8.416482-3.0240755-.9473191-6.0481842-1.8946382-9.0722928-2.8419573-2.0138555,1.6747331-4.0276779,3.3494001-6.0415334,5.0241001,.3742622,2.2238672,.7485244,4.4476682,1.1228197,6.6715354,2.2612901,2.7977844,4.5226133,5.5955688,6.7839034,8.3933532Z" fill="#777471"/>
      </g>
      <path d="M80.9575758,36.9577829c-.9793155-1.865355-1.9586311-3.7307432-2.9379466-5.5960982-2.2850475-.652866-4.5701281-1.305732-6.8551757-1.958598-1.3523865,1.2124891-2.7047731,2.424945-4.0571596,3.6374341,.279795,1.5855601,.5596231,3.171087,.839418,4.7566471,1.5389055,2.0985286,3.0778441,4.1970571,4.6167496,6.2955857,2.7980491-2.3783235,5.5960651-4.7566471,8.3941142-7.1349706Z" fill="#777471" stroke="#999490" stroke-miterlimit="10" stroke-width="1.0117723"/>
      <path d="M69.8873469,35.3559519c2.9648181,1.2094021,3.5168384,1.6610551,4.4976852,3.7003436,.3810561-2.0392885,.9330764-2.4909415,4.4606731-3.6948097-3.5275967,.0895839-4.079617-.362069-4.4653307-3.6687327-.9761893,3.3066637-1.5282096,3.7583167-4.4930277,3.6631988Z" fill="#7c7976"/>
      <ellipse cx="66.7089307" cy="45.2510302" rx=".6555459" ry="6.995583" transform="translate(-12.4587169 60.4240572) rotate(-45)" fill="#595755"/>
    </g>
    <g>
      <polygon points="61.6955887 34.1358155 61.2105757 37.226287 58.2916424 38.3514892 55.8577221 36.3862199 56.3427351 33.2957484 59.2616684 32.1705462 61.6955887 34.1358155" fill="#777471" stroke="#999490" stroke-miterlimit="10" stroke-width="1.0117723"/>
      <path d="M60.5308364,35.8283705c-1.4903483,.0191709-1.8063951,.1208552-2.5785245,.8373373,.1821153-.9483531,.0198611-1.238006-1.3034268-2.3601466,1.5130006,.6394018,1.8290473,.5377175,2.5591257-.8291511-.1400643,1.5987397,.0221899,1.8883925,1.3228256,2.3519604Z" fill="#7c7976"/>
    </g>
    <circle cx="41.6902549" cy="160.4486634" r="1.1192141" fill="#a39f9b"/>
    <g>
      <path d="M34.8764982,178.7340716c2.4482723,.0636533,4.8965777,.1273067,7.34485,.19096-.231089-3.2076891-.2318831-7.0186097,.3147694-11.2669739,.3725416-2.8952638,.9379882-5.5170651,1.573913-7.8296027-1.57656,.3681295-3.3309699,.7028365-5.2463214,.9548303-1.4463243,.1902675-2.815222,.3111306-4.092134,.3819201-.1115739,2.007941-.1841366,4.077819-.2098462,6.2064122-.0481104,3.9843563,.0727943,7.7785656,.3147694,11.3624539Z" fill="#1c1408"/>
      <path d="M33.6109686,182.8872608c2.7513946,.2150742,5.5028222,.4301484,8.2542168,.6452226,1.8486785-7.7769506,3.0363513-12.2537365,3.8187251-14.9951384,.1901256-.6661675,.6420792-2.2311797,1.0599849-4.3845356,.5404318-2.7846152,.7425685-5.103479,.8286974-6.6327228-2.5677874,.8874292-4.7882465,1.1131579-6.2955857,1.1541874-1.4102911,.0383825-3.4314923,.0755407-5.8758601-.7344949-1.3554307-.4491742-2.4165737-1.0181943-3.1477928-1.4689568,.1260335,4.2585022,.2992509,8.5964825,.5246156,13.0108638,.232611,4.5559332,.5122075,9.0254066,.8329989,13.4055746Z" fill="#686562" stroke="#89837e" stroke-miterlimit="10" stroke-width=".5421193"/>
      <path d="M41.4973243,194.3323071c-1.0757267,1.0392054-2.1740941,.4766044-8.6174109,.2939237-6.0736043-.1721917-6.9989031,.1920778-7.5020444-.5904614-1.7145715-2.6666884,5.3519807-12.925893,11.1709951-11.8323896,1.7430771,.3275745,2.903725,1.5853946,3.4718187,2.2010362,2.6683676,2.8917884,3.5147425,7.9589695,1.4766415,9.9278911Z" fill="#999490"/>
      <path d="M40.3706428,194.5042249c-.7870684,.3437728-3.1072021,.2589167-7.7153631,.0751324-4.1350917-.1648947-6.2159281-.2547391-6.867616-.616604-.1740412-.0966238-.4639371-.2525801-.5821864-.5647719-.5943738-1.5691542,4.0167837-4.4916794,4.7908612-4.9822858,1.6925913-1.0727662,2.5642138-1.6077287,3.8052223-1.5381407,1.1847259,.0664056,1.9709987,.6409406,3.3300466,1.6630821,1.5535895,1.1684647,4.6677245,3.9396071,3.9845095,5.3583814-.1665258,.3458213-.5091478,.5019996-.745474,.6052066Z" fill="#a39f9b"/>
      <path d="M42.214896,193.5354188c-2.5424417-6.7172304-5.1346152-8.7858471-7.34485-9.023686-3.7886809-.4076814-7.6151817,4.4390983-7.9743887,4.039689-.2157691-.2398904,1.2105038-1.9370906,2.4657429-3.1477928,1.5703725-1.5146518,3.1068957-2.493471,4.1970571-3.0953147,.9093337-.2022359,2.0702711-.368571,3.4165694-.3404128,2.1559368,.0450994,3.8912216,.5702444,5.0300229,1.0224296,.1495924,.5056891,.3811446,1.2722797,.6820168,2.2034517,.6561087,2.0306975,.7298626,2.0213996,.7869399,2.518221,.1017466,.8854108-.1406585,1.8264762-.6295718,3.6724415-.2379713,.8984807-.4643948,1.6368801-.6295387,2.1509736Z" fill="#8e8883"/>
      <path d="M34.8700791,172.1062531c.4551963,3.9419791,.806429,5.7105839,.6137225,7.5391116-.0466546,.442755-.0818936,1.0294113-.3338944,1.7286009-.8257526,2.291235-2.9395348,3.477452-2.8965531,3.5318823,.0446693,.0565811,1.7837261-1.9148221,4.4069034-2.4132979,1.5745416-.2992178,1.9957562,.2119639,2.8330235-.1049231,2.1279772-.8053371,1.8206196-5.0205597,2.5118019-10.1380682,1.1412829-8.4503313,4.1453731-13.1203201,2.4102207-14.3849563-.7661936-.5584319-1.4118794,.2977289-3.557989-.0297464-3.1783996-.4850089-4.0151044-2.7067584-5.1478174-2.3531433-2.2709519,.7089176-1.5387732,10.5684151-.839418,16.6245405Z" fill="#777471" stroke="#999490" stroke-miterlimit="10" stroke-width=".2710597"/>
      <circle cx="38.9621705" cy="176.6073168" r="1.1192141" fill="#a39f9b"/>
      <path d="M38.5146433,166.592211c-1.8333127,1.2416047-2.0380831,2.4958231-1.7660353,9.1850449-.7772419-6.6892218-.9820122-7.9434402-1.5989119-9.1821472,.6168997-1.8556066,.82167-3.109825,1.6104241-9.4096711-.2835601,6.2998461-.0787897,7.5540645,1.754523,9.4067734Z" fill="#7c7976"/>
    </g>
    <g>
      <path d="M75.1177372,178.2647223c-2.4482723,.0636533-4.8965777,.1273067-7.34485,.19096,.231089-3.2076891,.2318831-7.0186097-.3147694-11.2669739-.3725416-2.8952638-.9379882-5.5170651-1.573913-7.8296027,1.57656,.3681295,3.3309699,.7028365,5.2463214,.9548303,1.4463243,.1902675,2.815222,.3111306,4.092134,.3819201,.1115739,2.007941,.1841366,4.077819,.2098462,6.2064122,.0481104,3.9843563-.0727943,7.7785656-.3147694,11.3624539Z" fill="#1c1408"/>
      <path d="M76.3832669,182.4179116c-2.7513946,.2150742-5.5028222,.4301484-8.2542168,.6452226-1.8486785-7.7769506-3.0363513-12.2537365-3.8187251-14.9951384-.1901256-.6661675-.6420792-2.2311797-1.0599849-4.3845356-.5404318-2.7846152-.7425685-5.103479-.8286974-6.6327228,2.5677874,.8874292,4.7882465,1.1131579,6.2955857,1.1541874,1.4102911,.0383825,3.4314923,.0755407,5.8758601-.7344949,1.3554307-.4491742,2.4165737-1.0181943,3.1477928-1.4689568-.1260335,4.2585022-.2992509,8.5964825-.5246156,13.0108638-.232611,4.5559332-.5122075,9.0254066-.8329989,13.4055746Z" fill="#686562" stroke="#89837e" stroke-miterlimit="10" stroke-width=".5421193"/>
      <path d="M68.4969112,193.8629579c1.0757267,1.0392054,2.1740941,.4766044,8.6174109,.2939237,6.0736043-.1721917,6.9989031,.1920778,7.5020444-.5904614,1.7145715-2.6666884-5.3519807-12.925893-11.1709951-11.8323896-1.7430771,.3275745-2.903725,1.5853946-3.4718187,2.2010362-2.6683676,2.8917884-3.5147425,7.9589695-1.4766415,9.9278911Z" fill="#999490"/>
      <path d="M69.6235927,194.0348756c.7870684,.3437728,3.1072021,.2589167,7.7153631,.0751324,4.1350917-.1648947,6.2159281-.2547391,6.867616-.616604,.1740412-.0966238,.4639371-.2525801,.5821864-.5647719,.5943738-1.5691542-4.0167837-4.4916794-4.7908612-4.9822858-1.6925913-1.0727662-2.5642138-1.6077287-3.8052223-1.5381407-1.1847259,.0664056-1.9709987,.6409406-3.3300466,1.6630821-1.5535895,1.1684647-4.6677245,3.9396071-3.9845095,5.3583814,.1665258,.3458213,.5091478,.5019996,.745474,.6052066Z" fill="#a39f9b"/>
      <path d="M67.7793395,193.0660695c2.5424417-6.7172304,5.1346152-8.7858471,7.34485-9.023686,3.7886809-.4076814,7.6151817,4.4390983,7.9743887,4.039689,.2157691-.2398904-1.2105038-1.9370906-2.4657429-3.1477928-1.5703725-1.5146518-3.1068957-2.493471-4.1970571-3.0953147-.9093337-.2022359-2.0702711-.368571-3.4165694-.3404128-2.1559368,.0450994-3.8912216,.5702444-5.0300229,1.0224296-.1495924,.5056891-.3811446,1.2722797-.6820168,2.2034517-.6561087,2.0306975-.7298626,2.0213996-.7869399,2.518221-.1017466,.8854108,.1406585,1.8264762,.6295718,3.6724415,.2379713,.8984807,.4643948,1.6368801,.6295387,2.1509736Z" fill="#8e8883"/>
      <path d="M75.1241563,171.6369039c-.4551963,3.9419791-.806429,5.7105839-.6137225,7.5391116,.0466546,.442755,.0818936,1.0294113,.3338944,1.7286009,.8257526,2.291235,2.9395348,3.477452,2.8965531,3.5318823-.0446693,.0565811-1.7837261-1.9148221-4.4069034-2.4132979-1.5745416-.2992178-1.9957562,.2119639-2.8330235-.1049231-2.1279772-.8053371-1.8206196-5.0205597-2.5118019-10.1380682-1.1412829-8.4503313-4.1453731-13.1203201-2.4102207-14.3849563,.7661936-.5584319,1.4118794,.2977289,3.557989-.0297464,3.1783996-.4850089,4.0151044-2.7067584,5.1478174-2.3531433,2.2709519,.7089176,1.5387731,10.5684151,.839418,16.6245405Z" fill="#777471" stroke="#999490" stroke-miterlimit="10" stroke-width=".2710597"/>
      <circle cx="71.0320649" cy="176.1379676" r="1.1192141" fill="#a39f9b"/>
      <path d="M71.4795921,166.1228617c1.8333127,1.2416047,2.0380831,2.4958231,1.7660353,9.1850449,.7772419-6.6892218,.9820122-7.9434402,1.5989119-9.1821472-.6168997-1.8556066-.82167-3.109825-1.6104241-9.4096711,.2835601,6.2998461,.0787897,7.5540645-1.754523,9.4067734Z" fill="#7c7976"/>
    </g>
    <path d="M45.5334372,105.3126933c-.9585137,.945771-1.0755203,2.2205273-1.0287761,8.3350592-.3354141-6.1145319-.4524207-7.3892882-.8967461-8.3323187,.4443254-2.2019524,.561332-3.4767087,.9111763-9.0548209-.0611744,5.5781122,.0558322,6.8528684,1.0143459,9.0520804Z" fill="#aaa7a5"/>
    <path d="M68.2394493,87.9273719c-.403119,.5810532-.3399997,1.2503831,.2765826,4.4020011-.7655855-3.1236479-.9494957-3.7703037-1.2702167-4.2140172,.0159947-1.179637-.0471246-1.848967-.407024-4.762127,.5089026,2.8851899,.6928128,3.5318457,1.4006581,4.5741431Z" fill="#aaa7a5"/>
    <path d="M45.1935425,16.9058165c.2368469,.1231232,.853241-.6104126,1.2393799-1.0965271,2.7427979-3.4530487,4.1967773-7.4267731,6.6133728-9.5140533,3.3538818-2.8968353,7.5437012-1.2733154,7.7666931-2.6212769,.2388306-1.4436951-4.2427063-4.3723602-8.4060669-3.5218506-2.1781616,.4449615-3.5788879,1.7868195-4.1124878,2.3118896-2.9559937,2.9087219-3.0489807,7.078537-3.0525208,7.5224609-.0162354,2.0418243,.6161194,3.2406006,.0648804,5.5124359-.1012573,.4173431-.3434753,1.2872467-.1132507,1.4069214Z" fill="#242930"/>
    <path d="M46.1269674,14.207608c-.2929139-.0886434,.3393669-12.5776304,6.8359589-13.9923789,3.1038699-.6759157,6.382313,1.4294436,6.3357812,1.5824618-.0401041,.1318817-2.5255345-1.2688809-5.0019346-.7495882-6.0826165,1.2754996-7.8788238,13.2475774-8.1698055,13.1595053Z" fill="#282d33"/>
    <path d="M52.1292574,6.3785253c-1.0328882,1.5491319-1.0783948,3.495268-.8336295,3.58139,.2768249,.0973895,.7554718-2.2433475,2.6676932-4.0811023,2.7143433-2.6086371,6.437402-2.3972325,6.4191441-2.4986405-.0231082-.1281783-5.9648673-.4337223-8.2532078,2.9983528Z" fill="#282d33"/>
    <path d="M45.6022699,9.1789843c-.7230178,2.977433-1.0337952,3.8285671-.9170319,3.8728888,.1715368,.0651036,1.1847082-1.6422468,1.6673378-3.7479607,.4385822-1.9134365,.3409836-3.7278485,.1667259-3.7479607-.122915-.0141829-.2481172,.8683507-.9170319,3.6230327Z" fill="#242930"/>
    <path d="M48.4611846,10.7095066c-.0464135,.2871849-.3433102,2.1239941-.1667259,2.1654792,.1554084,.0365211,.62676-1.3294933,.9170319-2.3736927,.6427701-2.3124303,.8919126-4.8261007,.6669036-4.8723529-.2382193-.0489705-1.0266182,2.6640491-1.4172095,5.0805664Z" fill="#242930"/>
    <path d="M47.6128845,11.631616c-.2805786,1.5789185-.3536072,3.8763885-.0967712,3.9193573,.2132568,.035675,.6221313-1.4884644,.8226013-2.1774139,1.8884277-6.4903564,6.2212524-10.8343353,5.8548279-11.1290283-.3721924-.2993317-5.5541382,3.610321-6.580658,9.387085Z" fill="#242930"/>
  </g>
</svg>