<?xml version="1.0" encoding="UTF-8"?>
<svg id="_Шар_2" data-name="Шар 2" xmlns="http://www.w3.org/2000/svg" viewBox="0 0 102.0472441 194.1331345">
  <g id="_Шар_1-2" data-name="Шар 1">
    <path d="M0,150.9965074c5.9990098,5.2570016,14.0094843,11.1430577,24.2150065,16.0997105,24.0937146,11.7019008,46.7783254,11.5971719,58.7704752,10.6022317-1.0380561-2.5746349-2.4856865-6.5439939-3.6649781-11.5184782-3.8038994-16.0455969-1.148458-27.0790654,1.0471344-46.5975264,1.4612981-12.9907197,2.9212186-25.9692113,2.3560601-40.0529442-.6757151-16.8387567-4.049144-30.344391-6.6754933-38.874891-16.6232738-.1308879-33.2465475-.2617759-49.8698194-.3926638,2.1865431,17.9639657,3.1814117,48.7383551-10.6022472,82.0692383-4.666932,11.285307-10.1831908,20.8206845-15.5761382,28.665323Z" fill="#373a35"/>
    <path d="M42.27809,32.4084227c1.4398098,.7853585,2.8796234,1.5706861,4.3194332,2.3560446-10.8204002,43.9796749-21.6407965,87.9593808-32.4611948,131.9390558-2.8842738-1.5764132-7.1788782-4.4613342-10.7331385-9.4242094-1.3855603-1.9346833-2.3967785-3.8195252-3.141406-5.4974478C14.2672183,111.9907285,28.2726542,72.1995602,42.27809,32.4084227Z" fill="#4f514d"/>
    <path d="M29.4834055,129.824732c4.4939556-.8289775,8.9879112-1.657955,13.4818668-2.4869325,1.4521773-3.1970026,2.9956827-7.3367513,4.0576496-12.3038367,1.1798256-5.518344,1.4060043-10.3773571,1.3089218-14.1363296,2.798991-14.5918369-.3553601-26.1284562-6.7409334-28.665354-1.2938611-.5140478-3.352552-.9097454-6.4137058,0-1.7568214,7.3319529-3.318259,15.5677693-4.384881,24.6077044-1.4459471,12.2548311-1.6742367,23.3743921-1.308918,32.9847485Z" fill="#5b4d3c"/>
    <path d="M70.3410206,129.3339053c-4.4939556-.8047688-8.9879073-1.6095376-13.4818629-2.4143374-1.4521773-3.1036661-2.9956827-7.122526-4.0576496-11.9446069-1.1798256-5.3572417-1.4060043-10.0743769-1.3089218-13.7236054-2.6015872-14.5735411,.3390146-25.8981021,6.5579867-28.2096919,1.2429671-.4620393,3.1121523-.7480858,5.8246831,.0635246,2.0392497,7.0065905,3.9102923,15.1207752,5.1568466,24.2069607,.1756369,1.2802127,.3230019,2.4926597,.3230096,2.4927525,.1381784,1.4708175,.1291079,2.3573758,.148495,4.3323037,.0049996,.5091875,.0397725,2.3876831,.1093261,6.1446743,.0298662,1.6134073,.0453758,2.4425396,.0736012,3.5409085,.0127545,.4962782,.0542838,2.0725676,.1309576,4.1813864,.0315688,.8682006,.0705674,1.8674129,.1318476,3.2777396,.0784229,1.804786,.2034134,4.5150763,.3916809,8.0519913Z" fill="#6f5e49"/>
    <g>
      <g>
        <path d="M73.0600206,13.6612146c-1.2751554,6.7461107-2.3439261,13.5719873-3.4059644,20.3560491-.0085771,.2983208-.2312538,.4721736,.2051415,.7045031,.0000153,.0000099-1.0028801-.1524101-1.0028801-.1524101,.3152418-.0643158,.3542528-.1706085,.356967-.2824097,.4802253-3.3410005,1.0266734-6.8725272,1.4814082-10.2116987,.483406-3.5177019,.9580926-7.0367296,1.3624324-10.5664537l1.0028954,.15242h0Z" fill="#16120f"/>
        <polygon points="73.1682816 9.5732599 71.8910551 17.9771133 70.4821462 14.8338131 71.0896314 10.8367018 73.1682816 9.5732599" fill="#8b8c89"/>
        <polygon points="72.9973582 10.697896 71.7201317 19.1017494 73.9992968 16.5189665 74.606782 12.5218553 72.9973582 10.697896" fill="#344e41"/>
        <ellipse cx="71.8594635" cy="18.1849791" rx="1.3533707" ry=".9326062" transform="translate(43.0836456 86.4962392) rotate(-81.3582585)" fill="#251f18"/>
      </g>
      <g>
        <path d="M77.1866456,16.399412c-2.4972809,6.3953027-4.806412,12.9070172-7.1012275,19.3789007-.063441,.2916278-.3143553,.4214288,.0717115,.7302558,.0000132,.0000126-.9575779-.3347195-.9575779-.3347195,.3216953-.0050812,.3796387-.102356,.4029245-.2117615,1.0880815-3.1951585,2.2763595-6.5653321,3.3390488-9.7634076,1.1237826-3.36823,2.2392421-6.7393847,3.2875304-10.1340075,0,0,.9575901,.3347397,.9575901,.3347397h0Z" fill="#16120f"/>
        <polygon points="78.0468715 12.4015282 75.2418708 20.4257435 74.4367501 17.0765434 75.7708881 13.2599988 78.0468715 12.4015282" fill="#8b8c89"/>
        <polygon points="77.6714955 13.4753597 74.8664948 21.499575 77.5828419 19.3813637 78.9169799 15.5648191 77.6714955 13.4753597" fill="#344e41"/>
        <ellipse cx="75.1724903" cy="20.6242191" rx="1.3533707" ry=".9326062" transform="translate(30.8976336 84.7802692) rotate(-70.7320592)" fill="#251f18"/>
      </g>
      <g>
        <path d="M81.2737199,19.4161127c-3.1183206,6.4250247-6.0477374,12.9861586-8.9644877,19.5061979-.0590318,.0980807-.083937,.2112551,.1508061,.4391451l-.9426908-.4165649c.3265524,.0201263,.3934565-.0744629,.4262419-.1841431,1.3711619-3.1713962,2.8586182-6.5133338,4.2042849-9.689691,1.4218909-3.3450075,2.8355853-6.6936555,4.1831557-10.0715089,0,0,.9426899,.4165649,.9426899,.4165649h0Z" fill="#16120f"/>
        <polygon points="82.4812571 15.4085184 78.9643109 23.3673616 78.4634939 19.847264 80.1362534 16.0618123 82.4812571 15.4085184" fill="#8b8c89"/>
        <polygon points="82.0106058 16.4736015 78.4936596 24.4324447 81.3907971 22.5296731 83.0635565 18.7442214 82.0106058 16.4736015" fill="#344e41"/>
        <ellipse cx="78.8773207" cy="23.5642202" rx="1.3858278" ry=".9401145" transform="translate(26.9625456 87.4528758) rotate(-67.5365718)" fill="#251f18"/>
      </g>
      <g>
        <path d="M66.1647548,26.3119403c-.0381822,.1055031-.0635632,.2037651-.1017454,.3092682,.9593425-3.2691654,1.9135377-6.5520675,2.8638552-9.8244263,.006558,.0381407,.0092931,.0868445,.0209517,.1388507l-.0128246,.0073054c-.4980411,.3926153,.4564692,5.118204,3.7203616,7.8748629,.2353931,.1926378,.4656856,.37141,.7125474,.5323583-.7815658,2.1877122-1.5541849,4.3786622-2.3267491,6.5696321-1.6327516-1.8679626-3.252647-3.7431464-4.8763969-5.6078513Z" fill="#5b4d3c"/>
        <path d="M80.5486527,26.8389657c-1.5938914,3.505003-3.1826905,7.0237229-4.7765585,10.5286615-1.5812634-1.8134886-3.1625035-3.6270416-4.7309424-5.4478357,.7725642-2.1909699,1.5451832-4.38192,2.3267491-6.5696321,3.1261537,2.1816649,6.9500195,2.0140024,7.1807518,1.4888063Z" fill="#7b6851"/>
        <path d="M56.7967893,72.0939942c-.1785129-.0407115-.34938-.1025493-.5291939-.1676251-1.4993537-.5783926-2.3725306-1.6224944-2.7680634-2.1594446,3.0188844-10.365146,6.0416233-20.740771,9.0604844-31.1058526l5.3957345,1.9527492c-3.716635,10.4944836-7.4422716,20.9857094-11.1589615,31.4801731Z" fill="#5b4d3c"/>
        <path d="M73.4144421,42.5893548c-4.4577566,9.8443366-8.919336,19.6992364-13.3861175,29.5403796-.5603916,.1432813-1.8070568,.3843593-3.2315353-.0357402,3.7166899-10.4944637,7.4423265-20.9856895,11.1589615-31.4801731l5.4586913,1.9755337Z" fill="#6f5e49"/>
        <path d="M80.5562751,26.8179038l-.0076225,.021062c-.2307323,.5251961-4.0545982,.6928586-7.1807518-1.4888063-.2468618-.1609482-.4771543-.3397205-.7125474-.5323583-3.2638924-2.7566589-4.2184027-7.4822476-3.7203616-7.8748629l.0128246-.0073054c.1239381,1.1189654,.7181177,5.0696814,3.9163731,7.7548718,.1942625,.1658056,.3871691,.3072272,.5800757,.4486487,3.0607532,2.1937634,6.3128837,1.8072397,7.1120099,1.6787504Z" fill="#3f342a"/>
        <path d="M80.5562751,26.8179038l-.0076225,.021062c-.2307323,.5251961-4.0545982,.6928586-7.1807518-1.4888063-.2468618-.1609482-.4771543-.3397205-.7125474-.5323583-3.2638924-2.7566589-4.2184027-7.4822476-3.7203616-7.8748629l.0128246-.0073054c.5073343-.3057708,2.1819394,3.5824198,6.9453755,7.0011669,2.826716,2.0255098,4.7954433,2.4874146,4.6630832,2.881104Z" fill="#312920"/>
        <path d="M75.7720941,37.3676272c-.784176,1.7451762-1.5645292,3.4797893-2.357652,5.2217276l-5.4586913-1.9755337c1.0284642-2.8980594,2.05696-5.7960346,3.0854009-8.6940296,1.5684389,1.820794,3.149679,3.634347,4.7309424,5.4478357Z" fill="#496e5c"/>
        <path d="M67.9557508,40.6138211l-5.3957345-1.9527492c1.1689647-4.0168237,2.3340517-8.0231041,3.5029931-12.0398635,.0381822-.1055031,.0635632-.2037651,.1017454-.3092682,.6085116,.7009336,1.6475296,1.8968765,2.2565097,2.5972876,.7738066,.8899833,1.8453848,2.1213666,2.6198872,3.0105637-1.0284409,2.897995-2.0569367,5.7959701-3.0854009,8.6940296Z" fill="#416252"/>
        <path d="M62.5600164,38.6610719l-.3147292-.1139024c1.2639956-3.9704848,2.5408706-7.9482551,3.8177223-11.925961-1.1689414,4.0167593-2.3340284,8.0230397-3.5029931,12.0398635Z" fill="#416252"/>
        <path d="M75.8287295,37.4358379l-1.928691,5.3292572-.4855963-.1757403c.7931228-1.7419383,1.573476-3.4765514,2.357652-5.2217276,.0231272,.0203166,.0334848,.0479585,.0566354,.0682107Z" fill="#496e5c"/>
        <line x1="56.7929763" y1="72.1045989" x2="56.7967955" y2="72.094046" fill="none"/>
        <path d="M73.3678753,25.3502026l.0763831-.2110576c.0864859-.2670766,.1819648-.5308987,.2774436-.7947208" fill="none"/>
        <ellipse cx="75.7678786" cy="29.9426443" rx="1.2175138" ry="1.0375334" transform="translate(21.8281121 90.9986429) rotate(-70.1044884)" fill="none" stroke="#312920" stroke-miterlimit="10" stroke-width="1.0360052"/>
      </g>
    </g>
    <ellipse cx="72.4807139" cy="44.2260622" rx="1.7899867" ry="7.0679389" transform="translate(16.9331466 108.443398) rotate(-80.5309933)" fill="#312920"/>
    <ellipse cx="71.5136508" cy="38.060987" rx="1.7899867" ry="5.9666192" transform="translate(22.2062533 102.3386779) rotate(-80.5309933)" fill="#312920"/>
    <rect x="35.3968475" y="99.5915994" width="11.4709511" height="11.4709511" fill="#283618"/>
    <rect x="35.3894914" y="123.8493652" width="11.4856635" height="11.4856635" fill="#598392"/>
    <path d="M48.7791043,6.1353327l-.1521247-.1419707c.0304002,.0202461,.0507082,.0202461,.0811084,.0202461q.010154,0,.0203081-.0100921l.0507082,.1318167Z" fill="#5a8772"/>
    <path d="M48.6269796,5.993362c-.1115705-.0203081-.2232029-.1318786-.3347734-.3043733l.3347734,.3043733Z" fill="#5a8772"/>
    <circle cx="66.0315579" cy="41.5723712" r="1.3145537" fill="#474a45"/>
    <circle cx="29.4442972" cy="43.0632741" r="1.3145537" fill="#474a45"/>
    <rect x="55.3015383" y="15.8259327" width="9.1200583" height="8.7043128" fill="#686865"/>
    <path d="M18.7829908,79.0059561c2.4869461,1.1344033,4.9738941,2.2687757,7.4608402,3.403179,.7672446-1.8288399,1.530929-4.0445546,2.0942707-6.6100261,.8588766-3.9113449,.9723684-7.3619197,.8507967-10.0132361-2.3124237-.4799327-4.6248474-.9598964-6.9372711-1.4398291-.943071,2.416814-1.8645261,5.2891663-2.552392,8.5734379-.457179,2.1828379-.7437324,4.2256245-.9162445,6.0864744Z" fill="#656862"/>
    <path d="M71.3546979,64.6394162c2.4215002,1.357733,4.8430023-4.4254179,7.2645025-.5889957,.1433967-4.8246865,.106952-4.723888-.2617836-10.4713748-.3391529,.4245828-.9083484-9.7196573-1.5990027-9.7285943-.6906542-2.943413-1.5027672-5.1729275-2.3277551-7.9418023-1.276196,1.3665461-2.5523925,6.4607963-3.8285889,5.7919611-1.2761965,1.1126495-2.552393,5.844815-3.8285889,5.7919611-.1731487-3.0524286-.9548116-1.4846665-1.2778135,4.5224751-.3230019,2.1032332-.1873426,6.0345951,1.4741531,8.2395003,1.3367371,5.5143025,3.1708107,3.1219604,4.3848772,4.3848694Z" fill="#293d32"/>
    <path d="M80.975251,74.9144631c-2.4869403,1.1344033-4.9738883,2.2687757-7.4608363,3.403179-.7632472-1.6341178-1.6057686-3.8675401-2.0942688-6.6100261-.3903497-2.1914441-.4524735-4.1343001-.3926793-5.6938106,2.502566-.3377763,5.0051243-.6755216,7.5076904-1.0132979,.5340153,1.0496729,1.082093,2.3300094,1.5238553,3.8274813,.6978187,2.3654247,.8953734,4.4761628,.9162387,6.0864744Z" fill="#656862"/>
    <path d="M81.7420076,81.8855764c-.2403611-1.6151719-.6359426-3.3212657-.5377999-5.8539223,.0758147-1.9564154,.4129254-3.5462951,.685962-4.5838636-.5229713-.0598716-1.3355413-.1084128-2.3078826,.0318552-1.1987406,.1729281-1.5699276,.4783849-2.552392,.5890266-1.1058683,.1245417-1.6415399-.1492147-2.9450635-.3926638-.9665445-.1805127-2.374859-.3480232-4.1748698-.228218,.9884159,3.4333315,2.0353646,6.9242129,3.1447156,10.4686815,1.2362377,3.9498559,2.498379,7.8013601,3.7788781,11.5530267,1.1892908,3.4310097,1.7064498,4.5605837,1.8652149,4.5157883,.1714112-.0483864-.2370331-1.4198306,.2945056-1.7670489,.3799016-.2481546,1.0978658,.1197123,1.8652071,.6871926,.1421332-.3999078,.2749869-.8254484,.3926793-1.2762192,.4615518-1.7676681,.5494166-3.3842331,.4908452-4.7120892,.5271428-3.9355226,.3070588-6.9682033,0-9.0315456Z" fill="#5b4d3c"/>
    <path d="M66.7535444,50.5679359c-.0202461-3.9258774-.0405542-1.1871118-.0608623,.0349019,.0269871,2.9142168-.0311277,6.5033335-.2516837,6.4318078-.1221657,.2213354-.2720305,3.7025252-.4685094,3.737978-.6971376,3.0348013-1.7127032,10.5877194-2.3917385,12.2940835,.384522-2.3393727,1.1555859,5.2436114,.3926793,4.9489742-1.2729609,3.9057546-6.0169673,4.5716651-9.1297155,2.1370667-3.4537634-4.5467661-4.9314999-5.8658427-5.3047185-6.1884878,0,.9761396,0-9.5537439,0-16.61454v-16.61454c2.8352963,3.4599551,5.6731156-.692283,8.5109271-.1045993,2.8378116,1.8900351,5.6756154,.1870004,8.5108807-.1045993,.0609242,4.8948332,.1318786,8.2974924,.1927408,10.0419541Z" fill="#416252"/>
    <path d="M70.4353016,155.054157h-11.4159564c-.3995434-2.4818246-.6322564-5.3943286-.4447772-8.6388819,.0832135-1.4401387,.2405413-2.7955779,.4447772-4.0576496h11.4159564c.2486544,1.0080971,.4562916,2.1011413,.5930362,3.272322,.431378,3.694643,.0117205,6.9203122-.5930362,9.4242094Z" fill="#6f5e49"/>
    <g>
      <path d="M57.8849159,142.5838019c1.9923342,.2833731,4.2809513,.4768264,6.8120846,.4606285,2.4209435-.0154936,4.6154471-.2199381,6.5369117-.5068253-.020618-5.9577912-.0412431-11.9156133-.0618612-17.8734354-2.0102885,.1849752-4.1764238,.3033061-6.48082,.317169-2.4499718,.0147095-4.7464746-.0905179-6.8681833-.2709413,.0206216,5.9577912,.0412466,11.9156133,.0618682,17.8734044Z" fill="#312920"/>
      <g>
        <ellipse cx="64.2670978" cy="134.5055925" rx="6.4700631" ry="6.4160552" transform="translate(-.4651788 .2232533) rotate(-.1983181)" fill="#251f18"/>
        <path d="M59.7160325,134.519872l4.5518808-.0157564-.0156251-4.5139359c-2.5174981,.0087144-4.5448684,2.0415713-4.5362557,4.5296923Z" fill="none" stroke="#5b4d3c" stroke-miterlimit="10" stroke-width=".8441106"/>
        <path d="M59.7160325,134.519872c.0086416,2.4964837,2.0500076,4.5068425,4.5675057,4.4981282l-.0156249-4.5138846-4.5518808,.0157564Z" fill="none" stroke="#5b4d3c" stroke-miterlimit="10" stroke-width=".8441106"/>
        <path d="M64.2679133,134.5041156l.0156249,4.5138846c2.5175498-.0087146,4.5448975-2.0331574,4.5362559-4.529641l-4.5518808,.0157564Z" fill="none" stroke="#5b4d3c" stroke-miterlimit="10" stroke-width=".8441106"/>
        <path d="M64.2522882,129.9901797l.0156251,4.5139359,4.5518808-.0157564c-.0086127-2.488121-2.049956-4.506894-4.5675059-4.4981795Z" fill="none" stroke="#6f5e49" stroke-miterlimit="10" stroke-width=".8441106"/>
        <line x1="64.2835589" y1="139.017994" x2="64.3021517" y2="144.3892694" fill="none"/>
        <line x1="64.2337453" y1="124.6273469" x2="64.252309" y2="129.9902166" fill="none"/>
        <line x1="59.716049" y1="134.5198617" x2="52.9857015" y2="134.5431589" fill="none"/>
        <line x1="75.5416899" y1="134.4650809" x2="68.8198189" y2="134.4883488" fill="none"/>
        <path d="M61.4365229,134.5139222l2.8314111-.009801-.0097193-2.8078082c-1.5659619,.0054206-2.8270492,1.2699207-2.8216918,2.8176092Z" fill="#5b4d3c"/>
        <path d="M61.4365229,134.5139222c.0053754,1.5528903,1.2751683,2.8033959,2.8411303,2.7979753l-.0097192-2.8077763-2.8314111,.009801Z" fill="#312920"/>
        <path d="M64.267934,134.5041212l.0097192,2.8077763c1.5659941-.0054207,2.8270673-1.264687,2.8216919-2.8175773l-2.8314111,.009801Z" fill="#6f5e49"/>
        <path d="M64.2582147,131.696313l.0097193,2.8078082,2.8314111-.009801c-.0053574-1.5476885-1.2751363-2.8034279-2.8411304-2.7980072Z" fill="#7b6851"/>
      </g>
    </g>
    <path d="M29.1888987,66.8330013c-1.0926998,.2894722-2.4149759-.1851495-3.9267578-.6544706-1.3237176-1.2825357-2.5151638-4.8252219-3.5340824,0-.322346-5.807664-.4402086-8.3458578-.0654459-11.9111729,.3013462-1.214999,.871232-2.9328853,1.571683-9.8585458,.7004511-1.6034401,1.5314674-.4811553,2.3550748-7.8118508,1.276196,4.9706922,2.5523925,2.9525721,3.8285889,5.7919611,1.2761965,2.745624,2.552393,4.5536472,3.8285889,5.7919611,.2867759,3.1965503,.8119558,4.8317019,.9783093,4.8501051,.1663535,2.5083724-.0261193,7.2855834-1.1746489,7.9118703-1.0913416,1.4228728-2.6786673,2.5535443-3.86131,5.8901425Z" fill="#293d32"/>
    <path d="M49.5389957,40.7085686v33.0066916c-.4507554-1.2507433-2.9017038,4.8910675-7.3590755,4.9181076-4.0789754-.3992859-7.0608743-1.866323-7.7553458-2.1227642,.0238682-1.5635571,.0582038-1.5194489,.0981698-.6703243,.3990797-1.648052,.5986196-2.3198432,.5253898-5.3835578-.0961111-3.2714934-.7160062-.3216107-.8876031-3.2989146-.7303782-4.561067-1.3035236-7.06461-1.7498676-8.4133086-.4463439-3.7190482-.7658863-5.9534853-.9890583-7.6686271,0,.4923849-.010154,2.0434726-.010154,0-.1318786-4.7904573-.2637571-7.7823309-.3854817-10.136392,3.0838224-.2108439,6.1676292-1.513521,9.2527054-.1111218,3.0850761-.6828696,6.1714215,.4630845,9.2603209-.1197889Z" fill="#344e41"/>
    <path d="M29.7173997,72.2669854c-.7304091,3.1649617-1.7346675,6.6950971-3.1447156,10.4686815-1.0854287,2.8911125-2.2418118,5.5083138-3.4084108,7.851604-.5985306,.1724328-1.369432,.4463439-2.0896871,.912934,.1115705-2.5968933,.233295-5.5386521,.7811174-8.7340759,.8013635-4.615564,2.1200872-7.4458142,2.7084638-9.4238689,2.2418737-.1014784,4.0170954-.6390848,5.1532323-1.0752747Z" fill="#312920"/>
    <path d="M68.5873646,39.873006c-.0033405,.0751318-2.9833273,4.1844843-7.2437517,6.9347964-4.2604244,2.0152739-9.8012865,4.6746312-14.9263776,2.7035951-4.0012168,.6023494-8.5170663-.6260145-12.0426981-3.043939-3.5256319-3.5197035-6.0610461-3.0261769-6.1013926-6.311996-.0404836-.3044933,2.4354783-3.8410681,5.9515915-6.5641837,3.5161132-4.3278593,8.0723777-5.5921584,12.1924993-3.3620978,5.1490399,2.0672355,10.6932397,1.5354506,14.9493458,2.6641906,4.2561061,.66265,7.2241184,4.0313135,7.2207835,6.9796345Z" fill="#293d32"/>
    <path d="M24.5641674,73.3422601c-.5883765,1.9780546-1.9071003,4.8083049-2.7084638,9.4238689-.5478223,3.1954238-.6695469,6.1371826-.7811174,8.7340759-.5579144,.3550815-1.0854287,.8216716-1.5013105,1.4506023-1.7651296,2.6070473-.5275143,6.3908476-.6593928,6.4110938-.372346-.290721-.7806491-.6946843-1.1125822-1.2457262-1.2462795-2.0689146-.3520206-4.4448339-.1959875-4.8407482,.6187767-2.9620669,1.1259829-6.684943,1.1158289-10.9961957-.0203081-3.8750628-.4463439-7.2632274-.9839503-10.0122454,2.2756579,.3584249,4.5513177,.7168498,6.8269756,1.0752747Z" fill="#5b4d3c"/>
    <rect x="21.5971673" y="63.953375" width="7.9844073" height="2.7487304" transform="translate(8.3226281 -2.675121) rotate(7.14365)" fill="#293d32" stroke="#203027" stroke-miterlimit="10" stroke-width=".2536031"/>
    <rect x="70.4853003" y="62.9062397" width="7.9844073" height="2.7487304" transform="translate(156.3706464 118.8003992) rotate(172.85635)" fill="#293d32" stroke="#203027" stroke-miterlimit="10" stroke-width=".2536031"/>
    <g>
      <path d="M29.6800586,46.4734803c.8753387-1.1361572,2.7210147-3.2598982,5.7738347-5.0378004,3.1278634-1.8216006,5.957516-2.3685465,7.3846898-2.5592707l-4.690169-8.1236346c-2.4813596,.3532906-7.7324893,1.4070055-13.2561333,5.0475001-7.6302417,5.0289139-10.6521517,11.6140043-11.4961983,13.6495146,1.5131341-.8438484,3.6567664-1.8533254,6.3045238-2.5376146,4.463439-1.153519,8.0469306-.7852786,9.9794523-.4386944Z" fill="#5b4d3c"/>
      <path d="M29.4678823,40.4077005c.6599828-1.0118213,2.0736505-2.8861421,4.5527751-4.3328209,2.540066-1.4822355,4.9273576-1.773784,6.1383333-1.8396861-1.5633904-2.7078778-3.1267808-5.4157555-4.6901713-8.1236333-2.1037053,.1352516-6.5307793,.7131975-10.9820055,3.7345311-6.1488259,4.1736177-8.2110618,10.2046396-8.7711292,12.0761944,1.2318156-.6814291,2.9920103-1.4695281,5.2118359-1.9067507,3.7420573-.7370289,6.8514807-.095085,8.5403617,.3921654Z" fill="#6f5e49"/>
      <path d="M28.3902309,37.3581891c.4277806-.6558314,1.3440764-1.8707085,2.9509687-2.8084012,1.6463926-.9607394,3.1937616-1.1497122,3.9786787-1.1924279-1.0133416-1.755163-2.0266831-3.5103261-3.0400247-5.2654891-1.363557,.0876659-4.2330502,.4622727-7.118198,2.4206081-3.9854797,2.7052105-5.3221575,6.6143333-5.685176,7.8274175,.798425-.4416813,1.939329-.9525029,3.3781516-1.2358971,2.4254864-.4777195,4.4409189-.0616312,5.5355996,.2541896Z" fill="#7b6851"/>
    </g>
    <g>
      <path d="M69.3263645,46.9884507c-.8753387-1.1361572-2.7210147-3.2598982-5.7738347-5.0378004-3.1278634-1.8216006-5.957516-2.3685465-7.3846898-2.5592707,1.5633897-2.7078782,3.1267793-5.4157564,4.690169-8.1236346,2.4813596,.3532906,7.7324893,1.4070055,13.2561333,5.0475001,7.6302417,5.0289139,10.6521517,11.6140043,11.4961983,13.6495146-1.5131341-.8438484-3.6567664-1.8533254-6.3045238-2.5376146-4.463439-1.153519-8.0469306-.7852786-9.9794523-.4386944Z" fill="#5b4d3c"/>
      <path d="M69.5385407,40.9226709c-.6599828-1.0118213-2.0736505-2.8861421-4.5527751-4.3328209-2.540066-1.4822355-4.9273576-1.773784-6.1383333-1.8396861l4.6901713-8.1236333c2.1037053,.1352516,6.5307793,.7131975,10.9820055,3.7345311,6.1488259,4.1736177,8.2110617,10.2046396,8.7711292,12.0761944-1.2318156-.6814291-2.9920103-1.4695281-5.2118359-1.9067507-3.7420573-.7370289-6.8514807-.095085-8.5403617,.3921654Z" fill="#6f5e49"/>
      <path d="M70.6161922,37.8731595c-.4277806-.6558314-1.3440764-1.8707085-2.9509687-2.8084012-1.6463926-.9607394-3.1937616-1.1497122-3.9786787-1.1924279l3.0400247-5.2654891c1.363557,.0876659,4.2330502,.4622727,7.118198,2.4206081,3.9854797,2.7052105,5.3221575,6.6143333,5.685176,7.8274175-.798425-.4416813-1.939329-.9525029-3.3781516-1.2358971-2.4254864-.4777195-4.4409189-.0616312-5.5355996,.2541896Z" fill="#7b6851"/>
    </g>
    <g>
      <path d="M40.9090242,34.2442307c-1.4907966,3.3049202-2.2691743,5.0304862-3.0993049,4.9443008-1.4304722-.1485337-2.8732268-5.6622186-.8507986-9.4896689,.3228974-.6110838,1.0859937-2.0552469,2.2418273-2.1032928,1.2194511-.0506928,2.3415411,1.4748884,2.6357796,2.8186876,.144753,.66108,.1330743,1.4788045-.9275033,3.8299733Z" fill="#474a45"/>
      <path d="M63.5150806,31.6314967c-.3055392,.1553477-1.1955474-.3845636-2.9755524-1.4643877-1.324744-.8036494-1.4591792-.9818414-1.537237-1.1769027-.5733618-1.4328338,1.6811217-4.3110019,3.0979806-4.0369697,1.8412734,.3561227,2.5653721,6.0932628,1.4148089,6.6782601Z" fill="#474a45"/>
      <path d="M34.2622305,31.3729765c.296487,.1719958,1.2149731-.3179045,3.0519338-1.2977072,1.3671328-.7292098,1.5112102-.8997,1.5999288-1.0901493,.6516704-1.3989575-1.4403069-4.3973201-2.8701447-4.2020087-1.8581404,.2538213-2.898193,5.9421766-1.7817178,6.5898653Z" fill="#474a45"/>
      <path d="M55.6323502,31.4727665c-1.0186613,1.9772652-1.4677798,5.0056119-.4970831,5.515047,1.5567669,.817028,7.1103598-4.6636718,6.1163599-6.9294756-.4081657-.9304095-1.9447522-1.3743387-3.0908033-1.1140333-1.3882928,.3153322-2.0672004,1.6331117-2.5284735,2.5284619Z" fill="#474a45"/>
      <ellipse cx="49.7481491" cy="33.1058298" rx="7.726434" ry="1.1583559" fill="#3a3027"/>
      <ellipse cx="49.6841149" cy="28.8707055" rx="7.7052604" ry=".8396491" fill="#3a3027"/>
      <path d="M49.6138956,23.958941c0,.0405542-.010154,.0811084-.0203081,.1217245-.1521866-.1420326-.233295-.3043733-.2130489-.466652,.010154-.0507082,.0203081-.0913244,.0507702-.1318786,.1115705,.1521866,.1825868,.3144654,.1825868,.476806Z" fill="#281a10"/>
      <path d="M49.4313088,23.4821349c.1115705,.1521866,.1825868,.3144654,.1825868,.476806,0,.0405542-.010154,.0811084-.0203081,.1217245-.1521866-.1420326-.233295-.3043733-.2130489-.466652,.010154-.0507082,.0203081-.0913244,.0507702-.1318786Z" fill="#281a10"/>
      <path d="M49.3805387,23.6140135c.010154-.0507082,.0203081-.0913244,.0507702-.1318786,.1115705,.1521866,.1825868,.3144654,.1825868,.476806,0,.0405542-.010154,.0811084-.0203081,.1217245-.1521866-.1420326-.233295-.3043733-.2130489-.466652Z" fill="#3d2818"/>
      <path d="M49.5935875,24.0806655c-.1014165,.4463439-.7202551,.7709014-1.0549666,.9433961-.1521866,.0811084-.2942192,.1622787-.4361899,.2434491-.2126774,.029425-.551514,.0470707-.9175815-.0844209-.515793-.1852646-.6536309-.5114474-1.0471344-.5726502-.2180988-.0339138-.5620318,.0061915-1.0465346,.4316237,.2364411-.4312212,.9188624-1.5310142,2.2022482-1.9314637,.4172246-.1301914,1.1417286-.3562579,1.7191191,.04721,.3950823,.2760782,.5319296,.7145744,.5810396,.9228559Z" fill="#251f18"/>
      <ellipse cx="49.3673269" cy="23.9876222" rx=".9805209" ry=".5054873" fill="#251f18"/>
      <path d="M56.8313624,21.7364348c.124263,.876621,1.6577693,.812276,4.1885453,2.3560601,1.7610587,1.0742531,2.0858096,1.756477,2.4869403,1.5707016,1.1689208-.5413677,.2259736-7.1752465-2.0216582-7.5803861-.8386672-.1511805-1.7437109,.5856523-2.939704,1.5593557-1.0966662,.8928427-1.8029247,1.4678301-1.7141234,2.0942688Z" fill="#474a45"/>
      <path d="M41.4825805,21.8624095c-.1725192,.8684139-1.7001259,.7194187-4.3123507,2.1209813-1.8177355,.9752872-2.1796929,1.6385213-2.5699437,1.4308615-1.137216-.6051402,.1709085-7.1767692,2.4374952-7.4570753,.8457404-.1046009,1.7086803,.6811227,2.8490343,1.719434,1.0456477,.9520849,1.7190504,1.5652247,1.5957649,2.1857985Z" fill="#474a45"/>
      <ellipse cx="49.5258587" cy="25.0435622" rx="5.3635296" ry=".8396491" fill="#3a3027"/>
      <g>
        <path d="M62.8391254,18.0630868c-1.0304948-6.5163335-6.1577461-15.0316334-13.1645494-14.9216881-8.8372376,.1386582-12.5897168,13.8709627-12.8630939,14.9216881-1.0921503,4.1976854-1.9756632,12.5028929,2.2608467,15.4452399,1.456906,1.0118584,4.5555957,.9363533,10.7529788,.7853585,4.3392769-.1057196,6.5327912-.1711171,7.702784-.7853585,4.6899508-2.4621821,6.1777252-9.9647413,5.3110338-15.4452399Z" fill="#474a45"/>
        <path d="M45.5766585,5.6247541l-2.3534442,2.2925819-3.5909976-5.3256651L39.1655647,.0048698c2.3534442,.5173602,6.4110938,5.6198843,6.4110938,5.6198843Z" fill="#474a45"/>
        <path d="M60.4049004,0l-1.8324869,10.078678-4.5812173-4.4503254S58.0488458,.5235677,60.4049004,0Z" fill="#474a45"/>
        <path d="M53.8644524,11.3967631h-8.084899c.6289307-.7608093,1.5723268-1.2071532,2.5765852-1.2071532h2.9316667c1.0144124,0,1.9476545,.4463439,2.5766471,1.2071532Z" fill="#c0a278"/>
        <path d="M47.2049922,6.0337315c-.4845376,1.05071-2.219507,1.4794546-2.3791698,1.246237-.0548643-.0801333,.1044542-.1972761,.2387048-.4839262,.4255173-.908569-.2641093-1.6768545-.3792012-3.3310637-.0492416-.7077793-.0842506-1.2109146,.1308918-1.3089102,.5723367-.2606769,3.1430129,2.2421059,2.3887743,3.8776632Z" fill="#585b56"/>
        <path d="M54.7582323,6.3058032c.0486883,.1644303,.09567,.2757841,.0389328,.3888096-.2582351,.5144193-2.3247699,.3853733-2.6505618-.3926793-.2424817-.5790893,.6944714-1.0038869,1.3926578-2.9535536,.2601274-.7264001,.3234198-1.2073545,.5133512-1.2111313,.2775448-.0055259,.6167142,1.0120596,.679105,1.9068062,.069658,.9989492-.2391731,1.3644943,.026515,2.2617483Z" fill="#585b56"/>
        <path d="M46.3348294,5.7475773c.1407595,.4163462,.5105806,.9568316,1.0634954,1.0634954,.6205529,.1197123,1.2989303-.3403767,1.5870626-.883509,.3104989-.5852963-.0116632-.9287068-.1308918-2.7487394-.0674562-1.0296899,.0147164-1.2395347-.1308918-1.3089102-.5507904-.2624105-2.9743105,2.1457045-2.3887743,3.8776632Z" fill="#585b56"/>
        <path d="M53.5349345,6.213181c-.1988639,.3919318-.6421904,.8739627-1.2046766,.9004439-.6312952,.029721-1.2368888-.5226685-1.4443719-1.1014289-.2235889-.6236901,.1443802-.9174894,.52271-2.7017541,.2140436-1.0094538,.1627309-1.2288944,.316765-1.2767296,.5826607-.1809304,2.6368185,2.5490702,1.8095734,4.1794687Z" fill="#585b56"/>
        <polygon points="43.2251863 8.8625096 48.1038717 17.1468403 51.1143859 17.1468403 56.4254251 8.8625096 43.2251863 8.8625096" fill="#474a45"/>
        <path d="M44.8570592,10.0690934l3.4939334,5.9329305h3.0105152l3.9474738-6.157396c.8497407-1.3254528,.370473-3.0997267-1.0387133-3.801922-1.1497966-.5729419-2.6666138-1.0529084-4.4794621-.9992644-1.4159996,.0418993-2.6270607,.3979484-3.6038468,.8422404-1.5983666,.7270184-2.2209509,2.6703484-1.3299002,4.1834116Z" fill="#585b56"/>
        <rect x="48.3857752" y="13.5670027" width="3.0105141" height="2.5351183" fill="#405c63"/>
        <polygon points="56.1879189 6.2486006 58.4094846 7.9173409 59.7789165 2.1353998 56.1879189 6.2486006" fill="#8b8c89"/>
        <path d="M51.642169,15.199617h-3.7467168c.1667184-1.6330808,.3334332-3.266146,.5001516-4.8992268,.9106716,.030911,1.8213468,.0618374,2.7320183,.0927484,.1715168,1.6021543,.34303,3.2043241,.5145469,4.8064784Z" fill="#8b8c89"/>
        <polyline points="53.9939545 8.9385212 51.1949455 10.5519187 48.3153221 10.4591703 45.7881101 8.6985958" fill="#8b8c89"/>
        <path d="M62.6328755,13.3509806c-.315309,.3650343-2.2396215-.8029114-3.1423783-1.4637282-.5051862-.3698017-.7362833-.6143343-.9144045-.9144045-.53453-.9004737-.5492812-2.2290109-.1173595-2.4460068,.9588748-.4817283,4.6882675,4.2289369,4.1741423,4.8241396Z" fill="#474a45"/>
        <path d="M63.6800099,19.7646748c-.2163149,.148998-.6330868-.6500901-2.676121-2.0829229-.7453616-.5227468-1.2060465-.7783776-1.2249731-1.2249692-.0231948-.5472806,.6245541-1.2033764,1.2249731-1.2249692,1.5679773-.0563889,3.1563246,4.2020969,2.676121,4.5328613Z" fill="#474a45"/>
        <path d="M63.2873384,16.0997045c-.3010376,.4854277-1.5047545,.3887322-2.2858796,.0155871-.209334-.1000079-.9062395-.4329239-1.2231466-1.2231427-.38761-.9665368-.06099-2.2537304,.5333846-2.4501861,1.0840356-.3583011,3.5362339,2.7537699,2.9756417,3.6577418Z" fill="#474a45"/>
        <path d="M34.7533679,19.5151754c.20775,.1607249,.6680462-.6141094,2.787143-1.931845,.7731118-.4807559,1.2472201-.7105364,1.2907984-1.1553996,.0534046-.5451623-.5570956-1.2360531-1.1554036-1.2907948-1.5624647-.1429563-3.383728,4.0212421-2.9225378,4.3780393Z" fill="#474a45"/>
        <path d="M35.3617466,14.8069849c.3462393,.7001173,2.6215044,.3587809,3.95698-.1153164,.7104532-.25221,1.4294661-.5074693,1.9787667-1.2098001,.9516463-1.2167655,.9964532-3.2672295,.2399586-3.7377822-1.4885329-.9258897-6.7882247,3.8243391-6.1757053,5.0628986Z" fill="#474a45"/>
        <path d="M38.7802944,10.0708794c-.3875484-.599886,1.0457671-2.6224978,2.911443-3.1934541,.9146446-.2799112,2.1971888-.2917221,2.4142849,.2067453,.2281734,.5238988-.8018366,1.4249921-1.0402798,1.6335821-1.4971493,1.3097527-3.8925365,1.9613198-4.285448,1.3531266Z" fill="#474a45"/>
        <path d="M43.9804326,15.8327123l3.9414161,4.9379855c.1150339,.1441222,.2894053,.2280478,.473807,.2280478h3.4990231c1.6435327-2.5660752,2.1514084-3.3590337,3.7949411-5.9251089l-.2061996-.4478608-.3611066-.784306-3.5643123,5.563805c-.1114583,.1739806-.303847,.2792204-.5104683,.2792204h-2.3344209c-.2148754,0-.4136955-.1137375-.5225998-.2989712-1.0869224-1.8478942-2.1738487-3.6958039-3.260771-5.5436981-.0679593-.2524577-.1431161-.3810548-.2254628-.3858377-.1263643-.0073524-.2696816,.2768366-.4299636,.8526599l-.371071,.8930594c-.095461,.2080338-.0656065,.452102,.0771884,.6310049Z" fill="#8b8c89"/>
        <polygon points="43.2232143 6.2485991 41.0016487 7.9173409 39.6322167 2.1353947 43.2232143 6.2485991" fill="#8b8c89"/>
        <g>
          <path d="M50.9193655,18.7112801l-2.2720929,.0259389c-.3033552-.8573041-.6067104-1.7146079-.9100664-2.571925-.222068-.6275883,.2343887-1.2887744,.8999431-1.303564l2.2967006-.0510361c.6226425-.013836,1.0718575,.5921927,.8775628,1.1839061l-.8920473,2.7166802Z" fill="#281a10"/>
          <path d="M47.7837084,16.296689c.0610363-.0087971,.1218398-.0186809,.1853341-.0186809,.7174551,0,1.2990985,.5816175,1.2990985,1.2990985,0,.4743964-.2569787,.8851433-.636677,1.1119014,.9916399-.0113586,1.1249418-.0128852,1.8668217-.0213459-.3585593-.2312343-.5973229-.6321491-.5973229-1.0905555,0-.7174809,.5816175-1.2990985,1.2990985-1.2990985,.1723972,0,.3362044,.0352401,.4867124,.0961988l.1246342-.3795948c.1942865-.5917083-.2549088-1.1977507-.8775622-1.1839082-.7655545,.017025-1.5311348,.0340241-2.2966893,.051049-.6655522,.0147739-1.1220181,.6759535-.8999431,1.3035487,.0154984,.0438044,.0309968,.0875829,.0464952,.1313872Z" fill="#3d2818"/>
        </g>
        <path d="M48.9808501,5.8518706c-.9439697-.693483,.0388426-4.3353331,.9920015-4.3721596,.9291365-.0359055,2.2166585,3.3388955,1.2859275,4.1884439-.360558,.3291103-1.147111,.3642337-1.2344155,.3674141-.2307743,.0084115-.7559526,.0275634-1.0435135-.1836983Z" fill="#585b56"/>
        <path d="M56.4205632,19.4751936l-1.7549136,3.8040465-.3246194,.699947c-.010154,.010154-.010154,.0304621-.0203081,.0406161-.5579144,1.1766911-1.7346056,1.9171924-3.0330832,1.9171924h-2.9316048c-1.3086316,0-2.5056308-.7608093-3.0533912-1.9578085l-2.0694409-4.5039935c-.4057278-.8926879-.4057278-1.9172543,0-2.8098802l1.4709104-3.2055779,3.6620139,6.228507h3.012837l3.7431842-5.8430253,1.2984157,2.8200962c.4057897,.8926259,.4057897,1.9171924,0,2.8098802Z" fill="#c0a278"/>
      </g>
      <path d="M56.9757871,38.4886363c-1.4605974,3.9744547-4.8646359,6.5381997-8.0592624,6.3761001-3.4848465-.1768433-5.7013308-3.5455786-5.9546898-3.942976-.5889469-.9237662-.9057875-1.8099957-1.0846234-2.4607916,.114474-.1850899,.5849489-.9895518,.392287-1.9747785-.1838562-.9401807-.9010562-1.684228-1.8561638-1.9451704-.0444536-1.3478541,.0508406-3.9743173,1.4201566-6.8826809,.9752895-2.0714718,2.2304022-3.5075721,3.10889-4.3674617,3.1245891-.0711413,6.2491745-.1422825,9.3737636-.2134238,.9995115,.9861026,3.3066838,3.5443705,4.1139459,7.6934632,.5909898,3.0375012,.1191813,5.5968824-.2423961,6.9888529-.4039682,.2429658-.8079394,.4859008-1.2119076,.7288666Z" fill="#251f18"/>
      <path d="M51.0461634,28.7403748c-.2498534,1.7845399-1.7767077,2.779867-2.9114941,3.8053931-5.0073107,4.5252148-5.2460581,8.8101228-6.6108929,8.5407004-1.5286537-.3017419-2.659671-5.8969996-.7893907-10.5168512,1.6590656-4.0981264,5.3649965-8.0125515,7.5630732-7.2912903,.8818218,.2893589,1.4911526,1.3138325,1.8815449,1.9702069,.1657382,.2786631,1.0976607,1.8455105,.8671596,3.491841Z" fill="#44392d"/>
      <path d="M59.1941846,37.2087742c-.403139,2.735892-2.1098287,6.2345127-4.2212634,6.3319047-1.4976924,.069066-2.6364878-1.599105-4.1474106-3.812405-.3568886-.5228087-3.6967326-5.537228-3.11709-10.6675054,.1525891-1.3505325,.5377031-2.3630565,.6403618-2.6243215,.4228047-1.0760176,1.1107944-2.8268913,2.0592869-3.157826,2.4470091-.8537744,9.8641413,6.6141744,8.7861153,13.9301533Z" fill="#312920"/>
      <path d="M52.1423846,27.9972731c1.0092967,7.4271469-1.489597,18.0408329-4.1230974,17.9322034-2.7193105-.1121587-6.1713209-11.681051-2.0240109-18.4102167,.8138277-1.3204574,2.8470524-3.9583073,4.3525731-3.5316368,.5140323,.1456701,1.3526647,.7580231,1.7945353,4.0096501Z" fill="#251f18"/>
      <path d="M54.8893865,27.6246078c2.9741248,4.1543296,2.9797861,10.3009233,1.5724313,10.8440091-.2301064,.0887859-.4537428,.0107113-.5186759-.0129712-1.5765796-.5752506,.1659162-5.0628831-1.5755967-9.3457943-1.3699002-3.369002-4.2054209-4.9140089-4.0196958-5.1222285,.1746578-.1958211,2.7341855,1.112439,4.5415371,3.6369848Z" fill="#3f342a"/>
      <path d="M40.4461954,37.5286571c-.4187183-2.1368042,1.8727066-7.4651781,2.4683078-7.2407833,.1780941,.0671002-.0565747,.5322817-.2617836,3.0759592-.2599378,3.2221091-.1033552,5.202145-.9162426,5.4974787-.1344093,.0488198-.3367005,.0666203-.5239542,0-.543051-.1932362-.7020986-1.0048775-.7663275-1.3326546Z" fill="#4f4235"/>
      <path d="M42.3582102,26.1647802c.4988787,.9008761,3.5964655,.0214999,4.9109712-.4711563,1.1546882-.4327536,2.7907137-1.0458961,2.8204561-1.9967529,.0290226-.92784-1.4800583-1.9021471-2.8204561-1.9967529-2.8130224-.1985299-5.481021,3.4352664-4.9109712,4.4646621Z" fill="#312920"/>
      <path d="M49.9006618,23.696871c.0282602,.8473662,1.3792068,1.4034696,2.8204522,1.9967529,.7744073,.3187839,4.790009,1.9717858,5.3932142,1.0110845,.6356678-1.0124002-2.3127352-5.2546643-5.3932142-5.0045903-1.3454709,.1092177-2.8508137,1.0863884-2.8204522,1.9967529Z" fill="#312920"/>
      <path d="M49.9908485,23.5142223c.0331554,.1955425,.0683269,.6535264-.1099491,.7295578-.2857872,.1218948-.6600932-.9339077-1.7798034-1.588533-.9104845-.5323127-1.6760303-.4264693-1.6688714-.5399282,.0103243-.1636099,1.6133648-.5577442,2.7530347,.2657848,.199981,.1445092,.6991228,.5051785,.8055892,1.1331186Z" fill="#251f18"/>
      <path d="M54.8256684,22.8924892c-.09466,.3122055-2.0326403-.5715976-3.4686384,.4581232-.5857413,.4200147-.9522344,1.0616224-1.2159335,.9441855-.188995-.0841577-.2014205-.5031043-.1502479-.7805756,.1591985-.8632319,1.1494447-1.5328871,2.0618215-1.6890053,1.4851005-.2541294,2.8527253,.8043199,2.7729984,1.0672722Z" fill="#251f18"/>
      <path d="M42.8981422,25.9438991c-.3043423-.3137224,1.4779183-3.5742032,3.734729-3.570349,.8335089,.001424,1.7691773,.4481704,1.7576882,.7974319-.0100728,.3062152-.7447192,.4300913-1.7576882,.7974474-2.5509641,.9251312-3.5316136,2.1848347-3.734729,1.9754697Z" fill="#3f342a"/>
      <path d="M57.0099265,25.8948161c-.1839296,.2598565-1.177972-.1703431-3.0022186-.95985-1.3426499-.5810706-2.175203-.9484422-2.1271068-1.273495,.0529836-.3580689,1.1672259-.6146903,2.1271068-.4497338,1.891935,.3251147,3.2713043,2.3029217,3.0022186,2.6830787Z" fill="#3f342a"/>
      <path d="M62.9707873,29.1347567c.7340002,2.2760661-.6670393,5.1781221-1.7641389,5.1780447-.9530548-.0000774-1.9274896-2.1902832-1.8438349-4.0551266,.0598252-1.3336916,.6911396-3.1765088,1.6592359-3.256379,.830448-.0685087,1.6419733,1.182217,1.948738,2.1334608Z" fill="#474a45"/>
      <path d="M50.6780846,42.5549021c-.4691634,1.2202173-.9777511,1.6038105-.8153833,1.8211935,.2418548,.3237835,1.7911493,.0361273,2.2991372-.9826501,.5901759-1.1835946-.5004575-2.8018623-.8945221-2.7386782-.2381283,.0382014-.1176652,.6736642-.5892317,1.9001348Z" fill="#16120f"/>
      <path d="M43.5362402,40.0913115c-.1546748-1.1950798,.4841816-2.3490482,.6849404-2.3047482,.0955462,.021082,.0336507,.3007203,.1760664,1.2187003,.011965,.0771149,.0879345,.5606387,.215154,1.0780299,.2853538,1.1605314,.5930859,1.5338468,.4497686,1.6576764-.1733847,.1498029-.8465149-.2041332-1.2128842-.7499742-.064314-.0958132-.246777-.3876487-.3130452-.8996842Z" fill="#16120f"/>
      <path d="M45.9952763,29.6271034c-.7905981,2.3763836,.5126276,4.9877185,.9277897,4.9311284,.3338137-.0455074-.0632769-1.7944308,.7179565-4.9311284,.4249756-1.706295,.8792601-2.5409532,.6564093-2.6769646-.3063197-.1869518-1.7542829,1.0301697-2.3021555,2.6769646Z" fill="#312920"/>
      <path d="M46.284968,37.7978008c-.1079291,1.7441714,.415936,4.1432159,1.6688753,4.5648558,.8039988,.2705678,1.5350696-.3986695,1.7179544-.1472644,.242354,.3331636-.7109408,1.9627617-1.7179544,1.9633808-1.5841293,.0009906-3.5581402-4.0289521-2.5329856-6.7555259,.2875518-.7648028,.8799218-1.6101568,1.0604499-1.5397287,.1656995,.0646391-.1308454,.8558485-.1963396,1.9142824Z" fill="#312920"/>
      <path d="M50.8179067,28.6710921c1.2397669,6.1053739-1.7395588,12.3853785-2.5204749,12.2190444-.1868125-.0397803-.076163-.4119193,.5399321-11.5839531,.1178084-2.1362625,.2167057-3.9893885,.6276344-4.0339827,.4458989-.0483864,1.0794462,2.0521822,1.3529085,3.3988914Z" fill="#312920"/>
    </g>
    <g>
      <path d="M30.6729892,44.7115474c2.7678246,1.5730079,9.0801256,4.665034,17.634633,4.5801178,9.4228202-.0935223,16.1578446-3.9879954,18.8072648-5.7197529" fill="none" stroke="#252624" stroke-miterlimit="10" stroke-width="1.1327235"/>
      <g>
        <circle cx="66.6193819" cy="43.2402831" r="2.2658904" fill="#251f18"/>
        <path d="M68.213225,43.2397625h-1.5941305v-1.5941486c.881662,0,1.5941305,.7154399,1.5941305,1.5941486Z" fill="none" stroke="#5b4d3c" stroke-miterlimit="10" stroke-width=".2968588"/>
        <path d="M68.213225,43.2397625c0,.881662-.7124684,1.5941305-1.5941305,1.5941305v-1.5941305h1.5941305Z" fill="none" stroke="#5b4d3c" stroke-miterlimit="10" stroke-width=".2968588"/>
        <path d="M66.6190945,43.2397625v1.5941305c-.8816801,0-1.5941305-.7124684-1.5941305-1.5941305h1.5941305Z" fill="none" stroke="#5b4d3c" stroke-miterlimit="10" stroke-width=".2968588"/>
        <path d="M66.6190945,41.6456139v1.5941486h-1.5941305c0-.8787087,.7124503-1.5941486,1.5941305-1.5941486Z" fill="none" stroke="#6f5e49" stroke-miterlimit="10" stroke-width=".2968588"/>
        <path d="M67.6106859,43.2397645h-.9915986v-.9916099c.5484211,0,.9915986,.4450258,.9915986,.9916099Z" fill="#5b4d3c"/>
        <path d="M67.6106859,43.2397645c0,.5484211-.4431775,.9915986-.9915986,.9915986v-.9915986h.9915986Z" fill="#312920"/>
        <path d="M66.6190873,43.2397645v.9915986c-.5484324,0-.9915986-.4431775-.9915986-.9915986h.9915986Z" fill="#6f5e49"/>
        <path d="M66.6190873,42.2481546v.9916099h-.9915986c0-.5465841,.4431662-.9916099,.9915986-.9916099Z" fill="#7b6851"/>
      </g>
      <g>
        <circle cx="30.2284591" cy="44.2975903" r="2.2658904" fill="#251f18"/>
        <path d="M31.8223022,44.2970697h-1.5941305v-1.5941486c.881662,0,1.5941305,.7154399,1.5941305,1.5941486Z" fill="none" stroke="#5b4d3c" stroke-miterlimit="10" stroke-width=".2968588"/>
        <path d="M31.8223022,44.2970697c0,.881662-.7124684,1.5941305-1.5941305,1.5941305v-1.5941305h1.5941305Z" fill="none" stroke="#5b4d3c" stroke-miterlimit="10" stroke-width=".2968588"/>
        <path d="M30.2281717,44.2970697v1.5941305c-.8816801,0-1.5941305-.7124684-1.5941305-1.5941305h1.5941305Z" fill="none" stroke="#5b4d3c" stroke-miterlimit="10" stroke-width=".2968588"/>
        <path d="M30.2281717,42.7029211v1.5941486h-1.5941305c0-.8787087,.7124503-1.5941486,1.5941305-1.5941486Z" fill="none" stroke="#6f5e49" stroke-miterlimit="10" stroke-width=".2968588"/>
        <path d="M31.2197631,44.2970717h-.9915986v-.9916099c.5484211,0,.9915986,.4450258,.9915986,.9916099Z" fill="#5b4d3c"/>
        <path d="M31.2197631,44.2970717c0,.5484211-.4431775,.9915986-.9915986,.9915986v-.9915986h.9915986Z" fill="#312920"/>
        <path d="M30.2281645,44.2970717v.9915986c-.5484324,0-.9915986-.4431775-.9915986-.9915986h.9915986Z" fill="#6f5e49"/>
        <path d="M30.2281645,43.3054618v.9916099h-.9915986c0-.5465841,.4431662-.9916099,.9915986-.9916099Z" fill="#7b6851"/>
      </g>
      <path d="M66.5258217,44.9740353c-1.9529946,4.3834763-5.2861054,10.495212-10.8967528,16.5905711-4.3843083,4.7630761-8.8325746,8.074714-12.3692884,10.3077339" fill="none" stroke="#252624" stroke-miterlimit="10" stroke-width="1.1327235"/>
    </g>
    <g>
      <line x1="64.9551166" y1="65.2950172" x2="59.4085714" y2="79.9221896" fill="none" stroke="#2b241c" stroke-miterlimit="10" stroke-width="1.0144124"/>
      <line x1="59.261318" y1="65.1968483" x2="65.3477924" y2="80.1185275" fill="none" stroke="#2b241c" stroke-miterlimit="10" stroke-width="1.0144124"/>
      <path d="M59.3594859,65.3441077c-1.8815712,5.0393477-3.7631419,10.0786633-5.6447132,15.118011" fill="none" stroke="#2b241c" stroke-miterlimit="10" stroke-width="1.0144124"/>
      <line x1="54.156533" y1="65.8349464" x2="59.4085714" y2="79.971274" fill="none" stroke="#2b241c" stroke-miterlimit="10" stroke-width="1.0144124"/>
    </g>
    <g>
      <line x1="65.10237" y1="79.9221896" x2="59.5558248" y2="94.5493619" fill="none" stroke="#2b241c" stroke-miterlimit="10" stroke-width="1.0144124"/>
      <line x1="59.4085714" y1="79.8240206" x2="65.4950458" y2="94.7456998" fill="none" stroke="#2b241c" stroke-miterlimit="10" stroke-width="1.0144124"/>
      <path d="M59.5067393,79.97128c-1.8815712,5.0393477-3.7631419,10.0786633-5.6447132,15.118011" fill="none" stroke="#2b241c" stroke-miterlimit="10" stroke-width="1.0144124"/>
      <line x1="54.3037864" y1="80.4621188" x2="59.5558248" y2="94.5984464" fill="none" stroke="#2b241c" stroke-miterlimit="10" stroke-width="1.0144124"/>
    </g>
    <g>
      <line x1="45.8612574" y1="65.4913551" x2="40.3147122" y2="80.1185275" fill="none" stroke="#26201b" stroke-miterlimit="10" stroke-width="1.0144124"/>
      <line x1="40.1674588" y1="65.3931862" x2="46.2539332" y2="80.3148653" fill="none" stroke="#26201b" stroke-miterlimit="10" stroke-width="1.0144124"/>
      <path d="M40.2656267,65.5404456c-1.8815712,5.0393477-3.7631419,10.0786633-5.6447132,15.118011" fill="none" stroke="#26201b" stroke-miterlimit="10" stroke-width="1.0144124"/>
      <line x1="35.0626738" y1="66.0312843" x2="40.3147122" y2="80.1676119" fill="none" stroke="#26201b" stroke-miterlimit="10" stroke-width="1.0144124"/>
    </g>
    <path d="M35.9298318,135.2894728h21.7280616c-.589015-17.3868006-1.1780262-34.7736254-1.7670412-52.1604261h-16.492382c-1.1562128,17.3868006-2.3124256,34.7736254-3.4686384,52.1604261Z" fill="#344e41"/>
    <g>
      <path d="M65.043324,79.9134007c.4377816,.6128638,.8683384,1.2382035,1.2909261,1.8762976,6.4578748,9.7512745,9.5521069,20.2117832,10.6302005,30.3137122-8.2781894,13.0466288-16.5563745,26.0932266-24.8345597,39.1398554-.4479416-23.5011318-.8958832-47.0022326-1.3438248-70.5033644,4.7524179-.27549,9.50484-.5510109,14.257258-.8265009Z" fill="#5b4d3c"/>
      <path d="M63.4422723,79.806319c1.5338538,2.6926136,3.051301,5.6341866,4.4842325,8.8239762,3.0153858,6.7124332,4.975147,13.0074367,6.2673022,18.5378232-6.1289595,10.6777059-12.2579189,21.3554118-18.3868826,32.0331177-1.2530917-19.2004665-2.5061834-38.400933-3.759275-57.6013995l11.3946229-1.7935175Z" fill="#6f5e49"/>
      <line x1="53.6017878" y1="84.2069388" x2="62.0188534" y2="124.7927773" fill="none" stroke="#5b4d3c" stroke-miterlimit="10" stroke-width="1.0544361"/>
      <line x1="71.9976911" y1="106.0532397" x2="59.0966652" y2="81.070016" fill="none" stroke="#5b4d3c" stroke-miterlimit="10" stroke-width="1.0544361"/>
      <line x1="55.809418" y1="81.905122" x2="67.0082722" y2="115.4230085" fill="none" stroke="#5b4d3c" stroke-miterlimit="10" stroke-width="1.0544361"/>
    </g>
    <g>
      <path d="M66.7916158,68.5119178l-.4901407,2.7912826-.6491009,3.5983708-.2782207,1.6030922-2.1593034,.0560364-27.3025016,.7174573-2.1460432,.0560364h-.0794801v-.011221c-.0662199-.7734937-.1457-1.5469874-.2119199-2.3204811-.0927402-1.0425231-.1854805-2.0738252-.2782207-3.1051958-.0662199-.7734937-.1457-1.5469874-.2119199-2.3204811,2.5434437-3.7889218,5.7095487-7.9366408,9.6571945-12.2188744,2.5170042-2.7128043,5.0206674-5.1454266,7.4449313-7.3089511,.1060004,.0896993,.2119199,.1905511,.3179204,.2802504,.8213212,.7286783,1.6559025,1.502172,2.4904839,2.2980392,1.695683,1.5918713,3.4045453,3.3181888,5.1399279,5.1678685,3.4840254,3.7441064,6.3586496,7.3649191,8.7563932,10.7167708Z" fill="#5b4d3c"/>
      <path d="M50.0355571,53.8377397c-2.0847892,1.8610977-4.2445346,3.9542286-6.4032486,6.2943884-3.4023443,3.6883449-6.1309147,7.262706-8.3168712,10.5173585,.2003501,2.228032,.4006959,4.4560934,.601046,6.6841253l27.2906383-.7163688,1.2126757-6.8851069c-2.0539042-2.8774069-4.5392718-5.9998393-7.5393841-9.2263273-2.3181785-2.4931202-4.6293941-4.7103401-6.8448562-6.6680692Z" fill="#6f5e49"/>
      <polygon points="50.0821907 57.2867143 40.6890028 68.4158351 40.5666736 72.6821764 59.6663916 72.6821764 59.410679 67.6146176 50.0821907 57.2867143" fill="none" stroke="#5b4d3c" stroke-miterlimit="10" stroke-width="1.2186121"/>
      <line x1="55.2127481" y1="62.2374029" x2="55.2127481" y2="72.4728203" fill="none" stroke="#5b4d3c" stroke-miterlimit="10" stroke-width="1.1027419"/>
      <line x1="45.385075" y1="62.2374029" x2="45.385075" y2="72.4728203" fill="none" stroke="#5b4d3c" stroke-miterlimit="10" stroke-width="1.1027419"/>
      <line x1="50.202519" y1="58.0361411" x2="50.202519" y2="69.3470413" fill="none" stroke="#5b4d3c" stroke-miterlimit="10" stroke-width="1.2186121"/>
    </g>
    <g>
      <path d="M69.7653985,182.5414577c-2.5742092,.3054258-5.1484184,.6108206-7.7226277,.9162465-1.8644758-5.6723262-3.6725975-13.0297261-4.3194332-21.7280771-.4184436-5.6270664-.2679944-10.7004286,.1308918-15.0525451,3.048589,.4046443,7.2821695,.4955972,11.9111691-.9816904,1.0386598-.331461,1.998533-.7104106,2.8796195-1.1125783-.21082,5.4009226-.5117569,10.9447755-.9162465,16.6232622-.5242792,7.360248-1.1890431,14.4764587-1.9633731,21.3353824Z" fill="#251f18"/>
      <path d="M68.5873684,167.4888817c-.5540912,7.0261866-.9435045,9.0123211-.2617836,12.6965315,.2861393,1.5463845,.8133982,3.6751398,.2617836,3.9267617-.6486196,.29586-2.4211558-2.1715075-3.2722988-3.5340979-2.8889261-4.6248203-3.1075357-9.2401676-3.4031906-12.8928633-1.2177329-15.04462-4.1519497-18.4825332-1.1780262-21.4008263,1.8002972-1.7666155,5.0530774-2.7474701,7.0681648-1.5706861,2.4392427,1.4244742,1.904051,8.5894429,.7853508,22.7751805Z" fill="#312920"/>
      <path d="M62.3868919,193.5620299c1.0064486,.9722794,2.0340798,.4459105,8.0624394,.2749947,5.682457-.1611024,6.5481655,.1797078,7.0189038-.552435,1.6041511-2.4949505-5.0073068-12.0934502-10.4515698-11.0703697-1.6308209,.3064784-2.7167217,1.4832933-3.2482294,2.0592869-2.4965216,2.7055538-3.2883889,7.4464024-1.3815441,9.2885231Z" fill="#2f2622"/>
      <path d="M63.4410138,193.722876c.7363803,.3216335,2.9070946,.2422422,7.2184846,.0702938,3.8687869-.1542752,5.8156149-.2383336,6.4253334-.5768939,.1628327-.0904012,.434059-.2363137,.5446929-.5283999,.5560954-1.4680988-3.7580981-4.2024099-4.4823241-4.6614207-1.5835864-1.0036788-2.3990754-1.5041891-3.5601615-1.4390826-1.1084282,.062129-1.8440641,.5996633-3.1155876,1.5559776-1.4535365,1.0932142-4.3671175,3.6858917-3.7279023,5.0132953,.1558014,.32355,.4763581,.4696702,.6974646,.5662306Z" fill="#333"/>
      <path d="M61.7155433,192.8164697c2.3786977-6.2846328,4.8039167-8.2200281,6.8718252-8.44255,3.5446698-.3814262,7.1247395,4.1532151,7.4608363,3.7795282,.2018578-.2244412-1.1325691-1.8123396-2.3069694-2.9450713-1.4692232-1.4171064-2.9067847-2.3328885-3.9267539-2.8959728-2.6342047,.2127084-5.2684016,.4253858-7.9026024,.6380941-.1399701,.4731221-.3566139,1.1903434-.638098,2.0615468-.6138738,1.8999181-.6828547,1.8912191-.7362678,2.3560446-.0951902,.8283893,.1315845,1.708849,.589015,3.4359319,.2226418,.8406175,.4345066,1.5314631,.589015,2.0124483Z" fill="#251f18"/>
      <circle cx="61.1265279" cy="149.0331246" r=".9162435" fill="#251f18"/>
      <circle cx="61.3883117" cy="154.6614773" r="1.1780273" fill="#251f18"/>
      <circle cx="61.9118794" cy="158.7191269" r="1.0471354" fill="#251f18"/>
      <rect x="57.7233379" y="164.6092634" width="13.7436519" height="1.8324869" fill="#251f18"/>
      <rect x="58.2469056" y="169.7140484" width="13.481868" height="1.8324869" fill="#251f18"/>
    </g>
    <path d="M28.0608703,154.203363h11.4159564c.3995434-2.4818246,.6322564-5.3943286,.4447772-8.6388819-.0832135-1.4401387-.2405413-2.7955779-.4447772-4.0576496-3.8053159,0-7.6106361,0-11.4159564,0-.2486544,1.0080971-.4562916,2.1011413-.5930362,3.272322-.431378,3.694643-.0117205,6.9203122,.5930362,9.4242094Z" fill="#6f5e49"/>
    <g>
      <path d="M28.5806829,182.4999873c2.5742092,.3054258,5.1484184,.6108206,7.7226277,.9162465,1.8644758-5.6723262,3.6725975-13.0297261,4.3194332-21.7280771,.4184436-5.6270664,.2679944-10.7004286-.1308918-15.0525451-3.048589,.4046443-7.2821695,.4955972-11.9111691-.9816904-1.0386598-.331461-1.998533-.7104106-2.8796195-1.1125783,.21082,5.4009226,.5117569,10.9447755,.9162465,16.6232622,.5242792,7.360248,1.1890431,14.4764587,1.9633731,21.3353824Z" fill="#251f18"/>
      <path d="M29.7587129,167.4474112c.5540912,7.0261866,.9435045,9.0123211,.2617836,12.6965315-.2861393,1.5463845-.8133982,3.6751398-.2617836,3.9267617,.6486196,.29586,2.4211558-2.1715075,3.2722988-3.5340979,2.8889261-4.6248203,3.1075357-9.2401676,3.4031906-12.8928633,1.2177329-15.04462,4.1519497-18.4825332,1.1780262-21.4008263-1.8002972-1.7666155-5.0530774-2.7474701-7.0681648-1.5706861-2.4392427,1.4244742-1.904051,8.5894429-.7853508,22.7751805Z" fill="#312920"/>
      <path d="M35.9591895,193.5205595c-1.0064486,.9722794-2.0340798,.4459105-8.0624394,.2749947-5.682457-.1611024-6.5481655,.1797078-7.0189038-.552435-1.6041511-2.4949505,5.0073068-12.0934502,10.4515698-11.0703697,1.6308209,.3064784,2.7167217,1.4832933,3.2482294,2.0592869,2.4965216,2.7055538,3.2883889,7.4464024,1.3815441,9.2885231Z" fill="#2f2622"/>
      <path d="M34.9050676,193.6814055c-.7363803,.3216335-2.9070946,.2422422-7.2184846,.0702938-3.8687869-.1542752-5.8156149-.2383336-6.4253334-.5768939-.1628327-.0904012-.434059-.2363137-.5446929-.5283999-.5560954-1.4680988,3.7580981-4.2024099,4.4823241-4.6614207,1.5835864-1.0036788,2.3990754-1.5041891,3.5601615-1.4390826,1.1084282,.062129,1.8440641,.5996633,3.1155876,1.5559776,1.4535365,1.0932142,4.3671175,3.6858917,3.7279023,5.0132953-.1558014,.32355-.4763581,.4696702-.6974646,.5662306Z" fill="#333"/>
      <path d="M36.6305381,192.7749992c-2.3786977-6.2846328-4.8039167-8.2200281-6.8718252-8.44255-3.5446698-.3814262-7.1247395,4.1532151-7.4608363,3.7795282-.2018578-.2244412,1.1325691-1.8123396,2.3069694-2.9450713,1.4692232-1.4171064,2.9067847-2.3328885,3.9267539-2.8959728,2.6342047,.2127084,5.2684016,.4253858,7.9026024,.6380941,.1399701,.4731221,.3566139,1.1903434,.638098,2.0615468,.6138738,1.8999181,.6828547,1.8912191,.7362678,2.3560446,.0951902,.8283893-.1315845,1.708849-.589015,3.4359319-.2226418,.8406175-.4345066,1.5314631-.589015,2.0124483Z" fill="#251f18"/>
      <circle cx="37.2195535" cy="148.9916542" r=".9162435" fill="#251f18"/>
      <circle cx="36.9577697" cy="154.6200068" r="1.1780273" fill="#251f18"/>
      <circle cx="36.434202" cy="158.6776564" r="1.0471354" fill="#251f18"/>
      <rect x="26.8790916" y="164.5677929" width="13.7436519" height="1.8324869" transform="translate(67.5018351 330.9680728) rotate(-180)" fill="#251f18"/>
      <rect x="26.6173078" y="169.6725779" width="13.481868" height="1.8324869" transform="translate(66.7164836 341.1776427) rotate(-180)" fill="#251f18"/>
    </g>
    <g>
      <path d="M40.8688015,142.7759529c-1.9923342,.2833731-4.2809513,.4768264-6.8120846,.4606285-2.4209435-.0154936-4.6154471-.2199381-6.5369117-.5068253,.020618-5.9577912,.0412431-11.9156133,.0618612-17.8734354,2.0102885,.1849752,4.1764238,.3033061,6.48082,.317169,2.4499718,.0147095,4.7464746-.0905179,6.8681833-.2709413-.0206216,5.9577912-.0412466,11.9156133-.0618682,17.8734044Z" fill="#312920"/>
      <g>
        <ellipse cx="34.4866196" cy="134.6977435" rx="6.4160552" ry="6.4700631" transform="translate(-100.3296855 168.7179276) rotate(-89.8016819)" fill="#251f18"/>
        <path d="M39.0376848,134.712023l-4.5518808-.0157564,.0156251-4.5139359c2.5174981,.0087144,4.5448684,2.0415713,4.5362557,4.5296923Z" fill="none" stroke="#5b4d3c" stroke-miterlimit="10" stroke-width=".8441106"/>
        <path d="M39.0376848,134.712023c-.0086416,2.4964837-2.0500076,4.5068425-4.5675057,4.4981282l.0156249-4.5138846,4.5518808,.0157564Z" fill="none" stroke="#5b4d3c" stroke-miterlimit="10" stroke-width=".8441106"/>
        <path d="M34.4858041,134.6962666l-.0156249,4.5138846c-2.5175498-.0087146-4.5448975-2.0331574-4.5362559-4.529641l4.5518808,.0157564Z" fill="none" stroke="#5b4d3c" stroke-miterlimit="10" stroke-width=".8441106"/>
        <path d="M34.5014292,130.1823307l-.0156251,4.5139359-4.5518808-.0157564c.0086127-2.488121,2.049956-4.506894,4.5675059-4.4981795Z" fill="none" stroke="#6f5e49" stroke-miterlimit="10" stroke-width=".8441106"/>
        <line x1="34.4701585" y1="139.2101449" x2="34.4515657" y2="144.5814203" fill="none"/>
        <line x1="34.519972" y1="124.8194979" x2="34.5014083" y2="130.1823675" fill="none"/>
        <line x1="39.0376683" y1="134.7120127" x2="45.7680158" y2="134.7353099" fill="none"/>
        <line x1="23.2120275" y1="134.6572319" x2="29.9338985" y2="134.6804998" fill="none"/>
        <path d="M37.3171944,134.7060732l-2.8314111-.009801,.0097193-2.8078082c1.5659619,.0054206,2.8270492,1.2699207,2.8216918,2.8176092Z" fill="#5b4d3c"/>
        <path d="M37.3171944,134.7060732c-.0053754,1.5528903-1.2751683,2.8033959-2.8411303,2.7979753l.0097192-2.8077763,2.8314111,.009801Z" fill="#312920"/>
        <path d="M34.4857833,134.6962722l-.0097192,2.8077763c-1.5659941-.0054207-2.8270673-1.264687-2.8216919-2.8175773l2.8314111,.009801Z" fill="#6f5e49"/>
        <path d="M34.4955026,131.888464l-.0097193,2.8078082-2.8314111-.009801c.0053574-1.5476885,1.2751363-2.8034279,2.8411304-2.7980072Z" fill="#7b6851"/>
      </g>
    </g>
    <g>
      <path d="M34.827213,79.9134007c-.4377816,.6128638-.8683384,1.2382035-1.2909261,1.8762976-6.4578748,9.7512745-9.5521069,20.2117832-10.6302005,30.3137122,8.2781894,13.0466288,16.5563745,26.0932266,24.8345597,39.1398554,.4479416-23.5011318,.8958832-47.0022326,1.3438248-70.5033644-4.7524179-.27549-9.50484-.5510109-14.257258-.8265009Z" fill="#5b4d3c"/>
      <path d="M36.4282647,79.806319c-1.5338538,2.6926136-3.051301,5.6341866-4.4842325,8.8239762-3.0153858,6.7124332-4.975147,13.0074367-6.2673022,18.5378232,6.1289595,10.6777059,12.2579189,21.3554118,18.3868826,32.0331177,1.2530917-19.2004665,2.5061834-38.400933,3.759275-57.6013995l-11.3946229-1.7935175Z" fill="#6f5e49"/>
      <line x1="46.2687492" y1="84.2069388" x2="37.8516836" y2="124.7927773" fill="none" stroke="#5b4d3c" stroke-miterlimit="10" stroke-width="1.0544361"/>
      <line x1="27.8728459" y1="106.0532397" x2="40.7738718" y2="81.070016" fill="none" stroke="#5b4d3c" stroke-miterlimit="10" stroke-width="1.0544361"/>
      <line x1="44.061119" y1="81.905122" x2="32.8622648" y2="115.4230085" fill="none" stroke="#5b4d3c" stroke-miterlimit="10" stroke-width="1.0544361"/>
    </g>
    <g>
      <rect x="32.8538726" y="73.5842784" width="33.2792713" height="6.7856859" fill="#251f18"/>
      <g>
        <ellipse cx="49.5660779" cy="77.7137484" rx="6.6147722" ry="6.3683743" fill="#251f18"/>
        <path d="M44.9132845,77.6868809l4.653641,.025409,.0263924-4.4803454c-2.5737784-.0140529-4.6654856,1.9853308-4.6800333,4.4549365Z" fill="none" stroke="#5b4d3c" stroke-miterlimit="10" stroke-width=".8503207"/>
        <path d="M44.9132845,77.6868809c-.0145966,2.4779061,2.0534705,4.4916506,4.6272489,4.5057035l.0263921-4.4802945-4.653641-.025409Z" fill="none" stroke="#5b4d3c" stroke-miterlimit="10" stroke-width=".8503207"/>
        <path d="M49.5669254,77.7122899l-.0263921,4.4802945c2.5738313,.0140532,4.6654364-1.9769795,4.680033-4.4548856l-4.653641-.025409Z" fill="none" stroke="#5b4d3c" stroke-miterlimit="10" stroke-width=".8503207"/>
        <path d="M49.5933178,73.2319444l-.0263924,4.4803454,4.653641,.025409c.0145477-2.4696056-2.0534173-4.4917012-4.6272486-4.5057544Z" fill="none" stroke="#6f5e49" stroke-miterlimit="10" stroke-width=".8503207"/>
        <line x1="49.5405546" y1="82.1925784" x2="49.5091495" y2="87.5238834" fill="none"/>
        <line x1="49.6246947" y1="67.9090194" x2="49.5933387" y2="73.2319812" fill="none"/>
        <line x1="44.9133015" y1="77.6868708" x2="38.0324928" y2="77.6493015" fill="none"/>
        <line x1="61.0927345" y1="77.7752108" x2="54.2205918" y2="77.7376888" fill="none"/>
        <path d="M46.6722375,77.6964905l2.8947091,.0158052,.0164169-2.7869139c-1.60097-.0087413-2.9020768,1.2349374-2.9111259,2.7711087Z" fill="#5b4d3c"/>
        <path d="M46.6722375,77.6964905c-.0090795,1.5413345,1.2773224,2.7939461,2.8782924,2.8026874l.0164167-2.7868822-2.8947091-.0158052Z" fill="#312920"/>
        <path d="M49.5669465,77.7122956l-.0164167,2.7868822c1.6010029,.0087415,2.9020462-1.2297426,2.9111258-2.7710771l-2.8947091-.0158052Z" fill="#6f5e49"/>
        <path d="M49.5833634,74.9253817l-.0164169,2.7869139,2.8947091,.0158052c.0090491-1.5361713-1.2772893-2.7939775-2.8782922-2.802719Z" fill="#7b6851"/>
      </g>
      <g>
        <path d="M44.2548175,69.9689267c-.2471446,.5143484-2.5015396,.0164961-5.0353313-1.11199-2.5337792-1.1284851-4.3874707-2.4602513-4.1403239-2.9746236,.2471508-.5143478,2.5015396-.0164961,5.0353313,1.11199s4.3874707,2.4602513,4.1403239,2.9746236Z" fill="#312920"/>
        <line x1="38.1724825" y1="80.2685548" x2="37.8525853" y2="82.1006474" fill="none"/>
        <line x1="40.387155" y1="67.4754938" x2="40.2313077" y2="68.3757463" fill="none"/>
        <path d="M40.2313117,68.3757193l-2.0588333,11.8928066h-3.1989915v-14.2855577c1.7553451,.7975998,3.5024797,1.5951514,5.2578248,2.3927511Z" fill="#474a45"/>
        <path d="M44.2012893,70.1762473c-.885833,3.3641089-1.7635055,6.7282178-2.6493886,10.0922786h-3.3794223l2.0588333-11.8928066c1.320589,.600176,2.6493886,1.200352,3.9699776,1.800528Z" fill="#585b56"/>
        <path d="M43.5644248,82.4045441c-1.183326-.2964731-2.5688856-.5619541-4.1277043-.7132753-2.0956428-.2034246-3.9497517-.1466942-5.464802,0v-1.422743h8.639963c.3175186,.7119981,.6350247,1.4240202,.9525433,2.1360183Z" fill="#251f18"/>
        <path d="M32.9805703,105.2620703c.2114988-2.037933,.4229923-4.0758419,.6344912-6.1137749,.4532087-5.9372454,.9064121-11.874515,1.3596209-17.8117604h6.2122016v10.7060949c-.1208014,1.5467112-.6203209,5.5176717-3.3593067,9.1171131-1.7220249,2.262999-3.6453122,3.4803653-4.847007,4.1023273Z" fill="#251f18"/>
        <polygon points="40.0251031 82.4045441 39.66699 94.4282977 34.9709557 101.8157698 35.9440509 82.1006474 40.0251031 82.4045441" fill="#312920"/>
      </g>
    </g>
    <path d="M66.6342655,50.471514c-.153154,.2537579,2.4001667,3.0337952,6.0250858,3.403179,3.0277198,.3085215,5.6761881-1.1795702,5.6140179-1.4397982-.0532235-.2228005-2.07119,.5460887-5.0115093,.2617759-4.0563029-.3922304-6.4848111-2.4617332-6.6275944-2.2251567Z" fill="#344e41"/>
    <path d="M77.749802,52.173088c.0060057,.1526819-1.8946941,.4823164-3.9922056,.3926947-2.2031692-.0941415-4.1442375-.6303857-4.1230936-.7853585,.0102082-.0748241,.47556-.0443001,4.1230936,.1308879,3.4930406,.1677582,3.9891486,.1840728,3.9922056,.2617759Z" fill="#213027"/>
    <path d="M67.6709609,52.4348949c-.1986613,.0900551,.3540573,4.9431863,4.1042312,7.1990527,2.5913177,1.5587675,6.4139162,1.6997475,7.2312495,.2617759,.6009298-1.0572575-.4642929-2.8948893-.521171-2.8796273-.0426259,.0114233,.5245915,1.0520257,.1302966,1.701605-.6982305,1.1503154-4.2773232,.8532481-6.8403751-.7853585-3.1788888-2.032323-3.9309159-5.5760177-4.1042312-5.4974478Z" fill="#344e41"/>
    <path d="M79.05872,58.3904813c.0559787,.1646315-1.1286452,.963797-2.552392,1.1125783-2.2549764,.2356168-4.1960602-1.2557873-4.1230936-1.4398291,.0631841-.1593687,1.6054513,.7396963,4.0576496,.6544706,1.5578001-.0541445,2.5680332-.4737103,2.617836-.3272198Z" fill="#213027"/>
    <path d="M31.6758467,52.0422001c.1897573,.1796458-1.5393688,3.6104698-5.03934,4.8430081-2.4457418,.8612661-5.6984968,.6287759-6.2173662-.6544706-.4033325-.9975097,.8618156-2.5890301,1.1780262-2.4869325,.2384765,.0769911-.2175377,1.0672877,.2617836,1.701605,.9159407,1.2121374,4.3875588-.0133736,4.7121105-.1308879,3.3338789-1.2071532,4.9417371-3.4266757,5.1047859-3.272322Z" fill="#344e41"/>
    <path d="M21.7280585,57.4087909c-.2872306-.042876-1.3865301,1.9946478-.654459,3.403179,.8304519,1.5978048,3.6425436,1.5717077,5.1047859,1.3089102,3.9055849-.7019593,6.0683933-4.5232181,5.8901367-4.7120892-.1450858-.1537345-1.9116781,2.0238097-5.3665695,3.0105152-1.0000056,.2856131-3.2570387,.9312298-4.3194332-.1309189-.9812454-.9810094-.3843266-2.8392588-.6544609-2.8795963Z" fill="#344e41"/>
    <path d="M29.4506823,58.979477c.0695574,.1796768-3.3705093,2.6594272-5.8901367,1.4398291-1.1429901-.5532399-1.8676354-1.7569259-1.7015953-1.9633808,.1762657-.2191475,1.2491624,.8187616,3.0105152,1.1780223,2.5474756,.5196201,4.5289084-.7895997,4.5812168-.6544706Z" fill="#213027"/>
    <path d="M25.6548163,54.9872714c.0512113,.1950936-2.496034,1.5800662-3.4031887,.7199146-.4632815-.4392856-.4370316-1.4055283-.1308918-1.570717,.2835234-.1529606,.6323573,.4754129,1.5707016,.7853585,1.0842484,.3581153,1.9340313-.0463742,1.9633789,.065444Z" fill="#213027"/>
    <g>
      <g>
        <path d="M93.490264,36.7975951c.9555582,.0607248,10.8364106,42.1141424-13.7442458,69.3141108-23.0693464,25.527614-62.2011909,22.1575266-62.4439576,21.0369069-.2389118-1.1028359,37.1702304-.1023794,59.3793733-25.5443364,22.9084688-26.2430771,15.891496-64.8649528,16.8088301-64.8066813Z" fill="#251f18"/>
        <path d="M15.7193157,128.0565308c2.4588023-2.3638452,6.7870433-1.4814314,6.8961497-.8749626,.0765467,.4255103-1.9598805,.5147644-4.1325974,2.318812-2.9566835,2.4549949-3.2383333,5.6547974-3.8208788,5.5251306-.6655685-.1481286-1.4308039-4.5769373,1.0573266-6.96898Z" fill="#251f18"/>
        <path d="M95.1490027,35.1471018c2.4588023-2.3638452,6.7870433-1.4814314,6.8961497-.8749626,.0765467,.4255103-1.9598805,.5147644-4.1325974,2.318812-2.9566835,2.4549949-3.2383333,5.6547974-3.8208788,5.5251306-.6655685-.1481286-1.4308039-4.5769373,1.0573266-6.96898Z" fill="#251f18"/>
      </g>
      <line x1="93.9968382" y1="38.8995229" x2="16.8824241" y2="128.3013985" fill="none" stroke="#251f18" stroke-miterlimit="10" stroke-width="1.0945727"/>
    </g>
    <path d="M79.7786268,94.451189c-.4581232,.065444-.9162387,.1308879-1.3743619,.1963319-1.5707016-8.1152992-3.1414109-16.2305984-4.7121125-24.3458976l5.3011236-.5889957,.7853508,24.7385614Z" fill="#605243"/>
    <path d="M77.5207404,98.2797847c-.6843677,1.9755161-.6304244,4.4879885,.0981659,4.7121202,.6898704,.212244,1.1790749-1.8748736,3.9267617-4.1231245,1.4322368-1.1718927,2.2769871-1.4047853,2.2578864-2.0615468-.0293244-1.0082519-2.0712984-2.2156528-3.730422-1.767018-1.5779379,.426686-2.1862742,2.1827141-2.552392,3.2395691Z" fill="#5b4d3c"/>
    <path d="M73.5223704,111.1887658c.9757519,0,.9487903-3.0427737-.0531118-3.0427737-.9757519,0-.9487903,3.0427737,.0531118,3.0427737h0Z" fill="#302922"/>
    <path d="M71.6571605,112.6612999c1.3130969,0,1.2752253-3.0427737-.0531118-3.0427737-1.3130969,0-1.2752253,3.0427737,.0531118,3.0427737h0Z" fill="#302922"/>
    <path d="M69.3992749,114.6246788c.7566798,0,.7367099-3.0427737-.0531118-3.0427737-.7566798,0-.7367099,3.0427737,.0531118,3.0427737h0Z" fill="#302922"/>
    <path d="M67.7304029,115.8027061c1.3189636,0,1.2809136-3.0427737-.0531118-3.0427737-1.3189636,0-1.2809136,3.0427737,.0531118,3.0427737h0Z" fill="#302922"/>
    <path d="M65.5706862,117.0789023c.7747652,0,.7542499-3.0427737-.0531118-3.0427737-.7747652,0-.7542499,3.0427737,.0531118,3.0427737h0Z" fill="#302922"/>
    <path d="M84.2227851,99.015817c.6678903,0,.6504583-3.0427737-.0531118-3.0427737-.6678903,0-.6504583,3.0427737,.0531118,3.0427737h0Z" fill="#302922"/>
    <path d="M85.5971503,96.8561003c.5936382,0,.5780978-3.0427737-.0531118-3.0427737-.5936382,0-.5780978,3.0427737,.0531118,3.0427737h0Z" fill="#302922"/>
    <path d="M86.6770086,94.5000457c.8636427,0,.8403443-3.0427737-.0531118-3.0427737-.8636427,0-.8403443,3.0427737,.0531118,3.0427737h0Z" fill="#302922"/>
    <path d="M88.3458807,91.9476532c1.2739441,0,1.2372778-3.0427737-.0531118-3.0427737-1.2739441,0-1.2372778,3.0427737,.0531118,3.0427737h0Z" fill="#302922"/>
    <path d="M89.425739,89.0025849c.6819118,0,.6640968-3.0427737-.0531118-3.0427737-.6819118,0-.6640968,3.0427737,.0531118,3.0427737h0Z" fill="#302922"/>
    <path d="M90.5055974,86.7446993c.6125149,0,.5965174-3.0427737-.0531118-3.0427737-.6125149,0-.5965174,3.0427737,.0531118,3.0427737h0Z" fill="#302922"/>
    <path d="M94.8966466,51.256872c.0572712,5.4349746-.2344464,10.862405-.944122,16.2547767-.4697743,3.9073854-1.3507947,7.3543252-3.025999,10.9419285-.0177769-.1057733-.1727577-.2169632-.2861627-.169519,.9759277-.99853,1.8728417-2.3872127,2.7837622-3.5648058-.6333859,1.2058172-1.3000004,2.3763952-2.0667622,3.527915-.1773203,.238297-.5363074,.7991089-.8905068,.4746655-.0673647-.0791401-.088888-.1474524-.0920506-.2273403,.020505-.5057959,.2212412-.9004392,.3670203-1.3460064,1.3082004-3.1123124,1.7179555-6.4272526,2.2062958-9.7746388,.7323768-5.2652105,1.2338625-10.8401781,1.9485251-16.1169754h0Z" fill="#302922"/>
    <path d="M63.5807506,117.6190699c-9.8506216,5.9087853-21.3257856,9.2048133-32.8211848,9.4311535-.1430991-.0038365-.9702066-.0059201-1.1026859-.0190957-.1813198-.0174245-.2902363,.0155431-.4987338-.1395411-.4051041-.3022782-.0600608-.8230319,.3771928-.8114598,6.3349166-.4416279,12.5335536-1.936064,18.4365467-4.3379789-5.6929338,2.9007709-11.9697481,4.7156792-18.3463934,5.2365344,0-.0000086-.0505924,.0048285-.0505924,.0048285,0,0-.0252953,.0024109-.0252953,.0024109,.2095528,.0065864,.3923788-.3200958,.3231736-.4644031,.034799-.1838295-.1599518-.4076164-.3141692-.404168,.0299614,.0007003,.1160053,.0052878,.1472948,.006281-.0000092,.0000007,.2021374,.005738,.2021374,.005738,11.6732288-.2082987,23.2103888-3.3911109,33.6727095-8.5102997h0Z" fill="#302922"/>
    <circle cx="72.4159562" cy="74.228391" r=".9816894" fill="#605243"/>
    <circle cx="80.8584852" cy="85.4196503" r="1.0798584" fill="#605243"/>
    <circle cx="76.5390517" cy="72.2650121" r="1.668872" fill="#5b4d3c"/>
    <g>
      <path d="M24.8490619,95.4295504c1.2993754,4.0280853,1.2092119,8.6077077,.3926715,8.7697698-.7697173,.1527439-2.2508978-3.6068478-2.8796273-6.675501-.5775879-2.8190127-.7068815-6.3781861,0-6.5445821,.6413447-.1509793,1.8630866,2.5163111,2.4869558,4.4503134Z" fill="#383028"/>
      <path d="M17.8790708,96.182187c.9528226-.6459573,2.6948735,.4981047,2.7814459,.5562737,1.4155121,.9509497,1.7708567,2.5842626,2.1269907,4.2212595,.3273591,1.5046849,.0800094,1.6306506,.3599573,3.4686539,.4514364,2.9638934,1.3284211,4.1712633,.9489684,4.4503134-.5318638,.3911159-2.992885-1.4381265-4.6466607-3.9922056-2.0840838-3.2186109-2.987065-7.7440579-1.5707016-8.7042949Z" fill="#383028"/>
      <path d="M22.7547854,96.3457969c.0429844,3.2296008,.8069513,4.2972599,.1309034,4.8430081-1.1299455,.9121291-4.8992268-.7504076-5.4974632-3.1414031-.1385654-.5538281,.038511-1.4599824,.3926638-3.272322,.3246813-1.6615151,.4955972-2.502628,.9162465-3.0105152,1.0078649-1.2169048,3.1515262-1.8086867,4.0576496-1.0471344,.8490844,.7135992-.0474732,2.0615777,0,5.6283666Z" fill="#312920"/>
      <path d="M22.4192334,99.5899103c.3626194,3.2033159,.9001508,5.9482163,1.742728,9.0597052-2.1854391-2.3502055-2.8981927-6.0665576-1.742728-9.0597052h0Z" fill="#312920"/>
      <path d="M20.871832,99.2534388c.3673418,3.216928,.9082075,5.9759945,1.7521506,9.1016668-2.1903651-2.3645381-2.9061676-6.0930552-1.7521506-9.1016668h0Z" fill="#312920"/>
      <path d="M19.3614751,98.8206842c.3673399,2.8960692,.9222606,5.3139518,1.8402754,8.0851092-2.1518291-1.9590832-2.9259206-5.3878213-1.8402754-8.0851092h0Z" fill="#312920"/>
      <path d="M18.1941053,95.3724878c.0382031,2.9190115,.3167426,5.384093,.916201,8.2411247-1.9170199-2.189374-2.2992738-5.6835533-.916201-8.2411247h0Z" fill="#312920"/>
    </g>
    <circle cx="21.2044915" cy="75.6027561" r="1.3089192" fill="#6f5e49"/>
    <path d="M77.2262348,101.3230219c-.4140476,2.0190113,.1809228,4.8044352,1.6688753,5.2929431,2.3284074,.7644004,7.2628327-3.9580596,6.4791459-7.7398168-.0283028-.1365841-.4435113-2.0110862-1.8652071-2.5445752-2.1379729-.8022613-5.6235373,1.7766148-6.282814,4.9914489Z" fill="#5b4d3c"/>
  </g>
</svg>