<?xml version="1.0" encoding="UTF-8"?>
<svg id="_Шар_2" data-name="Шар 2" xmlns="http://www.w3.org/2000/svg" viewBox="0 0 23.65 23.29">
  <g id="sattel">
    <g>
      <path d="M22.83,5.2c1.62,2.66-6.07,14.55-14.18,13.03C2.76,17.13-.49,9.48,.06,8.01c.04-.1,.34-.83,.68-1.9,.27-.85,.27-1.02,.34-1.17,.67-1.51,6.64-.16,11.16,.23,7.25,.63,9.78-1.29,10.59,.03Z" fill="#8c6a41"/>
      <path d="M20.11,5.98c1.23,2.02-4.61,11.05-10.77,9.9-4.48-.84-6.95-6.64-6.53-7.76,.03-.08,.26-.63,.51-1.45,.2-.64,.21-.77,.26-.89,.51-1.15,5.04-.12,8.48,.17,5.51,.47,7.43-.98,8.04,.02Z" fill="#49290a"/>
      <path d="M5.1,6.86c.16-.55,.16-.66,.2-.76,.4-.98,3.95-.11,6.65,.15,4.32,.41,5.82-.84,6.3,.02,.11,.2,.15,.49,.12,.84" fill="none" stroke="#1c0e02" stroke-miterlimit="10" stroke-width=".66"/>
      <path d="M4.71,8.79c-.05-.31-.06-.55,0-.69,0-.02,.03-.08,.07-.18" fill="none" stroke="#1c0e02" stroke-miterlimit="10" stroke-width=".66"/>
      <path d="M5.2,10.32c-.11-.24-.2-.47-.27-.69" fill="none" stroke="#1c0e02" stroke-miterlimit="10" stroke-width=".66"/>
      <path d="M11.85,14.67c-.66,.17-1.35,.21-2.04,.07-2.24-.46-3.84-2.65-4.62-4.42" fill="none" stroke="#1c0e02" stroke-miterlimit="10" stroke-width=".66"/>
      <path d="M13.43,14c-.26,.15-.52,.28-.78,.4" fill="none" stroke="#1c0e02" stroke-miterlimit="10" stroke-width=".66"/>
      <path d="M14.88,12.92c-.22,.2-.46,.39-.69,.57" fill="none" stroke="#1c0e02" stroke-miterlimit="10" stroke-width=".66"/>
      <path d="M15.94,11.84c-.16,.18-.32,.36-.48,.53" fill="none" stroke="#1c0e02" stroke-miterlimit="10" stroke-width=".66"/>
      <path d="M16.87,10.62c-.15,.23-.32,.46-.49,.68" fill="none" stroke="#1c0e02" stroke-miterlimit="10" stroke-width=".66"/>
      <path d="M17.62,9.35c-.11,.22-.23,.44-.37,.66" fill="none" stroke="#1c0e02" stroke-miterlimit="10" stroke-width=".66"/>
      <path d="M18.21,7.91c-.07,.23-.16,.48-.26,.73" fill="none" stroke="#1c0e02" stroke-miterlimit="10" stroke-width=".66"/>
      <path d="M8.8,16.96h-2.02c-1,0-1.77-.86-1.67-1.85,.36-3.61,.72-7.22,1.08-10.83h3.8c.34,3.41,.68,6.82,1.02,10.23,.13,1.31-.9,2.45-2.22,2.45Z" fill="#543614"/>
      <path d="M7.92,22.68v.61h-2.88v-2.37c0-.78,.62-1.41,1.38-1.41h.91v.63c-.77,.01-1.38,.63-1.38,1.39v1.14h1.97Z" fill="#515050"/>
      <path d="M10.65,20.77v2.52h-2.73v-.61h1.8v-1.29c0-.69-.55-1.23-1.23-1.24v-.63h.91c.68,0,1.24,.56,1.24,1.25Z" fill="#6d6c6c"/>
      <rect x="7.34" y="16.96" width=".58" height="3.36" fill="#2d2c2c"/>
      <path d="M9.73,21.4v1.28h-1.8v-2.36h.57v-.15c.68,.01,1.23,.55,1.23,1.23Z" fill="#494646"/>
      <path d="M7.92,20.32v2.36h-1.97v-1.13c0-.76,.61-1.37,1.38-1.38v.15h.58Z" fill="#2d2c2c"/>
      <rect x="7.92" y="16.96" width=".57" height="3.36" fill="#494646"/>
      <path d="M16.14,5.22c-5.09,1.85-14.76-.47-14.83-.05-.49-.42-.84-.93-.98-1.52C.09,2.59,.48,1.31,1.14,.61c.88-.93,2.08-.7,3.79-.01-.13,.41,3.27,2.88,7.62,4.01,1.24,.32,2.47,.51,3.59,.61Z" fill="#72481e"/>
      <rect x="7.35" y="5.94" width="1.15" height="10.49" rx=".45" ry=".45" fill="#664321"/>
      <path d="M17.83,4.32c-.15,.1-.27,.18-.34,.23-.39,.27-.84,.48-1.33,.67h-.01c-1.12-.1-2.35-.29-3.59-.61C8.2,3.48,4.8,1.01,4.93,.6c1.8,.7,4.16,1.9,7.25,2.74,2.11,.58,4.02,.85,5.64,.98Z" fill="#7c5331"/>
      <path d="M22.97,3.8c-.19,1.2-1.81,1.94-2.38,1.58-.4-.26-.31-1.08-.21-1.96,.1-.87,.19-1.75,.64-1.9,.65-.22,2.16,1.01,1.95,2.29Z" fill="#7c5331"/>
      <path d="M23.65,4.42c.04,1.03-5.12,2.27-9.32,2.6-.19,.01-.38,.03-.57,.04-6.24,.37-11.21-1.14-12.23-1.7-.05-.04-.09-.06-.1-.08-.04-.04-.08-.08-.11-.11,.06-.46,11.73,2.38,16.17-.62,.08-.05,.19-.13,.34-.23,.6-.37,1.79-1,3.25-.94,1.14,.05,2.56,.52,2.57,1.04Z" fill="#543614"/>
    </g>
  </g>
</svg>