<?xml version="1.0" encoding="UTF-8"?>
<svg id="_Шар_2" data-name="Шар 2" xmlns="http://www.w3.org/2000/svg" viewBox="0 0 24 24">
  <g id="Armbrust">
    <g>
      <polygon points="6.63 17.38 4.87 19.14 4.87 17.6 6.63 15.14 6.63 17.38" fill="#422a17"/>
      <polygon points="8.86 17.37 6.4 19.13 4.87 19.14 6.63 17.38 8.86 17.37" fill="#633f21"/>
      <polygon points="6.4 19.13 4.41 20.54 3.46 20.55 4.87 19.14 6.4 19.13" fill="#422a17"/>
      <polygon points="4.87 19.14 3.46 20.55 3.46 19.59 4.87 17.6 4.87 19.14" fill="#633f21"/>
      <polygon points="3.46 20.55 2.74 21.27 2.46 20.98 3.46 19.59 3.46 20.55" fill="#422a17"/>
      <polygon points="4.41 20.54 3.02 21.54 2.74 21.27 3.46 20.55 4.41 20.54" fill="#633f21"/>
      <path d="M24,0c-.69,.23-1.39,.46-2.08,.69l1.39,1.39c.23-.69,.46-1.39,.69-2.08Z" fill="#727e8c"/>
      <polygon points="13.17 6.01 12.36 3.04 12.48 2.98 13.96 4.88 13.61 5.39 13.17 6.01" fill="#727e8c"/>
      <polygon points="16.57 7.44 6.63 17.38 6.63 15.14 8.08 13.12 13.17 6.01 13.61 5.39 13.96 4.88 13.98 4.86 16.57 7.44" fill="#633f21"/>
      <polygon points="19.14 10.02 19.13 10.03 18.66 10.36 18.1 10.76 18.09 10.77 10.87 15.93 8.86 17.37 6.63 17.38 16.57 7.44 19.14 10.02" fill="#422a17"/>
      <polygon points="20.85 11.51 18.1 10.76 18.66 10.36 19.13 10.03 20.9 11.42 20.85 11.51" fill="#727e8c"/>
      <path d="M3.67,22.16c0-1.01-.83-1.83-1.84-1.84-1.01,0-1.84,.84-1.84,1.84,0,1.02,.82,1.84,1.84,1.84,1.01,0,1.84-.82,1.84-1.84Zm-1.84,1.09c-.59,0-1.08-.49-1.08-1.08,0-.6,.49-1.08,1.08-1.08,.59,0,1.08,.49,1.08,1.08,0,.59-.48,1.07-1.08,1.08Z" fill="#422a17"/>
      <path d="M9.54,16.54c-.56,.26-1.21,.18-1.67-.19-.54-.44-.71-1.22-.42-1.89,1.21-.79,2.59-1.83,4-3.17,1.81-1.73,3.12-3.45,4.06-4.89l2.08,2.08c-1.46,.99-3.19,2.34-4.93,4.16-1.3,1.37-2.33,2.71-3.13,3.9Z" fill="#727e8c"/>
      <rect x="12.02" y="5.72" width=".77" height="11.77" transform="translate(11.84 -5.37) rotate(45)" fill="#915830"/>
      <path d="M18.06,5.5l-.88,.83C13.9,3.21,9.23,1.5,4.01,1.93c5.36-1.46,10.52,.21,14.05,3.57Z" fill="#633f21"/>
      <path d="M22.17,20.03l-.19-.04c.51-5.28-1.19-9.91-4.31-13.16l.83-.89c3.4,3.52,5.1,8.7,3.67,14.09Z" fill="#422a17"/>
      <path d="M18.5,5.94l-.83,.89c-.15-.17-.32-.33-.49-.5l.88-.83c.15,.14,.31,.29,.44,.44Z" fill="#633f21"/>
      <polygon points="22.72 1.5 18.5 5.94 17.67 6.83 16.83 7.71 16.29 7.18 17.18 6.33 18.06 5.5 22.5 1.27 22.72 1.5" fill="#915830"/>
      <path d="M4.02,1.93l4.48,13.8-.67,.2S3.87,1.88,4.02,1.93h0Z" fill="#bfaea1"/>
      <path d="M22.22,19.86l-13.99-3.86,.2-.67c0,.05,13.94,4.41,13.79,4.53h0Z" fill="#bfaea1"/>
      <g>
        <polyline points="9.04 14.97 8.52 16.71 6.88 17.14 8.95 15.06" fill="#a59c97"/>
        <polyline points="9.04 14.97 7.3 15.49 6.88 17.14 8.95 15.06" fill="#d8cbc3"/>
      </g>
      <rect x="8.1" y="14.96" width="1.3" height=".61" transform="translate(13.36 -1.71) rotate(45)" fill="#422a17"/>
      <rect x="21.75" y="1.3" width="1.3" height=".61" transform="translate(7.69 -15.37) rotate(45)" fill="#422a17"/>
    </g>
  </g>
</svg>