<?xml version="1.0" encoding="UTF-8"?>
<svg id="_Шар_2" data-name="Шар 2" xmlns="http://www.w3.org/2000/svg" viewBox="0 0 23.73 23.65">
  <g id="Armbrust">
    <g>
      <path d="M23.05,18.07l-13.49-3.73,.19-.64c0,.05,13.44,4.26,13.3,4.38h0Z" fill="#bfaea1"/>
      <path d="M5.43,.54l4.39,13.54-.65,.2S5.28,.49,5.43,.54h0Z" fill="#bfaea1"/>
      <polygon points="6.63 17.01 2.67 20.98 1.59 19.89 6.63 14.84 6.63 17.01" fill="#282423"/>
      <polygon points="8.83 17.05 3.79 22.09 2.67 20.98 6.63 17.01 6.63 17.04 8.82 17.03 8.83 17.05" fill="#161413"/>
      <polygon points="8.82 17.03 6.63 17.04 6.63 17.01 6.63 14.84 8.82 17.03" fill="#422a17"/>
      <rect x="2.5" y="21.05" width="1.25" height="2.53" transform="translate(-14.86 8.74) rotate(-45)" fill="#343460"/>
      <rect x=".71" y="19.26" width="1.25" height="2.53" transform="translate(-14.12 6.95) rotate(-45)" fill="#5852a8"/>
      <path d="M23.67,0c-.68,.23-1.36,.45-2.04,.68l1.36,1.36c.23-.68,.45-1.36,.68-2.04Z" fill="#a8b5c1"/>
      <path d="M20.96,2.71c-.68,.23-1.36,.45-2.04,.68l1.36,1.36c.23-.68,.45-1.36,.68-2.04Z" fill="#6c767c"/>
      <polygon points="13.04 5.89 12.25 2.98 12.37 2.93 13.82 4.78 13.48 5.29 13.04 5.89" fill="#8e9ead"/>
      <polygon points="15.4 4.93 14.61 2.02 14.72 1.97 16.18 3.83 15.83 4.33 15.4 4.93" fill="#6c767c"/>
      <polygon points="16.38 7.29 14.46 9.21 12.26 7.01 13.05 5.89 13.48 5.28 13.82 4.78 13.84 4.76 13.85 4.77 16.12 7.03 16.38 7.29" fill="#5852a8"/>
      <polygon points="14.46 9.21 6.63 17.04 6.63 17.01 6.63 14.84 7.34 13.86 7.77 13.26 8.06 12.87 8.4 12.37 12.26 7.01 14.46 9.21" fill="#99611d"/>
      <polygon points="18.9 9.82 18.89 9.84 18.43 10.16 17.88 10.55 17.87 10.56 16.67 11.42 14.46 9.21 16.38 7.29 16.65 7.55 18.83 9.76 18.9 9.82" fill="#343460"/>
      <polygon points="16.67 11.42 11.29 15.26 10.79 15.62 8.82 17.03 6.63 17.04 14.46 9.21 16.67 11.42" fill="#542312"/>
      <polygon points="20.58 11.29 17.88 10.56 18.43 10.16 18.89 9.83 20.63 11.2 20.58 11.29" fill="#8e9ead"/>
      <polygon points="21.48 8.96 18.79 8.23 19.34 7.83 19.8 7.5 21.53 8.87 21.48 8.96" fill="#555c60"/>
      <path d="M9.49,16.22c-.55,.25-1.19,.18-1.63-.19-.53-.43-.7-1.19-.41-1.85,1.18-.77,2.54-1.79,3.93-3.11,1.77-1.69,3.06-3.39,3.98-4.79l2.04,2.04c-1.44,.97-3.13,2.3-4.83,4.08-1.28,1.34-2.29,2.66-3.07,3.83Z" fill="#8482bf"/>
      <rect x="11.92" y="5.61" width=".75" height="11.54" transform="translate(11.65 -5.36) rotate(45)" fill="#422a17"/>
      <path d="M15.93,3.86c-.41,.18-.83,.37-1.25,.55-2.94-1.9-6.61-2.86-10.62-2.52,4.37-1.19,8.6-.26,11.88,1.97Z" fill="#82301a"/>
      <path d="M21.87,19.65l-.19-.04c.4-4.07-.56-7.75-2.47-10.68,.19-.42,.39-.85,.58-1.27,2.3,3.3,3.25,7.57,2.08,11.99Z" fill="#542312"/>
      <path d="M17.95,2.98c-.41,.18-.82,.36-1.23,.54C13.67,1.31,9.74,.18,5.41,.54c4.67-1.27,9.17-.12,12.54,2.45Z" fill="#282423"/>
      <path d="M23.22,18.29l-.19-.04c.43-4.38-.7-8.29-2.91-11.32,.18-.41,.38-.83,.56-1.24,2.62,3.37,3.78,7.9,2.53,12.6Z" fill="#161413"/>
      <path d="M17.46,6.7c-.15-.16-.31-.33-.48-.49l.86-.82c.16,.14,.3,.29,.44,.44l-.82,.87Z" fill="#633f21"/>
      <path d="M4.08,1.89l4.39,13.54-.65,.2S3.93,1.84,4.08,1.89h0Z" fill="#fff3eb"/>
      <path d="M21.7,19.42l-13.49-3.73,.19-.64c0,.05,13.44,4.26,13.3,4.38h0Z" fill="#bfaea1"/>
      <path d="M21.7,19.42l-13.49-3.73,.19-.64c0,.05,13.44,4.26,13.3,4.38h0Z" fill="#fff3eb"/>
      <g>
        <polygon points="9 14.68 8.49 16.39 6.88 16.8 8.91 14.77 9 14.68" fill="#a59c97"/>
        <polygon points="9 14.68 7.29 15.19 6.88 16.8 8.91 14.77 9 14.68" fill="#d8cbc3"/>
      </g>
      <rect x="8.2" y="14.55" width="1.28" height=".6" transform="translate(13.08 -1.9) rotate(45)" fill="#422a17"/>
      <rect x="21.46" y="1.27" width="1.28" height=".6" transform="translate(7.58 -15.17) rotate(45)" fill="#422a17"/>
      <path d="M18.81,4.47l-.97,.91-.86,.82-.86,.82-2.27-2.26c.28-.12,.56-.24,.83-.36,.42-.18,.84-.37,1.25-.55,.26-.12,.52-.22,.79-.34,.41-.18,.82-.36,1.23-.54,.12-.05,.24-.1,.35-.15,0,.05-.01,.22,.01,.43,.03,.32,.14,.77,.45,1.17,0,.02,.01,.03,.03,.03Z" fill="#5042b1"/>
      <path d="M18.9,9.82c-.75-.76-1.5-1.51-2.26-2.27l.81-.85,.82-.87,.91-.96s.03,.03,.05,.03c.41,.32,.86,.43,1.19,.45,.22,.03,.37,.02,.42,.01-.05,.11-.09,.22-.15,.33-.18,.41-.38,.83-.56,1.24-.11,.24-.23,.49-.34,.73-.4,.9-.47,1.01-.58,1.27-.08,.2-.2,.51-.31,.89Z" fill="#2c2863"/>
      <path d="M17.39,8.32l-2.04-2.04c1.06-.75,2.12-1.5,3.18-2.24,.06,.16,.19,.44,.45,.7,.27,.27,.55,.4,.71,.47-.77,1.04-1.53,2.08-2.3,3.12Z" fill="#6f6aaa"/>
      <polygon points="16.65 7.55 16.64 7.56 16.37 7.3 16.1 7.04 16.12 7.03 16.98 6.21 17.84 5.39 18.81 4.47 22.2 1.25 22.42 1.47 19.19 4.86 18.28 5.83 17.46 6.7 16.65 7.55" fill="#422a17"/>
      <line x1="6.63" y1="17.01" x2="6.86" y2="16.79" fill="none"/>
    </g>
  </g>
</svg>