<?xml version="1.0" encoding="UTF-8"?>
<svg id="_Шар_2" data-name="Шар 2" xmlns="http://www.w3.org/2000/svg" viewBox="0 0 23.99 24">
  <g id="Armbrust">
    <g>
      <rect x="1.87" y="18.35" width="5.01" height="1.06" transform="translate(-12.07 8.62) rotate(-45)" fill="#1c1e17"/>
      <rect x="2.62" y="19.1" width="5.01" height="1.05" transform="translate(-12.38 9.37) rotate(-45)" fill="#1b1e10"/>
      <path d="M11.46,7.7c.06-.46,.11-1.29-.18-2.25-.28-.94-.75-1.59-1.05-1.95l7.36,2.42c-1.47-.22-2.94-.44-4.41-.67-.57,.81-1.15,1.63-1.72,2.44Z" fill="#768a99"/>
      <path d="M16.26,12.24c.46-.06,1.29-.11,2.25,.18,.94,.28,1.59,.75,1.95,1.05l-2.42-7.36c.22,1.47,.44,2.94,.67,4.41-.81,.57-1.63,1.15-2.44,1.72Z" fill="#768a99"/>
      <path d="M23.99,0c-.75,.25-1.5,.5-2.24,.75l1.5,1.5c.25-.75,.5-1.5,.75-2.24Z" fill="#a8b5c1"/>
      <polygon points="15.99 8.01 13.88 10.12 11.46 7.7 12.33 6.47 12.81 5.8 13.18 5.25 13.21 5.23 15.99 8.01" fill="#8e9ead"/>
      <polygon points="13.88 10.12 8.83 15.18 5.29 18.71 5.29 16.3 6.86 14.12 7.23 13.58 11.46 7.7 13.88 10.12" fill="#313f17"/>
      <polygon points="18.76 10.78 18.75 10.8 18.24 11.15 17.64 11.58 17.63 11.59 16.31 12.54 13.88 10.12 15.99 8.01 18.76 10.78" fill="#8e9ead"/>
      <polygon points="16.31 12.54 10.41 16.76 9.86 17.15 7.7 18.7 5.29 18.71 8.83 15.18 13.88 10.12 16.31 12.54" fill="#202810"/>
      <path d="M8.43,17.81c-.6,.28-1.3,.2-1.79-.21-.58-.47-.77-1.31-.45-2.03,1.3-.85,2.79-1.96,4.31-3.42,1.95-1.86,3.36-3.72,4.37-5.26,.75,.75,1.49,1.49,2.24,2.24-1.58,1.06-3.44,2.52-5.3,4.48-1.4,1.47-2.51,2.92-3.37,4.2Z" fill="#a8b5c1"/>
      <rect x="11.1" y="6.16" width=".83" height="12.67" transform="translate(12.21 -4.48) rotate(45)" fill="#422a17"/>
      <path d="M18.07,6.4l-.9,.96c-.16-.18-.34-.36-.52-.54l.94-.9c.16,.15,.33,.31,.48,.48Z" fill="#633f21"/>
      <polygon points="22.62 1.61 18.07 6.4 17.17 7.35 16.28 8.3 15.69 7.73 16.65 6.82 17.59 5.92 22.38 1.37 22.62 1.61" fill="#422a17"/>
      <path d="M3.23,3.69l4.13,13.2-.64,.2S3.08,3.64,3.23,3.69h0Z" fill="#bfaea1"/>
      <path d="M20.2,20.85l-13.22-3.66,.19-.63c0,.05,13.17,4.17,13.03,4.28h0Z" fill="#bfaea1"/>
      <g>
        <polyline points="7.89 16.11 7.33 17.99 5.56 18.45 7.79 16.21" fill="#a59c97"/>
        <polyline points="7.89 16.11 6.02 16.67 5.56 18.45 7.79 16.21" fill="#d8cbc3"/>
      </g>
      <rect x="7.01" y="15.97" width="1.4" height=".66" transform="translate(13.78 -.68) rotate(45)" fill="#422a17"/>
      <rect x="21.57" y="1.39" width="1.4" height=".66" transform="translate(7.74 -15.24) rotate(45)" fill="#422a17"/>
      <path d="M20.21,20.85c-.5-.13-1-.26-1.5-.39,1.82-1.56,2.29-2.93,2.39-3.9,.21-2.15-1.32-3.42-2.48-7.65-.29-1.05-.46-1.93-.55-2.5l1.29-1.36c.06,.65,.17,1.64,.45,2.82,.9,3.82,2.38,5.01,2.59,7.26,.12,1.31-.18,3.24-2.19,5.73Z" fill="#5b2311"/>
      <path d="M3.14,3.78c.13,.5,.26,1,.39,1.5,1.56-1.82,2.93-2.29,3.9-2.39,2.15-.21,3.42,1.32,7.65,2.48,1.05,.29,1.93,.46,2.5,.55l1.36-1.29c-.65-.06-1.64-.17-2.82-.45-3.82-.9-5.01-2.38-7.26-2.59-1.31-.12-3.24,.18-5.73,2.19Z" fill="#753015"/>
      <path d="M2.98,21.03l-1.59,1.59-1.39-1.39,.77-.77c.45-.45,1.19-.45,1.64,0l.57,.57Z" fill="#313f17"/>
      <path d="M3.61,23.16l-.84,.84-1.38-1.38,1.59-1.59,.63,.63c.41,.41,.41,1.09,0,1.5Z" fill="#202810"/>
    </g>
  </g>
</svg>