<?xml version="1.0" encoding="UTF-8"?>
<svg id="_Шар_2" data-name="Шар 2" xmlns="http://www.w3.org/2000/svg" viewBox="0 0 23.43 23.44">
  <g id="Armbrust">
    <g>
      <polygon points="5.65 17.79 3.85 19.59 3.85 18.02 5.65 15.49 5.65 17.79" fill="#542312"/>
      <polygon points="7.93 17.77 5.41 19.57 3.85 19.59 5.65 17.79 7.93 17.77" fill="#82301a"/>
      <polygon points="5.41 19.57 3.38 21.02 2.4 21.03 3.85 19.59 5.41 19.57" fill="#542312"/>
      <polygon points="3.85 19.59 2.4 21.03 2.4 20.05 3.85 18.02 3.85 19.59" fill="#82301a"/>
      <polygon points="2.4 21.03 1.67 21.77 1.38 21.48 2.4 20.05 2.4 21.03" fill="#422a17"/>
      <polygon points="3.38 21.02 1.95 22.05 1.67 21.77 2.4 21.03 3.38 21.02" fill="#82301a"/>
      <path d="M23.43,0c-.71,.24-1.42,.47-2.13,.71l1.42,1.42c.24-.71,.47-1.42,.71-2.13Z" fill="#a8b5c1"/>
      <polygon points="12.34 6.15 11.51 3.11 11.63 3.05 13.15 4.99 12.79 5.52 12.34 6.15" fill="#8e9ead"/>
      <polygon points="15.82 7.61 13.82 9.62 11.51 7.32 12.34 6.15 12.79 5.52 13.15 4.99 13.17 4.97 15.82 7.61" fill="#8e9ead"/>
      <polygon points="13.82 9.62 9.01 14.43 5.65 17.79 5.65 15.5 7.13 13.43 7.49 12.92 11.51 7.32 13.82 9.62" fill="#82301a"/>
      <polygon points="18.45 10.25 18.44 10.27 17.96 10.6 17.39 11.01 17.38 11.02 16.12 11.92 13.82 9.62 15.82 7.61 18.45 10.25" fill="#8e9ead"/>
      <polygon points="16.12 11.92 10.51 15.94 9.99 16.3 7.93 17.78 5.65 17.79 9.01 14.43 13.82 9.62 16.12 11.92" fill="#542312"/>
      <polygon points="20.2 11.78 17.39 11.02 17.96 10.61 18.44 10.26 20.25 11.69 20.2 11.78" fill="#8e9ead"/>
      <path d="M8.63,16.93c-.57,.26-1.24,.19-1.71-.2-.55-.45-.73-1.25-.42-1.93,1.24-.81,2.65-1.87,4.1-3.25,1.85-1.77,3.2-3.53,4.15-5l2.13,2.13c-1.5,1.01-3.27,2.4-5.04,4.26-1.33,1.4-2.39,2.77-3.21,3.99Z" fill="#a8b5c1"/>
      <rect x="11.17" y="5.86" width=".79" height="12.05" transform="translate(11.79 -4.7) rotate(45)" fill="#422a17"/>
      <path d="M17.34,5.63l-.9,.85C13.09,3.28,8.31,1.53,2.96,1.97c5.49-1.49,10.77,.21,14.38,3.65Z" fill="#82301a"/>
      <path d="M21.55,20.5l-.2-.04c.53-5.4-1.22-10.14-4.41-13.47l.85-.91c3.48,3.6,5.22,8.9,3.75,14.42Z" fill="#542312"/>
      <path d="M17.8,6.08l-.85,.91c-.16-.17-.33-.34-.5-.51l.9-.85c.16,.14,.31,.3,.46,.46Z" fill="#633f21"/>
      <polygon points="22.12 1.53 17.8 6.08 16.94 6.99 16.09 7.89 15.54 7.35 16.45 6.48 17.34 5.63 21.89 1.3 22.12 1.53" fill="#422a17"/>
      <path d="M2.98,1.97l4.58,14.13-.68,.2S2.82,1.93,2.98,1.97h0Z" fill="#bfaea1"/>
      <path d="M21.6,20.33l-14.31-3.95,.2-.68c0,.05,14.26,4.51,14.11,4.64h0Z" fill="#bfaea1"/>
      <g>
        <polyline points="8.12 15.32 7.59 17.11 5.9 17.54 8.02 15.42" fill="#a59c97"/>
        <polyline points="8.12 15.32 6.34 15.85 5.9 17.54 8.02 15.42" fill="#d8cbc3"/>
      </g>
      <rect x="7.28" y="15.18" width="1.33" height=".62" transform="translate(13.28 -1.08) rotate(45)" fill="#422a17"/>
      <rect x="21.12" y="1.33" width="1.33" height=".62" transform="translate(7.54 -14.93) rotate(45)" fill="#422a17"/>
      <circle cx="1.38" cy="22.06" r="1.38" fill="#82301a"/>
    </g>
  </g>
</svg>