<?xml version="1.0" encoding="UTF-8"?>
<svg id="_Шар_2" data-name="Шар 2" xmlns="http://www.w3.org/2000/svg" viewBox="0 0 23.64 24">
  <g id="Armbrust">
    <g>
      <path d="M8.85,19.12c-1,1-2.73,.9-3.86-.23s-1.23-2.85-.23-3.86c.15-.15,.32-.28,.51-.38-.57,1.01-.35,2.39,.6,3.35s2.34,1.18,3.35,.6c-.1,.19-.22,.36-.38,.51Z" fill="#422a17"/>
      <path d="M21.05,9c-1.56,1.56-4.23,1.4-5.98-.35s-1.91-4.43-.35-5.98c.24-.24,.5-.44,.79-.58-.88,1.56-.54,3.72,.94,5.19s3.64,1.82,5.19,.94c-.15,.29-.35,.55-.58,.79Z" fill="#422a17"/>
      <path d="M7.15,16.73l-5.09,5.09-.76-.76c.12-.29,.25-.58,.37-.86,.62,.03,1.25-.19,1.72-.66,.89-.89,.89-2.31,0-3.2l-.06-.06c.1-.25,.21-.48,.31-.73,.13-.01,.93-.11,1.87,.19,.13,.04,.26,.09,.4,.15,.4,.17,.81,.43,1.2,.79l.04,.04Z" fill="#5e5028"/>
      <path d="M4.25,20.71c-.45,.45-.68,1.05-.66,1.64-.22,.11-.45,.21-.69,.31l-.84-.84,5.09-5.09,.06,.06c.36,.38,.61,.77,.79,1.18,.06,.14,.12,.27,.15,.41,.3,.94,.21,1.74,.19,1.87-.31,.14-.61,.27-.92,.41-.89-.84-2.29-.82-3.17,.05Z" fill="#473b1f"/>
      <path d="M18.77,7.57c.11,.4,.36,1.08,.93,1.74,.67,.79,1.43,1.16,1.82,1.32,0,0,.61,.21,.61,.21,3.56,1.81-.11,8.43-1.32,10.98,.51-1.59,2.94-9.38,.24-9.32-.27,.03-1.87,.16-3.25-1.02-1.38-1.18-1.49-2.79-1.51-3.06,.83-.28,1.65-.56,2.48-.84Z" fill="#473b1f"/>
      <path d="M16.07,4.87c-.4-.11-1.08-.36-1.74-.93-.79-.67-1.16-1.43-1.32-1.82,0,0-.21-.61-.21-.61-1.81-3.56-8.43,.11-10.98,1.32,1.59-.51,9.38-2.94,9.32-.24-.03,.27-.16,1.87,1.02,3.25,1.18,1.38,2.79,1.49,3.06,1.51,.28-.83,.56-1.65,.84-2.48Z" fill="#5e5028"/>
      <path d="M22.87,1.02c-.73,.24-1.45,.48-2.18,.73l1.45,1.45c.24-.73,.48-1.45,.73-2.18Z" fill="#a8b5c1"/>
      <polygon points="15.11 8.78 13.07 10.83 10.72 8.48 11.56 7.29 12.02 6.64 12.39 6.11 12.41 6.09 15.11 8.78" fill="#8e9ead"/>
      <path d="M13.07,10.83L4.74,19.16v-.19s0-2.15,0-2.15h.01s1.5-2.12,1.5-2.12l.36-.52,.84-1.18c.64,.11,1.32-.08,1.82-.58,.66-.66,.78-1.66,.35-2.44l1.09-1.51,2.35,2.35Z" fill="#63431d"/>
      <polygon points="17.8 11.47 17.79 11.48 17.29 11.83 16.71 12.25 16.7 12.26 15.42 13.18 13.07 10.83 15.11 8.78 17.8 11.47" fill="#8e9ead"/>
      <path d="M15.41,13.18l-1.57,1.12c-.74-.31-1.64-.16-2.25,.45-.44,.44-.63,1.02-.59,1.59l-1.31,.93-.53,.38-2.09,1.49h-.01s-2.32,.03-2.32,.03L13.07,10.83l2.34,2.34Z" fill="#513817"/>
      <path d="M7.78,18.28c-.58,.27-1.26,.19-1.74-.2-.56-.46-.75-1.27-.43-1.97,1.26-.82,2.71-1.9,4.18-3.31,1.89-1.8,3.26-3.61,4.23-5.1l2.17,2.17c-1.53,1.03-3.33,2.44-5.14,4.34-1.36,1.43-2.43,2.83-3.27,4.07Z" fill="#a8b5c1"/>
      <rect x="10.37" y="6.99" width=".8" height="12.29" transform="translate(12.44 -3.77) rotate(45)" fill="#422a17"/>
      <path d="M17.13,7.22l-.87,.93c-.16-.17-.33-.35-.51-.52l.91-.87c.16,.15,.32,.3,.46,.46Z" fill="#633f21"/>
      <path d="M2.07,2.85l4.67,14.41-.69,.21S1.91,2.79,2.07,2.85h0Z" fill="#bfaea1"/>
      <path d="M20.75,21.69l-14.4-4.11,.2-.68c0,.05,14.35,4.67,14.2,4.79h0Z" fill="#bfaea1"/>
      <g>
        <polygon points="7.26 16.64 6.71 18.46 5 18.9 7.16 16.74 7.26 16.64" fill="#a59c97"/>
        <polygon points="7.26 16.64 5.44 17.18 5 18.9 7.16 16.74 7.26 16.64" fill="#d8cbc3"/>
      </g>
      <rect x="6.4" y="16.5" width="1.36" height=".64" transform="translate(13.96 -.08) rotate(45)" fill="#422a17"/>
      <rect x="20.52" y="2.37" width="1.36" height=".64" transform="translate(8.11 -14.2) rotate(45)" fill="#422a17"/>
      <path d="M12.41,6.09c1.8,1.8,3.59,3.59,5.39,5.39-.12-.48-.33-1.52,.04-2.56,.25-.69,.65-1.11,.93-1.34l-2.69-2.69c-.27,.29-.71,.66-1.36,.92-.89,.36-1.77,.34-2.31,.29Z" fill="#768a99"/>
      <polygon points="18.84 5.04 16.14 4.94 18.77 7.57 18.84 5.04" fill="#a8b5c1"/>
      <polygon points="21.54 2.58 17.13 7.22 16.26 8.15 15.39 9.06 14.82 8.51 15.75 7.62 16.66 6.75 21.3 2.35 21.54 2.58" fill="#422a17"/>
      <path d="M18.77,7.57s-2.01,.07-2.58,2.3l-.8-.81,2.37-2.5,1.01,1.01Z" fill="#a8b5c1"/>
      <path d="M14.82,8.51l2.5-2.38-1.01-1.01s-.07,2.01-2.3,2.58" fill="#a8b5c1"/>
      <polygon points="7.07 19.13 7.06 19.15 4.74 19.16 4.74 18.97 4.74 16.82 4.75 16.81 7.07 19.13" fill="#63431d"/>
      <rect x="1.29" y="22.14" width="1.54" height="1.54" transform="translate(-15.6 8.17) rotate(-45)" fill="#768a99"/>
      <rect x=".26" y="21.19" width="1.54" height="1.38" transform="translate(-15.17 7.14) rotate(-45)" fill="#8e9ead"/>
    </g>
  </g>
</svg>