<?xml version="1.0" encoding="UTF-8"?>
<svg id="_Шар_2" data-name="Шар 2" xmlns="http://www.w3.org/2000/svg" viewBox="0 0 23.92 24.01">
  <g id="Armbrust">
    <g>
      <path d="M15.83,7.74l-.11,.11-.8,.76-2.09-2.09c.05-.25,.11-.51,.16-.77,.05-.24,.09-.47,.14-.71l2.7,2.7Z" fill="#798691"/>
      <path d="M18.98,10.89c-.24,.04-.48,.09-.72,.14-.26,.04-.51,.1-.76,.15l-2.09-2.09,.76-.79,.11-.12,2.71,2.71Z" fill="#798691"/>
      <rect x=".72" y="18.07" width="6.99" height="1.42" transform="translate(-12.05 8.49) rotate(-45)" fill="#373d2b"/>
      <rect x="1.74" y="19.08" width="6.99" height="1.45" transform="translate(-12.47 9.5) rotate(-45)" fill="#23261b"/>
      <path d="M21.9,2.12c-.63,.21-1.26,.42-1.89,.63l1.26,1.26c.21-.63,.42-1.26,.63-1.89Z" fill="#a8b5c1"/>
      <polygon points="15.17 8.85 13.4 10.62 11.36 8.59 12.09 7.55 12.49 6.99 12.81 6.53 12.83 6.52 14.93 8.6 15.17 8.85" fill="#8e9ead"/>
      <path d="M13.4,10.62l-7.22,7.22v-2.03s.66-.91,.66-.91l.39-.56,.26-.36,.32-.46,.74-1.03c.61,.04,1.24-.16,1.7-.63,.64-.64,.79-1.59,.45-2.38l.66-.92,2.04,2.04Z" fill="#5b3b21"/>
      <polygon points="17.5 11.18 17.49 11.19 17.06 11.49 16.56 11.85 16.55 11.86 15.44 12.66 13.4 10.62 15.17 8.85 17.5 11.18" fill="#8e9ead"/>
      <path d="M15.44,12.66l-.96,.69c-.76-.28-1.64-.11-2.25,.5-.43,.43-.64,1-.62,1.56l-1.13,.8-.46,.33-.18,.13-.55,.4-1.09,.78h-2.02s7.22-7.22,7.22-7.22l2.04,2.04Z" fill="#3f2918"/>
      <path d="M8.81,17.09c-.51,.23-1.1,.16-1.51-.17-.48-.4-.65-1.1-.38-1.71,1.09-.71,2.35-1.65,3.62-2.87,1.64-1.56,2.83-3.13,3.67-4.42l1.88,1.88c-1.33,.89-2.89,2.12-4.46,3.76-1.18,1.24-2.11,2.45-2.84,3.53Z" fill="#a8b5c1"/>
      <rect x="11.06" y="7.29" width=".69" height="10.65" transform="translate(12.26 -4.37) rotate(45)" fill="#422a17"/>
      <polygon points="15.41 9.09 14.92 8.61 15.72 7.85 15.83 7.74 15.9 7.69 16.14 7.45 16.46 7.15 16.59 7.02 16.87 6.75 20.54 3.27 20.74 3.47 17.34 7.05 16.92 7.49 16.87 7.54 16.63 7.8 16.28 8.17 16.27 8.18 16.16 8.3 15.41 9.09" fill="#422a17"/>
      <polygon points="15.41 9.09 14.92 8.62 14.92 8.61 15.41 9.09" fill="#422a17"/>
      <path d="M7.87,16.35l-.19,.06h0s-.09,.03-.09,.03l-.32,.09s-.04-.18-.13-.5c-.06-.21-.13-.48-.23-.8-.02-.1-.06-.21-.08-.32-.94-3.4-3.09-10.98-3.01-11.05l3.41,10.5,.17,.53,.23,.69,.02,.06,.06,.2v.03s.08,.22,.08,.22l.04,.13,.05,.15Z" fill="#eaeaea"/>
      <path d="M20.29,20.09l-12.66-3.5,.18-.6s12.61,3.99,12.48,4.1h0Z" fill="#eaeaea"/>
      <polygon points="8.36 15.67 7.89 17.24 6.4 17.62 8.28 15.75 8.36 15.67" fill="#a3a7aa"/>
      <polygon points="8.36 15.67 6.78 16.14 6.4 17.62 8.28 15.75 8.36 15.67" fill="#c4ced6"/>
      <rect x="7.62" y="15.54" width="1.18" height=".55" transform="translate(13.59 -1.17) rotate(45)" fill="#422a17"/>
      <rect x="19.86" y="3.29" width="1.18" height=".55" transform="translate(8.51 -13.42) rotate(45)" fill="#422a17"/>
      <rect x=".35" y="20.11" width="3.68" height="3.42" rx=".77" ry=".77" transform="translate(16.07 4.84) rotate(45)" fill="#8e9ead"/>
      <rect x=".74" y="20.47" width="2.9" height="2.69" rx=".77" ry=".77" transform="translate(16.07 4.84) rotate(45)" fill="#a8b5c1"/>
      <path d="M19.94,20.44c1.08-1.48,5.18-7.07,2.16-8.02-1.99-.27-4.09-1.01-5.2-2.86-.27-.46-.48-.89-.61-1.37,.59,.41,1.3,.46,1.74,.11,.48,1.39,1.81,2.48,3.26,2.85,.58,.19,1.65,.33,2.23,1.13,1.58,2.53-2.02,6.33-3.59,8.17Z" fill="#23261b"/>
      <path d="M15.72,7.63c-1.09-.32-2.03-.99-2.73-1.88-.66-.81-1.12-1.81-1.29-2.85l-.1-.59c-.16-2.43-2.89-1.48-4.34-.73-1.33,.66-2.59,1.49-3.78,2.4C5.33,2.41,9.08-1.18,11.64,.39c.81,.58,.94,1.66,1.13,2.23,.36,1.43,1.43,2.75,2.79,3.24-.34,.46-.28,1.18,.16,1.77Z" fill="#373d2b"/>
      <path d="M18.13,8.22s-.06,.06-.09,.08c-.44,.36-1.15,.3-1.74-.11,0,0-.01-.01-.01-.02l.35-.36,.24-.27,.03,.03c.33,.23,.69,.34,1.02,.34,.16,0,.31-.03,.45-.08-.06,.14-.13,.27-.24,.38Z" fill="#a8b5c1"/>
      <path d="M16.46,7.15l-.31,.3-.24,.23-.07,.06-.11-.11c-.43-.59-.5-1.31-.16-1.77,.03-.04,.06-.07,.1-.11,.11-.11,.24-.19,.38-.24-.05,.15-.08,.31-.06,.48,0,.34,.13,.71,.37,1.03,.03,.06,.06,.1,.11,.14Z" fill="#a8b5c1"/>
      <path d="M15.72,7.63l.11,.11h-.01s-.07-.07-.1-.11Z" fill="#422a17"/>
      <path d="M16.29,8.19s-.02,0-.02-.01h.01s0,0,.01,.01Z" fill="#422a17"/>
    </g>
  </g>
</svg>