<?xml version="1.0" encoding="UTF-8"?>
<svg id="_Шар_2" data-name="Шар 2" xmlns="http://www.w3.org/2000/svg" xmlns:xlink="http://www.w3.org/1999/xlink" viewBox="0 0 23.73 23.77">
  <defs>
    <radialGradient id="_Градієнт_без_назви_7" data-name="Градієнт без назви 7" cx="-87.82" cy="21.09" fx="-87.82" fy="21.09" r="1.23" gradientTransform="translate(-62.82 -33.45) rotate(-135)" gradientUnits="userSpaceOnUse">
      <stop offset="0" stop-color="red"/>
      <stop offset="1" stop-color="#000" stop-opacity="0"/>
    </radialGradient>
    <radialGradient id="_Градієнт_без_назви_7-2" data-name="Градієнт без назви 7" cx="-169.9" cy="21.09" fx="-169.9" fy="21.09" r="1.23" gradientTransform="translate(115.26 144.62) rotate(45) scale(1 -1)" xlink:href="#_Градієнт_без_назви_7"/>
  </defs>
  <g id="Armbrust">
    <g>
      <path d="M20.01,2.68s-1.2-2.79-5.34-.96c0,0,2.2,.8,1.26,.96,0,0-2.79-1.59-4.94-.33s-2.66,3.21-2.66,3.21c0,0,2.22-3.03,3.03-1.52s-1.33,1.1-1.33,1.1c0,0,.53,1.16,1.33,.78s-.95,2.35-2.05,2.21,9.32-2.72,9.32-2.72l3.14-3.45s-.5,.73-1.76,.71Z" fill="#d00000"/>
      <path d="M12.37,6.98c-.26,.23-.55,.4-.8,.37-.2-.03,.16-.18,.8-.37Z" fill="#e85d04"/>
      <path d="M20.29,3.09l-2.13,2.34s-.14,.03-.37,.09c-.86,.21-3.04,.77-4.58,1.21h0c-.31,.1-.59,.18-.84,.25,.3-.27,.56-.62,.7-.88,.13-.24,.14-.4-.05-.31-.09,.04-.18,.06-.25,.04-.28,0-.5-.27-.61-.45-.05-.09-.08-.15-.08-.15,0,0,.08,.02,.19,.03,.31,.03,.91,.02,.87-.45,0-.1-.04-.21-.12-.36-.04-.07-.08-.13-.13-.17-.6-.6-1.87,1.04-2,1.22,.04-.16,.45-1.42,1.87-2.25,1.32-.78,3.01-.02,3.41,.18,.06,.03,.09,.05,.09,.05,.11-.02,.16-.05,.17-.09,.04-.19-1.05-.59-1.05-.59,2.92-1.28,3.77,.68,3.77,.68,.64,0,1-.25,1.16-.41Z" fill="#e85d04"/>
      <path d="M12.27,5.27s-.08,.08-.12,.12c-.05-.09-.08-.15-.08-.15,0,0,.08,.02,.19,.03Z" fill="#e85d04"/>
      <path d="M12.91,7.06c-.21,.19-.45,.33-.64,.3-.17-.02,.13-.14,.64-.3Z" fill="#e85d04"/>
      <path d="M19.17,4l-1.38,1.52-.27,.3s-3.18,.79-4.61,1.24c.11-.1,.2-.2,.3-.32h0c.29-.37,.45-.74,.21-.63-.14,.06-.25,.05-.35,0-.14-.06-.23-.18-.3-.27-.07-.09-.1-.17-.1-.17,0,0,1.2,.23,.75-.62-.07-.14-.18-.2-.28-.22,0-.1-.04-.21-.12-.36-.04-.07-.08-.13-.13-.17,.1-.07,.19-.14,.31-.2,1.22-.71,2.79,.18,2.79,.18,.53-.09-.71-.54-.71-.54,.32-.15,.61-.23,.88-.29,.09-.02,.18-.03,.25-.04,1.43-.18,1.88,.87,1.88,.87,.45,0,.73-.16,.88-.27Z" fill="#f48c06"/>
      <path d="M21.14,3.81s2.79,1.2,.96,5.34c0,0-.8-2.2-.96-1.26,0,0,1.59,2.79,.33,4.94-1.26,2.15-3.21,2.66-3.21,2.66,0,0,3.03-2.22,1.52-3.03s-1.1,1.33-1.1,1.33c0,0-1.16-.53-.78-1.33s-2.35,.95-2.21,2.05,2.72-9.32,2.72-9.32l3.45-3.14s-.73,.5-.71,1.76Z" fill="#d00000"/>
      <path d="M20.74,3.53l-2.34,2.13s-.03,.14-.09,.37c-.21,.86-.77,3.04-1.21,4.58h0c-.09,.31-.17,.59-.24,.84,.27-.3,.62-.56,.88-.7,.24-.13,.4-.14,.31,.05-.04,.09-.06,.18-.04,.25,0,.28,.27,.5,.45,.61,.09,.05,.15,.08,.15,.08,0,0-.02-.08-.03-.19-.03-.31-.02-.91,.45-.87,.1,0,.21,.04,.36,.12,.07,.04,.13,.08,.17,.13,.6,.6-1.04,1.87-1.22,2,.16-.04,1.42-.45,2.25-1.87,.78-1.32,.02-3.01-.18-3.41-.03-.06-.05-.09-.05-.09,.02-.11,.05-.16,.09-.17,.19-.04,.59,1.05,.59,1.05,1.28-2.92-.68-3.77-.68-3.77,0-.64,.25-1,.41-1.16Z" fill="#e85d04"/>
      <path d="M19.82,4.65l-1.52,1.38-.3,.27s-.79,3.18-1.24,4.61c.1-.11,.2-.2,.32-.3h0c.36-.29,.73-.45,.62-.21-.06,.14-.05,.25,0,.35,.06,.14,.18,.23,.27,.3,.09,.07,.17,.1,.17,.1,0,0-.23-1.2,.62-.75,.14,.07,.2,.18,.22,.28,.1,0,.21,.04,.36,.12,.07,.04,.13,.08,.17,.13,.07-.1,.14-.19,.2-.31,.71-1.22-.18-2.79-.18-2.79,.09-.53,.54,.71,.54,.71,.15-.32,.23-.61,.29-.88,.02-.09,.03-.18,.04-.25,.18-1.43-.87-1.88-.87-1.88,0-.45,.16-.73,.27-.88Z" fill="#f48c06"/>
      <path d="M10.05,16.34s-1-.02-1.02,.69c0,0-.85-.32-.7,.46,0,0-.71-.09-1.52,.73s3.26-3.35,3.26-3.35v1.47Z" fill="#490c09"/>
      <path d="M7.44,13.73s.02,1-.69,1.02c0,0,.32,.85-.46,.7,0,0,.09,.71-.73,1.52s3.35-3.26,3.35-3.26h-1.47Z" fill="#490c09"/>
      <polygon points="20.5 3.45 16.39 7.77 15.58 8.64 14.77 9.49 14.24 8.98 15.11 8.15 15.96 7.34 20.29 3.23 20.5 3.45" fill="#3a200e"/>
      <rect x="7.17" y="12.95" width=".9" height="7.65" transform="translate(1.14 34.02) rotate(-135)" fill="#211a1a"/>
      <path d="M16.91,22.62l-11.73-3.26,.17-.56s11.69,3.72,11.56,3.82h0Z" fill="#9e9e9e"/>
      <path d="M16.68,22.97s.06-.15,.08-.51c0-.13,.14-2.44-1.39-3.64-.79-.62-1.24-.32-2.06-1.09-.18-.17-.65-.63-.9-1.36-.38-1.14-.11-2.64,.45-2.78,.56-.14,1.52,1.04,1.91,2.04,.13,.33,.15,.5,.34,.8,.47,.72,1.09,.8,1.49,1.1,1.45,1.12,.08,5.44,.07,5.44Z" fill="#211a1a"/>
      <path d="M13.59,16.98s1.22-2.17,3.14-2.01l.58-1.92s-.61-1.55,.31-2.85c.92-1.3-2.66-.6-2.66-.6l-2.53,4.35,1.17,3.03Z" fill="#2b1c1b"/>
      <path d="M13.16,16.56s1.22-2.17,3.14-2.01l.58-1.92s-.61-1.55,.31-2.85-2.66-.6-2.66-.6l-2.53,4.35,1.17,3.03Z" fill="#211a1a"/>
      <path d="M10.27,21.43s2.21-2.07,1.32-4.82-.01-4.45-.01-4.45l-2.26,2.26s.65,1,.32,1.74c0,0,1.96,2.31,.63,5.27Z" fill="#2b0606"/>
      <ellipse cx="13.43" cy="13.86" rx="1.69" ry="1.6" transform="translate(-5.86 13.56) rotate(-45)" fill="#0f0a0a"/>
      <circle cx="13.49" cy="13.92" r="1.51" fill="#2b1c1b"/>
      <ellipse cx="14.14" cy="13.79" rx=".55" ry=".31" transform="translate(-5.61 14.04) rotate(-45)" fill="#c14610"/>
      <ellipse cx="14.08" cy="13.85" rx=".36" ry=".08" transform="translate(-5.67 14.01) rotate(-45)" fill="#e8d20a"/>
      <circle cx="14.19" cy="13.74" r="1.23" fill="url(#_Градієнт_без_назви_7)"/>
      <path d="M18.09,5.66c.48-.48,.78-.78,.78-.78,0,0,.53-.17,.71,.89s-.8,1.79-.11,2.7c0,0-.55,.58-.6,.82-.05,.24-.16,.79-1.72,.99-1.23,.17-2.34,.94-2.83,1.71-.28,.31-.44,.78-.53,1.32,.01-.72,.14-1.41,.49-1.8,.4-.64,1.31-1.27,2.33-1.41,1.28-.17,1.37-.62,1.42-.82,.05-.19,.5-.67,.5-.67-.57-.75,.24-1.35,.09-2.22-.11-.67-.4-.74-.52-.74Z" fill="#911812"/>
      <path d="M18.09,5.66c.13,0,.41,.07,.52,.74,.15,.87-.66,1.47-.09,2.22,0,0-.45,.48-.5,.67-.04,.19-.13,.65-1.42,.82-1.01,.14-1.93,.77-2.33,1.41-.35,.39-.48,1.08-.49,1.8-.2,1.3,.06,2.98,.21,3.75,.04,.22,.07,.36,.08,.4h0c0,.52-.04,.95-.1,1.23-.25,1.13-.54,2.95-3.38,5.07,.08-.07,.18-.14,.28-.24,1.73-1.45,2.19-2.75,2.14-4.1,0-.13-.02-.27-.03-.4-.11-1.03-.46-2.09-.72-3.26-.05-.21-.08-.43-.11-.64-.22-1.72,.25-3.27,.63-4.19,.06-.07,.13-.13,.2-.2l.11-.11c1.68-1.69,3.84-3.84,4.98-4.97Z" fill="#68170f"/>
      <path d="M12.8,10.94c-.38,.92-.85,2.47-.63,4.19,.03,.21,.06,.42,.11,.64,.65,2.87,1.82,5.08-1.39,7.76,.71-.64,1.76-1.87,1.41-3.4-.15-.64-.43-1.38-.73-2.16-.75-1.98-1.54-4.22-.13-5.66,.36-.36,.83-.84,1.36-1.37Z" fill="#490c09"/>
      <path d="M14.32,12c-.13,.2-.21,.41-.25,.6-.09,.51-.03,1.96,0,3.35h0c0,.13,0,.26,0,.38,0,0,0,0,0,.01,0,.4,0,.79,0,1.14,0-.04-.04-.18-.08-.4-.15-.77-.41-2.45-.21-3.75,.08-.54,.24-1.01,.53-1.32Z" fill="#911812"/>
      <path d="M17.2,8.14c.11,.09,.21,.19,.27,.28,.14,.25-.29,.8-.29,.8l-.03-.98s.02-.04,.06-.09Z" fill="#490f0d"/>
      <path d="M17.81,6.65c-.31,.53-.15,1.16-.47,1.67,0,0-.17-.1-.17-.1,.37-.46,.29-1.11,.65-1.57h0Z" fill="#490f0d"/>
      <path d="M17.88,6.56l-.06,.09s.05-.07,.06-.09Z" fill="#68170f"/>
      <rect x="6.54" y="12.33" width=".9" height="7.65" transform="translate(13.47 -.21) rotate(45)" fill="#211a1a"/>
      <path d="M1.14,6.86l3.26,11.73,.56-.17S1.25,6.73,1.14,6.86h0Z" fill="#9e9e9e"/>
      <path d="M.8,7.08s.15-.06,.51-.08c.13,0,2.44-.14,3.64,1.39,.62,.79,.32,1.24,1.09,2.06,.17,.18,.63,.65,1.36,.9,1.14,.38,2.64,.11,2.78-.45,.14-.56-1.04-1.52-2.04-1.91-.33-.13-.5-.15-.8-.34-.72-.47-.8-1.09-1.1-1.49-1.12-1.45-5.44-.08-5.44-.07Z" fill="#211a1a"/>
      <path d="M6.79,10.18s2.17-1.22,2.01-3.14l1.92-.58s1.55,.61,2.85-.31,.6,2.66,.6,2.66l-4.35,2.53-3.03-1.17Z" fill="#2b1c1b"/>
      <path d="M7.21,10.6s2.17-1.22,2.01-3.14l1.92-.58s1.55,.61,2.85-.31,.6,2.66,.6,2.66l-4.35,2.53-3.03-1.17Z" fill="#211a1a"/>
      <path d="M2.34,13.5s2.07-2.21,4.82-1.32,4.45,.01,4.45,.01l-2.26,2.26s-1-.65-1.74-.32c0,0-2.31-1.96-5.27-.63Z" fill="#2b0606"/>
      <ellipse cx="9.91" cy="10.34" rx="1.69" ry="1.6" transform="translate(-4.41 10.04) rotate(-45)" fill="#0f0a0a"/>
      <circle cx="9.85" cy="10.27" r="1.51" fill="#2b1c1b"/>
      <ellipse cx="9.98" cy="9.63" rx=".55" ry=".31" transform="translate(-3.88 9.88) rotate(-45)" fill="#c14610"/>
      <ellipse cx="9.92" cy="9.69" rx=".36" ry=".08" transform="translate(-3.94 9.85) rotate(-45)" fill="#e8d20a"/>
      <circle cx="10.03" cy="9.58" r="1.23" fill="url(#_Градієнт_без_назви_7-2)"/>
      <path d="M18.11,5.68c.48-.48,.78-.78,.78-.78,0,0,.17-.53-.89-.71s-1.79,.8-2.7,.11c0,0-.58,.55-.82,.6-.24,.05-.79,.16-.99,1.72-.17,1.23-.94,2.34-1.71,2.83-.31,.28-.78,.44-1.32,.53,.72-.01,1.41-.14,1.8-.49,.64-.4,1.27-1.31,1.41-2.33,.17-1.28,.62-1.37,.82-1.42,.19-.05,.67-.5,.67-.5,.75,.57,1.35-.24,2.22-.09,.67,.11,.74,.4,.74,.52Z" fill="#911812"/>
      <path d="M18.11,5.68c0-.13-.07-.41-.74-.52-.87-.15-1.47,.66-2.22,.09,0,0-.48,.45-.67,.5-.19,.04-.65,.13-.82,1.42-.14,1.01-.77,1.93-1.41,2.33-.39,.35-1.08,.48-1.8,.49-1.3,.2-2.98-.06-3.75-.21-.22-.04-.36-.07-.4-.08h0c-.52,0-.95,.04-1.22,.1-1.13,.25-2.95,.54-5.07,3.38,.07-.08,.14-.18,.24-.28,1.45-1.73,2.75-2.19,4.1-2.14,.13,0,.27,.02,.4,.03,1.03,.11,2.09,.46,3.26,.72,.21,.05,.43,.08,.64,.11,1.72,.22,3.27-.25,4.19-.63,.07-.06,.13-.13,.2-.2l.11-.11c1.69-1.68,3.84-3.84,4.97-4.98Z" fill="#68170f"/>
      <path d="M12.83,10.97c-.92,.38-2.47,.85-4.19,.63-.21-.03-.42-.06-.64-.11-2.87-.65-5.08-1.82-7.76,1.39,.64-.71,1.87-1.76,3.4-1.41,.64,.15,1.38,.43,2.16,.73,1.98,.75,4.22,1.54,5.66,.13,.36-.36,.84-.83,1.37-1.36Z" fill="#490c09"/>
      <path d="M11.77,9.45c-.2,.13-.41,.21-.6,.25-.51,.09-1.96,.03-3.35,0h0c-.13,0-.25,0-.38,0,0,0,0,0-.01,0-.4,0-.79,0-1.14,0,.04,0,.18,.04,.4,.08,.77,.15,2.45,.41,3.75,.21,.54-.08,1.01-.24,1.32-.53Z" fill="#911812"/>
      <path d="M15.63,6.56c-.09-.11-.19-.21-.28-.27-.25-.14-.8,.29-.8,.29l.98,.03s.04-.02,.09-.06Z" fill="#490f0d"/>
      <path d="M17.12,5.96c-.46,.36-1.1,.28-1.57,.65,0,0-.1-.17-.1-.17,.51-.33,1.14-.16,1.67-.47h0Z" fill="#490f0d"/>
      <path d="M17.21,5.89l-.09,.06s.07-.05,.09-.06Z" fill="#68170f"/>
      <path d="M20.52,3.22s.52-.7,1.54-.02L23.73,0l-3.3,3.3" fill="#dc2f02"/>
      <path d="M20.51,3.22s.7-.52,.02-1.54l3.2-1.68-3.3,3.3" fill="#e85d04"/>
      <path d="M21.14,2.64s.31-.41,.9-.01l.98-1.87-1.93,1.93" fill="#f48c06"/>
      <path d="M21.14,2.63s.41-.31,.01-.9l1.87-.98-1.93,1.93" fill="#ffba08"/>
      <rect x="20.35" y="2.88" width=".47" height=".54" transform="translate(8.26 -13.63) rotate(45)" fill="#211a1a"/>
      <rect x="3.18" y="17.26" width="1.78" height="4.87" transform="translate(15.12 2.89) rotate(45)" fill="#490c09"/>
      <path d="M2.7,22.73c-.08,.08-.18,.15-.28,.2,.2-.42,.1-.96-.27-1.33s-.92-.48-1.33-.28c.05-.11,.11-.2,.2-.28,.43-.43,1.15-.39,1.62,.08s.5,1.19,.08,1.62Z" fill="#2b0606"/>
    </g>
  </g>
</svg>