<?xml version="1.0" encoding="UTF-8"?>
<svg xmlns="http://www.w3.org/2000/svg" viewBox="0 0 50 34.589071">
  <g id="back">
    <path d="M50,25.0818146c0-1.7234839-6.9858512-3.120665-15.6033252-3.120665s-15.6033252,1.3971811-15.6033252,3.120665,6.9858512,3.120665,15.6033252,3.120665c.2766173,0,.5462143-.005442,.8192943-.0082719,.9071283,.5234667,3.3877588,.8998904,6.3136544,.8998904,3.6932187,0,6.6871394-.5987841,6.6871394-1.3374279,0-.3022491-.5072496-.580118-1.3526111-.8041111,1.9602113-.5216709,3.1358482-1.1679637,3.1358482-1.8707447Z" fill="#0c0c0c" opacity=".67"/>
    <ellipse cx="16.4817459" cy="27.2613267" rx="9.2464149" ry="2.8895047" fill="#0c0c0c" opacity=".67"/>
  </g>
  <g id="form">
    <path d="M46.5325944,8.1905959l-1.6296496,1.953308-4.1493597,4.9815032c-3.4674056,3.4674056-23.1160373,4.6232075-23.1160373,4.6232075l-9.4891587-2.5889849-3.2246618-.8784207C1.4563216,11.6580015,7.235331,5.8789922,7.235331,5.8789922L23.4165571,.0999829c20.8044336-1.1558019,23.1160373,8.0906131,23.1160373,8.0906131Z" fill="#6b8087"/>
    <path d="M46.2667825,9.8895908l-2.0457919,13.3264294c-.7743675-2.3116037-1.5372362-4.6232075-2.3116037-6.9348112l4.3573956-6.3916182Z" fill="#415256"/>
    <path d="M15.325944,30.1508314L5.9061306,17.5872707l9.8821624,2.7970208c1.606511,.6241076-.462349,9.7665399-.462349,9.7665399Z" fill="#506368"/>
    <path d="M44.2209907,23.2160202l-1.4563216,1.1558019-.7050222,.5547623-6.4146862-1.895532s-4.1377904,2.3116037-5.2935923,4.6232075c-.1848973,.3582958-.3582958,.7512994-.543193,1.1558019-.346797,.7859368-.6703848,1.6181508-.9593353,2.3463116-4.8081753,.1502599-10.043921-.4969863-12.3323862-.8206447,.0346374-7.9172146,4.6232075-9.2810523,4.6232075-9.2810523l-.1502599-.0231386c6.715206-.2542425,15.8575677-3.0629032,19.4174572-4.2417731,.6934529,.9708341,1.4216137,2.0688599,2.1266359,3.2708685,.6472462,1.0980259,1.2020791,2.1614144,1.6874961,3.1553871Z" fill="#69898e"/>
    <path d="M46.5325944,8.1905959l-.2542425,1.6874256-.0115693,.0115693-4.3573956,6.3916182c.7743675,2.3116037,1.5372362,4.6232075,2.3116037,6.9348112-.485417-.9939727-1.0402499-2.0573612-1.6874961-3.1553871-.7050222-1.2020085-1.433183-2.3000344-2.1266359-3.2708685-3.5598895,1.1788699-12.7022512,3.9875305-19.4174572,4.2417731l.1502599,.0231386s-4.5885701,1.3638377-4.6232075,9.2810523l-1.1905098-.1848973s2.0688599-9.1424323,.462349-9.7665399l-9.8821624-2.7970208-.9824034-1.3060618,3.2246618,.8784207,9.4891587,2.5889849s19.6486317-1.1558019,23.1160373-4.6232075l4.1493597-4.9815032,1.6296496-1.953308Z" fill="#9fb9c1"/>
    <polygon points="42.9149289 25.1808975 42.0018708 26.3481981 41.5857286 26.8914616 38.2570841 26.9954443 35.6449606 23.0310524 42.764669 24.371822 42.0596468 24.9265844 42.9149289 25.1808975" fill="#0c0c0c" opacity=".59"/>
    <path d="M43.0651888,8.1905959c-.2891621-3.8653606-10.2890281-7.5704396-13.8696224-4.6232075-1.6775008,1.3807728-.6935433,3.1907233-2.3116037,5.7790093-3.4919838,5.5858562-12.7250966,4.5947207-12.7138205,5.7790093,.0103017,1.0819065,7.7286975,3.2390926,16.1812261,1.1558019,4.7445485-1.1693861,12.9839841-4.4792194,12.7138205-8.0906131Z" fill="#7c9399"/>
  </g>
  <g id="small_rocks" data-name="small rocks">
    <path d="M43.5968831,26.0246102l-2.9126433,4.1262211-2.3578104-.2889505-2.1613438-.2658824-6.3569103-.7859368c.1848973-.4045024,.3582958-.7975061,.543193-1.1558019l3.2593697,.3930037,3.929684,.4622784,2.5427782,.3005198,1.9186706-2.4618636,.9130581-1.1673006,.6819541,.8437128Z" fill="#9fb9c1"/>
    <polygon points="47.619051 30.9945442 40.7535851 34.589071 40.6842398 30.1508314 43.5968831 26.0246102 47.619051 30.9945442" fill="#506368"/>
    <path d="M42.9149289,25.1808975l-.9130581,1.1673006-.4161423,.5432636-1.5025283,1.9186001-2.5427782-.3005198-3.929684-.4622784-3.2593697-.3930037c1.1558019-2.3116037,5.2935923-4.6232075,5.2935923-4.6232075l6.4146862,1.895532,.8552821,.2543131Z" fill="#87a3aa"/>
    <path d="M40.7535851,34.589071l-12.7138205-1.1558019s.3351571-.9939727,.8090754-2.2768958c.2889505-.7281608,.6125383-1.5603748,.9593353-2.3463116l6.3569103,.7859368,2.1613438,.2658824,2.3578104,.2889505,.0693453,4.4382397Z" fill="#6b8087"/>
    <polygon points="10.6333913 31.179512 0 30.3357286 1.005542 28.8100617 8.4027021 29.7000517 10.6333913 31.179512" fill="#69898e"/>
    <path d="M12.9796324,30.3357286l-2.3462411,.8437833-.9015593-1.3176311,.9015593-2.8664366s2.3116037,2.357881,2.3462411,3.3402843Z" fill="#415256"/>
    <path d="M10.6333913,26.9954443l-.9015593,2.8664366-1.3291298-.1618292-7.3971602-.88999s.2773812-.3813638,.7628687-.947766l7.3277443,1.0980259,.6356769-2.3000344,.9015593,.3351571Z" fill="#6b8087"/>
    <path d="M9.731832,26.6602872l-.6356769,2.3000344-7.3277443-1.0980259,.3351571-.3697945v-.0115693c.6819541-.7628687,1.6643575-1.7452721,2.8201594-2.5774861l4.796606,1.7568414h.0114988Z" fill="#87a3aa"/>
    <polygon points="10.6333913 31.179512 8.4027021 29.7000517 9.731832 29.8618809 10.6333913 31.179512" fill="#6b8087"/>
  </g>
</svg>