<?xml version="1.0" encoding="UTF-8"?>
<svg id="_Шар_2" data-name="Шар 2" xmlns="http://www.w3.org/2000/svg" viewBox="0 0 24 21.63">
  <g id="tasche">
    <path d="M6.93,6.82v2.37c-.25-.01-.49-.03-.73-.05-.52-.03-1.05-.08-1.55-.13-1.66-.16-3.22-.37-4.65-.6v-2.57c1.41,.28,2.98,.56,4.68,.75,.5,.08,1.02,.13,1.55,.17,.23,.03,.47,.04,.71,.07Z" fill="#231409"/>
    <path d="M19.12,5.58v3.51c-.47,.03-.95,.06-1.46,.08-1.75,.1-3.56,.15-5.44,.15-2.04,0-4.01-.05-5.9-.15-.49-.02-.97-.05-1.44-.08v-3.51c.45,.05,.92,.08,1.39,.1,2.04,.15,4.17,.21,6.41,.19,1.75-.02,3.43-.08,5.05-.18,.47-.03,.94-.06,1.39-.11Z" fill="#fff" stroke="#000" stroke-miterlimit="10" stroke-width=".9"/>
    <path d="M24,5.83v2.57c-1.44,.23-3,.44-4.65,.6-.46,.04-.93,.09-1.41,.12-.28,.03-.58,.05-.87,.07v-2.37c.29-.02,.57-.04,.85-.08,.48-.04,.95-.1,1.41-.15,1.7-.21,3.26-.48,4.68-.76Z" fill="#231409"/>
    <path d="M6.93,7.91v2.37c-.25-.01-.49-.03-.73-.05-.52-.03-1.05-.08-1.55-.13-1.66-.16-3.22-.37-4.65-.6v-2.57c1.41,.28,2.98,.56,4.68,.75,.5,.08,1.02,.13,1.55,.17,.23,.03,.47,.04,.71,.07Z" fill="#3a220f"/>
    <path d="M24,6.92v2.57c-1.44,.23-3,.44-4.65,.6-.46,.04-.93,.09-1.41,.12-.28,.03-.58,.05-.87,.07v-2.37c.29-.02,.57-.04,.85-.08,.48-.04,.95-.1,1.41-.15,1.7-.21,3.26-.48,4.68-.76Z" fill="#3a220f"/>
    <path d="M24,11.63v2.56c-1.44,.23-3,.45-4.65,.6-.01,.01-.02,.01-.04,.01-.64,.07-1.3,.12-1.97,.16-1.63,.12-3.37,.19-5.18,.19s-3.64-.07-5.32-.19c-.73-.04-1.44-.1-2.14-.17h-.04c-1.66-.16-3.22-.37-4.65-.6v-2.56c1.41,.28,2.96,.54,4.65,.75,.5,.07,1.02,.12,1.55,.17,.5,.04,1.01,.09,1.54,.12h.01c.4,.34,.93,.52,1.5,.52h2.55c-.35-.01-.65-.15-.88-.37,.38,.01,.76,.01,1.16,.01h.38c.25,0,.49-.01,.73-.01-.23,.22-.53,.36-.87,.37h2.43c.58,0,1.1-.19,1.5-.52h.01c.57-.03,1.13-.08,1.68-.14,.48-.04,.95-.09,1.41-.15,1.69-.21,3.25-.47,4.65-.75Z" fill="#231409"/>
    <path d="M24,12.72v2.56c-1.44,.23-3,.45-4.65,.6-.01,.01-.02,.01-.04,.01-.64,.07-1.3,.12-1.97,.16-1.63,.12-3.37,.19-5.18,.19s-3.64-.07-5.32-.19c-.73-.04-1.44-.1-2.14-.17h-.04c-1.66-.16-3.22-.37-4.65-.6v-2.56c1.41,.28,2.96,.54,4.65,.75,.5,.07,1.02,.12,1.55,.17,.5,.04,1.01,.09,1.54,.12h.01c.4,.34,.93,.52,1.5,.52h2.55c-.35-.01-.65-.15-.88-.37,.38,.01,.76,.01,1.16,.01h.38c.25,0,.49-.01,.73-.01-.23,.22-.53,.36-.87,.37h2.43c.58,0,1.1-.19,1.5-.52h.01c.57-.03,1.13-.08,1.68-.14,.48-.04,.95-.09,1.41-.15,1.69-.21,3.25-.47,4.65-.75Z" fill="#3a220f"/>
    <path d="M22.9,16.73v1.62c0,1.81-1.47,3.28-3.28,3.28H4.38c-1.81,0-3.28-1.47-3.28-3.28v-1.62c0,1.81,1.47,3.28,3.28,3.28h15.24c1.81,0,3.28-1.47,3.28-3.28Z" fill="#38230e"/>
    <path d="M22.87,5.21c-.21-1.62-1.59-2.86-3.25-2.86H4.38c-1.67,0-3.03,1.23-3.25,2.85-.02,.15-.03,.31-.03,.45v11.08c0,.23,.02,.44,.06,.65v.02c.03,.18,.08,.34,.15,.5,.02,.03,.03,.08,.05,.11,.03,.08,.08,.16,.11,.24,.02,.03,.03,.05,.05,.06,.03,.08,.1,.16,.15,.24,.11,.18,.26,.34,.4,.49,.06,.08,.15,.15,.23,.21,.16,.15,.34,.26,.52,.36,.06,.03,.13,.06,.19,.1s.13,.06,.21,.08c.11,.05,.23,.08,.34,.11,.1,.03,.21,.05,.31,.06,.16,.03,.34,.05,.52,.05h15.24c.18,0,.36-.02,.52-.05,.1-.02,.19-.03,.27-.05h.02c.16-.05,.32-.1,.47-.16,.21-.08,.4-.19,.58-.32,.16-.11,.32-.24,.45-.39,.15-.15,.29-.31,.4-.49,.05-.08,.11-.16,.15-.24,.08-.13,.15-.28,.21-.42,.06-.16,.11-.32,.15-.5,.05-.21,.06-.44,.06-.66V5.65c0-.15-.02-.29-.03-.44Zm-3.35,6.71c0,.94-.47,1.78-1.2,2.31h-.02c-.6,.5-1.38,.78-2.23,.78h-3.61c.5-.02,.95-.23,1.29-.55,.4-.34,.66-.86,.7-1.42h1.41c1.8,0,3.25-1.31,3.25-2.93V3.17c.26,.44,.4,.92,.4,1.42v7.33ZM4.87,3.2s0-.02,.02-.02v6.92c0,1.62,1.46,2.93,3.25,2.93h1.59c.03,.57,.29,1.07,.68,1.42,.34,.32,.79,.53,1.31,.55h-3.79c-.86,0-1.63-.27-2.23-.78h-.02c-.73-.53-1.2-1.37-1.2-2.31V4.59c0-.5,.13-.97,.37-1.39h.02Z" fill="#543614"/>
    <path d="M22.87,5.21c-.21-1.62-1.59-2.86-3.25-2.86H4.38c-1.67,0-3.03,1.23-3.25,2.85-.02,.15-.03,.31-.03,.45v11.08c0,.23,.02,.44,.06,.65v.02c.03,.18,.08,.34,.15,.5,.02,.03,.03,.08,.05,.11,.03,.08,.08,.16,.11,.24,.02,.03,.03,.05,.05,.06,.03,.08,.1,.16,.15,.24,.11,.18,.26,.34,.4,.49,.06,.08,.15,.15,.23,.21,.16,.15,.34,.26,.52,.36,.06,.03,.13,.06,.19,.1s.13,.06,.21,.08c.11,.05,.23,.08,.34,.11,.1,.03,.21,.05,.31,.06,.16,.03,.34,.05,.52,.05h15.24c.18,0,.36-.02,.52-.05,.1-.02,.19-.03,.27-.05h.02c.16-.05,.32-.1,.47-.16,.21-.08,.4-.19,.58-.32,.16-.11,.32-.24,.45-.39,.15-.15,.29-.31,.4-.49,.05-.08,.11-.16,.15-.24,.08-.13,.15-.28,.21-.42,.06-.16,.11-.32,.15-.5,.05-.21,.06-.44,.06-.66V5.65c0-.15-.02-.29-.03-.44Zm-3.35,6.71c0,.94-.47,1.78-1.2,2.31h-.02c-.6,.5-1.38,.78-2.23,.78h-3.61c.5-.02,.95-.23,1.29-.55,.4-.34,.66-.86,.7-1.42h1.41c1.8,0,3.25-1.31,3.25-2.93V3.17c.26,.44,.4,.92,.4,1.42v7.33ZM4.87,3.2s0-.02,.02-.02v6.92c0,1.62,1.46,2.93,3.25,2.93h1.59c.03,.57,.29,1.07,.68,1.42,.34,.32,.79,.53,1.31,.55h-3.79c-.86,0-1.63-.27-2.23-.78h-.02c-.73-.53-1.2-1.37-1.2-2.31V4.59c0-.5,.13-.97,.37-1.39h.02Z" fill="#543614"/>
    <path d="M20.78,5.44c-.16-1.04-.79-1.91-1.67-2.39-.03-.02-.08-.03-.11-.05-.4-.21-.87-.34-1.36-.36H6.68c-.11,0-.23,0-.34,.02-.53,.05-1.04,.24-1.46,.52v6.94c0,1.62,1.46,2.93,3.25,2.93h1.59c.03,.57,.29,1.07,.68,1.42,.34,.32,.79,.53,1.31,.55h-3.79c-.86,0-1.63-.27-2.23-.78h-.02c-.73-.53-1.2-1.37-1.2-2.31V4.59c0-.5,.13-.97,.37-1.39-.76,.5-1.29,1.31-1.42,2.25-.02,.16-.03,.31-.03,.47V15.35c0,.89,.36,1.68,.94,2.28,.58,.61,1.42,1,2.35,1h10.85c.92,0,1.76-.39,2.38-1,.55-.6,.91-1.39,.91-2.28V5.92c0-.16-.02-.32-.03-.49Zm-1.26,6.49c0,.94-.47,1.78-1.2,2.31h-.02c-.6,.5-1.38,.78-2.23,.78h-3.61c.5-.02,.95-.23,1.29-.55,.4-.34,.66-.86,.7-1.42h1.41c1.8,0,3.25-1.31,3.25-2.93V3.17c.26,.44,.4,.92,.4,1.42v7.33Z" fill="#49290a"/>
    <path d="M19.12,3.04v7.07c0,1.62-1.46,2.93-3.25,2.93h-7.73c-1.8,0-3.25-1.31-3.25-2.93V3.15c0-.28,.05-.55,.13-.81C5.42,1.13,6.66,.24,8.13,.24c1.13-.15,2.43-.24,3.87-.24s2.73,.1,3.87,.24c.21,0,1.37,.02,2.3,.86,.39,.34,.68,.78,.83,1.25,.06,.23,.11,.45,.13,.7Z" fill="#664321"/>
    <path d="M19.52,4.59v7.33c0,.94-.47,1.78-1.2,2.31h-.02c-.6,.5-1.38,.78-2.23,.78h-3.61c.5-.02,.95-.23,1.29-.55,.4-.34,.66-.86,.7-1.42h1.41c1.8,0,3.25-1.31,3.25-2.93V3.17c.26,.44,.4,.92,.4,1.42Z" fill="#3a220f"/>
    <path d="M11.71,15.01h-3.79c-.86,0-1.63-.27-2.23-.78h-.02c-.73-.53-1.2-1.37-1.2-2.31V4.59c0-.5,.13-.97,.37-1.39h.02s0-.02,.02-.02v6.92c0,1.62,1.46,2.93,3.25,2.93h1.59c.03,.57,.29,1.07,.68,1.42,.34,.32,.79,.53,1.31,.55Z" fill="#3a220f"/>
    <path d="M19.12,3.15v6.96c0,1.62-1.46,2.93-3.25,2.93h-1.41c-.03,.57-.29,1.08-.7,1.42-.34,.32-.79,.53-1.29,.55h-.76c-.52-.02-.97-.23-1.31-.55-.39-.36-.65-.86-.68-1.42h-1.59c-1.8,0-3.25-1.31-3.25-2.93V3.15c.18-.31,.4-.58,.7-.81,.39-.32,.86-.57,1.37-.71,.31-.08,.63-.13,.97-.13,1.18-.13,2.56-.24,4.08-.24s2.9,.11,4.08,.24c.11,0,.5,.02,.99,.15,.42,.11,.91,.32,1.36,.7,.03,.02,.05,.05,.08,.06,.19,.18,.37,.37,.5,.58,.05,.05,.08,.11,.11,.16Z" fill="#664321"/>
    <path d="M11.25,.69c.24,0,.5-.01,.75-.01,.33,0,.66,0,.97,.02" fill="none" stroke="#3d1f09" stroke-miterlimit="10" stroke-width=".93"/>
    <path d="M9.91,.76c.42-.03,.87-.06,1.34-.07" fill="none" stroke="#3d1f09" stroke-miterlimit="10" stroke-width=".93"/>
    <path d="M6.79,1.79c.35-.41,.85-.72,1.43-.85" fill="none" stroke="#3d1f09" stroke-miterlimit="10" stroke-width=".93"/>
    <path d="M6.27,3.19c0-.52,.2-1.01,.53-1.39" fill="none" stroke="#3d1f09" stroke-miterlimit="10" stroke-width=".93"/>
    <line x1="6.27" y1="5.86" x2="6.27" y2="4.65" fill="none" stroke="#3d1f09" stroke-miterlimit="10" stroke-width=".93"/>
    <line x1="6.27" y1="7.47" x2="6.27" y2="5.86" fill="none" stroke="#3d1f09" stroke-miterlimit="10" stroke-width=".93"/>
    <path d="M6.95,10.26c-.31-.3-.53-.67-.63-1.09" fill="none" stroke="#3d1f09" stroke-miterlimit="10" stroke-width=".93"/>
    <path d="M15.44,11.02h-6.88" fill="none" stroke="#3d1f09" stroke-miterlimit="10" stroke-width=".74"/>
    <path d="M17.62,9.36c-.15,.44-.44,.82-.82,1.11" fill="none" stroke="#3d1f09" stroke-miterlimit="10" stroke-width=".93"/>
    <path d="M17.73,8.31v.39c0,.23-.04,.45-.11,.67" fill="none" stroke="#3d1f09" stroke-miterlimit="10" stroke-width=".93"/>
    <line x1="17.73" y1="5.69" x2="17.73" y2="6.89" fill="none" stroke="#3d1f09" stroke-miterlimit="10" stroke-width=".93"/>
    <path d="M17.2,1.79c.33,.39,.53,.87,.53,1.4" fill="none" stroke="#3d1f09" stroke-miterlimit="10" stroke-width=".93"/>
    <path d="M16.3,1.12c.22,.1,.45,.24,.66,.42,.08,.08,.16,.16,.24,.24" fill="none" stroke="#3d1f09" stroke-miterlimit="10" stroke-width=".93"/>
    <path d="M15.11,.87c.12,0,.64,0,1.19,.26" fill="none" stroke="#3d1f09" stroke-miterlimit="10" stroke-width=".93"/>
    <path d="M13.94,11.02c-.39-.47-.97-.76-1.62-.76h-.47c-.66,0-1.25,.29-1.62,.76-.34,.37-.53,.86-.53,1.39v.47s0,.11,.02,.16c.03,.57,.29,1.07,.68,1.42,.34,.32,.79,.53,1.31,.55,.05,.02,.1,.02,.15,.02h.47s.1,0,.15-.02c.5-.02,.95-.23,1.29-.55,.4-.34,.66-.86,.7-1.42,.02-.05,.02-.11,.02-.16v-.47c0-.53-.19-1.02-.53-1.39Zm-.23,2.31c-.03,.08-.06,.15-.11,.23-.03,.08-.08,.15-.13,.21-.1,.15-.23,.26-.37,.36-.06,.05-.15,.1-.23,.13-.05,.03-.1,.06-.16,.08-.18,.08-.39,.11-.6,.11-.1,0-.21-.02-.31-.03-.05,0-.1-.02-.15-.03-.05,0-.1-.02-.15-.05-.08-.02-.15-.05-.19-.08-.1-.05-.19-.11-.29-.19-.11-.08-.21-.18-.29-.29-.05-.06-.1-.13-.13-.21-.05-.08-.08-.15-.11-.23-.05-.1-.06-.19-.08-.29s-.03-.21-.03-.31c0-.95,.78-1.71,1.73-1.71s1.71,.76,1.71,1.71c0,.1-.02,.21-.03,.31s-.03,.19-.08,.29Z" fill="#918b86"/>
    <path d="M12.11,11.02v3.43c-.95,0-1.73-.76-1.73-1.71s.78-1.71,1.73-1.71Z" fill="#bcb0aa"/>
    <path d="M13.83,12.73c0,.95-.78,1.71-1.71,1.71v-3.43c.94,0,1.71,.76,1.71,1.71Z" fill="#a89d96"/>
  </g>
</svg>