<?xml version="1.0" encoding="UTF-8"?>
<svg id="_Шар_2" data-name="Шар 2" xmlns="http://www.w3.org/2000/svg" viewBox="0 0 22.8 23.12">
  <g id="dolch">
    <g>
      <g>
        <path d="M.89,21.56h-.03S0,23.12,0,23.12c.19-.63,.38-1.27,.57-1.9l.32,.34Z" fill="#2fd0f9"/>
        <path d="M.58,21.17c.38,0,.76,0,1.15-.01l.16,.17-1,.23-.32-.34s0-.03,.01-.05Z" fill="#2fa6f9"/>
        <polygon points="1.9 21.33 2.13 21.58 1.96 22.68 1.63 22.33 1.9 21.33" fill="#2f53f9"/>
        <polygon points=".89 21.56 1.89 21.33 1.9 21.33 1.63 22.33 .89 21.56" fill="#257bf9"/>
        <path d="M0,23.12l1.63-.78,.33,.34c-.65,.15-1.31,.29-1.96,.44Z" fill="#2f73f9"/>
        <polygon points=".87 21.56 .89 21.56 1.63 22.33 0 23.12 .87 21.56" fill="#2fa0f9"/>
      </g>
      <path d="M13.18,14.23l-4.77,3.06-.16,.14-1.65-1.65c.21-.42,.45-.84,.71-1.27l1.36,1.36,.11-.1,3.36-2.16s-1.29-1.41,.39-2.51c1.57-1.02,2.2-.7,5.69-6.36,.18-.3,.37-.62,.57-.94,.02-.04,.05-.08,.07-.11,.95-.88,1.99-1.89,3.08-3.02,.06-.05,.11-.1,.16-.13,.44-.34,.69-.54,.69-.54-5.84,9.72-6.68,9.1-9.06,10.66-2.38,1.56-.56,3.57-.56,3.57Z" fill="#002e72"/>
      <path d="M18.88,3.7s.03-.04,.04-.07c0,0-6.82,5.53-7.86,4.89l-4.34,5.4,.6,.6c-.27,.42-.5,.84-.71,1.27l-1.15-1.15,6.18-7.68c1.1,.69,6.83-3.56,9.63-5.74h0c.25-.21,.48-.37,.68-.53-1.09,1.13-2.12,2.14-3.08,3.02Z" fill="#3d69b7"/>
      <path d="M9.49,12.01c-.56,.54-1.24,1.4-1.84,2.84l-.93-.93,4.34-5.4c1.04,.64,7.86-4.89,7.86-4.89-.04,.06-.07,.13-.11,.18-1.58,1.51-2.91,2.47-5.49,4.72-2.09,1.82-3.62,3.28-3.82,3.48Z" fill="#2860a0"/>
      <path d="M2.75,21.92c-.11,.04-.25,.11-.4,.23-.23,.19-.34,.41-.39,.53,0-.06,0-.14-.04-.23-.07-.17-.19-.22-.3-.34-.2-.22-.1-.41-.23-.62-.09-.14-.3-.3-.81-.31,.23-.09,.52-.22,.81-.43,.11-.08,.21-.17,.3-.25,.07,.21,.21,.51,.44,.83,.21,.28,.44,.48,.61,.61Z" fill="#bcbc8b"/>
      <path d="M5.36,18.09c-.79-.37-1.2-.66-1.51-.82,.17-.49,.25-.95,.3-1.34,.18-.06,1.03-.36,1.88,.06,.87,.43,1.39,1.45,1.28,2.54-.06,.06-.12,.13-.18,.2-.36-.11-.92-.24-1.76-.63Z" fill="#bcbc8b"/>
      <path d="M12.16,13.63l-3.36,2.16-.11,.1-1.03-1.03c.59-1.44,1.28-2.3,1.84-2.84,.2-.2,1.73-1.66,3.82-3.48,2.58-2.24,3.91-3.2,5.49-4.72-4,6.64-4.6,6.23-6.26,7.3-1.68,1.1-.39,2.51-.39,2.51Z" fill="#2847a0"/>
      <path d="M10.07,17.34s-.47,.03-1.03,.18c-1.21-1.48-3.94-.33-2.69-1.67,1.12-1.22,.63-3.15,.44-3.78l.63-.91s1,2.51-.36,3.98c-1.37,1.47,2.06-.06,3.01,2.2Z" fill="#2f7edd"/>
      <path d="M7.25,18.58s-2.24-3.44-3.34-2.34l2.89-4.16c.19,.63,.69,2.55-.44,3.78-1.25,1.34,1.48,.19,2.69,1.67-.64,.16-1.43,.48-1.8,1.06Z" fill="#173872"/>
      <path d="M3.44,20.04c-.32-.13-.64-.21-.95-.37,.16-.17,.3-.35,.43-.56,.16,.3,.34,.62,.52,.93Z" fill="#8c400c"/>
      <path d="M2.95,21.82c-.06,.04-.13,.06-.2,.1-.47-.34-.85-.85-1.05-1.44,.1-.08,.21-.18,.31-.28,.27,.51,.61,.98,.96,1.36-.03,.08-.03,.17-.02,.26Z" fill="#8c400c"/>
      <path d="M6.76,19.1c-.04-.14-.12-.26-.22-.36-.38-.38-1-.37-1.37,0-.12,.12-.21,.26-.25,.42-.51-.16-1.15-.35-1.66-.57,.14-.24,.28-.5,.39-.78,.08-.18,.14-.35,.2-.52,.32,.16,.72,.45,1.51,.82,.84,.39,1.4,.52,1.76,.63-.11,.13-.23,.25-.36,.37Z" fill="#8c400c"/>
      <path d="M3.72,19.67c-.13,.13-.21,.28-.24,.45-.19-.33-.39-.69-.56-1.01,.12-.16,.23-.34,.33-.53,.52,.22,1.15,.42,1.66,.57-.04,.16-.06,.31-.02,.47-.34-.3-.85-.28-1.17,.04Z" fill="#5b2806"/>
      <path d="M3.18,21.16c-.11,.11-.18,.25-.21,.4-.35-.38-.69-.85-.96-1.36,.16-.16,.33-.33,.49-.53,.31,.16,.63,.23,.95,.37,.01,.03,.03,.06,.04,.08-.05,.28,.03,.57,.24,.78l.02,.02c-.21,0-.41,.08-.57,.24Z" fill="#5b2806"/>
    </g>
  </g>
</svg>