<?xml version="1.0" encoding="UTF-8"?>
<svg id="_Шар_2" data-name="Шар 2" xmlns="http://www.w3.org/2000/svg" viewBox="0 0 23.49 23.46">
  <g id="dolch">
    <g>
      <path d="M6.49,19.39c-.42,.31-.86,.63-1.28,.94l-2.38-1.67c.28-.37,.56-.76,.83-1.14l2.83,1.87Z" fill="#894d25"/>
      <path d="M4.29,20.99c-.47,.34-.93,.68-1.4,1.02l-1.44-1.44c.34-.47,.68-.93,1.02-1.4l1.82,1.82Z" fill="#936639"/>
      <path d="M7.87,18.39c-.35,.25-.69,.51-1.04,.76l-2.52-2.52c.25-.35,.51-.69,.76-1.04l2.8,2.8Z" fill="#936639"/>
      <path d="M.84,21.43c-.33,.33-.33,.87,0,1.2l-.36,.36c-.59-.59-.64-1.5-.11-2.03s1.43-.48,2.02,.11l-.36,.36c-.33-.33-.86-.33-1.19,0Z" fill="#bcc6ce"/>
      <path d="M2.51,23.09c-.53,.53-1.44,.49-2.03-.11l.36-.36c.33,.33,.86,.33,1.2,0s.33-.86,0-1.19l.36-.36c.59,.59,.64,1.49,.11,2.02Z" fill="#617d8c"/>
      <path d="M23.32,.14l-5.4,5.4h-1.1c2.17-1.8,4.33-3.6,6.51-5.4Z" fill="#adb5bd"/>
      <path d="M15.79,7.67l-5.11,5.11v-2.14c1.19-.99,2.39-1.98,3.58-2.97h1.53Z" fill="#adb5bd"/>
      <path d="M8.57,12.4v2.49s-2.04,2.04-2.04,2.04c-.76-.76-.98-1.62-1.05-1.96,1.03-.86,2.06-1.71,3.09-2.57Z" fill="#adb5bd"/>
      <path d="M17.91,6.66v-1.12S23.32,.14,23.32,.14c.06-.04,.11-.1,.17-.14l-.14,.14c-1.81,2.18-3.62,4.34-5.43,6.52Z" fill="#7d8489"/>
      <path d="M12.82,12.77h-2.14s5.11-5.11,5.11-5.11v1.54c-.99,1.19-1.98,2.38-2.97,3.56Z" fill="#7d8489"/>
      <path d="M8.49,17.98c-.34-.07-1.17-.3-1.92-1.02l-.04-.04,2.04-2.04h2.49c-.85,1.03-1.71,2.06-2.57,3.09Z" fill="#7d8489"/>
      <path d="M11.05,14.89h-2.49s2.12-2.12,2.12-2.12h2.14c-.59,.71-1.17,1.41-1.77,2.12Z" fill="#99a3aa"/>
      <path d="M10.69,12.77l-2.12,2.12v-2.49c.71-.59,1.41-1.17,2.12-1.77v2.14Z" fill="#bcc6ce"/>
      <path d="M15.79,9.21v-1.54s2.12-2.12,2.12-2.12v1.12c-.71,.85-1.41,1.7-2.12,2.55Z" fill="#99a3aa"/>
      <path d="M17.91,5.54l-2.12,2.12h-1.53c.85-.71,1.7-1.41,2.55-2.12h1.1Z" fill="#bcc6ce"/>
      <path d="M15.79,7.67l-5.11,5.11v-2.14c1.19-.99,2.39-1.98,3.58-2.97h1.53Z" fill="none"/>
      <path d="M12.82,12.77h-2.14s5.11-5.11,5.11-5.11v1.54c-.99,1.19-1.98,2.38-2.97,3.56Z" fill="none"/>
      <path d="M5.21,20.33c-.3,.22-.62,.45-.92,.66l-1.82-1.82c.13-.17,.24-.34,.37-.51l2.38,1.67Z" fill="#99582a"/>
      <path d="M6.83,19.15c-.11,.08-.22,.16-.34,.24l-2.83-1.87c.22-.29,.44-.59,.65-.89l2.52,2.52Z" fill="#99582a"/>
      <line x1="2.39" y1="21.06" x2="6.27" y2="17.18" fill="none"/>
      <path d="M10.95,19.62l-.71,.71c-1-.64-2.45-1.68-3.98-3.2-1.48-1.5-2.5-2.91-3.13-3.91l.71-.71c.63,1,1.65,2.41,3.13,3.91,1.53,1.53,2.98,2.57,3.98,3.2Z" fill="#99a3aa"/>
      <path d="M11.77,18.8l-.82,.82c-1-.64-2.45-1.68-3.98-3.2-1.48-1.5-2.5-2.91-3.13-3.91l.82-.82c.58,.96,1.56,2.43,3.09,3.95,1.56,1.58,3.05,2.57,4.02,3.16Z" fill="#bcc6ce"/>
    </g>
  </g>
</svg>