<?xml version="1.0" encoding="UTF-8"?>
<svg id="_Шар_2" data-name="Шар 2" xmlns="http://www.w3.org/2000/svg" viewBox="0 0 23.49 23.46">
  <g id="dolch">
    <g>
      <path d="M6.49,19.39c-.42,.31-.86,.63-1.28,.94l-2.38-1.67c.28-.37,.56-.76,.83-1.14l2.83,1.87Z" fill="#894d25"/>
      <path d="M4.29,20.99c-.47,.34-.93,.68-1.4,1.02l-1.44-1.44c.34-.47,.68-.93,1.02-1.4l1.82,1.82Z" fill="#726a39"/>
      <path d="M7.87,18.39c-.35,.25-.69,.51-1.04,.76l-2.52-2.52c.25-.35,.51-.69,.76-1.04l2.8,2.8Z" fill="#726a39"/>
      <path d="M2.39,21.06l-1.92,1.92c-.59-.59-.64-1.5-.11-2.03s1.43-.48,2.02,.11Z" fill="#726a39"/>
      <path d="M2.51,23.09c-.53,.53-1.44,.49-2.03-.11l1.92-1.92c.59,.59,.64,1.49,.11,2.02Z" fill="#5b5122"/>
      <path d="M23.32,.14l-5.4,5.4h-1.1c2.17-1.8,4.33-3.6,6.51-5.4Z" fill="#bc6a33"/>
      <path d="M15.79,7.67l-5.11,5.11v-2.14c1.19-.99,2.39-1.98,3.58-2.97h1.53Z" fill="#bc6a33"/>
      <path d="M8.57,12.4v2.49l-2.04,2.04c-.76-.76-.98-1.62-1.05-1.96,1.03-.86,2.06-1.71,3.09-2.57Z" fill="#bc6a33"/>
      <path d="M17.91,6.66v-1.12L23.32,.14c.06-.04,.11-.1,.17-.14l-.14,.14c-1.81,2.18-3.62,4.34-5.43,6.52Z" fill="#9b5424"/>
      <path d="M12.82,12.77h-2.14l5.11-5.11v1.54c-.99,1.19-1.98,2.38-2.97,3.56Z" fill="#9b5424"/>
      <path d="M8.49,17.98c-.34-.07-1.17-.3-1.92-1.02l-.04-.04,2.04-2.04h2.49c-.85,1.03-1.71,2.06-2.57,3.09Z" fill="#9b5424"/>
      <path d="M11.05,14.89h-2.49l2.12-2.12h2.14c-.59,.71-1.17,1.41-1.77,2.12Z" fill="#a3653b"/>
      <path d="M10.69,12.77l-2.12,2.12v-2.49c.71-.59,1.41-1.17,2.12-1.77v2.14Z" fill="#ce7f49"/>
      <path d="M15.79,9.21v-1.54l2.12-2.12v1.12c-.71,.85-1.41,1.7-2.12,2.55Z" fill="#a3653b"/>
      <path d="M17.91,5.54l-2.12,2.12h-1.53c.85-.71,1.7-1.41,2.55-2.12h1.1Z" fill="#ce7f49"/>
      <path d="M15.79,7.67l-5.11,5.11v-2.14c1.19-.99,2.39-1.98,3.58-2.97h1.53Z" fill="none"/>
      <path d="M12.82,12.77h-2.14l5.11-5.11v1.54c-.99,1.19-1.98,2.38-2.97,3.56Z" fill="none"/>
      <path d="M11.05,19.28c-.74,.74-2.88-.19-4.78-2.09l.71-.71c1.59,1.59,3.35,2.5,4.31,2.33-.04,.19-.11,.35-.23,.47Z" fill="#a3653b"/>
      <path d="M6.98,16.48l-.71,.71c-1.9-1.9-2.84-4.04-2.09-4.78,.12-.12,.28-.2,.47-.23-.18,.95,.74,2.72,2.33,4.31Z" fill="#ce7f49"/>
      <path d="M5.21,20.33c-.3,.22-.62,.45-.92,.66l-1.82-1.82c.13-.17,.24-.34,.37-.51l2.38,1.67Z" fill="#99582a"/>
      <path d="M6.83,19.15c-.11,.08-.22,.16-.34,.24l-2.83-1.87c.22-.29,.44-.59,.65-.89l2.52,2.52Z" fill="#99582a"/>
      <line x1="2.39" y1="21.06" x2="6.27" y2="17.18" fill="none"/>
    </g>
  </g>
</svg>