<?xml version="1.0" encoding="UTF-8"?>
<svg id="_Шар_2" data-name="Шар 2" xmlns="http://www.w3.org/2000/svg" viewBox="0 0 23.15 23.12">
  <g id="dolch">
    <g>
      <polygon points=".97 20.92 2.4 20.71 2.4 20.72 2.23 22.17 .97 20.92" fill="#18513b"/>
      <path d="M.97,20.92h-.04S0,23.12,0,23.12c.14-.92,.28-1.83,.42-2.75l.55,.55Z" fill="#3e9b7a"/>
      <path d="M.43,20.31c.56,.04,1.12,.09,1.69,.13l.28,.28-1.42,.21-.55-.55s0-.04,0-.07Z" fill="#2b8764"/>
      <polygon points="2.4 20.72 2.81 21.12 2.79 22.72 2.23 22.17 2.4 20.72" fill="#113f2d"/>
      <path d="M0,23.12l2.23-.95,.56,.56c-.93,.13-1.86,.26-2.79,.4Z" fill="#1b5943"/>
      <polygon points=".93 20.92 .97 20.92 2.23 22.17 0 23.12 .93 20.92" fill="#2b7f63"/>
      <polyline points="2.29 20.82 2.19 20.93 2.16 20.96" fill="none"/>
      <path d="M6.89,18.11c-.25,.22-.49,.43-.74,.65-.13,.12-.26,.23-.39,.35-.12,.1-.24,.21-.35,.31-.26,.23-.52,.45-.79,.68-.28,.26-.57,.51-.85,.76-.22,.19-.45,.39-.66,.59-.01,0-.03,0-.03,.02-.1,.08-.18,.16-.27,.24l-1.33-1.32c.08-.1,.16-.19,.25-.27,.09-.11,.17-.21,.26-.31,.2-.23,.4-.46,.6-.68,.17-.21,.36-.42,.54-.62,.21-.24,.43-.49,.63-.74,.2-.23,.4-.46,.6-.69l.06-.05c.21-.26,.42-.5,.64-.74,.28,.13,.69,.37,1.09,.77,.38,.39,.61,.78,.74,1.05Z" fill="#b6ad90"/>
      <g>
        <path d="M6.15,18.76c-.13,.12-.26,.23-.4,.35l-.71-1.03-.69-1,.06-.06,1.73,1.73Z" fill="#56331b"/>
        <path d="M4.7,19.13l-.51-.2-1.07-.43c.21-.24,.43-.49,.64-.74l.65,.95,.29,.42Z" fill="#56331b"/>
        <path d="M4.62,20.1c-.28,.25-.57,.5-.86,.76l-.6-.9-.42-.6,.73,.29,1.15,.45Z" fill="#56331b"/>
        <path d="M3.11,21.45s-.03,0-.03,.02l-1.35-1.35c.09-.11,.17-.21,.26-.31l.54,.79,.58,.85Z" fill="#56331b"/>
        <path d="M5.75,19.11c-.11,.1-.23,.21-.35,.3l-.71-.28-.29-.42-.65-.95c.2-.23,.4-.46,.6-.69l.69,1,.71,1.03Z" fill="#6b3f20"/>
        <path d="M5.41,19.42c-.26,.23-.52,.45-.78,.69l-1.15-.45-.73-.29-.16-.23c.18-.21,.36-.42,.54-.62l1.07,.43,.51,.2,.71,.28Z" fill="#6b3f20"/>
        <path d="M3.77,20.86c-.22,.19-.45,.39-.66,.59l-.58-.85-.54-.79c.2-.23,.4-.45,.59-.68l.16,.23,.42,.6,.6,.9Z" fill="#6b3f20"/>
      </g>
      <path d="M23.05,.09l-1.57,1.57c-.93,.71-1.74,1.02-2.31,1.17-.74,.18-1.17,.14-1.71,.55-.56,.42-.48,.78-1.02,1.4-.72,.85-1.18,.57-2.04,1.32-1,.88-.69,1.53-1.68,2.51-.72,.72-1.28,.76-2.02,1.18-1.48,.87-3.22,2.8-2.79,4.12,.07,.2,.22,.47,.58,.74l-1.58,1.58c-.45-.33-.63-.67-.71-.93-.54-1.62,1.62-4.02,3.45-5.09,.92-.54,1.6-.58,2.5-1.47,1.22-1.22,.84-2.03,2.09-3.12,1.06-.93,1.63-.59,2.53-1.64,.66-.78,.57-1.22,1.27-1.75,.66-.49,1.22-.45,2.12-.68,.72-.18,1.73-.57,2.89-1.46Z" fill="#acccc0"/>
      <path d="M23.15,.01l-1.65,1.65h-.01s-6.45,6.45-6.45,6.45L21.48,1.66,23.05,.09s.04-.02,.05-.04,.04-.03,.06-.04Z" fill="#98afa7"/>
      <path d="M7.86,16.95c-.25-.08-.59-.27-.93-.71l1.58-1.58c.26,.36,.54,.51,.74,.58,1.32,.44,3.25-1.31,4.12-2.79,.42-.74,.46-1.29,1.18-2.02,.98-.98,1.63-.68,2.51-1.68,.75-.86,.47-1.32,1.32-2.04,.63-.53,.98-.46,1.4-1.02,.41-.54,.37-.98,.55-1.71,.15-.57,.46-1.38,1.16-2.31h.01S23.06,.11,23.06,.11c-.88,1.15-1.27,2.16-1.46,2.89-.23,.91-.18,1.46-.68,2.12-.53,.7-.97,.6-1.75,1.27-1.05,.9-.71,1.47-1.64,2.53-1.09,1.24-1.9,.86-3.12,2.09-.89,.91-.93,1.58-1.47,2.5-1.07,1.83-3.47,4-5.09,3.45Z" fill="#4f7767"/>
      <path d="M23.06,.11l-1.56,1.56h-.01s-6.45,6.45-6.45,6.45L21.48,1.66l1.66-1.66s-.03,.04-.04,.06-.03,.03-.04,.05Z" fill="#77968a"/>
      <path d="M21.48,1.66l-2.12,2.12c-.93,.71-1.74,1.02-2.31,1.17-.4,.11-.71,.13-1,.21,.13-.1,.25-.21,.4-.38,.54-.62,.46-.98,1.02-1.4,.54-.41,.98-.37,1.71-.55,.57-.15,1.38-.46,2.31-1.17Z" fill="#bee5d5"/>
      <polygon points="8.5 14.64 12.53 10.62 8.5 14.65 8.5 14.64" fill="#98afa7"/>
      <path d="M21.57,1.6l-.07,.07h-.01s-6.45,6.45-6.45,6.45L21.48,1.66h0s.03-.02,.04-.04,.03-.01,.04-.03Z" fill="#98afa7"/>
      <path d="M17.99,7.11c.08-.29,.11-.6,.21-1,.15-.57,.46-1.38,1.16-2.31l2.12-2.12c-.7,.93-1.01,1.73-1.16,2.31-.18,.74-.14,1.17-.55,1.71-.42,.56-.77,.49-1.4,1.02-.17,.14-.28,.27-.38,.4Z" fill="#9fceba"/>
      <path d="M15.04,8.12l-2.5,2.5-4.04,4.02c-.36-.26-.51-.54-.58-.74-.18-.54,.01-1.19,.41-1.82,.55-.91,1.51-1.78,2.38-2.29,.26-.15,.5-.25,.72-.35,.42-.18,.83-.36,1.29-.83,.4-.4,.59-.74,.74-1.06,.21-.48,.35-.93,.94-1.45,.34-.3,.62-.43,.86-.54,.27-.11,.52-.19,.78-.4,.29-.08,.6-.11,1-.21,.57-.15,1.38-.46,2.31-1.17l-4.32,4.33Z" fill="#98afa7"/>
      <path d="M16.04,5.16c-.27,.21-.52,.29-.78,.4,.02-.02,.06-.04,.08-.06,.24-.18,.47-.28,.71-.34Z" fill="#98afa7"/>
      <path d="M11.07,14.83c-.64,.4-1.28,.59-1.82,.41-.2-.07-.47-.22-.74-.58l4.02-4.04,2.5-2.5,4.33-4.31c-.7,.93-1.01,1.73-1.16,2.31-.11,.4-.13,.71-.21,1-.21,.27-.29,.52-.4,.78-.11,.25-.24,.52-.54,.86-.52,.59-.97,.73-1.45,.94-.32,.15-.66,.34-1.06,.74-.47,.47-.64,.87-.83,1.29-.1,.23-.21,.46-.35,.72-.51,.86-1.39,1.82-2.29,2.38Z" fill="#77968a"/>
      <path d="M17.59,7.9c.11-.27,.19-.52,.4-.78-.06,.24-.16,.47-.34,.71-.03,.03-.04,.06-.06,.08Z" fill="#77968a"/>
      <path d="M21.5,1.67h-.01s-6.45,6.45-6.45,6.45L21.48,1.66l.08-.08s-.01,.03-.03,.04-.03,.03-.03,.04Z" fill="#77968a"/>
      <path d="M11.08,17.43c-.02,.28-.12,.53-.3,.72-.36,.35-.99,.38-1.73,.13,.86,1.32,1.16,2.46,.68,2.93-.19,.18-.45,.24-.8,.22-.09-1.05-1.14-2.81-2.79-4.43s-3.43-2.67-4.5-2.76c-.03-.33,.04-.6,.23-.79,.47-.47,1.61-.18,2.93,.64-.27-.74-.25-1.37,.12-1.73,.19-.17,.42-.26,.73-.29-.06,.91,.63,2.3,1.86,3.51s2.64,1.89,3.56,1.84Z" fill="#ceeade"/>
      <path d="M9.59,21.47c-.15,.15-.39,.18-.71,.13-.18-.99-1.33-2.72-3-4.4s-3.41-2.82-4.4-3c-.06-.31-.02-.56,.13-.71,.61-.61,2.91,.67,5.11,2.87,2.2,2.2,3.48,4.49,2.87,5.11Z" fill="#98afa7"/>
    </g>
  </g>
</svg>