<?xml version="1.0" encoding="UTF-8"?>
<svg id="_Шар_2" data-name="Шар 2" xmlns="http://www.w3.org/2000/svg" viewBox="0 0 24.48 23.44">
  <g id="dolch">
    <g>
      <path d="M3.81,21.7c-.48,.68-1.7,.96-2.38,.49-.32-.22-.44-.56-.48-.67-.37-1.14,.52-2.54,1.4-3.43,.32,.72,.96,1.32,1.67,1.64-.28,.75,.25,1.31-.21,1.96Z" fill="#601f12"/>
      <path d="M5.61,13.56c.32-.24,2.69,1.56,2.4,2.93-.12,.54-.66,.91-1.72,1.6-.49-.43-.65-1.67-.99-2.56,.26-.37,.37-.67,.4-.97,.06-.6-.21-.91-.09-1Z" fill="#601f12"/>
      <path d="M9.1,15.87l-6.15,7.57-2.95-2.4,6.09-7.5s.05-.03,.07-.06l2.94,2.39Z" fill="none"/>
      <path d="M6.16,13.48s-.04,.04-.07,.06l.05-.07h.02Z" fill="none"/>
      <path d="M11.72,10.78s-.17,.19-.91,.89c-.39-.28-.84-.55-1.21-1.15-.89-1.4-.48-3.06-.05-4.41v-.02c-.22,1.17-.1,2.34,.51,2.72,.8,.51,2.61-.19,3.91-2.26-.6,2.04-1.5,3.37-2.25,4.23Z" fill="#8adbd5"/>
      <path d="M16.2,7.59c-.62-.83-1.4-2.33-.1-3.46,1.19-1.04,3.93-2.05,5.82-2.66-.87,.67-1.94,1.62-3.25,2.95-1.09,1.11-1.89,2.17-2.47,3.17Z" fill="#c4e8e7"/>
      <path d="M14.75,14.58c-.71,.81-1.45,1.53-2.19,2.17,.06-3.15-.61-4.78-1.3-5.61,.44-.5,.88-1.04,1.28-1.63,1.3-.27,2.2-.3,2.82-.2-.18,.45-.32,.88-.41,1.29-.48,.07-.95,.31-1.29,.73-.71,.87-.58,2.15,.3,2.86,.23,.19,.5,.32,.78,.39Z" fill="#edf2f2"/>
      <path d="M24.48,0c-.53,.14-1.34,.54-2.54,1.47,0,0,0,0-.01,0-1.88,.61-4.62,1.62-5.82,2.66-1.31,1.13-.53,2.63,.1,3.46-.35,.6-.63,1.17-.83,1.72-.62-.09-1.52-.06-2.82,.2,.47-.68,.88-1.41,1.16-2.16,.03-.06,.06-.13,.08-.2,1.19-3.44-2.47-.12-2.47-.12,1.26-2.02,2.84-3.47,4.51-4.49C19.2,.44,22.84,.07,24.48,0Z" fill="#edf2f2"/>
      <path d="M6.99,20.44c2.31-2.68,3.16-4.3,3.28-5.28,.04-.32,0-.57-.07-.77-.35-.86-1.6-.73-1.6-.73,0,0,1.32-1.01,2.67-2.52,.68,.83,1.36,2.46,1.3,5.61-2.86,2.51-5.57,3.7-5.57,3.7Z" fill="#c4e8e7"/>
      <polygon points="14.47 8.58 14.32 8.98 14.65 9.26 14.22 9.23 14.06 9.64 13.95 9.22 13.52 9.2 13.88 8.96 13.77 8.54 14.11 8.81 14.47 8.58" fill="#fff"/>
      <polygon points="18.83 3.61 18.43 3.78 18.47 4.21 18.19 3.88 17.78 4.05 18.01 3.68 17.73 3.35 18.15 3.45 18.38 3.08 18.41 3.51 18.83 3.61" fill="#fff"/>
      <polygon points="13.29 15.39 12.89 15.56 12.92 16 12.64 15.67 12.24 15.83 12.47 15.46 12.18 15.13 12.61 15.23 12.83 14.86 12.87 15.29 13.29 15.39" fill="#fff"/>
      <path d="M9.1,15.87c-.54-.4-1.08-.8-1.63-1.24-.47-.37-.93-.73-1.38-1.1,0,0,4.1-1.27,2.6-2.71-1.44-1.37,.66-4.43,.85-4.71-.43,1.35-.84,3.01,.05,4.41,.38,.59,.83,.87,1.21,1.15-.46,.43-1.18,1.08-2.21,2,0,0,1.25-.13,1.6,.73-.56,0-1.02,.32-1.15,.76-.11,.31,0,.61,.05,.72Z" fill="#5fc1b7"/>
      <polygon points="9.91 9.89 9.51 10.06 9.54 10.49 9.26 10.16 8.86 10.33 9.09 9.96 8.8 9.63 9.23 9.73 9.45 9.36 9.49 9.79 9.91 9.89" fill="#fff"/>
      <path d="M8.05,17.87c.21,.07,1.25-1.14,.94-2.34-.17-.66-.69-1.03-1.04-1.28-1.18-.85-2.62-.8-2.65-.66-.03,.13,1.23,.18,2.04,1.21,.52,.66,.65,1.49,.68,1.7,.13,.86-.09,1.33,.04,1.38Z" fill="#dd9b94"/>
      <g>
        <g>
          <circle cx="2.42" cy="20.97" r="1.57" fill="#61c1bf"/>
          <path d="M.86,21.1c.22,2.02,3.16,1.75,3.04-.24-.19-1.98-3.14-1.79-3.04,.24H.86Zm0,0c-.13-2.11,3-2.4,3.23-.26,.11,2.15-3.02,2.36-3.23,.26H.86Z" fill="#fff"/>
        </g>
        <g>
          <circle cx="2.42" cy="20.97" r="1.1" fill="#5ae0d9"/>
          <path d="M2.51,22.07c1.39-.14,1.19-2.19-.17-2.09-1.36,.12-1.23,2.17,.17,2.09h0Zm0,0c-1.48,.11-1.7-2.13-.18-2.28,1.52-.09,1.66,2.15,.18,2.28h0Z" fill="#f3fffe"/>
        </g>
        <circle cx="2.42" cy="20.97" r=".58" fill="#8dfff4"/>
      </g>
      <path d="M6.06,18.23c-1.25,.8-1.64,.75-1.95,1.31-.04,.07-.07,.13-.09,.2-.71-.33-1.36-.93-1.67-1.64,.07-.09,.16-.16,.23-.24,.75-.69,1.02-.58,2-1.52,.33-.31,.55-.57,.72-.81,.33,.89,.5,2.13,.99,2.56-.07,.04-.15,.09-.23,.14Z" fill="#6b3f20"/>
    </g>
  </g>
</svg>