<?xml version="1.0" encoding="UTF-8"?>
<svg id="_Шар_2" data-name="Шар 2" xmlns="http://www.w3.org/2000/svg" viewBox="0 0 23.78 21.28">
  <g id="dolch">
    <g>
      <path d="M15.03,9.8c-.22-.11-.46-.18-.71-.19,.15-.07,.32-.16,.49-.26,.17-.09,.35-.2,.54-.32,.1-.06,.2-.12,.3-.19,.11-.07,.22-.14,.33-.22,.21-.14,.42-.3,.65-.48,.13-.1,.25-.2,.39-.31,.14-.11,.28-.23,.42-.36,.2-.17,.41-.36,.62-.56,.81-.74,1.67-1.66,2.58-2.77,.07-.09,.14-.17,.21-.26-.09,.08-.18,.17-.28,.26h0c-.39,.34-.85,.69-1.37,1.04-.2,.13-.41,.26-.64,.38-.22,.13-.46,.25-.7,.38-1.51,.74-2.95,1.08-4.17,1.19,.24-.47,.28-1.03,.09-1.52,.6-.07,1.24-.18,1.9-.36l.19,.73,.35-.87c.23-.06,.46-.13,.7-.2l.12,.5,.27-.64c.18-.06,.36-.13,.55-.21l.02,.46,.3-.61c.24-.09,.48-.21,.7-.34l-.02,.54,.19-.64c.24-.11,.47-.24,.7-.39v.69s.34-.89,.34-.89c.06-.03,.13-.07,.18-.11,1.6-1.06,2.73-2.28,3.5-3.28-3.43,6.64-6.9,8.98-8.75,9.8Z" fill="#4b2fac"/>
      <path d="M14.12,13.27c-.03,.12-1.53-.51-2.95-.3-1.27,.19-2.22,1.01-2.89,1.79l-2.24-2.24c.09-.3,.19-.64,.32-.99,.03-.07,.05-.13,.08-.2,.5-.89,1.32-2.05,2.58-3.16,.48-.43,.94-.77,1.38-1.05,0,.02,0,.03,0,.03-.21,.42-.21,.88,.04,1.23,.39,.52,1.22,.59,1.85,.14,.19-.14,.35-.32,.45-.52h0c.22-.09,.43-.23,.61-.42,.13-.13,.24-.28,.32-.44h0c1.23-.12,2.66-.46,4.17-1.2,1.3-.64,2.29-1.4,2.99-2.05-2.7,3.34-4.99,4.95-6.55,5.72-.46-.03-.93,.12-1.3,.46-.03,.02-.06,.05-.09,.07-.71,.71-.72,1.87,0,2.59,.33,.33,.75,.5,1.19,.52,0,0,0,.01,0,.01h0Z" fill="#5042b1"/>
      <path d="M6.45,11.32c.44-1.17,1.13-2.54,2.21-3.89,.54-.68,1.09-1.23,1.62-1.69-.13,.46-.09,.95,.13,1.38-.44,.28-.9,.62-1.38,1.05-1.27,1.11-2.09,2.28-2.58,3.16Z" fill="#4b00ac"/>
      <path d="M12.31,8.52c-.62,.45-1.46,.38-1.85-.14-.25-.36-.25-.81-.04-1.23,.08,.16,.19,.32,.33,.45,.54,.54,1.33,.67,2.01,.41-.1,.19-.26,.38-.45,.52Z" fill="#4b00ac"/>
      <path d="M10.45,7.09s-.03,.04-.03,.06c0,0-.01-.01,0-.03,.01-.01,.03-.01,.04-.03Z" fill="#606060"/>
      <path d="M6.45,11.32c-.03,.07-.05,.13-.08,.2l-.02-.03c.03-.05,.06-.11,.1-.17Z" fill="#606060"/>
      <path d="M15.68,8.38c-.5-.08-.7-.08-1.03,0,.1-.32,.1-.51,0-1.03,.33,.28,.53,.28,1.03,0-.26,.52-.26,.71,0,1.03Z" fill="#5078b1"/>
      <path d="M21.06,4.17c-.28-.04-.39-.04-.58,0,.05-.18,.05-.29,0-.58,.19,.16,.3,.16,.58,0-.15,.29-.15,.4,0,.58Z" fill="#5078b1"/>
      <path d="M10.04,8.52c-.5-.08-.7-.08-1.03,0,.1-.32,.1-.51,0-1.03,.33,.28,.53,.28,1.03,0-.26,.52-.26,.71,0,1.03Z" fill="#5078b1"/>
      <path d="M9.85,13.07c-.5-.08-.7-.08-1.03,0,.1-.32,.1-.51,0-1.03,.33,.28,.53,.28,1.03,0-.26,.52-.26,.71,0,1.03Z" fill="#5078b1"/>
      <path d="M6.54,15.27c.07-.31,.17-.94-.03-1.68-.25-.94-.83-1.5-1.07-1.72,.29-.38,.58-.77,.88-1.16,.42-.56,.83-1.12,1.23-1.67-.17,.69-.54,2.55,.32,4.58,.44,1.04,1.06,1.77,1.52,2.23-.34-.21-.95-.53-1.76-.61-.42-.04-.79-.01-1.07,.04Z" fill="#5078b1"/>
      <path d="M5.59,15.76c-.78-.82-.62-2.21-.76-3,.19-.3,.4-.6,.6-.89,.24,.21,.64,.62,.91,1.24,.41,.96,.26,1.83,.19,2.15-.25,.1-.58,.26-.95,.49Z" fill="#411d13"/>
      <path d="M3.23,18.95c-.52-.38-1.05-.74-1.57-1.11,.11-.19,.21-.38,.32-.56,.37,.46,.91,.81,1.5,.95-.12,.3-.21,.54-.26,.72Z" fill="#411d13"/>
      <polygon points="2.42 18.38 1.61 19.56 .04 18.48 .04 18.45 1.66 17.84 2.42 18.38" fill="#500076"/>
      <polygon points="1.61 19.56 .81 20.74 0 20.16 .04 18.48 1.61 19.56" fill="#5000b1"/>
      <polygon points="3.19 20.67 1.58 21.28 .81 20.74 1.61 19.56 3.2 20.64 3.19 20.67" fill="#5029ee"/>
      <polygon points="3.2 20.64 1.61 19.56 2.42 18.38 3.23 18.95 3.2 20.64" fill="#5000ee"/>
      <path d="M5.07,14.75c-.43-.13-.91-.22-1.38-.26,.38-.6,.75-1.18,1.15-1.74,.09,.52,.05,1.29,.23,1.99Z" fill="#6b3f20"/>
      <path d="M3.49,18.23c-.6-.14-1.13-.49-1.5-.95,.07-.11,.12-.21,.19-.32,.47,.32,1.02,.6,1.58,.77-.11,.17-.19,.34-.26,.5Z" fill="#6b3f20"/>
      <path d="M3.75,17.72c-.56-.17-1.11-.45-1.58-.77,.4-.68,.83-1.38,1.28-2.09,.08-.12,.15-.25,.24-.36,.48,.03,.95,.12,1.38,.26,.09,.38,.25,.72,.52,1.01-.3,.19-.63,.44-.95,.76-.4,.4-.69,.81-.9,1.21Z" fill="#60381d"/>
    </g>
  </g>
</svg>