<?xml version="1.0" encoding="UTF-8"?>
<svg id="_Шар_2" data-name="Шар 2" xmlns="http://www.w3.org/2000/svg" viewBox="0 0 23.44 23.7">
  <g id="dolch">
    <g>
      <path d="M23.44,0l-4.18,4.18-5.07,1.74,2.39-3.56,1.64-.56c.03,.25,.14,.49,.33,.68,.46,.46,1.22,.46,1.68,0,.39-.39,.45-.98,.19-1.44l3.02-1.04Z" fill="#e85d04"/>
      <path d="M19.08,8.87l-1.52,1.11c-.07-.09-.14-.19-.23-.28-.17-.17-.38-.3-.6-.39l2.52-5.14L23.44,0l-4.36,8.87Z" fill="#e84904"/>
      <polygon points="9 17.36 8.95 17.4 7.49 15.94 11.84 11.6 9 17.36" fill="#f48c06"/>
      <path d="M14.9,9.7l1.11-2.28,3.25-3.25-2.52,5.14c-.61-.24-1.34-.11-1.84,.39Z" fill="#f48c06"/>
      <path d="M14.91,13.05l-2.57,1.88,2.09-4.25c-.07,.51,.09,1.06,.49,1.45,.1,.1,.21,.19,.32,.25l-.32,.67Z" fill="#f48c06"/>
      <polygon points="19.26 4.18 16.01 7.42 10.55 9.31 12.4 6.53 14.19 5.92 19.26 4.18" fill="#faa307"/>
      <polygon points="11.84 11.6 7.49 15.94 6.65 15.1 8.16 12.87 11.84 11.6" fill="#faa307"/>
      <polygon points="16.01 7.42 11.84 11.6 8.16 12.87 10.55 9.31 16.01 7.42" fill="#ffba08"/>
      <path d="M12.33,14.93l-3.33,2.43,2.83-5.75,4.18-4.18-1.11,2.28h0c-.27,.28-.43,.62-.48,.98l-2.09,4.25Z" fill="#ffba08"/>
      <path d="M9.96,16.66c-.67-1.16-1.34-2.32-2.02-3.47-.91,.32-1.82,.63-2.73,.95-.04,.68-.08,1.36-.12,2.04l2.43,2.43,1.96-.2c.16-.58,.31-1.17,.47-1.75Z" fill="#e84904"/>
      <path d="M9.23,16.41c-.45-.78-.9-1.55-1.35-2.33-.61,.21-1.22,.42-1.83,.64-.03,.46-.05,.91-.08,1.37l1.63,1.63,1.32-.13c.11-.39,.21-.78,.32-1.18Z" fill="#f48c06"/>
      <path d="M3.26,18.4c.11-.1,.23-.2,.35-.31,.14-.14,.27-.27,.38-.4l1.96,1.96c-.09,.07-.17,.15-.25,.24-.17,.17-.32,.33-.46,.49l-1.98-1.98Z" fill="#56331b"/>
      <path d="M7.49,18.56c-.3,.17-.69,.39-1.09,.71l-2.02-2.02c.31-.4,.54-.76,.72-1.07l2.39,2.39Z" fill="#a33b0d"/>
      <path d="M4.85,20.89c-.2,.29-.37,.56-.49,.8l-2.39-2.39c.24-.14,.5-.3,.78-.51l2.1,2.1Z" fill="#a33b0d"/>
      <polygon points="3.15 20.51 2.27 21.39 0 19.13 0 19.09 2.05 19.39 3.15 20.51" fill="#bfa006"/>
      <polygon points="2.27 21.39 1.39 22.28 .22 21.09 0 19.13 2.27 21.39" fill="#ddc514"/>
      <polygon points="4.55 23.7 2.5 23.4 1.39 22.28 2.27 21.39 4.54 23.67 4.55 23.7" fill="#dba716"/>
      <polygon points="4.54 23.67 2.27 21.39 3.15 20.51 4.32 21.7 4.54 23.67" fill="#d88619"/>
      <path d="M6.4,19.27c-.15,.12-.3,.24-.46,.38l-1.96-1.96c.14-.15,.27-.31,.39-.45l2.02,2.02Z" fill="#6b3f20"/>
      <path d="M4.85,20.89l-2.1-2.1c.17-.12,.33-.25,.51-.4l1.98,1.98c-.14,.18-.27,.35-.39,.51Z" fill="#6b3f20"/>
      <path d="M20.96,4.99c-.67-.3-.78-.4-.87-.88-.16,.47-.27,.58-.87,.88,.6-.04,.71,.07,.87,.87,.1-.8,.2-.91,.87-.87Z" fill="#ffdf97"/>
      <path d="M14.26,7.18c-.67-.3-.78-.4-.87-.88-.16,.47-.27,.58-.87,.88,.6-.04,.71,.07,.87,.87,.1-.8,.2-.91,.87-.87Z" fill="#ffdf97"/>
      <path d="M12.96,12.87c-.67-.3-.78-.4-.87-.88-.16,.47-.27,.58-.87,.88,.6-.04,.71,.07,.87,.87,.1-.8,.2-.91,.87-.87Z" fill="#ffdf97"/>
      <path d="M7.71,15.44c-.67-.3-.78-.4-.87-.88-.16,.47-.27,.58-.87,.88,.6-.04,.71,.07,.87,.87,.1-.8,.2-.91,.87-.87Z" fill="#ffdf97"/>
    </g>
  </g>
</svg>