<?xml version="1.0" encoding="UTF-8"?>
<svg id="_Шар_2" data-name="Шар 2" xmlns="http://www.w3.org/2000/svg" viewBox="0 0 23.2409232 23.2409232">
  <g id="dolch">
    <g>
      <path d="M23.2409232,0l-3.8414308,3.8414308-2.9194859,1.1652387-1.4981752,.6018257c-1.0371832,.409762-2.0103191,.9347622-2.9130772,1.5685921l.4289488-.5697825c.0128173-.0128173,.0192259-.0320432,.0320432-.0448605,.6017867-.7938895,1.2740683-1.5173621,2.0231364-2.1639701,1.2548815-1.1140478,2.695379-2.0039496,4.2703797-2.6314098l1.4981752-.6018257,2.9194859-1.1652387Z" fill="#adb5bd"/>
      <path d="M16.6784789,10.7111772c-.0128173,.0128173-.0320432,.0192259-.0448605,.0320432l-.5697825,.4289488c.6338298-.9027581,1.1588301-1.875894,1.5685921-2.9130772l.6018257-1.4981752,1.1652387-2.9194859,3.8414308-3.8414308-1.1652387,2.9194859-.6018257,1.4981752c-.6274603,1.5750007-1.5173621,3.0154982-2.6314098,4.2703797-.646608,.7490681-1.3700806,1.4213497-2.1639701,2.0231364Z" fill="#7d8489"/>
      <path d="M19.3994924,3.8414308l-4.4816693,4.4816693-2.9194859,1.1652387-1.4981752,.6018257c-.3137106,.121686-.6210126,.2625197-.9219059,.409762l2.490498-3.3228392c.9027581-.6338298,1.875894-1.1588301,2.9130772-1.5685921l1.4981752-.6018257,2.9194859-1.1652387Z" fill="#bcc6ce"/>
      <path d="M16.0638359,11.1721692l-3.3228392,2.490498c.1472423-.3008933,.2880761-.6081953,.409762-.9219059l.6018257-1.4981752,1.1652387-2.9194859,4.4816693-4.4816693-1.1652387,2.9194859-.6018257,1.4981752c-.409762,1.0371832-.9347622,2.0103191-1.5685921,2.9130772Z" fill="#99a3aa"/>
      <path d="M14.9178231,8.3231002l-6.1334955,6.1334955-1.2420642-1.2420642,2.0359927-2.7146049c.3008933-.1472423,.6081953-.2880761,.9219059-.409762l1.4981752-.6018257,2.9194859-1.1652387Z" fill="#adb5bd"/>
      <path d="M12.7409966,13.6626672l-2.7146049,2.0359927-1.2420642-1.2420642,6.1334955-6.1334955-1.1652387,2.9194859-.6018257,1.4981752c-.121686,.3137106-.2625197,.6210126-.409762,.9219059Z" fill="#7d8489"/>
      <rect x="3.7559327" y="14.1631559" width="9.331811" height="1.621651" rx=".8108247" ry=".8108247" transform="translate(13.054903 -1.5693613) rotate(44.9999998)" fill="#a3653b"/>
      <path d="M11.7166307,18.2724311c-.3137106,.3137106-.8259326,.3137106-1.1396432,0l-5.4548443-5.4548443c-.3137106-.3137106-.3137106-.8259326,0-1.1396432,.1216469-.1216469,.2689283-.1920246,.4161706-.2240678-.0447823,.2497024,.0255955,.5250002,.2240678,.7234726l5.4548443,5.4548443c.1984724,.1984724,.4738093,.2688892,.7234726,.2240678-.0320041,.1472814-.102421,.2945238-.2240678,.4161706Z" fill="#99a3aa"/>
      <path d="M11.9406985,17.8562604c-.2496633,.0448214-.5250002-.0255955-.7234726-.2240678l-5.4548443-5.4548443c-.1984724-.1984724-.2688501-.4737702-.2240678-.7234726,.256111-.0511909,.5314089,.0191868,.7298812,.2176592l5.4548443,5.4548443c.1984724,.1984724,.2688892,.4738093,.2176592,.7298812Z" fill="#bcc6ce"/>
      <path d="M7.6639102,17.9586814l-2.3816684-2.3816684c.5313698-.4673616,1.0307746-.8259326,1.466132-1.1076391l2.0487709,2.0487709c-.3009324,.4289488-.6786512,.921945-1.1332346,1.4405366Z" fill="#936639"/>
      <path d="M7.24137,18.4196734c-.3201583,.3457147-.6786512,.6914685-1.075635,1.0371832-.0896428,.0768255-.1792465,.1536901-.2688892,.2305155l-2.1191878-2.5802189c.0768646-.0896037,.153651-.1792074,.2368851-.2752588,.0384127-.0384127,.0768255-.0896428,.1152382-.1280555l3.1115887,1.7158344Z" fill="#99582a"/>
      <path d="M5.4102583,20.0714996c-.3328974,.2688892-.6658339,.4993657-.9795836,.7106553l-1.7670254-2.0871446c.0704169-.121686,.1472423-.2497024,.2304765-.3842056l2.5161325,1.7606949Z" fill="#99582a"/>
      <path d="M3.5920029,21.2879684c-.1984724,.1088296-.3777188,.2112506-.5570043,.3008933-.4033534-.4161706-.8131154-.8387499-1.2164687-1.2548424,.0704169-.1728769,.1600596-.3649797,.2560719-.5634521l1.5174011,1.5174011Z" fill="#936639"/>
      <circle cx="1.5045986" cy="21.7363246" r="1.5045986" fill="#617d8c"/>
      <circle cx="1.5045986" cy="21.7363246" r="1.0514717" fill="#bcc6ce"/>
      <path d="M7.24137,18.4196734l-3.1115887-1.7158344c.3905752-.4289488,.7810722-.8067067,1.1524605-1.126826l2.3816684,2.3816684c-.1280555,.1536901-.2688892,.307341-.4225402,.460992Z" fill="#894d25"/>
      <path d="M5.8968458,19.6873722c-.1664683,.1408337-.3264888,.2624806-.4865875,.3841275l-2.5161325-1.7606949c.256111-.3841275,.5505957-.7938895,.8835322-1.2036515l2.1191878,2.5802189Z" fill="#894d25"/>
      <path d="M4.4306746,20.7821549c-.2944847,.1921028-.5761912,.358532-.8386718,.5058134l-1.5174011-1.5174011c.1600987-.3264888,.3521624-.6978381,.5890475-1.0755569l1.7670254,2.0871446Z" fill="#936639"/>
    </g>
  </g>
</svg>