<?xml version="1.0" encoding="UTF-8" standalone="no"?>
<!DOCTYPE svg PUBLIC "-//W3C//DTD SVG 1.1//EN" "http://www.w3.org/Graphics/SVG/1.1/DTD/svg11.dtd">
<svg width="100%" height="100%" viewBox="0 0 768 768" version="1.1" xmlns="http://www.w3.org/2000/svg" xmlns:xlink="http://www.w3.org/1999/xlink" xml:space="preserve" xmlns:serif="http://www.serif.com/" style="fill-rule:evenodd;clip-rule:evenodd;stroke-linejoin:round;stroke-miterlimit:2;">
    <g id="Ebene2">
    </g>
    <g id="Ebene4">
        <path d="M66.401,69.328C66.401,69.328 55.439,121.22 73.359,165.854C91.278,210.488 119.004,279.549 124.31,292.765C129.615,305.98 190.777,382.995 218.706,401.187C246.636,419.379 306.881,445.689 327.502,452.415C348.123,459.142 386.163,467.89 451.315,478.096C516.467,488.302 587.881,488.302 587.881,488.302C587.881,488.302 643.268,488.037 676.305,478.096C709.341,468.155 746.302,478.096 746.302,478.096L761.58,504.82C761.58,504.82 741.355,618.03 641.898,650.453C542.44,682.877 399.136,696.132 354.63,682.877C310.125,669.623 250.408,652.657 206.676,622.172C162.944,591.686 90.07,531.544 73.359,504.82C56.647,478.096 16.06,383.128 13.026,365.731C9.992,348.335 6.958,287.199 9.992,259.712C13.026,232.226 45.312,186.398 46.41,176.126C47.509,165.854 52.165,135.004 32.595,110.981C13.026,86.957 13.026,69.328 13.026,69.328C13.026,69.328 48.258,38.976 66.401,69.328Z" style="fill:none;"/>
        <path d="M69.341,77.046C67.809,79.133 56.951,118.662 81.76,185.475C106.569,252.288 127.795,309.96 155.076,344.772C196.26,397.324 260.598,436.248 330.2,461.366C393.897,484.353 444.793,493.715 499.379,496.477C550.578,499.069 640.454,495.556 690.302,487.7C738.316,480.132 753.76,459.112 763.235,522.062C763.966,526.864 762.847,531.764 760.104,535.773C741.476,561.94 662.325,663.766 549.364,676.676C419.584,691.508 318.279,680.619 266.905,660.923C219.173,642.623 150.663,590.368 96.097,532.705C59.23,493.747 25.774,443.36 18.927,382.288C12.323,323.381 9.946,250.455 40.426,191.468C43.24,186.058 44.88,180.114 45.241,174.027C46.239,157.228 44.183,123.389 18.69,88.097C-7.336,52.065 83.134,58.256 69.341,77.046Z" style="fill:rgb(255,216,0);"/>
        <clipPath id="_clip1">
            <path d="M69.341,77.046C67.809,79.133 56.951,118.662 81.76,185.475C106.569,252.288 127.795,309.96 155.076,344.772C196.26,397.324 260.598,436.248 330.2,461.366C393.897,484.353 444.793,493.715 499.379,496.477C550.578,499.069 640.454,495.556 690.302,487.7C738.316,480.132 753.76,459.112 763.235,522.062C763.966,526.864 762.847,531.764 760.104,535.773C741.476,561.94 662.325,663.766 549.364,676.676C419.584,691.508 318.279,680.619 266.905,660.923C219.173,642.623 150.663,590.368 96.097,532.705C59.23,493.747 25.774,443.36 18.927,382.288C12.323,323.381 9.946,250.455 40.426,191.468C43.24,186.058 44.88,180.114 45.241,174.027C46.239,157.228 44.183,123.389 18.69,88.097C-7.336,52.065 83.134,58.256 69.341,77.046Z"/>
        </clipPath>
        <g clip-path="url(#_clip1)">
            <path d="M-18.679,66.211C-18.679,66.211 51.456,121.758 102.117,47.872C152.777,-26.014 -18.679,66.211 -18.679,66.211Z" style="fill:rgb(188,148,27);"/>
            <g id="Ebene7">
                <path d="M12.971,81.764C12.971,81.764 14.804,70.066 31.654,67.146C48.505,64.227 70.959,67.241 67.962,74.01C64.965,80.779 88.71,62.615 34.676,47.505C-19.358,32.395 12.971,81.764 12.971,81.764Z" style="fill:rgb(125,91,0);"/>
            </g>
            <path d="M889.213,458.584C889.213,458.584 596.054,594.404 339.71,512.955C323.45,507.789 308.157,502.323 293.775,496.581C96.592,417.864 70.789,287.439 76.33,169.8C82.275,43.581 96.062,34.431 96.062,34.431L889.213,458.584Z" style="fill:rgb(255,238,45);"/>
            <g id="Ebene5">
                <path d="M159.357,375.117C159.357,375.117 300.475,529.551 559.327,510.663C818.179,491.775 305.962,601.418 159.357,375.117Z" style="fill:rgb(255,252,45);"/>
            </g>
            <g id="Ebene6">
                <path d="M776.722,507.881C776.722,507.881 643.574,743.67 417.927,701.133C192.28,658.596 194.86,654.581 93.471,573.061C-32.709,471.607 16.144,249.673 16.144,249.673C16.144,249.673 9.908,327.592 32.733,407.348C54.144,482.164 169.673,669.569 462.4,665.099C690.618,661.614 776.722,507.881 776.722,507.881Z" style="fill:rgb(255,197,45);"/>
            </g>
        </g>
        <path d="M55.064,251.203C54.863,249.658 53.546,248.503 51.989,248.505C50.431,248.506 49.116,249.664 48.919,251.21C45.559,276.996 41.171,318.767 42.922,350.801C44.957,388.019 121.803,577.078 318.101,610.226C487.12,638.767 626.592,599.894 662.092,588.538C668.204,586.462 673.425,582.364 676.893,576.92C684.478,565.031 694.277,545.077 674.917,544.775C647.312,544.345 504.882,593.583 361.939,571.152C229.948,550.439 200.894,531.268 154.685,487.215C85.438,421.2 62.087,301.851 55.064,251.203Z" style="fill:rgb(255,221,0);"/>
    </g>
</svg>
