<?xml version="1.0" encoding="UTF-8"?>
<svg id="_Шар_2" data-name="Шар 2" xmlns="http://www.w3.org/2000/svg" viewBox="0 0 23.33 23.39">
  <g id="Tränke">
    <path d="M22.47,8.21c-.21,.06-.44,.15-.69,.25-.15-.09-.31-.19-.47-.29,0,0,0,0,0,0-.27-.16-.58-.36-.91-.61-.01,0-.02-.01-.03-.02-.27-.19-.54-.39-.82-.6-.62-.48-1.18-.95-1.68-1.41-.46-.5-.93-1.06-1.41-1.68-.25-.32-.48-.63-.69-.95,0-.01-.01-.02-.02-.03-.14-.2-.27-.39-.38-.57-.15-.24-.3-.47-.44-.69,.1-.23,.17-.45,.24-.64,0-.01,.01-.03,.01-.04,.19,.31,.39,.63,.6,.97,.11,.18,.24,.37,.38,.57,0,0,.01,.01,.02,.03,.22,.31,.45,.63,.69,.95,.48,.62,.95,1.18,1.41,1.68,.5,.46,1.06,.93,1.68,1.41,.28,.21,.55,.41,.82,.6,.01,0,.02,.01,.03,.02,.33,.25,.64,.45,.91,.61,0,0,0,0,0,0,.24,.15,.47,.29,.69,.43,.01,.01,.03,.02,.05,.03Z" fill="#5e5758"/>
    <path d="M21.78,8.46c-.2,.08-.41,.18-.63,.29-.08-.05-.17-.1-.25-.16,0,0,0,0,0,0-.27-.16-.58-.36-.91-.61-.01,0-.02-.01-.03-.02-.27-.19-.54-.39-.82-.6-.62-.48-1.18-.95-1.68-1.41-.46-.5-.93-1.06-1.41-1.68-.25-.32-.48-.63-.69-.95,0-.01-.01-.02-.02-.03-.14-.2-.27-.39-.38-.57-.11-.16-.21-.33-.31-.49,.11-.22,.21-.43,.29-.63,.14,.23,.28,.46,.44,.69,.11,.18,.24,.37,.38,.57,0,0,.01,.01,.02,.03,.22,.31,.45,.63,.69,.95,.48,.62,.95,1.18,1.41,1.68,.5,.46,1.06,.93,1.68,1.41,.28,.21,.55,.41,.82,.6,.01,0,.02,.01,.03,.02,.33,.25,.64,.45,.91,.61,0,0,0,0,0,0,.16,.1,.31,.2,.47,.29Z" fill="#ade8f4"/>
    <path d="M21.78,8.46c-.2,.08-.41,.18-.63,.29-.08-.05-.17-.1-.25-.16,0,0,0,0,0,0-.27-.16-.58-.36-.91-.61-.01,0-.02-.01-.03-.02-.27-.19-.54-.39-.82-.6-.62-.48-1.18-.95-1.68-1.41-.46-.5-.93-1.06-1.41-1.68-.25-.32-.48-.63-.69-.95,0-.01-.01-.02-.02-.03-.14-.2-.27-.39-.38-.57-.11-.16-.21-.33-.31-.49,.11-.22,.21-.43,.29-.63,.14,.23,.28,.46,.44,.69,.11,.18,.24,.37,.38,.57,0,0,.01,.01,.02,.03,.22,.31,.45,.63,.69,.95,.48,.62,.95,1.18,1.41,1.68,.5,.46,1.06,.93,1.68,1.41,.28,.21,.55,.41,.82,.6,.01,0,.02,.01,.03,.02,.33,.25,.64,.45,.91,.61,0,0,0,0,0,0,.16,.1,.31,.2,.47,.29Z" fill="#6da7af"/>
    <path d="M19.04,13.65s0-.03,0-.05c.13-1.08-.05-2.07-.38-2.94,0-.01,0-.02,0-.03,.27-.3,.62-.64,1.04-.97,.01-.01,.02-.03,.02-.04,0,0,0-.02,0-.03,0-.05-.02-.13-.06-.21-.01-.03-.03-.05-.04-.08-.02-.03-.03-.06-.05-.09-.02-.04-.05-.08-.08-.13-.01-.03-.03-.05-.05-.07-.03-.05-.07-.1-.1-.15-.03-.04-.05-.07-.08-.11-.03-.04-.05-.07-.08-.11-.03-.04-.06-.08-.09-.12-.05-.06-.1-.12-.15-.18-.01-.01-.02-.03-.04-.04-.06-.08-.14-.16-.21-.25-.25-.3-.55-.63-.87-.98-.05-.05-.09-.1-.14-.15-.1-.1-.19-.2-.29-.3-.1-.1-.2-.21-.3-.31-.33-.33-.65-.64-.96-.92-.12-.11-.24-.22-.35-.32-.05-.04-.09-.08-.14-.12-.06-.05-.12-.1-.18-.15-.05-.05-.1-.09-.15-.13-.03-.03-.06-.05-.09-.08-.07-.06-.14-.11-.21-.17-.05-.04-.1-.08-.14-.11-.14-.11-.27-.21-.39-.29-.04-.02-.07-.05-.1-.07-.06-.04-.11-.07-.17-.1-.08-.05-.15-.09-.21-.11-.13-.06-.22-.08-.27-.05-.01,.01-.02,.03-.03,.04-.33,.41-.65,.74-.95,1.01,0,0-.01,0-.03,0-.87-.32-1.85-.5-2.94-.38-.01,0-.03,0-.05,0-.63,.08-1.89,.38-3.5,2.18-.18,.2-.38,.43-.57,.68-1.39,1.77-3.52,5.29-5.67,10.12,.93,.95,1.87,1.89,2.8,2.84h0c.07,.07,.14,.14,.21,.21,.07,.07,.14,.14,.21,.21h0c.95,.93,1.89,1.87,2.84,2.8,4.83-2.16,8.35-4.29,10.12-5.67,.24-.19,.45-.37,.65-.55,1.81-1.62,2.12-2.88,2.2-3.52Zm-2.58,3.04c-.18,.16-.38,.33-.6,.5-.08,.06-.17,.13-.26,.2-.06,.04-.11,.08-.17,.12-.38,.28-.83,.59-1.35,.92-.15,.1-.3,.19-.46,.29,0,0-.01,.01-.02,.01-.08,.05-.15,.09-.23,.14-.09,.05-.18,.11-.26,.16-.27,.16-.55,.33-.84,.49-.1,.06-.2,.11-.3,.17-.3,.17-.62,.34-.94,.52-.11,.06-.22,.12-.33,.18-.22,.12-.45,.24-.68,.36-.29,.15-.58,.3-.89,.45-.19,.09-.38,.19-.58,.28-.25,.12-.51,.25-.77,.37-.13,.06-.26,.12-.4,.19-.13,.06-.27,.12-.4,.18-.13,.06-.28,.13-.41,.19-.87-.86-1.74-1.72-2.61-2.58h0c-.07-.06-.13-.13-.19-.2-.07-.06-.13-.13-.2-.19h0c-.86-.87-1.72-1.74-2.58-2.61,1.98-4.44,3.94-7.68,5.22-9.3,.18-.23,.35-.43,.52-.62,1.48-1.65,2.63-1.93,3.22-2,.01,0,.03,0,.04,0,.04,0,.08,0,.13-.01,.11-.01,.23-.02,.34-.02,0,0,.02,0,.03,0,.11,0,.22,0,.33,0,.11,0,.23,.01,.34,.02,.11,0,.22,.02,.33,.04,.11,.01,.21,.04,.32,.06,.1,.02,.2,.05,.31,.07,.2,.06,.4,.12,.59,.19,.01,0,.02,0,.03,0,.27-.25,.57-.56,.87-.93,0-.01,0-.02,.01-.03,0,0,0,0,.01-.01,.06-.08,.13-.16,.19-.25,.3,.58,1.28,1.76,2.55,3.02s2.45,2.25,3.02,2.55c-.1,.07-.19,.14-.27,.2-.39,.3-.7,.61-.96,.89,0,0,0,.01,0,.03,.3,.79,.46,1.7,.35,2.7,0,.01,0,.03,0,.04-.07,.59-.35,1.74-2.02,3.23Z" fill="#ade8f4"/>
    <path d="M17.45,5.94c.18,.16,.37,.33,.57,.5l-.4,.4c-.07-.08-.15-.15-.22-.23-.1-.1-.2-.21-.3-.31-.33-.33-.65-.64-.96-.92-.12-.11-.24-.22-.35-.32-.05-.04-.09-.08-.14-.12-.06-.05-.12-.1-.18-.15-.05-.05-.1-.09-.15-.13-.03-.03-.06-.05-.09-.08-.07-.06-.14-.11-.21-.17-.05-.04-.1-.08-.14-.11-.14-.11-.27-.21-.39-.29-.04-.02-.07-.05-.1-.07-.06-.04-.11-.07-.17-.1-.08-.05-.15-.09-.21-.11-.13-.06-.22-.08-.27-.05,.09-.11,.18-.23,.26-.35,.26-.37,.48-.74,.65-1.09,.1,.16,.2,.32,.31,.49,.11,.18,.24,.37,.38,.57,0,0,.01,.01,.02,.03,.22,.31,.45,.63,.69,.95,.48,.62,.95,1.18,1.41,1.68Z" fill="#90e0ef"/>
    <path d="M21.15,8.75c-.35,.17-.71,.39-1.08,.65-.13,.09-.25,.18-.36,.27,.01-.01,.02-.03,.02-.04,0,0,0-.02,0-.03,0-.05-.02-.13-.06-.21-.01-.03-.03-.05-.04-.08-.02-.03-.03-.06-.05-.09-.02-.04-.05-.08-.08-.13-.01-.03-.03-.05-.05-.07-.03-.05-.07-.1-.1-.15-.03-.04-.05-.07-.08-.11-.03-.04-.05-.07-.08-.11-.03-.04-.06-.08-.09-.12-.04-.04-.07-.09-.11-.14l.65-.65c.11,.08,.21,.16,.32,.23,.01,0,.02,.01,.03,.02,.33,.25,.64,.45,.91,.61,0,0,0,0,0,0,.09,.06,.17,.11,.25,.16Z" fill="#90e0ef"/>
    <path d="M23.26,8.22c-.14,.13-.44,.11-.84-.04-1.06-.39-2.81-1.65-4.22-3.06-1.36-1.36-2.62-3.09-3.04-4.16-.17-.43-.2-.74-.06-.9,.14-.15,.38-.05,1.3,.29h0c.54,1.07,1.65,2.54,2.84,3.72,1.2,1.2,2.66,2.3,3.72,2.84,.32,.86,.46,1.15,.29,1.31Z" fill="#7a6e70"/>
    <path d="M22.72,7.96c-.11,.1-.37,.07-.71-.08-.91-.39-2.47-1.56-3.73-2.82-1.22-1.23-2.39-2.76-2.8-3.68-.17-.37-.21-.64-.1-.76,.11-.12,.32-.02,1.11,.32h0c.52,.93,1.54,2.23,2.61,3.31,1.08,1.08,2.38,2.09,3.3,2.61,.32,.75,.45,1,.32,1.12Z" fill="#8e8083"/>
    <path d="M22.97,6.92c-1.06-.54-2.52-1.63-3.72-2.84-1.18-1.19-2.3-2.66-2.84-3.72,.39,.14,.91,.33,1.59,.56,2.49,.85,2.9,.81,3.42,1.4,.45,.52,.33,.77,.94,2.8,.24,.78,.44,1.36,.6,1.79Z" fill="#b5a9ac"/>
    <path d="M13.7,3.71s0-.03,.02-.03c0,0,0,0,.01-.01-.01,.01-.02,.03-.03,.04Z" fill="#fff"/>
    <path d="M16.47,16.69c-.18,.16-.38,.33-.6,.5-.08,.06-.17,.13-.26,.2-.06,.04-.11,.08-.17,.12-.38,.28-.83,.59-1.35,.92-.15,.1-.3,.19-.46,.29,0,0-.01,.01-.02,.01-.25-.21-.44-.47-.55-.8-.07-.2-.09-.4-.09-.59,.91-.18,1.8-.64,2.54-1.37,1.81-1.81,1.96-4.6,.33-6.23-1.41-1.41-3.69-1.49-5.45-.31,.08-.57,.31-1.21,.27-2.17-.03-.79-.24-1.62-.56-2.37,.11-.01,.23-.02,.34-.02,0,0,.02,0,.03,0,.11,0,.22,0,.33,0,.11,0,.23,.01,.34,.02,.11,.01,.22,.02,.33,.04,.11,.01,.21,.03,.32,.06,.1,.02,.2,.05,.31,.07,.2,.05,.4,.12,.59,.19,.01,0,.02,0,.03,0,.27-.25,.57-.56,.87-.93,0-.01,0-.02,.01-.03,0,0,0,0,.01-.01,.06-.08,.13-.16,.19-.25,.3,.58,1.28,1.76,2.55,3.02s2.45,2.25,3.02,2.55c-.1,.07-.19,.14-.27,.2-.39,.3-.7,.61-.96,.89,0,0,0,.01,0,.03,.3,.79,.46,1.7,.35,2.7,0,.01,0,.03,0,.04-.07,.59-.35,1.74-2.02,3.23Z" fill="#09cec4"/>
    <path d="M13.61,18.74c-.08,.05-.15,.09-.23,.14-.09,.05-.18,.11-.26,.16-.27,.16-.55,.33-.84,.49-.1,.06-.2,.11-.3,.17-.3,.17-.62,.34-.94,.52-.11,.06-.22,.12-.33,.18-.22,.12-.45,.24-.68,.36-.29,.15-.58,.3-.89,.45-.19,.09-.38,.19-.58,.28-.25,.12-.51,.25-.77,.37-.13,.06-.26,.12-.4,.19-.13,.06-.27,.12-.4,.18-.13,.06-.28,.13-.41,.19-.87-.86-1.74-1.72-2.61-2.58h0c-.07-.06-.13-.13-.19-.2-.07-.06-.13-.13-.2-.19h0c-.86-.87-1.72-1.74-2.58-2.61,1.98-4.44,3.94-7.68,5.22-9.3,.18-.23,.35-.43,.52-.62,1.48-1.65,2.63-1.93,3.22-2,.01,0,.03,0,.04,0,.04,0,.08,0,.13-.01,.32,.75,.53,1.57,.56,2.37,.04,.97-.19,1.61-.27,2.17-.28,.18-.54,.4-.78,.64-1.81,1.81-1.96,4.6-.33,6.23,.97,.97,2.35,1.31,3.69,1.04,0,.2,.02,.39,.09,.59,.11,.33,.3,.59,.55,.8Z" fill="#07beb8"/>
    <g>
      <path d="M17.28,6.68c.09,.09,.16,.17,.24,.25l-.73,.73c-.18-.17-.36-.34-.54-.53-1.18-1.18-2.09-2.28-2.36-2.83-.07-.14-.1-.25-.08-.31,.01-.01,.02-.03,.03-.04,.05-.03,.14-.01,.26,.04,.06,.03,.13,.06,.2,.1,.05,.03,.1,.06,.16,.1,.03,.02,.06,.04,.09,.06,.11,.08,.24,.16,.37,.27,.04,.04,.09,.07,.14,.11,.06,.05,.13,.1,.19,.16,.03,.02,.06,.05,.09,.07,.05,.04,.1,.08,.14,.12,.05,.05,.11,.09,.17,.14,.04,.03,.08,.07,.13,.11,.11,.09,.22,.19,.33,.3,.29,.26,.59,.55,.89,.86,.1,.1,.19,.19,.28,.29Z" fill="#07beb8"/>
      <path d="M19.41,9.57s-.16,.03-.33-.06c-.19-.09-.44-.26-.75-.49l.53-.53s.05,.07,.08,.1c.03,.03,.05,.07,.07,.1,.03,.04,.05,.07,.08,.1,.04,.05,.07,.1,.1,.15,.02,.02,.03,.05,.04,.07,.03,.04,.05,.08,.07,.12,.02,.03,.03,.06,.05,.09,.02,.03,.03,.06,.04,.08,.04,.08,.06,.15,.05,.2,0,0,0,.02,0,.03,0,.01-.01,.03-.02,.04Z" fill="#07beb8"/>
    </g>
    <path d="M12.97,17.35c-1.34,.27-2.72-.07-3.69-1.04-1.63-1.63-1.48-4.42,.33-6.23,.24-.24,.5-.46,.78-.64-.05,.38-.04,.72,.17,1.11,.84,1.57,3.3,.85,3.96,2.18,.67,1.36-1.5,2.97-1.54,4.63Z" fill="#12d6cc"/>
    <path d="M15.51,15.98c-.73,.73-1.63,1.19-2.54,1.37,.04-1.65,2.21-3.26,1.54-4.63-.66-1.33-3.11-.6-3.96-2.18-.21-.39-.22-.73-.17-1.11,1.76-1.18,4.04-1.1,5.45,.31,1.63,1.63,1.48,4.42-.33,6.23Z" fill="#2ee5d8"/>
    <path d="M13.97,9.44c.15-.18,1.29,.22,1.91,1.1,1.18,1.65,.04,4.22-.17,4.2-.15-.02,.28-1.41-.43-3.12-.56-1.36-1.47-2-1.32-2.18Z" fill="#52efe0"/>
    <g>
      <circle cx="13.77" cy="5.91" r=".63" fill="#0ff4e3"/>
      <circle cx="11.59" cy="5.82" r=".43" fill="#0ff4e3"/>
      <circle cx="12.68" cy="7" r=".48" fill="#0ff4e3"/>
    </g>
    <g>
      <circle cx="8.42" cy="7.19" r=".82" fill="#00d3c8"/>
      <circle cx="7.02" cy="7.98" r=".45" fill="#00d3c8"/>
      <circle cx="7.91" cy="9.54" r=".64" fill="#00d3c8"/>
      <circle cx="9.51" cy="18.37" r=".64" fill="#00d3c8"/>
      <circle cx="8.16" cy="20.63" r=".73" fill="#00d3c8"/>
      <circle cx="8.25" cy="16.75" r=".39" fill="#00d3c8"/>
      <circle cx="7.52" cy="18.96" r=".57" fill="#00d3c8"/>
      <circle cx="4.96" cy="12.21" r=".83" fill="#00d3c8"/>
      <circle cx="4.78" cy="14.54" r=".64" fill="#00d3c8"/>
      <circle cx="3.38" cy="13.5" r=".38" fill="#00d3c8"/>
    </g>
    <g>
      <circle cx="13.07" cy="13.62" r=".74" fill="#4fe8dc"/>
      <circle cx="11.75" cy="16.13" r=".37" fill="#4fe8dc"/>
      <circle cx="10.11" cy="11.74" r=".35" fill="#4fe8dc"/>
      <circle cx="9.3" cy="13.05" r=".33" fill="#4fe8dc"/>
    </g>
    <path d="M21.2,2.59c.1,0,.13,.19,.39,1.17,.47,1.75,.64,2.09,.48,2.21-.23,.17-1.01-.27-1.35-.94-.53-1.06,.18-2.46,.47-2.44Z" fill="#d1c3c7"/>
    <path d="M18.86,8.49l-.53,.53c-.44-.33-.98-.8-1.55-1.34l.73-.73,.03,.03s.09,.09,.13,.14c.3,.32,.58,.63,.81,.92,.07,.08,.13,.16,.19,.23,.01,.02,.02,.03,.03,.04,.05,.06,.09,.12,.14,.17,0,0,0,.01,.01,.01Z" fill="#52efe0"/>
    <path d="M19.63,7.72l-.77,.77s0-.01-.01-.01c-.04-.06-.09-.11-.14-.17-.01-.01-.02-.03-.03-.04-.06-.08-.13-.15-.19-.23-.24-.29-.51-.59-.81-.92-.04-.05-.09-.09-.13-.14l-.03-.03,.5-.5c.35,.3,.72,.6,1.12,.91,.16,.13,.33,.25,.5,.37Z" fill="#ade8f4"/>
  </g>
</svg>