<?xml version="1.0" encoding="UTF-8"?>
<svg id="_Шар_2" data-name="Шар 2" xmlns="http://www.w3.org/2000/svg" viewBox="0 0 23.75 23.39">
  <g id="Tränke">
    <path d="M16.04,.35c.02-.09,.06-.16,.12-.22,.03-.03,.06-.05,.1-.07,0,0,0,.01-.01,.02h0c-.07,.09-.13,.18-.2,.27Z" fill="#998675"/>
    <path d="M19.4,9.54c-.26-.07-.53-.18-.81-.31-.1-.05-.2-.09-.29-.15-.02-.01-.05-.02-.07-.04-.06-.03-.12-.07-.19-.11-.14-.08-.27-.16-.41-.26-.07-.04-.13-.09-.2-.14-.09-.07-.18-.13-.27-.2-.05-.04-.1-.08-.15-.12-.05-.04-.11-.09-.16-.13-.04-.04-.09-.07-.13-.11-.06-.06-.13-.11-.19-.17-.05-.05-.11-.09-.16-.15-.05-.05-.1-.1-.16-.15-.06-.06-.12-.12-.17-.18-.08-.08-.15-.16-.23-.25-.09-.1-.18-.2-.26-.3-.06-.07-.11-.14-.16-.2,0,0-.01-.02-.02-.03-.04-.05-.08-.1-.11-.15-.05-.08-.11-.15-.16-.23-.16-.23-.3-.47-.43-.7-.07-.13-.14-.26-.19-.39-.08-.18-.15-.35-.21-.52-.03-.08-.05-.17-.07-.25-.02-.08-.04-.16-.06-.24,0-.02,0-.04-.01-.05,1.75,1.84,3.51,3.68,5.27,5.51Z" fill="#fff" stroke="#000" stroke-miterlimit="10" stroke-width=".26"/>
    <polygon points="16.39 13 16.38 13 16.39 13 16.39 13" fill="#64adad"/>
    <path d="M20.61,9.99s-.04,.04-.07,.06c-.02,0-.04,0-.07,0-.05,0-.1,0-.16,0-.03,0-.06,0-.09,0-.05,0-.1,0-.16-.01-.05,0-.09,0-.14-.02-.03,0-.07,0-.1-.01-.14-.02-.28-.05-.42-.09-.28-.08-.58-.19-.88-.33-.1-.05-.21-.1-.32-.16-.02-.01-.05-.03-.07-.04-.07-.04-.13-.07-.2-.12-.15-.09-.29-.18-.44-.28-.07-.05-.14-.1-.22-.15-.1-.07-.2-.14-.29-.22-.05-.04-.11-.08-.16-.13-.06-.05-.12-.09-.17-.14-.05-.04-.09-.07-.14-.12-.07-.06-.14-.12-.2-.18-.06-.05-.11-.1-.17-.16-.06-.05-.11-.11-.17-.16-.06-.06-.13-.13-.19-.19-.09-.09-.17-.18-.24-.27-.1-.11-.19-.22-.28-.33-.06-.07-.12-.15-.18-.22,0,0-.01-.02-.02-.03-.04-.05-.08-.1-.12-.16-.06-.08-.12-.17-.18-.24-.17-.25-.33-.51-.46-.75-.08-.14-.15-.28-.21-.42-.09-.19-.17-.38-.23-.56-.03-.09-.05-.18-.08-.26-.03-.09-.05-.18-.06-.26,0-.02,0-.04-.01-.06h0s0-.06-.01-.08c0-.05-.01-.1-.02-.15,0-.06-.01-.12-.02-.18,0-.06,0-.12,0-.18,0-.05,0-.09,0-.13v-.07s.04-.04,.06-.06c.11-.11,.25-.2,.4-.26,0,0,0,.01-.01,.01l.03,.03s-.02,.07-.03,.1c-.01,.03-.02,.07-.03,.11-.01,.07-.02,.15-.03,.23,0,.04,0,.08,0,.12,0,.05,0,.11,0,.16,0,.06,0,.12,.01,.17,0,.05,.01,.09,.02,.14,0,.02,0,.05,.01,.07h0s0,.04,.01,.06c.02,.08,.03,.16,.06,.24,.02,.08,.05,.16,.07,.25,.06,.17,.13,.35,.21,.52,.06,.13,.12,.26,.19,.39,.12,.23,.27,.47,.43,.7,.05,.07,.11,.15,.16,.23,.04,.05,.07,.1,.11,.15,0,0,.01,.02,.02,.03,.05,.07,.11,.14,.16,.2,.08,.1,.17,.2,.26,.3,.07,.08,.15,.17,.23,.25,.05,.06,.12,.12,.17,.18,.05,.05,.1,.1,.16,.15,.05,.05,.1,.1,.16,.15,.06,.06,.13,.12,.19,.17,.04,.04,.08,.07,.13,.11,.05,.04,.11,.09,.16,.13,.05,.04,.1,.08,.15,.12,.09,.07,.18,.14,.27,.2,.07,.05,.13,.09,.2,.14,.14,.09,.27,.18,.41,.26,.06,.04,.13,.07,.19,.11,.02,.01,.05,.03,.07,.04,.1,.05,.2,.1,.29,.15,.28,.13,.55,.24,.81,.31,.13,.04,.26,.07,.39,.09,.03,0,.06,.01,.1,.01,.04,0,.08,.01,.13,.02,.05,0,.1,0,.14,0,.03,0,.05,0,.08,0,.05,0,.1,0,.15,0,.06,0,.12,0,.18-.02,.05,0,.1-.02,.15-.03,.06-.01,.12-.03,.17-.05-.06,.16-.15,.31-.27,.43Z" fill="#6da7af"/>
    <path d="M14.17,2.91l-.03-.03s0-.01,.01-.01c0,0,.02,0,.03-.01,0,.02-.01,.03-.02,.05Z" fill="#84adab"/>
    <path d="M22.34,8.57c-.5,.36-.98,.64-1.42,.88-.01,.04-.02,.07-.04,.11-.05,.02-.11,.04-.17,.05-.05,.01-.1,.02-.15,.03-.06,0-.12,.02-.18,.02-.05,0-.1,0-.15,0-.03,0-.05,0-.08,0-.05,0-.09,0-.14,0-.04,0-.08,0-.13-.02-.03,0-.06,0-.1-.01-.13-.02-.26-.05-.39-.09-.26-.07-.53-.18-.81-.31-.1-.05-.2-.09-.29-.15-.02-.01-.05-.02-.07-.04-.06-.03-.12-.07-.19-.11-.14-.08-.27-.16-.41-.26-.07-.04-.13-.09-.2-.14-.09-.07-.18-.13-.27-.2-.05-.04-.1-.08-.15-.12-.05-.04-.11-.09-.16-.13-.04-.04-.09-.07-.13-.11-.06-.06-.13-.11-.19-.17-.05-.05-.11-.09-.16-.15-.05-.05-.1-.1-.16-.15-.06-.06-.12-.12-.17-.18-.08-.08-.15-.16-.23-.25-.09-.1-.18-.2-.26-.3-.06-.07-.11-.14-.16-.2,0,0-.01-.02-.02-.03-.04-.05-.08-.1-.11-.15-.05-.08-.11-.15-.16-.23-.16-.23-.3-.47-.43-.7-.07-.13-.14-.26-.19-.39-.08-.18-.15-.35-.21-.52-.03-.08-.05-.17-.07-.25-.02-.08-.04-.16-.06-.24,0-.02,0-.04-.01-.05h0s0-.05-.01-.08c0-.05-.01-.09-.02-.14,0-.06-.01-.12-.01-.17,0-.05,0-.11,0-.16,0-.04,0-.08,0-.12,0-.08,.01-.16,.03-.23,0-.04,.02-.07,.03-.11,0-.03,.02-.07,.03-.1l-.03-.03s0-.01,.01-.01c.44-.59,.89-1.18,1.33-1.77,.04,.86,1.17,2.6,2.87,4.29,1.78,1.78,3.6,2.94,4.41,2.86-.13,.11-.27,.21-.42,.32Z" fill="#bc6c25"/>
    <path d="M23.69,7.48c-.05,.05-.1,.1-.16,.14h0s-.03,.03-.05,.05c-.07,.03-.17,.04-.28,.04-.86-.03-2.6-1.17-4.3-2.87s-2.83-3.43-2.87-4.3c0-.07,0-.14,.01-.2,.07-.09,.13-.18,.2-.27h0s0-.01,.01-.02c.66-.35,2.66,.86,4.62,2.81s3.16,3.95,2.81,4.62Z" fill="#dda15e"/>
    <path d="M22.46,6.31s-.07,.07-.11,.1h0s-.02,.02-.04,.03c-.05,.02-.11,.03-.19,.03-.58-.02-1.76-.79-2.91-1.94s-1.91-2.32-1.94-2.91c0-.05,0-.09,0-.13,.05-.06,.09-.12,.14-.18h0s0,0,0-.02c.45-.23,1.8,.58,3.12,1.9s2.13,2.67,1.9,3.12Z" fill="#efb275"/>
    <path d="M23.62,7.59s-.09,.07-.14,.09c.02-.01,.03-.03,.05-.05h0c.05-.05,.11-.1,.16-.15-.02,.04-.04,.07-.07,.1Z" fill="#998675"/>
    <path d="M23.47,7.68s-.07,.07-.11,.1h0c-.06,.05-.12,.1-.18,.15-.13,.11-.27,.22-.42,.33-.81,.07-2.63-1.08-4.41-2.86s-2.83-3.43-2.87-4.29c.12-.17,.24-.33,.37-.49h0s.03-.04,.04-.06c.05-.07,.1-.13,.15-.2-.01,.06-.02,.13-.01,.2,.03,.86,1.17,2.6,2.87,4.3s3.44,2.83,4.3,2.87c.11,0,.2,0,.28-.04Z" fill="#a05720"/>
    <path d="M20.54,10.05c-.28,.24-.66,.34-1.11,.32-.07,0-.15,0-.23-.02-.05,0-.11-.01-.16-.03-.22-.04-.45-.1-.68-.19-.05-.02-.11-.04-.16-.06-.02,0-.03-.01-.05-.02-.06-.03-.12-.05-.18-.08-.37-.17-.76-.39-1.14-.65-.07-.05-.13-.09-.2-.14-.07-.05-.15-.11-.22-.17-.07-.06-.14-.11-.21-.17,0,0,0,0-.01,0-.12-.1-.24-.2-.36-.32-.04-.03-.07-.07-.11-.1-.07-.06-.13-.12-.2-.19-1.38-1.38-2.18-2.97-2.15-4.09,0-.38,.11-.7,.32-.94v.07s-.01,.08-.01,.13c0,.06,0,.12,0,.18,0,.06,0,.12,.02,.18,0,.05,.01,.1,.02,.15,0,.03,0,.05,.01,.08h0s0,.04,.01,.06c.02,.08,.04,.17,.06,.26,.02,.09,.05,.17,.08,.26,.06,.18,.14,.37,.23,.56,.06,.14,.13,.28,.21,.42,.13,.25,.29,.5,.46,.75,.06,.08,.12,.16,.18,.24,.04,.06,.08,.11,.12,.16,0,.01,.02,.02,.02,.03,.06,.07,.11,.15,.18,.22,.09,.11,.18,.22,.28,.33,.08,.09,.16,.18,.24,.27,.06,.06,.12,.13,.19,.19,.05,.05,.11,.11,.17,.16,.06,.06,.11,.11,.17,.16,.07,.06,.14,.12,.2,.18,.04,.04,.09,.08,.14,.12,.05,.05,.11,.09,.17,.14,.05,.04,.11,.08,.16,.13,.1,.07,.2,.15,.29,.22,.07,.05,.14,.1,.22,.15,.15,.1,.29,.19,.44,.28,.07,.04,.14,.08,.2,.12,.03,.01,.05,.03,.07,.04,.11,.06,.21,.11,.32,.16,.3,.14,.6,.25,.88,.33,.14,.04,.28,.07,.42,.09,.04,0,.07,.01,.1,.01,.05,0,.09,.02,.14,.02,.05,0,.11,.01,.16,.01,.03,0,.06,0,.09,0,.05,0,.11,0,.16,0,.02,0,.04,0,.07,0Z" fill="#ade8f4"/>
    <path d="M14.59,20.51s.07-.07,.1-.1c.25-.25,.49-.52,.7-.8,.1-.13,.2-.26,.29-.4,.15-.22,.29-.45,.42-.69,.04-.07,.08-.15,.12-.22,.03-.06,.06-.12,.09-.19,.2-.41,.35-.83,.48-1.26,.04-.15,.08-.3,.12-.46,.17-.75,.24-1.52,.19-2.29,0-.08,0-.17-.02-.25,0-.08-.02-.17-.03-.25-.01-.12-.03-.25-.05-.37-.02-.13-.04-.25-.07-.37h0s0,0,0,0c-.01-.06-.02-.12-.04-.17-.02-.09-.04-.18-.07-.28-.01-.04-.02-.09-.03-.13,.18-.2,.37-.4,.58-.6,0,0-.01,.01-.02,.02-.05,.03-.14,.03-.25,0-.06-.02-.12-.04-.19-.07-.02,0-.05-.02-.07-.03-.03-.01-.06-.03-.09-.05-.05-.03-.09-.05-.14-.08-.03-.02-.05-.03-.08-.05-.17-.1-.35-.23-.55-.38h0c-.33-.25-.7-.56-1.09-.91-.11-.1-.22-.2-.33-.3-.05-.04-.09-.09-.14-.14-.05-.05-.11-.1-.16-.16-.09-.08-.18-.17-.26-.26-.05-.05-.1-.1-.14-.15-.15-.16-.29-.31-.43-.46-.07-.07-.13-.14-.19-.21-.03-.03-.06-.07-.09-.11-.07-.07-.13-.15-.19-.22,0-.01-.02-.03-.03-.04-.06-.07-.13-.15-.18-.22-.13-.16-.24-.3-.35-.45h0c-.44-.6-.67-1.06-.6-1.24-.04,.05-.08,.08-.1,.11-.02,.02-.03,.04-.05,.05-.08,.08-.17,.16-.17,.16-.06,.06-.11,.11-.17,.16-.07-.02-.14-.04-.21-.06-.04-.01-.09-.02-.13-.03-.09-.02-.18-.05-.28-.07-.06-.01-.12-.03-.17-.04h0s0,0,0,0c-.12-.03-.25-.05-.37-.07-.12-.02-.25-.04-.37-.05-.08-.01-.17-.02-.25-.03-.08,0-.17-.01-.25-.02-.09,0-.18,0-.28-.01,.3,.46,.53,.95,.63,1.48,.35,1.72-.75,2.5-.93,3.81-.04,.28-.04,.6,.03,.95,.53,2.66,3.94,2.62,5.21,5.39,.16,.33,.27,.69,.35,1.07,.12,.55,.16,1.14,.12,1.73,.04-.04,.09-.08,.13-.12,.02-.02,.04-.04,.06-.06h0Zm1.79-7.52s0,0,0,0c0,0,0,0-.01,0h0Z" fill="#0a5775"/>
    <path d="M16.19,8.83l-1.28,1.28c-.11-.1-.22-.2-.33-.3-.05-.04-.09-.09-.14-.14-.05-.05-.11-.1-.16-.16-.09-.08-.18-.17-.26-.26-.05-.05-.1-.1-.14-.15-.15-.16-.29-.31-.43-.46-.07-.07-.13-.14-.19-.21-.03-.03-.06-.07-.09-.11-.07-.07-.13-.15-.19-.22,0-.01-.02-.03-.03-.04-.06-.07-.12-.15-.18-.22-.13-.16-.24-.3-.35-.45h0c-.44-.6-.67-1.06-.6-1.24,.02-.02,.04-.05,.07-.07,.28-.31,.78-.87,1.42-1.59,0-.11,.01-.21,.03-.3,.02-.02,.03-.04,.05-.06-.03,1.11,.77,2.7,2.15,4.09,.07,.07,.13,.13,.2,.19,.03,.03,.07,.07,.11,.1,.12,.11,.24,.22,.36,.32Z" fill="#90e0ef"/>
    <path d="M11.8,6.16s.02-.03,.03-.05c.01-.01,.02-.02,.04-.03-.03,.03-.05,.05-.07,.07Z" fill="#b5ecf4"/>
    <path d="M14.85,20.84c-3.4,3.4-8.91,3.4-12.3,0S-.85,11.94,2.55,8.54c2.2-2.2,5.28-2.98,8.11-2.32,.22,.05,.43,.11,.65,.17,.06-.05,.12-.11,.17-.17,0,0,.09-.08,.18-.17,.11-.11,.76-.82,1.67-1.86-.02,.1-.03,.2-.03,.3-.64,.72-1.14,1.29-1.42,1.59-.02,0-.03,.01-.04,.03-.01,.01-.02,.03-.03,.05-.04,.05-.08,.08-.1,.11-.02,.02-.03,.04-.05,.05-.08,.08-.17,.16-.17,.16-.06,.06-.11,.11-.17,.16-.07-.02-.14-.04-.21-.06-.04-.01-.09-.02-.13-.03-.11-.03-.23-.06-.34-.08-.04,0-.07-.01-.11-.02h0s0,0,0,0c-.02,0-.04,0-.06-.01-.1-.02-.21-.04-.31-.05-.12-.02-.25-.04-.37-.05-.08-.01-.17-.02-.25-.03-.08,0-.17-.01-.25-.02-.77-.04-1.54,.02-2.29,.19-.15,.04-.3,.07-.46,.12-.43,.12-.85,.28-1.26,.48-.06,.03-.12,.06-.19,.09-.07,.04-.15,.08-.22,.12-.24,.13-.47,.27-.69,.42-.14,.09-.27,.19-.4,.29-.28,.21-.54,.45-.8,.7-.03,.03-.07,.07-.1,.1-.02,.02-.04,.04-.06,.06-.51,.51-.93,1.06-1.28,1.65-.19,.32-.35,.65-.49,.98-.03,.08-.07,.16-.1,.25-.03,.08-.06,.16-.09,.23-.09,.25-.16,.51-.23,.77-.02,.1-.05,.2-.07,.3-.02,.1-.04,.2-.05,.29,0,.01,0,.03,0,.04-.02,.1-.03,.19-.04,.29,0,.02,0,.05-.01,.08-.01,.1-.02,.2-.03,.3,0,.11-.02,.22-.02,.34,0,.11,0,.22,0,.33,0,.1,0,.2,0,.3,0,.24,.03,.47,.05,.71,.01,.11,.03,.22,.05,.33,.02,.11,.04,.22,.06,.33,.02,.11,.05,.22,.07,.33,.03,.11,.05,.22,.09,.32,.03,.11,.06,.22,.1,.32,.03,.1,.07,.2,.1,.3,0,.01,0,.02,.01,.04,.03,.08,.06,.16,.1,.24,.02,.05,.04,.09,.06,.13,.03,.08,.07,.16,.11,.24,.05,.1,.1,.21,.15,.31,.05,.1,.11,.2,.17,.3,.05,.09,.11,.19,.17,.28,0,0,.01,.02,.02,.03,.06,.09,.12,.18,.18,.27,.05,.07,.11,.15,.16,.22,.08,.11,.18,.23,.27,.34,.07,.09,.15,.18,.23,.26h0c.08,.09,.16,.18,.24,.26s.17,.16,.25,.24h0c.09,.09,.18,.17,.26,.24,.11,.09,.22,.18,.34,.27,.07,.06,.15,.11,.22,.16,.09,.06,.18,.13,.27,.18,0,0,.02,.01,.03,.02,.09,.06,.19,.12,.28,.17,.1,.06,.2,.12,.3,.17s.2,.11,.31,.15c.08,.04,.16,.07,.24,.11,.04,.02,.09,.04,.13,.06,.08,.03,.16,.07,.24,.1,.01,0,.03,.01,.04,.01,.1,.04,.2,.07,.3,.1,.11,.04,.22,.07,.32,.1,.11,.03,.21,.06,.32,.09,.11,.03,.22,.05,.33,.07,.11,.02,.22,.04,.33,.06,.11,.02,.22,.03,.33,.05,.23,.03,.47,.05,.71,.05,.1,0,.2,0,.3,0,.11,0,.22,0,.33,0,.11,0,.22-.01,.34-.02,.1,0,.2-.02,.3-.03,.02,0,.05,0,.08-.01,.1-.01,.19-.03,.29-.04,.01,0,.03,0,.04,0,.1-.02,.2-.03,.29-.05,.1-.02,.2-.04,.3-.07,.26-.06,.52-.14,.77-.23,.08-.03,.16-.06,.23-.09,.09-.03,.17-.07,.25-.1,.33-.14,.66-.31,.98-.49,.59-.35,1.15-.78,1.65-1.28,.02-.02,.04-.04,.06-.06h0s.07-.07,.1-.1c.25-.25,.49-.52,.7-.8,.1-.13,.2-.26,.29-.4,.15-.22,.29-.45,.42-.69,.04-.07,.08-.15,.12-.22,.03-.06,.06-.12,.09-.19,.2-.41,.35-.83,.48-1.26,.05-.15,.08-.3,.12-.46,.17-.75,.24-1.52,.19-2.29,0-.08,0-.17-.02-.25,0-.08-.02-.17-.03-.25-.01-.12-.03-.25-.05-.37-.01-.11-.03-.21-.05-.31,0-.02,0-.04-.01-.06,0,0,0,0,0,0t0,0s-.01-.07-.02-.11c-.02-.12-.05-.23-.08-.34-.01-.04-.02-.09-.03-.13,.18-.2,.37-.4,.58-.6h.01c.58-.56,1.17-.96,1.66-1.25,.09,0,.18,0,.27,0-.5,.3-1.07,.7-1.64,1.24-.23,.21-.44,.43-.62,.64,.05,.16,.09,.33,.12,.5,.62,2.8-.16,5.86-2.34,8.04Z" fill="#ade8f4"/>
    <path d="M10.52,6.44h0c-.12-.02-.25-.05-.37-.07,.11,.01,.21,.03,.31,.05,.02,0,.04,0,.06,.01Z" fill="#ade8f4"/>
    <path d="M10.98,6.55c-.09-.02-.18-.05-.28-.07-.06-.01-.12-.03-.17-.04h0s.07,.01,.11,.02c.12,.02,.23,.05,.34,.08Z" fill="#ade8f4"/>
    <polygon points="16.96 12.87 16.95 12.87 16.95 12.87 16.95 12.87 16.96 12.87" fill="#ade8f4"/>
    <path d="M19.44,10.37s-.07,.04-.1,.06c-.09,0-.18,.01-.27,0-.5,.29-1.08,.69-1.66,1.24h0c.11-.1,0-.41-.28-.84l.85-.85c.06,.03,.12,.05,.18,.08,.02,0,.03,.01,.05,.02,.05,.02,.11,.04,.16,.06,.24,.09,.46,.15,.68,.19,.05,.01,.11,.02,.16,.03,.08,.01,.16,.02,.23,.02Z" fill="#90e0ef"/>
    <path d="M17.97,9.98l-.86,.86c-.27-.44-.72-1.02-1.29-1.65l.36-.36c.6,.5,1.21,.89,1.79,1.15Z" fill="#ade8f4"/>
    <path d="M16.09,11.09c.16,.12,.32,.23,.46,.31h0c-.17-.1-.35-.23-.55-.38h0c-.33-.25-.7-.56-1.09-.91h0s.09,.09,.14,.13c.03,.03,.07,.06,.11,.09,.07,.07,.15,.13,.22,.19,.01,0,.03,.02,.04,.03,.07,.06,.15,.12,.22,.18,.16,.13,.3,.24,.45,.35h0Z" fill="#ade8f4"/>
    <g>
      <circle cx="10.72" cy="7.75" r=".67" fill="#107a9b"/>
      <circle cx="11.89" cy="9.37" r=".35" fill="#107a9b"/>
      <circle cx="10.21" cy="10.04" r=".62" fill="#107a9b"/>
    </g>
    <path d="M17.11,10.84l-.57,.57c-.14-.09-.29-.19-.46-.31h0c-.14-.1-.29-.22-.45-.35-.07-.06-.15-.12-.22-.18-.01,0-.03-.02-.04-.03-.07-.06-.15-.13-.22-.19-.03-.03-.07-.06-.11-.09-.02-.02-.05-.04-.07-.06-.02-.02-.05-.04-.07-.07l.92-.92c.56,.63,1.02,1.2,1.29,1.65Z" fill="#55acc6"/>
    <g>
      <path d="M15.83,9.19l-.92,.92c-.11-.1-.22-.2-.33-.3-.05-.04-.09-.09-.14-.14-.05-.05-.11-.1-.16-.16-.09-.08-.18-.17-.26-.26-.05-.05-.1-.1-.14-.15-.15-.16-.29-.31-.43-.46-.07-.07-.13-.14-.19-.21-.03-.03-.06-.07-.09-.11-.07-.07-.13-.15-.19-.22,0-.01-.02-.03-.03-.04-.06-.07-.12-.15-.18-.22-.13-.16-.24-.3-.35-.45h0c-.44-.6-.67-1.06-.6-1.24,0-.02,.02-.03,.03-.05,.01-.01,.02-.02,.04-.03,.34-.15,1.75,.85,3.22,2.33,.26,.26,.51,.52,.74,.77Z" fill="#0c4460"/>
      <path d="M17.4,11.68h0s-.01,.02-.02,.02c-.05,.03-.14,.03-.25,0-.06-.02-.12-.04-.19-.07-.02,0-.05-.02-.07-.03-.03-.01-.06-.03-.09-.05-.05-.03-.09-.05-.14-.08-.03-.02-.05-.03-.08-.05l.58-.58c.27,.43,.38,.74,.28,.85Z" fill="#0c4460"/>
    </g>
    <polygon points="16.39 13 16.38 13 16.39 13 16.39 13" fill="#780000"/>
    <path d="M14.41,20.7c-.47,.45-.98,.84-1.52,1.16-.32,.19-.65,.35-.98,.49-.08,.03-.16,.07-.25,.1-.08,.03-.16,.06-.23,.09-.25,.09-.51,.16-.77,.23-.1,.02-.2,.05-.3,.07-.1,.02-.2,.04-.29,.05-.01,0-.02,0-.04,0-.1,.02-.19,.03-.29,.04-.03,0-.05,0-.08,.01-.1,.01-.2,.02-.3,.03-.11,.01-.22,.02-.34,.02-.11,0-.22,0-.33,0-.1,0-.2,0-.3,0-.24,0-.47-.03-.71-.05-.11-.01-.22-.03-.33-.05-.11-.02-.22-.04-.33-.06-.11-.02-.22-.05-.33-.07-.11-.03-.22-.05-.32-.09-.11-.03-.22-.06-.32-.1-.1-.03-.2-.07-.3-.1-.01,0-.02,0-.04-.01-.08-.03-.16-.06-.24-.1-.05-.02-.09-.03-.13-.06-.08-.03-.16-.07-.24-.11-.1-.05-.2-.1-.31-.15s-.2-.11-.3-.17c-.09-.05-.19-.11-.28-.17-.01,0-.02-.01-.03-.02-.09-.06-.18-.12-.27-.18-.07-.05-.15-.11-.22-.16-.12-.09-.23-.18-.34-.27-.09-.07-.18-.15-.26-.23h0c-.09-.09-.17-.17-.25-.25s-.16-.17-.24-.25h0c-.08-.1-.16-.18-.23-.27-.09-.11-.18-.22-.27-.34-.06-.07-.11-.15-.16-.22-.06-.09-.13-.18-.18-.27,0-.01-.01-.02-.02-.03-.06-.09-.12-.19-.17-.28-.06-.1-.12-.2-.17-.3-.05-.1-.1-.2-.15-.31-.04-.08-.07-.16-.11-.24-.02-.04-.04-.09-.06-.13-.03-.08-.07-.16-.1-.24,0-.01-.01-.03-.01-.04-.04-.1-.07-.2-.1-.3-.04-.11-.07-.22-.1-.32-.03-.11-.06-.21-.09-.32-.03-.11-.05-.22-.07-.33-.02-.11-.04-.22-.06-.33-.02-.11-.03-.22-.05-.33-.03-.24-.05-.47-.05-.71,0-.1,0-.2,0-.3,0-.11,0-.22,0-.33,0-.11,.01-.22,.02-.34,0-.1,.02-.2,.03-.3,0-.03,0-.05,.01-.08,.01-.1,.03-.19,.04-.29,0-.01,0-.03,0-.04,.02-.1,.03-.2,.05-.29,.02-.1,.04-.2,.07-.3,.06-.26,.14-.51,.23-.77,.03-.08,.06-.16,.09-.23,.03-.09,.07-.17,.1-.25,.14-.33,.3-.66,.49-.98,.35-.59,.78-1.15,1.28-1.65,.02-.02,.04-.04,.06-.06,.03-.03,.07-.07,.1-.1,.25-.25,.52-.49,.8-.7,.13-.1,.26-.2,.4-.29,.22-.15,.45-.3,.69-.42,.07-.04,.15-.08,.22-.12,.06-.03,.12-.06,.19-.09,.41-.2,.83-.36,1.26-.48,.15-.04,.3-.08,.46-.12,.66-.15,1.34-.22,2.01-.2,.3,.46,.53,.95,.63,1.48,.35,1.72-.75,2.5-.93,3.81-.35,.2-.67,.45-.97,.75-1.83,1.83-1.83,4.79,0,6.61s4.74,1.83,6.57,.05c.12,.55,.16,1.14,.12,1.73Z" fill="#0c4460"/>
    <path d="M14.29,18.97c-1.83,1.78-4.76,1.76-6.57-.05s-1.83-4.79,0-6.61c.3-.3,.62-.54,.97-.75-.04,.28-.04,.6,.03,.95,.53,2.66,3.94,2.62,5.21,5.39,.16,.33,.27,.69,.35,1.07Z" fill="#13536d"/>
    <path d="M14.34,18.92s-.03,.03-.05,.05c-.08-.37-.19-.73-.35-1.07-1.28-2.77-4.68-2.73-5.21-5.39-.07-.35-.07-.66-.03-.95,1.79-1.03,4.11-.78,5.64,.75,1.83,1.83,1.83,4.79,0,6.61Z" fill="#03748e"/>
    <path d="M14.74,17.49c-.28,.01-.17-1.51-1.26-3.37-1.01-1.73-2.23-2.33-2.09-2.54,.18-.27,2.57,.32,3.51,2.15,.86,1.67,.18,3.75-.15,3.76Z" fill="#178aa5"/>
    <g>
      <circle cx="6.05" cy="8.31" r=".77" fill="#16679a"/>
      <circle cx="4.01" cy="9.71" r=".54" fill="#16679a"/>
      <circle cx="6.77" cy="10.31" r=".54" fill="#16679a"/>
      <circle cx="2.65" cy="14.09" r=".54" fill="#16679a"/>
      <circle cx="4.63" cy="17.9" r=".54" fill="#16679a"/>
    </g>
    <g>
      <circle cx="10.68" cy="19.14" r=".67" fill="#24758e"/>
      <circle cx="11.29" cy="16.98" r=".47" fill="#24758e"/>
      <circle cx="9.72" cy="17.24" r=".47" fill="#24758e"/>
      <circle cx="7.9" cy="13.37" r=".47" fill="#24758e"/>
    </g>
  </g>
</svg>