<?xml version="1.0" encoding="UTF-8"?>
<svg id="_Шар_2" data-name="Шар 2" xmlns="http://www.w3.org/2000/svg" viewBox="0 0 23.76 23.68">
  <g id="Streitkolben">
    <g>
      <g>
        <polygon points="17.38 .1 17.37 .06 17.35 .1 17.37 .1 17.38 .1" fill="#3d3735"/>
        <path d="M18.53,10.43c.53-.1,1.05-.29,1.51-.6l2.12,1.07-1.54-1.54s0,0,0,0l1.54,1.54-1.06-2.1c.37-.52,.62-1.11,.71-1.72l1.91-.62h.04s-.04-.03-.04-.03l-1.92-.7c-.09-.55-.29-1.1-.59-1.6l.06,.06,1.39-2.94,.02-.04-.04,.02-2.95,1.39c-.5-.31-1.05-.5-1.61-.59l-.7-1.93h-.03s-.63,1.92-.63,1.92c-.61,.1-1.19,.35-1.71,.72l-2.08-1.05,1.52,1.52s0,0,0,0l-1.52-1.52,1.06,2.09c-.33,.5-.53,1.05-.62,1.63l-1.94,.63h-.04s.04,.03,.04,.03l1.96,.71c.04,.22,.1,.43,.17,.64l-1.77,1.77,.8,.8-.65,.65-3.26,3.26-.74,.74-.15,.15-.57,.57-.2,.2-.58,.58-.18,.18-.48,.48-3.95,3.95-.51,.51h0s-.14-.13-.14-.13c-.19-.19-.5-.2-.69-.01l-.35,.35,2.21,2.21,.37-.37c.18-.18,.17-.47-.01-.66l-.15-.15h0s.51-.51,.51-.51l.32-.32,3.63-3.63,.14-.14,.57-.57,.12-.12,.69-.69,.22-.22,.82-.82,.34-.34,3.26-3.26,.65-.65,.8,.8,1.77-1.77c.26,.09,.51,.15,.78,.18l.69,1.91,.02,.04v-.04s.64-1.92,.64-1.92Z" fill="#3d3735"/>
      </g>
      <g>
        <polygon points="8.32 16.3 7.63 16.99 7.06 15.81 6.86 15.4 7.06 15.2 7.41 15.5 8.32 16.3" fill="#dd7547"/>
        <polygon points="6.29 16.52 6.94 17.68 2.19 22.43 1.01 21.25 6.09 16.16 6.29 16.52" fill="#898149"/>
        <polygon points="7.63 16.99 7.51 17.11 6.57 16.26 6.28 15.98 6.86 15.4 7.06 15.81 7.63 16.99" fill="#898149"/>
        <polygon points="8.55 16.07 8.32 16.3 7.41 15.5 7.06 15.2 7.63 14.63 7.91 15.08 8.55 16.07" fill="#898149"/>
        <polygon points="13.96 10.66 9.37 15.25 8.33 14.74 7.78 14.47 12.78 9.48 13.96 10.66" fill="#898149"/>
        <path d="M8.33,14.74l-.55-.26,4.99-4.99,.46,.46c-.23,.34-.52,.74-.83,1.16-.6,.74-1.32,1.53-2.1,2.1-.38,.27-.82,.62-1.31,1.01-.21,.17-.45,.35-.66,.54Z" fill="#726a39"/>
        <path d="M7.41,15.5l-.35-.31,.57-.57,.28,.45c-.16,.14-.34,.27-.51,.43Z" fill="#726a39"/>
        <path d="M6.57,16.26l-.3-.27,.58-.58,.2,.41c-.16,.14-.34,.3-.49,.45Z" fill="#726a39"/>
        <path d="M3.16,21.45l-.82,.82-1.18-1.18,4.93-4.93,.19,.36c-.14,.12-.27,.25-.41,.39-1.09,1.07-1.96,2.13-2.2,2.91-.13,.46-.32,1.03-.52,1.64Z" fill="#726a39"/>
        <path d="M.4,21.55H2.43c.26,0,.47,.21,.47,.47v.51H-.09v-.48c0-.27,.22-.49,.49-.49Z" transform="translate(15.99 5.46) rotate(45)" fill="#726a39"/>
        <rect x="1.64" y="20.6" width=".72" height="1.67" transform="translate(-14.57 7.69) rotate(-45)" fill="#4c441e"/>
        <rect x="12.16" y="9.73" width="1.41" height="1.67" transform="translate(-3.7 12.2) rotate(-45)" fill="#4c441e"/>
        <g>
          <polygon points="19.57 8.32 21.77 10.52 20.33 7.56 19.57 8.32" fill="#894a1f"/>
          <polygon points="21.77 10.52 19.57 8.32 18.82 9.07 21.77 10.52" fill="#894a1f"/>
        </g>
        <g>
          <polygon points="15.14 3.89 12.94 1.69 14.39 4.64 15.14 3.89" fill="#894a1f"/>
          <polygon points="12.94 1.69 15.14 3.89 15.89 3.13 12.94 1.69" fill="#894a1f"/>
        </g>
        <circle cx="17.4" cy="6.04" r="4.18" fill="#9b5424"/>
        <circle cx="17.4" cy="6.04" r="3.16" fill="#ce7f49"/>
        <rect x="12.03" y="8.16" width="3.84" height="2.65" transform="translate(10.79 -7.09) rotate(45)" fill="#9b5424"/>
        <rect x="12.66" y="8.59" width="2.6" height="1.79" rx=".18" ry=".18" transform="translate(10.79 -7.09) rotate(45)" fill="#c46627"/>
        <g>
          <polygon points="22.48 1.02 22.45 1.05 22.44 1.04 22.48 1.02" fill="#9b5424"/>
          <polygon points="21.04 3.97 20.29 3.21 20.28 3.22 19.51 2.46 22.44 1.04 22.46 1.06 21.04 3.97" fill="#9b5424"/>
          <polygon points="22.46 1.06 22.45 1.05 22.48 1.02 22.46 1.06" fill="#9b5424"/>
        </g>
        <g>
          <polygon points="17.31 0 17.31 .04 17.29 .04 17.31 0" fill="#ce7f49"/>
          <polygon points="18.37 3.11 17.31 3.11 17.31 3.12 16.23 3.12 17.29 .04 17.32 .04 18.37 3.11" fill="#ce7f49"/>
          <polygon points="17.32 .04 17.31 .04 17.31 0 17.32 .04" fill="#ce7f49"/>
        </g>
        <g>
          <polygon points="11.34 5.99 11.38 5.99 11.38 6 11.34 5.99" fill="#ce7f49"/>
          <polygon points="14.45 4.93 14.45 5.99 14.46 5.99 14.46 7.07 11.38 6 11.38 5.98 14.45 4.93" fill="#ce7f49"/>
          <polygon points="11.38 5.98 11.38 5.99 11.34 5.99 11.38 5.98" fill="#ce7f49"/>
        </g>
        <g>
          <polygon points="23.43 6.12 23.39 6.12 23.39 6.1 23.43 6.12" fill="#ce7f49"/>
          <polygon points="20.33 7.18 20.33 6.12 20.31 6.12 20.31 5.04 23.39 6.1 23.39 6.13 20.33 7.18" fill="#ce7f49"/>
          <polygon points="23.39 6.13 23.39 6.12 23.43 6.12 23.39 6.13" fill="#ce7f49"/>
        </g>
        <g>
          <polygon points="17.56 12.06 17.56 12.02 17.57 12.02 17.56 12.06" fill="#ce7f49"/>
          <polygon points="16.49 8.96 17.56 8.96 17.56 8.94 18.63 8.94 17.57 12.02 17.54 12.02 16.49 8.96" fill="#ce7f49"/>
          <polygon points="17.54 12.02 17.56 12.02 17.56 12.06 17.54 12.02" fill="#ce7f49"/>
        </g>
        <polygon points="18.49 6.73 17.6 5.84 18.49 4.94 18.49 6.73" fill="#fcb17e"/>
        <polygon points="18.49 6.73 16.71 6.73 17.6 5.84 18.49 6.73" fill="#9b5424"/>
        <polygon points="17.6 5.84 16.71 6.73 16.7 4.94 17.6 5.84" fill="#fcb17e"/>
        <polygon points="18.49 4.94 17.6 5.84 16.7 4.94 18.49 4.94" fill="#9b5424"/>
        <path d="M19.57,7.37c.76-1.21-.1-2.89-.23-2.87-.12,.02,.4,1.41-.33,2.57-.66,1.05-1.92,1.24-1.88,1.34,.04,.12,1.74,.08,2.45-1.05Z" fill="#fcb17e"/>
        <polygon points="9.71 14.91 9.37 15.25 8.33 14.74 7.78 14.47 8.53 13.73 9.71 14.91" fill="#dd7547"/>
        <g>
          <polygon points="8.33 14.74 7.78 14.47 7.63 14.63 7.06 15.2 7.41 15.5 8.32 16.3 8.55 16.07 9.37 15.25 8.33 14.74" fill="#fc9765"/>
          <polygon points="6.86 15.4 6.28 15.98 6.09 16.16 6.29 16.52 6.94 17.68 7.51 17.11 7.63 16.99 7.06 15.81 6.86 15.4" fill="#fc9765"/>
        </g>
        <polygon points="6.94 17.68 6.8 17.82 5.62 16.64 6.09 16.16 6.29 16.52 6.94 17.68" fill="#dd7547"/>
      </g>
    </g>
  </g>
</svg>