<?xml version="1.0" encoding="UTF-8"?>
<svg id="_Шар_2" data-name="Шар 2" xmlns="http://www.w3.org/2000/svg" viewBox="0 0 23.92 23.87">
  <g id="Streitkolben">
    <g>
      <path d="M22.51,8.9c-.1-.37-.18-.85-.24-1.37,.69,.03,1.15,.11,1.15,.11-.42-.53-.58-3.42-.61-4l.14-.14,.02,.02c.22,.22,.56,.23,.77,.02l.03-.03c.1-.1,.15-.24,.15-.38,0-.22-.14-.36-.17-.39-.25-.13-.56-.34-.89-.6l.15-.15,.42,.42,.14,.14s-.02-2.09-.02-2.07l-2.12-.07,.59,.59-.15,.15c-.26-.33-.47-.65-.6-.89-.22-.22-.56-.23-.77-.02l-.03,.03c-.21,.21-.2,.55,.02,.77l.1,.1c-.24-.01-3.51-.17-4.08-.62,0,0,.09,.5,.11,1.24-.58-.05-1.11-.14-1.52-.25,.15,.56,.28,1.27,.3,2.1,.03,1.26-.21,2.28-.45,3-.17-.31-.31-.6-.4-.81-.12,.12-.82,.76-.86,1.83,0,.02,0,.04,0,.06,0,0-.02,.02-.02,.04h0c-.11,0-.21,0-.32,.01-.81,.08-1.35,.5-1.57,.7,.35,.13,.87,.35,1.45,.77,.04,.03,.07,.06,.11,.09-.11,.11-.21,.21-.31,.33-.98,1.02-1.98,2.06-3,3.1l-.93,.93c-.13,.15-.27,.29-.41,.43l-.75,.75-.25,.25-.02,.02-1.02,1.02-.27,.27c-.15,.15-.29,.29-.45,.43-1.3,1.3-2.61,2.57-3.91,3.8-.19,.18-.38,.35-.57,.53-.35-.01-.71,.11-.97,.37-.52,.52-.5,1.38,.04,1.93s1.41,.56,1.93,.04c.25-.25,.37-.58,.37-.92,.05-.05,.1-.11,.15-.16,.12-.12,.23-.25,.35-.37,.64-.68,1.27-1.36,1.93-2.03,.56-.6,1.13-1.18,1.7-1.76l.2-.2,.22-.22c.17-.19,.36-.38,.55-.55,.04-.06,.08-.1,.14-.14,.13-.15,.28-.3,.43-.45l.78-.78c.11-.11,.21-.21,.33-.31,.42-.44,.86-.86,1.27-1.27l.38-.36c.28-.28,.55-.55,.83-.81,.78-.76,1.54-1.48,2.31-2.21,.1-.1,.2-.19,.29-.28,.03,.03,.06,.07,.09,.1,.41,.57,.64,1.1,.77,1.45,.13-.11,.83-.75,.86-1.83,0-.04,0-.07,0-.1,.13,.01,.23,.02,.36,0,.81-.08,1.36-.51,1.57-.7-.23-.09-.54-.25-.88-.45,.68-.27,1.68-.56,2.95-.55,.84,0,1.55,.15,2.1,.3Z" fill="#474849"/>
      <path d="M7.9,16.96c-.06,.04-.1,.08-.14,.14-.19,.17-.38,.36-.55,.55l-.08-.12-.87-1.26,.27-.27,1.08,.76,.29,.21Z" fill="#824923"/>
      <path d="M1.66,23.44l-1.39-1.39c.55-.51,1.1-1.04,1.65-1.55,1.29-1.23,2.6-2.5,3.9-3.8l1.18,1.18-.2,.2c-.57,.59-1.15,1.17-1.7,1.76-.66,.68-1.29,1.35-1.93,2.03-.12,.12-.23,.25-.35,.37-.4,.4-.78,.82-1.16,1.21Z" fill="#b6ad90"/>
      <path d="M16.16,8.94c-.45,.41-.88,.82-1.3,1.24-.08,.06-.16,.14-.23,.21-.13,.13-.27,.25-.4,.38-.77,.73-1.53,1.45-2.31,2.21-.28,.26-.55,.53-.83,.81l-1.19-1.19c1.02-1.04,2.02-2.08,3-3.1,.21-.23,.42-.44,.63-.65,.41-.45,.83-.89,1.23-1.31l1.39,1.39Z" fill="#b6ad90"/>
      <path d="M10.71,14.15c-.42,.42-.86,.84-1.27,1.27l-.69-1.17-.18-.3c.14-.14,.28-.28,.41-.43l.55,.19h.02s1.17,.43,1.17,.43Z" fill="#824923"/>
      <path d="M14.62,10.4c-.13,.13-.27,.25-.4,.38-.77,.73-1.53,1.45-2.31,2.21-.28,.26-.55,.53-.83,.81l-.66-.66c.62-.44,1.26-.97,1.8-1.72,.45-.63,1.05-.91,1.7-.99,.22-.04,.46-.04,.69-.03Z" fill="#9b8b5d"/>
      <polygon points="9.11 15.73 8.33 16.51 8 15.84 7.57 14.96 7.82 14.71 8.16 14.97 9.11 15.73" fill="#824923"/>
      <path d="M2.81,22.23c-.12-.42-.2-.88-.17-1.3,.02-.4,.12-.78,.37-1.07,1.06-1.25,2.02-1.07,2.74-1.13,.29-.03,.75-.41,1.18-.94l.07,.07-.2,.2c-.57,.59-1.15,1.17-1.7,1.76-.66,.68-1.29,1.35-1.93,2.03-.12,.12-.23,.25-.35,.37Z" fill="#9b8b5d"/>
      <path d="M1.66,23.44l-1.39-1.39c.55-.51,1.1-1.04,1.65-1.55,.26,.08,.52,.22,.73,.43l.02,.02c.26,.26,.43,.59,.5,.92-.12,.12-.23,.25-.35,.37-.4,.4-.78,.82-1.16,1.21Z" fill="#7a6c48"/>
      <path d="M14.85,10.19c-.08,.06-.16,.14-.23,.21-.13,.13-.27,.25-.4,.38-.08-.12-.17-.23-.29-.35-.09-.11-.2-.22-.32-.34-.25-.23-.49-.43-.72-.58,.21-.23,.42-.44,.63-.65l1.32,1.32Z" fill="#7a6c48"/>
      <path d="M22.6,3.31s.08,3.46,.52,4.03c0,0-4.19-.68-6.1,1.74l5.58-5.77Z" fill="#4c6355"/>
      <path d="M20.53,1.04s-3.46-.08-4.03-.52c0,0,.68,4.19-1.74,6.1L20.53,1.04Z" fill="#4c6355"/>
      <rect x="17.33" y=".52" width="3.19" height="8.68" transform="translate(8.98 -11.96) rotate(45)" fill="#617f73"/>
      <path d="M22.68,3.19c-.3,.68-.7,1.78-.73,3.19-.02,.89,.11,1.65,.25,2.21-.53-.14-1.23-.26-2.05-.25-1.4,.02-2.51,.41-3.17,.71,1.9-1.96,3.8-3.91,5.7-5.87Z" fill="#77968a"/>
      <path d="M20.51,1.03c-.68,.3-1.78,.7-3.19,.73-.89,.02-1.65-.11-2.21-.25,.13,.55,.25,1.24,.25,2.05,0,1.38-.32,2.5-.6,3.22,1.92-1.91,3.84-3.83,5.75-5.74Z" fill="#77968a"/>
      <path d="M18.78,4.86l-.02,.02,.06,.06-2.92,2.92c-.07,.04-.12,.07-.18,.1,.35-.38,1.09-1.28,1.31-2.7,.13-.88,.01-1.64-.1-2.12,.56,.06,1.32,.08,2.16-.07,1.18-.2,2.05-.63,2.62-1.01l-2.87,2.87-.06-.06Z" fill="#8ab2a1"/>
      <path d="M20.72,6.78c-.59-.05-1.34-.05-2.2,.1-1.15,.21-2.02,.63-2.61,.98l2.92-2.92,.06,.06,.02-.02-.06-.06,2.87-2.87c.08-.06,.16-.1,.23-.15-.38,.56-.92,1.52-1.16,2.84-.14,.79-.12,1.49-.07,2.04Z" fill="#7ea591"/>
      <g>
        <g>
          <circle cx="1.33" cy="22.35" r="1.33" fill="#7ea591"/>
          <circle cx="1.33" cy="22.35" r="1.08" fill="#8ab2a1"/>
        </g>
        <path d="M2.23,22.18s-.91-1.21-1.44-.36c0,0,.45-.24,1.44,.36Z" fill="#97bfad"/>
      </g>
      <path d="M18.11,9.36c-.21,.19-.76,.62-1.55,.72-.12,.02-.22,.02-.35,0-.03,0-.06,.02-.09,0-1.1-.04-1.84-.71-1.97-.82-.12-.16-.57-.77-.55-1.64,0,0,0-.02,0-.04s0-.04,0-.06c.06-1.06,.76-1.69,.88-1.81,.13,.33,.35,.83,.73,1.38,.18,.26,.4,.54,.66,.8s.5,.46,.75,.63c.6,.44,1.15,.69,1.5,.83Z" fill="#749180"/>
      <path d="M15.33,12c-.12-.34-.34-.86-.73-1.4-.18-.26-.4-.52-.66-.78-.28-.28-.57-.53-.84-.72-.56-.4-1.07-.61-1.4-.73,.22-.2,.76-.62,1.55-.72,.1-.02,.2-.02,.31,0,0-.02,0,0,.03,0,1.14-.02,1.94,.69,2.07,.82,.12,.16,.52,.72,.54,1.53,0,.03,0,.06,0,.1,0,.03,0,.06,0,.1-.05,1.07-.75,1.7-.88,1.81Z" fill="#607f6d"/>
      <path d="M16.12,10.1c-.41,.41-.98,.58-1.51,.5-.18-.26-.4-.52-.66-.78-.28-.28-.57-.53-.84-.72-.08-.52,.08-1.06,.46-1.45h0s0-.04,.02-.05h0c.43-.44,1.03-.6,1.59-.49,.18,.26,.4,.54,.66,.8s.5,.46,.75,.63c.08,.52-.05,1.05-.4,1.45-.02,.04-.06,.08-.09,.11Z" fill="#4c6355"/>
      <g>
        <g>
          <circle cx="14.87" cy="8.91" r="1.33" fill="#7ea591"/>
          <circle cx="14.87" cy="8.91" r="1.08" fill="#8ab2a1"/>
        </g>
        <path d="M15.77,8.74s-.91-1.21-1.44-.36c0,0,.45-.24,1.44,.36Z" fill="#97bfad"/>
      </g>
      <line x1="18.93" y1="4.82" x2="18.66" y2="5.09" fill="none"/>
      <rect x="21.72" y=".92" width="1.34" height=".8" transform="translate(7.49 -15.45) rotate(45)" fill="#8ab2a1"/>
      <path d="M22.77,3.31l-2.37-2.37c-.21-.21-.21-.55,0-.76l.03-.03c.21-.21,.55-.21,.76,0,.19,.37,.5,.89,1.02,1.41,.49,.49,.99,.79,1.35,.97,.03,.03,.16,.16,.16,.38,0,.14-.05,.27-.16,.38l-.03,.03c-.21,.21-.55,.21-.76,0Z" fill="#7ea591"/>
      <path d="M23.4,.32l-2.07-.02,1.91,1.91,.14,.14s.02-2.04,.02-2.03Z" fill="#96bcab"/>
      <path d="M21.08,2.66s-1.51,2.73-1.28,3.08c0,0-2.54,.87-3.12,1.35,0,0,1.27-2.36,1.19-3.05,0,0,1.04,.08,3.21-1.38Z" fill="#749180"/>
      <path d="M7.9,16.96l-.29-.21-1.08-.76,1.02-1.02,.02-.02,.43,.89,.33,.67c-.15,.15-.3,.3-.43,.45Z" fill="#99582a"/>
      <polygon points="11.09 13.79 10.71 14.15 9.54 13.72 9.52 13.72 8.98 13.53 9.9 12.61 11.09 13.79" fill="#99582a"/>
      <path d="M9.43,15.43c-.12,.1-.22,.2-.33,.31l-.95-.77-.34-.26,.75-.75,.18,.3,.69,1.17Z" fill="#99582a"/>
      <path d="M7.21,17.65l-.22,.22-1.18-1.18c.16-.14,.3-.28,.45-.43l.87,1.26,.08,.12Z" fill="#824923"/>
      <path d="M22.32,3.86s-1.22,2.09-.64,4.05c0,0-1.12-1.22,.64-4.05Z" fill="#8ab2a1"/>
      <path d="M15.3,1.76s.98,1.46,.05,4.06c0,0,1.73-2.31-.05-4.06Z" fill="#8ab2a1"/>
      <path d="M18.4,3.47s-1.11,.05-1.28-.1c0,0,.29,.77,.19,1.16,0,0,0-.74,1.09-1.06Z" fill="#97bfad"/>
      <path d="M20.57,4.52s-.24,1.14-.05,1.98c0,0-.74-.22-1.24,.02,0,0,1.06-.42,1.28-1.99Z" fill="#8ab2a1"/>
      <ellipse cx="18.82" cy="4.96" rx="2.59" ry=".03" transform="translate(2.01 14.76) rotate(-45)" fill="#4c6355"/>
    </g>
  </g>
</svg>