<?xml version="1.0" encoding="UTF-8"?>
<svg id="_Шар_2" data-name="Шар 2" xmlns="http://www.w3.org/2000/svg" viewBox="0 0 24.12 24">
  <g id="Streitkolben">
    <g>
      <path d="M17.15,11.75c.65,1.27,1.47,2.9,1.48,2.92l-.35-3.17c.14-.06,.27-.14,.4-.21,.06,.04,.13,.08,.2,.12,1.2,.78,2.81,1.81,2.83,1.82l-1.91-2.53-.11-.15c.13-.13,.24-.28,.35-.43,1.38,.24,3.06,.53,3.08,.54l-2.54-1.49c.09-.24,.17-.49,.21-.75,1.4-.3,3.32-.71,3.34-.71l-3.32-.53c-.02-.21-.06-.41-.11-.61,1.23-.52,2.64-1.12,2.66-1.12l-3.08,.1c-.11-.19-.23-.37-.37-.54,.42-.68,.94-1.52,1.31-2.11,.28-.46,.49-.79,.5-.8l-.75,.55-1.98,1.48c-.15-.1-.3-.18-.46-.26,.1-1.34,.21-2.88,.22-2.89l-1.19,2.51c-.22-.05-.44-.08-.66-.1-.07-.31-.15-.64-.24-.98t0,0c-.03-.13-.06-.25-.09-.37-.22-.96-.43-1.84-.48-2l-.28,2.13-.07,.55-.1,.75c-.26,.06-.51,.14-.75,.24-.84-1.15-1.9-2.61-1.91-2.62l.91,3.26c-.08,.07-.17,.13-.25,.21-.04,.04-.07,.09-.1,.13-.16-.11-.33-.22-.5-.33-1.07-.67-2.17-1.37-2.18-1.38l1.59,2.11,.44,.58c-.05,.09-.11,.18-.14,.28-1.38-.06-3.04-.13-3.06-.14l2.81,1.2c-.02,.2-.04,.41-.03,.62-.04,0-.07,.02-.11,.02-.68,.15-1.43,.31-2.01,.42-.48,.11-.83,.17-.91,.2h0s1.45,.24,1.45,.24l1.81,.28c.13,.39,.3,.77,.54,1.12l-.31,.31-3.39,3.39-.34,.34c-.25-.17-.45-.25-.51-.18s.01,.27,.18,.51l-.57,.57h0s-1.02,1.02-1.02,1.02h0s-.55,.55-.55,.55h0s-.85,.85-.85,.85h0s-1.2,1.2-1.2,1.2l-.71,.71h0s-1.06,1.06-1.06,1.06c0,0,0,0,0,0l-.93,.93c-.16-.11-.37-.11-.5,.03l-1.2,1.2c-.15,.15-.15,.4,0,.56l.95,.95c.16,.16,.41,.16,.56,0l1.2-1.2c.11-.11,.13-.26,.09-.4l.69-.69s0,0,0,0l1.41-1.41s0,0,0,0l.63-.63,1.46-1.46h0s.28-.28,.28-.28h0s1.19-1.19,1.19-1.19h0s.45-.45,.45-.45h0s.81-.81,.81-.81c.24,.16,.44,.24,.5,.17s-.01-.26-.17-.5l4.04-4.04c.36,.25,.75,.42,1.15,.55,.03,.14,.07,.28,.1,.43h0c.08,.37,.18,.74,.26,1.07,.19,.79,.34,1.44,.37,1.55l.21-1.58,.17-1.26c.19,0,.39,0,.58-.02Z" fill="#21201f"/>
      <g>
        <path d="M22.85,10.4l-4.12-2.39-.65,1.62s4.74,.76,4.77,.77Z" fill="#d14c02"/>
        <path d="M23.14,5.26l-4.76,.21,.32,1.71s4.4-1.92,4.43-1.93Z" fill="#d14c02"/>
        <path d="M18.65,.9l-2.08,4.28,1.66,.53s.41-4.79,.42-4.81Z" fill="#d14c02"/>
        <path d="M18.37,14.41l-.46-4.74-1.69,.41s2.14,4.3,2.15,4.33Z" fill="#d14c02"/>
        <path d="M9.63,5.78l4.39,1.83,.44-1.69s-4.8-.14-4.83-.15Z" fill="#d14c02"/>
        <path d="M12.96,1.09l1.23,4.6,1.6-.68s-2.82-3.89-2.83-3.92Z" fill="#d14c02"/>
        <rect x="8.51" y="11.11" width="7.08" height="1.54" transform="translate(-4.88 12) rotate(-45)" fill="#d14c02"/>
        <rect x=".26" y="17.46" width="10.88" height="1.54" transform="translate(-11.22 9.37) rotate(-45)" fill="#1c1b19"/>
        <rect x="1.21" y="21.59" width=".12" height="1.76" transform="translate(-15.52 7.48) rotate(-45)" fill="#474849"/>
        <rect x="1.22" y="21.33" width=".64" height="1.76" transform="translate(-15.25 7.59) rotate(-45)" fill="#19140e"/>
        <circle cx="16.5" cy="7.44" r="4.16" fill="#d14c02"/>
        <ellipse cx="16.5" cy="7.44" rx="2.81" ry="3.05" transform="translate(-.43 13.84) rotate(-45)" fill="#e85d04"/>
        <path d="M19,6.07l-1.23-1.23,3.06-2.31,.75-.56s-.22,.34-.5,.8c-.75,1.18-2.07,3.3-2.07,3.3Z" fill="#ffba08"/>
        <path d="M23.88,7.48s-2.13,.48-3.52,.79c-.69,.16-1.2,.28-1.2,.28v-1.75l1.26,.18,3.46,.5Z" fill="#ffba08"/>
        <path d="M17.1,4.68h-1.74s.3-2.02,.3-2.02l.08-.55,.3-2.11c.04,.16,.24,1.02,.44,1.97,.03,.12,.06,.23,.09,.36t0,0c.27,1.17,.53,2.34,.53,2.34Z" fill="#ffba08"/>
        <path d="M21.43,12.96s-1.6-1.01-2.77-1.76c-.74-.46-1.32-.82-1.32-.82l1.23-1.23,1.01,1.34,1.85,2.47Z" fill="#ffba08"/>
        <path d="M14.92,5.55l-1.23,1.23-1.32-1.75-1.54-2.06s1.09,.69,2.14,1.34c.99,.64,1.95,1.24,1.95,1.24Z" fill="#ffba08"/>
        <path d="M15.97,14.39c-.03-.11-.17-.75-.35-1.53-.08-.32-.16-.69-.24-1.04h0c-.25-1.09-.49-2.13-.49-2.13h1.74s-.24,1.71-.24,1.71l-.21,1.42-.23,1.56Z" fill="#ffba08"/>
        <path d="M14.04,8.89l-1.01-.14-2.27-.32-1.42-.21h0c.08-.03,.43-.1,.9-.22,.57-.12,1.31-.29,1.99-.44,.96-.22,1.8-.41,1.8-.41v1.74Z" fill="#ffba08"/>
        <polygon points="17.42 8.27 16.55 7.4 17.42 6.54 17.42 8.27" fill="#ffba08"/>
        <polygon points="17.42 8.27 15.69 8.26 16.55 7.4 17.42 8.27" fill="#d14c02"/>
        <polygon points="16.55 7.4 15.69 8.26 15.68 6.53 16.55 7.4" fill="#ffba08"/>
        <polygon points="17.42 6.54 16.55 7.4 15.68 6.53 17.42 6.54" fill="#d14c02"/>
        <rect x="4.13" y="15.86" width="6.34" height="1.54" transform="translate(-9.62 10.04) rotate(-45)" fill="#824923"/>
        <polygon points="8.99 16.04 8.53 16.49 7.11 15.73 8.13 14.71 8.99 16.04" fill="#6b3f20"/>
        <polygon points="6.56 16.28 7.34 17.68 7.07 17.96 5.71 17.13 6.56 16.28" fill="#6b3f20"/>
        <path d="M4.98,20.05l-1.41,1.41c-.28-.43-.56-.89-.83-1.35l1.06-1.06c.36,.34,.75,.69,1.18,1.01Z" fill="#35312c"/>
        <path d="M13.68,6.78l-1.32-1.75c.24-.24,.46-.49,.6-.72,.99,.64,1.95,1.24,1.95,1.24l-1.23,1.23Z" fill="#e85d04"/>
        <path d="M15.65,2.66c.2-.1,.4-.21,.56-.35,.11,.03,.23,.03,.36,.03t0,0c.27,1.17,.53,2.34,.53,2.34h-1.74s.3-2.02,.3-2.02Z" fill="#e85d04"/>
        <path d="M14.04,7.15v1.74l-1.01-.14c-.24-.49-.5-.9-.79-1.19,.96-.22,1.8-.41,1.8-.41Z" fill="#e85d04"/>
        <path d="M19,6.07l-1.23-1.23,3.06-2.31c.09,.07,.17,.16,.24,.24-.75,1.18-2.07,3.3-2.07,3.3Z" fill="#e85d04"/>
        <path d="M19.17,8.55v-1.75l1.26,.18c-.22,.46-.31,.9-.06,1.29-.69,.16-1.2,.28-1.2,.28Z" fill="#e85d04"/>
        <path d="M16.64,9.71l-.24,1.7c-.42-.05-.79,.04-1.02,.41-.25-1.09-.49-2.12-.49-2.12h1.74Z" fill="#e85d04"/>
        <path d="M19.58,10.49c-.34,.23-.69,.48-.92,.71-.74-.46-1.32-.82-1.32-.82l1.23-1.23,1.01,1.34Z" fill="#e85d04"/>
        <path d="M15.97,14.39c-.03-.11-.17-.75-.35-1.53,.17-.09,.37-.13,.57-.03l-.23,1.56Z" fill="#ffba08"/>
        <path d="M10.77,8.43l-1.42-.21h0c.08-.03,.43-.1,.9-.22,.06,.13,.22,.27,.51,.43Z" fill="#fff80b"/>
        <rect x=".42" y="21.16" width="2.08" height="2.48" rx=".37" ry=".37" transform="translate(16.26 5.53) rotate(45)" fill="#e85d04"/>
        <rect x=".7" y="21.49" width="1.52" height="1.81" rx=".37" ry=".37" transform="translate(16.26 5.53) rotate(45)" fill="#ffba08"/>
        <ellipse cx="9.4" cy="14.52" rx=".3" ry="1.24" transform="translate(-7.51 10.9) rotate(-45)" fill="#d14c02"/>
        <path d="M10.25,14.57c-.16-.07-.43-.68-.88-1.09l3.39-3.39c.34,.46,.64,1.01,.26,1.15-.68,.25-1.15-.29-1.26,.18s.57,1.15-.14,1.43c-.72,.29-1.54,.04-1.29,.65s.18,1.19-.07,1.07Z" fill="#e85d04"/>
      </g>
    </g>
  </g>
</svg>