<?xml version="1.0" encoding="UTF-8"?>
<svg id="_Шар_2" data-name="Шар 2" xmlns="http://www.w3.org/2000/svg" viewBox="0 0 23.71 24.22">
  <g id="Streitkolben">
    <g>
      <path d="M17.99,23.2l-.85-3.08c.08-.07,.17-.12,.24-.2,.04-.04,.06-.08,.1-.12,.16,.1,.31,.2,.48,.31,1.02,.63,2.05,1.29,2.06,1.3l-1.49-1.99-.42-.55c.04-.09,.1-.17,.14-.27,1.31,.05,2.88,.11,2.9,.12l-2.66-1.13c.02-.19,.04-.39,.03-.58,.03,0,.07-.01,.1-.02,.65-.14,1.36-.3,1.91-.41,.46-.1,.79-.17,.87-.19h0s-1.37-.22-1.37-.22l-1.72-.26s0,0,0,0c.02,0,.04,0,.06,0,.32-.05,.58-.29,.73-.58,.02,.03,.03,.06,.05,.08,.28,.28,.76,.27,1.06-.03s.32-.78,.03-1.06-.76-.27-1.06,.03c-.04,.04-.06,.08-.09,.13-.21-.31-.62-.48-1-.44,.31-.49,.63-1.01,.88-1.41-.07-.08-.15-.17-.24-.24l-1.93,1.45c-.36-.26-.75-.44-1.15-.57-.03-.13-.06-.27-.1-.4h0c-.08-.35-.16-.7-.24-1.01-.17-.75-.32-1.36-.35-1.47l-.2,1.5-.16,1.2c-.18,0-.37,0-.55,.03-.61-1.21-1.38-2.75-1.39-2.76l.32,3c-.13,.05-.26,.13-.38,.2-.06-.04-.12-.08-.19-.12-1.13-.74-2.66-1.7-2.68-1.72l1.8,2.39,.11,.14c-.13,.13-.23,.27-.33,.41-1.31-.22-2.9-.49-2.91-.5l2.4,1.4c-.09,.23-.16,.47-.2,.71-1.33,.29-3.15,.68-3.17,.68l3.15,.49c.02,.19,.06,.39,.11,.58-1.17,.5-2.51,1.07-2.52,1.08l2.92-.11c.1,.18,.22,.35,.35,.51-.4,.65-.89,1.44-1.25,2.01-.27,.44-.47,.76-.48,.76l.71-.53,1.88-1.41c.14,.1,.29,.17,.43,.25-.1,1.27-.21,2.73-.22,2.74l1.14-2.39c.21,.05,.41,.08,.62,.09,.07,.29,.14,.61,.22,.93t0,0c.03,.13,.05,.23,.09,.35,.2,.91,.4,1.74,.44,1.9l.27-2.03,.07-.53,.1-.72c.24-.06,.48-.13,.71-.23,.79,1.09,1.79,2.46,1.8,2.48Z" fill="#353434"/>
      <path d="M2.82,18.38c.09-.13,.18-.25,.28-.38,.83-1.1,1.81-2.28,2.96-3.5,1.41-1.52,2.78-2.78,4-3.82l.12,.12,.88-.88-.13-.13,.19-.19,.91-.91,.29-.29,1.16-1.16,.17-.17,.68-.68,.33-.33,.87-.87,.31-.31,.91-.91,.28-.28,.13,.13,.84-.84,.08,.08c.13,.13,.35,.13,.5-.02,.45-.45,.59-1.07,.45-1.61,.18-.08,.31-.23,.35-.42,.02-.07,0-.15,0-.22,.17,.21,1.65,.73,2.3,2.01,.43,.84,.56,2.13-.05,2.92-.99,1.28-3.25,.32-3.63,1.12-.69,1.44,5.16,4.63,4.38,6.62-.37,.92-1.97,1.1-1.92,1.34,.07,.3,2.67,.35,3.16-.65,.83-1.7-4.95-5.28-4.14-6.72,.44-.78,2.35,.16,3.19-.88,1.02-1.27-.24-4.67-2.31-5.6-.43-.2-.9-.28-.99-.21-.08-.25-.32-.47-.64-.55-.26-.06-.51,0-.69,.12l-.03,.05c-.54-.16-1.17-.02-1.62,.43l-.02,.02c-.15,.15-.15,.37-.02,.5l.04,.04-.84,.84,.15,.15-.63,.63-.21,.21-.76,.76-.17,.17-.99,.99-.16,.16-.85,.85-.35,.35-.97,.97-.29,.29-.74,.74-.15-.15-.88,.88,.17,.17c-.18,.21-.35,.43-.55,.65-.9,1.06-1.97,2.2-3.2,3.36-1.37,1.31-2.7,2.41-3.9,3.3-.25-.02-.47,.04-.62,.19-.02,.02-.04,.06-.06,.08-.03,.03-.07,.05-.1,.08-.47,.47-.36,1.33,.24,1.94s1.47,.71,1.94,.24c.03-.03,.05-.07,.08-.1,.03-.02,.06-.04,.08-.06,.15-.15,.21-.38,.19-.63ZM17.64,.7c.05-.05,.12-.05,.18-.02-.04,.35,.24,.69,.66,.78,.05,.01,.1,0,.15,0l.06,.06c.06,.06,.05,.15,0,.21l-.56,.56c-.06,.06-.16,.07-.21,0l-.84-.84c-.06-.06-.05-.15,0-.21l.56-.56Z" fill="#353434"/>
    </g>
    <path d="M18.22,15.75c-.34,.05-.65-.11-.82-.34-.3-.4-.21-1.07,.17-1.36,.49-.37,1.4-.06,1.5,.55,.08,.48-.33,1.07-.86,1.16Z" fill="#5042b1"/>
    <path d="M8.35,14.11l3.92,2.27,.62-1.54s-4.52-.72-4.54-.73Z" fill="#5042b1"/>
    <path d="M8.07,19.01l4.53-.2-.31-1.63s-4.19,1.83-4.22,1.84Z" fill="#5042b1"/>
    <path d="M12.35,23.16l1.98-4.08-1.58-.51s-.39,4.56-.4,4.59Z" fill="#5042b1"/>
    <path d="M12.62,10.29l.44,4.51,1.61-.39s-2.04-4.1-2.05-4.12Z" fill="#5042b1"/>
    <path d="M20.94,18.52l-4.19-1.75-.42,1.61s4.57,.13,4.6,.14Z" fill="#5042b1"/>
    <path d="M17.78,22.99l-1.17-4.38-1.53,.65s2.68,3.71,2.69,3.73Z" fill="#5042b1"/>
    <circle cx="14.4" cy="16.94" r="3.96" fill="#4b00ac"/>
    <ellipse cx="14.4" cy="16.94" rx="2.68" ry="2.91" transform="translate(-7.76 15.15) rotate(-45)" fill="#407bb5"/>
    <path d="M12.02,18.24l1.17,1.17-2.91,2.2-.71,.53s.21-.32,.48-.76c.71-1.12,1.97-3.14,1.97-3.14Z" fill="#469ad3"/>
    <path d="M7.37,16.9s2.03-.45,3.35-.75c.65-.16,1.14-.26,1.14-.26v1.67l-1.2-.17-3.29-.48Z" fill="#2f7edd"/>
    <path d="M13.83,19.57h1.66s-.28,1.93-.28,1.93l-.07,.52-.29,2.01c-.04-.16-.23-.98-.42-1.88-.03-.12-.06-.22-.08-.35t0,0c-.26-1.12-.5-2.22-.5-2.22Z" fill="#469ad3"/>
    <path d="M9.71,11.68s1.52,.96,2.64,1.68c.7,.44,1.26,.78,1.26,.78l-1.17,1.17-.96-1.27-1.76-2.36Z" fill="#469ad3"/>
    <path d="M15.91,18.74l1.17-1.17,1.26,1.67,1.46,1.96s-1.03-.65-2.03-1.27c-.94-.61-1.86-1.18-1.86-1.18Z" fill="#2f7edd"/>
    <path d="M14.91,10.31c.02,.11,.17,.71,.33,1.46,.07,.31,.16,.65,.23,.99h0c.24,1.04,.46,2.03,.46,2.03h-1.66s.23-1.63,.23-1.63l.2-1.36,.22-1.49Z" fill="#2f7edd"/>
    <path d="M16.74,15.56l.96,.13,2.16,.31,1.36,.2h0c-.07,.03-.41,.1-.86,.21-.55,.12-1.25,.27-1.89,.42-.92,.21-1.71,.39-1.71,.39v-1.65Z" fill="#2f7edd"/>
    <polygon points="13.52 16.15 14.35 16.97 13.53 17.8 13.52 16.15" fill="#2f7edd"/>
    <polygon points="13.52 16.15 15.17 16.16 14.35 16.97 13.52 16.15" fill="#304572"/>
    <polygon points="14.35 16.97 15.17 16.16 15.18 17.8 14.35 16.97" fill="#2f7edd"/>
    <polygon points="13.53 17.8 14.35 16.97 15.18 17.8 13.53 17.8" fill="#304572"/>
    <path d="M14.68,21.82c.17,.04,.32,.11,.45,.19l-.29,2.01c-.04-.16-.23-.98-.42-1.88,.06-.12,.15-.23,.26-.32Z" fill="#469ad3"/>
    <path d="M17.08,17.56l1.26,1.67c-.23,.23-.44,.47-.57,.69-.94-.61-1.86-1.18-1.86-1.18l1.17-1.17Z" fill="#407bb5"/>
    <path d="M15.21,21.49c-.19,.09-.38,.2-.53,.33-.11-.02-.22-.03-.34-.02t0,0c-.26-1.12-.5-2.22-.5-2.22h1.66s-.28,1.93-.28,1.93Z" fill="#407bb5"/>
    <path d="M16.74,17.21v-1.65l.96,.13c.23,.46,.48,.86,.75,1.13-.92,.21-1.71,.39-1.71,.39Z" fill="#407bb5"/>
    <path d="M12.02,18.24l1.17,1.17-2.91,2.2c-.08-.07-.17-.15-.23-.23,.71-1.12,1.97-3.14,1.97-3.14Z" fill="#407bb5"/>
    <path d="M16.89,15.64l-1.17-1.17,2.91-2.2c.08,.07,.17,.15,.23,.23-.71,1.12-1.97,3.14-1.97,3.14Z" fill="#407bb5"/>
    <path d="M11.86,15.88v1.67l-1.2-.17c.21-.44,.3-.86,.06-1.23,.65-.16,1.14-.26,1.14-.26Z" fill="#407bb5"/>
    <path d="M14.26,14.78l.23-1.62c.4,.05,.75-.04,.97-.39,.24,1.03,.46,2.02,.46,2.02h-1.66Z" fill="#407bb5"/>
    <path d="M11.47,14.03c.32-.22,.65-.45,.88-.68,.7,.44,1.26,.78,1.26,.78l-1.17,1.17-.96-1.27Z" fill="#407bb5"/>
    <path d="M14.91,10.31c.02,.11,.17,.71,.33,1.46-.17,.08-.36,.12-.55,.03l.22-1.49Z" fill="#469ad3"/>
    <path d="M18.67,.73l-.07-.07c-.58-.58-1.57-.54-2.2,.1l-.02,.02c-.15,.15-.15,.37-.02,.5l1.72,1.72c.13,.13,.35,.13,.5-.02,.64-.64,.69-1.65,.1-2.24Zm-.57,1.55c-.06,.06-.16,.07-.21,0l-.83-.83c-.06-.06-.05-.15,0-.21l.56-.56c.06-.06,.16-.07,.21,0l.83,.83c.06,.06,.05,.15,0,.21l-.56,.56Z" fill="#407bb5"/>
    <path d="M20.31,14.61c.07,.3,2.64,.33,3.13-.67,.84-1.69-4.86-5.19-4.05-6.63,.44-.78,2.33,.14,3.17-.9,1.03-1.27-.2-4.63-2.24-5.53-.45-.2-.96-.29-1-.2-.08,.17,1.61,.65,2.3,2.02,.41,.83,.53,2.11-.08,2.89-1,1.27-3.22,.35-3.61,1.15-.7,1.44,5.07,4.54,4.28,6.52-.37,.92-1.97,1.11-1.91,1.35Z" fill="#5042b1"/>
    <ellipse cx="19.55" cy="14.7" rx=".77" ry=".71" transform="translate(-4.67 18.13) rotate(-45)" fill="none" stroke="#5042b1" stroke-miterlimit="10" stroke-width=".5"/>
    <path d="M18.04,.27c.18-.13,.43-.18,.69-.13,.43,.09,.72,.46,.65,.81s-.49,.57-.92,.48-.72-.46-.65-.81" fill="none" stroke="#469ad3" stroke-miterlimit="10" stroke-width=".25"/>
    <ellipse cx="1.36" cy="18.06" rx="1.2" ry="1.51" transform="translate(-12.37 6.25) rotate(-45)" fill="#4b00ac"/>
    <ellipse cx="1.52" cy="17.9" rx=".97" ry="1.51" transform="translate(-12.21 6.32) rotate(-45)" fill="#5042b1"/>
    <polygon points="12.02 8.65 11.11 9.56 10.32 7.69 10.61 7.4 12.02 8.65" fill="#471f15"/>
    <polygon points="13.48 7.19 12.31 8.36 11.58 6.42 11.93 6.08 13.48 7.19" fill="#471f15"/>
    <polygon points="14.33 6.34 13.65 7.02 12.79 5.22 12.94 5.07 14.33 6.34" fill="#5b2806"/>
    <polygon points="15.53 5.14 14.66 6.01 13.93 4.08 14.11 3.9 15.53 5.14" fill="#471f15"/>
    <polygon points="16.76 3.91 15.84 4.82 14.86 3.14 15.08 2.93 16.76 3.91" fill="#5b2806"/>
    <polygon points="14.86 3.14 15.84 4.82 15.53 5.14 14.11 3.9 14.86 3.14" fill="#afa8a8"/>
    <polygon points="13.93 4.08 14.66 6.01 14.33 6.34 12.94 5.07 13.93 4.08" fill="#afa8a8"/>
    <polygon points="12.79 5.22 13.65 7.02 13.48 7.19 11.93 6.08 12.79 5.22" fill="#afa8a8"/>
    <polygon points="11.58 6.42 12.31 8.36 12.02 8.65 10.61 7.4 11.58 6.42" fill="#afa8a8"/>
    <polygon points="17.07 3.6 16.76 3.91 15.08 2.93 15.74 2.27 17.07 3.6" fill="#471f15"/>
    <polygon points="15.84 4.82 15.53 5.14 14.11 3.9 14.86 3.14 15.84 4.82" fill="#471f15"/>
    <polygon points="14.66 6.01 14.33 6.34 12.94 5.07 13.93 4.08 14.66 6.01" fill="#5b2806"/>
    <polygon points="13.65 7.02 13.48 7.19 11.93 6.08 12.79 5.22 13.65 7.02" fill="#471f15"/>
    <polygon points="12.31 8.36 12.02 8.65 10.61 7.4 11.58 6.42 12.31 8.36" fill="#5b2806"/>
    <polygon points="11.11 9.56 10.9 9.77 9.45 8.56 10.32 7.69 11.11 9.56" fill="#5b2806"/>
    <path d="M2.61,18.57c-.25-.08-.7-.23-1.08-.62-.43-.41-.61-.87-.68-1.15,1.26-.93,2.66-2.09,4.12-3.48,1.23-1.16,2.3-2.3,3.2-3.36,.24-.26,.46-.53,.67-.78l1.34,1.34c-1.26,1.06-2.67,2.36-4.14,3.94-1.16,1.23-2.14,2.41-2.97,3.5-.15,.2-.3,.41-.45,.61Z" fill="#5b2806"/>
    <rect x="8.66" y="8.9" width="2.27" height="1.25" transform="translate(9.6 -4.14) rotate(45)" fill="#4b00ac"/>
    <rect x="9.15" y="9.17" width="1.28" height=".71" transform="translate(9.6 -4.14) rotate(45)" fill="#5042b1"/>
    <rect x="15.67" y="1.89" width="2.27" height="1.25" transform="translate(6.7 -11.15) rotate(45)" fill="#4b00ac"/>
    <rect x="15.93" y="2.03" width="1.75" height=".96" transform="translate(6.7 -11.15) rotate(45)" fill="#5042b1"/>
    <path d="M2.61,18.57c-.25-.08-.7-.23-1.08-.62-.43-.41-.61-.87-.68-1.15,1.26-.93,2.66-2.09,4.12-3.48,1.23-1.16,2.3-2.3,3.2-3.36,0,.35-.02,.68-.06,.94-.11,.95-1.93,3.06-2.99,3.7-1.06,.64-1.74,.75-2.03,1.68-.09,.29-.06,.94-.02,1.68-.15,.2-.3,.41-.45,.61Z" fill="#8c400c"/>
  </g>
</svg>