<?xml version="1.0" encoding="UTF-8"?>
<svg id="_Шар_2" data-name="Шар 2" xmlns="http://www.w3.org/2000/svg" viewBox="0 0 23.92 23.57">
  <g id="Streitkolben">
    <g>
      <g>
        <path d="M22.19,8.05c.32,.04,.6,.11,.84,.18-.09-.33-.17-.71-.23-1.14,.48,.18,.87,.41,1.11,.58-.02-.35-.06-.74-.13-1.15-.04-.24-.09-.46-.14-.67l-.38-.17,.31-.24c0-.11-.03-.22-.04-.33l-.29-.04,.26-.19c0-.1-.02-.21-.03-.31l-.22-.06,.21-.17c-.02-.09-.02-.18-.03-.27l-.21-.04,.19-.35c-.04-.54-.05-.93-.05-.93l-.18,.18c.13-.57,.24-.99,.25-1.03,0,0,0,0,0,0,0-.02,.02-.04,.03-.05-.49-.48-.98-.95-1.47-1.43-.24,.14-.5,.3-.77,.47,.26-.17,.52-.33,.76-.46-.04,.01-.42,.1-.95,.21l.12-.11s-.39-.01-.93-.05l-.35,.19-.04-.21c-.09,0-.18,0-.27-.03l-.17,.21-.06-.22c-.1-.02-.21-.02-.31-.03l-.19,.26-.04-.29c-.11,0-.22-.03-.33-.04l-.24,.31-.17-.38c-.21-.05-.43-.1-.67-.14-.41-.07-.8-.11-1.15-.13,.17,.23,.38,.58,.55,1.03-.2-.03-.4-.06-.57-.08-.23-.05-.44-.09-.64-.15,.08,.33,.16,.71,.21,1.15l.67,.09-.63,.23c.02,.09,.02,.19,.03,.29l.57,.05-.57,.42c0,.06,0,.12,0,.18,0,.12,0,.23-.01,.34h.18s.43,.03,.43,.03l-.33,.16-.29,.14c-.02,.15-.03,.3-.06,.43l.51,.04-.55,.27c-.08,.28-.15,.59-.21,.91-.11,.54-.16,1.03-.2,1.49-.05,0-.1,0-.15,0h0s0,0,0,0c-.02,0-.03,0-.05,0,0,0,.02,0,.03,0s.02,0,.03,0c-.16-.14-.79-.67-1.25-1.13-.92-.91-1.26-1.6-1.41-1.53-.12,.06,.04,.57,.11,.8-.08,.05-.03,.32,.11,.7-.08,.15,.04,.69,.33,1.3,0,0,0,0,0,.02,.17,.36,.41,.74,.69,1.07,.06,.07,.13,.15,.2,.23,0,0,.01,.01,.02,.02-.19,.19-.38,.38-.57,.59-.99,1.03-2.01,2.1-3.04,3.15,0,0,0,0,0,0-.05-.02-.1-.01-.14,.01-.04,.04-.06,.1-.03,.16h0s-.8,.8-.8,.8c-.13,.15-.27,.3-.42,.44l-.76,.76-.25,.25-.02,.02-1.04,1.04-.27,.27c-.15,.15-.3,.3-.46,.44l1.23,1.23,.22-.22c.17-.19,.37-.39,.56-.56,.04-.06,.08-.1,.14-.14,.13-.15,.28-.31,.44-.46l.79-.79c.11-.11,.21-.21,.34-.32,.43-.45,.88-.88,1.3-1.3l.23-.22h0c.05,.03,.11,.02,.15-.02,.04-.04,.05-.1,.03-.15h0c.28-.28,.54-.54,.82-.8,.79-.77,1.58-1.52,2.36-2.26h0c.13-.13,.28-.25,.41-.39,.05-.05,.11-.1,.16-.15,0,0,.02,.02,.02,.02,.08,.08,.16,.15,.24,.21,.33,.29,.71,.52,1.07,.69,0,0,.01,0,.02,0,.61,.29,1.15,.41,1.3,.33,.38,.14,.65,.19,.7,.11,.22,.07,.73,.22,.79,.11,.07-.15-.62-.49-1.53-1.41-.45-.46-.98-1.08-1.12-1.25,0-.05,0-.11,0-.17,.01,0,.02-.01,.03-.02,.29,.02,.63,.01,1.01-.04,.12-.02,.25-.04,.38-.07,.3-.06,.57-.14,.8-.22l.16-.71,.14,.65c.12-.03,.26-.06,.42-.08l.26-.6,.15,.54c.12,0,.25-.01,.37-.02l.12-.67,.26,.66s.09,0,.13,0l.06-.14,.31-.66,.27,.84c.16,.02,.31,.03,.46,.06Zm-7.58-1.02s-.02-.02-.03-.03t0,0s.02,.01,.04,.03h-.02Zm2.21,2.21s-.02-.02-.03-.03h0s.02,.02,.03,.03Z" fill="#474849"/>
        <path d="M3.5,21.7c.65-.69,1.3-1.37,1.96-2.07,.57-.62,1.16-1.2,1.74-1.8l.2-.2-.52-.52-.71-.71c-1.33,1.33-2.67,2.62-3.99,3.89,0,0,0,0,0,0-.03,.02-.05,.05-.08,.07-.49-.06-1.01,.09-1.4,.46-.13,.12-.24,.26-.32,.41-.13,.24-.21,.51-.21,.77,0,.27,.05,.53,.19,.76,.06,.12,.14,.24,.25,.34,.63,.63,1.68,.63,2.36,0t.01-.01c.35-.32,.53-.75,.53-1.17,0-.07,0-.15-.02-.22Z" fill="#474849"/>
      </g>
      <g>
        <path d="M1.83,23.22l-1.42-1.42c.56-.53,1.12-1.06,1.69-1.59,1.32-1.27,2.66-2.56,3.99-3.89l1.2,1.2-.2,.2c-.59,.6-1.17,1.19-1.74,1.8-.67,.69-1.32,1.38-1.97,2.08-.12,.12-.23,.26-.35,.38-.4,.4-.8,.83-1.19,1.24Z" fill="#772a23"/>
        <path d="M1.03,22.42l-.62-.62c.56-.53,1.12-1.06,1.69-1.59,1.32-1.27,2.66-2.56,3.99-3.89l.69,.69c-.24,.28-.58,.59-1.05,.86-1.24,.72-1.05,1.34-1.75,2.21-.4,.51-1.83,1.55-2.96,2.34Z" fill="#873430"/>
        <path d="M8.22,16.59c-.06,.04-.1,.08-.14,.14-.19,.17-.39,.37-.56,.56l-.08-.12-.89-1.29,.27-.27,1.1,.77,.3,.21Z" fill="#5e3112"/>
        <path d="M16.66,8.39c-.46,.42-.9,.84-1.33,1.27-.08,.06-.16,.14-.23,.21-.13,.13-.27,.25-.41,.39-.78,.74-1.57,1.49-2.36,2.26-.29,.26-.56,.54-.85,.82l-1.21-1.21c1.04-1.06,2.07-2.13,3.07-3.17,.21-.23,.43-.45,.64-.66,.42-.46,.85-.91,1.26-1.34l1.43,1.43Z" fill="#ffe471"/>
        <path d="M11.09,13.72c-.43,.43-.88,.86-1.3,1.3l-.7-1.19-.18-.31c.14-.14,.29-.29,.42-.44l.56,.19h.02s1.19,.44,1.19,.44Z" fill="#5e3112"/>
        <polygon points="9.45 15.34 8.66 16.13 8.32 15.45 7.88 14.54 8.14 14.29 8.48 14.55 9.45 15.34" fill="#5e3112"/>
        <path d="M1.83,23.22l-1.43-1.43c.56-.52,1.12-1.06,1.69-1.59,.26,.08,.53,.22,.74,.44l.02,.02c.26,.26,.44,.6,.51,.94-.12,.12-.23,.25-.36,.38-.41,.41-.79,.84-1.18,1.24Z" fill="#7a6c48"/>
        <path d="M15.33,9.66c-.08,.06-.16,.14-.23,.21-.13,.13-.27,.25-.41,.39,0-.02-.03-.07-.08-.11-.3-.26-1.04,.28-1.2,.11-.15-.16,.41-.72,.21-1.08-.07-.13-.21-.18-.29-.21,.21-.23,.43-.45,.64-.66l1.35,1.35Z" fill="#e0a838"/>
        <path d="M23.72,7.47c-.37-.27-1.06-.68-2-.79-1.99-.23-3.42,1.09-3.64,1.3l5.17-5.36s0,.38,.04,.92l-.19,.35,.21,.04c0,.09,0,.18,.02,.27l-.21,.17,.22,.06c.01,.1,.02,.21,.03,.3l-.26,.19,.28,.04c0,.11,.03,.22,.04,.33l-.31,.24,.37,.17c.05,.21,.09,.43,.13,.66,.06,.41,.1,.79,.11,1.14Z" fill="#76b5b0"/>
        <path d="M16.25,0c.27,.37,.68,1.06,.79,2,.23,1.99-1.09,3.42-1.3,3.64L21.09,.47s-.38,0-.92-.04l-.35,.19-.04-.21c-.09,0-.18,0-.27-.02l-.17,.21-.06-.22c-.1-.01-.21-.02-.3-.03l-.19,.26-.04-.28c-.11,0-.22-.03-.33-.04l-.24,.31-.17-.37c-.21-.05-.43-.09-.66-.13C16.97,.05,16.59,.01,16.25,0Z" fill="#76b5b0"/>
        <path d="M16.65,8.43c-.48-.47-.96-.94-1.43-1.41,.62-1.05,1.54-2.38,2.88-3.72,1.38-1.38,2.76-2.32,3.83-2.94l1.43,1.39c-.48,.99-1.3,2.39-2.66,3.78-1.48,1.52-3.01,2.41-4.05,2.9Z" fill="#a2ccca"/>
        <path d="M22.85,8.04c-.24-.07-.52-.13-.83-.17-.14-.03-.29-.04-.45-.06l-.26-.82-.32,.65-.07,.14s-.09,0-.13,0l-.25-.64-.12,.66c-.12,0-.25,.01-.37,.02l-.14-.54-.26,.59c-.15,.02-.29,.04-.41,.08l-.13-.64-.17,.7c-.23,.09-.5,.17-.8,.23-.13,.03-.25,.05-.38,.07-.43,.07-.81,.07-1.12,.05,.27-.17,.57-.35,.87-.56,.67-.46,1.39-1.01,2.13-1.68,.35-.3,.71-.64,1.06-1.01,.87-.9,1.58-1.8,2.15-2.61,.17-.25,.33-.49,.48-.72-.04,.11-.71,2.53-.74,3.98-.01,.55,.03,1.04,.03,1.04,.05,.47,.14,.87,.22,1.22Z" fill="#99ddd8"/>
        <path d="M20.79,7.78l-.25-.64-.12,.66c-.12,0-.25,.01-.37,.02l-.14-.54-.26,.59c-.15,.02-.29,.04-.41,.08l-.13-.64-.17,.7c-.23,.09-.5,.17-.8,.23-.13,.03-.25,.05-.38,.07-.09-.13-.17-.3-.25-.51,.67-.46,1.39-1.01,2.13-1.68,.48,.54,1.01,1.05,1.34,1.51l-.07,.14s-.09,0-.13,0Z" fill="#c4e8e7"/>
        <path d="M22.86,2.51c.17-.25,.33-.49,.48-.72-.04,.11-.71,2.53-.74,3.98-.01,.55,.03,1.04,.03,1.04,.05,.47,.14,.87,.22,1.22-.24-.07-.52-.13-.83-.17-.47-1.19-.43-2.06-.43-2.06,.07-1.78,1.07-2.72,1.27-3.3Z" fill="#edf2f2"/>
        <polygon points="22.39 7.31 22.59 7.37 22.42 7.49 22.42 7.7 22.25 7.58 22.06 7.64 22.12 7.45 22 7.28 22.21 7.28 22.33 7.12 22.39 7.31" fill="#fff"/>
        <path d="M15.24,7.07c.04-.49,.11-1.03,.23-1.62,.07-.31,.14-.61,.22-.9l.55-.27-.51-.03c.03-.13,.04-.27,.07-.43l.29-.14,.33-.16h-.42s-.18-.02-.18-.02c0-.11,.01-.22,.01-.33,0-.06,0-.12,0-.17l.56-.42-.56-.04c0-.09,0-.2-.02-.28l.63-.24-.66-.08c-.04-.43-.12-.81-.2-1.14,.2,.05,.4,.09,.63,.14,.2,.03,.42,.06,.65,.09,0,0,.43,.04,.94,.03,.01,0,.03,0,.04,0,1.45-.03,3.96-.65,4.06-.68-.79,.46-1.74,1.09-2.76,1.96-.33,.28-.66,.59-.99,.92-.12,.12-.25,.25-.35,.37-.43,.45-.82,.9-1.15,1.34-.6,.77-1.06,1.5-1.42,2.12Z" fill="#99ddd8"/>
        <path d="M15.83,3.16c.06,.12,.12,.23,.17,.34h-.18c0-.12,.01-.22,.01-.34Z" fill="#c4e8e7"/>
        <path d="M17.81,3.61c-.56-.85-1.1-1.94-1.6-2.68,.2,.03,.42,.06,.65,.09,0,0,.43,.04,.94,.03,.15,.66,.42,1.17,.91,1.13,.19-.01,.33,.04,.44,.15-.33,.28-.66,.59-.99,.92-.12,.12-.25,.25-.35,.37Z" fill="#edf2f2"/>
        <path d="M15.24,7.07c.04-.49,.11-1.03,.23-1.62,.07-.31,.14-.61,.22-.9l.55-.27-.51-.03c.03-.13,.04-.27,.07-.43l.29-.14c.23,.46,.43,.91,.58,1.27-.6,.77-1.06,1.5-1.42,2.12Z" fill="#c4e8e7"/>
        <path d="M19.34,4.22c-.05,.11-.1,.21-.15,.32,.07-.08,.13-.16,.2-.23l-2.99,2.99c-.07,.04-.12,.07-.18,.1,.26-.28,.71-.82,1.03-1.63,.09-.23,.24-.62,.3-1.13,.1-.85-.1-1.56-.28-2,.75-.21,1.37-.34,1.8-.42,.85-.16,1.29-.18,2.03-.4,.54-.15,.96-.33,1.23-.45-1,.96-2,1.91-3,2.87Z" fill="#c4e8e7"/>
        <path d="M21.36,6.47c-.49-.14-1.3-.3-2.29-.19-1.29,.15-2.21,.69-2.67,1l2.99-2.99,.07,.07,.02-.02-.07-.07,2.93-2.93c.08-.06,.16-.11,.24-.16-.2,.25-.45,.64-.65,1.16-.22,.6-.25,1.05-.31,1.78-.05,.55-.13,1.35-.26,2.33Z" fill="#e1f4f3"/>
        <line x1="19.5" y1="4.18" x2="19.22" y2="4.46" fill="none"/>
        <path d="M21.83,1.82s-1.89,2.45-1.82,2.65c0,0-2.12,1.36-2.69,1.88,0,0,1.61-2.11,1.74-2.6,0,0,.75-.24,2.77-1.93Z" fill="#9fc4c2"/>
        <path d="M8.22,16.59l-.3-.21-1.1-.77,1.04-1.04,.02-.02,.44,.91,.34,.68c-.15,.15-.31,.31-.44,.46Z" fill="#3d2718"/>
        <polygon points="11.48 13.35 11.09 13.72 9.9 13.28 9.88 13.28 9.32 13.09 10.27 12.14 11.48 13.35" fill="#3d2718"/>
        <path d="M9.79,15.02c-.12,.1-.22,.2-.34,.32l-.97-.78-.35-.26,.76-.76,.18,.31,.7,1.19Z" fill="#3d2718"/>
        <path d="M7.52,17.29l-.22,.22-1.2-1.2c.16-.14,.31-.29,.46-.44l.89,1.29,.08,.12Z" fill="#5e3112"/>
        <g>
          <path d="M19.32,11.15c-.06,.12-.56-.03-.78-.1-.02,0-.03-.01-.05-.02-.23-.08-.69-.28-1.1-.7-.29-.3-.54-.69-.69-1.21h0s0-.02-.02-.05c-.04-.07-.15-.22-.16-.25,.01-.12,.2-.17,.21-.26,0,0,0-.02,0-.02t0,0c.13,.16,.65,.78,1.09,1.22,.88,.9,1.57,1.23,1.49,1.37Z" fill="#e0a838"/>
          <path d="M13.87,5.82c.45,.44,1.07,.97,1.22,1.1,0,0-.02,0-.02,0s-.02,0-.02,0h0c-.05,.03-.1,.14-.17,.18-.02,.01-.03,.02-.05,.02,0,0-.02,0-.02-.01-.05-.03-.16-.11-.22-.15-.02-.01-.03-.02-.04-.02t0,0c-.51-.15-.9-.39-1.2-.68-.42-.41-.62-.87-.7-1.1,0-.01,0-.02-.01-.04-.07-.22-.22-.73-.1-.78,.15-.07,.48,.61,1.37,1.49Z" fill="#e0a838"/>
          <path d="M18.54,11.05s0,0,0,0c-.05,.07-.32,.03-.69-.1,.02,0,.02-.01,.03-.02,.08-.11-.31-.27-.92-.97-.14-.16-.26-.31-.36-.46,.03-.12,.06-.26,.08-.41,0,0,.02,.02,.02,.03h0c.2,.25,.44,.54,.73,.85,.75,.77,1.17,.97,1.1,1.08Z" fill="#e0bf38"/>
          <path d="M17.88,10.93s-.02,.02-.03,.02c-.15,.08-.68-.03-1.28-.31,.23,.06,.39,.07,.42,0,.02-.03,0-.06-.04-.11h0c-.11-.13-.43-.36-.86-.88-.02-.03-.05-.05-.07-.08,.2,0,.38,.02,.54,.05,.01-.04,.02-.08,.03-.12,.1,.15,.22,.29,.36,.46,.61,.7,1,.86,.92,.97Z" fill="#ffe471"/>
          <path d="M17,10.65c-.04,.06-.19,.05-.42,0,0,0,0,0-.02,0-.35-.17-.72-.39-1.05-.67-.08-.06-.15-.13-.23-.21-.04-.04-.09-.09-.13-.13,.04,0,.08-.01,.13-.01,.27-.03,.52-.03,.75-.03,.02,.03,.04,.05,.07,.08,.43,.51,.75,.75,.86,.88h0c.04,.05,.05,.08,.04,.11Z" fill="#fff7cf"/>
          <path d="M14.55,6.97c-.15,.01-.29,.04-.42,.06-.06-.04-.11-.08-.17-.13-.09-.07-.17-.14-.26-.21-.7-.61-.86-1-.97-.92,0,0-.02,.02-.02,.03-.13-.37-.18-.64-.1-.69,0,0,0,0,0,0,.1-.06,.31,.36,1.08,1.1,.31,.29,.59,.53,.83,.73,.01,.01,.02,.02,.03,.03Z" fill="#e0bf38"/>
          <path d="M14,7.05c.03,.16,.07,.35,.09,.58-.03-.02-.06-.05-.1-.07-.51-.43-.75-.75-.88-.86h0s-.08-.06-.11-.04c-.06,.04-.05,.19,0,.42-.28-.6-.39-1.13-.31-1.28,0-.02,.01-.02,.02-.03,.11-.08,.27,.31,.97,.92,.09,.07,.17,.15,.26,.21,.06,.05,.11,.09,.17,.13-.04,0-.09,.02-.12,.02Z" fill="#ffe471"/>
          <path d="M14.09,8.36c0,.06-.01,.12-.02,.17-.06-.06-.12-.11-.18-.17-.07-.07-.13-.15-.19-.22-.28-.32-.51-.7-.67-1.05,0,0,0-.01,0-.02-.06-.23-.07-.39,0-.42,.03-.02,.06,0,.11,.04h0c.13,.12,.36,.43,.88,.86,.03,.02,.06,.05,.1,.07,.02,.22,.02,.46,0,.73Z" fill="#fff7cf"/>
          <path d="M16.57,7.05l-.77,.78h0l-1.46,1.46h0l-.77,.78c.06-.11,.12-.22,.17-.35h0c.06-.14,.11-.28,.16-.45,.02-.07,.04-.13,.06-.2,.05-.18,.08-.36,.1-.53,0-.06,.01-.12,.02-.17,.02-.27,.02-.51,0-.73-.02-.22-.05-.42-.09-.58,.04,0,.08-.02,.12-.02,.13-.02,.27-.05,.42-.06h.02c.15-.02,.31-.04,.48-.04h0s.03,0,.05,0h0c.19,0,.39,0,.59,0,.11,.01,.22,.02,.32,.03,.2,.02,.38,.06,.55,.09Z" fill="#edf2f2"/>
          <path d="M16.74,8.56c0,.19-.03,.36-.05,.53h0c-.02,.16-.05,.29-.08,.42-.01,.04-.02,.08-.03,.12-.16-.02-.34-.04-.54-.05-.23,0-.48,0-.75,.03-.05,0-.09,0-.13,.01-.17,.02-.36,.05-.55,.1-.09,.02-.18,.04-.27,.07-.17,.04-.32,.1-.46,.15h0c-.12,.05-.21,.08-.31,.13l.77-.78h0l1.46-1.46h0l.77-.78c.04,.16,.08,.34,.11,.54h0c.03,.16,.04,.33,.05,.52,0,.16,0,.31,0,.45Z" fill="#c5d8d7"/>
          <path d="M15.8,7.83l-1.46,1.46c.03-.05,.06-.11,.09-.17h0c.03-.07,.05-.14,.08-.22,.01-.03,.02-.06,.03-.1,.02-.09,.04-.18,.05-.26,0-.03,0-.06,0-.08,.01-.13,0-.25,0-.35,0-.11-.03-.21-.04-.28,.02,0,.04,0,.06-.01,.06-.01,.13-.02,.21-.03,.16-.02,.35-.03,.56-.02,.05,0,.11,0,.16,.02,.1,.01,.19,.03,.27,.04Z" fill="#f9f9f9"/>
          <path d="M15.8,9.08c-.08-.01-.16-.02-.26-.02-.11,0-.23,0-.37,.01-.02,0-.04,0-.06,0-.08,0-.17,.03-.27,.05-.04,0-.09,.02-.13,.03-.08,.02-.16,.05-.22,.08h0c-.06,.02-.1,.04-.15,.06l1.46-1.46c.02,.08,.04,.16,.05,.26h0c.01,.08,.02,.16,.03,.25,0,.18,0,.34-.02,.48-.01,.07-.03,.14-.04,.2,0,.02,0,.04-.01,.06Z" fill="#e1f4f3"/>
          <path d="M16.32,7.25s-.21,.02-1.01,.04c-.9,.02-1.13,.05-1.14,.01,0-.05,.5-.21,1.07-.23,.57-.01,1.08,.13,1.08,.18Z" fill="#f9f9f9"/>
        </g>
        <g>
          <g>
            <path d="M2.85,22.97h-.01c-.68,.64-1.72,.65-2.33,.04-.11-.1-.18-.22-.24-.33-.13-.22-.18-.49-.17-.75,0-.26,.08-.52,.22-.77,.08-.15,.19-.29,.32-.41,.66-.62,1.67-.65,2.29-.08l.05,.05c.3,.3,.44,.69,.42,1.09-.01,.42-.2,.84-.54,1.17Z" fill="#61c1bf"/>
            <path d="M2.85,22.97c-1.64,1.51-3.93-.64-2.28-2.29,1.66-1.51,3.93,.69,2.28,2.29h0Zm0,0c1.56-1.56-.62-3.58-2.15-2.15-1.55,1.52,.57,3.57,2.15,2.15h0Z" fill="#fff"/>
          </g>
          <g>
            <ellipse cx="1.74" cy="21.86" rx="1.18" ry="1.09" transform="translate(-10.91 3.95) rotate(-30.68)" fill="#5ae0d9"/>
            <path d="M.89,22.66c.98,.96,2.6-.54,1.64-1.53-.93-.95-2.62,.49-1.64,1.53H.89Zm0,0c-1.04-1.08,.71-2.72,1.78-1.67,1.06,1.14-.76,2.7-1.78,1.67H.89Z" fill="#f3fffe"/>
          </g>
          <ellipse cx="1.74" cy="21.86" rx=".63" ry=".58" transform="translate(-10.91 3.95) rotate(-30.68)" fill="#8dfff4"/>
        </g>
        <polygon points="22.79 10.03 22.99 10.09 22.82 10.21 22.82 10.41 22.66 10.29 22.46 10.36 22.53 10.16 22.4 9.99 22.61 10 22.73 9.83 22.79 10.03" fill="#fff"/>
        <polygon points="21.11 3.48 21.31 3.54 21.14 3.66 21.14 3.87 20.98 3.75 20.78 3.81 20.85 3.62 20.72 3.45 20.93 3.45 21.05 3.28 21.11 3.48" fill="#fff"/>
        <polygon points="17.98 3.01 18.18 3.07 18.01 3.19 18.01 3.4 17.84 3.27 17.65 3.34 17.71 3.14 17.59 2.98 17.8 2.98 17.92 2.81 17.98 3.01" fill="#fff"/>
        <polygon points="19.33 1.21 19.52 1.27 19.36 1.39 19.36 1.6 19.19 1.47 19 1.54 19.06 1.34 18.94 1.18 19.15 1.18 19.26 1.01 19.33 1.21" fill="#fff"/>
        <polygon points="21.06 5.04 21.26 5.1 21.09 5.22 21.09 5.43 20.92 5.3 20.73 5.37 20.79 5.17 20.67 5.01 20.88 5.01 21 4.84 21.06 5.04" fill="#fff"/>
        <path d="M11.33,13.51l-1.23-1.23c-.02-.06,0-.12,.04-.15,.04-.03,.09-.04,.14-.02,.41,.41,.82,.81,1.23,1.22,.02,.05,0,.11-.03,.15-.04,.04-.09,.05-.14,.03Z" fill="#e0a838"/>
        <ellipse cx="11.91" cy="10.95" rx="1.97" ry=".11" transform="translate(-4.25 11.63) rotate(-45)" fill="#fff7cf"/>
      </g>
    </g>
  </g>
</svg>