<?xml version="1.0" encoding="UTF-8"?>
<svg id="_Шар_2" data-name="Шар 2" xmlns="http://www.w3.org/2000/svg" viewBox="0 0 23.73 22.38">
  <g id="Streitkolben">
    <g>
      <g>
        <polygon points="8.29 16.8 8.25 16.81 8.29 16.83 8.29 16.81 8.29 16.8" fill="#262424"/>
        <polygon points="19.78 16.46 19.82 16.45 19.78 16.44 19.78 16.45 19.78 16.46" fill="#262424"/>
        <polygon points="13.96 22.34 13.94 22.34 13.95 22.38 13.97 22.34 13.96 22.34" fill="#262424"/>
        <path d="M14.65,20.48c.51-.12,1.01-.33,1.46-.64l1.97,.92-1.4-1.4s0,0,0,0l1.4,1.4-.92-1.95c.38-.51,.64-1.08,.76-1.67l1.85-.68v-.03s-1.61-.52-1.61-.52c.07,0,.15,.01,.22,0,.32-.05,.58-.29,.73-.58,.02,.03,.03,.06,.05,.08,.28,.28,.76,.27,1.06-.03s.32-.78,.03-1.06-.76-.27-1.06,.03c-.04,.04-.06,.08-.09,.13-.29-.43-.99-.6-1.4-.29-.08,.06-.14,.15-.2,.24-.05-.09-.09-.18-.15-.27l.91-1.79,.02-.04-.04,.02-1.78,.9c-.51-.38-1.09-.63-1.7-.73l-.58-1.64v-.04s-.03,.04-.03,.04l-.55,1.64c-.72,.1-1.42,.38-2.03,.86l-1.78-.88,1.3,1.3s0,0,0,0l-1.3-1.3,.89,1.79c-.43,.6-.67,1.27-.76,1.95l-1.66,.55v.03s1.67,.59,1.67,.59c.11,.63,.38,1.22,.8,1.73l-.85,1.67-.02,.04,.04-.02,1.71-.86c.53,.34,1.13,.52,1.74,.58l.57,1.79h.03s.68-1.86,.68-1.86Z" fill="#262424"/>
        <path d="M2.81,18.4c.1-.13,.2-.27,.3-.4,.83-1.1,1.81-2.28,2.96-3.5,1.41-1.52,2.78-2.78,4-3.82l.12,.12,.88-.88-.13-.13,.19-.19,.91-.91,.29-.29,1.16-1.16,.17-.17,.68-.68,.33-.33,.87-.87,.31-.31,.91-.91,.28-.28,.13,.13,.84-.84,.08,.08c.13,.13,.35,.13,.5-.02,.45-.45,.59-1.07,.45-1.61,.18-.08,.31-.23,.35-.42,.02-.07,0-.15,0-.22,.17,.21,1.65,.73,2.31,2.02,.43,.84,.56,2.13-.05,2.92-.99,1.28-3.25,.32-3.63,1.12-.69,1.45,5.17,4.64,4.39,6.63-.36,.92-1.97,1.1-1.92,1.34,.07,.3,2.67,.35,3.16-.65,.83-1.7-4.96-5.29-4.15-6.73,.44-.78,2.36,.16,3.2-.88,1.02-1.27-.25-4.68-2.31-5.61-.44-.2-.9-.28-.99-.21-.08-.25-.32-.48-.65-.55-.26-.06-.51,0-.69,.12l-.03,.05c-.54-.16-1.17-.02-1.62,.43l-.02,.02c-.15,.15-.15,.37-.02,.5l.04,.04-.84,.84,.15,.15-.63,.63-.21,.21-.76,.76-.17,.17-.99,.99-.16,.16-.85,.85-.35,.35-.97,.97-.29,.29-.74,.74-.15-.15-.88,.88,.17,.17c-.18,.21-.35,.43-.55,.65-.9,1.06-1.97,2.2-3.2,3.36-1.38,1.32-2.71,2.42-3.93,3.32-.23-.01-.45,.03-.6,.17-.03,.03-.03,.07-.05,.09-.03,.03-.08,.03-.11,.07-.47,.47-.36,1.34,.24,1.94s1.47,.71,1.94,.24c.03-.03,.04-.08,.07-.11,.03-.02,.07-.02,.09-.05,.15-.15,.19-.37,.17-.61ZM17.64,.7c.05-.05,.12-.05,.18-.02-.04,.35,.24,.69,.66,.78,.05,.01,.1,0,.15,0l.06,.06c.06,.06,.05,.15,0,.21l-.56,.56c-.06,.06-.16,.07-.21,0l-.84-.84c-.06-.06-.05-.15,0-.21l.56-.56Z" fill="#262424"/>
      </g>
      <path d="M18.22,15.75c-.34,.05-.65-.11-.82-.34-.3-.4-.21-1.07,.17-1.36,.49-.37,1.4-.06,1.5,.55,.08,.48-.33,1.07-.86,1.16Z" fill="#8f9599"/>
      <path d="M18.67,.73l-.07-.07c-.58-.58-1.57-.54-2.2,.1l-.02,.02c-.15,.15-.15,.37-.02,.5l1.72,1.72c.13,.13,.35,.13,.5-.02,.64-.64,.69-1.65,.1-2.24Zm-.57,1.55c-.06,.06-.16,.07-.21,0l-.83-.83c-.06-.06-.05-.15,0-.21l.56-.56c.06-.06,.16-.07,.21,0l.83,.83c.06,.06,.05,.15,0,.21l-.56,.56Z" fill="#84898c"/>
      <g>
        <polygon points="15.84 18.52 17.88 20.56 16.59 17.76 15.84 18.52" fill="#84898c"/>
        <polygon points="17.88 20.56 15.84 18.52 15.08 19.27 17.88 20.56" fill="#84898c"/>
      </g>
      <g>
        <polygon points="11.96 14.64 9.77 12.45 11.21 15.39 11.96 14.64" fill="#84898c"/>
        <polygon points="9.77 12.45 11.96 14.64 12.71 13.89 9.77 12.45" fill="#84898c"/>
      </g>
      <ellipse cx="13.83" cy="16.4" rx="4.17" ry="3.87" transform="translate(-7.55 14.58) rotate(-45)" fill="#8f9599"/>
      <ellipse cx="13.83" cy="16.4" rx="3.15" ry="2.93" transform="translate(-7.55 14.58) rotate(-45)" fill="#bcc6ce"/>
      <g>
        <polygon points="14.12 10.76 14.12 10.81 14.11 10.81 14.12 10.76" fill="#aeb9c1"/>
        <polygon points="15.18 13.86 14.12 13.86 14.12 13.88 13.04 13.88 14.11 10.81 14.14 10.81 15.18 13.86" fill="#aeb9c1"/>
        <polygon points="14.14 10.81 14.12 10.81 14.12 10.76 14.14 10.81" fill="#aeb9c1"/>
      </g>
      <g>
        <polygon points="8.17 16.74 8.21 16.74 8.21 16.75 8.17 16.74" fill="#aeb9c1"/>
        <polygon points="11.27 15.68 11.27 16.74 11.28 16.74 11.28 17.81 8.21 16.75 8.21 16.72 11.27 15.68" fill="#aeb9c1"/>
        <polygon points="8.21 16.72 8.21 16.74 8.17 16.74 8.21 16.72" fill="#aeb9c1"/>
      </g>
      <g>
        <polygon points="19.63 16.26 19.59 16.26 19.59 16.25 19.63 16.26" fill="#aeb9c1"/>
        <polygon points="16.6 17.4 16.64 16.37 16.63 16.37 16.66 15.33 19.59 16.25 19.59 16.28 16.6 17.4" fill="#aeb9c1"/>
        <polygon points="19.59 16.28 19.59 16.26 19.63 16.26 19.59 16.28" fill="#aeb9c1"/>
      </g>
      <g>
        <polygon points="18.17 12.2 18.14 12.23 18.13 12.22 18.17 12.2" fill="#aeb9c1"/>
        <polygon points="16.68 15.09 15.98 14.39 15.97 14.4 15.26 13.69 18.13 12.22 18.15 12.24 16.68 15.09" fill="#aeb9c1"/>
        <polygon points="18.15 12.24 18.14 12.23 18.17 12.2 18.15 12.24" fill="#aeb9c1"/>
      </g>
      <g>
        <polygon points="9.75 20.73 9.78 20.7 9.79 20.71 9.75 20.73" fill="#aeb9c1"/>
        <polygon points="11.24 17.84 11.94 18.54 11.95 18.53 12.66 19.23 9.79 20.71 9.77 20.69 11.24 17.84" fill="#aeb9c1"/>
        <polygon points="9.77 20.69 9.78 20.7 9.75 20.73 9.77 20.69" fill="#aeb9c1"/>
      </g>
      <g>
        <polygon points="13.77 22.19 13.77 22.15 13.78 22.15 13.77 22.19" fill="#aeb9c1"/>
        <polygon points="12.85 19.24 13.88 19.2 13.88 19.19 14.91 19.15 13.78 22.15 13.75 22.15 12.85 19.24" fill="#aeb9c1"/>
        <polygon points="13.75 22.15 13.77 22.15 13.77 22.19 13.75 22.15" fill="#aeb9c1"/>
      </g>
      <polygon points="14.86 17.03 14.03 16.2 14.92 15.31 14.86 17.03" fill="#ced6db"/>
      <polygon points="14.86 17.03 13.14 17.09 14.03 16.2 14.86 17.03" fill="#8f9599"/>
      <polygon points="14.03 16.2 13.14 17.09 13.2 15.37 14.03 16.2" fill="#ced6db"/>
      <polygon points="14.92 15.31 14.03 16.2 13.2 15.37 14.92 15.31" fill="#8f9599"/>
      <path d="M15.87,17.61c.78-1.19,0-2.77-.12-2.75-.11,.02,.33,1.34-.41,2.49-.67,1.04-1.89,1.26-1.86,1.36,.04,.11,1.67,.02,2.39-1.09Z" fill="#ced6db"/>
      <path d="M20.31,14.61c.07,.3,2.64,.33,3.13-.67,.84-1.69-4.86-5.19-4.05-6.63,.44-.78,2.33,.14,3.17-.9,1.03-1.27-.2-4.63-2.24-5.53-.45-.2-.96-.29-1-.2-.08,.17,1.61,.65,2.3,2.02,.41,.83,.53,2.11-.08,2.89-1,1.27-3.22,.35-3.61,1.15-.7,1.44,5.07,4.54,4.28,6.52-.37,.92-1.97,1.11-1.91,1.35Z" fill="#8f9599"/>
      <ellipse cx="19.55" cy="14.7" rx=".77" ry=".71" transform="translate(-4.67 18.13) rotate(-45)" fill="none" stroke="#8f9599" stroke-miterlimit="10" stroke-width=".24"/>
      <path d="M18.04,.27c.18-.13,.43-.18,.69-.13,.43,.09,.72,.46,.65,.81s-.49,.57-.92,.48-.72-.46-.65-.81" fill="none" stroke="#8f9599" stroke-miterlimit="10" stroke-width=".25"/>
      <g>
        <ellipse cx="1.36" cy="18.06" rx="1.2" ry="1.51" transform="translate(-12.37 6.25) rotate(-45)" fill="#8f9599"/>
        <ellipse cx="1.52" cy="17.9" rx=".97" ry="1.51" transform="translate(-12.21 6.32) rotate(-45)" fill="#84898c"/>
        <polygon points="12.02 8.65 11.11 9.56 10.32 7.69 10.61 7.4 12.02 8.65" fill="#824923"/>
        <polygon points="13.48 7.19 12.31 8.36 11.58 6.43 11.93 6.08 13.48 7.19" fill="#824923"/>
        <polygon points="14.33 6.34 13.65 7.02 12.79 5.22 12.94 5.07 14.33 6.34" fill="#99582a"/>
        <polygon points="15.53 5.14 14.66 6.01 13.93 4.08 14.11 3.9 15.53 5.14" fill="#824923"/>
        <polygon points="16.76 3.91 15.84 4.82 14.86 3.14 15.08 2.93 16.76 3.91" fill="#99582a"/>
        <polygon points="14.86 3.14 15.84 4.82 15.53 5.14 14.11 3.9 14.86 3.14" fill="#afa8a8"/>
        <polygon points="13.93 4.08 14.66 6.01 14.33 6.34 12.94 5.07 13.93 4.08" fill="#afa8a8"/>
        <polygon points="12.79 5.22 13.65 7.02 13.48 7.19 11.93 6.08 12.79 5.22" fill="#afa8a8"/>
        <polygon points="11.58 6.43 12.31 8.36 12.02 8.65 10.61 7.4 11.58 6.43" fill="#afa8a8"/>
        <polygon points="17.07 3.6 16.76 3.91 15.08 2.93 15.74 2.27 17.07 3.6" fill="#824923"/>
        <polygon points="15.84 4.82 15.53 5.14 14.11 3.9 14.86 3.14 15.84 4.82" fill="#824923"/>
        <polygon points="14.66 6.01 14.33 6.34 12.94 5.07 13.93 4.08 14.66 6.01" fill="#99582a"/>
        <polygon points="13.65 7.02 13.48 7.19 11.93 6.08 12.79 5.22 13.65 7.02" fill="#824923"/>
        <polygon points="12.31 8.36 12.02 8.65 10.61 7.4 11.58 6.43 12.31 8.36" fill="#99582a"/>
        <polygon points="11.11 9.56 10.9 9.77 9.45 8.56 10.32 7.69 11.11 9.56" fill="#99582a"/>
        <path d="M2.61,18.57c-.25-.08-.7-.23-1.08-.62-.43-.41-.61-.87-.68-1.15,1.26-.93,2.66-2.09,4.12-3.48,1.23-1.16,2.3-2.3,3.2-3.36,.24-.26,.46-.53,.67-.78l1.34,1.34c-1.26,1.06-2.67,2.36-4.14,3.94-1.16,1.23-2.14,2.41-2.97,3.5-.15,.2-.3,.41-.45,.61Z" fill="#ad5836"/>
        <rect x="8.66" y="8.9" width="2.27" height="1.25" transform="translate(9.6 -4.14) rotate(45)" fill="#8f9599"/>
        <rect x="9.15" y="9.17" width="1.28" height=".71" transform="translate(9.6 -4.14) rotate(45)" fill="#84898c"/>
        <rect x="15.67" y="1.89" width="2.27" height="1.25" transform="translate(6.7 -11.15) rotate(45)" fill="#8f9599"/>
        <rect x="15.93" y="2.03" width="1.75" height=".96" transform="translate(6.7 -11.15) rotate(45)" fill="#84898c"/>
        <path d="M2.61,18.57c-.25-.08-.7-.23-1.08-.62-.43-.41-.61-.87-.68-1.15,1.26-.93,2.66-2.09,4.12-3.48,1.23-1.16,2.3-2.3,3.2-3.36,0,.35-.02,.68-.06,.94-.11,.95-1.93,3.06-2.99,3.7-1.06,.64-1.74,.75-2.03,1.68-.09,.29-.06,.94-.02,1.68-.15,.2-.3,.41-.45,.61Z" fill="#be6439"/>
      </g>
    </g>
  </g>
</svg>