<?xml version="1.0" encoding="UTF-8"?>
<svg id="_Шар_2" data-name="Шар 2" xmlns="http://www.w3.org/2000/svg" viewBox="0 0 24.01 23.93">
  <g id="Streitkolben">
    <g>
      <path d="M18.71,10.53c.54-.1,1.06-.3,1.53-.61l2.14,1.08-1.55-1.55s0,0,0,0l1.55,1.55-1.07-2.12c.38-.53,.62-1.12,.72-1.74l1.93-.63h.04s-.04-.03-.04-.03l-1.94-.7c-.11-.71-.4-1.39-.86-1.99l.12,.12,.31-.31,.26,.26,.65-1.39,.76-1.58h0s.02-.04,.02-.04l-.04,.02h0s-1.26,.6-1.26,.6l-1.73,.82,.3,.3-.3,.3,.03,.03c-.61-.46-1.3-.75-2.01-.86l-.7-1.94-.02-.04v.04s-.65,1.94-.65,1.94c-.62,.1-1.2,.35-1.73,.73l-2.1-1.06,1.53,1.53s0,0,0,0l-1.53-1.53,1.06,2.11c-.33,.5-.54,1.06-.63,1.64l-1.96,.64h-.04s.04,.03,.04,.03l1.97,.72c.04,.22,.1,.43,.17,.65l-.51,.51c-.48,.48-.54,1.22-.18,1.8l-.94,.94-3.09,3.09-.02-.02c-.17-.17-.43-.17-.59-.01s-.15,.42,.01,.59l.02,.02-.38,.38-.15,.15-.58,.58-.21,.21-.59,.59-.19,.19-.48,.48-3.99,3.99-.51,.51h0s-.14-.14-.14-.14c-.2-.2-.51-.2-.7-.01l-.36,.36,2.23,2.23,.37-.37c.18-.18,.17-.48-.01-.66l-.15-.15h0s.51-.52,.51-.52l.32-.32,3.67-3.67,.14-.14,.58-.58,.12-.12,.7-.7,.23-.23,.82-.82c.16,.11,.38,.1,.51-.04s.14-.35,.04-.51l3.1-3.1,.94-.94c.57,.36,1.31,.31,1.78-.17l.54-.54c.26,.09,.52,.15,.78,.18l.69,1.93,.02,.04v-.04s.65-1.94,.65-1.94Z" fill="#282525"/>
      <g>
        <polygon points="8.42 16.48 7.72 17.18 7.14 15.99 6.94 15.58 7.14 15.37 7.49 15.68 8.42 16.48" fill="#824923"/>
        <polygon points="6.36 16.71 7.02 17.88 2.21 22.69 1.02 21.5 6.16 16.35 6.36 16.71" fill="#7c512a"/>
        <polygon points="7.72 17.18 7.59 17.31 6.65 16.44 6.35 16.17 6.94 15.58 7.14 15.99 7.72 17.18" fill="#898149"/>
        <polygon points="8.64 16.26 8.42 16.48 7.49 15.68 7.14 15.37 7.72 14.8 8.01 15.25 8.64 16.26" fill="#898149"/>
        <polygon points="13.39 10.05 12.93 9.59 7.87 14.64 8.43 14.91 9.48 15.42 14.12 10.78 13.39 10.05" fill="#596e7c"/>
        <path d="M7.49,15.68l-.35-.31,.58-.58,.29,.45c-.16,.14-.34,.28-.51,.43Z" fill="#726a39"/>
        <path d="M6.65,16.44l-.3-.28,.59-.59,.21,.41c-.16,.14-.34,.3-.49,.45Z" fill="#726a39"/>
        <path d="M3.2,21.7l-.83,.83-1.19-1.19,4.99-4.99,.2,.36c-.14,.12-.28,.26-.41,.39-1.1,1.08-1.99,2.15-2.22,2.94-.13,.46-.32,1.04-.52,1.66Z" fill="#936639"/>
        <path d="M.4,21.8H2.46c.26,0,.47,.21,.47,.47v.52H-.09v-.5c0-.27,.22-.49,.49-.49Z" transform="translate(16.18 5.52) rotate(45)" fill="#425560"/>
        <rect x="1.66" y="20.84" width=".73" height="1.69" transform="translate(-14.74 7.78) rotate(-45)" fill="#664122"/>
        <rect x="12.3" y="9.85" width="1.43" height="1.69" transform="translate(-3.75 12.34) rotate(-45)" fill="#2d3c44"/>
        <g>
          <polygon points="19.8 8.41 22.02 10.64 20.56 7.65 19.8 8.41" fill="#2d3c44"/>
          <polygon points="22.02 10.64 19.8 8.42 19.03 9.18 22.02 10.64" fill="#2d3c44"/>
        </g>
        <g>
          <polygon points="15.32 3.93 13.09 1.71 14.55 4.7 15.32 3.93" fill="#2d3c44"/>
          <polygon points="13.09 1.71 15.32 3.93 16.08 3.17 13.09 1.71" fill="#2d3c44"/>
        </g>
        <circle cx="17.6" cy="6.11" r="4.23" fill="#475963"/>
        <circle cx="17.6" cy="6.11" r="3.19" fill="#596e7c"/>
        <path d="M12.3,8.31h3.88v.87c0,.8-.65,1.44-1.44,1.44h-.97c-.81,0-1.48-.66-1.48-1.48v-.84h0Z" transform="translate(10.86 -7.3) rotate(45)" fill="#596e7c"/>
        <rect x="13.4" y="8.76" width="1.83" height="1.26" rx=".18" ry=".18" transform="translate(10.83 -7.37) rotate(45)" fill="#6b8a9b"/>
        <g>
          <polygon points="17.51 0 17.51 .04 17.49 .04 17.51 0" fill="#596e7c"/>
          <polygon points="18.58 3.14 17.51 3.14 17.51 3.16 16.42 3.16 17.49 .04 17.52 .04 18.58 3.14" fill="#596e7c"/>
          <polygon points="17.52 .04 17.51 .04 17.51 0 17.52 .04" fill="#596e7c"/>
        </g>
        <g>
          <polygon points="11.47 6.06 11.51 6.06 11.51 6.07 11.47 6.06" fill="#596e7c"/>
          <polygon points="14.61 4.98 14.61 6.06 14.63 6.06 14.63 7.15 11.51 6.07 11.51 6.05 14.61 4.98" fill="#596e7c"/>
          <polygon points="11.51 6.05 11.51 6.06 11.47 6.06 11.51 6.05" fill="#596e7c"/>
        </g>
        <g>
          <polygon points="23.7 6.19 23.66 6.19 23.66 6.17 23.7 6.19" fill="#596e7c"/>
          <polygon points="20.56 7.26 20.56 6.19 20.55 6.19 20.55 5.09 23.66 6.17 23.66 6.2 20.56 7.26" fill="#596e7c"/>
          <polygon points="23.66 6.2 23.66 6.19 23.7 6.19 23.66 6.2" fill="#596e7c"/>
        </g>
        <g>
          <polygon points="17.76 12.2 17.76 12.16 17.77 12.16 17.76 12.2" fill="#596e7c"/>
          <polygon points="16.68 9.06 17.76 9.06 17.76 9.05 18.85 9.05 17.77 12.16 17.74 12.16 16.68 9.06" fill="#596e7c"/>
          <polygon points="17.74 12.16 17.76 12.16 17.76 12.2 17.74 12.16" fill="#596e7c"/>
        </g>
        <polygon points="18.71 6.81 17.8 5.91 18.71 5 18.71 6.81" fill="#637c89"/>
        <polygon points="18.71 6.81 16.9 6.8 17.8 5.91 18.71 6.81" fill="#2d3c44"/>
        <polygon points="17.8 5.91 16.9 6.8 16.9 5 17.8 5.91" fill="#637c89"/>
        <polygon points="18.71 5 17.8 5.91 16.9 5 18.71 5" fill="#2d3c44"/>
        <path d="M19.8,7.46c.77-1.23-.11-2.92-.24-2.9-.12,.02,.4,1.43-.34,2.6-.67,1.06-1.94,1.25-1.9,1.36,.04,.12,1.76,.08,2.48-1.06Z" fill="#637c89"/>
        <polygon points="9.82 15.08 9.48 15.42 8.43 14.91 7.87 14.64 8.62 13.89 9.82 15.08" fill="#824923"/>
        <g>
          <polygon points="8.43 14.91 7.87 14.64 7.72 14.8 7.14 15.37 7.49 15.68 8.42 16.48 8.64 16.26 9.48 15.42 8.43 14.91" fill="#99582a"/>
          <polygon points="6.94 15.58 6.35 16.17 6.16 16.35 6.36 16.71 7.02 17.88 7.59 17.31 7.72 17.18 7.14 15.99 6.94 15.58" fill="#99582a"/>
        </g>
        <polygon points="7.02 17.88 6.87 18.03 5.68 16.83 6.16 16.35 6.36 16.71 7.02 17.88" fill="#824923"/>
        <rect x="20.22" y="2.42" width="1.4" height=".92" transform="translate(8.16 -13.95) rotate(45)" fill="#596e7c"/>
        <g>
          <polygon points="23.11 .66 23.08 .69 23.07 .68 23.11 .66" fill="#6b8a9b"/>
          <polygon points="21.65 3.64 20.89 2.88 20.88 2.9 20.11 2.12 21.82 1.29 23.07 .68 23.09 .7 22.32 2.26 21.65 3.64" fill="#6b8a9b"/>
          <polygon points="23.09 .7 23.08 .69 23.11 .66 23.09 .7" fill="#6b8a9b"/>
        </g>
        <rect x="10.42" y="10.35" width=".3" height="4.35" transform="translate(11.95 -3.81) rotate(45)" fill="#7d9aaa"/>
        <rect x="7.87" y="14.12" width="2.45" height=".81" rx=".41" ry=".41" transform="translate(12.94 -2.18) rotate(45)" fill="#2d3c44"/>
        <polygon points="22.32 2.26 21.59 2.3 21.82 1.29 23.07 .68 23.09 .7 22.32 2.26" fill="#80a3b2"/>
      </g>
    </g>
  </g>
</svg>