<?xml version="1.0" encoding="UTF-8"?>
<svg id="_Шар_2" data-name="Шар 2" xmlns="http://www.w3.org/2000/svg" viewBox="0 0 23.86 24.03">
  <g id="Speer">
    <g>
      <path d="M8.6,15.12l-1.93,1.91,1.93-1.86,.08-.07,1.65-1.6,.04-.04,1.12-1.07,.05-.05,1.94-1.87h.01s2.8-2.71,2.8-2.71l1.32-1.27,.1-.09h0S23.21,1.09,23.21,1.09c0,0,0-.01,.02-.01l.56-.54c-.08,.11-.17,.25-.29,.4-.26,.39-.48,.8-.77,1.17-.34,.5-.96,1.54-1.75,2.82-.78,1.28-1.72,2.79-2.71,4.25h0c-.11,.17-.21,.33-.34,.49-.61,.91-1.26,1.78-1.88,2.53l-.32,.16-1.33,.67-.41,.21,.81-.03,.4-.02c-.31,.34-.67,.67-1,.97l-.04,.04-1.62,.72-.73,.32-.35,.15c.1,0,.41,.02,.79,.03,.13,.01,.27,.02,.42,.02-.31,.24-.64,.49-.97,.71-.11,.02-.2,.06-.3,.07-.83,.23-1.57,.45-1.94,.56h-.01c-.11,.04-.18,.06-.22,.08,.08,.02,.34,.07,.66,.13,.11,.01,.23,.04,.35,.06-.39,.22-.76,.43-1.12,.6-.52,.25-1,.45-1.44,.58-.07,.03-.14,.05-.21,.07,.98,.23,1.48,.43,1.71,.58,.38,.25,.1,.38,.1,.38,0,0-1.61-.7-2.81-.64,.01,.06,.05,.12,.06,.19,.06,.42-.04,.82-.33,1.09h-.01c-.32,.3-.79,.34-1.27,.2l-2.31,2.3-.04-.04-1.67,1.67H0v-2.12l1.06-1.06-.04-.04,.61-.61,1.66-1.66,.06-.06h-.01v-.02s-.05-.1-.05-.15c-.05-.27-.02-.53,.07-.75,.05-.13,.14-.25,.24-.35,.29-.28,.7-.34,1.14-.25,.02,0,.04,.01,.06,.01,0-.01,0-.03,.01-.04,.2-1.22,.81-2.61,2.11-3.41,.02-.02,.05-.04,.07-.05,.01-.02,.03-.05,.04-.07,.23-.38,.48-.77,.75-1.17,.42-.58,.85-1.17,1.33-1.74,.46-.57,.94-1.11,1.46-1.62,.19-.2,.39-.37,.57-.55h.01s.04-.04,.06-.06c.02-.02,.04-.03,.07-.04,.05-.05,.12-.1,.19-.17,.15-.12,.33-.26,.56-.42,.11-.08,.23-.16,.36-.25,0-.01,.01-.01,.01-.01l.11,.78,.02,.11,.17-1.14c.18-.1,.34-.22,.53-.34,.01,0,.01-.01,.02-.01l.07,.83v.1s.52-1.36,.52-1.36c.08-.05,.17-.12,.26-.18,0,0,.01,0,.01-.01,.22-.14,.45-.31,.7-.48,.01-.01,.01-.02,.02-.02l-.04,.64v.15s.41-1.02,.41-1.02c.27-.22,.58-.42,.9-.63,.01-.01,.02-.01,.03-.02l-.02,.54v.14s.47-1,.47-1c.2-.14,.41-.27,.62-.43,.16-.09,.31-.21,.47-.32,.02-.01,.03-.02,.05-.03v.53s.01,.17,.01,.17l.13-.27,.11-.22,.34-.64c.28-.18,.53-.34,.76-.51h.01s.05-.04,.08-.06l-.13,.55-.04,.19,1.23-1.45c1.24-.46,2.17-.98,2.79-1.36,.13-.09,.29-.2,.44-.29h.02s.01-.02,.01-.02c.09-.05,.17-.1,.24-.13,.05-.03,.1-.05,.14-.05l-.05,.05-6.11,6-1.51,1.51-2.78,2.72-.02,.02-1.87,1.85-.05,.05-1.12,1.09-.04,.04-1.65,1.62-.06,.06Z" fill="#474849"/>
      <path d="M15.01,12.99c-.32,.34-.67,.67-1,.97l-.04,.04-1.6,.74-1.06,.49c.13,0,.63,.03,1.18,.03-.32,.24-.64,.49-.97,.71-.11,.03-.2,.07-.29,.08-1.05,.32-1.97,.6-2.14,.67,.11,.03,.54,.09,.99,.17-.38,.22-.75,.43-1.1,.6-1.64,.83-2.97,1.1-3.44,.63-.67-.67,.37-3.23,2.25-5.9,.42-.58,.85-1.17,1.34-1.73,.46-.56,.95-1.1,1.46-1.62,.2-.2,.39-.37,.58-.55,.04-.04,.08-.08,.13-.11,.22-.2,.58-.47,1.12-.85l.11,.87,.2-1.12c.18-.11,.34-.24,.54-.35l.07,.91,.53-1.34c.08-.05,.17-.12,.26-.18,.22-.14,.46-.33,.72-.51l-.07,.77,.43-1.01c.28-.22,.59-.43,.92-.66l-.04,.67,.49-.99c.2-.14,.41-.28,.62-.43,.18-.11,.34-.24,.51-.35v.68s.25-.49,.25-.49l.34-.63c.3-.2,.59-.38,.84-.58l-.18,.74,1.23-1.44c1.22-.49,2.14-1.01,2.76-1.39,.28-.2,.67-.46,.85-.51l-6.16,6.05-1.51,1.51-2.8,2.74-1.88,1.85-1.17,1.14-1.68,1.65-2,1.97,2.01-1.93,1.69-1.64,1.17-1.12,1.93-1.88,2.81-2.71,1.42-1.37L23.67,.44c-.08,.11-.17,.25-.29,.39-.26,.39-.49,.8-.77,1.17-.7,.99-2.52,4.12-4.52,7.01-.11,.16-.21,.32-.34,.47-.62,.91-1.27,1.77-1.89,2.52l-.32,.16-1.72,.91,1.18-.08Z" fill="#c4e8e7"/>
      <path d="M14.09,6.14c.7,.28,1.39,.81,2.01,1.43l-2.8,2.74c-.89-.71-1.69-1.41-2.02-2.1,.22-.2,.58-.47,1.12-.85l.11,.87,.2-1.12c.18-.11,.34-.24,.54-.35l.07,.91,.53-1.34c.08-.05,.17-.12,.26-.18Z" fill="#99ddd8"/>
      <path d="M15.86,12.01l-.32,.16c-.64-.62-1.44-1.21-2.17-1.8l2.81-2.71c.6,.6,1.14,1.27,1.56,1.83-.62,.91-1.27,1.77-1.89,2.52Z" fill="#96d6d3"/>
      <path d="M8.96,17.49c-1.64,.83-2.97,1.1-3.44,.63-.67-.67,.37-3.23,2.25-5.9,.46,.93,.67,1.88,.8,2.75l-2,1.97,2.01-1.93c.14,.99,.18,1.86,.38,2.48Z" fill="#8adbd5"/>
      <path d="M17.93,3.82l.34-.63c.3-.2,.59-.38,.84-.58l-.18,.74,1.23-1.44c1.22-.49,2.14-1.01,2.76-1.39,.28-.2,.67-.46,.85-.51l-6.16,6.05c.01-.77,.13-1.52,.32-2.23Z" fill="#edf2f2"/>
      <path d="M18.1,9.01c-.37-.89-.5-1.81-.49-2.72L23.68,.43c-.08,.11-.17,.25-.29,.39-.26,.39-.49,.8-.77,1.17-.7,.99-2.52,4.12-4.52,7.01Z" fill="#edf2f2"/>
      <path d="M10.57,8.87c.26,1.05,.53,2.21,.85,3.3l-1.17,1.14c-.38-.91-.8-1.88-1.14-2.82,.46-.56,.95-1.1,1.46-1.62Z" fill="#f9f9f9"/>
      <path d="M12.48,15.25c-.32,.24-.64,.49-.97,.71-.11,.03-.2,.07-.29,.08-.2-.77-.56-1.69-.95-2.68l1.17-1.12c.28,.91,.56,1.77,.92,2.5l-1.06,.49c.13,0,.63,.03,1.18,.03Z" fill="#e1f4f3"/>
      <polygon points="6.56 18.14 6.35 18.35 6.33 18.37 6.21 18.49 5.93 18.77 5.12 19.58 4.79 19.92 4.72 19.98 2.46 22.25 .67 24.03 0 24.03 0 21.8 1.01 20.8 1.63 20.17 3.29 18.51 3.34 18.47 3.34 18.46 3.71 18.09 5.11 16.69 5.38 16.96 6.56 18.14" fill="#772a23"/>
      <path d="M7.08,13.37s-2.76,4.16,.03,4.73,1.97,.95,1.97,.95c0,0-3.08-1.3-3.84-.03-.76,1.27-1.33-3.88,1.84-5.66Z" fill="#ffe471"/>
      <path d="M1.61,21.4c-.14,.81-.58,1.7-1.61,2.51v-2.11l1.01-1,.62-.63v.03c.05,.36,.06,.77-.02,1.2Z" fill="#873430"/>
      <rect x="1.82" y="18.71" width="2.16" height="3.3" transform="translate(15.24 3.91) rotate(45)" fill="#ffe471"/>
      <rect x="2.85" y="19.62" width=".49" height="2.43" transform="translate(15.64 3.91) rotate(45)" fill="#e0a838"/>
      <polygon points="14.4 8.11 14.03 8.4 14.19 8.84 13.8 8.58 13.44 8.87 13.56 8.42 13.17 8.16 13.64 8.14 13.77 7.69 13.93 8.13 14.4 8.11" fill="#fff"/>
      <polygon points="13.38 12.11 13.36 12.36 13.59 12.45 13.35 12.51 13.34 12.76 13.2 12.55 12.96 12.61 13.12 12.42 12.99 12.21 13.22 12.3 13.38 12.11" fill="#fff"/>
      <polygon points="19.8 5.44 19.58 5.51 19.58 5.74 19.44 5.56 19.22 5.63 19.36 5.44 19.22 5.25 19.44 5.32 19.58 5.14 19.58 5.37 19.8 5.44" fill="#fff"/>
      <g>
        <g>
          <path d="M5.93,20.25h-.01c-.67,.61-1.88,.43-2.71-.4-.14-.14-.25-.29-.35-.43-.2-.29-.3-.6-.35-.91-.05-.3,0-.6,.11-.85,.07-.16,.17-.3,.3-.42,.66-.6,1.82-.44,2.66,.34l.07,.06c.41,.41,.65,.89,.7,1.35,.07,.49-.07,.95-.41,1.26Z" fill="#61c1bf"/>
          <path d="M5.93,20.25c-1.69,1.41-4.69-1.4-3.09-3.1,1.72-1.43,4.66,1.44,3.09,3.1h0Zm0,0c1.5-1.6-1.36-4.24-2.94-2.94-1.45,1.56,1.33,4.27,2.94,2.94h0Z" fill="#fff"/>
        </g>
        <g>
          <ellipse cx="4.42" cy="18.74" rx="1.14" ry="1.49" transform="translate(-12.58 9.69) rotate(-48.7)" fill="#5ae0d9"/>
          <path d="M3.57,19.51c1.31,1.27,2.96-.07,1.62-1.46-1.31-1.31-2.93,.04-1.62,1.46h0Zm0,0c-1.46-1.52,.37-2.99,1.78-1.62,1.42,1.55-.38,3.03-1.78,1.62h0Z" fill="#f3fffe"/>
        </g>
        <ellipse cx="4.42" cy="18.74" rx=".61" ry=".8" transform="translate(-12.58 9.69) rotate(-48.7)" fill="#8dfff4"/>
      </g>
    </g>
  </g>
</svg>