<?xml version="1.0" encoding="UTF-8"?>
<svg id="_Шар_2" data-name="Шар 2" xmlns="http://www.w3.org/2000/svg" viewBox="0 0 23.33 23.36">
  <g id="Speer">
    <g>
      <g>
        <path d="M21.15,5.01L23.33,.08s-.04,.03-.09,.08c.05-.05,.08-.09,.08-.09l-4.93,2.18-.18,1.46-.11-.11-.13,.13,.24,.24-4.63,4.63v.73s.24,.23,.24,.23h0s.27,.25,.27,.25h.69s4.63-4.64,4.63-4.64l.25,.25,.13-.13-.12-.12,1.47-.18Zm-1.22-1.53c-.18,.18-.34,.34-.48,.49l-.31,.31h0c-.09,.1-.15,.16-.18,.19h0c.1-.11,.48-.48,.98-.98Z" fill="#474849"/>
        <path d="M13.57,8.98s-.04,.02-.06,.04l-.49,.49-.33,.33-.11,.11-.38,.38-.09,.09-.5,.5-.08,.08-.43,.43-.18,.18-.49,.49-.15,.15-.44,.44-.88,.88-.14,.14s0,.01,0,.01l-.44,.1L.04,22.16l.6,.6,.6,.6L9.6,15.01l.08-.37s.04-.02,.05-.04l.14-.14,.94-.94,.08-.08,.03-.03,.46-.46,.15-.15,.59-.59,.09-.09,.34-.34,.17-.17,.44-.44,.16-.16,.46-.46,.16-.16,.49-.49s.05-.05,.05-.09h-.36s-.27-.26-.27-.26l-.25-.23v-.36Z" fill="#474849"/>
      </g>
      <path d="M23.25,0l-4.85,2.26-.22,1.48,.66,.66S23.29,0,23.25,0Z" fill="#d88a55"/>
      <polygon points="19.05 4.19 18.74 2.67 22.2 1.05 19.05 4.19" fill="#ce7f49"/>
      <path d="M23.26,0l-2.26,4.85-1.48,.22-.66-.66S23.26-.04,23.26,0Z" fill="#914e20"/>
      <polygon points="22.2 1.04 20.59 4.51 19.07 4.2 22.2 1.04" fill="#9b5424"/>
      <path d="M13.76,9.5l-4.28,4.28-.22-.24h-.35s0-.02,0-.03l4.54-4.54s.04-.04,.06-.04v.35l.24,.22Z"/>
      <path d="M14.32,9.82l-4.54,4.54s-.04,.04-.06,.04v-.37l-.24-.25,4.28-4.28,.25,.24h.35s-.02,.06-.05,.09Z"/>
      <polygon points="11.28 12.86 10.82 13.32 10.24 12.19 10.39 12.04 11.28 12.86" fill="#dd7547"/>
      <polygon points="12.01 12.12 11.43 12.71 10.88 11.55 11.05 11.38 12.01 12.12" fill="#dd7547"/>
      <polygon points="12.45 11.69 12.1 12.03 11.49 10.95 11.56 10.87 12.45 11.69" fill="#fc9765"/>
      <polygon points="13.05 11.08 12.61 11.52 12.06 10.37 12.15 10.28 13.05 11.08" fill="#dd7547"/>
      <polygon points="13.67 10.47 13.21 10.93 12.53 9.9 12.64 9.79 13.67 10.47" fill="#fc9765"/>
      <path d="M14.32,9.82l-.65,.65-1.03-.68,.82-.82s.04-.04,.06-.04v.35l.24,.22,.25,.24h.35s-.02,.06-.05,.09Z" fill="#5b5431"/>
      <polygon points="12.53 9.9 13.21 10.93 13.05 11.08 12.15 10.28 12.53 9.9" fill="#afa8a8"/>
      <polygon points="12.06 10.37 12.61 11.52 12.45 11.69 11.56 10.87 12.06 10.37" fill="#afa8a8"/>
      <polygon points="11.49 10.95 12.1 12.03 12.01 12.12 11.05 11.38 11.49 10.95" fill="#afa8a8"/>
      <polygon points="10.88 11.55 11.43 12.71 11.28 12.86 10.39 12.04 10.88 11.55" fill="#afa8a8"/>
      <path d="M10.24,12.19l.55,1.15-1.16,1.16s-.04,.04-.06,.04l.02-.39-.23-.26-.21-.24-.37,.02s0-.02,.01-.03l1.46-1.46Z" fill="#5b5431"/>
      <polygon points="9.49 14.9 1.14 23.25 .57 22.69 9.48 13.78 9.71 14.04 9.49 14.9" fill="#726a39"/>
      <polygon points="9.47 13.78 .57 22.69 0 22.12 8.35 13.77 9.26 13.54 9.47 13.78" fill="#898149"/>
      <polygon points="18.85 4.4 13.76 9.5 13.52 9.28 13.55 8.57 18.28 3.83 18.85 4.4" fill="#898149"/>
      <polygon points="19.43 4.96 14.69 9.71 14.01 9.73 13.76 9.5 18.86 4.39 19.43 4.96" fill="#726a39"/>
      <polygon points="13.83 10.31 13.67 10.47 12.64 9.79 12.97 9.46 13.83 10.31" fill="#dd7547"/>
      <polygon points="13.21 10.93 13.05 11.08 12.15 10.28 12.53 9.9 13.21 10.93" fill="#dd7547"/>
      <polygon points="12.61 11.52 12.45 11.69 11.56 10.87 12.06 10.37 12.61 11.52" fill="#fc9765"/>
      <polygon points="12.1 12.03 12.01 12.12 11.05 11.38 11.49 10.95 12.1 12.03" fill="#dd7547"/>
      <polygon points="11.43 12.71 11.28 12.86 10.39 12.04 10.88 11.55 11.43 12.71" fill="#fc9765"/>
      <polygon points="10.82 13.32 10.71 13.42 9.8 12.63 10.24 12.19 10.82 13.32" fill="#fc9765"/>
      <rect x="17.68" y="4.35" width="2.26" height=".18" transform="translate(8.65 -12) rotate(45)" fill="#5b5431"/>
    </g>
  </g>
</svg>