<?xml version="1.0" encoding="UTF-8"?>
<svg id="_Шар_2" data-name="Шар 2" xmlns="http://www.w3.org/2000/svg" viewBox="0 0 23.92 23.89">
  <g id="Speer">
    <g>
      <g>
        <path d="M18.07,6.73c1.08-1.57,2.16-3.14,3.24-4.71-.02,.01-.04,.03-.06,.05-.06,.03-.12,.07-.18,.1h-.01c-.11,.07-.23,.12-.34,.18-.02,.01-.04,.02-.05,.04-1.53,.81-3.06,1.63-4.59,2.46l-.59,.59-.07-.07-.38-.37s0-.01-.02-.01l-1.37,1.38-.02,.02-.02-.02s-.03-.01-.06-.04c-.01-.01-.03-.02-.05-.04-.06-.05-.19-.15-.31-.27-.03-.03-.05-.06-.07-.09-.29-.38-.42-.8-.46-.97l-.31-1.96s-.03-.02-.05-.02C10.11,1.98,7.92,.99,5.73,0h0s3.08,6.37,3.08,6.37l.02,.04,2.03,.3c.2,.05,.61,.17,1.01,.48,.03,.02,.07,.05,.1,.08,.03,.03,.06,.05,.08,.08,.08,.07,.14,.15,.19,.21,.02,.01,.03,.02,.05,.04,.02,.03,.04,.06,.06,.08v.02s-1.44,1.45-1.44,1.45l.36,.36,.05,.06,.02,.02-4.78,4.78-.07-.07h-.01l-.48-.48-1.39,1.39,.46,.47h.01s.07,.08,.07,.08c-.79,1.06-1.68,2.18-2.74,3.32-.82,.9-1.62,1.7-2.41,2.42v2.39H.67c.9-1.06,1.96-2.18,3.17-3.31,1.15-1.07,2.28-2,3.34-2.8l.38,.39,.1,.1,1.39-1.4-.09-.09-.45-.46,3.82-3.82,.41,.41,.1,.09,.71-.7,.24-.25s.01-.01,.02-.01l2.76-2.77h.01s1.91-1.92,1.91-1.92l.02-.02,.08-.08-.1-.1-.42-.42Z" fill="#474849"/>
        <path d="M23.92,11.95c-1.18-.67-2.46-1.56-3.7-2.73-.67-.63-1.24-1.26-1.72-1.89l-1.93,1.93-3.03,3.03c1.34-.67,2.68-.7,3.43,.07,1.1,1.09,.56,3.42-1.21,5.19-.72,.72-1.52,1.22-2.3,1.5-.95,1.23-1.89,2.44-2.83,3.68,.12-.06,.25-.11,.37-.18,.01-.01,.02-.02,.04-.03,2.18-1.02,5.7-3,9.29-6.52,1.48-1.45,2.66-2.86,3.57-4.06Z" fill="#474849"/>
      </g>
      <g>
        <path d="M5.73,0l3.06,6.36,2.01,.29,.9-.87S5.73-.05,5.73,0Z" fill="#ced6db"/>
        <path d="M11.41,5.49c-.69,.14-1.38,.28-2.07,.43-.73-1.51-1.45-3.02-2.18-4.53l4.25,4.1Z" fill="#bcc6ce"/>
        <path d="M5.73,0c2.19,.98,4.38,1.97,6.57,2.95l.3,1.95-.9,.87C9.71,3.85,7.72,1.92,5.73,0Z" fill="#ced6db"/>
        <path d="M7.17,1.38c1.55,.7,3.11,1.4,4.66,2.1-.14,.67-.28,1.33-.42,2-1.41-1.37-2.83-2.73-4.24-4.1Z" fill="#aeb9c1"/>
        <path d="M13.82,6.48c.08,.04,.15,.06,.21,.09-.27,.11-.57,.32-.84,.59l-.02,.02c-.58-.57-1.19-1.13-1.77-1.7h0c.13-.14,.36-.34,.7-.48,.19-.07,.35-.1,.49-.12,.05,.19,.21,.72,.59,1.13,.16,.16,.34,.29,.35,.29,.08,.06,.16,.12,.28,.18Z" fill="#84898c"/>
        <path d="M11.41,5.48l1.76,1.71c-.28,.27-.49,.55-.61,.82h0s0,.03-.02,.05c-.04-.09-.1-.22-.19-.35,0,0-.14-.23-.36-.43-.45-.42-.95-.57-1.18-.62,.03-.12,.07-.29,.14-.45,.13-.33,.33-.56,.46-.7h0Z" fill="#8f9599"/>
        <g>
          <path d="M8.23,16.86c-.37,.26-.75,.53-1.14,.83-1.06,.79-2.18,1.72-3.34,2.8-1.24,1.17-2.32,2.32-3.25,3.4H0v-2.54c.76-.7,1.55-1.48,2.34-2.35,1.05-1.14,1.96-2.27,2.73-3.32h.01c.26-.36,.51-.71,.75-1.05,.03-.04,.04-.08,.07-.1,.31,.13,.86,.37,1.37,.88h.01c.55,.54,.82,1.11,.95,1.45Z" fill="#ad5836"/>
          <path d="M6.13,16.73h0c0,.35-.05,.63-.17,.78-.62,.82-3.06,.81-3.16,1.93-.06,.83-.22,2.04-2.8,3.37v-1.46c.76-.7,1.55-1.48,2.34-2.35,1.05-1.14,1.96-2.27,2.73-3.32h.01c.26-.36,.51-.71,.75-1.05,.15,.68,.27,1.39,.29,1.95,.01,.05,.01,.1,.01,.15Z" fill="#be6439"/>
        </g>
        <path d="M15.92,8.73l-3.05,3.05s-.09-.01-.13,0c.11-.14,.22-.28,.34-.42,.29-.34,.59-.67,.9-.97,.64-.64,1.29-1.19,1.95-1.67Z" fill="#7d8489"/>
        <path d="M21.38,13.07c-.91,1.2-2.1,2.61-3.57,4.06-2.47,2.41-4.91,4.11-6.88,5.26-.02,.01-.03,.02-.04,.03-.12,.06-.25,.11-.37,.18,.94-1.24,1.88-2.45,2.83-3.67,.78-.28,1.58-.79,2.29-1.51,1.76-1.76,2.31-4.09,1.22-5.17-.75-.76-2.08-.73-3.42-.05l3.03-3.03c.08,.1,.19,.21,.28,.3,.17,.17,.34,.33,.52,.47l.43,.44c1.22,1.17,2.5,2.04,3.67,2.7Z" fill="#ced6db"/>
        <path d="M23.78,11.8c-.91,1.2-2.09,2.61-3.57,4.06-3.59,3.52-7.11,5.5-9.28,6.53,1.97-1.15,4.41-2.85,6.88-5.26,1.47-1.45,2.66-2.85,3.57-4.06-1.17-.65-2.45-1.53-3.67-2.7l-.43-.44c-.18-.13-.35-.3-.52-.47-.09-.09-.2-.2-.28-.3l1.93-1.93c.48,.62,1.04,1.25,1.7,1.87,1.22,1.16,2.49,2.03,3.66,2.7Z" fill="#dde5e8"/>
        <path d="M15.44,5.39l-4.12,4.18-.48-.49,2.65-2.69,1.46-1.47s.05,.04,.08,.06l.41,.42Z" fill="#a6aeb2"/>
        <path d="M18.84,3.87L7.45,15.26l-.97-.97L16,4.78l5.19-2.81c-.78,.64-1.57,1.27-2.35,1.91Z" fill="#bcc6ce"/>
        <path d="M21.23,1.93c-1.1,1.59-2.19,3.18-3.29,4.78l-.13-.13-3.66,3.66-.31,.31-1.52,1.52,.13,.13-4.03,4.03-.97-.97L18.84,3.87c.8-.65,1.59-1.29,2.39-1.94Z" fill="#aeb9c1"/>
        <polygon points="7.45 15.26 6.05 16.65 5.08 15.69 4.54 15.15 5.93 13.75 6.48 14.3 7.45 15.26" fill="#8f9599"/>
        <polygon points="8.96 16.78 7.56 18.17 6.05 16.65 7.45 15.26 8.42 16.23 8.96 16.78" fill="#84898c"/>
        <rect x="14.84" y="5.64" width=".9" height="8.14" transform="translate(11.35 -7.97) rotate(45)" fill="#a6aeb2"/>
      </g>
    </g>
  </g>
</svg>