<?xml version="1.0" encoding="UTF-8"?>
<svg id="_Шар_2" data-name="Шар 2" xmlns="http://www.w3.org/2000/svg" viewBox="0 0 24.05 23.81">
  <g id="Speer">
    <g>
      <path d="M6.88,18.42l-.34,.35h-.02s-1.48,1.49-1.48,1.49l-.08,.09h-.01l-1.14,1.15s-.01,.01-.02,.01l-2.29,2.29H0v-1.35l3.64-3.64,.43-.42,.6-.61,.42-.42h.02s.34-.36,.34-.36l1.43,1.43Z" fill="#1c1b19"/>
      <path d="M11.64,13.18L23.57,1.25c-.09,1.25-.18,2.49-.25,3.71-.01,.18-.02,.32-.04,.5-.61,.67-1.25,1.35-1.85,2.03l-1.97,.41,.64,1.1c-.22,.21-.4,.4-.57,.6l-1.32,.02,.3,1.12c-.34,.34-.67,.71-.97,1.06l-1.86-.12,.6,1.49c-1.86,2.05-3.73,4.11-5.59,6.16-.02-.14-.01-.28-.01-.4-.02-.58-.21-1.19-.52-1.78-.48,.13-1,.14-1.49,.01-.05-.01-.09-.04-.14-.05-.08-.02-.17-.06-.26-.11-.06-.02-.11-.05-.15-.07-.2-.12-.39-.25-.57-.42-.24-.24-.4-.5-.53-.78-.02-.06-.05-.12-.07-.19-.01-.04-.02-.06-.04-.09-.01-.07-.04-.14-.05-.21-.12-.58-.05-1.19,.21-1.75h.01c-.25-.24-.47-.44-.64-.57-.09-.09-.15-.15-.24-.18,.04-.02,.08-.07,.11-.07,.11-.11,.25-.21,.35-.32,2.2-2.03,4.39-4.04,6.57-6.04l1.37-.3-.81-.21c.22-.19,.44-.39,.65-.59l1.38-.12-.67-.53c.3-.26,.58-.53,.87-.79l1.18,.02-.52-.63c1.06-.97,2.12-1.95,3.19-2.92,1.35-.09,2.67-.15,3.98-.25,.06,0,.14-.01,.2-.01L11.34,12.71c.14,.14,.2,.32,.3,.47Z" fill="#e85d04"/>
      <rect x="5.8" y="15.16" width="2.63" height="3.35" transform="translate(13.99 -.1) rotate(45)" fill="#e85d04"/>
      <path d="M23.85,.01c-.92,.79-1.95,1.66-2.3,1.92-.65,.51-1.66,.12-4.08,3.02-2.44,2.89-4.65,2.15-5.3,4.05-.63,1.88-1.92,2.21-2.99,2.5-.47,.13-1.55,.46-2.51,.85,2.2-2.03,4.39-4.04,6.57-6.04l1.37-.3-.81-.21c.22-.19,.44-.39,.65-.59l1.38-.12-.67-.53c.3-.26,.58-.53,.87-.79l1.18,.02-.52-.63c1.06-.97,2.12-1.95,3.19-2.92,1.35-.09,2.67-.15,3.98-.25Z" fill="#ffba08"/>
      <path d="M10.68,19.34c-.02-.14,0-.28,0-.41-.03-.58-.21-1.2-.53-1.78-.89,.25-1.89,.07-2.6-.64-.82-.82-.94-2.01-.48-3.02,1.08,.46,2.38,1.28,2.62,.29,.43-1.65,1.54,.8,2.31,1.12,.77,.32,2.48-1.23,2.27-2.91-.18-1.68,1.65-1.01,2.56-1.76,.89-.73,.48-1.57,.48-1.57,0,0,2.64-.79,3.52-2.43,.43-.85,1.54-1.16,2.49-1.27-.01,.17-.02,.31-.04,.48-.61,.68-1.25,1.35-1.85,2.04l-1.98,.41,.64,1.1c-.21,.21-.4,.4-.57,.6l-1.31,.03,.29,1.12c-.34,.34-.67,.71-.96,1.06l-1.87-.12,.6,1.49c-1.86,2.06-3.73,4.11-5.59,6.17Z" fill="#d14c02"/>
      <path d="M0,22.45H0s.47-.47,.47-.47c.02,.2,.04,.42,.05,.66,.02,.37,.01,.76-.03,1.16h-.49v-1.35Z" fill="#35312c"/>
      <path d="M4.96,20.35l-1.15,1.15s-.01,.01-.02,.01c-.71,.43-1.84,1.05-2.52,1.07-.21,0-.47,.02-.75,.06-.17,.03-.34,.06-.52,.1v-.3l.92-.92c.99-.12,2.46-.35,2.96-.8,.31-.26,.69-.36,1.07-.38h.01Z" fill="#35312c"/>
      <g>
        <path d="M6.71,23.1c.02-.18,.28-2.51-1.6-4.33-1.8-1.74-4-1.5-4.21-1.47l1.61-1.61c.63,.17,2.19,.67,3.64,2.11,1.49,1.47,2,3.07,2.17,3.7l-1.61,1.61Z" fill="#d14c02"/>
        <path d="M6.24,23.5c.02-.18,.28-2.51-1.6-4.33-1.8-1.74-4-1.5-4.21-1.47l1.61-1.61c.63,.17,2.19,.67,3.64,2.11,1.49,1.47,2,3.07,2.17,3.7l-1.61,1.61Z" fill="#c14305"/>
      </g>
    </g>
  </g>
</svg>