<?xml version="1.0" encoding="UTF-8"?>
<svg id="_Шар_2" data-name="Шар 2" xmlns="http://www.w3.org/2000/svg" viewBox="0 0 23.44 23.58">
  <g id="Speer">
    <g>
      <path d="M4.32,20.12c.98-1.05,1.93-1.93,2.79-2.64l.09,.09,.61-.61-.09-.09,.14-.14,.63-.63,.2-.2,.81-.81,.12-.12,.47-.47,.23-.23,.61-.61,.22-.22,.63-.63,.2-.2,.09,.09,.61-.61-.09-.09c.7-.85,1.56-1.8,2.59-2.77,1.02-.96,2-1.75,2.87-2.4-.02-.06-.07-.16-.1-.25,.04,.07,.09,.13,.12,.2,.03-.05,.04-.11,.07-.17,.04-.09,.1-.16,.14-.22,0-.02,.11-.15,.24-.29,.33-.3,.77-.42,.94-.46h0s1.66-.19,1.66-.19c.78-1.79,1.56-3.57,2.34-5.36-.01,.01-.03,.03-.04,.04,.02-.02,.04-.04,.04-.04l-5.35,2.35-.19,1.66h0c-.04,.2-.16,.6-.5,.95-.16,.18-.35,.29-.35,.29-.11,.08-.22,.12-.3,.15t.03,.02h0c.05,.03,.1,.07,.15,.1-.08-.03-.16-.07-.22-.09-.63,.87-1.41,1.85-2.35,2.87-.98,1.05-1.92,1.92-2.78,2.63l-.13-.13-.61,.61,.11,.11-.44,.44-.15,.15-.53,.53-.12,.12-.69,.69-.11,.11-.59,.59-.24,.24-.67,.67-.2,.2-.51,.51-.11-.11-.61,.61,.13,.13c-.7,.85-1.56,1.8-2.6,2.78-.99,.94-1.94,1.71-2.8,2.34-.18,0-.35,.05-.47,.17-.32,.32-.23,.94,.21,1.38s1.06,.53,1.38,.21c.12-.12,.17-.29,.18-.47,.62-.86,1.38-1.81,2.3-2.8ZM18.91,4.63s0,0,0,0h0s0,0,0,0h0Zm1.52-1.51c-.51,.51-1.01,1.01-1.52,1.52h0c.45-.46,.91-.91,1.36-1.36,.05-.05,.11-.11,.16-.16Z" fill="#474849"/>
      <ellipse cx=".95" cy="22.49" rx=".83" ry="1.05" transform="translate(-15.63 7.26) rotate(-45)" fill="#8f9599"/>
      <ellipse cx="1.06" cy="22.38" rx=".67" ry="1.05" transform="translate(-15.51 7.3) rotate(-45)" fill="#84898c"/>
      <path d="M23.34,0l-5.25,2.45-.24,1.61,.72,.72S23.39,0,23.34,0Z" fill="#ced6db"/>
      <path d="M18.81,4.54c-.12-.55-.23-1.1-.35-1.66,1.25-.58,2.5-1.16,3.74-1.74l-3.39,3.4Z" fill="#bcc6ce"/>
      <path d="M23.34,0c-.81,1.75-1.62,3.5-2.44,5.26l-1.61,.24-.72-.72L23.34,0Z" fill="#ced6db"/>
      <path d="M22.2,1.15c-.58,1.24-1.16,2.49-1.73,3.73-.55-.11-1.1-.23-1.65-.34,1.13-1.13,2.26-2.26,3.39-3.39Z" fill="#aeb9c1"/>
      <polygon points="8.34 15.96 7.71 16.59 7.16 15.29 7.36 15.09 8.34 15.96" fill="#824923"/>
      <polygon points="9.35 14.95 8.54 15.76 8.04 14.42 8.28 14.17 9.35 14.95" fill="#824923"/>
      <polygon points="9.94 14.36 9.47 14.83 8.87 13.58 8.98 13.47 9.94 14.36" fill="#99582a"/>
      <polygon points="10.78 13.52 10.17 14.13 9.67 12.79 9.79 12.67 10.78 13.52" fill="#824923"/>
      <polygon points="11.63 12.67 10.99 13.31 10.31 12.14 10.46 11.99 11.63 12.67" fill="#99582a"/>
      <polygon points="10.31 12.14 10.99 13.31 10.78 13.52 9.79 12.67 10.31 12.14" fill="#afa8a8"/>
      <polygon points="9.67 12.79 10.17 14.13 9.94 14.36 8.98 13.47 9.67 12.79" fill="#afa8a8"/>
      <polygon points="8.87 13.58 9.47 14.83 9.35 14.95 8.28 14.17 8.87 13.58" fill="#afa8a8"/>
      <polygon points="8.04 14.42 8.54 15.76 8.34 15.96 7.36 15.09 8.04 14.42" fill="#afa8a8"/>
      <polygon points="11.84 12.46 11.63 12.67 10.46 11.99 10.92 11.53 11.84 12.46" fill="#824923"/>
      <polygon points="10.99 13.31 10.78 13.52 9.79 12.67 10.31 12.14 10.99 13.31" fill="#824923"/>
      <polygon points="10.17 14.13 9.94 14.36 8.98 13.47 9.67 12.79 10.17 14.13" fill="#99582a"/>
      <polygon points="9.47 14.83 9.35 14.95 8.28 14.17 8.87 13.58 9.47 14.83" fill="#824923"/>
      <polygon points="8.54 15.76 8.34 15.96 7.36 15.09 8.04 14.42 8.54 15.76" fill="#99582a"/>
      <polygon points="7.71 16.59 7.56 16.74 6.56 15.9 7.16 15.29 7.71 16.59" fill="#99582a"/>
      <path d="M17.99,6.47c-.03,.06-.05,.12-.08,.17-.09-.21-.27-.45-.49-.67l-.02-.02c.47-.47,.93-.95,1.4-1.42h0c.11,.11,.28,.3,.39,.57,.06,.15,.08,.28,.1,.39-.16,.04-.6,.17-.93,.48-.13,.13-.24,.27-.24,.28-.05,.06-.1,.13-.15,.22Z" fill="#84898c"/>
      <path d="M18.81,4.54l-1.41,1.41c-.22-.22-.45-.39-.67-.49h0s-.02,0-.03-.02c.08-.03,.18-.08,.29-.15,0,0,.19-.11,.35-.29,.34-.36,.47-.76,.51-.94,.1,.02,.24,.05,.38,.11,.28,.11,.46,.26,.58,.37h0Z" fill="#8f9599"/>
      <path d="M12.35,11.97l-.93-.93c.88-.73,1.86-1.63,2.88-2.73,.93-.99,1.7-1.95,2.33-2.79,.02-.02,.03-.05,.05-.06,.18,.05,.48,.16,.75,.43,.29,.28,.41,.6,.47,.79-.87,.65-1.84,1.46-2.86,2.41-1.06,1.02-1.97,2-2.69,2.87Z" fill="#ad5836"/>
      <path d="M1.81,22.84c-.18-.05-.48-.16-.75-.43-.3-.28-.42-.61-.48-.8,.87-.64,1.85-1.45,2.86-2.41,.85-.8,1.59-1.59,2.22-2.33,.17-.18,.32-.37,.47-.54l.93,.93c-.87,.74-1.85,1.64-2.87,2.73-.8,.85-1.49,1.67-2.06,2.43-.11,.14-.21,.28-.31,.42Z" fill="#ad5836"/>
      <rect x="6.01" y="16.13" width="1.57" height=".86" transform="translate(13.7 .04) rotate(45)" fill="#8f9599"/>
      <rect x="6.35" y="16.32" width=".89" height=".49" transform="translate(13.7 .04) rotate(45)" fill="#84898c"/>
      <path d="M14.55,8.55c-.11,.58-.32,1.49-2.91,2.71l-.21-.21c.88-.73,1.86-1.63,2.88-2.73,.93-.99,1.7-1.95,2.33-2.79,.08,.69,.11,1.42-.11,1.69-.41,.52-1.85,.67-1.98,1.33Z" fill="#be6439"/>
      <rect x="10.87" y="11.27" width="1.57" height=".86" transform="translate(11.69 -4.82) rotate(45)" fill="#8f9599"/>
      <rect x="11.05" y="11.37" width="1.22" height=".67" transform="translate(11.69 -4.82) rotate(45)" fill="#84898c"/>
      <path d="M1.81,22.84c-.18-.05-.48-.16-.75-.43-.3-.28-.42-.61-.48-.8,.87-.64,1.85-1.45,2.86-2.41,.85-.8,1.59-1.59,2.22-2.33,0,.25-.02,.48-.04,.65-.08,.66-1.34,2.12-2.08,2.57-.74,.44-1.21,.52-1.41,1.16-.06,.2-.04,.65-.02,1.16-.11,.14-.21,.28-.31,.42Z" fill="#be6439"/>
    </g>
  </g>
</svg>