<?xml version="1.0" encoding="UTF-8"?>
<svg id="_Шар_2" data-name="Шар 2" xmlns="http://www.w3.org/2000/svg" viewBox="0 0 23.59 23.24">
  <g id="Speer">
    <g>
      <path d="M17.07,9.84s.07-1.29-.85-1.67c.03-.03,.06-.06,.1-.1,1.01-.94,1.99-1.72,2.87-2.37,.3,.96-.35,1.82-.35,1.82,0,0,1.35,0,2.17-2.76,0,0-2.69-.27-2.26-1.54,.43-1.27,2.16,4.93,4.84-3.15,0,0-8.66,2.86-5.94,4.13,.03,.01,.05,.03,.07,.04-.15,.2-.3,.41-.46,.63-.7-.54-1.55-.63-1.55-.63,.5,.47,.64,1.15,.65,1.78-.3,.36-.61,.72-.96,1.09-.32,.35-.63,.67-.94,.98-.43,.43-.85,.82-1.26,1.17-.23,.2-.46,.39-.68,.57-.01,0-.02,.02-.03,.02l-.14-.14-.64,.64,.13,.13-.46,.46-.15,.15-.55,.55-.13,.13-.72,.72-.11,.11-.62,.62-.25,.25-.7,.7-.21,.21-.54,.54-.13-.13-.64,.64,.14,.14c-.13,.16-.25,.31-.4,.47-.65,.78-1.42,1.61-2.31,2.44-1.06,1-2.09,1.83-3.03,2.48,0,0,0,.01,0,.02-.31,.11-.59,.31-.77,.57-.38,.57-.25,1.46,.07,1.61,.19,.09,.32-.14,.75-.14,.47,0,.62,.26,.86,.21,.23-.05,.46-.37,.58-.77,0,0,0,0,.01,0,.11-.15,.21-.3,.32-.45,.58-.81,1.28-1.68,2.12-2.57,1.02-1.11,2.01-2.02,2.91-2.76l.1,.1,.64-.64-.11-.11,.14-.14,.66-.66,.21-.21,.84-.84,.13-.13,.49-.49,.24-.24,.63-.63,.23-.23,.66-.66,.2-.2,.11,.11,.64-.64-.1-.1c.31-.38,.65-.78,1.02-1.18,.65-.24,1.88-.57,2.44,.05Z" fill="#474849"/>
      <g>
        <path d="M16.92,9.7s.14-1.72-1.32-1.72l-1.49,1.9s2.06-1.01,2.81-.18Z" fill="#5042b1"/>
        <path d="M15.71,4.24s2.02,.16,2.3,1.9l-1.98,1.41s.81-2.26-.32-3.31Z" fill="#5042b1"/>
        <polygon points="9.24 15.15 8.58 15.81 7.88 14.33 8.09 14.12 9.24 15.15" fill="#5b2806"/>
        <polygon points="10.29 14.1 9.45 14.94 8.8 13.42 9.05 13.16 10.29 14.1" fill="#471f15"/>
        <polygon points="10.91 13.48 10.42 13.97 9.67 12.54 9.78 12.43 10.91 13.48" fill="#5b2806"/>
        <polygon points="11.79 12.61 11.15 13.24 10.5 11.71 10.63 11.59 11.79 12.61" fill="#8c400c"/>
        <polygon points="12.67 11.72 12.01 12.38 11.17 11.04 11.33 10.88 12.67 11.72" fill="#471f15"/>
        <polygon points="11.17 11.04 12.01 12.38 11.79 12.61 10.63 11.59 11.17 11.04" fill="#afa8a8"/>
        <polygon points="10.5 11.71 11.15 13.24 10.91 13.48 9.78 12.43 10.5 11.71" fill="#afa8a8"/>
        <polygon points="9.67 12.54 10.42 13.97 10.29 14.1 9.05 13.16 9.67 12.54" fill="#afa8a8"/>
        <polygon points="8.8 13.42 9.45 14.94 9.24 15.15 8.09 14.12 8.8 13.42" fill="#afa8a8"/>
        <polygon points="12.9 11.5 12.67 11.72 11.33 10.88 11.81 10.41 12.9 11.5" fill="#5b2806"/>
        <polygon points="12.01 12.38 11.79 12.61 10.63 11.59 11.17 11.04 12.01 12.38" fill="#471f15"/>
        <polygon points="11.15 13.24 10.91 13.48 9.78 12.43 10.5 11.71 11.15 13.24" fill="#5b2806"/>
        <polygon points="10.42 13.97 10.29 14.1 9.05 13.16 9.67 12.54 10.42 13.97" fill="#471f15"/>
        <polygon points="9.45 14.94 9.24 15.15 8.09 14.12 8.8 13.42 9.45 14.94" fill="#5b2806"/>
        <polygon points="8.58 15.81 8.42 15.97 7.25 14.96 7.88 14.33 8.58 15.81" fill="#471f15"/>
        <path d="M13.42,10.99l-1.1-1.1s.09-.08,.14-.11c.45-.37,.93-.78,1.43-1.24,.47-.45,.95-.94,1.45-1.48,.96-1.03,1.76-2.04,2.4-2.94,.02-.02,.04-.05,.05-.06,.18,.06,.47,.18,.76,.44,.04,.02,.06,.05,.1,.08,.13,.13,.24,.27,.33,.4,.13,.2,.21,.39,.25,.52-.92,.66-1.94,1.49-3.01,2.49-1.12,1.06-2.06,2.09-2.8,3.01Z" fill="#4b00ac"/>
        <path d="M2.45,22.37c-.2-.07-.55-.21-.86-.53-.35-.34-.51-.7-.58-.92,.93-.66,1.96-1.49,3.01-2.49,.89-.84,1.66-1.66,2.31-2.44,.18-.19,.33-.39,.48-.57l1.09,1.09c-.92,.76-1.95,1.7-3.01,2.85-.84,.89-1.54,1.76-2.13,2.56-.11,.15-.21,.3-.32,.45Z" fill="#5b2806"/>
        <rect x="6.63" y="15.27" width="1.86" height=".9" transform="translate(13.33 -.74) rotate(45)" fill="#5042b1"/>
        <rect x="7.04" y="15.46" width="1.05" height=".51" transform="translate(13.33 -.74) rotate(45)" fill="#6b96c9"/>
        <path d="M15.64,7.33c-.08,.64-.26,1.63-3.05,2.82l-.25-.25c.93-.75,1.96-1.69,3.02-2.84,.96-1.04,1.76-2.05,2.4-2.94,.13,.77,.22,1.59,0,1.87-.42,.55-2.01,.62-2.11,1.35Z" fill="#4b00ac"/>
        <rect x="11.71" y="10.19" width="1.86" height=".9" transform="translate(11.23 -5.82) rotate(45)" fill="#5042b1"/>
        <path d="M2.45,22.37c-.2-.07-.55-.21-.86-.53-.35-.34-.51-.7-.58-.92,.93-.66,1.96-1.49,3.01-2.49,.89-.84,1.66-1.66,2.31-2.44,.02,.27,.02,.53,0,.72-.04,.73-1.35,2.27-2.13,2.71-.79,.44-1.31,.5-1.49,1.2-.05,.22,0,.72,.06,1.29-.11,.15-.21,.3-.32,.45Z" fill="#8c400c"/>
        <path d="M20.89,4.64s-2.63-.2-2.18-1.46c.45-1.26,2.01,4.78,4.8-3.18,0,0-8.54,2.98-5.9,4.17,2.64,1.19,1.09,3.22,1.09,3.22,0,0,1.32-.03,2.18-2.75Z" fill="#407bb5"/>
        <path d="M1.85,23.13c-.24,.06-.38-.2-.84-.19-.42,.01-.55,.24-.74,.15-.31-.14-.41-1.01-.03-1.57,.44-.65,1.54-.94,2.04-.46,.58,.56,.07,1.95-.43,2.07Z" fill="#407bb5"/>
        <path d="M1.65,22.75c-.15,.03-.24-.13-.53-.12-.27,0-.35,.15-.46,.1-.19-.09-.26-.64-.02-.99,.28-.41,.97-.59,1.28-.29,.37,.36,.05,1.23-.27,1.31Z" fill="#469ad3"/>
        <path d="M19.6,5.26s-.26-.23-.62-.29c-.28-.04-.64,.04-.94,.47-.69,.95-1.5,1.5-2.07,1.7-.57,.21-.74,1.15-1.6,1.78-.41,.3-1.2,.6-1.91,.85,.45-.37,.93-.78,1.43-1.24,.15,.05,.33,0,.52-.24,.54-.69,1.48-2.08,2.15-2.23,.66-.16,1.39-.89,1.66-1.44,.07-.14,.18-.17,.33-.13,.42,.11,1.04,.77,1.04,.77Z" fill="#407bb5"/>
        <path d="M22.66,.79s-1.05,2.51-1.73,2.65-2.24-.78-2.24-.78c0,0,1.37,.64,1.96,.05s2.01-1.92,2.01-1.92Z" fill="#469ad3"/>
        <path d="M19.42,6.58s1.32-1.32,.87-1.51-.68,.05-.91-.18,.73,.09,.05,1.69Z" fill="#469ad3"/>
      </g>
    </g>
  </g>
</svg>