<?xml version="1.0" encoding="UTF-8"?>
<svg id="_Шар_2" data-name="Шар 2" xmlns="http://www.w3.org/2000/svg" viewBox="0 0 23.49 23.99">
  <g id="Speer">
    <path d="M3.19,23.99H0l.09-.09,1.19-1.15,.21-.21,.91-.89,.26-.25,.76-.74-.21-.19,.73-.71c-.23-.21-.46-.43-.69-.63,1.33-1.22,2.68-2.49,4.02-3.8,1.55-1.48,3.11-3,4.67-4.59,2.88-2.91,5.59-5.78,8.11-8.57,.64-.72,1.27-1.42,1.88-2.11l.07,.07c.15,.15,.43,.47,.71,.93t0,.02c.34,.56,.68,1.33,.76,2.33,.02,.25,.03,.52,.01,.78-.09,1.53-.79,3.1-2.06,4.33l-9.62,9.37-.51-.4,.33,.58-.33,.32-.68-.3,.12,.84-.24,.23-.65-.41,.28,.77-.51,.5-.88-.7,.35,1.22-.54,.52-1.67,1.62-.02,.03c-.24-.27-.49-.54-.75-.81l-.71,.69-.17-.17-.33,.33-1.1,1.07-.17,.17h-.43Z" fill="#474849"/>
    <polygon points="5.06 22.39 4.01 23.45 2.67 21.31 2.92 21.06 5.06 22.39" fill="#471f15"/>
    <polygon points="2.67 21.31 4.01 23.45 3.65 23.81 1.8 22.18 2.67 21.31" fill="#afa8a8"/>
    <polygon points="5.42 22.04 5.06 22.39 2.92 21.06 3.68 20.3 5.42 22.04" fill="#5b2806"/>
    <polygon points="4.01 23.45 3.65 23.81 1.8 22.18 2.67 21.31 4.01 23.45" fill="#471f15"/>
    <rect x="3.53" y="19.96" width="2.96" height="1.44" transform="translate(16.09 2.51) rotate(45)" fill="#5042b1"/>
    <path d="M11.7,17.59l-.49-.39,.31,.57-.32,.32-.65-.3,.12,.83-.23,.23-.63-.4,.28,.76-.5,.5-.84-.69,.33,1.2-2.15,2.15c-.55-.62-1.13-1.28-1.78-1.93-.56-.56-1.13-1.1-1.67-1.6,1.28-1.21,2.57-2.46,3.86-3.75,1.48-1.46,2.98-2.96,4.48-4.53,2.76-2.87,5.37-5.7,7.79-8.46,.61-.71,1.22-1.4,1.81-2.08l.07,.07c.08,.08,.18,.2,.3,.35,.05,.08,.11,.16,.18,.25s.14,.19,.21,.31t0,.02c.33,.55,.65,1.31,.72,2.3,.02,.25,.03,.51,.01,.78-.09,1.51-.75,3.05-1.97,4.27l-9.24,9.24Z" fill="#2d78b5"/>
    <path d="M11.7,17.59l-.49-.39,.31,.57-.32,.32-.65-.3,.12,.83-.23,.23-.63-.4,.28,.76-.5,.5-.84-.69,.33,1.2-2.12,2.12c.46-1.11,.71-2.42,.25-3.61-1.09-2.9,2.2-3.87,5.86-4.4,.06-.02,.13-.02,.17-.03,.24-.04,.44-.1,.61-.16,2.48-.88,.51-3.83,3.53-6.3,3.29-2.7,3.49-2.25,3.37-4.25-.04-.88,.33-2.26,.75-3.52,.08,.08,.18,.2,.3,.35,.05,.08,.11,.16,.18,.25s.14,.19,.21,.31t0,.02c.33,.55,.65,1.31,.72,2.3,.02,.25,.03,.51,.01,.78-.09,1.51-.75,3.05-1.97,4.27l-9.24,9.24Z" fill="#5042b1"/>
    <path d="M20.75,3.59c-.04-.88,.33-2.26,.75-3.52,.15,.15,.41,.46,.69,.91t0,.02c-.13,.78-.27,1.58-.22,1.89,.06,.72,.43,1.67-.21,2.17-.65,.49-1.08,.65-.92,1.44,.13,.79-1.07,1.72-1.55,1.82-.46,.1-1.27-1.05-1.62,.18-.33,1.21-.71,1.65-.83,2.37-.12,.69-1.4,.81-1.07,1.37,.3,.55-.31,1.82-1.16,1.88-.27,0-.51,0-.73,0,2.48-.88,.51-3.83,3.53-6.3,3.29-2.7,3.49-2.25,3.37-4.25Z" fill="#4b00ac"/>
    <path d="M8.57,20.72l-1.6,1.6c.46-1.11,.71-2.42,.25-3.61-1.09-2.9,2.2-3.87,5.86-4.4,.06-.02,.13-.02,.17-.03-.17,.11-.34,.29-.52,.59-.54,.93-1.53,.02-2.09,.78-.53,.76-2.78,.17-2.4,.95,.37,.78,.54,2.01,.06,2.26-.48,.26-.41,.84-.12,1.13,.09,.09,.23,.36,.39,.72Z" fill="#4b00ac"/>
    <path d="M14.42,11.32c-2.3,.97-3.48,.78-3.58,1.6-.07,.82-.51,.38-1.16,.8-.63,.43-.51,.96-1.89,1.46-.24,.09-.37,.03-.44-.11,1.48-1.46,2.98-2.96,4.48-4.53,2.76-2.87,5.37-5.7,7.79-8.46-.45,.99-.81,2.05-.41,2.33,.01,.01,.02,.02,.05,.02-.26,.17-.67,.6-1.26,1.48-1.81,2.76-2.24,.05-3.34,2.04-1.12,2,2.05,2.38-.24,3.37Z" fill="#469ad3"/>
  </g>
</svg>