<?xml version="1.0" encoding="UTF-8"?>
<svg id="_Шар_2" data-name="Шар 2" xmlns="http://www.w3.org/2000/svg" viewBox="0 0 23.63 23.53">
  <g id="Speer">
    <g>
      <path d="M14.06,15.7c.15-.4,.15-.76,.51-1.19,.67-.79,1.48-.54,1.8-1.21,.26-.54,.03-1.36-.4-1.76-.29-.27-.49-.17-.78-.46-.35-.35-.38-.81-.39-1.09,.05-.04,.11-.08,.16-.12,.02,.1,.03,.18,.03,.22v.02c.09-.07,.26-.2,.52-.31,.09-.03,.18-.05,.29-.06,.23-.02,.45,0,.61,.04-.08-.18-.15-.32-.21-.44,.19-.45,.65-1.3,1.67-1.82,.68-.36,1.36-.42,1.76-.42,.28-1.01,.77-2.4,1.66-3.94,.31-.52,.62-.99,.93-1.42,.01-.02,.03-.04,.04-.05,.02-.02,.03-.04,.05-.06,.3-.41,.6-.78,.89-1.1l.43-.43s-.04,0-.06,0c-.7,.09-1.69,.29-2.81,.78-1.62,.7-2.74,1.67-3.37,2.3-.06,.46-.21,1.23-.72,2.06-.77,1.29-1.87,1.94-2.39,2.2-.09-.05-.18-.11-.28-.16-.02,0-.13-.06-.16-.01,.18,.16,.29,.38,.3,.58,.02,.04,.02,.07,0,.13,0,.05-.03,.08-.04,.12,0,.03-.03,.05-.04,.06-.06,.06-.15,.1-.24,.14,0,0-.02,0-.02,0h-.02s.13,.08,.23,.15c-.15,.22-.29,.43-.44,.65,.01,.02,.03,.03,.04,.05-.17,.21-.35,.42-.56,.63-.48,.48-.95,.85-1.38,1.15-.21,.02-.41,.09-.57,.25-.1,.1-.16,.21-.21,.34-.3,.36-.61,.72-.93,1.09-.56,.66-1.15,1.32-1.76,1.99-.44,.48-.87,.94-1.31,1.38-.28,.32-.55,.59-.84,.88-.42,.44-.83,.87-1.26,1.28-.34,.34-.67,.65-1.01,.98-.39,.39-.79,.77-1.19,1.14-.29,.29-.58,.55-.87,.81-.17,.15-.34,.3-.51,.46,0,0,0,0-.01,.01-.31-.05-.62,.02-.85,.24-.38,.38-.36,1.03,.05,1.43s1.05,.43,1.43,.05c.23-.23,.3-.56,.24-.87,2.07-2.28,4.39-4.63,7-6.98,1-.9,2.01-1.75,3-2.57,.17-.03,.34-.1,.47-.23s.2-.3,.23-.48c.3-.45,.69-.94,1.19-1.45,.13-.12,.25-.22,.38-.33-.16,.46-.25,1.07,.05,1.49,.39,.53,1.19,.42,1.25,.73,.06,.32-.76,.48-1.46,1.18-.65,.65-.61,1.19-1,1.92-1,1.91-3.31,2.23-3.25,2.36,.07,.15,3.41-.34,4.14-2.32Z" fill="#474849"/>
      <g>
        <path d="M13.82,10.55c-.55,.55-.98,1.09-1.29,1.56l-1.11-1.11c.48-.31,1.01-.74,1.56-1.29,.34-.36,.65-.72,.9-1.04,.09-.14,.18-.27,.27-.39l1.11,1.11c-.44,.3-.93,.68-1.44,1.17Z" fill="#9b8b5d"/>
        <path d="M11.84,11.31s-.04,.04-.06,.04l-.36-.36c.48-.31,1.01-.74,1.56-1.29,.34-.36,.65-.72,.9-1.04,.32,.22,.64,.55,.25,.84-.65,.47-.84,.09-.75,.52,.1,.42,.15,.44-.31,.53-.47,.09-.57-.19-.33,.37,.24,.57-.63,.04-.89,.39Z" fill="#b6ad90"/>
        <path d="M14.36,10.07c-.29-.35-.58-.69-.87-1.04,.15-.22,.31-.44,.46-.67l1.16,1.16c-.25,.18-.5,.37-.75,.55Z" fill="#19634e"/>
        <path d="M16.24,9.6c-.15-.03-.37-.04-.59-.02-.11,.02-.2,.04-.29,.07-.25,.11-.42,.24-.51,.31v-.02c0-.05,0-.19-.04-.35-.04-.18-.1-.39-.24-.6-.3-.46-.7-.68-.82-.74,0,0,0,0,.02,0,.08-.04,.17-.08,.23-.14,.02-.02,.04-.04,.04-.06,.03-.03,.04-.05,.05-.09,0,0,0-.03,0-.03,.02-.05,.02-.09,0-.13,0-.2-.1-.4-.27-.56,.03-.04,.13,0,.15,0,1.37,.64,2.02,1.82,2.02,1.82,.07,.11,.16,.29,.25,.52Z" fill="#6b877b"/>
        <path d="M15.97,9.36l-1.88-1.88c.42-.21,1.67-.88,2.54-2.29,.52-.83,.69-1.57,.76-2.02,.63-.63,1.75-1.61,3.34-2.33,1.1-.51,2.06-.74,2.74-.84,.02,0,.04,0,.05,0l-.43,.43c-.6,.67-1.27,1.54-1.93,2.61-.91,1.52-1.43,2.88-1.73,3.87-.39,0-1.04,.09-1.71,.46-1.16,.62-1.61,1.65-1.75,2Z" fill="#8ab2a1"/>
        <path d="M15.97,9.36l-.32-.32c-.22-.84-.07-1.83,.4-2.23,.63-.52,1.63,.05,2.32-.67,.42-.42,.46-1.01,.46-1.07,.04-.69-.41-.95-.39-1.55,.02-.57,.43-.97,.76-1.28,.59-.57,2.22-1.81,3.88-1.8-.3,.33-.62,.73-.94,1.16-.32,.43-.66,.91-.99,1.45-.91,1.52-1.43,2.88-1.73,3.87-.39,0-1.04,.09-1.71,.46-1.16,.62-1.61,1.65-1.75,2Z" fill="#7ea591"/>
        <path d="M15.97,9.36l-.02-.02c-.02-.65,.29-1.47,.74-1.89,.61-.54,1.32-.26,2.02-.98,.42-.42,.57-.91,.57-.95,.16-.57-.16-.7-.03-1.19,.12-.48,.53-.87,.86-1.18,.38-.38,1.16-1.05,2.03-1.56-.32,.43-.66,.91-.99,1.45-.91,1.52-1.43,2.88-1.73,3.87-.39,0-1.04,.09-1.71,.46-1.16,.62-1.61,1.65-1.75,2Z" fill="#77968a"/>
        <path d="M18.87,2.33c-.54,.56-.69,1.05-.7,1.44-.02,.73,.47,1.04,.29,1.63-.2,.62-.94,.86-.98,.88-.41,.13-.77,.06-.92,.02,.1,0,.67,0,.94-.38,.13-.18,.17-.42,.2-.57,.04-.23,.03-.41,.03-.48-.02-.45,.09-1.1,.3-1.56,.11-.22,.34-.61,.85-.97Z" fill="#96bcab"/>
        <path d="M22.18,1.04s-2.13,.48-2.54,1.63c0,0,.91-.87,1.74-.91,0,0,.15-.28,.8-.72Z" fill="#8ab2a1"/>
        <path d="M20.06,4.84s-.7,1.77-.7,1.85c0,0-.8,.13-1.01,.26,0,0,.75-.3,.98-.68s.74-1.43,.74-1.43Z" fill="#809e92"/>
        <path d="M16.24,9.6c-.15-.03-.37-.04-.59-.02-.11,.02-.2,.04-.29,.07-.24,.08-.4,.21-.51,.3,0-.05,0-.19-.04-.35-.04-.17-.12-.37-.26-.6-.3-.46-.7-.68-.82-.74h.02s0,0,.02,0c.05-.02,.16-.05,.23-.14,.02-.02,.04-.04,.04-.06,.02-.04,.04-.07,.04-.12,0-.04,.02-.09,0-.13,0-.2-.1-.4-.27-.56,.27,.16,.57,.36,.9,.63,.74,.62,1.23,1.26,1.52,1.72Z" fill="#749985"/>
        <path d="M14.18,7.55s1.37,1.13,1.72,1.81c-.07-.03-.16-.06-.27-.06-.36,0-.58,.34-.61,.37,.12-.33,.09-.55,.03-.68-.21-.49-1.05-.71-1.05-.71h0s.23,.02,.33-.13c.05-.07,.05-.15,.05-.19,0-.22-.17-.37-.21-.4Z" fill="#7ea591"/>
        <path d="M14.83,8.27s.64,.58,.79,.89c0,0-.64-.67-.6-.56,.04,.12-.19-.31-.17-.22,.02,.09-.02-.12-.02-.12Z" fill="#8ab2a1"/>
        <path d="M8.93,15.28c-2.68,2.43-5.07,4.85-7.19,7.19l-.83-.83c.07-.07,.14-.13,.22-.2,.17-.15,.34-.3,.51-.46,.29-.27,.58-.53,.87-.82,.4-.37,.8-.74,1.19-1.14,.34-.32,.67-.64,1.01-.98,.43-.41,.84-.84,1.26-1.28,.29-.29,.57-.57,.84-.88,.44-.44,.87-.91,1.31-1.38,.61-.66,1.2-1.33,1.77-1.98,.42-.48,.83-.95,1.22-1.42,.4,.4,.81,.83,1.21,1.23-1.12,.92-2.26,1.9-3.4,2.93Z" fill="#9b8b5d"/>
        <g>
          <circle cx="11.71" cy="11.78" r=".95" fill="#7ea591"/>
          <circle cx="11.71" cy="11.78" r=".77" fill="#8ab2a1"/>
        </g>
        <path d="M12.35,11.73s-.65-.86-1.02-.25c0,0,.32-.17,1.02,.25Z" fill="#97bfad"/>
        <path d="M1.82,21.46c-.19,.17-.44,.13-.69,0,.17-.15,.34-.3,.51-.46,.29,.2,.53,.13,.18,.47Z" fill="#b6ad90"/>
        <path d="M3.4,19.95c-.31,.3-.62,.33-.89,.22,.4-.37,.8-.74,1.19-1.14,.24,.12,.31,.3-.3,.91Z" fill="#b6ad90"/>
        <path d="M5.8,17.54c-.35,.3-.73,.44-1.09,.51,.43-.41,.84-.84,1.26-1.28,.3,.08,.46,.21-.18,.77Z" fill="#b6ad90"/>
        <path d="M8.13,14.51c.61-.66,1.2-1.33,1.77-1.98-.13,.51-.17,.98,.13,.95,.65-.04-2.04,.65-1.64,1.73,.23,.61-.68,.65-1.56,.68,.44-.44,.87-.91,1.31-1.38Z" fill="#b6ad90"/>
        <path d="M15.39,12.32c-.05-.3-.83-.16-1.19-.67-.5-.7,.21-2.09,.41-2.05,.14,.02-.09,.81,.41,1.3,.27,.27,.46,.17,.74,.42,.41,.37,.6,1.16,.33,1.69-.33,.66-1.11,.44-1.78,1.23-.36,.43-.38,.78-.54,1.17-.77,1.94-4.02,2.52-4.08,2.37-.05-.12,2.2-.51,3.23-2.39,.4-.73,.37-1.24,1.03-1.9,.7-.69,1.5-.88,1.45-1.19Z" fill="#19634e"/>
        <g>
          <circle cx=".98" cy="22.41" r=".98" fill="#7ea591"/>
          <circle cx=".98" cy="22.41" r=".8" fill="#8ab2a1"/>
        </g>
      </g>
    </g>
  </g>
</svg>