<?xml version="1.0" encoding="UTF-8"?>
<svg id="_Шар_2" data-name="Шар 2" xmlns="http://www.w3.org/2000/svg" viewBox="0 0 23.81 23.54">
  <g id="Speer">
    <g>
      <path d="M15.95,10.37s.41-.19-.98-.52c.27-.07,.57-.19,.89-.35,.19-.09,.39-.2,.6-.32-.25-.05-.49-.09-.54-.11,.09-.03,.6-.18,1.17-.34,.05,0,.1-.03,.16-.04,.18-.12,.36-.25,.53-.38-.3,0-.58-.03-.65-.03l.58-.25,.87-.39,.02-.02c.18-.16,.37-.34,.54-.52l-.65,.03,.94-.48,.17-.08c.33-.4,.68-.87,1.01-1.37,.07-.09,.13-.17,.18-.26,0,0,0,0,0,0,0,0,0,0,0,0,1.06-1.57,2.03-3.27,2.4-3.81,.15-.2,.27-.42,.41-.63,.06-.08,.11-.16,.15-.21l-3.27,3.15s0,0,0,0h0s-.76,.74-.76,.74l-1.51,1.46-1.04,1.01-.63,.6-.91,.88-1.08,1.04,1.08-1.06,.91-.89,.63-.61,1.01-1,1.51-1.48,.81-.81L23.8,.06s0,0,0,0h0c-.1,.02-.31,.16-.46,.27-.34,.2-.84,.48-1.5,.73l-.66,.78,.09-.4c-.13,.11-.29,.2-.46,.31h0s0,0,0,0l-.18,.34-.13,.26v-.38c-.1,.06-.19,.13-.29,.19-.11,.08-.23,.15-.33,.23l-.26,.54v-.37c-.16,.12-.34,.23-.48,.35l-.23,.55,.03-.43c-.14,.1-.27,.2-.39,.27-.05,.04-.1,.07-.14,.1l-.27,.73-.05-.5c-.11,.06-.19,.13-.29,.19l-.09,.61-.07-.48c-.29,.2-.48,.35-.6,.46-.03,.01-.05,.04-.07,.06-.1,.1-.21,.19-.31,.3-.28,.28-.54,.57-.78,.87-.26,.31-.49,.63-.72,.94-.16,.23-.3,.45-.43,.67-.73,.43-1.07,1.21-1.18,1.88-.25-.06-.48-.03-.65,.13-.05,.05-.1,.12-.13,.19-.05,.12-.06,.26-.04,.4,0,.03,.03,.06,.04,.1h0s-1.25,1.25-1.25,1.25l.02,.02L.88,21.87c-.21,0-.41,.07-.57,.22-.06,.06-.11,.13-.15,.2-.06,.12-.1,.26-.09,.39,0,.14,.04,.28,.11,.4,.03,.06,.08,.12,.13,.18,.32,.34,.85,.36,1.17,.06h0c.17-.17,.25-.38,.24-.6,0-.02-.01-.04-.01-.06l.44-.44L12.34,12.04l.02,.02,1.24-1.24c.26,.07,.51,.05,.69-.1h0c.15-.15,.21-.36,.17-.59,0-.03-.02-.07-.03-.1,.65-.03,1.51,.35,1.51,.35Z" fill="#474849"/>
      <path d="M19.04,7c-.17,.18-.36,.36-.54,.52l-.02,.02-.86,.4-.57,.26c.07,0,.34,.01,.64,.01-.17,.13-.35,.26-.52,.38-.06,.01-.11,.04-.16,.04-.57,.17-1.06,.33-1.15,.36,.06,.01,.29,.05,.53,.09-.21,.12-.4,.23-.59,.33-.88,.45-1.6,.59-1.85,.34-.36-.36,.2-1.74,1.21-3.17,.23-.31,.46-.63,.72-.93,.25-.3,.51-.59,.78-.87,.11-.11,.21-.2,.31-.3,.02-.02,.04-.04,.07-.06,.12-.11,.31-.25,.6-.46l.06,.47,.11-.6c.1-.06,.18-.13,.29-.19l.04,.49,.28-.72s.09-.06,.14-.1c.12-.08,.25-.18,.39-.28l-.04,.42,.23-.54c.15-.12,.32-.23,.49-.35l-.02,.36,.26-.53c.11-.08,.22-.15,.33-.23,.1-.06,.18-.13,.28-.19v.37s.13-.26,.13-.26l.18-.34c.16-.11,.32-.21,.45-.31l-.1,.4,.66-.78c.66-.26,1.15-.54,1.48-.75,.15-.11,.36-.25,.46-.28l-3.32,3.26-.81,.81-1.51,1.48-1.01,1-.63,.62-.91,.89-1.07,1.06,1.08-1.04,.91-.88,.63-.6,1.04-1.01,1.51-1.46,.76-.74L23.7,.24c-.04,.06-.09,.13-.16,.21-.14,.21-.26,.43-.42,.63-.37,.53-1.36,2.22-2.43,3.78-.06,.08-.11,.17-.18,.25-.33,.49-.69,.95-1.02,1.36l-.17,.08-.93,.49,.64-.04Z" fill="#c4e8e7"/>
      <path d="M18.54,3.31c.37,.15,.75,.44,1.08,.77l-1.51,1.48c-.48-.38-.91-.76-1.09-1.13,.12-.11,.31-.25,.6-.46l.06,.47,.11-.6c.1-.06,.18-.13,.29-.19l.04,.49,.28-.72s.09-.06,.14-.1Z" fill="#99ddd8"/>
      <path d="M19.49,6.47l-.17,.08c-.35-.33-.78-.65-1.17-.97l1.51-1.46c.33,.33,.62,.69,.84,.98-.33,.49-.69,.95-1.02,1.36Z" fill="#96d6d3"/>
      <path d="M15.78,9.41c-.88,.45-1.6,.59-1.85,.34-.36-.36,.2-1.74,1.21-3.17,.25,.5,.36,1.01,.43,1.48l-1.07,1.06,1.08-1.04c.08,.53,.1,1,.21,1.34Z" fill="#8adbd5"/>
      <path d="M20.61,2.06l.18-.34c.16-.11,.32-.21,.45-.31l-.1,.4,.66-.78c.66-.26,1.15-.54,1.48-.75,.15-.11,.36-.25,.46-.28l-3.32,3.26c0-.42,.07-.82,.17-1.2Z" fill="#edf2f2"/>
      <path d="M20.7,4.85c-.2-.48-.27-.98-.26-1.46L23.7,.23c-.04,.06-.09,.13-.16,.21-.14,.21-.26,.43-.42,.63-.37,.53-1.36,2.22-2.43,3.78Z" fill="#edf2f2"/>
      <path d="M16.65,4.78c.14,.57,.28,1.19,.46,1.77l-.63,.62c-.21-.49-.43-1.01-.62-1.52,.25-.3,.51-.59,.78-.87Z" fill="#f9f9f9"/>
      <path d="M17.68,8.21c-.17,.13-.35,.26-.52,.38-.06,.01-.11,.04-.16,.04-.11-.42-.3-.91-.51-1.44l.63-.6c.15,.49,.3,.95,.49,1.34l-.57,.26c.07,0,.34,.01,.64,.01Z" fill="#e1f4f3"/>
      <rect x="-1.51" y="15.29" width="18.29" height="1.1" transform="translate(-8.97 10.04) rotate(-45)" fill="#772a23"/>
      <path d="M14.77,7.2s-1.49,2.24,.02,2.55,1.06,.51,1.06,.51c0,0-1.66-.7-2.07-.02s-.72-2.09,.99-3.05Z" fill="#ffe471"/>
      <path d="M2.1,22.15l-.54,.54-.78-.78L11.84,10.86c.08,.59-.04,1.44-1.05,2.14-1.77,1.24-5.25,4.61-5.2,5.15,.04,.55-3.9,2.63-3.54,3.45,.07,.16,.08,.35,.04,.55Z" fill="#873430"/>
      <g>
        <g>
          <path d="M1.42,23.24h0c-.33,.31-.84,.3-1.15-.02-.05-.05-.09-.11-.12-.17-.07-.12-.1-.25-.1-.39,0-.13,.03-.27,.1-.39,.04-.07,.09-.14,.15-.2,.32-.3,.81-.3,1.13,0l.02,.02c.15,.16,.23,.36,.22,.56,0,.21-.09,.43-.25,.59Z" fill="#61c1bf"/>
          <path d="M1.42,23.24c-.78,.77-1.94-.43-1.16-1.21,.81-.75,1.96,.47,1.16,1.21h0Zm0,0c.74-.73-.35-1.86-1.09-1.14-.75,.71,.32,1.85,1.09,1.14h0Z" fill="#fff"/>
        </g>
        <g>
          <circle cx=".85" cy="22.66" r=".57" fill="#5ae0d9"/>
          <path d="M.44,23.05c.5,.51,1.28-.25,.79-.75-.48-.52-1.27,.22-.79,.75H.44Zm0,0c-.54-.55,.31-1.37,.86-.82,.53,.57-.34,1.38-.86,.82H.44Z" fill="#f3fffe"/>
        </g>
        <circle cx=".85" cy="22.66" r=".3" fill="#8dfff4"/>
      </g>
      <rect x="11.93" y="10.07" width="1.16" height="1.77" transform="translate(11.41 -5.64) rotate(45)" fill="#ffe471"/>
      <g>
        <g>
          <path d="M14.22,10.63h0c-.3,.28-.84,.2-1.2-.19-.06-.06-.11-.13-.15-.2-.09-.13-.14-.28-.15-.42-.02-.14,0-.27,.05-.39,.03-.07,.08-.14,.13-.19,.29-.28,.81-.2,1.18,.16l.03,.03c.18,.19,.29,.41,.31,.62,.03,.22-.03,.43-.18,.58Z" fill="#61c1bf"/>
          <path d="M14.22,10.63c-.77,.65-2.07-.64-1.37-1.42,.81-.64,2.07,.68,1.37,1.42h0Zm0,0c.65-.72-.6-1.96-1.3-1.35-.65,.69,.56,1.96,1.3,1.35h0Z" fill="#fff"/>
        </g>
        <g>
          <ellipse cx="13.55" cy="9.94" rx=".52" ry=".67" transform="translate(-3.06 12.49) rotate(-45)" fill="#5ae0d9"/>
          <path d="M13.17,10.29c.6,.59,1.32-.06,.72-.67-.58-.62-1.29,.04-.72,.67h0Zm0,0c-.65-.66,.15-1.38,.79-.74,.62,.68-.17,1.41-.79,.74h0Z" fill="#f3fffe"/>
        </g>
        <ellipse cx="13.55" cy="9.94" rx=".28" ry=".36" transform="translate(-3.06 12.49) rotate(-45)" fill="#8dfff4"/>
      </g>
      <rect x="12.49" y="10.56" width=".27" height="1.31" transform="translate(11.63 -5.64) rotate(45)" fill="#e0a838"/>
      <polygon points="18.71 4.37 18.51 4.52 18.6 4.76 18.39 4.62 18.19 4.77 18.26 4.53 18.05 4.39 18.3 4.38 18.37 4.14 18.46 4.38 18.71 4.37" fill="#fff"/>
      <polygon points="18.16 6.52 18.15 6.66 18.28 6.7 18.15 6.74 18.14 6.87 18.07 6.76 17.94 6.79 18.02 6.69 17.95 6.57 18.07 6.62 18.16 6.52" fill="#fff"/>
      <polygon points="21.62 2.93 21.5 2.97 21.5 3.09 21.42 2.99 21.31 3.03 21.38 2.93 21.31 2.83 21.42 2.87 21.5 2.77 21.5 2.89 21.62 2.93" fill="#fff"/>
    </g>
  </g>
</svg>