<?xml version="1.0" encoding="UTF-8"?>
<svg id="_Шар_2" data-name="Шар 2" xmlns="http://www.w3.org/2000/svg" viewBox="0 0 23.62 23.39">
  <g id="Speer">
    <g>
      <path d="M.79,23.39l-.79-.79,.91-.91c.1,.03,.3,.11,.48,.29,.19,.19,.27,.39,.31,.5l-.91,.91Z" fill="#164059"/>
      <rect x="-1.33" y="15.76" width="17.06" height=".89" transform="translate(-9.35 9.84) rotate(-45)" fill="#281f13"/>
      <g>
        <path d="M17.58,7.62l-.47,.31-1.34,.89-.64,.41c.24-.8,.35-1.85,.81-2.72,.72-1.34,.86-.38,1.38-1.06,.52-.66,.26-.26,.41-.97,.14-.72,.89-.07,1.43-.15,.54-.07,.98-.07,1.07-.5,.09-.43,.31-1.32,.81-1.53,.33-.13,1.59-1.29,2.45-2.11l-.55,.85-.47,.72h0s-.26,.41-.26,.41l-.16,.23-.03,.04-.15,.24-.09,.13h0c-.41,.06-.88,.19-.86,.47,.02,.51-1.07,1.84-1.17,1.74-.21-.21-.45-.27-.7-.17-.33,.12-.16,.69-.52,.96-.41,.3-1.01-.18-1.26,.07-.23,.23,.1,.81,.24,1.29,.04,.13,.07,.26,.09,.41Z" fill="#2f7edd"/>
        <path d="M15.94,6.51c-.47,.86-.58,1.92-.81,2.72l-.31,.21-.78-.78,1.43-3.5L23.62,0l-.13,.21c-.86,.81-2.12,1.97-2.45,2.11-.49,.21-.72,1.1-.81,1.53-.1,.42-.53,.43-1.07,.5-.55,.07-1.29-.57-1.43,.15-.15,.71,.12,.31-.41,.97-.52,.67-.66-.28-1.38,1.06Z" fill="#2f7edd"/>
        <path d="M19.44,6.4l-1.08,.71-.78,.51c-.02-.16-.05-.29-.09-.41-.15-.49-.47-1.06-.24-1.29,.25-.25,.86,.24,1.26-.07,.35-.27,.19-.84,.52-.96,.25-.1,.49-.04,.7,.17,.1,.1,1.19-1.23,1.17-1.74-.01-.28,.46-.41,.86-.47l-2.33,3.55Z" fill="#2f7edd"/>
        <path d="M15.13,9.23l-.31,.21-.78-.78,1.43-3.5,.57-.36,5.56-3.51,2.02-1.28-.13,.21c-.86,.81-2.12,1.97-2.45,2.11-.49,.21-.72,1.1-.81,1.53-.1,.42-.53,.43-1.07,.5-.55,.07-1.29-.57-1.43,.15-.15,.71,.12,.31-.41,.97-.52,.67-.66-.28-1.38,1.06-.47,.86-.58,1.92-.81,2.72Z" fill="#384b7f"/>
        <path d="M19.44,6.4l-1.08,.71-.18,.13-.59,.38c-.02-.16-.05-.29-.09-.41-.15-.49-.47-1.06-.24-1.29,.25-.25,.86,.24,1.26-.07,.35-.27,.19-.84,.52-.96,.25-.1,.49-.04,.7,.17,.1,.1,1.19-1.23,1.17-1.74-.01-.28,.46-.41,.86-.47l-1.78,2.71h0s-.55,.84-.55,.84Z" fill="#2f426d"/>
        <path d="M19.69,3.78c-.43,.07-1.27-.47-1-.1,.27,.39-.95-.52-1.26,.74-.21,.86-.85,.52-1.4,.36l5.56-3.51c-.29,.27-.54,.52-.52,.59,.05,.14-.61,0-.78,.61-.17,.6-.07,.83-.38,.88s.19,.35-.24,.43Z" fill="#304572"/>
        <path d="M19.44,6.4l-1.08,.71-.18,.13c-.27-.35-.61-.7-.7-.88-.2-.38,.07-.41,.76,.08s.22-.61,.84-.41c.5,.16,.28-.52,.24-.64h.01c.08,.16,.37,.19,.65,.18h0s-.55,.84-.55,.84Z" fill="#293d60"/>
        <path d="M21.86,2.7c-.09-.09-.2-.16-.32-.18-.36-.07-.62,.18-.66,.21,.1-.3,.63-.52,1.06-.79,.24-.15,.66-.55,.99-.89l-.47,.72h0s-.26,.41-.26,.41c-.14,.05-.26,.08-.32,.1,.05,0,.1,.07,.13,.18l-.15,.24Z" fill="#2491ea"/>
        <path d="M20.16,4.43s-1.05,.34-1.53,.12-.68-.29-.81,.37-.88,.96-.88,.96c0,0,.46-.45,1.13-.17s-.43-.79,.27-.8,1.82-.46,1.82-.46Z" fill="#2491ea"/>
        <path d="M17.11,7.93l-1.34,.89h-.01c-.04-.12,.13-.2,.16-.47,.04-.29-.13-.35-.1-.55,.07-.36,.64-.37,.68-.69,.02-.21-.21-.3-.18-.53,.04-.28,.41-.47,.47-.42,.04,.04-.1,.16-.06,.33,.04,.24,.33,.29,.31,.41s-.27,.09-.34,.25c-.07,.17,.1,.39,.13,.44,.12,.15,.19,.13,.25,.24,.02,.04,.04,.07,.04,.11Z" fill="#2491ea"/>
        <path d="M16.38,5.42s-.63,.18-.82,1.02c0,0-.22-1.24,.82-1.02Z" fill="#3d568e"/>
      </g>
      <rect x="13.31" y="8.87" width="1.67" height=".78" rx=".37" ry=".37" transform="translate(10.69 -7.29) rotate(45)" fill="#2f426d"/>
      <rect x="12.97" y="9.21" width="1.67" height=".78" rx=".37" ry=".37" transform="translate(10.83 -6.95) rotate(45)" fill="#3d568e"/>
      <path d="M14.02,10.56c-.14,.14-.36,.16-.52,.03-.01,0-.03-.01-.04-.02l-.63-.63s-.02-.02-.03-.04c-.13-.16-.11-.38,.03-.52,.07-.07,.16-.1,.26-.11,.1,0,.21,.04,.3,.12l.62,.62c.08,.08,.12,.19,.12,.3,0,.1-.04,.18-.11,.26Z" fill="#2f426d"/>
      <path d="M6.21,17.15c-.98,1.32-4.08,4.05-5.15,4.99l-.21-.21L12.07,10.71s-.01,.07-.04,.11h0c-.05,.18-.12,.36-.21,.53-.04,.08-.07,.15-.13,.21-.06,.1-.13,.2-.21,.28-.05,.07-.11,.13-.17,.18-.04,.04-.1,.08-.15,.13-.1,.08-.2,.18-.3,.27-.08,.08-.17,.17-.26,.24l-.26,.26c-.71,.66-1.34,1.32-1.42,1.64-.12,.46-1.53,.95-2.73,2.56Z" fill="#493c30"/>
      <polygon points="11.24 12.8 10.89 13.14 10.61 12.68 10.42 12.36 10.6 12.18 10.87 12.44 11.24 12.8" fill="#6b3f20"/>
      <polygon points="11.88 12.16 11.43 12.6 11.18 12.17 10.98 11.81 11.18 11.6 11.49 11.85 11.88 12.16" fill="#6b3f20"/>
      <polygon points="12.26 11.78 12 12.03 11.7 11.57 11.51 11.27 11.62 11.16 11.83 11.36 12.26 11.78" fill="#7a4521"/>
      <polygon points="12.79 11.24 12.46 11.58 12.04 10.83 12.03 10.82 12 10.78 12.14 10.65 12.79 11.24" fill="#6b3f20"/>
      <polygon points="13.3 10.73 12.96 11.07 12.43 10.35 12.58 10.2 13.3 10.73" fill="#7a4521"/>
      <polygon points="12.96 11.07 12.79 11.24 12.14 10.65 12.43 10.35 12.96 11.07" fill="#afa8a8"/>
      <polygon points="12.46 11.58 12.26 11.78 11.83 11.36 11.62 11.16 12 10.78 12.03 10.82 12.04 10.83 12.46 11.58" fill="#afa8a8"/>
      <polygon points="12 12.03 11.88 12.16 11.49 11.85 11.18 11.6 11.51 11.27 11.7 11.57 12 12.03" fill="#afa8a8"/>
      <polygon points="11.43 12.6 11.24 12.8 10.87 12.44 10.6 12.18 10.98 11.81 11.18 12.17 11.43 12.6" fill="#afa8a8"/>
      <path d="M13.5,10.59s-.03-.01-.04-.02l-.16,.16-.72-.53,.26-.26s-.02-.02-.03-.04l.69,.69Z" fill="#6b3f20"/>
      <polygon points="12.96 11.07 12.79 11.24 12.14 10.65 12.43 10.35 12.96 11.07" fill="#824923"/>
      <polygon points="12.46 11.58 12.26 11.78 11.83 11.36 11.62 11.16 12 10.78 12.03 10.82 12.04 10.83 12.46 11.58" fill="#6b3f20"/>
      <polygon points="12 12.03 11.88 12.16 11.49 11.85 11.18 11.6 11.51 11.27 11.7 11.57 12 12.03" fill="#6b3f20"/>
      <polygon points="11.43 12.6 11.24 12.8 10.87 12.44 10.6 12.18 10.98 11.81 11.18 12.17 11.43 12.6" fill="#7a4521"/>
      <polygon points="10.89 13.14 10.75 13.29 10.36 12.94 10.08 12.7 10.42 12.36 10.61 12.68 10.89 13.14" fill="#6b3f20"/>
      <path d="M10.99,8.95c-.68,.32-.04,1.85-.86,2.67-1.06,1.05-3.83-.21-3.81-.29,0-.04,.68,.25,1.53,0,.18-.05,.88-.28,1.67-1.29,1.14-1.46,.91-2.59,1.48-2.72,.94-.21,2.35,2.35,2.1,2.57-.2,.18-1.38-1.29-2.1-.95Z" fill="#1a496b"/>
      <path d="M.79,23.39c-.13-.07-.29-.18-.45-.35-.16-.16-.26-.32-.33-.44l.91-.91c.05,.11,.14,.29,.31,.46,.18,.18,.36,.28,.48,.33l-.91,.91Z" fill="#1a496b"/>
      <path d="M.79,23.2c-.1-.05-.22-.14-.34-.26-.12-.12-.2-.24-.25-.33l.69-.69c.04,.09,.11,.22,.24,.35,.13,.14,.28,.21,.36,.25l-.69,.69Z" fill="#1e5272"/>
    </g>
  </g>
</svg>