<?xml version="1.0" encoding="UTF-8"?>
<svg id="_Шар_2" data-name="Шар 2" xmlns="http://www.w3.org/2000/svg" viewBox="0 0 23.69 23.63">
  <g id="Speer">
    <g>
      <path d="M10.2,15.86c.16-.61,.1-1.1-.02-1.54l4.93-4.93,.67-.67,.04,.04,.83-.83c.22,.06,.45,.06,.67,0,.14,.27,.22,.55,.24,.81,0,.06,0,.12,0,.19,.85-.94,1.71-1.88,2.56-2.82l-.27-.68,.85,.05c.13-.16,.29-.33,.44-.48l-.13-.51,.6-.02c.08-.09,.16-.18,.26-.27l-.29-.5,.9-.19c.27-.32,.57-.62,.85-.93,0-.08,.01-.14,.02-.22,.03-.56,.07-1.12,.12-1.69l-5.45,5.45c-.04-.07-.07-.15-.13-.22L23.69,.1s-.06,0-.09,0c-.6,.05-1.2,.08-1.81,.12-2.02,1.85-4.02,3.67-6.04,5.53-.05,.05-.11,.1-.16,.15-.01,0-.04,.02-.05,.03,.04,0,.06,.04,.11,.08,.07,.06,.17,.15,.29,.25h0c-.12,.26-.14,.53-.09,.8l-.43,.43c-1.56,.04-6.21,.48-7.29,2.95-.58,1.32,.08,2.71,.49,3.96l-.83,.83-2.04,2.04-.54,.54c-.29,0-.47,.03-.47,.11,0,.05,.07,.11,.18,.18l-.63,.63-1.71,1.71-.84,.84c-.13-.05-.28-.02-.38,.08l-1.15,1.15c-.14,.14-.14,.38,.01,.53l.45,.45c.06,.06,.14,.09,.21,.1l.02,.02h.01c.1,0,.21-.03,.29-.11l1.15-1.15c.08-.08,.11-.18,.1-.29l3.58-3.58c.69,.12,1.54,.1,2.33-.28,1.41-.69,1.82-2.19,1.86-2.36Zm4.46-7.99c.22-.08,.4-.13,.56-.18l-.23,.23,.06,.06-1.54,1.54-.78,.78-1.09,1.09-1.86,1.86c-.24-.55-.44-1.1-.24-1.81,.53-1.97,3.41-2.98,5.13-3.58Zm-7.91,9.89l2.13-2.13c.03,.45-.04,.87-.33,1.25-.42,.56-1.12,.79-1.8,.88Z" fill="#474849"/>
      <g>
        <rect x="-2.92" y="14.62" width="22.72" height="1.01" transform="translate(-8.22 10.4) rotate(-45)" fill="#1c1b19"/>
        <path d="M17.41,8.78c0-.06,0-.13,0-.18,0-.26-.08-.53-.22-.79-.4,.12-.85,.05-1.16-.26-.36-.36-.4-.89-.18-1.34h0c-.11-.11-.21-.19-.28-.25-.04-.04-.07-.07-.11-.08,.01-.01,.04-.04,.05-.04,.05-.05,.11-.1,.16-.15,2.02-1.86,4.01-3.69,6.03-5.54,.6-.06,1.19-.1,1.78-.15,.03,0,.06,0,.09,0l-5.81,5.81c.06,.06,.08,.14,.13,.21L23.36,.57c-.06,.56-.11,1.11-.15,1.66,0,.08-.01,.14-.02,.22-.28,.31-.57,.62-.85,.93l-.89,.2,.27,.48c-.1,.1-.18,.18-.26,.27l-.59,.03,.12,.5c-.15,.15-.31,.32-.44,.48l-.83-.04,.25,.66c-.85,.94-1.71,1.88-2.56,2.81Z" fill="#e85d04"/>
        <rect x=".48" y="21.17" width="1.35" height="2.36" rx=".37" ry=".37" transform="translate(16.14 5.73) rotate(45)" fill="#e85d04"/>
        <rect x=".66" y="21.49" width=".98" height="1.72" rx=".37" ry=".37" transform="translate(16.14 5.73) rotate(45)" fill="#ffba08"/>
        <path d="M14.58,7.79c-1.7,.62-4.55,1.66-5.1,3.61-.47,1.63,1.12,2.35,.58,4.32-.05,.17-.48,1.65-1.87,2.35-1.62,.81-3.55,.08-3.54-.2,0-.33,2.71,.27,3.78-1.12,1.26-1.65-1.33-4.04-.31-6.3,1.34-2.95,7.71-3.11,7.72-3.03,0,.02-.37,.05-1.26,.37Z" fill="#9e2b10"/>
        <rect x="15.27" y="6.93" width="1.15" height="1.53" transform="translate(10.09 -8.95) rotate(45)" fill="#9e2b10"/>
        <path d="M22.45,.89c-.29,.24-.74,.07-1.86,1.39-1.12,1.32-2.1,1.01-2.41,1.86-.3,.85-.88,1.01-1.36,1.15-.22,.06-.7,.22-1.13,.41,2.02-1.86,4.01-3.69,6.03-5.54,.6-.06,1.19-.1,1.78-.15-.42,.36-.89,.76-1.05,.88Z" fill="#ffba08"/>
        <path d="M17.41,8.78c0-.06,0-.13,0-.18,0-.26-.08-.53-.22-.79-.4,.12-.85,.05-1.16-.26-.36-.36-.4-.89-.18-1.34,.48,.2,1.05,.55,1.17,.11,.21-.74,.68,.34,1.02,.48,.34,.13,1.12-.57,1.04-1.32-.06-.75,.75-.47,1.16-.81,.41-.34,.23-.71,.23-.71,0,0,1.19-.38,1.6-1.12,.2-.39,.7-.53,1.13-.6,0,.08-.01,.14-.02,.22-.28,.31-.57,.62-.85,.93l-.89,.2,.27,.48c-.1,.1-.18,.18-.26,.27l-.59,.03,.12,.5c-.15,.15-.31,.32-.44,.48l-.83-.04,.25,.66c-.85,.94-1.71,1.88-2.56,2.81Z" fill="#d14c02"/>
        <path d="M4.14,18.93c0,.76-.96,1.21-1.67,1.44l1.71-1.71c-.03,.08-.04,.18-.04,.27Z" fill="#35312c"/>
        <path d="M7.37,16.38c-.46,.19-1.11,.47-1.72,.83l2.04-2.04c.29,.57,.55,.87-.32,1.22Z" fill="#35312c"/>
        <path d="M10.68,13.21c-.31-.01-.74,.04-1.17,.13l2.04-2.04c.06,.68,.02,1.95-.87,1.9Z" fill="#35312c"/>
        <path d="M15.68,8.6l-.68,.68c-.41,.27-1.06,.67-1.44,.71-.22,.03-.57,.1-.92,.22l.78-.78c.55-.11,1.36-.31,1.65-.57,.18-.15,.4-.23,.61-.26Z" fill="#35312c"/>
        <path d="M11.78,8.38s-4.03,.85-3.18,3.59,.71,4.1,.71,4.1c0,0,.47-2.44-.17-4.64s2.64-3.05,2.64-3.05Z" fill="#84200c"/>
      </g>
    </g>
  </g>
</svg>