<?xml version="1.0" encoding="UTF-8"?>
<svg id="_Шар_2" data-name="Шар 2" xmlns="http://www.w3.org/2000/svg" viewBox="0 0 24.02 24.02">
  <g id="Speer">
    <g>
      <path d="M12.55,24.02s-.01,0-.01-.02h.01v.02Z" fill="#302e2c"/>
      <path d="M24.02,2.67c-.03,.31-.41,2.91-2,6.29-.16,.36-.37,.72-.56,1.1-.19,.39-.4,.75-.62,1.11-1.43,2.21-3.04,3.72-3.67,4.7-.31,.48-.39,.85-.15,1.15,.03,.04,.07,.08,.11,.12,.54,.51,1.06,.59,1.46,.53,.34-.05,.59-.21,.67-.26-.28,.31-2.6,2.8-4.85,3.77-.59,.25-1.18,.39-1.73,.36-.33-.02-.61-.08-.83-.15,.4,1.28,.63,2.27,.69,2.61-.05-.08-.13-.22-.24-.41h-.01c-.61-1.03-2.06-3.5-3.62-5.66l-.27,.27c-.07,.06-.14,.1-.22,.13-.02,.07-.06,.15-.12,.21l-.36,.35c-.1,.11-.24,.16-.38,.16-.03,.16-.08,.31-.2,.43-.29,.29-.74,.31-1.07,.05-.03,0-.06-.03-.07-.04l-.34,.33-3.81,3.81-.36,.37H.03v-1.18l1.27-1.27,.64-.63,.02-.02,.22-.23h0s.75-.75,.75-.75l.02-.02h.01s.13-.15,.13-.15l.14-.14,.58-.58,.02-.02,.3-.3,.02-.02,.51-.51s-.04-.05-.06-.09l-.02-.02c-.24-.32-.2-.77,.07-1.05,.09-.08,.19-.13,.29-.16,.04-.02,.09-.03,.14-.04,0-.04,.01-.08,.03-.11,0-.1,.06-.19,.13-.27l.36-.35,.02-.02c.05-.05,.12-.08,.19-.11,.02-.07,.05-.14,.1-.19t.02-.02l.27-.27s-.07-.05-.1-.07c-.86-.62-1.76-1.23-2.6-1.77-.67-.44-1.31-.83-1.84-1.14-.1-.06-.19-.11-.27-.16-.68-.42-1.16-.69-1.3-.78,.11,.02,.3,.07,.56,.13,.17,.04,.36,.09,.57,.14,.43,.11,.95,.25,1.52,.41,0-.01,0-.02,0-.03-.08-.2-.1-.45-.14-.75-.04-.51,.08-1.05,.29-1.61,.07-.15,.14-.31,.21-.47,.09-.18,.19-.37,.3-.55,.08-.14,.17-.28,.26-.41,.2-.32,.42-.62,.65-.92,.14-.16,.27-.33,.4-.49,.26-.31,.52-.61,.76-.87,.59-.64,1.08-1.09,1.24-1.23,.01-.01,.02-.02,.03-.03,0,0,0-.01,.02-.01-.01,.01-.03,.03-.04,.05-.03,.04-.07,.11-.11,.19-.05,.08-.09,.18-.12,.3-.08,.29-.09,.67,.13,1.09,.08,.16,.19,.31,.34,.47,.04,.04,.08,.08,.12,.11,.95,.79,2.55-1.54,5.6-3.57t0-.01s.07-.05,.1-.07c.42-.27,.85-.51,1.29-.75,.72-.39,1.41-.7,2.08-.99,.02-.01,.05-.02,.07-.03,2.36-1.01,4.19-1.39,4.91-1.52,.22-.03,.34-.05,.34-.05-1.93,1.04-3.67,2.1-5.24,3.08-2.27,1.49-4.13,2.86-5.58,4.11l-.03,.03c-1.66,1.46-2.71,2.76-3.07,3.9,.12,.88,.5,1.67,1.05,2.35,.02,.02,.04,.05,.06,.07l.03,.02c.87-.33,1.72-.98,2.45-1.76,.02-.03,.05-.05,.07-.08,1.84-1.97,3.08-4.64,3.08-4.64,.01,.01,.03,.02,.04,.03,.12,.11,.52,.36,1.6,0,.38-.14,1.18-.75,2.04-1.55h.01c2.07-1.79,4.72-4.54,4.72-4.54l.4-.27h.01l.31-.21-.5,.75s-2.65,2.61-4.51,4.66c-.78,.93-1.47,1.76-1.58,2.17-.47,1.3,0,1.61,0,1.61,0,0-1.56,.73-3.16,1.89-1.25,.91-2.57,2.08-3.16,3.4-.01,.01-.02,.02-.02,.03,.82,.54,1.78,.89,2.79,1.06,.11,.03,.23,.04,.35,.06,.07-.04,.13-.07,.2-.12,1.57-.92,3.47-2.95,5.57-5.94,.03-.04,.06-.08,.09-.13,.42-.61,.86-1.29,1.34-2.03l.02-.02h0c.93-1.5,1.92-3.16,2.95-5,0,0,0-.02,0-.04,.07-.11,.14-.2,.2-.31Z" fill="#302e2c"/>
      <path d="M16.98,15.69c-1.04,.47-2.28,.59-3.49,.41,1.59-.86,3.57-2.94,5.77-6.06,.45-.64,.93-1.36,1.44-2.16,1.01-1.59,2.08-3.38,3.21-5.38,0,0-.33,2.69-2.05,6.29-.16,.36-.38,.72-.57,1.1-.19,.38-.4,.74-.62,1.1-1.44,2.21-3.05,3.72-3.69,4.7Z" fill="#293d60"/>
      <path d="M7.05,15.89c.1,.1,.24,.24,.34,.39-.22-.17-.44-.33-.68-.47l-.02-.02,.03-.03c.05-.05,.05-.1,.08-.13l.26,.26Z" fill="#474849"/>
      <path d="M14.2,20.98c-.59,.25-1.17,.4-1.72,.37-.32-.01-.6-.08-.82-.14-.28-1.07-.66-2.28-1.14-3.43,1.29,.83,2.58,1.9,3.68,3.21Z" fill="#2b4468"/>
      <path d="M10.58,7.25c-1.66,1.47-2.71,2.76-3.08,3.9-.31-2.34-1.58-3.04-2.79-4.15,1.05-1.24,2.06-2.16,2.06-2.16,0,0-.87,1.01,.19,2.12,.94,1.04,2.56-1.45,5.8-3.58,.41-.27,.85-.51,1.28-.75,.74-.4,1.45-.73,2.14-1.03,3.05-1.32,5.22-1.6,5.22-1.6-1.92,1.05-3.66,2.12-5.23,3.11-2.26,1.49-4.12,2.86-5.57,4.12l-.03,.03Z" fill="#304572"/>
      <path d="M8.07,17.14c.05,0,.1-.05,.15-.06-.17-.17-.39-.39-.6-.55-.07-.07-.12-.17-.22-.22-.09-.15-.24-.29-.34-.39,.66,.3,1.35,.62,2.09,1,.47,.26,.91,.54,1.37,.85,.48,1.16,.86,2.37,1.14,3.43,.4,1.29,.61,2.28,.67,2.6-.28-.44-2.25-3.97-4.27-6.67Z" fill="#293c5e"/>
      <path d="M8.21,17.05c-.05,0-.1,.05-.15,.06-.17-.22-.31-.41-.45-.61,.22,.17,.44,.38,.6,.55Z" fill="#474849"/>
      <path d="M8.21,17.05c-.05,0-.1,.05-.15,.06-.74,.3-1.87,1-3.66,2.8l-.24-.24,.03-.03-.24-.24c1.74-1.74,2.46-2.85,2.77-3.59l-.02-.02,.03-.03c.05-.05,.05-.1,.08-.13l.26,.26c.1,.1,.24,.24,.34,.39,.1,.05,.14,.14,.22,.22,.22,.17,.44,.38,.6,.55Z" fill="#236cd8"/>
      <path d="M10.21,15.43c0,.05-.03,.13-.06,.15-.27-.27-.63-.53-1.02-.76l-.02-.02c-.28-.44-.57-.83-.86-1.12l.23-.08c.05,0,.08-.03,.1-.05l.02,.02c.86-.33,1.72-.99,2.45-1.77,1.88-1.97,3.16-4.7,3.16-4.7,0,0,.31,.46,1.63,.01,.38-.14,1.18-.75,2.04-1.56,2.07-1.78,4.73-4.54,4.73-4.54l.72-.48-.5,.75s-2.65,2.61-4.51,4.66c-.79,.93-1.47,1.76-1.59,2.16-.48,1.29-.01,1.6-.01,1.6,0,0-1.56,.74-3.15,1.9-1.26,.93-2.58,2.1-3.19,3.43-.06,.15-.11,.25-.17,.41Z" fill="#2f7edd"/>
      <path d="M16.17,3.11c-2.26,1.49-4.12,2.86-5.57,4.12,.6-1.27,1.43-2.63,2.15-3.84,.41-.27,.85-.51,1.28-.75,.74-.4,1.45-.73,2.14-1.03-.14,.48-.14,1.01,0,1.5Z" fill="#384b7f"/>
      <path d="M16.71,9.69s-1.56,.74-3.15,1.9c-.98,.21-1.86,.32-2.51,.2,1.88-1.97,3.16-4.7,3.16-4.7,0,0,.31,.46,1.63,.01,.38-.14,1.18-.75,2.04-1.56,.14,.14,.29,.29,.44,.38-.79,.93-1.47,1.76-1.59,2.16-.48,1.29-.01,1.6-.01,1.6Z" fill="#2491ea"/>
      <path d="M20.67,10.99c-.33-.54-.77-.92-1.41-.95,.45-.64,.93-1.36,1.44-2.16,.44,.33,.85,.64,1.17,.91-.16,.36-.38,.72-.57,1.1-.19,.38-.4,.74-.62,1.1Z" fill="#2f426d"/>
      <path d="M14.2,20.98c-1.1-1.31-2.39-2.39-3.68-3.21-.46-.31-.9-.59-1.37-.85-.74-.37-1.42-.7-2.09-1l-.26-.26s-.03,.08-.08,.13l-.03,.03-.02-.02C3.97,13.77,.51,11.82,.1,11.56c.32,.06,1.34,.3,2.63,.65,1.43,.44,3.24,1,4.81,1.74l.02,.02c.57,.25,1.06,.53,1.54,.82l.02,.02c.39,.23,.76,.5,1.02,.76l.34,.34c.74,.85,1.77,.88,3,.18,1.22,.18,2.45,.06,3.49-.41-.35,.54-.41,.94-.05,1.25,1.11,1.06,2.14,.22,2.14,.22,0,0-2.49,2.77-4.88,3.82Z" fill="#2f426d"/>
      <path d="M7.05,15.89c-.15-.04-.25-.09-.35-.14,.05-.05,.05-.1,.08-.13l.26,.26Z" fill="#474849"/>
      <path d="M9.11,14.79c-.49-.28-.98-.56-1.54-.82l-.02-.02c-1.57-.74-3.38-1.3-4.81-1.74-.09-.2-.11-.47-.15-.77-.1-1.4,1.02-3.09,2.12-4.44,1.21,1.1,2.48,1.81,2.79,4.15-.34,.91-.19,1.68,.49,2.26l.26,.26c.29,.29,.57,.68,.86,1.12Z" fill="#293c5e"/>
      <path d="M13.49,16.1c-1.23,.7-2.25,.66-3-.18l-.34-.34c-.27-.27-.63-.53-1.02-.76l-.02-.02c-.28-.44-.57-.83-.86-1.12l-.26-.26c-.68-.57-.82-1.34-.49-2.26,.12,.9,.51,1.71,1.08,2.39l.02,.02c.45,.61,1.06,1.11,1.77,1.46,.9,.59,1.99,.95,3.11,1.08Z" fill="#2491ea"/>
      <ellipse cx="14.82" cy="9.04" rx="3.47" ry=".08" transform="translate(-2.05 13.13) rotate(-45)" fill="#48b5ff"/>
      <path d="M22.37,6.39c.49-1.01,.66-1.64,.7-1.63,.05,.01-.08,.8-.49,1.65-.41,.86-.96,1.49-1,1.46-.03-.02,.33-.53,.78-1.48Z" fill="#3860a5"/>
      <path d="M6.62,12.24c-.15,.04-.28-.62-1.04-2.11-.75-1.47-1.22-1.99-1.1-2.11,.16-.14,1.2,.45,1.79,1.47,.68,1.2,.56,2.68,.35,2.74Z" fill="#2b4468"/>
      <polygon points="6.02 19.2 5.87 19.35 5.86 19.37 5.53 19.7 5.52 19.7 3.81 21.41 3.81 21.42 3.4 21.83 3.39 21.83 2.87 22.35 1.71 23.51 1.71 23.52 1.32 23.91 1.31 23.91 1.23 24 .03 24 .03 22.69 0 22.66 .03 22.63 .77 21.89 1.2 21.46 1.86 20.8 2.87 19.79 3.01 19.65 3.14 19.52 3.74 18.92 4.05 18.61 4.58 18.09 4.59 18.07 4.74 17.92 5.59 18.77 6.02 19.2" fill="#281f13"/>
      <rect x="5.54" y="15.89" width="3.41" height="1.6" rx=".37" ry=".37" transform="translate(13.92 -.23) rotate(45)" fill="#2f426d"/>
      <rect x="4.84" y="16.58" width="3.41" height="1.6" rx=".37" ry=".37" transform="translate(14.21 .46) rotate(45)" fill="#3d568e"/>
      <path d="M6.99,19.35c-.29,.29-.74,.32-1.06,.06-.03,0-.06-.03-.08-.05l-1.28-1.28s-.05-.05-.06-.09c-.26-.32-.23-.77,.06-1.06,.15-.15,.33-.21,.53-.23,.21,0,.44,.08,.6,.24l1.27,1.27c.17,.17,.24,.39,.24,.6-.02,.2-.08,.38-.23,.53Z" fill="#2f426d"/>
      <path d="M2.93,19.88h.02s-.01,.03-.01,.04c-.11,.34-.25,.71-.43,1.05-.08,.16-.15,.3-.26,.43-.12,.21-.26,.41-.42,.58-.11,.13-.23,.25-.35,.37-.09,.09-.19,.17-.3,.27-.2,.17-.41,.38-.62,.56-.16,.17-.35,.35-.53,.5v-.99l-.03-.03,.03-.03,.74-.74,.43-.43,.66-.66,1.01-1.01,.14-.14c-.02,.08-.03,.15-.08,.23Z" fill="#493c30"/>
      <polygon points="1.32 23.91 1.23 24 .23 24 .03 23.68 .03 22.69 .1 22.75 .56 23.18 1.31 23.91 1.32 23.91" fill="#6b3f20"/>
      <polygon points="2.61 22.61 1.71 23.52 1.18 22.62 .77 21.89 1.19 21.46 1.83 21.98 2.61 22.61" fill="#6b3f20"/>
      <polygon points="3.4 21.83 2.87 22.35 2.25 21.4 1.86 20.8 2.09 20.57 2.51 20.97 3.4 21.83" fill="#7a4521"/>
      <polygon points="4.48 20.74 3.81 21.42 2.95 19.89 2.93 19.88 2.87 19.79 3.14 19.52 4.48 20.74" fill="#6b3f20"/>
      <polygon points="5.53 19.7 4.83 20.39 3.74 18.91 4.05 18.61 5.53 19.7" fill="#7a4521"/>
      <polygon points="4.83 20.39 4.48 20.74 3.14 19.52 3.74 18.91 4.83 20.39" fill="#afa8a8"/>
      <polygon points="3.81 21.42 3.4 21.83 2.51 20.97 2.09 20.57 2.87 19.79 2.93 19.88 2.95 19.89 3.81 21.42" fill="#afa8a8"/>
      <polygon points="2.87 22.35 2.61 22.61 1.83 21.98 1.19 21.46 1.86 20.8 2.25 21.4 2.87 22.35" fill="#afa8a8"/>
      <polygon points="1.71 23.51 1.71 23.52 1.32 23.91 1.31 23.91 .56 23.18 .1 22.75 .03 22.69 0 22.66 .03 22.63 .77 21.89 .84 22.01 1.18 22.62 1.71 23.51" fill="#afa8a8"/>
      <path d="M5.93,19.41s-.06-.03-.08-.05l-.33,.33-1.48-1.09,.53-.53s-.05-.05-.06-.09l1.42,1.42Z" fill="#6b3f20"/>
      <polygon points="4.83 20.39 4.48 20.74 3.14 19.52 3.74 18.91 4.83 20.39" fill="#824923"/>
      <polygon points="3.81 21.42 3.4 21.83 2.51 20.97 2.09 20.57 2.87 19.79 2.93 19.88 2.95 19.89 3.81 21.42" fill="#6b3f20"/>
      <polygon points="2.87 22.35 2.61 22.61 1.83 21.98 1.19 21.46 1.86 20.8 2.25 21.4 2.87 22.35" fill="#6b3f20"/>
      <polygon points="1.71 23.51 1.71 23.52 1.32 23.91 1.31 23.91 .56 23.18 .1 22.75 .03 22.69 0 22.66 .03 22.63 .77 21.89 .84 22.01 1.18 22.62 1.71 23.51" fill="#7a4521"/>
      <polygon points=".03 24 .03 23.68 .23 24 .03 24" fill="#6b3f20"/>
    </g>
  </g>
</svg>