<?xml version="1.0" encoding="UTF-8"?>
<svg id="_Шар_2" data-name="Шар 2" xmlns="http://www.w3.org/2000/svg" viewBox="0 0 23.97 23.41">
  <g id="Speer">
    <path d="M23.87,0c-1.23,.23-2.97,.68-4.98,1.64-2.89,1.37-4.96,3.16-6.13,4.3-.15,.8-.5,2.12-1.49,3.6-1.48,2.29-3.47,3.53-4.41,4.03-.16-.08-.31-.17-.48-.24,0,0-.01,0-.01,0-1.43-.82-3.29,.13-3.29,.13,1.59-.64,2.86,.53,3.42,1.18-.01,.02-.02,.05-.03,.08-.02,.05-.05,.08-.08,.11-.12,.11-.28,.18-.43,.27-.02-.02-.03,0-.03,0h-.03c.09,.05,.28,.15,.5,.31-.1,.14-.19,.27-.29,.43-.14,.18-.31,.38-.48,.57-.01,.03-.04,.05-.06,.08-.13,.16-.28,.33-.44,.5-.04,.04-.08,.09-.13,.14-.14,.16-.3,.32-.45,.49-.15,.15-.31,.29-.45,.43h-.01c-.34,.31-.65,.59-.98,.84-.21,.18-.43,.34-.64,.49-.09,.07-.18,.12-.27,.19-.37,.03-.73,.18-1.02,.46-.17,.17-.3,.37-.38,.58-.27,.31-.53,.61-.8,.92v1.88H1.84c.27-.22,.53-.43,.8-.65,.32-.06,.62-.2,.87-.45s.4-.56,.46-.88c.53-.74,1.21-1.55,2.05-2.37h.01c.12-.12,.23-.23,.36-.33,.16-.15,.33-.29,.48-.42,.07-.06,.13-.12,.2-.17,.24-.2,.48-.39,.71-.56,.03,.2,.04,.38,.04,.45v.03c.05-.04,.15-.11,.23-.17,2.09-.75,2.96,.93,2.96,.93,.05-.46-.37-1.09-.68-1.49,0,0,0,0,.01,0-.11-.31-.22-.53-.32-.72,.38-.8,1.29-2.3,3.11-3.3,1.23-.68,2.42-.86,3.11-.9,.29-.84,.66-1.83,1.17-2.93l-.21-.1-.05-.02-.54-.24,.71-.1h.03s.31-.05,.31-.05c.11-.24,.23-.49,.36-.74l-.71-.28,1.07-.4c.14-.25,.28-.5,.43-.76l-.71-.34,1.33-.69c.05-.09,.1-.18,.16-.27,.37-.58,.74-1.13,1.12-1.64,.25-.34,.5-.66,.73-.97,.15-.19,.3-.39,.45-.57,.15-.19,.3-.37,.45-.55,.3-.35,.58-.67,.86-.98l.81-.78h-.1Z" fill="#474849"/>
    <path d="M5.25,18.7l.66,.35h0c-.93,.94-1.67,1.86-2.21,2.67l-1.9-1.9c.21-.13,.42-.28,.63-.44,.21-.15,.42-.31,.63-.49,.32-.25,.63-.53,.96-.84h.01l1.23,.65Z" fill="#9b8b5d"/>
    <path d="M6.73,18.31c-.15,.13-.31,.27-.47,.42l-.85-1-.51-.6s.09-.1,.13-.14l.8,.62,.9,.7Z" fill="#5e3c25"/>
    <path d="M8.35,17.06c-.45,.3-.92,.66-1.42,1.08l-.63-.78-.78-.95c.17-.19,.33-.39,.47-.57,.16-.25,.31-.46,.46-.68l1.9,1.9Z" fill="#9b8b5d"/>
    <path d="M4.02,18.05l1.23,.65c.01,.22-.12,.27-.65,.37-.8,.15-.97-.32-.57,.63,.42,.97-1.07,.06-1.52,.66-.03,.03-.06,.06-.1,.08l-.62-.62c.21-.13,.42-.28,.63-.44,.21-.15,.42-.31,.63-.49,.32-.25,.63-.53,.96-.84h.01Z" fill="#b6ad90"/>
    <path d="M6.42,17.28s-.08,.06-.12,.08l-.78-.95c.17-.19,.33-.39,.47-.57,.56,.37,1.09,.93,.43,1.44Z" fill="#b6ad90"/>
    <path d="M10.14,17.33c-.27-.04-.65-.06-1.04,0-.19,.04-.35,.07-.51,.14-.45,.2-.76,.45-.92,.58v-.03c0-.1,0-.33-.06-.61-.05-.31-.15-.67-.39-1.05-.5-.79-1.2-1.16-1.4-1.27,0,0,.02-.02,.03,0,.14-.08,.31-.15,.42-.27,.03-.03,.07-.07,.08-.11,.05-.05,.07-.1,.1-.16,.02-.02,.02-.05-.01-.05,.03-.1,.04-.16,0-.22,.01-.35-.15-.71-.44-.97,.05-.08,.24,0,.27,0,2.39,1.05,3.46,3.1,3.46,3.1,.12,.19,.27,.5,.41,.9Z" fill="#6b877b"/>
    <path d="M23.52,0l-.79,.78c-.27,.31-.55,.63-.84,.98-.15,.18-.29,.36-.44,.55-.15,.19-.3,.37-.45,.57h-.01c-.23,.31-.46,.63-.7,.97-.37,.51-.74,1.06-1.1,1.64-.06,.09-.11,.18-.16,.27l-1.3,.69,.7,.34c-.15,.26-.28,.51-.42,.76l-1.05,.4,.7,.28c-.12,.25-.24,.5-.35,.74l-.3,.04h-.03s-.7,.11-.7,.11l.53,.24,.05,.02,.21,.1c-.5,1.1-.87,2.09-1.15,2.93-.68,.04-1.84,.22-3.05,.9-2.07,1.16-2.94,3-3.19,3.63l-.03-.03-.53-.52h0s-2.66-2.67-2.66-2.67c.75-.39,2.99-1.64,4.6-4.18,.97-1.48,1.31-2.8,1.46-3.6,1.14-1.14,3.17-2.93,6.01-4.3,1.98-.96,3.68-1.41,4.89-1.64h.1Z" fill="#8ab2a1"/>
    <path d="M22.73,.78c-.27,.31-.55,.63-.84,.98-.15,.18-.29,.36-.44,.55-.15,.18-.29,.38-.44,.57-.23,.31-.47,.63-.72,.97-.37,.51-.74,1.06-1.1,1.64-.06,.09-.11,.18-.16,.27l-1.3,.69,.7,.34c-.15,.26-.28,.51-.42,.76l-1.05,.4,.7,.28c-.12,.25-.24,.5-.35,.74l-.3,.04h-.03s-.7,.11-.7,.11l.53,.24,.05,.02,.21,.1c-.5,1.1-.87,2.09-1.15,2.93-.68,.04-1.84,.22-3.05,.9-2.07,1.16-2.94,3-3.19,3.63l-.03-.03-.53-.52h0c-.33-1.49-.02-3.23,.84-3.97,1.14-.95,2.88,0,4.14-1.31,.76-.77,.86-1.82,.86-1.91,.12-1.22-.67-1.65-.59-2.72,.06-1.01,.81-1.73,1.41-2.3,1.08-1.05,4.03-3.32,6.95-3.4Z" fill="#7ea591"/>
    <path d="M21.01,2.88c-.23,.31-.47,.63-.72,.97-.37,.51-.74,1.06-1.1,1.64-.06,.09-.11,.18-.16,.27l-1.3,.69,.7,.34c-.15,.26-.28,.51-.42,.76l-1.05,.4,.7,.28c-.12,.25-.24,.5-.35,.74l-.3,.04h-.03s-.7,.11-.7,.11l.53,.24,.05,.02,.21,.1c-.5,1.1-.87,2.09-1.15,2.93-.68,.04-1.84,.22-3.05,.9-2.07,1.16-2.94,3-3.19,3.63l-.03-.03c0-1.14,.58-2.61,1.41-3.38,1.11-.99,2.34-.53,3.62-1.84,.77-.77,1.05-1.63,1.06-1.71,.32-1.02-.24-1.22,.02-2.1,.23-.85,.98-1.57,1.59-2.14,.68-.68,2.09-1.9,3.64-2.85h.01s.01-.01,.01-.01Z" fill="#77968a"/>
    <path d="M15.17,4.37c-.98,1.02-1.28,1.89-1.32,2.58-.07,1.29,.78,1.81,.41,2.85-.38,1.1-1.7,1.57-1.79,1.6-.73,.25-1.36,.14-1.63,.08,.17,0,1.17-.04,1.68-.73,.24-.33,.33-.76,.38-1.01,.09-.41,.08-.73,.08-.85,0-.8,.21-1.95,.62-2.77,.2-.4,.63-1.09,1.55-1.75Z" fill="#96bcab"/>
    <path d="M21.09,1.91s-3.78,.96-4.57,3.01c0,0,1.66-1.58,3.11-1.7,0,0,.28-.51,1.46-1.31Z" fill="#8ab2a1"/>
    <path d="M16.81,9.36l.05,.02c-.39,.93-1.06,2.55-1.07,2.65,0,0-.92,.18-1.48,.37,.43-.22,1.15-.64,1.44-1.1,.27-.43,.74-1.32,1.06-1.94Z" fill="#809e92"/>
    <path d="M17.12,8.75s-.05,.13-.11,.26h-.03c.07-.12,.12-.22,.14-.26Z" fill="#809e92"/>
    <path d="M10.14,17.33c-.27-.04-.65-.06-1.04,0-.19,.04-.35,.07-.51,.14-.43,.16-.72,.39-.92,.55,0-.1,0-.33-.06-.61-.07-.3-.19-.64-.43-1.05-.5-.79-1.2-1.16-1.4-1.27h.03s.02-.02,.03,0c.1-.03,.29-.1,.42-.27,.03-.03,.07-.07,.08-.11,.03-.06,.07-.13,.09-.21,.02-.08,.04-.16,0-.22,.01-.35-.15-.71-.44-.97,.47,.27,.99,.6,1.55,1.06,1.28,1.05,2.1,2.16,2.59,2.95Z" fill="#749985"/>
    <path d="M6.61,13.84s2.35,1.92,2.93,3.1c-.12-.05-.28-.1-.47-.09-.64,.03-1.05,.63-1.09,.69,.24-.6,.18-.97,.09-1.21-.35-.85-1.81-1.2-1.81-1.2h0s.4,.02,.6-.25c.09-.13,.1-.27,.1-.34,.02-.39-.28-.65-.35-.7Z" fill="#7ea591"/>
    <path d="M7.62,15.17s1.1,1,1.35,1.52c0,0-1.1-1.15-1.03-.95,.06,.2-.33-.52-.29-.37,.04,.15-.03-.2-.03-.2Z" fill="#8ab2a1"/>
    <path d="M3.36,22.12c-.52,.42-1.03,.86-1.55,1.29H0v-1.88c.44-.51,.87-1.01,1.29-1.51,.69,.69,1.38,1.41,2.07,2.1Z" fill="#9b8b5d"/>
    <g>
      <circle cx="2.3" cy="21.17" r="1.62" fill="#7ea591"/>
      <circle cx="2.3" cy="21.17" r="1.31" fill="#8ab2a1"/>
    </g>
    <path d="M3.39,21.08s-1.1-1.47-1.75-.43c0,0,.54-.29,1.75,.43Z" fill="#97bfad"/>
    <path d="M3.02,13.46s2.64-1.39,4.02,.61-.36,.98-.36,.98c0,0-1.55-2.45-3.66-1.59Z" fill="#749985"/>
    <path d="M9.81,16.95s1.06,1.15,.98,1.87c0,0-.9-1.79-3.08-.87,0,0,1.02-.87,1.4-.89s.69-.11,.69-.11Z" fill="#77968a"/>
    <path d="M6.26,18.73c-.12,.1-.23,.21-.35,.32l-.66-.35-1.23-.65c.14-.14,.29-.28,.44-.43,.15-.17,.3-.33,.44-.49l.51,.6,.85,1Z" fill="#7c5439"/>
    <path d="M6.93,18.14c-.07,.05-.13,.11-.2,.17l-.9-.7-.8-.62c.16-.17,.3-.34,.43-.5,.02-.03,.05-.05,.06-.08l.78,.95,.63,.78Z" fill="#7c5439"/>
  </g>
</svg>