<?xml version="1.0" encoding="UTF-8"?>
<svg id="_Шар_2" data-name="Шар 2" xmlns="http://www.w3.org/2000/svg" viewBox="0 0 24 23.97">
  <g id="Speer">
    <g>
      <g>
        <path d="M6.89,16.28l-.3,.31-1.02,1.05-.55,.57-.36,.36,.73,.71,.98,.95c.18-.17,.35-.36,.51-.54,.45-.47,.87-.92,1.26-1.38,.12-.14,.26-.3,.38-.44,.19-.21,.36-.42,.55-.64,.09-.11,.18-.22,.27-.33l-1.56-1.53-.88,.91Z" fill="#474849"/>
        <path d="M6.37,20.23c-.14,.16-.31,.33-.47,.5-.13,.14-.27,.27-.42,.41-.33,.34-.68,.68-1.06,1.04-.22,.21-.45,.42-.67,.62-.47,.43-.91,.82-1.32,1.17H0v-.61l2.77-2.85,.05-.05,.96-.98,.89-.91,.25,.25,.34,.32,.09,.1,.38,.37,.48,.47,.16,.15Z" fill="#474849"/>
        <path d="M24,.14l-.3,.17-.31,.19s-.01,0-.01,.01l-5.23,3.15-.29,.88-.02,.07c-.05-.02-.1-.03-.14-.04-.11-.02-.2-.02-.26,.02h-.01s-.02,0-.02,.01c0,.01,0,.03,0,.04-.04,.06-.09,.12-.13,.19-.47,.66-1.03,1.38-1.65,2.11-.01,0-.03-.01-.05-.01-.01,0-.02-.02-.03-.02,0-.02-.02-.03-.04-.02t-.02-.02c-.07-.04-.15-.06-.23-.06-.18-.03-.39,.05-.55,.21l-.13,.14v-.2s-.1-1.7-.1-1.7l-.08-.03-6.16-2.36s.01,.02,.06,.07c.01,0,.01,.01,.02,.02-.01-.01-.02-.01-.02-.01h0s-.02-.03-.03-.03c-.03-.02-.04-.03-.04-.03l2.36,6.15,.03,.09,1.69,.08h.19s-.02,.02-.02,.02c-.23,.24-.29,.58-.14,.8h.01s.03,.06,.05,.08,.04,.02,.06,.03c-.38,.33-.76,.64-1.12,.93-.02,.01-.04,.03-.06,.04-.43,.34-.84,.64-1.23,.91-.04,.03-.08,.06-.11,.08-.01,.01-.02,.01-.03,.02-.02,.02-.03,.05-.03,.09,0,.12,.09,.3,.24,.52,.03,.05,.06,.1,.1,.15h-.01s-2.42,2.49-2.42,2.49l.59,.58,.82,.8,.15,.15c.72-.85,1.45-1.71,2.26-2.65,.33,.23,.59,.34,.68,.25,0-.01,0-.03,.02-.05,.15-.22,.31-.44,.46-.67,.01-.01,.01-.02,.02-.03,.5,.62,1.07,1.65,1.1,3.33,.01,.29,.01,.59-.02,.92-.07,.93-.29,1.85-.56,2.69h0s-.02,.08-.03,.11c-.08,.2-.15,.41-.23,.61-.15,.37-.3,.72-.45,1.04h0c-.15,.33-.29,.62-.42,.87,1.75-1.63,3.65-3.46,5.66-5.51,1.24-1.27,2.4-2.49,3.47-3.64,.6-.65,1.19-1.29,1.73-1.9-.11-.03-.23-.07-.35-.11-.96-.32-2.03-.87-2.95-1.82-.03-.03-.05-.05-.08-.09-.07-.07-.14-.14-.21-.22-.63-.73-1.03-1.53-1.3-2.27,.45-.39,.9-.76,1.33-1.09h.01s.01-.02,.02-.02t-.02-.01c.06-.07,.05-.19,.01-.32l1-.33L24,.16h-.01s0-.01,.01-.01h0Zm-10.58,7.94s-.04-.04-.06-.06c-.05-.05-.1-.1-.16-.15l-.1-.11-.16-.16c-.06-.07-.12-.13-.17-.19l.07,.06,.11,.11,.27,.27s.03,.02,.03,.03h0s.07,.07,.07,.07l.11,.11s.05,.04,.05,.04c.02,.03,.04,.05,.06,.06l-.02,.02s-.03-.03-.05-.05c-.02-.02-.03-.03-.05-.05Zm5.41-2.77s0-.01,0-.01c.01-.01,.03-.03,.04-.03l-.04,.04Z" fill="#474849"/>
      </g>
      <g>
        <ellipse cx="18.31" cy="5.5" rx=".51" ry="1.43" transform="translate(1.47 14.56) rotate(-45)" fill="#475963"/>
        <ellipse cx="10.96" cy="13.18" rx=".38" ry="1.65" transform="translate(-6.11 11.61) rotate(-45)" fill="#475963"/>
        <path d="M13.67,8.19l.35,.35-1.41,1.41c-.06,.06-.13,.1-.21,.11-.16-.19-.1-.5,.16-.76l1.11-1.11Z" fill="#596e7c"/>
        <path d="M15.52,6.83c.04,.07,0,.2-.08,.27l-1.43,1.43-.35-.35,1.14-1.14c.24-.24,.53-.32,.72-.22Z" fill="#596e7c"/>
        <g>
          <path d="M8.22,2.89l2.3,6.16,1.95,.07,.99-.99S8.23,2.82,8.22,2.89Z" fill="#637c89"/>
          <polygon points="13.2 7.88 11.12 8.52 9.48 4.13 13.2 7.88" fill="#596e7c"/>
          <path d="M8.23,2.87l6.16,2.3,.07,1.95-.99,.99S8.17,2.87,8.23,2.87Z" fill="#475963"/>
          <polygon points="9.46 4.13 13.86 5.76 13.22 7.86 9.46 4.13" fill="#546975"/>
          <path d="M13.49,8l.52,.52-1.41,1.41c-.06,.06-.14,.09-.22,.1-.04,0-.08-.02-.11-.05-.21-.21-.17-.6,.1-.87l1.12-1.12Z" fill="#475963"/>
          <path d="M13.47,8.04l.52,.52,1.41-1.41c.06-.06,.09-.14,.1-.22,0-.04-.02-.08-.05-.11-.21-.21-.6-.17-.87,.1l-1.12,1.12Z" fill="#475963"/>
          <line x1="9.19" y1="4.55" x2="10.34" y2="7.54" fill="none" stroke="#a1c1ce" stroke-linecap="round" stroke-miterlimit="10" stroke-width=".18"/>
        </g>
        <g>
          <path d="M23.88,0l-5.83,3.55-.57,1.68,.58,.58S23.93-.01,23.88,0Z" fill="#637c89"/>
          <polygon points="18.34 5.52 18.34 3.92 22.5 1.39 18.34 5.52" fill="#596e7c"/>
          <path d="M23.89,0l-3.55,5.83-1.68,.57-.58-.58S23.9-.05,23.89,0Z" fill="#475963"/>
          <polygon points="22.5 1.37 19.97 5.54 18.36 5.53 22.5 1.37" fill="#546975"/>
          <line x1="22.21" y1="1.25" x2="19.38" y2="3" fill="none" stroke="#a1c1ce" stroke-linecap="round" stroke-miterlimit="10" stroke-width=".15"/>
        </g>
        <path d="M8.37,15.95c.72-.32,1.45-.77,2.14-1.45,1.07-1.05,2.64-3.2,3.71-5.29,.29-.55,.69-1.41,1.55-2.29l.1-.1c.69-.68,1.41-1.12,1.92-1.4l1.09,1.07c-2.34,2.13-4.14,3.98-5.32,5.26-1.82,1.95-3.1,3.5-4.38,5l-.82-.8Z" fill="#875b32"/>
        <path d="M17.66,5.28c-.13,.03-.26,.08-.4,.12l.26-.26,.14,.14Z" fill="#936639"/>
        <polygon points="7.3 16.67 6.48 16.46 6.77 16.16 7.3 16.67" fill="#936639"/>
        <path d="M6.73,19.53l-.63-1.86,1.9,.48c-.4,.46-.81,.91-1.26,1.38Z" fill="#7f4721"/>
        <polygon points="5.26 19.14 4.54 18.45 4.9 18.08 5.26 19.14" fill="#7f4721"/>
        <path d="M5.33,20.98c-.33,.34-.69,.69-1.07,1.04-.22,.21-.45,.42-.67,.62-.16-.85-.59-1.6-.89-2.31l.96-.98,1.67,1.63Z" fill="#936639"/>
        <path d="M8.92,17.08l-1.62-.41-.53-.51,.88-.91,1.53,1.49c-.09,.11-.18,.22-.27,.33Z" fill="#7f4721"/>
        <path d="M7.99,18.15l-1.9-.48-.64-.16,1.02-1.05,.82,.21,1.62,.41c-.19,.21-.36,.42-.55,.63-.12,.14-.26,.3-.38,.44Z" fill="#99582a"/>
        <path d="M6.21,20.07l-.96-.93-.36-1.06,.55-.57,.64,.16,.63,1.86c-.16,.19-.33,.37-.51,.54Z" fill="#99582a"/>
        <path d="M5.74,20.57c-.13,.14-.26,.27-.41,.41l-1.67-1.63,.88-.91,1.67,1.63c-.14,.16-.31,.33-.47,.5Z" fill="#99582a"/>
        <path d="M3.59,22.65c-.53,.49-1.03,.93-1.48,1.32H0v-.86l2.7-2.77c.02,.06,.05,.11,.07,.17,.3,.66,.67,1.35,.82,2.14Z" fill="#875b32"/>
        <path d="M10.51,14.5c-.69,.68-1.42,1.13-2.14,1.45l-.71-.69L15.78,6.92c-.86,.88-1.27,1.74-1.55,2.29-1.08,2.09-2.64,4.24-3.71,5.29Z" fill="#936639"/>
        <path d="M17.8,5.42c-.52,.27-1.23,.72-1.92,1.4l1.38-1.42c.14-.04,.27-.1,.4-.12l.14,.14Z" fill="#936639"/>
        <g>
          <path d="M21.06,13.92c-1.03-.3-2.21-.87-3.22-1.91-.91-.92-1.42-1.98-1.72-2.91l1.76-1.79c.28,.91,.78,1.95,1.66,2.85,1.02,1.05,2.22,1.59,3.25,1.88-.54,.61-1.13,1.25-1.73,1.9Z" fill="#a1c1ce"/>
          <path d="M20.94,14.05c-.96-.37-2.08-1-3.1-2.04-.91-.92-1.49-1.92-1.85-2.78l1.41-1.43c.35,.84,.9,1.83,1.79,2.72,1.03,1.04,2.17,1.65,3.13,2.01-.43,.49-.89,1-1.37,1.52Z" fill="#637c89"/>
          <path d="M17.59,17.56c-2.01,2.05-3.91,3.88-5.66,5.51,.26-.51,.58-1.16,.88-1.91,1.34-1.27,2.74-2.65,4.22-4.15,1.15-1.18,2.24-2.32,3.24-3.4,.26,.13,.54,.22,.79,.29-1.07,1.16-2.23,2.37-3.47,3.64Z" fill="#637c89"/>
          <path d="M17.03,17.02c-1.48,1.5-2.88,2.88-4.22,4.15,.44-1.05,.85-2.3,1.02-3.54,.42-3.01-.74-4.35-1.33-4.84l3.63-3.69c.28,.89,.77,1.89,1.61,2.78,.03,.05,.07,.09,.11,.13,.76,.78,1.61,1.3,2.43,1.62-1,1.08-2.09,2.22-3.24,3.4Z" fill="#475963"/>
          <path d="M16.69,17.36c-1.34,1.36-2.62,2.61-3.83,3.76,.37-.98,.71-2.15,.8-3.33,.26-2.85-.91-4.17-1.5-4.67l3.29-3.34c.31,.86,.82,1.84,1.67,2.72,.03,.05,.07,.09,.11,.13,.76,.77,1.59,1.31,2.39,1.65-.91,.98-1.89,2.01-2.93,3.08Z" fill="#546975"/>
          <path d="M15.41,10.16s1.31,3.87,3.19,4.07c0,0-1.65,2.18-2.86,3.26,0,0,1.72-1.85,.67-3.5s-1-3.83-1-3.83Z" fill="#596e7c"/>
          <path d="M21.67,12.85s-5.86,6.24-7.2,7.4,7.2-7.4,7.2-7.4Z" fill="#7d949e"/>
        </g>
        <path d="M12.15,14.3c-.25-.36-.58-.78-1.01-1.2-.48-.47-.95-.83-1.35-1.09,1.23-.86,2.65-1.98,4.1-3.43,1.44-1.44,2.56-2.86,3.43-4.1,.12,.28,.35,.71,.75,1.13,.47,.5,.97,.76,1.27,.88-1.18,.91-2.49,2.05-3.81,3.47-1.42,1.52-2.53,3.01-3.39,4.33Z" fill="#596e7c"/>
        <path d="M12.94,12.73c-.56-.54-1.11-1.08-1.67-1.63,.88-.62,1.89-1.41,2.91-2.44s1.82-2.03,2.44-2.91c.09,.2,.25,.5,.53,.8,.34,.35,.69,.54,.9,.63-.84,.65-1.77,1.46-2.7,2.47-1.01,1.08-1.8,2.14-2.41,3.08Z" fill="#677d89"/>
      </g>
    </g>
  </g>
</svg>