<?xml version="1.0" encoding="UTF-8"?>
<svg id="konter" xmlns="http://www.w3.org/2000/svg" xmlns:xlink="http://www.w3.org/1999/xlink" viewBox="0 0 50 50">
  <defs>
    <clipPath id="clippath">
      <rect width="50" height="50" fill="none"/>
    </clipPath>
  </defs>
  <g clip-path="url(#clippath)">
    <rect width="50" height="50" fill="#040101"/>
    <path d="M71.6145202,54.3783964c-29.1001553-7.919241-34.0319657-4.7848063-31.8443398,24.304851-13.4089871-26.9609899-19.6985381-27.966757-42.5969864-10.5034764,11.6213571-24.1195655,7.701418-29.1399334-19.173194-33.2713851C1.3155389,28.1870426,1.6764048,22.3546155-14.7808061,4.3737405,7.5225337,12.4500935,12.454344,9.3156588,10.1603942-13.37234,23.6757053,7.1869913,29.9652563,8.1927584,44.8834328-10.6922969c-3.6410853,25.5413402,.2788538,30.5617081,27.1165672,27.129178-23.2786403,14.2853251-23.6395063,20.1177522-.3854798,37.9415152Z" fill="#3b383a"/>
    <path d="M52.8865984,61.9117113c-17.4823156-14.4249602-20.659762-12.488055-20.761504,8.6540335-6.9215127-19.1489406-10.767321-19.092698-20.8842584-3.2133804,2.5464397-17.6590408-1.1782496-19.4950061-16.8243815-12.301447C3.5238045,42.281674,1.1223961,38.8938544-14.63377,38.1596031c12.8026526-6.4599554,12.2505476-10.2663426-1.0733027-16.8641722C-1.5247908,20.6433071-.1142546,17.1997407-9.7794679,5.9741089,4.7827965,11.456814,7.9602429,9.5199088,2.5536744-5.4433148,14.9834976,7.526761,18.8293059,7.4705184,20.3069724-10.471913c6.0928311,19.7221546,9.8175205,21.5581198,22.546753,5.3503819-6.1904506,21.7834222-3.7890422,25.1712418,18.9261096,19.7063522-19.7616382,12.6590963-19.2095333,16.4654834,3.5625413,26.3106347-23.6305062-2.5951978-25.0410423,.8483686-12.4557779,21.0162555Z" fill="#650a0b"/>
    <path d="M48.1004728,44.5308548c-7.3467676-.5828108-9.7833225,1.5554212-9.1197035,8.6204252-6.3920593-4.3023085-9.6839448-3.6778452-12.7312964,3.0034032-3.7159802-7.0742826-7.1874265-8.0917797-13.9588808-3.9903803,.3247679-7.9065456-2.2436006-10.4540398-10.2280277-10.2975426,4.3719731-5.8877546,3.3278878-9.0715179-3.5130583-12.5908162,6.4913919-2.8309234,7.1859227-5.9973818,3.1401534-12.1392203,7.3877798,.479798,9.8243348-1.658434,8.9934705-8.7904161,6.5593045,4.3692867,9.85119,3.7448234,12.8079476-3.1916246,3.8065743,7.3294822,7.2780205,8.3469792,14.1974821,3.9798771-.4727752,8.1722483,2.0955933,10.7197425,10.3567773,10.5012811-4.64873,5.9497188-3.6046446,9.1334821,3.4051568,12.7626035-6.6602473,2.7211003-7.354778,5.8875587-3.3500211,12.13241Z" fill="#9a0101"/>
    <path d="M17.9345448,10.9789522l1.3933844,4.382411-8.1393422-3.9829364,5.4389059,6.3219599-9.7701603,1.5601089,9.7699011,1.5983061-5.1504149,6.123648,5.6085512-2.7207433-.1535171,4.7923105,1.7114572-3.0413814v-5.2300629l.0646842-.1425241,2.7517526-6.0878132-3.5252889-3.5732817,.0000869-.0000013Zm12.6134189,0l-3.1828937,3.2269888,2.8756017,6.4363865,.0646842,.1425241v5.678402l1.3368068,2.3770566-.1401491-4.4333944,5.6518451,2.7740879-5.4389921-6.3219599,9.7699014-1.5982241-9.7699014-1.5601089,5.4389052-6.3219599-7.9725434,3.9015755,1.3665616-4.3009689,.0001737-.0004055Zm-6.0885082,.6385077l-4.2420764,9.3251452v12.5013957l3.0130767,2.8455948c.2514922-5.3291778,.6878947-10.500847,1.3152454-15.2883519,.655983,5.0032458,1.0991129,10.4877339,1.3395678,16.1255788l2.8137627-2.6569736v-13.527081l-4.2394892-9.3251453-.0000869-.0001626ZM5.8171243,26.5446151l3.2207558,7.6606257,16.7234528,15.7947592h2.6574846c-5.7215327-5.5790423-11.0810935-11.3206461-15.5781114-16.766937,6.4429777,4.7436894,13.3770378,10.6146222,19.9496431,16.766855h2.679046L13.8972161,29.6266369l-8.080178-3.0821038,.0000862,.000082Zm38.3658375,0l-8.0748311,3.0794966-9.9694733,9.414162,1.5658756,1.476142c3.1288192-2.6144604,6.2368507-5.0710071,9.2390598-7.2814323-2.3546775,2.8517039-4.9470463,5.7840325-7.7025943,8.7320018l1.7541483,1.6544189,9.9641251-9.4090308,3.2234293-7.6658401,.0002606,.000082Zm-25.1759532,19.2279599l-4.4766646,4.2273454h2.4661062c1.086349-1.0168882,2.1832207-2.0258776,3.2854394-3.023546l-1.2747099-1.2039609-.0001711,.0001616Zm3.3959205,3.2093164c-.3445507,.3398591-.690224,.6792286-1.0375345,1.018029h2.1156044l-1.07807-1.018029Z" fill="#c1c1c1"/>
  </g>
</svg>