<?xml version="1.0" encoding="UTF-8"?>
<svg xmlns="http://www.w3.org/2000/svg" xmlns:xlink="http://www.w3.org/1999/xlink" viewBox="0 0 50 50">
  <defs>
    <clipPath id="clippath">
      <rect x="-70" width="50" height="50" fill="none"/>
    </clipPath>
    <clipPath id="clippath-1">
      <rect width="50" height="50" fill="none"/>
    </clipPath>
  </defs>
  <g id="sprung">
    <g clip-path="url(#clippath)">
      <polyline points="1.1377688 11.4761994 -4.1339092 17.5589047 -5.755964 12.6927405 1.5432824 11.4761994" fill="#909595"/>
    </g>
  </g>
  <g id="wirbel">
    <g clip-path="url(#clippath-1)">
      <rect width="50" height="50" fill="#040101"/>
      <path d="M33.1459843-2.9524042c-1.5215838,.5255831-3.133713-2.161299-4.7458422-.5491697C36.9981646,.2600609,45.0588106,6.7085778,45.596187,16.9187295,39.1476702,5.633825,25.71326-1.8894447,12.8162263,3.4843193,3.143451,7.7833306-1.6929367,17.9934823-.6181839,28.203634c1.0747528,8.5980225,6.9858933,16.1212922,15.0465394,20.4203034-.5373764,0-1.6121292-.5373764-2.1495056,.5373764,8.5980225,4.8363877,20.4203034,2.686882,26.3314439-4.2990112-13.4344102,7.5232697-31.705208,2.686882-37.078972-12.3596573C-2.7676895,20.1429879,4.2182038,5.0964486,17.6526139,2.4095665c8.0606461-1.0747528,16.1212922,1.0747528,21.4950562,7.5232697,6.4485169,7.5232697,5.3737641,17.196045,2.686882,25.7940675,1.0747528-1.6121292,3.2242584-2.686882,3.7616348-4.8363877-1.6121292,8.5980225-9.6727753,13.9717866-17.7334214,15.0465394-9.6727753,1.6121292-19.3455506-3.2242584-23.6445619-11.8222809C-.0808075,24.9793756,2.0686982,13.6944711,10.6667207,7.7833306c5.3737641-3.7616348,12.3596573-4.2990112,18.2707978-2.1495056,10.2101517,3.7616348,14.509163,16.1212922,9.1353989,25.7940675-4.8363877,8.5980225-15.0465394,10.2101517-23.6445619,6.4485169,10.7475281,5.9111405,24.7193147-.5373764,26.3314439-12.8970337,1.0747528-8.0606461-3.7616348-15.5839158-10.7475281-19.3455506C17.6526139-.2773155,3.143451,8.320707,1.5313217,21.7551171c-1.0747528,9.1353989,3.2242584,16.6586686,10.7475281,22.0324327,9.1353989,5.9111405,20.4203034,3.7616348,28.4809495-2.686882C54.1942095,29.8157632,50.9699511,6.7085778,35.9270484-1.6464281c-1.0199913-.5724489-1.9453957-.9974339-2.7810642-1.3059761Z" fill="#650a0b"/>
      <path d="M30.8289831,4.0222371c-1.125972,.3889315-2.3189476-1.5993612-3.5119232-.4063856,6.3625366,2.7836098,12.3274148,7.5555123,12.7250733,15.1110245-4.7719025-8.3508294-14.713366-13.9180489-24.257171-9.9414635-7.1578537,3.1812683-10.7367806,10.7367806-9.9414635,18.2922929,.7953171,6.3625366,5.169561,11.9297562,11.1344391,15.1110245-.3976585,0-1.1929756-.3976585-1.5906342,.3976585,6.3625366,3.5789269,15.1110245,1.9882927,19.4852685-3.1812683-9.9414635,5.5672196-23.4618539,1.9882927-27.4384393-9.1461464-3.1812683-9.1461464,1.9882927-20.2805856,11.9297562-22.2688783,5.9648781-.7953171,11.9297562,.7953171,15.9063416,5.5672196,4.7719025,5.5672196,3.9765854,12.7250733,1.9882927,19.0876099,.7953171-1.1929756,2.3859512-1.9882927,2.7836098-3.5789269-1.1929756,6.3625366-7.1578537,10.3391221-13.1227318,11.1344391-7.1578537,1.1929756-14.3157075-2.3859512-17.4969758-8.7484879-3.1812683-6.7601952-1.5906342-15.1110245,4.7719025-19.4852685,3.9765854-2.7836098,9.1461464-3.1812683,13.5203904-1.5906342,7.5555123,2.7836098,10.7367806,11.9297562,6.7601952,19.0876099-3.5789269,6.3625366-11.1344391,7.5555123-17.4969758,4.7719025,7.9531708,4.3742439,18.2922929-.3976585,19.4852685-9.543805,.7953171-5.9648781-2.7836098-11.5320977-7.9531708-14.3157075-9.1461464-4.3742439-19.882927,1.9882927-21.0759026,11.9297562-.7953171,6.7601952,2.3859512,12.3274148,7.9531708,16.3040002,6.7601952,4.3742439,15.1110245,2.7836098,21.0759026-1.9882927,9.9414635-8.3508294,7.5555123-25.4501466-3.5762357-31.6328509-.7547935-.4236122-1.4395928-.7381011-2.0579875-.9664223Z" fill="#9a0101"/>
      <path d="M14.6149117,3.8634697l-.0283658,.2013953c6.0796756,.8519108,11.5542193,3.8785114,15.5348471,8.2902944-.9171528-.1607376-1.8343027-.2647451-2.7514555-.321476,4.3399231,3.7537028,6.0891299,9.8144683,4.3493789,15.3457422,2.4583446-1.7681168,4.2926473-4.4061105,5.0017852-7.5452272-2.7609112-7.3561237-8.6420262-13.1748356-15.913054-15.9707306l-6.1931359,.0000018Zm25.3209482,0c2.7041796,7.329649,1.8343027,15.1575849-1.7870268,21.5114598-.1323718-.8982413-.3025666-1.7775725-.5200344-2.6379923-1.9193987,4.4817522-5.9945782,7.7059662-10.7694398,8.5758403-.9266057,.2174678-1.7302952,.2269235-2.628538,.2269235,2.3921587,1.8343027,5.4178136,2.8365515,8.6042075,2.647448,8.9540486-7.0441028,12.783393-19.1750881,8.9729572-30.3236798l-1.8721257,.0000004Zm-15.6104873,8.1513036c-9.1904264,.4916686-17.5922919,5.8811164-21.8253726,14.1827573v4.69922c2.0252976-6.59971,6.6384758-11.7433227,12.4174769-14.6176957-.4254827,.8036896-.7942338,1.6262892-1.1251648,2.4583446,2.3921587-1.5411932,5.1436142-2.316517,7.8856139-2.3259728,2.9121931,0,5.8149305,.8698755,8.2921866,2.5907164-.9360614-2.8460072-2.8838273-5.3705377-5.6447371-6.9873719l-.0000029,.0000022Zm-3.0445649,6.1647715c-3.0729307,.0945517-6.1174957,1.304814-8.4907443,3.6118752-2.5651878,9.7766482,.6996821,20.4420805,8.7460337,27.0701563h2.9311032c-6.2971434-4.2926473-10.0035718-11.0152748-10.6654338-18.0782891,.6240419,.6713178,1.2859039,1.3048125,1.9761303,1.9004901-1.1913522-5.4556351,.9360614-11.1287366,5.5029095-14.5042325h.0000014Zm3.848256,1.2102622c-2.8743716,0-5.1814343,2.316517-5.1814343,5.19089,0,2.8743744,2.3070613,5.1814328,5.1814343,5.1814328,2.8743744,0,5.1814328-2.3070613,5.1814328-5.1814343s-2.3070613-5.19089-5.1814328-5.19089v.0000014Zm-7.1575646,5.9567581c-1.0684347,2.8932816-1.0589789,6.1553158,.2552893,9.2187908,8.6514819,5.8622063,20.2813429,6.1080414,29.2732116,.0189115v-2.1746894c-5.6163742,4.2264628-12.4619178,5.6541914-18.8914344,4.510118,.6240419-.3214753,1.2291723-.6713178,1.8153941-1.0306131-5.8243862-.6713178-10.7978056-4.8126817-12.4524606-10.5425162v-.0000014Z" fill="#909595"/>
    </g>
  </g>
</svg>