<?xml version="1.0" encoding="UTF-8"?>
<svg id="FÜHRER" xmlns="http://www.w3.org/2000/svg" xmlns:xlink="http://www.w3.org/1999/xlink" viewBox="0 0 50 50">
  <defs>
    <clipPath id="clippath">
      <rect width="50" height="50" fill="none"/>
    </clipPath>
  </defs>
  <g clip-path="url(#clippath)">
    <rect width="50" height="50" fill="#040101"/>
    <path d="M18.139147,69.1366143c5.3486862-20.2385052,15.0863326-28.2868005,23.3554573-31.8046269,4.0406768-1.7189648,10.3735029-3.4804706,17.4044279-8.9552583,6.531111-5.0855906,10.4434246-10.8670691,12.7598971-15.0642161-3.4381397-2.1380853-7.3624377-4.9224113-11.4498092-8.5209552-14.2883352-12.5795168-21.1426196-26.8093268-23.7825818-33.0572862-3.3067892,12.7626918-9.2983541,19.4507165-13.9407709,23.1580468C12.6486567,2.7480062,3.4470622,1.5503604-5.3814173,10.4698017c-6.4416175,6.50799-8.8512748,14.5292561-9.8956502,19.8810324C-4.1383253,43.2794313,7.0004048,56.2080172,18.139147,69.1366143Z" fill="#650a0b" stroke="#3b383a" stroke-miterlimit="10" stroke-width=".4329811"/>
    <path d="M15.5910178,72.5222378c4.9510706-18.7339962,13.9648306-26.1839898,21.6192374-29.4403047,3.7402972-1.5911788,9.6023477-3.2217361,16.1106012-8.2895339,6.0455952-4.7075332,9.6670715-10.0592228,11.8113399-13.9443583-3.182552-1.9791423-6.8151219-4.5564844-10.5986426-7.8875165C41.3073983,1.3161555,34.9626541-11.8558255,32.5189439-17.6393184,29.4579779-5.8253915,23.9118195,.3654525,19.6145151,3.7971838,10.5086848,11.0688883,1.9911271,9.9602741-6.1810527,18.2166537c-5.9627545,6.0241929-8.1932804,13.4491666-9.1600181,18.4030976C-5.0303708,48.5872503,5.2803179,60.5547388,15.5910178,72.5222378Z" fill="#9a0101"/>
    <path d="M23.3880098,7.0002525c-1.5883911,.0151276-2.9347419,.1890942-4.6895356,.7715043-.3101149,.1512753-.6202287,.3101143-.9227794,.4689536,.0605104,.397854,.2420403,.8146178,.4160072,1.1118738-.3706241,.3176783-.7261221,.6353566-1.0664916,.9681621-.2798592-.4160072-.4992091-.8622693-.6277929-1.3160953-1.0740547,.6958666-2.0951633,1.4824982-3.0330705,2.375023,.1437117,.7185579,.6958663,1.3773619,1.1496924,1.8266499-.2798592,.3933157-.544591,.7866319-.7941956,1.1875112-.6217418-.544591-1.1436418-1.1723839-1.4613198-1.8644687-1.0521191,1.2820583-2.039191,2.6359727-2.7078277,3.868867,.4001234,.9832897,1.4378723,1.7169749,2.2540028,2.1481094-.1512753,.4613903-.2798592,.9227794-.385752,1.3917327-1.0211086-.4840806-1.9892707-1.1875112-2.6094997-2.0119625-.6580478,1.5203177-1.1118738,3.078453-1.3766057,4.6441537,.7283909,1.1723839,2.3122436,1.7321022,3.4793326,1.9590152,.0075637,.4840806,.0302552,.9681613,.068074,1.4522442-1.3455942-.2042226-2.8182595-.7261221-3.7743199-1.543008-.1210203,1.6867192-.0378188,3.3658764,.2571681,5.0072125,1.1534746,1.036237,3.1117339,1.1572555,4.4323676,1.036237,.1512753,.4613903,.3101143,.9227805,.4916449,1.3690423-1.4076171,.3403695-3.2743549,.0832019-4.4853139-.4689545,.4992085,1.7926137,1.2404576,3.5095875,2.2086201,5.0979786,1.4620763,.6504844,3.3673889,.2722961,4.6683572-.1890942,.2798592,.4008787,.5748462,.7941956,.8773969,1.1723839-1.3463508,.7185579-3.0179432,.8698332-4.3506792,.7639409,.9303436,1.2328931,2.013475,2.3598963,3.2312414,3.3583122,.3706247,.0832019,.7941956,.0832019,1.2631489,.0226904,.8849605-.128585,1.9060691-.5294637,2.8666684-1.1118747,1.2631489,1.0211086,2.6397543,1.8682514,4.0919985,2.5036074l.5672825-1.3009689c-1.2102027-.5218995-2.3674594-1.2253312-3.4490783-2.0649075,1.0059813-.8244502,1.8379957-1.8153041,2.2842575-2.760775,.3554968-.7336863,.4765176-1.3917327,.3403695-1.9892698-.8093229-.4311357-1.5581365-.9454709-2.2313113-1.5354438-.5899741,1.5732626-1.9968341,2.7305204-3.2902387,3.4793329-.3025507-.3706241-.5975371-.7488125-.8773975-1.1345651,1.2707131-.7412483,3.0179438-2.080036,2.9574323-3.5625348-.6731748-.7790671-1.2555858-1.6489003-1.7321022-2.5792451-.9076521,1.0589274-2.3220763,1.7018476-3.5171517,2.0195268-.1815305-.4386976-.3479332-.8773975-.4992085-1.3312235,1.2707125-.3933168,2.8666679-.9832897,3.3356212-2.2464398-.3252422-.8698332-.5672825-1.7850495-.7336852-2.7229562-1.0438001,.635356-2.4204055,.8395786-3.5035369,.8244502-.0453825-.4689545-.0756377-.9379067-.090765-1.4144242,1.1738964-.0453831,2.5656297-.1890942,3.3976446-1.0816189-.0605104-.9530351-.0378188-1.9287606,.0680734-2.9120504-1.0135449,.2117857-2.1934925,.0226915-3.0572745-.2420403,.0983292-.453826,.2193494-.9152163,.3630611-1.3690423,.9696749,.2420403,2.0512939,.5067722,2.936255,.0605104,.2042215-1.0286728,.5067722-2.0649087,.9076521-3.0860172-.7488125-.136148-1.5278807-.4765176-2.0951633-.8093229,.2496045-.4008799,.5143364-.7941956,.7941956-1.1875112,.6126656,.317678,1.2328943,.6656117,1.9060691,.6353566,.4311345-.8773969,.9303436-1.7131934,1.4749346-2.4771337-.3857526-.2042215-.7563767-.4840812-1.089182-.8017592,.3328053-.3252422,.6883033-.6429202,1.0513632-.9605985,.2874234,.2677571,.6051014,.4674405,.9303436,.620229,1.2026385-1.4068606,2.7153931-2.7403528,3.7062459-4.0693067l-.3252434,.0000017Zm2.9044873,0c1.1648197,1.5694817,2.5565524,2.6949703,3.6986817,4.061743,.3479338-.1331225,.6883033-.3955853,.9303424-.612665,.3706241,.317678,.7185579,.6353566,1.0513632,.9605982-.3328053,.317678-.6958675,.5975377-1.089182,.8017592,.5521541,.7639404,1.0513632,1.5921732,1.4824988,2.4695701,.680739-.0075637,1.3917327-.3328059,1.9060702-.6353566,.2798603,.3933157,.5445922,.7866319,.7866313,1.1875112-.6656106,.4462618-1.3766065,.7261221-2.0876002,.8093229,.4008787,1.0211086,.7034294,2.0573444,.9076521,3.0860172,.9303424,.408443,2.0649075,.2042215,2.9271788-.0605104,.1437111,.453826,.2647319,.9152163,.3706241,1.3690423-1.0740559,.2571676-2.0649075,.4689533-3.0557615,.2496045,.1058923,.9757255,.1210207,1.9514522,.0605092,2.9120504,.862269,.9303436,2.2842586,1.089182,3.396131,1.0740547-.0151285,.4765176-.0378188,.945472-.0907661,1.4144242-1.2934046-.0378188-2.4809147-.1890942-3.5020233-.8244502-.1588396,.9379067-.4008787,1.853123-.7261221,2.7305204,.6202298,1.316095,2.1027263,1.9136322,3.3356218,2.2388755-.1512753,.453826-.3176791,.8925236-.4992091,1.3312235-1.3992969-.4235714-2.6397543-.9832897-3.524716-2.0195268-.4765164,.9379067-1.0513632,1.8001757-1.7321022,2.5792451,.1134565,1.6942834,1.6942834,2.8591031,2.9649976,3.5625348-.2798603,.3857526-.5748468,.7639409-.8773975,1.1345651-1.4371158-.8925236-2.7683392-1.951451-3.2902387-3.4793329-.680739,.5899729-1.4219873,1.1043105-2.2388755,1.5354438-.1361469,.5975371-.0075642,1.2555858,.3403695,1.9892698,.453826,.9454709,1.2858404,1.9363249,2.2918205,2.760775-1.0816178,.8395786-2.2388755,1.543008-3.4490783,2.0649075l.5597183,1.3009689c1.4598061-.635356,2.8288485-1.4824988,4.0919985-2.5111716,.9605994,.5899729,1.9817079,.990854,2.8742315,1.1194366,.4689545,.0605092,.8925236,.0605092,1.26315-.0226904,1.217767-.9984182,2.2993848-2.125419,3.2297295-3.3583122-1.3614781,.128585-2.8666673-.1739657-4.2735284-.7336863-.0226904-.0075642-.0529473-.0226904-.0832019-.0302546,.3101149-.3781884,.5975371-.7715052,.8849617-1.1723839,1.3766065,.5899729,3.3053672,.8849617,4.659281,.1890942,.9681613-1.5883911,1.7094118-3.3053672,2.2086209-5.0979786-.0302546,.0151285-.0605092,.0302546-.0907661,.0378188-1.5505723,.4840806-3.0330711,.5748468-4.3945492,.4311357,.18153-.4462618,.3403695-.9076521,.4916449-1.3614781,1.44468,.128585,3.4188237,.0075642,4.432368-1.0437989,.2949865-1.6413384,.3857526-3.3204933,.2571676-5.0072136-1.089182,.8093229-2.6397543,1.353915-3.7743193,1.5430092,.0378188-.4840806,.0680734-.9681613,.0756377-1.4522431,1.270712-.3630611,2.8666673-.7563767,3.4717687-1.9590152-.2647319-1.5656996-.7185579-3.1238361-1.3766065-4.6441537-.7109937,.8773975-1.7472307,1.5883911-2.6019354,2.0043983-.1134565-.4613903-.2420415-.9227794-.3933168-1.3841696,.9076521-.5597183,1.898506-1.1572566,2.2615659-2.1481094-.7639409-1.4144242-1.6791572-2.7078289-2.7153919-3.8613034-.3176791,.6845212-.8395786,1.3198771-1.4522442,1.8644687-.2496034-.4008799-.5143352-.7941956-.8017598-1.1875112,.4689545-.542322,1.0740559-1.1126301,1.1496935-1.8266499-.9379067-.8925248-1.951451-1.6791564-3.0255069-2.375023-.1361469,.453826-.355498,.9000884-.6277918,1.3160956-.3403695-.3328059-.6958675-.6504839-1.0664916-.9681621,.2042226-.3645736,.355498-.7276343,.408443-1.1118738-.3025507-.158839-.6126656-.3176783-.9227805-.4689536-1.8682514-.620229-3.2751103-.779068-5.0072125-.7715043l.0000023-.000002Z" fill="#909595"/>
  </g>
</svg>