<?xml version="1.0" encoding="UTF-8"?>
<svg id="todesstoß" xmlns="http://www.w3.org/2000/svg" viewBox="0 0 50 50">
  <rect width="50" height="50" fill="#040101"/>
  <circle cx="25" cy="25" r="23.5000158" fill="#160101"/>
  <circle cx="25" cy="25" r="17.795472" fill="#280505"/>
  <path d="M32.423748,34.9921429c-.295135,.1701883-.5945144,.3328302-.8987167,.4862558-.1520792,.0767017-.3052355,.1512789-.459454,.2235841-.0253019,.0118628-.4020258,.1630171-.4020234,.1629196,.0003615-.0149167,.0612234,.0066031,.0549304,.0194511-.0017232,.0035181-.1037839-.118908-.086449-.0935851-.0871992-.127381-.1675334-.2593707-.2407893-.3952501-.1454366-.2697644-.2523611-.5473792-.3344088-.8432273-.0583719-.2104778-.2866414-.3404291-.4975123-.2824786-.2110466,.0579987-.3410575,.2862882-.2824786,.4975123,.1040656,.3752405,.2520086,.7413863,.4409009,1.0820867,.1795939,.3239292,.404307,.7201592,.7978751,.8015025,.4181515,.0864242,.8528348-.1964161,1.2142603-.373068,.3741399-.1828662,.7413851-.3792351,1.1021253-.5872544,.1890962-.1090415,.2548889-.3656415,.1450944-.5533542-.111119-.1899771-.3634484-.2546027-.5533542-.1450944h0Z" fill="#650a0b"/>
  <path d="M31.0007051,36.0928485c-1.1885743,.221063-1.0417474-1.4957311-.9532791-1.7159038-.5119255,.3506698-.2838709,2.1805854,.3813103,2.6691844,.9529803,.2111275,1.7054172-1.1814916,2.0972176-1.7159058,.326813-.4327827-.5061808,.626772-1.5252489,.7626252Z" fill="#650a0b"/>
  <g>
    <path d="M41.4563349,40.1975703l-9.5104259-9.4228712c-.1881982,.0934572-.3763669,.1873861-.5645775,.2837866l12.4540608,12.339439-.5411853-.578353-1.8378721-2.6220015Z" fill="#909595"/>
    <g>
      <path d="M30.7995088,31.3673849l9.7897844,9.6996696,2.6414841,1.8161142,.5834683,.5359672-12.4609731-12.3462815c-.1845419,.0947629-.3691448,.1932118-.5537637,.2945306Z" fill="#909595"/>
      <path d="M44.3749579,43.9746581l-.0280909-.0488974,.0492324,.0277045,2.9212577,2.8943769-2.934581-5.5214492c-.5668737-1.0633664-1.2985018-2.0032686-2.1781399-2.7947236l-9.2179535-8.2809873c-.2320019,.1204979-.463948,.2373279-.6958468,.3525294l9.7495613,9.329871,2.2783788,3.943781,.0772141,.0764926-.0704194-.0646476-.0067947-.011845-.4833837-.4789385,.2697898,.2883853-.2909365-.2671743,.4833953,.4789268,.0119136,.0067004,.0652439,.0697589-.0771575-.0764593-3.9701624-2.2472283-9.8494229-10.1038251c-.210301,.1193908-.4204143,.239365-.6301162,.3602392l9.0746416,9.9157444c.7992859,.8720387,1.746618,1.5956198,2.8167999,2.1542511l5.5568231,2.8918027-2.9212461-2.8943885Z" fill="#909595"/>
    </g>
  </g>
  <path d="M38.2618403,31.2083366l-3.6470417-15.095783c-3.2836888-1.2668313-6.5833363-1.8278221-9.8750045-1.7922221-3.2922825,.0349856-6.5765857,.6665581-9.8240603,1.7922221l-3.6439736,15.0951687h6.6496212c-1.4392961,3.5328855-.4756745,7.5168937,1.0250027,10.2500331l1.7891516-5.0918741,1.9843311,5.5380893,2.0469335-5.1004678,2.0469335,5.1667528,2.0469372-5.6043742,1.7891478,5.1544803c1.6915599-3.0694866,2.0009042-7.2425384,1.0250027-10.3120249h6.5870188Zm-23.4958674-2.9577792l1.1477574-5.3017839v-.0006144c2.8798247,.6150032,5.2453069,1.9162057,6.5661489,4.6094445l-7.7139063,.6929537Zm11.6819542,6.0745238l-1.669465-2.2059055-1.669465,2.2059055-1.4294774-1.0820846,2.3857377-3.1498909,.7132046-.9409135,.7132046,.9409135,2.3857377,3.1498909-1.4294774,1.0820846Zm.6352542-6.7674775c1.4442111-2.504199,3.8287201-3.7900572,6.5692207-4.6088302l1.1477537,5.3011695-7.7169744-.6923394Z" fill="#3b383a"/>
  <rect x="8.910025" y="6.9944693" width="1.6418874" height="3.0154744" transform="translate(-3.1592971 9.4079188) rotate(-45.1637612)" fill="#909595"/>
  <rect x="6.8105729" y="5.1585079" width="1.6418873" height="2.5128886" transform="translate(-2.2988465 7.2978707) rotate(-45.1308312)" fill="#909595"/>
  <rect x="4.1891069" y="1.605478" width="2.2986407" height="4.1332511" transform="translate(-1.0300128 4.8663067) rotate(-45.143325)" fill="#909595"/>
  <path d="M16.9697358,16.8662457c.2539934-.0579418,.5082487-.1150347,.7646734-.1654671l-5.2697063-5.2456426,.2315483-.2328585,5.5057417,5.3871839c.3171026-.0602104,.6334611-.1226959,.9491458-.1871566l-6.3480083-6.0203029-1.1576745,1.1642827,5.32428,5.2999611Z" fill="#909595"/>
  <path d="M9.6928441,13.5300618c.2572618-.2587429,.5145378-.5174716,.7717868-.7762017l4.4683838,4.668651c.2763172-.0823164,.5538831-.1622357,.8314957-.242287l-4.4806196-4.5375253,.2315355-.2328457,4.6718834,4.6505502c.0741423-.0204794,.1472897-.0428979,.2216904-.0628382,.1725971-.046273,.34849-.0822837,.523049-.1224863l-5.3097437-5.2855013-1.4247628-1.4182557-2.1371308-2.1273828-1.1576603,1.1642969,2.1371165,2.1273685c-.3087173,.3104832-.6174217,.6209537-.926139,.9314369l-.0988281,.0993977c-.1214186,.1221022-.2428229,.2442186-.3642414,.3663207l-.2315213,.23286c.5580157,.8643623,1.1160313,1.7287247,1.6740613,2.5931013l1.3892085-1.3971554c-.2631747-.210505-.5263764-.4210116-.7895639-.6315038Z" fill="#909595"/>
  <polygon points="6.0953515 6.0892983 5.0747011 7.1163457 6.790984 8.8254723 7.8116594 7.7984274 6.0953515 6.0892983" fill="#909595"/>
  <rect x="2.5448137" y="3.2583604" width="2.2986407" height="4.1332511" transform="translate(-2.686326 4.1883987) rotate(-45.1490941)" fill="#909595"/>
  <path d="M42.2494507,44.2393899c-.4978169,.2164928-1.1054611,.4646649-1.6544577,.4906799-.5531282,.0262108-.7865734-.5720942-.9314376-1.0167461-.3418063-1.0491536-.3226559-2.222018-.1259667-3.2988332,.1849082-1.0123176,.5865822-2.0168835,1.3980733-2.6883714,.1823823-.1509167,.3883353-.2845428,.604385-.3826588,.3138601-.1425353,.5295023-.1479547,.7472947,.1354521,.3249838,.4228918,.5505399,.9181256,.70542,1.4255098,.1515477,.4964672,.9325645,.2847942,.7799909-.2150337-.1998067-.6545627-.5027662-1.3321299-.9621643-1.8487142-.5030567-.5656776-1.1771859-.4633661-1.7917516-.13894-1.251388,.6606013-1.960525,2.0100187-2.2329686,3.3508901-.2889398,1.4220596-.3181426,3.0279597,.2903604,4.3736827,.2573693,.5691802,.7126251,1.0999732,1.3836954,1.1166153,.7387216,.0183198,1.5337578-.3163084,2.1977866-.6050841,.4761571-.2070732,.0647942-.9041723-.4082598-.6984486h0Z" fill="#650a0b"/>
  <path d="M37.4812336,40.5705736c-.6192368,.3128596-1.2598495,.5701438-1.9267403,.7625472-.3222292,.0929658-.6487595,.171912-.9781084,.2352617-.0559996,.0107714-.3076717,.0557162-.3138113,.0513602-.0816381-.0579214-.1245729-.4164285-.1469267-.5021624-.3557975-1.3645983-.3704502-2.8175392-.0356423-4.1877824,.2909325-1.1906775,.8478373-2.3536022,1.8033743-3.1520845,.4920201-.4111502,1.0896839-.7052228,1.7198673-.8266173,.2540701-.0489425,.6001903-.1060725,.8551318-.0278776,.4641128,.1423512,.1396675,.6375604-.0226657,.9073624-.26905,.4471679,.4300858,.8542854,.6984486,.4082598,.2905722-.4829383,.5596312-1.1133749,.2203348-1.6421375-.3303243-.5147803-1.0117848-.5424568-1.559145-.485716-1.3224333,.1370869-2.4895208,.9013945-3.2811798,1.9488712-.8265642,1.0936612-1.2534386,2.4426199-1.4163029,3.7913095-.0943756,.7815305-.084739,1.5681274,.0192312,2.3481264,.0780049,.585204,.1505541,1.48097,.5256198,1.9656692,.4096644,.5294113,1.3677389,.1514399,1.8842401,.0148754,.8187026-.2164676,1.6072518-.5292221,2.3625343-.9108167,.46472-.2347925,.0557069-.9328605-.4082598-.6984486h0Z" fill="#650a0b"/>
  <path d="M20.3791603,18.8781153l5.2180353,.1581254c.5206804,.0157785,.5201813-.7931217,0-.8088851l-5.2180353-.1581254c-.5206804-.0157785-.5201813,.7931217,0,.8088851h0Z" fill="#3b383a"/>
  <path d="M20.3836528,16.9097259c.5622479,.4446069,1.1626152,.6032535,1.8742576,.5537455,.7155891-.0497826,1.4005816-.1865457,1.9750941,.3538273,.5756801,.5414712,1.1773251,.8080718,1.9720905,.8352364,.8267949,.0282593,1.4994254-.0261579,2.1282255,.6101122v-.5719681c-1.0091804,.9356849-2.464275,.9459473-3.5555116,1.7555703l.3116467-.0407712c-1.5307244-.5140831-2.6527844,1.138061-3.9727286,1.5550653l.4975123,.2824786c-.1103065-.3163035-.3256086-.7619786-.7448741-.6336196-.454757,.1392248-.4030575,.7750636-.3783678,1.1372605,.0356588,.5231131,.763124,.5172015,.8088851,0-.0104048,.0222339-.0205536,.0445854-.0304463,.0670547l-.4567411,.1858656,.0077104,.0014817-.2417074-.1858656c-.0738281-.1125089,.0171564,.1088118,.0374241,.1795857,.0349842,.1221632,.0689921,.2535538,.1625986,.3462312,.3066498,.3036061,.6811954,.032141,.7489949-.317641l-.6759795,.1784672c.45801,.45294,.9782285,.6213278,1.6109831,.6225969,.299752,.0006012,.6173528-.0331212,.8999748,.0912474,.1416853,.062349,.2361901,.1788562,.3597215,.2628727,.12716,.0864845,.2214623,.1023174,.3676974,.1406333,1.0112575,.2649656,1.7386625,1.3733893,2.8964828,.9400952,.483129-.1808026,.2739368-.9629796-.2150337-.7799909-.4576661,.1712736-.8505408-.0668665-1.2378638-.3036302-.2193789-.1341025-.4330505-.278798-.6604816-.3993371-.1978841-.1048792-.4164235-.1550347-.6153435-.2481047-.2091202-.0978425-.3767416-.2648977-.5973208-.3582076-.2246124-.095016-.4576848-.136668-.7009652-.1517538-.5922346-.0367243-1.0721058,.070254-1.5358829-.3883893-.2032177-.2009681-.6165122-.1283287-.6759795,.1784672-.0278187,.0959191-.0093769,.0861097,.0553254-.0294282l.2859841-.1184585-.0121943,.0007615,.2859841,.1184585c.098832,.0865481,.0619174,.1506598,.0332892,.0000765-.0121494-.0639053-.0278824-.1315187-.0471402-.1935383-.0496724-.1599701-.1376908-.3313475-.3212442-.3666208-.1840748-.0353735-.3544618,.0251896-.4567411,.1858656-.0639553,.1004708-.0698427,.2265158-.0799902,.3412051h.8088851c-.0095469-.1400524,.0297293-.358115-.0073587-.489991,.0646297-.2035787-.1070924-.1831664-.5151662,.0612371,.0255271,.0438916,.0444907,.0906072,.0568908,.1401466,.0698839,.2003918,.2774509,.3520017,.4975123,.2824786,.6441363-.2034992,1.1868394-.5974137,1.7418084-.9694268,.548412-.3676177,1.0754909-.7238646,1.752139-.6019987,.3810719,.0686319,.6288876-.2336808,.955664-.4004729,.3445894-.1758842,.7168672-.2842325,1.0842871-.4006152,.764696-.2422227,1.4453271-.5543524,2.0396295-1.1053736,.1608936-.1491763,.1492096-.420986,0-.5719681-.5487754-.5552946-1.1923832-.8122064-1.9675036-.8396845-.3374451-.0119625-.6791233,.01607-1.0151084-.0251737-.4606022-.056541-.7884368-.2669521-1.1177041-.5804903-.5172327-.4925246-1.1574035-.6850417-1.8614925-.6491937-.6947087,.0353704-1.3917327,.2130179-1.9878592-.2583791-.4040612-.3195181-.9802419,.2491188-.5719681,.5719681h0Z" fill="#650a0b"/>
  <path d="M39.9615337,44.2910523c-1.3057818-.1026766-1.4467076-1.3717175,.0160164-3.711614,1.4425761-2.3197487,1.5386548-2.7602057,2.0812044-2.5800368,1.1492817-.4633266,.8467563,1.419034,1.1439355,1.1439355,.0830988-.0518659-.8920034-2.200814-1.7159027-2.4785274-.4499087-.4958274-1.9422324,1.4612201-2.7690332,3.4241125-.2596134,1.395705-.6303406,3.5738917-.090813,4.7740993,.8094725,.3040272,.8652963,1.2412907,2.4382282,.3631673,.9876975-.2928889,2.3091415-1.2178032,1.5655489-.5538261,.4177842-.5447582-2.1929524,.8212748-2.6691844-.3813103Z" fill="#9a0101"/>
  <path d="M34.2418544,41.2405595c-.7975233-.0868727-.6230193-1.2096802-.4339927-2.2237273,.3848145-1.209835,1.3016404-2.8283983,1.0059643-2.9239863,.9487232-1.3529273,.8530773-1.4435212,1.7796368-2.3144856,1.5930198-1.5374247,.1506769,.2023483,1.6521741-.7360134,.7780701-.0101867-.1528788,1.9407085,.5719672,1.3345919,.0774774,.0611915,.9540146-2.0155505-.1906546-2.0972164-.2416215-1.3084295-2.0912609-.1649117-2.859841,.5719701-1.3948315,1.0035994-1.137061,1.1640452-2.4140019,3.2720665-.7813567,1.6124371-1.003634,3.0786588-.6589353,3.9941837-.3899656,1.650189,1.4024744,1.1342517,.9757141,2.4572094,1.0398189-.0444232,2.1199781-.5671721,2.4343155-.6133335,1.4953512-1.2271751,1.5634276-1.3163096,1.3788066-1.2932295,.9118437-1.0526072-.1300903-.2412896-1.2823177,.4971726-.144706-.2690592-1.07052,.0598409-1.9588355,.0747977Z" fill="#650a0b"/>
  <path d="M34.7292394,41.3935858c-.7476841-.054535-.5450972-1.1173103-.332555-2.0782131,.4035084-1.1518691,1.3217166-2.7066102,1.0466821-2.7864841,.9391604-1.3058065,.8522293-1.38781,1.7540717-2.2392231,1.5518896-1.5014603,.1349118,.1853107,1.5802025-.7491702,.7326884-.0361557-.2101604,1.8318674,.4927805,1.2366237,.0708344,.0549496,.9667665-1.929666-.1078385-1.9674466-.1827435-1.2232788-1.9627202-.0838119-2.7112898,.6360048-1.3471216,.9922422-1.1099795,1.1344565-2.3838505,3.1621849-.7904917,1.5443492-1.0497702,2.9319864-.7565916,3.7819333-.4233929,1.566518,1.281317,1.0196999,.8344654,2.2794754,.9802225-.0773176,2.014747-.6062257,2.3121861-.6604073,1.4493676-1.2061101,1.5164865-1.2923303,1.3419281-1.2643027,.8941939-1.0218778-.1142055-.2226663-1.2239283,.5117378-.127014-.2483047-1.0096456,.0928775-1.8462628,.1372873Z" fill="#9a0101"/>
  <path d="M.3051011,7.6851185c-.2136304,.0837792,.8912075-.3178692,1.4423462,.0870174,.0668037,.8892216,1.4402235,.7246629,3.324055-.2776767,1.4086552-.4489674,2.4597059-1.3528737,3.1156205-1.8414901,.4385841-.271286,1.682492-1.3277421,2.2227506-.8276981,.3363969,.4591615,.771999,1.1528007,1.3345914,1.3345914,.4836793,.7044058-.3474316,1.4544991-1.1439376,1.9065612-.3897218-.0082684,.3653587-1.5159882,.1906575-2.0972166-.0963377-.4511973-.7591002,.2701407-1.9590011,1.3025653-.9079713,.740495-2.1894043,1.6283998-3.9513385,1.9385914-1.0415023-.0351141-1.6611538-.8726289-3.230619-.5252165-1.151615-.0704377-.9989595-1.2100324-1.3451251-1.0000288Z" fill="#650a0b"/>
  <path d="M-3.3173572-2.0383373c.4543559-.7287313,.8089974-1.1919012,1.2295382-1.3597924-.3284207,.5810703,1.0047843-.1383072,2.5835839-.5467706,.3333372,1.1300454,.7256734,2.3883236,1.3345909,2.0972156C2.4390161-1.0275644,.2922285,1.501377,1.0402555,1.1591996c.3432886,.062561-.2485864,1.0839813-1.1164644,3.4754225-1.244049,2.8262042,.5301397,2.6474744,.3813103,2.6691844-.5066807,.4151841-.1218107-.9097552-1.2093089-1.0320412-.9134181-.2963661-1.7539688-.9353145-1.078561-2.7810782C-2.3201468,2.2719414-.6007952-.0277051-.8668116-.1394451-.6481259-.7358871,.693143-2.2523737-.0762043-2.2289955c-.6364965-.7080303-2.801525,.2902435-3.2411529,.1906582Z" fill="#650a0b"/>
  <path d="M21.4616067,16.8718899c.3619303,1.0228002-.1580439,1.4078336-.4713663,2.2681065-.2560714,.5529879-.4337916-.7647723-.4713663-1.2600592-.0791412-.7774152-.1690017-2.1609594,0-1.2600592,.2057852,.284799,.7267556-.5491013,.9427326,.2520118Z" fill="#650a0b"/>
  <path d="M22.0716355,17.274834c.2046859,.578434-.0893801,.7961856-.2665763,1.2827039-.1448185,.3127365-.2453263-.432509-.2665763-.7126133-.0447575-.4396591-.0955771-1.222108,0-.7126133,.1163797,.1610651,.411009-.3105385,.5331526,.1425227Z" fill="#650a0b"/>
  <path d="M23.6894046,23.7459191c.2046859,.578434-.0893801,.7961856-.2665763,1.2827039-.1448185,.3127365-.2453263-.432509-.2665763-.7126133-.0447575-.4396591-.0955771-1.222108,0-.7126133,.1163797,.1610651,.411009-.3105385,.5331526,.1425227Z" fill="#650a0b"/>
  <path d="M26.1160582,25.0940618c.2046859,.578434-.0893801,.7961856-.2665763,1.2827039-.1448185,.3127365-.2453263-.432509-.2665763-.7126133-.0447575-.4396591-.0955771-1.222108,0-.7126133,.1163797,.1610651,.411009-.3105385,.5331526,.1425227Z" fill="#650a0b"/>
  <path d="M25.84643,20.5103765c.2046859,.578434-.0893801,.7961856-.2665763,1.2827039-.1448185,.3127365-.2453263-.432509-.2665763-.7126133-.0447575-.4396591-.0955771-1.222108,0-.7126133,.1163797,.1610651,.411009-.3105385,.5331526,.1425227Z" fill="#650a0b"/>
  <path d="M24.7679173,21.0496336c.2046859,.578434-.0893801,.7961856-.2665763,1.2827039-.1448185,.3127365-.2453263-.432509-.2665763-.7126133-.0447575-.4396591-.0955771-1.222108,0-.7126133,.1163797,.1610651,.411009-.3105385,.5331526,.1425227Z" fill="#650a0b"/>
  <path d="M24.2286609,17.274834c.2046859,.578434-.0893801,.7961856-.2665763,1.2827039-.1448185,.3127365-.2453263-.432509-.2665763-.7126133-.0447575-.4396591-.0955771-1.222108,0-.7126133,.1163797,.1610651,.411009-.3105385,.5331526,.1425227Z" fill="#650a0b"/>
  <path d="M39.9267772,44.1038829c.3872308,1.0942984-.1690919,1.5062472-.5043168,2.4266569-.2739719,.5916441-.4641155-.8182331-.5043168-1.3481427-.0846736-.8317599-.1808156-2.3120198,0-1.3481427,.2201705,.3047076,.777559-.5874859,1.0086336,.2696285Z" fill="#650a0b"/>
  <path d="M23.1519827,23.7557402c.3872308,1.0942984-.1690919,1.5062472-.5043168,2.4266569-.2739719,.5916441-.4641155-.8182331-.5043168-1.3481427-.0846736-.8317599-.1808156-2.3120198,0-1.3481427,.2201705,.3047076,.777559-.5874859,1.0086336,.2696285Z" fill="#650a0b"/>
  <path d="M35.82279,41.9056012c.3619303,1.0228002-.1580439,1.4078336-.4713663,2.2681065-.2560714,.5529879-.4337916-.7647723-.4713663-1.2600592-.0791412-.7774152-.1690017-2.1609594,0-1.2600592,.2057852,.284799,.7267556-.5491013,.9427326,.2520118Z" fill="#9a0101"/>
  <path d="M26.6910958,18.5917379c.1687534,.4768902-.0736895,.6564156-.219779,1.057526-.1193957,.2578358-.2022594-.3565823-.219779-.5875144-.0369003-.3624772-.0787986-1.0075676,0-.5875144,.0959493,.1327902,.3388566-.2560237,.4395579,.1175029Z" fill="#650a0b"/>
  <path d="M22.4749607,27.6653541c0,.991452-.0603583,.7184146-.1348141,.4044428-.0744558-.3517772-.1348141-.9113808-.1348141-.4044428,0-.0024298,.0603583-.6446135,.1348141-.4044428,.0744558-1.0164688,.1348141-.7156347,.1348141,.4044428Z" fill="#650a0b"/>
  <path d="M35.5193834,45.5527539c0,.991452-.0603583,.7184146-.1348141,.4044428-.0744558-.3517772-.1348141-.9113808-.1348141-.4044428,0-.0024298,.0603583-.6446135,.1348141-.4044428,.0744558-1.0164688,.1348141-.7156347,.1348141,.4044428Z" fill="#650a0b"/>
  <path d="M28.4067807,22.8120403c0,.991452-.0603583,.7184146-.1348141,.4044428-.0744558-.3517772-.1348141-.9113808-.1348141-.4044428,0-.0024298,.0603583-.6446135,.1348141-.4044428,.0744558-1.0164688,.1348141-.7156347,.1348141,.4044428Z" fill="#650a0b"/>
  <path d="M20.8571916,20.6550119c0,.991452-.0603583,.7184146-.1348141,.4044428-.0744558-.3517772-.1348141-.9113808-.1348141-.4044428,0-.0024298,.0603583-.6446135,.1348141-.4044428,.0744558-1.0164688,.1348141-.7156347,.1348141,.4044428Z" fill="#650a0b"/>
  <path d="M14.0323304,16.4552873c.0126679,.1299865-.6344511,.4272507-1.3088958,.3590723-.9452465-.0955528-1.5449298-.8685711-1.7336002-1.1346955,.1599271-1.1057127,.1418623-1.7326563,.3392003-2.2246941,.0185993-.3132991,1.4222067-1.6612975,2.1249321-1.9085852,1.4431392-.9505077,1.8898144-.3825632,2.992385-.3185707,1.6626098-.4960467,1.491983,.9930924,2.198958,1.3865317,.3725285,.6443836,.5716211,1.2499988,.3467906,1.7030572-.1013425,.2042169-.3044176,.3479971-.3344193,.3710051-.2238928,.1717051-.6414796,.3804536-.8122288,.2416283-.1445945-.1175602,.0012788-.392127,.0000005-.7626242-.0011565-.3352405-.1229592-.7970568-.6507496-1.3543201-.3074083-.112264-.9939784-.2634267-1.8609713-.1477233-.3691187,.0492603-.7828293,.2079233-1.3432959,.5874215-.4827669,.0106159-2.3079835,1.867915-1.758638,2.0194836,.1184202,.2582079,.3160479,.5762291,.6565964,.801702,.5508931,.3647388,1.1320885,.2597352,1.143936,.3813113Z" fill="#650a0b"/>
  <path d="M40.388602,44.5061507c-1.3057818-.1026766-1.4467076-1.3717175,.0160164-3.711614,1.4425761-2.3197487,1.5386548-2.7602057,2.0812044-2.5800368,1.1492817-.4633266,.8467563,1.419034,1.1439355,1.1439355,.0830988-.0518659-.8920034-2.200814-1.7159027-2.4785274-.4499087-.4958274-1.9422324,1.4612201-2.7690332,3.4241125-.2596134,1.395705-.6303406,3.5738917-.090813,4.7740993,.8094725,.3040272,.8652963,1.2412907,2.4382282,.3631673,.9876975-.2928889,2.3091415-1.2178032,1.5655489-.5538261,.4177842-.5447582-2.1929524,.8212748-2.6691844-.3813103Z" fill="#650a0b"/>
  <path d="M13.8416745,16.2646314c-.0045675,.065762-.3234915,.1361811-.6346479,.1051891-.6564551-.0653848-1.130574-.5674203-1.3867591-.9076779,.1279296-.8844964,.1134793-1.3860092,.2713368-1.7796062,.0148784-.2506179,1.1376682-1.3289264,1.6998028-1.5267386,1.1544135-.760342,1.5117231-.3060257,2.393705-.2548364,1.3299768-.3968026,1.1934849,.7944062,1.7590181,1.1091322,.3895301,.6737921,.5420049,1.2945944,.009897,1.6591103-.0387768,.0265641-.2931433,.1924421-.3874054,.1211254-.1633595-.1235931,.4078374-.7687879,.2788317-1.3855413-.0639407-.3056908-.3080952-.6435901-.9532796-.9532796-.6353558-.0887503-1.0907996-.1549455-1.3345922-.1906551-.6793623-.0995091-.9007545-.135937-1.1439363,.0000008-.2519868,.140859-.2544582,.314236-.5719685,.5719685-.2719903,.220783-.556909,.3263042-.7626244,.3813126-.1695413,.193577-.4050063,.5102749-.5719688,.9532806-.2113087,.5606719-.2116029,1.0549126-.1906569,1.3345924,.1716096,.0947577,.4333135,.2329174,.7626239,.3813116,.496458,.2237149,.7681281,.3020539,.7626239,.3813116Z" fill="#9a0101"/>
  <path d="M.5320722,7.9007606c-.2136304,.0837792,.8912075-.3178692,1.4423462,.0870174,.0668037,.8892216,1.4402235,.7246629,3.324055-.2776767,1.4086552-.4489674,2.4597059-1.3528737,3.1156205-1.8414901,.4385841-.271286,1.682492-1.3277421,2.2227506-.8276981,.3363969,.4591615,.771999,1.1528007,1.3345914,1.3345914,.4836793,.7044058-.3474316,1.4544991-1.1439376,1.9065612-.3897218-.0082684,.3653587-1.5159882,.1906575-2.0972166-.0963377-.4511973-.7591002,.2701407-1.9590011,1.3025653-.9079713,.740495-2.1894043,1.6283998-3.9513385,1.9385914-1.0415023-.0351141-1.6611538-.8726289-3.230619-.5252165-1.151615-.0704377-.9989595-1.2100324-1.3451251-1.0000288Z" fill="#9a0101"/>
  <path d="M17.2502876,10.1868355c.8951013-.8998229,1.7902026-1.7996457,2.6853038-2.6994686-1.5683728-.9637689-3.1367711-1.9275632-4.7051439-2.891332l-.447551,.4498864h0c-.2341803,.2353987-.4683352,.4708229-.7025154,.7062216l-.1925858,.1936012h0c-1.3426516,1.3497593-2.6852792,2.6994439-4.0279307,4.0492033,.8466508,.842459,1.6933271,1.6849435,2.5400033,2.5274279,1.2431909-1.2497402,2.4864064-2.499505,3.7295972-3.7492451,.3736078,.4712518,.7472148,.9424535,1.1208226,1.4137053Z" fill="#909595"/>
  <path d="M9.7546095,17.3012018c-.9262616,.9217669-1.8525231,1.8435337-2.7787847,2.7653006-.8939862-1.5164779-1.7879966-3.0329799-2.6819829-4.5494578l.463106-.4608828h0c.2423159-.241156,.484656-.4822878,.7269719-.7234438l.1992897-.1983231h0c1.3894171-1.3826509,2.7787593-2.7652752,4.1681765-4.1479261,.8018134,.8061292,1.603651,1.6122827,2.4054886,2.4184361-1.2864605,1.2802259-2.5729464,2.5604772-3.8594069,3.8407031,.4523971,.3518642,.9047447,.7037296,1.3571418,1.0555938Z" fill="#909595"/>
  <path d="M.4034095,2.715505C1.2207857,.8017222,1.7421679-.0287719,1.4785166-.0571833c-.6027976,.310735,1.2187299-1.7857877,.7932307-2.3884797-.4914511,.2627352-.7225454-.6939868-.9152947-1.554337C.1027367-3.5884829-.9781219-2.9493561-.6879655-3.4213291c-.3374564,.1556398-.6410501,.537332-1.0380024,1.1317462,.3364853,.0515458,2.081648-.8539892,2.5354654-.3402453,.6005364-.0637297-.533758,1.1966565-.7393498,1.6741071,.2005562,.0712844-1.274517,1.9639468-1.0838795,2.8931473-.6352071,1.4774242-.0183855,1.9252992,.675443,2.1020608,.1223935,.0045007,.2165297,.0324448,.2934189,.0729131,.0060674-.3036916,.1238249-.7472639,.4482795-1.3968951Z" fill="#9a0101"/>
  <path d="M17.6547928,20.0777497c-1.0803833-.6990709-2.160768-1.3981434-3.2411513-2.0972143,1.3981448-1.0168329,2.7962899-2.0336662,4.194435-3.0504995l2.0972151,2.0972151-3.0504988,3.0504988Z" fill="#3b383a"/>
</svg>