<?xml version="1.0" encoding="UTF-8"?>
<svg xmlns="http://www.w3.org/2000/svg" xmlns:xlink="http://www.w3.org/1999/xlink" viewBox="0 0 50 50">
  <defs>
    <clipPath id="clippath">
      <rect x="-70" width="50" height="50" fill="none"/>
    </clipPath>
    <clipPath id="clippath-1">
      <rect width="50" height="50" fill="none"/>
    </clipPath>
  </defs>
  <g id="konter">
    <g clip-path="url(#clippath)">
      <path d="M1.6145202,54.3783964c-29.1001553-7.919241-34.0319657-4.7848063-31.8443398,24.304851-13.4089871-26.9609899-19.6985381-27.966757-42.5969864-10.5034764,11.6213571-24.1195655,7.701418-29.1399334-19.173194-33.2713851,23.3155389-6.7213433,23.6764048-12.5537705,7.2191939-30.5346454,22.3033398,8.0763529,27.2351501,4.9419183,24.9412003-17.7460805,13.5153111,20.5593313,19.8048621,21.5650984,34.7230387,2.6800431-3.6410853,25.5413402,.2788538,30.5617081,27.1165672,27.129178-23.2786403,14.2853251-23.6395063,20.1177522-.3854798,37.9415152Z" fill="#3b383a"/>
    </g>
  </g>
  <g id="sennenschneier">
    <g clip-path="url(#clippath-1)">
      <rect width="50" height="50" fill="#040101"/>
      <path d="M11.4036203,17.640531c12.4725504,11.1819084,24.9450941,22.3638247,37.4176445,33.5457331l2.8507788-3.4060087c-11.4530179-10.625613-22.9060385-21.2512146-34.3590565-31.8768276-.6257528-.1325898-2.1598103-.366565-3.8503308,.3416799-.976388,.4090563-1.6530816,.985005-2.0590361,1.3954233Z" fill="#909595"/>
      <path d="M52.0380921,50.6752405c-3.7404347,2.5366146-12.535013,.7048955-22.5197884-10.7398284L12.1478384,18.8114406c.611735-.4860004,1.3321633-.8676741,2.1569132-1.1397331,.3300614-.1069046,.6815282-.1914605,1.0412608-.2646111,9.9744283,11.574181,27.6643654,30.6130618,35.2150323,31.3279106-8.7321893-5.0096923-23.5888517-20.3271808-32.787551-31.5505948,1.4799062,.0044947,3.1176811,.2302375,4.8691728,.671465l1.8507298,.4663655-1.5203375-1.7447752c.0688624-.9641441,.1377229-1.92829,.2065853-2.8924341,.8567655-1.1610827,1.7590625-2.5256461,2.6269826-4.0984753,1.025062-1.8576006,1.7831902-3.608882,2.3488266-5.1521608,.6619727,5.6555151-.106184,10.5284128-1.615014,14.4071363,1.6334583-1.0164858,3.0591728-2.2815999,4.2343801-3.7771749,.3131574-.4198889,.544158-.8740592,1.4049123-2.2171919,.3398089-.7207256,1.968838-3.1183207,1.3264254-2.9427489,.0235844-.6201375,1.7208002-3.3805405,.5801971-2.8952052,.0388882-.9238787-1.2690826-.3833644,.3915182-3.5384953,1.1785001,.1290458,.0856789,2.8844509,.5309158,3.7184192-.4137532,1.860259,1.63004,.7005093,.8997971,2.7747729,.8777491,.1530924,.925276,1.2177988,.5963826,2.6554472-.6977001,1.8782855-.5488128,2.6683068-.2997195,3.2653284-.211143,1.1468954-1.3469847,3.3253104-.9490594,3.6014721,.680312-.0612237-.5085011,2.0409532,.3053017,1.6842274-.3263195,1.0054515-.1488554,1.3427514-.3762219,2.1009937s-.5610839,1.5808142-1.0143273,2.4869709c.2580687,.0835901,.9896356-.4877851,1.7604079-1.1977329s.8917293-.7352512,1.99564-2.0291689c-.352837,.4465525,1.1289827-1.3930939,1.6614327-2.1951685,.7785373-1.096091,1.6442018-2.3929797,1.0439747-2.0376599,.2184413-.6227959-.2580485-.5144992,.4151021-1.8814231,.0354773-.6050546,.1989899-1.4647523,1.0796075-3.2853776-1.0399698,.4740239,1.49189-3.4236028,.4749326-3.1878705,.4694128-1.5401298,.9407421-3.1891904-.3509777-2.8409488,.4504261,.9754092,.9409344,1.8224901,.8176044,3.3243968,.2144559,1.0983321,.794178,1.6816906,1.037629,2.5901204-1.1908227,2.6220488-1.6500251,4.2932905,.3080404,3.0016463-.6736738,1.8526639-.9051956,3.1022398,.3625116,2.4876432,.4398084,.3745469-1.8304123,3.9139925-.0647835,2.5604747-.2171221,1.0154022,1.0369472,.2020031-.1984822,2.2937665-.2402886,.2036913,1.5125515-2.0809917,.9566993-1.7151016,.5373341-.9402099,1.4373435-2.4215014,1.1199021-2.5567109,1.6394498-2.4732332,2.2279119-3.7992688,1.0505426-3.1247519-.0471686-.6758064-.0780871-1.4802275-.3212053-2.1410343-.7899247-.0075018,.1268156-2.1639803,.0927754-3.2951293,.9663-2.3263198,.0781087-2.5475888-.9308001-2.7359728-.4802988,.5738438,3.4135839,.707121,2.3553834,1.9714211,.1116267,1.5748479,.8600823,2.2966907,1.4104901,3.1643455,.4249148,1.0175895-.2764575,3.290018,.1547393,4.1198211,.1486613,1.1673664-.032592,2.6394307,.3945289,3.296495,2.0319358-1.2603112-.3199011,2.6288163,.006759,3.2309712-.3430099,1.4022526-1.1965926,3.3277192,.0463482,2.6628703,.2905801,.4729977-.1575304,1.7430925-.7850137,3.1433676-1.2918974,2.1940934-.431788,1.732918-.7893191,2.643744-.775332,1.4099996-.6645421,1.6785004-1.0653114,2.4767379-.8015393,1.5964768-1.7850749,3.0845731-2.9466087,4.4702009,1.9037835-.95841,3.5083923-2.1535803,4.838775-3.5439536,1.4036611-1.4779238,2.1085424-2.6438091,3.1934177-4.7151714,1.2598494-1.8928191,.7386572-1.770582,1.1586054-2.8767335-.4190398-.1037587,.8351571-2.3105887,.5391455-2.7603122-.7147146,.0505278,.2316425-1.9785607,.2562271-2.9924551-1.4730867,.7754697-.1536677-1.8715532,.0955475-3.317121,.1764961,1.4399851,1.6370747,1.2678594,1.3290644,3.1283192,.3579133,1.0648381,1.2304631,1.4343456,.6648642,3.439114,.9168804,.2335551,.5921487,1.8675563,.5477037,3.0811667-1.2236505,2.622483,.5976792,1.5214183,.2478083,2.9263858,.3399207,1.5677834-.0782264,3.6891168-.4052349,5.3291871-.026243,1.2807264-1.0428801,3.3723663-1.6083122,4.5323373,1.5453637-1.4790434,2.7771047-3.0694576,3.4431395-4.3986142,1.4753237-2.2960661,.9232631-2.5845141,1.9415626-5.0923521,.1256405-1.4413206,.861665-3.9550861,.6016392-5.5505382,.6223812-1.6966597,.0155118-1.9925878-.1511347-2.8734803-.6471659-.3067851,.259182-2.5286551-.4254954-2.8996958-1.0560492,1.2617298,1.7771967,3.1413186,2.5911904,2.168788-.1566593,2.9850465,.1416419,5.0590074,.7289659,6.4143481,.973644,.8937794,.7348574,2.8628213-.9703814,6.2048308,.6602458,.515813-1.1057344,3.551297-2.5432554,5.8094614-1.7636738,2.6478404-2.4327571,3.6030148-3.9896585,5.2282429-1.5568994,1.6252259-3.3337867,3.1226064-5.3095829,4.4611663Z" fill="#650a0b"/>
      <path d="M49.0220519,32.4855272c-.3080316,.4372293-.9695588,1.2914741-2.2735927,2.913363-.7386915,1.1327369-1.2847442,2.0034104,1.6037608-1.2507165-3.365656,4.2181212-.6200494,1.1027863,.0410159,.4620343,.2856299-.1975562-.6654534,1.0558914-1.2279297,1.8237317,1.3771519-1.6453719,2.363995-3.4525502,1.8567457-3.9484125Zm.7091921-1.4648265c.219492-.5603389,2.1363517-3.1752416,2.6103485-4.0928727,2.0945421-2.8538333-.0120451-.7095885-1.4896206,.6512302-2.5095755,2.1945432-3.7755658,2.7968247,.0633636-2.8118357-.6934071-.1882908,2.2909351-4.877063,.4857597-3.9552896-.9214275-.1340969,.6375623-3.3381458-.7118752-3.1844369-.1473039-1.2772614-4.2793164,2.0944981-.6508157-3.9174923-1.3262222,.7434487,2.5404306-4.7439737-.4632371-2.049592-1.5278324,.9311063-1.5012822-.026846-.5558461-2.1092923-1.3661766,1.632259-2.7474814-1.497628-2.3527609-1.969226-3.8682312,6.0162995,.0104662,2.6597506,.6289482,3.0972163-2.612077,4.2919261,.0232671,2.2026221,.209365,2.9331521-3.0203609,4.5561314,1.1939158,.3621384-.1835088,2.74244,.2449176,.4366566-.5340377,1.9901295-.5474169,2.5224815-.9905003,1.4655269-2.2471261,3.2117773-2.4949627,3.7261204-.1247226-.1756932-.1011975-.5391641,.4385838-1.5353922-.622047-.0127178-.8597143-.5591789,.2435006-2.7768822-.7826796,.0354961,3.7135767-6.310592-.2011509-2.6767737-2.9436831,2.4683531-1.1610655-.7846739-.4725395-2.8103479-3.3218548,2.771114-1.0911012-1.1716585-.7631973-2.9155067-.5084021-.3720619-1.3320222-.4154032-1.398141-1.4063746-.4612054,1.2803071-1.036326,2.6434971,.426304,1.5241325-1.7217964,3.0365908,.5192183,1.2321187-.2411783,2.9124835-1.6862512,2.7812143-.8302523,2.4238971-.5854312,2.6956512,1.0353319-.9601609-4.9654541,6.4701952-1.5524737,2.6213818-.6109982,.9588924-1.6973792,2.4644741,.6438116-.1517265-2.2471798,3.0468562-2.3293259,3.4058329-1.9235471,3.0860406,.0114725,.1566393,.2692146-.0820976-.7833339,1.1488077-3.991033,4.7417341-1.0421988,1.1014776-1.8443482,1.8469162-1.2891926,1.4338108,.0360302-.2772695,.5766895-1.0722626-1.8785534,2.0900349-.4624414,.2277687-2.486954,2.4496283,1.4003095-2.0403417,1.1648259-2.1795151,.4018769-1.7576959-.1091367-.1091578-.6256499,.2471223-1.000928,.4186746,1.899206-2.5405917,1.4086258-2.2472333,1.9890977-3.2495149-.1823825,.1859662-.3165274,.3142998-.4089932,.3928368-.0415597,.4062991-.6396827,1.4829211-2.1895224,3.6965877-2.2847923,3.0332143-2.2144074,3.2525146-1.2624671,2.4185965,1.5835119-1.5884973,3.2288458-3.2455288,1.4769282-.8489743,1.0775887-.6753163,2.0455347-1.219603,1.7937976-.3119842,1.4525672-1.1233272,4.0191509-3.577609,1.3205631,.2587479-1.7446946,2.6966469-2.1565097,3.7955211,.1004391,1.7058517,2.0249377-1.2056511,4.4542912-2.9104365,2.1079749,1.0692966-.6190301,1.0323644-3.8520147,5.1877882-2.3618811,3.6949033-.1716819,.4978888-1.6310266,2.5289026,1.2099157-.5779128-.1523648,.4695135-.2415703,.8582055-.4750715,1.4246579,3.998376-4.4950042,1.1720023-.8413372,2.5257198-2.1765981,5.3412794-5.2690073,.7303519,1.3152604,2.1679966,.624987,2.2099797-1.6077033,4.040695-2.8155264,1.8620514,.7030459-.7488935,1.8103255-.2305718,2.0481127,1.0475036,1.3089366,2.6860029-1.8464032,3.9703448-2.2417169,4.3614715-1.8519942,.8859065-1.2500767-1.1346435,.9617201,.7091921-1.4648265Zm-5.3671211-8.3327855c.2563261-.1998113,.9104988-.8908758,2.1677183-2.3024714-2.3268855,3.0781774,1.6576587-1.4907864-1.8336227,2.7603329,.0374303-.3162086-.1829992-.3402883-.3340956-.4578614Zm-9.0848386-1.5221928c-.1598306,.2761168-.1841136,.3849901,.0573481,.1816572,.0085195-.0953357-.0114725-.1566393-.0573481-.1816572Zm.8918013-2.7689219c.284052-1.0899642,1.1765922-2.9760999,.2188968-2.7261729-1.1111881,.4333147-3.4234932,2.2271483-.660817-2.1169568,.5125914-.7561301,.9001561-1.3629153,1.1842331-1.8513855,.86981-1.4863483,.7826475-1.8399968,.4222707-1.8832038-.3800454-.0463172-1.0688105,.2549318-1.2430895-.0691655-2.3903103,1.6528096-.824444-1.5009402-.5631797-3.1758267,.9124911-2.4263395-1.2185798-1.2961682-.8960642-3.1826438,.0084127-.0419891,.0163846-.0887799,.026979-.1333756-.015412,.0450232-.0308081,.0900598-.044025,.1324605l.0026226,.002195c-.5932294,1.8425803-.3445012,2.5408765-.2077591,3.234529,.4520336,.3382345-1.1516811,2.9835708-.7222665,3.0667495-1.191389,1.7161983-1.1156388,1.8865262-1.8625962,3.0078577,2.1669834-2.3654692-2.102574,2.9273053,.3991957,.0979697-.6633919,1.1066474-1.1378833,1.8545557-1.2682299,2.0528838-4.8731801,5.870192-2.9787661,3.521657-1.8888634,2.001211-1.3372032,1.3847342,1.2336234-2.0328184-2.3455114,1.77496,.1454883-.5198125-.1146017-.6083061,.4192437-1.6986167,1.242166-1.9365543,1.3529021-2.574568,.8159797-2.5026583,.8340853-1.5607929,2.8827287-4.6312438,.0228948-1.9011297,2.7281452-3.9408427,1.6223294-3.3649141,.5706039-2.9174539,1.3538976-2.4267249-1.0450267-.4335879,.002143-2.6269251-.0023842-.5188143,.0040718-1.0748002-.032848-1.6002757-.4033576,.6203255-1.0097414,1.4672344-1.8673997,2.5984044,1.2596274-1.1110464,2.9893695-2.9647721-1.0698072,1.9382387-.7649549,.9458786-2.0336839,2.4191161-2.5159018,2.8887823,.3190554-.0671131,.3683276,.2147107-1.3174246,2.5641512,.1218987,.4718363-1.3570058,2.8562877-.9865222,2.8767627,.0481193,.4056243-.0060656,.7790845,2.3052534-1.9823968-.6688339,.7990988,1.6379327-1.4671859-.102513,1.4958729-.8223982,1.419078-1.2200371,2.4318108-.0074017,1.6111308,.5192552,.0024174,1.7975109-.8168025,2.6146404-1.0105853,.3000636,.42935,.2898713,1.2985544,1.1483822,1.1884105,1.6063156-1.0035617,1.2529069,.3981609,1.552844,1.0724758,4.3586142-4.1801108,1.0963136,.792833,1.4991627,1.4240858,1.4181634-.5818409,.2367676,1.9848057,1.7758456,1.3170477,.8163505-.2300859,3.3150977-2.4649107,3.7292275-2.1984849,.3850757-.6623588,1.5565424-2.2749262,1.8508623-2.8394775,1.5690942-2.21539,.0295472-.732672-.959061,.0705556Zm6.2624181-11.5064491c-.2473994,.7107765-.3333516,1.2180372-.3074633,1.591675,.2560928-.6945535,.4753949-1.3664644,.3074633-1.591675Zm-19.3657137,5.9169005c-.0498849,.0117101-.1041759,.028652-.15801,.0504089-.0878418,.1581692-.0138221,.1176562,.15801-.0504089Zm-.4504443,.1442633c.0813998-.0120642,.1890974-.0555806,.2924343-.0938544,.0373197-.0712303,.1097495-.1843762,.221209-.349482-.1507501,.1322202-.3265167,.28364-.5136433,.4433364Zm-.0752025-.2188728c-.6621466,.327961-.572881-.0874123-1.5816128,1.1177844-.1150087,.589867,.8503959-.2015904,1.6546202-.896289-.1054425,.0142126-.1552232-.0274532-.0730074-.2214954Zm5.9809372-7.3534225c1.069606-1.6399005,.7148992-1.6739292-.1851847-1.1574702,.1038104,.3497434,.155879,.7453209,.1851847,1.1574702Zm31.5268703,37.6241232c-.5747437,.5748844,2.6001305-3.4152975,1.7192198-2.6555863,4.8410019-6.3694272-1.5111187,.2723473,2.3836736-5.6905296-.2125152-1.0555801,1.6554998-4.9589094,.8835812-6.0594571,.2938285-1.3624762-.1125557-1.9788487-.4819115-2.7246181-.9526631-.0488547,.3724163-2.9095926-.2500672-3.5286087-.326741,.3903784-1.8916526-3.0045708-2.5911904-2.168788-1.3542657,2.8050909-.3528175,2.7477682-.2244358,3.675007,.2752867,.7516894,.80903,1.1360692,.8021484,2.0971317-.6362448,1.7130031,.7087336,.9897399,1.0455693,1.3964045-.6148757,1.5437679-2.308507,4.2965335-1.646765,4.1553546,.6133224-.4133968,1.2801874-.9067172,1.8067767-1.2590507,.4283173-.2296257,.4466223,.0040073-2.2783253,3.4886033-4.0675595,5.3281861-2.9306608,4.3371622-1.4729546,2.8617067-.9713129,1.2988983-1.6425796,2.2073741-2.0681682,2.7957132-.4234096,.5857031-.4279039,.6443242,.4667458-.3979618-1.6298758,1.9952079-3.8823027,4.6277798-1.8381075,1.9991494,.4697939-.8008433,.9599817-1.7271946,1.6530058-2.9917011-1.5349977,1.6157236-1.8594625,1.7585038-1.4159223,.962418,.2444191-.5528546,.3766303-1.0035852,1.3715514-2.5010359-.4681555,.245285,2.1342301-3.1993163,2.0459748-3.4558456,1.0130132-1.5669895-.980391,.431404-2.0255454,1.2808773,1.5205473-2.6258319,1.3014463-3.2636795,.3847419-3.1532123-1.4171077,.7030028,4.9634972-7.9956122-.2018047-2.9847471,1.3086598-2.1437827,.0564936-1.2492632-.9495805-.6700467-2.4446204,2.2979401-.6586569-.4799838,.3563411-2.3527383-1.1352602,.4354656-1.5827421,.0118995-1.4192001-1.1789299,.0715887-.532662,.2655228-1.2168588,.5730809-2.0421053-.1638028,.0945637-.3013052,.1577046-.4194931,.1924408-.9420227,.2897492-.4226602-1.1824651-.2036674-2.3224504,.1420343-.7499078,.1582297-1.3601246-.4465987-1.2336926-.0262697,.0047442-.0499009,.0116968-.0783497,.0190769-1.7804595,3.4686855,.3514408,2.1565203-.2062043,3.9353373-.8225668,2.1006318-4.4618607,7.4441653-.3357771,3.376856-.6961457,1.6940854-1.990653,3.9699918-.4112609,2.6632008-1.8941621,2.84332-.0021815,1.0140268-2.0022526,3.6751286,5.5916279-6.5475973,1.4985771-1.5615527,.7638251-.6304784-1.5592136,1.8895022-2.4197418,2.9336157-2.7706015,3.3528104,.1811255-.0087898,.0165604,.432673-.8230403,1.7126146-.0567084,.5361971-1.4499822,2.7650885,1.484093-.1123064-.4162652,1.1308006-1.3138102,2.9058212-.6001083,2.8036722,1.2340154,.0214596,3.458827-.9545173,2.2850446,2.1353203,.8678988-.1958603,.5691697,1.0021249,.5165166,1.8847936-.0548348,.8852753,.1386042,1.4526408,1.9878187-.0114739,4.1942748-2.0142071,5.0718391-.8163159,2.5807002,2.1600078,.3283443-.3177615-.4996524,.6555467,2.0509235-2.4982607Zm-9.6525601-7.8651977c.0241188-.0288162,.0789414-.0943164,.1706123-.2091698l-.0048176,.0004275c-.0850991,.1070017-.1416759,.1799261-.1657946,.2087423Zm-.0921347-.081548c.1143428-.0780653,.2023718-.1246919,.2579294-.1271943,.1140354-.1362455,.2780759-.3375636,.4815871-.5860399,.3816237-.4825599-.0770071,.0068484-.7395165,.7132342Zm0,0c-.6580408,.4561355-2.0908774,1.9657859-2.258763,2.1237749-.1110825,.3882204,1.2923928-1.0969744,2.258763-2.1237749Zm-2.258763,2.1237749c.0021817-.0026066-.0004409-.0048016,.0017541-.0074242q-.0219237,.0261937-.0017541,.0074242Zm-8.0516671-26.2851269c-.104321-.5194795,2.7682428-4.6914158,.4780487-2.8122331-3.1296242,2.8874647-.1587834-1.6254871-.0116958-2.8924712,.9544873-2.2263403-3.1602836,1.4761688-.492127-3.0584338-.5570069,.6654919,1.2432092-4.6579466-3.125666-2.6161362,.0376066-1.2160408-.3050079-1.9884315-.7716841-2.4369554,.0386407,.5447006-.2108414,1.4230156-.7962721,2.6973817-1.1967733,2.3933594-1.3356649,3.5068142-.6591396,3.6141328l.0026226,.002195c.0048016-.0004409,.0074242,.0017541,.0144235-.0012799,.3909605,.0598856,1.0485969-.2094677,1.9246822-.750473,1.89995-.864693,1.2124222,1.3088535,1.0197292,2.8272808-.9795115,2.4638184-1.9860718,4.8960778,.7744729,2.7689876-.4221871,.6268372-.7566367,1.1488812-1.0165508,1.5818405-1.0080083,1.6781046-.9186507,2.0291305-.4222707,1.8832038,.5961818-.1693202,1.7743884-1.050008,2.3346812-1.2137157,.1679565,.8267047-2.3130019,4.7650194-.1378184,3.0658095-.8520733,.5655355,2.79192-4.3151688,.8845644-2.6591334Zm-5.4255107-14.3474665c.4791097-.0401034,1.0492346,.0984923,1.5023865,.5312368-.0479047-.7039785-.5817425-.8433666-1.5023865-.5312368Zm0,0c-.3736244,.0258723-.6888949,.1629958-.8489728,.3542511,.3091569-.1511328,.592016-.2708135,.8489728-.3542511Zm24.6591613,26.2932766c-.9317476,2.0181687-2.7223856,4.9347575,.1536994,2.169242,.527034-1.3855987,.5322445-2.1743185-.1536994-2.169242Zm-.2565087-4.8037888c2.1841266-2.6095164,.3849081-2.8233752-2.3265672-1.9473023-.5093746-.3283053-1.8143346,.2992548-2.8775095,.7816754,.4395675,.4436463,1.6203826-.0249656,2.3473404,.0220979-.2788382,.6844627-.4418441,1.2252371-.5066075,1.6433064-.1140105,.7377395,.0689152,1.1047251,.4465987,1.2336926,.3553816,.1237077,.8857788,.0329845,1.4960301-.1691305-.5993615,1.0354745-1.0215096,1.853925-1.2923627,2.4915809-.4959416,1.1621192-.4953823,1.7150844-.1535878,1.8496645,.2919563,.119625,.8422599-.0747425,1.5474122-.464742,.7161583-.429791,1.2340945-.6334103,1.5757619-.6370541,.2505032-.5388427,.4365646-1.0113168,.4573029-1.2969256,.2105474-1.4812117-.7999073-1.7165546-.7138115-3.5068632Zm-4.6531344-3.8946046c-3.2301608,3.8592807-2.1763578,3.4625899-.5509423,2.7289777-.3086138-.3073357-.2610761-1.0561412,.5509423-2.7289777Z" fill="#9a0101"/>
      <path d="M16.7677234,14.34111c-2.8991854-.5285547-5.4732663-.4820353-7.5119335,.1863861-2.0316545,.6653713-3.4736043,1.9357026-4.3343479,3.6880352L-.1593249,12.3991419c2.1964665,.3993124,4.184181,.4412144,5.8970063,.146112L-3.5781014,1.860967-2.1285798,.1291305,8.0799921,11.8547427c1.60828-.7078434,2.8355695-1.8281443,3.5991127-3.3365939l5.0886186,5.8229613Z" fill="#c1c1c1"/>
      <path d="M20.0034998,15.4197022c-2.8991854-.5285547-5.4732663-.4820353-7.5119335,.1863861-2.0316545,.6653713-3.4736043,1.9357026-4.3343479,3.6880352L3.0764515,13.477734c2.1964665,.3993124,4.184181,.4412144,5.8970063,.146112L-.342325,2.9395591,1.1071966,1.2077226,11.3157685,12.9333348c1.60828-.7078434,2.8355695-1.8281443,3.5991127-3.3365939l5.0886186,5.8229613Z" fill="#909595"/>
    </g>
  </g>
</svg>