<?xml version="1.0" encoding="UTF-8"?>
<svg xmlns="http://www.w3.org/2000/svg" xmlns:xlink="http://www.w3.org/1999/xlink" viewBox="0 0 50 50">
  <defs>
    <clipPath id="clippath">
      <rect x="-70" width="50" height="50" fill="none"/>
    </clipPath>
    <clipPath id="clippath-1">
      <rect width="50" height="50" fill="none"/>
    </clipPath>
  </defs>
  <g id="kampfschrei">
    <g clip-path="url(#clippath)">
      <g>
        <path d="M-2.7914038-10.2662357C-15.2173914,10.5492954-13.7399407,15.272212,10.003141,21.3148489c-24.3862989,3.3676868-26.5069668,8.055094-17.3177158,30.7605807-16.8762463-15.5966706-21.7148466-13.8482526-30.6432952,6.2249045-.503373-20.1662386-5.0965942-22.0077381-22.9321429-13.8406407,11.1300696-15.4179513,9.6526189-20.1408679-8.9883448-24.3906004,19.2841808-5.1605912,21.4048487-9.8479984,9.4082807-26.6449202C-40.7865136,3.1122785-35.9479133,1.3638606-33.0819494-20.6996658-26.5160918,1.4569421-21.9228705,3.2984416-2.7914038-10.2662357Z" fill="#3b383a"/>
        <path d="M-2.7768026,.3874914C-15.8659239,12.921427-14.4861823,15.7806515,2.9389381,18.5595691c-16.2619842,3.2492636-16.4785898,6.4182203-4.077575,16.760097-14.3861076-4.3447656-16.1545944-1.5166112-11.2932521,12.263736-9.9057322-9.1153724-12.8632674-7.5729741-14.5460884,5.2871699-4.4509102-11.3490912-7.6271063-11.3804368-13.9782426-1.2675037,.4321037-11.7429336-2.3107328-13.3415881-12.2274053-6.8265302,5.5163771-11.2732411,4.1366355-14.1324656-8.570548-11.5950851,11.5440474-8.5655616,11.760653-11.7345183-2.9321992-15.2367321C-48.0084276,15.4498235-46.2399408,12.6216691-58.7331144,.090256c17.5375634,7.8664383,20.4950986,6.32404,17.5424629-13.0476427,9.086367,17.8606298,12.2625631,17.8919755,21.9372567,.425275C-23.0090558,6.5645893-20.2662193,8.1632437-2.7768026,.3874914Z" fill="#9a0101"/>
      </g>
    </g>
  </g>
  <g id="sprung">
    <g clip-path="url(#clippath-1)">
      <rect width="50" height="50" fill="#040101"/>
      <path d="M-10.7533487-.2836976V5.4356881C-3.7944938,12.5092531,2.6211001,23.7298822,5.8039789,34.9187201L.457293,27.866959c-3.0110289-6.9105216-6.9949441-13.2122642-11.2106417-17.9502795v3.1046874c2.9678511,3.6700734,5.7865149,8.1618044,8.1427949,13.0466446L.5209844,39.5206518l-8.921598-4.8032103,5.0314487,9.8377729-6.7867899-.6109258,6.0248501,5.9510628H5.5992619l-3.0745056-4.4910869,5.2730047,1.3896216,.1845243-6.9378025,4.3465188,4.9943934,4.3467335-8.696689-.0907585,9.7138269,4.440714-3.3295956-3.1550603,7.3573322h14.8354965l7.1661491-10.7541649-9.1499438,2.5172829,5.6423745-11.2104254-11.2105336,3.5074611,6.1556717-20.8199615-13.8317844,17.0170249C14.9715375,18.8891872,9.2368984,7.367498,3.1622125-.2836976H.5610462C5.062445,5.0206703,9.5565393,12.8628354,12.6711076,21.194342l-.8861021,4.4170845C7.9450153,15.6011588,2.0744007,6.1923654-3.245219-.2835897h-7.5081298v-.000108ZM28.9500387,4.9927445l-6.4443786,6.0179754-.2282384,8.4349394,5.2999645-7.9749185,1.3726525-6.4781037v.0001073Zm11.1367442,25.928529l-3.6988572,6.0853207,3.6988572-1.8194631v-4.2658575Z" fill="#3b383a"/>
      <polygon points="42.4290021 9 40.8069473 15.0827054 46.8896527 9 42.4290021 9" fill="#3b383a"/>
      <polygon points="43.4979232 17 48.9761841 17 49.4979232 14.9130435 46.1066189 14.1304348 43.4979232 17" fill="#909595"/>
      <polygon points="50.0510568 26.8857196 52.484139 30.1298292 45.5904062 31.3463702 50.0510568 26.8857196" fill="#3b383a"/>
      <polygon points="43.9683515 45.9448631 58.5668443 34.5904798 43.5628378 41.0786988 40.7242419 49.1889726 43.9683515 45.9448631" fill="#909595"/>
      <polygon points="27.3422902 39.8621577 21.9935636 50 17.9181559 50 20.4161094 44.1727702 16.9003126 46.8086092 16.969243 39.1160017 13.5264357 46.0057 10.0876876 42.0478825 9.9376495 47.542588 5.7648978 46.443637 8.1979799 50 3.6319165 50 1.7949276 43.1062673 7.4721193 43.9172946 7.877633 38.6456167 13.5548247 41.0786988 17.6099616 35.8070208 18.8265027 43.5117809 27.3422902 39.8621577" fill="#c1c1c1"/>
      <path d="M34.0235619,17.9132881c.0241566,2.1799707,.4716326,4.3601437,1.185149,1.3163171,.7135164,2.892827,1.6930733-2.4131395,2.7813916-1.6924843,1.0883183-3.6601056,2.2853981,1.7427029,3.4339603-.5389673,1.1485622-2.2997167,2.2486069-2.447433,3.142855-1.9234613,.3379601-2.1209145,.61415-2.84265,.8390836-3.6924042,.2249336-.4633414,.3986109,1.992072,.5315455,1.3538134,.2658693,2.4058662,.3687682,1.8264944,.3928065-2.7542543,.0240383-4.6209177-.0307839-1.0453363-.0803568-2.859707-.0495729,.549127-.0938963-1.3948609-.0488605-2.9116938,.0450358,.7066228,.1794309-2.3652049,.4872951-2.1742989,.3078642-1.6344786,.7891975,.0444075,1.5281098-3.1820028,.6829044-2.7232905,1.4594766-1.9755202,2.2518081-1.7060036,.7923315,.6094446,1.6004223-2.7687068,2.3463637-.8247993,1.4918829,.9329176,2.7351685-1.7255465,3.1065883-.3077929,1.6574945-.717258,3.1660759,.3026545,4.4913888,.6691632,1.3253129-1.8397966,2.4673572,.4448183,3.3917775,2.6690961,1.8488406-.7532331,2.827185,3.4167487,2.6601897,3.5554735-.0969914-1.140989-.5866459,.2338956-1.3653732-.3003494-.7787274-.4736942-1.8465276-.2965782-3.0998106-2.6643778-1.2532829-2.9330712-2.6920485-1.8894321-4.2127066-1.80109-1.5206581-.6333569-3.1232086-.537756-4.7040614-.1003471-.9806494,.5069253-2.1163163,2.3907963-3.0979472,1.6863808-.9816309,2.4806541-1.8092257,1.686151-2.1737308,3.1797835-.2544763,3.1210733-.2481099,.5446912-.0694646,2.850437,.1786453-.1135349,.5295695,.8613699,.9642087,2.3779941,.4346392,1.2542064,.9529935-.3042922,1.466499,2.487969,.5135055,2.2336949,1.0221621,1.1726663,1.4374061,2.2813169,.8304878,2.9146023,1.2873251,2.0880982,.6620014,4.1952622-.6199343-2.5677613-1.9558041-.2580521-4.0551369,2.4330821-.8559868,2.5447301-1.7213185,2.9878298-2.5800869,2.8880524-.8587684-.0765457-1.7109736-.06513-2.5407075-1.1256248-1.6594679-1.342107-3.2290508-4.4966874-4.5814846-1.284103-2.7048676-1.7127777-4.5411387-5.0667787-4.4907001-2.1003793Z" fill="#650a0b"/>
      <path d="M1.7949276,37.0235619c-.1487583-1.2872145-.4856988-.7848659-1.1560383-2.0312161-.6703396-2.2182234-1.6740784-2.2024287-3.1564332-4.9768725-1.4823544-.9484907-3.4433247-4.9836335-6.0281276-5.5628358-2.6658459-.2596082-5.2809583-3.5085612-7.2146279-3.3066233-1.9336696-2.1153602-3.1858965-1.8510793-3.1259712-1.1540273,.060572,.5038294,1.4438153-.2549882,3.4128688-.5072649,1.9690535-.4176585,4.5239172,1.2745544,6.9277304,1.723806,2.8812922,3.0134151,5.0495837,4.1434841,6.6404295,5.9200461,1.5908459,2.4643766,2.6042462,3.6054013,3.175756,6.6143665,.5715097,.9752893,.7011292,3.3655622,.5244136,3.2806214Z" fill="#650a0b"/>
      <path d="M52.7471879,29.7117025c1.3003979,1.505915-.3710437,1.5559742-1.068248,3.5789576-.9626827,1.6891909-2.5226349,3.3754116-4.6518652,3.5611372-1.4662785,.1278966-2.8807242-.483854-3.9011415-1.1877919-1.2950754-1.0492723-1.9329847-1.8598826-1.5369706-1.7409161-.3266293-.9074754,2.9763047,2.3325881,3.4187562,.3897223,2.9156931,.6943792,5.4202094,.320406,5.4089646-2.5038322,.9617807-1.6008294,1.669141-2.8086847,2.3305045-2.097277Z" fill="#650a0b"/>
      <path d="M38.9148652,4.4664322c1.2416698-.9496541,.8594201-.8775084,2.9197485-1.2595941,2.5372984-.5139315,2.8538558-.1930418,1.8785637,.3539473,.4531654,.1366162-.6227548,.490696-1.081674,.8433675,.6979065,.0328972-4.0229174,1.7328061-2.6775311,2.2993726-1.9536501,1.6693178,.5939508,2.4420909-.7549099,4.0073851-1.1847595,1.5199327,.3536341,2.0025671,.313217,2.0048063,.9365552-.2707691-.3036761-1.5546842-1.3134076-3.1377749,.6709995-1.1165826-.2431487-1.8538575-.7419731-2.5923777-.1767379-.8275525,1.551007-2.0679893,1.4579665-2.5191322Z" fill="#650a0b"/>
      <path d="M49.3378685,28.2775196c.0195282,1.7636529,.3815551,3.5274543,.9588132,1.0649189,.3487853,1.4141003,.7762528,.4068255,1.2541125-.4835523-1.3835581-1.2634682-2.2441114-2.4150142-2.2129256-.5813666Z" fill="#9a0101"/>
      <path d="M49.6192066,11.3816565c-.4154387-2.2590112-.8348127-.9981666-1.1864444-2.0128419-.3516317-1.2269858-.6355209-2.0157129-.7800644-1.9238635-.0009776-.0126971-.0019924-.0253941-.0030443-.0381035-.0639865-.7747245-.2599616-1.6025018-.6496535-2.4699977v2.8385958c-.3519039,.5803209-.5412459,.8632388-.5679518,.8486421-.0072086-.0039415-.0025679-.0295708,.0139346-.0768939,.040096,1.4678586,.084449-1.4248668,.0650198,2.3135615-.019454,3.7059556-.102715,4.1746823-.3177976,2.228271-.1075413,.5163716-.2480504-1.4701109-.4300415-1.0952632-.1819663,.6874724-.4054147,1.2713636-.6788345,2.9872479-.7234598-.4239034-1.6134416-.3044075-2.542653,1.5561192-.9292115,1.8459486-1.8976773-2.5250801-2.7781549,.4360559-.0504231-.0216691-.1005802-.0396319-.1502794-.0543275-.7898037-.2334971-1.596605,.3195673-1.9400565,.5889156,.5386409,.2218705,1.1436258,.5224726,1.7709048,.9337656,.2701898,.1771585,.5177019,.3572748,.743483,.5352315,1.0941494-2.5990596,2.3639785-.0469271,3.7065496,1.0388813,.6712608,.8579545,1.3607133,.8487225,2.0554871,.9106485,.6947739,.0807364,1.3948443-.2777511,2.0873659-2.3365053,1.6984103-2.1772105,2.7791697-4.0458059,3.2807157-1.9684393,.5059021-1.7047465,.1363015-1.0360845-.535578-3.3940734-.3359398-.8969119-.7474679-.0385119-1.1629065-1.8456269Z" fill="#9a0101"/>
      <g>
        <path d="M25.8556048,30.9422576c.9021173-2.3416663,2.4892001-1.8884483,3.9066313-1.669441,.8053127-2.3693882,2.5737604-.1829017,3.4979938-.4983454,1.5600224-1.3326405,3.3942592,.3184867,4.3168511,.0659467,1.3483001,1.5476038,2.1446932,2.712723,1.5812498,.2060318-.3144729-1.5757351-1.66754,.4582917-4.8104768-1.8444176-3.0660199-1.9774597-6.4351673-2.0048392-8.7508889,.8844991-1.662067,3.5863103-3.4924801,3.1929427-3.925898,5.9040104-.4415381,2.6767308-.0232738,6.186331-.4283588,3.8763818,.1393082,.1014195,.4177284-.7209581,.9968173-2.4540038,.5045406-2.0482798,1.7051523-3.3352351,3.6160791-4.470662Z" fill="#650a0b"/>
        <path d="M26.9286279,28.9859957c.5155275-1.3381778,1.422488-1.07918,2.2324987-.9540253,.4602072-1.3540198,1.4708112-.1045217,1.9989772-.2847864,.8914965-.7615559,1.9396966,.1820037,2.4669246,.0376861,.7705048,.8843997,1.2256147,1.5502233,.9036272,.1177398-.1797099-.9004757-.9529389,.2618972-2.7490138-1.054018-1.7521197-1.1300468-3.6774658-1.1456932-5.0008171,.5054593-.9498113,2.0494469-1.9958263,1.8246515-2.243509,3.3739288-.2523231,1.529655-.0133001,3.5352649-.2447916,2.2152122,.0796096,.0579576,.2387167-.4120015,.5696451-1.4023746,.2883267-1.170518,.974433-1.9059665,2.0664586-2.5548219Z" fill="#9a0101"/>
      </g>
      <path d="M51.8002957,31.338401c1.0014301,1.1596978-.285739,1.1982482-.8226526,2.7561379-.7413573,1.3008377-1.9426689,2.5993882-3.5823789,2.7424145-1.129174,.0984925-2.2184318-.3726136-3.0042502-.9147128-.9973313-.8080395-1.4885821-1.4322866-1.1836136-1.3406711-.2515357-.6988424,2.2920378,1.7963148,2.6327676,.3001233,2.2453611,.5347381,4.174077,.2467431,4.1654174-1.928189,.7406626-1.232791,1.2853974-2.1629545,1.7947103-1.6151028Z" fill="#9a0101"/>
      <polygon points="39.0883321 13.7628012 34.7907571 17.0191576 31.9976014 22.4226367 38.0059008 21.4200455 39.0883321 13.7628012" fill="#909595"/>
      <path d="M32.5815201,39.7932273l2.9318808-1.4436277v-3.377936l-2.9318808,4.8215637Zm-10.9934702-20.587938l-.1824861,6.6788234,4.1970815-6.3138511,1.0908328-5.1338172-5.1054283,4.768845Zm6.5084898,24.2699845l4.4687688-8.8766759-8.8807597,2.7777589,4.8742825-16.4881758-10.9529287,13.475212c-1.9829679-8.9213012-6.5247014-18.0453592-11.338147-24.1037348h-2.0600165c3.5644564,4.2011159,7.1248785,10.4135886,9.5903839,17.0113043l-.7015308,3.495526C10.0552395,22.8387009,5.4080437,15.3894164,1.1947753,10.2596583H-4.7541284v4.529581C.7608727,20.3893824,5.8378873,29.2782603,8.3601953,38.1387245l-4.2335639-5.5839314C1.7422089,27.0803583-1.4126748,22.0884857-4.7541284,18.3374841v2.457412C-2.4021292,23.7024471-.1677695,27.2587853,1.6976083,31.1314361l2.4776827,10.6528526-7.0640416-3.8037204,3.9862065,7.7899269-5.3771155-.4825623L.4932198,50H3.6319165l-1.8369889-6.8937327,5.6771917,.8110274,.4055137-5.271678,5.6771917,2.4330821,4.0551369-5.271678,1.2165411,7.7047601,8.5157875-3.6496232-5.3487266,10.1378423h7.6723121l5.6771917-8.5157875-7.2465277,1.9910613Z" fill="#909595"/>
      <path d="M39.9132146,37.4290756c.4235569-.1157461,.5520124,1.0779254,.4089726,2.1466466-.1725487,.0669132-.8462289,.3512387-1.22,1.0974629-.4870483,.9723672-.0555589,1.9118285,0,2.0275685-1.1317889,.0895693-2.9809148,1.718415-5.2660441,3.3164926-2.2851262,2.6427135-5.0062526,.5655943-7.8820393,.5483958-2.8757898-1.0651726-5.9062367-2.3802149-8.810004-1.4854284-.3842344-.4114446-1.0346304-1.0160737-1.9762419-1.469588-2.1928467-1.0561541-3.7808014-.2407428-5.6681701-.5043583-4.146974-.5792226-6.6504917-5.9363304-6.4882191-6.0827054,.1031063-.0930065,1.3635921,1.8444017,4.0877551,3.2349178,1.9601525,1.0005365,3.859403,1.3000217,5.2583003,1.3808169,2.2001296-1.741826,4.8047952-.1862327,7.6855196,1.061457,2.1078222,.3196415,4.0354911,.6195104,5.942354,.08969,1.9068629-.9100019,3.792926-2.6468963,5.817543-1.306231,2.2758107,.9543519,4.0325582-2.3908824,5.355765-3.0158348,.2292709,.2414296,.4490407,.3295294,.5951991,.3659004,.7031396,.1749743,1.5929728-.3768463,2.1593097-1.4052025Z" fill="#650a0b"/>
      <path d="M36.3548963,41.1437929c-.3200994,.5812676-.8230809,.8931746-1.2205259,.7942712-.0826175-.020543-.2068407-.0703412-.3364348-.2068159-.7479134,.3532404-1.7409071,2.2441114-3.0272943,1.7046722-1.1443931-.7577889-2.2104753,.2239681-3.2883141,.7383349-1.0778388,.2994822-2.167434,.1299901-3.3588533-.0506892-.5489155-.3207769-1.3212763-.691052-2.2952461-.9268911-1.5237238-.3689571-2.8212704-.2346418-3.5962114-.0904077,1.0104986,.4233063,1.4988958,.6921905,1.4650525,.8066063-.0464197,.1569373-1.0753761,.0232656-3.0871072-.4010926,.2494426,.0494424,2.9698575,.5902954,4.1364952,.9011907,.1193535,.0318045,.345707,.0921248,.6213605,.224887,.5322367,.2563419,.8998573,.598098,1.1170437,.8306794,1.6413355-.5057783,3.3542744,.2375314,4.9797695,.8396143,1.6255198,.009727,3.1636206,1.183796,4.455255-.3099764,1.2916591-.9032976,2.3368518-1.8239948,2.9766051-1.8746098-.0314085-.0654158-.2753008-.5964398,0-1.1460761,.211271-.4217996,.5920589-.5825052,.6895762-.6203241-.0770579-.4044587-.1541127-.8089143-.2311705-1.213373Z" fill="#9a0101"/>
    </g>
  </g>
</svg>