<?xml version="1.0" encoding="UTF-8"?>
<svg id="kampfschrei" xmlns="http://www.w3.org/2000/svg" xmlns:xlink="http://www.w3.org/1999/xlink" viewBox="0 0 50 50">
  <defs>
    <clipPath id="clippath">
      <rect width="50" height="50" fill="none"/>
    </clipPath>
  </defs>
  <g clip-path="url(#clippath)">
    <rect width="50" height="50" fill="#040101"/>
    <g>
      <path d="M67.2085962-10.2662357c-12.4259876,20.8155311-10.9485369,25.5384477,12.7945449,31.5810846-24.3862989,3.3676868-26.5069668,8.055094-17.3177158,30.7605807-16.8762463-15.5966706-21.7148466-13.8482526-30.6432952,6.2249045-.503373-20.1662386-5.0965942-22.0077381-22.9321429-13.8406407C20.2400567,29.0417422,18.762606,24.3188256,.1216424,20.0690931,19.4058232,14.9085019,21.5264911,10.2210947,9.5299231-6.5758271,29.2134864,3.1122785,34.0520867,1.3638606,36.9180506-20.6996658,43.4839082,1.4569421,48.0771295,3.2984416,67.2085962-10.2662357Z" fill="#3b383a"/>
      <path d="M67.2231974,.3874914c-13.0891213,12.5339356-11.7093797,15.3931601,5.7157407,18.1720776-16.2619842,3.2492636-16.4785898,6.4182203-4.077575,16.760097-14.3861076-4.3447656-16.1545944-1.5166112-11.2932521,12.263736-9.9057322-9.1153724-12.8632674-7.5729741-14.5460884,5.2871699-4.4509102-11.3490912-7.6271063-11.3804368-13.9782426-1.2675037,.4321037-11.7429336-2.3107328-13.3415881-12.2274053-6.8265302,5.5163771-11.2732411,4.1366355-14.1324656-8.570548-11.5950851,11.5440474-8.5655616,11.760653-11.7345183-2.9321992-15.2367321C21.9915724,15.4498235,23.7600592,12.6216691,11.2668856,.090256,28.804449,7.9566943,31.7619842,6.414296,28.8093485-12.9573867c9.086367,17.8606298,12.2625631,17.8919755,21.9372567,.425275-3.755661,19.096701-1.0128245,20.6953554,16.4765922,12.9196031Z" fill="#9a0101"/>
      <path d="M52.630486,7.0793402c-1.9168068,5.3903157-.7667198,7.7736292,4.7774398,9.0781263-4.5746246,3.720308-4.7551767,6.3617996-.2476776,10.3662016-6.162178,.9945045-7.6363046,3.3519196-5.8501611,9.5051086-5.9909069-2.2646879-8.4561676-.979018-9.9343355,5.0809356-3.6346187-4.8004119-6.2821448-4.8265401-10.3468757-.5677578-.8690931-5.6174731-3.1553912-6.9500355-8.6693821-5.4686774,1.8461139-5.4475533,.696027-7.8308669-4.9329067-9.0263774,4.6593987-3.8292946,4.8399508-6.4707861,.1188533-10.4720774,6.3757764-.9976153,7.8499029-3.3550304,5.889871-9.6876887,6.1647954,2.4441571,8.6300561,1.1584873,10.1161546-5.1259607,3.6266882,5.0249062,6.2742142,5.0510345,10.4568579,.6929969,.7511803,5.7167285,3.0374784,7.0492908,8.6221621,5.6251704Z" fill="#650a0b"/>
      <path d="M1.6722532,36.1917605L-.0158798,38.2268687l3.494657,3.2278097,2.068464-2.3767637-3.874988-2.8861542ZM28.463948,16.0083096l1.0644403,6.5658678,17.3420222,1.0327713,1.9371508-6.3882056-20.3436133-1.2104335ZM6.8707237,40.5476207l-1.1935154,1.3718274c1.6284838,1.3038415,3.3883662,2.3836982,5.2313051,3.2357747l.316275-4.5415607c-1.4610509,.1287724-2.9220473,.1101816-4.3540648-.0660414Zm6.4489423-1.7459203l-.609506,8.7122953,2.7594637,.8389315,.8584992-10.3278111-3.0084569,.7765843Zm30.3468672-13.5045616c-.3026599,2.0521723-1.1750328,4.2441803-2.4112292,5.8567707,.2541178-1.4912481,.426689-3.3041727,.4308245-4.9549251-.946779,4.059632-3.1448961,8.0147435-5.5000053,9.7105324,1.8549569-2.8737783,3.113266-7.521607,2.8577846-10.8857126l-3.6864038-.2186829c-.7929003,2.0315905-2.2820495,4.0958633-4.0021658,5.4166919,.7481247-1.6278622,1.5081654-3.718729,1.9177702-5.5395031l-2.2783176-.1356144c-1.8860355,6.8075679-6.892108,11.7728962-12.7650691,14.28906l-.6972502,8.3423651c6.8913667,1.1040194,14.093911-.6946851,19.4769673-5.6728535,5.0388148-4.6598192,8.0684527-10.3089371,8.2406097-16.1134495l-1.5835152-.0946791Z" fill="#909595"/>
    </g>
  </g>
</svg>