<?xml version="1.0" encoding="UTF-8"?>
<svg xmlns="http://www.w3.org/2000/svg" xmlns:xlink="http://www.w3.org/1999/xlink" viewBox="0 0 23.96 23.84">
  <defs>
    <radialGradient id="_Градієнт_без_назви_51" data-name="Градієнт без назви 51" cx="10.89" cy="12" fx="10.89" fy="12" r="6.26" gradientTransform="translate(28.42 8.46) rotate(-141.76) scale(1 -1)" gradientUnits="userSpaceOnUse">
      <stop offset="0" stop-color="#fff200"/>
      <stop offset="1" stop-color="#000" stop-opacity="0"/>
    </radialGradient>
  </defs>
  <g isolation="isolate">
    <g id="_Шар_2" data-name="Шар 2">
      <g id="Zauberstab">
        <g>
          <path d="M10.91,5.8l1.32,3.07,.71,1.68,1.25-1.58c0-.21-.02-.41,0-.59l-3.27-2.57Z" fill="#ffd900"/>
          <path d="M8.72,8.56c-.01,.49,.01,.94,.05,1.33l1.25,.99,.31-1.79,.58-3.29-2.19,2.76Z" fill="#ffb300"/>
          <polygon points="10.91 5.8 10.33 9.1 10.03 10.89 12.94 10.55 12.23 8.87 10.91 5.8" fill="#fff200"/>
          <path d="M14.19,8.96l-1.25,1.58,.19,1.62,.24,2.03c.08-.05,.15-.11,.2-.17,.07-.05,.13-.12,.19-.18,.39-.4,.71-.84,.96-1.32-.02-.14-.04-.22-.04-.22-.12-.52-.22-1.02-.29-1.51-.11-.67-.18-1.27-.2-1.83Z" fill="#ff8c00"/>
          <path d="M8.77,9.9c.18,1.93,.83,2.81,1.55,3.51l-.3-2.52-1.25-.99Z" fill="#ff8000"/>
          <path d="M10.03,10.89l.3,2.52c.42,.41,.86,.74,1.26,1.18,.14,.16,.28,.32,.4,.52,.25-.12,.5-.25,.71-.4,.11-.06,.21-.13,.31-.21,.03,0,.07-.03,.08-.06,.11-.07,.19-.15,.29-.23l-.24-2.03-.19-1.62-2.91,.34Z" fill="#ffa600"/>
          <path d="M18.32,2.86c-.2,.47-.39,1.02-.55,1.66,1.03-.49,2.53-1.09,3.82-3.37-.19,.29-1.09,1.46-3.27,1.71Z" fill="#252422"/>
          <path d="M14.63,5.61c.23,.18,.44,.56,.56,1.23,.19,1.06,.11,3.02,.01,4.58,.05-.15,.1-.28,.13-.43,.06-.2,.12-.41,.16-.63,.05-.21,.09-.43,.13-.64,.41-2.28,.29-4.7,.9-6.35-.79,.42-1.48,1.12-1.9,2.23Z" fill="#252422"/>
          <path d="M12.49,16.12c.03,.07,.06,.14,.07,.23,.06,.17,.1,.35,.14,.57,.97-.35,2.04-.83,2.89-1.47h0c1.16-.88,1.92-2.04,1.47-3.56,0-.05-.02-.11-.04-.15-.07-.21-.13-.42-.19-.59-.35,1.22-.95,2.18-1.72,3h0c-.41,.43-.87,.81-1.36,1.16l-.02,.02-.02,.02c-.06,.03-.11,.08-.17,.12-.34,.23-.69,.45-1.07,.67Z" fill="#252422"/>
          <path d="M17.22,8.71c-.01,.13-.01,.27-.02,.39-.05,.76-.16,1.42-.35,2.02h0c.07,.19,.12,.39,.19,.6,.01,.04,.03,.1,.04,.15,.49-1.26,1-2.13,2.25-2.5,0,0,1.12,.32,1.22,.74-.01-.1-.05-.51,.1-1.01,2.11-.5,3.34-1.76,3.32-3.21-.02,.3-.18,1.18-1.14,1.59-.38,.16-.88,.25-1.56,.2-1.15-.08-2.58,.25-4.03,1.02Z" fill="#211c1c"/>
          <path d="M.89,23.06c-.31,.24-.61,.5-.89,.76v.02H2.44c-.11-.04-.22-.08-.32-.12-.13-.06-.27-.12-.38-.18-.35-.16-.62-.33-.85-.48Z" fill="#403d39"/>
          <path d="M4.48,23.34c-.08-.02-.17-.02-.25-.04,.06,.02,.15,.04,.22,.04,.02,0,.03,0,.03,0Z" fill="#0f0e0e"/>
          <path d="M4.93,21.22c.33,.07,.68,.11,1.06,.14,.27,.02,.55,.02,.84,0,.28-.02,.57-.06,.87-.12,.46-.11,2.4-.55,2.96-2.05,.2-.55,.15-1.09,.06-1.51,0-.03-.02-.06-.02-.09-.04-.15-.08-.28-.12-.39-.02,0-.03,.01-.04,.01-.75,.39-1.55,.78-2.35,1.22-.36,.28-.77,.59-1.18,.94-.83,.69-1.51,1.32-2.06,1.86Z" fill="#211c1c"/>
          <path d="M5.47,23.44c.28,.1,.6,.12,.94,.09,.04-.03,.07-.07,.1-.09-.37,.03-.72,.01-1.04,0Z" fill="#11100f"/>
          <path d="M12.7,16.91c.08,.34,.13,.75,.15,1.21,0,.08,0,.15,0,.23,1.09-.98,2.1-2,2.73-2.91-.85,.64-1.92,1.12-2.89,1.47Z" fill="#211c1c"/>
          <path d="M7.57,9.97c-.34,.38-.79,.8-1.13,.91,.1,.01,.53,.09,1.21,.54,.03,.1,.06,.2,.1,.3,.19,.48,.48,1.03,.82,1.62,.44,.79,.94,1.64,1.37,2.48,.22-.08,.43-.15,.65-.21,.06-.02,.13-.04,.19-.06,.1-.03,.19-.06,.29-.09,.26-.09,.52-.19,.76-.3-.68-.25-1.92-.98-2.71-2.18-1.41-2.15-.81-4.99-.3-6.33-.13,.2-1.06,1.73-1.25,3.32Z" fill="#252422"/>
          <path d="M16.77,2.83c-.09,.17-.17,.35-.24,.55-.62,1.64-.5,4.07-.9,6.35-.04,.21-.07,.43-.13,.64-.04,.22-.1,.43-.16,.63-.1,.41-.26,.81-.44,1.18h0c-.05,.13-.1,.24-.16,.35-.25,.48-.57,.92-.96,1.32-.06,.06-.12,.13-.19,.18-.05,.07-.12,.13-.2,.17-.1,.08-.18,.15-.29,.23-.01,.04-.05,.06-.08,.06-.1,.08-.2,.16-.31,.21-.21,.15-.46,.28-.71,.4-.28,.14-.6,.26-.92,.36-.1,.03-.19,.06-.29,.09-.06,.02-.13,.04-.19,.06-.22,.06-.43,.13-.65,.21-.07,.03-.13,.04-.19,.07-.74,.26-1.42,.58-2.05,.92-.23-.17-.5-.38-.66-.63,0,0,0,.58-.13,1.08-1.89,1.18-3.18,2.58-4.01,3.69,.23-.03,.48-.01,.77,.04,.54-.91,1.36-1.97,2.44-2.85,2.38-1.96,5.28-2.56,5.44-2.25,.12,.23-1.2,.85-3.38,2.52-.36,.28-.77,.59-1.18,.94-.83,.69-1.51,1.32-2.06,1.86,.33,.07,.68,.11,1.06,.14,.27,.02,.55,.02,.84,0-.04-.21-.07-.45,0-.76,.15-.78,.75-1.29,1.19-1.71,.2-.19,.59-.45,1.37-.96,.47-.31,.87-.56,1.15-.74,.02,0,.03-.01,.04-.01,.67-.37,1.33-.7,1.93-1.07,.38-.22,.72-.44,1.07-.67,.06-.03,.11-.08,.17-.12l.02-.02,.02-.02c.5-.35,.95-.73,1.36-1.15h0c.49-.53,.9-1.09,1.23-1.75,0-.07,.01-.13,.02-.21,.34-4.49,.07-6.25,1.09-9.05,.29-.79,.66-1.6,1.46-2.24,.64-.49,1.45-.8,2.17-.86,.06-.02,.12-.01,.17-.02h0s-2.74-.42-4.51,2.8Z" fill="#403d39"/>
          <path d="M2.23,21.26c-.3,.33-.33,.78-.32,1.05,.24,.16,.53,.34,.91,.51,.11,.06,.24,.11,.37,.17,.18,.07,.37,.13,.56,.19,.04,.01,.07,.03,.1,.03,.11,.02,.2,.05,.29,.07,.03,0,.06,.02,.09,.02,.08,.02,.17,.02,.25,.04,.26,.05,.5,.08,.72,.09,.09,0,.17,0,.25,0,0,0,.02,0,.03,0,.28,.1,.6,.12,.94,.09,2.29-.12,5.57-2.45,6.89-2.07-.37-.18-.63-.84-.78-1.35,0,0,0,0,0-.02,.55-1.16,.36-2.79-.03-3.98-.6,.36-1.26,.7-1.93,1.07,.04,.11,.08,.24,.12,.39,0,.03,.02,.06,.02,.09,.09,.42,.14,.96-.06,1.51-.55,1.5-2.49,1.94-2.96,2.05-.3,.06-.59,.1-.87,.12-.29,.03-.57,.02-.84,0-.37-.03-.73-.07-1.06-.14-.37-.05-.7-.13-1.02-.19-.08-.02-.16-.03-.24-.03-.29-.05-.55-.07-.77-.04-.26,.01-.48,.11-.66,.3Z" fill="#2d2a28"/>
          <path d="M1.91,22.31c-.35,.24-.69,.49-1.02,.75,.23,.15,.5,.32,.85,.48,.11,.06,.25,.12,.38,.18,.1,.04,.21,.08,.32,.12h3.62c.1-.08,.2-.17,.29-.25,.02-.02,.04-.03,.06-.05-.34,.03-.65,0-.94-.1-.01,0-.02,.01-.03,0-.08,0-.15,0-.24-.01-.26,0-.52-.03-.73-.08h-.02c-.08-.01-.16-.03-.22-.05-.03,0-.06-.02-.09-.02-.11-.03-.21-.06-.29-.07-.03-.01-.07-.02-.1-.04-.2-.06-.39-.12-.56-.19h-.01c-.18-.08-.35-.15-.5-.23-.22-.11-.41-.22-.58-.32-.07-.04-.13-.08-.19-.12Z" fill="#33302d"/>
          <path d="M11.32,8.6c-.07,.37,.2,.58,.63,.5-.43,.09-.48,.42-.12,.79-.37-.37-.68-.25-.74,.3,.06-.54-.2-.75-.63-.49,.43-.26,.48-.59,.11-.79,.36,.2,.68,.08,.75-.3Z" fill="#ffd61c" opacity=".5"/>
          <path d="M13.88,11.73c-.04,.24,.12,.37,.4,.31-.27,.05-.3,.26-.07,.5-.23-.23-.43-.16-.47,.19,.04-.34-.13-.47-.39-.31,.27-.16,.3-.37,.07-.5,.23,.13,.42,.05,.47-.19Z" fill="#ffa600"/>
          <path d="M14.63,5.61c-.28,.74-.45,1.65-.45,2.77-.01,.18,0,.38,0,.59,.02,.55,.09,1.16,.2,1.83,.08,.48,.17,.98,.29,1.51,0,0,.03,.08,.04,.22,.06-.11,.11-.23,.16-.35h0c.11-.25,.23-.5,.31-.76,.1-1.56,.17-3.52-.01-4.58-.12-.67-.33-1.05-.56-1.23Z" fill="#33302a"/>
          <path d="M14.63,5.61c-.22,.55-.35,1.2-.42,1.97,.19,.24,.37,.53,.52,.84,.5,1.01,.58,2.18,.34,3.34,.06-.11,.1-.22,.13-.34,.1-1.56,.17-3.52-.01-4.58-.12-.67-.33-1.05-.56-1.23Z" fill="#ffd900" mix-blend-mode="saturation" opacity=".25"/>
          <path d="M14.21,7.58c-.02,.25-.03,.51-.03,.8-.01,.18,0,.38,0,.59,.02,.55,.09,1.16,.2,1.83,.08,.48,.17,.98,.29,1.51,0,0,.03,.08,.04,.22,.06-.11,.11-.23,.16-.35h0c.05-.13,.11-.25,.17-.38,0,0,.02-.02,.01-.04,.24-1.17,.15-2.34-.34-3.34-.15-.31-.33-.59-.52-.84Z" fill="#7c4e05"/>
          <path d="M8.82,6.64h0s-.01,.05-.03,.07c-.5,1.37-1.06,4.16,.33,6.28,.79,1.2,2.03,1.93,2.71,2.18,.06-.02,.11-.04,.16-.06-.11-.2-.25-.36-.4-.52-.4-.44-.84-.77-1.26-1.18-.73-.7-1.37-1.58-1.55-3.51-.04-.39-.06-.84-.05-1.33,0-.56,.03-1.2,.1-1.92Z" fill="#7c4e05"/>
          <path d="M12.99,14.94c1.52-.73,1.97-2.74,1.9-2.77-.05-.03-.33,1.08-1.45,1.98-.91,.73-1.85,.92-1.82,1.02,.03,.09,.72,.07,1.36-.24Z" fill="#7c4e05"/>
          <path d="M17.47,3.14c-1.02,2.8-.75,4.56-1.09,9.05,0,.07-.01,.13-.02,.21,.19-.38,.36-.8,.49-1.26h0c.22-.71,.34-1.5,.37-2.42,0-.03,0-.04,0-.07,.06-1.67,.26-3.03,.53-4.12,.16-.64,.35-1.19,.55-1.66C19.29,.63,20.61,.15,21.1,.05c-.72,.06-1.53,.37-2.17,.86-.8,.63-1.17,1.44-1.46,2.24Z" fill="#59544f"/>
          <path d="M18.32,2.86c-.2,.47-.39,1.02-.55,1.66,1.03-.49,2.53-1.09,3.82-3.37-.19,.29-1.09,1.46-3.27,1.71Z" fill="#252422"/>
          <path d="M17.22,8.71c-.01,.13-.01,.27-.02,.39,.63-.06,1.29-.18,1.54-.46,.55-.59,2.15-.21,3.18-.39,.35-.07,.66-.38,.9-.76-.38,.16-.88,.25-1.56,.2-1.15-.08-2.58,.25-4.03,1.02Z" fill="#2d2a28"/>
          <path d="M3.67,21c.08,0,.16,.02,.24,.03,.32,.06,.65,.13,1.02,.19,.55-.54,1.24-1.17,2.06-1.86,.42-.35,.82-.66,1.18-.94,2.17-1.68,3.49-2.29,3.38-2.52-.16-.32-3.07,.29-5.44,2.25-1.08,.89-1.89,1.94-2.44,2.85Z" fill="#605a57"/>
          <circle cx="12.44" cy="11.14" r="6.26" fill="url(#_Градієнт_без_назви_51)"/>
          <path d="M11.04,21.18c1.06-1.35,.99-3.32,.88-3.34-.08-.02-.16,1.29-.92,2.33-2.06,2.81-7.71,1.58-7.72,1.77-.01,.19,5.55,2.05,7.76-.75Z" fill="#494442"/>
        </g>
      </g>
    </g>
  </g>
</svg>