<?xml version="1.0" encoding="UTF-8"?>
<svg xmlns="http://www.w3.org/2000/svg" viewBox="0 0 23.88 23.43">
  <g isolation="isolate">
    <g id="_Шар_2" data-name="Шар 2">
      <g id="Zauberstab">
        <g>
          <path d="M16.93,16.12c-.68,.81-3.3-.94-4.26,.05-.68,.69,.17,1.97-.41,2.45-.7,.58-2.74-.67-3.9-1.58-.08-.06-.16-.12-.23-.18-.02-.02-.04-.03-.05-.04-.26-.22-.45-.4-.53-.5-.04-.05-.06-.08-.05-.1,.01-.02,.09,0,.21,.06,.17,.08,.42,.22,.72,.38,.02,.01,.04,.02,.07,.04,0,0,0-.01,.01,0,.06,.03,.13,.07,.2,.1,.88,.43,2.03,.87,2.7,.37,.7-.53,.25-1.61,.95-2.05,1.02-.64,2.74,1.11,3.47,.55,.41-.32,.23-1.16,.08-1.78-.02-.1-.04-.19-.06-.27,0-.04-.02-.08-.02-.11-.01-.01-.01-.02-.01-.03-.03-.18-.04-.29,.01-.31,.05-.02,.15,.06,.28,.21,.07,.08,.15,.19,.23,.32,0,.01,.02,.02,.03,.04,.09,.15,.19,.31,.28,.49h0c.35,.69,.6,1.5,.28,1.89Z" fill="#6755bf"/>
          <path d="M22.22,5.49c-.02,.08-2.27-.77-2.96,.1-.45,.57,.09,1.47-.41,1.85-.33,.25-.94,.15-1.21-.16-.45-.51-.07-1.65,.56-2.18,1.34-1.15,4.04,.3,4.02,.39Z" fill="#6755bf"/>
          <path d="M18.97,11.85c-.21,.35-.49,.73-.84,1.11-.21,.22-.42,.42-.65,.58-.03,.04-.07,.06-.11,.09-.33,.07-.68,.09-1.03,.07-.04-.01-.09-.01-.13-.02-.03,0-.07,0-.1,0-.09-.01-.17-.03-.26-.05-.06,0-.12-.02-.18-.04-.17-.03-.33-.07-.5-.12-.41-.14-.82-.32-1.2-.51-.02-.01-.04-.02-.06-.03-.09-.05-.18-.1-.26-.14h0c-.48-.27-.91-.56-1.25-.83-.55-.43-.88-.79-.84-.89,.01-.03,.05-.04,.11-.04h.02c.1,.01,.19,.03,.28,.04,.02,.01,.05,.01,.07,.01,.35,.06,.88,.2,1.49,.35,.12,.03,.24,.06,.37,.1,.1,.02,.21,.04,.32,.07,.32,.07,.65,.15,.99,.21,.46,.09,.93,.17,1.38,.21,.33,.04,.64,.06,.94,.06h.13c.15-.01,.3-.01,.44-.03,.05,0,.1-.01,.15-.02,.27-.02,.51-.08,.72-.17Z" fill="#996236"/>
          <path d="M18.97,11.85c-.21,.35-.49,.73-.84,1.11-.21,.22-.42,.42-.65,.58-.03,.04-.07,.06-.11,.09-.33,.07-.68,.09-1.03,.07-.04-.01-.09-.01-.13-.02-.03,0-.07,0-.1,0-.09-.01-.17-.03-.26-.05-.06,0-.12-.02-.18-.04-.17-.03-.33-.07-.5-.12-.41-.14-.82-.32-1.2-.51-.02-.01-.04-.02-.06-.03-.09-.05-.18-.1-.26-.14h0c-.48-.27-.91-.56-1.25-.83-.55-.43-.88-.79-.84-.89,.01-.03,.05-.04,.11-.04h.02c.1,.01,.19,.03,.28,.04,.02,.01,.05,.01,.07,.01,.35,.06,.88,.2,1.49,.35,.12,.03,.24,.06,.37,.1,.1,.02,.21,.04,.32,.07,.32,.07,.65,.15,.99,.21,.46,.09,.93,.17,1.38,.21,.33,.04,.64,.06,.94,.06h.13c.15-.01,.3-.01,.44-.03,.05,0,.1-.01,.15-.02,.27-.02,.51-.08,.72-.17Z" fill="#3f2699" mix-blend-mode="soft-light"/>
          <path d="M19.91,11.19c.07,.06-.67,1.49-1.72,2.12-.2,.12-.41,.21-.64,.26-.06,.03-.12,.05-.18,.06,.04-.03,.08-.05,.11-.09,.23-.16,.44-.36,.65-.58,.35-.38,.63-.76,.84-1.11,.2-.08,.36-.18,.5-.3,.1-.1,.39-.39,.44-.36Z" fill="#996236"/>
          <path d="M18.35,4.43c0,.05-.62,.16-.85,.22-.68,.17-1.22,.77-1.67,1.59-.09,.17-.18,.36-.27,.55-.05,.11-.1,.22-.15,.34-.04,.11-.08,.21-.12,.32-.04,.1-.08,.21-.12,.32-.24,.69-.44,1.43-.6,2.14-.02,.08-.03,.15-.05,.23-.04,.18-.08,.36-.11,.54-.05,.19-.08,.38-.12,.56-.02,.12-.05,.24-.07,.35-.02,.11-.04,.22-.06,.33,0,.06-.02,.11-.03,.17-.04,.19-.07,.37-.1,.53-.02,.09-.03,.18-.05,.25-.01,.03-.01,.06-.01,.08-.02,.05-.03,.09-.03,.13-.05,.19-.09,.29-.12,.29s-.08-.12-.12-.33c-.01-.03-.01-.05-.02-.08-.01-.06-.02-.12-.03-.18h0c-.02-.15-.04-.31-.06-.49-.02-.19-.04-.4-.05-.63,0-.08,0-.16,0-.24-.01-.15-.02-.3-.02-.46v-.03c0-.25,0-.52,.01-.79,.02-.41,.05-.83,.1-1.25,.07-.54,.17-1.08,.31-1.58,.06-.19,.12-.38,.2-.57,.04-.14,.1-.27,.17-.4,.09-.21,.2-.4,.32-.58,.34-.51,.77-.9,1.31-1.12,.94-.38,2.41-.29,2.42-.21Z" fill="#996236"/>
          <polygon points="12.64 9.59 15.32 13.68 8.54 10.72 12.64 9.59" fill="#231a60"/>
          <path d="M20.89,8.82l-2.64,3.2-.51,.62-.07,.03-1.08-.66-2.18-1.33-.89-.54-.88-.54,.98-.71,1.55-1.12,.37-.27,.32-.23h.01l3.01,.93h.01l2,.62Z" fill="#5631b9"/>
          <path d="M16.24,7.79q-.06,1.73,0,0c-.07,1.73,1.68,2.27,4.06,1.3-2.39,.97-3.48,2.3-2.52,3.13-.97-.83-.99-.82-.06,.02-.93-.84-2.68-1.91-4.15-2.54,1.47,.63,2.59-.18,2.66-1.91Z" fill="#6145c9"/>
          <path d="M16.99,9.43q-.33,.49,0,0c-.33,.49,.08,.95,.94,1.1-.86-.15-1.41,.04-1.28,.45-.13-.41-.14-.41-.02,0-.12-.41-.43-1.03-.74-1.47,.31,.44,.78,.41,1.11-.08Z" fill="#7764d8"/>
          <polygon points="13.09 6.42 12.92 7.53 12.64 9.59 8.54 10.72 8.41 10.66 11.74 7.64 13.09 6.42" fill="#30217c"/>
          <polygon points="12.64 9.59 17.67 12.67 15.39 13.71 15.32 13.68 12.64 9.59" fill="#3f2699"/>
          <polygon points="13.09 6.42 15.86 7.27 12.64 9.59 12.92 7.53 13.09 6.42" fill="#3f2699"/>
          <path d="M20.02,6.54c-.08,.47-.21,.81-.35,1.05-.63,.14-1.15,.14-1.52,.1-.71-.09-1.05-.31-2.59-.9-.13-.04-.26-.09-.4-.14-.35-.13-.64-.23-.86-.31-.36-.13-.57-.19-.67-.19-1.69-.14-3.95,1.49-4.1,3.5-.01,.05-.01,.1-.01,.15,0,.15,0,.37,.06,.64,.04,.21,.11,.44,.23,.7,.02,.06,.04,.11,.08,.17,.01,.04,.04,.08,.06,.12v.23c-.35,.25-.73,.51-1.08,.79-.51,.38-.99,.78-1.44,1.18-.45,.38-.86,.77-1.24,1.16-.04,.04-.08,.08-.12,.12-.07,.07-.14,.13-.2,.2,.03-.05,.06-.1,.09-.14,.06-.09,.12-.18,.16-.26,.05-.06,.08-.11,.1-.16,.04-.05,.07-.09,.09-.13,1.2-1.92,1.75-3.45,2.03-4.56,.13-.55,.42-1.91,1.49-3.09,.26-.28,.62-.68,1.23-.97,1.27-.63,2.62-.29,3.37-.09,.07,.02,.13,.04,.19,.05,.46,.14,.86,.31,1.21,.48,.76,.38,1.3,.79,1.81,1.04,.4,.19,.77,.28,1.21,.16,.57-.16,.96-.6,1.17-.9Z" fill="#e5b89a"/>
          <path d="M1.04,22.96c-.16,.15-.32,.31-.48,.47H.17c.25-.13,.54-.29,.87-.47Z" fill="#996236"/>
          <path d="M10.51,15.62c-.18,.14-.93,.61-1.8,1.18-.11,.08-.23,.16-.35,.24-.18,.11-.36,.24-.54,.36h-.01c-.23,.15-.45,.31-.67,.46-.03,.02-.06,.04-.09,.06-.09,.07-.19,.13-.28,.2-.36,.26-.71,.51-1.03,.76-.09,.06-.17,.12-.26,.19-.04-.01-.09-.02-.14-.04-.17-.06-.24-.12-.32-.17-.07-.05-.15-.1-.31-.15-.54-.18-1.1-.08-1.57,.11,.41-.51,.81-1.03,1.21-1.56,.01-.02,.03-.03,.04-.05,.04,.03,.1,.05,.15,.07,.04,.03,.09,.04,.15,.06s.13,.05,.2,.06c.01,.01,.03,.02,.06,.02,.01,0,.03,0,.06,0t.02,.01c.08,.02,.17,.04,.26,.05,.05,0,.11,.01,.16,.02,.25,.02,.49,.01,.73-.05,.06-.01,.11-.01,.16-.02,.05-.01,.1-.02,.16-.03h.01s.05-.01,.07-.02c.06-.01,.13-.03,.2-.06,.04-.01,.08-.01,.11-.03,.13-.05,.27-.09,.4-.15,.19-.07,.39-.16,.61-.25,.06-.03,.12-.06,.18-.08,.12-.06,.24-.11,.35-.16,.86-.4,1.52-.75,1.86-.93,.05-.02,.1-.05,.15-.08,.03-.01,.04-.02,.07-.03Z" fill="#996236"/>
          <path d="M18.31,13.87c-.42,.08-.89,.11-1.38,.03-.2-.04-.39-.09-.56-.16-.06,0-.11-.03-.16-.06-.13-.05-.25-.11-.36-.18,0-.01-.02-.01-.03-.02-.46-.28-.85-.65-1.25-1.02-.04-.04-.09-.08-.13-.11-.1-.09-.2-.18-.31-.26-.18-.15-.38-.3-.59-.43-.27-.16-.56-.31-.9-.43-.18-.06-.37-.11-.6-.16-.02,0-.05,0-.07-.01-.09,0-.18-.03-.28-.04h-.02c-.47-.06-1.04-.05-1.72,.09-.04,0-.08,0-.12,.02,.04-.02,.09-.04,.13-.05,.19-.08,.39-.15,.59-.2,.49-.12,1.69-.28,2.96,.08,.01-.01,.01,0,.02,0,.25,.07,.51,.16,.76,.28,.14,.06,.28,.14,.42,.22,.18,.11,.34,.23,.5,.34,.38,.3,.7,.62,1.07,.93,.14,.13,.29,.25,.45,.37,.22,.15,.47,.3,.75,.44,.02,.01,.05,.02,.07,.03,.16,.07,.33,.14,.52,.21,.08,.03,.17,.06,.24,.09Z" fill="#af7846"/>
          <path d="M18.31,13.87c-.42,.08-.89,.11-1.38,.03-.2-.04-.39-.09-.56-.16-.06,0-.11-.03-.16-.06-.13-.05-.25-.11-.36-.18,0-.01-.02-.01-.03-.02-.46-.28-.85-.65-1.25-1.02-.04-.04-.09-.08-.13-.11-.1-.09-.2-.18-.31-.26-.18-.15-.38-.3-.59-.43-.27-.16-.56-.31-.9-.43-.18-.06-.37-.11-.6-.16-.02,0-.05,0-.07-.01-.09,0-.18-.03-.28-.04h-.02c-.47-.06-1.04-.05-1.72,.09-.04,0-.08,0-.12,.02,.04-.02,.09-.04,.13-.05,.19-.08,.39-.15,.59-.2,.49-.12,1.69-.28,2.96,.08,.01-.01,.01,0,.02,0,.25,.07,.51,.16,.76,.28,.14,.06,.28,.14,.42,.22,.18,.11,.34,.23,.5,.34,.38,.3,.7,.62,1.07,.93,.14,.13,.29,.25,.45,.37,.22,.15,.47,.3,.75,.44,.02,.01,.05,.02,.07,.03,.16,.07,.33,.14,.52,.21,.08,.03,.17,.06,.24,.09Z" fill="#3f2699" mix-blend-mode="soft-light" opacity=".64"/>
          <path d="M5.48,19.07c-.45,.34-.88,.68-1.28,1.01-.79,.66-1.5,1.31-2.22,1.98-.3,.28-.62,.58-.94,.9-.33,.18-.62,.34-.87,.47h-.17v-1.01c1.06-1.12,2.12-2.32,3.14-3.6,.47-.19,1.03-.29,1.57-.11,.16,.05,.24,.1,.31,.15,.08,.05,.15,.11,.32,.17,.05,.02,.1,.03,.14,.04Z" fill="#af7846"/>
          <path d="M19.67,7.59s-.06,.08-.1,.12c-.11,.16-.24,.27-.36,.35-.11,.07-.21,.11-.32,.14h-.01c-.17,.04-.34,.05-.53,.03-.69-.06-1.54-.48-2.81-.73-.08-.02-.16-.04-.25-.05-.41-.07-.86-.12-1.36-.14h-.06c-.3,0-.61,0-.92,.03-.51,.05-1.01,.21-1.46,.52-.01,0-.01,.02-.02,.02-.17,.13-.32,.27-.44,.4-.17,.2-.3,.38-.38,.52-.34,.5-.52,1.03-.61,1.51-.06,.28-.08,.54-.08,.77-.01,.01-.01,.02-.01,.03-.01,.08-.01,.16,0,.23v.09s-.05-.08-.06-.12c-.04-.06-.06-.11-.08-.17-.12-.26-.19-.49-.23-.7-.06-.27-.06-.49-.06-.64,0-.05,0-.1,.01-.15,.15-2.01,2.41-3.64,4.1-3.5,.1,0,.31,.06,.67,.19,.22,.08,.51,.18,.86,.31,.14,.05,.27,.1,.4,.14,1.54,.59,1.88,.81,2.59,.9,.37,.04,.89,.04,1.52-.1Z" fill="#c19d84"/>
          <path d="M19.67,7.59s-.06,.08-.1,.12c-.11,.16-.24,.27-.36,.35-.11,.07-.21,.11-.32,.14h-.01c-.17,.04-.34,.05-.53,.03-.69-.06-1.54-.48-2.81-.73-.08-.02-.16-.04-.25-.05-.41-.07-.86-.12-1.36-.14h-.06c-.3,0-.61,0-.92,.03-.51,.05-1.01,.21-1.46,.52-.01,0-.01,.02-.02,.02-.17,.13-.32,.27-.44,.4-.17,.2-.3,.38-.38,.52-.34,.5-.52,1.03-.61,1.51-.06,.28-.08,.54-.08,.77-.01,.01-.01,.02-.01,.03-.01,.08-.01,.16,0,.23v.09s-.05-.08-.06-.12c-.04-.06-.06-.11-.08-.17-.12-.26-.19-.49-.23-.7-.06-.27-.06-.49-.06-.64,0-.05,0-.1,.01-.15,.15-2.01,2.41-3.64,4.1-3.5,.1,0,.31,.06,.67,.19,.22,.08,.51,.18,.86,.31,.14,.05,.27,.1,.4,.14,1.54,.59,1.88,.81,2.59,.9,.37,.04,.89,.04,1.52-.1Z" fill="#30217c" mix-blend-mode="soft-light" opacity=".54"/>
          <path d="M20.45,13.69s-.22,.25-.71,.63c-.56,.44-1.31,.61-1.99,.39-.37-.11-.73-.29-1.1-.47h0c-.24-.12-.49-.24-.74-.35h0c-.99-.44-2.14-.32-3.05,.26-.69,.44-1.49,.96-2.33,1.47h-.01s-.04,.02-.07,.03c-.05,.03-.1,.06-.15,.08-.34,.18-1,.53-1.86,.93-.11,.05-.23,.1-.35,.16-.06,.02-.12,.05-.18,.08-.22,.09-.42,.18-.61,.25-.8-.36-1.74-.69-2.09-1.14,.23-.35,.47-.69,.7-1.02,.07-.1,.14-.2,.21-.29,.04-.05,.07-.1,.11-.15h0c.03-.05,.06-.09,.09-.13,.13-.18,.25-.35,.37-.51,.76-.97,1.51-1.8,2.37-2.35,.2-.14,.41-.25,.62-.35,.05-.03,.09-.05,.14-.07,.01,0,.01-.01,.02-.01,.04-.01,.08-.02,.12-.02,.68-.14,1.25-.15,1.72-.09h.02c.1,.01,.19,.03,.28,.04,.02,.01,.05,.01,.07,.01,.23,.05,.42,.1,.6,.16,.34,.12,.63,.27,.9,.43,.21,.13,.41,.28,.59,.43,.11,.08,.21,.17,.31,.26,.04,.03,.09,.07,.13,.11,.4,.37,.79,.74,1.25,1.02,.01,0,.02,0,.03,.02,.11,.07,.23,.13,.36,.18,.05,.03,.1,.05,.16,.06,.17,.07,.36,.12,.56,.16,.49,.08,.96,.05,1.38-.03,.33,.09,.63,.14,.88,.17,.3,.04,.59-.03,.86-.17,.25-.14,.39-.2,.4-.18Z" fill="#996236"/>
          <path d="M10.44,15.65c-1.01,.6-2.1,1.18-3.11,1.52-.15,.05-.3,.09-.44,.13-.03,.02-.07,.02-.11,.03-.09,.03-.19,.05-.27,.07h0c-.11,.02-.21,.05-.32,.06-.31,.05-.61,.05-.89,.02-.09,0-.18-.02-.26-.05h-.02s-.09-.02-.12-.04c-.08-.02-.14-.05-.2-.06-.06-.02-.11-.03-.16-.06-.05-.02-.1-.04-.15-.07,.1-.15,.2-.29,.3-.44,.17-.26,.33-.5,.51-.75,.35,.44,1.29,.78,2.09,1.14,.19-.07,.4-.16,.61-.26,1.27-.57,2.22-1.09,2.54-1.25Z" fill="#af7846"/>
          <path d="M21.7,10.52c.12-.12,.15-.26,.15-.43,.47,.68,.93,1.25,.74,1.49-.38,.48-2.83-.83-2.76-1.03,.05-.14,1.35,.49,1.87-.03Z" fill="#6755bf"/>
          <path d="M22.45,4.31c.74,1.3,1.18,1.49,1.1,2.05-.13,.92-1.37,.9-1.75,2.05-.24,.71,.03,1.26,.05,1.68-.53-.76-1.08-1.67-.76-2.44,.34-.86,1.4-.74,1.58-1.56,.21-.92-.86-2.16-2-2.7-1.1-.52-1.85-.21-2.06-.65-.27-.58,.71-1.78,1.83-2.33,1.61-.79,3.44-.22,3.44-.02s-1.87-.07-2.36,.85c-.4,.75,.3,1.97,.93,3.07Z" fill="#6755bf"/>
          <path d="M7.86,18.7c-.03,1.01-3.28,1.95-3.66,1.38-.16-.26,.4-.57,.51-1.37,.08-.54-.1-1.03-.36-1.45-.48-.81-1.22-1.42-.89-1.92,.59-.89,2.26-.84,2.65-.64h.01s.06,.06,.07,.08h0s-.04,.09-.12,.13c-.03,.02-.07,.04-.11,.06-.02,.01-.04,.02-.06,.02-.47,.22-1.37,.51-1.41,1.03-.02,.2,.1,.39,.31,.57,.35,.3,.96,.57,1.54,.85,.28,.14,.56,.27,.8,.42,.43,.25,.73,.52,.72,.84Z" fill="#6755bf"/>
          <path d="M7.81,17.39c-.23,.16-.45,.32-.67,.47-.03,.02-.06,.04-.09,.06-.09,.07-.19,.13-.28,.2-.36,.26-.71,.51-1.03,.76-.09,.06-.17,.12-.26,.19-.04-.01-.09-.02-.14-.04-.17-.06-.24-.12-.32-.17,.03-.09,.06-.2,.08-.32,.08-.4,.03-.77-.09-1.1h0c-.08-.25-.19-.47-.32-.67,.04-.06,.08-.12,.11-.18,.14-.2,.27-.39,.4-.58,.35,.45,1.29,.78,2.09,1.14,.01,0,.04,.01,.04,.02,.18,.08,.33,.15,.48,.22Z" fill="#6755bf" opacity=".47"/>
          <path d="M5.74,18.91c.03-.53-.68-.85-.6-1,.12-.26,2.34,.19,2.36,.8,.01,.6-2.07,1.14-2.18,.93-.06-.1,.4-.31,.43-.73Z" fill="#8276dd"/>
          <path d="M12.12,18.3c.31-.32,.1-1.04-.08-1.06-.12-.02-.15,.28-.48,.53-.38,.28-.74,.21-.75,.3-.01,.15,.92,.63,1.31,.24Z" fill="#8276dd"/>
          <path d="M21.17,.58c-.15-.19-2.16,.7-2.03,1.53,.04,.28,.32,.49,.55,.65,.38,.28,.98,.5,1.13,.33,.15-.17-.32-.52-.33-1.13,0-.79,.78-1.25,.68-1.37Z" fill="#8276dd"/>
          <path d="M13.04,13.39c.79-.43,1.04-.51,1.03-.68-.04-.55-2.98-1.46-5.2-.27-1.84,.99-2.9,3.26-2.42,3.82,.42,.48,2.05-.26,3.01-.7,1.41-.64,1.45-1.02,3.59-2.18Z" fill="#af7846"/>
        </g>
      </g>
    </g>
  </g>
</svg>