<?xml version="1.0" encoding="UTF-8"?>
<svg id="_Шар_2" data-name="Шар 2" xmlns="http://www.w3.org/2000/svg" viewBox="0 0 23.79 23.48">
  <g id="Zauberstab">
    <g>
      <polygon points="13.79 13.27 13.75 13.31 13.39 13.67 12.68 14.38 12.01 15.06 11.53 15.53 11.36 15.7 11.11 15.95 10.27 16.79 7.77 19.3 7.76 19.3 7.63 19.43 7.6 19.46 7.6 19.47 7.48 19.58 6.05 21.01 5.34 21.72 4 23.07 3.99 23.07 3.58 23.48 .05 23.48 .05 20.79 10.68 10.16 11.43 10.91 11.9 11.38 12.32 11.8 12.6 12.08 13.78 13.26 13.79 13.27" fill="#d6a47f"/>
      <path d="M2.69,18.16c.16,.33,.89,.48,2.34,.77,1.47,.3,2.21,.44,2.74,.37,2.2-.3,4.03-2.77,3.6-3.6-.22-.42-.86-.14-2.72-.68-1.4-.41-1.46-.7-2.09-.73-2.08-.11-4.38,2.79-3.86,3.86Z" fill="#d6a47f"/>
      <path d="M3.91,17.79c.11,.23,.63,.34,1.67,.55,1.05,.21,1.58,.32,1.96,.27,1.57-.21,2.88-1.98,2.57-2.57-.16-.3-.62-.1-1.95-.49-1-.29-1.04-.5-1.49-.52-1.48-.08-3.13,1.99-2.76,2.76Z" fill="#e5b89a"/>
      <path d="M7.65,19.65c.14,.96-1.59,3.14-3.65,3.42h-.01c-.53,.07-1.27-.08-2.73-.38-.48-.1-.88-.18-1.21-.25v-1.65l-.05,.05s.03-.08,.05-.13v-1.34c.73-.73,1.69-1.31,2.61-1.31h.12c.64,.03,.69,.32,2.09,.73,1.57,.46,2.28,.33,2.59,.53,.05,.03,.09,.07,.12,.12,0,0,.01,.01,.02,.02h0c.03,.06,.04,.12,.05,.19Z" fill="#915d31"/>
      <path d="M13.22,13.62c-.36-.17-.5-.89-.77-2.34-.08-.43-.33-1.81-.3-3.88,0-.8,.01-1.2,.1-1.52,.49-1.9,2.38-3.03,2.63-2.82,.23,.2-1.15,1.48-.71,2.83,.13,.41,.34,.54,.95,1.2,1.24,1.34,1.85,2,1.98,2.66,.34,1.81-2.7,4.4-3.86,3.86Z" fill="#bf895c"/>
      <path d="M6.45,14.39c.16,.33,.89,.48,2.34,.77,1.47,.3,2.21,.44,2.74,.37,2.2-.3,4.03-2.77,3.6-3.6-.22-.42-.86-.14-2.72-.68-1.4-.41-1.46-.7-2.09-.73-2.08-.11-4.38,2.79-3.86,3.86Z" fill="#915d31"/>
      <path d="M7.52,14.07c.12,.25,.67,.36,1.76,.58,1.11,.22,1.66,.33,2.06,.28,1.65-.23,3.03-2.08,2.7-2.7-.16-.32-.65-.1-2.05-.51-1.05-.31-1.09-.52-1.57-.55-1.56-.08-3.29,2.1-2.9,2.9Z" fill="#af7846"/>
      <path d="M6.05,21.01c-.19,.24-.43,.49-.71,.71-.45,.35-.99,.63-1.57,.71-.39,.05-.95-.06-2.06-.28-.92-.19-1.45-.29-1.66-.47v-.89l-.05,.05s.03-.08,.05-.13c.31-.71,1.11-1.56,1.98-1.9,.27-.11,.55-.16,.83-.15,.48,.03,.52,.24,1.57,.55,1.4,.41,1.88,.2,2.05,.51,.14,.28-.04,.78-.43,1.29Z" fill="#af7846"/>
      <path d="M14.33,11.47c-.6,.14-1.86-1.24-2.16-2.84-.08-.4-.1-.81-.03-1.22h0c.21-1.2,1.11-2.06,2-2.63h0c.23-.15,.47-.27,.7-.38,.75-.35,1.36-.5,1.41-.46,.03,.06-.75,.47-1.15,1.25-.11,.18-.17,.38-.21,.62-.06,.44,.04,.76,.13,1.06h0c.02,.07,.03,.11,.05,.17h0s.02,.04,.02,.05c.08,.26,.14,.54,.17,.82,.2,1.64-.35,3.42-.96,3.55Z" fill="#996236"/>
      <path d="M21.91,8.36l-4.45,1.24-1.62-1.82-.07-.07-.53-.59c.17,.07,.38,.15,.64,.25,.08,.04,.18,.08,.29,.12,.11,.04,.22,.08,.32,.13,.85,.32,1.56,.6,2.16,.78,1.03,.31,1.78,.38,2.37,.07,.2-.11,.38-.26,.52-.43,.74-.83,.76-2.22,.84-2.2,.02,.02,.02,.07,.04,.16l-.53,2.37Z" fill="#bf895c"/>
      <polygon points="21.69 1.18 23.28 .13 16.5 2.58 16.09 1.66 23.79 0 21.69 1.18" fill="#91ce1b"/>
      <path d="M20.96,7.64l-.8-.72c.04-.05,.05-.1,.08-.14,1.18-2.23,2.34-4.45,3.53-6.68l-.92,3.99c-.63,1.18-1.26,2.36-1.89,3.55Z" fill="#70e000"/>
      <path d="M21.49,8.12l-.54-.47c.63-1.19,1.26-2.37,1.89-3.55l-.45,1.96c-.02-.09-.02-.14-.04-.16-.08-.02-.12,1.39-.87,2.22Z" fill="#70e000"/>
      <path d="M20.96,7.64l.54,.47c.75-.84,.78-2.25,.87-2.22,.02,.02,.02,.07,.04,.16l.45-1.96-1.89,3.55Z" fill="#5a9911"/>
      <path d="M21.49,8.12c-.15,.18-.32,.32-.53,.44-.6,.32-1.36,.26-2.39-.05l1.6-1.6,1.33,1.2Z" fill="#004b23"/>
      <path d="M17.05,3.81l-.22,.16-1.82,1.35c.41-.8,1.2-1.21,1.17-1.27-.05-.05-.67,.11-1.42,.47l1.33-2.86,.41,.92,.55,1.23Z" fill="green"/>
      <path d="M20.16,6.92l-1.6,1.6c-.61-.18-1.32-.44-2.18-.76l3.67-.93,.1,.1Z" fill="#007200"/>
      <path d="M20.24,6.77l-.11,.02-.07,.02-3.01-3.01,4.64-2.62,2.1-1.18-.02,.1c-1.18,2.22-2.35,4.45-3.53,6.68Z" fill="#cf3"/>
      <path d="M20.06,6.82l-3.67,.93c-.11-.04-.21-.09-.33-.13-.11-.04-.2-.08-.29-.12l1.27-3.7,3.01,3.01Z" fill="#38b000"/>
      <path d="M15.78,7.5c-.27-.1-.47-.18-.64-.25h0s-.2-.24-.2-.24h0c-.09-.31-.18-.64-.12-1.08,.04-.24,.11-.44,.22-.63l2.04-1.51-1.27,3.7Z" fill="#007200"/>
      <line x1="15.12" y1="5.19" x2="14.16" y2="5.89" fill="none"/>
      <line x1="17.47" y1="9.59" x2="18.67" y2="8.39" fill="none"/>
      <polyline points="15.75 7.8 15.78 7.71 15.89 7.37" fill="none"/>
      <line x1="21.91" y1="8.36" x2="21.56" y2="8.03" fill="none"/>
      <path d="M18.91,11.47c-3.78,.92-10.99,.18-8-3-.14,1.85,4.79,3.12,8,3Z" fill="#bf895c"/>
      <path d="M21.45,9.86c-.75,.53-1.52,.83-2.21,.63,1.18-.23,2.33-1.68,3.15-3.01-.11,.75-.38,1.61-.94,2.39Z" fill="#d6a47f"/>
      <path d="M20.72,10.68c-.38,.33-1.02,.6-1.82,.79-3.21,.12-8.14-1.15-8-3,.3-.33,.72-.69,1.24-1.06,.19-.13,.38-.24,.57-.33,2.04,1.08,4.22,2.74,5.64,3.33,.29,.12,.6,.14,.88,.08,.69,.2,1.45-.1,2.21-.63-.2,.29-.44,.56-.72,.81Z" fill="#d6a47f"/>
      <line x1="20.23" y1="6.83" x2="20.13" y2="6.73" fill="none"/>
      <path d="M18.36,10.41c-1.42-.59-3.59-2.25-5.64-3.33,.74-.38,1.48-.46,2.31-.05l.02,.02c2.82,1.27,7.15,3.11,7.35-1.21,.07,.31,.1,.91-.02,1.64-1.03,1.67-2.57,3.53-4.03,2.93Z" fill="#d3c97f"/>
      <path d="M16.74,10.72c.03-.14-.73-.28-2.51-1.06-1.74-.75-2.4-1.22-2.48-1.09-.11,.15,.74,1.17,1.97,1.75,1.43,.68,2.99,.59,3.03,.4Z" fill="#e5b89a"/>
      <path d="M19.61,6.1h-.07s-.04,.02-.04,.02l-1.82-1.82,4.08-2.3v.06c-.73,1.34-1.44,2.69-2.15,4.04Z" fill="#f0ffb8"/>
      <path d="M19.56,6.29l-2.31,.58c-.07-.03-.13-.06-.2-.08-.07-.03-.13-.05-.18-.07l.8-2.33,1.89,1.89Z" fill="#cf3"/>
      <polygon points="23.28 .13 21.69 1.18 17.05 3.81 16.5 2.58 23.28 .13" fill="#9ef01a"/>
      <path d="M3.8,8.34c.57-1.09,6.53,.86,6.49,1.05-.03,.13-2.89-.76-3.33,.03-.81,1.44,7.55,6.36,6.61,8.69-.62,1.53-4.99,1.28-5.04,.99-.04-.22,2.52-.21,3-1.42,1.04-2.59-8.48-7.89-7.73-9.34Z" fill="#cf3"/>
      <path d="M1.46,7.52c.52-1.14,7.13,1.45,7.1,1.66-.02,.14-3.18-1.05-3.6-.23-.76,1.49,8.67,7.48,7.83,9.92-.55,1.6-5.29,.98-5.37,.66-.06-.24,2.7-.03,3.13-1.3C11.48,15.52,.77,9.03,1.46,7.52Z" fill="#9ef01a"/>
      <path d="M13.56,3.75c0-.23-3.21-.74-3.57,.07-.74,1.67,11.04,7.8,10.17,9.81-.16,.38-.74,.52-.84,.55-1.56,.39-3.31-1.92-3.27-1.96,.05-.05,3.4,3.71,4.69,2.94,.41-.25,.46-.87,.47-1.06,.29-4.01-10.39-8.06-9.77-9.7,.25-.65,2.12-.48,2.11-.66Z" fill="#cf3"/>
      <path d="M13.56,3.76c.02-.26-3.57-.39-4.1,.6-1.09,2.02,11.51,7.34,10.23,9.76-.24,.46-.93,.71-1.04,.75-1.85,.67-3.51-1.72-3.46-1.77,.06-.07,3.36,3.76,4.95,2.69,.51-.34,.65-1.07,.69-1.28,.91-4.63-10.72-7.72-9.78-9.69,.38-.78,2.5-.86,2.51-1.06Z" fill="#9ef01a"/>
    </g>
  </g>
</svg>