<?xml version="1.0" encoding="UTF-8"?>
<svg xmlns="http://www.w3.org/2000/svg" viewBox="0 0 23.05 23.72">
  <g isolation="isolate">
    <g id="_Шар_2" data-name="Шар 2">
      <g id="Zauberstab">
        <g>
          <path d="M14.62,15.12s0,.02-.02,.03c-.05,.15-.12,.29-.19,.43-.05,.09-.1,.18-.16,.26-.34,.45-.76,.65-1.02,.74-.24-.1-.61-.3-.95-.72-.42-.52-.6-1.14-.68-1.66-.08-.47-.06-.85-.06-.96,0,.09,0,.48,.13,.88,.08,.24,.2,.49,.39,.67,.1,.1,.22,.17,.33,.21,.62,.62,1,.8,1.29,.72,.23-.07,.46-.18,.66-.33,.09-.07,.19-.15,.26-.25,0,0,.02,0,.02-.02Z" fill="#ffd500" mix-blend-mode="lighten" opacity=".39"/>
          <path d="M18.67,6.1l-.37-.1,.2-.25c.06,.11,.11,.22,.17,.35Z" fill="#ff971a"/>
          <path d="M18.5,5.76l-.2,.25-1.26,1.29-.52-1.22v-.02s1.8-.77,1.8-.77c.01,.02,.01,.03,.02,.05,.03,.07,.05,.14,.08,.21,.02,.07,.05,.13,.08,.21Z" fill="#ff9803"/>
          <path d="M17.7,9.14l-.1,.06h-.02s-.08,.06-.08,.06l-.21,.12-.04,.02-.34-.59-.16-.27-.14-.26c-.12-.2-.19-.34-.24-.41l-.26-.45,.2-.11,.02-.02,.08-.04-.02-.02,.13-1.15,.52,1.22,.13,.45,.27,.95,.21,.36,.05,.08Z" fill="#d8860f"/>
          <path d="M18.62,10.47l-.16,.08-.54-.4c-.09-.38-.23-.76-.39-1.11h.02s1.74,.44,1.74,.44l-.67,.99Z" fill="#d8860f"/>
          <path d="M21.02,9.43l-.04,.02-2.36,1.02,.67-.99,1.07-1.1c.24,.32,.4,.57,.52,.78,.06,.11,.11,.2,.15,.28Z" fill="#bf6a0c"/>
          <path d="M19.29,9.47l-1.74-.44-.5-1.73,1.26-1.29,.37,.1c.16,.28,.35,.57,.55,.85,.12,.18,.25,.35,.4,.52,.19,.25,.39,.47,.59,.69l.16,.18s0,.02-.01,.03l-1.07,1.1Z" fill="#ffa71a"/>
          <path d="M20.37,8.35l-.02,.02s0-.02,.01-.03h0Z" fill="#33291a"/>
          <path d="M19.55,1.28c-.12,.07-.23,.16-.32,.24" fill="none"/>
          <path d="M20.37,8.35l-.02,.02s0-.02,.01-.03h0Z" fill="#33291a"/>
          <path d="M20.37,8.35l-.02,.02c-.04-.07-.1-.13-.15-.21l.17,.19Z" fill="#33291a"/>
          <path d="M19.23,1.52c.07-.06,.13-.13,.19-.21" fill="none"/>
          <path d="M17.99,11.5c-.05,.13-.12,.25-.2,.37-.16,.24-.4,.47-.73,.68h-.01c-.23-.06-.46-.11-.7-.19h-.01c-.17-.06-.35-.14-.52-.21-.14-.06-.27-.12-.39-.19-.33-.23-.64-.48-.96-.71,1.65,.07,1.23-1.39,.49-2.45-.01,0-.01-.02-.02-.03s-.02-.03-.03-.04h-.01s-.05-.09-.09-.13h-.01c-.05-.09-.11-.16-.17-.22l-.07-.08s-.03-.03-.04-.03c-.12-.15-.26-.27-.39-.36-.01-.02-.03-.04-.04-.06h-.01c-1.67-2.2-.35-4.94,2.28-4.88,.2,.01,.4,.03,.61,.06-.66,.17-1.13,.38-1.44,.64-.29,.23-.45,.49-.5,.78-.05,.26-.01,.55,.09,.84-.01,.01,0,.01,0,.01,.12,.36,.33,.74,.59,1.13-.03,.2-.04,.42-.04,.65,0,.07,0,.13,.01,.2,.01,.45,.08,.92,.2,1.37,.37,1.25,1.26,2.34,1.87,2.73,.09,.05,.17,.09,.24,.12Z" fill="#996236"/>
          <path d="M17.14,2.98c-.06,.02-.1,.02-.16,.04" fill="none"/>
          <line x1="13.67" y1="13.67" x2="13.66" y2="13.66" fill="none"/>
          <path d="M15.53,16.18c-.02,.78-.57,1.86-1.47,1.94-.64,.05-1.28-.41-1.64-1.13,2.59,1.43,3.09-.13,2.37-1.75-.03-.06-.06-.12-.1-.19-.32-.64-.83-1.28-1.48-1.72,.26,.14,1.22,.68,1.82,1.47,0,0,0,.01,.01,.01,.29,.4,.5,.86,.49,1.37Z" fill="#8c5530"/>
          <line x1="13.67" y1="13.67" x2="13.66" y2="13.66" fill="none"/>
          <path d="M14.91,8.73s0,0,0,0" fill="none"/>
          <line x1="14.94" y1="11.77" x2="14.92" y2="11.77" fill="none"/>
          <path d="M3.79,22.42l-.04,.04s-.08-1.67-1.8,.19c-.24,.26-.6,.62-1.06,1.07H0v-1.48c1.47-1.62,2.65-2.79,3.07-2.85,0,0,.23,.07,.6,.15-.21,.83-.21,1.68,0,2.48,.04,.14,.08,.27,.12,.4Z" fill="#e5b89a"/>
          <path d="M11.86,11.21c.11,.17,.22,.33,.35,.48h0c.06,.17,.12,.34,.2,.51,.05,.11,.1,.23,.17,.35,.04,.1,.09,.2,.15,.29,.08,.14,.17,.27,.26,.41-.13-.08-.25-.16-.37-.26-.06-.05-.12-.1-.18-.16-.09-.07-.17-.15-.25-.24-.09-.09-.17-.18-.25-.28-.06-.08-.13-.16-.19-.25-.09-.12-.17-.24-.25-.36-1.41-2.32-1.07-5.43,2.58-3.85h.01s.03,.04,.04,.06c.13,.1,.25,.22,.39,.36,.01,0,.03,.02,.04,.03l.07,.08,.11,.1s.04,.07,.06,.11h.01s.06,.09,.09,.13h0s.01,.02,.01,.02c0,.01,.02,.02,.03,.03s.01,.03,.02,.03c-.45-.3-.95-.49-1.41-.51-2.49-.96-2.7,1.26-1.69,2.92Z" fill="#d6a47f"/>
          <path d="M12.21,11.7c-.13-.15-.25-.32-.36-.49-1.01-1.66-.8-3.88,1.69-2.92-.37-.03-.71,.04-.97,.22-.86,.6-.65,2.08-.51,2.68,.03,.17,.08,.33,.14,.51Z" fill="#b78665"/>
          <path d="M12.62,12.99c-.61-.04-1.21,.05-1.43,.49-.2,.36-.25,.89-.25,1.42-.91,1.17-1.45,2.98-1.68,3.99-.22-1-.41-2.13-.51-3.41h0c.17-.34,.35-.67,.53-1,.34-.6,.67-1.17,1-1.71,.04-.05,.06-.09,.07-.11h0c.38-.33,.76-.64,1.14-.96,.08,.12,.16,.24,.25,.36,.06,.09,.13,.17,.19,.25,.08,.1,.16,.19,.25,.28,.08,.09,.16,.17,.25,.24,.06,.06,.12,.11,.18,.16Z" fill="#bf895c"/>
          <path d="M14.1,13.01c-.09,.02-.16,.06-.22,.09-.25,.06-.5,.15-.77,.24-.05-.03-.08-.05-.12-.09-.09-.14-.18-.27-.26-.41-.06-.09-.11-.19-.15-.29-.07-.12-.12-.24-.17-.35-.08-.17-.14-.34-.2-.5h0c-.06-.18-.1-.34-.14-.5,.3-.23,.57-.46,.85-.71-.02,.06-.02,.1-.04,.13-.01,.03-.03,.08-.03,.11-.02,.06-.03,.12-.01,.19-.01,.06-.01,.11-.01,.16s0,.09,.01,.13c0,.1,.03,.2,.06,.31,.01,.02,.01,.04,.02,.06,.04,.13,.1,.24,.18,.38,.15,.27,.39,.55,.69,.8,.1,.09,.2,.17,.31,.25Z" fill="#af7846"/>
          <path d="M7.23,20.26v.02s-.09,.04-.13,.05c-1.09,.46-2.41,1.16-3.3,2.09-.05-.13-.09-.27-.13-.4-.21-.8-.21-1.65,0-2.48,.74,.15,2.02,.25,3-.49,.01,0,.02-.02,.02-.02,.1-.07,.2-.16,.29-.25,.03,.44,.13,.95,.25,1.48Z" fill="#d6a47f"/>
          <path d="M9.26,18.89c-.11,.45-.17,.73-.17,.73,0,0-.2,.06-.55,.17-.29-.77-.52-1.92-.65-2.62,.2-.43,.41-.85,.62-1.25,.08-.15,.16-.29,.24-.44,.1,1.28,.29,2.41,.51,3.41Z" fill="#d6a47f"/>
          <path d="M19.81,8.91c-.58-.2-.58-.43,0-2.04-.86,1.32-1.09,1.32-2.04,0,.66,1.61,.67,1.84,0,2.04,.95,.08,1.18,.08,2.04,0Z" fill="#ffb743"/>
          <path d="M20.17,12.76c-.6,.23-1.22,.36-1.84,.36-.41,0-.82-.06-1.22-.19-.18-.05-.35-.13-.52-.21-.24-.14-.51-.29-.75-.46-.14-.1-.28-.2-.41-.3,.12,.07,.25,.13,.39,.19,.17,.07,.35,.15,.52,.21h.01c.24,.08,.47,.13,.7,.19h.01c1.43,.41,3.63-1.04,3.94-2.54,.11-.22,.17-.46,.18-.5,.36-1.68-2.15-3.7-2.63-4.08-.09-.07-.18-.14-.25-.2-.41-1.22-.3-2.52,.92-3.71-.9,1.38-.43,2.33,.42,3.18,.07,.25,.14,.48,.2,.67,.7,2.04,1.85,2.25,2.06,3.62,.27,1.71-1.3,2.88-1.73,3.77Z" fill="#e5b89a"/>
          <path d="M10.35,12.65h0s-.05,.08-.07,.12c-.33,.54-.66,1.11-1,1.71-.18,.33-.36,.66-.53,.99-.09,.15-.16,.3-.24,.45-.66-.2-1.05-.03-1.18,.04-.49,.26-.82,.88-.85,1.68v.05c-.02,.41,.05,.87,.21,1.34,.01,.04,.03,.07,.04,.11-.02-.02-.04-.05-.06-.09-.27-.41-.97-1.66-.64-3.13,.41-1.78,2.16-3.15,4.32-3.27Z" fill="#ffd500" mix-blend-mode="lighten" opacity=".39"/>
          <path d="M9.58,13.33c-.26,.41-.51,.84-.77,1.3-.19,.35-.38,.69-.55,1.02-.42-.11-.71-.02-.84,.03-.63,.25-1.04,1.06-.95,2-.11-.38-.27-1.16,.03-2.03,.43-1.23,1.62-2.12,3.08-2.33Z" fill="#fff6e1" mix-blend-mode="lighten" opacity=".17"/>
          <path d="M7.91,22.65c-.68,.88-3.45-.04-3.43-.27,.02-.15,1.12,.22,1.93-.39,.41-.47,.6-1.05,.69-1.66,.02-.07,.03-.15,.04-.22,.03,.05,.06,.1,.09,.15v.02h.01c.55,.98,1.07,1.86,.67,2.37Z" fill="#ffd500" mix-blend-mode="lighten" opacity=".39"/>
          <path d="M22.74,14.27c-.3,.67-.71,1.28-1.42,1.52-.97,.33-2.57-.03-3.34-.94-.24-.26-.34-.51-.71-.75-.32-.21-.76-.33-1.14-.34-.61-.62-1.27-.99-2.03-.76-.11-.08-.21-.16-.31-.24-.3-.25-.54-.53-.69-.8-.08-.14-.13-.25-.18-.38,0-.02,0-.04-.02-.06-.03-.11-.06-.21-.06-.31-.01-.04-.01-.08-.01-.13,0-.02,0-.03,.01-.05,.75,.8,2.36,1.68,3.77,2.19,.25,.09,1.03,.36,1.77,.55,.13,2.23,3.26,1.72,4.36,.5Z" fill="#af7846"/>
          <path d="M15.64,7.01s-.08,0-.16-.06c-.3-.18-.88-.75-.86-1.5,.01-.34,.15-.64,.33-.87,.02-.05,.06-.09,.08-.13,.22-.25,.44-.39,.48-.36,.05,.03-.3,.41-.38,1.04-.01,.06-.01,.11-.01,.16-.01,.01,0,.01,0,.01-.04,.96,.61,1.64,.52,1.71Z" fill="#fff6e1" mix-blend-mode="lighten" opacity=".13"/>
          <path d="M18.42,13.13c-.03,.23-.05,.45-.04,.64-.74-.19-1.52-.46-1.77-.55-1.41-.51-3.02-1.39-3.77-2.19,0-.02-.01-.04,0-.07,0-.01-.01-.03,0-.04-.02-.07-.01-.13,.01-.19,0-.03,.02-.08,.03-.11,.02-.03,.02-.07,.04-.13h0c.05-.03,.09-.07,.13-.1,.48,.2,.94,.51,1.42,.86,.32,.23,.63,.48,.96,.71,.13,.1,.27,.2,.41,.3,.24,.19,.48,.34,.75,.46,.17,.08,.34,.16,.52,.21,.4,.13,.81,.19,1.22,.19,.04,.01,.07,.02,.09,.01Z" fill="#915d31"/>
          <path d="M21.94,11.64c-.53,.49-1.13,.86-1.77,1.12,.43-.89,2-2.06,1.73-3.77-.21-1.37-1.36-1.58-2.06-3.62-.06-.19-.13-.42-.2-.67,1.76,1.75,5.18,3.12,2.3,6.94Z" fill="#efc9af"/>
          <path d="M21.18,9.51s-.07,.28-.18,.5c.04-.19,.05-.38,.02-.57h0c-.02-.07-.05-.12-.09-.19-.02-.03-.04-.06-.06-.1-.03-.05-.06-.11-.09-.16-.07-.12-.16-.24-.26-.39-.05-.07-.1-.15-.16-.23v-.02s0-.01,0-.01l-.16-.17h0c-.05-.06-.09-.11-.14-.16-.15-.17-.3-.35-.45-.54h0s0-.01,0-.01c-.04-.04-.07-.08-.1-.13-.1-.12-.19-.25-.28-.38-.2-.28-.38-.56-.55-.84h0c-.03-.07-.06-.13-.08-.19-.02-.06-.05-.11-.08-.16-.03-.07-.06-.14-.09-.21-.03-.07-.05-.14-.08-.21-.01-.02-.01-.03-.02-.05s-.01-.04-.02-.06c.07,.06,.16,.13,.25,.2,.48,.38,2.99,2.4,2.63,4.08Z" fill="#dda27a"/>
          <path d="M18.11,10.85c0,.23-.03,.44-.12,.65-.07-.03-.15-.07-.24-.12-.61-.39-1.5-1.48-1.87-2.73-.12-.45-.19-.92-.2-1.37-.01-.07-.01-.13-.01-.2,0-.23,.01-.45,.04-.65,.17,.28,.37,.56,.58,.84,0,.02,0,.03,.02,.04,.44,.63,.92,1.28,1.27,1.9,.03,.06,.06,.12,.09,.17,.02,.04,.05,.08,.06,.12h.01c.12,.25,.21,.49,.27,.72,.07,.22,.1,.43,.1,.63Z" fill="#aa5b26"/>
          <path d="M16.28,7.81c.11-.03,.2,.37,.75,1.18,.24,.36,.41,.56,.51,.94,.06,.24,.12,.64,0,.7-.15,.07-.49-.42-.68-.67-.22-.31-.43-.6-.56-1.04-.13-.47-.16-1.06-.03-1.1Z" fill="#ffa71a" mix-blend-mode="soft-light" opacity=".42"/>
          <path d="M20.78,8.77c-.07,.04-.48-.56-.91-1.19-.39-.57-.79-1.15-.73-1.2,.06-.05,.56,.41,.96,.97,.47,.66,.75,1.37,.68,1.41Z" fill="#ffa71a" mix-blend-mode="soft-light" opacity=".42"/>
          <path d="M22.86,14.16c-.61,.96-.95,2.24-1.96,2.72-2.05,1.15-3.3-1.65-4.77-3.12,.38,.01,.82,.13,1.14,.34,.37,.24,.47,.49,.71,.75,.77,.91,2.37,1.27,3.34,.94,.71-.24,1.12-.85,1.42-1.52,.05-.03,.08-.07,.12-.11Z" fill="#915d31"/>
          <path d="M8.54,19.79c-.34,.11-.79,.27-1.3,.49h-.01v-.02c-.12-.53-.22-1.04-.25-1.48,.22-.22,.41-.51,.58-.88,.11-.24,.22-.49,.33-.73,.13,.7,.36,1.85,.65,2.62Z" fill="#e5b89a"/>
          <path d="M13.06,13.37h0c-.46,.17-.93,.42-1.36,.75-.03,.02-.06,.05-.09,.08-.07,.05-.15,.11-.22,.18-.16,.15-.3,.32-.45,.52,0-.53,.05-1.06,.25-1.42,.22-.44,.82-.53,1.43-.49,.12,.1,.23,.18,.37,.26,.02,.04,.05,.08,.07,.12Z" fill="#c17842"/>
          <path d="M17.62,1.22c.07-.13,.16-.26,.25-.39,.05,.87,.3,1.92-.33,2.45-.59,.49-1.41,.08-2.01,.39-.09,.04-.19,.1-.27,.19-.19,.2-.28,.45-.31,.72-.07,.45,.03,.92,.08,1.17,.09,.45,.25,.85,.45,1.2,.01,.03,.02,.06,.05,.09-.28-.06-.52-.15-.79-.41-.68-.67-1.03-2.01-.51-2.77,.46-.68,1.36-.55,2.13-.89,.29-.11,.56-.29,.78-.6,.31-.42,.14-.53,.48-1.15Z" fill="#ffd500" mix-blend-mode="lighten" opacity=".39"/>
          <path d="M18.91,10.04c.03,.1,.04,.19,.04,.29,0,.16-.02,.31-.06,.45-.16,.5-.63,.86-1.1,1.09-.58,.28-1.16,.37-1.2,.29-.05-.08,.67-.31,1.16-.78,.16-.15,.29-.32,.36-.53,.03-.06,.05-.12,.06-.19,.02-.12,.02-.23,0-.33-.04-.29-.2-.55-.43-.82h-.01s-.02-.02-.02-.02c-.06-.08-.13-.15-.21-.23-.22-.23-.48-.46-.75-.72-.01-.01-.01-.02-.02-.02-.17-.17-.35-.35-.52-.54-.19-.21-.37-.44-.53-.7-.06-.07-.11-.15-.15-.23,.04,.01,.09,.02,.14,.03,.18,.05,.38,.1,.62,.19,0,.01,.03,.01,.04,.02,.06,.02,.12,.05,.18,.08,.22,.1,.44,.23,.66,.38,.38,.26,.73,.58,1.02,.93,.08,.09,.15,.19,.22,.28,.08,.11,.16,.23,.23,.35,.13,.24,.23,.49,.27,.73Z" fill="#ffd500" mix-blend-mode="lighten" opacity=".39"/>
          <path d="M20.08,.85c-.09-.08-.67-.54-1.42-.4-.39,.07-.65,.27-.79,.38-.03-.08-.18-.5,.01-.71,.21-.23,.69-.07,1.03,.04,.27,.09,.71,.27,1.16,.69Z" fill="#ffd500" mix-blend-mode="lighten" opacity=".39"/>
          <path d="M22.61,3.85c-.06,.13-.71,.14-1.07-.2-.49-.47,0-1.19-.37-1.91-.25-.48-.81-.84-1.35-.97,.36-.21,.7-.29,.95-.18,.64,.29,.12,1.62,1.19,2.64,.33,.32,.7,.5,.65,.62Z" fill="#ffd500" mix-blend-mode="lighten" opacity=".39"/>
        </g>
      </g>
    </g>
  </g>
</svg>