<?xml version="1.0" encoding="UTF-8"?>
<svg xmlns="http://www.w3.org/2000/svg" xmlns:xlink="http://www.w3.org/1999/xlink" viewBox="0 0 23.91 23.62">
  <defs>
    <radialGradient id="_Градієнт_без_назви_62" data-name="Градієнт без назви 62" cx="13.79" cy="10.82" fx="13.79" fy="10.82" r="3.75" gradientUnits="userSpaceOnUse">
      <stop offset="0" stop-color="#fff200"/>
      <stop offset=".21" stop-color="#000" stop-opacity="0"/>
    </radialGradient>
    <radialGradient id="_Градієнт_без_назви_61" data-name="Градієнт без назви 61" cx="17.62" cy="6.78" fx="17.62" fy="6.78" r="4.68" gradientUnits="userSpaceOnUse">
      <stop offset=".06" stop-color="#b9dcff"/>
      <stop offset="1" stop-color="#000" stop-opacity="0"/>
    </radialGradient>
    <radialGradient id="_Градієнт_без_назви_61-2" data-name="Градієнт без назви 61" cx="15.54" cy="5.5" fx="15.54" fy="5.5" r="2.07" xlink:href="#_Градієнт_без_назви_61"/>
    <radialGradient id="_Градієнт_без_назви_51" data-name="Градієнт без назви 51" cx="12.04" cy="13.76" fx="12.04" fy="13.76" r="6.26" gradientTransform="translate(17.8 -3.67) rotate(51.76)" gradientUnits="userSpaceOnUse">
      <stop offset="0" stop-color="#fff200"/>
      <stop offset="1" stop-color="#000" stop-opacity="0"/>
    </radialGradient>
    <radialGradient id="_Градієнт_без_назви_61-3" data-name="Градієнт без назви 61" cx="7.46" cy="4.05" fx="7.46" fy="4.05" r="4.67" gradientTransform="translate(17.8 -3.67) rotate(51.76)" xlink:href="#_Градієнт_без_назви_61"/>
  </defs>
  <g isolation="isolate">
    <g id="_Шар_2" data-name="Шар 2">
      <g id="Zauberstab">
        <g>
          <path d="M.23,23.62H.01v-.53c.04,.1,.07,.2,.11,.29,.04,.08,.07,.16,.11,.24Z" fill="#403d39"/>
          <path d="M.5,21.02c.02,.08,.02,.17,.04,.25-.02-.06-.04-.15-.04-.22,0-.02,0-.03,0-.03Z" fill="#0f0e0e"/>
          <path d="M.4,20.03c-.1-.28-.12-.6-.09-.94,.03-.04,.07-.07,.09-.1-.03,.37-.01,.72,0,1.04Z" fill="#11100f"/>
          <g>
            <g>
              <polygon points="22.4 6.55 20.81 5.88 20.69 5.89 20.65 5.81 20.71 5.84 21.28 .7 21.71 .07 22.4 6.55" fill="#023e8a"/>
              <polygon points="20.71 5.84 20.65 5.81 19.39 3.48 21.28 .7 20.71 5.84" fill="#0254ad"/>
              <line x1="19.39" y1="3.48" x2="19.38" y2="3.48" fill="none"/>
              <path d="M15.51,8.33c-.13,0-.27-.01-.41-.02,.1-1.5,.2-3.01,.29-4.52l.65,.71c-.17,1.27-.35,2.56-.52,3.83Z" fill="#03045e"/>
              <path d="M17.74,7.56l-1.17,.07s-.39-.31-.86-.69c.11-.81,.22-1.63,.33-2.44l1.51,1.66,.02,.02,.16,1.37Z" fill="#023e8a"/>
              <path d="M22.4,6.55c-.92,.66-1.84,1.33-2.77,1.99-.59-.03-1.19-.06-1.79-.09l-.18-1.45,.17,.56c.63,.1,1.27,.19,1.89,.29,.89-.43,1.78-.87,2.67-1.29Z" fill="#01032b"/>
              <path d="M22.4,6.55c-.89,.43-1.78,.87-2.67,1.29-.63-.1-1.26-.19-1.89-.29l-.17-.56-.1-.8,3.12-.3-.04-.08,1.75,.74Z" fill="#03045e"/>
              <path d="M21.71,.07l-2.32,3.4-.96,1.4-.88,1.28-1.44-1.58s.01-.04,.01-.07l.1-.08L21.71,0V.07Z" fill="#0991ce"/>
              <path d="M16.22,4.43l-.1,.08s-.01,.05-.01,.07l-.72-.79s0-.05,0-.08l.11-.07L21.7,0h0s-5.49,4.43-5.49,4.43Z" fill="#0077b6"/>
              <polygon points="20.69 5.89 17.57 6.19 17.55 6.16 18.43 4.88 19.39 3.48 20.65 5.81 20.69 5.89" fill="#00b4d8"/>
              <polygon points="20.24 5.66 18.25 5.85 18.24 5.83 18.8 5.01 19.41 4.11 20.22 5.61 20.24 5.66" fill="#07d4ef"/>
              <path d="M17.84,8.45c-.77-.03-1.55-.08-2.33-.11,.06-.46,.13-.92,.19-1.39,.47,.37,.86,.69,.86,.69l1.17-.07,.11,.89Z" fill="#023266"/>
            </g>
            <path d="M18.04,14.59l-3.07-1.32-1.68-.71,1.58-1.25c.21,0,.41,.02,.59,0l2.57,3.27Z" fill="#ffd900"/>
            <path d="M15.28,16.79c-.49,.01-.94-.01-1.33-.05l-.99-1.25,1.79-.31,3.29-.58-2.76,2.19Z" fill="#ffb300"/>
            <polygon points="18.04 14.59 14.75 15.17 12.96 15.48 13.29 12.57 14.97 13.28 18.04 14.59" fill="#fff200"/>
            <path d="M14.88,11.32l-1.58,1.25-1.62-.19-2.03-.24c.05-.08,.11-.15,.17-.2,.05-.07,.12-.13,.18-.19,.4-.39,.84-.71,1.32-.96,.14,.02,.22,.04,.22,.04,.52,.12,1.02,.22,1.51,.29,.67,.11,1.27,.18,1.83,.2Z" fill="#ff8c00"/>
            <path d="M13.94,16.73c-1.93-.18-2.81-.83-3.51-1.55l2.52,.3,.99,1.25Z" fill="#ff8000"/>
            <path d="M12.96,15.48l-2.52-.3c-.41-.42-.74-.86-1.18-1.26-.16-.14-.32-.28-.52-.4,.12-.25,.25-.5,.4-.71,.06-.11,.13-.21,.21-.31,0-.03,.03-.07,.06-.08,.07-.11,.15-.19,.23-.29l2.03,.24,1.62,.19-.34,2.91Z" fill="#ffa600"/>
            <path d="M20.98,7.19c-.47,.2-1.02,.39-1.66,.55,.49-1.03,1.09-2.53,3.37-3.82-.29,.19-1.46,1.09-1.71,3.27Z" fill="#252422"/>
            <path d="M18.23,10.88c-.18-.23-.56-.44-1.23-.56-1.06-.19-3.02-.11-4.58-.01,.15-.05,.28-.1,.43-.13,.2-.06,.41-.12,.63-.16,.21-.05,.43-.09,.64-.13,2.28-.41,4.7-.29,6.35-.9-.42,.79-1.12,1.48-2.23,1.9Z" fill="#252422"/>
            <path d="M7.72,13.02c-.07-.03-.14-.06-.23-.07-.17-.06-.35-.1-.57-.14,.35-.97,.83-2.04,1.47-2.89h0c.87-1.16,2.03-1.93,3.55-1.48,.05,0,.11,.02,.15,.04,.21,.07,.42,.13,.59,.19-1.22,.35-2.18,.95-3,1.72h0c-.42,.42-.8,.87-1.15,1.37l-.02,.02-.02,.02c-.03,.06-.08,.11-.12,.17-.23,.34-.45,.69-.67,1.07Z" fill="#252422"/>
            <path d="M15.13,8.28c-.13,.01-.27,.01-.39,.02-.76,.05-1.42,.16-2.02,.35h0c-.18-.06-.38-.12-.59-.19-.04-.01-.1-.03-.15-.04,1.26-.49,2.13-1,2.5-2.25,0,0-.32-1.12-.74-1.22,.1,.01,.51,.05,1.01-.1,.5-2.11,1.76-3.34,3.21-3.32-.3,.02-1.18,.18-1.59,1.14-.16,.38-.25,.88-.2,1.56,.08,1.15-.25,2.58-1.02,4.03Z" fill="#211c1c"/>
            <path d="M2.62,20.58c-.07-.33-.11-.68-.14-1.06-.02-.27-.02-.55,0-.84,.02-.28,.06-.57,.12-.87,.11-.46,.55-2.4,2.05-2.96,.55-.2,1.09-.15,1.51-.06,.03,0,.06,.02,.09,.02,.15,.04,.28,.08,.39,.12,0,.02-.01,.03-.01,.04-.39,.75-.78,1.55-1.22,2.35-.28,.36-.59,.77-.94,1.18-.69,.83-1.32,1.51-1.86,2.06Z" fill="#211c1c"/>
            <path d="M6.93,12.81c-.34-.08-.75-.13-1.21-.15-.08,0-.15,0-.23,0,.98-1.09,2-2.1,2.91-2.73-.64,.85-1.12,1.92-1.47,2.89Z" fill="#211c1c"/>
            <path d="M13.87,17.94c-.38,.34-.8,.79-.91,1.13-.01-.1-.09-.53-.54-1.21-.1-.03-.2-.06-.3-.1-.48-.19-1.03-.48-1.62-.82-.79-.44-1.64-.94-2.48-1.37,.08-.22,.15-.43,.21-.65,.02-.06,.04-.13,.06-.19,.03-.1,.06-.19,.09-.29,.09-.26,.19-.52,.3-.76,.25,.68,.98,1.92,2.18,2.71,2.15,1.41,4.99,.81,6.33,.3-.2,.13-1.73,1.06-3.32,1.25Z" fill="#252422"/>
            <path d="M21.02,8.73c-.17,.09-.35,.17-.55,.24-1.64,.62-4.07,.5-6.35,.9-.21,.04-.43,.07-.64,.13-.22,.04-.43,.1-.63,.16-.41,.1-.81,.26-1.18,.44h0c-.12,.06-.23,.11-.35,.17-.48,.25-.92,.57-1.32,.96-.06,.06-.13,.12-.18,.19-.07,.05-.13,.12-.17,.2-.08,.1-.15,.18-.23,.29-.04,.01-.06,.05-.06,.08-.08,.1-.16,.2-.21,.31-.15,.21-.28,.46-.4,.71-.14,.28-.26,.6-.36,.92-.03,.1-.06,.19-.09,.29-.02,.06-.04,.13-.06,.19-.06,.22-.13,.43-.21,.65-.03,.07-.04,.13-.07,.19-.26,.74-.58,1.42-.92,2.05,.17,.23,.38,.5,.63,.66,0,0-.58,0-1.08,.13-1.18,1.89-2.58,3.18-3.69,4.01,.03-.23,.01-.48-.04-.77,.91-.54,1.97-1.36,2.85-2.44,1.96-2.38,2.56-5.28,2.25-5.44-.23-.12-.85,1.2-2.52,3.38-.28,.36-.59,.77-.94,1.18-.69,.83-1.32,1.51-1.86,2.06-.07-.33-.11-.68-.14-1.06-.02-.27-.02-.55,0-.84,.21,.04,.45,.07,.76,0,.78-.15,1.29-.75,1.71-1.19,.19-.2,.45-.59,.96-1.37,.31-.47,.56-.87,.74-1.15,0-.02,.01-.03,.01-.04,.37-.67,.7-1.33,1.07-1.93,.22-.38,.44-.72,.67-1.07,.03-.06,.08-.11,.12-.17l.02-.02,.02-.02c.35-.5,.73-.95,1.15-1.36h0c.52-.49,1.08-.91,1.74-1.24,.07,0,.13-.01,.21-.02,4.49-.34,6.25-.07,9.05-1.09,.79-.29,1.6-.66,2.24-1.46,.49-.64,.8-1.45,.86-2.17,.02-.06,.01-.12,.02-.17h0s.41,2.73-2.81,4.51Z" fill="#403d39"/>
            <path d="M2.59,23.27c-.33,.3-.78,.33-1.05,.32-.16-.24-.34-.53-.51-.91-.06-.11-.11-.24-.17-.37-.07-.18-.13-.37-.19-.56-.01-.04-.03-.07-.03-.1-.02-.11-.05-.2-.07-.29,0-.03-.02-.06-.02-.09-.02-.08-.02-.17-.04-.25-.05-.26-.08-.5-.09-.72,0-.09,0-.17,0-.25,0,0,0-.02,0-.03-.1-.28-.12-.6-.09-.94,.12-2.29,2.45-5.57,2.07-6.89,.18,.37,.84,.63,1.35,.78,0,0,0,0,.02,0,1.16-.55,2.79-.36,3.98,.03-.36,.6-.7,1.26-1.07,1.93-.11-.04-.24-.08-.39-.12-.03,0-.06-.02-.09-.02-.42-.09-.96-.14-1.51,.06-1.5,.55-1.94,2.49-2.05,2.96-.06,.3-.1,.59-.12,.87-.03,.29-.02,.57,0,.84,.03,.37,.07,.73,.14,1.06,.05,.37,.13,.7,.19,1.02,.02,.08,.03,.16,.03,.24,.05,.29,.07,.55,.04,.77-.01,.26-.11,.48-.3,.66Z" fill="#2d2a28"/>
            <path d="M1.53,23.59s-.01,.02-.02,.03H.23c-.04-.08-.07-.16-.11-.24-.04-.09-.07-.19-.11-.29,0-.01-.01-.02-.01-.03v-3.62H.01c.08-.11,.16-.2,.24-.29,.02-.02,.03-.04,.05-.06-.01,.08-.01,.16-.01,.24,0,.04,0,.08,.01,.11,0,.1,0,.18,.02,.27,.02,.11,.04,.22,.08,.32,0,0-.01,.02,0,.03,0,.08,0,.15,.01,.24,0,.26,.03,.52,.08,.73v.02c.01,.08,.03,.16,.05,.22,0,.03,.02,.06,.02,.09,.01,.06,.03,.11,.04,.16,0,.02,0,.04,.02,.06,.01,.03,.01,.05,.01,.07,.01,.03,.02,.07,.04,.1,.06,.2,.12,.39,.19,.56h.01c.04,.1,.07,.19,.11,.27,.03,.08,.07,.16,.11,.24,.11,.22,.22,.41,.32,.58,.04,.07,.08,.13,.12,.19Z" fill="#33302d"/>
            <path d="M15.24,14.19c-.37,.07-.58-.2-.5-.63-.09,.43-.42,.48-.79,.12,.37,.37,.25,.68-.3,.74,.54-.06,.75,.2,.49,.63,.26-.43,.59-.48,.79-.11-.2-.36-.08-.68,.3-.75Z" fill="#ffd61c" opacity=".5"/>
            <path d="M12.11,11.62c-.24,.04-.37-.12-.31-.4-.05,.27-.26,.3-.5,.07,.23,.23,.16,.43-.19,.47,.34-.04,.47,.13,.31,.39,.16-.27,.37-.3,.5-.07-.13-.23-.05-.42,.19-.47Z" fill="#ffa600"/>
            <path d="M18.23,10.88c-.74,.28-1.65,.45-2.77,.45-.18,.01-.38,0-.59,0-.55-.02-1.16-.09-1.83-.2-.48-.08-.98-.17-1.51-.29,0,0-.08-.03-.22-.04,.11-.06,.23-.11,.35-.16h0c.24-.12,.49-.24,.75-.32,1.56-.1,3.52-.17,4.58,.01,.67,.12,1.05,.33,1.23,.56Z" fill="#33302a"/>
            <path d="M18.23,10.88c-.55,.22-1.2,.35-1.97,.42-.24-.19-.53-.37-.84-.52-1.01-.5-2.18-.58-3.34-.34,.11-.06,.22-.1,.34-.13,1.56-.1,3.52-.17,4.58,.01,.67,.12,1.05,.33,1.23,.56Z" fill="#ffd900" mix-blend-mode="saturation" opacity=".25"/>
            <path d="M16.26,11.3c-.25,.02-.51,.03-.8,.03-.18,.01-.38,0-.59,0-.55-.02-1.16-.09-1.83-.2-.48-.08-.98-.17-1.51-.29,0,0-.08-.03-.22-.04,.11-.06,.23-.11,.35-.16h0c.12-.06,.24-.12,.37-.17,0,0,.02-.02,.04-.01,1.17-.24,2.34-.15,3.34,.34,.31,.15,.59,.33,.84,.52Z" fill="url(#_Градієнт_без_назви_62)"/>
            <path d="M17.2,16.69h0s-.04,.02-.06,.04c-1.37,.5-4.16,1.06-6.28-.33-1.2-.79-1.93-2.03-2.18-2.71,.02-.06,.04-.11,.06-.16,.2,.11,.36,.25,.52,.4,.44,.4,.77,.84,1.18,1.26,.7,.73,1.58,1.37,3.51,1.55,.39,.04,.84,.06,1.33,.05,.56,0,1.2-.03,1.92-.1Z" fill="#494442"/>
            <path d="M8.9,12.52c.73-1.52,2.74-1.97,2.77-1.9,.03,.05-1.08,.33-1.98,1.45-.73,.91-.92,1.85-1.02,1.82-.09-.03-.07-.72,.24-1.36Z" fill="#7c4e05"/>
            <path d="M20.7,8.04c-2.8,1.02-4.56,.75-9.05,1.09-.07,0-.13,.01-.21,.02,.38-.19,.8-.36,1.26-.49h0c.71-.23,1.49-.35,2.41-.38,.03,0,.04,0,.07,0,1.67-.06,3.03-.26,4.12-.53,.64-.16,1.19-.35,1.66-.55,2.23-.97,2.71-2.3,2.82-2.79-.06,.72-.37,1.53-.86,2.17-.63,.8-1.44,1.17-2.24,1.46Z" fill="#59544f"/>
            <path d="M20.7,8.04c-2.8,1.02-4.56,.75-9.05,1.09-.07,0-.13,.01-.21,.02,.38-.19,.8-.36,1.26-.49h0c.71-.23,1.49-.35,2.41-.38,.03,0,.04,0,.07,0,1.67-.06,3.03-.26,4.12-.53,.64-.16,1.19-.35,1.66-.55,2.23-.97,2.71-2.3,2.82-2.79-.06,.72-.37,1.53-.86,2.17-.63,.8-1.44,1.17-2.24,1.46Z" fill="url(#_Градієнт_без_назви_61)"/>
            <path d="M20.98,7.19c-.47,.2-1.02,.39-1.66,.55,.49-1.03,1.09-2.53,3.37-3.82-.29,.19-1.46,1.09-1.71,3.27Z" fill="#252422"/>
            <path d="M15.13,8.28c-.13,.01-.27,.01-.39,.02,.06-.63,.18-1.29,.46-1.54,.59-.55,.21-2.15,.39-3.18,.07-.35,.38-.66,.76-.9-.16,.38-.25,.88-.2,1.56,.08,1.15-.25,2.58-1.02,4.03Z" fill="url(#_Градієнт_без_назви_61-2)"/>
            <path d="M2.84,21.84c0-.08-.02-.16-.03-.24-.06-.32-.13-.65-.19-1.02,.54-.55,1.17-1.24,1.86-2.06,.35-.42,.66-.82,.94-1.18,1.68-2.17,2.29-3.49,2.52-3.38,.32,.16-.29,3.07-2.25,5.44-.89,1.08-1.94,1.89-2.85,2.44Z" fill="#605a57"/>
            <circle cx="14.45" cy="14.3" r="6.26" fill="url(#_Градієнт_без_назви_51)"/>
            <circle cx="19.24" cy="4.69" r="4.67" fill="url(#_Градієнт_без_назви_61-3)"/>
            <path d="M2.66,14.46c1.35-1.06,3.32-.99,3.34-.88,.02,.08-1.29,.16-2.33,.92-2.81,2.06-1.58,7.71-1.77,7.72-.19,.01-2.05-5.55,.75-7.76Z" fill="#494442"/>
          </g>
        </g>
      </g>
    </g>
  </g>
</svg>