<?xml version="1.0" encoding="UTF-8"?>
<svg xmlns="http://www.w3.org/2000/svg" viewBox="0 0 590.9 728.22">
  <g isolation="isolate">
    <g id="_Шар_2" data-name="Шар 2">
      <g id="bg">
        <rect x="46.12" y="36.91" width="498.66" height="691.31" fill="#064f49"/>
      </g>
      <g id="main">
        <g>
          <rect x="92.81" y="553.81" width="19.33" height=".95" transform="translate(-9.13 1.77) rotate(-.94)" fill="#e4e3e1"/>
          <rect x="115.09" y="553.56" width="13.04" height=".95" transform="translate(-7.98 1.81) rotate(-.83)" fill="#e4e3e1"/>
          <path d="M443.44,550.74v-.95s-17.95,.21-17.95,.21c-21.73-28.14-52.59-48.86-88.15-57.72,1.93-7.07,3.55-14.23,4.86-21.51,2.44-13.34,3.66-26.94,3.63-40.53,8.04-1.4,15.93-3.41,23.57-6.06,37.98-12.87,69.41-42.25,86.27-78.38l-.82-.47c-7.13,10.67-15.56,20.33-24.93,28.73-9.28,8.32-19.63,15.43-30.77,20.94-9.8,4.95-20.3,8.56-31.09,10.85,.13-8.36,2.26-16.77,6.31-24.16,6.01-11.09,15.94-19.73,27.66-24.59,0,0-.28-.9-.28-.9-13.11,2.9-25.4,10.57-33.77,21.22-6.95,8.73-11.33,19.38-12.83,30.52-3.48,.39-6.96,.63-10.45,.74-2.49-24.13-9.11-47.79-20.2-69.43-5.85-11.59-12.9-22.54-20.93-32.73,3.58-11.52,8.12-22.65,13.5-33.32,8.15,1.71,16.39,2.91,24.65,3.62,1.49,4.38,3.31,8.67,5.54,12.76,1.85,3.42,3.89,6.58,6.12,9.51-.08,.21-.16,.42-.24,.63-7.71,21.23,1.24,44.4,21.12,55.05,0,0,.48-.82,.48-.82-11.13-7.53-18.72-20.24-18.78-33.75-.1-5.04,.9-10.16,2.75-14.91,27.9,28.9,76.26,28.63,112.32,13.38,0,0-.29-.9-.29-.9-12.05,2.95-24.37,4.46-36.5,4.1-9.02-.22-18.34-1.58-27.16-4.26,8.85-12.21,21.47-22,36.13-25.89,12.08-3.24,24.89-2.38,36.74,1.88,0,0,.37-.87,.37-.87-7.1-3.47-14.88-5.8-22.93-6.54-20.77-2.15-41.24,7.17-55.71,21.8-1.8,1.8-3.52,3.67-5.17,5.63-9.31-4.27-17.6-10.32-23.75-18.42-4.06-5.3-6.94-11.3-8.8-17.66,44.06-.93,87.59-15.73,122.83-42.88l-.52-.79c-13.49,7.63-27.72,13.71-42.33,18.12-19.11,5.78-38.91,8.63-58.69,8.43,4.9-8.2,10.98-15.72,18-22.3,10.39-9.68,22.78-17.26,36.06-22.51,0,0-.29-.9-.29-.9-7.07,1.72-14.03,4.1-20.77,7.08-13.63,6.06-26.08,14.83-36.37,25.78-3.58,3.82-6.89,7.93-9.92,12.25-5.71-.46-11.4-1.17-17.07-2.16-8.58-1.49-17.04-3.58-25.33-6.21,30.12-46.34,76.71-82.22,128.91-102.37l-.27-.91c-37.59,8.2-74.22,23.92-106.59,47.06-3.63,2.59-7.17,5.24-10.62,7.96-.23-6.28,.17-12.62,1.27-18.9,6.6-36.82,34.66-66.61,65.5-86.37l-.45-.83c-11.65,5.42-22.8,12.1-33.19,19.96-13.78,10.22-26.09,23.09-35.26,37.81-14.3-13.39-19.61-32.82-14.39-52.39,3.11-11.64,9.43-22.22,17.68-30.97,0,0-.64-.69-.64-.69-5.17,4.34-10,9.27-13.92,14.82-12.58,17.15-17.05,40.61-8.88,60.66,3.06,7.74,7.72,14.79,13.43,20.88-4.96,10.57-8.29,21.89-9.46,33.72-.67,6.12-.81,12.31-.46,18.48-7.89,7.46-15.19,15.29-21.92,23.43-6.41-5.31-11.89-11.74-15.87-19.14-14.77-27.32-6.45-61.48,8.3-87.35,0,0-.78-.53-.78-.53-6.35,8.53-11.53,17.93-15.62,27.88-13.28,31.5-9.88,66.21,14.9,90.77-5.55,7.57-10.61,15.38-15.21,23.39-4.74-4.07-9.67-7.93-14.75-11.55-.93-13.22-3.69-26.13-8.16-38.39-5.39-14.99-13.54-28.81-23.76-40.84,11.89-44.65,38.3-85.46,70.78-117.99l-.61-.72c-5.67,4.49-11.03,9.34-16.25,14.36-15.69,15.17-29.72,31.89-41.82,50.17-.17,.25-.34,.51-.51,.76-4.82-8.33-7.76-17.97-7.06-27.56,.62-9.63,5.27-18.57,12.36-25.17l-.61-.72c-5.66,4.29-10.59,10.13-13.28,16.88-5.42,12.42-3.55,26.84,1.6,39.04,.71,1.65,1.46,3.26,2.3,4.86-6.96,11.28-12.86,22.92-17.67,34.81-4.13-3.86-8.51-7.46-13.09-10.78-.85-16.77-7.81-33.27-19.4-45.32,0,0-.71,.62-.71,.62,9.3,11.65,14.49,26.21,14.77,41-10.89-7.12-22.81-12.66-35.39-16.28l-.31,.89c12.52,5.13,24.16,12.16,34.37,20.71,6.14,5.1,11.74,10.78,16.79,16.92-6.32,17.56-10.27,35.61-11.7,53.82-22.25-7.31-45.69-11.06-68.98-11.16,0,0-.05,.95-.05,.95,23.84,2.72,46.94,9.14,68.53,19.25-.8,24.48,2.97,49.15,11.64,73.2-10.05-.37-20.08-1.94-29.8-4.73-16.04-4.57-31.2-12.38-44.42-22.73l-.64,.7c17.83,19.21,41.43,33.04,67.02,39.24,4.6,1.12,9.27,2,13.99,2.65,1.96,4.33,4.08,8.63,6.37,12.9,5.02,9.39,10.74,18.41,17.05,27.03-.75,6.85-1.23,13.75-1.42,20.68-4.51-1.52-8.86-3.67-12.91-6.43-12.38-8.33-22.25-20.73-29.31-34.03l-.88,.35c2.26,7.51,5.38,14.81,9.28,21.79,7.78,14.3,19.49,26.16,33.81,32.72,.75,27.54,5.82,55.43,15.32,82.8-36.4,9.33-67.81,31.11-89.42,60.53l-34.08,.41v.95s33.38-.4,33.38-.4c-19.1,26.4-30.37,58.85-30.37,93.93,0,14.5,1.93,28.54,5.54,41.9,18.43-68.28,80.78-118.53,154.89-118.53s136.46,50.25,154.89,118.53c3.6-13.36,5.54-27.4,5.54-41.9,0-36.46-12.17-70.07-32.65-97.01l17.23-.21Zm-134.22-108.17c-13.04-33.26-18.09-69.65-12.79-105.09,1.84,3.93,3.53,7.94,5.06,12.03,11.39,29.62,13.4,62.01,7.72,93.06Zm-85.49-225.75c.66-5.95,1.62-11.85,2.81-17.7,10.01,16.98,15.94,36.34,17.12,55.9-3.58-2.04-7.23-3.98-10.92-5.8-3.21-1.61-6.47-3.11-9.76-4.55-.55-9.2-.33-18.5,.75-27.85Zm.53,40.87c16.08,9.96,30.75,22.19,43.31,36.26-5.82,12.14-10.62,24.67-14.37,37.5-15.08-22.12-25.22-47.32-28.94-73.76Z" fill="#e4e3e1"/>
          <rect x="455.22" y="549.54" width="42.87" height=".95" transform="translate(-6.31 5.53) rotate(-.66)" fill="#e4e3e1"/>
        </g>
      </g>
      <g id="details">
        <g>
          <path d="M418.31,346.47c-.69,.42-2.62-2.61-5.38-4-.71,1.59-1.1,3.56-1.05,5.56,.03,1.16,.13,3.41,1.55,5.74,1.59,2.62,3.82,3.68,6.05,4.72,2.03,.95,2.84,.86,3.36,.68,.77-.27,1.42-.92,2.2-2.63,.79-1.73,2.07-4.56,1.58-7.8-.68-4.51-4.6-8.43-9.88-9.77,1.63,3.02,2.28,7.07,1.57,7.51Z" fill="#e4e3e1"/>
          <path d="M471.03,278.07c.76,.27-.37,3.68,.29,6.7,1.68-.45,3.45-1.4,4.97-2.69,.88-.75,2.56-2.25,3.48-4.82,1.03-2.89,.44-5.29-.15-7.67-.54-2.18-1.13-2.75-1.6-3.04-.7-.43-1.61-.52-3.43-.04-1.84,.48-4.85,1.28-7.05,3.7-3.07,3.38-3.64,8.89-1.34,13.83,1.31-3.17,4.05-6.23,4.83-5.96Z" fill="#e4e3e1"/>
          <path d="M402.4,196.05c-.18,.79-3.71,.05-6.63,1.05,.63,1.63,1.77,3.29,3.22,4.66,.84,.79,2.52,2.3,5.18,2.92,2.99,.7,5.31-.16,7.62-1.02,2.11-.79,2.61-1.44,2.85-1.94,.35-.74,.34-1.67-.33-3.43-.68-1.78-1.8-4.69-4.45-6.62-3.69-2.68-9.24-2.62-13.91,.23,3.3,.95,6.64,3.34,6.45,4.15Z" fill="#e4e3e1"/>
          <path d="M426.75,148.02c.8,.1,.44,3.68,1.74,6.49,1.55-.8,3.09-2.1,4.3-3.69,.7-.92,2.02-2.75,2.37-5.46,.39-3.04-.72-5.26-1.82-7.47-1-2.01-1.7-2.45-2.22-2.63-.78-.27-1.69-.17-3.38,.69-1.7,.86-4.48,2.28-6.11,5.11-2.28,3.95-1.64,9.47,1.68,13.81,.6-3.38,2.62-6.95,3.45-6.85Z" fill="#e4e3e1"/>
          <path d="M310.33,154.85c-.02-.81,3.57-.99,6.15-2.7-1.03-1.41-2.54-2.73-4.3-3.69-1.02-.55-3.02-1.58-5.75-1.51-3.07,.08-5.09,1.51-7.11,2.93-1.84,1.3-2.16,2.05-2.26,2.6-.15,.81,.09,1.7,1.19,3.23,1.11,1.55,2.93,4.08,5.98,5.27,4.25,1.65,9.61,.19,13.39-3.75-3.43-.08-7.27-1.54-7.29-2.37Z" fill="#e4e3e1"/>
          <path d="M191.21,261.02c.2-.78,3.71,0,6.65-.95-.61-1.64-1.72-3.31-3.15-4.71-.83-.81-2.49-2.34-5.14-3-2.98-.75-5.31,.09-7.63,.91-2.12,.76-2.63,1.4-2.88,1.9-.36,.74-.37,1.66,.28,3.43,.66,1.79,1.73,4.72,4.35,6.68,3.66,2.73,9.2,2.76,13.91-.02-3.28-.99-6.59-3.43-6.39-4.24Z" fill="#e4e3e1"/>
          <path d="M171.04,301.78c.65-.48,2.87,2.35,5.75,3.46,.56-1.65,.76-3.65,.53-5.64-.14-1.15-.45-3.38-2.08-5.57-1.84-2.46-4.17-3.29-6.49-4.11-2.12-.75-2.92-.58-3.43-.35-.75,.34-1.34,1.06-1.95,2.84-.62,1.8-1.64,4.75-.85,7.93,1.11,4.43,5.39,7.95,10.8,8.77-1.92-2.85-2.94-6.83-2.27-7.32Z" fill="#e4e3e1"/>
          <path d="M187.52,226.56c.74-.32,2.23,2.96,4.76,4.73,.94-1.47,1.61-3.37,1.86-5.35,.14-1.15,.37-3.39-.7-5.91-1.2-2.83-3.26-4.19-5.32-5.54-1.88-1.24-2.7-1.26-3.25-1.16-.81,.16-1.55,.71-2.57,2.29-1.04,1.6-2.73,4.22-2.72,7.49,.02,4.56,3.34,9.01,8.39,11.09-1.18-3.22-1.22-7.33-.46-7.65Z" fill="#e4e3e1"/>
          <path d="M258.77,162.8c-.13,.8-3.7,.28-6.55,1.46,.73,1.58,1.97,3.17,3.51,4.45,.89,.74,2.66,2.14,5.35,2.6,3.03,.52,5.29-.49,7.54-1.5,2.05-.92,2.52-1.6,2.72-2.11,.3-.76,.24-1.69-.54-3.4-.79-1.74-2.08-4.57-4.85-6.33-3.85-2.44-9.39-2.04-13.87,1.09,3.35,.74,6.84,2.92,6.7,3.74Z" fill="#e4e3e1"/>
          <path d="M296.1,219.56c.8,.08,.54,3.67,1.93,6.43,1.53-.85,3.02-2.19,4.19-3.82,.67-.94,1.94-2.81,2.2-5.52,.3-3.05-.87-5.24-2.03-7.41-1.06-1.98-1.77-2.4-2.3-2.56-.78-.25-1.7-.12-3.35,.79-1.68,.91-4.41,2.41-5.96,5.29-2.16,4.02-1.36,9.51,2.09,13.75,.5-3.39,2.42-7.03,3.25-6.95Z" fill="#e4e3e1"/>
          <path d="M272.82,261.22c.8,.08,.54,3.67,1.93,6.43,1.53-.85,3.02-2.19,4.19-3.82,.67-.94,1.94-2.81,2.2-5.52,.3-3.05-.87-5.24-2.03-7.41-1.06-1.98-1.77-2.4-2.3-2.56-.78-.25-1.7-.12-3.35,.79-1.68,.91-4.41,2.41-5.96,5.29-2.16,4.02-1.36,9.51,2.09,13.75,.5-3.39,2.42-7.03,3.25-6.95Z" fill="#e4e3e1"/>
          <path d="M321.37,308.87c.55,.59-2.04,3.09-2.86,6.07,1.7,.39,3.71,.39,5.66-.04,1.13-.25,3.32-.79,5.33-2.64,2.26-2.07,2.85-4.48,3.44-6.87,.54-2.19,.28-2.97,0-3.45-.42-.71-1.19-1.22-3.02-1.66-1.86-.44-4.89-1.15-7.97-.04-4.29,1.55-7.37,6.17-7.63,11.63,2.64-2.19,6.49-3.61,7.06-3Z" fill="#e4e3e1"/>
          <path d="M365.49,250.65c.76,.24-.26,3.69,.48,6.67,1.66-.51,3.39-1.52,4.86-2.87,.85-.78,2.48-2.34,3.32-4.94,.94-2.92,.29-5.29-.37-7.64-.6-2.15-1.19-2.7-1.67-2.97-.7-.4-1.61-.46-3.41,.08-1.81,.55-4.77,1.45-6.89,3.94-2.95,3.48-3.36,9-.95,13.84,1.21-3.21,3.85-6.36,4.63-6.11Z" fill="#e4e3e1"/>
          <path d="M432.25,241.62c.1,.8-3.46,1.32-5.87,3.26,1.15,1.31,2.79,2.48,4.62,3.27,1.07,.46,3.16,1.3,5.87,.97,3.05-.36,4.93-1.97,6.8-3.57,1.71-1.46,1.96-2.24,2.01-2.8,.07-.82-.25-1.68-1.49-3.11-1.25-1.44-3.3-3.79-6.45-4.69-4.39-1.25-9.58,.71-12.99,4.98,3.42-.24,7.38,.86,7.48,1.68Z" fill="#e4e3e1"/>
          <path d="M340.46,100.91c.21,.78-3.25,1.78-5.36,4.02,1.32,1.13,3.1,2.06,5.03,2.58,1.12,.3,3.3,.84,5.94,.15,2.97-.78,4.61-2.62,6.24-4.46,1.49-1.68,1.63-2.48,1.61-3.03-.04-.82-.48-1.62-1.9-2.86-1.44-1.25-3.79-3.28-7.03-3.73-4.52-.63-9.39,2.02-12.17,6.7,3.36-.71,7.43-.17,7.64,.62Z" fill="#e4e3e1"/>
          <path d="M249.81,102.59c.62,.51-1.6,3.34-2.01,6.39,1.74,.15,3.72-.13,5.59-.83,1.09-.41,3.17-1.24,4.92-3.35,1.96-2.36,2.22-4.82,2.47-7.26,.24-2.23-.12-2.97-.46-3.4-.51-.64-1.34-1.04-3.21-1.21-1.9-.17-4.99-.46-7.89,1.07-4.04,2.13-6.45,7.12-5.98,12.54,2.31-2.53,5.93-4.47,6.57-3.95Z" fill="#e4e3e1"/>
          <path d="M189.14,145.9c-.62,.51,1.6,3.34,2.01,6.39-1.74,.15-3.72-.13-5.59-.83-1.09-.41-3.17-1.24-4.92-3.35-1.96-2.36-2.22-4.82-2.47-7.26-.24-2.23,.12-2.97,.46-3.4,.51-.64,1.34-1.04,3.21-1.21,1.9-.17,4.99-.46,7.89,1.07,4.04,2.13,6.45,7.12,5.98,12.54-2.31-2.53-5.93-4.47-6.57-3.95Z" fill="#e4e3e1"/>
          <path d="M202.24,386.03c-.39-.29,.87-2.09,1.02-3.96-1.06-.02-2.26,.22-3.37,.72-.65,.29-1.89,.88-2.88,2.22-1.11,1.51-1.19,3.01-1.27,4.5-.07,1.36,.17,1.8,.39,2.05,.33,.37,.85,.58,1.99,.61,1.16,.03,3.05,.09,4.76-.95,2.39-1.44,3.7-4.56,3.24-7.84-1.32,1.62-3.47,2.94-3.87,2.64Z" fill="#e4e3e1"/>
          <path d="M193.86,379.6c-.21-.56,2.31-1.56,3.74-3.39-1.08-.74-2.48-1.3-3.97-1.55-.86-.14-2.54-.38-4.48,.33-2.17,.8-3.27,2.29-4.37,3.78-1,1.36-1.05,1.97-.99,2.37,.09,.6,.48,1.17,1.63,1.98,1.17,.82,3.08,2.16,5.55,2.26,3.44,.13,6.91-2.19,8.66-5.88-2.47,.78-5.57,.68-5.78,.1Z" fill="#e4e3e1"/>
          <path d="M197.46,370.29c.29-.39,2.08,.87,3.95,1.03,.03-1.06-.22-2.26-.71-3.38-.29-.65-.87-1.89-2.21-2.89-1.51-1.12-3.01-1.2-4.5-1.28-1.36-.07-1.8,.16-2.05,.39-.37,.33-.58,.84-.62,1.99-.04,1.16-.09,3.05,.94,4.76,1.44,2.39,4.56,3.71,7.83,3.25-1.62-1.33-2.93-3.47-2.64-3.87Z" fill="#e4e3e1"/>
          <path d="M159.23,249.92c-.48,.07-.84-2.1-2.04-3.54-.77,.72-1.46,1.74-1.91,2.87-.26,.66-.74,1.95-.51,3.6,.26,1.86,1.25,2.99,2.24,4.11,.9,1.02,1.38,1.17,1.71,1.19,.49,.03,1.01-.18,1.85-.95,.85-.79,2.24-2.07,2.74-4.01,.7-2.7-.55-5.85-3.16-7.87,.19,2.09-.42,4.52-.92,4.6Z" fill="#e4e3e1"/>
          <path d="M148.74,251.18c-.54-.25,.56-2.73,.3-5.03-1.29,.22-2.68,.8-3.92,1.66-.72,.5-2.08,1.51-2.97,3.36-1,2.09-.74,3.93-.48,5.75,.23,1.67,.63,2.14,.95,2.39,.49,.37,1.16,.5,2.56,.28,1.41-.23,3.71-.61,5.55-2.27,2.55-2.31,3.41-6.4,2.08-10.26-1.22,2.28-3.51,4.38-4.07,4.11Z" fill="#e4e3e1"/>
          <path d="M144.8,242.01c-.07-.48,2.1-.83,3.55-2.03-.72-.78-1.73-1.46-2.87-1.92-.66-.26-1.95-.74-3.6-.52-1.86,.25-2.99,1.24-4.11,2.23-1.03,.9-1.17,1.37-1.19,1.71-.03,.49,.17,1.01,.95,1.85,.78,.85,2.06,2.25,4,2.75,2.7,.7,5.85-.54,7.87-3.15-2.09,.18-4.52-.43-4.59-.93Z" fill="#e4e3e1"/>
          <path d="M392.9,302.14c.2-.44,2.22,.43,4.08,.21-.19-1.04-.67-2.17-1.38-3.16-.41-.58-1.24-1.68-2.75-2.38-1.7-.79-3.19-.57-4.66-.35-1.35,.2-1.73,.52-1.93,.79-.3,.4-.4,.95-.2,2.07,.2,1.14,.52,3,1.88,4.48,1.89,2.05,5.21,2.71,8.33,1.61-1.86-.97-3.57-2.81-3.36-3.26Z" fill="#e4e3e1"/>
          <path d="M398.96,291.77c.46-.29,1.81,1.78,3.69,2.71,.47-1.09,.71-2.44,.66-3.81-.03-.79-.12-2.33-1.11-3.93-1.11-1.79-2.64-2.5-4.16-3.2-1.39-.64-1.94-.58-2.29-.45-.52,.19-.96,.64-1.47,1.82-.52,1.19-1.36,3.14-1,5.35,.51,3.09,3.21,5.75,6.81,6.64-1.14-2.06-1.61-4.84-1.14-5.13Z" fill="#e4e3e1"/>
          <path d="M407.91,293.28c.4,.18-.4,2.01-.2,3.71,.95-.17,1.97-.6,2.88-1.25,.52-.37,1.53-1.12,2.17-2.49,.72-1.54,.52-2.9,.32-4.24-.18-1.23-.47-1.57-.72-1.75-.36-.27-.86-.37-1.88-.19-1.04,.18-2.73,.47-4.07,1.7-1.87,1.72-2.47,4.73-1.47,7.56,.89-1.69,2.56-3.24,2.97-3.05Z" fill="#e4e3e1"/>
          <path d="M401.87,369.36c-.15,.46-2.25-.19-4.08,.24,.3,1.02,.9,2.08,1.71,2.99,.47,.53,1.41,1.53,2.99,2.07,1.78,.6,3.23,.22,4.67-.16,1.32-.35,1.66-.71,1.83-1,.25-.43,.29-.98-.02-2.08-.32-1.11-.85-2.93-2.36-4.24-2.1-1.83-5.47-2.13-8.45-.69,1.95,.76,3.86,2.4,3.7,2.88Z" fill="#e4e3e1"/>
          <path d="M398.31,379.3c-.47,.37-2.19-1.72-4.37-2.52-.38,1.25-.48,2.76-.27,4.25,.13,.86,.41,2.54,1.68,4.16,1.42,1.82,3.18,2.42,4.93,3,1.6,.54,2.19,.4,2.56,.21,.55-.27,.97-.81,1.39-2.16,.42-1.37,1.12-3.59,.45-5.97-.93-3.32-4.2-5.91-8.24-6.45,1.49,2.11,2.35,5.09,1.86,5.48Z" fill="#e4e3e1"/>
          <path d="M388.34,378.72c-.46-.15,.19-2.25-.23-4.08-1.02,.3-2.08,.9-3,1.71-.53,.47-1.53,1.41-2.07,2.99-.6,1.78-.22,3.23,.16,4.67,.35,1.32,.71,1.66,.99,1.83,.43,.25,.98,.3,2.08-.02,1.11-.32,2.93-.84,4.25-2.35,1.84-2.1,2.14-5.47,.7-8.45-.77,1.95-2.41,3.85-2.88,3.7Z" fill="#e4e3e1"/>
          <path d="M358.74,357.6c-.45-.2,.41-2.22,.16-4.08-1.04,.2-2.16,.69-3.15,1.41-.57,.42-1.66,1.25-2.35,2.77-.77,1.71-.53,3.19-.29,4.67,.22,1.35,.54,1.72,.81,1.92,.4,.29,.95,.39,2.07,.18,1.14-.21,3-.56,4.45-1.93,2.03-1.91,2.65-5.24,1.51-8.34-.95,1.87-2.77,3.6-3.23,3.4Z" fill="#e4e3e1"/>
          <path d="M349.19,353.08c-.33-.51,1.93-2.01,2.94-4.1-1.21-.5-2.7-.75-4.2-.68-.87,.04-2.57,.16-4.31,1.26-1.96,1.24-2.72,2.93-3.47,4.61-.69,1.54-.61,2.14-.46,2.53,.21,.57,.71,1.05,2.02,1.6,1.32,.56,3.47,1.46,5.9,1.04,3.39-.6,6.29-3.6,7.22-7.57-2.25,1.28-5.3,1.83-5.63,1.32Z" fill="#e4e3e1"/>
          <path d="M350.75,343.22c.2-.44,2.22,.41,4.08,.17-.2-1.04-.69-2.16-1.41-3.15-.42-.57-1.25-1.67-2.77-2.35-1.71-.77-3.19-.54-4.67-.3-1.35,.21-1.72,.54-1.92,.81-.29,.4-.39,.95-.19,2.07,.21,1.14,.55,3,1.92,4.46,1.91,2.03,5.23,2.66,8.34,1.53-1.87-.96-3.6-2.78-3.39-3.23Z" fill="#e4e3e1"/>
          <path d="M375.03,102.69c.33-.36,1.98,1.09,3.82,1.45,.14-1.05,.03-2.27-.34-3.43-.21-.67-.66-1.97-1.89-3.11-1.38-1.27-2.86-1.51-4.34-1.76-1.35-.22-1.8-.03-2.08,.16-.4,.29-.67,.78-.83,1.91-.16,1.15-.42,3.02,.42,4.84,1.17,2.53,4.13,4.17,7.44,4.07-1.47-1.49-2.54-3.77-2.21-4.14Z" fill="#e4e3e1"/>
          <path d="M382.34,95.06c.58-.15,1.3,2.47,2.96,4.08,.86-.99,1.57-2.32,1.98-3.77,.24-.84,.66-2.49,.16-4.48-.56-2.25-1.92-3.5-3.28-4.75-1.24-1.14-1.84-1.26-2.25-1.24-.61,.02-1.22,.35-2.15,1.41-.94,1.07-2.48,2.83-2.85,5.27-.51,3.41,1.43,7.11,4.9,9.25-.5-2.54-.06-5.61,.53-5.76Z" fill="#e4e3e1"/>
          <path d="M391.2,99.66c.36,.33-1.1,1.98-1.45,3.82,1.05,.14,2.27,.03,3.43-.34,.67-.21,1.98-.66,3.11-1.88,1.27-1.37,1.52-2.86,1.76-4.33,.22-1.35,.03-1.8-.16-2.08-.29-.4-.78-.67-1.91-.83-1.15-.16-3.02-.43-4.84,.41-2.53,1.17-4.18,4.12-4.09,7.43,1.5-1.47,3.77-2.54,4.14-2.2Z" fill="#e4e3e1"/>
          <path d="M197.77,178.88c-.49,.03-.65-2.16-1.73-3.7-.83,.65-1.6,1.61-2.15,2.7-.32,.63-.9,1.88-.82,3.54,.1,1.87,.99,3.08,1.88,4.28,.81,1.1,1.27,1.28,1.6,1.33,.49,.08,1.02-.09,1.93-.79,.92-.71,2.41-1.87,3.08-3.76,.93-2.63-.04-5.87-2.48-8.11,0,2.1-.81,4.47-1.31,4.5Z" fill="#e4e3e1"/>
          <path d="M187.21,179.23c-.52-.3,.79-2.67,.74-4.99-1.3,.11-2.74,.57-4.05,1.32-.76,.44-2.21,1.32-3.25,3.1-1.17,2-1.07,3.85-.97,5.69,.09,1.68,.44,2.18,.75,2.46,.45,.41,1.11,.6,2.52,.49,1.43-.11,3.75-.29,5.72-1.78,2.74-2.08,3.94-6.08,2.95-10.04-1.41,2.17-3.87,4.06-4.41,3.75Z" fill="#e4e3e1"/>
          <path d="M184.08,169.76c-.03-.49,2.16-.65,3.71-1.72-.65-.84-1.6-1.61-2.69-2.16-.63-.32-1.87-.91-3.54-.82-1.87,.09-3.08,.98-4.29,1.87-1.1,.81-1.28,1.27-1.34,1.6-.08,.49,.09,1.02,.79,1.93,.71,.92,1.86,2.41,3.75,3.08,2.63,.93,5.87-.03,8.11-2.46-2.1,0-4.47-.82-4.5-1.32Z" fill="#e4e3e1"/>
          <path d="M372.62,172.16c.27-.41,2.13,.76,4,.82-.03-1.06-.34-2.24-.89-3.33-.32-.63-.97-1.84-2.36-2.77-1.56-1.04-3.07-1.04-4.56-1.04-1.36,0-1.79,.26-2.02,.49-.35,.35-.54,.87-.51,2.02,.03,1.16,.07,3.05,1.19,4.71,1.56,2.31,4.74,3.46,7.99,2.84-1.69-1.24-3.11-3.31-2.84-3.73Z" fill="#e4e3e1"/>
          <path d="M378.61,163.47c.55-.24,1.67,2.23,3.57,3.56,.69-1.11,1.18-2.54,1.35-4.04,.1-.87,.25-2.56-.56-4.45-.91-2.13-2.45-3.15-3.99-4.17-1.4-.93-2.02-.95-2.42-.87-.6,.12-1.15,.54-1.9,1.73-.76,1.21-2,3.19-1.97,5.66,.04,3.44,2.54,6.79,6.31,8.35-.9-2.43-.96-5.53-.39-5.77Z" fill="#e4e3e1"/>
          <path d="M388.09,166.59c.41,.27-.77,2.13-.83,4,1.06-.03,2.25-.33,3.34-.88,.63-.32,1.85-.97,2.77-2.35,1.04-1.56,1.05-3.06,1.05-4.56,0-1.36-.25-1.79-.49-2.02-.35-.35-.87-.54-2.02-.52-1.16,.02-3.05,.06-4.71,1.18-2.31,1.56-3.47,4.74-2.85,7.99,1.24-1.69,3.32-3.1,3.74-2.83Z" fill="#e4e3e1"/>
          <g>
            <path d="M445.27,208.63c.46,.15-.17,2.25,.28,4.08,1.01-.31,2.07-.92,2.98-1.74,.52-.48,1.52-1.43,2.04-3.01,.58-1.78,.19-3.23-.21-4.67-.36-1.32-.72-1.65-1.01-1.82-.43-.25-.99-.29-2.08,.04-1.11,.33-2.92,.87-4.22,2.4-1.81,2.12-2.07,5.49-.61,8.46,.75-1.96,2.37-3.88,2.84-3.73Z" fill="#e4e3e1"/>
            <path d="M455.24,212.1c.38,.47-1.7,2.21-2.48,4.39,1.26,.37,2.76,.46,4.25,.23,.86-.14,2.53-.44,4.14-1.72,1.81-1.44,2.39-3.2,2.96-4.96,.52-1.6,.38-2.2,.19-2.56-.27-.54-.82-.96-2.18-1.37-1.37-.41-3.6-1.08-5.98-.4-3.31,.96-5.87,4.25-6.37,8.3,2.1-1.51,5.07-2.39,5.46-1.91Z" fill="#e4e3e1"/>
            <path d="M454.76,222.07c-.15,.46-2.25-.17-4.08,.27,.31,1.01,.92,2.08,1.74,2.98,.48,.52,1.42,1.52,3.01,2.04,1.78,.59,3.23,.19,4.67-.2,1.32-.36,1.65-.72,1.82-1.01,.25-.43,.29-.99-.04-2.08-.33-1.11-.87-2.92-2.39-4.23-2.12-1.82-5.49-2.09-8.46-.63,1.96,.75,3.87,2.37,3.72,2.85Z" fill="#e4e3e1"/>
          </g>
          <g>
            <path d="M189.45,339.47c-.57,.1-1.08-2.46-2.56-4.14-.89,.89-1.67,2.12-2.16,3.49-.29,.79-.8,2.35-.47,4.3,.38,2.2,1.6,3.5,2.82,4.8,1.11,1.18,1.68,1.34,2.08,1.35,.59,.02,1.2-.25,2.17-1.21,.98-.97,2.59-2.55,3.11-4.87,.72-3.24-.88-6.94-4.07-9.24,.31,2.48-.33,5.4-.91,5.51Z" fill="#e4e3e1"/>
            <path d="M177.02,341.38c-.66-.28,.56-3.27,.17-6-1.53,.31-3.16,1.06-4.6,2.13-.83,.62-2.42,1.87-3.4,4.12-1.1,2.53-.73,4.7-.35,6.86,.34,1.98,.83,2.52,1.23,2.8,.59,.42,1.4,.56,3.05,.23,1.67-.33,4.4-.87,6.51-2.91,2.95-2.85,3.8-7.75,2.08-12.29-1.37,2.76-4,5.34-4.68,5.05Z" fill="#e4e3e1"/>
            <path d="M171.98,330.62c-.1-.57,2.47-1.07,4.14-2.55-.89-.9-2.12-1.67-3.49-2.17-.79-.29-2.34-.81-4.3-.48-2.2,.37-3.51,1.6-4.81,2.81-1.19,1.11-1.34,1.68-1.35,2.08-.02,.59,.25,1.2,1.2,2.17,.97,.98,2.54,2.59,4.87,3.12,3.24,.73,6.94-.86,9.25-4.05-2.48,.3-5.4-.34-5.5-.92Z" fill="#e4e3e1"/>
          </g>
          <path d="M220.91,372.05c.45-.34,2.01,1.64,4.02,2.42,.39-1.16,.53-2.55,.37-3.94-.09-.81-.32-2.37-1.46-3.9-1.28-1.72-2.92-2.3-4.54-2.88-1.48-.53-2.05-.41-2.4-.24-.52,.24-.93,.74-1.37,1.99-.44,1.26-1.15,3.32-.59,5.54,.77,3.1,3.77,5.56,7.55,6.13-1.34-1.99-2.05-4.77-1.59-5.12Z" fill="#e4e3e1"/>
          <path d="M358.78,379.8c.46-.33,1.93,1.46,3.89,2.13,.42-1.09,.61-2.4,.49-3.69-.07-.75-.24-2.19-1.31-3.58-1.21-1.56-2.8-2.05-4.38-2.54-1.44-.44-2-.31-2.35-.15-.52,.24-.94,.72-1.41,1.89-.47,1.19-1.24,3.13-.76,5.18,.66,2.86,3.54,5.06,7.25,5.47-1.26-1.81-1.87-4.38-1.4-4.72Z" fill="#e4e3e1"/>
          <path d="M458.79,358.08c-.19,.53-2.42-.1-4.41,.48,.28,1.14,.88,2.31,1.71,3.3,.48,.57,1.45,1.66,3.13,2.18,1.89,.59,3.47,.08,5.04-.43,1.44-.46,1.82-.89,2.02-1.22,.29-.5,.36-1.13,.07-2.36-.3-1.24-.78-3.27-2.34-4.68-2.18-1.96-5.8-2.12-9.07-.34,2.07,.76,4.04,2.52,3.85,3.07Z" fill="#e4e3e1"/>
          <path d="M457.35,299.04c-.22,.25-1.36-.71-2.62-.92-.08,.72,.02,1.54,.29,2.33,.16,.46,.48,1.33,1.33,2.08,.96,.84,1.97,.99,2.98,1.13,.92,.13,1.23,0,1.41-.14,.27-.2,.44-.54,.53-1.31,.09-.78,.24-2.06-.36-3.28-.84-1.7-2.87-2.77-5.12-2.66,1.02,.99,1.79,2.52,1.56,2.78Z" fill="#e4e3e1"/>
          <path d="M452.5,304.34c-.39,.11-.92-1.66-2.07-2.73-.57,.69-1.03,1.6-1.29,2.6-.15,.58-.41,1.7-.04,3.05,.41,1.52,1.36,2.35,2.3,3.18,.86,.76,1.27,.83,1.55,.81,.41-.03,.82-.25,1.44-.99,.63-.75,1.65-1.96,1.86-3.63,.29-2.32-1.08-4.81-3.48-6.21,.38,1.72,.13,3.81-.27,3.93Z" fill="#e4e3e1"/>
          <path d="M446.4,301.36c-.25-.22,.71-1.36,.93-2.62-.72-.08-1.54,.01-2.33,.28-.46,.16-1.33,.48-2.09,1.33-.85,.95-.99,1.97-1.13,2.97-.13,.92,0,1.23,.14,1.41,.2,.27,.54,.44,1.31,.54,.78,.09,2.06,.24,3.28-.36,1.7-.83,2.78-2.87,2.67-5.12-1,1.02-2.53,1.78-2.78,1.56Z" fill="#e4e3e1"/>
        </g>
      </g>
      <g id="roll">
        <g>
          <g>
            <rect x="534.17" y="6.98" width="50.5" height="32.12" fill="#848383"/>
            <rect x="534.17" y="11.97" width="50.83" height="27.12" fill="#676766" opacity=".4"/>
            <path d="M579.89,45.98c-1.32,.42-2.72,.64-4.17,.64-8.39,0-15.19-7.5-15.19-16.74v-13.14C560.53,7.5,567.32,0,575.72,0,577.16,0,578.56,.22,579.89,.64c-6.37,1.99-11.02,8.45-11.02,16.1v13.14c0,7.65,4.65,14.1,11.02,16.1Z" fill="#717070"/>
            <path d="M590.9,16.74v13.14c0,7.65-4.65,14.1-11.02,16.1-6.37-1.99-11.02-8.45-11.02-16.1v-13.14c0-7.65,4.65-14.1,11.02-16.1,2.52,.79,4.77,2.27,6.57,4.26,2.75,3.03,4.45,7.22,4.45,11.84Z" fill="#848383"/>
            <ellipse cx="581.57" cy="22.87" rx="6.85" ry="15.02" fill="#969696"/>
          </g>
          <g>
            <rect x="6.23" y="6.98" width="50.5" height="32.12" transform="translate(62.96 46.07) rotate(-180)" fill="#848383"/>
            <rect x="5.91" y="11.97" width="50.83" height="27.12" transform="translate(62.64 51.07) rotate(-180)" fill="#676766" opacity=".4"/>
            <path d="M11.02,45.98c1.32,.42,2.72,.64,4.17,.64,8.39,0,15.19-7.5,15.19-16.74v-13.14C30.37,7.5,23.58,0,15.19,0c-1.45,0-2.85,.22-4.17,.64,6.37,1.99,11.02,8.45,11.02,16.1v13.14c0,7.65-4.65,14.1-11.02,16.1Z" fill="#717070"/>
            <path d="M0,16.74v13.14c0,7.65,4.65,14.1,11.02,16.1,6.37-1.99,11.02-8.45,11.02-16.1v-13.14c0-7.65-4.65-14.1-11.02-16.1-2.52,.79-4.77,2.27-6.57,4.26C1.7,7.93,0,12.12,0,16.74Z" fill="#848383"/>
            <ellipse cx="9.33" cy="22.87" rx="6.85" ry="15.02" fill="#969696"/>
          </g>
          <path d="M292.45,42.07H48.31c-6.49,0-11.75-5.26-11.75-11.74v-14.03c0-6.49,5.26-11.75,11.75-11.75h244.58c-6.08,.43-10.88,5.49-10.88,11.7v14.17c0,6.04,4.57,11.02,10.44,11.65Z" fill="#064f49"/>
          <path d="M553.5,16.3v14.03c0,5.36-3.6,9.89-8.51,11.29-1.02,.29-2.11,.45-3.23,.45h-249.31c-.11-.01-.2-.02-.31-.04-.65-.09-1.28-.23-1.88-.41-4.77-1.49-8.24-5.93-8.24-11.2v-14.17c0-6.2,4.79-11.26,10.88-11.7h248.87c6.48,0,11.74,5.26,11.74,11.75Z" fill="#064f49"/>
        </g>
      </g>
      <g id="lights">
        <g>
          <polygon points="544.46 103.61 544.46 147.15 398.89 195.95 307.23 226.69 301.53 228.6 296.9 230.15 295.31 230.68 292.77 231.54 142.69 281.85 46.06 314.26 46.06 270.73 236.43 206.89 248.23 202.94 256.91 200.03 292.26 188.18 292.27 188.18 295.31 187.15 305.04 183.89 305.05 183.89 323.73 177.62 345.29 170.4 348.97 169.16 544.46 103.61" fill="#fff" mix-blend-mode="soft-light"/>
          <polygon points="544.46 174.48 544.46 218 450.99 249.35 450.98 249.35 439.11 253.33 434.99 254.71 433.78 255.11 433.77 255.11 356.64 280.98 336.1 287.87 295.31 301.55 151.59 349.74 46.06 385.12 46.06 341.59 143.21 309.01 295.31 258.02 318.71 250.17 328.38 246.92 431.73 212.28 544.46 174.48" fill="#fff" mix-blend-mode="soft-light"/>
          <polygon points="544.46 336.01 544.46 432.47 443.81 466.22 415.95 475.57 410.5 477.39 410.49 477.39 407.19 478.5 403.62 479.71 368.4 491.51 368.39 491.51 364.92 492.67 295.31 516.02 137.66 568.88 48.63 598.73 46.06 597.18 46.06 503.12 130.62 474.78 130.63 474.77 153.02 467.26 155.63 466.39 295.31 419.55 457.35 365.22 544.46 336.01" fill="#fff" mix-blend-mode="soft-light"/>
          <rect x="47.85" y="8.4" width="214.56" height="3.89" fill="#fff" mix-blend-mode="soft-light"/>
          <rect x="370.79" y="9.51" width="165.09" height="2.22" fill="#fff" mix-blend-mode="soft-light"/>
          <path d="M544.84,43.28v12.64H46.18v-12.68h496.49c.22,.02,.41,.03,.63,.04h1.54Z" fill="#053f39"/>
        </g>
      </g>
    </g>
  </g>
</svg>