<?xml version="1.0" encoding="UTF-8"?>
<svg xmlns="http://www.w3.org/2000/svg" viewBox="0 0 595.28 841.89">
  <g style="isolation: isolate;">
    <g id="bg">
      <g>
        <path d="M298.05,51.25v.04h-2.8c-.11-.01-.2-.02-.31-.04h3.11Z" style="fill: #005085;"/>
        <polygon points="298.05 63.08 298.05 755.1 51.37 606.71 48.8 605.16 48.8 63.08 298.05 63.08" style="fill: #005085;"/>
        <polygon points="547.2 63.08 547.2 605.71 298.05 755.75 298.05 63.08 547.2 63.08" style="fill: #feec39;"/>
      </g>
      <rect x="298.05" y="51.41" width="249.15" height="11.66" style="fill: #f9e12a;"/>
      <path d="M298.05,51.29v11.78H48.8v-11.82h246.14c.11,.02,.2,.03,.31,.04h2.8Z" style="fill: #034d77;"/>
    </g>
    <g id="roll">
      <g>
        <rect x="8.78" y="16.98" width="50.5" height="32.12" transform="translate(68.06 66.07) rotate(-180)" style="fill: #848383;"/>
        <rect x="8.46" y="21.97" width="50.83" height="27.12" transform="translate(67.74 71.07) rotate(-180)" style="fill: #676766; opacity: .4;"/>
        <path d="M13.57,55.98c1.32,.42,2.72,.64,4.17,.64,8.39,0,15.19-7.5,15.19-16.74v-13.14c0-9.24-6.79-16.74-15.19-16.74-1.45,0-2.85,.22-4.17,.64,6.37,1.99,11.02,8.45,11.02,16.1v13.14c0,7.65-4.65,14.1-11.02,16.1Z" style="fill: #717070;"/>
        <path d="M2.55,26.74v13.14c0,7.65,4.65,14.1,11.02,16.1,6.37-1.99,11.02-8.45,11.02-16.1v-13.14c0-7.65-4.65-14.1-11.02-16.1-2.52,.79-4.77,2.27-6.57,4.26-2.75,3.03-4.45,7.22-4.45,11.84Z" style="fill: #848383;"/>
        <ellipse cx="11.88" cy="32.87" rx="6.85" ry="15.02" style="fill: #969696;"/>
      </g>
      <g>
        <rect x="536.72" y="16.98" width="50.5" height="32.12" style="fill: #848383;"/>
        <rect x="536.72" y="21.97" width="50.83" height="27.12" style="fill: #676766; opacity: .4;"/>
        <path d="M582.43,55.98c-1.32,.42-2.72,.64-4.17,.64-8.39,0-15.19-7.5-15.19-16.74v-13.14c0-9.24,6.79-16.74,15.19-16.74,1.45,0,2.85,.22,4.17,.64-6.37,1.99-11.02,8.45-11.02,16.1v13.14c0,7.65,4.65,14.1,11.02,16.1Z" style="fill: #717070;"/>
        <path d="M593.45,26.74v13.14c0,7.65-4.65,14.1-11.02,16.1-6.37-1.99-11.02-8.45-11.02-16.1v-13.14c0-7.65,4.65-14.1,11.02-16.1,2.52,.79,4.77,2.27,6.57,4.26,2.75,3.03,4.45,7.22,4.45,11.84Z" style="fill: #848383;"/>
        <ellipse cx="584.12" cy="32.87" rx="6.85" ry="15.02" style="fill: #969696;"/>
      </g>
      <path d="M295,50.52H50.86c-6.49,0-11.75-5.26-11.75-11.74v-14.03c0-6.49,5.26-11.75,11.75-11.75h244.58c-6.08,.43-10.88,5.49-10.88,11.7v14.17c0,6.04,4.57,11.02,10.44,11.65Z" style="fill: #005085;"/>
      <path d="M556.05,24.75v14.03c0,5.36-3.6,9.89-8.51,11.29-1.02,.29-2.11,.45-3.23,.45h-249.31c-.11-.01-.2-.02-.31-.04-.65-.09-1.28-.23-1.88-.41-4.77-1.49-8.24-5.93-8.24-11.2v-14.17c0-6.2,4.79-11.26,10.88-11.7h248.87c6.48,0,11.74,5.26,11.74,11.75Z" style="fill: #feec39;"/>
    </g>
    <g id="lion">
      <g>
        <path d="M477.18,440.23c-5.76-5.96-10.07-11.79-13.23-16.71,0,0-.44,15.35,5.79,22.65,6.23,7.29,23.57,7.76,23.57,7.76-4.79-3.31-10.42-7.79-16.13-13.7Z" style="fill: #020202;"/>
        <path d="M424.98,261.56s12.58,5.85,25.21,17.76c12.63,11.92,45.1,11.25,45.1,11.25,0,0-27.26-7.47-41.14-23.24-13.88-15.77-29.17-5.77-29.17-5.77Z" style="fill: #020202;"/>
        <path d="M257.82,230.8c.48,2.2,1.65,5.37,4.71,8.76,1.9-4.45,5.8-11.93,13.38-18.79,5.9-5.34,11.85-8.32,15.93-9.97,6.45-3.59,10.57-9.44,9.8-14.45-1.51-9.88-21.27-11.84-21.98-10.3-.36,.79,4.36,2.48,4.51,5.86,.13,2.99-3.26,5.69-6.99,7.79-13.97,8.1-21.67,20.64-19.37,31.1Z" style="fill: #020202;"/>
        <path d="M250.5,239.4c1.38-.9-2.57-5.68-1.51-13.4,1.39-10.1,10.08-16.05,8.99-17.26-.97-1.08-6.5,5.2-15.3,6.01-8.34,.77-13.07-3.97-14.43-2.41-3.05,3.5,19.03,29.16,22.25,27.06Z" style="fill: #020202;"/>
        <path d="M416.54,566.79c-.17-.44-.33-.88-.48-1.32,1.08-2.26,1.93-4.62,2.5-7.09,3.01-13.22,.13-32.37-5.71-43.29-6.91-12.93-13.9-18.23-17.91-22.85l-7.83-8.42c-.72,4.34-1.96,10.37-4.24,17.36-3.11,9.51-6.59,16.09-11.5,25.34-4.28,8.06-6.71,12.6-11.09,18.35-4.14,5.44-8.17,9.53-11.16,12.32,1.59,1.29,10.69,8.91,11.42,21.65,.08,1.37,.54,12.16-6.61,20.14-2.54,2.84-5.13,4.29-6.6,5.04,2.25-13.73,2.46-25.84,1.97-35.43,0,0,0,0,0,0,.23-3.39,.29-6.65,.21-9.75-4.71,5.13-11.98,12.59-21.65,20.74-17.96,15.15-21.33,13.41-27.06,21.65-10.49,15.07-3.08,26.47-13.53,44.19-5.66,9.6-13.3,15.52-18.35,18.81,7.51-2.8,39.84-15.47,61.23-44.2,.77,2.4,2.76,4.46,4.52,9.76,1.56,4.69,1.89,8.8,1.94,11.43,3.46-8.24,6.95-18.42,9.43-30.33,.43-2.07,.81-4.12,1.15-6.12,6.2-.44,37.19-7.62,56.49-23.96,6.07,3.31,15.15,6.31,28.81,8.38-4.93-4.43-11.89-11.85-15.97-22.39Z" style="fill: #020202;"/>
        <path d="M431.16,513.26c-10.71-2.42-18.02-7.76-21.65-10.82,3.52,4.97,9.24,14.11,11.83,25.16,1.34,5.7,1.8,11.74,1.87,12.69,.23,3.08,.5,6.76,.1,11.33-.81,9.32-3.65,13.62-2.39,14.56,1.01,.74,4.39-.81,15.47-12.16,2.94-3.53,6.59-8.73,9.44-15.64,4.14-10.04,4.66-19.05,4.54-24.52-4.3,.69-11.16,1.23-19.24-.6Z" style="fill: #020202;"/>
        <path d="M285.38,630.23c3.17-8.38,3.7-15.93,3.61-21.04-12.43,7.62-24.85,15.23-37.28,22.85,.67,.13,9.14,1.93,12.63,10.22,3.33,7.93-.78,14.94-1.2,15.63,4.85-3.25,16.3-11.9,22.25-27.66Z" style="fill: #020202;"/>
        <path d="M468.72,454.29c-9.86-15-7.18-28.45-10.98-41.5,7.1,1.49,18.11,.8,35.57-5.09-6.41-1.69-15.99-5.09-24.44-12.6-14.53-12.91-14.39-27.91-23.28-40.08,4.86,1.32,8.7,3.55,11.45,7.64,5.36,7.98,2.77,17.33,3.79,17.37,2.28,.1,15.15-32.01,5.17-64.21,6.78,1.17,17.05-.58,32.53-12.02-6.02,.16-15.4-.32-25.65-4.31-18.4-7.16-24.64-19.8-38.45-27.29l-.02-.02c-5.15-4.08-9.04-6.45-9.89-6.96-.11-.07-.2-.12-.23-.14-5.89-3.49-17.92-9.15-32.86-11.76,.37-.45,9.23,.84,18.19,3.69,3.06,.97,5.89,2.05,8.47,3.17,15.87-10.53,21.76-27.72,23.62-34.2-7.75,4.63-20.36,10.9-36.68,13.22-18.6,2.65-32.42-1.19-46.07-4.27,.62-.12,1.27-.19,1.93-.17,1,.02,.98,.19,5.14,1.12,4.87,1.08,8.27,1.83,11.39,2.01,0,0,5,.28,11.37-1.82,8.77-2.88,20.97-21.83,25.75-49.89-6.19,6.58-16.58,16.08-31.63,22.8-10.6,4.73-20.12,6.58-29.14,7.49,2.7-6.24,3.57-16.3-2.02-33.17-1.42,6.36-4.49,15.52-12.06,23.04-6.33,6.3-10.22,5.89-21.2,13.49-.35,.08-.71,.16-1.06,.25,1.93-1.22,3.76-2.74,5.38-4.86,4.26-5.58,7.59-16.03,.48-37.46-1.73,5.77-5.1,14.55-12.06,23.05-14.65,17.87-31.29,17.56-43.5,34.46-1.39,1.94-2.9,4.33-4.32,7.26l-42.23,3.7-19.36,23.48-47.92,10.57-2.54,5.86-3.19-4.59-23.79,5.25,10.43,11.21s10.42,2.31,2.98,12.53c-7.44,10.22-2.98,12.1-2.98,12.1l13.45,24.74c.41-3.74-.26-8.8,2.9-13.04,5.36-7.2,20.59-10.26,27.64-2.87,6.29,6.58,4.39,19.72-2.06,25.77-7.85,7.36-21.45,3.33-28.99,4.31-1.06,5.67-.48,13.47,6.42,21.61,13.4,15.83,58.07,0,58.07,0l17.87-8.38,14.73,7.65c-3.85,6.14-8.31,12.37-15.83,18.19-8.7,6.72-17.57,9.83-23.38,11.39,6.94,2.54,12.75,3.91,17.6,4.47,7.86-2.47,12.43-8.81,12.56-8.59,.15,.24-4.76,7.75-12.62,9.84-13.91,6.98-23.92,14.89-30.41,20.81-6.73,6.13-14.1,12.98-19.76,24.45-2.41,4.9-3.83,9.27-4.69,12.39,4.03-1.03,9.01-1.97,14.74-2.34,5.36-.35,10.12-.1,14.06,.34-7.61-.02-24.56,1.09-39.85,12.73-4.63,3.52-8.19,7.3-10.91,10.77,1.52-.27,3.18-.46,4.93-.52,5.87-.21,10.44,1.19,10.42,1.39-.03,.2-4.37-.79-10.69-.49-.08,0-.16-.03-.24-.03,0,.02,0,.03,0,.04-1.14,.06-2.35,.16-3.62,.32-6.15,.77-10.79,2.2-12.6,3.08-20.13,9.73-22.58,36.42-22.68,37.81,2.71-2.51,6.39-5.55,10.99-8.27-.1-.16,5.35-4.41,13.17-6.26,5.72-1.34,10.48-.87,10.5-.67,0,.23-6.33,.03-14.29,2.67-.63,.21-1.24,.42-1.81,.64-1.74,5.67-3,11.6-3.77,17.65-2.13,5.75-4.93,11.66-9.85,17.77-6.89,8.57-14.77,13.67-20.07,16.55,15.14,1.71,24.41-.19,30.24-3.25,1.83,12.05,5.68,23.63,11.65,33.64,3.18,5.34,6.91,10.12,10.79,14.32,0,0,0,0,0,0,1.11,.98,3.43,3.49,5.97,5.88,10.45,9.83,23.3,16.3,24.62,14.68,1.21-1.48-9.5-7.05-11.61-18.31-2.26-12.03,6.25-25.52,16.64-31.93,8.69-5.36,18.01-5.36,18.08-5.03,0,.31-9.73,.87-18.76,7.37-1.24,.89-15.4,11.32-15.07,25.12,.35,14.04,15.45,21.73,13.4,24.57-1.95,2.68-16.8-2.43-26.8-12.95-.45-.47-.89-.95-1.32-1.45,13.08,24.08,26.05,33.12,32.78,36.85,2.37,1.32,22.78,12.65,25.56,9.02,1.44-1.89-3.5-6.2-4.21-9.61-1.6-7.72,2.89-14.67,11.4-21.77-2.29-6.17-.2-12.82,.1-12.81,.31,0-1.33,6.58,1.45,12.69,4.66,5.61,14.8,11.48,37.11,14.86-1.32-.42-12.27-4.07-15.11-13.92-2.25-7.81,1.96-14.74,5.39-19.72,32.59-18.9,77.77-42.9,108.37-83.95,12.37-16.6,20.89-34,26.57-51.3,0-.02,.01-.03,.02-.05v.03s0-.02,0-.04c.04-.1,.08-.18,.1-.28,.95-2.86,1.81-5.73,2.6-8.59,3.25-11.77,5.28-23.41,6.39-34.61h.73s0,0,0,0h-.73c-1.11,11.21-3.13,22.84-6.39,34.61,.03,.05,.08,.09,.12,.14,0,0,0,0,0,0h0s-2.72,8.45-2.72,8.45c.93-2.68,1.84-5.5,2.72-8.45,3.37,3.75,7.19,7.38,11.5,10.63,30.78,23.25,71.79,16.56,72.22,14.1,.17-1.01-9.52-.47-16.17-7.41-7.22-7.51-5.24-17.97-3.05-32.84,6.15,3.92,17.23,6.8,37.75,5.5-5.76-3.29-14.13-9.07-20.34-18.5Zm-232.1-185.48c-6.19,.35-12.37,.69-18.56,1.03l11.34-13.4h19.59c-4.12,4.13-8.25,8.25-12.36,12.37Zm60.11-19.14c-.29-3.37-3.9-5.81-8.07-5.46-2.52,.21-4.66,1.39-5.91,3.04,1.19-2.7,4.23-4.78,7.94-5.09,5.02-.42,9.36,2.51,9.7,6.56,.35,4.05-3.44,7.68-8.45,8.11-1.49,.12-2.92-.05-4.19-.45,.62,.08,1.27,.09,1.94,.03,4.18-.35,7.33-3.37,7.04-6.74Zm.28,9.99c-2.34,.2-4.59-.07-6.6-.71,.99,.12,2.01,.15,3.06,.06,6.58-.56,11.56-5.32,11.11-10.64-.45-5.31-6.16-9.17-12.75-8.61-3.97,.34-7.35,2.2-9.31,4.79,1.87-4.26,6.66-7.53,12.53-8.02,7.91-.67,14.76,3.96,15.31,10.35,.54,6.39-5.43,12.11-13.35,12.78Z" style="fill: #020202;"/>
      </g>
    </g>
    <g id="crown">
      <g>
        <g>
          <g>
            <rect x="234.64" y="155.75" width="63.94" height="6.05" style="fill: #1d1d1b;"/>
            <path d="M251.23,157.27c-5.12,.83-10.23,1.66-15.35,2.49l-7.49-46.16c7.61,14.56,15.23,29.11,22.84,43.67Z" style="fill: #1d1d1b;"/>
            <path d="M269.41,157.89c-5.56,.64-11.12,1.27-16.68,1.91l-6.51-56.84c7.73,18.31,15.46,36.62,23.18,54.93Z" style="fill: #1d1d1b;"/>
            <path d="M298.59,160.02c-6.23-.71-12.46-1.42-18.7-2.13l9.27-81.54c3.14,27.89,6.28,55.78,9.42,83.67Z" style="fill: #1d1d1b;"/>
            <path d="M284.78,158.5c-5.48,.31-10.97,.62-16.45,.93l-3.89-68.7c6.78,22.59,13.56,45.18,20.34,67.77Z" style="fill: #1d1d1b;"/>
          </g>
          <g>
            <rect x="296.69" y="155.75" width="63.94" height="6.05" transform="translate(657.32 317.54) rotate(-180)" style="fill: #1d1d1b;"/>
            <path d="M344.04,157.27c5.12,.83,10.23,1.66,15.35,2.49l7.49-46.16c-7.61,14.56-15.23,29.11-22.84,43.67Z" style="fill: #1d1d1b;"/>
            <path d="M325.86,157.89c5.56,.64,11.12,1.27,16.68,1.91l6.51-56.84c-7.73,18.31-15.46,36.62-23.18,54.93Z" style="fill: #1d1d1b;"/>
            <path d="M296.69,160.02c6.23-.71,12.46-1.42,18.7-2.13l-9.27-81.54c-3.14,27.89-6.28,55.78-9.42,83.67Z" style="fill: #1d1d1b;"/>
            <path d="M310.5,158.5c5.48,.31,10.97,.62,16.45,.93l3.89-68.7c-6.78,22.59-13.56,45.18-20.34,67.77Z" style="fill: #1d1d1b;"/>
          </g>
          <g>
            <path d="M293.74,90.83v-10.1h2.95c-.49,1.68-.98,3.37-1.48,5.05-.49,1.68-.98,3.37-1.48,5.05Z" style="fill: #1d1d1b;"/>
            <path d="M296.69,70.61v10.1h-2.95c.49-1.68,.98-3.37,1.48-5.05,.49-1.68,.98-3.37,1.48-5.05Z" style="fill: #1d1d1b;"/>
            <path d="M299.64,90.84v-10.1s-2.95,0-2.95,0c.49,1.68,.98,3.37,1.48,5.05,.49,1.68,.98,3.37,1.48,5.05Z" style="fill: #1d1d1b;"/>
            <path d="M296.69,70.62v10.1s2.95,0,2.95,0c-.49-1.68-.98-3.37-1.48-5.05-.49-1.68-.98-3.37-1.48-5.05Z" style="fill: #1d1d1b;"/>
            <path d="M299.64,80.53v10.1h-2.95c.49-1.68,.98-3.37,1.48-5.05,.49-1.68,.98-3.37,1.48-5.05Z" style="fill: #1d1d1b;"/>
            <path d="M296.69,100.75v-10.1h2.95c-.49,1.68-.98,3.37-1.48,5.05-.49,1.68-.98,3.37-1.48,5.05Z" style="fill: #1d1d1b;"/>
            <path d="M293.74,80.53v10.1s2.95,0,2.95,0c-.49-1.68-.98-3.37-1.48-5.05-.49-1.68-.98-3.37-1.48-5.05Z" style="fill: #1d1d1b;"/>
            <path d="M296.69,100.75v-10.1s-2.95,0-2.95,0c.49,1.68,.98,3.37,1.48,5.05,.49,1.68,.98,3.37,1.48,5.05Z" style="fill: #1d1d1b;"/>
            <rect x="295" y="80.53" width="3.47" height="10.82" style="fill: #1d1d1b;"/>
          </g>
          <g>
            <path d="M314.57,100.63l.39-10.1,2.95,.11c-.56,1.66-1.11,3.33-1.67,4.99-.56,1.66-1.11,3.33-1.67,4.99Z" style="fill: #1d1d1b;"/>
            <path d="M318.3,80.54l-.39,10.1-2.95-.11c.56-1.66,1.11-3.33,1.67-4.99,.56-1.66,1.11-3.33,1.67-4.99Z" style="fill: #1d1d1b;"/>
            <path d="M320.47,100.87l.39-10.1-2.95-.11c.43,1.7,.85,3.4,1.28,5.11,.43,1.7,.85,3.4,1.28,5.11Z" style="fill: #1d1d1b;"/>
            <path d="M318.3,80.55l-.39,10.1,2.95,.11c-.43-1.7-.85-3.4-1.28-5.11-.43-1.7-.85-3.4-1.28-5.11Z" style="fill: #1d1d1b;"/>
            <path d="M320.87,90.57l-.39,10.1-2.95-.11c.56-1.66,1.11-3.33,1.67-4.99,.56-1.66,1.11-3.33,1.67-4.99Z" style="fill: #1d1d1b;"/>
            <path d="M317.13,110.66l.39-10.1,2.95,.11c-.56,1.66-1.11,3.33-1.67,4.99-.56,1.66-1.11,3.33-1.67,4.99Z" style="fill: #1d1d1b;"/>
            <path d="M314.97,90.33l-.39,10.1,2.95,.11c-.43-1.7-.85-3.4-1.28-5.11-.43-1.7-.85-3.4-1.28-5.11Z" style="fill: #1d1d1b;"/>
            <path d="M317.13,110.65l.39-10.1-2.95-.11c.43,1.7,.85,3.4,1.28,5.11,.43,1.7,.85,3.4,1.28,5.11Z" style="fill: #1d1d1b;"/>
            <rect x="316.01" y="90.45" width="3.47" height="10.82" transform="translate(3.97 -12.3) rotate(2.23)" style="fill: #1d1d1b;"/>
          </g>
          <g>
            <path d="M275.01,100.86l-.77-10.07,2.94-.23c-.36,1.72-.72,3.43-1.08,5.15-.36,1.72-.72,3.43-1.08,5.15Z" style="fill: #1d1d1b;"/>
            <path d="M276.41,80.47l.77,10.07-2.94,.23c.36-1.72,.72-3.43,1.08-5.15,.36-1.72,.72-3.43,1.08-5.15Z" style="fill: #1d1d1b;"/>
            <path d="M280.89,100.41l-.77-10.07-2.94,.23c.62,1.64,1.24,3.28,1.86,4.92,.62,1.64,1.24,3.28,1.86,4.92Z" style="fill: #1d1d1b;"/>
            <path d="M276.41,80.48l.77,10.07,2.94-.23c-.62-1.64-1.24-3.28-1.86-4.92-.62-1.64-1.24-3.28-1.86-4.92Z" style="fill: #1d1d1b;"/>
            <path d="M280.11,90.14l.77,10.07-2.94,.23c.36-1.72,.72-3.43,1.08-5.15,.36-1.72,.72-3.43,1.08-5.15Z" style="fill: #1d1d1b;"/>
            <path d="M278.71,110.52l-.77-10.07,2.94-.23-1.08,5.15c-.36,1.72-.72,3.43-1.08,5.15Z" style="fill: #1d1d1b;"/>
            <path d="M274.22,90.58l.77,10.07,2.94-.23c-.62-1.64-1.24-3.28-1.86-4.92-.62-1.64-1.24-3.28-1.86-4.92Z" style="fill: #1d1d1b;"/>
            <path d="M278.71,110.52l-.77-10.07-2.94,.23c.62,1.64,1.24,3.28,1.86,4.92,.62,1.64,1.24,3.28,1.86,4.92Z" style="fill: #1d1d1b;"/>
            <rect x="275.88" y="90.34" width="3.47" height="10.82" transform="translate(-6.51 21.5) rotate(-4.38)" style="fill: #1d1d1b;"/>
          </g>
          <g>
            <path d="M333.49,113.7l3.13-9.61,2.81,.91c-.99,1.45-1.98,2.9-2.97,4.35-.99,1.45-1.98,2.9-2.97,4.35Z" style="fill: #1d1d1b;"/>
            <path d="M342.56,95.39l-3.13,9.61-2.81-.91,2.97-4.35c.99-1.45,1.98-2.9,2.97-4.35Z" style="fill: #1d1d1b;"/>
            <path d="M339.1,115.54l3.13-9.61-2.81-.91c-.05,1.75-.11,3.51-.16,5.26-.05,1.75-.11,3.51-.16,5.26Z" style="fill: #1d1d1b;"/>
            <path d="M342.55,95.4l-3.13,9.61,2.81,.91,.16-5.26c.05-1.75,.11-3.51,.16-5.26Z" style="fill: #1d1d1b;"/>
            <path d="M342.29,105.74l-3.13,9.61-2.81-.91c.99-1.45,1.98-2.9,2.97-4.35,.99-1.45,1.98-2.9,2.97-4.35Z" style="fill: #1d1d1b;"/>
            <path d="M333.22,124.05l3.13-9.61,2.81,.91-2.97,4.35c-.99,1.45-1.98,2.9-2.97,4.35Z" style="fill: #1d1d1b;"/>
            <path d="M336.68,103.91l-3.13,9.61,2.81,.91c.05-1.75,.11-3.51,.16-5.26,.05-1.75,.11-3.51,.16-5.26Z" style="fill: #1d1d1b;"/>
            <path d="M333.22,124.04l3.13-9.61-2.81-.91c-.05,1.75-.11,3.51-.16,5.26-.05,1.75-.11,3.51-.16,5.26Z" style="fill: #1d1d1b;"/>
            <rect x="336.11" y="104.57" width="3.47" height="10.82" transform="translate(50.69 -99.25) rotate(18.05)" style="fill: #1d1d1b;"/>
          </g>
          <g>
            <path d="M350.41,129.64l3.13-9.61,2.81,.91c-.99,1.45-1.98,2.9-2.97,4.35-.99,1.45-1.98,2.9-2.97,4.35Z" style="fill: #1d1d1b;"/>
            <path d="M359.48,111.33l-3.13,9.61-2.81-.91c.99-1.45,1.98-2.9,2.97-4.35,.99-1.45,1.98-2.9,2.97-4.35Z" style="fill: #1d1d1b;"/>
            <path d="M356.02,131.48l3.13-9.61-2.81-.91c-.05,1.75-.11,3.51-.16,5.26-.05,1.75-.11,3.51-.16,5.26Z" style="fill: #1d1d1b;"/>
            <path d="M359.48,111.34l-3.13,9.61,2.81,.91c.05-1.75,.11-3.51,.16-5.26,.05-1.75,.11-3.51,.16-5.26Z" style="fill: #1d1d1b;"/>
            <path d="M359.21,121.68l-3.13,9.61-2.81-.91c.99-1.45,1.98-2.9,2.97-4.35,.99-1.45,1.98-2.9,2.97-4.35Z" style="fill: #1d1d1b;"/>
            <path d="M350.14,139.99l3.13-9.61,2.81,.91c-.99,1.45-1.98,2.9-2.97,4.35-.99,1.45-1.98,2.9-2.97,4.35Z" style="fill: #1d1d1b;"/>
            <path d="M353.6,119.85l-3.13,9.61,2.81,.91c.05-1.75,.11-3.51,.16-5.26,.05-1.75,.11-3.51,.16-5.26Z" style="fill: #1d1d1b;"/>
            <path d="M350.14,139.99l3.13-9.61-2.81-.91c-.05,1.75-.11,3.51-.16,5.26-.05,1.75-.11,3.51-.16,5.26Z" style="fill: #1d1d1b;"/>
            <rect x="353.03" y="120.51" width="3.47" height="10.82" transform="translate(56.46 -103.7) rotate(18.05)" style="fill: #1d1d1b;"/>
          </g>
          <g>
            <path d="M261.83,110.46l-3.13-9.61-2.81,.91c.99,1.45,1.98,2.9,2.97,4.35,.99,1.45,1.98,2.9,2.97,4.35Z" style="fill: #1d1d1b;"/>
            <path d="M252.76,92.14l3.13,9.61,2.81-.91-2.97-4.35c-.99-1.45-1.98-2.9-2.97-4.35Z" style="fill: #1d1d1b;"/>
            <path d="M256.22,112.29l-3.13-9.61,2.81-.91c.05,1.75,.11,3.51,.16,5.26,.05,1.75,.11,3.51,.16,5.26Z" style="fill: #1d1d1b;"/>
            <path d="M252.76,92.15l3.13,9.61-2.81,.91c-.05-1.75-.11-3.51-.16-5.26-.05-1.75-.11-3.51-.16-5.26Z" style="fill: #1d1d1b;"/>
            <path d="M253.03,102.49l3.13,9.61,2.81-.91c-.99-1.45-1.98-2.9-2.97-4.35-.99-1.45-1.98-2.9-2.97-4.35Z" style="fill: #1d1d1b;"/>
            <path d="M262.1,120.8l-3.13-9.61-2.81,.91,2.97,4.35c.99,1.45,1.98,2.9,2.97,4.35Z" style="fill: #1d1d1b;"/>
            <path d="M258.64,100.66l3.13,9.61-2.81,.91c-.05-1.75-.11-3.51-.16-5.26-.05-1.75-.11-3.51-.16-5.26Z" style="fill: #1d1d1b;"/>
            <path d="M262.1,120.8l-3.13-9.61,2.81-.91,.16,5.26c.05,1.75,.11,3.51,.16,5.26Z" style="fill: #1d1d1b;"/>
            <rect x="255.74" y="101.32" width="3.47" height="10.82" transform="translate(535.34 128.46) rotate(161.95)" style="fill: #1d1d1b;"/>
          </g>
          <g>
            <path d="M244.91,126.4l-3.13-9.61-2.81,.91c.99,1.45,1.98,2.9,2.97,4.35,.99,1.45,1.98,2.9,2.97,4.35Z" style="fill: #1d1d1b;"/>
            <path d="M235.84,108.09l3.13,9.61,2.81-.91-2.97-4.35c-.99-1.45-1.98-2.9-2.97-4.35Z" style="fill: #1d1d1b;"/>
            <path d="M239.3,128.23l-3.13-9.61,2.81-.91c.05,1.75,.11,3.51,.16,5.26,.05,1.75,.11,3.51,.16,5.26Z" style="fill: #1d1d1b;"/>
            <path d="M235.84,108.09l3.13,9.61-2.81,.91-.16-5.26c-.05-1.75-.11-3.51-.16-5.26Z" style="fill: #1d1d1b;"/>
            <path d="M236.11,118.43l3.13,9.61,2.81-.91c-.99-1.45-1.98-2.9-2.97-4.35-.99-1.45-1.98-2.9-2.97-4.35Z" style="fill: #1d1d1b;"/>
            <path d="M245.17,136.74l-3.13-9.61-2.81,.91,2.97,4.35c.99,1.45,1.98,2.9,2.97,4.35Z" style="fill: #1d1d1b;"/>
            <path d="M241.71,116.6l3.13,9.61-2.81,.91c-.05-1.75-.11-3.51-.16-5.26-.05-1.75-.11-3.51-.16-5.26Z" style="fill: #1d1d1b;"/>
            <path d="M245.17,136.74l-3.13-9.61,2.81-.91c.05,1.75,.11,3.51,.16,5.26,.05,1.75,.11,3.51,.16,5.26Z" style="fill: #1d1d1b;"/>
            <rect x="238.81" y="117.27" width="3.47" height="10.82" transform="translate(507.27 164.8) rotate(161.95)" style="fill: #1d1d1b;"/>
          </g>
        </g>
        <rect x="225.28" y="167.39" width="144.72" height="3.99" style="fill: #020202;"/>
      </g>
    </g>
    <g id="lights">
      <polygon points="547.2 111.55 547.2 155.08 401.63 203.88 309.97 234.62 304.27 236.53 299.64 238.08 298.05 238.62 295.51 239.47 145.43 289.78 48.8 322.19 48.8 278.66 239.17 214.83 250.97 210.87 259.66 207.97 295 196.11 295.01 196.11 298.05 195.09 307.78 191.82 307.79 191.82 326.47 185.55 348.03 178.33 351.71 177.09 547.2 111.55" style="fill: #fff; mix-blend-mode: soft-light;"/>
      <polygon points="547.2 182.41 547.2 225.93 453.73 257.28 453.72 257.28 441.85 261.26 437.73 262.64 436.52 263.04 436.51 263.04 359.38 288.91 338.84 295.8 298.05 309.48 154.33 357.67 48.8 393.05 48.8 349.52 145.95 316.94 298.05 265.95 321.45 258.1 331.12 254.86 434.47 220.21 547.2 182.41" style="fill: #fff; mix-blend-mode: soft-light;"/>
      <polygon points="547.2 343.94 547.2 440.41 446.55 474.16 418.69 483.5 413.24 485.32 413.23 485.32 409.93 486.43 406.36 487.64 371.14 499.44 371.13 499.44 367.66 500.61 298.05 523.96 140.4 576.81 51.37 606.67 48.8 605.11 48.8 511.05 133.36 482.71 133.37 482.7 155.76 475.19 158.37 474.32 298.05 427.48 460.09 373.15 547.2 343.94" style="fill: #fff; mix-blend-mode: soft-light;"/>
      <rect x="50.59" y="16.33" width="214.56" height="3.89" style="fill: #fff; mix-blend-mode: soft-light;"/>
      <rect x="373.53" y="17.45" width="165.09" height="2.22" style="fill: #fff; mix-blend-mode: soft-light;"/>
    </g>
  </g>
</svg>