<?xml version="1.0" encoding="UTF-8"?>
<svg id="_Шар_2" data-name="Шар 2" xmlns="http://www.w3.org/2000/svg" xmlns:xlink="http://www.w3.org/1999/xlink" viewBox="0 0 141.73 141.73">
  <defs>
    <style>
      .cls-1 {
        fill: #161614;
      }

      .cls-2 {
        stroke-width: .2px;
      }

      .cls-2, .cls-3, .cls-4, .cls-5, .cls-6, .cls-7, .cls-8, .cls-9, .cls-10, .cls-11, .cls-12, .cls-13, .cls-14, .cls-15, .cls-16, .cls-17, .cls-18, .cls-19, .cls-20, .cls-21, .cls-22, .cls-23, .cls-24, .cls-25, .cls-26, .cls-27 {
        fill: #20201d;
        stroke: #0077b6;
        stroke-miterlimit: 10;
      }

      .cls-3 {
        font-size: 2.17px;
      }

      .cls-3, .cls-14, .cls-24 {
        font-family: MyriadPro-Regular, 'Myriad Pro';
      }

      .cls-3, .cls-16 {
        stroke-width: .25px;
      }

      .cls-4 {
        stroke-width: .32px;
      }

      .cls-5 {
        stroke-width: .32px;
      }

      .cls-6 {
        stroke-width: .14px;
      }

      .cls-7 {
        stroke-width: .33px;
      }

      .cls-8 {
        stroke-width: .1px;
      }

      .cls-9 {
        stroke-width: .5px;
      }

      .cls-10 {
        stroke-width: .33px;
      }

      .cls-28 {
        fill: #0077b6;
      }

      .cls-11 {
        stroke-width: .32px;
      }

      .cls-12 {
        stroke-width: .14px;
      }

      .cls-29 {
        clip-path: url(#clippath);
      }

      .cls-30 {
        fill: none;
      }

      .cls-13 {
        stroke-width: .27px;
      }

      .cls-14 {
        font-size: 2.78px;
        stroke-width: .32px;
      }

      .cls-15 {
        stroke-width: .3px;
      }

      .cls-17 {
        stroke-width: .2px;
      }

      .cls-18 {
        stroke-width: .24px;
      }

      .cls-19 {
        stroke-width: .37px;
      }

      .cls-20, .cls-24 {
        stroke-width: .25px;
      }

      .cls-21 {
        stroke-width: .13px;
      }

      .cls-22 {
        stroke-width: .75px;
      }

      .cls-23 {
        stroke-width: .4px;
      }

      .cls-24 {
        font-size: 4.36px;
      }

      .cls-25 {
        stroke-width: .07px;
      }

      .cls-26 {
        stroke-width: .13px;
      }

      .cls-27 {
        stroke-width: .1px;
      }
    </style>
    <clipPath id="clippath">
      <rect class="cls-30" width="141.73" height="141.73"/>
    </clipPath>
  </defs>
  <g id="_Шар_1-2" data-name="Шар 1">
    <g class="cls-29">
      <rect class="cls-1" width="141.73" height="141.73"/>
      <g>
        <g>
          <path class="cls-19" d="M106.51,112.79c.74,1.02,1.52,2.11,2.33,3.23-1.17-.1-2.35-.21-3.4-.28l-3.05-4.16c1.32,.39,2.73,.79,4.12,1.21Z"/>
          <path class="cls-19" d="M97.84,93.06c-2.15,.1-4.23,.57-5.74,1.2-1.12-.7-2.33-1.6-3.53-2.59,1.85-1.14,4.74-1.79,9.16-1.5,.06,0,.11,0,.17,.02,.06,1.04,.06,2.03-.06,2.87Z"/>
          <path class="cls-19" d="M87.37,103.87s-2.16-4.02-1.66-7.71c.91,.44,1.78,.83,2.57,1.16,.17,.18,.34,.35,.48,.53-1.17,2.76-1.39,6.02-1.39,6.02Z"/>
          <path class="cls-19" d="M90.65,95.07c-.16,.12-.3,.24-.41,.37-.55,.59-.99,1.34-1.37,2.13-.19-.08-.39-.17-.6-.25-.68-.68-1.48-1.37-2.39-2.04,.31-1.2,.96-2.32,2.13-3.22,.99,1.06,1.9,2.11,2.63,3.01Z"/>
          <path class="cls-19" d="M88.87,97.57c-.04,.09-.07,.19-.12,.28-.15-.18-.31-.35-.48-.53,.21,.09,.41,.17,.6,.25Z"/>
          <path class="cls-19" d="M107.18,92.57c-.92,.73-1.87,1.32-2.81,1.59-1.09-.56-2.38-.89-3.74-1.03-.72-.73-1.3-1.74-1.78-2.86,3.69,.35,6.38,1.19,8.32,2.3Z"/>
          <path class="cls-19" d="M111.55,104.06s-.23,.46-.78,1c-1.2-.9-2.67-1.9-4.29-2.77-.3-.25-.59-.5-.86-.74,1.34-.83,2.12-2.07,1.65-3.96,1.39,.19,2.93,.35,4.34,.21,1.03,3.23-.05,6.26-.05,6.26Z"/>
          <path class="cls-19" d="M110.48,105.32c-.84,.71-2.25,1.45-4.44,1.43-4.19-.02-5.75-1.32-4.19-.02,.34,.27,1.31,1.52,2.65,3.32-1.35-.21-2.56-.39-3.63-.54l-4.71-6.42s5.93,.39,9.18-1.38c.39,.19,.77,.38,1.14,.59,1.3,1.06,2.73,2.13,4,3.03Z"/>
          <path class="cls-19" d="M105.62,101.55c.28,.24,.57,.49,.86,.74-.37-.21-.75-.4-1.14-.59,.09-.05,.19-.1,.28-.16Z"/>
          <path class="cls-19" d="M110.77,105.06c-.09,.09-.18,.18-.29,.26-1.27-.9-2.7-1.97-4-3.03,1.62,.86,3.09,1.87,4.29,2.77Z"/>
          <path class="cls-19" d="M115.28,125.16c-.82,.2-1.69,.37-2.55,.53l-5.94-8.1c1.22,.33,2.56,.69,3.9,1.05,1.62,2.27,3.22,4.55,4.58,6.51Z"/>
          <path class="cls-19" d="M126.31,135.17c-.62,2.69-3.29,4.37-5.98,3.76s-4.37-3.3-3.75-5.99c.11-.47,.28-.9,.5-1.3l-3.31-4.52c.88-.04,1.81-.08,2.79-.13,.89,1.27,1.6,2.3,2.06,2.96,1.11-.76,2.52-1.08,3.94-.75,2.69,.62,4.36,3.3,3.75,5.98Z"/>
          <circle class="cls-19" cx="123.26" cy="134.38" r="1.42"/>
          <path class="cls-19" d="M110.7,118.65c-1.34-.37-2.68-.72-3.9-1.05l-1.36-1.85c1.05,.07,2.23,.18,3.4,.28,.62,.87,1.25,1.74,1.87,2.63Z"/>
          <path class="cls-19" d="M106.51,112.79c-1.39-.42-2.79-.82-4.12-1.21l-1.52-2.07c1.07,.15,2.28,.33,3.63,.54,.61,.81,1.29,1.74,2.01,2.74Z"/>
          <path class="cls-19" d="M116.56,126.98c-.98,.05-1.92,.09-2.79,.13l-1.03-1.42c.85-.16,1.72-.34,2.55-.53,.46,.64,.88,1.25,1.28,1.82Z"/>
          <path class="cls-19" d="M111.61,97.8c-1.42,.14-2.95-.02-4.34-.21,0-.04-.01-.07-.03-.11-.42-1.54-1.48-2.62-2.86-3.32,.94-.28,1.88-.87,2.81-1.59,2.56,1.46,3.85,3.38,4.43,5.24Z"/>
          <path class="cls-19" d="M92.1,94.26c-.58,.25-1.08,.52-1.46,.81-.73-.91-1.65-1.95-2.63-3.01,.17-.13,.36-.26,.56-.39,1.2,.99,2.41,1.89,3.53,2.59Z"/>
          <path class="cls-19" d="M100.64,93.13c-.91-.1-1.87-.12-2.8-.07,.12-.84,.13-1.83,.06-2.87h0c.33,.02,.65,.04,.96,.08,.48,1.12,1.07,2.13,1.78,2.86Z"/>
        </g>
        <g>
          <path class="cls-26" d="M12.61,51.81c-.31-.31-.63-.64-.96-.98,.4-.03,.81-.05,1.17-.08l1.26,1.25c-.47-.06-.97-.13-1.46-.19Z"/>
          <path class="cls-26" d="M16.6,58.06c.72-.15,1.41-.42,1.89-.71,.42,.18,.88,.42,1.34,.69-.57,.48-1.52,.86-3.04,.99-.02,0-.04,0-.06,0-.08-.35-.13-.69-.13-.98Z"/>
          <path class="cls-26" d="M19.59,53.84s.95,1.25,.97,2.53c-.33-.1-.65-.19-.93-.26-.07-.05-.13-.1-.19-.15,.25-1,.16-2.12,.16-2.12Z"/>
          <path class="cls-26" d="M18.94,57s.09-.1,.12-.15c.16-.23,.27-.51,.35-.8,.07,.02,.14,.04,.22,.05,.27,.19,.58,.39,.92,.57-.04,.43-.21,.84-.55,1.21-.39-.31-.76-.62-1.05-.89Z"/>
          <path class="cls-26" d="M19.41,56.06s.02-.07,.02-.1c.06,.05,.12,.1,.19,.15-.07-.02-.15-.04-.22-.05Z"/>
          <path class="cls-26" d="M13.44,58.72c.28-.3,.57-.55,.87-.69,.4,.13,.86,.18,1.32,.15,.28,.21,.53,.52,.76,.88-1.27,.08-2.23-.07-2.95-.35Z"/>
          <path class="cls-26" d="M11.35,55.04s.05-.17,.21-.38c.45,.24,1.01,.51,1.6,.72,.11,.07,.23,.14,.33,.21-.41,.35-.61,.82-.35,1.43-.48,0-1.01,.03-1.49,.16-.52-1.05-.31-2.13-.31-2.13Z"/>
          <path class="cls-26" d="M11.65,54.56c.25-.28,.69-.61,1.43-.72,1.42-.21,2.03,.15,1.42-.21-.13-.08-.53-.45-1.07-.99,.47,0,.89,0,1.26,0l1.94,1.94s-2.04,.18-3.05,.95c-.14-.04-.28-.09-.42-.14-.5-.29-1.04-.58-1.52-.82Z"/>
          <path class="cls-26" d="M13.5,55.58c-.11-.07-.22-.14-.33-.21,.14,.05,.28,.1,.42,.14-.03,.02-.06,.04-.09,.07Z"/>
          <path class="cls-26" d="M11.57,54.66s.05-.07,.09-.11c.48,.24,1.02,.53,1.52,.82-.6-.21-1.15-.47-1.6-.72Z"/>
          <path class="cls-26" d="M8.98,48.06c.27-.11,.56-.22,.84-.32l2.44,2.44c-.43-.05-.91-.1-1.38-.15-.67-.69-1.33-1.38-1.9-1.97Z"/>
          <path class="cls-26" d="M4.7,45.24c.07-.95,.89-1.66,1.84-1.59s1.66,.89,1.59,1.84c-.01,.16-.05,.32-.1,.47l1.36,1.36c-.3,.06-.61,.12-.94,.19-.37-.38-.67-.7-.86-.9-.34,.32-.8,.5-1.3,.46-.95-.07-1.66-.89-1.59-1.84Z"/>
          <circle class="cls-26" cx="5.78" cy="45.35" r=".49"/>
          <path class="cls-26" d="M10.88,50.04c.48,.05,.95,.1,1.38,.15l.56,.56c-.36,.03-.77,.06-1.17,.08-.26-.26-.52-.53-.77-.79Z"/>
          <path class="cls-26" d="M12.61,51.81c.49,.07,.99,.13,1.46,.19l.63,.62c-.37,0-.79,0-1.26,0-.25-.24-.53-.52-.83-.83Z"/>
          <path class="cls-26" d="M8.45,47.51c.33-.07,.65-.13,.94-.19l.43,.43c-.28,.1-.57,.21-.84,.32-.19-.19-.37-.38-.53-.55Z"/>
          <path class="cls-26" d="M11.66,57.17c.47-.12,1-.15,1.49-.16,0,.01,0,.02,.02,.04,.23,.5,.64,.81,1.15,.98-.3,.14-.59,.39-.87,.69-.95-.36-1.49-.95-1.78-1.55Z"/>
          <path class="cls-26" d="M18.48,57.35c.18-.12,.34-.23,.45-.35,.3,.27,.66,.58,1.05,.89-.05,.05-.11,.11-.17,.16-.46-.27-.92-.52-1.34-.69Z"/>
          <path class="cls-26" d="M15.64,58.19c.32-.01,.64-.06,.96-.12,0,.29,.05,.63,.13,.98h0c-.11,.01-.22,.02-.33,.02-.22-.36-.47-.67-.76-.88Z"/>
        </g>
        <g>
          <path class="cls-15" d="M25.69,121.84c-.48,.39-.95,.76-1.42,1.1-.23-.32-.47-.61-.69-.87-.96,.51-1.91,1.03-2.86,1.54,.26,.31,.55,.67,.83,1.09-5.31,2.98-9.16,2.64-9.54,2.65,0,0,.84-.44,.51-1.23-.08-.2-.12-.43-.15-.67-.06-.73,.1-1.56,.1-1.9,0-.46-.89-2.6-.89-2.6-.05-.16,.02-.28,.17-.37l-.19-1s0,0,0-.01h0c.3-.43,.42-.6,.46-.66h0s.01-.01,.01-.01c0,0,0,0-.01,.01l-1.1-3.71s-.05-.02-.05,0c.03,1.8-.12-.06-3.73,2.54-.02,.02-.05,0-.04-.03,.52-.76,3.4-5.06,2.29-7.37-.01-.02,.01-.04,.03-.03l.2,.13h0s5.74,3.81,5.74,3.81c0,0,0,0,0,.01l.5,1.43s.01,.02,.02,.02h1.74s.01,0,.02,.01l5.99,4.58,2.02,1.55Z"/>
          <path class="cls-15" d="M12.05,118.85s0,0-.01,.02"/>
          <path class="cls-15" d="M11.75,120.55c.78-.48,3.79-.16,3.79-.16"/>
          <path class="cls-15" d="M15.06,118.97s-2.94,.08-3.5,.57"/>
          <path class="cls-15" d="M36.03,120.69c.45,1.09-.18,2.54-1.63,4.1l-1.44-.09-.14,.82-2.38,.05-.18,2.58c-1.97,1.29-4.34,2.54-6.96,3.63-8.17,3.39-15.7,3.93-16.84,1.19v-.03s2.87-2,2.87-2l-1.41-1.88c1.05-1.18,2.57-2.43,4.45-3.64,.02,.24,.06,.47,.15,.67,.33,.79-.51,1.23-.51,1.23-.44,0,.55,2.64,.64,2.87,0,.01,.01,.02,.02,.02,3.76-.52,7.31-1.89,10.08-3.25,.12,.3,.22,.59,.3,.86,.99-.63,1.98-1.27,2.97-1.91-.08-.18-.17-.37-.26-.57,1.46-.86,2.39-1.51,2.55-1.63,.01,0,0-.03,0-.04l-2.61-1.85-2.02-1.55c6.28-1.88,11.44-1.81,12.36,.41Z"/>
          <path class="cls-15" d="M23.05,127.83c-.08-.27-.18-.56-.3-.86-.12-.31-.26-.63-.42-.95-.25-.49-.52-.94-.78-1.33-.28-.42-.56-.78-.83-1.09,.96-.51,1.91-1.03,2.86-1.54,.22,.26,.46,.55,.69,.87,.28,.37,.56,.78,.83,1.23,.25,.41,.46,.81,.65,1.19,.1,.19,.18,.38,.26,.57-.99,.63-1.98,1.27-2.97,1.91Z"/>
          <path class="cls-15" d="M22.75,126.97c-2.77,1.36-6.32,2.73-10.08,3.25-.01,0-.02,0-.02-.02-.09-.23-1.08-2.86-.64-2.87,.37,0,4.23,.33,9.54-2.65,.26,.39,.53,.84,.78,1.33,.16,.33,.3,.65,.42,.95Z"/>
          <path class="cls-15" d="M28.3,123.73c-.16,.11-1.08,.77-2.55,1.63-.19-.38-.4-.78-.65-1.19-.27-.45-.55-.86-.83-1.23,.47-.34,.94-.7,1.42-1.1l2.61,1.85s.02,.03,0,.04Z"/>
          <path class="cls-15" d="M10.97,115.22c-.11-.43-.21-.86-.33-1.29-.32-1.21-.65-2.38-1.01-3.51"/>
          <path class="cls-15" d="M27.89,120.17s4.71-1.23,6.32,.47"/>
          <path class="cls-15" d="M9.45,133.19s3.27,1.91,15.33-2.65"/>
        </g>
        <g>
          <path class="cls-6" d="M130.62,50.21c.21,.18,.42,.34,.63,.49,.1-.14,.21-.27,.31-.39,.43,.23,.85,.46,1.28,.69-.12,.14-.24,.3-.37,.48,2.37,1.33,4.09,1.18,4.25,1.18,0,0-.37-.2-.23-.55,.04-.09,.06-.19,.07-.3,.03-.32-.05-.69-.04-.85,0-.21,.4-1.16,.4-1.16,.02-.07,0-.12-.08-.17l.08-.45s0,0,0,0h0c-.13-.19-.19-.27-.21-.3h0s0,0,0,0c0,0,0,0,0,0l.49-1.65s.02-.01,.02,0c-.02,.8,.05-.02,1.66,1.13,0,0,.02,0,.02-.01-.23-.34-1.51-2.26-1.02-3.29,0-.01,0-.02-.01-.01l-.09,.06h0s-2.56,1.7-2.56,1.7c0,0,0,0,0,0l-.22,.64s0,0-.01,0h-.78s0,0,0,0l-2.67,2.04-.9,.69Z"/>
          <path class="cls-6" d="M136.71,48.88s0,0,0,0"/>
          <path class="cls-6" d="M135.15,49.56s1.34-.14,1.69,.07"/>
          <path class="cls-6" d="M135.36,48.93s1.31,.04,1.56,.25"/>
          <path class="cls-6" d="M126.01,49.7c-.2,.49,.08,1.13,.73,1.83l.64-.04,.06,.36,1.06,.02,.08,1.15c.88,.57,1.93,1.13,3.1,1.62,3.64,1.51,7,1.75,7.51,.53h0s-1.28-.9-1.28-.9l.63-.84c-.47-.52-1.15-1.08-1.98-1.62,0,.11-.03,.21-.07,.3-.15,.35,.23,.55,.23,.55,.2,0-.24,1.18-.28,1.28,0,0,0,0-.01,0-1.68-.23-3.26-.84-4.49-1.45-.05,.13-.1,.26-.13,.38-.44-.28-.88-.57-1.32-.85,.04-.08,.08-.17,.12-.25-.65-.38-1.06-.67-1.14-.73,0,0,0-.01,0-.02l1.16-.83,.9-.69c-2.8-.84-5.1-.81-5.51,.18Z"/>
          <path class="cls-6" d="M131.8,52.88c.04-.12,.08-.25,.13-.38,.05-.14,.12-.28,.19-.42,.11-.22,.23-.42,.35-.59,.13-.19,.25-.35,.37-.48-.43-.23-.85-.46-1.28-.69-.1,.12-.2,.25-.31,.39-.12,.16-.25,.35-.37,.55-.11,.18-.21,.36-.29,.53-.04,.09-.08,.17-.12,.25,.44,.28,.88,.57,1.32,.85Z"/>
          <path class="cls-6" d="M131.93,52.5c1.23,.6,2.82,1.22,4.49,1.45,0,0,0,0,.01,0,.04-.1,.48-1.28,.28-1.28-.17,0-1.89,.15-4.25-1.18-.12,.18-.24,.37-.35,.59-.07,.15-.14,.29-.19,.42Z"/>
          <path class="cls-6" d="M129.46,51.05c.07,.05,.48,.34,1.14,.73,.08-.17,.18-.35,.29-.53,.12-.2,.25-.38,.37-.55-.21-.15-.42-.31-.63-.49l-1.16,.83s0,.01,0,.02Z"/>
          <path class="cls-6" d="M137.78,45.12c-.16,.5-.31,1.03-.45,1.56-.05,.19-.1,.39-.15,.58"/>
          <path class="cls-6" d="M129.64,49.46s-2.1-.55-2.82,.21"/>
          <path class="cls-6" d="M137.86,55.27s-1.46,.85-6.83-1.18"/>
        </g>
        <g>
          <path class="cls-8" d="M99.01,135.32c.18-.08,.35-.15,.52-.23-.05-.11-.1-.22-.14-.32,.28-.19,.57-.38,.85-.57,.05,.12,.11,.25,.18,.39,1.62-1.04,2.09-2.17,2.15-2.27,0,0-.25,.17-.42-.04-.04-.05-.1-.1-.17-.14-.19-.12-.45-.2-.55-.25-.13-.07-.59-.63-.59-.63-.04-.04-.08-.04-.13,0l-.25-.2s0,0,0,0h0c-.16,.02-.23,.03-.25,.03h0s0,0,0,0c0,0,0,0,0,0l-.87-.85s0-.02,0-.01c.5,.27,0-.04,1.26-.67,0,0,0-.02,0-.01-.29,.03-1.92,.2-2.4-.45,0,0-.01,0-.01,0v.08s0,0,0,0l.21,2.17s0,0,0,0l.33,.35s0,0,0,0l-.26,.49s0,0,0,0l.39,2.35,.13,.79Z"/>
          <path class="cls-8" d="M100.2,131.06s0,0,0,0"/>
          <path class="cls-8" d="M100.11,132.27s.36-.89,.6-1.03"/>
          <path class="cls-8" d="M99.78,131.92s.46-.81,.68-.89"/>
          <path class="cls-8" d="M97.16,138.04c.24,.29,.74,.32,1.39,.15l.19-.41,.25,.08,.37-.66,.75,.33c.65-.36,1.35-.84,2.04-1.41,2.16-1.78,3.42-3.8,2.82-4.53h0s-.98,.5-.98,.5l-.32-.67c-.48,.12-1.06,.36-1.68,.7,.06,.04,.12,.09,.17,.14,.17,.21,.42,.04,.42,.04,.07-.12,.66,.54,.71,.6,0,0,0,0,0,0-.7,.97-1.61,1.76-2.4,2.33,.07,.08,.13,.15,.19,.21-.32,.18-.65,.36-.97,.55-.04-.05-.08-.1-.12-.16-.46,.28-.78,.44-.83,.47,0,0,0,0-.01,0l-.13-1-.13-.79c-1.45,1.48-2.2,2.93-1.72,3.51Z"/>
          <path class="cls-8" d="M101.07,135.47c-.06-.06-.13-.13-.19-.21-.07-.08-.14-.17-.2-.26-.1-.14-.19-.28-.26-.41-.08-.14-.13-.27-.18-.39-.28,.19-.57,.38-.85,.57,.04,.1,.09,.21,.14,.32,.06,.13,.14,.27,.22,.41,.08,.13,.16,.25,.24,.36,.04,.06,.08,.11,.12,.16,.32-.18,.65-.36,.97-.55Z"/>
          <path class="cls-8" d="M100.88,135.25c.79-.57,1.7-1.36,2.4-2.33,0,0,0,0,0,0-.05-.06-.64-.73-.71-.6-.06,.1-.53,1.23-2.15,2.27,.07,.13,.16,.27,.26,.41,.07,.09,.14,.18,.2,.26Z"/>
          <path class="cls-8" d="M99.15,136.33c.06-.03,.38-.19,.83-.47-.08-.11-.16-.23-.24-.36-.09-.14-.16-.28-.22-.41-.16,.08-.34,.16-.52,.23l.13,1s0,0,.01,0Z"/>
          <path class="cls-8" d="M98.19,129.14c.26,.27,.54,.53,.83,.8,.1,.1,.21,.19,.31,.28"/>
          <path class="cls-8" d="M98.22,135.68s-1.04,1.13-.8,1.84"/>
          <path class="cls-8" d="M104.58,132.46s.05,1.2-3.01,3.89"/>
        </g>
        <g>
          <path class="cls-8" d="M68.42,79.68c.16,.12,.31,.22,.46,.32,.07-.1,.14-.2,.21-.29,.31,.15,.62,.29,.93,.44-.08,.1-.16,.22-.25,.36,1.72,.86,2.93,.69,3.05,.69,0,0-.27-.13-.18-.38,.02-.06,.03-.14,.04-.21,0-.23-.06-.49-.06-.6,0-.15,.24-.83,.24-.83,.01-.05,0-.09-.06-.11l.04-.32s0,0,0,0h0c-.1-.13-.14-.18-.16-.2h0s0,0,0,0c0,0,0,0,0,0l.29-1.19s.02,0,.02,0c.02,.57,.04-.02,1.22,.74,0,0,.02,0,.01,0-.18-.23-1.15-1.55-.84-2.29,0,0,0-.01-.01,0l-.06,.04h0s-1.75,1.29-1.75,1.29c0,0,0,0,0,0l-.14,.46s0,0,0,0l-.55,.03s0,0,0,0l-1.82,1.54-.62,.52Z"/>
          <path class="cls-8" d="M72.69,78.53s0,0,0,0"/>
          <path class="cls-8" d="M71.61,79.07s.94-.15,1.2,0"/>
          <path class="cls-8" d="M71.73,78.61s.93-.02,1.11,.13"/>
          <path class="cls-8" d="M65.14,79.48c-.13,.35,.1,.8,.58,1.27l.45-.05,.06,.26,.75-.02,.1,.81c.64,.38,1.41,.74,2.25,1.04,2.63,.95,5.02,1,5.33,.12h0s-.94-.6-.94-.6l.42-.62c-.35-.36-.85-.73-1.46-1.08,0,.08-.01,.15-.04,.21-.09,.25,.18,.38,.18,.38,.14,0-.13,.84-.16,.92,0,0,0,0,0,0-1.19-.11-2.34-.49-3.23-.87-.03,.1-.06,.19-.08,.28-.32-.19-.64-.37-.97-.56,.02-.06,.05-.12,.07-.18-.48-.25-.78-.44-.83-.47,0,0,0,0,0-.01l.8-.63,.62-.52c-2.01-.5-3.64-.4-3.9,.32Z"/>
          <path class="cls-8" d="M69.35,81.53c.02-.09,.05-.18,.08-.28,.03-.1,.07-.2,.12-.31,.07-.16,.15-.3,.23-.43,.08-.14,.17-.25,.25-.36-.31-.15-.62-.29-.93-.44-.07,.09-.14,.18-.21,.29-.08,.12-.16,.26-.24,.4-.07,.13-.13,.26-.19,.39-.03,.06-.05,.12-.07,.18,.32,.18,.64,.37,.97,.56Z"/>
          <path class="cls-8" d="M69.43,81.26c.89,.39,2.04,.76,3.23,.87,0,0,0,0,0,0,.02-.07,.3-.92,.16-.92-.12,0-1.33,.17-3.05-.69-.08,.13-.15,.27-.23,.43-.05,.11-.09,.21-.12,.31Z"/>
          <path class="cls-8" d="M67.63,80.32c.05,.03,.35,.23,.83,.47,.05-.12,.12-.25,.19-.39,.08-.15,.16-.28,.24-.4-.15-.1-.31-.21-.46-.32l-.8,.63s0,0,0,.01Z"/>
          <path class="cls-8" d="M73.31,75.83c-.09,.36-.18,.74-.26,1.12-.03,.14-.06,.28-.08,.41"/>
          <path class="cls-8" d="M67.7,79.19s-1.51-.32-1.99,.25"/>
          <path class="cls-8" d="M73.72,83.01s-1,.65-4.88-.6"/>
        </g>
        <g>
          <path class="cls-18" d="M80.03,7.75c.4,.29,.79,.57,1.17,.82,.17-.26,.35-.5,.52-.72,.78,.37,1.56,.74,2.34,1.11-.2,.25-.41,.55-.62,.9,4.34,2.16,7.4,1.75,7.69,1.74,0,0-.68-.32-.45-.96,.06-.16,.08-.35,.09-.54,.02-.58-.14-1.23-.15-1.51-.01-.37,.61-2.1,.61-2.1,.03-.13-.02-.22-.15-.29l.11-.8s0,0,0,0h0c-.25-.33-.36-.46-.39-.51h0s0,0,0,0c0,0,0,0,.01,0l.73-2.99s.04-.02,.04,0c.04,1.43,.09-.05,3.07,1.88,.02,.01,.04,0,.03-.02-.45-.58-2.9-3.9-2.11-5.78,0-.02-.01-.03-.03-.02l-.16,.11h0s-4.42,3.25-4.42,3.25c0,0,0,0,0,.01l-.34,1.16s-.01,.01-.02,.01l-1.38,.07s0,0-.01,0l-4.59,3.88-1.55,1.31Z"/>
          <path class="cls-18" d="M90.78,4.86s0-.01,0-.01"/>
          <path class="cls-18" d="M88.06,6.21s2.38-.37,3.02-.02"/>
          <path class="cls-18" d="M88.38,5.06s2.34-.05,2.81,.32"/>
          <path class="cls-18" d="M71.75,7.24c-.32,.89,.24,2.01,1.46,3.2l1.14-.12,.14,.64,1.9-.05,.24,2.05c1.62,.95,3.55,1.85,5.68,2.62,6.63,2.38,12.65,2.52,13.45,.3v-.02s-2.36-1.48-2.36-1.48l1.05-1.55c-.88-.9-2.14-1.83-3.68-2.73,0,.19-.03,.38-.09,.54-.23,.64,.45,.96,.45,.96,.35-.01-.34,2.12-.4,2.31,0,.01-.01,.01-.02,.01-3.01-.27-5.89-1.22-8.15-2.2-.08,.24-.15,.48-.21,.69-.81-.47-1.62-.94-2.43-1.4,.06-.15,.12-.3,.19-.46-1.2-.63-1.96-1.11-2.09-1.2-.01,0,0-.02,0-.03l2-1.58,1.55-1.31c-5.07-1.25-9.17-1-9.82,.8Z"/>
          <path class="cls-18" d="M82.36,12.42c.06-.22,.12-.45,.21-.69,.08-.25,.18-.51,.3-.77,.18-.4,.37-.77,.57-1.09,.21-.34,.42-.64,.62-.9-.78-.37-1.56-.74-2.34-1.11-.17,.22-.34,.46-.52,.72-.21,.3-.41,.64-.61,1.01-.18,.34-.34,.66-.47,.97-.07,.16-.13,.31-.19,.46,.81,.47,1.62,.93,2.43,1.4Z"/>
          <path class="cls-18" d="M82.57,11.72c2.25,.97,5.13,1.93,8.15,2.2,0,0,.02,0,.02-.01,.06-.19,.75-2.32,.4-2.31-.3,.01-3.35,.43-7.69-1.74-.2,.32-.39,.69-.57,1.09-.12,.27-.22,.53-.3,.77Z"/>
          <path class="cls-18" d="M78.02,9.36c.13,.08,.89,.57,2.09,1.2,.13-.31,.29-.64,.47-.97,.2-.37,.41-.71,.61-1.01-.39-.25-.77-.52-1.17-.82l-2,1.58s-.01,.02,0,.03Z"/>
          <path class="cls-18" d="M92.36-1.95c-.24,.91-.46,1.86-.66,2.83-.08,.35-.14,.7-.21,1.04"/>
          <path class="cls-18" d="M78.21,6.51s-3.8-.79-5.01,.62"/>
          <path class="cls-18" d="M93.39,16.16s-2.53,1.65-12.3-1.51"/>
        </g>
        <g>
          <path class="cls-18" d="M80.03,149.48c.4,.29,.79,.57,1.17,.82,.17-.26,.35-.5,.52-.72,.78,.37,1.56,.74,2.34,1.11-.2,.25-.41,.55-.62,.9,4.34,2.16,7.4,1.75,7.69,1.74,0,0-.68-.32-.45-.96,.06-.16,.08-.35,.09-.54,.02-.58-.14-1.23-.15-1.51-.01-.37,.61-2.1,.61-2.1,.03-.13-.02-.22-.15-.29l.11-.8s0,0,0,0h0c-.25-.33-.36-.46-.39-.51h0s0,0,0,0c0,0,0,0,.01,0l.73-2.99s.04-.02,.04,0c.04,1.43,.09-.05,3.07,1.88,.02,.01,.04,0,.03-.02-.45-.58-2.9-3.9-2.11-5.78,0-.02-.01-.03-.03-.02l-.16,.11h0s-4.42,3.25-4.42,3.25c0,0,0,0,0,.01l-.34,1.16s-.01,.01-.02,.01l-1.38,.07s0,0-.01,0l-4.59,3.88-1.55,1.31Z"/>
          <path class="cls-18" d="M92.36,139.78c-.24,.91-.46,1.86-.66,2.83-.08,.35-.14,.7-.21,1.04"/>
        </g>
        <g>
          <g>
            <polygon class="cls-9" points="60.82 98.52 60.94 98.55 61.77 95.22 63.91 96.7 62.54 100.64 60.82 98.52"/>
            <polygon class="cls-9" points="56.7 97.49 60.82 98.52 62.54 100.64 62.53 100.66 57.74 100.09 56.7 97.49"/>
            <line class="cls-9" x1="62.54" y1="100.64" x2="75.71" y2="116.87"/>
            <polyline class="cls-9" points="74.53 120.02 75.71 116.87 79.92 117.29 81.5 124.11 74.53 120.02 79.92 117.29"/>
            <polygon class="cls-9" points="58.43 95.57 58.62 95.62 59.17 93.42 61.77 95.22 60.94 98.55 60.82 98.52 58.43 95.57"/>
            <polygon class="cls-9" points="55.65 94.88 58.43 95.57 60.82 98.52 56.7 97.49 55.65 94.88"/>
            <polygon class="cls-9" points="53.49 89.48 53.58 89.59 58.43 95.57 55.65 94.88 53.49 89.48"/>
            <polygon class="cls-9" points="53.49 89.48 59.17 93.42 58.62 95.62 58.43 95.57 53.58 89.59 53.49 89.48"/>
          </g>
          <g>
            <polygon class="cls-9" points="57.28 86.02 57.41 86.05 58.23 82.72 60.37 84.2 59 88.14 57.28 86.02"/>
            <polygon class="cls-9" points="53.16 84.99 57.28 86.02 59 88.14 58.99 88.16 54.2 87.6 53.16 84.99"/>
            <line class="cls-9" x1="59" y1="88.14" x2="72.17" y2="104.37"/>
            <polyline class="cls-9" points="71 107.53 72.17 104.37 76.38 104.79 77.97 111.61 71 107.53 76.38 104.79"/>
            <polygon class="cls-9" points="54.89 83.07 55.08 83.12 55.63 80.92 58.23 82.72 57.41 86.05 57.28 86.02 54.89 83.07"/>
            <polygon class="cls-9" points="52.11 82.38 54.89 83.07 57.28 86.02 53.16 84.99 52.11 82.38"/>
            <polygon class="cls-9" points="49.96 76.99 50.04 77.09 54.89 83.07 52.11 82.38 49.96 76.99"/>
            <polygon class="cls-9" points="49.96 76.99 55.63 80.92 55.08 83.12 54.89 83.07 50.04 77.09 49.96 76.99"/>
          </g>
          <line class="cls-9" x1="73.67" y1="117.62" x2="64.75" y2="106.52"/>
          <line class="cls-9" x1="72.68" y1="101.08" x2="63.76" y2="89.98"/>
        </g>
        <g>
          <g>
            <polygon class="cls-21" points="125.08 32.26 125.09 32.3 125.98 32.05 125.91 32.75 124.81 32.94 125.08 32.26"/>
            <polygon class="cls-21" points="124.78 31.16 125.08 32.26 124.81 32.94 124.8 32.94 124.31 31.75 124.78 31.16"/>
            <line class="cls-21" x1="124.81" y1="32.94" x2="122.75" y2="38.16"/>
            <polyline class="cls-21" points="121.86 38.3 122.75 38.16 123.21 39.2 121.82 40.47 121.86 38.3 123.21 39.2"/>
            <polygon class="cls-21" points="125.45 31.32 125.47 31.37 126.05 31.2 125.98 32.05 125.09 32.3 125.08 32.26 125.45 31.32"/>
            <polygon class="cls-21" points="125.25 30.58 125.45 31.32 125.08 32.26 124.78 31.16 125.25 30.58"/>
            <polygon class="cls-21" points="126.23 29.36 126.21 29.39 125.45 31.32 125.25 30.58 126.23 29.36"/>
            <polygon class="cls-21" points="126.23 29.36 126.05 31.2 125.47 31.37 125.45 31.32 126.21 29.39 126.23 29.36"/>
          </g>
          <g>
            <polygon class="cls-21" points="127.54 29.79 127.54 29.82 128.43 29.58 128.37 30.27 127.27 30.47 127.54 29.79"/>
            <polygon class="cls-21" points="127.23 28.69 127.54 29.79 127.27 30.47 127.26 30.47 126.76 29.28 127.23 28.69"/>
            <line class="cls-21" x1="127.27" y1="30.47" x2="125.21" y2="35.69"/>
            <polyline class="cls-21" points="124.31 35.83 125.21 35.69 125.66 36.73 124.28 38 124.31 35.83 125.66 36.73"/>
            <polygon class="cls-21" points="127.91 28.84 127.92 28.89 128.51 28.73 128.43 29.58 127.54 29.82 127.54 29.79 127.91 28.84"/>
            <polygon class="cls-21" points="127.71 28.1 127.91 28.84 127.54 29.79 127.23 28.69 127.71 28.1"/>
            <polygon class="cls-21" points="128.68 26.89 128.67 26.92 127.91 28.84 127.71 28.1 128.68 26.89"/>
            <polygon class="cls-21" points="128.68 26.89 128.51 28.73 127.92 28.89 127.91 28.84 128.67 26.92 128.68 26.89"/>
          </g>
          <line class="cls-21" x1="122.31" y1="37.78" x2="123.73" y2="34.23"/>
          <line class="cls-21" x1="126.04" y1="35.37" x2="127.46" y2="31.82"/>
        </g>
        <g>
          <path class="cls-9" d="M66.23,58.16c-1.45,5.88-7.39,9.47-13.27,8.02s-9.47-7.39-8.02-13.27c1.01-4.1,4.21-7.09,8.04-8.02,.03-.1,.05-.19,.08-.29,0,0,.04-.15,.08-.3,.05-.22,.36-1.8,.75-3.97,3.61,.98,7.22,1.95,10.83,2.93-.46,.73-1.01,1.8-1.4,3.16-.11,.38-.19,.75-.25,1.1,2.81,2.62,4.16,6.65,3.17,10.65Z"/>
          <g>
            <path class="cls-9" d="M65.37,42.71c-.39,1.59-3.36,2.22-6.64,1.41s-5.62-2.75-5.23-4.34c.05-.21,.15-.4,.29-.58,.26,1.44,2.4,2.99,5.24,3.69s5.45,.32,6.35-.83c.04,.22,.04,.43-.01,.64Z"/>
            <path class="cls-9" d="M65.35,41.92s.02,.1,.03,.14c-.9,1.15-3.51,1.53-6.35,.83s-4.91-2.21-5.22-3.62h-.04c.15-1.49,.3-2.97,.44-4.44,2.13,.57,4.31,1.13,6.53,1.68,2.13,.53,4.24,1.02,6.31,1.49-.18,.62-.42,1.31-.74,2.05-.31,.71-.64,1.33-.96,1.87Z"/>
            <ellipse class="cls-9" cx="60.48" cy="36.76" rx="1.76" ry="6.68" transform="translate(10.3 86.67) rotate(-76.14)"/>
          </g>
          <ellipse class="cls-9" cx="62.16" cy="37.31" rx=".5" ry="2.02" transform="translate(11.05 88.72) rotate(-76.14)"/>
          <path class="cls-9" d="M52.89,45.4c-.27,1.08,1.74,2.5,4.47,3.18s5.17,.35,5.44-.73"/>
          <path class="cls-9" d="M66.64,54.37c-1.18-.63-2.55-1.25-4.1-1.79-3.72-1.29-7.1-1.59-9.6-1.59"/>
          <path class="cls-9" d="M46.21,49.85c4.06,0,6.84,.98,8.62,1.87,2.12,1.05,3.18,2.16,6.34,3.77,2.14,1.09,3.98,1.78,5.17,2.18"/>
          <ellipse class="cls-9" cx="60.06" cy="60.28" rx="1.13" ry="1.07" transform="translate(-12.85 104.14) rotate(-76.14)"/>
          <circle class="cls-9" cx="59.15" cy="57.13" r=".57"/>
          <circle class="cls-9" cx="57.53" cy="62.9" r=".76"/>
        </g>
        <g>
          <path class="cls-11" d="M10.5,87.65c2.55,2.91,2.26,7.33-.65,9.88s-7.33,2.26-9.88-.65c-1.78-2.03-2.18-4.79-1.27-7.14-.04-.05-.08-.1-.12-.15,0,0-.06-.07-.13-.15-.09-.11-.81-.84-1.81-1.84,1.83-1.53,3.66-3.07,5.49-4.6,.22,.51,.57,1.19,1.14,1.89,.16,.19,.32,.37,.48,.54,2.4-.51,5,.25,6.74,2.23Z"/>
          <g>
            <path class="cls-11" d="M2.09,82.45c.69,.78-.07,2.57-1.69,3.99s-3.49,1.94-4.18,1.15c-.09-.1-.16-.23-.2-.36,.85,.39,2.44-.17,3.85-1.4s2.16-2.74,1.89-3.63c.13,.06,.24,.14,.33,.24Z"/>
            <path class="cls-11" d="M1.67,82.17s.06,.02,.09,.04c.27,.89-.48,2.4-1.89,3.63s-2.95,1.77-3.81,1.41l-.02,.02c-.72-.62-1.44-1.24-2.16-1.85,1.08-.91,2.17-1.85,3.26-2.81,1.05-.93,2.08-1.85,3.09-2.76,.26,.32,.54,.7,.8,1.14,.26,.42,.47,.82,.63,1.19Z"/>
            <ellipse class="cls-11" cx="-2.82" cy="82.84" rx="4.26" ry="1.13" transform="translate(-55.34 18.72) rotate(-41.26)"/>
          </g>
          <path class="cls-11" d="M-1.06,89.97c.47,.53,1.95,0,3.3-1.18s2.07-2.58,1.6-3.12"/>
          <path class="cls-11" d="M8.66,86.05c-.76,.39-1.59,.88-2.44,1.49-2.04,1.48-3.43,3.14-4.34,4.45"/>
          <path class="cls-11" d="M-1.16,95.1c1.48-2.13,3.01-3.23,4.13-3.84,1.33-.72,2.29-.88,4.29-1.94,1.35-.72,2.39-1.43,3.03-1.91"/>
          <ellipse class="cls-11" cx="9.35" cy="91.65" rx=".68" ry=".72" transform="translate(-58.12 28.93) rotate(-41.26)"/>
          <circle class="cls-11" cx="7.37" cy="90.98" r=".36"/>
          <circle class="cls-11" cx="9.8" cy="93.93" r=".48"/>
        </g>
        <g>
          <path class="cls-11" d="M152.23,87.65c2.55,2.91,2.26,7.33-.65,9.88s-7.33,2.26-9.88-.65c-1.78-2.03-2.18-4.79-1.27-7.14-.04-.05-.08-.1-.12-.15,0,0-.06-.07-.13-.15-.09-.11-.81-.84-1.81-1.84,1.83-1.53,3.66-3.07,5.49-4.6,.22,.51,.57,1.19,1.14,1.89,.16,.19,.32,.37,.48,.54,2.4-.51,5,.25,6.74,2.23Z"/>
          <g>
            <path class="cls-11" d="M143.82,82.45c.69,.78-.07,2.57-1.69,3.99s-3.49,1.94-4.18,1.15c-.09-.1-.16-.23-.2-.36,.85,.39,2.44-.17,3.85-1.4s2.16-2.74,1.89-3.63c.13,.06,.24,.14,.33,.24Z"/>
            <path class="cls-11" d="M143.4,82.17s.06,.02,.09,.04c.27,.89-.48,2.4-1.89,3.63s-2.95,1.77-3.81,1.41l-.02,.02c-.72-.62-1.44-1.24-2.16-1.85,1.08-.91,2.17-1.85,3.26-2.81,1.05-.93,2.08-1.85,3.09-2.76,.26,.32,.54,.7,.8,1.14,.26,.42,.47,.82,.63,1.19Z"/>
            <ellipse class="cls-11" cx="138.92" cy="82.84" rx="4.26" ry="1.13" transform="translate(-20.14 112.19) rotate(-41.26)"/>
          </g>
          <ellipse class="cls-11" cx="139.82" cy="82.16" rx="1.29" ry=".32" transform="translate(-19.47 112.62) rotate(-41.26)"/>
          <path class="cls-11" d="M140.68,89.97c.47,.53,1.95,0,3.3-1.18s2.07-2.58,1.6-3.12"/>
          <path class="cls-11" d="M140.57,95.1c1.48-2.13,3.01-3.23,4.13-3.84,1.33-.72,2.29-.88,4.29-1.94,1.35-.72,2.39-1.43,3.03-1.91"/>
        </g>
        <g>
          <path class="cls-2" d="M113.3,72.21c.41,2.36-1.17,4.61-3.53,5.03s-4.61-1.17-5.03-3.53c-.29-1.65,.39-3.24,1.63-4.19,0-.04-.01-.08-.02-.12,0,0,0-.06-.02-.12-.02-.09-.16-.71-.36-1.56,1.46-.22,2.93-.44,4.39-.67-.05,.34-.08,.81,0,1.37,.02,.15,.05,.3,.08,.44,1.44,.5,2.57,1.75,2.85,3.35Z"/>
          <g>
            <path class="cls-2" d="M110.52,66.75c.11,.64-.86,1.34-2.18,1.57s-2.48-.1-2.59-.74c-.01-.08-.01-.17,.01-.25,.32,.48,1.35,.7,2.49,.5s2.03-.76,2.17-1.32c.05,.07,.08,.15,.1,.24Z"/>
            <path class="cls-2" d="M110.39,66.47s.02,.03,.03,.05c-.14,.56-1.03,1.12-2.17,1.32s-2.13-.02-2.47-.48h-.02c-.18-.56-.36-1.12-.55-1.67,.86-.13,1.74-.28,2.64-.44,.86-.15,1.7-.31,2.53-.47,.03,.25,.06,.54,.06,.86,0,.31-.02,.59-.05,.83Z"/>
            <ellipse class="cls-2" cx="107.8" cy="65.37" rx="2.65" ry=".7" transform="translate(-9.65 19.55) rotate(-9.92)"/>
          </g>
          <ellipse class="cls-2" cx="108.5" cy="65.3" rx=".8" ry=".2" transform="translate(-9.63 19.67) rotate(-9.92)"/>
          <path class="cls-2" d="M106.43,69.72c.08,.43,1.03,.63,2.13,.44s1.93-.7,1.85-1.13"/>
          <path class="cls-2" d="M112.85,70.77c-.53-.04-1.12-.05-1.77,0-1.56,.13-2.83,.56-3.73,.96"/>
          <path class="cls-2" d="M104.72,72.4c1.47-.65,2.64-.74,3.42-.7,.94,.04,1.5,.27,2.9,.35,.95,.06,1.73,.01,2.22-.03"/>
          <ellipse class="cls-2" cx="111.4" cy="73.97" rx=".42" ry=".45" transform="translate(-11.08 20.3) rotate(-9.92)"/>
          <circle class="cls-2" cx="110.57" cy="72.97" r=".22"/>
          <circle class="cls-2" cx="110.91" cy="75.32" r=".3"/>
        </g>
        <g>
          <path class="cls-2" d="M89.59,122.1c-2.34,.52-4.66-.95-5.19-3.29s.95-4.66,3.29-5.19c1.63-.36,3.25,.24,4.26,1.44,.04,0,.08-.02,.12-.02,0,0,.06-.01,.12-.03,.09-.02,.7-.19,1.54-.44,.29,1.45,.58,2.9,.87,4.36-.34-.03-.82-.04-1.37,.06-.15,.03-.3,.06-.44,.1-.43,1.46-1.62,2.65-3.22,3Z"/>
          <g>
            <path class="cls-2" d="M94.92,119.07c-.63,.14-1.38-.8-1.67-2.11s-.02-2.48,.62-2.62c.08-.02,.17-.02,.25,0-.46,.35-.64,1.38-.38,2.51s.85,1.99,1.42,2.11c-.07,.05-.15,.09-.23,.11Z"/>
            <path class="cls-2" d="M95.19,118.92s-.03,.03-.04,.04c-.57-.12-1.16-.98-1.42-2.11s-.08-2.13,.36-2.49v-.02c.55-.21,1.1-.42,1.65-.63,.17,.86,.36,1.73,.56,2.61,.19,.85,.39,1.68,.59,2.5-.25,.05-.54,.08-.86,.1-.31,.02-.59,0-.83,0Z"/>
            <ellipse class="cls-2" cx="96.16" cy="116.28" rx=".7" ry="2.65" transform="translate(-23.05 23.78) rotate(-12.6)"/>
          </g>
          <ellipse class="cls-2" cx="96.27" cy="116.98" rx=".2" ry=".8" transform="translate(-23.2 23.82) rotate(-12.6)"/>
          <path class="cls-2" d="M91.76,115.12c-.43,.1-.58,1.06-.34,2.15s.79,1.89,1.22,1.8"/>
          <path class="cls-2" d="M91,121.58c.01-.53,0-1.12-.09-1.77-.2-1.55-.69-2.8-1.13-3.69"/>
          <path class="cls-2" d="M89,113.54c.72,1.44,.86,2.6,.86,3.39,0,.94-.2,1.51-.22,2.91-.01,.95,.07,1.72,.14,2.22"/>
          <ellipse class="cls-2" cx="87.75" cy="120.29" rx=".45" ry=".42" transform="translate(-24.13 22.04) rotate(-12.6)"/>
          <circle class="cls-2" cx="88.7" cy="119.41" r=".22"/>
          <circle class="cls-2" cx="86.37" cy="119.85" r=".3"/>
        </g>
        <g>
          <polygon class="cls-5" points="130.27 121.64 130.29 121.62 131.91 122.58 131.91 122.58 131.92 122.58 131.47 126.4 131.46 126.42 130.27 121.64"/>
          <polygon class="cls-5" points="131.47 126.46 135.37 126.24 135.37 126.25 135.37 126.24 136.29 127.88 131.48 126.5 131.47 126.46"/>
          <path class="cls-5" d="M135.37,126.24h0s0,0,0,0h0s.01,0,.01,0h-.01s0,0,0,0h0Zm1.79-5.2h0s0,0,0,0h.01s0-.01,0-.01h0s0,0,0,0h0Zm-5.25,1.55h0s0,0,0,0h0s0,0,0,0h0s0,0,0,0h0Z"/>
          <polygon class="cls-5" points="137.16 121.04 138.7 119.59 139.9 124.4 139.89 124.41 137.16 121.04"/>
          <polygon class="cls-5" points="133.87 118.16 138.68 119.54 138.7 119.59 137.17 121.03 137.17 121.03 137.16 121.03 133.87 118.17 133.87 118.16"/>
          <polygon class="cls-5" points="131.92 122.58 131.92 122.58 131.92 122.58 131.92 122.58 135.37 126.24 135.37 126.24 131.47 126.46 131.47 126.46 131.47 126.4 131.92 122.58"/>
          <line class="cls-5" x1="135.37" y1="126.24" x2="135.37" y2="126.24"/>
          <polyline class="cls-5" points="131.92 122.58 131.92 122.58 131.92 122.58"/>
          <line class="cls-5" x1="135.37" y1="126.24" x2="135.37" y2="126.24"/>
          <polygon class="cls-5" points="133.87 118.16 133.87 118.17 131.91 122.58 131.91 122.58 130.29 121.62 130.67 121.25 133.87 118.16"/>
          <polyline class="cls-5" points="131.91 122.58 131.92 122.58 131.92 122.58"/>
          <line class="cls-5" x1="131.92" y1="122.58" x2="131.92" y2="122.58"/>
          <line class="cls-5" x1="135.37" y1="126.24" x2="135.37" y2="126.24"/>
          <polygon class="cls-5" points="131.92 122.58 137.16 121.03 137.16 121.04 137.16 121.04 135.37 126.24 131.92 122.58"/>
          <line class="cls-5" x1="137.16" y1="121.03" x2="137.17" y2="121.03"/>
          <line class="cls-5" x1="131.9" y1="122.59" x2="131.91" y2="122.58"/>
          <line class="cls-5" x1="137.16" y1="121.03" x2="137.16" y2="121.04"/>
          <polygon class="cls-5" points="135.37 126.24 135.37 126.24 135.38 126.24 139.87 124.43 136.62 127.57 136.3 127.88 136.29 127.88 135.37 126.24"/>
          <polygon class="cls-5" points="137.16 121.04 137.16 121.04 139.89 124.41 139.87 124.43 135.38 126.24 135.37 126.24 135.37 126.24 137.16 121.04"/>
          <polygon class="cls-5" points="133.87 118.17 137.16 121.03 137.16 121.03 137.16 121.03 131.92 122.58 131.91 122.58 133.87 118.17"/>
          <line class="cls-5" x1="137.17" y1="121.03" x2="137.17" y2="121.03"/>
          <line class="cls-5" x1="137.16" y1="121.04" x2="137.16" y2="121.04"/>
          <text class="cls-14" transform="translate(133.91 123.09) rotate(46.67)"><tspan x="0" y="0">1</tspan></text>
        </g>
        <g>
          <polygon class="cls-16" points="34.42 137.64 34.41 137.62 35.64 136.81 35.64 136.81 35.64 136.8 38.17 138.42 38.17 138.44 34.42 137.64"/>
          <polygon class="cls-16" points="38.21 138.45 39.38 135.64 39.39 135.64 39.39 135.64 40.85 135.55 38.24 138.45 38.21 138.45"/>
          <path class="cls-16" d="M39.38,135.64h0s0,0,0,0h0s0,0,0,0h0s0,.01,0,.01h0Zm-3.03-3.03h0s0,0,0,0h0s0,0,0,0h0s0,0,0,0h0Zm-.71,4.21h0s0,0,0,0h0s0,0,0,0h0s0,0,0,0h0Z"/>
          <polygon class="cls-16" points="36.35 132.6 35.87 131.03 39.64 131.84 39.65 131.84 36.35 132.6"/>
          <polygon class="cls-16" points="33.21 133.92 35.83 131.02 35.87 131.03 36.35 132.59 36.35 132.6 36.35 132.6 33.22 133.92 33.21 133.92"/>
          <polygon class="cls-16" points="35.64 136.8 35.64 136.8 35.64 136.8 35.64 136.8 39.38 135.64 39.38 135.64 38.21 138.45 38.2 138.44 38.17 138.42 35.64 136.8"/>
          <line class="cls-16" x1="39.38" y1="135.64" x2="39.39" y2="135.63"/>
          <polyline class="cls-16" points="35.64 136.8 35.64 136.8 35.64 136.8"/>
          <line class="cls-16" x1="39.38" y1="135.64" x2="39.38" y2="135.64"/>
          <polygon class="cls-16" points="33.21 133.93 33.22 133.92 35.63 136.8 35.64 136.81 34.41 137.62 34.28 137.22 33.21 133.93"/>
          <polyline class="cls-16" points="35.64 136.81 35.64 136.8 35.64 136.8"/>
          <line class="cls-16" x1="35.64" y1="136.8" x2="35.64" y2="136.8"/>
          <line class="cls-16" x1="39.38" y1="135.64" x2="39.39" y2="135.64"/>
          <polygon class="cls-16" points="35.64 136.8 36.35 132.6 36.35 132.6 36.36 132.61 39.38 135.64 35.64 136.8"/>
          <line class="cls-16" x1="36.35" y1="132.6" x2="36.35" y2="132.6"/>
          <line class="cls-16" x1="35.64" y1="136.82" x2="35.64" y2="136.81"/>
          <line class="cls-16" x1="36.35" y1="132.6" x2="36.35" y2="132.6"/>
          <polygon class="cls-16" points="39.39 135.64 39.39 135.63 39.39 135.63 39.66 131.87 40.74 135.21 40.85 135.55 40.85 135.55 39.39 135.64"/>
          <polygon class="cls-16" points="36.36 132.61 36.35 132.6 39.65 131.84 39.66 131.87 39.39 135.63 39.38 135.64 39.38 135.64 36.36 132.61"/>
          <polygon class="cls-16" points="33.22 133.92 36.35 132.6 36.35 132.6 36.35 132.6 35.64 136.8 35.63 136.8 33.22 133.92"/>
          <line class="cls-16" x1="36.35" y1="132.6" x2="36.35" y2="132.6"/>
          <line class="cls-16" x1="36.35" y1="132.6" x2="36.35" y2="132.6"/>
          <text class="cls-3" transform="translate(36.68 135.58) rotate(-17.29)"><tspan x="0" y="0">1</tspan></text>
        </g>
        <g>
          <polygon class="cls-16" points="43.33 117.48 43.35 117.47 44.33 118.56 44.33 118.57 44.33 118.57 43.1 121.3 43.09 121.31 43.33 117.48"/>
          <polygon class="cls-16" points="43.08 121.34 46.03 122.1 46.03 122.1 46.04 122.1 46.33 123.54 43.08 121.38 43.08 121.34"/>
          <path class="cls-16" d="M46.03,122.1h0s0,0,0,0h0s0,0,0,0h-.01s0,0,0,0h0Zm2.56-3.44h0s0,0,0,0h.01s0,0,0,0h0s0,0,0,0h0Zm-4.26-.09h0s0,0,0,0h0s0,0,0,0h0s0,0,0,0h0Z"/>
          <polygon class="cls-16" points="48.59 118.66 50.08 117.95 49.83 121.8 49.83 121.81 48.59 118.66"/>
          <polygon class="cls-16" points="46.83 115.74 50.08 117.9 50.08 117.95 48.6 118.65 48.6 118.65 48.6 118.65 46.83 115.75 46.83 115.74"/>
          <polygon class="cls-16" points="44.33 118.57 44.33 118.57 44.33 118.57 44.33 118.57 46.03 122.1 46.03 122.1 43.08 121.34 43.08 121.34 43.1 121.3 44.33 118.57"/>
          <line class="cls-16" x1="46.03" y1="122.1" x2="46.04" y2="122.1"/>
          <polyline class="cls-16" points="44.33 118.56 44.33 118.57 44.33 118.57"/>
          <line class="cls-16" x1="46.03" y1="122.1" x2="46.03" y2="122.1"/>
          <polygon class="cls-16" points="46.82 115.74 46.83 115.75 44.33 118.56 44.33 118.56 43.35 117.47 43.72 117.29 46.82 115.74"/>
          <polyline class="cls-16" points="44.33 118.56 44.33 118.57 44.33 118.57"/>
          <line class="cls-16" x1="44.33" y1="118.57" x2="44.33" y2="118.57"/>
          <line class="cls-16" x1="46.03" y1="122.1" x2="46.04" y2="122.1"/>
          <polygon class="cls-16" points="44.33 118.57 48.59 118.65 48.59 118.66 48.59 118.66 46.03 122.1 44.33 118.57"/>
          <line class="cls-16" x1="48.59" y1="118.65" x2="48.6" y2="118.65"/>
          <line class="cls-16" x1="44.32" y1="118.57" x2="44.33" y2="118.57"/>
          <line class="cls-16" x1="48.59" y1="118.65" x2="48.59" y2="118.66"/>
          <polygon class="cls-16" points="46.04 122.1 46.04 122.1 46.04 122.1 49.8 121.82 46.65 123.38 46.33 123.54 46.33 123.54 46.04 122.1"/>
          <polygon class="cls-16" points="48.59 118.66 48.59 118.66 49.83 121.81 49.8 121.82 46.04 122.1 46.03 122.1 46.03 122.1 48.59 118.66"/>
          <polygon class="cls-16" points="46.83 115.75 48.6 118.65 48.59 118.65 48.59 118.65 44.33 118.57 44.33 118.56 46.83 115.75"/>
          <line class="cls-16" x1="48.6" y1="118.65" x2="48.6" y2="118.66"/>
          <line class="cls-16" x1="48.59" y1="118.66" x2="48.59" y2="118.66"/>
          <text class="cls-3" transform="translate(45.7 119.41) rotate(64.3)"><tspan x="0" y="0">1</tspan></text>
        </g>
        <g>
          <polygon class="cls-20" points="74.56 35.08 74.57 35.04 77.53 35.08 77.53 35.08 77.53 35.08 79.9 40.62 79.89 40.65 74.56 35.08"/>
          <polygon class="cls-20" points="79.94 40.7 85.07 37.37 85.07 37.38 85.08 37.37 87.6 38.88 79.99 40.75 79.94 40.7"/>
          <path class="cls-20" d="M85.07,37.37h0s0,0,0,0h0s.01-.01,.01-.01h-.02s0,0,0,0h0Zm-1.61-8.47h0s0,.01,0,.01v-.03s0,0,0,0h0s0,0,0,0h0Zm-5.93,6.18h0s0,0,0,0h0s0,0,0,0h0s-.01,0-.01,0h0Z"/>
          <polygon class="cls-20" points="83.47 28.9 84.43 25.74 89.8 31.35 89.79 31.36 83.47 28.9"/>
          <polygon class="cls-20" points="76.76 27.55 84.37 25.68 84.43 25.74 83.47 28.88 83.46 28.89 83.46 28.89 76.76 27.55 76.76 27.55"/>
          <polygon class="cls-20" points="77.53 35.08 77.53 35.07 77.54 35.08 77.54 35.07 85.07 37.36 85.07 37.37 79.94 40.7 79.94 40.7 79.9 40.62 77.53 35.08"/>
          <line class="cls-20" x1="85.07" y1="37.37" x2="85.08" y2="37.37"/>
          <polyline class="cls-20" points="77.53 35.07 77.53 35.08 77.53 35.08"/>
          <line class="cls-20" x1="85.07" y1="37.37" x2="85.07" y2="37.37"/>
          <polygon class="cls-20" points="76.75 27.55 76.76 27.55 77.52 35.07 77.53 35.08 74.57 35.04 74.8 34.24 76.75 27.55"/>
          <polyline class="cls-20" points="77.53 35.08 77.53 35.08 77.53 35.07"/>
          <line class="cls-20" x1="77.54" y1="35.08" x2="77.54" y2="35.08"/>
          <line class="cls-20" x1="85.07" y1="37.37" x2="85.08" y2="37.37"/>
          <polygon class="cls-20" points="77.54 35.07 83.46 28.9 83.46 28.9 83.46 28.91 85.07 37.36 77.54 35.07"/>
          <line class="cls-20" x1="83.46" y1="28.89" x2="83.46" y2="28.89"/>
          <line class="cls-20" x1="77.51" y1="35.1" x2="77.53" y2="35.08"/>
          <line class="cls-20" x1="83.46" y1="28.89" x2="83.46" y2="28.9"/>
          <polygon class="cls-20" points="85.08 37.37 85.08 37.37 85.09 37.36 89.78 31.42 87.8 38.2 87.6 38.88 87.6 38.88 85.08 37.37"/>
          <polygon class="cls-20" points="83.46 28.91 83.47 28.9 89.79 31.36 89.78 31.42 85.09 37.36 85.07 37.37 85.07 37.36 83.46 28.91"/>
          <polygon class="cls-20" points="76.76 27.55 83.46 28.89 83.46 28.89 83.46 28.9 77.54 35.07 77.52 35.07 76.76 27.55"/>
          <line class="cls-20" x1="83.46" y1="28.89" x2="83.47" y2="28.89"/>
          <line class="cls-20" x1="83.46" y1="28.9" x2="83.47" y2="28.9"/>
          <text class="cls-24" transform="translate(80.64 34.21) rotate(16.93)"><tspan x="0" y="0">1</tspan></text>
        </g>
        <g>
          <polygon class="cls-10" points="87.2 80.54 83.3 78.4 79.32 80.39 80.16 76.02 77.02 72.85 81.45 72.29 83.49 68.33 85.39 72.37 89.78 73.09 86.54 76.14 87.2 80.54"/>
          <polygon class="cls-10" points="91.3 78.37 90.5 77.91 89.67 78.3 89.86 77.4 89.23 76.74 90.15 76.64 90.59 75.83 90.96 76.67 91.86 76.84 91.18 77.46 91.3 78.37"/>
          <polygon class="cls-10" points="78.63 66.72 77.87 66.34 77.13 66.75 77.26 65.91 76.64 65.32 77.48 65.19 77.84 64.42 78.23 65.18 79.07 65.29 78.47 65.89 78.63 66.72"/>
          <polygon class="cls-10" points="84 75.42 83.1 74.93 82.17 75.39 82.36 74.37 81.63 73.64 82.66 73.51 83.14 72.58 83.58 73.52 84.6 73.69 83.85 74.4 84 75.42"/>
        </g>
        <g>
          <polygon class="cls-10" points="24.49 47 20.59 44.85 16.61 46.84 17.45 42.47 14.31 39.3 18.74 38.74 20.78 34.78 22.68 38.82 27.07 39.54 23.83 42.59 24.49 47"/>
          <polygon class="cls-10" points="28.59 44.82 27.79 44.36 26.96 44.75 27.16 43.86 26.52 43.19 27.44 43.09 27.88 42.28 28.25 43.12 29.15 43.29 28.47 43.91 28.59 44.82"/>
          <polygon class="cls-10" points="15.92 33.17 15.16 32.79 14.42 33.2 14.55 32.36 13.93 31.77 14.77 31.64 15.13 30.87 15.52 31.63 16.36 31.74 15.76 32.34 15.92 33.17"/>
          <polygon class="cls-10" points="21.3 41.88 20.39 41.38 19.46 41.84 19.65 40.82 18.92 40.09 19.95 39.96 20.43 39.03 20.87 39.97 21.89 40.14 21.14 40.85 21.3 41.88"/>
        </g>
        <g>
          <polygon class="cls-12" points="22.57 10.09 20.94 9.19 19.27 10.03 19.62 8.2 18.31 6.87 20.16 6.64 21.02 4.99 21.81 6.67 23.65 6.98 22.29 8.25 22.57 10.09"/>
          <polygon class="cls-12" points="21.23 7.95 20.85 7.74 20.47 7.94 20.55 7.51 20.24 7.2 20.67 7.15 20.87 6.76 21.05 7.16 21.48 7.23 21.17 7.52 21.23 7.95"/>
        </g>
        <g>
          <polygon class="cls-12" points="44.25 74.71 42.62 73.81 40.95 74.65 41.3 72.82 39.99 71.49 41.84 71.26 42.7 69.61 43.49 71.29 45.33 71.6 43.97 72.87 44.25 74.71"/>
          <polygon class="cls-12" points="42.91 72.57 42.53 72.36 42.14 72.56 42.22 72.13 41.92 71.82 42.35 71.77 42.55 71.38 42.73 71.78 43.16 71.85 42.85 72.14 42.91 72.57"/>
        </g>
        <g>
          <polygon class="cls-12" points="89.8 132 88.17 131.1 86.5 131.93 86.85 130.1 85.55 128.78 87.39 128.54 88.25 126.89 89.04 128.58 90.88 128.88 89.52 130.15 89.8 132"/>
          <polygon class="cls-12" points="88.46 129.86 88.08 129.65 87.7 129.84 87.78 129.42 87.47 129.11 87.9 129.05 88.1 128.67 88.29 129.06 88.71 129.13 88.4 129.43 88.46 129.86"/>
        </g>
        <g>
          <polygon class="cls-12" points="117.96 119.64 116.33 118.74 114.67 119.58 115.02 117.75 113.71 116.42 115.56 116.19 116.41 114.54 117.2 116.22 119.04 116.52 117.68 117.8 117.96 119.64"/>
          <polygon class="cls-12" points="116.63 117.5 116.25 117.29 115.86 117.49 115.94 117.06 115.63 116.75 116.06 116.7 116.26 116.31 116.45 116.7 116.88 116.77 116.56 117.07 116.63 117.5"/>
        </g>
        <g>
          <polygon class="cls-12" points="137.17 65.5 135.54 64.6 133.88 65.44 134.23 63.61 132.92 62.28 134.77 62.05 135.62 60.39 136.41 62.08 138.25 62.38 136.89 63.66 137.17 65.5"/>
          <polygon class="cls-12" points="135.84 63.36 135.45 63.15 135.07 63.35 135.15 62.92 134.84 62.61 135.27 62.56 135.47 62.17 135.66 62.56 136.09 62.63 135.77 62.93 135.84 63.36"/>
        </g>
        <g>
          <polygon class="cls-27" points="50.83 107.79 49.59 107.11 48.34 107.74 48.6 106.36 47.61 105.36 49.01 105.18 49.66 103.94 50.25 105.21 51.64 105.44 50.61 106.4 50.83 107.79"/>
          <polygon class="cls-27" points="49.82 106.17 49.53 106.02 49.24 106.16 49.3 105.84 49.07 105.61 49.39 105.57 49.54 105.28 49.68 105.57 50.01 105.63 49.77 105.85 49.82 106.17"/>
        </g>
        <g>
          <polygon class="cls-27" points="42.12 101.32 40.89 100.64 39.63 101.27 39.89 99.89 38.91 98.89 40.3 98.72 40.95 97.47 41.55 98.74 42.93 98.97 41.91 99.93 42.12 101.32"/>
          <polygon class="cls-27" points="41.11 99.71 40.82 99.55 40.53 99.7 40.59 99.37 40.36 99.14 40.69 99.1 40.84 98.81 40.98 99.11 41.3 99.16 41.06 99.38 41.11 99.71"/>
        </g>
        <g>
          <polygon class="cls-27" points="8.07 124.71 6.84 124.03 5.59 124.66 5.85 123.28 4.86 122.28 6.26 122.1 6.9 120.85 7.5 122.13 8.89 122.35 7.86 123.32 8.07 124.71"/>
          <polygon class="cls-27" points="7.06 123.09 6.78 122.93 6.49 123.08 6.55 122.76 6.32 122.53 6.64 122.49 6.79 122.19 6.93 122.49 7.25 122.54 7.01 122.77 7.06 123.09"/>
        </g>
        <g>
          <polygon class="cls-9" points="131.57 106.59 127.09 106.73 124.67 110.49 123.16 106.28 118.83 105.13 122.37 102.39 122.12 97.93 125.82 100.45 129.99 98.83 128.74 103.12 131.57 106.59"/>
          <polygon class="cls-9" points="134 102.62 133.08 102.63 132.56 103.39 132.27 102.52 131.38 102.26 132.12 101.71 132.09 100.79 132.84 101.33 133.71 101.01 133.43 101.89 134 102.62"/>
          <polygon class="cls-9" points="117.09 99.02 116.24 99.07 115.8 99.81 115.49 99.01 114.66 98.82 115.31 98.28 115.24 97.43 115.96 97.88 116.74 97.55 116.53 98.37 117.09 99.02"/>
          <polygon class="cls-9" points="126.19 103.8 125.15 103.83 124.58 104.71 124.23 103.73 123.22 103.46 124.04 102.82 123.98 101.78 124.85 102.37 125.82 101.99 125.53 102.99 126.19 103.8"/>
        </g>
        <g>
          <path class="cls-13" d="M52.34,13.64c.03,.31,.17,2.33-1.36,3.9-1.2,1.23-2.67,1.42-3.09,1.45,.31,.02,1.87,.13,3.09,1.45,1.24,1.35,1.19,2.97,1.18,3.27,0-.3,.03-2.05,1.45-3.36,1.12-1.03,2.42-1.16,2.81-1.18-.5-.09-1.65-.38-2.63-1.36-1.65-1.64-1.48-3.84-1.45-4.18Z"/>
          <path class="cls-25" d="M55.34,14.83c0,.09,.05,.65-.38,1.09-.33,.34-.75,.39-.86,.4,.09,0,.52,.04,.86,.4,.35,.38,.33,.83,.33,.91,0-.08,0-.57,.4-.94,.31-.29,.68-.32,.78-.33-.14-.03-.46-.11-.73-.38-.46-.46-.41-1.07-.4-1.16Z"/>
          <path class="cls-25" d="M48.17,12.01c0,.09,.05,.65-.38,1.09-.33,.34-.75,.39-.86,.4,.09,0,.52,.04,.86,.4,.35,.38,.33,.83,.33,.91,0-.08,0-.57,.4-.94,.31-.29,.68-.32,.78-.33-.14-.03-.46-.11-.73-.38-.46-.46-.41-1.07-.4-1.16Z"/>
          <path class="cls-25" d="M49.44,9.02c0,.09,.05,.65-.38,1.09-.33,.34-.75,.39-.86,.4,.09,0,.52,.04,.86,.4,.35,.38,.33,.83,.33,.91,0-.08,0-.57,.4-.94,.31-.29,.68-.32,.78-.33-.14-.03-.46-.11-.73-.38-.46-.46-.41-1.07-.4-1.16Z"/>
          <path class="cls-25" d="M54.52,21.73c0,.09,.05,.65-.38,1.09-.33,.34-.75,.39-.86,.4,.09,0,.52,.04,.86,.4,.35,.38,.33,.83,.33,.91,0-.08,0-.57,.4-.94,.31-.29,.68-.32,.78-.33-.14-.03-.46-.11-.73-.38-.46-.46-.41-1.07-.4-1.16Z"/>
          <path class="cls-25" d="M49.63,20.63c0,.09,.05,.65-.38,1.09-.33,.34-.75,.39-.86,.4,.09,0,.52,.04,.86,.4,.35,.38,.33,.83,.33,.91,0-.08,0-.57,.4-.94,.31-.29,.68-.32,.78-.33-.14-.03-.46-.11-.73-.38-.46-.46-.41-1.07-.4-1.16Z"/>
        </g>
        <g>
          <path class="cls-13" d="M12.47,67.06c.03,.31,.17,2.33-1.36,3.9-1.2,1.23-2.67,1.42-3.09,1.45,.31,.02,1.87,.13,3.09,1.45,1.24,1.35,1.19,2.97,1.18,3.27,0-.3,.03-2.05,1.45-3.36,1.12-1.03,2.42-1.16,2.81-1.18-.5-.09-1.65-.38-2.63-1.36-1.65-1.64-1.48-3.84-1.45-4.18Z"/>
          <path class="cls-25" d="M15.47,68.25c0,.09,.05,.65-.38,1.09-.33,.34-.75,.39-.86,.4,.09,0,.52,.04,.86,.4,.35,.38,.33,.83,.33,.91,0-.08,0-.57,.4-.94,.31-.29,.68-.32,.78-.33-.14-.03-.46-.11-.73-.38-.46-.46-.41-1.07-.4-1.16Z"/>
          <path class="cls-25" d="M8.3,65.43c0,.09,.05,.65-.38,1.09-.33,.34-.75,.39-.86,.4,.09,0,.52,.04,.86,.4,.35,.38,.33,.83,.33,.91,0-.08,0-.57,.4-.94,.31-.29,.68-.32,.78-.33-.14-.03-.46-.11-.73-.38-.46-.46-.41-1.07-.4-1.16Z"/>
          <path class="cls-25" d="M9.57,62.44c0,.09,.05,.65-.38,1.09-.33,.34-.75,.39-.86,.4,.09,0,.52,.04,.86,.4,.35,.38,.33,.83,.33,.91,0-.08,0-.57,.4-.94,.31-.29,.68-.32,.78-.33-.14-.03-.46-.11-.73-.38-.46-.46-.41-1.07-.4-1.16Z"/>
          <path class="cls-25" d="M14.65,75.14c0,.09,.05,.65-.38,1.09-.33,.34-.75,.39-.86,.4,.09,0,.52,.04,.86,.4,.35,.38,.33,.83,.33,.91,0-.08,0-.57,.4-.94,.31-.29,.68-.32,.78-.33-.14-.03-.46-.11-.73-.38-.46-.46-.41-1.07-.4-1.16Z"/>
          <path class="cls-25" d="M9.76,74.05c0,.09,.05,.65-.38,1.09-.33,.34-.75,.39-.86,.4,.09,0,.52,.04,.86,.4,.35,.38,.33,.83,.33,.91,0-.08,0-.57,.4-.94,.31-.29,.68-.32,.78-.33-.14-.03-.46-.11-.73-.38-.46-.46-.41-1.07-.4-1.16Z"/>
        </g>
        <g>
          <path class="cls-13" d="M109.6,16.83c.03,.31,.17,2.33-1.36,3.9-1.2,1.23-2.67,1.42-3.09,1.45,.31,.02,1.87,.13,3.09,1.45,1.24,1.35,1.19,2.97,1.18,3.27,0-.3,.03-2.05,1.45-3.36,1.12-1.03,2.42-1.16,2.81-1.18-.5-.09-1.65-.38-2.63-1.36-1.65-1.64-1.48-3.84-1.45-4.18Z"/>
          <path class="cls-25" d="M112.6,18.02c0,.09,.05,.65-.38,1.09-.33,.34-.75,.39-.86,.4,.09,0,.52,.04,.86,.4,.35,.38,.33,.83,.33,.91,0-.08,0-.57,.4-.94,.31-.29,.68-.32,.78-.33-.14-.03-.46-.11-.73-.38-.46-.46-.41-1.07-.4-1.16Z"/>
          <path class="cls-25" d="M105.43,15.21c0,.09,.05,.65-.38,1.09-.33,.34-.75,.39-.86,.4,.09,0,.52,.04,.86,.4,.35,.38,.33,.83,.33,.91,0-.08,0-.57,.4-.94,.31-.29,.68-.32,.78-.33-.14-.03-.46-.11-.73-.38-.46-.46-.41-1.07-.4-1.16Z"/>
          <path class="cls-25" d="M106.7,12.21c0,.09,.05,.65-.38,1.09-.33,.34-.75,.39-.86,.4,.09,0,.52,.04,.86,.4,.35,.38,.33,.83,.33,.91,0-.08,0-.57,.4-.94,.31-.29,.68-.32,.78-.33-.14-.03-.46-.11-.73-.38-.46-.46-.41-1.07-.4-1.16Z"/>
          <path class="cls-25" d="M111.78,24.92c0,.09,.05,.65-.38,1.09-.33,.34-.75,.39-.86,.4,.09,0,.52,.04,.86,.4,.35,.38,.33,.83,.33,.91,0-.08,0-.57,.4-.94,.31-.29,.68-.32,.78-.33-.14-.03-.46-.11-.73-.38-.46-.46-.41-1.07-.4-1.16Z"/>
          <path class="cls-25" d="M106.89,23.83c0,.09,.05,.65-.38,1.09-.33,.34-.75,.39-.86,.4,.09,0,.52,.04,.86,.4,.35,.38,.33,.83,.33,.91,0-.08,0-.57,.4-.94,.31-.29,.68-.32,.78-.33-.14-.03-.46-.11-.73-.38-.46-.46-.41-1.07-.4-1.16Z"/>
        </g>
        <g>
          <path class="cls-28" d="M83.38,49.44c-.78-.25-.35,1.02,.16,1.19,.31,.1,.61-.06,.75-.34,.19-.38,0-.79-.26-1.08-.57-.63-1.79-.98-2.07,.12-.25,.97,.79,1.7,1.57,1.98,1.41,.5,2.92,.07,4.36,.34s2.57,1.17,3.27,2.4c.63,1.11,.93,2.36,1.38,3.54,.33,.85,.84,2.2,1.71,2.66,.36,.19,.76,.05,.98-.28,.28-.44,.08-1-.22-1.36-.21-.26-.56-.47-.86-.21-.35,.31-.09,.75,.17,1.01,.2,.21,.52-.11,.32-.32-.38-.4,.13-.12,.2,.05-.25,.59-.48,.72-.69,.4l-.12-.14c-.26-.32-.47-.68-.65-1.04-.36-.71-.6-1.47-.86-2.22-.46-1.33-.97-2.71-2.04-3.69-1.22-1.11-2.7-1.36-4.29-1.33-.9,.01-1.83,.05-2.68-.31-.47-.2-1.1-.59-1.09-1.16,0-.64,.65-.65,1.05-.35,.1,.07,.19,.14,.26,.23-.06,.43-.21,.54-.45,.34,.28,.09,.39-.34,.12-.43h0Z"/>
          <path class="cls-28" d="M82.11,50.38c3.89,3.26,7.78,6.51,11.67,9.77,.22,.18,.54-.13,.32-.32-3.89-3.25-7.78-6.51-11.67-9.77-.22-.18-.54,.13-.32,.32h0Z"/>
        </g>
        <g>
          <path class="cls-28" d="M80.32,138.04c.73,.4,.55-.86,.14-1.15-.71-.5-1.16,.5-.91,1.07,.31,.71,1.29,1.47,1.96,.74s.04-1.78-.62-2.29c-1.1-.84-2.53-.86-3.82-1.18-1.43-.35-2.62-1.27-3.24-2.61-.58-1.25-.65-2.66-.85-4-.16-1.02-.37-2.46-1.15-3.22-.27-.27-.63-.32-.95-.09-.42,.3-.44,.84-.27,1.29,.12,.32,.4,.77,.82,.62,.49-.18,.31-.74,.12-1.06-.15-.25-.54-.02-.39,.23-.06,.37-.08,.3-.07-.22-.16-.53,.02-.63,.54-.29,.12,.11,.23,.4,.29,.54,.18,.38,.3,.79,.4,1.2,.19,.78,.27,1.58,.38,2.37,.2,1.43,.5,2.86,1.45,3.99,1.04,1.23,2.43,1.64,3.96,1.91,.81,.15,1.67,.31,2.36,.79,.24,.16,.48,.38,.64,.63,.21,.33,.47,1.35-.44,1.22-.17-.03-.68-.45-.68-.62l.28-.51c-.02,.23,.06,.31,.23,.25-.25-.14-.48,.25-.23,.39h0Z"/>
          <path class="cls-28" d="M81.74,137.34c-3.18-3.95-6.37-7.9-9.55-11.85-.18-.22-.5,.09-.32,.32,3.19,3.95,6.37,7.9,9.55,11.85,.18,.22,.5-.09,.32-.32h0Z"/>
        </g>
        <g>
          <path class="cls-28" d="M116.66,86.03c-.78,.16,.15,.95,.58,.96,.76,.02,.77-.9,.28-1.28-.58-.46-1.85-.49-2.14,.32-.34,.96,.75,1.54,1.53,1.6,1.41,.11,2.6-.78,3.78-1.41,1.63-.87,3.43-.9,5.03,.07,1.12,.68,2.01,1.67,3.01,2.49,.64,.53,1.97,1.66,2.89,1.39,1.05-.3,.31-1.55-.37-1.79-.29-.1-.64-.13-.8,.18-.24,.46,.26,.75,.61,.87,.27,.09,.39-.34,.12-.43l.08-.12c.17,.67,.1,.93-.22,.78-.18,.01-.51-.21-.66-.29-.3-.15-.58-.34-.85-.53-.6-.43-1.14-.94-1.69-1.43-.99-.89-2.04-1.79-3.36-2.15-1.5-.41-2.93-.04-4.25,.7-.75,.42-1.49,.92-2.34,1.13-.37,.09-1.43,.26-1.72-.13l.28-1.12,.37,.05c.21,0,.27,.1,.2,.32,.1,.26,.02,.35-.23,.25,.28-.06,.16-.49-.12-.43h0Z"/>
          <path class="cls-28" d="M116.02,87.47c4.98,.96,9.96,1.92,14.95,2.87,.28,.05,.4-.38,.12-.43-4.98-.96-9.96-1.92-14.95-2.87-.28-.05-.4,.38-.12,.43h0Z"/>
        </g>
        <g>
          <circle class="cls-9" cx="103.63" cy="38.63" r="4.28"/>
          <path class="cls-9" d="M107.48,42.17l1.09,1.39c-.49,.32-1.01,.64-1.46,.91l-.72-.93c.33-.44,.73-.92,1.1-1.37Z"/>
          <path class="cls-9" d="M106.77,41.25l.24,.31c-.37,.3-.81,.66-1.32,1.09l-.27-.35,1.35-1.05Z"/>
          <path class="cls-9" d="M109.88,45.24c-.5,.25-1.03,.52-1.51,.74h2.05c-.41,.36-.85,.75-1.27,1.11l-.84-1.08s.04-.02,.06-.03h-.08s-.54-.7-.54-.7c.37-.37,.82-.79,1.25-1.18l.89,1.13Z"/>
          <path class="cls-9" d="M108.37,45.99s-.04,.02-.06,.03l-.02-.03h.08Z"/>
          <path class="cls-9" d="M109.88,45.24l.58,.75h-.05s-2.05,0-2.05,0c.48-.23,1.01-.5,1.51-.74Z"/>
          <path class="cls-9" d="M111.05,46.74l.81,1.04-1.35,1.05-.95-1.22c.41-.23,.89-.52,1.49-.88Z"/>
          <polygon class="cls-9" points="134.21 77.48 112.51 48.23 110.66 49.58 134.21 77.48"/>
          <path class="cls-9" d="M119.06,42.66c-.31-.24-.73-.32-1.1-.17-.49,.19-.71,.66-.67,1.12l-.03-.04-12.03,9.52c-.5-.24-1.11-.13-1.44,.42-.16,.27-.18,.61-.08,.91,.3,.86,1.25,1.14,1.85,.67,.29-.23,.42-.58,.4-.94l.03,.04,12.05-9.53c.38,.17,.82,.15,1.15-.11,.56-.44,.55-1.37-.12-1.88Z"/>
          <path class="cls-9" d="M110.46,45.99l.58,.75c-.59,.36-1.08,.65-1.49,.88l-.41-.53c.41-.36,.86-.74,1.27-1.1h.05Z"/>
          <path class="cls-9" d="M107.01,41.57l.47,.61c-.37,.45-.77,.93-1.1,1.37l-.69-.89c.51-.43,.95-.79,1.32-1.09Z"/>
          <path class="cls-9" d="M108.57,43.56l.43,.54c-.43,.4-.88,.82-1.25,1.18l-.64-.82c.46-.26,.97-.59,1.46-.91Z"/>
          <path class="cls-9" d="M105.75,36.33c.54,.69,.72,1.54,.58,2.33-.1-.23-.23-.45-.4-.66-1.05-1.35-2.97-1.61-4.29-.58-.37,.29-.66,.65-.85,1.05-.19-1,.16-2.05,1-2.7,1.21-.95,2.99-.7,3.96,.56Z"/>
        </g>
        <g>
          <circle class="cls-9" cx="34.92" cy="50.43" r="4.28"/>
          <path class="cls-9" d="M35.06,55.66l-.24,1.75c-.57-.13-1.16-.27-1.67-.42l.16-1.17c.55-.07,1.17-.12,1.75-.17Z"/>
          <path class="cls-9" d="M35.22,54.51l-.05,.39c-.47-.06-1.04-.12-1.7-.19l.06-.44,1.7,.23Z"/>
          <path class="cls-9" d="M34.53,59.52c-.52-.18-1.09-.38-1.59-.56l1.42,1.47c-.54-.04-1.13-.09-1.67-.14l.19-1.35s.04,.01,.06,.02l-.06-.06,.12-.87c.52,0,1.13,.04,1.72,.07l-.2,1.43Z"/>
          <path class="cls-9" d="M32.94,58.95s-.04-.01-.06-.02v-.03s.06,.06,.06,.06Z"/>
          <path class="cls-9" d="M34.53,59.52l-.13,.94-.03-.03-1.42-1.47c.5,.19,1.06,.38,1.59,.56Z"/>
          <path class="cls-9" d="M34.27,61.4l-.18,1.31-1.7-.23,.21-1.53c.45,.13,1,.28,1.67,.45Z"/>
          <polygon class="cls-9" points="28.39 99.43 34.22 63.49 31.97 63.1 28.39 99.43"/>
          <path class="cls-9" d="M42.79,64.3c-.05-.39-.28-.75-.64-.91-.48-.21-.97-.05-1.27,.3v-.05s-15.2-1.99-15.2-1.99c-.18-.53-.68-.89-1.3-.74-.31,.07-.56,.29-.71,.57-.41,.81,.06,1.69,.8,1.79,.36,.05,.71-.1,.95-.37v.05s15.23,1.99,15.23,1.99c.14,.39,.46,.69,.88,.74,.71,.09,1.36-.56,1.26-1.4Z"/>
          <path class="cls-9" d="M34.4,60.46l-.13,.94c-.67-.18-1.22-.32-1.67-.45l.09-.67c.54,.05,1.13,.1,1.67,.14l.03,.03Z"/>
          <path class="cls-9" d="M35.17,54.9l-.1,.76c-.58,.05-1.2,.1-1.75,.17l.15-1.11c.67,.07,1.23,.13,1.7,.19Z"/>
          <path class="cls-9" d="M34.82,57.41l-.09,.68c-.59-.03-1.2-.06-1.72-.07l.14-1.03c.51,.15,1.1,.28,1.67,.42Z"/>
          <path class="cls-9" d="M38.04,50.35c-.12,.87-.6,1.6-1.27,2.04,.09-.23,.16-.48,.19-.74,.23-1.69-.92-3.25-2.58-3.48-.47-.06-.93-.02-1.35,.12,.59-.83,1.58-1.31,2.63-1.17,1.52,.21,2.58,1.65,2.36,3.23Z"/>
        </g>
        <g>
          <circle class="cls-17" cx="40.57" cy="82.81" r="1.69"/>
          <path class="cls-17" d="M40.25,84.85l-.22,.66c-.21-.09-.43-.19-.62-.28l.15-.44c.22,.01,.46,.04,.69,.06Z"/>
          <path class="cls-17" d="M40.39,84.42l-.05,.15c-.18-.06-.39-.12-.65-.2l.05-.16,.64,.21Z"/>
          <path class="cls-17" d="M39.76,86.31c-.19-.11-.4-.23-.58-.33l.45,.68c-.21-.06-.43-.12-.64-.18l.17-.51s.01,0,.02,.01l-.02-.03,.11-.33c.2,.04,.44,.1,.66,.15l-.18,.54Z"/>
          <path class="cls-17" d="M39.19,85.98s-.01,0-.02-.01h0s.02,.01,.02,.01Z"/>
          <path class="cls-17" d="M39.76,86.31l-.12,.36v-.02s-.46-.68-.46-.68c.18,.11,.39,.22,.58,.33Z"/>
          <path class="cls-17" d="M39.53,87.03l-.17,.5-.64-.21,.19-.58c.17,.08,.37,.18,.62,.3Z"/>
          <polygon class="cls-17" points="34.48 101.37 39.36 87.83 38.51 87.52 34.48 101.37"/>
          <path class="cls-17" d="M42.62,88.77c.01-.15-.06-.31-.18-.4-.17-.12-.37-.09-.52,.03v-.02s-5.76-1.88-5.76-1.88c-.03-.22-.2-.4-.45-.38-.12,0-.24,.07-.32,.17-.22,.29-.1,.66,.18,.75,.14,.04,.28,.01,.39-.07v.02s5.77,1.88,5.77,1.88c.03,.16,.13,.3,.29,.35,.27,.09,.57-.12,.59-.45Z"/>
          <path class="cls-17" d="M39.64,86.67l-.12,.36c-.25-.12-.45-.21-.62-.3l.08-.25c.21,.06,.43,.12,.64,.18v.02Z"/>
          <path class="cls-17" d="M40.35,84.57l-.1,.29c-.23-.02-.48-.05-.69-.06l.14-.42c.25,.07,.47,.14,.65,.2Z"/>
          <path class="cls-17" d="M40.03,85.52l-.09,.26c-.23-.05-.46-.11-.66-.15l.13-.39c.19,.09,.41,.19,.62,.28Z"/>
          <path class="cls-17" d="M41.79,83.01c-.11,.33-.35,.58-.64,.7,.05-.08,.1-.18,.13-.27,.21-.64-.12-1.33-.75-1.54-.18-.06-.36-.07-.53-.05,.29-.28,.71-.4,1.11-.26,.58,.19,.88,.83,.68,1.43Z"/>
        </g>
        <g>
          <line class="cls-4" x1="-3" y1="5.7" x2="5.39" y2="16.03"/>
          <polyline class="cls-4" points="4.64 18.04 5.39 16.03 8.07 16.3 9.08 20.64 4.64 18.04 8.07 16.3"/>
        </g>
        <g>
          <polygon class="cls-4" points="10.04 12.56 10.12 12.58 10.64 10.47 12 11.41 11.13 13.91 10.04 12.56"/>
          <polygon class="cls-4" points="7.41 11.91 10.04 12.56 11.13 13.91 11.12 13.93 8.08 13.57 7.41 11.91"/>
          <line class="cls-4" x1="11.13" y1="13.91" x2="19.52" y2="24.25"/>
          <polyline class="cls-4" points="18.77 26.26 19.52 24.25 22.19 24.52 23.21 28.86 18.77 26.26 22.19 24.52"/>
          <polygon class="cls-4" points="8.52 10.69 8.64 10.72 8.99 9.32 10.64 10.47 10.12 12.58 10.04 12.56 8.52 10.69"/>
          <polygon class="cls-4" points="6.75 10.25 8.52 10.69 10.04 12.56 7.41 11.91 6.75 10.25"/>
          <polygon class="cls-4" points="5.37 6.81 5.43 6.88 8.52 10.69 6.75 10.25 5.37 6.81"/>
          <polygon class="cls-4" points="5.37 6.81 8.99 9.32 8.64 10.72 8.52 10.69 5.43 6.88 5.37 6.81"/>
        </g>
      </g>
      <rect class="cls-30" width="141.73" height="141.73"/>
      <g>
        <g>
          <path class="cls-22" d="M118.19,10.55c-3.01-4.17,1.5-11.66,2.8-11.45,.59,.1,.11,1.75,1.46,4.39,1.37,2.69,2.82,2.86,3.33,5.06,.27,1.19,.33,3.21-.8,4.13-1.6,1.29-5.21,.05-6.79-2.13Z"/>
          <path class="cls-22" d="M128.17,2.3c.61-1.51,2.27-1.6,3.46-4.13,.71-1.51,.64-2.59,1.13-2.66,.69-.1,1.21,1.94,2.6,4.39,2.51,4.43,4.82,4.84,4.66,6.79-.18,2.15-3.2,4.29-5.99,4.13-4.3-.25-6.92-5.89-5.86-8.52Z"/>
          <path class="cls-22" d="M126.31,21.4c.58-1.56-.38-3.93-1.73-4.33-1.93-.56-4.82,2.86-5.32,5.99-.03,.17-.36,2.31,.4,2.66,.44,.21,1.01-.33,2-1.06,3.18-2.38,4.2-2.03,4.66-3.26Z"/>
          <path class="cls-28" d="M119.78,2.56c.71,4.14,1.84,8.63,5.19,11.4,2.22,1.99,5.5,1.56,7.83,3.4,1.18,.9,2.1,2.11,2.68,3.45,1.21,2.68,1.41,5.64,1.34,8.5-.11-2.84-.45-5.76-1.7-8.33-.62-1.27-1.48-2.41-2.6-3.25-2.3-1.73-5.65-1.36-7.84-3.41-3.43-2.85-4.47-7.55-4.9-11.76h0Z"/>
          <path class="cls-28" d="M122.18,22.13c.6-3.29,3.62-5.97,6.92-6.26-3.09,1.03-5.61,3.24-6.92,6.26h0Z"/>
          <path class="cls-28" d="M132.83,2.03c1.94,1.99,3.18,5.37,1.86,8.01-.75,1.21-1.78,2.17-2.04,3.6-.29,1.34-.05,2.78,.44,4.1-.69-1.24-1.06-2.71-.83-4.17,.15-1.47,1.28-2.61,1.98-3.79,1.24-2.49,.11-5.6-1.42-7.75h0Z"/>
        </g>
        <g>
          <path class="cls-22" d="M118.19,152.28c-3.01-4.17,1.5-11.66,2.8-11.45,.59,.1,.11,1.75,1.46,4.39,1.37,2.69,2.82,2.86,3.33,5.06,.27,1.19,.33,3.21-.8,4.13-1.6,1.29-5.21,.05-6.79-2.13Z"/>
          <path class="cls-22" d="M128.17,144.03c.61-1.51,2.27-1.6,3.46-4.13,.71-1.51,.64-2.59,1.13-2.66,.69-.1,1.21,1.94,2.6,4.39,2.51,4.43,4.82,4.84,4.66,6.79-.18,2.15-3.2,4.29-5.99,4.13-4.3-.25-6.92-5.89-5.86-8.52Z"/>
        </g>
        <g>
          <path class="cls-20" d="M68.14,23.53c.99-1.55-.77-4.12-1.23-4.02-.21,.05,0,.62-.43,1.59-.43,.98-.94,1.08-1.08,1.87-.07,.43-.05,1.15,.37,1.45,.6,.43,1.86-.09,2.37-.9Z"/>
          <path class="cls-20" d="M64.41,20.8c-.25-.52-.84-.52-1.32-1.4-.28-.52-.28-.91-.46-.92-.25-.02-.39,.72-.83,1.62-.8,1.63-1.62,1.82-1.52,2.51,.11,.76,1.23,1.46,2.22,1.35,1.53-.18,2.34-2.24,1.91-3.15Z"/>
          <path class="cls-20" d="M65.47,27.56c-.24-.54,.05-1.41,.53-1.58,.67-.24,1.77,.92,2.02,2.02,.01,.06,.17,.82-.09,.96-.15,.08-.37-.1-.73-.34-1.18-.78-1.54-.64-1.73-1.06Z"/>
          <path class="cls-28" d="M67.4,20.72c.11,2.02-.59,4.63-2.82,5.2-1.01,.22-1.74,.79-2.14,1.72-.4,.9-.5,1.93-.55,2.95-.16-1.01-.18-2.08,.18-3.1,.3-1.05,1.33-1.86,2.36-2.07,2.06-.53,2.66-2.83,2.97-4.7h0Z"/>
          <path class="cls-28" d="M66.95,27.74c-.75-.94-1.54-1.55-2.59-2.08,1.22-.22,2.55,.84,2.59,2.08h0Z"/>
          <path class="cls-28" d="M62.75,20.8c-.38,.81-.65,1.93-.21,2.7,.23,.35,.7,.78,.77,1.37,.09,.55-.05,1.1-.34,1.53,.08-.51,.1-1-.05-1.44-.13-.44-.48-.71-.82-1.18-.57-1.01-.14-2.27,.64-2.98h0Z"/>
        </g>
        <g>
          <path class="cls-23" d="M40.27,24.2c-1.57-2.51-6.55-1.73-6.72-1-.08,.34,.91,.44,2.03,1.74,1.14,1.32,.92,2.13,1.98,2.88,.57,.4,1.64,.88,2.38,.47,1.04-.57,1.16-2.77,.34-4.09Z"/>
          <path class="cls-23" d="M33.69,27.74c-.94,0-1.35,.87-2.96,.95-.96,.05-1.52-.22-1.67,.03-.2,.34,.78,1.07,1.78,2.34,1.82,2.3,1.54,3.63,2.61,3.96,1.19,.37,2.99-.78,3.51-2.3,.8-2.35-1.64-4.98-3.28-4.98Z"/>
          <path class="cls-23" d="M44.3,30.9c-.96-.03-2.02-1.06-1.93-1.86,.12-1.15,2.57-1.95,4.36-1.54,.1,.02,1.31,.31,1.33,.79,.01,.28-.39,.47-1,.83-1.96,1.18-2,1.8-2.75,1.78Z"/>
          <path class="cls-28" d="M35.66,23.32c3.03,1.25,6.35,4.08,5.63,7.73-.37,1.62-.06,3.09,1.03,4.33,1.05,1.24,2.51,2.08,3.93,2.86-1.59-.47-3.16-1.19-4.4-2.43-4.16-4.61,2.61-6.45-6.18-12.49h0Z"/>
          <path class="cls-28" d="M45.59,28.85c-1.93,.46-3.27,1.14-4.85,2.34,.53-1.94,2.99-3.15,4.85-2.34h0Z"/>
          <path class="cls-28" d="M32.54,30.17c.96,1.13,2.28,2.26,3.8,2.18,.76-.12,1.72-.46,2.53-.18,.88,.24,1.57,.85,2,1.56-.67-.49-1.41-.83-2.14-.92-.73-.12-1.37,.2-2.29,.37-1.79,.17-3.44-1.38-3.91-3h0Z"/>
        </g>
        <g>
          <path class="cls-20" d="M102.01,76.4c-.59-1.73-3.7-1.96-3.91-1.54-.09,.19,.48,.39,.98,1.33,.5,.95,.25,1.41,.79,2.01,.29,.32,.87,.76,1.37,.62,.71-.2,1.09-1.51,.78-2.41Z"/>
          <path class="cls-20" d="M97.55,77.61c-.57-.13-.93,.33-1.91,.16-.59-.1-.89-.35-1.01-.22-.17,.18,.32,.75,.74,1.66,.77,1.64,.42,2.4,1.02,2.75,.66,.39,1.91-.05,2.43-.89,.81-1.3-.29-3.23-1.27-3.46Z"/>
          <path class="cls-20" d="M103.5,81c-.57-.15-1.07-.92-.9-1.39,.23-.68,1.82-.82,2.84-.32,.06,.03,.75,.37,.69,.66-.03,.17-.3,.23-.72,.36-1.35,.44-1.46,.8-1.91,.68Z"/>
          <path class="cls-28" d="M99.36,75.22c1.65,1.17,3.25,3.35,2.3,5.44-.45,.93-.47,1.85,.01,2.75,.45,.87,1.2,1.59,1.97,2.27-.89-.51-1.74-1.16-2.31-2.08-.63-.89-.62-2.2-.15-3.13,.87-1.94-.55-3.84-1.82-5.26h0Z"/>
          <path class="cls-28" d="M104.56,79.95c-1.21,0-2.18,.24-3.25,.73,.59-1.09,2.25-1.47,3.25-.73h0Z"/>
          <path class="cls-28" d="M96.52,78.91c.4,.81,1.1,1.71,1.98,1.84,.42,.04,1.05-.06,1.55,.25,.49,.27,.83,.73,.99,1.22-.34-.38-.72-.7-1.16-.86-.42-.17-.85-.07-1.43-.1-1.15-.19-1.86-1.3-1.93-2.36h0Z"/>
        </g>
        <g>
          <path class="cls-20" d="M63.49,124.91c1.1-1.46-.45-4.17-.91-4.1-.21,.03-.05,.62-.56,1.55-.51,.95-1.03,1-1.23,1.78-.11,.42-.14,1.14,.25,1.48,.56,.47,1.86,.06,2.44-.71Z"/>
          <path class="cls-20" d="M60,121.89c-.21-.54-.8-.59-1.2-1.5-.24-.54-.21-.93-.38-.96-.24-.04-.45,.68-.96,1.55-.93,1.56-1.75,1.69-1.71,2.38,.05,.77,1.11,1.55,2.1,1.52,1.54-.06,2.51-2.05,2.15-2.99Z"/>
          <path class="cls-20" d="M60.51,128.71c-.2-.56,.17-1.4,.65-1.53,.69-.18,1.7,1.05,1.85,2.18,0,.06,.11,.83-.16,.95-.16,.07-.36-.12-.7-.39-1.11-.87-1.48-.76-1.64-1.2Z"/>
          <path class="cls-28" d="M62.98,122.05c-.05,2.02-.95,4.57-3.22,4.96-1.02,.14-1.79,.65-2.27,1.55-.47,.86-.65,1.89-.78,2.9-.08-1.02,0-2.09,.43-3.08,.39-1.02,1.47-1.75,2.51-1.87,2.1-.36,2.87-2.61,3.34-4.45h0Z"/>
          <path class="cls-28" d="M61.98,129.01c-.67-1-1.42-1.67-2.42-2.28,1.24-.12,2.48,1.04,2.42,2.28h0Z"/>
          <path class="cls-28" d="M58.34,121.76c-.45,.78-.8,1.87-.42,2.67,.2,.37,.64,.84,.66,1.42,.05,.56-.14,1.09-.46,1.5,.12-.5,.18-.99,.06-1.44-.1-.45-.42-.74-.72-1.24-.49-1.06,.04-2.27,.87-2.92h0Z"/>
        </g>
        <g>
          <path class="cls-7" d="M15.24,102.22c-1.85-1.54-.68-5.47-.07-5.53,.28-.03,.26,.78,1.18,1.82,.94,1.06,1.62,.97,2.1,1.91,.26,.51,.53,1.42,.12,1.97-.58,.78-2.36,.63-3.33-.17Z"/>
          <path class="cls-7" d="M18.81,97.3c.1-.76,.84-.99,1.09-2.28,.15-.77-.01-1.25,.2-1.34,.3-.13,.78,.74,1.69,1.69,1.66,1.72,2.75,1.64,2.91,2.54,.17,1-.95,2.32-2.24,2.58-1.98,.39-3.83-1.87-3.66-3.19Z"/>
          <path class="cls-7" d="M20.2,106.2c.08-.78-.63-1.74-1.29-1.76-.94-.03-1.86,1.86-1.72,3.34,0,.08,.11,1.09,.49,1.16,.23,.04,.42-.27,.78-.72,1.17-1.45,1.67-1.41,1.74-2.03Z"/>
          <path class="cls-28" d="M15.03,98.41c3.9,7.74,6.07,2.5,9.4,6.35,.86,1.14,1.26,2.48,1.47,3.81-.48-1.26-1.01-2.52-1.88-3.48-.88-1.02-2.02-1.44-3.38-1.3-3.04,.16-4.94-2.8-5.62-5.38h0Z"/>
          <path class="cls-28" d="M18.41,107.02c-.45-1.58,.79-3.44,2.41-3.65-1.14,1.14-1.83,2.15-2.41,3.65h0Z"/>
          <path class="cls-28" d="M20.9,96.64c1.26,.55,2.32,2.05,1.99,3.48-.62,1.34-.77,2.34-.04,3.63-.52-.43-.94-1.05-1.04-1.78-.14-.76,.27-1.49,.42-2.02,.25-1.14-.54-2.43-1.34-3.3h0Z"/>
        </g>
      </g>
      <rect class="cls-30" x="0" y=".19" width="141.73" height="141.73"/>
      <rect class="cls-30" width="141.73" height="141.73"/>
      <rect class="cls-30" width="141.73" height="141.73"/>
      <rect class="cls-30" width="141.73" height="141.73"/>
      <rect class="cls-30" width="141.73" height="141.73"/>
      <rect class="cls-30" width="141.73" height="141.73"/>
    </g>
  </g>
</svg>