<?xml version="1.0" encoding="UTF-8"?>
<svg id="_Шар_2" data-name="Шар 2" xmlns="http://www.w3.org/2000/svg" xmlns:xlink="http://www.w3.org/1999/xlink" viewBox="0 0 141.73 141.73">
  <defs>
    <pattern id="rect-pattern" x="0" y="0" width="110.13" height="67.44" patternTransform="translate(-163 1)" patternUnits="userSpaceOnUse" viewBox="0 0 110.13 67.44">
      <g>
        <rect y="0" width="110.13" height="67.44" fill="none"/>
        <g>
          <polygon points="118.35 52.31 101.91 52.31 93.68 67.44 101.91 82.57 118.35 82.57 126.58 67.44 118.35 52.31" fill="none" stroke="#000" stroke-miterlimit="10" stroke-width="2.24"/>
          <polygon points="98.74 88.39 87.36 67.44 98.74 46.49 121.52 46.49 132.9 67.44 121.52 88.39 98.74 88.39" fill="none" stroke="#000" stroke-miterlimit="10" stroke-width="2.24"/>
          <polygon points="95.58 94.22 81.03 67.44 95.58 40.67 124.68 40.67 139.23 67.44 124.68 94.22 95.58 94.22" fill="none" stroke="#000" stroke-miterlimit="10" stroke-width="2.24"/>
          <polygon points="92.41 100.04 74.7 67.44 92.41 34.84 127.85 34.84 145.56 67.44 127.85 100.04 92.41 100.04" fill="none" stroke="#000" stroke-miterlimit="10" stroke-width="2.24"/>
          <polygon points="95.58 94.22 81.03 67.44 95.58 40.67 124.68 40.67 139.23 67.44 124.68 94.22 95.58 94.22" fill="none" stroke="#000" stroke-miterlimit="10" stroke-width="2.24"/>
          <polygon points="98.74 88.39 87.36 67.44 98.74 46.49 121.52 46.49 132.9 67.44 121.52 88.39 98.74 88.39" fill="none" stroke="#000" stroke-miterlimit="10" stroke-width="2.24"/>
          <polygon points="118.35 52.31 101.91 52.31 93.68 67.44 101.91 82.57 118.35 82.57 126.58 67.44 118.35 52.31" fill="none" stroke="#000" stroke-miterlimit="10" stroke-width="2.24"/>
        </g>
        <g>
          <polygon points="8.22 52.31 -8.22 52.31 -16.45 67.44 -8.22 82.57 8.22 82.57 16.45 67.44 8.22 52.31" fill="none" stroke="#000" stroke-miterlimit="10" stroke-width="2.24"/>
          <polygon points="-11.39 88.39 -22.77 67.44 -11.39 46.49 11.39 46.49 22.77 67.44 11.39 88.39 -11.39 88.39" fill="none" stroke="#000" stroke-miterlimit="10" stroke-width="2.24"/>
          <polygon points="-14.55 94.22 -29.1 67.44 -14.55 40.67 14.55 40.67 29.1 67.44 14.55 94.22 -14.55 94.22" fill="none" stroke="#000" stroke-miterlimit="10" stroke-width="2.24"/>
          <polygon points="-17.72 100.04 -35.43 67.44 -17.72 34.84 17.72 34.84 35.43 67.44 17.72 100.04 -17.72 100.04" fill="none" stroke="#000" stroke-miterlimit="10" stroke-width="2.24"/>
          <polygon points="-14.55 94.22 -29.1 67.44 -14.55 40.67 14.55 40.67 29.1 67.44 14.55 94.22 -14.55 94.22" fill="none" stroke="#000" stroke-miterlimit="10" stroke-width="2.24"/>
          <polygon points="-11.39 88.39 -22.77 67.44 -11.39 46.49 11.39 46.49 22.77 67.44 11.39 88.39 -11.39 88.39" fill="none" stroke="#000" stroke-miterlimit="10" stroke-width="2.24"/>
          <polygon points="8.22 52.31 -8.22 52.31 -16.45 67.44 -8.22 82.57 8.22 82.57 16.45 67.44 8.22 52.31" fill="none" stroke="#000" stroke-miterlimit="10" stroke-width="2.24"/>
        </g>
        <g>
          <polygon points="118.35 -15.13 101.91 -15.13 93.68 0 101.91 15.13 118.35 15.13 126.58 0 118.35 -15.13" fill="none" stroke="#000" stroke-miterlimit="10" stroke-width="2.24"/>
          <polygon points="98.74 20.95 87.36 0 98.74 -20.95 121.52 -20.95 132.9 0 121.52 20.95 98.74 20.95" fill="none" stroke="#000" stroke-miterlimit="10" stroke-width="2.24"/>
          <polygon points="95.58 26.78 81.03 0 95.58 -26.78 124.68 -26.78 139.23 0 124.68 26.78 95.58 26.78" fill="none" stroke="#000" stroke-miterlimit="10" stroke-width="2.24"/>
          <polygon points="92.41 32.6 74.7 0 92.41 -32.6 127.85 -32.6 145.56 0 127.85 32.6 92.41 32.6" fill="none" stroke="#000" stroke-miterlimit="10" stroke-width="2.24"/>
          <polygon points="95.58 26.78 81.03 0 95.58 -26.78 124.68 -26.78 139.23 0 124.68 26.78 95.58 26.78" fill="none" stroke="#000" stroke-miterlimit="10" stroke-width="2.24"/>
          <polygon points="98.74 20.95 87.36 0 98.74 -20.95 121.52 -20.95 132.9 0 121.52 20.95 98.74 20.95" fill="none" stroke="#000" stroke-miterlimit="10" stroke-width="2.24"/>
          <polygon points="118.35 -15.13 101.91 -15.13 93.68 0 101.91 15.13 118.35 15.13 126.58 0 118.35 -15.13" fill="none" stroke="#000" stroke-miterlimit="10" stroke-width="2.24"/>
        </g>
        <g>
          <polygon points="63.29 18.59 46.84 18.59 38.62 33.72 46.84 48.85 63.29 48.85 71.51 33.72 63.29 18.59" fill="none" stroke="#000" stroke-miterlimit="10" stroke-width="2.24"/>
          <polygon points="43.68 54.67 32.29 33.72 43.68 12.77 66.45 12.77 77.84 33.72 66.45 54.67 43.68 54.67" fill="none" stroke="#000" stroke-miterlimit="10" stroke-width="2.24"/>
          <polygon points="40.51 60.5 25.96 33.72 40.51 6.95 69.62 6.95 84.17 33.72 69.62 60.5 40.51 60.5" fill="none" stroke="#000" stroke-miterlimit="10" stroke-width="2.24"/>
          <polygon points="37.35 66.32 19.63 33.72 37.35 1.12 72.78 1.12 90.5 33.72 72.78 66.32 37.35 66.32" fill="none" stroke="#000" stroke-miterlimit="10" stroke-width="2.24"/>
          <polygon points="40.51 60.5 25.96 33.72 40.51 6.95 69.62 6.95 84.17 33.72 69.62 60.5 40.51 60.5" fill="none" stroke="#000" stroke-miterlimit="10" stroke-width="2.24"/>
          <polygon points="43.68 54.67 32.29 33.72 43.68 12.77 66.45 12.77 77.84 33.72 66.45 54.67 43.68 54.67" fill="none" stroke="#000" stroke-miterlimit="10" stroke-width="2.24"/>
          <polygon points="63.29 18.59 46.84 18.59 38.62 33.72 46.84 48.85 63.29 48.85 71.51 33.72 63.29 18.59" fill="none" stroke="#000" stroke-miterlimit="10" stroke-width="2.24"/>
        </g>
        <g>
          <polygon points="8.22 -15.13 -8.22 -15.13 -16.45 0 -8.22 15.13 8.22 15.13 16.45 0 8.22 -15.13" fill="none" stroke="#000" stroke-miterlimit="10" stroke-width="2.24"/>
          <polygon points="-11.39 20.95 -22.77 0 -11.39 -20.95 11.39 -20.95 22.77 0 11.39 20.95 -11.39 20.95" fill="none" stroke="#000" stroke-miterlimit="10" stroke-width="2.24"/>
          <polygon points="-14.55 26.78 -29.1 0 -14.55 -26.78 14.55 -26.78 29.1 0 14.55 26.78 -14.55 26.78" fill="none" stroke="#000" stroke-miterlimit="10" stroke-width="2.24"/>
          <polygon points="-17.72 32.6 -35.43 0 -17.72 -32.6 17.72 -32.6 35.43 0 17.72 32.6 -17.72 32.6" fill="none" stroke="#000" stroke-miterlimit="10" stroke-width="2.24"/>
          <polygon points="-14.55 26.78 -29.1 0 -14.55 -26.78 14.55 -26.78 29.1 0 14.55 26.78 -14.55 26.78" fill="none" stroke="#000" stroke-miterlimit="10" stroke-width="2.24"/>
          <polygon points="-11.39 20.95 -22.77 0 -11.39 -20.95 11.39 -20.95 22.77 0 11.39 20.95 -11.39 20.95" fill="none" stroke="#000" stroke-miterlimit="10" stroke-width="2.24"/>
          <polygon points="8.22 -15.13 -8.22 -15.13 -16.45 0 -8.22 15.13 8.22 15.13 16.45 0 8.22 -15.13" fill="none" stroke="#000" stroke-miterlimit="10" stroke-width="2.24"/>
        </g>
      </g>
    </pattern>
  </defs>
  <g id="main">
    <rect width="141.73" height="141.73" fill="url(#rect-pattern)"/>
  </g>
</svg>