<?xml version="1.0" encoding="UTF-8"?>
<svg id="_Шар_2" data-name="Шар 2" xmlns="http://www.w3.org/2000/svg" viewBox="0 0 584.5 586.66"
 style="fill: #605a31"
>
  <g id="pattern">
    <g>
      <g>
        <g>
          <path d="M319,51c-11.3,0-20.5-9.2-20.5-20.5s9.2-20.5,20.5-20.5,20.5,9.2,20.5,20.5-9.2,20.5-20.5,20.5Zm0-36c-8.55,0-15.5,6.95-15.5,15.5s6.95,15.5,15.5,15.5,15.5-6.95,15.5-15.5-6.95-15.5-15.5-15.5Z" fill="#524e29"/>
          <path d="M583.5,113h-29.5c-1.38,0-2.5-1.12-2.5-2.5s1.12-2.5,2.5-2.5h24.5V5h-103V29.5c0,1.38-1.12,2.5-2.5,2.5s-2.5-1.12-2.5-2.5V0h113V113Z" fill="#524e29"/>
          <path d="M556.5,86h-56.5c-1.38,0-2.5-1.12-2.5-2.5s1.12-2.5,2.5-2.5h51.5V32h-49v22h24.5c1.38,0,2.5,1.12,2.5,2.5s-1.12,2.5-2.5,2.5h-29.5V27h59v59Z" fill="#524e29"/>
          <path d="M456,67.95c-10.21,0-18.52-8.31-18.52-18.52s8.31-18.52,18.52-18.52,18.52,8.31,18.52,18.52-8.31,18.52-18.52,18.52Zm0-34c-8.54,0-15.48,6.95-15.48,15.48s6.95,15.48,15.48,15.48,15.48-6.95,15.48-15.48-6.95-15.48-15.48-15.48Z" fill="#524e29"/>
          <path d="M456,61.87c-6.86,0-12.45-5.58-12.45-12.45s5.58-12.45,12.45-12.45,12.45,5.58,12.45,12.45-5.58,12.45-12.45,12.45Zm0-21.86c-5.19,0-9.41,4.22-9.41,9.41s4.22,9.41,9.41,9.41,9.41-4.22,9.41-9.41-4.22-9.41-9.41-9.41Z" fill="#524e29"/>
          <path d="M473,32h-29.5V5h-22v27h-32V5h-22v27h-29.5c-1.38,0-2.5-1.12-2.5-2.5s1.12-2.5,2.5-2.5h24.5V0h32V27h22V0h32V27h24.5c1.38,0,2.5,1.12,2.5,2.5s-1.12,2.5-2.5,2.5Z" fill="#524e29"/>
          <rect x="321" y="45.59" width="117" height="3.82" fill="#524e29"/>
          <path d="M554,113h-83.5V56.5c0-1.38,1.12-2.5,2.5-2.5s2.5,1.12,2.5,2.5v51.5h78.5c1.38,0,2.5,1.12,2.5,2.5s-1.12,2.5-2.5,2.5Z" fill="#524e29"/>
          <path d="M319,61c-16.82,0-30.5-13.68-30.5-30.5S302.18,0,319,0s30.5,13.68,30.5,30.5-13.68,30.5-30.5,30.5Zm0-56c-14.06,0-25.5,11.44-25.5,25.5s11.44,25.5,25.5,25.5,25.5-11.44,25.5-25.5-11.44-25.5-25.5-25.5Z" fill="#524e29"/>
          <path d="M319,51c-11.3,0-20.5-9.2-20.5-20.5s9.2-20.5,20.5-20.5,20.5,9.2,20.5,20.5-9.2,20.5-20.5,20.5Zm0-36c-8.55,0-15.5,6.95-15.5,15.5s6.95,15.5,15.5,15.5,15.5-6.95,15.5-15.5-6.95-15.5-15.5-15.5Z" fill="#524e29"/>
          <path d="M446,58h-45c-.83,0-1.5-.67-1.5-1.5s.67-1.5,1.5-1.5h45c.83,0,1.5,.67,1.5,1.5s-.67,1.5-1.5,1.5Z" fill="#524e29"/>
          <path d="M392,58h-18c-.83,0-1.5-.67-1.5-1.5s.67-1.5,1.5-1.5h18c.83,0,1.5,.67,1.5,1.5s-.67,1.5-1.5,1.5Z" fill="#524e29"/>
          <path d="M365,58h-36c-.83,0-1.5-.67-1.5-1.5s.67-1.5,1.5-1.5h36c.83,0,1.5,.67,1.5,1.5s-.67,1.5-1.5,1.5Z" fill="#524e29"/>
          <path d="M401,85h-45c-1.38,0-2.5-1.12-2.5-2.5s1.12-2.5,2.5-2.5h45c1.38,0,2.5,1.12,2.5,2.5s-1.12,2.5-2.5,2.5Z" fill="#524e29"/>
          <path d="M428,85h-18c-1.38,0-2.5-1.12-2.5-2.5s1.12-2.5,2.5-2.5h18c1.38,0,2.5,1.12,2.5,2.5s-1.12,2.5-2.5,2.5Z" fill="#524e29"/>
          <path d="M347,85h-18c-1.38,0-2.5-1.12-2.5-2.5s1.12-2.5,2.5-2.5h18c1.38,0,2.5,1.12,2.5,2.5s-1.12,2.5-2.5,2.5Z" fill="#524e29"/>
          <path d="M473,85h-36c-1.38,0-2.5-1.12-2.5-2.5s1.12-2.5,2.5-2.5h36c1.38,0,2.5,1.12,2.5,2.5s-1.12,2.5-2.5,2.5Z" fill="#524e29"/>
          <path d="M419,103c-11.3,0-20.5-9.2-20.5-20.5,0-1.38,1.12-2.5,2.5-2.5s2.5,1.12,2.5,2.5c0,8.55,6.95,15.5,15.5,15.5s15.5-6.95,15.5-15.5c0-1.38,1.12-2.5,2.5-2.5s2.5,1.12,2.5,2.5c0,11.3-9.2,20.5-20.5,20.5Z" fill="#524e29"/>
          <path d="M455,112c-1.38,0-2.5-1.12-2.5-2.5v-27c0-1.38,1.12-2.5,2.5-2.5s2.5,1.12,2.5,2.5v27c0,1.38-1.12,2.5-2.5,2.5Z" fill="#524e29"/>
          <path d="M383,112c-1.38,0-2.5-1.12-2.5-2.5v-27c0-1.38,1.12-2.5,2.5-2.5s2.5,1.12,2.5,2.5v27c0,1.38-1.12,2.5-2.5,2.5Z" fill="#524e29"/>
          <path d="M554,248c-1.38,0-2.5-1.12-2.5-2.5v-29.5h27v-22h-27v-32h27v-22h-27v-29.5c0-1.38,1.12-2.5,2.5-2.5s2.5,1.12,2.5,2.5v24.5h27v32h-27v22h27v32h-27v24.5c0,1.38-1.12,2.5-2.5,2.5Z" fill="#524e29"/>
          <path d="M554,284c-11.3,0-20.5-9.2-20.5-20.5s9.2-20.5,20.5-20.5,20.5,9.2,20.5,20.5-9.2,20.5-20.5,20.5Zm0-36c-8.55,0-15.5,6.95-15.5,15.5s6.95,15.5,15.5,15.5,15.5-6.95,15.5-15.5-6.95-15.5-15.5-15.5Z" fill="#524e29"/>
          <path d="M554,294c-16.82,0-30.5-13.68-30.5-30.5s13.68-30.5,30.5-30.5,30.5,13.68,30.5,30.5-13.68,30.5-30.5,30.5Zm0-56c-14.06,0-25.5,11.44-25.5,25.5s11.44,25.5,25.5,25.5,25.5-11.44,25.5-25.5-11.44-25.5-25.5-25.5Z" fill="#524e29"/>
          <path d="M554,284c-11.3,0-20.5-9.2-20.5-20.5s9.2-20.5,20.5-20.5,20.5,9.2,20.5,20.5-9.2,20.5-20.5,20.5Zm0-36c-8.55,0-15.5,6.95-15.5,15.5s6.95,15.5,15.5,15.5,15.5-6.95,15.5-15.5-6.95-15.5-15.5-15.5Z" fill="#524e29"/>
          <path d="M535,148.02c-10.21,0-18.52-8.31-18.52-18.52s8.31-18.52,18.52-18.52,18.52,8.31,18.52,18.52-8.31,18.52-18.52,18.52Zm0-34c-8.54,0-15.48,6.95-15.48,15.48s6.95,15.48,15.48,15.48,15.48-6.95,15.48-15.48-6.95-15.48-15.48-15.48Z" fill="#524e29"/>
          <path d="M535,141.95c-6.86,0-12.45-5.58-12.45-12.45s5.58-12.45,12.45-12.45,12.45,5.58,12.45,12.45-5.58,12.45-12.45,12.45Zm0-21.86c-5.19,0-9.41,4.22-9.41,9.41s4.22,9.41,9.41,9.41,9.41-4.22,9.41-9.41-4.22-9.41-9.41-9.41Z" fill="#524e29"/>
          <rect x="534.09" y="146.5" width="3.82" height="94.66" fill="#524e29"/>
          <path d="M527,184c-.83,0-1.5-.67-1.5-1.5v-45c0-.83,.67-1.5,1.5-1.5s1.5,.67,1.5,1.5v45c0,.83-.67,1.5-1.5,1.5Z" fill="#524e29"/>
          <path d="M527,211c-.83,0-1.5-.67-1.5-1.5v-18c0-.83,.67-1.5,1.5-1.5s1.5,.67,1.5,1.5v18c0,.83-.67,1.5-1.5,1.5Z" fill="#524e29"/>
          <path d="M527,256c-.83,0-1.5-.67-1.5-1.5v-36c0-.83,.67-1.5,1.5-1.5s1.5,.67,1.5,1.5v36c0,.83-.67,1.5-1.5,1.5Z" fill="#524e29"/>
          <rect x="497.5" y="182.5" width="5" height="45" fill="#524e29"/>
          <path d="M500,176c-1.38,0-2.5-1.12-2.5-2.5v-18c0-1.38,1.12-2.5,2.5-2.5s2.5,1.12,2.5,2.5v18c0,1.38-1.12,2.5-2.5,2.5Z" fill="#524e29"/>
          <path d="M500,257c-1.38,0-2.5-1.12-2.5-2.5v-18c0-1.38,1.12-2.5,2.5-2.5s2.5,1.12,2.5,2.5v18c0,1.38-1.12,2.5-2.5,2.5Z" fill="#524e29"/>
          <path d="M500,149c-1.38,0-2.5-1.12-2.5-2.5v-36c0-1.38,1.12-2.5,2.5-2.5s2.5,1.12,2.5,2.5v36c0,1.38-1.12,2.5-2.5,2.5Z" fill="#524e29"/>
          <path d="M499,265c-1.38,0-2.5-1.12-2.5-2.5s1.12-2.5,2.5-2.5c3.27,0,6.4-1.01,9.04-2.91,4.04-2.91,6.46-7.62,6.46-12.59,0-8.55-6.95-15.5-15.5-15.5-1.38,0-2.5-1.12-2.5-2.5s1.12-2.5,2.5-2.5c11.3,0,20.5,9.2,20.5,20.5,0,6.58-3.19,12.8-8.54,16.65-3.5,2.52-7.64,3.85-11.96,3.85Z" fill="#524e29"/>
          <path d="M500,185c-11.3,0-20.5-9.2-20.5-20.5s9.2-20.5,20.5-20.5c1.38,0,2.5,1.12,2.5,2.5s-1.12,2.5-2.5,2.5c-8.55,0-15.5,6.95-15.5,15.5s6.95,15.5,15.5,15.5c1.38,0,2.5,1.12,2.5,2.5s-1.12,2.5-2.5,2.5Z" fill="#524e29"/>
          <path d="M500,131h-27c-1.38,0-2.5-1.12-2.5-2.5s1.12-2.5,2.5-2.5h27c1.38,0,2.5,1.12,2.5,2.5s-1.12,2.5-2.5,2.5Z" fill="#524e29"/>
          <path d="M500,203h-27c-1.38,0-2.5-1.12-2.5-2.5s1.12-2.5,2.5-2.5h27c1.38,0,2.5,1.12,2.5,2.5s-1.12,2.5-2.5,2.5Z" fill="#524e29"/>
          <path d="M500,279.66c-1.38,0-2.5-1.12-2.5-2.5v-13.66c0-1.38,1.12-2.5,2.5-2.5s2.5,1.12,2.5,2.5v13.66c0,1.38-1.12,2.5-2.5,2.5Z" fill="#524e29"/>
          <rect x="497.5" y="274.66" width="5" height="18.34" fill="#524e29"/>
          <path d="M357,86c-1.38,0-2.5-1.12-2.5-2.5,0-8.55-6.95-15.5-15.5-15.5s-15.5,6.95-15.5,15.5v2.5h-21c-1.38,0-2.5-1.12-2.5-2.5s1.12-2.5,2.5-2.5h16.15c1.24-10.13,9.89-18,20.35-18,11.3,0,20.5,9.2,20.5,20.5,0,1.38-1.12,2.5-2.5,2.5Z" fill="#524e29"/>
          <rect x="290.5" y="81" width="14.5" height="5" fill="#524e29"/>
        </g>
        <g>
          <path d="M319,576.66c-11.3,0-20.5-9.2-20.5-20.5s9.2-20.5,20.5-20.5,20.5,9.2,20.5,20.5-9.2,20.5-20.5,20.5Zm0-36c-8.55,0-15.5,6.95-15.5,15.5s6.95,15.5,15.5,15.5,15.5-6.95,15.5-15.5-6.95-15.5-15.5-15.5Z" fill="#524e29"/>
          <path d="M470.5,586.66v-29.5c0-1.38,1.12-2.5,2.5-2.5s2.5,1.12,2.5,2.5v24.5h103v-103h-24.5c-1.38,0-2.5-1.12-2.5-2.5s1.12-2.5,2.5-2.5h29.5v113h-113Z" fill="#524e29"/>
          <path d="M497.5,559.66v-32h29.5c1.38,0,2.5,1.12,2.5,2.5s-1.12,2.5-2.5,2.5h-24.5v22h49v-49h-51.5c-1.38,0-2.5-1.12-2.5-2.5s1.12-2.5,2.5-2.5h56.5v59h-59Z" fill="#524e29"/>
          <path d="M456,555.75c-10.21,0-18.52-8.31-18.52-18.52s8.31-18.52,18.52-18.52,18.52,8.31,18.52,18.52-8.31,18.52-18.52,18.52Zm0-34c-8.54,0-15.48,6.95-15.48,15.48s6.95,15.48,15.48,15.48,15.48-6.95,15.48-15.48-6.95-15.48-15.48-15.48Z" fill="#524e29"/>
          <path d="M456,549.68c-6.86,0-12.45-5.58-12.45-12.45s5.58-12.45,12.45-12.45,12.45,5.58,12.45,12.45-5.58,12.45-12.45,12.45Zm0-21.86c-5.19,0-9.41,4.22-9.41,9.41s4.22,9.41,9.41,9.41,9.41-4.22,9.41-9.41-4.22-9.41-9.41-9.41Z" fill="#524e29"/>
          <path d="M448.5,586.66h-32v-27h-22v27h-32v-27h-24.5c-1.38,0-2.5-1.12-2.5-2.5s1.12-2.5,2.5-2.5h29.5v27h22v-27h32v27h22v-27h29.5c1.38,0,2.5,1.12,2.5,2.5s-1.12,2.5-2.5,2.5h-24.5v27Z" fill="#524e29"/>
          <rect x="321" y="537.25" width="117" height="3.82" fill="#524e29"/>
          <path d="M473,532.66c-1.38,0-2.5-1.12-2.5-2.5v-56.5h83.5c1.38,0,2.5,1.12,2.5,2.5s-1.12,2.5-2.5,2.5h-78.5v51.5c0,1.38-1.12,2.5-2.5,2.5Z" fill="#524e29"/>
          <path d="M319,586.66c-16.82,0-30.5-13.68-30.5-30.5s13.68-30.5,30.5-30.5,30.5,13.68,30.5,30.5-13.68,30.5-30.5,30.5Zm0-56c-14.06,0-25.5,11.44-25.5,25.5s11.44,25.5,25.5,25.5,25.5-11.44,25.5-25.5-11.44-25.5-25.5-25.5Z" fill="#524e29"/>
          <path d="M319,576.66c-11.3,0-20.5-9.2-20.5-20.5s9.2-20.5,20.5-20.5,20.5,9.2,20.5,20.5-9.2,20.5-20.5,20.5Zm0-36c-8.55,0-15.5,6.95-15.5,15.5s6.95,15.5,15.5,15.5,15.5-6.95,15.5-15.5-6.95-15.5-15.5-15.5Z" fill="#524e29"/>
          <path d="M446,531.66h-45c-.83,0-1.5-.67-1.5-1.5s.67-1.5,1.5-1.5h45c.83,0,1.5,.67,1.5,1.5s-.67,1.5-1.5,1.5Z" fill="#524e29"/>
          <path d="M392,531.66h-18c-.83,0-1.5-.67-1.5-1.5s.67-1.5,1.5-1.5h18c.83,0,1.5,.67,1.5,1.5s-.67,1.5-1.5,1.5Z" fill="#524e29"/>
          <path d="M365,531.66h-36c-.83,0-1.5-.67-1.5-1.5s.67-1.5,1.5-1.5h36c.83,0,1.5,.67,1.5,1.5s-.67,1.5-1.5,1.5Z" fill="#524e29"/>
          <path d="M401,506.66h-45c-1.38,0-2.5-1.12-2.5-2.5s1.12-2.5,2.5-2.5h45c1.38,0,2.5,1.12,2.5,2.5s-1.12,2.5-2.5,2.5Z" fill="#524e29"/>
          <path d="M428,506.66h-18c-1.38,0-2.5-1.12-2.5-2.5s1.12-2.5,2.5-2.5h18c1.38,0,2.5,1.12,2.5,2.5s-1.12,2.5-2.5,2.5Z" fill="#524e29"/>
          <path d="M347,506.66h-18c-1.38,0-2.5-1.12-2.5-2.5s1.12-2.5,2.5-2.5h18c1.38,0,2.5,1.12,2.5,2.5s-1.12,2.5-2.5,2.5Z" fill="#524e29"/>
          <path d="M473,506.66h-36c-1.38,0-2.5-1.12-2.5-2.5s1.12-2.5,2.5-2.5h36c1.38,0,2.5,1.12,2.5,2.5s-1.12,2.5-2.5,2.5Z" fill="#524e29"/>
          <path d="M437,506.66c-1.38,0-2.5-1.12-2.5-2.5,0-8.55-6.95-15.5-15.5-15.5s-15.5,6.95-15.5,15.5c0,1.38-1.12,2.5-2.5,2.5s-2.5-1.12-2.5-2.5c0-11.3,9.2-20.5,20.5-20.5s20.5,9.2,20.5,20.5c0,1.38-1.12,2.5-2.5,2.5Z" fill="#524e29"/>
          <path d="M455,506.66c-1.38,0-2.5-1.12-2.5-2.5v-27c0-1.38,1.12-2.5,2.5-2.5s2.5,1.12,2.5,2.5v27c0,1.38-1.12,2.5-2.5,2.5Z" fill="#524e29"/>
          <path d="M383,506.66c-1.38,0-2.5-1.12-2.5-2.5v-27c0-1.38,1.12-2.5,2.5-2.5s2.5,1.12,2.5,2.5v27c0,1.38-1.12,2.5-2.5,2.5Z" fill="#524e29"/>
          <path d="M554,478.66c-1.38,0-2.5-1.12-2.5-2.5v-29.5h27v-22h-27v-32h27v-22h-27v-29.5c0-1.38,1.12-2.5,2.5-2.5s2.5,1.12,2.5,2.5v24.5h27v32h-27v22h27v32h-27v24.5c0,1.38-1.12,2.5-2.5,2.5Z" fill="#524e29"/>
          <path d="M554,343.66c-11.3,0-20.5-9.2-20.5-20.5s9.2-20.5,20.5-20.5,20.5,9.2,20.5,20.5-9.2,20.5-20.5,20.5Zm0-36c-8.55,0-15.5,6.95-15.5,15.5s6.95,15.5,15.5,15.5,15.5-6.95,15.5-15.5-6.95-15.5-15.5-15.5Z" fill="#524e29"/>
          <path d="M554,353.66c-16.82,0-30.5-13.68-30.5-30.5s13.68-30.5,30.5-30.5,30.5,13.68,30.5,30.5-13.68,30.5-30.5,30.5Zm0-56c-14.06,0-25.5,11.44-25.5,25.5s11.44,25.5,25.5,25.5,25.5-11.44,25.5-25.5-11.44-25.5-25.5-25.5Z" fill="#524e29"/>
          <path d="M554,343.66c-11.3,0-20.5-9.2-20.5-20.5s9.2-20.5,20.5-20.5,20.5,9.2,20.5,20.5-9.2,20.5-20.5,20.5Zm0-36c-8.55,0-15.5,6.95-15.5,15.5s6.95,15.5,15.5,15.5,15.5-6.95,15.5-15.5-6.95-15.5-15.5-15.5Z" fill="#524e29"/>
          <path d="M535,475.67c-10.21,0-18.52-8.31-18.52-18.52s8.31-18.52,18.52-18.52,18.52,8.31,18.52,18.52-8.31,18.52-18.52,18.52Zm0-34c-8.54,0-15.48,6.95-15.48,15.48s6.95,15.48,15.48,15.48,15.48-6.95,15.48-15.48-6.95-15.48-15.48-15.48Z" fill="#524e29"/>
          <path d="M535,469.6c-6.86,0-12.45-5.58-12.45-12.45s5.58-12.45,12.45-12.45,12.45,5.58,12.45,12.45-5.58,12.45-12.45,12.45Zm0-21.86c-5.19,0-9.41,4.22-9.41,9.41s4.22,9.41,9.41,9.41,9.41-4.22,9.41-9.41-4.22-9.41-9.41-9.41Z" fill="#524e29"/>
          <rect x="534.09" y="345.5" width="3.82" height="94.66" fill="#524e29"/>
          <path d="M527,450.66c-.83,0-1.5-.67-1.5-1.5v-45c0-.83,.67-1.5,1.5-1.5s1.5,.67,1.5,1.5v45c0,.83-.67,1.5-1.5,1.5Z" fill="#524e29"/>
          <path d="M527,396.66c-.83,0-1.5-.67-1.5-1.5v-18c0-.83,.67-1.5,1.5-1.5s1.5,.67,1.5,1.5v18c0,.83-.67,1.5-1.5,1.5Z" fill="#524e29"/>
          <path d="M527,369.66c-.83,0-1.5-.67-1.5-1.5v-36c0-.83,.67-1.5,1.5-1.5s1.5,.67,1.5,1.5v36c0,.83-.67,1.5-1.5,1.5Z" fill="#524e29"/>
          <rect x="497.5" y="359.16" width="5" height="45" fill="#524e29"/>
          <path d="M500,433.66c-1.38,0-2.5-1.12-2.5-2.5v-18c0-1.38,1.12-2.5,2.5-2.5s2.5,1.12,2.5,2.5v18c0,1.38-1.12,2.5-2.5,2.5Z" fill="#524e29"/>
          <path d="M500,352.66c-1.38,0-2.5-1.12-2.5-2.5v-18c0-1.38,1.12-2.5,2.5-2.5s2.5,1.12,2.5,2.5v18c0,1.38-1.12,2.5-2.5,2.5Z" fill="#524e29"/>
          <path d="M500,478.66c-1.38,0-2.5-1.12-2.5-2.5v-36c0-1.38,1.12-2.5,2.5-2.5s2.5,1.12,2.5,2.5v36c0,1.38-1.12,2.5-2.5,2.5Z" fill="#524e29"/>
          <path d="M499,362.66c-1.38,0-2.5-1.12-2.5-2.5s1.12-2.5,2.5-2.5c8.55,0,15.5-6.95,15.5-15.5,0-4.97-2.42-9.68-6.46-12.59-2.64-1.9-5.77-2.91-9.04-2.91-1.38,0-2.5-1.12-2.5-2.5s1.12-2.5,2.5-2.5c4.32,0,8.46,1.33,11.96,3.85,5.35,3.85,8.54,10.07,8.54,16.65,0,11.3-9.2,20.5-20.5,20.5Z" fill="#524e29"/>
          <path d="M500,442.66c-11.3,0-20.5-9.2-20.5-20.5s9.2-20.5,20.5-20.5c1.38,0,2.5,1.12,2.5,2.5s-1.12,2.5-2.5,2.5c-8.55,0-15.5,6.95-15.5,15.5s6.95,15.5,15.5,15.5c1.38,0,2.5,1.12,2.5,2.5s-1.12,2.5-2.5,2.5Z" fill="#524e29"/>
          <path d="M500,460.66h-27c-1.38,0-2.5-1.12-2.5-2.5s1.12-2.5,2.5-2.5h27c1.38,0,2.5,1.12,2.5,2.5s-1.12,2.5-2.5,2.5Z" fill="#524e29"/>
          <path d="M500,388.66h-27c-1.38,0-2.5-1.12-2.5-2.5s1.12-2.5,2.5-2.5h27c1.38,0,2.5,1.12,2.5,2.5s-1.12,2.5-2.5,2.5Z" fill="#524e29"/>
          <path d="M500,325.66c-1.38,0-2.5-1.12-2.5-2.5v-13.66c0-1.38,1.12-2.5,2.5-2.5s2.5,1.12,2.5,2.5v13.66c0,1.38-1.12,2.5-2.5,2.5Z" fill="#524e29"/>
          <rect x="497.5" y="293.66" width="5" height="18.34" fill="#524e29"/>
          <path d="M339,523.66c-10.46,0-19.11-7.87-20.35-18h-16.15c-1.38,0-2.5-1.12-2.5-2.5s1.12-2.5,2.5-2.5h21v2.5c0,8.55,6.95,15.5,15.5,15.5s15.5-6.95,15.5-15.5c0-1.38,1.12-2.5,2.5-2.5s2.5,1.12,2.5,2.5c0,11.3-9.2,20.5-20.5,20.5Z" fill="#524e29"/>
          <rect x="290.5" y="500.66" width="14.5" height="5" fill="#524e29"/>
        </g>
      </g>
      <g>
        <g>
          <path d="M265.5,51c-11.3,0-20.5-9.2-20.5-20.5s9.2-20.5,20.5-20.5,20.5,9.2,20.5,20.5-9.2,20.5-20.5,20.5Zm0-36c-8.55,0-15.5,6.95-15.5,15.5s6.95,15.5,15.5,15.5,15.5-6.95,15.5-15.5-6.95-15.5-15.5-15.5Z" fill="#524e29"/>
          <path d="M30.5,113H1V0H114V29.5c0,1.38-1.12,2.5-2.5,2.5s-2.5-1.12-2.5-2.5V5H6V108H30.5c1.38,0,2.5,1.12,2.5,2.5s-1.12,2.5-2.5,2.5Z" fill="#524e29"/>
          <path d="M84.5,86H28V27h59V59h-29.5c-1.38,0-2.5-1.12-2.5-2.5s1.12-2.5,2.5-2.5h24.5v-22H33v49h51.5c1.38,0,2.5,1.12,2.5,2.5s-1.12,2.5-2.5,2.5Z" fill="#524e29"/>
          <path d="M128.5,67.95c-10.21,0-18.52-8.31-18.52-18.52s8.31-18.52,18.52-18.52,18.52,8.31,18.52,18.52-8.31,18.52-18.52,18.52Zm0-34c-8.54,0-15.48,6.95-15.48,15.48s6.95,15.48,15.48,15.48,15.48-6.95,15.48-15.48-6.95-15.48-15.48-15.48Z" fill="#524e29"/>
          <path d="M128.5,61.87c-6.86,0-12.45-5.58-12.45-12.45s5.58-12.45,12.45-12.45,12.45,5.58,12.45,12.45-5.58,12.45-12.45,12.45Zm0-21.86c-5.19,0-9.41,4.22-9.41,9.41s4.22,9.41,9.41,9.41,9.41-4.22,9.41-9.41-4.22-9.41-9.41-9.41Z" fill="#524e29"/>
          <path d="M246.5,32h-29.5V5h-22v27h-32V5h-22v27h-29.5c-1.38,0-2.5-1.12-2.5-2.5s1.12-2.5,2.5-2.5h24.5V0h32V27h22V0h32V27h24.5c1.38,0,2.5,1.12,2.5,2.5s-1.12,2.5-2.5,2.5Z" fill="#524e29"/>
          <rect x="146.5" y="45.59" width="117" height="3.82" fill="#524e29"/>
          <path d="M114,113H30.5c-1.38,0-2.5-1.12-2.5-2.5s1.12-2.5,2.5-2.5H109V56.5c0-1.38,1.12-2.5,2.5-2.5s2.5,1.12,2.5,2.5v56.5Z" fill="#524e29"/>
          <path d="M265.5,61c-16.82,0-30.5-13.68-30.5-30.5S248.68,0,265.5,0s30.5,13.68,30.5,30.5-13.68,30.5-30.5,30.5Zm0-56c-14.06,0-25.5,11.44-25.5,25.5s11.44,25.5,25.5,25.5,25.5-11.44,25.5-25.5-11.44-25.5-25.5-25.5Z" fill="#524e29"/>
          <path d="M265.5,51c-11.3,0-20.5-9.2-20.5-20.5s9.2-20.5,20.5-20.5,20.5,9.2,20.5,20.5-9.2,20.5-20.5,20.5Zm0-36c-8.55,0-15.5,6.95-15.5,15.5s6.95,15.5,15.5,15.5,15.5-6.95,15.5-15.5-6.95-15.5-15.5-15.5Z" fill="#524e29"/>
          <path d="M183.5,58h-45c-.83,0-1.5-.67-1.5-1.5s.67-1.5,1.5-1.5h45c.83,0,1.5,.67,1.5,1.5s-.67,1.5-1.5,1.5Z" fill="#524e29"/>
          <path d="M210.5,58h-18c-.83,0-1.5-.67-1.5-1.5s.67-1.5,1.5-1.5h18c.83,0,1.5,.67,1.5,1.5s-.67,1.5-1.5,1.5Z" fill="#524e29"/>
          <path d="M255.5,58h-36c-.83,0-1.5-.67-1.5-1.5s.67-1.5,1.5-1.5h36c.83,0,1.5,.67,1.5,1.5s-.67,1.5-1.5,1.5Z" fill="#524e29"/>
          <path d="M228.5,85h-45c-1.38,0-2.5-1.12-2.5-2.5s1.12-2.5,2.5-2.5h45c1.38,0,2.5,1.12,2.5,2.5s-1.12,2.5-2.5,2.5Z" fill="#524e29"/>
          <path d="M174.5,85h-18c-1.38,0-2.5-1.12-2.5-2.5s1.12-2.5,2.5-2.5h18c1.38,0,2.5,1.12,2.5,2.5s-1.12,2.5-2.5,2.5Z" fill="#524e29"/>
          <path d="M255.5,85h-18c-1.38,0-2.5-1.12-2.5-2.5s1.12-2.5,2.5-2.5h18c1.38,0,2.5,1.12,2.5,2.5s-1.12,2.5-2.5,2.5Z" fill="#524e29"/>
          <path d="M147.5,85h-36c-1.38,0-2.5-1.12-2.5-2.5s1.12-2.5,2.5-2.5h36c1.38,0,2.5,1.12,2.5,2.5s-1.12,2.5-2.5,2.5Z" fill="#524e29"/>
          <path d="M165.5,103c-11.3,0-20.5-9.2-20.5-20.5,0-1.38,1.12-2.5,2.5-2.5s2.5,1.12,2.5,2.5c0,8.55,6.95,15.5,15.5,15.5s15.5-6.95,15.5-15.5c0-1.38,1.12-2.5,2.5-2.5s2.5,1.12,2.5,2.5c0,11.3-9.2,20.5-20.5,20.5Z" fill="#524e29"/>
          <path d="M129.5,112c-1.38,0-2.5-1.12-2.5-2.5v-27c0-1.38,1.12-2.5,2.5-2.5s2.5,1.12,2.5,2.5v27c0,1.38-1.12,2.5-2.5,2.5Z" fill="#524e29"/>
          <path d="M201.5,112c-1.38,0-2.5-1.12-2.5-2.5v-27c0-1.38,1.12-2.5,2.5-2.5s2.5,1.12,2.5,2.5v27c0,1.38-1.12,2.5-2.5,2.5Z" fill="#524e29"/>
          <path d="M30.5,248c-1.38,0-2.5-1.12-2.5-2.5v-24.5H1v-32H28v-22H1v-32H28v-24.5c0-1.38,1.12-2.5,2.5-2.5s2.5,1.12,2.5,2.5v29.5H6v22h27v32H6v22h27v29.5c0,1.38-1.12,2.5-2.5,2.5Z" fill="#524e29"/>
          <path d="M30.5,284c-11.3,0-20.5-9.2-20.5-20.5s9.2-20.5,20.5-20.5,20.5,9.2,20.5,20.5-9.2,20.5-20.5,20.5Zm0-36c-8.55,0-15.5,6.95-15.5,15.5s6.95,15.5,15.5,15.5,15.5-6.95,15.5-15.5-6.95-15.5-15.5-15.5Z" fill="#524e29"/>
          <path d="M30.5,294c-16.82,0-30.5-13.68-30.5-30.5s13.68-30.5,30.5-30.5,30.5,13.68,30.5,30.5-13.68,30.5-30.5,30.5Zm0-56c-14.06,0-25.5,11.44-25.5,25.5s11.44,25.5,25.5,25.5,25.5-11.44,25.5-25.5-11.44-25.5-25.5-25.5Z" fill="#524e29"/>
          <path d="M30.5,284c-11.3,0-20.5-9.2-20.5-20.5s9.2-20.5,20.5-20.5,20.5,9.2,20.5,20.5-9.2,20.5-20.5,20.5Zm0-36c-8.55,0-15.5,6.95-15.5,15.5s6.95,15.5,15.5,15.5,15.5-6.95,15.5-15.5-6.95-15.5-15.5-15.5Z" fill="#524e29"/>
          <path d="M49.5,148.02c-10.21,0-18.52-8.31-18.52-18.52s8.31-18.52,18.52-18.52,18.52,8.31,18.52,18.52-8.31,18.52-18.52,18.52Zm0-34c-8.54,0-15.48,6.95-15.48,15.48s6.95,15.48,15.48,15.48,15.48-6.95,15.48-15.48-6.95-15.48-15.48-15.48Z" fill="#524e29"/>
          <path d="M49.5,141.95c-6.86,0-12.45-5.58-12.45-12.45s5.58-12.45,12.45-12.45,12.45,5.58,12.45,12.45-5.58,12.45-12.45,12.45Zm0-21.86c-5.19,0-9.41,4.22-9.41,9.41s4.22,9.41,9.41,9.41,9.41-4.22,9.41-9.41-4.22-9.41-9.41-9.41Z" fill="#524e29"/>
          <rect x="46.59" y="146.5" width="3.82" height="94.66" fill="#524e29"/>
          <path d="M57.5,184c-.83,0-1.5-.67-1.5-1.5v-45c0-.83,.67-1.5,1.5-1.5s1.5,.67,1.5,1.5v45c0,.83-.67,1.5-1.5,1.5Z" fill="#524e29"/>
          <path d="M57.5,211c-.83,0-1.5-.67-1.5-1.5v-18c0-.83,.67-1.5,1.5-1.5s1.5,.67,1.5,1.5v18c0,.83-.67,1.5-1.5,1.5Z" fill="#524e29"/>
          <path d="M57.5,256c-.83,0-1.5-.67-1.5-1.5v-36c0-.83,.67-1.5,1.5-1.5s1.5,.67,1.5,1.5v36c0,.83-.67,1.5-1.5,1.5Z" fill="#524e29"/>
          <rect x="82" y="182.5" width="5" height="45" fill="#524e29"/>
          <path d="M84.5,176c-1.38,0-2.5-1.12-2.5-2.5v-18c0-1.38,1.12-2.5,2.5-2.5s2.5,1.12,2.5,2.5v18c0,1.38-1.12,2.5-2.5,2.5Z" fill="#524e29"/>
          <path d="M84.5,257c-1.38,0-2.5-1.12-2.5-2.5v-18c0-1.38,1.12-2.5,2.5-2.5s2.5,1.12,2.5,2.5v18c0,1.38-1.12,2.5-2.5,2.5Z" fill="#524e29"/>
          <path d="M84.5,149c-1.38,0-2.5-1.12-2.5-2.5v-36c0-1.38,1.12-2.5,2.5-2.5s2.5,1.12,2.5,2.5v36c0,1.38-1.12,2.5-2.5,2.5Z" fill="#524e29"/>
          <path d="M85.5,265c-4.32,0-8.46-1.33-11.96-3.85-5.35-3.85-8.54-10.07-8.54-16.65,0-11.3,9.2-20.5,20.5-20.5,1.38,0,2.5,1.12,2.5,2.5s-1.12,2.5-2.5,2.5c-8.55,0-15.5,6.95-15.5,15.5,0,4.98,2.41,9.68,6.46,12.59,2.64,1.9,5.77,2.91,9.04,2.91,1.38,0,2.5,1.12,2.5,2.5s-1.12,2.5-2.5,2.5Z" fill="#524e29"/>
          <path d="M84.5,185c-1.38,0-2.5-1.12-2.5-2.5s1.12-2.5,2.5-2.5c8.55,0,15.5-6.95,15.5-15.5s-6.95-15.5-15.5-15.5c-1.38,0-2.5-1.12-2.5-2.5s1.12-2.5,2.5-2.5c11.3,0,20.5,9.2,20.5,20.5s-9.2,20.5-20.5,20.5Z" fill="#524e29"/>
          <path d="M111.5,131h-27c-1.38,0-2.5-1.12-2.5-2.5s1.12-2.5,2.5-2.5h27c1.38,0,2.5,1.12,2.5,2.5s-1.12,2.5-2.5,2.5Z" fill="#524e29"/>
          <path d="M111.5,203h-27c-1.38,0-2.5-1.12-2.5-2.5s1.12-2.5,2.5-2.5h27c1.38,0,2.5,1.12,2.5,2.5s-1.12,2.5-2.5,2.5Z" fill="#524e29"/>
          <path d="M84.5,279.66c-1.38,0-2.5-1.12-2.5-2.5v-13.66c0-1.38,1.12-2.5,2.5-2.5s2.5,1.12,2.5,2.5v13.66c0,1.38-1.12,2.5-2.5,2.5Z" fill="#524e29"/>
          <rect x="82" y="274.66" width="5" height="18.34" fill="#524e29"/>
          <path d="M282,86h-21v-2.5c0-8.55-6.95-15.5-15.5-15.5s-15.5,6.95-15.5,15.5c0,1.38-1.12,2.5-2.5,2.5s-2.5-1.12-2.5-2.5c0-11.3,9.2-20.5,20.5-20.5,10.46,0,19.11,7.87,20.35,18h16.15c1.38,0,2.5,1.12,2.5,2.5s-1.12,2.5-2.5,2.5Z" fill="#524e29"/>
          <rect x="279.5" y="81" width="14.5" height="5" fill="#524e29"/>
        </g>
        <g>
          <path d="M265.5,576.66c-11.3,0-20.5-9.2-20.5-20.5s9.2-20.5,20.5-20.5,20.5,9.2,20.5,20.5-9.2,20.5-20.5,20.5Zm0-36c-8.55,0-15.5,6.95-15.5,15.5s6.95,15.5,15.5,15.5,15.5-6.95,15.5-15.5-6.95-15.5-15.5-15.5Z" fill="#524e29"/>
          <path d="M114,586.66H1v-113H30.5c1.38,0,2.5,1.12,2.5,2.5s-1.12,2.5-2.5,2.5H6v103H109s0-24.5,0-24.5c0-1.38,1.12-2.5,2.5-2.5s2.5,1.12,2.5,2.5v29.5Z" fill="#524e29"/>
          <path d="M87,559.66H28v-59h56.5c1.38,0,2.5,1.12,2.5,2.5s-1.12,2.5-2.5,2.5H33v49h49v-22h-24.5c-1.38,0-2.5-1.12-2.5-2.5s1.12-2.5,2.5-2.5h29.5v32Z" fill="#524e29"/>
          <path d="M128.5,555.75c-10.21,0-18.52-8.31-18.52-18.52s8.31-18.52,18.52-18.52,18.52,8.31,18.52,18.52-8.31,18.52-18.52,18.52Zm0-34c-8.54,0-15.48,6.95-15.48,15.48s6.95,15.48,15.48,15.48,15.48-6.95,15.48-15.48-6.95-15.48-15.48-15.48Z" fill="#524e29"/>
          <path d="M128.5,549.68c-6.86,0-12.45-5.58-12.45-12.45s5.58-12.45,12.45-12.45,12.45,5.58,12.45,12.45-5.58,12.45-12.45,12.45Zm0-21.86c-5.19,0-9.41,4.22-9.41,9.41s4.22,9.41,9.41,9.41,9.41-4.22,9.41-9.41-4.22-9.41-9.41-9.41Z" fill="#524e29"/>
          <path d="M222,586.66h-32v-27h-22v27h-32v-27h-24.5c-1.38,0-2.5-1.12-2.5-2.5s1.12-2.5,2.5-2.5h29.5v27h22v-27h32v27h22v-27h29.5c1.38,0,2.5,1.12,2.5,2.5s-1.12,2.5-2.5,2.5h-24.5v27Z" fill="#524e29"/>
          <rect x="146.5" y="537.25" width="117" height="3.82" fill="#524e29"/>
          <path d="M111.5,532.66c-1.38,0-2.5-1.12-2.5-2.5v-51.5H30.5c-1.38,0-2.5-1.12-2.5-2.5s1.12-2.5,2.5-2.5H114v56.5c0,1.38-1.12,2.5-2.5,2.5Z" fill="#524e29"/>
          <path d="M265.5,586.66c-16.82,0-30.5-13.68-30.5-30.5s13.68-30.5,30.5-30.5,30.5,13.68,30.5,30.5-13.68,30.5-30.5,30.5Zm0-56c-14.06,0-25.5,11.44-25.5,25.5s11.44,25.5,25.5,25.5,25.5-11.44,25.5-25.5-11.44-25.5-25.5-25.5Z" fill="#524e29"/>
          <path d="M265.5,576.66c-11.3,0-20.5-9.2-20.5-20.5s9.2-20.5,20.5-20.5,20.5,9.2,20.5,20.5-9.2,20.5-20.5,20.5Zm0-36c-8.55,0-15.5,6.95-15.5,15.5s6.95,15.5,15.5,15.5,15.5-6.95,15.5-15.5-6.95-15.5-15.5-15.5Z" fill="#524e29"/>
          <path d="M183.5,531.66h-45c-.83,0-1.5-.67-1.5-1.5s.67-1.5,1.5-1.5h45c.83,0,1.5,.67,1.5,1.5s-.67,1.5-1.5,1.5Z" fill="#524e29"/>
          <path d="M210.5,531.66h-18c-.83,0-1.5-.67-1.5-1.5s.67-1.5,1.5-1.5h18c.83,0,1.5,.67,1.5,1.5s-.67,1.5-1.5,1.5Z" fill="#524e29"/>
          <path d="M255.5,531.66h-36c-.83,0-1.5-.67-1.5-1.5s.67-1.5,1.5-1.5h36c.83,0,1.5,.67,1.5,1.5s-.67,1.5-1.5,1.5Z" fill="#524e29"/>
          <path d="M228.5,506.66h-45c-1.38,0-2.5-1.12-2.5-2.5s1.12-2.5,2.5-2.5h45c1.38,0,2.5,1.12,2.5,2.5s-1.12,2.5-2.5,2.5Z" fill="#524e29"/>
          <path d="M174.5,506.66h-18c-1.38,0-2.5-1.12-2.5-2.5s1.12-2.5,2.5-2.5h18c1.38,0,2.5,1.12,2.5,2.5s-1.12,2.5-2.5,2.5Z" fill="#524e29"/>
          <path d="M255.5,506.66h-18c-1.38,0-2.5-1.12-2.5-2.5s1.12-2.5,2.5-2.5h18c1.38,0,2.5,1.12,2.5,2.5s-1.12,2.5-2.5,2.5Z" fill="#524e29"/>
          <path d="M147.5,506.66h-36c-1.38,0-2.5-1.12-2.5-2.5s1.12-2.5,2.5-2.5h36c1.38,0,2.5,1.12,2.5,2.5s-1.12,2.5-2.5,2.5Z" fill="#524e29"/>
          <path d="M183.5,506.66c-1.38,0-2.5-1.12-2.5-2.5,0-8.55-6.95-15.5-15.5-15.5s-15.5,6.95-15.5,15.5c0,1.38-1.12,2.5-2.5,2.5s-2.5-1.12-2.5-2.5c0-11.3,9.2-20.5,20.5-20.5s20.5,9.2,20.5,20.5c0,1.38-1.12,2.5-2.5,2.5Z" fill="#524e29"/>
          <path d="M129.5,506.66c-1.38,0-2.5-1.12-2.5-2.5v-27c0-1.38,1.12-2.5,2.5-2.5s2.5,1.12,2.5,2.5v27c0,1.38-1.12,2.5-2.5,2.5Z" fill="#524e29"/>
          <path d="M201.5,506.66c-1.38,0-2.5-1.12-2.5-2.5v-27c0-1.38,1.12-2.5,2.5-2.5s2.5,1.12,2.5,2.5v27c0,1.38-1.12,2.5-2.5,2.5Z" fill="#524e29"/>
          <path d="M30.5,478.66c-1.38,0-2.5-1.12-2.5-2.5v-24.5H1v-32H28v-22H1v-32H28v-24.5c0-1.38,1.12-2.5,2.5-2.5s2.5,1.12,2.5,2.5v29.5H6v22h27v32H6v22h27v29.5c0,1.38-1.12,2.5-2.5,2.5Z" fill="#524e29"/>
          <path d="M30.5,343.66c-11.3,0-20.5-9.2-20.5-20.5s9.2-20.5,20.5-20.5,20.5,9.2,20.5,20.5-9.2,20.5-20.5,20.5Zm0-36c-8.55,0-15.5,6.95-15.5,15.5s6.95,15.5,15.5,15.5,15.5-6.95,15.5-15.5-6.95-15.5-15.5-15.5Z" fill="#524e29"/>
          <path d="M30.5,353.66c-16.82,0-30.5-13.68-30.5-30.5s13.68-30.5,30.5-30.5,30.5,13.68,30.5,30.5-13.68,30.5-30.5,30.5Zm0-56c-14.06,0-25.5,11.44-25.5,25.5s11.44,25.5,25.5,25.5,25.5-11.44,25.5-25.5-11.44-25.5-25.5-25.5Z" fill="#524e29"/>
          <path d="M30.5,343.66c-11.3,0-20.5-9.2-20.5-20.5s9.2-20.5,20.5-20.5,20.5,9.2,20.5,20.5-9.2,20.5-20.5,20.5Zm0-36c-8.55,0-15.5,6.95-15.5,15.5s6.95,15.5,15.5,15.5,15.5-6.95,15.5-15.5-6.95-15.5-15.5-15.5Z" fill="#524e29"/>
          <path d="M49.5,475.67c-10.21,0-18.52-8.31-18.52-18.52s8.31-18.52,18.52-18.52,18.52,8.31,18.52,18.52-8.31,18.52-18.52,18.52Zm0-34c-8.54,0-15.48,6.95-15.48,15.48s6.95,15.48,15.48,15.48,15.48-6.95,15.48-15.48-6.95-15.48-15.48-15.48Z" fill="#524e29"/>
          <path d="M49.5,469.6c-6.86,0-12.45-5.58-12.45-12.45s5.58-12.45,12.45-12.45,12.45,5.58,12.45,12.45-5.58,12.45-12.45,12.45Zm0-21.86c-5.19,0-9.41,4.22-9.41,9.41s4.22,9.41,9.41,9.41,9.41-4.22,9.41-9.41-4.22-9.41-9.41-9.41Z" fill="#524e29"/>
          <rect x="46.59" y="345.5" width="3.82" height="94.66" fill="#524e29"/>
          <path d="M57.5,450.66c-.83,0-1.5-.67-1.5-1.5v-45c0-.83,.67-1.5,1.5-1.5s1.5,.67,1.5,1.5v45c0,.83-.67,1.5-1.5,1.5Z" fill="#524e29"/>
          <path d="M57.5,396.66c-.83,0-1.5-.67-1.5-1.5v-18c0-.83,.67-1.5,1.5-1.5s1.5,.67,1.5,1.5v18c0,.83-.67,1.5-1.5,1.5Z" fill="#524e29"/>
          <path d="M57.5,369.66c-.83,0-1.5-.67-1.5-1.5v-36c0-.83,.67-1.5,1.5-1.5s1.5,.67,1.5,1.5v36c0,.83-.67,1.5-1.5,1.5Z" fill="#524e29"/>
          <rect x="82" y="359.16" width="5" height="45" fill="#524e29"/>
          <path d="M84.5,433.66c-1.38,0-2.5-1.12-2.5-2.5v-18c0-1.38,1.12-2.5,2.5-2.5s2.5,1.12,2.5,2.5v18c0,1.38-1.12,2.5-2.5,2.5Z" fill="#524e29"/>
          <path d="M84.5,352.66c-1.38,0-2.5-1.12-2.5-2.5v-18c0-1.38,1.12-2.5,2.5-2.5s2.5,1.12,2.5,2.5v18c0,1.38-1.12,2.5-2.5,2.5Z" fill="#524e29"/>
          <path d="M84.5,478.66c-1.38,0-2.5-1.12-2.5-2.5v-36c0-1.38,1.12-2.5,2.5-2.5s2.5,1.12,2.5,2.5v36c0,1.38-1.12,2.5-2.5,2.5Z" fill="#524e29"/>
          <path d="M85.5,362.66c-11.3,0-20.5-9.2-20.5-20.5,0-6.58,3.19-12.8,8.54-16.65,3.5-2.52,7.64-3.85,11.96-3.85,1.38,0,2.5,1.12,2.5,2.5s-1.12,2.5-2.5,2.5c-3.27,0-6.4,1.01-9.04,2.91-4.04,2.91-6.46,7.62-6.46,12.59,0,8.55,6.95,15.5,15.5,15.5,1.38,0,2.5,1.12,2.5,2.5s-1.12,2.5-2.5,2.5Z" fill="#524e29"/>
          <path d="M84.5,442.66c-1.38,0-2.5-1.12-2.5-2.5s1.12-2.5,2.5-2.5c8.55,0,15.5-6.95,15.5-15.5s-6.95-15.5-15.5-15.5c-1.38,0-2.5-1.12-2.5-2.5s1.12-2.5,2.5-2.5c11.3,0,20.5,9.2,20.5,20.5s-9.2,20.5-20.5,20.5Z" fill="#524e29"/>
          <path d="M111.5,460.66h-27c-1.38,0-2.5-1.12-2.5-2.5s1.12-2.5,2.5-2.5h27c1.38,0,2.5,1.12,2.5,2.5s-1.12,2.5-2.5,2.5Z" fill="#524e29"/>
          <path d="M111.5,388.66h-27c-1.38,0-2.5-1.12-2.5-2.5s1.12-2.5,2.5-2.5h27c1.38,0,2.5,1.12,2.5,2.5s-1.12,2.5-2.5,2.5Z" fill="#524e29"/>
          <path d="M84.5,325.66c-1.38,0-2.5-1.12-2.5-2.5v-13.66c0-1.38,1.12-2.5,2.5-2.5s2.5,1.12,2.5,2.5v13.66c0,1.38-1.12,2.5-2.5,2.5Z" fill="#524e29"/>
          <rect x="82" y="293.66" width="5" height="18.34" fill="#524e29"/>
          <path d="M245.5,523.66c-11.3,0-20.5-9.2-20.5-20.5,0-1.38,1.12-2.5,2.5-2.5s2.5,1.12,2.5,2.5c0,8.55,6.95,15.5,15.5,15.5s15.5-6.95,15.5-15.5v-2.5h21c1.38,0,2.5,1.12,2.5,2.5s-1.12,2.5-2.5,2.5h-16.15c-1.24,10.13-9.89,18-20.35,18Z" fill="#524e29"/>
          <rect x="279.5" y="500.66" width="14.5" height="5" fill="#524e29"/>
        </g>
      </g>
    </g>
  </g>
</svg>