<?xml version="1.0" encoding="UTF-8"?>
<svg id="_Шар_2" data-name="Шар 2" xmlns="http://www.w3.org/2000/svg" viewBox="0 0 348.7 348.57">
  <g id="arrows">
    <line x1="17.93" y1="61.25" x2="17.93" y2="324.25" fill="none" stroke="#000" stroke-miterlimit="10" stroke-width="1.74"/>
    <path d="M35.73,71.51S19.96,35.33,17.93,17.52h0s0,0,0,0c0,0,0,0,0,0h0C15.89,35.33,.12,71.51,.12,71.51c5.8-6.77,17.8-9,17.81-9,0,0,12,2.23,17.81,9Z"/>
    <line x1="17.76" y1="291.77" x2=".73" y2="318.09" fill="none" stroke="#000" stroke-miterlimit="10" stroke-width="1.74"/>
    <line x1="17.76" y1="296.77" x2=".73" y2="323.09" fill="none" stroke="#000" stroke-miterlimit="10" stroke-width="1.74"/>
    <line x1="17.76" y1="301.77" x2=".73" y2="328.09" fill="none" stroke="#000" stroke-miterlimit="10" stroke-width="1.74"/>
    <line x1="17.76" y1="306.77" x2=".73" y2="333.09" fill="none" stroke="#000" stroke-miterlimit="10" stroke-width="1.74"/>
    <line x1="17.76" y1="311.77" x2=".73" y2="338.09" fill="none" stroke="#000" stroke-miterlimit="10" stroke-width="1.74"/>
    <line x1="17.76" y1="316.77" x2=".73" y2="343.09" fill="none" stroke="#000" stroke-miterlimit="10" stroke-width="1.74"/>
    <line x1="17.76" y1="321.77" x2=".73" y2="348.09" fill="none" stroke="#000" stroke-miterlimit="10" stroke-width="1.74"/>
    <line x1="17.76" y1="291.78" x2="34.79" y2="318.1" fill="none" stroke="#000" stroke-miterlimit="10" stroke-width="1.74"/>
    <line x1="17.76" y1="296.78" x2="34.79" y2="323.1" fill="none" stroke="#000" stroke-miterlimit="10" stroke-width="1.74"/>
    <line x1="17.76" y1="301.78" x2="34.79" y2="328.1" fill="none" stroke="#000" stroke-miterlimit="10" stroke-width="1.74"/>
    <line x1="17.76" y1="306.78" x2="34.79" y2="333.1" fill="none" stroke="#000" stroke-miterlimit="10" stroke-width="1.74"/>
    <line x1="17.76" y1="311.78" x2="34.79" y2="338.1" fill="none" stroke="#000" stroke-miterlimit="10" stroke-width="1.74"/>
    <line x1="17.76" y1="316.78" x2="34.79" y2="343.1" fill="none" stroke="#000" stroke-miterlimit="10" stroke-width="1.74"/>
    <line x1="17.76" y1="321.78" x2="34.79" y2="348.1" fill="none" stroke="#000" stroke-miterlimit="10" stroke-width="1.74"/>
    <line x1="61.37" y1="17.81" x2="324.37" y2="17.81" fill="none" stroke="#000" stroke-miterlimit="10" stroke-width="1.74"/>
    <path d="M71.63,0S35.45,15.77,17.64,17.81h0s0,0,0,0c0,0,0,0,0,0h0c17.81,2.04,53.99,17.81,53.99,17.81-6.77-5.8-9-17.8-9-17.81,0,0,2.23-12,9-17.81Z"/>
    <line x1="291.89" y1="17.97" x2="318.21" y2="35" fill="none" stroke="#000" stroke-miterlimit="10" stroke-width="1.74"/>
    <line x1="296.89" y1="17.97" x2="323.21" y2="35" fill="none" stroke="#000" stroke-miterlimit="10" stroke-width="1.74"/>
    <line x1="301.89" y1="17.97" x2="328.21" y2="35" fill="none" stroke="#000" stroke-miterlimit="10" stroke-width="1.74"/>
    <line x1="306.89" y1="17.97" x2="333.21" y2="35" fill="none" stroke="#000" stroke-miterlimit="10" stroke-width="1.74"/>
    <line x1="311.89" y1="17.97" x2="338.21" y2="35" fill="none" stroke="#000" stroke-miterlimit="10" stroke-width="1.74"/>
    <line x1="316.89" y1="17.97" x2="343.21" y2="35" fill="none" stroke="#000" stroke-miterlimit="10" stroke-width="1.74"/>
    <line x1="321.89" y1="17.97" x2="348.21" y2="35" fill="none" stroke="#000" stroke-miterlimit="10" stroke-width="1.74"/>
    <line x1="291.9" y1="17.97" x2="318.22" y2=".94" fill="none" stroke="#000" stroke-miterlimit="10" stroke-width="1.74"/>
    <line x1="296.9" y1="17.97" x2="323.22" y2=".94" fill="none" stroke="#000" stroke-miterlimit="10" stroke-width="1.74"/>
    <line x1="301.9" y1="17.97" x2="328.22" y2=".94" fill="none" stroke="#000" stroke-miterlimit="10" stroke-width="1.74"/>
    <line x1="306.9" y1="17.97" x2="333.22" y2=".94" fill="none" stroke="#000" stroke-miterlimit="10" stroke-width="1.74"/>
    <line x1="311.9" y1="17.97" x2="338.22" y2=".94" fill="none" stroke="#000" stroke-miterlimit="10" stroke-width="1.74"/>
    <line x1="316.9" y1="17.97" x2="343.22" y2=".94" fill="none" stroke="#000" stroke-miterlimit="10" stroke-width="1.74"/>
    <line x1="321.9" y1="17.97" x2="348.22" y2=".94" fill="none" stroke="#000" stroke-miterlimit="10" stroke-width="1.74"/>
  </g>
  <g id="lines">
    <path d="M6.25,271.63h0" fill="none" stroke="#000" stroke-miterlimit="10"/>
    <path d="M9.21,63.34c.42-7.32,3.71-14.73,7.27-20.9" fill="none" stroke="#000" stroke-miterlimit="10"/>
    <path d="M23.12,141s0,.02,0,.03" fill="none" stroke="#000" stroke-miterlimit="10"/>
    <path d="M33.88,297.88c-.12-1.24-.42-2.43-.89-3.57-4.78-11.55-25.29-10.63-26.83-20.12-.14-.88-.11-1.74,.09-2.56,2.09,9.02,22.03,8.31,26.74,19.68,.84,2.04,1.11,4.25,.89,6.57Z"/>
    <path d="M29.38,243.22c.3,12.37-20.98,19.07-23.13,28.4-.04-.14-.07-.29-.09-.43-1.67-10.27,21.4-16.9,23.11-29.25,.06,.42,.1,.85,.11,1.28Z"/>
    <path d="M6.25,271.63h0" fill="none" stroke="#000" stroke-miterlimit="10"/>
    <path d="M29.38,240.22c.01,.59-.02,1.16-.11,1.72-1.88-12.88-26.95-18.69-25.69-29.17,.03-.25,.07-.5,.13-.74,2.27,9.44,25.37,15.39,25.67,28.19Z"/>
    <path d="M28.87,191.6c-.74,9.7-22.94,11.15-25.16,20.43-.17-.73-.22-1.48-.13-2.26,1.14-9.6,22.91-11.12,25.12-20.15,.16,.63,.22,1.29,.17,1.98Z"/>
    <path d="M28.87,188.6c-.03,.35-.08,.69-.17,1.02-1.82-7.09-16.25-10.39-17.38-21.24-.1-.98-.09-1.89,.03-2.76,1.43,11.6,18.17,14.49,17.52,22.98Z"/>
    <path d="M23.19,142.06c.33,10.92-10.68,14.88-11.84,23.56-.01-.08-.02-.16-.03-.24-1.07-10.1,10.75-13.88,11.8-24.35,.04,.33,.06,.68,.07,1.03Z"/>
    <path d="M23.19,139.06c.02,.67,0,1.32-.07,1.94-1.09-11.17-13.83-14.43-12.84-24.23,.02-.17,.04-.33,.06-.5,1.2,8.22,12.52,11.82,12.85,22.79Z"/>
    <path d="M27.32,94.57c-.02,9.28-15.45,11.39-16.98,21.7-.13-.79-.15-1.62-.06-2.5,1.04-10.15,15.29-12.52,16.9-20.69,.09,.47,.14,.97,.14,1.49Z"/>
    <path d="M27.32,91.57c0,.53-.05,1.03-.14,1.51-1.35-6.98-12.12-9.39-16.38-19.67-1.34-3.24-1.78-6.65-1.59-10.07,.14,2.41,.64,4.78,1.59,7.07,4.55,10.98,16.53,12.98,16.52,21.16Z"/>
    <path d="M9.21,63.34c-.48-8.25,3.22-16.89,7.27-23.9" fill="none" stroke="#000" stroke-miterlimit="10"/>
    <path d="M4.88,250.78s9.46,9.52,8.25,10.86l4.19-3.83-12.44-7.03Z"/>
    <path d="M28.91,270.4s-6.15,11.93-7.8,11.18l4.93,2.81,2.87-14Z"/>
    <path d="M15.97,268.87s-5.94-3.73-5.48-4.55l-1.68,2.45,7.16,2.11Z"/>
    <path d="M27.62,216.98s-6.15,11.93-7.8,11.18l4.93,2.81,2.87-14Z"/>
    <path d="M4.48,234.51s6.75-11.6,8.36-10.77l-4.79-3.06-3.57,13.83Z"/>
    <path d="M2.31,193.36s8.25,10.59,6.88,11.77l4.62-3.3-11.5-8.48Z"/>
    <path d="M30.51,168.69s-8.95,10-10.36,8.86l4.07,3.96,6.29-12.83Z"/>
    <path d="M6.62,149.32s7.94,7.32,7.01,8.44l3.24-3.23-10.25-5.22Z"/>
    <path d="M24.61,127.05s-4.23,4.42-4.86,3.88l1.79,1.87,3.06-5.75Z"/>
    <path d="M7.3,125.12s5.99-1.26,6.2-.46l-.42-2.55-5.78,3.01Z"/>
    <path d="M10.46,130.89s4.93-3.63,5.45-2.99l-1.45-2.15-4.01,5.14Z"/>
    <path d="M29.85,82.99s-4.36,4.3-4.97,3.74l1.74,1.92,3.23-5.66Z"/>
    <path d="M24.02,77.64s-3.68,4.29-4.33,3.78l1.89,1.77,2.44-5.54Z"/>
    <path d="M7.61,74.23s3.48-1.18,3.68-.68l-.47-1.62-3.2,2.3Z"/>
    <path d="M13.08,66.18s-3.2,1.81-3.49,1.35l.77,1.5,2.72-2.85Z"/>
    <path d="M12.03,81.4s2.5-2.69,2.91-2.35l-1.19-1.2-1.72,3.54Z"/>
    <path d="M15.74,111.61s-3.65-.44-3.61-.98l-.27,1.66,3.88-.69Z"/>
    <path d="M25.03,149.25s-3.65-.44-3.61-.98l-.27,1.66,3.88-.69Z"/>
    <path d="M10.99,176.28s2.69-2.63,3.09-2.27l-1.13-1.25-1.96,3.52Z"/>
    <path d="M24.54,188.48s2.69-2.63,3.09-2.27l-1.13-1.25-1.96,3.52Z"/>
    <path d="M26.29,134.71s-3.61,1.08-3.79,.57l.42,1.63,3.37-2.21Z"/>
    <path d="M26.9,202.24s-3.53-5-2.88-5.51l-2.18,1.4,5.06,4.11Z"/>
    <path d="M11.14,212.7s-4.85,3.74-5.38,3.11l1.49,2.11,3.89-5.23Z"/>
    <path d="M19.52,246.97s4.6,4.04,4.09,4.68l1.79-1.87-5.88-2.81Z"/>
    <path d="M27.71,294.74s2.9-5.39,3.65-5.03l-2.23-1.32-1.42,6.36Z"/>
    <path d="M6.62,283.96s2.9-5.39,3.65-5.03l-2.23-1.32-1.42,6.36Z"/>
    <path d="M9.2,284.93s2.9-5.39,3.65-5.03l-2.23-1.32-1.42,6.36Z"/>
    <path d="M58.81,24.03h-.03c-3.34-.28-6.54-1.21-9.27-2.23" fill="none" stroke="#000" stroke-miterlimit="10"/>
    <path d="M157.62,8.46c-8.42,2.2-8.96,16.04-16.24,16.44-.85,.05-1.65-.1-2.41-.39,5.74-2.36,6.81-14.33,14.75-16.13,1.37-.31,2.66-.25,3.9,.08Z"/>
    <path d="M82.14,10.03c-5.61,1.57-5.59,8.59-13.02,12.28-3.31,1.65-6.87,2.03-10.31,1.72,2.08-.2,4.16-.73,6.14-1.72,7.59-3.78,7.4-11.04,13.42-12.38,1.32-.3,2.57-.23,3.77,.1Z"/>
    <path d="M103.16,20.65c-.17,.05-.35,.09-.53,.12-8.1,1.46-13.57-8.87-20.49-10.74,.13-.04,.26-.07,.4-.1,7.68-1.72,13.13,8.95,20.62,10.72Z"/>
    <path d="M119.53,9.76c-4.9,1.79-6.01,9.79-12.73,11.01-1.27,.23-2.48,.17-3.64-.12,6.94-1.7,7.64-10.9,13.92-11.24,.86-.05,1.68,.08,2.45,.35Z"/>
    <path d="M138.97,24.51c-.54,.22-1.13,.36-1.76,.39-7.16,.39-10.88-12.78-17.68-15.14,.53-.19,1.1-.32,1.72-.35,7.56-.41,11.32,12.62,17.72,15.1Z"/>
    <path d="M58.81,24.03h-.03c-4.77,.47-9.58-.78-13.44-2.23" fill="none" stroke="#000" stroke-miterlimit="10"/>
    <path d="M185.15,23.71c-.64,.09-1.31,.15-2.01,.15-11.71,.06-17.57-13.29-25.52-15.4,.09-.04,.19-.06,.28-.08,9.59-2.17,15.24,13.65,27.25,15.33Z"/>
    <path d="M213.46,9c-11.96,1.48-14.47,14.8-26.14,14.86-.75,0-1.47-.05-2.17-.15,10.35-1.52,13.09-14.16,25.35-14.81,1.06-.06,2.04-.02,2.96,.1Z"/>
    <path d="M244.14,22.89c-1.5,.14-3.07,.13-4.74-.06-13.08-1.51-15.93-12.5-25.94-13.83,.39-.04,.8-.08,1.21-.1,12.54-.67,14.61,12.28,28.91,13.93,.19,.02,.37,.04,.56,.06Z"/>
    <path d="M307.18,30.08c-2.32,.25-4.62,.11-6.87-.54-10.94-3.16-11.07-15.56-22.2-18.58-.64-.17-1.26-.3-1.87-.39,1.89-.27,3.89-.19,6.04,.39,11.13,3.02,11.27,15.42,22.2,18.58,.89,.26,1.79,.44,2.7,.54Z"/>
    <path d="M276.24,10.57c-10.36,1.52-17.87,13.63-32.1,12.32,13.3-1.22,20.55-13.99,32.1-12.32Z"/>
    <g>
      <path d="M266.71,9.35c0-.06,0-.12,0-.18" fill="none" stroke="#000" stroke-miterlimit="10" stroke-width=".31"/>
      <path d="M266.24,8.72c.93,1.17,2.24,1.98,3.62,2.29l-.18,.6c-1.46-.55-2.68-1.6-3.44-2.88,0,0,.76,1.28,0,0Z"/>
      <path d="M266.71,9.35s0,.01,0,.02c.07,.59,.51,1.13,1.07,1.6-.19,0-.4,0-.62-.05-.93-.17-1.95-.76-2.53-1.56-1.82-2.52,.91-7.06,1.69-6.93,.36,.06,.07,1.06,.89,2.66,.83,1.63,1.7,1.73,2.01,3.06,.14,.6,.18,1.57-.21,2.19-.48-.06-1.01-.21-1.52-.52-.47-.28-.67-.55-.79-.48,0,0,0,0,0,0Z"/>
    </g>
    <g>
      <path d="M143.17,14.79s-.08-.09-.11-.14" fill="none" stroke="#000" stroke-miterlimit="10" stroke-width=".31"/>
      <path d="M142.42,14.56c1.44,.4,2.97,.29,4.27-.28l.2,.59c-1.51,.41-3.11,.28-4.48-.32,0,0,1.37,.59,0,0Z"/>
      <path d="M143.17,14.79s0,.01,.01,.02c.41,.43,1.08,.62,1.8,.66-.15,.12-.33,.23-.53,.32-.85,.41-2.03,.53-2.96,.23-2.96-.97-3.41-6.25-2.7-6.6,.33-.16,.68,.81,2.28,1.63,1.62,.83,2.4,.4,3.43,1.3,.47,.41,1.07,1.16,1.11,1.89-.42,.23-.94,.42-1.53,.47-.54,.05-.87-.05-.92,.07,0,0,0,0,0,.01Z"/>
    </g>
    <g>
      <path d="M195.16,13.96c-.02-.05-.04-.11-.05-.17" fill="none" stroke="#000" stroke-miterlimit="10" stroke-width=".31"/>
      <path d="M194.54,13.47c1.2,.89,2.67,1.34,4.09,1.28l-.02,.62c-1.55-.16-3-.86-4.06-1.9,0,0,1.06,1.05,0,0Z"/>
      <path d="M195.16,13.96s0,.01,0,.02c.22,.55,.79,.96,1.44,1.27-.18,.06-.39,.09-.61,.11-.95,.08-2.08-.23-2.84-.85-2.41-1.97-.93-7.06-.14-7.13,.36-.03,.34,1,1.54,2.34,1.22,1.36,2.09,1.24,2.73,2.44,.29,.55,.58,1.47,.36,2.17-.48,.07-1.02,.06-1.6-.11-.52-.15-.79-.36-.88-.26,0,0,0,0,0,.01Z"/>
    </g>
    <g>
      <path d="M107.78,14.3s-.07-.1-.1-.15" fill="none" stroke="#000" stroke-miterlimit="10" stroke-width=".31"/>
      <path d="M107.05,14.02c1.4,.51,2.94,.51,4.28,.05l.16,.6c-1.53,.3-3.12,.04-4.44-.65,0,0,1.32,.7,0,0Z"/>
      <path d="M107.78,14.3s0,.01,.01,.02c.37,.46,1.03,.7,1.75,.8-.16,.11-.35,.2-.55,.28-.88,.35-2.06,.38-2.97,0-2.88-1.19-2.93-6.49-2.19-6.79,.34-.14,.61,.86,2.15,1.8,1.56,.95,2.36,.58,3.32,1.55,.44,.44,.98,1.24,.97,1.97-.44,.2-.96,.35-1.56,.35-.55,0-.86-.12-.92,0,0,0,0,0,0,.01Z"/>
    </g>
    <g>
      <path d="M70.25,14.54s-.06-.08-.09-.12" fill="none" stroke="#000" stroke-miterlimit="10" stroke-width=".26"/>
      <path d="M69.63,14.3c1.18,.43,2.48,.43,3.62,.04l.13,.51c-1.29,.25-2.64,.04-3.75-.55,0,0,1.11,.59,0,0Z"/>
      <path d="M70.25,14.54s0,.01,0,.02c.31,.39,.87,.59,1.48,.67-.13,.09-.29,.17-.46,.24-.75,.29-1.74,.32-2.51,0-2.43-1.01-2.47-5.48-1.85-5.73,.28-.12,.52,.73,1.81,1.52,1.31,.8,1.99,.49,2.8,1.31,.37,.37,.83,1.05,.82,1.66-.37,.17-.81,.3-1.32,.3-.46,0-.73-.1-.78,0,0,0,0,0,0,0Z"/>
    </g>
    <g>
      <path d="M219.22,7.07c.02-.06,.05-.12,.08-.18" fill="none" stroke="#000" stroke-miterlimit="10" stroke-width=".34"/>
      <path d="M219.07,6.22c.33,1.6,1.2,3.04,2.39,4.03l-.48,.49c-1.15-1.26-1.82-2.9-1.92-4.52,0,0,.1,1.63,0,0Z"/>
      <path d="M219.22,7.07s0,.01-.01,.02c-.22,.61-.06,1.36,.25,2.09-.19-.09-.39-.21-.57-.35-.83-.63-1.53-1.71-1.69-2.77-.52-3.37,4.4-6.43,5.1-5.91,.32,.24-.46,1.06-.46,3.03,0,2,.8,2.54,.44,3.99-.16,.66-.6,1.62-1.29,2.03-.44-.3-.88-.7-1.22-1.26-.32-.51-.38-.87-.53-.86,0,0,0,0-.01,0Z"/>
    </g>
    <g>
      <path d="M226.78,10.18c.05-.04,.11-.06,.17-.09" fill="none" stroke="#000" stroke-miterlimit="10" stroke-width=".34"/>
      <path d="M227.19,9.41c-.73,1.46-.94,3.13-.61,4.65l-.68,.09c-.12-1.7,.36-3.4,1.29-4.74,0,0-.93,1.34,0,0Z"/>
      <path d="M226.78,10.18s-.01,0-.02,.01c-.55,.34-.89,1.03-1.09,1.8-.1-.19-.18-.4-.23-.63-.26-1.01-.14-2.29,.39-3.23,1.67-2.97,7.43-2.33,7.66-1.49,.11,.38-1.02,.55-2.23,2.1-1.24,1.57-.94,2.49-2.12,3.41-.53,.42-1.47,.9-2.27,.79-.16-.5-.26-1.09-.18-1.75,.06-.59,.24-.92,.12-1,0,0,0,0-.01,0Z"/>
    </g>
    <g>
      <path d="M169.6,20.73s.01-.08,.03-.12" fill="none" stroke="#000" stroke-miterlimit="10" stroke-width=".22"/>
      <path d="M172.02,19.61c-1.05,.2-1.99,.77-2.65,1.55l-.32-.31c.83-.74,1.9-1.18,2.97-1.23,0,0-1.06,.05,0,0Z"/>
      <path d="M169.63,20.61s0,0,0-.02c.12-.4,.5-.74,.95-.99-.14-.03-.29-.04-.44-.04-.68,0-1.47,.29-1.97,.79-1.6,1.55-.23,5.09,.34,5.09,.26,0,.18-.74,.95-1.76,.78-1.05,1.41-1.01,1.8-1.91,.17-.41,.32-1.08,.12-1.57-.34-.02-.73,.02-1.13,.18-.36,.14-.54,.31-.61,.24,0,0,0,0,0,0Z"/>
    </g>
    <g>
      <path d="M251.72,24.21s-.03-.08-.04-.12" fill="none" stroke="#000" stroke-miterlimit="10" stroke-width=".22"/>
      <path d="M253.14,21.95c-.77,.74-1.26,1.72-1.39,2.73l-.44-.09c.3-1.08,.96-2.02,1.83-2.64,0,0-.87,.62,0,0Z"/>
      <path d="M251.67,24.09s0,0,0-.01c-.11-.41,.02-.89,.26-1.35-.13,.05-.26,.12-.39,.2-.57,.37-1.08,1.04-1.23,1.73-.5,2.17,2.56,4.4,3.04,4.1,.22-.14-.25-.71-.15-2,.09-1.3,.64-1.62,.48-2.58-.08-.44-.31-1.08-.75-1.38-.3,.17-.61,.42-.86,.76-.23,.32-.29,.55-.38,.54,0,0,0,0,0,0Z"/>
    </g>
    <g>
      <path d="M272.23,13.37s-.03-.08-.04-.12" fill="none" stroke="#000" stroke-miterlimit="10" stroke-width=".22"/>
      <path d="M273.66,11.11c-.77,.74-1.26,1.72-1.39,2.73l-.44-.09c.3-1.08,.96-2.02,1.83-2.64,0,0-.87,.62,0,0Z"/>
      <path d="M272.19,13.25s0,0,0-.01c-.11-.41,.02-.89,.26-1.35-.13,.05-.26,.12-.39,.2-.57,.37-1.08,1.04-1.23,1.73-.5,2.17,2.56,4.4,3.04,4.1,.22-.14-.25-.71-.15-2,.09-1.3,.64-1.62,.48-2.58-.08-.44-.31-1.08-.75-1.38-.3,.17-.61,.42-.86,.76-.23,.32-.29,.55-.38,.54,0,0,0,0,0,0Z"/>
    </g>
    <g>
      <path d="M174.88,23.05s-.03-.08-.04-.12" fill="none" stroke="#000" stroke-miterlimit="10" stroke-width=".22"/>
      <path d="M176.3,20.79c-.77,.74-1.26,1.72-1.39,2.73l-.44-.09c.3-1.08,.96-2.02,1.83-2.64,0,0-.87,.62,0,0Z"/>
      <path d="M174.84,22.93s0,0,0-.01c-.11-.41,.02-.89,.26-1.35-.13,.05-.26,.12-.39,.2-.57,.37-1.08,1.04-1.23,1.73-.5,2.17,2.56,4.4,3.04,4.1,.22-.14-.25-.71-.15-2,.09-1.3,.64-1.62,.48-2.58-.08-.44-.31-1.08-.75-1.38-.3,.17-.61,.42-.86,.76-.23,.32-.29,.55-.38,.54,0,0,0,0,0,0Z"/>
    </g>
    <g>
      <path d="M173.18,13.85s0,.08-.02,.13" fill="none" stroke="#000" stroke-miterlimit="10" stroke-width=".22"/>
      <path d="M170.89,15.21c1.02-.31,1.9-.96,2.48-1.8l.35,.28c-.76,.82-1.77,1.36-2.83,1.52,0,0,1.05-.16,0,0Z"/>
      <path d="M173.17,13.97s0,0,0,.02c-.08,.41-.42,.78-.85,1.08,.14,.02,.29,.01,.44,0,.67-.07,1.43-.44,1.89-.98,1.43-1.7-.28-5.09-.85-5.03-.26,.02-.1,.75-.77,1.85-.68,1.12-1.31,1.15-1.6,2.08-.13,.42-.21,1.11,.03,1.57,.34-.02,.73-.09,1.11-.29,.35-.18,.51-.36,.59-.3,0,0,0,0,0,0Z"/>
    </g>
    <g>
      <path d="M94.04,20.66s.03-.08,.05-.12" fill="none" stroke="#000" stroke-miterlimit="10" stroke-width=".22"/>
      <path d="M96.62,19.96c-1.07,.02-2.09,.42-2.87,1.08l-.26-.36c.95-.59,2.07-.84,3.13-.71,0,0-1.06-.13,0,0Z"/>
      <path d="M94.09,20.54s0,0,0-.01c.19-.38,.62-.64,1.1-.82-.13-.05-.27-.09-.43-.11-.67-.11-1.5,.04-2.08,.44-1.83,1.26-1.08,4.98-.52,5.08,.26,.05,.3-.69,1.24-1.58,.95-.9,1.56-.76,2.09-1.58,.24-.37,.5-1.01,.38-1.52-.34-.07-.73-.1-1.15-.01-.38,.08-.59,.21-.65,.14,0,0,0,0,0,0Z"/>
    </g>
    <g>
      <path d="M89.88,9.05s.07,.04,.11,.07" fill="none" stroke="#000" stroke-miterlimit="10" stroke-width=".22"/>
      <path d="M90.06,11.72c.19-1.05,0-2.13-.49-3.03l.41-.18c.39,1.04,.41,2.2,.08,3.21,0,0,.33-1.01,0,0Z"/>
      <path d="M89.98,9.12s0,0,.01,0c.33,.26,.51,.73,.58,1.24,.08-.12,.14-.25,.2-.4,.24-.63,.25-1.48-.02-2.12-.88-2.05-4.66-2.04-4.87-1.51-.1,.24,.62,.43,1.3,1.52,.69,1.11,.43,1.68,1.14,2.36,.32,.31,.89,.69,1.42,.68,.14-.31,.24-.69,.24-1.12,0-.39-.09-.62,0-.66,0,0,0,0,0,0Z"/>
    </g>
    <g>
      <path d="M218.45,14.83c.01-.06,.02-.13,.04-.19" fill="none" stroke="#000" stroke-miterlimit="10" stroke-width=".34"/>
      <path d="M222.16,13.1c-1.6,.31-3.04,1.18-4.05,2.36l-.49-.48c1.27-1.14,2.91-1.8,4.54-1.88,0,0-1.63,.08,0,0Z"/>
      <path d="M218.5,14.64s0-.01,0-.02c.19-.62,.77-1.13,1.45-1.52-.21-.05-.44-.07-.67-.06-1.04,0-2.25,.45-3.02,1.2-2.44,2.38-.35,7.78,.52,7.79,.4,0,.27-1.13,1.46-2.7,1.2-1.6,2.16-1.55,2.75-2.92,.26-.62,.49-1.66,.19-2.4-.53-.03-1.12,.03-1.73,.27-.56,.22-.83,.47-.94,.37,0,0,0,0,0-.01Z"/>
    </g>
    <g>
      <path d="M229.87,21.99c.01-.06,.02-.13,.04-.19" fill="none" stroke="#000" stroke-miterlimit="10" stroke-width=".34"/>
      <path d="M233.58,20.27c-1.6,.31-3.04,1.18-4.05,2.36l-.49-.48c1.27-1.14,2.91-1.8,4.54-1.88,0,0-1.63,.08,0,0Z"/>
      <path d="M229.92,21.8s0-.01,0-.02c.19-.62,.77-1.13,1.45-1.52-.21-.05-.44-.07-.67-.06-1.04,0-2.25,.45-3.02,1.2-2.44,2.38-.35,7.78,.52,7.79,.4,0,.27-1.13,1.46-2.7,1.2-1.6,2.16-1.55,2.75-2.92,.26-.62,.49-1.66,.19-2.4-.53-.03-1.12,.03-1.73,.27-.56,.22-.83,.47-.94,.37,0,0,0,0,0-.01Z"/>
    </g>
    <g>
      <path d="M257.66,22.94c-.04-.05-.07-.11-.1-.17" fill="none" stroke="#000" stroke-miterlimit="10" stroke-width=".34"/>
      <path d="M259.11,19.12c-.93,1.34-1.36,2.97-1.25,4.52h-.68c.12-1.71,.82-3.32,1.93-4.52,0,0-1.11,1.2,0,0Z"/>
      <path d="M257.56,22.77s-.01,0-.01-.02c-.3-.58-.24-1.34-.02-2.1-.18,.11-.36,.26-.52,.43-.74,.73-1.3,1.89-1.32,2.97-.09,3.41,5.19,5.81,5.81,5.21,.29-.28-.59-1-.84-2.95-.26-1.98,.47-2.62-.08-4.01-.25-.63-.8-1.53-1.54-1.84-.39,.35-.78,.81-1.05,1.41-.25,.54-.27,.92-.41,.92,0,0,0,0-.01,0Z"/>
    </g>
    <g>
      <path d="M281.64,15.84c.02-.06,.04-.12,.06-.18" fill="none" stroke="#000" stroke-miterlimit="10" stroke-width=".34"/>
      <path d="M285.51,14.54c-1.63,.13-3.16,.82-4.29,1.89l-.43-.53c1.39-.98,3.09-1.46,4.72-1.36,0,0-1.63-.1,0,0Z"/>
      <path d="M281.71,15.65s0-.01,0-.02c.26-.59,.89-1.03,1.62-1.35-.2-.07-.43-.11-.66-.14-1.03-.11-2.29,.19-3.14,.85-2.69,2.09-1.22,7.69-.36,7.8,.4,.05,.4-1.09,1.75-2.52,1.37-1.45,2.33-1.29,3.06-2.6,.33-.59,.68-1.59,.45-2.36-.52-.09-1.12-.09-1.75,.08-.58,.15-.88,.37-.97,.26,0,0,0,0,0-.01Z"/>
    </g>
    <g>
      <path d="M283.99,7.99c.06,.03,.11,.07,.16,.11" fill="none" stroke="#000" stroke-miterlimit="10" stroke-width=".34"/>
      <path d="M284.31,12.07c.27-1.61-.03-3.26-.79-4.62l.62-.29c.62,1.59,.67,3.35,.17,4.91,0,0,.49-1.55,0,0Z"/>
      <path d="M284.15,8.1s.01,0,.02,.01c.51,.4,.79,1.11,.91,1.89,.12-.18,.21-.39,.29-.61,.36-.97,.37-2.27-.07-3.25-1.37-3.12-7.17-3.05-7.48-2.24-.14,.37,.96,.65,2.02,2.31,1.08,1.68,.69,2.57,1.78,3.6,.49,.47,1.38,1.04,2.18,1.01,.21-.48,.36-1.06,.35-1.72,0-.6-.15-.94-.02-1.01,0,0,0,0,.01,0Z"/>
    </g>
    <g>
      <path d="M168.06,8.96c.06,.03,.11,.07,.16,.11" fill="none" stroke="#000" stroke-miterlimit="10" stroke-width=".34"/>
      <path d="M168.37,13.03c.27-1.61-.03-3.26-.79-4.62l.62-.29c.62,1.59,.67,3.35,.17,4.91,0,0,.49-1.55,0,0Z"/>
      <path d="M168.22,9.07s.01,0,.02,.01c.51,.4,.79,1.11,.91,1.89,.12-.18,.21-.39,.29-.61,.36-.97,.37-2.27-.07-3.25-1.37-3.12-7.17-3.05-7.48-2.24-.14,.37,.96,.65,2.02,2.31,1.08,1.68,.69,2.57,1.78,3.6,.49,.47,1.38,1.04,2.18,1.01,.21-.48,.36-1.06,.35-1.72,0-.6-.15-.94-.02-1.01,0,0,0,0,.01,0Z"/>
    </g>
    <g>
      <path d="M129.5,10.72s.07,.08,.1,.13" fill="none" stroke="#000" stroke-miterlimit="10" stroke-width=".28"/>
      <path d="M128.61,13.98c.66-1.18,.89-2.55,.68-3.83l.56-.05c.03,1.41-.42,2.8-1.24,3.88,0,0,.82-1.07,0,0Z"/>
      <path d="M129.6,10.84s0,0,.01,.02c.29,.45,.3,1.09,.18,1.73,.14-.11,.28-.24,.4-.39,.55-.66,.92-1.66,.86-2.55-.19-2.82-4.73-4.39-5.2-3.85-.22,.25,.56,.78,.92,2.37,.37,1.61-.18,2.2,.37,3.3,.25,.5,.78,1.2,1.41,1.4,.3-.32,.58-.73,.76-1.24,.16-.47,.15-.78,.27-.79,0,0,0,0,0,0Z"/>
    </g>
    <g>
      <path d="M84.48,13.81c.02-.05,.04-.1,.06-.15" fill="none" stroke="#000" stroke-miterlimit="10" stroke-width=".28"/>
      <path d="M87.75,12.94c-1.35,.02-2.66,.51-3.65,1.34l-.33-.46c1.21-.74,2.63-1.04,3.98-.87,0,0-1.34-.17,0,0Z"/>
      <path d="M84.54,13.66s0-.01,0-.02c.25-.48,.79-.81,1.41-1.03-.16-.07-.35-.12-.54-.15-.85-.15-1.9,.04-2.64,.54-2.34,1.58-1.42,6.3-.71,6.43,.32,.06,.39-.88,1.58-1.99,1.21-1.13,1.99-.95,2.67-1.98,.31-.47,.64-1.28,.5-1.93-.43-.1-.92-.14-1.45-.03-.49,.09-.75,.26-.82,.17,0,0,0,0,0,0Z"/>
    </g>
    <g>
      <path d="M126.86,21.36c.02-.05,.04-.1,.06-.15" fill="none" stroke="#000" stroke-miterlimit="10" stroke-width=".28"/>
      <path d="M130.14,20.49c-1.35,.02-2.66,.51-3.65,1.34l-.33-.46c1.21-.74,2.63-1.04,3.98-.87,0,0-1.34-.17,0,0Z"/>
      <path d="M126.93,21.21s0-.01,0-.02c.25-.48,.79-.81,1.41-1.03-.16-.07-.35-.12-.54-.15-.85-.15-1.9,.04-2.64,.54-2.34,1.58-1.42,6.3-.71,6.43,.32,.06,.39-.88,1.58-1.99,1.21-1.13,1.99-.95,2.67-1.98,.31-.47,.64-1.28,.5-1.93-.43-.1-.92-.14-1.45-.03-.49,.09-.75,.26-.82,.17,0,0,0,0,0,0Z"/>
    </g>
    <g>
      <path d="M159.38,11.68c.02-.05,.04-.1,.06-.15" fill="none" stroke="#000" stroke-miterlimit="10" stroke-width=".28"/>
      <path d="M162.65,10.82c-1.35,.02-2.66,.51-3.65,1.34l-.33-.46c1.21-.74,2.63-1.04,3.98-.87,0,0-1.34-.17,0,0Z"/>
      <path d="M159.44,11.53s0-.01,0-.02c.25-.48,.79-.81,1.41-1.03-.16-.07-.35-.12-.54-.15-.85-.15-1.9,.04-2.64,.54-2.34,1.58-1.42,6.3-.71,6.43,.32,.06,.39-.88,1.58-1.99,1.21-1.13,1.99-.95,2.67-1.98,.31-.47,.64-1.28,.5-1.93-.43-.1-.92-.14-1.45-.03-.49,.09-.75,.26-.82,.17,0,0,0,0,0,0Z"/>
    </g>
    <g>
      <path d="M120.48,13.04c.02-.05,.04-.1,.06-.15" fill="none" stroke="#000" stroke-miterlimit="10" stroke-width=".28"/>
      <path d="M123.75,12.17c-1.35,.02-2.66,.51-3.65,1.34l-.33-.46c1.21-.74,2.63-1.04,3.98-.87,0,0-1.34-.17,0,0Z"/>
      <path d="M120.54,12.89s0-.01,0-.02c.25-.48,.79-.81,1.41-1.03-.16-.07-.35-.12-.54-.15-.85-.15-1.9,.04-2.64,.54-2.34,1.58-1.42,6.3-.71,6.43,.32,.06,.39-.88,1.58-1.99,1.21-1.13,1.99-.95,2.67-1.98,.31-.47,.64-1.28,.5-1.93-.43-.1-.92-.14-1.45-.03-.49,.09-.75,.26-.82,.17,0,0,0,0,0,0Z"/>
    </g>
    <g>
      <path d="M205.02,7.03c.05,.01,.1,.03,.15,.05" fill="none" stroke="#000" stroke-miterlimit="10" stroke-width=".28"/>
      <path d="M206.17,10.21c-.14-1.35-.74-2.6-1.65-3.52l.43-.37c.84,1.14,1.27,2.53,1.22,3.89,0,0,.05-1.35,0,0Z"/>
      <path d="M205.17,7.08s.01,0,.02,0c.5,.2,.87,.72,1.15,1.31,.05-.17,.09-.36,.1-.55,.07-.86-.2-1.89-.77-2.58-1.78-2.19-6.4-.87-6.47-.15-.03,.33,.91,.31,2.12,1.4,1.23,1.11,1.12,1.9,2.21,2.49,.49,.27,1.33,.53,1.96,.33,.06-.43,.06-.93-.1-1.45-.14-.48-.33-.72-.24-.8,0,0,0,0,0,0Z"/>
    </g>
  </g>
  <g id="flower">
    <path d="M52.87,52.9c-.74-2.07-1.18-5.28,1.32-6.38,1.84-.77,3.66-.71,5.33-1.6,0,0-.53,.31-.53,.31,4.45-4.24,12.42-4.21,16.36,.64,1.24,1.46,2.12,3.15,2.42,4.96-4.53-4.4-10.83-6.21-16.22-2.43-1.66,1.11-4.84,.8-6.43,.73-.26,0-.35-.01-.59,.16-.92,.95-1.13,2.31-1.66,3.6h0Z"/>
    <path d="M74.02,50.83c1.12,.93,2.1,2,2.83,3.4,.34,.71,.66,1.53,.59,2.6-.03,.53-.21,1.12-.56,1.65-.34,.56-1.01,1.03-1.45,1.22-.86,.39-1.22,.57-1.69,.87-.44,.3-.88,.64-1.21,.99-.34,.36-.59,.68-.92,1.22-.32,.5-.85,1.37-1.71,2.08-.87,.68-1.81,1.06-2.77,1.27-.96,.19-1.9,.17-2.76,.04-1.72-.29-3.19-.96-4.48-1.83-2.75-1.83-4.29-4.93-4.2-7.83,1.68,2.36,3.67,4.03,5.82,4.79,1.13,.42,2.3,.71,3.32,.74,1.02,.06,1.83-.22,2.3-.59,.22-.15,.45-.47,.89-1.1,.44-.61,1.05-1.36,1.76-1.91,.71-.56,1.43-.98,2.21-1.31,.76-.34,1.72-.54,2.16-.62,.2-.06,.14,.04,.21,.04,.07-.02,.16-.09,.25-.23,.17-.29,.23-.87,.18-1.48-.08-1.24-.46-2.6-.77-4.01Z"/>
    <path d="M61.08,41.84c-.2-.41,.19-1,.29-1.4,.15-.43,.31-.83,.44-1.25l.55-.37c.65-.87,1.29-2.05,2.32-2.77,1.11-.73,2.11-.87,3.34-.58,1.22,.33,2.24,1.1,3.1,1.86,0,0-.72-.39-.72-.39,1.55,.43,2.66,1.2,4.02,1.73,0,0,.19,.31,.19,.31,.78,1.22,1.23,2,2.61,2.69,0,0-1.13,.45-1.13,.45,.36-.56,1.15-.83,1.71-.47,.43,.24,.71,.68,.94,.99,.15,.24,.33,.48,.42,.59,0,.02,.05,.14,.15,0,.11-.07,.16-.22,.25-.35,.3,1.27-.86,.98-1.54,.6-.3-.14-.61-.35-.82-.31-.02,.04,.05,.05,.09,.06,.1,.02,.41-.05,.49-.18,0,0-1.13,.45-1.13,.45-.82-.05-1.87-.37-2.59-.86-.8-.52-1.43-1.16-1.97-1.8l.8,.57c-1.38-.33-2.49-1.02-3.74-1.27,0,0-.31-.29-.31-.29-.64-.59-1.29-1.14-2.02-1.41-.25,.04-.35-.07-.69,.06-.48,.14-1.41,.9-1.87,1.2-.4,.25-.87,.62-1.66,.66l.55-.36c-.48,.51-1.05,.98-1.62,1.38-.18,.14-.38,.24-.43,.46h0Z"/>
    <path d="M80.23,53.52l-.07-.2-.03-.11s0-.03,0-.06c.01-.02-.02,.01,.02-.04,.03-.07,.22,0,.19,.03v.02s.02,.02,.02,.02l.02,.06,.14,.41c.09,.27,.18,.54,.25,.81,.14,.54,.3,1.08,.41,1.63,.24,1.09,.4,2.19,.52,3.32,.1,1.13,.15,2.26,.05,3.48-.06,.62-.14,1.24-.41,2.03-.16,.4-.31,.85-.9,1.46-.28,.29-.78,.64-1.43,.79-.65,.15-1.3,.04-1.74-.13l3.1-1.43c-.67,2.64-2.25,5.17-4.42,6.91-2.1,1.73-4.88,2.98-7.84,2.93-.72,0-1.55-.11-2.3-.32-.74-.21-1.32-.49-1.85-.73-1.03-.49-1.99-.95-3.03-1.4-2.05-.9-4.17-1.75-6.41-2.66,2.35-.59,4.79-.71,7.2-.49,1.2,.1,2.44,.31,3.58,.58,.57,.13,1.08,.22,1.46,.26,.38,.03,.7,0,1.13-.06,1.66-.25,3.28-1,4.72-2.18,1.42-1.14,2.54-2.57,3.3-4.3l3.1-1.43c-.19-.08-.57-.14-.95-.05-.39,.09-.64,.3-.73,.4-.2,.24-.09,.2-.03,.11,.15-.2,.33-.63,.48-1.06,.31-.88,.57-1.9,.82-2.91l.76-3.13,.41-1.59,.21-.8,.1-.4s0-.04,.01-.04h0s0-.02,0,0c-.03,.03,.16,.1,.18,.03,.04-.06,.01-.02,.02-.04,0-.01,0-.02,0,0l-.04,.09-.07,.2Z"/>
    <path d="M65.14,78.08c-.78-1.56-2.22-1.87-3.63-1.97-1.43-.09-2.93,.08-4.41,.29-1.49,.22-2.99,.51-4.49,.83-1.49,.32-3.01,.66-4.46,1.04-.56,.14-1.12,.08-1.61-.15l-.11-.05c-2.3-1.08-4.32-2.75-5.76-4.94-1.43-2.17-2.16-4.84-2.04-7.34,.06-1.26,.27-2.39,.56-3.5,.29-1.15,.71-2.26,1.25-3.29,1.07-2.06,2.6-3.81,4.43-5.06-.82,2.05-1.44,4.03-1.73,5.98-.14,.98-.22,1.93-.22,2.88,0,.99,.02,1.97,.16,2.83,.23,1.73,.89,3.24,1.85,4.57,.97,1.3,2.3,2.42,3.79,3.23l-1.72-.2c1.66-.32,3.3-.54,4.98-.65,1.67-.1,3.36-.12,5.07,.07,1.7,.18,3.44,.5,5.09,1.28,.82,.39,1.63,.91,2.23,1.66,.61,.73,.91,1.69,.77,2.52Z"/>
    <path d="M61.49,65.65c.09,.35,.18,.7,.21,1.07,.02,.37,.07,.75-.12,1.21-.08,.22-.29,.49-.59,.63-.3,.14-.6,.15-.84,.14-.48-.03-.84-.16-1.19-.26-.69-.21-1.31-.39-1.88-.47-.57-.09-1.04-.03-1.46,.12l-.09,.02c-1.75,.43-3.71,.15-5.29-.8-1.59-.93-2.83-2.51-3.25-4.31-.44-1.79-.09-3.7,.86-5.14,.91-1.46,2.43-2.45,3.98-2.66-1.22,.97-2.01,2.18-2.4,3.43-.37,1.26-.34,2.54,.08,3.62,.81,2.19,3.17,3.61,5.57,3.36l-.09,.02c.93-.19,1.89-.06,2.66,.23,.78,.28,1.42,.7,1.99,1.07,.28,.18,.56,.34,.76,.45,.1,.05,.16,.07,.19,.09,.03,.03,.08,.03,.16-.05,.16-.15,.32-.47,.42-.78,.12-.32,.21-.66,.31-1.01Z"/>
    <path d="M45.12,57.93c.87-1.43,1.35-2.91,1.44-4.35,.09-1.43-.19-2.83-.76-4.04l-.11-.22v-.36c.03-1.57,.5-3.23,1.6-4.57,.54-.66,1.23-1.22,2-1.61,.78-.38,1.58-.58,2.33-.66,.75-.1,1.44-.1,2.13-.11,.73,0,1.45,.06,2.16,.18,1.41,.23,2.77,.7,3.97,1.43-1.4,0-2.73,.06-4.02,.21-.64,.08-1.27,.2-1.89,.33-.65,.14-1.31,.27-1.88,.43-1.18,.31-1.97,.78-2.59,1.58-.6,.77-.98,1.82-1.1,2.94l-.1-.59c.64,1.78,.68,3.74,.08,5.46-.59,1.72-1.78,3.17-3.26,3.95Z"/>
    <path d="M59.58,57.03s.05,.12,.02,.09c-.09,.02-.06-.02-.07-.07-.1-.6-.11-1.22-.04-1.83,.07-.7,.27-1.41,.64-2.09l-.09,.18c.84-4.19,5.13-3.47,8.22-2.48-1.97,.78-4.28,.23-5.88,1.4-.41,.37-.75,1.05-1.02,1.69-.72,.87-1.2,2.1-1.68,3.15-.03,.05-.05,.18-.11,.12-.04-.11,.01-.1,.01-.16h0Z"/>
    <path d="M70.7,50.93s-.04-.1-.04-.1c.04,.01,.09,0,.09,0,.18,.66,.26,1.33,.24,2.01,0,.76-.14,1.54-.5,2.31l.09-.22c-.62,4.74-5.28,3.59-8.49,2.26,2-.68,4.53,.08,6.1-1.02,.37-.34,.69-1.11,.9-1.79,.69-.97,1.1-2.35,1.52-3.5,.02-.05,.05-.22,.13-.11,.01,.1-.01,.11-.02,.16h0Z"/>
    <path d="M38.15,68.38c.14,2,.45,3.87,.9,5.62,.47,1.74,1.12,3.34,1.98,4.66,.84,1.34,1.91,2.37,3.08,3.21,1.19,.81,2.53,1.37,3.96,1.72l-3.85,1.28c.21-.28,.28-.36,.41-.51,.12-.13,.23-.26,.35-.38,.23-.24,.48-.46,.74-.67,.52-.42,1.1-.8,1.75-1.1,1.3-.61,2.91-.84,4.36-.62,1.47,.21,2.85,.85,3.95,1.8,1.1,.94,1.95,2.17,2.41,3.53l-1.33-1.75c.49,.39,1.03,.66,1.56,.82,.54,.18,1.09,.23,1.7,.16,.61-.05,1.28-.29,1.98-.62,.67-.33,1.43-.87,1.97-1.31l-.48,2.16c-.15-1.23-.1-2.5,.12-3.74,.25-1.23,.65-2.46,1.38-3.54,.7-1.07,1.76-2.06,3.08-2.4,1.33-.36,2.54,.1,3.39,.72-1.08,.01-2.09,.3-2.62,.89-.56,.55-.82,1.31-.96,2.1-.13,.79-.1,1.63,.04,2.44,.11,.82,.37,1.62,.67,2.39l.35,.89-.82,1.27c-.8,1.24-1.63,2.16-2.71,3.06-1.06,.88-2.35,1.61-3.82,2.07-1.47,.46-3.12,.55-4.68,.3-1.57-.27-3.03-.9-4.29-1.74l-.83-.55-.51-1.2c-.13-.32-.44-.48-.66-.54-.13-.02-.17-.03-.34,.02-.08,.02-.19,.06-.3,.13-.06,.04-.12,.08-.17,.12l-.07,.05s-.06,.06,.02-.05l-3.86,1.28c-2.22-.76-4.34-2.01-6.03-3.71-1.68-1.7-2.92-3.82-3.55-6.01-.62-2.2-.69-4.42-.38-6.49,.34-2.07,1.01-4.03,2.08-5.74Z"/>
    <path d="M83.57,59.09c-.04-3.18,.83-6.43,2.02-9.31,.94-2.06,.8-3.3-.71-5.05,0,0,1.74,1.34,1.74,1.34-.49-.16-.77-.28-1.13-.44-5.56-2.31-7.82-9.55-4.41-14.58,0,0-.45,1.13-.45,1.13-.02,.02-.01,.06,.01,.08,.02,0,0,.07,.02,.14,.09,.34,.3,.79,.64,.98,.34,.18-.04-.18-.62-.37-1.03-.38-2.64-.76-3.82-1.34-.89-.44-1.57-.92-2.21-1.85,0,0,3.14,1.03,3.14,1.03-1.8,.32-3.63,.58-5.54,.58-1.51,.08-6.2-.41-4.21-2.84-.02,.46,.13,.96,.39,.9,2.66-.61,5.08-2.49,7.55-3.73,0,0,3.14,1.03,3.14,1.03-.03-.21-.33-.42-.27-.44,0-.03-.03-.06-.04-.07l.11-.02c1.09,.04,1.97,.06,3.3,.24,.98,.18,2.21,.31,3.8,1.55,1.73,1.43,2.29,3.8,1.83,5.92,0,0-.41,.89-.41,.89-.79,1.61-.17,3.38,1.36,4.31,.13,.07,1.78,1.37,1.97,1.51,1.05,1.68,1.84,3.92,1.61,6.27-.27,3.82-3.46,6.05-5.69,8.67,0,0-3.12,3.47-3.12,3.47h0Z"/>
    <path d="M54.19,37.83c-2.88-.08-5.73-.63-8.16,.31-.13,.05-.19,.14-.28,.19-.02,.08-.1,.12-.06,.18-.02,.06,.15,.1,.19,.08l-.39,.56c-.03,.21-.26,.92-.57,1.89-1.38,4.87-5.76,7.04-10.67,5.87,.12,0,.96,.12,1.04,.03,.42-.12,.99-.63,1.1-1.09,.03-.03,.02-.17,.01-.12-.24,.53-.07,2.53-.1,3.13-.01,1.52-.1,2.98-1.15,4.31,0,0,.05-3.37,.05-3.37,.82,1.64,1.56,3.28,2.07,5.07,.33,1.47,.95,3.13,.09,4.66-.41,.57-1.13,.49-1.59,.17,.3-.09,.83-.3,.64-.62-.48-.89-1.38-1.72-2.14-2.5,0,0-3.59-3.48-3.59-3.48l.05-3.37c-.24,.17-.28,.42-.42,.56-.07-.11-.08-.19-.13-.38-.7-2.5-1.42-5.77,.41-8.1,1.07-1.36,2.7-2.02,4.36-2.11,.86,.1,2.08,.3,2.65,.12,.41-.08,.62-.53,1.16-1.46,.64-1.16,1.13-2.15,2.17-3.22,2.73-3.56,9.18-2.26,13.24,2.68h0Z"/>
    <path d="M89.38,52.77c1.98,.51,3.84,1.84,5.11,3.78,1.26,1.94,1.86,4.42,1.86,6.74,0,1.17-.13,2.3-.33,3.41-.22,1.08-.5,2.14-.85,3.13-.34,.99-.73,1.94-1.12,2.81l-.28,.64c-.13,.26-.24,.5-.39,.77-.29,.54-.59,1.07-1.17,1.81-.33,.38-.57,.76-1.54,1.48-.14,.1-.27,.19-.42,.27-.2,.12-.41,.23-.62,.33-.25,.12-.59,.24-.92,.34-.46,.12-.84,.2-1.53,.22-.57,.03-1.55-.13-2.16-.38-.57-.22-1.15-.55-1.65-.95-.25-.2-.48-.42-.69-.64-.17-.19-.24-.29-.36-.44-.21-.29-.4-.59-.57-.91-.08-.16-.16-.32-.22-.48l-.1-.26c-.06-.17-.11-.33-.16-.5-.05-.17-.09-.35-.12-.5l-.05-.3c-.03-.19-.06-.41-.08-.58l-.03-.4c-.03-.52-.02-.85-.02-1.17,.02-.59,.04-1.05,.03-1.22h0s0-.01,0,.07c0,.06,0,.12,.01,.18,.02,.19,.05,.42,.1,.62,0,0,.11,.45,.24,.76,.13,.32,.3,.64,.49,.92l.13,.18,.21,.27c.15,.18,.31,.36,.48,.53,.35,.34,.76,.64,1.18,.87,.21,.12,.43,.21,.64,.3,.2,.08,.44,.16,.71,.23,.52,.14,1.09,.19,1.61,.17,1.68-.09,2.5-.71,2.82-.89,.19-.12,.39-.28,.46-.34,.09-.07,.21-.18,.26-.23,.42-.42,.35-.41,.35-.39l-.17,.25-.53,.88-1.21,2.13c-.84,1.48-1.74,3.01-2.73,4.53-.51,.78-.99,1.5-1.65,2.43l-.31,.44-.28,.39c-.09,.12-.13,.18-.38,.48l-.16,.18c-.13,.14-.38,.37-.59,.53-.11,.08-.23,.16-.35,.24,.04-.03-.42,.3-1.23,.53-.72,.2-1.56,.19-2.24,.02-.65-.16-1.25-.44-1.86-.96-.6-.5-1.05-1.2-1.28-1.82-.13-.36-.11-.35-.17-.55-.07-.3-.11-.61-.13-.91,0-.24,0-.38,.02-.57,.02-.18,.02-.18,.04-.28l.04-.2c.05-.2,.09-.32,.13-.43,.07-.2,.14-.35,.21-.49,.26-.53,.5-.94,.74-1.37l6.19,4.6c-1.12,.51-2.28,.88-3.46,1.07-.59,.09-1.18,.15-1.77,.17-.59,0-1.17-.02-1.75-.09-2.29-.28-4.38-1.28-5.8-2.83,2.05-.43,3.71-1.13,5.03-2,.66-.43,1.24-.91,1.75-1.41,.51-.51,.96-1.02,1.34-1.56l7.41-10.62-1.22,15.22c-.03,.42-.07,.87-.06,1.19,0,.08,.01,.14,.03,.16,.01,0,.03-.01,.06-.1,0,0,.02-.08,.03-.12,.01-.07,.01-.05,.03-.2,.01-.17,.02-.27,.02-.49,0-.29-.05-.59-.12-.87-.05-.19-.04-.18-.16-.53-.23-.62-.68-1.31-1.27-1.81-.61-.51-1.21-.78-1.85-.95-.67-.17-1.5-.18-2.21,.01-.81,.23-1.26,.55-1.22,.52-.11,.07-.22,.14-.33,.22-.2,.15-.44,.37-.56,.5l-.14,.14-.29,.35c-.08,.1-.1,.11-.11,.11-.02,0,0-.07,0-.15,.14-.66,.4-1.58,.64-2.42,.5-1.72,1.07-3.45,1.77-5.19,.35-.87,.72-1.75,1.18-2.66,.23-.46,.47-.93,.78-1.45,.16-.27,.33-.54,.55-.88,.25-.35,.45-.7,1.19-1.43,.09-.09,.25-.23,.38-.34,.11-.09,.35-.28,.59-.44,.42-.25,1.34-.9,3.13-1.01,.56-.02,1.15,.04,1.7,.18,.29,.07,.54,.16,.75,.24,.22,.09,.45,.2,.67,.32,.45,.25,.88,.56,1.25,.92,.19,.18,.36,.36,.52,.56l.22,.29,.14,.2c.21,.33,.4,.7,.56,1.07,.15,.35,.29,.86,.29,.91,.07,.31,.13,.65,.16,.95l.03,.51c0,.2,0,.29,0,.4v.34c-.04,.72-.1,1.15-.13,1.45-.01,.13-.02,.25-.04,.17v-.06c-.02-.06-.03-.17-.05-.25l-.03-.13c-.02-.1-.05-.23-.08-.34-.03-.12-.07-.23-.11-.34l-.07-.18c-.05-.14-.11-.27-.18-.41-.14-.27-.3-.53-.48-.77-.1-.13-.16-.2-.31-.37-.18-.21-.39-.41-.62-.59-.45-.37-.99-.67-1.51-.86-.55-.23-1.48-.37-1.99-.35-.63,.02-.96,.09-1.37,.19-.28,.07-.56,.18-.76,.28-.16,.07-.32,.16-.47,.25-.09,.06-.19,.12-.28,.18-.6,.47-.54,.51-.58,.56,0,.05,.2-.15,.39-.37,.09-.1,.2-.25,.3-.38l.39-.52,1.43-1.9c.89-1.21,1.73-2.35,2.37-3.53,.69-1.18,1.17-2.37,1.41-3.86,.22-1.48,.06-3.23-.54-5.19Z"/>
  </g>
</svg>