<?xml version="1.0" encoding="UTF-8"?>
<svg id="_Шар_2" data-name="Шар 2" xmlns="http://www.w3.org/2000/svg" xmlns:xlink="http://www.w3.org/1999/xlink" viewBox="0 0 114 122" style="stroke: #f8a41e; color: #f8961e; fill: #f8961e" >
  <defs>
    <clipPath id="clippath">
      <rect width="114" height="122" fill="none"/>
    </clipPath>
    <clipPath id="clippath-1">
      <rect x="61.26" y="-36.12" width="110.13" height="67.44" fill="none"/>
    </clipPath>
    <clipPath id="clippath-2">
      <rect x="61.26" y="31.32" width="110.13" height="67.44" fill="none"/>
    </clipPath>
    <clipPath id="clippath-3">
      <rect x="61.26" y="98.76" width="110.13" height="67.44" fill="none"/>
    </clipPath>
    <clipPath id="clippath-4">
      <rect x="-48.87" y="-36.12" width="110.13" height="67.44" fill="none"/>
    </clipPath>
    <clipPath id="clippath-5">
      <rect x="-48.87" y="31.32" width="110.13" height="67.44" fill="none"/>
    </clipPath>
    <clipPath id="clippath-6">
      <rect x="-48.87" y="98.76" width="110.13" height="67.44" fill="none"/>
    </clipPath>
  </defs>
  <g id="bw-pattern">
    <g clip-path="url(#clippath)">
      <g clip-path="url(#clippath-1)">
        <g>
          <g>
            <polygon points="69.48 16.19 53.04 16.19 44.81 31.32 53.04 46.45 69.48 46.45 77.71 31.32 69.48 16.19" fill="#fff"/>
            <path d="M70.15,47.57h-17.78l-8.83-16.25,8.83-16.25h17.78l8.83,16.25-8.83,16.25Zm-16.45-2.24h15.11l7.61-14.01-7.61-14.01h-15.11l-7.61,14.01,7.61,14.01Z"/>
          </g>
          <g>
            <polygon points="49.87 52.27 38.49 31.32 49.87 10.37 72.65 10.37 84.03 31.32 72.65 52.27 49.87 52.27" fill="#fff"/>
            <path d="M73.31,53.4h-24.11l-12-22.07,12-22.07h24.11l12,22.07-12,22.07Zm-22.78-2.24h21.44l10.78-19.83-10.78-19.83h-21.44l-10.78,19.83,10.78,19.83Z"/>
          </g>
          <g>
            <polygon points="46.71 58.1 32.16 31.32 46.71 4.55 75.81 4.55 90.36 31.32 75.81 58.1 46.71 58.1" fill="#fff"/>
            <path d="M76.48,59.22h-30.44l-15.16-27.9L46.04,3.42h30.44l15.16,27.9-15.16,27.9Zm-29.11-2.24h27.77l13.94-25.65-13.94-25.65h-27.77l-13.94,25.65,13.94,25.65Z"/>
          </g>
          <g>
            <polygon points="43.54 63.92 25.83 31.32 43.54 -1.28 78.98 -1.28 96.69 31.32 78.98 63.92 43.54 63.92" fill="#fff"/>
            <path d="M79.64,65.04H42.88L24.55,31.32,42.88-2.4h36.77l18.33,33.72-18.33,33.72Zm-35.44-2.24h34.1l17.11-31.48L78.31-.15H44.21L27.1,31.32l17.1,31.48Z"/>
          </g>
          <g>
            <polygon points="46.71 58.1 32.16 31.32 46.71 4.55 75.81 4.55 90.36 31.32 75.81 58.1 46.71 58.1" fill="#fff"/>
            <path d="M76.48,59.22h-30.44l-15.16-27.9L46.04,3.42h30.44l15.16,27.9-15.16,27.9Zm-29.11-2.24h27.77l13.94-25.65-13.94-25.65h-27.77l-13.94,25.65,13.94,25.65Z"/>
          </g>
          <g>
            <polygon points="49.87 52.27 38.49 31.32 49.87 10.37 72.65 10.37 84.03 31.32 72.65 52.27 49.87 52.27" fill="#fff"/>
            <path d="M73.31,53.4h-24.11l-12-22.07,12-22.07h24.11l12,22.07-12,22.07Zm-22.78-2.24h21.44l10.78-19.83-10.78-19.83h-21.44l-10.78,19.83,10.78,19.83Z"/>
          </g>
          <g>
            <polygon points="69.48 16.19 53.04 16.19 44.81 31.32 53.04 46.45 69.48 46.45 77.71 31.32 69.48 16.19" fill="#fff"/>
            <path d="M70.15,47.57h-17.78l-8.83-16.25,8.83-16.25h17.78l8.83,16.25-8.83,16.25Zm-16.45-2.24h15.11l7.61-14.01-7.61-14.01h-15.11l-7.61,14.01,7.61,14.01Z"/>
          </g>
        </g>
        <g>
          <g>
            <polygon points="124.55 -17.53 108.1 -17.53 99.88 -2.4 108.1 12.73 124.55 12.73 132.77 -2.4 124.55 -17.53" fill="#fff"/>
            <path d="M125.21,13.85h-17.78L98.6-2.4l8.83-16.25h17.78l8.83,16.25-8.83,16.25Zm-16.45-2.24h15.11l7.61-14.01-7.61-14.01h-15.11l-7.61,14.01,7.61,14.01Z"/>
          </g>
          <g>
            <polygon points="104.94 18.55 93.55 -2.4 104.94 -23.35 127.71 -23.35 139.1 -2.4 127.71 18.55 104.94 18.55" fill="#fff"/>
            <path d="M128.38,19.68h-24.11L92.27-2.4l12-22.07h24.11l12,22.07-12,22.07Zm-22.78-2.24h21.44l10.78-19.83-10.78-19.83h-21.44L94.83-2.4l10.78,19.83Z"/>
          </g>
          <g>
            <polygon points="101.77 24.38 87.22 -2.4 101.77 -29.17 130.88 -29.17 145.43 -2.4 130.88 24.38 101.77 24.38" fill="#fff"/>
            <path d="M131.54,25.5h-30.44L85.94-2.4l15.16-27.9h30.44l15.16,27.9-15.16,27.9Zm-29.11-2.24h27.77l13.94-25.65-13.94-25.65h-27.77L88.5-2.4l13.94,25.65Z"/>
          </g>
          <g>
            <polygon points="98.61 30.2 80.89 -2.4 98.61 -35 134.04 -35 151.76 -2.4 134.04 30.2 98.61 30.2" fill="#fff"/>
            <path d="M134.71,31.32h-36.77L79.61-2.4l18.33-33.72h36.77L153.04-2.4l-18.33,33.72Zm-35.44-2.24h34.1L150.48-2.4l-17.1-31.48h-34.1L82.17-2.4l17.11,31.48Z"/>
          </g>
          <g>
            <polygon points="101.77 24.38 87.22 -2.4 101.77 -29.17 130.88 -29.17 145.43 -2.4 130.88 24.38 101.77 24.38" fill="#fff"/>
            <path d="M131.54,25.5h-30.44L85.94-2.4l15.16-27.9h30.44l15.16,27.9-15.16,27.9Zm-29.11-2.24h27.77l13.94-25.65-13.94-25.65h-27.77L88.5-2.4l13.94,25.65Z"/>
          </g>
          <g>
            <polygon points="104.94 18.55 93.55 -2.4 104.94 -23.35 127.71 -23.35 139.1 -2.4 127.71 18.55 104.94 18.55" fill="#fff"/>
            <path d="M128.38,19.68h-24.11L92.27-2.4l12-22.07h24.11l12,22.07-12,22.07Zm-22.78-2.24h21.44l10.78-19.83-10.78-19.83h-21.44L94.83-2.4l10.78,19.83Z"/>
          </g>
          <g>
            <polygon points="124.55 -17.53 108.1 -17.53 99.88 -2.4 108.1 12.73 124.55 12.73 132.77 -2.4 124.55 -17.53" fill="#fff"/>
            <path d="M125.21,13.85h-17.78L98.6-2.4l8.83-16.25h17.78l8.83,16.25-8.83,16.25Zm-16.45-2.24h15.11l7.61-14.01-7.61-14.01h-15.11l-7.61,14.01,7.61,14.01Z"/>
          </g>
        </g>
      </g>
      <g clip-path="url(#clippath-2)">
        <g>
          <g>
            <polygon points="69.48 83.63 53.04 83.63 44.81 98.76 53.04 113.89 69.48 113.89 77.71 98.76 69.48 83.63" fill="#fff"/>
            <path d="M70.15,115.01h-17.78l-8.83-16.25,8.83-16.25h17.78l8.83,16.25-8.83,16.25Zm-16.45-2.24h15.11l7.61-14.01-7.61-14.01h-15.11l-7.61,14.01,7.61,14.01Z"/>
          </g>
          <g>
            <polygon points="49.87 119.72 38.49 98.76 49.87 77.81 72.65 77.81 84.03 98.76 72.65 119.72 49.87 119.72" fill="#fff"/>
            <path d="M73.31,120.84h-24.11l-12-22.07,12-22.07h24.11l12,22.07-12,22.07Zm-22.78-2.24h21.44l10.78-19.83-10.78-19.83h-21.44l-10.78,19.83,10.78,19.83Z"/>
          </g>
          <g>
            <polygon points="46.71 125.54 32.16 98.76 46.71 71.99 75.81 71.99 90.36 98.76 75.81 125.54 46.71 125.54" fill="#fff"/>
            <path d="M76.48,126.66h-30.44l-15.16-27.9,15.16-27.9h30.44l15.16,27.9-15.16,27.9Zm-29.11-2.24h27.77l13.94-25.65-13.94-25.65h-27.77l-13.94,25.65,13.94,25.65Z"/>
          </g>
          <g>
            <polygon points="43.54 131.36 25.83 98.76 43.54 66.16 78.98 66.16 96.69 98.76 78.98 131.36 43.54 131.36" fill="#fff"/>
            <path d="M79.64,132.48H42.88l-18.33-33.72,18.33-33.72h36.77l18.33,33.72-18.33,33.72Zm-35.44-2.24h34.1l17.11-31.48-17.11-31.48H44.21l-17.1,31.48,17.1,31.48Z"/>
          </g>
          <g>
            <polygon points="46.71 125.54 32.16 98.76 46.71 71.99 75.81 71.99 90.36 98.76 75.81 125.54 46.71 125.54" fill="#fff"/>
            <path d="M76.48,126.66h-30.44l-15.16-27.9,15.16-27.9h30.44l15.16,27.9-15.16,27.9Zm-29.11-2.24h27.77l13.94-25.65-13.94-25.65h-27.77l-13.94,25.65,13.94,25.65Z"/>
          </g>
          <g>
            <polygon points="49.87 119.72 38.49 98.76 49.87 77.81 72.65 77.81 84.03 98.76 72.65 119.72 49.87 119.72" fill="#fff"/>
            <path d="M73.31,120.84h-24.11l-12-22.07,12-22.07h24.11l12,22.07-12,22.07Zm-22.78-2.24h21.44l10.78-19.83-10.78-19.83h-21.44l-10.78,19.83,10.78,19.83Z"/>
          </g>
          <g>
            <polygon points="69.48 83.63 53.04 83.63 44.81 98.76 53.04 113.89 69.48 113.89 77.71 98.76 69.48 83.63" fill="#fff"/>
            <path d="M70.15,115.01h-17.78l-8.83-16.25,8.83-16.25h17.78l8.83,16.25-8.83,16.25Zm-16.45-2.24h15.11l7.61-14.01-7.61-14.01h-15.11l-7.61,14.01,7.61,14.01Z"/>
          </g>
        </g>
        <g>
          <g>
            <polygon points="124.55 49.91 108.1 49.91 99.88 65.04 108.1 80.17 124.55 80.17 132.77 65.04 124.55 49.91" fill="#fff"/>
            <path d="M125.21,81.29h-17.78l-8.83-16.25,8.83-16.25h17.78l8.83,16.25-8.83,16.25Zm-16.45-2.24h15.11l7.61-14.01-7.61-14.01h-15.11l-7.61,14.01,7.61,14.01Z"/>
          </g>
          <g>
            <polygon points="104.94 85.99 93.55 65.04 104.94 44.09 127.71 44.09 139.1 65.04 127.71 85.99 104.94 85.99" fill="#fff"/>
            <path d="M128.38,87.12h-24.11l-12-22.07,12-22.07h24.11l12,22.07-12,22.07Zm-22.78-2.24h21.44l10.78-19.83-10.78-19.83h-21.44l-10.78,19.83,10.78,19.83Z"/>
          </g>
          <g>
            <polygon points="101.77 91.82 87.22 65.04 101.77 38.27 130.88 38.27 145.43 65.04 130.88 91.82 101.77 91.82" fill="#fff"/>
            <path d="M131.54,92.94h-30.44l-15.16-27.9,15.16-27.9h30.44l15.16,27.9-15.16,27.9Zm-29.11-2.24h27.77l13.94-25.65-13.94-25.65h-27.77l-13.94,25.65,13.94,25.65Z"/>
          </g>
          <g>
            <polygon points="98.61 97.64 80.89 65.04 98.61 32.44 134.04 32.44 151.76 65.04 134.04 97.64 98.61 97.64" fill="#fff"/>
            <path d="M134.71,98.76h-36.77l-18.33-33.72,18.33-33.72h36.77l18.33,33.72-18.33,33.72Zm-35.44-2.24h34.1l17.1-31.48-17.1-31.48h-34.1l-17.11,31.48,17.11,31.48Z"/>
          </g>
          <g>
            <polygon points="101.77 91.82 87.22 65.04 101.77 38.27 130.88 38.27 145.43 65.04 130.88 91.82 101.77 91.82" fill="#fff"/>
            <path d="M131.54,92.94h-30.44l-15.16-27.9,15.16-27.9h30.44l15.16,27.9-15.16,27.9Zm-29.11-2.24h27.77l13.94-25.65-13.94-25.65h-27.77l-13.94,25.65,13.94,25.65Z"/>
          </g>
          <g>
            <polygon points="104.94 85.99 93.55 65.04 104.94 44.09 127.71 44.09 139.1 65.04 127.71 85.99 104.94 85.99" fill="#fff"/>
            <path d="M128.38,87.12h-24.11l-12-22.07,12-22.07h24.11l12,22.07-12,22.07Zm-22.78-2.24h21.44l10.78-19.83-10.78-19.83h-21.44l-10.78,19.83,10.78,19.83Z"/>
          </g>
          <g>
            <polygon points="124.55 49.91 108.1 49.91 99.88 65.04 108.1 80.17 124.55 80.17 132.77 65.04 124.55 49.91" fill="#fff"/>
            <path d="M125.21,81.29h-17.78l-8.83-16.25,8.83-16.25h17.78l8.83,16.25-8.83,16.25Zm-16.45-2.24h15.11l7.61-14.01-7.61-14.01h-15.11l-7.61,14.01,7.61,14.01Z"/>
          </g>
        </g>
        <g>
          <g>
            <polygon points="69.48 16.19 53.04 16.19 44.81 31.32 53.04 46.45 69.48 46.45 77.71 31.32 69.48 16.19" fill="#fff"/>
            <path d="M70.15,47.57h-17.78l-8.83-16.25,8.83-16.25h17.78l8.83,16.25-8.83,16.25Zm-16.45-2.24h15.11l7.61-14.01-7.61-14.01h-15.11l-7.61,14.01,7.61,14.01Z"/>
          </g>
          <g>
            <polygon points="49.87 52.27 38.49 31.32 49.87 10.37 72.65 10.37 84.03 31.32 72.65 52.27 49.87 52.27" fill="#fff"/>
            <path d="M73.31,53.4h-24.11l-12-22.07,12-22.07h24.11l12,22.07-12,22.07Zm-22.78-2.24h21.44l10.78-19.83-10.78-19.83h-21.44l-10.78,19.83,10.78,19.83Z"/>
          </g>
          <g>
            <polygon points="46.71 58.1 32.16 31.32 46.71 4.55 75.81 4.55 90.36 31.32 75.81 58.1 46.71 58.1" fill="#fff"/>
            <path d="M76.48,59.22h-30.44l-15.16-27.9L46.04,3.42h30.44l15.16,27.9-15.16,27.9Zm-29.11-2.24h27.77l13.94-25.65-13.94-25.65h-27.77l-13.94,25.65,13.94,25.65Z"/>
          </g>
          <g>
            <polygon points="43.54 63.92 25.83 31.32 43.54 -1.28 78.98 -1.28 96.69 31.32 78.98 63.92 43.54 63.92" fill="#fff"/>
            <path d="M79.64,65.04H42.88L24.55,31.32,42.88-2.4h36.77l18.33,33.72-18.33,33.72Zm-35.44-2.24h34.1l17.11-31.48L78.31-.15H44.21L27.1,31.32l17.1,31.48Z"/>
          </g>
          <g>
            <polygon points="46.71 58.1 32.16 31.32 46.71 4.55 75.81 4.55 90.36 31.32 75.81 58.1 46.71 58.1" fill="#fff"/>
            <path d="M76.48,59.22h-30.44l-15.16-27.9L46.04,3.42h30.44l15.16,27.9-15.16,27.9Zm-29.11-2.24h27.77l13.94-25.65-13.94-25.65h-27.77l-13.94,25.65,13.94,25.65Z"/>
          </g>
          <g>
            <polygon points="49.87 52.27 38.49 31.32 49.87 10.37 72.65 10.37 84.03 31.32 72.65 52.27 49.87 52.27" fill="#fff"/>
            <path d="M73.31,53.4h-24.11l-12-22.07,12-22.07h24.11l12,22.07-12,22.07Zm-22.78-2.24h21.44l10.78-19.83-10.78-19.83h-21.44l-10.78,19.83,10.78,19.83Z"/>
          </g>
          <g>
            <polygon points="69.48 16.19 53.04 16.19 44.81 31.32 53.04 46.45 69.48 46.45 77.71 31.32 69.48 16.19" fill="#fff"/>
            <path d="M70.15,47.57h-17.78l-8.83-16.25,8.83-16.25h17.78l8.83,16.25-8.83,16.25Zm-16.45-2.24h15.11l7.61-14.01-7.61-14.01h-15.11l-7.61,14.01,7.61,14.01Z"/>
          </g>
        </g>
      </g>
      <g clip-path="url(#clippath-3)">
        <g>
          <g>
            <polygon points="124.55 117.35 108.1 117.35 99.88 132.48 108.1 147.61 124.55 147.61 132.77 132.48 124.55 117.35" fill="#fff"/>
            <path d="M125.21,148.73h-17.78l-8.83-16.25,8.83-16.25h17.78l8.83,16.25-8.83,16.25Zm-16.45-2.24h15.11l7.61-14.01-7.61-14.01h-15.11l-7.61,14.01,7.61,14.01Z"/>
          </g>
          <g>
            <polygon points="104.94 153.44 93.55 132.48 104.94 111.53 127.71 111.53 139.1 132.48 127.71 153.44 104.94 153.44" fill="#fff"/>
            <path d="M128.38,154.56h-24.11l-12-22.07,12-22.07h24.11l12,22.07-12,22.07Zm-22.78-2.24h21.44l10.78-19.83-10.78-19.83h-21.44l-10.78,19.83,10.78,19.83Z"/>
          </g>
          <g>
            <polygon points="101.77 159.26 87.22 132.48 101.77 105.71 130.88 105.71 145.43 132.48 130.88 159.26 101.77 159.26" fill="#fff"/>
            <path d="M131.54,160.38h-30.44l-15.16-27.9,15.16-27.9h30.44l15.16,27.9-15.16,27.9Zm-29.11-2.24h27.77l13.94-25.65-13.94-25.65h-27.77l-13.94,25.65,13.94,25.65Z"/>
          </g>
          <g>
            <polygon points="98.61 165.08 80.89 132.48 98.61 99.89 134.04 99.89 151.76 132.48 134.04 165.08 98.61 165.08" fill="#fff"/>
            <path d="M134.71,166.2h-36.77l-18.33-33.72,18.33-33.72h36.77l18.33,33.72-18.33,33.72Zm-35.44-2.24h34.1l17.1-31.48-17.1-31.48h-34.1l-17.11,31.48,17.11,31.48Z"/>
          </g>
          <g>
            <polygon points="101.77 159.26 87.22 132.48 101.77 105.71 130.88 105.71 145.43 132.48 130.88 159.26 101.77 159.26" fill="#fff"/>
            <path d="M131.54,160.38h-30.44l-15.16-27.9,15.16-27.9h30.44l15.16,27.9-15.16,27.9Zm-29.11-2.24h27.77l13.94-25.65-13.94-25.65h-27.77l-13.94,25.65,13.94,25.65Z"/>
          </g>
          <g>
            <polygon points="104.94 153.44 93.55 132.48 104.94 111.53 127.71 111.53 139.1 132.48 127.71 153.44 104.94 153.44" fill="#fff"/>
            <path d="M128.38,154.56h-24.11l-12-22.07,12-22.07h24.11l12,22.07-12,22.07Zm-22.78-2.24h21.44l10.78-19.83-10.78-19.83h-21.44l-10.78,19.83,10.78,19.83Z"/>
          </g>
          <g>
            <polygon points="124.55 117.35 108.1 117.35 99.88 132.48 108.1 147.61 124.55 147.61 132.77 132.48 124.55 117.35" fill="#fff"/>
            <path d="M125.21,148.73h-17.78l-8.83-16.25,8.83-16.25h17.78l8.83,16.25-8.83,16.25Zm-16.45-2.24h15.11l7.61-14.01-7.61-14.01h-15.11l-7.61,14.01,7.61,14.01Z"/>
          </g>
        </g>
        <g>
          <g>
            <polygon points="69.48 83.63 53.04 83.63 44.81 98.76 53.04 113.89 69.48 113.89 77.71 98.76 69.48 83.63" fill="#fff"/>
            <path d="M70.15,115.01h-17.78l-8.83-16.25,8.83-16.25h17.78l8.83,16.25-8.83,16.25Zm-16.45-2.24h15.11l7.61-14.01-7.61-14.01h-15.11l-7.61,14.01,7.61,14.01Z"/>
          </g>
          <g>
            <polygon points="49.87 119.72 38.49 98.76 49.87 77.81 72.65 77.81 84.03 98.76 72.65 119.72 49.87 119.72" fill="#fff"/>
            <path d="M73.31,120.84h-24.11l-12-22.07,12-22.07h24.11l12,22.07-12,22.07Zm-22.78-2.24h21.44l10.78-19.83-10.78-19.83h-21.44l-10.78,19.83,10.78,19.83Z"/>
          </g>
          <g>
            <polygon points="46.71 125.54 32.16 98.76 46.71 71.99 75.81 71.99 90.36 98.76 75.81 125.54 46.71 125.54" fill="#fff"/>
            <path d="M76.48,126.66h-30.44l-15.16-27.9,15.16-27.9h30.44l15.16,27.9-15.16,27.9Zm-29.11-2.24h27.77l13.94-25.65-13.94-25.65h-27.77l-13.94,25.65,13.94,25.65Z"/>
          </g>
          <g>
            <polygon points="43.54 131.36 25.83 98.76 43.54 66.16 78.98 66.16 96.69 98.76 78.98 131.36 43.54 131.36" fill="#fff"/>
            <path d="M79.64,132.48H42.88l-18.33-33.72,18.33-33.72h36.77l18.33,33.72-18.33,33.72Zm-35.44-2.24h34.1l17.11-31.48-17.11-31.48H44.21l-17.1,31.48,17.1,31.48Z"/>
          </g>
          <g>
            <polygon points="46.71 125.54 32.16 98.76 46.71 71.99 75.81 71.99 90.36 98.76 75.81 125.54 46.71 125.54" fill="#fff"/>
            <path d="M76.48,126.66h-30.44l-15.16-27.9,15.16-27.9h30.44l15.16,27.9-15.16,27.9Zm-29.11-2.24h27.77l13.94-25.65-13.94-25.65h-27.77l-13.94,25.65,13.94,25.65Z"/>
          </g>
          <g>
            <polygon points="49.87 119.72 38.49 98.76 49.87 77.81 72.65 77.81 84.03 98.76 72.65 119.72 49.87 119.72" fill="#fff"/>
            <path d="M73.31,120.84h-24.11l-12-22.07,12-22.07h24.11l12,22.07-12,22.07Zm-22.78-2.24h21.44l10.78-19.83-10.78-19.83h-21.44l-10.78,19.83,10.78,19.83Z"/>
          </g>
          <g>
            <polygon points="69.48 83.63 53.04 83.63 44.81 98.76 53.04 113.89 69.48 113.89 77.71 98.76 69.48 83.63" fill="#fff"/>
            <path d="M70.15,115.01h-17.78l-8.83-16.25,8.83-16.25h17.78l8.83,16.25-8.83,16.25Zm-16.45-2.24h15.11l7.61-14.01-7.61-14.01h-15.11l-7.61,14.01,7.61,14.01Z"/>
          </g>
        </g>
      </g>
      <g clip-path="url(#clippath-4)">
        <g>
          <g>
            <polygon points="69.48 16.19 53.04 16.19 44.81 31.32 53.04 46.45 69.48 46.45 77.71 31.32 69.48 16.19" fill="#fff"/>
            <path d="M70.15,47.57h-17.78l-8.83-16.25,8.83-16.25h17.78l8.83,16.25-8.83,16.25Zm-16.45-2.24h15.11l7.61-14.01-7.61-14.01h-15.11l-7.61,14.01,7.61,14.01Z"/>
          </g>
          <g>
            <polygon points="49.87 52.27 38.49 31.32 49.87 10.37 72.65 10.37 84.03 31.32 72.65 52.27 49.87 52.27" fill="#fff"/>
            <path d="M73.31,53.4h-24.11l-12-22.07,12-22.07h24.11l12,22.07-12,22.07Zm-22.78-2.24h21.44l10.78-19.83-10.78-19.83h-21.44l-10.78,19.83,10.78,19.83Z"/>
          </g>
          <g>
            <polygon points="46.71 58.1 32.16 31.32 46.71 4.55 75.81 4.55 90.36 31.32 75.81 58.1 46.71 58.1" fill="#fff"/>
            <path d="M76.48,59.22h-30.44l-15.16-27.9L46.04,3.42h30.44l15.16,27.9-15.16,27.9Zm-29.11-2.24h27.77l13.94-25.65-13.94-25.65h-27.77l-13.94,25.65,13.94,25.65Z"/>
          </g>
          <g>
            <polygon points="43.54 63.92 25.83 31.32 43.54 -1.28 78.98 -1.28 96.69 31.32 78.98 63.92 43.54 63.92" fill="#fff"/>
            <path d="M79.64,65.04H42.88L24.55,31.32,42.88-2.4h36.77l18.33,33.72-18.33,33.72Zm-35.44-2.24h34.1l17.11-31.48L78.31-.15H44.21L27.1,31.32l17.1,31.48Z"/>
          </g>
          <g>
            <polygon points="46.71 58.1 32.16 31.32 46.71 4.55 75.81 4.55 90.36 31.32 75.81 58.1 46.71 58.1" fill="#fff"/>
            <path d="M76.48,59.22h-30.44l-15.16-27.9L46.04,3.42h30.44l15.16,27.9-15.16,27.9Zm-29.11-2.24h27.77l13.94-25.65-13.94-25.65h-27.77l-13.94,25.65,13.94,25.65Z"/>
          </g>
          <g>
            <polygon points="49.87 52.27 38.49 31.32 49.87 10.37 72.65 10.37 84.03 31.32 72.65 52.27 49.87 52.27" fill="#fff"/>
            <path d="M73.31,53.4h-24.11l-12-22.07,12-22.07h24.11l12,22.07-12,22.07Zm-22.78-2.24h21.44l10.78-19.83-10.78-19.83h-21.44l-10.78,19.83,10.78,19.83Z"/>
          </g>
          <g>
            <polygon points="69.48 16.19 53.04 16.19 44.81 31.32 53.04 46.45 69.48 46.45 77.71 31.32 69.48 16.19" fill="#fff"/>
            <path d="M70.15,47.57h-17.78l-8.83-16.25,8.83-16.25h17.78l8.83,16.25-8.83,16.25Zm-16.45-2.24h15.11l7.61-14.01-7.61-14.01h-15.11l-7.61,14.01,7.61,14.01Z"/>
          </g>
        </g>
        <g>
          <g>
            <polygon points="14.42 -17.53 -2.03 -17.53 -10.25 -2.4 -2.03 12.73 14.42 12.73 22.64 -2.4 14.42 -17.53" fill="#fff"/>
            <path d="M15.08,13.85H-2.69L-11.53-2.4-2.69-18.65H15.08L23.92-2.4,15.08,13.85ZM-1.36,11.61H13.75L21.36-2.4l-7.61-14.01H-1.36L-8.97-2.4-1.36,11.61Z"/>
          </g>
          <g>
            <polygon points="-5.19 18.55 -16.58 -2.4 -5.19 -23.35 17.58 -23.35 28.97 -2.4 17.58 18.55 -5.19 18.55" fill="#fff"/>
            <path d="M18.25,19.68H-5.86L-17.86-2.4-5.86-24.47H18.25L30.25-2.4l-12,22.07Zm-22.78-2.24H16.92L27.69-2.4l-10.78-19.83H-4.53L-15.3-2.4-4.53,17.43Z"/>
          </g>
          <g>
            <polygon points="-8.36 24.38 -22.91 -2.4 -8.36 -29.17 20.75 -29.17 35.3 -2.4 20.75 24.38 -8.36 24.38" fill="#fff"/>
            <path d="M21.42,25.5H-9.02L-24.19-2.4-9.02-30.3H21.42L36.58-2.4l-15.16,27.9Zm-29.11-2.24H20.08L34.02-2.4l-13.94-25.65H-7.69L-21.63-2.4-7.69,23.25Z"/>
          </g>
          <g>
            <polygon points="-11.52 30.2 -29.24 -2.4 -11.52 -35 23.91 -35 41.63 -2.4 23.91 30.2 -11.52 30.2" fill="#fff"/>
            <path d="M24.58,31.32H-12.19L-30.52-2.4-12.19-36.12H24.58L42.91-2.4,24.58,31.32Zm-35.44-2.24H23.25L40.35-2.4l-17.1-31.48H-10.86L-27.96-2.4-10.86,29.08Z"/>
          </g>
          <g>
            <polygon points="-8.36 24.38 -22.91 -2.4 -8.36 -29.17 20.75 -29.17 35.3 -2.4 20.75 24.38 -8.36 24.38" fill="#fff"/>
            <path d="M21.42,25.5H-9.02L-24.19-2.4-9.02-30.3H21.42L36.58-2.4l-15.16,27.9Zm-29.11-2.24H20.08L34.02-2.4l-13.94-25.65H-7.69L-21.63-2.4-7.69,23.25Z"/>
          </g>
          <g>
            <polygon points="-5.19 18.55 -16.58 -2.4 -5.19 -23.35 17.58 -23.35 28.97 -2.4 17.58 18.55 -5.19 18.55" fill="#fff"/>
            <path d="M18.25,19.68H-5.86L-17.86-2.4-5.86-24.47H18.25L30.25-2.4l-12,22.07Zm-22.78-2.24H16.92L27.69-2.4l-10.78-19.83H-4.53L-15.3-2.4-4.53,17.43Z"/>
          </g>
          <g>
            <polygon points="14.42 -17.53 -2.03 -17.53 -10.25 -2.4 -2.03 12.73 14.42 12.73 22.64 -2.4 14.42 -17.53" fill="#fff"/>
            <path d="M15.08,13.85H-2.69L-11.53-2.4-2.69-18.65H15.08L23.92-2.4,15.08,13.85ZM-1.36,11.61H13.75L21.36-2.4l-7.61-14.01H-1.36L-8.97-2.4-1.36,11.61Z"/>
          </g>
        </g>
      </g>
      <g clip-path="url(#clippath-5)">
        <g>
          <g>
            <polygon points="69.48 83.63 53.04 83.63 44.81 98.76 53.04 113.89 69.48 113.89 77.71 98.76 69.48 83.63" fill="#fff"/>
            <path d="M70.15,115.01h-17.78l-8.83-16.25,8.83-16.25h17.78l8.83,16.25-8.83,16.25Zm-16.45-2.24h15.11l7.61-14.01-7.61-14.01h-15.11l-7.61,14.01,7.61,14.01Z"/>
          </g>
          <g>
            <polygon points="49.87 119.72 38.49 98.76 49.87 77.81 72.65 77.81 84.03 98.76 72.65 119.72 49.87 119.72" fill="#fff"/>
            <path d="M73.31,120.84h-24.11l-12-22.07,12-22.07h24.11l12,22.07-12,22.07Zm-22.78-2.24h21.44l10.78-19.83-10.78-19.83h-21.44l-10.78,19.83,10.78,19.83Z"/>
          </g>
          <g>
            <polygon points="46.71 125.54 32.16 98.76 46.71 71.99 75.81 71.99 90.36 98.76 75.81 125.54 46.71 125.54" fill="#fff"/>
            <path d="M76.48,126.66h-30.44l-15.16-27.9,15.16-27.9h30.44l15.16,27.9-15.16,27.9Zm-29.11-2.24h27.77l13.94-25.65-13.94-25.65h-27.77l-13.94,25.65,13.94,25.65Z"/>
          </g>
          <g>
            <polygon points="43.54 131.36 25.83 98.76 43.54 66.16 78.98 66.16 96.69 98.76 78.98 131.36 43.54 131.36" fill="#fff"/>
            <path d="M79.64,132.48H42.88l-18.33-33.72,18.33-33.72h36.77l18.33,33.72-18.33,33.72Zm-35.44-2.24h34.1l17.11-31.48-17.11-31.48H44.21l-17.1,31.48,17.1,31.48Z"/>
          </g>
          <g>
            <polygon points="46.71 125.54 32.16 98.76 46.71 71.99 75.81 71.99 90.36 98.76 75.81 125.54 46.71 125.54" fill="#fff"/>
            <path d="M76.48,126.66h-30.44l-15.16-27.9,15.16-27.9h30.44l15.16,27.9-15.16,27.9Zm-29.11-2.24h27.77l13.94-25.65-13.94-25.65h-27.77l-13.94,25.65,13.94,25.65Z"/>
          </g>
          <g>
            <polygon points="49.87 119.72 38.49 98.76 49.87 77.81 72.65 77.81 84.03 98.76 72.65 119.72 49.87 119.72" fill="#fff"/>
            <path d="M73.31,120.84h-24.11l-12-22.07,12-22.07h24.11l12,22.07-12,22.07Zm-22.78-2.24h21.44l10.78-19.83-10.78-19.83h-21.44l-10.78,19.83,10.78,19.83Z"/>
          </g>
          <g>
            <polygon points="69.48 83.63 53.04 83.63 44.81 98.76 53.04 113.89 69.48 113.89 77.71 98.76 69.48 83.63" fill="#fff"/>
            <path d="M70.15,115.01h-17.78l-8.83-16.25,8.83-16.25h17.78l8.83,16.25-8.83,16.25Zm-16.45-2.24h15.11l7.61-14.01-7.61-14.01h-15.11l-7.61,14.01,7.61,14.01Z"/>
          </g>
        </g>
        <g>
          <g>
            <polygon points="69.48 16.19 53.04 16.19 44.81 31.32 53.04 46.45 69.48 46.45 77.71 31.32 69.48 16.19" fill="#fff"/>
            <path d="M70.15,47.57h-17.78l-8.83-16.25,8.83-16.25h17.78l8.83,16.25-8.83,16.25Zm-16.45-2.24h15.11l7.61-14.01-7.61-14.01h-15.11l-7.61,14.01,7.61,14.01Z"/>
          </g>
          <g>
            <polygon points="49.87 52.27 38.49 31.32 49.87 10.37 72.65 10.37 84.03 31.32 72.65 52.27 49.87 52.27" fill="#fff"/>
            <path d="M73.31,53.4h-24.11l-12-22.07,12-22.07h24.11l12,22.07-12,22.07Zm-22.78-2.24h21.44l10.78-19.83-10.78-19.83h-21.44l-10.78,19.83,10.78,19.83Z"/>
          </g>
          <g>
            <polygon points="46.71 58.1 32.16 31.32 46.71 4.55 75.81 4.55 90.36 31.32 75.81 58.1 46.71 58.1" fill="#fff"/>
            <path d="M76.48,59.22h-30.44l-15.16-27.9L46.04,3.42h30.44l15.16,27.9-15.16,27.9Zm-29.11-2.24h27.77l13.94-25.65-13.94-25.65h-27.77l-13.94,25.65,13.94,25.65Z"/>
          </g>
          <g>
            <polygon points="43.54 63.92 25.83 31.32 43.54 -1.28 78.98 -1.28 96.69 31.32 78.98 63.92 43.54 63.92" fill="#fff"/>
            <path d="M79.64,65.04H42.88L24.55,31.32,42.88-2.4h36.77l18.33,33.72-18.33,33.72Zm-35.44-2.24h34.1l17.11-31.48L78.31-.15H44.21L27.1,31.32l17.1,31.48Z"/>
          </g>
          <g>
            <polygon points="46.71 58.1 32.16 31.32 46.71 4.55 75.81 4.55 90.36 31.32 75.81 58.1 46.71 58.1" fill="#fff"/>
            <path d="M76.48,59.22h-30.44l-15.16-27.9L46.04,3.42h30.44l15.16,27.9-15.16,27.9Zm-29.11-2.24h27.77l13.94-25.65-13.94-25.65h-27.77l-13.94,25.65,13.94,25.65Z"/>
          </g>
          <g>
            <polygon points="49.87 52.27 38.49 31.32 49.87 10.37 72.65 10.37 84.03 31.32 72.65 52.27 49.87 52.27" fill="#fff"/>
            <path d="M73.31,53.4h-24.11l-12-22.07,12-22.07h24.11l12,22.07-12,22.07Zm-22.78-2.24h21.44l10.78-19.83-10.78-19.83h-21.44l-10.78,19.83,10.78,19.83Z"/>
          </g>
          <g>
            <polygon points="69.48 16.19 53.04 16.19 44.81 31.32 53.04 46.45 69.48 46.45 77.71 31.32 69.48 16.19" fill="#fff"/>
            <path d="M70.15,47.57h-17.78l-8.83-16.25,8.83-16.25h17.78l8.83,16.25-8.83,16.25Zm-16.45-2.24h15.11l7.61-14.01-7.61-14.01h-15.11l-7.61,14.01,7.61,14.01Z"/>
          </g>
        </g>
        <g>
          <g>
            <polygon points="14.42 49.91 -2.03 49.91 -10.25 65.04 -2.03 80.17 14.42 80.17 22.64 65.04 14.42 49.91" fill="#fff"/>
            <path d="M15.08,81.29H-2.69l-8.83-16.25L-2.69,48.79H15.08l8.83,16.25-8.83,16.25Zm-16.45-2.24H13.75l7.61-14.01-7.61-14.01H-1.36l-7.61,14.01,7.61,14.01Z"/>
          </g>
          <g>
            <polygon points="-5.19 85.99 -16.58 65.04 -5.19 44.09 17.58 44.09 28.97 65.04 17.58 85.99 -5.19 85.99" fill="#fff"/>
            <path d="M18.25,87.12H-5.86l-12-22.07L-5.86,42.97H18.25l12,22.07-12,22.07Zm-22.78-2.24H16.92l10.78-19.83-10.78-19.83H-4.53l-10.78,19.83,10.78,19.83Z"/>
          </g>
          <g>
            <polygon points="-8.36 91.82 -22.91 65.04 -8.36 38.27 20.75 38.27 35.3 65.04 20.75 91.82 -8.36 91.82" fill="#fff"/>
            <path d="M21.42,92.94H-9.02l-15.16-27.9,15.16-27.9H21.42l15.16,27.9-15.16,27.9Zm-29.11-2.24H20.08l13.94-25.65-13.94-25.65H-7.69l-13.94,25.65,13.94,25.65Z"/>
          </g>
          <g>
            <polygon points="-11.52 97.64 -29.24 65.04 -11.52 32.44 23.91 32.44 41.63 65.04 23.91 97.64 -11.52 97.64" fill="#fff"/>
            <path d="M24.58,98.76H-12.19l-18.33-33.72L-12.19,31.32H24.58l18.33,33.72-18.33,33.72Zm-35.44-2.24H23.25l17.1-31.48-17.1-31.48H-10.86l-17.11,31.48,17.11,31.48Z"/>
          </g>
          <g>
            <polygon points="-8.36 91.82 -22.91 65.04 -8.36 38.27 20.75 38.27 35.3 65.04 20.75 91.82 -8.36 91.82" fill="#fff"/>
            <path d="M21.42,92.94H-9.02l-15.16-27.9,15.16-27.9H21.42l15.16,27.9-15.16,27.9Zm-29.11-2.24H20.08l13.94-25.65-13.94-25.65H-7.69l-13.94,25.65,13.94,25.65Z"/>
          </g>
          <g>
            <polygon points="-5.19 85.99 -16.58 65.04 -5.19 44.09 17.58 44.09 28.97 65.04 17.58 85.99 -5.19 85.99" fill="#fff"/>
            <path d="M18.25,87.12H-5.86l-12-22.07L-5.86,42.97H18.25l12,22.07-12,22.07Zm-22.78-2.24H16.92l10.78-19.83-10.78-19.83H-4.53l-10.78,19.83,10.78,19.83Z"/>
          </g>
          <g>
            <polygon points="14.42 49.91 -2.03 49.91 -10.25 65.04 -2.03 80.17 14.42 80.17 22.64 65.04 14.42 49.91" fill="#fff"/>
            <path d="M15.08,81.29H-2.69l-8.83-16.25L-2.69,48.79H15.08l8.83,16.25-8.83,16.25Zm-16.45-2.24H13.75l7.61-14.01-7.61-14.01H-1.36l-7.61,14.01,7.61,14.01Z"/>
          </g>
        </g>
      </g>
      <g clip-path="url(#clippath-6)">
        <g>
          <g>
            <polygon points="69.48 83.63 53.04 83.63 44.81 98.76 53.04 113.89 69.48 113.89 77.71 98.76 69.48 83.63" fill="#fff"/>
            <path d="M70.15,115.01h-17.78l-8.83-16.25,8.83-16.25h17.78l8.83,16.25-8.83,16.25Zm-16.45-2.24h15.11l7.61-14.01-7.61-14.01h-15.11l-7.61,14.01,7.61,14.01Z"/>
          </g>
          <g>
            <polygon points="49.87 119.72 38.49 98.76 49.87 77.81 72.65 77.81 84.03 98.76 72.65 119.72 49.87 119.72" fill="#fff"/>
            <path d="M73.31,120.84h-24.11l-12-22.07,12-22.07h24.11l12,22.07-12,22.07Zm-22.78-2.24h21.44l10.78-19.83-10.78-19.83h-21.44l-10.78,19.83,10.78,19.83Z"/>
          </g>
          <g>
            <polygon points="46.71 125.54 32.16 98.76 46.71 71.99 75.81 71.99 90.36 98.76 75.81 125.54 46.71 125.54" fill="#fff"/>
            <path d="M76.48,126.66h-30.44l-15.16-27.9,15.16-27.9h30.44l15.16,27.9-15.16,27.9Zm-29.11-2.24h27.77l13.94-25.65-13.94-25.65h-27.77l-13.94,25.65,13.94,25.65Z"/>
          </g>
          <g>
            <polygon points="43.54 131.36 25.83 98.76 43.54 66.16 78.98 66.16 96.69 98.76 78.98 131.36 43.54 131.36" fill="#fff"/>
            <path d="M79.64,132.48H42.88l-18.33-33.72,18.33-33.72h36.77l18.33,33.72-18.33,33.72Zm-35.44-2.24h34.1l17.11-31.48-17.11-31.48H44.21l-17.1,31.48,17.1,31.48Z"/>
          </g>
          <g>
            <polygon points="46.71 125.54 32.16 98.76 46.71 71.99 75.81 71.99 90.36 98.76 75.81 125.54 46.71 125.54" fill="#fff"/>
            <path d="M76.48,126.66h-30.44l-15.16-27.9,15.16-27.9h30.44l15.16,27.9-15.16,27.9Zm-29.11-2.24h27.77l13.94-25.65-13.94-25.65h-27.77l-13.94,25.65,13.94,25.65Z"/>
          </g>
          <g>
            <polygon points="49.87 119.72 38.49 98.76 49.87 77.81 72.65 77.81 84.03 98.76 72.65 119.72 49.87 119.72" fill="#fff"/>
            <path d="M73.31,120.84h-24.11l-12-22.07,12-22.07h24.11l12,22.07-12,22.07Zm-22.78-2.24h21.44l10.78-19.83-10.78-19.83h-21.44l-10.78,19.83,10.78,19.83Z"/>
          </g>
          <g>
            <polygon points="69.48 83.63 53.04 83.63 44.81 98.76 53.04 113.89 69.48 113.89 77.71 98.76 69.48 83.63" fill="#fff"/>
            <path d="M70.15,115.01h-17.78l-8.83-16.25,8.83-16.25h17.78l8.83,16.25-8.83,16.25Zm-16.45-2.24h15.11l7.61-14.01-7.61-14.01h-15.11l-7.61,14.01,7.61,14.01Z"/>
          </g>
        </g>
        <g>
          <g>
            <polygon points="14.42 117.35 -2.03 117.35 -10.25 132.48 -2.03 147.61 14.42 147.61 22.64 132.48 14.42 117.35" fill="#fff"/>
            <path d="M15.08,148.73H-2.69l-8.83-16.25L-2.69,116.23H15.08l8.83,16.25-8.83,16.25Zm-16.45-2.24H13.75l7.61-14.01-7.61-14.01H-1.36l-7.61,14.01,7.61,14.01Z"/>
          </g>
          <g>
            <polygon points="-5.19 153.44 -16.58 132.48 -5.19 111.53 17.58 111.53 28.97 132.48 17.58 153.44 -5.19 153.44" fill="#fff"/>
            <path d="M18.25,154.56H-5.86l-12-22.07,12-22.07H18.25l12,22.07-12,22.07Zm-22.78-2.24H16.92l10.78-19.83-10.78-19.83H-4.53l-10.78,19.83,10.78,19.83Z"/>
          </g>
          <g>
            <polygon points="-8.36 159.26 -22.91 132.48 -8.36 105.71 20.75 105.71 35.3 132.48 20.75 159.26 -8.36 159.26" fill="#fff"/>
            <path d="M21.42,160.38H-9.02l-15.16-27.9,15.16-27.9H21.42l15.16,27.9-15.16,27.9Zm-29.11-2.24H20.08l13.94-25.65-13.94-25.65H-7.69l-13.94,25.65,13.94,25.65Z"/>
          </g>
          <g>
            <polygon points="-11.52 165.08 -29.24 132.48 -11.52 99.89 23.91 99.89 41.63 132.48 23.91 165.08 -11.52 165.08" fill="#fff"/>
            <path d="M24.58,166.2H-12.19l-18.33-33.72L-12.19,98.76H24.58l18.33,33.72-18.33,33.72Zm-35.44-2.24H23.25l17.1-31.48-17.1-31.48H-10.86l-17.11,31.48,17.11,31.48Z"/>
          </g>
          <g>
            <polygon points="-8.36 159.26 -22.91 132.48 -8.36 105.71 20.75 105.71 35.3 132.48 20.75 159.26 -8.36 159.26" fill="#fff"/>
            <path d="M21.42,160.38H-9.02l-15.16-27.9,15.16-27.9H21.42l15.16,27.9-15.16,27.9Zm-29.11-2.24H20.08l13.94-25.65-13.94-25.65H-7.69l-13.94,25.65,13.94,25.65Z"/>
          </g>
          <g>
            <polygon points="-5.19 153.44 -16.58 132.48 -5.19 111.53 17.58 111.53 28.97 132.48 17.58 153.44 -5.19 153.44" fill="#fff"/>
            <path d="M18.25,154.56H-5.86l-12-22.07,12-22.07H18.25l12,22.07-12,22.07Zm-22.78-2.24H16.92l10.78-19.83-10.78-19.83H-4.53l-10.78,19.83,10.78,19.83Z"/>
          </g>
          <g>
            <polygon points="14.42 117.35 -2.03 117.35 -10.25 132.48 -2.03 147.61 14.42 147.61 22.64 132.48 14.42 117.35" fill="#fff"/>
            <path d="M15.08,148.73H-2.69l-8.83-16.25L-2.69,116.23H15.08l8.83,16.25-8.83,16.25Zm-16.45-2.24H13.75l7.61-14.01-7.61-14.01H-1.36l-7.61,14.01,7.61,14.01Z"/>
          </g>
        </g>
      </g>
    </g>
  </g>
</svg>