<?xml version="1.0" encoding="UTF-8"?>
<svg id="_Шар_2" data-name="Шар 2" xmlns="http://www.w3.org/2000/svg" viewBox="0 0 584 584.32">
  <g id="pattern">
    <g>
      <g>
        <polygon points="33 113 1 113 1 0 114 0 114 32 109 32 109 5 6 5 6 108 33 108 33 113" fill="#fff05a"/>
        <polygon points="84.5 86 28 86 28 27 87 27 87 59 57.5 59 57.5 54 82 54 82 32 33 32 33 81 84.5 81 84.5 86" fill="#fff05a"/>
        <path d="M128.5,67.95c-10.21,0-18.52-8.31-18.52-18.52s8.31-18.52,18.52-18.52,18.52,8.31,18.52,18.52-8.31,18.52-18.52,18.52Zm0-34c-8.54,0-15.48,6.95-15.48,15.48s6.95,15.48,15.48,15.48,15.48-6.95,15.48-15.48-6.95-15.48-15.48-15.48Z" fill="#fff05a"/>
        <path d="M128.5,61.87c-6.86,0-12.45-5.58-12.45-12.45s5.58-12.45,12.45-12.45,12.45,5.58,12.45,12.45-5.58,12.45-12.45,12.45Zm0-21.86c-5.19,0-9.41,4.22-9.41,9.41s4.22,9.41,9.41,9.41,9.41-4.22,9.41-9.41-4.22-9.41-9.41-9.41Z" fill="#fff05a"/>
        <polygon points="249 32 217 32 217 5 195 5 195 32 163 32 163 5 141 5 141 32 109 32 109 27 136 27 136 0 168 0 168 27 190 27 190 0 222 0 222 27 249 27 249 32" fill="#fff05a"/>
        <rect x="146.5" y="45" width="117" height="5" fill="#fff05a"/>
        <polygon points="114 113 30.5 113 30.5 108 109 108 109 56.5 114 56.5 114 113" fill="#fff05a"/>
        <path d="M265.5,51c-11.3,0-20.5-9.2-20.5-20.5s9.2-20.5,20.5-20.5,20.5,9.2,20.5,20.5-9.2,20.5-20.5,20.5Zm0-36c-8.55,0-15.5,6.95-15.5,15.5s6.95,15.5,15.5,15.5,15.5-6.95,15.5-15.5-6.95-15.5-15.5-15.5Z" fill="#fff05a"/>
        <path d="M265.5,61c-16.82,0-30.5-13.68-30.5-30.5S248.68,0,265.5,0s30.5,13.68,30.5,30.5-13.68,30.5-30.5,30.5Zm0-56c-14.06,0-25.5,11.44-25.5,25.5s11.44,25.5,25.5,25.5,25.5-11.44,25.5-25.5-11.44-25.5-25.5-25.5Z" fill="#fff05a"/>
        <path d="M265.5,51c-11.3,0-20.5-9.2-20.5-20.5s9.2-20.5,20.5-20.5,20.5,9.2,20.5,20.5-9.2,20.5-20.5,20.5Zm0-36c-8.55,0-15.5,6.95-15.5,15.5s6.95,15.5,15.5,15.5,15.5-6.95,15.5-15.5-6.95-15.5-15.5-15.5Z" fill="#fff05a"/>
        <rect x="138.5" y="54" width="45" height="5" fill="#fff05a"/>
        <rect x="192.5" y="54" width="18" height="5" fill="#fff05a"/>
        <rect x="219.5" y="54" width="36" height="5" fill="#fff05a"/>
        <rect x="183.5" y="80" width="45" height="5" fill="#fff05a"/>
        <rect x="156.5" y="80" width="18" height="5" fill="#fff05a"/>
        <rect x="237.5" y="80" width="18" height="5" fill="#fff05a"/>
        <rect x="111.5" y="80" width="36" height="5" fill="#fff05a"/>
        <path d="M165.5,103c-11.3,0-20.5-9.2-20.5-20.5h5c0,8.55,6.95,15.5,15.5,15.5s15.5-6.95,15.5-15.5h5c0,11.3-9.2,20.5-20.5,20.5Z" fill="#fff05a"/>
        <rect x="127" y="82.5" width="5" height="27" fill="#fff05a"/>
        <rect x="199" y="82.5" width="5" height="27" fill="#fff05a"/>
        <g>
          <polygon points="33 248 28 248 28 221 1 221 1 189 28 189 28 167 1 167 1 135 28 135 28 108 33 108 33 140 6 140 6 162 33 162 33 194 6 194 6 216 33 216 33 248" fill="#fff05a"/>
          <path d="M30.5,284c-11.3,0-20.5-9.2-20.5-20.5s9.2-20.5,20.5-20.5,20.5,9.2,20.5,20.5-9.2,20.5-20.5,20.5Zm0-36c-8.55,0-15.5,6.95-15.5,15.5s6.95,15.5,15.5,15.5,15.5-6.95,15.5-15.5-6.95-15.5-15.5-15.5Z" fill="#fff05a"/>
          <path d="M30.5,294c-16.82,0-30.5-13.68-30.5-30.5s13.68-30.5,30.5-30.5,30.5,13.68,30.5,30.5-13.68,30.5-30.5,30.5Zm0-56c-14.06,0-25.5,11.44-25.5,25.5s11.44,25.5,25.5,25.5,25.5-11.44,25.5-25.5-11.44-25.5-25.5-25.5Z" fill="#fff05a"/>
          <path d="M30.5,284c-11.3,0-20.5-9.2-20.5-20.5s9.2-20.5,20.5-20.5,20.5,9.2,20.5,20.5-9.2,20.5-20.5,20.5Zm0-36c-8.55,0-15.5,6.95-15.5,15.5s6.95,15.5,15.5,15.5,15.5-6.95,15.5-15.5-6.95-15.5-15.5-15.5Z" fill="#fff05a"/>
          <path d="M49.5,148.02c-10.21,0-18.52-8.31-18.52-18.52s8.31-18.52,18.52-18.52,18.52,8.31,18.52,18.52-8.31,18.52-18.52,18.52Zm0-34c-8.54,0-15.48,6.95-15.48,15.48s6.95,15.48,15.48,15.48,15.48-6.95,15.48-15.48-6.95-15.48-15.48-15.48Z" fill="#fff05a"/>
          <path d="M49.5,141.95c-6.86,0-12.45-5.58-12.45-12.45s5.58-12.45,12.45-12.45,12.45,5.58,12.45,12.45-5.58,12.45-12.45,12.45Zm0-21.86c-5.19,0-9.41,4.22-9.41,9.41s4.22,9.41,9.41,9.41,9.41-4.22,9.41-9.41-4.22-9.41-9.41-9.41Z" fill="#fff05a"/>
          <rect x="46.28" y="146.5" width="4.43" height="99" fill="#fff05a"/>
          <rect x="55" y="137.5" width="5" height="45" fill="#fff05a"/>
          <rect x="55" y="191.5" width="5" height="18" fill="#fff05a"/>
          <rect x="55" y="218.5" width="5" height="36" fill="#fff05a"/>
          <rect x="82" y="182.5" width="5" height="45" fill="#fff05a"/>
          <rect x="82" y="155.5" width="5" height="18" fill="#fff05a"/>
          <rect x="82" y="236.5" width="5" height="18" fill="#fff05a"/>
          <rect x="82" y="110.5" width="5" height="36" fill="#fff05a"/>
          <path d="M85.5,265c-11.3,0-20.5-9.2-20.5-20.5s9.2-20.5,20.5-20.5v5c-8.55,0-15.5,6.95-15.5,15.5s6.95,15.5,15.5,15.5v5Z" fill="#fff05a"/>
          <path d="M84.5,185v-5c8.55,0,15.5-6.95,15.5-15.5s-6.95-15.5-15.5-15.5v-5c11.3,0,20.5,9.2,20.5,20.5s-9.2,20.5-20.5,20.5Z" fill="#fff05a"/>
          <rect x="84.5" y="126" width="27" height="5" fill="#fff05a"/>
          <rect x="84.5" y="198" width="27" height="5" fill="#fff05a"/>
          <rect x="82" y="263.5" width="5" height="27" fill="#fff05a"/>
        </g>
        <path d="M291.5,86h-30.5v-2.5c0-8.55-6.95-15.5-15.5-15.5s-15.5,6.95-15.5,15.5h-5c0-11.3,9.2-20.5,20.5-20.5,10.46,0,19.11,7.87,20.35,18h25.65v5Z" fill="#fff05a"/>
      </g>
      <g>
        <polygon points="114 584.32 1 584.32 1 471.32 33 471.32 33 476.32 6 476.32 6 579.32 109 579.32 109 552.32 114 552.32 114 584.32" fill="#fff05a"/>
        <polygon points="87 557.32 28 557.32 28 498.32 84.5 498.32 84.5 503.32 33 503.32 33 552.32 82 552.32 82 530.32 57.5 530.32 57.5 525.32 87 525.32 87 557.32" fill="#fff05a"/>
        <path d="M128.5,553.4c-10.21,0-18.52-8.31-18.52-18.52s8.31-18.52,18.52-18.52,18.52,8.31,18.52,18.52-8.31,18.52-18.52,18.52Zm0-34c-8.54,0-15.48,6.95-15.48,15.48s6.95,15.48,15.48,15.48,15.48-6.95,15.48-15.48-6.95-15.48-15.48-15.48Z" fill="#fff05a"/>
        <path d="M128.5,547.33c-6.86,0-12.45-5.58-12.45-12.45s5.58-12.45,12.45-12.45,12.45,5.58,12.45,12.45-5.58,12.45-12.45,12.45Zm0-21.86c-5.19,0-9.41,4.22-9.41,9.41s4.22,9.41,9.41,9.41,9.41-4.22,9.41-9.41-4.22-9.41-9.41-9.41Z" fill="#fff05a"/>
        <polygon points="222 584.32 190 584.32 190 557.32 168 557.32 168 584.32 136 584.32 136 557.32 109 557.32 109 552.32 141 552.32 141 579.32 163 579.32 163 552.32 195 552.32 195 579.32 217 579.32 217 552.32 249 552.32 249 557.32 222 557.32 222 584.32" fill="#fff05a"/>
        <rect x="146.5" y="534.32" width="117" height="5" fill="#fff05a"/>
        <polygon points="114 527.82 109 527.82 109 476.32 30.5 476.32 30.5 471.32 114 471.32 114 527.82" fill="#fff05a"/>
        <path d="M265.5,574.31c-11.3,0-20.5-9.2-20.5-20.5s9.2-20.5,20.5-20.5,20.5,9.2,20.5,20.5-9.2,20.5-20.5,20.5Zm0-36c-8.55,0-15.5,6.95-15.5,15.5s6.95,15.5,15.5,15.5,15.5-6.95,15.5-15.5-6.95-15.5-15.5-15.5Z" fill="#fff05a"/>
        <path d="M265.5,584.32c-16.82,0-30.5-13.68-30.5-30.5s13.68-30.5,30.5-30.5,30.5,13.68,30.5,30.5-13.68,30.5-30.5,30.5Zm0-56c-14.06,0-25.5,11.44-25.5,25.5s11.44,25.5,25.5,25.5,25.5-11.44,25.5-25.5-11.44-25.5-25.5-25.5Z" fill="#fff05a"/>
        <path d="M265.5,574.31c-11.3,0-20.5-9.2-20.5-20.5s9.2-20.5,20.5-20.5,20.5,9.2,20.5,20.5-9.2,20.5-20.5,20.5Zm0-36c-8.55,0-15.5,6.95-15.5,15.5s6.95,15.5,15.5,15.5,15.5-6.95,15.5-15.5-6.95-15.5-15.5-15.5Z" fill="#fff05a"/>
        <rect x="138.5" y="525.32" width="45" height="5" fill="#fff05a"/>
        <rect x="192.5" y="525.32" width="18" height="5" fill="#fff05a"/>
        <rect x="219.5" y="525.32" width="36" height="5" fill="#fff05a"/>
        <rect x="183.5" y="499.32" width="45" height="5" fill="#fff05a"/>
        <rect x="156.5" y="499.32" width="18" height="5" fill="#fff05a"/>
        <rect x="237.5" y="499.32" width="18" height="5" fill="#fff05a"/>
        <rect x="111.5" y="499.32" width="36" height="5" fill="#fff05a"/>
        <path d="M186,501.82h-5c0-8.55-6.95-15.5-15.5-15.5s-15.5,6.95-15.5,15.5h-5c0-11.3,9.2-20.5,20.5-20.5s20.5,9.2,20.5,20.5Z" fill="#fff05a"/>
        <rect x="127" y="474.82" width="5" height="27" fill="#fff05a"/>
        <rect x="199" y="474.82" width="5" height="27" fill="#fff05a"/>
        <g>
          <polygon points="33 476.32 28 476.32 28 449.32 1 449.32 1 417.32 28 417.32 28 395.32 1 395.32 1 363.32 28 363.32 28 336.32 33 336.32 33 368.32 6 368.32 6 390.32 33 390.32 33 422.32 6 422.32 6 444.32 33 444.32 33 476.32" fill="#fff05a"/>
          <path d="M30.5,341.32c-11.3,0-20.5-9.2-20.5-20.5s9.2-20.5,20.5-20.5,20.5,9.2,20.5,20.5-9.2,20.5-20.5,20.5Zm0-36c-8.55,0-15.5,6.95-15.5,15.5s6.95,15.5,15.5,15.5,15.5-6.95,15.5-15.5-6.95-15.5-15.5-15.5Z" fill="#fff05a"/>
          <path d="M30.5,351.32c-16.82,0-30.5-13.68-30.5-30.5s13.68-30.5,30.5-30.5,30.5,13.68,30.5,30.5-13.68,30.5-30.5,30.5Zm0-56c-14.06,0-25.5,11.44-25.5,25.5s11.44,25.5,25.5,25.5,25.5-11.44,25.5-25.5-11.44-25.5-25.5-25.5Z" fill="#fff05a"/>
          <path d="M30.5,341.32c-11.3,0-20.5-9.2-20.5-20.5s9.2-20.5,20.5-20.5,20.5,9.2,20.5,20.5-9.2,20.5-20.5,20.5Zm0-36c-8.55,0-15.5,6.95-15.5,15.5s6.95,15.5,15.5,15.5,15.5-6.95,15.5-15.5-6.95-15.5-15.5-15.5Z" fill="#fff05a"/>
          <path d="M49.5,473.33c-10.21,0-18.52-8.31-18.52-18.52s8.31-18.52,18.52-18.52,18.52,8.31,18.52,18.52-8.31,18.52-18.52,18.52Zm0-34c-8.54,0-15.48,6.95-15.48,15.48s6.95,15.48,15.48,15.48,15.48-6.95,15.48-15.48-6.95-15.48-15.48-15.48Z" fill="#fff05a"/>
          <path d="M49.5,467.26c-6.86,0-12.45-5.58-12.45-12.45s5.58-12.45,12.45-12.45,12.45,5.58,12.45,12.45-5.58,12.45-12.45,12.45Zm0-21.86c-5.19,0-9.41,4.22-9.41,9.41s4.22,9.41,9.41,9.41,9.41-4.22,9.41-9.41-4.22-9.41-9.41-9.41Z" fill="#fff05a"/>
          <rect x="46.28" y="338.82" width="4.43" height="99" fill="#fff05a"/>
          <rect x="55" y="401.82" width="5" height="45" fill="#fff05a"/>
          <rect x="55" y="374.82" width="5" height="18" fill="#fff05a"/>
          <rect x="55" y="329.82" width="5" height="36" fill="#fff05a"/>
          <rect x="82" y="356.82" width="5" height="45" fill="#fff05a"/>
          <rect x="82" y="410.82" width="5" height="18" fill="#fff05a"/>
          <rect x="82" y="329.82" width="5" height="18" fill="#fff05a"/>
          <rect x="82" y="437.82" width="5" height="36" fill="#fff05a"/>
          <path d="M85.5,360.32c-11.3,0-20.5-9.2-20.5-20.5s9.2-20.5,20.5-20.5v5c-8.55,0-15.5,6.95-15.5,15.5s6.95,15.5,15.5,15.5v5Z" fill="#fff05a"/>
          <path d="M84.5,440.32v-5c8.55,0,15.5-6.95,15.5-15.5s-6.95-15.5-15.5-15.5v-5c11.3,0,20.5,9.2,20.5,20.5s-9.2,20.5-20.5,20.5Z" fill="#fff05a"/>
          <rect x="84.5" y="453.32" width="27" height="5" fill="#fff05a"/>
          <rect x="84.5" y="381.32" width="27" height="5" fill="#fff05a"/>
          <rect x="82" y="293.82" width="5" height="27" fill="#fff05a"/>
        </g>
        <path d="M245.5,521.32c-11.3,0-20.5-9.2-20.5-20.5h5c0,8.55,6.95,15.5,15.5,15.5s15.5-6.95,15.5-15.5v-2.5h30.5v5h-25.65c-1.24,10.13-9.89,18-20.35,18Z" fill="#fff05a"/>
      </g>
      <g>
        <polygon points="583 113 551 113 551 108 578 108 578 5 475 5 475 32 470 32 470 0 583 0 583 113" fill="#fff05a"/>
        <polygon points="556 86 499.5 86 499.5 81 551 81 551 32 502 32 502 54 526.5 54 526.5 59 497 59 497 27 556 27 556 86" fill="#fff05a"/>
        <path d="M455.5,67.95c-10.21,0-18.52-8.31-18.52-18.52s8.31-18.52,18.52-18.52,18.52,8.31,18.52,18.52-8.31,18.52-18.52,18.52Zm0-34c-8.54,0-15.48,6.95-15.48,15.48s6.95,15.48,15.48,15.48,15.48-6.95,15.48-15.48-6.95-15.48-15.48-15.48Z" fill="#fff05a"/>
        <path d="M455.5,61.87c-6.86,0-12.45-5.58-12.45-12.45s5.58-12.45,12.45-12.45,12.45,5.58,12.45,12.45-5.58,12.45-12.45,12.45Zm0-21.86c-5.19,0-9.41,4.22-9.41,9.41s4.22,9.41,9.41,9.41,9.41-4.22,9.41-9.41-4.22-9.41-9.41-9.41Z" fill="#fff05a"/>
        <polygon points="475 32 443 32 443 5 421 5 421 32 389 32 389 5 367 5 367 32 335 32 335 27 362 27 362 0 394 0 394 27 416 27 416 0 448 0 448 27 475 27 475 32" fill="#fff05a"/>
        <rect x="320.5" y="45" width="117" height="5" fill="#fff05a"/>
        <polygon points="553.5 113 470 113 470 56.5 475 56.5 475 108 553.5 108 553.5 113" fill="#fff05a"/>
        <path d="M318.5,51c-11.3,0-20.5-9.2-20.5-20.5s9.2-20.5,20.5-20.5,20.5,9.2,20.5,20.5-9.2,20.5-20.5,20.5Zm0-36c-8.55,0-15.5,6.95-15.5,15.5s6.95,15.5,15.5,15.5,15.5-6.95,15.5-15.5-6.95-15.5-15.5-15.5Z" fill="#fff05a"/>
        <path d="M318.5,61c-16.82,0-30.5-13.68-30.5-30.5S301.68,0,318.5,0s30.5,13.68,30.5,30.5-13.68,30.5-30.5,30.5Zm0-56c-14.06,0-25.5,11.44-25.5,25.5s11.44,25.5,25.5,25.5,25.5-11.44,25.5-25.5-11.44-25.5-25.5-25.5Z" fill="#fff05a"/>
        <path d="M318.5,51c-11.3,0-20.5-9.2-20.5-20.5s9.2-20.5,20.5-20.5,20.5,9.2,20.5,20.5-9.2,20.5-20.5,20.5Zm0-36c-8.55,0-15.5,6.95-15.5,15.5s6.95,15.5,15.5,15.5,15.5-6.95,15.5-15.5-6.95-15.5-15.5-15.5Z" fill="#fff05a"/>
        <rect x="400.5" y="54" width="45" height="5" fill="#fff05a"/>
        <rect x="373.5" y="54" width="18" height="5" fill="#fff05a"/>
        <rect x="328.5" y="54" width="36" height="5" fill="#fff05a"/>
        <rect x="355.5" y="80" width="45" height="5" fill="#fff05a"/>
        <rect x="409.5" y="80" width="18" height="5" fill="#fff05a"/>
        <rect x="328.5" y="80" width="18" height="5" fill="#fff05a"/>
        <rect x="436.5" y="80" width="36" height="5" fill="#fff05a"/>
        <path d="M418.5,103c-11.3,0-20.5-9.2-20.5-20.5h5c0,8.55,6.95,15.5,15.5,15.5s15.5-6.95,15.5-15.5h5c0,11.3-9.2,20.5-20.5,20.5Z" fill="#fff05a"/>
        <rect x="452" y="82.5" width="5" height="27" fill="#fff05a"/>
        <rect x="380" y="82.5" width="5" height="27" fill="#fff05a"/>
        <g>
          <polygon points="556 248 551 248 551 216 578 216 578 194 551 194 551 162 578 162 578 140 551 140 551 108 556 108 556 135 583 135 583 167 556 167 556 189 583 189 583 221 556 221 556 248" fill="#fff05a"/>
          <path d="M553.5,284c-11.3,0-20.5-9.2-20.5-20.5s9.2-20.5,20.5-20.5,20.5,9.2,20.5,20.5-9.2,20.5-20.5,20.5Zm0-36c-8.55,0-15.5,6.95-15.5,15.5s6.95,15.5,15.5,15.5,15.5-6.95,15.5-15.5-6.95-15.5-15.5-15.5Z" fill="#fff05a"/>
          <path d="M553.5,294c-16.82,0-30.5-13.68-30.5-30.5s13.68-30.5,30.5-30.5,30.5,13.68,30.5,30.5-13.68,30.5-30.5,30.5Zm0-56c-14.06,0-25.5,11.44-25.5,25.5s11.44,25.5,25.5,25.5,25.5-11.44,25.5-25.5-11.44-25.5-25.5-25.5Z" fill="#fff05a"/>
          <path d="M553.5,284c-11.3,0-20.5-9.2-20.5-20.5s9.2-20.5,20.5-20.5,20.5,9.2,20.5,20.5-9.2,20.5-20.5,20.5Zm0-36c-8.55,0-15.5,6.95-15.5,15.5s6.95,15.5,15.5,15.5,15.5-6.95,15.5-15.5-6.95-15.5-15.5-15.5Z" fill="#fff05a"/>
          <path d="M534.5,148.02c-10.21,0-18.52-8.31-18.52-18.52s8.31-18.52,18.52-18.52,18.52,8.31,18.52,18.52-8.31,18.52-18.52,18.52Zm0-34c-8.54,0-15.48,6.95-15.48,15.48s6.95,15.48,15.48,15.48,15.48-6.95,15.48-15.48-6.95-15.48-15.48-15.48Z" fill="#fff05a"/>
          <path d="M534.5,141.95c-6.86,0-12.45-5.58-12.45-12.45s5.58-12.45,12.45-12.45,12.45,5.58,12.45,12.45-5.58,12.45-12.45,12.45Zm0-21.86c-5.19,0-9.41,4.22-9.41,9.41s4.22,9.41,9.41,9.41,9.41-4.22,9.41-9.41-4.22-9.41-9.41-9.41Z" fill="#fff05a"/>
          <rect x="533.28" y="146.5" width="4.43" height="99" fill="#fff05a"/>
          <rect x="524" y="137.5" width="5" height="45" fill="#fff05a"/>
          <rect x="524" y="191.5" width="5" height="18" fill="#fff05a"/>
          <rect x="524" y="218.5" width="5" height="36" fill="#fff05a"/>
          <rect x="497" y="182.5" width="5" height="45" fill="#fff05a"/>
          <rect x="497" y="155.5" width="5" height="18" fill="#fff05a"/>
          <rect x="497" y="236.5" width="5" height="18" fill="#fff05a"/>
          <rect x="497" y="110.5" width="5" height="36" fill="#fff05a"/>
          <path d="M498.5,265v-5c8.55,0,15.5-6.95,15.5-15.5s-6.95-15.5-15.5-15.5v-5c11.3,0,20.5,9.2,20.5,20.5s-9.2,20.5-20.5,20.5Z" fill="#fff05a"/>
          <path d="M499.5,185c-11.3,0-20.5-9.2-20.5-20.5s9.2-20.5,20.5-20.5v5c-8.55,0-15.5,6.95-15.5,15.5s6.95,15.5,15.5,15.5v5Z" fill="#fff05a"/>
          <rect x="472.5" y="126" width="27" height="5" fill="#fff05a"/>
          <rect x="472.5" y="198" width="27" height="5" fill="#fff05a"/>
          <rect x="497" y="263.5" width="5" height="27" fill="#fff05a"/>
        </g>
        <path d="M323,86h-30.5v-5h25.65c1.24-10.13,9.89-18,20.35-18,11.3,0,20.5,9.2,20.5,20.5h-5c0-8.55-6.95-15.5-15.5-15.5s-15.5,6.95-15.5,15.5v2.5Z" fill="#fff05a"/>
      </g>
      <g>
        <polygon points="583 584.32 470 584.32 470 552.32 475 552.32 475 579.32 578 579.32 578 476.32 551 476.32 551 471.32 583 471.32 583 584.32" fill="#fff05a"/>
        <polygon points="556 557.32 497 557.32 497 525.32 526.5 525.32 526.5 530.32 502 530.32 502 552.32 551 552.32 551 503.32 499.5 503.32 499.5 498.32 556 498.32 556 557.32" fill="#fff05a"/>
        <path d="M455.5,553.4c-10.21,0-18.52-8.31-18.52-18.52s8.31-18.52,18.52-18.52,18.52,8.31,18.52,18.52-8.31,18.52-18.52,18.52Zm0-34c-8.54,0-15.48,6.95-15.48,15.48s6.95,15.48,15.48,15.48,15.48-6.95,15.48-15.48-6.95-15.48-15.48-15.48Z" fill="#fff05a"/>
        <path d="M455.5,547.33c-6.86,0-12.45-5.58-12.45-12.45s5.58-12.45,12.45-12.45,12.45,5.58,12.45,12.45-5.58,12.45-12.45,12.45Zm0-21.86c-5.19,0-9.41,4.22-9.41,9.41s4.22,9.41,9.41,9.41,9.41-4.22,9.41-9.41-4.22-9.41-9.41-9.41Z" fill="#fff05a"/>
        <polygon points="448 584.32 416 584.32 416 557.32 394 557.32 394 584.32 362 584.32 362 557.32 335 557.32 335 552.32 367 552.32 367 579.32 389 579.32 389 552.32 421 552.32 421 579.32 443 579.32 443 552.32 475 552.32 475 557.32 448 557.32 448 584.32" fill="#fff05a"/>
        <rect x="320.5" y="534.32" width="117" height="5" fill="#fff05a"/>
        <polygon points="475 527.82 470 527.82 470 471.32 553.5 471.32 553.5 476.32 475 476.32 475 527.82" fill="#fff05a"/>
        <path d="M318.5,574.31c-11.3,0-20.5-9.2-20.5-20.5s9.2-20.5,20.5-20.5,20.5,9.2,20.5,20.5-9.2,20.5-20.5,20.5Zm0-36c-8.55,0-15.5,6.95-15.5,15.5s6.95,15.5,15.5,15.5,15.5-6.95,15.5-15.5-6.95-15.5-15.5-15.5Z" fill="#fff05a"/>
        <path d="M318.5,584.32c-16.82,0-30.5-13.68-30.5-30.5s13.68-30.5,30.5-30.5,30.5,13.68,30.5,30.5-13.68,30.5-30.5,30.5Zm0-56c-14.06,0-25.5,11.44-25.5,25.5s11.44,25.5,25.5,25.5,25.5-11.44,25.5-25.5-11.44-25.5-25.5-25.5Z" fill="#fff05a"/>
        <path d="M318.5,574.31c-11.3,0-20.5-9.2-20.5-20.5s9.2-20.5,20.5-20.5,20.5,9.2,20.5,20.5-9.2,20.5-20.5,20.5Zm0-36c-8.55,0-15.5,6.95-15.5,15.5s6.95,15.5,15.5,15.5,15.5-6.95,15.5-15.5-6.95-15.5-15.5-15.5Z" fill="#fff05a"/>
        <rect x="400.5" y="525.32" width="45" height="5" fill="#fff05a"/>
        <rect x="373.5" y="525.32" width="18" height="5" fill="#fff05a"/>
        <rect x="328.5" y="525.32" width="36" height="5" fill="#fff05a"/>
        <rect x="355.5" y="499.32" width="45" height="5" fill="#fff05a"/>
        <rect x="409.5" y="499.32" width="18" height="5" fill="#fff05a"/>
        <rect x="328.5" y="499.32" width="18" height="5" fill="#fff05a"/>
        <rect x="436.5" y="499.32" width="36" height="5" fill="#fff05a"/>
        <path d="M439,501.82h-5c0-8.55-6.95-15.5-15.5-15.5s-15.5,6.95-15.5,15.5h-5c0-11.3,9.2-20.5,20.5-20.5s20.5,9.2,20.5,20.5Z" fill="#fff05a"/>
        <rect x="452" y="474.82" width="5" height="27" fill="#fff05a"/>
        <rect x="380" y="474.82" width="5" height="27" fill="#fff05a"/>
        <g>
          <polygon points="556 476.32 551 476.32 551 444.32 578 444.32 578 422.32 551 422.32 551 390.32 578 390.32 578 368.32 551 368.32 551 336.32 556 336.32 556 363.32 583 363.32 583 395.32 556 395.32 556 417.32 583 417.32 583 449.32 556 449.32 556 476.32" fill="#fff05a"/>
          <path d="M553.5,341.32c-11.3,0-20.5-9.2-20.5-20.5s9.2-20.5,20.5-20.5,20.5,9.2,20.5,20.5-9.2,20.5-20.5,20.5Zm0-36c-8.55,0-15.5,6.95-15.5,15.5s6.95,15.5,15.5,15.5,15.5-6.95,15.5-15.5-6.95-15.5-15.5-15.5Z" fill="#fff05a"/>
          <path d="M553.5,351.32c-16.82,0-30.5-13.68-30.5-30.5s13.68-30.5,30.5-30.5,30.5,13.68,30.5,30.5-13.68,30.5-30.5,30.5Zm0-56c-14.06,0-25.5,11.44-25.5,25.5s11.44,25.5,25.5,25.5,25.5-11.44,25.5-25.5-11.44-25.5-25.5-25.5Z" fill="#fff05a"/>
          <path d="M553.5,341.32c-11.3,0-20.5-9.2-20.5-20.5s9.2-20.5,20.5-20.5,20.5,9.2,20.5,20.5-9.2,20.5-20.5,20.5Zm0-36c-8.55,0-15.5,6.95-15.5,15.5s6.95,15.5,15.5,15.5,15.5-6.95,15.5-15.5-6.95-15.5-15.5-15.5Z" fill="#fff05a"/>
          <path d="M534.5,473.33c-10.21,0-18.52-8.31-18.52-18.52s8.31-18.52,18.52-18.52,18.52,8.31,18.52,18.52-8.31,18.52-18.52,18.52Zm0-34c-8.54,0-15.48,6.95-15.48,15.48s6.95,15.48,15.48,15.48,15.48-6.95,15.48-15.48-6.95-15.48-15.48-15.48Z" fill="#fff05a"/>
          <path d="M534.5,467.26c-6.86,0-12.45-5.58-12.45-12.45s5.58-12.45,12.45-12.45,12.45,5.58,12.45,12.45-5.58,12.45-12.45,12.45Zm0-21.86c-5.19,0-9.41,4.22-9.41,9.41s4.22,9.41,9.41,9.41,9.41-4.22,9.41-9.41-4.22-9.41-9.41-9.41Z" fill="#fff05a"/>
          <rect x="533.28" y="338.82" width="4.43" height="99" fill="#fff05a"/>
          <rect x="524" y="401.82" width="5" height="45" fill="#fff05a"/>
          <rect x="524" y="374.82" width="5" height="18" fill="#fff05a"/>
          <rect x="524" y="329.82" width="5" height="36" fill="#fff05a"/>
          <rect x="497" y="356.82" width="5" height="45" fill="#fff05a"/>
          <rect x="497" y="410.82" width="5" height="18" fill="#fff05a"/>
          <rect x="497" y="329.82" width="5" height="18" fill="#fff05a"/>
          <rect x="497" y="437.82" width="5" height="36" fill="#fff05a"/>
          <path d="M498.5,360.32v-5c8.55,0,15.5-6.95,15.5-15.5s-6.95-15.5-15.5-15.5v-5c11.3,0,20.5,9.2,20.5,20.5s-9.2,20.5-20.5,20.5Z" fill="#fff05a"/>
          <path d="M499.5,440.32c-11.3,0-20.5-9.2-20.5-20.5s9.2-20.5,20.5-20.5v5c-8.55,0-15.5,6.95-15.5,15.5s6.95,15.5,15.5,15.5v5Z" fill="#fff05a"/>
          <rect x="472.5" y="453.32" width="27" height="5" fill="#fff05a"/>
          <rect x="472.5" y="381.32" width="27" height="5" fill="#fff05a"/>
          <rect x="497" y="293.82" width="5" height="27" fill="#fff05a"/>
        </g>
        <path d="M338.5,521.32c-10.46,0-19.11-7.87-20.35-18h-25.65v-5h30.5v2.5c0,8.55,6.95,15.5,15.5,15.5s15.5-6.95,15.5-15.5h5c0,11.3-9.2,20.5-20.5,20.5Z" fill="#fff05a"/>
      </g>
    </g>
  </g>
</svg>