<?xml version="1.0" encoding="UTF-8"?>
<svg id="_Шар_2" data-name="Шар 2" xmlns="http://www.w3.org/2000/svg" viewBox="0 0 584.5 586.66">
  <g id="pattern">
    <path d="M475.5,5V29.5c0,1.38-1.12,2.5-2.5,2.5h-10.75c7.15,2.57,12.27,9.41,12.27,17.43,0,1.64-.21,3.23-.61,4.74,.93,.36,1.59,1.27,1.59,2.33v51.5h103V5h-103Zm81,81h-56.5c-1.38,0-2.5-1.12-2.5-2.5s1.12-2.5,2.5-2.5h51.5V32h-49v22h24.5c1.38,0,2.5,1.12,2.5,2.5s-1.12,2.5-2.5,2.5h-29.5V27h59v59Z" fill="#fdff8b"/>
    <path d="M551.5,81V32h-49v22h24.5c1.38,0,2.5,1.12,2.5,2.5s-1.12,2.5-2.5,2.5h-29.5V27h59v59h-56.5c-1.38,0-2.5-1.12-2.5-2.5s1.12-2.5,2.5-2.5h51.5Z" fill="#fdff8b"/>
    <path d="M551.5,392.66v32h27v22h-27v2.11c-2.64-5.18-7.65-8.96-13.59-9.9v-89.81c4.01,2.5,8.63,4.09,13.59,4.5v17.1h27v22h-27Z" fill="#fdff8b"/>
    <path d="M239.01,541.07c-2.32,4.04-3.73,8.67-3.97,13.59h-18.04v27h-22v-27h-32v27h-22v-27h-6.25c5.97-2.14,10.53-7.28,11.87-13.59h92.39Z" fill="#fdff8b"/>
    <path d="M449.75,554.66h-6.25v27h-22v-27h-32v27h-22v-27h-18.04c-.24-4.92-1.65-9.55-3.96-13.59h92.38c1.34,6.31,5.9,11.45,11.87,13.59Z" fill="#fdff8b"/>
    <path d="M475.5,478.66v51.5c0,1.06-.66,1.97-1.59,2.33,.4,1.51,.61,3.1,.61,4.74,0,8.02-5.12,14.86-12.27,17.43h10.75c1.38,0,2.5,1.12,2.5,2.5v24.5h103v-103h-103Zm81,81h-59v-32h29.5c1.38,0,2.5,1.12,2.5,2.5s-1.12,2.5-2.5,2.5h-24.5v22h49v-49h-51.5c-1.38,0-2.5-1.12-2.5-2.5s1.12-2.5,2.5-2.5h56.5v59Z" fill="#fdff8b"/>
    <path d="M437,506.66c-1.38,0-2.5-1.12-2.5-2.5,0-8.55-6.95-15.5-15.5-15.5s-15.5,6.95-15.5,15.5c0,1.38-1.12,2.5-2.5,2.5h-41.81c-1.65,9.64-10.08,17-20.19,17s-19.11-7.87-20.35-18h-52.8c-1.24,10.13-9.89,18-20.35,18s-18.54-7.36-20.19-17h-41.81c-1.38,0-2.5-1.12-2.5-2.5,0-8.55-6.95-15.5-15.5-15.5s-15.5,6.95-15.5,15.5c0,1.38-1.12,2.5-2.5,2.5h-33.5v19.07c3.39-4.27,8.63-7.01,14.5-7.01,7.12,0,13.31,4.04,16.41,9.94h38.59c.83,0,1.5,.67,1.5,1.5s-.67,1.5-1.5,1.5h-37.33c.55,1.76,.85,3.63,.85,5.57v.02h94.56c1.67-2.11,3.61-3.99,5.77-5.59h-27.85c-.83,0-1.5-.67-1.5-1.5s.67-1.5,1.5-1.5h32.81c3.99-1.92,8.47-3,13.19-3,11.52,0,21.56,6.42,26.75,15.86,5.19-9.44,15.23-15.86,26.75-15.86,4.72,0,9.2,1.08,13.19,3h32.81c.83,0,1.5,.67,1.5,1.5s-.67,1.5-1.5,1.5h-27.85c2.16,1.6,4.1,3.48,5.77,5.59h94.56v-.02c0-1.94,.3-3.81,.85-5.57h-37.33c-.83,0-1.5-.67-1.5-1.5s.67-1.5,1.5-1.5h38.59c3.1-5.9,9.29-9.94,16.41-9.94,5.87,0,11.11,2.74,14.5,7.01v-19.07h-33.5Zm-262.5,0h-18c-1.38,0-2.5-1.12-2.5-2.5s1.12-2.5,2.5-2.5h18c1.38,0,2.5,1.12,2.5,2.5s-1.12,2.5-2.5,2.5Zm36,25h-18c-.83,0-1.5-.67-1.5-1.5s.67-1.5,1.5-1.5h18c.83,0,1.5,.67,1.5,1.5s-.67,1.5-1.5,1.5Zm181.5,0h-18c-.83,0-1.5-.67-1.5-1.5s.67-1.5,1.5-1.5h18c.83,0,1.5,.67,1.5,1.5s-.67,1.5-1.5,1.5Zm36-25h-18c-1.38,0-2.5-1.12-2.5-2.5s1.12-2.5,2.5-2.5h18c1.38,0,2.5,1.12,2.5,2.5s-1.12,2.5-2.5,2.5Z" fill="#fdff8b"/>
    <path d="M109.98,537.23c0-1.64,.21-3.23,.61-4.74-.93-.36-1.59-1.27-1.59-2.33v-51.5H6v103H109v-24.5c0-1.38,1.12-2.5,2.5-2.5h10.75c-7.15-2.57-12.27-9.41-12.27-17.43Zm-27.98,17.43v-22h-24.5c-1.38,0-2.5-1.12-2.5-2.5s1.12-2.5,2.5-2.5h29.5v32H28v-59h56.5c1.38,0,2.5,1.12,2.5,2.5s-1.12,2.5-2.5,2.5H33v49h49Z" fill="#fdff8b"/>
    <path d="M122.25,32h-10.75c-1.38,0-2.5-1.12-2.5-2.5V5H6V108H109V56.5c0-1.06,.66-1.97,1.59-2.33-.4-1.51-.61-3.1-.61-4.74,0-8.02,5.12-14.86,12.27-17.43Zm-35.25,27h-29.5c-1.38,0-2.5-1.12-2.5-2.5s1.12-2.5,2.5-2.5h24.5v-22H33v49h51.5c1.38,0,2.5,1.12,2.5,2.5s-1.12,2.5-2.5,2.5H28V27h59v32Z" fill="#fdff8b"/>
    <path d="M239.01,45.59h-92.39c-1.34-6.31-5.9-11.45-11.87-13.59h6.25V5h22v27h32V5h22v27h18.04c.24,4.92,1.65,9.55,3.97,13.59Z" fill="#fdff8b"/>
    <path d="M449.75,32c-5.97,2.14-10.53,7.28-11.87,13.59h-92.38c2.31-4.04,3.72-8.67,3.96-13.59h18.04V5h22v27h32V5h22v27h6.25Z" fill="#fdff8b"/>
    <path d="M456,67.95c-7.12,0-13.31-4.04-16.41-9.95h-38.59c-.83,0-1.5-.67-1.5-1.5s.67-1.5,1.5-1.5h37.33c-.55-1.76-.85-3.63-.85-5.57v-.02h-94.56c-1.67,2.11-3.61,3.99-5.77,5.59h27.85c.83,0,1.5,.67,1.5,1.5s-.67,1.5-1.5,1.5h-32.81c-3.99,1.92-8.47,3-13.19,3-11.52,0-21.56-6.42-26.75-15.86-5.19,9.44-15.23,15.86-26.75,15.86-4.72,0-9.2-1.08-13.19-3h-32.81c-.83,0-1.5-.67-1.5-1.5s.67-1.5,1.5-1.5h27.85c-2.16-1.6-4.1-3.48-5.77-5.59h-94.56v.02c0,1.94-.3,3.81-.85,5.57h37.33c.83,0,1.5,.67,1.5,1.5s-.67,1.5-1.5,1.5h-38.59c-3.1,5.91-9.29,9.95-16.41,9.95-5.87,0-11.11-2.75-14.5-7.02v19.07h33.5c1.38,0,2.5,1.12,2.5,2.5,0,8.55,6.95,15.5,15.5,15.5s15.5-6.95,15.5-15.5c0-1.38,1.12-2.5,2.5-2.5h41.81c1.65-9.64,10.07-17,20.19-17s19.11,7.87,20.35,18h52.8c1.24-10.13,9.89-18,20.35-18s18.54,7.36,20.19,17h41.81c1.38,0,2.5,1.12,2.5,2.5,0,8.55,6.95,15.5,15.5,15.5s15.5-6.95,15.5-15.5c0-1.38,1.12-2.5,2.5-2.5h33.5v-19.07c-3.39,4.27-8.63,7.02-14.5,7.02Zm-281.5,17.05h-18c-1.38,0-2.5-1.12-2.5-2.5s1.12-2.5,2.5-2.5h18c1.38,0,2.5,1.12,2.5,2.5s-1.12,2.5-2.5,2.5Zm36-27h-18c-.83,0-1.5-.67-1.5-1.5s.67-1.5,1.5-1.5h18c.83,0,1.5,.67,1.5,1.5s-.67,1.5-1.5,1.5Zm181.5,0h-18c-.83,0-1.5-.67-1.5-1.5s.67-1.5,1.5-1.5h18c.83,0,1.5,.67,1.5,1.5s-.67,1.5-1.5,1.5Zm36,27h-18c-1.38,0-2.5-1.12-2.5-2.5s1.12-2.5,2.5-2.5h18c1.38,0,2.5,1.12,2.5,2.5s-1.12,2.5-2.5,2.5Z" fill="#fdff8b"/>
    <path d="M551.5,162v32h27v22h-27v17.1c-4.96,.41-9.58,2-13.59,4.5v-89.81c5.94-.94,10.95-4.72,13.59-9.9v2.11h27v22h-27Z" fill="#fdff8b"/>
    <g>
      <g>
        <path d="M339.19,27c-1.65-9.64-10.08-17-20.19-17-11.3,0-20.5,9.2-20.5,20.5s9.2,20.5,20.5,20.5c2.81,0,5.48-.57,7.92-1.59,2.2-.93,4.21-2.23,5.94-3.82,3.73-3.43,6.2-8.22,6.58-13.59,.04-.49,.06-.99,.06-1.5,0-1.19-.1-2.36-.31-3.5Zm-16.67,18.59c-.49,.12-1,.21-1.52,.28-.65,.09-1.32,.13-2,.13-8.55,0-15.5-6.95-15.5-15.5s6.95-15.5,15.5-15.5,15.5,6.96,15.5,15.5c0,7.34-5.12,13.5-11.98,15.09Z" fill="#605a31"/>
        <path d="M583.5,0V113h-29.5c-1.38,0-2.5-1.12-2.5-2.5s1.12-2.5,2.5-2.5h24.5V5h-103V29.5c0,1.38-1.12,2.5-2.5,2.5s-2.5-1.12-2.5-2.5V0h113Z" fill="#605a31"/>
        <path d="M556.5,27v59h-56.5c-1.38,0-2.5-1.12-2.5-2.5s1.12-2.5,2.5-2.5h51.5V32h-49v22h24.5c1.38,0,2.5,1.12,2.5,2.5s-1.12,2.5-2.5,2.5h-29.5V27h59Z" fill="#605a31"/>
        <path d="M462.25,32c-1.95-.71-4.06-1.09-6.25-1.09s-4.3,.38-6.25,1.09c-5.97,2.14-10.53,7.28-11.87,13.59-.26,1.23-.4,2.51-.4,3.82v.02c0,1.94,.3,3.81,.85,5.57,.34,1.04,.76,2.05,1.26,3,3.1,5.91,9.29,9.95,16.41,9.95,5.87,0,11.11-2.75,14.5-7.02,1.57-1.97,2.74-4.26,3.41-6.76,.4-1.51,.61-3.1,.61-4.74,0-8.02-5.12-14.86-12.27-17.43Zm-6.25,32.91c-5.37,0-10.11-2.75-12.88-6.91-.63-.93-1.15-1.94-1.56-3-.67-1.73-1.04-3.61-1.04-5.57,0-8.54,6.94-15.48,15.48-15.48s15.48,6.94,15.48,15.48-6.94,15.48-15.48,15.48Z" fill="#605a31"/>
        <path d="M456,36.98c-6.86,0-12.45,5.59-12.45,12.45,0,2,.48,3.89,1.32,5.57,.51,1.01,1.15,1.94,1.9,2.78,2.28,2.51,5.58,4.1,9.23,4.1,6.86,0,12.45-5.59,12.45-12.45s-5.59-12.45-12.45-12.45Zm0,21.86c-5.19,0-9.41-4.22-9.41-9.41s4.22-9.41,9.41-9.41,9.41,4.22,9.41,9.41-4.22,9.41-9.41,9.41Z" fill="#605a31"/>
        <circle cx="456" cy="49.43" r="9.41" transform="translate(-2.65 45.17) rotate(-5.65)" fill="#fdff8b"/>
        <path d="M475.5,29.5c0,1.38-1.12,2.5-2.5,2.5h-29.5V5h-22v27h-32V5h-22v27h-29.5c-1.38,0-2.5-1.12-2.5-2.5s1.12-2.5,2.5-2.5h24.5V0h32V27h22V0h32V27h24.5c1.38,0,2.5,1.12,2.5,2.5Z" fill="#605a31"/>
        <rect x="321" y="45.59" width="117" height="3.82" fill="#605a31"/>
        <path d="M556.5,110.5c0,1.38-1.12,2.5-2.5,2.5h-83.5V56.5c0-1.38,1.12-2.5,2.5-2.5,.32,0,.63,.06,.91,.17,.93,.36,1.59,1.27,1.59,2.33v51.5h78.5c1.38,0,2.5,1.12,2.5,2.5Z" fill="#605a31"/>
        <path d="M336.08,49.41c-4.52,4.09-10.51,6.59-17.08,6.59-11.18,0-20.7-7.23-24.13-17.27-.63,2.25-1.51,4.4-2.62,6.41,5.19,9.44,15.23,15.86,26.75,15.86,4.72,0,9.2-1.08,13.19-3,1.76-.84,3.42-1.85,4.96-3,2.16-1.6,4.1-3.48,5.77-5.59h-6.84Zm0,0c-4.52,4.09-10.51,6.59-17.08,6.59-11.18,0-20.7-7.23-24.13-17.27-.63,2.25-1.51,4.4-2.62,6.41,5.19,9.44,15.23,15.86,26.75,15.86,4.72,0,9.2-1.08,13.19-3,1.76-.84,3.42-1.85,4.96-3,2.16-1.6,4.1-3.48,5.77-5.59h-6.84Zm13.21-22.41c-1.73-15.18-14.65-27-30.29-27-11.52,0-21.56,6.42-26.75,15.86-1.11,2.01-1.99,4.16-2.62,6.41-.74,2.62-1.13,5.38-1.13,8.23s.39,5.61,1.13,8.23c.63,2.25,1.51,4.4,2.62,6.41,5.19,9.44,15.23,15.86,26.75,15.86,4.72,0,9.2-1.08,13.19-3,1.76-.84,3.42-1.85,4.96-3,2.16-1.6,4.1-3.48,5.77-5.59,.95-1.2,1.81-2.48,2.58-3.82,2.31-4.04,3.72-8.67,3.96-13.59,.03-.5,.04-1,.04-1.5,0-1.18-.07-2.35-.21-3.5Zm-9.75,18.59c-1.02,1.39-2.18,2.67-3.46,3.82-4.52,4.09-10.51,6.59-17.08,6.59-11.18,0-20.7-7.23-24.13-17.27-.89-2.58-1.37-5.35-1.37-8.23s.48-5.65,1.37-8.23c3.43-10.04,12.95-17.27,24.13-17.27,12.87,0,23.55,9.59,25.26,22,.16,1.14,.24,2.31,.24,3.5,0,.5-.01,1-.04,1.5-.3,5.07-2.08,9.74-4.92,13.59Zm-3.46,3.82c-4.52,4.09-10.51,6.59-17.08,6.59-11.18,0-20.7-7.23-24.13-17.27-.63,2.25-1.51,4.4-2.62,6.41,5.19,9.44,15.23,15.86,26.75,15.86,4.72,0,9.2-1.08,13.19-3,1.76-.84,3.42-1.85,4.96-3,2.16-1.6,4.1-3.48,5.77-5.59h-6.84Z" fill="#605a31"/>
        <path d="M339.19,27c-1.65-9.64-10.08-17-20.19-17-11.3,0-20.5,9.2-20.5,20.5s9.2,20.5,20.5,20.5c2.81,0,5.48-.57,7.92-1.59,2.2-.93,4.21-2.23,5.94-3.82,3.73-3.43,6.2-8.22,6.58-13.59,.04-.49,.06-.99,.06-1.5,0-1.19-.1-2.36-.31-3.5Zm-16.67,18.59c-.49,.12-1,.21-1.52,.28-.65,.09-1.32,.13-2,.13-8.55,0-15.5-6.95-15.5-15.5s6.95-15.5,15.5-15.5,15.5,6.96,15.5,15.5c0,7.34-5.12,13.5-11.98,15.09Z" fill="#605a31"/>
        <path d="M334.5,30.5c0,7.34-5.12,13.5-11.98,15.09h-1.52v.28c-.65,.09-1.32,.13-2,.13-8.55,0-15.5-6.95-15.5-15.5s6.95-15.5,15.5-15.5,15.5,6.96,15.5,15.5Z" fill="#fdff8b"/>
        <path d="M447.5,56.5c0,.55-.29,1.02-.73,1.28-.22,.14-.49,.22-.77,.22h-45c-.83,0-1.5-.67-1.5-1.5s.67-1.5,1.5-1.5h45c.83,0,1.5,.67,1.5,1.5Z" fill="#605a31"/>
        <path d="M393.5,56.5c0,.83-.67,1.5-1.5,1.5h-18c-.83,0-1.5-.67-1.5-1.5s.67-1.5,1.5-1.5h18c.83,0,1.5,.67,1.5,1.5Z" fill="#605a31"/>
        <path d="M366.5,56.5c0,.83-.67,1.5-1.5,1.5h-36c-.83,0-1.5-.67-1.5-1.5s.67-1.5,1.5-1.5h36c.83,0,1.5,.67,1.5,1.5Z" fill="#605a31"/>
        <path d="M403.5,82.5c0,1.38-1.12,2.5-2.5,2.5h-45c-.43,0-.84-.11-1.19-.3h-.01c-.78-.43-1.3-1.26-1.3-2.2,0-.69,.28-1.32,.74-1.78,.45-.44,1.07-.72,1.76-.72h45c1.38,0,2.5,1.12,2.5,2.5Z" fill="#605a31"/>
        <path d="M430.5,82.5c0,1.38-1.12,2.5-2.5,2.5h-18c-1.38,0-2.5-1.12-2.5-2.5s1.12-2.5,2.5-2.5h18c1.38,0,2.5,1.12,2.5,2.5Z" fill="#605a31"/>
        <path d="M347,85h-18c-1.38,0-2.5-1.12-2.5-2.5s1.12-2.5,2.5-2.5h18c1.38,0,2.5,1.12,2.5,2.5s-1.12,2.5-2.5,2.5Z" fill="#605a31"/>
        <path d="M475.5,82.5c0,1.38-1.12,2.5-2.5,2.5h-36c-1.38,0-2.5-1.12-2.5-2.5s1.12-2.5,2.5-2.5h36c1.38,0,2.5,1.12,2.5,2.5Z" fill="#605a31"/>
        <path d="M439.5,82.5c0,.85-.05,1.68-.16,2.5-1.23,10.13-9.88,18-20.34,18s-19.11-7.87-20.34-18c-.11-.82-.16-1.65-.16-2.5,0-1.38,1.12-2.5,2.5-2.5s2.5,1.12,2.5,2.5c0,8.55,6.95,15.5,15.5,15.5s15.5-6.95,15.5-15.5c0-1.38,1.12-2.5,2.5-2.5s2.5,1.12,2.5,2.5Z" fill="#605a31"/>
        <path d="M455,112c-1.38,0-2.5-1.12-2.5-2.5v-27c0-1.38,1.12-2.5,2.5-2.5s2.5,1.12,2.5,2.5v27c0,1.38-1.12,2.5-2.5,2.5Z" fill="#605a31"/>
        <path d="M383,112c-1.38,0-2.5-1.12-2.5-2.5v-27c0-1.38,1.12-2.5,2.5-2.5s2.5,1.12,2.5,2.5v27c0,1.38-1.12,2.5-2.5,2.5Z" fill="#605a31"/>
        <path d="M556.5,167v22h27v32h-27v24.5c0,1.38-1.12,2.5-2.5,2.5s-2.5-1.12-2.5-2.5v-29.5h27v-22h-27v-32h27v-22h-27v-29.5c0-1.38,1.12-2.5,2.5-2.5s2.5,1.12,2.5,2.5v24.5h27v32h-27Z" fill="#605a31"/>
        <path d="M556.5,243.16c-.82-.11-1.65-.16-2.5-.16s-1.68,.05-2.5,.16c-10.13,1.23-18,9.89-18,20.34,0,11.31,9.2,20.5,20.5,20.5s20.5-9.19,20.5-20.5c0-10.45-7.87-19.11-18-20.34Zm-2.5,35.84c-8.55,0-15.5-6.95-15.5-15.5s6.95-15.5,15.5-15.5,15.5,6.96,15.5,15.5-6.95,15.5-15.5,15.5Z" fill="#605a31"/>
        <path d="M556.5,233.1c-.82-.07-1.66-.1-2.5-.1s-1.68,.03-2.5,.1c-4.96,.41-9.58,2-13.59,4.5-1.35,.83-2.63,1.78-3.82,2.81-2.14,1.85-4.03,4-5.59,6.37-1.2,1.82-2.21,3.78-3,5.85-1.29,3.38-2,7.04-2,10.87,0,14.64,10.36,26.89,24.13,29.83,2.05,.44,4.19,.67,6.37,.67s4.32-.23,6.37-.67c13.77-2.94,24.13-15.19,24.13-29.83,0-15.98-12.34-29.12-28-30.4Zm-2.5,55.9c-14.06,0-25.5-11.44-25.5-25.5,0-13.22,10.11-24.12,23-25.38,.82-.08,1.66-.12,2.5-.12s1.68,.04,2.5,.12c12.89,1.26,23,12.16,23,25.38,0,14.06-11.44,25.5-25.5,25.5Z" fill="#605a31"/>
        <path d="M556.5,243.16c-.82-.11-1.65-.16-2.5-.16s-1.68,.05-2.5,.16c-10.13,1.23-18,9.89-18,20.34,0,11.31,9.2,20.5,20.5,20.5s20.5-9.19,20.5-20.5c0-10.45-7.87-19.11-18-20.34Zm-2.5,35.84c-8.55,0-15.5-6.95-15.5-15.5s6.95-15.5,15.5-15.5,15.5,6.96,15.5,15.5-6.95,15.5-15.5,15.5Z" fill="#605a31"/>
        <circle cx="554" cy="263.5" r="15.5" fill="#fdff8b"/>
        <path d="M551.5,121.11c-1.78-3.49-4.64-6.34-8.13-8.11-2.51-1.29-5.36-2.01-8.37-2.01s-5.86,.72-8.37,2.01c-6.02,3.05-10.15,9.3-10.15,16.5,0,6.74,3.62,12.65,9.02,15.89,.95,.57,1.95,1.06,3,1.45,1.75,.66,3.63,1.06,5.59,1.16,.3,.01,.6,.02,.91,.02,.99,0,1.96-.08,2.91-.23,5.94-.94,10.95-4.72,13.59-9.9,1.29-2.52,2.02-5.37,2.02-8.39s-.73-5.87-2.02-8.39Zm-16.5,23.87c-2.32,0-4.52-.51-6.5-1.44-1.07-.49-2.08-1.11-3-1.83-3.64-2.83-5.98-7.25-5.98-12.21,0-8.53,6.94-15.48,15.48-15.48s15.48,6.95,15.48,15.48-6.94,15.48-15.48,15.48Z" fill="#605a31"/>
        <path d="M535,117.06c-6.86,0-12.45,5.58-12.45,12.44,0,3.07,1.11,5.87,2.95,8.04,.86,1.01,1.87,1.88,3,2.58,1.89,1.16,4.12,1.83,6.5,1.83,6.86,0,12.45-5.58,12.45-12.45s-5.59-12.44-12.45-12.44Zm0,21.85c-5.19,0-9.41-4.22-9.41-9.41s4.22-9.41,9.41-9.41,9.41,4.22,9.41,9.41-4.22,9.41-9.41,9.41Z" fill="#605a31"/>
        <circle cx="535" cy="129.5" r="9.41" transform="translate(367.9 653.97) rotate(-85.93)" fill="#fdff8b"/>
        <rect x="534.09" y="146.5" width="3.82" height="94.66" fill="#605a31"/>
        <path d="M527,184c-.83,0-1.5-.67-1.5-1.5v-45c0-.83,.67-1.5,1.5-1.5s1.5,.67,1.5,1.5v45c0,.83-.67,1.5-1.5,1.5Z" fill="#605a31"/>
        <path d="M527,211c-.83,0-1.5-.67-1.5-1.5v-18c0-.83,.67-1.5,1.5-1.5s1.5,.67,1.5,1.5v18c0,.83-.67,1.5-1.5,1.5Z" fill="#605a31"/>
        <path d="M527,256c-.83,0-1.5-.67-1.5-1.5v-36c0-.83,.67-1.5,1.5-1.5s1.5,.67,1.5,1.5v36c0,.83-.67,1.5-1.5,1.5Z" fill="#605a31"/>
        <rect x="497.5" y="182.5" width="5" height="45" fill="#605a31"/>
        <path d="M500,176c-1.38,0-2.5-1.12-2.5-2.5v-18c0-1.38,1.12-2.5,2.5-2.5s2.5,1.12,2.5,2.5v18c0,1.38-1.12,2.5-2.5,2.5Z" fill="#605a31"/>
        <path d="M500,257c-1.38,0-2.5-1.12-2.5-2.5v-18c0-1.38,1.12-2.5,2.5-2.5s2.5,1.12,2.5,2.5v18c0,1.38-1.12,2.5-2.5,2.5Z" fill="#605a31"/>
        <path d="M500,149c-1.38,0-2.5-1.12-2.5-2.5v-36c0-1.38,1.12-2.5,2.5-2.5s2.5,1.12,2.5,2.5v36c0,1.38-1.12,2.5-2.5,2.5Z" fill="#605a31"/>
        <path d="M499,265c-1.38,0-2.5-1.12-2.5-2.5s1.12-2.5,2.5-2.5c3.27,0,6.4-1.01,9.04-2.91,4.04-2.91,6.46-7.62,6.46-12.59,0-8.55-6.95-15.5-15.5-15.5-1.38,0-2.5-1.12-2.5-2.5s1.12-2.5,2.5-2.5c11.3,0,20.5,9.2,20.5,20.5,0,6.58-3.19,12.8-8.54,16.65-3.5,2.52-7.64,3.85-11.96,3.85Z" fill="#605a31"/>
        <path d="M500,185c-11.3,0-20.5-9.2-20.5-20.5s9.2-20.5,20.5-20.5c1.38,0,2.5,1.12,2.5,2.5s-1.12,2.5-2.5,2.5c-8.55,0-15.5,6.95-15.5,15.5s6.95,15.5,15.5,15.5c1.38,0,2.5,1.12,2.5,2.5s-1.12,2.5-2.5,2.5Z" fill="#605a31"/>
        <path d="M500,131h-27c-1.38,0-2.5-1.12-2.5-2.5s1.12-2.5,2.5-2.5h27c1.38,0,2.5,1.12,2.5,2.5s-1.12,2.5-2.5,2.5Z" fill="#605a31"/>
        <path d="M500,203h-27c-1.38,0-2.5-1.12-2.5-2.5s1.12-2.5,2.5-2.5h27c1.38,0,2.5,1.12,2.5,2.5s-1.12,2.5-2.5,2.5Z" fill="#605a31"/>
        <path d="M500,279.66c-1.38,0-2.5-1.12-2.5-2.5v-13.66c0-1.38,1.12-2.5,2.5-2.5s2.5,1.12,2.5,2.5v13.66c0,1.38-1.12,2.5-2.5,2.5Z" fill="#605a31"/>
        <rect x="497.5" y="274.66" width="5" height="18.34" fill="#605a31"/>
        <path d="M359.5,83.5c0,.56-.19,1.09-.5,1.5-.46,.61-1.18,1-2,1-.94,0-1.77-.52-2.19-1.3h-.01c-.19-.36-.3-.77-.3-1.2,0-.95-.09-1.88-.26-2.78-1.3-7.22-7.64-12.72-15.24-12.72-8.55,0-15.5,6.96-15.5,15.5v2.5h-21c-1.38,0-2.5-1.12-2.5-2.5s1.12-2.5,2.5-2.5h16.15c1.24-10.13,9.89-18,20.35-18s18.54,7.36,20.19,17c.21,1.14,.31,2.31,.31,3.5Z" fill="#605a31"/>
        <rect x="290.5" y="81" width="14.5" height="5" fill="#605a31"/>
      </g>
      <g>
        <path d="M339.44,554.66c-.39-5.36-2.85-10.16-6.58-13.59-1.73-1.59-3.74-2.89-5.94-3.82-2.44-1.02-5.11-1.59-7.92-1.59-11.3,0-20.5,9.2-20.5,20.5s9.2,20.5,20.5,20.5c10.11,0,18.54-7.36,20.19-17,.21-1.14,.31-2.31,.31-3.5,0-.51-.02-1.01-.06-1.5Zm-20.44,17c-8.55,0-15.5-6.95-15.5-15.5s6.95-15.5,15.5-15.5c.68,0,1.35,.04,2,.13,.52,.07,1.03,.16,1.52,.28,6.86,1.59,11.98,7.75,11.98,15.09,0,8.55-6.95,15.5-15.5,15.5Z" fill="#605a31"/>
        <path d="M583.5,473.66v113h-113v-29.5c0-1.38,1.12-2.5,2.5-2.5s2.5,1.12,2.5,2.5v24.5h103v-103h-24.5c-1.38,0-2.5-1.12-2.5-2.5s1.12-2.5,2.5-2.5h29.5Z" fill="#605a31"/>
        <path d="M556.5,500.66v59h-59v-32h29.5c1.38,0,2.5,1.12,2.5,2.5s-1.12,2.5-2.5,2.5h-24.5v22h49v-49h-51.5c-1.38,0-2.5-1.12-2.5-2.5s1.12-2.5,2.5-2.5h56.5Z" fill="#605a31"/>
        <path d="M473.91,532.49c-.67-2.5-1.84-4.79-3.41-6.76-3.39-4.27-8.63-7.01-14.5-7.01-7.12,0-13.31,4.04-16.41,9.94-.5,.95-.92,1.96-1.26,3-.55,1.76-.85,3.63-.85,5.57v.02c0,1.31,.14,2.59,.4,3.82,1.34,6.31,5.9,11.45,11.87,13.59,1.95,.71,4.06,1.09,6.25,1.09s4.3-.38,6.25-1.09c7.15-2.57,12.27-9.41,12.27-17.43,0-1.64-.21-3.23-.61-4.74Zm-17.91,20.22c-8.54,0-15.48-6.94-15.48-15.48,0-1.96,.37-3.84,1.04-5.57,.41-1.06,.93-2.06,1.56-3,2.77-4.16,7.51-6.91,12.88-6.91,8.54,0,15.48,6.95,15.48,15.48s-6.94,15.48-15.48,15.48Z" fill="#605a31"/>
        <path d="M456,524.79c-3.65,0-6.95,1.58-9.22,4.1-.76,.83-1.4,1.76-1.9,2.77-.85,1.67-1.33,3.57-1.33,5.57,0,6.87,5.59,12.45,12.45,12.45s12.45-5.58,12.45-12.45-5.59-12.44-12.45-12.44Zm0,21.85c-5.19,0-9.41-4.22-9.41-9.41s4.22-9.41,9.41-9.41,9.41,4.22,9.41,9.41-4.22,9.41-9.41,9.41Z" fill="#605a31"/>
        <circle cx="456" cy="537.23" r="9.41" transform="translate(-50.72 47.55) rotate(-5.65)" fill="#fdff8b"/>
        <path d="M475.5,557.16c0,1.38-1.12,2.5-2.5,2.5h-24.5v27h-32v-27h-22v27h-32v-27h-24.5c-1.38,0-2.5-1.12-2.5-2.5s1.12-2.5,2.5-2.5h29.5v27h22v-27h32v27h22v-27h29.5c1.38,0,2.5,1.12,2.5,2.5Z" fill="#605a31"/>
        <rect x="321" y="537.25" width="117" height="3.82" fill="#605a31"/>
        <path d="M556.5,476.16c0,1.38-1.12,2.5-2.5,2.5h-78.5v51.5c0,1.06-.66,1.97-1.59,2.33-.28,.11-.59,.17-.91,.17-1.38,0-2.5-1.12-2.5-2.5v-56.5h83.5c1.38,0,2.5,1.12,2.5,2.5Z" fill="#605a31"/>
        <path d="M349.46,554.66c-.24-4.92-1.65-9.55-3.96-13.59-.77-1.34-1.63-2.62-2.58-3.82-1.67-2.11-3.61-3.99-5.77-5.59-1.54-1.15-3.2-2.16-4.96-3-3.99-1.92-8.47-3-13.19-3-11.52,0-21.56,6.42-26.75,15.86-1.11,2.01-1.99,4.16-2.62,6.41-.74,2.62-1.13,5.38-1.13,8.23s.39,5.61,1.13,8.23c.63,2.25,1.51,4.4,2.62,6.41,5.19,9.44,15.23,15.86,26.75,15.86,15.64,0,28.56-11.82,30.29-27,.14-1.15,.21-2.32,.21-3.5,0-.5-.01-1-.04-1.5Zm-30.46,27c-11.18,0-20.7-7.23-24.13-17.27-.89-2.58-1.37-5.35-1.37-8.23s.48-5.65,1.37-8.23c3.43-10.04,12.95-17.27,24.13-17.27,6.57,0,12.56,2.5,17.08,6.59,1.28,1.15,2.44,2.43,3.46,3.82,2.84,3.85,4.62,8.52,4.92,13.59,.03,.5,.04,1,.04,1.5,0,1.19-.08,2.36-.24,3.5-1.71,12.41-12.39,22-25.26,22Z" fill="#605a31"/>
        <path d="M339.44,554.66c-.39-5.36-2.85-10.16-6.58-13.59-1.73-1.59-3.74-2.89-5.94-3.82-2.44-1.02-5.11-1.59-7.92-1.59-11.3,0-20.5,9.2-20.5,20.5s9.2,20.5,20.5,20.5c10.11,0,18.54-7.36,20.19-17,.21-1.14,.31-2.31,.31-3.5,0-.51-.02-1.01-.06-1.5Zm-20.44,17c-8.55,0-15.5-6.95-15.5-15.5s6.95-15.5,15.5-15.5c.68,0,1.35,.04,2,.13,.52,.07,1.03,.16,1.52,.28,6.86,1.59,11.98,7.75,11.98,15.09,0,8.55-6.95,15.5-15.5,15.5Z" fill="#605a31"/>
        <path d="M334.5,556.16c0,8.55-6.95,15.5-15.5,15.5s-15.5-6.95-15.5-15.5,6.95-15.5,15.5-15.5c.68,0,1.35,.04,2,.13v.28h1.52c6.86,1.59,11.98,7.75,11.98,15.09Z" fill="#fdff8b"/>
        <path d="M447.5,530.16c0,.83-.67,1.5-1.5,1.5h-45c-.83,0-1.5-.67-1.5-1.5s.67-1.5,1.5-1.5h45c.29,0,.56,.08,.78,.23,.43,.25,.72,.73,.72,1.27Z" fill="#605a31"/>
        <path d="M393.5,530.16c0,.83-.67,1.5-1.5,1.5h-18c-.83,0-1.5-.67-1.5-1.5s.67-1.5,1.5-1.5h18c.83,0,1.5,.67,1.5,1.5Z" fill="#605a31"/>
        <path d="M366.5,530.16c0,.83-.67,1.5-1.5,1.5h-36c-.83,0-1.5-.67-1.5-1.5s.67-1.5,1.5-1.5h36c.83,0,1.5,.67,1.5,1.5Z" fill="#605a31"/>
        <path d="M403.5,504.16c0,1.38-1.12,2.5-2.5,2.5h-45c-.69,0-1.31-.28-1.76-.72-.46-.46-.74-1.09-.74-1.78,0-.94,.52-1.77,1.3-2.19h.01c.35-.2,.76-.31,1.19-.31h45c1.38,0,2.5,1.12,2.5,2.5Z" fill="#605a31"/>
        <path d="M430.5,504.16c0,1.38-1.12,2.5-2.5,2.5h-18c-1.38,0-2.5-1.12-2.5-2.5s1.12-2.5,2.5-2.5h18c1.38,0,2.5,1.12,2.5,2.5Z" fill="#605a31"/>
        <path d="M347,506.66h-18c-1.38,0-2.5-1.12-2.5-2.5s1.12-2.5,2.5-2.5h18c1.38,0,2.5,1.12,2.5,2.5s-1.12,2.5-2.5,2.5Z" fill="#605a31"/>
        <path d="M475.5,504.16c0,1.38-1.12,2.5-2.5,2.5h-36c-1.38,0-2.5-1.12-2.5-2.5s1.12-2.5,2.5-2.5h36c1.38,0,2.5,1.12,2.5,2.5Z" fill="#605a31"/>
        <path d="M439.5,504.16c0,1.38-1.12,2.5-2.5,2.5s-2.5-1.12-2.5-2.5c0-8.55-6.95-15.5-15.5-15.5s-15.5,6.95-15.5,15.5c0,1.38-1.12,2.5-2.5,2.5s-2.5-1.12-2.5-2.5c0-.85,.05-1.68,.16-2.5,1.23-10.13,9.89-18,20.34-18s19.11,7.87,20.34,18c.11,.82,.16,1.65,.16,2.5Z" fill="#605a31"/>
        <path d="M455,506.66c-1.38,0-2.5-1.12-2.5-2.5v-27c0-1.38,1.12-2.5,2.5-2.5s2.5,1.12,2.5,2.5v27c0,1.38-1.12,2.5-2.5,2.5Z" fill="#605a31"/>
        <path d="M383,506.66c-1.38,0-2.5-1.12-2.5-2.5v-27c0-1.38,1.12-2.5,2.5-2.5s2.5,1.12,2.5,2.5v27c0,1.38-1.12,2.5-2.5,2.5Z" fill="#605a31"/>
        <path d="M556.5,397.66v22h27v32h-27v24.5c0,1.38-1.12,2.5-2.5,2.5s-2.5-1.12-2.5-2.5v-29.5h27v-22h-27v-32h27v-22h-27v-29.5c0-1.38,1.12-2.5,2.5-2.5s2.5,1.12,2.5,2.5v24.5h27v32h-27Z" fill="#605a31"/>
        <path d="M554,302.66c-11.3,0-20.5,9.2-20.5,20.5,0,10.45,7.87,19.11,18,20.34,.82,.11,1.65,.16,2.5,.16s1.68-.05,2.5-.16c10.13-1.23,18-9.89,18-20.34,0-11.3-9.2-20.5-20.5-20.5Zm0,36c-8.55,0-15.5-6.95-15.5-15.5s6.95-15.5,15.5-15.5,15.5,6.95,15.5,15.5-6.95,15.5-15.5,15.5Z" fill="#605a31"/>
        <path d="M560.37,293.33c-2.05-.44-4.19-.67-6.37-.67s-4.32,.23-6.37,.67c-13.77,2.94-24.13,15.19-24.13,29.83,0,3.83,.71,7.49,2,10.87,.79,2.07,1.8,4.03,3,5.85,1.56,2.37,3.45,4.52,5.59,6.37,1.19,1.03,2.47,1.98,3.82,2.81,4.01,2.5,8.63,4.09,13.59,4.5,.82,.07,1.66,.1,2.5,.1s1.68-.03,2.5-.1c15.66-1.28,28-14.42,28-30.4,0-14.64-10.36-26.89-24.13-29.83Zm-3.87,55.21c-.82,.08-1.66,.12-2.5,.12s-1.68-.04-2.5-.12c-12.89-1.26-23-12.16-23-25.38,0-14.06,11.44-25.5,25.5-25.5s25.5,11.44,25.5,25.5c0,13.22-10.11,24.12-23,25.38Z" fill="#605a31"/>
        <path d="M554,302.66c-11.3,0-20.5,9.2-20.5,20.5,0,10.45,7.87,19.11,18,20.34,.82,.11,1.65,.16,2.5,.16s1.68-.05,2.5-.16c10.13-1.23,18-9.89,18-20.34,0-11.3-9.2-20.5-20.5-20.5Zm0,36c-8.55,0-15.5-6.95-15.5-15.5s6.95-15.5,15.5-15.5,15.5,6.95,15.5,15.5-6.95,15.5-15.5,15.5Z" fill="#605a31"/>
        <circle cx="554" cy="323.16" r="15.5" fill="#fdff8b"/>
        <path d="M551.5,448.77c-2.64-5.18-7.65-8.96-13.59-9.9-.95-.15-1.92-.23-2.91-.23-.31,0-.61,.01-.91,.02-1.96,.1-3.84,.5-5.59,1.17-1.05,.38-2.05,.87-3,1.44-5.4,3.24-9.02,9.15-9.02,15.89,0,7.19,4.12,13.44,10.13,16.5,2.52,1.29,5.37,2.02,8.39,2.02s5.87-.73,8.39-2.02c3.49-1.77,6.34-4.62,8.11-8.11,1.29-2.52,2.02-5.37,2.02-8.39s-.73-5.87-2.02-8.39Zm-16.5,23.87c-8.54,0-15.48-6.94-15.48-15.48,0-4.96,2.34-9.38,5.98-12.21,.92-.72,1.93-1.34,3-1.83,1.98-.93,4.18-1.44,6.5-1.44,8.54,0,15.48,6.94,15.48,15.48s-6.94,15.48-15.48,15.48Z" fill="#605a31"/>
        <path d="M535,444.71c-2.38,0-4.61,.67-6.5,1.84-1.13,.69-2.15,1.57-3,2.58-1.84,2.17-2.95,4.97-2.95,8.03,0,6.86,5.59,12.45,12.45,12.45s12.45-5.59,12.45-12.45-5.59-12.45-12.45-12.45Zm0,21.86c-5.19,0-9.41-4.22-9.41-9.41s4.22-9.41,9.41-9.41,9.41,4.22,9.41,9.41-4.22,9.41-9.41,9.41Z" fill="#605a31"/>
        <circle cx="535" cy="457.16" r="9.41" transform="translate(-42.44 54.94) rotate(-5.65)" fill="#fdff8b"/>
        <rect x="534.09" y="345.5" width="3.82" height="94.66" fill="#605a31"/>
        <path d="M527,450.66c-.83,0-1.5-.67-1.5-1.5v-45c0-.83,.67-1.5,1.5-1.5s1.5,.67,1.5,1.5v45c0,.83-.67,1.5-1.5,1.5Z" fill="#605a31"/>
        <path d="M527,396.66c-.83,0-1.5-.67-1.5-1.5v-18c0-.83,.67-1.5,1.5-1.5s1.5,.67,1.5,1.5v18c0,.83-.67,1.5-1.5,1.5Z" fill="#605a31"/>
        <path d="M527,369.66c-.83,0-1.5-.67-1.5-1.5v-36c0-.83,.67-1.5,1.5-1.5s1.5,.67,1.5,1.5v36c0,.83-.67,1.5-1.5,1.5Z" fill="#605a31"/>
        <rect x="497.5" y="359.16" width="5" height="45" fill="#605a31"/>
        <path d="M500,433.66c-1.38,0-2.5-1.12-2.5-2.5v-18c0-1.38,1.12-2.5,2.5-2.5s2.5,1.12,2.5,2.5v18c0,1.38-1.12,2.5-2.5,2.5Z" fill="#605a31"/>
        <path d="M500,352.66c-1.38,0-2.5-1.12-2.5-2.5v-18c0-1.38,1.12-2.5,2.5-2.5s2.5,1.12,2.5,2.5v18c0,1.38-1.12,2.5-2.5,2.5Z" fill="#605a31"/>
        <path d="M500,478.66c-1.38,0-2.5-1.12-2.5-2.5v-36c0-1.38,1.12-2.5,2.5-2.5s2.5,1.12,2.5,2.5v36c0,1.38-1.12,2.5-2.5,2.5Z" fill="#605a31"/>
        <path d="M499,362.66c-1.38,0-2.5-1.12-2.5-2.5s1.12-2.5,2.5-2.5c8.55,0,15.5-6.95,15.5-15.5,0-4.97-2.42-9.68-6.46-12.59-2.64-1.9-5.77-2.91-9.04-2.91-1.38,0-2.5-1.12-2.5-2.5s1.12-2.5,2.5-2.5c4.32,0,8.46,1.33,11.96,3.85,5.35,3.85,8.54,10.07,8.54,16.65,0,11.3-9.2,20.5-20.5,20.5Z" fill="#605a31"/>
        <path d="M500,442.66c-11.3,0-20.5-9.2-20.5-20.5s9.2-20.5,20.5-20.5c1.38,0,2.5,1.12,2.5,2.5s-1.12,2.5-2.5,2.5c-8.55,0-15.5,6.95-15.5,15.5s6.95,15.5,15.5,15.5c1.38,0,2.5,1.12,2.5,2.5s-1.12,2.5-2.5,2.5Z" fill="#605a31"/>
        <path d="M500,460.66h-27c-1.38,0-2.5-1.12-2.5-2.5s1.12-2.5,2.5-2.5h27c1.38,0,2.5,1.12,2.5,2.5s-1.12,2.5-2.5,2.5Z" fill="#605a31"/>
        <path d="M500,388.66h-27c-1.38,0-2.5-1.12-2.5-2.5s1.12-2.5,2.5-2.5h27c1.38,0,2.5,1.12,2.5,2.5s-1.12,2.5-2.5,2.5Z" fill="#605a31"/>
        <path d="M500,325.66c-1.38,0-2.5-1.12-2.5-2.5v-13.66c0-1.38,1.12-2.5,2.5-2.5s2.5,1.12,2.5,2.5v13.66c0,1.38-1.12,2.5-2.5,2.5Z" fill="#605a31"/>
        <rect x="497.5" y="293.66" width="5" height="18.34" fill="#605a31"/>
        <path d="M359.5,503.16c0,1.19-.1,2.36-.31,3.5-1.65,9.64-10.08,17-20.19,17s-19.11-7.87-20.35-18h-16.15c-1.38,0-2.5-1.12-2.5-2.5s1.12-2.5,2.5-2.5h21v2.5c0,8.55,6.95,15.5,15.5,15.5,7.6,0,13.94-5.49,15.24-12.72,.17-.9,.26-1.83,.26-2.78,0-.43,.11-.84,.3-1.19h.01c.42-.79,1.25-1.31,2.19-1.31,.82,0,1.54,.39,2,1,.31,.41,.5,.94,.5,1.5Z" fill="#605a31"/>
        <rect x="290.5" y="500.66" width="14.5" height="5" fill="#605a31"/>
      </g>
    </g>
    <g>
      <g>
        <path d="M265.5,10c-10.11,0-18.54,7.36-20.19,17-.21,1.14-.31,2.31-.31,3.5,0,.51,.02,1.01,.06,1.5,.38,5.37,2.85,10.16,6.58,13.59,1.73,1.59,3.74,2.89,5.94,3.82,2.44,1.02,5.11,1.59,7.92,1.59,11.3,0,20.5-9.19,20.5-20.5s-9.2-20.5-20.5-20.5Zm0,36c-.68,0-1.35-.04-2-.13-.52-.07-1.03-.16-1.52-.28-6.86-1.59-11.98-7.75-11.98-15.09,0-8.54,6.95-15.5,15.5-15.5s15.5,6.96,15.5,15.5-6.95,15.5-15.5,15.5Z" fill="#605a31"/>
        <path d="M114,0V29.5c0,1.38-1.12,2.5-2.5,2.5s-2.5-1.12-2.5-2.5V5H6V108H30.5c1.38,0,2.5,1.12,2.5,2.5s-1.12,2.5-2.5,2.5H1V0H114Z" fill="#605a31"/>
        <path d="M82,54v-22H33v49h51.5c1.38,0,2.5,1.12,2.5,2.5s-1.12,2.5-2.5,2.5H28V27h59v32h-29.5c-1.38,0-2.5-1.12-2.5-2.5s1.12-2.5,2.5-2.5h24.5Z" fill="#605a31"/>
        <path d="M146.62,45.59c-1.34-6.31-5.9-11.45-11.87-13.59-1.95-.71-4.06-1.09-6.25-1.09s-4.3,.38-6.25,1.09c-7.15,2.57-12.27,9.41-12.27,17.43,0,1.64,.21,3.23,.61,4.74,.67,2.5,1.84,4.79,3.41,6.76,3.39,4.27,8.63,7.02,14.5,7.02,7.12,0,13.31-4.04,16.41-9.95,.5-.95,.92-1.96,1.26-3,.55-1.76,.85-3.63,.85-5.57v-.02c0-1.31-.14-2.59-.4-3.82Zm-5.24,12.41c-2.77,4.16-7.51,6.91-12.88,6.91-8.54,0-15.48-6.94-15.48-15.48s6.94-15.48,15.48-15.48,15.48,6.94,15.48,15.48c0,1.96-.37,3.84-1.04,5.57-.41,1.06-.93,2.07-1.56,3Z" fill="#605a31"/>
        <path d="M128.5,61.88c-6.86,0-12.45-5.58-12.45-12.45s5.58-12.45,12.45-12.45,12.45,5.58,12.45,12.45-5.58,12.45-12.45,12.45Zm0-21.86c-5.19,0-9.41,4.22-9.41,9.41s4.22,9.41,9.41,9.41,9.41-4.22,9.41-9.41-4.22-9.41-9.41-9.41Z" fill="#605a31"/>
        <path d="M249,29.5c0,1.38-1.12,2.5-2.5,2.5h-29.5V5h-22v27h-32V5h-22v27h-29.5c-1.38,0-2.5-1.12-2.5-2.5s1.12-2.5,2.5-2.5h24.5V0h32V27h22V0h32V27h24.5c1.38,0,2.5,1.12,2.5,2.5Z" fill="#605a31"/>
        <rect x="146.5" y="45.59" width="117" height="3.82" fill="#605a31"/>
        <path d="M114,56.5v56.5H30.5c-1.38,0-2.5-1.12-2.5-2.5s1.12-2.5,2.5-2.5H109V56.5c0-1.06,.66-1.97,1.59-2.33,.28-.11,.59-.17,.91-.17,1.38,0,2.5,1.12,2.5,2.5Z" fill="#605a31"/>
        <path d="M294.87,22.27c-.63-2.25-1.51-4.4-2.62-6.41-5.19-9.44-15.23-15.86-26.75-15.86-15.64,0-28.56,11.82-30.29,27-.14,1.15-.21,2.32-.21,3.5,0,.5,.01,1,.04,1.5,.24,4.92,1.65,9.55,3.97,13.59,.76,1.34,1.62,2.62,2.57,3.82,1.67,2.11,3.61,3.99,5.77,5.59,1.54,1.15,3.2,2.16,4.96,3,3.99,1.92,8.47,3,13.19,3,11.52,0,21.56-6.42,26.75-15.86,1.11-2.01,1.99-4.16,2.62-6.41,.74-2.62,1.13-5.38,1.13-8.23s-.39-5.61-1.13-8.23Zm-29.37,33.73c-6.57,0-12.56-2.5-17.08-6.59-1.28-1.15-2.44-2.43-3.46-3.82-2.84-3.85-4.62-8.52-4.92-13.59-.03-.5-.04-1-.04-1.5,0-1.19,.08-2.36,.24-3.5,1.71-12.41,12.39-22,25.26-22,11.18,0,20.7,7.23,24.13,17.27,.89,2.58,1.37,5.35,1.37,8.23s-.48,5.65-1.37,8.23c-3.43,10.04-12.95,17.27-24.13,17.27Z" fill="#605a31"/>
        <path d="M265.5,10c-10.11,0-18.54,7.36-20.19,17-.21,1.14-.31,2.31-.31,3.5,0,.51,.02,1.01,.06,1.5,.38,5.37,2.85,10.16,6.58,13.59,1.73,1.59,3.74,2.89,5.94,3.82,2.44,1.02,5.11,1.59,7.92,1.59,11.3,0,20.5-9.19,20.5-20.5s-9.2-20.5-20.5-20.5Zm0,36c-.68,0-1.35-.04-2-.13-.52-.07-1.03-.16-1.52-.28-6.86-1.59-11.98-7.75-11.98-15.09,0-8.54,6.95-15.5,15.5-15.5s15.5,6.96,15.5,15.5-6.95,15.5-15.5,15.5Z" fill="#605a31"/>
        <path d="M281,30.5c0,8.55-6.95,15.5-15.5,15.5-.68,0-1.35-.04-2-.13v-.28h-1.52c-6.86-1.59-11.98-7.75-11.98-15.09,0-8.54,6.95-15.5,15.5-15.5s15.5,6.96,15.5,15.5Z" fill="#fdff8b"/>
        <path d="M185,56.5c0,.83-.67,1.5-1.5,1.5h-45c-.29,0-.56-.08-.78-.23-.43-.25-.72-.73-.72-1.27,0-.83,.67-1.5,1.5-1.5h45c.83,0,1.5,.67,1.5,1.5Z" fill="#605a31"/>
        <path d="M212,56.5c0,.83-.67,1.5-1.5,1.5h-18c-.83,0-1.5-.67-1.5-1.5s.67-1.5,1.5-1.5h18c.83,0,1.5,.67,1.5,1.5Z" fill="#605a31"/>
        <path d="M257,56.5c0,.83-.67,1.5-1.5,1.5h-36c-.83,0-1.5-.67-1.5-1.5s.67-1.5,1.5-1.5h36c.83,0,1.5,.67,1.5,1.5Z" fill="#605a31"/>
        <path d="M231,82.5c0,.94-.52,1.77-1.3,2.19h-.01c-.35,.2-.76,.31-1.19,.31h-45c-1.38,0-2.5-1.12-2.5-2.5s1.12-2.5,2.5-2.5h45c.69,0,1.31,.28,1.76,.72,.46,.46,.74,1.09,.74,1.78Z" fill="#605a31"/>
        <path d="M177,82.5c0,1.38-1.12,2.5-2.5,2.5h-18c-1.38,0-2.5-1.12-2.5-2.5s1.12-2.5,2.5-2.5h18c1.38,0,2.5,1.12,2.5,2.5Z" fill="#605a31"/>
        <path d="M255.5,85h-18c-1.38,0-2.5-1.12-2.5-2.5s1.12-2.5,2.5-2.5h18c1.38,0,2.5,1.12,2.5,2.5s-1.12,2.5-2.5,2.5Z" fill="#605a31"/>
        <path d="M150,82.5c0,1.38-1.12,2.5-2.5,2.5h-36c-1.38,0-2.5-1.12-2.5-2.5s1.12-2.5,2.5-2.5h36c1.38,0,2.5,1.12,2.5,2.5Z" fill="#605a31"/>
        <path d="M186,82.5c0,.85-.05,1.68-.16,2.5-1.23,10.13-9.88,18-20.34,18s-19.11-7.87-20.34-18c-.11-.82-.16-1.65-.16-2.5,0-1.38,1.12-2.5,2.5-2.5s2.5,1.12,2.5,2.5c0,8.55,6.95,15.5,15.5,15.5s15.5-6.95,15.5-15.5c0-1.38,1.12-2.5,2.5-2.5s2.5,1.12,2.5,2.5Z" fill="#605a31"/>
        <path d="M129.5,112c-1.38,0-2.5-1.12-2.5-2.5v-27c0-1.38,1.12-2.5,2.5-2.5s2.5,1.12,2.5,2.5v27c0,1.38-1.12,2.5-2.5,2.5Z" fill="#605a31"/>
        <path d="M201.5,112c-1.38,0-2.5-1.12-2.5-2.5v-27c0-1.38,1.12-2.5,2.5-2.5s2.5,1.12,2.5,2.5v27c0,1.38-1.12,2.5-2.5,2.5Z" fill="#605a31"/>
        <path d="M33,110.5v29.5H6v22h27v32H6v22h27v29.5c0,1.38-1.12,2.5-2.5,2.5s-2.5-1.12-2.5-2.5v-24.5H1v-32H28v-22H1v-32H28v-24.5c0-1.38,1.12-2.5,2.5-2.5s2.5,1.12,2.5,2.5Z" fill="#605a31"/>
        <path d="M33,243.16c-.82-.11-1.65-.16-2.5-.16s-1.68,.05-2.5,.16c-10.13,1.23-18,9.89-18,20.34,0,11.31,9.2,20.5,20.5,20.5s20.5-9.19,20.5-20.5c0-10.45-7.87-19.11-18-20.34Zm-2.5,35.84c-8.55,0-15.5-6.95-15.5-15.5s6.95-15.5,15.5-15.5,15.5,6.96,15.5,15.5-6.95,15.5-15.5,15.5Z" fill="#605a31"/>
        <path d="M59,252.63c-.79-2.07-1.8-4.03-3-5.85-1.56-2.37-3.45-4.52-5.59-6.37-1.19-1.03-2.47-1.98-3.82-2.81-4.01-2.5-8.63-4.09-13.59-4.5-.82-.07-1.66-.1-2.5-.1s-1.68,.03-2.5,.1c-15.66,1.28-28,14.42-28,30.4,0,14.64,10.36,26.89,24.13,29.83,2.05,.44,4.19,.67,6.37,.67s4.32-.23,6.37-.67c13.77-2.94,24.13-15.19,24.13-29.83,0-3.83-.71-7.49-2-10.87Zm-28.5,36.37c-14.06,0-25.5-11.44-25.5-25.5,0-13.22,10.11-24.12,23-25.38,.82-.08,1.66-.12,2.5-.12s1.68,.04,2.5,.12c12.89,1.26,23,12.16,23,25.38,0,14.06-11.44,25.5-25.5,25.5Z" fill="#605a31"/>
        <path d="M33,243.16c-.82-.11-1.65-.16-2.5-.16s-1.68,.05-2.5,.16c-10.13,1.23-18,9.89-18,20.34,0,11.31,9.2,20.5,20.5,20.5s20.5-9.19,20.5-20.5c0-10.45-7.87-19.11-18-20.34Zm-2.5,35.84c-8.55,0-15.5-6.95-15.5-15.5s6.95-15.5,15.5-15.5,15.5,6.96,15.5,15.5-6.95,15.5-15.5,15.5Z" fill="#605a31"/>
        <circle cx="30.5" cy="263.5" r="15.5" fill="#fdff8b"/>
        <path d="M57.87,113c-2.51-1.29-5.36-2.01-8.37-2.01s-5.86,.72-8.37,2.01c-3.49,1.77-6.35,4.62-8.13,8.11-1.29,2.52-2.02,5.37-2.02,8.39s.73,5.87,2.02,8.39c2.64,5.18,7.65,8.96,13.59,9.9,.95,.15,1.92,.23,2.91,.23,.31,0,.61-.01,.91-.02,1.96-.1,3.84-.5,5.59-1.16,1.05-.39,2.05-.88,3-1.45,5.4-3.24,9.02-9.15,9.02-15.89,0-7.2-4.13-13.45-10.15-16.5Zm1.13,28.71c-.92,.72-1.93,1.34-3,1.83-1.98,.93-4.18,1.44-6.5,1.44-8.54,0-15.48-6.94-15.48-15.48s6.94-15.48,15.48-15.48,15.48,6.95,15.48,15.48c0,4.96-2.34,9.38-5.98,12.21Z" fill="#605a31"/>
        <path d="M49.5,117.06c-6.86,0-12.45,5.58-12.45,12.44s5.59,12.45,12.45,12.45c2.38,0,4.61-.67,6.5-1.83,1.13-.7,2.14-1.57,3-2.58,1.84-2.17,2.95-4.97,2.95-8.04,0-6.86-5.59-12.44-12.45-12.44Zm0,21.85c-5.19,0-9.41-4.22-9.41-9.41s4.22-9.41,9.41-9.41,9.41,4.22,9.41,9.41-4.22,9.41-9.41,9.41Z" fill="#605a31"/>
        <circle cx="49.5" cy="129.5" r="9.41" transform="translate(-86.26 157.62) rotate(-80.78)" fill="#fdff8b"/>
        <rect x="46.59" y="146.5" width="3.82" height="94.66" fill="#605a31"/>
        <path d="M57.5,184c-.83,0-1.5-.67-1.5-1.5v-45c0-.83,.67-1.5,1.5-1.5s1.5,.67,1.5,1.5v45c0,.83-.67,1.5-1.5,1.5Z" fill="#605a31"/>
        <path d="M57.5,211c-.83,0-1.5-.67-1.5-1.5v-18c0-.83,.67-1.5,1.5-1.5s1.5,.67,1.5,1.5v18c0,.83-.67,1.5-1.5,1.5Z" fill="#605a31"/>
        <path d="M57.5,256c-.83,0-1.5-.67-1.5-1.5v-36c0-.83,.67-1.5,1.5-1.5s1.5,.67,1.5,1.5v36c0,.83-.67,1.5-1.5,1.5Z" fill="#605a31"/>
        <rect x="82" y="182.5" width="5" height="45" fill="#605a31"/>
        <path d="M84.5,176c-1.38,0-2.5-1.12-2.5-2.5v-18c0-1.38,1.12-2.5,2.5-2.5s2.5,1.12,2.5,2.5v18c0,1.38-1.12,2.5-2.5,2.5Z" fill="#605a31"/>
        <path d="M84.5,257c-1.38,0-2.5-1.12-2.5-2.5v-18c0-1.38,1.12-2.5,2.5-2.5s2.5,1.12,2.5,2.5v18c0,1.38-1.12,2.5-2.5,2.5Z" fill="#605a31"/>
        <path d="M84.5,149c-1.38,0-2.5-1.12-2.5-2.5v-36c0-1.38,1.12-2.5,2.5-2.5s2.5,1.12,2.5,2.5v36c0,1.38-1.12,2.5-2.5,2.5Z" fill="#605a31"/>
        <path d="M85.5,265c-4.32,0-8.46-1.33-11.96-3.85-5.35-3.85-8.54-10.07-8.54-16.65,0-11.3,9.2-20.5,20.5-20.5,1.38,0,2.5,1.12,2.5,2.5s-1.12,2.5-2.5,2.5c-8.55,0-15.5,6.95-15.5,15.5,0,4.98,2.41,9.68,6.46,12.59,2.64,1.9,5.77,2.91,9.04,2.91,1.38,0,2.5,1.12,2.5,2.5s-1.12,2.5-2.5,2.5Z" fill="#605a31"/>
        <path d="M84.5,185c-1.38,0-2.5-1.12-2.5-2.5s1.12-2.5,2.5-2.5c8.55,0,15.5-6.95,15.5-15.5s-6.95-15.5-15.5-15.5c-1.38,0-2.5-1.12-2.5-2.5s1.12-2.5,2.5-2.5c11.3,0,20.5,9.2,20.5,20.5s-9.2,20.5-20.5,20.5Z" fill="#605a31"/>
        <path d="M111.5,131h-27c-1.38,0-2.5-1.12-2.5-2.5s1.12-2.5,2.5-2.5h27c1.38,0,2.5,1.12,2.5,2.5s-1.12,2.5-2.5,2.5Z" fill="#605a31"/>
        <path d="M111.5,203h-27c-1.38,0-2.5-1.12-2.5-2.5s1.12-2.5,2.5-2.5h27c1.38,0,2.5,1.12,2.5,2.5s-1.12,2.5-2.5,2.5Z" fill="#605a31"/>
        <path d="M84.5,279.66c-1.38,0-2.5-1.12-2.5-2.5v-13.66c0-1.38,1.12-2.5,2.5-2.5s2.5,1.12,2.5,2.5v13.66c0,1.38-1.12,2.5-2.5,2.5Z" fill="#605a31"/>
        <rect x="82" y="274.66" width="5" height="18.34" fill="#605a31"/>
        <path d="M284.5,83.5c0,1.38-1.12,2.5-2.5,2.5h-21v-2.5c0-8.54-6.95-15.5-15.5-15.5-7.6,0-13.94,5.5-15.24,12.72-.17,.9-.26,1.83-.26,2.78,0,.43-.11,.84-.3,1.19h-.01c-.42,.79-1.25,1.31-2.19,1.31-.82,0-1.54-.39-2-1-.31-.41-.5-.94-.5-1.5,0-1.19,.1-2.36,.31-3.5,1.65-9.64,10.07-17,20.19-17s19.11,7.87,20.35,18h16.15c1.38,0,2.5,1.12,2.5,2.5Z" fill="#605a31"/>
        <rect x="279.5" y="81" width="14.5" height="5" fill="#605a31"/>
      </g>
      <g>
        <path d="M265.5,535.66c-2.81,0-5.48,.57-7.92,1.59-2.2,.93-4.21,2.23-5.94,3.82-3.73,3.43-6.19,8.23-6.58,13.59-.04,.49-.06,.99-.06,1.5,0,1.19,.1,2.36,.31,3.5,1.65,9.64,10.08,17,20.19,17,11.3,0,20.5-9.2,20.5-20.5s-9.2-20.5-20.5-20.5Zm0,36c-8.55,0-15.5-6.95-15.5-15.5,0-7.34,5.12-13.5,11.98-15.09,.49-.12,1-.21,1.52-.28,.65-.09,1.32-.13,2-.13,8.55,0,15.5,6.95,15.5,15.5s-6.95,15.5-15.5,15.5Z" fill="#605a31"/>
        <path d="M114,557.16v29.5H1v-113H30.5c1.38,0,2.5,1.12,2.5,2.5s-1.12,2.5-2.5,2.5H6v103H109v-24.5c0-1.38,1.12-2.5,2.5-2.5s2.5,1.12,2.5,2.5Z" fill="#605a31"/>
        <path d="M57.5,527.66h29.5v32H28v-59h56.5c1.38,0,2.5,1.12,2.5,2.5s-1.12,2.5-2.5,2.5H33v49h49v-22h-24.5c-1.38,0-2.5-1.12-2.5-2.5s1.12-2.5,2.5-2.5Z" fill="#605a31"/>
        <path d="M146.17,531.66c-.34-1.04-.76-2.05-1.26-3-3.1-5.9-9.29-9.94-16.41-9.94-5.87,0-11.11,2.74-14.5,7.01-1.57,1.97-2.74,4.26-3.41,6.76-.4,1.51-.61,3.1-.61,4.74,0,8.02,5.12,14.86,12.27,17.43,1.95,.71,4.06,1.09,6.25,1.09s4.3-.38,6.25-1.09c5.97-2.14,10.53-7.28,11.87-13.59,.26-1.23,.4-2.51,.4-3.82v-.02c0-1.94-.3-3.81-.85-5.57Zm-17.67,21.05c-8.54,0-15.48-6.94-15.48-15.48s6.94-15.48,15.48-15.48c5.37,0,10.11,2.75,12.88,6.91,.63,.94,1.15,1.94,1.56,3,.67,1.73,1.04,3.61,1.04,5.57,0,8.54-6.94,15.48-15.48,15.48Z" fill="#605a31"/>
        <path d="M139.61,531.66c-.5-1.01-1.14-1.94-1.89-2.77-2.28-2.52-5.57-4.1-9.22-4.1-6.86,0-12.45,5.58-12.45,12.44s5.59,12.45,12.45,12.45,12.44-5.58,12.44-12.45c0-2-.48-3.9-1.33-5.57Zm-11.11,14.98c-5.19,0-9.41-4.22-9.41-9.41s4.22-9.41,9.41-9.41,9.41,4.22,9.41,9.41-4.22,9.41-9.41,9.41Z" fill="#605a31"/>
        <circle cx="128.5" cy="537.23" r="9.41" transform="translate(-195.81 90.07) rotate(-22.5)" fill="#fdff8b"/>
        <path d="M249,557.16c0,1.38-1.12,2.5-2.5,2.5h-24.5v27h-32v-27h-22v27h-32v-27h-24.5c-1.38,0-2.5-1.12-2.5-2.5s1.12-2.5,2.5-2.5h29.5v27h22v-27h32v27h22v-27h29.5c1.38,0,2.5,1.12,2.5,2.5Z" fill="#605a31"/>
        <rect x="146.5" y="537.25" width="117" height="3.82" fill="#605a31"/>
        <path d="M114,473.66v56.5c0,1.38-1.12,2.5-2.5,2.5-.32,0-.63-.06-.91-.17-.93-.36-1.59-1.27-1.59-2.33v-51.5H30.5c-1.38,0-2.5-1.12-2.5-2.5s1.12-2.5,2.5-2.5H114Z" fill="#605a31"/>
        <path d="M294.87,547.93c-.63-2.25-1.51-4.4-2.62-6.41-5.19-9.44-15.23-15.86-26.75-15.86-4.72,0-9.2,1.08-13.19,3-1.76,.84-3.42,1.85-4.96,3-2.16,1.6-4.1,3.48-5.77,5.59-.95,1.2-1.81,2.48-2.57,3.82-2.32,4.04-3.73,8.67-3.97,13.59-.03,.5-.04,1-.04,1.5,0,1.18,.07,2.35,.21,3.5,1.73,15.18,14.65,27,30.29,27,11.52,0,21.56-6.42,26.75-15.86,1.11-2.01,1.99-4.16,2.62-6.41,.74-2.62,1.13-5.38,1.13-8.23s-.39-5.61-1.13-8.23Zm-29.37,33.73c-12.87,0-23.55-9.59-25.26-22-.16-1.14-.24-2.31-.24-3.5,0-.5,.01-1,.04-1.5,.3-5.07,2.08-9.74,4.92-13.59,1.02-1.39,2.18-2.67,3.46-3.82,4.52-4.09,10.51-6.59,17.08-6.59,11.18,0,20.7,7.23,24.13,17.27,.89,2.58,1.37,5.35,1.37,8.23s-.48,5.65-1.37,8.23c-3.43,10.04-12.95,17.27-24.13,17.27Z" fill="#605a31"/>
        <path d="M265.5,535.66c-2.81,0-5.48,.57-7.92,1.59-2.2,.93-4.21,2.23-5.94,3.82-3.73,3.43-6.19,8.23-6.58,13.59-.04,.49-.06,.99-.06,1.5,0,1.19,.1,2.36,.31,3.5,1.65,9.64,10.08,17,20.19,17,11.3,0,20.5-9.2,20.5-20.5s-9.2-20.5-20.5-20.5Zm0,36c-8.55,0-15.5-6.95-15.5-15.5,0-7.34,5.12-13.5,11.98-15.09,.49-.12,1-.21,1.52-.28,.65-.09,1.32-.13,2-.13,8.55,0,15.5,6.95,15.5,15.5s-6.95,15.5-15.5,15.5Z" fill="#605a31"/>
        <path d="M281,556.16c0,8.55-6.95,15.5-15.5,15.5s-15.5-6.95-15.5-15.5c0-7.34,5.12-13.5,11.98-15.09h1.52v-.28c.65-.09,1.32-.13,2-.13,8.55,0,15.5,6.95,15.5,15.5Z" fill="#fdff8b"/>
        <path d="M185,530.16c0,.83-.67,1.5-1.5,1.5h-45c-.83,0-1.5-.67-1.5-1.5,0-.54,.29-1.02,.72-1.27,.22-.15,.49-.23,.78-.23h45c.83,0,1.5,.67,1.5,1.5Z" fill="#605a31"/>
        <path d="M212,530.16c0,.83-.67,1.5-1.5,1.5h-18c-.83,0-1.5-.67-1.5-1.5s.67-1.5,1.5-1.5h18c.83,0,1.5,.67,1.5,1.5Z" fill="#605a31"/>
        <path d="M257,530.16c0,.83-.67,1.5-1.5,1.5h-36c-.83,0-1.5-.67-1.5-1.5s.67-1.5,1.5-1.5h36c.83,0,1.5,.67,1.5,1.5Z" fill="#605a31"/>
        <path d="M231,504.16c0,.69-.28,1.32-.74,1.78-.45,.44-1.07,.72-1.76,.72h-45c-1.38,0-2.5-1.12-2.5-2.5s1.12-2.5,2.5-2.5h45c.43,0,.84,.11,1.19,.3h.01c.78,.43,1.3,1.26,1.3,2.2Z" fill="#605a31"/>
        <path d="M177,504.16c0,1.38-1.12,2.5-2.5,2.5h-18c-1.38,0-2.5-1.12-2.5-2.5s1.12-2.5,2.5-2.5h18c1.38,0,2.5,1.12,2.5,2.5Z" fill="#605a31"/>
        <path d="M255.5,506.66h-18c-1.38,0-2.5-1.12-2.5-2.5s1.12-2.5,2.5-2.5h18c1.38,0,2.5,1.12,2.5,2.5s-1.12,2.5-2.5,2.5Z" fill="#605a31"/>
        <path d="M150,504.16c0,1.38-1.12,2.5-2.5,2.5h-36c-1.38,0-2.5-1.12-2.5-2.5s1.12-2.5,2.5-2.5h36c1.38,0,2.5,1.12,2.5,2.5Z" fill="#605a31"/>
        <path d="M186,504.16c0,1.38-1.12,2.5-2.5,2.5s-2.5-1.12-2.5-2.5c0-8.55-6.95-15.5-15.5-15.5s-15.5,6.95-15.5,15.5c0,1.38-1.12,2.5-2.5,2.5s-2.5-1.12-2.5-2.5c0-.85,.05-1.68,.16-2.5,1.23-10.13,9.89-18,20.34-18s19.11,7.87,20.34,18c.11,.82,.16,1.65,.16,2.5Z" fill="#605a31"/>
        <path d="M129.5,506.66c-1.38,0-2.5-1.12-2.5-2.5v-27c0-1.38,1.12-2.5,2.5-2.5s2.5,1.12,2.5,2.5v27c0,1.38-1.12,2.5-2.5,2.5Z" fill="#605a31"/>
        <path d="M201.5,506.66c-1.38,0-2.5-1.12-2.5-2.5v-27c0-1.38,1.12-2.5,2.5-2.5s2.5,1.12,2.5,2.5v27c0,1.38-1.12,2.5-2.5,2.5Z" fill="#605a31"/>
        <path d="M33,341.16v29.5H6v22h27v32H6v22h27v29.5c0,1.38-1.12,2.5-2.5,2.5s-2.5-1.12-2.5-2.5v-24.5H1v-32H28v-22H1v-32H28v-24.5c0-1.38,1.12-2.5,2.5-2.5s2.5,1.12,2.5,2.5Z" fill="#605a31"/>
        <path d="M30.5,302.66c-11.3,0-20.5,9.2-20.5,20.5,0,10.45,7.87,19.11,18,20.34,.82,.11,1.65,.16,2.5,.16s1.68-.05,2.5-.16c10.13-1.23,18-9.89,18-20.34,0-11.3-9.2-20.5-20.5-20.5Zm0,36c-8.55,0-15.5-6.95-15.5-15.5s6.95-15.5,15.5-15.5,15.5,6.95,15.5,15.5-6.95,15.5-15.5,15.5Z" fill="#605a31"/>
        <path d="M36.87,293.33c-2.05-.44-4.19-.67-6.37-.67s-4.32,.23-6.37,.67c-13.77,2.94-24.13,15.19-24.13,29.83,0,15.98,12.34,29.12,28,30.4,.82,.07,1.66,.1,2.5,.1s1.68-.03,2.5-.1c4.96-.41,9.58-2,13.59-4.5,1.35-.83,2.63-1.78,3.82-2.81,2.14-1.85,4.03-4,5.59-6.37,1.2-1.82,2.21-3.78,3-5.85,1.29-3.38,2-7.04,2-10.87,0-14.64-10.36-26.89-24.13-29.83Zm-3.87,55.21c-.82,.08-1.66,.12-2.5,.12s-1.68-.04-2.5-.12c-12.89-1.26-23-12.16-23-25.38,0-14.06,11.44-25.5,25.5-25.5s25.5,11.44,25.5,25.5c0,13.22-10.11,24.12-23,25.38Z" fill="#605a31"/>
        <path d="M30.5,302.66c-11.3,0-20.5,9.2-20.5,20.5,0,10.45,7.87,19.11,18,20.34,.82,.11,1.65,.16,2.5,.16s1.68-.05,2.5-.16c10.13-1.23,18-9.89,18-20.34,0-11.3-9.2-20.5-20.5-20.5Zm0,36c-8.55,0-15.5-6.95-15.5-15.5s6.95-15.5,15.5-15.5,15.5,6.95,15.5,15.5-6.95,15.5-15.5,15.5Z" fill="#605a31"/>
        <circle cx="30.5" cy="323.16" r="15.5" fill="#fdff8b"/>
        <path d="M59,441.27c-.95-.57-1.95-1.06-3-1.44-1.75-.67-3.63-1.07-5.59-1.17-.3-.01-.6-.02-.91-.02-.99,0-1.96,.08-2.91,.23-5.94,.94-10.95,4.72-13.59,9.9-1.29,2.52-2.02,5.37-2.02,8.39s.73,5.87,2.02,8.39c1.77,3.49,4.62,6.34,8.11,8.11,2.52,1.29,5.37,2.02,8.39,2.02s5.87-.73,8.39-2.02c6.01-3.06,10.13-9.31,10.13-16.5,0-6.74-3.62-12.65-9.02-15.89Zm-9.5,31.37c-8.54,0-15.48-6.94-15.48-15.48s6.94-15.48,15.48-15.48c2.32,0,4.52,.51,6.5,1.44,1.07,.49,2.08,1.11,3,1.83,3.64,2.83,5.98,7.25,5.98,12.21,0,8.54-6.94,15.48-15.48,15.48Z" fill="#605a31"/>
        <path d="M59,449.13c-.85-1.01-1.87-1.89-3-2.58-1.89-1.17-4.12-1.84-6.5-1.84-6.86,0-12.45,5.59-12.45,12.45s5.59,12.45,12.45,12.45,12.45-5.59,12.45-12.45c0-3.06-1.11-5.86-2.95-8.03Zm-9.5,17.44c-5.19,0-9.41-4.22-9.41-9.41s4.22-9.41,9.41-9.41,9.41,4.22,9.41,9.41-4.22,9.41-9.41,9.41Z" fill="#605a31"/>
        <circle cx="49.5" cy="457.16" r="9.41" transform="translate(-171.18 53.74) rotate(-22.5)" fill="#fdff8b"/>
        <rect x="46.59" y="345.5" width="3.82" height="94.66" fill="#605a31"/>
        <path d="M57.5,450.66c-.83,0-1.5-.67-1.5-1.5v-45c0-.83,.67-1.5,1.5-1.5s1.5,.67,1.5,1.5v45c0,.83-.67,1.5-1.5,1.5Z" fill="#605a31"/>
        <path d="M57.5,396.66c-.83,0-1.5-.67-1.5-1.5v-18c0-.83,.67-1.5,1.5-1.5s1.5,.67,1.5,1.5v18c0,.83-.67,1.5-1.5,1.5Z" fill="#605a31"/>
        <path d="M57.5,369.66c-.83,0-1.5-.67-1.5-1.5v-36c0-.83,.67-1.5,1.5-1.5s1.5,.67,1.5,1.5v36c0,.83-.67,1.5-1.5,1.5Z" fill="#605a31"/>
        <rect x="82" y="359.16" width="5" height="45" fill="#605a31"/>
        <path d="M84.5,433.66c-1.38,0-2.5-1.12-2.5-2.5v-18c0-1.38,1.12-2.5,2.5-2.5s2.5,1.12,2.5,2.5v18c0,1.38-1.12,2.5-2.5,2.5Z" fill="#605a31"/>
        <path d="M84.5,352.66c-1.38,0-2.5-1.12-2.5-2.5v-18c0-1.38,1.12-2.5,2.5-2.5s2.5,1.12,2.5,2.5v18c0,1.38-1.12,2.5-2.5,2.5Z" fill="#605a31"/>
        <path d="M84.5,478.66c-1.38,0-2.5-1.12-2.5-2.5v-36c0-1.38,1.12-2.5,2.5-2.5s2.5,1.12,2.5,2.5v36c0,1.38-1.12,2.5-2.5,2.5Z" fill="#605a31"/>
        <path d="M85.5,362.66c-11.3,0-20.5-9.2-20.5-20.5,0-6.58,3.19-12.8,8.54-16.65,3.5-2.52,7.64-3.85,11.96-3.85,1.38,0,2.5,1.12,2.5,2.5s-1.12,2.5-2.5,2.5c-3.27,0-6.4,1.01-9.04,2.91-4.04,2.91-6.46,7.62-6.46,12.59,0,8.55,6.95,15.5,15.5,15.5,1.38,0,2.5,1.12,2.5,2.5s-1.12,2.5-2.5,2.5Z" fill="#605a31"/>
        <path d="M84.5,442.66c-1.38,0-2.5-1.12-2.5-2.5s1.12-2.5,2.5-2.5c8.55,0,15.5-6.95,15.5-15.5s-6.95-15.5-15.5-15.5c-1.38,0-2.5-1.12-2.5-2.5s1.12-2.5,2.5-2.5c11.3,0,20.5,9.2,20.5,20.5s-9.2,20.5-20.5,20.5Z" fill="#605a31"/>
        <path d="M111.5,460.66h-27c-1.38,0-2.5-1.12-2.5-2.5s1.12-2.5,2.5-2.5h27c1.38,0,2.5,1.12,2.5,2.5s-1.12,2.5-2.5,2.5Z" fill="#605a31"/>
        <path d="M111.5,388.66h-27c-1.38,0-2.5-1.12-2.5-2.5s1.12-2.5,2.5-2.5h27c1.38,0,2.5,1.12,2.5,2.5s-1.12,2.5-2.5,2.5Z" fill="#605a31"/>
        <path d="M84.5,325.66c-1.38,0-2.5-1.12-2.5-2.5v-13.66c0-1.38,1.12-2.5,2.5-2.5s2.5,1.12,2.5,2.5v13.66c0,1.38-1.12,2.5-2.5,2.5Z" fill="#605a31"/>
        <rect x="82" y="293.66" width="5" height="18.34" fill="#605a31"/>
        <path d="M284.5,503.16c0,1.38-1.12,2.5-2.5,2.5h-16.15c-1.24,10.13-9.89,18-20.35,18s-18.54-7.36-20.19-17c-.21-1.14-.31-2.31-.31-3.5,0-.56,.19-1.09,.5-1.5,.46-.61,1.18-1,2-1,.94,0,1.77,.52,2.19,1.3h.01c.19,.36,.3,.77,.3,1.2,0,.95,.09,1.88,.26,2.78,1.3,7.23,7.64,12.72,15.24,12.72,8.55,0,15.5-6.95,15.5-15.5v-2.5h21c1.38,0,2.5,1.12,2.5,2.5Z" fill="#605a31"/>
        <rect x="279.5" y="500.66" width="14.5" height="5" fill="#605a31"/>
      </g>
    </g>
  </g>
</svg>