<?xml version="1.0" encoding="UTF-8"?>
<svg id="_Шар_2" data-name="Шар 2" xmlns="http://www.w3.org/2000/svg" viewBox="0 0 342.09 305.2">
  <g id="main">
    <g>
      <path d="M195.52,30.08c-10.38,3.27-21.82,2.28-31.92-1.63-5.07-1.95-18.37-8.48-17.89-14.9,.12-1.35,1.79-2.18,2.73-2.5,1.86-.71,3.64-1.48,5.32-2.53,2.23-1.37,4.34-2.96,6.23-4.81,1.52-1.3,2.85-3.54,5.15-3.7,2.42-.21,3.82,2.38,4.81,4.02,.7,1.13,1.46,2.2,2.36,3.15,1.81,1.89,4.12,3.31,6.64,4.07,1.31,.44,2.63,.51,3.93,1.12,3.85,2.63-3.31,8.04-5.47,9.61-8.85,6.22-19.61,10.36-30.59,9.43-2.73-.23-5.46-.72-8.09-1.61-3.92-1.22-7.19-3.65-11.02-4.8-2.45-.7-5.02-.63-7.52-.15-4.01,.74-7.14,3.12-10.84,4.79-3.02,1.48-6.3-.22-8.27-2.56-4.04-4.43-3.6-12.4,1.59-15.74,3.76-2.51,9.59-1.68,11.93,2.37,1.56,2.61,1.29,6.21-.88,8.42-2.16,2.22-6.09,2.31-8.18-.06-2.88-3.17,.12-8.84,4.39-6.78,1.38,.67,2.01,2.49,1.33,3.86-1.24,2.42-4.77,1.48-3.95-1.38,0,0,.19,.05,.19,.05-.15,.62-.06,1.32,.33,1.81,.38,.5,1.05,.63,1.63,.45,1.26-.32,1.8-1.77,1.32-2.89-1.03-2.46-4.86-1.66-5.24,.87-.63,2.46,1.61,4.65,4.03,4.47,2.47-.04,4.28-2.21,4.43-4.59,.42-5.4-6.27-7.85-10.27-4.98-1.99,1.35-3.13,3.72-3.33,6.08-.2,2.41,.62,4.88,2.22,6.69,1.57,1.7,3.58,3.11,5.94,1.97,2.36-1.03,4.68-2.69,7.18-3.63,2.61-1.06,5.44-1.62,8.27-1.56,5.64-.08,10.25,3.92,15.29,5.64,2.45,.89,5.03,1.41,7.65,1.7,10.59,1.12,21.34-2.42,30.04-8.43,1.84-1.28,8.66-6.36,5.58-8.47-1.16-.51-2.59-.61-3.83-1.02-2.64-.76-5.08-2.21-7.03-4.16-4.52-4.44-4.56-10.56-10.73-3.06-3.3,3.47-7.38,6.29-11.89,7.95-1.07,.49-1.88,.61-1.62,1.87,.48,1.72,1.89,3.12,3.2,4.39,3.85,3.51,8.61,6.1,13.49,8.11,4.92,1.96,10.09,3.4,15.39,3.9,5.29,.55,10.68,.17,15.91-1.04,0,0,.05,.19,.05,.19h0Z" fill="#7c7c7c"/>
      <path d="M142.81,29.98c10.42,2.43,21.44,1.03,31.25-3.06,5.9-2.59,12.11-5.74,15.84-11.06,.64-1.02,.86-2.17,.29-2.52-2.21-1.19-4.99-2.04-7.11-3.54-3.47-2.08-6.21-5.34-9.05-8.05-2.42-1.78-4.14,1.1-5.36,3.01-.76,1.12-1.62,2.22-2.62,3.17-1.97,1.91-4.42,3.35-7.07,4.06-1.23,.39-2.67,.47-3.78,1.04-2.68,2.33,4.11,7.23,5.9,8.5,4.37,3.05,9.29,5.29,14.36,6.85,7.57,2.2,15.86,2.37,23.3-.27,5.02-1.75,9.65-5.72,15.29-5.6,4.24-.1,8.36,1.35,11.97,3.43,2.06,1.06,4.29,2.88,6.54,1.88,8.89-4.22,5.04-19.15-5.2-15.47-3.41,1.29-4.57,6.14-2.06,8.79,1.55,1.73,4.67,1.88,6.26,.14,1.68-1.67,1.02-5.16-1.5-5.55-1.86-.4-3.68,1.36-2.89,3.21,.99,2.06,3.86,1.34,3.28-1.12,0,0,.19-.05,.19-.05,.2,.66,.15,1.44-.28,2.04-.94,1.32-3.07,.7-3.67-.66-.32-.67-.37-1.46-.13-2.18,1.21-3.3,6.13-2.46,6.81,.8,.97,3.11-1.88,6.18-4.99,6.06-5.02,.15-7.56-6.13-5.07-10.07,2.31-4.06,8.11-4.93,11.9-2.46,5.21,3.3,5.72,11.25,1.72,15.71-1.09,1.27-2.47,2.31-4.09,2.95-1.37,.42-2.84,.26-4.14-.27-4.75-2.28-9.16-5.42-14.62-5.2-5.46-.12-9.64,3.68-14.72,5.28-2.62,.9-5.35,1.4-8.07,1.64-10.96,.97-21.72-3.13-30.58-9.31-2.2-1.6-4.38-3.29-5.91-5.58-.79-1.14-1.37-3.09,.08-4.03,1.27-.69,2.62-.73,3.93-1.17,2.53-.72,4.85-2.11,6.68-3.97,1.41-1.41,2.39-3.14,3.46-4.83,.73-1.23,1.99-2.5,3.58-2.5,2.33-.07,3.79,2.23,5.26,3.53,1.87,1.86,3.97,3.46,6.18,4.85,1.68,1.05,3.43,1.86,5.29,2.56,1.59,.53,3.35,1.52,3.01,3.59-.37,2.3-2.04,3.98-3.58,5.47-2.05,1.89-4.33,3.42-6.69,4.79-11.71,6.71-26.2,9.34-39.23,5.37,0,0,.05-.19,.05-.19h0Z" fill="#7c7c7c"/>
      <path d="M196.68,13.62c-.12,5.27-3.82,10.48-8.95,12.03-1.53,.54-3.14,.67-4.63,1.06-.2,.07-.05,.06-.07-.16,.2,.19,1.09,.65,1.69,.79,4.73,1.33,10.09-.14,13.89-3.04,1.92-1.44,3.29-3.45,5.15-5.37,3.71-4.17,10.39-4.31,14.85-1.43,0,0-.08,.18-.08,.18-3.59-1.02-7.32-1.24-10.56,.55-2.13,1.19-3.51,3.2-5.23,4.98-4.49,5.18-11.82,6.27-18.19,4.76-.75-.2-3.18-.7-2.17-1.93,1.49-.9,3.26-1.17,4.75-1.95,4.69-1.87,7.78-5.73,9.35-10.52,0,0,.2,.04,.2,.04h0Z" fill="#7c7c7c"/>
      <path d="M141.68,13.58c2.12,6.56,6.44,9.9,12.84,11.86,.54,.25,1.51,.36,1.51,1.21-.13,.47-.36,.53-.51,.64-3.02,1.35-6.37,1.38-9.64,1.18-3.95-.26-7.78-2.33-10.46-5.26-2.42-2.69-4.74-5.63-8.51-6.13-2.34-.42-4.85-.1-7.29,.6l-.08-.18c4.46-2.88,11.14-2.74,14.85,1.43,1.86,1.92,3.24,3.93,5.15,5.37,3.81,2.9,9.16,4.37,13.89,3.04,.58-.13,1.53-.63,1.69-.8-.03,.12,.06,.21,.04,.2-1.52-.44-3.18-.54-4.74-1.1-2.51-.83-4.86-2.47-6.42-4.67-1.58-2.19-2.4-4.8-2.52-7.37,0,0,.2-.04,.2-.04h0Z" fill="#7c7c7c"/>
    </g>
    <g>
      <path d="M195.46,275.31c-15.34-3.62-32.87,.8-44.8,10.97-1.14,1.13-4.02,3.87-3.02,5.48,.23,.26,.84,.54,1.44,.78,4.52,1.66,8.59,4.48,11.89,7.95,3.42,3.82,4.96,5.46,8.15,.14,2.21-3.46,5.63-6.25,9.61-7.36,1.24-.4,2.67-.51,3.83-1.02,1.23-.58,.8-2.14,.17-3.08-1.44-2.2-3.62-3.87-5.75-5.4-8.7-6.01-19.45-9.55-30.04-8.43-2.62,.28-5.2,.81-7.65,1.7-5.04,1.72-9.65,5.72-15.29,5.64-4.23,.12-8.39-1.29-12-3.38-2.06-1.05-4.32-2.91-6.56-1.96-3.26,1.46-5.39,5.23-5.04,8.8,.24,5.03,5.33,8.86,10.14,6.71,2.22-.87,3.65-3.23,3.46-5.61-.14-2.38-1.96-4.55-4.43-4.59-2.41-.18-4.68,2.02-4.03,4.47,.68,3.58,6.4,2.88,5.24-.88-.99-2.07-3.87-1.35-3.28,1.11,0,0-.19,.05-.19,.05-.2-.66-.15-1.44,.28-2.04,.41-.63,1.29-.85,1.98-.66,2.52,.53,2.55,4.16,.36,5.19-2.08,1.19-4.88-.21-5.37-2.51-.96-3.11,1.92-6.17,5.03-6.03,3.16-.09,5.76,2.71,5.96,5.76,.69,6.83-7.65,10.3-12.89,6.72-5.19-3.34-5.63-11.31-1.59-15.74,1.98-2.34,5.24-4.04,8.27-2.56,2.58,1.1,4.67,2.64,7.19,3.65,3.5,1.46,7.49,2.01,11.17,.99,3.83-1.16,7.1-3.58,11.02-4.8,7.84-2.59,16.5-2.15,24.25,.44,5.16,1.74,10,4.26,14.43,7.38,2.23,1.62,9.28,6.96,5.47,9.61-1.29,.6-2.62,.67-3.93,1.12-2.51,.76-4.83,2.18-6.64,4.07-.9,.95-1.66,2.02-2.36,3.15-.98,1.64-2.38,4.23-4.81,4.02-2.3-.16-3.64-2.4-5.15-3.7-1.89-1.85-4-3.44-6.23-4.81-1.69-1.05-3.46-1.82-5.32-2.53-.94-.32-2.62-1.15-2.73-2.5-.49-6.4,12.79-12.94,17.89-14.9,10.1-3.91,21.54-4.9,31.92-1.63,0,0-.05,.19-.05,.19h0Z" fill="#7c7c7c"/>
      <path d="M142.76,275.03c13.03-3.98,27.52-1.34,39.23,5.37,3.46,2.12,11.19,6.83,10.15,11.63-.37,1.28-1.92,1.83-2.89,2.21-1.85,.7-3.61,1.52-5.29,2.56-2.21,1.39-4.31,2.99-6.18,4.85-1.47,1.3-2.93,3.61-5.26,3.53-1.58,0-2.85-1.26-3.58-2.5-1.07-1.69-2.05-3.42-3.46-4.83-1.83-1.86-4.16-3.26-6.68-3.97-1.32-.44-2.66-.48-3.93-1.17-3.36-2.86,3.67-8.02,5.84-9.61,4.43-3.1,9.28-5.6,14.44-7.32,7.74-2.57,16.4-2.97,24.22-.35,3.91,1.25,7.16,3.66,10.99,4.79,3.69,.98,7.65,.41,11.15-1.06,2.52-1.03,4.6-2.57,7.19-3.66,1.48-.6,3.23-.75,4.7-.04,7.11,3.16,8.54,14.1,1.82,18.41-3.79,2.47-9.59,1.6-11.9-2.46-1.53-2.62-1.24-6.21,.94-8.4,2.17-2.2,6.1-2.27,8.17,.12,2.86,3.18-.17,8.83-4.43,6.75-2.2-1.04-2.12-4.66,.38-5.18,1.62-.46,2.77,1.24,2.26,2.71,0,0-.19-.05-.19-.05,.62-3.75-4.48-2.49-3.29,.63,.42,1.13,1.76,1.68,2.91,1.46,1.18-.21,2.09-1.13,2.34-2.31,.93-4.11-4.56-5.95-7.1-3.11-2.52,2.65-1.35,7.5,2.06,8.79,4.76,2.19,9.92-1.61,10.18-6.62,.37-3.58-1.72-7.34-4.97-8.84-.97-.43-1.97-.39-3.1,.09-2.35,1.01-4.67,2.67-7.16,3.62-3.9,1.6-8.37,2.15-12.48,1-3.91-1.19-7.3-3.7-11.06-4.99-12.61-4.47-26.87-.85-37.66,6.58-2.49,1.9-5.67,3.9-6.51,7.06-.22,2.22,2.95,1.87,4.4,2.48,2.65,.71,5.1,2.14,7.07,4.06,1,.95,1.86,2.04,2.62,3.17,1.11,1.51,1.88,3.51,3.86,3.56,1.9-.13,2.87-2.07,4.24-3.33,2.82-2.97,6.17-5.55,9.94-7.24,1.06-.52,2.57-.95,3.46-1.57,1.29-1.36-1.57-4.28-2.71-5.4-7.84-6.96-18.39-10.91-28.77-12.17-5.3-.57-10.68-.25-15.9,.92,0,0-.05-.19-.05-.19h0Z" fill="#7c7c7c"/>
      <path d="M196.49,291.62c-2.12-6.56-6.44-9.9-12.84-11.86-.54-.25-1.51-.36-1.51-1.21,.13-.47,.36-.53,.51-.64,3.02-1.35,6.37-1.38,9.64-1.18,3.95,.26,7.78,2.33,10.46,5.26,2.42,2.69,4.74,5.63,8.51,6.13,2.34,.42,4.85,.1,7.29-.6,0,0,.08,.18,.08,.18-4.46,2.88-11.14,2.74-14.85-1.43-1.86-1.92-3.24-3.93-5.15-5.37-3.81-2.9-9.16-4.37-13.89-3.04-.58,.13-1.53,.63-1.69,.8,.03-.12-.06-.21-.04-.2,1.52,.44,3.18,.54,4.74,1.1,2.51,.83,4.86,2.47,6.42,4.67,1.58,2.19,2.4,4.8,2.52,7.37l-.2,.04h0Z" fill="#7c7c7c"/>
      <path d="M141.49,291.58c.12-5.27,3.82-10.48,8.95-12.03,1.53-.54,3.14-.67,4.63-1.06,.2-.07,.05-.06,.07,.16-.2-.19-1.09-.65-1.69-.79-4.73-1.33-10.09,.14-13.89,3.04-1.92,1.44-3.29,3.45-5.15,5.37-3.71,4.17-10.39,4.31-14.85,1.43,0,0,.08-.18,.08-.18,3.59,1.02,7.32,1.24,10.56-.55,2.13-1.19,3.51-3.2,5.23-4.98,4.49-5.18,11.82-6.27,18.19-4.76,.75,.2,3.18,.7,2.17,1.93-1.49,.9-3.26,1.17-4.75,1.95-4.69,1.87-7.78,5.73-9.35,10.52,0,0-.2-.04-.2-.04h0Z" fill="#7c7c7c"/>
    </g>
  </g>
  <g id="bw-pattern">
    <g>
      <g>
        <path d="M8.72,115.64c5.31-9.48,9.2-21.08,5.08-31.69-1.12-2.89-2.73-5.48-4.49-8.05-1.99-2.97-4.12-6.01-5.52-9.42-2.12-5.1-2.8-10.59-2.83-16.04,.03-5.35,1.12-11.8,6.28-14.59,6.78-3.49,16.97-.01,18.55,7.91,1.37,5.86-3.26,12.72-9.55,12.6-6.7,.12-11.51-8.02-6.38-13.13,3.03-3.32,9.15-2.01,10.02,2.6,.41,2.14-.86,4.41-2.89,5.16-2.07,.8-4.59-.53-4.95-2.73-.45-2.2,2.17-4.37,4.08-2.92,2.12,1.51,.08,4.86-2,2.78,0,0,.14-.14,.14-.14,.32,.29,.73,.47,1.14,.46,1.34-.04,1.43-2.03,.36-2.56-1.43-.91-3.1,.74-2.73,2.22,.3,1.46,2.16,2.31,3.48,1.68,3.2-1.57,2.01-5.93-1.24-6.55-3.09-.71-5.87,2.56-5.49,5.53,.32,3.14,3.42,5.48,6.48,5.48,4.98,.06,8.69-5.37,7.68-10.11-1.23-6.83-10.23-10-16.21-7.29-6.62,3.5-6.5,12.44-5.84,18.98,.43,3.53,1.33,7.03,2.92,10.22,1.51,3.21,3.72,6.01,5.86,8.92,7.44,9.25,8.23,20.62,3.51,31.31-1.41,3.36-3.23,6.53-5.29,9.49l-.17-.11h0Z" fill="#7c7c7c"/>
        <path d="M10.84,34.79c-13.71,6.04-9.69,21.9,3.13,25.93,3.38,1.06,7.46,.35,9.46-2.8,1.09-1.51,1.51-3.3,2.38-4.97,1.85-2.42,3.14,2.51,3.39,3.74,.94,4.63,1.85,14.14-3.73,16.15-4.07,.86-7.51-2.14-10.81-3.91-.23-.12-.49-.24-.6-.26-.09-.05,.02,.09,.39-.12,.19-.11,.32-.36,.34-.52,.01-.06,.01-.22,0-.26,.09,.2,.57,.87,.81,1.15,2.85,3.36,5.53,7.39,5.53,11.97,.07,5.14-2.31,9.85-5.25,13.87,0,0-.17-.11-.17-.11,5.04-9.3,5.9-16.31-1.73-24.4-.55-.73-1.41-1.46-1.29-2.59,.79-2.4,3.39-.33,4.61,.37,2.42,1.41,6.54,4.45,8.82,2.31,1.48-1.53,1.92-4.1,2.16-6.24,.21-2.37,.19-4.8-.16-7.18-.27-1.29-.42-2.95-1.36-3.79-.04-.02-.04-.02-.11,.01-.48,.45-.68,1.19-.99,1.84-.95,2.29-2.25,4.65-4.5,5.91-7.09,3.59-16.11-1.39-19.22-8.17-2.4-4.66-1.51-10.82,2.33-14.43,1.84-1.78,4.1-3.03,6.51-3.66l.06,.19h0Z" fill="#7c7c7c"/>
        <path d="M2.81,72.69c10.43,11.08,13.05,28.8,6.5,42.5,3.68-14.47,1.45-29.82-6.5-42.5h0Z" fill="#7c7c7c"/>
      </g>
      <path d="M27.51,47.71c.34-2.89,.11-5.78-.98-8.28-2.26-4.97-7.76-8.51-13.25-8.42-3.18-.01-5.24,2-7.91,3.34C1.58,35.45,.13,30.34,.01,27.52c-.05-2.18-.11-6.59,2.91-6.89,.84,.04,1.3,.44,1.64,.69,1.33,1.2,2.47,2.6,3.99,3.33,3.82,1.92,8.15,.58,12.01-1,0,0,.1,.17,.1,.17-3.52,2.55-8.6,4.52-12.94,2.58-1.95-.76-3.42-2.54-4.81-3.64-1.38,2.13-1.24,6.07-.32,8.63,.46,1.19,1.31,2.21,2.47,1.9,1.28-.36,2.58-1.29,3.87-1.82,4.16-1.81,9.03-1.53,13.12,.51,5.62,2.75,8.11,10.15,5.67,15.78,0,0-.19-.05-.19-.05h0Z" fill="#7c7c7c"/>
      <path d="M27.7,100.66c3.83,9.87-4.44,18.55-14.47,17.4-2.97-.08-5.55-1.91-8.18-2.93-2.63-.4-3.07,3.87-3.15,5.86-.04,1.6,.23,3.67,1.01,4.68-.1,.02,.09-.02,.3-.22,2.29-2.46,5.6-4.64,9.19-4.19,3.12,.28,5.88,1.64,8.26,3.34l-.1,.17c-5.13-2.28-11.24-3.29-15.13,1.52-.78,.88-2.23,2.08-3.6,1.2C-.13,125.96-.01,123.04,.01,120.9c.11-2.82,1.56-7.94,5.35-6.83,2.67,1.34,4.74,3.35,7.91,3.34,5.49,.09,10.99-3.45,13.25-8.42,1.09-2.51,1.32-5.4,.98-8.28l.19-.05h0Z" fill="#7c7c7c"/>
    </g>
    <path d="M311.53,100.71c-.34,2.89-.11,5.78,.98,8.28,2.26,4.97,7.76,8.51,13.25,8.42,3.18,.01,5.24-2,7.91-3.34,3.79-1.11,5.24,4,5.35,6.83,.05,2.18,.11,6.59-2.91,6.89-.84-.04-1.3-.44-1.64-.69-1.33-1.2-2.47-2.6-3.99-3.33-3.82-1.92-8.15-.58-12.01,1,0,0-.1-.17-.1-.17,3.52-2.55,8.6-4.52,12.94-2.58,1.95,.76,3.42,2.54,4.81,3.64,1.38-2.13,1.24-6.07,.32-8.63-.46-1.19-1.31-2.21-2.47-1.9-1.28,.36-2.58,1.29-3.87,1.82-4.16,1.81-9.03,1.53-13.12-.51-5.62-2.75-8.11-10.15-5.67-15.78,0,0,.19,.05,.19,.05h0Z" fill="#7c7c7c"/>
    <g>
      <path d="M333.2,115.74c-8.88-12.58-12.11-27.99-1.78-40.8,2.14-2.91,4.35-5.71,5.86-8.92,1.59-3.19,2.49-6.69,2.92-10.22,1.55-11.25-1.91-23.73-15.82-18.88-6.76,2.56-8.77,11.29-2.91,15.8,5.48,4.55,14.45-2.13,9.4-8.14-2.03-2.46-6.41-1.61-7.11,1.53-.56,2.16,1.74,4.7,3.94,3.6,1.43-.61,1.93-2.58,.7-3.64-.79-.83-2.43-.48-2.74,.65-.37,1.47,1.09,2.25,2.18,1.24,0,0,.14,.14,.14,.14-1.28,1.41-3.21,.33-2.85-1.5,.34-1.66,2.56-2.27,3.81-1.19,3.06,2.55-.44,6.9-3.83,5.56-4.76-1.99-3.33-8.41,1.32-9.47,4.33-1.13,8.4,3.16,7.93,7.4-.32,4.22-4.38,7.47-8.5,7.44-6.29,.12-10.92-6.74-9.55-12.6,1.58-7.92,11.76-11.4,18.55-7.91,6.84,3.95,6.59,13.13,6,20.03-.39,3.59-1.11,7.22-2.55,10.61-2.57,6.33-7.59,11.14-10.01,17.47-2.72,7.02-1.97,14.95,.6,21.93,1.2,3.36,2.74,6.61,4.48,9.77,0,0-.17,.11-.17,.11h0Z" fill="#7c7c7c"/>
      <path d="M331.31,34.6c11.9,3.26,13.42,16.85,4.01,24.08-4.84,3.71-13.24,5.38-17.16-.41-1.21-1.54-1.59-3.65-2.73-5.15-.07-.03-.07-.03-.11-.01-.94,.85-1.09,2.5-1.36,3.79-.35,2.38-.37,4.81-.16,7.18,.24,2.14,.68,4.71,2.16,6.24,2.28,2.14,6.4-.9,8.82-2.31,1.22-.69,3.82-2.77,4.61-.37,.12,1.14-.75,1.86-1.29,2.59-7.64,8.11-6.77,15.1-1.73,24.4,0,0-.17,.11-.17,.11-2.94-4.01-5.32-8.72-5.25-13.87,0-4.58,2.68-8.61,5.53-11.97,.24-.28,.73-.94,.81-1.15-.03,.03-.01,.2,0,.26,.03,.16,.16,.41,.34,.52,.37,.21,.48,.07,.39,.12-.1,.02-.36,.14-.6,.26-3.3,1.78-6.74,4.78-10.81,3.91-5.58-2-4.67-11.51-3.73-16.15,.25-1.24,1.55-6.16,3.39-3.74,.87,1.67,1.29,3.46,2.38,4.97,2,3.15,6.08,3.87,9.46,2.8,6.56-1.88,12.38-8.47,11.69-15.46-.52-4.81-4.19-8.61-8.55-10.48,0,0,.06-.19,.06-.19h0Z" fill="#7c7c7c"/>
      <path d="M339.28,72.69c-7.95,12.68-10.18,28.03-6.5,42.5-6.55-13.7-3.93-31.42,6.5-42.5h0Z" fill="#7c7c7c"/>
    </g>
    <path d="M314.39,47.76c-3.83-9.87,4.44-18.55,14.47-17.4,2.97,.08,5.55,1.91,8.18,2.93,2.63,.4,3.07-3.87,3.15-5.86,.04-1.6-.23-3.67-1.01-4.68,.1-.02-.09,.02-.3,.22-2.29,2.46-5.6,4.64-9.19,4.19-3.12-.28-5.88-1.64-8.26-3.34l.1-.17c5.13,2.28,11.24,3.29,15.13-1.52,.78-.88,2.23-2.08,3.6-1.2,1.96,1.53,1.85,4.44,1.82,6.58-.11,2.82-1.56,7.94-5.35,6.83-2.67-1.34-4.74-3.35-7.91-3.34-5.49-.09-10.99,3.45-13.25,8.42-1.09,2.51-1.32,5.4-.98,8.28l-.19,.05h0Z" fill="#7c7c7c"/>
    <path d="M28.22,204.45c.34-2.89,.11-5.78-.98-8.28-2.26-4.97-7.76-8.51-13.25-8.42-3.18-.01-5.24,2-7.91,3.34-3.79,1.11-5.24-4-5.35-6.83-.05-2.18-.11-6.59,2.91-6.89,.84,.04,1.3,.44,1.64,.69,1.33,1.2,2.47,2.6,3.99,3.33,3.82,1.92,8.15,.58,12.01-1,0,0,.1,.17,.1,.17-3.52,2.55-8.6,4.52-12.94,2.58-1.95-.76-3.42-2.54-4.81-3.64-1.38,2.13-1.24,6.07-.32,8.63,.46,1.19,1.31,2.21,2.47,1.9,1.28-.36,2.58-1.29,3.87-1.82,4.16-1.81,9.03-1.53,13.12,.51,5.62,2.75,8.11,10.15,5.67,15.78,0,0-.19-.05-.19-.05h0Z" fill="#7c7c7c"/>
    <g>
      <g>
        <path d="M8.89,194.38c8.88,12.58,12.11,27.99,1.78,40.8-2.14,2.91-4.35,5.71-5.86,8.92-1.59,3.19-2.49,6.69-2.92,10.22-1.55,11.25,1.91,23.73,15.82,18.88,6.76-2.56,8.77-11.29,2.91-15.8-5.48-4.55-14.45,2.13-9.4,8.14,2.03,2.46,6.41,1.61,7.11-1.53,.56-2.16-1.74-4.7-3.94-3.6-1.43,.61-1.93,2.58-.7,3.64,.79,.83,2.43,.48,2.74-.65,.37-1.47-1.09-2.25-2.18-1.24,0,0-.14-.14-.14-.14,1.28-1.41,3.21-.33,2.85,1.5-.34,1.66-2.56,2.27-3.81,1.19-3.06-2.55,.44-6.9,3.83-5.56,4.76,1.99,3.33,8.41-1.32,9.47-4.33,1.13-8.4-3.16-7.93-7.4,.32-4.22,4.38-7.47,8.5-7.44,6.29-.12,10.92,6.74,9.55,12.6-1.58,7.92-11.76,11.4-18.55,7.91-6.84-3.95-6.59-13.13-6-20.03,.39-3.59,1.11-7.22,2.55-10.61,2.57-6.33,7.59-11.14,10.01-17.47,2.72-7.02,1.97-14.95-.6-21.93-1.2-3.36-2.74-6.61-4.48-9.77l.17-.11h0Z" fill="#7c7c7c"/>
        <path d="M10.78,275.53c-11.9-3.26-13.42-16.85-4.01-24.08,4.84-3.71,13.24-5.38,17.16,.41,1.21,1.54,1.59,3.65,2.73,5.15,.07,.03,.07,.03,.11,.01,.94-.85,1.09-2.5,1.36-3.79,.35-2.38,.37-4.81,.16-7.18-.24-2.14-.68-4.71-2.16-6.24-2.28-2.14-6.4,.9-8.82,2.31-1.22,.69-3.82,2.77-4.61,.37-.12-1.14,.75-1.86,1.29-2.59,7.64-8.11,6.77-15.1,1.73-24.4,0,0,.17-.11,.17-.11,2.94,4.01,5.32,8.72,5.25,13.87,0,4.58-2.68,8.61-5.53,11.97-.24,.28-.73,.94-.81,1.15,.03-.03,.01-.2,0-.26-.03-.16-.16-.41-.34-.52-.37-.21-.48-.07-.39-.12,.1-.02,.36-.14,.6-.26,3.3-1.78,6.74-4.78,10.81-3.91,5.58,2,4.67,11.51,3.73,16.15-.25,1.24-1.55,6.16-3.39,3.74-.87-1.67-1.29-3.46-2.38-4.97-2-3.15-6.08-3.87-9.46-2.8-6.56,1.88-12.38,8.47-11.69,15.46,.52,4.81,4.19,8.61,8.55,10.48,0,0-.06,.19-.06,.19h0Z" fill="#7c7c7c"/>
        <path d="M2.81,237.43c7.95-12.68,10.18-28.03,6.5-42.5,6.55,13.7,3.93,31.42-6.5,42.5h0Z" fill="#7c7c7c"/>
      </g>
      <path d="M28.84,262.17c3.83,9.87-4.44,18.55-14.47,17.4-2.97-.08-5.55-1.91-8.18-2.93-2.63-.4-3.07,3.87-3.15,5.86-.04,1.6,.23,3.67,1.01,4.68-.1,.02,.09-.02,.3-.22,2.29-2.46,5.6-4.64,9.19-4.19,3.12,.28,5.88,1.65,8.26,3.34,0,0-.1,.17-.1,.17-5.13-2.28-11.24-3.29-15.13,1.52-.78,.88-2.23,2.08-3.6,1.2-1.96-1.53-1.85-4.44-1.82-6.58,.11-2.82,1.56-7.94,5.35-6.83,2.67,1.34,4.74,3.35,7.91,3.34,5.49,.09,10.99-3.45,13.25-8.42,1.09-2.51,1.32-5.4,.98-8.28l.19-.05h0Z" fill="#7c7c7c"/>
    </g>
    <path d="M93.61,23.74c-16.96,1.37-34.04,1.38-51,0,16.96-1.38,34.04-1.37,51,0h0Z" fill="#7c7c7c"/>
    <path d="M8.11,170.74c-1.37-11.95-1.38-24.05,0-36,1.38,11.95,1.37,24.05,0,36h0Z" fill="#7c7c7c"/>
    <path d="M304.61,23.74c-18.97,1.37-38.03,1.38-57,0,18.97-1.38,38.03-1.37,57,0h0Z" fill="#7c7c7c"/>
    <path d="M93.61,286.74c-19.3,1.37-38.7,1.38-58,0,19.3-1.38,38.7-1.37,58,0h0Z" fill="#7c7c7c"/>
    <path d="M311.45,204.5c-3.83-9.87,4.44-18.55,14.47-17.4,2.97,.08,5.55,1.91,8.18,2.93,2.63,.4,3.07-3.87,3.15-5.86,.04-1.6-.23-3.67-1.01-4.68,.1-.02-.09,.02-.3,.22-2.29,2.46-5.6,4.64-9.19,4.19-3.12-.28-5.88-1.64-8.26-3.34l.1-.17c5.13,2.28,11.24,3.29,15.13-1.52,.78-.88,2.23-2.08,3.6-1.2,1.96,1.53,1.85,4.44,1.82,6.58-.11,2.82-1.56,7.94-5.35,6.83-2.67-1.34-4.74-3.35-7.91-3.34-5.49-.09-10.99,3.45-13.25,8.42-1.09,2.51-1.32,5.4-.98,8.28l-.19,.05h0Z" fill="#7c7c7c"/>
    <g>
      <g>
        <path d="M331.14,194.49c-5.31,9.48-9.2,21.08-5.08,31.69,1.12,2.89,2.73,5.48,4.49,8.05,1.99,2.97,4.12,6.01,5.52,9.42,2.12,5.1,2.8,10.59,2.83,16.04-.03,5.35-1.12,11.8-6.28,14.59-6.78,3.49-16.97,.01-18.55-7.91-1.37-5.86,3.26-12.72,9.55-12.6,6.7-.12,11.51,8.02,6.38,13.13-3.03,3.32-9.15,2.01-10.02-2.6-.41-2.14,.86-4.41,2.89-5.16,2.07-.8,4.59,.53,4.95,2.73,.45,2.2-2.17,4.37-4.08,2.92-2.12-1.51-.08-4.86,2-2.78,0,0-.14,.14-.14,.14-.32-.29-.73-.47-1.14-.46-1.34,.04-1.43,2.03-.36,2.56,1.43,.91,3.1-.74,2.73-2.22-.3-1.46-2.16-2.31-3.48-1.68-3.2,1.57-2.01,5.93,1.24,6.55,3.09,.71,5.87-2.56,5.49-5.53-.32-3.14-3.42-5.48-6.48-5.48-4.98-.06-8.69,5.37-7.68,10.11,1.23,6.83,10.23,10,16.21,7.29,6.62-3.5,6.5-12.44,5.84-18.98-.43-3.53-1.33-7.03-2.92-10.22-1.51-3.21-3.72-6.01-5.86-8.92-7.44-9.25-8.23-20.62-3.51-31.31,1.41-3.36,3.23-6.53,5.29-9.49l.17,.11h0Z" fill="#7c7c7c"/>
        <path d="M329.03,275.34c13.71-6.04,9.69-21.9-3.13-25.93-3.38-1.06-7.46-.35-9.46,2.8-1.09,1.51-1.51,3.3-2.38,4.97-1.85,2.42-3.14-2.51-3.39-3.74-.94-4.63-1.85-14.14,3.73-16.15,4.07-.86,7.51,2.14,10.81,3.91,.23,.12,.49,.24,.6,.26,.09,.05-.02-.09-.39,.12-.19,.11-.32,.36-.34,.52-.01,.06-.01,.22,0,.26-.09-.2-.57-.87-.81-1.15-2.85-3.36-5.53-7.39-5.53-11.97-.07-5.14,2.31-9.85,5.25-13.87,0,0,.17,.11,.17,.11-5.04,9.3-5.9,16.31,1.73,24.4,.55,.73,1.41,1.46,1.29,2.59-.79,2.4-3.39,.33-4.61-.37-2.42-1.41-6.54-4.45-8.82-2.31-1.48,1.53-1.92,4.1-2.16,6.24-.21,2.37-.19,4.8,.16,7.18,.27,1.29,.42,2.95,1.36,3.79,.04,.02,.04,.02,.11-.01,.48-.45,.68-1.19,.99-1.84,.95-2.29,2.25-4.65,4.5-5.91,7.09-3.59,16.11,1.39,19.22,8.17,2.4,4.66,1.51,10.82-2.33,14.43-1.84,1.78-4.1,3.03-6.51,3.66,0,0-.06-.19-.06-.19h0Z" fill="#7c7c7c"/>
        <path d="M337.06,237.43c-10.43-11.08-13.05-28.8-6.5-42.5-3.68,14.47-1.45,29.82,6.5,42.5h0Z" fill="#7c7c7c"/>
      </g>
      <path d="M311.22,262.22c-.34,2.89-.11,5.78,.98,8.28,2.26,4.97,7.76,8.51,13.25,8.42,3.18,.01,5.24-2,7.91-3.34,3.79-1.11,5.24,4,5.35,6.83,.05,2.18,.11,6.59-2.91,6.89-.84-.04-1.3-.44-1.64-.69-1.33-1.2-2.47-2.6-3.99-3.33-3.82-1.92-8.15-.58-12.01,1,0,0-.1-.17-.1-.17,3.52-2.55,8.6-4.52,12.94-2.58,1.95,.76,3.42,2.54,4.81,3.64,1.38-2.13,1.24-6.07,.32-8.63-.46-1.19-1.31-2.21-2.47-1.9-1.28,.36-2.58,1.29-3.87,1.82-4.16,1.81-9.03,1.53-13.12-.51-5.62-2.75-8.11-10.15-5.67-15.78,0,0,.19,.05,.19,.05h0Z" fill="#7c7c7c"/>
    </g>
    <path d="M331.76,170.74c-1.37-11.95-1.38-24.05,0-36,1.38,11.95,1.37,24.05,0,36h0Z" fill="#7c7c7c"/>
    <path d="M246.26,286.74c19.42-1.37,38.93-1.38,58.35,0-19.42,1.38-38.93,1.37-58.35,0h0Z" fill="#7c7c7c"/>
  </g>
</svg>