<?xml version="1.0" encoding="UTF-8"?>
<svg id="_Шар_2" data-name="Шар 2" xmlns="http://www.w3.org/2000/svg" viewBox="0 0 141.2 32.05" style="fill:#7c7c7c">
  <g id="main">
    <g>
      <path d="M97.14,30.08c-10.38,3.27-21.82,2.28-31.92-1.63-5.07-1.95-18.37-8.48-17.89-14.9,.12-1.35,1.79-2.18,2.73-2.5,1.86-.71,3.64-1.48,5.32-2.53,2.23-1.37,4.34-2.96,6.23-4.81,1.52-1.3,2.85-3.54,5.15-3.7,2.42-.21,3.82,2.38,4.81,4.02,.7,1.13,1.46,2.2,2.36,3.15,1.81,1.89,4.12,3.31,6.64,4.07,1.31,.44,2.63,.51,3.93,1.12,3.85,2.63-3.31,8.04-5.47,9.61-8.85,6.22-19.61,10.36-30.59,9.43-2.73-.23-5.46-.72-8.09-1.61-3.92-1.22-7.19-3.65-11.02-4.8-2.45-.7-5.02-.63-7.52-.15-4.01,.74-7.14,3.12-10.84,4.79-3.02,1.48-6.3-.22-8.27-2.56C-1.33,22.66-.89,14.69,4.3,11.35c3.76-2.51,9.59-1.68,11.93,2.37,1.56,2.61,1.29,6.21-.88,8.42-2.16,2.22-6.09,2.31-8.18-.06-2.88-3.17,.12-8.84,4.39-6.78,1.38,.67,2.01,2.49,1.33,3.86-1.24,2.42-4.77,1.48-3.95-1.38,0,0,.19,.05,.19,.05-.15,.62-.06,1.32,.33,1.81,.38,.5,1.05,.63,1.63,.45,1.26-.32,1.8-1.77,1.32-2.89-1.03-2.46-4.86-1.66-5.24,.87-.63,2.46,1.61,4.65,4.03,4.47,2.47-.04,4.28-2.21,4.43-4.59,.42-5.4-6.27-7.85-10.27-4.98-1.99,1.35-3.13,3.72-3.33,6.08-.2,2.41,.62,4.88,2.22,6.69,1.57,1.7,3.58,3.11,5.94,1.97,2.36-1.03,4.68-2.69,7.18-3.63,2.61-1.06,5.44-1.62,8.27-1.56,5.64-.08,10.25,3.92,15.29,5.64,2.45,.89,5.03,1.41,7.65,1.7,10.59,1.12,21.34-2.42,30.04-8.43,1.84-1.28,8.66-6.36,5.58-8.47-1.16-.51-2.59-.61-3.83-1.02-2.64-.76-5.08-2.21-7.03-4.16-4.52-4.44-4.56-10.56-10.73-3.06-3.3,3.47-7.38,6.29-11.89,7.95-1.07,.49-1.88,.61-1.62,1.87,.48,1.72,1.89,3.12,3.2,4.39,3.85,3.51,8.61,6.1,13.49,8.11,4.92,1.96,10.09,3.4,15.39,3.9,5.29,.55,10.68,.17,15.91-1.04,0,0,.05,.19,.05,.19h0Z"/>
      <path d="M44.44,29.98c10.42,2.43,21.44,1.03,31.25-3.06,5.9-2.59,12.11-5.74,15.84-11.06,.64-1.02,.86-2.17,.29-2.52-2.21-1.19-4.99-2.04-7.11-3.54-3.47-2.08-6.21-5.34-9.05-8.05-2.42-1.78-4.14,1.1-5.36,3.01-.76,1.12-1.62,2.22-2.62,3.17-1.97,1.91-4.42,3.35-7.07,4.06-1.23,.39-2.67,.47-3.78,1.04-2.68,2.33,4.11,7.23,5.9,8.5,4.37,3.05,9.29,5.29,14.36,6.85,7.57,2.2,15.86,2.37,23.3-.27,5.02-1.75,9.65-5.72,15.29-5.6,4.24-.1,8.36,1.35,11.97,3.43,2.06,1.06,4.29,2.88,6.54,1.88,8.89-4.22,5.04-19.15-5.2-15.47-3.41,1.29-4.57,6.14-2.06,8.79,1.55,1.73,4.67,1.88,6.26,.14,1.68-1.67,1.02-5.16-1.5-5.55-1.86-.4-3.68,1.36-2.89,3.21,.99,2.06,3.86,1.34,3.28-1.12,0,0,.19-.05,.19-.05,.2,.66,.15,1.44-.28,2.04-.94,1.32-3.07,.7-3.67-.66-.32-.67-.37-1.46-.13-2.18,1.21-3.3,6.13-2.46,6.81,.8,.97,3.11-1.88,6.18-4.99,6.06-5.02,.15-7.56-6.13-5.07-10.07,2.31-4.06,8.11-4.93,11.9-2.46,5.21,3.3,5.72,11.25,1.72,15.71-1.09,1.27-2.47,2.31-4.09,2.95-1.37,.42-2.84,.26-4.14-.27-4.75-2.28-9.16-5.42-14.62-5.2-5.46-.12-9.64,3.68-14.72,5.28-2.62,.9-5.35,1.4-8.07,1.64-10.96,.97-21.72-3.13-30.58-9.31-2.2-1.6-4.38-3.29-5.91-5.58-.79-1.14-1.37-3.09,.08-4.03,1.27-.69,2.62-.73,3.93-1.17,2.53-.72,4.85-2.11,6.68-3.97,1.41-1.41,2.39-3.14,3.46-4.83,.73-1.23,1.99-2.5,3.58-2.5,2.33-.07,3.79,2.23,5.26,3.53,1.87,1.86,3.97,3.46,6.18,4.85,1.68,1.05,3.43,1.86,5.29,2.56,1.59,.53,3.35,1.52,3.01,3.59-.37,2.3-2.04,3.98-3.58,5.47-2.05,1.89-4.33,3.42-6.69,4.79-11.71,6.71-26.2,9.34-39.23,5.37,0,0,.05-.19,.05-.19h0Z"/>
      <path d="M98.31,13.62c-.12,5.27-3.82,10.48-8.95,12.03-1.53,.54-3.14,.67-4.63,1.06-.2,.07-.05,.06-.07-.16,.2,.19,1.09,.65,1.69,.79,4.73,1.33,10.09-.14,13.89-3.04,1.92-1.44,3.29-3.45,5.15-5.37,3.71-4.17,10.39-4.31,14.85-1.43,0,0-.08,.18-.08,.18-3.59-1.02-7.32-1.24-10.56,.55-2.13,1.19-3.51,3.2-5.23,4.98-4.49,5.18-11.82,6.27-18.19,4.76-.75-.2-3.18-.7-2.17-1.93,1.49-.9,3.26-1.17,4.75-1.95,4.69-1.87,7.78-5.73,9.35-10.52,0,0,.2,.04,.2,.04h0Z"/>
      <path d="M43.31,13.58c2.12,6.56,6.44,9.9,12.84,11.86,.54,.25,1.51,.36,1.51,1.21-.13,.47-.36,.53-.51,.64-3.02,1.35-6.37,1.38-9.64,1.18-3.95-.26-7.78-2.33-10.46-5.26-2.42-2.69-4.74-5.63-8.51-6.13-2.34-.42-4.85-.1-7.29,.6l-.08-.18c4.46-2.88,11.14-2.74,14.85,1.43,1.86,1.92,3.24,3.93,5.15,5.37,3.81,2.9,9.16,4.37,13.89,3.04,.58-.13,1.53-.63,1.69-.8-.03,.12,.06,.21,.04,.2-1.52-.44-3.18-.54-4.74-1.1-2.51-.83-4.86-2.47-6.42-4.67-1.58-2.19-2.4-4.8-2.52-7.37,0,0,.2-.04,.2-.04h0Z"/>
    </g>
  </g>
</svg>