<?xml version="1.0" encoding="UTF-8"?>
<svg id="_633222ff0de0ba8ce580ce9d" data-name="633222ff0de0ba8ce580ce9d" xmlns="http://www.w3.org/2000/svg" xmlns:xlink="http://www.w3.org/1999/xlink" viewBox="0 0 50 50">
  <defs>
    <clipPath id="clippath">
      <rect width="50" height="50" fill="none"/>
    </clipPath>
  </defs>
  <g clip-path="url(#clippath)">
    <rect width="50" height="50" fill="#0e1a1e"/>
    <path d="M71.2779836,43.9872043c.0662947,6.9085294-29.7917021,27.1814484-60.9695756,20.1441329-11.8060599-2.6648026-36.6737419-12.1510859-37.0652046-29.2761398C-27.1849168,16.1264652,1.940559,.4481725,10.3084079,5.5790576c3.0284047,1.8569225,2.6294196,6.0049123,7.2518878,8.0576532,5.014353,2.2267726,9.1094333-1.0443048,13.1608335,2.1487075,2.0303804,1.6001864,1.9989175,3.2075368,4.297415,4.0288266,2.4466318,.8742239,3.660874-.5258655,6.4461225,0,3.0178413,.5697668,4.9481322,2.8470309,6.1775341,4.297415,3.8659014,4.5607904,2.0800645,7.598984,4.8345919,9.4005954,3.4272116,2.2415922,6.7986203-2.06479,12.0864797,.2685884,3.6897632,1.6281863,5.4438093,5.2233271,5.6403572,5.6403572,.0000082,.0000164,1.0519605,2.2320185,1.0743538,4.5660035Z" fill="#012a4a"/>
    <path d="M57.3113847,43.7186159c-11.3082675-3.6343045-19.0583981,12.0876109-33.5735549,14.7723641C3.9834158,62.1447926-22.0949751,40.5034562-20.3106741,25.454602-19.1791291,15.9111223-6.7105817,7.9095344-2.5838371,10.145061c4.0352835,2.1859696-.3320681,13.9292712,4.297415,16.3838948,4.6089561,2.4437384,12.0819101-7.5285418,17.4582485-4.8345919,3.9978842,2.003233,2.1460456,8.6600427,6.1775341,10.4749491,4.6912772,2.1119373,9.7450604-5.7557991,15.309541-3.7602381,4.1605266,1.4920724,2.8612726,6.4377783,7.2518878,8.8634185,5.9558552,3.2903723,11.4777541-4.0803181,20.1441329-1.6115306,6.003986,1.7103497,10.8449058,7.3819854,9.9377722,9.6691838-.1990807,.5019476-.8676748,1.3266964-4.5660035,1.6115306-7.6993768,.5929962-13.3219677-2.3253293-16.1153063-3.2230613Z" fill="#013a63"/>
    <path d="M56.5056194,43.181439c.8869615,2.262215-19.2750278,20.4762947-41.7655022,15.309541-2.9641326-.6809464-14.8384257-3.408847-21.0841924-14.100893-6.4909675-11.1117975-3.2948408-24.6489564-1.6115306-24.8444306,1.4466949-.1679989,1.6159561,9.5371027,6.9832994,11.2807144,4.9210586,1.5986291,9.1539719-5.138344,13.9665988-3.2230613,3.6903165,1.4686463,2.4343635,5.9205194,6.4461225,8.0576532,4.9672242,2.6461305,9.3480465-2.870834,15.309541-.2685884,3.5066947,1.5307115,2.8807479,3.828041,6.714711,6.1775341,6.8679641,4.2087599,14.5263329,.2989817,15.0409526,1.6115306Z" fill="#01497c"/>
    <polygon points="26.3532884 8.8892263 25.5969897 8.8518508 25.1374434 9.4536829 24.9392804 8.7228505 24.2248965 8.4717724 24.8587237 8.0574685 24.8767564 7.3004616 25.4666462 7.7752402 26.1921749 7.5584623 25.9229196 8.2661955 26.3532884 8.8892263" fill="#012a4a"/>
    <polygon points="34.6633144 15.6207995 34.2470991 15.2519721 33.7073091 15.3857464 33.9294672 14.8759281 33.635436 14.4038958 34.1889526 14.4576383 34.5470214 14.032132 34.6669553 14.5751649 35.1822852 14.7842198 34.7028918 15.0660901 34.6633144 15.6207995" fill="#012a4a"/>
    <polygon points="19.3797659 17.3882847 19.0601107 17.2541109 18.7683641 17.44137 18.7971922 17.0958979 18.5289435 16.8762966 18.8664154 16.7969569 18.9923752 16.4739768 19.1721162 16.7704143 19.5182123 16.7904029 19.2918265 17.052951 19.3797659 17.3882847" fill="#0e1a1e"/>
    <polygon points="45.4818335 39.102834 45.192801 39.0177081 44.9588194 39.2075469 44.950463 38.9063554 44.6976113 38.7424891 44.9814792 38.6414684 45.0591898 38.3503546 45.2429862 38.5891119 45.5438658 38.57306 45.3735903 38.8216408 45.4818335 39.102834" fill="#0e1a1e"/>
    <polygon points="3.4024581 47 2.9624291 47.0054356 2.7174476 47.3710026 2.5763016 46.9541898 2.1529233 46.834165 2.5057193 46.5711249 2.4890386 46.1313785 2.8482246 46.3856236 3.2612936 46.2338702 3.1304867 46.6540424 3.4024581 47" fill="#0e1a1e"/>
    <polygon points="15.8447954 37.9742889 15.578947 37.8841371 15.3539686 38.0520283 15.3575564 37.771333 15.1283602 37.609247 15.396426 37.5259195 15.4797535 37.2578537 15.6418395 37.4870499 15.9225348 37.4834621 15.7546436 37.7084405 15.8447954 37.9742889" fill="#0e1a1e"/>
    <polygon points="43.1907144 7.8840232 42.9098263 7.9649048 42.8172148 8.2421467 42.6534927 8 42.3612014 7.9975937 42.5409037 7.7670573 42.4528692 7.4883282 42.7276535 7.5879955 42.9655365 7.4181377 42.9556602 7.710272 43.1907144 7.8840232" fill="#012a4a"/>
    <path d="M23.200653,21.157187c.1253435-.1772939,.6442295,.1692448,2.1487075,.5371769,1.6777905,.4103088,2.3850359,.3100964,2.4172959,.5371769,.0470796,.3313749-1.3729768,1.1507139-2.6858844,.8057653-1.2432728-.3266536-2.0690297-1.6129077-1.8801191-1.8801191Z" fill="#0e1a1e"/>
    <path d="M33.8117488,21.060368c-.1253435-.1772939-.6442295,.1692448-2.1487075,.5371769-1.6777925,.4103088-2.385038,.3100964-2.4172959,.5371769-.0470817,.3313749,1.3729768,1.1507139,2.6858844,.8057653,1.2432748-.3266536,2.0690318-1.6129077,1.8801191-1.8801191Z" fill="#0e1a1e"/>
  </g>
</svg>