<?xml version="1.0" encoding="UTF-8"?>
<svg id="_Шар_2" data-name="Шар 2" xmlns="http://www.w3.org/2000/svg" xmlns:xlink="http://www.w3.org/1999/xlink" viewBox="0 0 50 50">
  <defs>
    <clipPath id="clippath">
      <rect width="50" height="50" fill="none"/>
    </clipPath>
  </defs>
  <g id="_633220ba0de0ba8ce580ce75" data-name="633220ba0de0ba8ce580ce75">
    <g clip-path="url(#clippath)">
      <rect width="50" height="50" fill="#0e1a1e"/>
      <g>
        <path d="M-3.4524191-16.7971922c-.0442816,.0793595,11.9523043,2.7829561,17.6649042,12.5723192C16.627752-.085965,16.8428168,3.474155,21.2147895,7.8700164c3.3379017,3.3561403,6.5263419,4.6128622,6.5248745,4.6151552-.0025048,.0039181-9.4426381-3.4450392-13.0497491-11.4583163-.7836282-1.7408482-.9702098-2.9823284-2.3871492-5.2517283-.6076729-.9732622-2.1963113-3.3442818-6.3657313-6.6840178C.9691651-14.8881898-3.4241941-16.8477757-3.4524191-16.7971922Z" fill="#013a63"/>
        <path d="M6.030517-9.5784177c-.0319415,.0572442,8.6215315,2.0074241,12.7421897,9.0687656,1.7421996,2.9855101,1.8973318,5.5535243,5.0509581,8.7243821,2.4077219,2.4208779,4.707633,3.3273866,4.7065746,3.3290405-.0018068,.0028262-6.811239-2.4850031-9.4131491-8.2652041-.5652529-1.2557225-.6998395-2.1512369-1.7219175-3.7882186-.4383315-.7020413-1.5842608-2.4123241-4.5917801-4.8213691-3.5834632-2.8703797-6.7525161-4.2838838-6.7728756-4.2473966Z" fill="#01497c"/>
        <path d="M7.4628065-.8255372c-.0319415,.0572442,8.6215315,2.0074241,12.7421897,9.0687656,1.7421996,2.9855101,1.8973318,5.5535243,5.0509581,8.7243821,2.4077219,2.4208779,4.707633,3.3273866,4.7065746,3.3290405-.0018068,.0028262-6.811239-2.4850031-9.4131491-8.2652041-.5652529-1.2557225-.6998395-2.1512369-1.7219175-3.7882186-.4383315-.7020413-1.5842608-2.4123241-4.5917801-4.8213691C10.6522189,.5514796,7.4831661-.8620245,7.4628065-.8255372Z" fill="#01497c"/>
        <path d="M-12.8012548-13.2014861c-.0442816,.0793595,11.9523043,2.7829561,17.6649042,12.5723192,2.4152669,4.1389079,2.6303317,7.6990279,7.0023044,12.0948894,3.3379017,3.3561403,6.5263419,4.6128622,6.5248745,4.6151552-.0025048,.0039181-9.4426381-3.4450392-13.0497491-11.4583163-.7836282-1.7408482-.9702098-2.9823284-2.3871492-5.2517283C2.3462571-1.6024291,.7576187-3.9734487-3.4118012-7.3131847c-4.9678694-3.979299-9.3612285-5.9388849-9.3894536-5.8883014Z" fill="#013a63"/>
        <path d="M-3.3183187-5.9827117c-.0319415,.0572442,8.6215315,2.0074241,12.7421897,9.0687656,1.7421996,2.9855101,1.8973318,5.5535243,5.0509581,8.7243821,2.4077219,2.4208779,4.707633,3.3273866,4.7065746,3.3290405-.0018068,.0028262-6.811239-2.4850031-9.4131491-8.2652041-.5652529-1.2557225-.6998395-2.1512369-1.7219175-3.7882186-.4383315-.7020413-1.5842608-2.4123241-4.5917801-4.8213691C-.1289063-4.6056948-3.2979592-6.0191989-3.3183187-5.9827117Z" fill="#01497c"/>
        <path d="M-1.8860291,2.7701688c-.0319415,.0572442,8.6215315,2.0074241,12.7421897,9.0687656,1.7421996,2.9855101,1.8973318,5.5535243,5.0509581,8.7243821,2.4077219,2.4208779,4.707633,3.3273866,4.7065746,3.3290405-.0018068,.0028262-6.811239-2.4850031-9.4131491-8.2652041-.5652529-1.2557225-.6998395-2.1512369-1.7219175-3.7882186-.4383315-.7020413-1.5842608-2.4123241-4.5917801-4.8213691C1.3033832,4.1471857-1.8656696,2.7336815-1.8860291,2.7701688Z" fill="#01497c"/>
        <path d="M27.2620446,22.298294c.9301551-.317828,1.8785537-.5103152,2.7995619-.5785862-1.0739113,.4764338-2.1814024,1.1300352-3.4836805,2.120025-6.3940723,5.2657419-8.9529164,14.2903553-4.3913288,22.1358509,3.2328846,5.7917287,9.6282525,7.995081,16.1872859,7.0077896,5.2444107-1.1650374,8.9682923-4.94524,10.4325004-9.8341589,1.8196999-7.5181644-2.9337139-15.9250584-11.1910225-16.2383094-6.9426859-.1355051-12.3366819,6.0961971-11.1575643,13.2166289,.5895588,3.5602159,4.3556812,5.4080764,7.7381512,6.1331403-5.8339696-2.3951785-7.9581379-10.4465806-3.8646843-14.9800077,5.5858223-5.6703039,15.7473125-1.6190911,17.1182563,6.0627389,1.740516,6.9286056-4.2148784,13.352134-10.7739119,14.3394255-4.8748386,.4118129-9.9555837-1.6137935-12.6129898-5.7213274-3.6024567-5.0385043-3.0832993-10.8583936-.4962946-16.1309648,3.5179751-6.2176219,10.2547545-8.5195362,16.8278682-7.6308066,7.3263382,1.2583016,12.0656718,7.7891746,13.4366156,15.4710046,.8236258,9.7496773-7.3773617,16.9405104-16.2712778,18.6581227-.6678067,.1343621-1.1433452,.2013209-1.6202227,.2389951-3.3381429,.2637191-6.7419029-.9075124-9.6587517-3.1620309-.9703871-.7488661-1.8866724-1.6180971-2.1310825-1.9641617-2.7020198-3.9596291-5.3594258-8.067163-5.6897865-12.7843719-.0707799-.6997044-.0959446-1.2686798-.0976181-1.8306571-.0200816-6.7437279,3.3190456-12.6213707,8.8999764-14.5283389Z" fill="#012a4a"/>
        <path d="M30.2247261,25.7112444c.7482375-.2556679,1.5111504-.4105089,2.2520298-.4654276-.8638782,.383254-1.7547686,.9090255-2.8023501,1.7053953-5.143534,4.2358799-7.2019251,11.4954796-3.5324825,17.8065709,2.6006043,4.6589954,7.7451804,6.431421,13.0214129,5.6372218,4.2187206-.937182,7.2142938-3.9780611,8.3921353-7.9108162,1.4638071-6.0477787-2.3599447-12.8104712-9.0023074-13.0624573-5.5848509-.1090033-9.9239014,4.9039166-8.9753929,10.6317503,.4742542,2.8639168,3.5038068,4.3503769,6.2247409,4.9336345-4.6929749-1.9267349-6.4017031-8.4034618-3.108838-12.0502514,4.4933597-4.5613186,12.6674884-1.3024329,13.7703062,4.877002,1.4001097,5.5735244-3.390542,10.7407536-8.6667744,11.5349528-3.9214286,.3312715-8.008493-1.2981714-10.1461695-4.602363-2.8978963-4.0530849-2.4802745-8.7347333-.3992304-12.9761069,2.8299374-5.0015934,8.2491526-6.8533044,13.5367115-6.1383906,5.8934694,1.0122058,9.7058948,6.2657853,10.8087125,12.4452203,.662543,7.8428573-5.9345138,13.6273234-13.0889778,15.0090089-.5371986,.1080838-.9197323,.161947-1.3033432,.192253-2.6852764,.2121415-5.4233367-.7300232-7.7697147-2.543608-.7806009-.6024046-1.5176812-1.3016333-1.7142902-1.5800153-2.1735648-3.1852138-4.3112413-6.4894054-4.5769908-10.2840331-.0569369-.5628578-.07718-1.0205542-.0785261-1.4726213-.0161541-5.4248047,2.6699141-10.1529113,7.159339-11.686919Z" fill="#014f86"/>
        <path d="M16.8466159,38.6329697l-1.2261766-.2605032c.2742299-.4454669,.5207306-.909844,.7041015-1.3794761-3.2799211-.6811904-6.4450668-1.2668751-9.3964642-2.852478l-.6785511-.3748691,.7697752-.0530981c3.4141826-.2104288,6.4930736,.3571452,9.8088212,1.045324,.020863-.5077539-.0245707-1.0374314-.1299507-1.5557195l1.2236595,.2471441-.450253,2.1525378-7.3996719-1.0786184,7.2361097,1.9068072-.4613996,2.2029495Z" fill="#024066"/>
        <path d="M30.280441,20.8794889l-.2524472-1.2278605c.5180127,.0728404,1.0422454,.1126988,1.5460068,.0926081-.6896006-3.2781632-1.4207379-6.4129059-1.1500576-9.7523094l.0716928-.7718929,.356983,.6840588c1.5603483,3.0440493,2.2735311,6.0925047,2.9710785,9.4062941,.4735996-.1842625,.9407325-.4380526,1.3734182-.7422081l.2636796,1.2202032-2.1526671,.4496342-1.9755964-7.2121828,1.1512322,7.3940423-2.2033229,.4596131Z" fill="#024066"/>
        <path d="M2.1146856,28.3971193c-.0743582,.0327112,1.9230319,7.9912248,5.0339884,7.9105533,1.9512239-.0505994,3.487062-3.2416166,3.3559923-3.3559923-.1193466-.104145-1.5218033,2.4289378-3.3559923,2.3971374-3.0120037-.0522179-4.9641805-6.9824051-5.0339884-6.9516983Z" fill="#780000"/>
        <path d="M8.2273859,28.9964036c1.9947309-1.0502217,8.1289826,7.2236624,8.0304101,7.3112689-.0936766,.0832557-5.9448648-7.1132059-7.9105533-5.9928434-.515416,.2937642-.7088703,1.1280767-.8389981,1.0787118-.1905354-.0722879-.0799034-1.9764422,.7191412-2.3971374Z" fill="#780000"/>
        <path d="M31.3597614,13.5348677c1.1791351-1.4456454,.4422612-3.5467691,.7191412-3.595706,.3054123-.0539828,1.891376,2.3806355,.7191412,4.0751335-1.15431,1.6685884-3.9135199,1.0733715-3.9552766,.8389981-.0322631-.1810454,1.5578412-.1424818,2.5169942-1.3184255Z" fill="#780000"/>
        <path d="M29.6817652,6.1037419c.2060954,.1279076-.7146385,1.294588-.9588549,3.3559923-.2551604,2.1537695,.4358254,3.5314889,.2397137,3.595706-.2493135,.081639-1.7765064-2.0106311-1.3184255-4.1949904,.3584989-1.7094856,1.8116098-2.8969421,2.0375668-2.756708Z" fill="#780000"/>
        <ellipse cx="26.3257729" cy="4.6654594" rx=".3390064" ry=".6780128" transform="translate(4.4116624 19.981614) rotate(-45)" fill="#780000"/>
        <ellipse cx="4.2721093" cy="27.9176918" rx=".5085096" ry=".847516" transform="translate(-18.4895174 11.19774) rotate(-45)" fill="#780000"/>
        <ellipse cx="1.755115" cy="26.1198388" rx=".3390064" ry=".5085096" transform="translate(-17.9554538 8.8913774) rotate(-45)" fill="#780000"/>
        <ellipse cx="9.7855252" cy="38.7048099" rx=".5085096" ry=".1695032" transform="translate(-24.5023196 18.2557876) rotate(-45)" fill="#780000"/>
        <circle cx="35.1951811" cy="14.2540089" r=".5085096" fill="#780000"/>
        <path d="M-23.4149423-10.1599542c-.0442816,.0793595,11.9523043,2.7829561,17.6649042,12.5723192C-3.3347712,6.551273-3.1197064,10.111393,1.2522663,14.5072544c3.3379017,3.3561403,6.5263419,4.6128622,6.5248745,4.6151552-.0025048,.0039181-9.4426381-3.4450392-13.0497491-11.4583163-.7836282-1.7408482-.9702098-2.9823284-2.3871492-5.2517283-.6076729-.9732622-2.1963113-3.3442818-6.3657313-6.6840178-4.9678694-3.979299-9.3612285-5.9388849-9.3894536-5.8883014Z" fill="#013a63"/>
        <path d="M-13.9320062-2.9411797c-.0319415,.0572442,8.6215315,2.0074241,12.7421897,9.0687656C.5523831,9.113096,.7075153,11.6811102,3.8611416,14.8519681c2.4077219,2.4208779,4.707633,3.3273866,4.7065746,3.3290405-.0018068,.0028262-6.811239-2.4850031-9.4131491-8.2652041-.5652529-1.2557225-.6998395-2.1512369-1.7219175-3.7882186-.4383315-.7020413-1.5842608-2.4123241-4.5917801-4.8213691-3.5834632-2.8703797-6.7525161-4.2838838-6.7728756-4.2473966Z" fill="#01497c"/>
        <path d="M-12.4997167,5.8117008c-.0319415,.0572442,8.6215315,2.0074241,12.7421897,9.0687656,1.7421996,2.9855101,1.8973318,5.5535243,5.0509581,8.7243821,2.4077219,2.4208779,4.707633,3.3273866,4.7065746,3.3290405-.0018068,.0028262-6.811239-2.4850031-9.4131491-8.2652041-.5652529-1.2557225-.6998395-2.1512369-1.7219175-3.7882186-.4383315-.7020413-1.5842608-2.4123241-4.5917801-4.8213691-3.5834632-2.8703797-6.7525161-4.2838838-6.7728756-4.2473966Z" fill="#01497c"/>
      </g>
    </g>
  </g>
</svg>