<?xml version="1.0" encoding="UTF-8"?>
<svg xmlns="http://www.w3.org/2000/svg" xmlns:xlink="http://www.w3.org/1999/xlink" viewBox="0 0 50 50">
  <defs>
    <clipPath id="clippath">
      <rect x="-70" y="0" width="50" height="50" fill="none"/>
    </clipPath>
  </defs>
  <g id="_633222180de0ba8ce580ce8a-2" data-name="633222180de0ba8ce580ce8a">
    <g clip-path="url(#clippath)">
      <g>
        <path d="M3.9440709,4.986494c-2.3309209,.8149969-.8280284,5.4622168-3.5770728,7.728109-2.7011174,2.2263778-6.3465743-.4513977-8.5269875,1.7749904-1.8159919,1.8542925,.1147232,4.3223913-1.3955992,7.1357231-2.5094104,4.6743422-11.9517285,5.5211778-13.2866648,3.1575855-1.1854741-2.0989573,4.1281986-6.54289,2.7846963-8.3237459-.8783017-1.1642205-3.3383342,.4843815-5.3520632-.7988786-3.0128213-1.9199369-.4418368-8.6198773-2.1706368-9.3204477-1.2625813-.5116416-4.0862653,2.3822921-5.5574722,5.7433749-1.2556219,2.8685637-.7663365,4.3416846-1.1999433,9.5150199-.3087668,3.6839221-.9762161,11.6471615-3.3835843,12.0899725-1.6759189,.308265-3.1212162-3.225695-4.3586125-2.7803616-1.1569074,.4163556-.5820418,3.7532761-.8010459,7.3346299-.4842792,7.9192829-4.5172035,11.5870739-3.5824912,12.6845258,1.2255228,1.438896,9.9656455-2.7441069,39.8762497-24.3420068l.0002483-.0001843C-1.0752455,22.4939831-.533842,19.8197728,2.3441465,17.6731872c4.4463737-3.316386,8.6703027-1.0476415,9.9171683-3.9542967,.3200567-.7461064-.0335533-.7200526,.0054184-4.9564168,.028905-3.1419596,.2354855-4.4684301-.3913117-4.7585936-.6925213-.3205901-1.3297973,1.1203578-3.1738406,1.5825856-2.2675782,.5683802-3.2940828-1.1116538-4.7575099-.5999717Z" fill="#780000"/>
        <ellipse cx="8.3994277" cy="9.9477874" rx="2.2165783" ry="1.5516048" transform="translate(-3.556407 4.7934808) rotate(-26.502415)" fill="#c1121f"/>
        <path d="M1.1496215,22.2317902c.0682767,.3151549,.7532094,.4340589,1.1891066,.3978138,1.3491536-.1121758,2.1596124-1.8640572,1.8858225-2.1787644-.3659929-.4206932-3.2250379,1.0880861-3.074929,1.7809506Z" fill="#c1121f"/>
      </g>
    </g>
  </g>
  <g id="_6332228b0de0ba8ce580ce93" data-name="6332228b0de0ba8ce580ce93">
    <rect width="50" height="50" fill="#0e1a1e"/>
    <polygon points="0 0 50 50 0 50 0 0" fill="#012a4a"/>
    <g>
      <polygon points="4.1618661 1.5039196 .4602877 5.3225992 2.8492163 11.3416427 8.9397233 13.5420065 12.6413017 9.7233269 10.2523731 3.7042834 4.1618661 1.5039196" fill="#014f86"/>
      <path d="M19.966985,18.0403253c-1.4525182,1.5302216-.9129334,.9616365-2.3654572,2.4918734-.041315-.0349404-.0810463-.0664582-.1223612-.1013986-.0148204-.0139318-.0330899-.0262548-.0479257-.0401922-2.7957299-2.3196452-5.5889672-4.6383661-8.3846971-6.9580114l3.4738585-3.5842681c2.4443142,2.6837095,4.8817721,5.3706168,7.3226484,8.0559043,.0148358,.0139374,.0262489,.0294583,.0401701,.0459092,.0287625,.0303729,.055017,.0598159,.0837642,.0901833Z" fill="#4e3025"/>
      <path d="M25.0749678,16.9359598l-1.3745555-1.3333256c-.4619895-.4496155-1.2028144-.4376675-1.6524299,.024322l-2.2049317,2.2772765-2.4118098,2.4863752-2.2188593,2.2921332c-.4496155,.4619895-.4367529,1.2003008,.0252366,1.6499164l1.3745346,1.3333353c.4645031,.4505301,1.2028144,.4376675,1.6524453-.0243164l1.720366-1.7739929,1.5708111-1.6208357,.0687359-.0716611,1.74914-1.8061836,1.729046-1.7822026c.4471173-.4628986,.4376731-1.2028297-.0277293-1.6508407Zm-1.5640628,3.2043206l-1.9222268,1.9848999-1.648227,1.7007064-.2861079,.2940021c-.4496308,.461984-1.1879421,.4748466-1.6524453,.0243164l-1.2864332-1.2472492c-.4645031-.4505301-.4748521-1.1879268-.0268356-1.6533445l.7905374-.8128114c.041315,.0349404,.0810463,.0664582,.1223612,.1013986,1.4525237-1.5302369,.912939-.9616518,2.3654572-2.4918734-.0287472-.0303674-.0550017-.0598104-.0837642-.0901833l.6635845-.6827051c.4480166-.4654177,1.1879421-.4748466,1.650831-.0277502l1.2889523,1.2481485c.4619895,.4496155,.4714184,1.1895411,.0243164,1.6524453Z" fill="#444443"/>
      <path d="M33.0251418,27.4067413l-3.1227671-.1379377-3.314264-.1439738-5.0333815-4.8790308,1.8182589-1.8757788c3.2193552,2.3457903,6.4353461,4.6882998,9.6521537,7.0367211Z" fill="#838283"/>
      <path d="M40.7209193,33.0140464c.5116655,1.8814668,1.2527166,4.0828169,2.339404,6.4909154,1.2992894,2.881,2.7722195,5.3453435,4.1491294,7.3522605,.139623,.2020539,.2724972,.397566,.4104847,.5877616,.051625,.0756934,.1058014,.1487546,.1565984,.2185088l-10.4738005-10.1526135-.4798872-.4754442-.0051341,.0052965-5.0673115-4.9119186,2.9278669,.1286112,5.3178094,.2284647c.2418895,.1780323,.4829509,.3501254,.7248404,.5281577Z" fill="#838283"/>
      <polygon points="4.5994991 3.7014978 2.6704269 5.6915972 4.6217225 9.5130624 8.5020903 11.3444283 10.4311626 9.3543289 8.4798669 5.5328637 4.5994991 3.7014978" fill="#2c7da0"/>
      <path d="M23.5109051,20.1402805l-1.9222268,1.9848999-1.648227,1.7007064-.2861079,.2940021c-.4496308,.461984-1.1879421,.4748466-1.6524453,.0243164l-1.2864332-1.2472492c-.4645031-.4505301-.4748521-1.1879268-.0268356-1.6533445l.7905374-.8128114c.041315,.0349404,.0810463,.0664582,.1223612,.1013986,1.4525237-1.5302369,.912939-.9616518,2.3654572-2.4918734-.0287472-.0303674-.0550017-.0598104-.0837642-.0901833l.6635845-.6827051c.4480166-.4654177,1.1879421-.4748466,1.650831-.0277502l1.2889523,1.2481485c.4619895,.4496155,.4714184,1.1895411,.0243164,1.6524453Z" fill="#515150"/>
      <path d="M19.966985,18.0403253c-1.4525182,1.5302216-.9129334,.9616365-2.3654572,2.4918734-.041315-.0349404-.0810463-.0664582-.1223612-.1013986l2.4040542-2.4806581c.0287625,.0303729,.055017,.0598159,.0837642,.0901833Z" fill="#515150"/>
      <path d="M39.9960789,32.4858888l-5.3178094-.2284647-2.9278669-.1286112-5.1622912-5.0039856,3.3142647,.1439767,3.1227633,.1379394c2.3247903,1.6941468,4.6461492,3.3849986,6.9709395,5.0791454Z" fill="#a7a7a6"/>
      <path d="M17.6517935,19.5962083c-1.7355517-1.4405532-3.4710926-2.8811054-5.2066443-4.3216586l2.114532-2.1814263c1.5107302,1.6621097,3.0214649,3.3242146,4.5321952,4.9863241-.8838944,.9309578-.5561885,.585803-1.4400829,1.5167608Z" fill="#5d392f"/>
      <path d="M4.8789798,8.3563968c1.4058814,1.582263,3.5242558,1.6131065,3.5438912,1.4362613,.0176439-.1588712-1.6576985-.4929127-2.549357-1.9163103-.1052758-.1680609-.5637725-.899966-.4462481-1.581954,.1786213-1.0366251,1.5413136-1.1063818,1.461102-1.3073898-.101901-.2553583-2.5467397-.7588193-3.0146417,.6291002-.3853458,1.143046,.8923737,2.613252,1.0052536,2.7402926Z" fill="#479cba"/>
      <path d="M47.8443714,47.1124804c-1.6660334-.5587164-1.9187359-.6853595-2.5115713-.9457143,.328609,.0943894-.6427824-.6806041-2.9263189-2.5666307,1.2483086,.9546435-1.7397912-1.4722071-2.3564124-1.3415942,.1405521-.2189187-.585882-.9593763-1.0814089-1.4381667s-1.1052157-.9598424-1.766381-1.4517366c-1.3302527-.9950832-4.3107948-4.9077023-4.0832257-3.1501158-.4739948-1.2118775-.7810984-1.906748-1.2541674-2.3686714s-1.7371743-1.4439356-2.2499594-.9709889c.2740773-.7076082-.6512315-1.8142689-.3472392-1.0809515-1.4375536-1.6147367-2.6510213-3.142428-2.7079977-2.0210945-.4945743-1.6577438-.8166781-1.9628848-2.4919349-2.7325485,1.149443,.1635568-.2966098-.9079722-1.8142208-2.2311679,.5005181-.0472337-1.3167007-2.0922395-1.137651-2.4306614,.3154714-.1960617,2.2195854,1.5018231,2.5115717,.9457146,1.2067912,1.4975183,2.1699141,3.0149551,2.3651504,1.6357184,.5387749,1.9222665,.9187208,2.2598153,2.9175811,2.2725068-1.3386359,.5731692,.2290711,1.4421374,2.00141,2.5843467-.859071-.0203088,.5493234,.8323021,1.3282411,.2211077-.4558563,.8924404,.4150076,1.9731272,.924768,2.4134311,.5097604,.4403039,1.3114921,.6152248,2.6765958,.8211331-1.8584087,.3947991,2.3019488,2.6346664,3.3537053,3.9051555,.5247215,.6347215,1.0432744,1.2124178,1.5720778,1.6596544s1.1531102,.9083721,1.6335806,.8768965c-.3324757,.6594381,1.8280602,3.8803935,1.4829066,2.3943572,1.4684379,2.4895674,2.0049506,3.8002751,2.8232494,2.5693596-.5523837,1.5892092-.4252183,1.7604433,1.1376507,2.430661Z" fill="#014f86"/>
      <path d="M28.5284013,28.2247157c-.3994867-.1681145-.8581089-.3378395-1.2922959-.4730735-.9848303-.3100138-1.8575897-.4512838-1.7147624-.015437-1.9793987-.9136042-2.843002-1.1425219-3.0079632-.4859761-.3801132-1.1591469-1.1488484-2.0473964-2.5284157-3.3825456-.0148358-.0139374-.0296771-.0278594-.0445129-.0417967l1.648227-1.7007064c.0114132,.015521,.0219117,.0335555,.0333193,.0490918l.0025136,.0009146c.1227843,.1783174,.2574466,.3552814,.4014633,.5299566,.2923861,.3452587,.6240294,.6763557,.9924576,.9611162,0,0,.0015836,.0034226,.0040972,.0043372,.4992085,.3863935,1.0673888,.6926554,1.686047,.8523695,.1119667,.6066108,.4896879,1.2018642,.9890987,1.7361856,.001599,.0034282,.0040972,.0043372,.0056961,.0077654,.1470006,.1587001,.306784,.3135124,.4752264,.4601247,.1568101,.139516,.3213856,.2733358,.4887049,.399615,.6409633,.4891561,1.3253337,.8746639,1.861099,1.0980588Z" fill="#014f86"/>
      <path d="M32.1390015,31.7279199c.6306376,.8143897,2.8303871,3.5044582,2.7761662,2.6910333,.9897137,1.7202302,1.4692721,2.1782673,2.7761662,2.6910333-1.3068942-.512766,.1761089,.4927309,2.2432628,2.2271701-.185816,.1334023,2.8841952,2.8635047,4.16606,4.1361737l2.2432617,2.2271691,2.0537547,2.0416086-2.0562184-.8920896-3.4730804-1.5074231c-1.98462-.8613858-4.8640268-2.982445-6.4500113-2.7995021-1.7973476-1.6514125-2.6598884-2.8954299-3.473081-1.5074233,.8131927-1.3880066,.8610375-1.4510656,.0394932-.0407426,.021048-2.4856817-1.4602181-3.3451617-3.4406552-4.6218563,.0682926-1.291148-2.2940247-3.0798358-3.4427737-4.6196708,0,0,1.5094138-.0063701,3.0188276-.0127401,1.5094399-.0063464,3.6494652,.8016496,3.0188276-.0127401Z" fill="#014f86"/>
      <path d="M27.2911784,26.2810937c.5125245,.9523736,1.8671911,2.7821402,2.8989474,2.8100496,.515105,1.4715166,1.7753712,2.3992328,2.8989474,2.8100496-1.1235762-.4108168-2.5621039-.5531137-3.5328325,.1611245-.8952168-.6291367-2.3047032-.3775719-3.5328325,.1611245,.7755412-1.1660994-.5602709-1.8487749-2.0591632-2.8493469,.3487461-.5886217-1.3590781-1.8910948-2.0617321-2.8466968,.0167608,.0089102,1.917854,.3113037,2.6943327-.1231522,1.6770957,.3223082,3.2068571,.8292214,2.6943327-.1231522Z" fill="#0a5b8c"/>
      <path d="M44.5363958,41.0447811c.4021568,.3830101,1.9254401,1.1151369,2.5780249,.3749075,1.2896271,1.3446895,2.0650258,2.4078907,2.8855794,2.5839234-.5978505,1.1872987-.8516083,1.8335209-.7910415,2.9873096-.693074-.1641358-1.1629288,.4593275-1.9810627,1.5051589-.043756-1.0978832-.4533946-1.7085013-1.341854-1.7826487,1.0160602-1.3360631,2.4432599-1.5409415,2.5033144-2.9722868,.0234112,.3703675-.6809657-.5839299-1.8978198-1.882746-.2374911,.6125488-1.5955882-.3129995-1.9551405-.8136179Z" fill="#012a4a"/>
      <path d="M31.2711907,41.5524895c.8205801,.5215458,.9311502-.5263453,.8223436-2.2599957,.3957457,1.7702555,.4004711,2.738987,.7073241,1.9635214,.0177286,1.3067393,.2486232,1.4104741,1.7347705,1.484304-.6804568,.3778782,2.4712193,.8351928,3.6069204,1.0280906-1.1338086-.2061023-4.0315656-.6049933-3.1746638-.2588487-2.0767295-.5457242-2.6662987-.7458341-3.6966947-1.9570715Z" fill="#012a4a"/>
      <path d="M46.339761,37.6516713c-.9636139,.4249784-1.513295-1.0738447-2.3834401-3.5406082-1.1074505,.9217582-2.4098188-.5666845-2.7978676-1.7570072,.3316517,1.2544213,.9149862,1.9918996,1.088397,.8622393,.7007218,1.9251379,1.1489713,3.142352,1.0342193,1.9006218,.0135512,2.4189411-.7521764,3.2956486-3.0997944,2.7554293,.1827142,1.4735629-3.2040997,1.4136587-5.9853069,1.3263931-.8155286,.1915612-3.8039391-.3400546-4.681908-1.4135534-.8379783-1.0246004-.8524122-2.6768861-1.0268023-2.6484856-.1880939,.0306341-.3983962,1.9897249,.2504665,3.2190745,.5712132,1.082236,2.379633,1.8093419,3.613688,2.2036614,2.0451117,.3914206,6.1381312,.3329056,5.7760103,.3673856,3.0944844-.2271771,4.6727919-.4678443,5.4816701-1.0941638,.7080998,.0552103,1.5145524-.5320628,2.730668-2.1809867Z" fill="#012a4a"/>
      <path d="M24.2420254,29.6109782c.0078602-.0012706-.0891402,1.0664729,.0628633,2.3141399,.1520036,1.247667,.5530112,2.6752576,1.5568877,3.3936811,1.1806769,.844949,5.496497-.8508235,5.1489975-.0638438,2.3629207-1.4981412,3.3551066-2.1272897,5.7203251-3.2142549-.9495466-.0510804,2.2339057-2.3228783,2.327742-3.2942091-.5200578-.4563262-2.2025542-.2203033-2.9340007-1.1842475-1.5035412,.7633827-2.5628811,1.2346991-2.6134371,.0187776,.0333625,1.3272561,2.2913998,1.5204217,3.2644382,1.1878297-.7066651,1.5167992-2.1111173,3.0701307-1.7175566,1.9659163-1.2581714,1.635012-1.8253802,1.8869741-3.8765331,1.6857236,1.3021422,.4175854-.8323284,.5264286-2.9764166,.605579,.2833266,.0623642-2.4235667-.0622861-3.1876179-.8579778-.9487052-.9879955-.7852044-2.555577-.7756917-2.5571141Z" fill="#012a4a"/>
      <path d="M20.6357492,25.4551846c.1023038,.1447442-.0051535,.8100761-.2968879,1.5355232,.3457709,.8285811,.8894435,1.696923,.8668326,2.3685156,1.3198115,.5786509,3.5754638,.0397466,4.0142043,.6147517,1.5891741-.9423479,2.8339699-1.3072069,4.8148848-1.8622107-.1019728-.6123325,1.9274392-1.7160367,2.2670747-2.6770073-.4169166-.6289493-1.5310996-1.2093194-2.1846692-2.0990583-1.2938698-.0116593-2.3065393-.0978993-2.2209468-.641443-.2242834,.7749913,1.1813421,1.8517305,1.8031381,2.0778968-.6423562,1.2621489-1.7348269,2.171197-1.7528066,1.8425419-1.0902603,.8814978-1.7543143,1.0805404-2.9735758,.9873985,.2291145,.284303-1.1831994,.3672619-2.7852209-.1603832-.0138993-.422342-1.0690648-1.933158-1.5520275-1.9865253Z" fill="#012a4a"/>
      <path d="M4.5640246,22.7351108c-2.043416-1.1538588-2.3826889-1.7407365-3.5920688-4.3945449,.7837165,1.4212978-.6765168-3.105818-.9266344-3.5055483,.0916196,.4395357,.8416295,3.0665362-.0453215,2.1038626,1.0205064,2.4852204,2.1500037,4.2178591,1.1171939,4.4639763,1.2525869,.2491476,1.6059031,1.717164,3.5375581,4.2088467-.7886853-1.7817191,.9522005-.1900201,1.688885,.8732876,.4371978-.6121109,2.7577131-.083955,2.6713673,.4289175,1.6253294-.6146488,2.5161206-1.2198154,2.631179-.9107053,.6988732-.8673927,1.3829828-1.6392169,2.0196803-1.8218036-.0577661-.4219839,1.2418094-1.7472378,2.1031276-1.9960747-.1533808-.2985675,1.301905-1.3662763,2.881521-1.4335185,.0908573-.1882733,1.0079082-.2602347,2.0343594-.210112s2.1961094,.2005018,2.8936019,.3914262c1.2796848,.3794796,2.0962334,.8433538,2.1491442,.6876814,.0734376-.2160647-2.1055636-1.4073603-3.4780706-2.3624536-1.2095746-.3695483-2.4980355-.4943378-3.7420141-.548862-1.2439787-.0545242-2.5691496,.1620569-3.4751211-.1272703-.2225189,1.1729646-1.665513,2.411808-3.0661593,1.9174621,.4459641,1.1824345-1.1824838,1.4573542-2.6334722,1.0119104-.1250054,.9505025-1.0210711,1.0402454-1.5496812,.973056-.4059098,.3054477-2.4683904-.2360463-3.1154097-.2773321-.6470061-.0412811-.7920548,.0516263-.1036648,.5277986Z" fill="#012a4a"/>
      <path d="M4.4492566,22.9521601c.2861507-.242308-1.006366-.7542951-1.7264697-1.3509579-.0371177-.3766255-.7162067-1.1880556-1.2077414-2.2891261,.6382874,1.1788368-.5432592-2.5802616-.7471869-2.9116752,.0734967,.3651726,.6791278,2.5469037-.0458896,1.7499172,.4142649,1.0313536,.8923802,1.9258803,1.0793301,2.5491628,.2657376,.6555186,.3150991,1.0729525-.1794607,1.1588293,.582932,.1174877,1.3713281,.5598167,1.2392471,1.0445802,.8589879,.5926672,1.8395592,1.2600597,1.6509255,2.4412859,.3077183-1.5409234,1.7123991-.6017072,1.3844781,.7193571,1.0322784-1.0501049,2.472463-.9282998,2.1937889,.3457507,1.1042606-1.3334056,1.5405472-1.72043,2.1662617-.7682194-.2082468-1.2430561,.2896956-1.6037889,1.6674243-1.5234448-1.0538088-.4224719,.3698281-1.3194566,1.7367245-1.6687299-.8743819-.0370618,1.0558925-1.1342644,2.3741605-1.2040578,.6592865-.6861554,1.254436-.9116048,1.6603474-.9953391,.6947109-.1433074,1.0783964,.0782984,2.5382897,.0572723,.5481353-.0078979,1.1695278-.0168473,1.1899899-.1445549,.0157507-.0982864-.3199757-.2945186-2.0088127-.7309458-1.093405,.0754702-2.2589129,.1189319-3.4889401,.1156072-.9975498-.0026929-2.3835467,.2985038-2.8556204-.0915733-.5299044,1.2345273-2.3688796,2.7129047-2.5278983,1.6072997-.3629171,1.4875052-1.3369802,1.7782535-2.168563,.8523992,.109892,1.1631143-.3136829,1.1981845-1.277652,.8156285,.5275699,.4971771-1.2211635,.0326376-2.5593639-.2178515,.5076088,.2010005,.4125622,.2615005-.087369,.4393857Z" fill="#013a63"/>
      <path d="M31.3887868,24.8181605c-1.3886685,1.0177061-2.6813017,2.1429576-1.0862513,1.0558141-2.1709672,1.6161882-3.0506832,2.212824-3.1379099,1.9568693-.351869,.4245251-1.4602317,.4817431-3.7442997,.9124269,2.28531-.2578696,3.2802432-.3632317,2.6938493,.4114939,1.0565853-.8386536,1.6124721-1.0549844,3.9544227-2.2860362-1.7548759,.5852311,.022568-.9465632,1.3201888-2.050568Z" fill="#013a63"/>
      <path d="M35.7707547,31.5310682c.041348,.0798823-3.0139541,1.7985386-3.7630701,2.4579122-2.5619439,1.0126362-4.4739648,1.394387-5.9631652,.8275975,.4083164-.1968257-.1384778-.7123399-.8900671-1.4613001,1.0426044,.1935468,2.1732199,.7436939,3.8810349,.2747587,.503645,.5798767,3.4329475-.3858111,4.8200513-1.014242,.8914151-.4514089,1.8885619-1.1362222,1.9152162-1.0847263Z" fill="#013a63"/>
      <path d="M40.2210902,38.8375686c.9629695,1.441746-.9262094,1.1522006-3.3422192,.9417654,1.5229645,.3842069,.1167971,.2926761-1.0870448,.2901398,1.2266585,.2905314,5.1628479,.4950582,3.7805198,.5436437,2.2420213-.0730441,2.8868966-.2157112,4.9636327-1.9116399-1.752799,1.1389516-1.2018766,.4838253,.2057469-1.3469247-1.6280414,1.5911921-2.1689708,2.1350644-1.4557752,.20981-1.1929717,2.1239758-1.4822056,2.4882433-3.0648603,1.2732058Z" fill="#013a63"/>
      <path d="M47.6623935,44.9575277c.6253374-.0663944,.7721097-.1520378,1.2443733-.6846422-.2115093,.627485-.1397858,.7865344,.5134012,1.3242428-.7650298-.2303376-.9179576-.1365135-1.2443733,.6846422,.0512584-.9212771,.005517-1.0981717-.5134012-1.3242428Z" fill="#013a63"/>
      <path d="M43.8497262,45.2763618c-1.5195518-.8507945-2.9247708-1.4374917-2.4650985-2.6031219-1.0257482,.3590879-.983108,.0988081-1.1411777-1.5526716-.276701,1.378803-.7966666,1.0322882-2.3049601-.2322042,.7736719,1.4471539,.2334611,1.4819309-1.347968,.8935205,1.5578364,.949213,2.7299216,1.4348296,2.5794739,1.5073079,1.2435571,.4370217,1.8624114,.7583309,3.6662869,1.6914697-1.197032-.6692589-.601061-.397838,1.0134436,.2956997Z" fill="#2a6f97"/>
      <path d="M37.1163911,37.9922211c-1.4686715-.5088874-1.5862725-.5132614-2.214632,.6159526,.4638704-1.1890665,.3536991-1.2583894-1.3009169-1.8951538,1.7080556,.4898993,1.8486284,.4930509,2.214632-.6159526-.2017531,1.1687692-.114441,1.2397479,1.3009169,1.8951538Z" fill="#2a6f97"/>
    </g>
  </g>
</svg>