<?xml version="1.0" encoding="UTF-8"?>
<svg id="_633221700de0ba8ce580ce82" data-name="633221700de0ba8ce580ce82" xmlns="http://www.w3.org/2000/svg" xmlns:xlink="http://www.w3.org/1999/xlink" viewBox="0 0 50 50">
  <defs>
    <clipPath id="clippath">
      <rect width="50" height="50" fill="none"/>
    </clipPath>
  </defs>
  <g clip-path="url(#clippath)">
    <rect width="50" height="50" fill="#0e1a1e"/>
    <path d="M51.5,34.2642866v15.7357134H-1.5V11.3999939c1.6959976-.907135,3.5095679-1.3999939,5.3963636-1.3999939,6.7820732,0,12.6448335,6.3535636,15.4278158,15.5714199,1.9022172-1.5142822,4.0202881-2.3571341,6.2540024-2.3571341,5.8319292,0,10.8852326,5.7571411,13.3425053,14.1499983,2.1932373-2.8250122,4.9550224-4.5071411,7.9538583-4.5071411,1.630477,0,3.189634,.4964338,4.6254545,1.4071437Z" fill="#012a4a"/>
    <path d="M37.0508981,23.6963727c-.2269095,4.7344569-5.3830331,7.857052-6.5677052,8.574504-2.4303139,1.4718276-3.7629983,1.6918557-4.3784701,1.6875354-.5866098-.00412-2.2694573-.1072971-5.1082151-2.4172804-2.7599608-2.2458678-5.6082752-4.5636233-5.8379601-7.8447589-.3309691-4.7280208,4.8588602-10.2620393,10.9461753-10.2620393,6.0535565,0,11.1814973,5.352061,10.9461753,10.2620393Z" fill="#013a63"/>
    <path d="M46.7482434,47.0776828c-1.7171784,1.5472657-8.7868858-9.7417003-20.2216777-9.6895539-11.7491517,.0535863-18.8912096,12.0384026-20.6429627,10.5321238-1.9178796-1.6491413,5.8152861-16.726612,12.2172636-16.0088282,2.7016402,.3029014,3.1773342,3.1957128,6.7405592,3.7915646,4.524757,.7566364,6.5301546-3.4444365,10.5321238-3.3702796,6.9859595,.1294659,13.1355974,13.1582893,11.3746937,14.7449733Z" fill="#013a63"/>
    <polygon points="42.695031 27.5869673 43.1541532 29 44.6399037 29 43.4379063 29.8733022 43.8970284 31.2863349 42.695031 30.4130327 41.4930336 31.2863349 41.9521558 29.8733022 40.7501584 29 42.2359089 29 42.695031 27.5869673" fill="#014f86"/>
    <polygon points="43.3291655 4.5869673 43.7882876 6 45.2740381 6 44.0720407 6.8733022 44.5311629 8.2863349 43.3291655 7.4130327 42.1271681 8.2863349 42.5862902 6.8733022 41.3842928 6 42.8700433 6 43.3291655 4.5869673" fill="#2c7da0"/>
    <polygon points="8.8281836 12.0579782 9.134265 13 10.1247654 13 9.3234338 13.5822015 9.6295152 14.5242233 8.8281836 13.9420218 8.026852 14.5242233 8.3329335 13.5822015 7.5316019 13 8.5221022 13 8.8281836 12.0579782" fill="#01497c"/>
    <polygon points="8.2982669 27.5869673 8.757389 29 10.2431395 29 9.0411421 29.8733022 9.5002643 31.2863349 8.2982669 30.4130327 7.0962695 31.2863349 7.5553916 29.8733022 6.3533942 29 7.8391447 29 8.2982669 27.5869673" fill="#014f86"/>
    <polygon points="26.2982669 7.5869673 26.757389 9 28.2431395 9 27.0411421 9.8733022 27.5002643 11.2863349 26.2982669 10.4130327 25.0962695 11.2863349 25.5553916 9.8733022 24.3533942 9 25.8391447 9 26.2982669 7.5869673" fill="#014f86"/>
    <polygon points="37.8634963 11.0579782 38.1695778 12 39.1600781 12 38.3587465 12.5822015 38.6648279 13.5242233 37.8634963 12.9420218 37.0621647 13.5242233 37.3682462 12.5822015 36.5669146 12 37.5574149 12 37.8634963 11.0579782" fill="#2c7da0"/>
    <polygon points="16.2050844 8.6910262 16.3581251 9.1620371 16.8533752 9.1620371 16.4527094 9.4531378 16.6057502 9.9241487 16.2050844 9.633048 15.8044186 9.9241487 15.9574593 9.4531378 15.5567935 9.1620371 16.0520436 9.1620371 16.2050844 8.6910262" fill="#01497c"/>
    <polygon points="20.2050844 25.5289891 20.3581251 26 20.8533752 26 20.4527094 26.2911007 20.6057502 26.7621116 20.2050844 26.4710109 19.8044186 26.7621116 19.9574593 26.2911007 19.5567935 26 20.0520436 26 20.2050844 25.5289891" fill="#01497c"/>
    <polygon points="43.2050844 14.5289891 43.3581251 15 43.8533752 15 43.4527094 15.2911007 43.6057502 15.7621116 43.2050844 15.4710109 42.8044186 15.7621116 42.9574593 15.2911007 42.5567935 15 43.0520436 15 43.2050844 14.5289891" fill="#01497c"/>
    <path d="M35.105256,15.149095c-.1362115,.211959,4.6455675,1.7192117,4.4407698,2.960419-.4720154,2.8607386-27.0483249,1.973954-27.0483249,1.9736127,0-.0003614,29.8568795,1.1448496,30.2779757-1.6446772,.2178386-1.4430276-7.4993061-3.5556208-7.6704205-3.2893545Z" fill="#61a5c2"/>
    <path d="M43.1422311,17.947612c.0033513-.0049474,3.8913405,1.7956139,3.7507657,2.9172622-.4260106,3.3990932-37.9346624,1.2453333-37.9244083,.8335035,.0100474-.4034612,36.0299544,.7878449,36.2574013-2.0837587,.0563673-.7116499-2.0862324-1.6633568-2.0837587-1.667007Z" fill="#2a6f97"/>
    <path d="M8.377888,21.3009516c.0985896-.2649993-1.4518116-.7117168-1.4701844-1.4701844-.0387287-1.5987807,6.7702624-2.9115107,6.7628482-2.9403688-.0088836-.0345741-9.8195018,1.7087843-9.7032169,3.2344056,.0749472,.9832935,4.2525783,1.6007638,4.4105532,1.1761475Z" fill="#014f86"/>
    <path d="M4.2613717,21.3009516c.0985896-.2649993-1.4518116-.7117168-1.4701844-1.4701844-.0387287-1.5987807,6.7702624-2.9115107,6.7628482-2.9403688-.0088836-.0345741-9.8195018,1.7087843-9.7032169,3.2344056,.0749472,.9832935,4.2525783,1.6007638,4.4105532,1.1761475Z" fill="#2c7da0"/>
    <ellipse cx="25.7260638" cy="24.2413204" rx="10.8793644" ry=".2940369" fill="#61a5c2"/>
    <path d="M47.4847927,19.8307672c-.0292126,.0340267,1.2737141,.7777961,1.1761475,1.4701844-.2242561,1.5914584-7.6535418,1.5353933-7.6449588,1.7642213,.0091393,.2436698,8.4519719,.7954914,8.8211063-.8821106,.2125549-.966002-2.3116729-2.3996202-2.352295-2.352295Z" fill="#61a5c2"/>
    <path d="M-1.5465101,21.0644405c.1288568-.1374242,.6183075,.3798096,1.8957823,.8425699,1.4398697,.5215921,2.2931974,.3988502,2.3170672,.6319274,.0290414,.2835779-1.1866847,.9287862-2.3170672,.6319274-1.337843-.3513451-2.0895553-1.8997678-1.8957823-2.1064248Z" fill="#01497c"/>
  </g>
</svg>