<?xml version="1.0" encoding="UTF-8"?>
<svg id="_633220140de0ba8ce580ce70" data-name="633220140de0ba8ce580ce70" xmlns="http://www.w3.org/2000/svg" xmlns:xlink="http://www.w3.org/1999/xlink" viewBox="0 0 50 50">
  <defs>
    <clipPath id="clippath">
      <rect width="50" height="50" fill="none"/>
    </clipPath>
  </defs>
  <g clip-path="url(#clippath)">
    <rect width="50" height="50" fill="#0e1a1e"/>
    <path d="M37.3843994,7.0750732c-1.5244141,0-3.00177,.1179199-4.4266357,.321228-3.0787354-3.3453369-8.0280151-5.526062-13.6275635-5.526062-6.7678833,0-12.5905762,3.1796265-15.2949829,7.7624512-1.3403931-.1798706-2.755188-.2805176-4.2230835-.2805176-2.9902954,0-5.769165,.4047852-8.1065063,1.0946045-1.2874146-.2815552-2.7272949-.4440308-4.2549438-.4440308-5.3897705,0-9.7590332,1.9661865-9.7590332,4.3916016,0,2.1922607,3.5736694,4.0040894,8.2402344,4.3330688,2.2113037,2.5117798,7.5872803,4.2874146,13.880249,4.2874146,1.8433228,0,3.6010132-.1594849,5.2316284-.4378052,2.9984741,3.77771,8.2685547,6.2932129,14.286438,6.2932129,1.6864624,0,3.3121338-.203064,4.8491821-.5697632,3.4935913,1.9647827,8.1160889,3.1721802,13.2050171,3.1721802,10.8693848,0,19.6807251-5.4616089,19.6807251-12.1987915,0-6.7372437-8.8113403-12.1987915-19.6807251-12.1987915Z" fill="#012a4a"/>
    <path d="M82.5736694,20.96521c0-3.1531982-8.8068237-5.7094116-19.6705322-5.7094116-10.4446411,0-18.9642334,2.3646851-19.6079102,5.3491211-4.2431641,.8607788-7.0118408,2.1856689-7.1866455,3.6832886-3.5357666,.855896-5.8874512,2.0603638-6.3059692,3.4169922-5.0188599,.796814-8.4262085,2.3514404-8.4262085,4.138855,0,.0377197,.0162964,.0742188,.0192871,.1116943-5.085144,.4946899-8.7617798,1.9146118-8.7617798,3.5917358,0,2.0879517,5.6932983,3.7805786,12.7163086,3.7805786,5.8554688,0,10.7733765-1.1782227,12.2511597-2.779541,7.2330322-.0170288,13.3226929-1.4285889,15.2889404-3.3610229,8.5648804-.5082397,14.9801025-2.5731812,14.9801025-5.046875,0-.0790405-.0306396-.1559448-.0435791-.2340698,2.1167603-.5401611,3.7369995-1.210144,4.6785889-1.9608154,6.0044556-.977478,10.0682373-2.8401489,10.0682373-4.9805298Z" fill="#013a63"/>
    <path d="M32.2310791,31.6786499c.0029907-.0374756,.0192871-.0739746,.0192871-.1116943,0-1.7874146-3.4073486-3.342041-8.4262085-4.138855-.4185181-1.3566284-2.7702026-2.5610962-6.3059692-3.4169922-.1748047-1.4976196-2.9434814-2.8225098-7.1866455-3.6832886-.6437988-2.9845581-9.1633301-5.3491211-19.6079102-5.3491211-10.8637085,0-19.6705322,2.5562134-19.6705322,5.7094727,0,2.1403198,4.0637207,4.0029907,10.0681763,4.9804688,.9415894,.7506714,2.5618896,1.4206543,4.6786499,1.9608154-.0129395,.078125-.0435791,.1550293-.0435791,.2340698,0,2.4736938,6.4152222,4.5386353,14.9801025,5.046875,1.9662476,1.9324341,8.0558472,3.3439941,15.2889404,3.3610229,1.4777832,1.6013184,6.3956909,2.779541,12.2510986,2.779541,7.0230713,0,12.7163696-1.692627,12.7163696-3.7805786,0-1.677124-3.6765747-3.0970459-8.7617798-3.5917358Z" fill="#013a63"/>
    <path d="M22.1318874,39.8458212c-1.5181044-.6101201-3.0848702-1.2128135-4.6997521-1.8036537-1.1665961-.4268239-2.3176361-.8326056-3.4518612-1.218478,2.1173572-1.1617919,3.3891226-2.7979258,3.7534911-3.3135132,.4141419,1.0266852,1.0458498,2.3115416,2.0159327,3.6589584,.8135564,1.1299872,1.654837,2.0119362,2.3821894,2.6766864Z" fill="#013a63"/>
    <path d="M11.8556062,34.2196522c.1431333,.2797543,.3122963,.5757696,.5172376,.8718048-.2016852-.2667494-.3741043-.5562722-.5172376-.8718048Z" fill="#4c5c68"/>
    <path d="M27.6750053,28.2568756c-.0097487,.0292858-.0195173,.0585518-.0292858,.0878377-.0032363-.0227735-.0032363-.0455469-.0064925-.0683204,.0130049-.0065124,.0227735-.0130049,.0357784-.0195173Z" fill="#4c5c68"/>
    <path d="M22.9125909,32.7525406c.0065124,.169163,.0130248,.3415623,.0195173,.5107253-.383853,.0130049-.7677061-.1008426-1.0930073-.3448185l-.8262579-.6115678c0,.0065124-.0065124,.0130049-.0065124,.0195173l-.169163-.123616-.8685486-.6245727-.614824-.4489172,.5920506,.3903654,.2244586,.1463697c0-.0097487,.0097686-.0162611,.0097686-.0260098l1.0702338,.7221591c.491208,.3318136,1.0832586,.4619221,1.6622844,.3903654Z" fill="#0a3956"/>
    <path d="M12.4281395,35.1695261c.1333648,.169163,.2797543,.3285574,.4391487,.4782031-.1496258-.1333846-.3187888-.3025476-.4261438-.4554296-.0064925-.0065124-.0097487-.0162611-.0130049-.0227735Z" fill="#4c5c68"/>
    <path d="M13.1242889,35.8656755c-.0390346-.0292858-.1138673-.0910939-.2016852-.169163,.0650444,.0585518,.1301086,.1138673,.2016852,.169163Z" fill="#4c5c68"/>
    <path d="M89.7156982,28.9946899c0-3.6220093-9.1344604-6.5581665-20.4024658-6.5581665-10.8331909,0-19.6696777,2.7160645-20.3374023,6.1442261-4.401062,.9887695-7.2728271,2.5106812-7.4541626,4.230835-3.6672363,.9830933-6.1064453,2.3666382-6.5405884,3.9248657-4.1243896,.7252197-7.18396,1.9988403-8.2833862,3.5169678-1.8067627-.9587402-4.3577881-1.7550049-7.4182129-2.2926025-.5096436-1.8340454-3.3817139-3.4665527-7.7077026-4.6236572-.2164917-2.0206909-3.6044922-3.810791-8.7844849-4.9735107-.7845459-4.0339355-11.2310181-7.2283325-24.0094604-7.2283325-13.2891235,0-24.0621338,3.4543457-24.0621338,7.7154541,0,2.8922119,4.9659424,5.4111938,12.3099976,6.7321777,1.1486816,1.0111694,3.1251831,1.9142456,5.7029419,2.6429443-.0161133,.1065674-.0270996,.213562-.0270996,.3213501,0,3.3433838,7.8471069,6.1365356,18.3265991,6.8227539,2.4077148,2.6100464,9.8552856,4.5162354,18.7001953,4.5393066,1.8076782,2.1639404,7.8236084,3.7561035,14.9863281,3.7561035,8.538269,0,15.4627075-2.2598877,15.5474243-5.0576172,1.3008423-.4870605,2.2717285-1.0697632,2.8079834-1.7133179,7.5021362-.0195312,13.8183594-1.6410522,15.8577881-3.8606567,8.8835449-.5838013,15.5375366-2.9558105,15.5375366-5.7971191,0-.0907593-.0317993-.1790771-.0452271-.2688599,2.1954956-.6204834,3.8760376-1.3900757,4.8526611-2.2523193,6.2279053-1.1228027,10.4428711-3.2623291,10.4428711-5.7208252Z" fill="#014f86"/>
    <g>
      <path d="M30.6457194,25.549039c-.1854042,.58102-.3643358,1.2815592-.4814394,2.0916678l-.7872233,.6341329v.0066467l-2.3649461,1.8991158c-.2700056,.2124719-.5790258,.3452846-.8945783,.3718512-.061808,.0066264-.123616,.0132732-.1854241,.0165965-.0064925-.1726524-.0130049-.3486079-.0195173-.5212603-.5790258,.0730328-1.1710764-.0597596-1.6622844-.3984177l-1.0702338-.7370556c0,.0099498-.0097686,.0165965-.0097686,.0265463l-.2244586-.1493889-.5920506-.3984177-.7189029-.5312304-.4879518-.3652044-.6733759-.4946937c-.1561581-4.4223943,2.1372313-8.8049489,6.0733679-11.5606395,.6928931,.614213,1.6818017,1.626864,2.5080794,3.1076219,1.2849437,2.31413,1.4248209,4.4456376,1.5842153,6.9091565v.0232432c.0032562,.0232432,.0032562,.0464865,.0064925,.0697297Z" fill="#0a3956"/>
      <path d="M44.9687409,36.9156794c-.6017993,.2927592-1.271919,.6766122-1.9648121,1.180845-1.4833727,1.0799825-2.4787936,2.2868571-3.1163911,3.22047-.1626506-.4619221-.4196314-1.0930073-.8099968-1.8086739-3.4384361,1.9225412-9.0563942,3.7962595-14.9541066,3.7669935-2.5861485-.0065124-8.9392707-.4131389-13.1779549,.5920506-.1040789-.0488031-.2146901-.0845815-.3317937-.1040988l-.7774746-.1496457c-.8652925-.1659068-1.7045751,.3968778-1.8769943,1.2621703l-.0552956,.2895228c-.1008426,.0683005-.1919364,.152882-.2797543,.2407197-.1106111,.1040988-.845795,.8392827-1.0377116,.7091542-.2016852-.1366209,2.1307189-5.0746908,3.6758996-8.13253,.0325222,.0162611,.061808,.0292858,.0943302,.0455469,.6278488-1.4443381,1.1092882-2.4918183,1.213387-2.5666312,1.6427671-1.3012048,2.9472281-1.8314474,2.9472281-1.8314474,.4846956-.1951728,1.1190369-.4163752,1.8802306-.5725333,.0195173-.0064925,.0390346-.0097487,.0585518-.0130049-.1105913-.0520395-.1789117-.0845815-.2309511-.1138475,0,0-.0195173-.0130248-.0455469-.0260297-.0065124-.0065124-.0162611-.0130049-.0260297-.0162611-.0032562-.0032562-.0130049-.0097686-.029266-.0227735-.0715766-.0552956-.1366408-.1106111-.2016852-.169163-.0162809-.0130049-.0357982-.029266-.0553155-.0487833-.1593944-.1496457-.3057839-.3090401-.4391487-.4782031-.0227735-.0260297-.0390346-.0520395-.0552956-.0780691-.2049413-.2960352-.3741043-.5920506-.5172376-.8718048-1.3760177-2.9504843-.4424049-7.8234899,.7189228-11.7921686,.2862666-.9661549,.5790258-1.8672257,.842519-2.6414442,.061808-.1756754,.1203599-.3480747,.1756754-.5139815,.0195173-.0552956,.0390346-.1106111,.0585518-.1626506,.091074-.2537445,.1789117-.4944642,.260237-.722179,.0455469-.1301086,.0910939-.2569808,.1333648-.3773407,.061808-.1626506,.1203797-.3187888,.1724192-.4651783,.0032562-.0162611,.0097487-.0292858,.0162611-.0455469,.0455469-.1138475,.0845815-.2244586,.123616-.3253012,.0065124-.0195173,.0162611-.0390346,.0227735-.0585518,.0715567-.1951728,.1463895-.383853,.2179462-.5692771,.1529019-.3936216,.3057839-.7644499,.4586858-1.1157807,.0650444-.1463895,.1268524-.292779,.1919166-.4326562,.1593944-.3513309,.3188087-.6863808,.4782031-.9986771,.0357784-.0748129,.0748129-.1463697,.1105913-.2179462,.1463895-.2830105,.292779-.5465036,.4391685-.7969919,.0715567-.1268722,.1463697-.2472321,.2179462-.3643358,.2862666-.4716907,.5725333-.8783172,.8490314-1.2328844,.0650642-.0845815,.1301284-.1659068,.1951926-.2407197,.0325222-.0422907,.0650444-.0813253,.1008426-.1171235,.0325222-.0390346,.0650444-.0780691,.0975864-.1138475,.1301086-.1463895,.260237-.2830105,.3871092-.4098827,.1105913-.1105913,.2212024-.2146901,.3285574-.3057839,.0325222-.0325222,.0683005-.061808,.1008426-.0878178,.0943302-.078089,.1854241-.1529019,.2764981-.2212223,.0845815-.061808,.1659068-.1203599,.2472321-.1756555,.0455469-.0292858,.091074-.0585518,.1366209-.0878377,.4586858-.2862666,.875061-.4554098,1.2459092-.5595085,.3383061,1.0377116,.6798684,2.0754233,1.0214505,3.1131349,.6798684,2.0819158,1.3630128,4.1605952,2.0461374,6.2425309,.0065124,.0064925,.0130049,.0097487,.0195173,.0162611-3.9361366,2.699996-6.229526,6.9939758-6.0733679,11.3269902,.0032562,.0455469,.0032562,.091074,.0064925,.1333648l1.3402592,.8815734,.5334789,.3480747,.5920506,.3903654,.2244586,.1463697c0-.0097487,.0097686-.0162611,.0097686-.0260098l1.0702338,.7221591c.2537445,.1821679,.5432474,.3741043,.875061,.5562722,.2244586,.123616,.4456611,.2342073,.6506024,.3253012v.0064925c.0552956-.0064925,.107355-.0064925,.1626506-.0064925,.0488031,0,.1008426,0,.1496457,.0064925,.0097487,0,.0195173-.0032363,.029266-.0032363,.3155525-.0260297,.6245727-.1561581,.8945783-.3643358l2.3649461-1.8607332v-.0065124l.7872233-.6213166c.1171037-.7937357,.2960352-1.4801165,.4814394-2.0493936-.0032363-.0227735-.0032363-.0455469-.0064925-.0683204v-.0227735c-.1593944-2.4137294-.2992715-4.5021575-1.5842153-6.7695172-.8262778-1.4508307-1.8151863-2.4430152-2.5080794-3.0448145,.0065124-.0065124,.0097686-.0097686,.0162611-.0130049-.6831246-2.0851918-1.3695054-4.1703638-2.0526498-6.2555556-.3415623-1.0377116-.6798684-2.0754233-1.0214505-3.1131349,.0455469-.0130049,.0943501-.0227735,.139897-.0357784,.3545672-.0878377,.6928931-.1366209,1.011682-.152882,.1951728-.0130248,.3805968-.0097686,.5562523-.0032562,.6245926,.029266,1.1385542,.1496258,1.4768802,.2309511,4.3915662,1.0604851,6.7142216,5.6992834,7.8007165,7.9406135,.1463895,.3025277,.4001141,.813253,.6928931,1.5094023,0,0,.4651783,1.1060122,.8327703,2.2803447,.2895228,.920608,.5757895,1.8249548,.8295141,2.7097646v.0032562c.982416,3.422175,1.50289,6.580837,.1529019,9.6093904-.2700056,.6050753-.5334987,1.0214505-.6083117,1.1418104-.5757895,.8945783-1.2979486,1.6395308-2.088448,2.2478424,1.2459092-.5400111,3.2888102-1.106032,5.6505001-.461942,3.1814354,.8653123,4.7168674,3.3115837,5.0324001,3.8385701Z" fill="#01497c"/>
      <path d="M34.9426055,25.2698847c-.2861892,.0518399-.218489-6.1171453-4.6569124-12.241046-1.8761372-2.5885943-4.0416733-4.4575356-3.8585869-4.6569019,.1782716-.1941215,2.5001665,1.2851502,4.2577497,3.1933018,5.0700998,5.5044867,4.5850583,13.6453586,4.2577497,13.7046461Z" fill="#035587"/>
      <path d="M17.9223967,16.6221498c-1.1559549,4.0936238-.2337196,7.9664808,.2533536,7.9805821,.5462446,.015799-.3359539-4.8473229,2.7868691-8.1072538,1.0979919-1.1461979,2.3276989-1.7148627,2.5335156-3.1668945,.1740289-1.2278095-.4315669-2.7516459-1.2667578-2.9135309-1.3836026-.2682038-3.4550618,3.1901835-4.3069805,6.2070972Z" fill="#035587"/>
    </g>
    <path d="M36.9630127,45.8620605c-.0029907-.0393066,.0066528-.0794678,.0007935-.1185913-.27771-1.8555908-3.7212524-2.9903564-8.5613403-3.1118164-.6040039-1.3494873-3.0010986-2.2692261-6.4567261-2.6605225-.3968506-1.5300903-3.2045288-2.5162964-7.3257446-2.8132324-1.0684814-3.0078125-9.4419556-4.2645264-19.2570801-2.7958374-10.2090454,1.52771-18.0879517,5.4197998-17.5981445,8.6932983,.3325195,2.2219849,4.4407959,3.5841675,10.2351685,3.7546387,1.0014648,.6468506,2.6281738,1.114624,4.7012329,1.3777466,0,.0829468-.0169067,.1670532-.0046387,.2490845,.3842773,2.5679932,6.7336426,3.8095703,14.8612671,3.1328125,2.1478882,1.7296753,8.0897827,2.3386841,14.8896484,1.3392944,1.6374512,1.4545898,6.4420776,1.986145,11.9445801,1.1627197,6.5997925-.9875488,11.6870117-3.5453491,11.3626709-5.7129517-.2605591-1.7410278-3.9361572-2.6981812-8.791687-2.4966431Z" fill="#2c7da0"/>
    <path d="M65.1134644,41.0931396c0-2.8134766-7.095459-5.0942383-15.8481445-5.0942383-8.4150391,0-15.2790527,2.1097412-15.7976074,4.7727051-3.4185791,.7680054-5.649231,1.9501953-5.7901611,3.286438-2.8486328,.7636719-4.7433472,1.8384399-5.0805664,3.0487671-4.0435791,.7109375-6.7888184,2.0980225-6.7888184,3.6928711,0,.0336304,.0131226,.0661621,.015564,.0996094-4.0970459,.4414062-7.0592041,1.708374-7.0592041,3.2047119,0,1.8629761,4.5869751,3.37323,10.2453003,3.37323,4.7175293,0,8.6797485-1.0512085,9.8704224-2.4799805,5.8274536-.0151367,10.7337036-1.2747192,12.3179321-2.9988403,6.9005127-.4534912,12.0692139-2.2959595,12.0692139-4.5031128,0-.0704956-.0247192-.1390991-.0351562-.2088013,1.7054443-.4819946,3.0108643-1.0797729,3.7694702-1.7495728,4.8375854-.8721313,8.1117554-2.5340576,8.1117554-4.4437866Z" fill="#2c7da0"/>
  </g>
</svg>