<?xml version="1.0" encoding="UTF-8"?>
<svg xmlns="http://www.w3.org/2000/svg" xmlns:xlink="http://www.w3.org/1999/xlink" viewBox="0 0 50 50">
  <defs>
    <clipPath id="clippath">
      <rect x="-70" width="50" height="50" fill="none"/>
    </clipPath>
    <clipPath id="clippath-1">
      <rect width="50" height="50" fill="none"/>
    </clipPath>
  </defs>
  <g id="_633220140de0ba8ce580ce70" data-name="633220140de0ba8ce580ce70">
    <g clip-path="url(#clippath)">
      <path d="M12.5736694,20.96521c0-3.1531982-8.8068237-5.7094116-19.6705322-5.7094116-10.4446411,0-18.9642334,2.3646851-19.6079102,5.3491211-4.2431641,.8607788-7.0118408,2.1856689-7.1866455,3.6832886-3.5357666,.855896-5.8874512,2.0603638-6.3059692,3.4169922-5.0188599,.796814-8.4262085,2.3514404-8.4262085,4.138855,0,.0377197,.0162964,.0742188,.0192871,.1116943-5.085144,.4946899-8.7617798,1.9146118-8.7617798,3.5917358,0,2.0879517,5.6932983,3.7805786,12.7163086,3.7805786,5.8554688,0,10.7733765-1.1782227,12.2511597-2.779541,7.2330322-.0170288,13.3226929-1.4285889,15.2889404-3.3610229,8.5648804-.5082397,14.9801025-2.5731812,14.9801025-5.046875,0-.0790405-.0306396-.1559448-.0435791-.2340698,2.1167603-.5401611,3.7369995-1.210144,4.6785889-1.9608154,6.0044556-.977478,10.0682373-2.8401489,10.0682373-4.9805298Z" fill="#013a63"/>
      <path d="M19.7156982,28.9946899c0-3.6220093-9.1344604-6.5581665-20.4024658-6.5581665-10.8331909,0-19.6696777,2.7160645-20.3374023,6.1442261-4.401062,.9887695-7.2728271,2.5106812-7.4541626,4.230835-3.6672363,.9830933-6.1064453,2.3666382-6.5405884,3.9248657-4.1243896,.7252197-7.18396,1.9988403-8.2833862,3.5169678-1.8067627-.9587402-4.3577881-1.7550049-7.4182129-2.2926025-.5096436-1.8340454-3.3817139-3.4665527-7.7077026-4.6236572-.2164917-2.0206909-3.6044922-3.810791-8.7844849-4.9735107-.7845459-4.0339355-11.2310181-7.2283325-24.0094604-7.2283325-13.2891235,0-24.0621338,3.4543457-24.0621338,7.7154541,0,2.8922119,4.9659424,5.4111938,12.3099976,6.7321777,1.1486816,1.0111694,3.1251831,1.9142456,5.7029419,2.6429443-.0161133,.1065674-.0270996,.213562-.0270996,.3213501,0,3.3433838,7.8471069,6.1365356,18.3265991,6.8227539,2.4077148,2.6100464,9.8552856,4.5162354,18.7001953,4.5393066,1.8076782,2.1639404,7.8236084,3.7561035,14.9863281,3.7561035,8.538269,0,15.4627075-2.2598877,15.5474243-5.0576172,1.3008423-.4870605,2.2717285-1.0697632,2.8079834-1.7133179,7.5021362-.0195312,13.8183594-1.6410522,15.8577881-3.8606567,8.8835449-.5838013,15.5375366-2.9558105,15.5375366-5.7971191,0-.0907593-.0317993-.1790771-.0452271-.2688599,2.1954956-.6204834,3.8760376-1.3900757,4.8526611-2.2523193,6.2279053-1.1228027,10.4428711-3.2623291,10.4428711-5.7208252Z" fill="#014f86"/>
    </g>
  </g>
  <g id="_633221060de0ba8ce580ce7b" data-name="633221060de0ba8ce580ce7b">
    <g clip-path="url(#clippath-1)">
      <rect width="50" height="50" fill="#0e1a1e"/>
      <polygon points="3.7142988 -.0096325 .264291 3.4863063 2.4206794 9.0646714 8.0270757 11.1470976 11.4770836 7.6511588 9.3206951 2.0727937 3.7142988 -.0096325" fill="#014f86"/>
      <polygon points="4.1002743 2.0234571 2.3023077 3.8453605 4.0727207 7.390636 7.6411003 9.114008 9.4390669 7.2921046 7.6686539 3.7468291 4.1002743 2.0234571" fill="#2c7da0"/>
      <path d="M16.0226111,16.8102405c-1.5908694-1.3447122-3.1817288-2.6894234-4.7725981-4.0341356l1.970822-1.9970601c1.3814132,1.5474603,2.7628307,3.0949163,4.1442441,4.6423765l-1.3424679,1.3888193Z" fill="#5d392f"/>
      <path d="M4.3198672,6.3245805c1.2852457,1.4728544,3.2413148,1.5188629,3.2609111,1.3557083,.0176085-.146572-1.5268112-.4689197-2.3384849-1.7908074-.0958322-.1560756-.5132003-.8357848-.3990243-1.4646303,.1735329-.9558483,1.4325599-1.0089958,1.360147-1.1952908-.0919934-.236667-2.3456433-.7218399-2.7892338,.5560367-.3653238,1.0524182,.802491,2.4207273,.9056849,2.5389835Z" fill="#479cba"/>
      <path d="M53.1673899,42.8833976c-1.5606424,5.9495762-21.7244691,10.093517-29.0894312,2.0230281-5.0184312-5.4991687-3.2315321-15.8942465-7.1185425-16.6268987-1.9703901-.3713977-3.0445229,2.1838665-5.1390679,1.6983869-3.8334199-.8885159-3.1541793-10.1240986-6.6189091-10.9553731-2.9113168-.6984958-6.1877634,5.1513207-6.8157134,4.7293654-.7405712-.4976301,1.1208958-8.104941,7.2581696-12.1402906,6.5935667-4.3353696,14.4271455-2.1123798,15.5154645-1.7856355,8.8623777,2.6607401,13.4644969,10.9706706,14.9801123,9.9342234,1.2215591-.8353585-2.2152879-5.9276852-.660719-7.3781717,2.024945-1.8893676,12.1999586,2.6979463,13.5328833,9.535533,.5479851,2.8110242-.8931954,3.4645718-.8902769,7.2033917,.0059347,7.601968,5.968122,10.2472038,5.0460304,13.7624412Z" fill="#012a4a"/>
      <path d="M5.4888368,12.7563243c-.5671241,1.498539,5.7208988,4.1271349,5.2454463,7.4628794-.4356941,3.0568036-6.0176713,2.9655686-7.1980271,6.728182-1.2148376,3.8725309,3.1133092,9.0208393,4.4508186,8.5906197,1.3960378-.4490488-.6911068-6.9031242,1.6330212-8.2191768,2.0696769-1.1719679,6.162912,2.5656768,8.3010607,4.390959,12.6970578,10.8391491,31.6306069,17.6381781,35.1921886,13.8611263,1.550171-1.6439524,.7887593-5.9276427-1.2123065-7.3617949-1.4889298-1.0671096-2.6630197,.16093-4.5492207-.7482504-3.609997-1.7400802-4.1299751-8.5620389-4.2924153-10.6932031-.239012-3.135775,.3068609-3.7830425-.4750682-4.8441443-1.8754482-2.5450317-5.8884147-.0057528-9.8903162-2.1354784-5.0384244-2.6813393-4.9059545-10.021015-7.3616534-9.939588-1.522025,.0504686-1.30902,3.0081596-3.7300985,4.5273379-5.7095217,3.5826088-15.5961039-2.9864216-16.1134294-1.6194682Z" fill="#013a63"/>
      <path d="M35.5656501,38.7028962c.3647841,.1821301,.6138747,.3724174,.6138937,.3724302,.2197595,.1702707,.3432987,.3227427,.5746866,.5090072,.308891,.2486551,.568609,.3784074,.6576745,.427749,.8341008,.4620766,3.3022384,3.1937878,3.271324,3.2195575-.04992,.0416144-7.33001-6.3790746-5.9577312-9.5139152,1.0085245-2.3038839,5.9812678-1.2131747,6.5029178-3.1853898,.4630985-1.7508483-2.8107121-4.8533653-5.4244041-4.6765678-1.6248567,.1099092-2.7505406,1.6430754-3.6859757,1.0816609-.627259-.3764548-.7359079-1.4573731-1.1074395-1.3923767-.2802588,.0490278-.2582161,.5880201-.5892621,.6881265-.4751479,.143692-1.3207239-.7246795-1.5796777-1.7003128-.2267481-.8542909,.0121693-1.7309362,.2047938-1.743116,.2699724-.0170676,.2755336,1.6748594,1.0489319,1.8904121,.4619593,.128752,.7010124-.4077153,1.5922411-.5702879,.786996-.1435637,1.0710992,.188925,1.7552177,.2062145,1.5657329,.0395731,2.0573484-1.8293552,2.9922454-1.6680738,1.0664637,.1839798,.8765368,2.6070531,2.1856331,3.0337809,1.067319,.3479083,1.6999485-1.0977285,2.9044794-.9210291,1.8687807,.2741441,1.8518285,4.3219841,4.0160518,4.7635547,.732714,.1494918,1.2140269-.2078469,1.7552127,.2062163,.6020325,.4606134,.8641166,1.5590649,.488927,2.3295225-.6301739,1.2941047-2.6629436,.8512127-3.0215034,1.9170917-.2480185,.7372722,.4324774,1.8174507,1.2704214,2.1688857,1.1349997,.4760399,2.0084166-.6158308,2.8459618-.42299,2.2992155,.5293712,4.0939241,10.6864622,.455363,13.4335369-3.1391724,2.3700609-10.7132838-.4804547-18.1329839-7.9368438-.0000237-.0000026-3.8575485,.0437206-4.1749011-1.247865-.0067112-.0273021-.0513238-.2348156-.1481862-.508865-.0561985-.1589769-.1322661-.3445508-.2362768-.5461178-.9190442-1.7810721-2.5971535-2.0545295-2.4948868-2.5652047,.1025751-.5121989,1.9397602-.9811154,3.0674532-.1445114,.1336276,.0991287,.7747111,.600445,.8566993,1.3629139,.0702662,.6534387-.3182724,1.0507176-.1462794,1.2450837,.2151871,.2431789,.950917-.228594,1.8429844-.540832,.000025-.0000093,2.902952-1.0160804,5.7963942,.4285544Z" fill="#780000"/>
      <path d="M15.968767,17.6749709c-2.614056-2.2095799-5.2280956-4.4191582-7.8421516-6.6287381l3.2383797-3.2814931c2.2698856,2.5427279,4.5397783,5.0854487,6.8096641,7.6281763-1.353933,1.4006802-.8519592,.8813747-2.2058922,2.282055Z" fill="#4e3025"/>
      <rect x="12.7125237" y="15.8262426" width="11.2295002" height="3.9262869" rx="1.7155832" ry="1.7155832" transform="translate(-7.2079879 18.3385932) rotate(-45.3788692)" fill="#444443"/>
      <path d="M19.6050641,19.2894313l4.6079784,4.5474353-4.0621029-.2127054c-.6940266-.9239523-1.3935538-1.8485475-2.0875804-2.7724998l1.5417048-1.56223Z" fill="#70706f"/>
      <path d="M28.9390358,28.5007661l5.08307,5.0162847,7.9282533,7.9961908,1.8819178,1.9002326-1.8447702-.8882531-12.0186797-5.7890644,.0334522-.0338976c-2.1300951-2.8288126-4.2570631-5.6545392-6.3895508-8.4809275l5.3263075,.2794345Z" fill="#70706f"/>
      <path d="M30.1553225,24.1504681l-2.882739-.1532209-3.059541-.1603806-4.6079784-4.5474353,1.6946834-1.7172452c2.9536758,2.1929786,5.9042771,4.3828938,8.855575,6.578282Z" fill="#838283"/>
      <path d="M37.2160082,29.3924915c.4569597,1.7417723,1.1231114,3.7808553,2.1067487,6.0137304,1.1760637,2.6713596,2.5159318,4.9593722,3.7709093,6.824156,.1272707,.1877524,.2483629,.3694075,.3742214,.5461951,.0470497,.0703301,.0964773,.1382505,.1428114,.2030889l-9.5885933-9.462611-.4392439-.4430439-.0047851,.0048488-4.6390409-4.5780897,2.7028288,.1429939,4.9091209,.2549801c.2219128,.1664144,.44311,.327337,.6650228,.4937513Z" fill="#838283"/>
      <polygon points="34.0221057 33.5170508 44.256568 43.6170449 43.9651095 43.4776222 43.8322768 43.4134742 34.0221057 33.5170508" fill="#70706f"/>
      <path d="M34.0221057,33.5170508l9.5885933,9.462611c.1196422,.170653,.2361951,.3382574,.3544105,.4979604,.0625714,.0856479,.1220347,.1682286,.1815024,.2508427l-.3143351-.3149907-9.8101711-9.8964233Z" fill="#70706f"/>
      <rect x="14.6371331" y="15.9364463" width="7.2745787" height="3.8129897" rx="1.6660787" ry="1.6660787" transform="translate(-7.2618344 18.3169129) rotate(-45.37887)" fill="#515150"/>
      <line x1="19.6050641" y1="19.2894313" x2="16.2701718" y2="15.9983554" fill="none"/>
      <path d="M24.2130425,23.8368666l4.7259932,4.6638995-5.3263075-.2794345c-1.1523379-1.5339903-2.3070728-3.0655897-3.4617887-4.5971705l4.0621029,.2127054Z" fill="#838283"/>
      <path d="M36.5509854,28.8987401l-4.9091209-.2549801-2.7028288-.1429939-4.7259932-4.6638995,3.059541,.1603806,2.882739,.1532209c2.1329349,1.5837811,4.2627281,3.1644909,6.395663,4.748272Z" fill="#a7a7a6"/>
      <path d="M25.6724048,34.5436529c-.0129717,.1975146,.6163863,.2943013,1.3434623,.6226008,2.0057082,.9056491,1.7622591,2.4858072,3.1838756,3.1074978,1.608723,.7035121,3.1599158-.6359725,3.757346,.1092729,.4713408,.5879663-.4290636,1.5029625,.0655071,2.2063502,.5768778,.8204465,2.1271553,.0381324,3.3422788,1.0049144,.6341595,.5045533,.8157281,1.1980393,.9283951,1.5182423,1.2442066,3.5361195,10.6884547,8.7360367,12.2440574,7.0342592,.6385407-.6985443-.6353498-1.9014325,.0928961-4.3089336,.3995719-1.3209562,.9841488-1.5915204,.9175244-2.5667809-.1165343-1.7057886-2.0545669-3.0691219-2.5121445-2.7961974-.2720283,.1622522,.1192216,.819252-.2785468,1.7749062-.2488731,.5979234-.7707069,1.2264818-1.0704215,1.1359287-.465306-.1405897-.3153432-1.9903009-.2894175-2.310117,.120144-1.481928,.5017828-1.7536626,.26217-2.3264938-.429548-1.0269036-1.9687351-.6655481-2.2554805-1.5892555-.4143277-1.3346975,1.6056719-2.8552345,1.1086812-3.5661892-.3340902-.4779217-1.4126365,.0698148-1.8950498-.606224-.3721396-.5215031,.0054156-1.0175987-.3768075-1.5346191-.5711151-.7725285-2.0452813-.518779-2.222727-.4860804-1.0432675,.1922536-2.0452839,.9154942-1.9496862,1.272449,.0706631,.2638486,.7463284,.3473776,1.2233187,.2949236,.7359738-.0809337,.8812433-.4827035,1.3107087-.4805743,.8465674,.0041941,1.9266524,1.5636108,1.8567901,3.0364845-.0287312,.6057468-.2215264,.5551061-.909336,2.8425747-.2679928,.8912765-.314474,1.1535219-.2867352,1.4991124,.0641617,.7993635,.4466397,1.0067969,.4969511,1.8622962,.0243354,.4137978,.0648834,1.1033146-.3986904,1.447229-.4550578,.337593-1.2388358,.2256554-1.5509958-.17478-.3413715-.4379039,.1266516-.9060441-.1528972-1.4308523-.422121-.7924725-1.8082169-.323792-2.2391038-1.037668-.4820007-.7985576,.7740524-2.2135344,.3659368-2.5504041-.2561598-.2114399-.7373681,.3225242-1.4308523,.1528972-.7319172-.1790294-.8782445-.7882335-1.359839-1.1741883-1.5223299-1.2200072-4.3676618,1.659992-6.1712298,.404055-1.0759605-.749257-.7718778-1.9500861-2.0643237-2.5886638-1.3115588-.6480163-3.0642894-.1226929-3.0856149,.2020275Z" fill="#c1121f"/>
      <path d="M31.5352287,21.8927167c.0582984-.2472022,.251519-.6279745,.5870942-.6799195,.2782641-.043073,.5068418,.1627937,.6717311,.3113004,.4296329,.3869466,.705043,1.0243125,.5324577,1.1987535-.1400642,.1415671-.4501068-.1482839-.8273813,.0245652-.2669121,.1222852-.2712079,.3404304-.431444,.344054-.2760117,.0062405-.6661003-.6320757-.5324577-1.1987535Z" fill="#780000"/>
      <ellipse cx="30.8580622" cy="19.5389047" rx=".4935723" ry=".6169654" transform="translate(.1553437 39.3210147) rotate(-65.1355767)" fill="#780000"/>
      <circle cx="26.2515227" cy="16.8600979" r=".2467862" fill="#780000"/>
      <path d="M19.8688719,31.9905834c-.0199295-.2189864,1.1000591-.6736945,1.5321777-.297603,.1512981,.1316809,.0749583,.2404773,.2424987,.429893,.355699,.4021386,.9235578,.1647213,1.1298369,.496038,.1109903,.1782729,.0869455,.4724547-.0455427,.5578214-.2279849,.1468967-.6114553-.4312136-1.5141872-.8113607-.8085152-.3404758-1.3312833-.2264157-1.3447834-.3747887Z" fill="#c1121f"/>
      <path d="M27.1962946,18.9299277c-.1279306,.0895207-.3020519,.1018541-.4219472,.0573601-.4573274-.1697175-.5666626-1.3298984-.2825375-1.4718356,.2442063-.1219961,.9328688,.4314105,.9120183,.9666547-.0018854,.0483995-.0121172,.3110748-.2075336,.4478208Z" fill="#780000"/>
      <ellipse cx="23.1520719" cy="31.4716618" rx=".2467862" ry=".3701792" transform="translate(-15.1297976 23.6625392) rotate(-42.1304215)" fill="#c1121f"/>
      <path d="M21.5246275,30.5814556c-.0908949,.1828269-.463104,.143254-.6034709,.128332-.2419455-.0257223-.6629363-.1388439-.6717311-.3113004-.0107476-.2107647,.5913015-.5662997,.9830315-.3604307,.2070385,.1088057,.3718603,.3831122,.2921706,.5433992Z" fill="#780000"/>
      <circle cx="21.8441162" cy="30.1855182" r=".3701792" fill="#780000"/>
      <path d="M23.6442866,34.5225888c-.1043379,.0510135-.1226973,.1120008-.1965429,.1095205-.1400094-.0047002-.3063721-.2317533-.2617031-.416974,.0482324-.1999986,.3263034-.2839651,.521287-.254068,.3356018,.0514629,.5360325,.4572579,.4699401,.5448239-.0560719,.0742933-.2862838-.1039198-.5329811,.0166976Z" fill="#c1121f"/>
      <path d="M32.8431843,23.1788602c.0890985-.0515904,.2407426,.0579528,.4478208,.2075336,.2647421,.1912371,.5517358,.3985469,.5160809,.6471659-.0343405,.2394333-.3591778,.4561358-.5952826,.4041257-.4415174-.0972588-.580817-1.1359574-.3686191-1.2588253Z" fill="#780000"/>
    </g>
  </g>
</svg>