<?xml version="1.0" encoding="UTF-8"?>
<svg xmlns="http://www.w3.org/2000/svg" xmlns:xlink="http://www.w3.org/1999/xlink" viewBox="0 0 50 50">
  <defs>
    <clipPath id="clippath">
      <rect x="-70" width="50" height="50" fill="none"/>
    </clipPath>
    <clipPath id="clippath-1">
      <rect y="0" width="50" height="50" fill="none"/>
    </clipPath>
  </defs>
  <g id="_633222ff0de0ba8ce580ce9d" data-name="633222ff0de0ba8ce580ce9d">
    <g clip-path="url(#clippath)">
      <path d="M1.2779836,43.9872043c.0662947,6.9085294-29.7917021,27.1814484-60.9695756,20.1441329-11.8060599-2.6648026-36.6737419-12.1510859-37.0652046-29.2761398-.4281202-18.7287322,28.6973556-34.4070249,37.0652046-29.2761398,3.0284047,1.8569225,2.6294196,6.0049123,7.2518878,8.0576532,5.014353,2.2267726,9.1094333-1.0443048,13.1608335,2.1487075,2.0303804,1.6001864,1.9989175,3.2075368,4.297415,4.0288266,2.4466318,.8742239,3.660874-.5258655,6.4461225,0,3.0178413,.5697668,4.9481322,2.8470309,6.1775341,4.297415,3.8659014,4.5607904,2.0800645,7.598984,4.8345919,9.4005954,3.4272116,2.2415922,6.7986203-2.06479,12.0864797,.2685884C-1.7469642,35.4090299,.0070819,39.0041707,.2036298,39.4212008c.0000082,.0000164,1.0519605,2.2320185,1.0743538,4.5660035Z" fill="#012a4a"/>
      <path d="M-12.6886153,43.7186159c-11.3082675-3.6343045-19.0583981,12.0876109-33.5735549,14.7723641-19.7544141,3.6538126-45.832805-17.9875238-44.048504-33.036378,1.131545-9.5434797,13.6000924-17.5450676,17.726837-15.309541,4.0352835,2.1859696-.3320681,13.9292712,4.297415,16.3838948,4.6089561,2.4437384,12.0819101-7.5285418,17.4582485-4.8345919,3.9978842,2.003233,2.1460456,8.6600427,6.1775341,10.4749491,4.6912772,2.1119373,9.7450604-5.7557991,15.309541-3.7602381,4.1605266,1.4920724,2.8612726,6.4377783,7.2518878,8.8634185,5.9558552,3.2903723,11.4777541-4.0803181,20.1441329-1.6115306,6.003986,1.7103497,10.8449058,7.3819854,9.9377722,9.6691838-.1990807,.5019476-.8676748,1.3266964-4.5660035,1.6115306-7.6993768,.5929962-13.3219677-2.3253293-16.1153063-3.2230613Z" fill="#013a63"/>
    </g>
  </g>
  <g id="_633222180de0ba8ce580ce8a-2" data-name="633222180de0ba8ce580ce8a">
    <g clip-path="url(#clippath-1)">
      <rect y="0" width="50" height="50" fill="#0e1a1e"/>
      <ellipse cx="3.0619587" cy="3.5993164" rx="1.1109678" ry="2.063226" transform="translate(-1.6163669 2.9330285) rotate(-41.5064355)" fill="#c1121f"/>
      <ellipse cx="5.2374421" cy="26.7257683" rx="1.1109678" ry="1.5870969" transform="translate(-17.6104836 11.9045071) rotate(-45.9411312)" fill="#c1121f"/>
      <path d="M45.1630358,3.3189108c.2142962,.0859485,.216189,.5837,.1383893,.8870676-.2407944,.9389596-1.5745651,1.3012324-1.763928,1.0702613-.2531362-.3087546,1.1544114-2.1462881,1.6255388-1.9573289Z" fill="#c1121f"/>
      <ellipse cx="1.2051843" cy="11.5838323" rx=".4761291" ry=".6348388" fill="#c1121f"/>
      <g>
        <path d="M73.9440709,4.986494c-2.3309209,.8149969-.8280284,5.4622168-3.5770728,7.728109-2.7011174,2.2263778-6.3465743-.4513977-8.5269875,1.7749904-1.8159919,1.8542925,.1147232,4.3223913-1.3955992,7.1357231-2.5094104,4.6743422-11.9517285,5.5211778-13.2866648,3.1575855-1.1854741-2.0989573,4.1281986-6.54289,2.7846963-8.3237459-.8783017-1.1642205-3.3383342,.4843815-5.3520632-.7988786-3.0128213-1.9199369-.4418368-8.6198773-2.1706368-9.3204477-1.2625813-.5116416-4.0862653,2.3822921-5.5574722,5.7433749-1.2556219,2.8685637-.7663365,4.3416846-1.1999433,9.5150199-.3087668,3.6839221-.9762161,11.6471615-3.3835843,12.0899725-1.6759189,.308265-3.1212162-3.225695-4.3586125-2.7803616-1.1569074,.4163556-.5820418,3.7532761-.8010459,7.3346299-.4842792,7.9192829-4.5172035,11.5870739-3.5824912,12.6845258,1.2255228,1.438896,9.9656455-2.7441069,39.8762497-24.3420068l.0002483-.0001843c5.5116631-4.0908169,6.0530666-6.7650272,8.9310551-8.9116129,4.4463737-3.316386,8.6703027-1.0476415,9.9171683-3.9542967,.3200567-.7461064-.0335533-.7200526,.0054184-4.9564168,.028905-3.1419596,.2354855-4.4684301-.3913117-4.7585936-.6925213-.3205901-1.3297973,1.1203578-3.1738406,1.5825856-2.2675782,.5683802-3.2940828-1.1116538-4.7575099-.5999717Z" fill="#780000"/>
        <path d="M53.4989258,27.5654309c-2.635028,2.1597263-2.3644766,3.7267224-4.5651051,4.7531752-2.4521839,1.1437839-5.7314335,.570938-6.3433466-.7999622-.2633245-.58994,.159318-.8974514,.7967112-3.3694965,.5001406-1.9397397,.7502109-2.9096095,.598888-3.7662266-.3691087-2.0894613-2.0671932-2.4311959-1.978232-3.9673008,.07882-1.3609834,1.436485-1.5189312,1.9858178-2.9716827,1.1194996-2.9606093-2.549511-7.5133392-3.5608176-7.1411415-.546122,.2009906,.130936,1.6732353-.4010648,4.1629567-.8382253,3.9228029-3.3050455,3.9463887-3.9727192,6.9346488-.7440515,3.3301166,2.067995,4.4262583,2.1695531,10.3117311,.0180224,1.0446303,.0740595,4.0922154-1.194525,4.5586031-1.273917,.4683512-2.6998491-2.1617574-4.3596962-1.7890782-1.3839694,.310735-1.8339914,2.4628443-2.5825384,4.7553426-2.315411,7.0911855-5.5983421,9.4348517-4.7694304,10.3041453,1.1496828,1.2057002,8.7941698-1.852569,13.0931763-7.519449,.9993376-1.3173117,1.8106873-2.7660771,3.7711031-3.8618871,2.9043435-1.6234325,4.220889-.1749713,6.9406091-1.4793393,2.7511619-1.3194564,2.2392787-3.2022118,6.5509229-7.7248579,2.4663463-2.5870422,4.1884784-3.6017087,3.9694682-3.9607987-.277847-.4555601-3.5159446,.4126982-6.1487744,2.5706179Z" fill="#c1121f"/>
      </g>
      <g>
        <path d="M-26.1509393,4.986494c2.3309209,.8149969,.8280284,5.4622168,3.5770728,7.728109,2.7011174,2.2263778,6.3465743-.4513977,8.5269875,1.7749904,1.8159919,1.8542925-.1147232,4.3223913,1.3955992,7.1357231,2.5094104,4.6743422,11.9517285,5.5211778,13.2866648,3.1575855,1.1854741-2.0989573-4.1281986-6.54289-2.7846963-8.3237459,.8783017-1.1642205,3.3383342,.4843815,5.3520632-.7988786,3.0128213-1.9199369,.4418368-8.6198773,2.1706368-9.3204477,1.2625813-.5116416,4.0862653,2.3822921,5.5574722,5.7433749,1.2556219,2.8685637,.7663365,4.3416846,1.1999433,9.5150199,.3087668,3.6839221,.9762161,11.6471615,3.3835843,12.0899725,1.6759189,.308265,3.1212162-3.225695,4.3586125-2.7803616,1.1569074,.4163556,.5820418,3.7532761,.8010459,7.3346299,.4842792,7.9192829,4.5172035,11.5870739,3.5824912,12.6845258-1.2255228,1.438896-9.9656455-2.7441069-39.8762497-24.3420068l-.0002483-.0001843c-5.5116631-4.0908169-6.0530666-6.7650272-8.9310551-8.9116129-4.4463737-3.316386-8.6703027-1.0476415-9.9171683-3.9542967-.3200567-.7461064,.0335533-.7200526-.0054184-4.9564168-.028905-3.1419596-.2354855-4.4684301,.3913117-4.7585936,.6925213-.3205901,1.3297973,1.1203578,3.1738406,1.5825856,2.2675782,.5683802,3.2940828-1.1116538,4.7575099-.5999717Z" fill="#780000"/>
        <path d="M-5.7057942,27.5654309c2.635028,2.1597263,2.3644766,3.7267224,4.5651051,4.7531752,2.4521839,1.1437839,5.7314335,.570938,6.3433466-.7999622,.2633245-.58994-.159318-.8974514-.7967112-3.3694965-.5001406-1.9397397-.7502109-2.9096095-.598888-3.7662266,.3691087-2.0894613,2.0671932-2.4311959,1.978232-3.9673008-.07882-1.3609834-1.436485-1.5189312-1.9858178-2.9716827-1.1194996-2.9606093,2.549511-7.5133392,3.5608176-7.1411415,.546122,.2009906-.130936,1.6732353,.4010648,4.1629567,.8382253,3.9228029,3.3050455,3.9463887,3.9727192,6.9346488,.7440515,3.3301166-2.067995,4.4262583-2.1695531,10.3117311-.0180224,1.0446303-.0740595,4.0922154,1.194525,4.5586031,1.273917,.4683512,2.6998491-2.1617574,4.3596962-1.7890782,1.3839694,.310735,1.8339914,2.4628443,2.5825384,4.7553426,2.315411,7.0911855,5.5983421,9.4348517,4.7694304,10.3041453-1.1496828,1.2057002-8.7941698-1.852569-13.0931763-7.519449-.9993376-1.3173117-1.8106873-2.7660771-3.7711031-3.8618871-2.9043435-1.6234325-4.220889-.1749713-6.9406091-1.4793393-2.7511619-1.3194564-2.2392787-3.2022118-6.5509229-7.7248579-2.4663463-2.5870422-4.1884784-3.6017087-3.9694682-3.9607987,.277847-.4555601,3.5159446,.4126982,6.1487744,2.5706179Z" fill="#c1121f"/>
      </g>
      <g>
        <g>
          <polygon points="49.0621453 25.5454978 51 27.6242667 49.6609586 30.815168 46.3840625 31.9273005 44.4462078 29.8485316 45.7852492 26.6576303 49.0621453 25.5454978" fill="#014f86"/>
          <path d="M41.6833004,35.5721346c1.5482869-1.2349371,3.0965642-2.4698736,4.6448511-3.7048108l-1.818984-1.9512543c-1.354711,1.4332884-2.7094258,2.8665726-4.0641369,4.2998609,.7600256,.8324113,.4782443,.5237929,1.2382699,1.3562042Z" fill="#4e3025"/>
          <rect x="37.0685487" y="34.4635844" width="6.4975214" height="2.271796" rx="1.0890119" ry="1.0890119" transform="translate(41.7691384 89.36472) rotate(-132.9907322)" fill="#444443"/>
          <path d="M39.5535694,36.4460391l-2.7400142,2.554275,2.3529309-.0561511c.4166201-.5229678,.8364323-1.0462168,1.2530523-1.5691846l-.865969-.9289393Z" fill="#70706f"/>
          <path d="M34.0033667,41.6200066l-3.022515,2.8176257-4.7171623,4.4942972-1.1197419,1.0680705,1.0815967-.4833759,7.046638-3.1504056-.01879-.0201563c1.278569-1.6010547,2.5552785-3.2003761,3.8351913-4.7999892l-3.0852169,.0739335Z" fill="#70706f"/>
          <path d="M33.3715112,39.0838685l1.6698339-.041162,1.7722101-.0423924,2.7400142-2.554275-.9518965-1.0211151c-1.7444421,1.2197443-3.4870554,2.4377673-5.2301618,3.6589444Z" fill="#838283"/>
          <path d="M29.2014714,41.9994996c-.2929694,.9998793-.7118253,2.1682725-1.3174982,3.443524-.7241865,1.5256933-1.5368029,2.8269707-2.293353,3.8848595-.0767014,.1064965-.149729,.2095683-.2254331,.3097463-.0283703,.0399028-.0580763,.0783727-.0859423,.115111l5.7016069-5.3151082,.2613425-.2490155,.0026878,.0028832,2.7584847-2.5714934-1.5656096,.0382088-2.843523,.0666576c-.131089,.0925971-.2616737,.1820296-.3927627,.2746267Z" fill="#838283"/>
          <polygon points="48.8054357 26.7150371 49.8153459 27.7983844 48.7330141 29.8197465 46.6407721 30.7577612 45.6308619 29.6744138 46.7131937 27.6530518 48.8054357 26.7150371" fill="#2c7da0"/>
          <rect x="38.2424172" y="34.5282071" width="4.2091571" height="2.2062409" rx="1.0575892" ry="1.0575892" transform="translate(41.7957729 89.4399943) rotate(-132.9907314)" fill="#515150"/>
          <path d="M36.8135553,39.0003141l-2.8101886,2.6196924,3.0852169-.0739335c.6917399-.8682551,1.3848269-1.7350878,2.0779025-2.60191l-2.3529309,.0561511Z" fill="#838283"/>
          <path d="M29.5942341,41.7248729l2.843523-.0666576,1.5656096-.0382088,2.8101886-2.6196924-1.7722101,.0423924-1.6698339,.041162c-1.2597149,.8809097-2.5175622,1.7600947-3.7772771,2.6410044Z" fill="#a7a7a6"/>
          <path d="M41.6663939,35.0711075c.9422607-.7515614,1.8845156-1.5031225,2.8267762-2.2546839l-1.1070023-1.1874997c-.8244537,.8722746-1.6489098,1.7445466-2.4733636,2.6168211,.4625384,.5065912,.2910512,.3187713,.7535897,.8253625Z" fill="#5d392f"/>
          <path d="M48.6076202,29.1990952c-.7676043,.8307074-1.8997083,.8251156-1.9083564,.730428-.0077714-.0850638,.890793-.2460772,1.3820086-.9972652,.0579966-.088693,.3105828-.4749505,.2548984-.8405403-.0846317-.555698-.8119497-.6071643-.7670009-.713721,.0571031-.1353684,1.3685508-.3788805,1.6040764,.3675173,.1939695,.6147092-.5039944,1.3868832-.5656262,1.4535811Z" fill="#479cba"/>
        </g>
        <g>
          <polygon points=".9378547 25.5454978 -1 27.6242667 .3390414 30.815168 3.6159375 31.9273005 5.5537922 29.8485316 4.2147508 26.6576303 .9378547 25.5454978" fill="#014f86"/>
          <path d="M8.3166996,35.5721346c-1.5482869-1.2349371-3.0965642-2.4698736-4.6448511-3.7048108l1.818984-1.9512543c1.354711,1.4332884,2.7094258,2.8665726,4.0641369,4.2998609-.7600256,.8324113-.4782443,.5237929-1.2382699,1.3562042Z" fill="#4e3025"/>
          <rect x="6.4339299" y="34.4635844" width="6.4975214" height="2.271796" rx="1.0890119" ry="1.0890119" transform="translate(-22.959483 18.4074452) rotate(-47.0092678)" fill="#444443"/>
          <path d="M10.4464306,36.4460392l2.7400142,2.554275-2.3529309-.0561511c-.4166201-.5229678-.8364323-1.0462168-1.2530523-1.5691846l.865969-.9289393Z" fill="#70706f"/>
          <path d="M15.9966333,41.6200066l3.022515,2.8176257,4.7171623,4.4942972,1.1197419,1.0680705-1.0815967-.4833759-7.046638-3.1504056,.01879-.0201563c-1.278569-1.6010547-2.5552785-3.2003761-3.8351913-4.7999892l3.0852169,.0739335Z" fill="#70706f"/>
          <path d="M16.6284888,39.0838685l-1.6698339-.041162-1.7722101-.0423924-2.7400142-2.554275,.9518965-1.0211151c1.7444421,1.2197443,3.4870554,2.4377673,5.2301618,3.6589444Z" fill="#838283"/>
          <path d="M20.7985286,41.9994996c.2929694,.9998793,.7118253,2.1682725,1.3174982,3.443524,.7241865,1.5256933,1.5368029,2.8269707,2.293353,3.8848595,.0767014,.1064965,.149729,.2095683,.2254331,.3097463,.0283703,.0399028,.0580763,.0783727,.0859423,.115111l-5.7016069-5.3151082-.2613425-.2490155-.0026878,.0028832-2.7584847-2.5714934,1.5656096,.0382088,2.843523,.0666576c.131089,.0925971,.2616737,.1820296,.3927627,.2746267Z" fill="#838283"/>
          <polygon points="1.1945643 26.7150371 .1846541 27.7983844 1.2669859 29.8197465 3.3592279 30.7577612 4.3691381 29.6744138 3.2868063 27.6530518 1.1945643 26.7150371" fill="#2c7da0"/>
          <rect x="7.5484257" y="34.5282071" width="4.2091571" height="2.2062409" rx="1.0575892" ry="1.0575892" transform="translate(-22.9922207 18.3958617) rotate(-47.0092686)" fill="#515150"/>
          <path d="M13.1864447,39.0003141l2.8101886,2.6196924-3.0852169-.0739335c-.6917399-.8682551-1.3848269-1.7350878-2.0779025-2.60191l2.3529309,.0561511Z" fill="#838283"/>
          <path d="M20.4057659,41.7248729l-2.843523-.0666576-1.5656096-.0382088-2.8101886-2.6196924,1.7722101,.0423924,1.6698339,.041162c1.2597149,.8809097,2.5175622,1.7600947,3.7772771,2.6410044Z" fill="#a7a7a6"/>
          <path d="M8.3336061,35.0711075c-.9422607-.7515614-1.8845156-1.5031225-2.8267762-2.2546839l1.1070023-1.1874997c.8244537,.8722746,1.6489098,1.7445466,2.4733636,2.6168211-.4625384,.5065912-.2910512,.3187713-.7535897,.8253625Z" fill="#5d392f"/>
          <path d="M1.3923798,29.1990952c.7676043,.8307074,1.8997083,.8251156,1.9083564,.730428,.0077714-.0850638-.890793-.2460772-1.3820086-.9972652-.0579966-.088693-.3105828-.4749505-.2548984-.8405403,.0846317-.555698,.8119497-.6071643,.7670009-.713721-.0571031-.1353684-1.3685508-.3788805-1.6040764,.3675173-.1939695,.6147092,.5039944,1.3868832,.5656262,1.4535811Z" fill="#479cba"/>
        </g>
      </g>
      <path d="M43.8272474,24.2794736L38.7348664,3.2242862c-4.5783386-1.7750149-9.1810345-2.5584812-13.7715517-2.5094678-4.5905172,.0489386-9.1810345,.9302821-13.7103598,2.5094678L6.1727526,24.2794736H15.4517391c-2.0076041,4.9209837-.6610076,10.4786177,1.4322205,14.2856687l2.4972892-7.0878064,2.6073451,7.295889,.1591439,.4284931,.1591439-.4284931,2.6931184-6.6959986,2.6563584,6.6959986,.1959039,.514117,.1835759-.514117,2.6686864-7.295889,2.4972145,7.1857584c2.3625772-4.2844828,2.7909956-10.1113913,1.4322205-14.3836207h9.1932878ZM11.0448724,20.15406l1.6036177-7.4060195c4.0151336,.8691648,7.3203209,2.6808651,9.1687811,6.4389775l-10.7723989,.9670421Zm16.3054515,8.4710883l-2.3258172-3.0848515-2.3381453,3.0848515-1.9953508-1.5179191,3.329694-4.3824347,1.0038021-1.3098366,.9915487,1.3098366,3.3296193,4.3824347-1.9953508,1.5179191Zm.8814182-9.4381303c2.0076041-3.4887632,5.3372234-5.2882848,9.1687811-6.4389775l1.5913644,7.4060195-10.7601455-.9670421Z" fill="#012a4a"/>
    </g>
  </g>
</svg>