<?xml version="1.0" encoding="UTF-8"?>
<svg id="adrenalin" xmlns="http://www.w3.org/2000/svg" viewBox="0 0 50 50">
  <rect width="50" height="50" fill="#0e1a1e"/>
  <g>
    <path d="M36.2894703,38.1772198l-2.6072365,2.6072982-8.7313741,8.8222912-.0404624-.0505164-.0505164,.0505164v-.1010327l-11.2173466-11.3285566c-4.1029279-4.1534443-6.2958562-9.8126956-6.1341915-15.5931492,.0302851-1.1419535,.1616647-2.2839071,.3739074-3.4359762l.0505164-.272813c.8489093-4.4364346,5.5885038-6.892122,9.6509692-5.0124692l5.2954595,2.4556874c1.2935026,.5962658,2.7689629,.5962658,4.0624655,.0101156l5.376261-2.465803c.444655-.2021271,.9095413-.3536762,1.3643119-.4547706,.5860885-.1414952,1.1722387-.2021271,1.7482733-.1818959,3.1327547,.1010327,5.9926963,2.3141922,6.6293629,5.6491357l.060632,.272813c.0909788,.4547706,.1616647,.9196569,.2122427,1.3743658,.8185625,6.4778138-1.394597,13.006144-6.0432744,17.6547596Z" fill="#012a4a"/>
    <path d="M40.480339,27.9714752c-.4297528,4.0885356-2.7527715,8.5951976-6.248926,11.6034672,.7898179-1.4402603,1.3008848-2.9850167,1.4518867-4.4601563,.6039367-5.7727384-4.1930318-10.8369022-4.3440337-10.7672145-.0581322,.0348793,.3600651,.6969482,.3600651,1.7655169,0,.1044961-.0232529,2.2649574-1.1383274,2.6830838-.871132,.3368122-2.0558234-.511067-2.6947102-1.3938254-1.3008848-1.8235782,.2323161-3.4264668-.6155631-5.9469223-1.0918216-3.2290301-4.5182884-5.4010469-5.1687308-4.9131619-.3484386,.255498,.0348793,1.2428235,.1974367,1.8583866,.9873255,3.6935913-2.508829,7.1316845-5.0292845,10.8020229-.2903773-.4064999-.3716915-1.0801952-.3833179-1.2311971-.0813142-.9291933,.2671245-1.4983216,.1974367-1.5447564-.3020038-.1278199-2.8108328,2.4739497-2.8108328,5.8423552,0,1.4518867,.2671245,2.7876508,.6853217,3.8097847,.1161226,.9523753,.4181264,1.9164479,.8826876,2.8572677-2.9037734-2.6250225-4.9712232-6.1792383-5.3893496-9.5708258-.615634-1.4751396-.9873255-3.4032139-.9873255-5.5171695,0-4.8783535,3.6239035-8.6532589,4.0536563-8.4557513,.1161935,.0580613-.4064999,.8826876-.2787509,2.2300781,.0232529,.2206896,.1393755,1.1963178,.5691282,1.7770725,3.63553-5.3081063,8.6997647-10.2909559,7.2826864-15.6338706-.2439425-.9060113-.8014443-2.3346452-.3020038-2.6947102,.9524462-.6969482,5.9121138,2.4275149,7.4917496,7.1200581,1.2311971,3.6470855-.998881,5.9701042,.8943849,8.6067532,.9175669,1.2777028,2.6482045,2.4972735,3.9026544,2.0326414,1.614515-.6155631,1.6493234-3.7516526,1.6493234-3.9026544,0-1.5448273-.6039367-2.5088999-.5226934-2.5437083,.2206896-.104567,7.1665638,7.2129987,6.2954318,15.5874358Z" fill="#013a63"/>
    <path d="M19.738456,23.4037474l3.2180532,1.4972009c-.0874668,2.6347436-2.527754,5.1430342-4.3458049,7.7972412-.2430556-.3403134-.3111182-.9041595-.3208499-1.0305532-.0680627-.7778252,.2235921-1.2542046,.1652612-1.2930722-.2527873-.1069302-2.3527612,2.0708381-2.3527612,4.8902469,0,1.2152778,.2235921,2.3333571,.5736372,3.1889174,.0971985,.7972293,.3499858,1.6041904,.738839,2.391688-2.4305556-2.1972317-4.1610803-5.1722293-4.511066-8.011161-.1263936-.3110589-.2430556-.6416406-.3500451-.9916263v-.0194634c-.1749929-1.5166643-.1166619-3.0625237,.1750522-4.5985921l.0388675-.1944563c.3013865-1.584727,1.2833405-2.8097365,2.5569492-3.4903039,.0680627,.3111182,.1847246,.6805674,.3888533,.9528181,.3305817-.4861111,.6805674-.9722222,1.0402849-1.4486016v-.0097317c.9624905-.1847246,2.0027754-.0875261,2.9847293,.3694492Z" fill="#780000"/>
    <path d="M33.2523686,40.9620784l-.3208499,.3207906c-.0291358,.0389269-.0680627,.0680627-.1069302,.0972578,.661104-1.2055461,1.0888841-2.4986182,1.2152778-3.7333594,.5055152-4.831916-3.509708-9.0707906-3.6361016-9.0124596-.0486586,.0291358,.3013865,.5833096,.3013865,1.4777374,0,.0875261-.0194634,1.8958452-.9528181,2.245831-.7291667,.2819824-1.720793-.4277802-2.2555627-1.1666785-1.0888841-1.5263367,.1944563-2.8680081-.5152469-4.977773-.1263936-.3597175-.2819231-.7097032-.4666477-1.0402256l3.4124502-1.5653229c.6416999,.4083761,1.3416714,.6222365,1.9153086,.4083761,.456916-.1750522,.7583025-.5833689,.9624905-1.0597483,2.1875,.1555294,4.1514079,1.7208523,4.6083238,4.0736135l.0389269,.1944563c.9722222,4.9972365-.602773,10.1402707-4.2000071,13.7375047Z" fill="#780000"/>
    <g>
      <path d="M34.0398663,37.6467674c-.1263936,1.2347412-.5541738,2.5278134-1.2152778,3.7333594,.0388675-.0291951,.0777944-.058331,.1069302-.0972578l-1.5652635,1.5653229-6.3000404,6.3680437-.0388675-.0291951-.0291358,.0291951v-.0680627l-8.0986277-8.1860945c-2.4694231-2.4888865-3.9666833-5.7166714-4.3458642-9.1194492,.1069895,.3499858,.2236515,.6805674,.3500451,.9916263,.3499858,2.8389316,2.0805105,5.8139292,4.511066,8.011161-.3888533-.7874976-.6416406-1.5944587-.738839-2.391688-.3500451-.8555603-.5736372-1.9736396-.5736372-3.1889174,0-2.8194088,2.0999739-4.9971771,2.3527612-4.8902469,.058331,.0388675-.2333238,.5152469-.1652612,1.2930722,.0097317,.1263936,.0777944,.6902398,.3208499,1.0305532,1.8180508-2.654207,4.2583381-5.1624976,4.3458049-7.7972412,.0194634-.4083167-.0194041-.8263652-.1361254-1.2444729-.136066-.5152469-.456916-1.3416121-.1652612-1.5555318,.4666477-.3499858,2.6833428,.9624905,3.8597531,3.0722555,.1847246,.3305223,.340254,.6805081,.4666477,1.0402256,.7097032,2.1097649-.5736372,3.4514364,.5152469,4.977773,.5347697,.7388984,1.526396,1.448661,2.2555627,1.1666785,.9333547-.3499858,.9528181-2.1583049,.9528181-2.245831,0-.8944278-.3500451-1.4486016-.3013865-1.4777374,.1263936-.058331,4.1416168,4.1805437,3.6361016,9.0124596Z" fill="#780000"/>
      <path d="M38.0551488,31.6676363c-.3597175,3.3833143-2.2555627,7.0972104-5.1236301,9.6152327-.0291358,.0389269-.0680627,.0680627-.1069302,.0972578,.661104-1.2055461,1.0888841-2.4986182,1.2152778-3.7333594,.5055152-4.831916-3.509708-9.0707906-3.6361016-9.0124596-.0486586,.0291358,.3013865,.5833096,.3013865,1.4777374,0,.0875261-.0194634,1.8958452-.9528181,2.245831-.7291667,.2819824-1.720793-.4277802-2.2555627-1.1666785-1.0888841-1.5263367,.1944563-2.8680081-.5152469-4.977773-.1263936-.3597175-.2819231-.7097032-.4666477-1.0402256-1.1764103-2.1097649-3.3931054-3.4222412-3.8597531-3.0722555-.2916548,.2139197,.0291951,1.0402849,.1652612,1.5555318,.1167213,.4181078,.1555888,.8361562,.1361254,1.2444729-.0874668,2.6347436-2.527754,5.1430342-4.3458049,7.7972412-.2430556-.3403134-.3111182-.9041595-.3208499-1.0305532-.0680627-.7778252,.2235921-1.2542046,.1652612-1.2930722-.2527873-.1069302-2.3527612,2.0708381-2.3527612,4.8902469,0,1.2152778,.2235921,2.3333571,.5736372,3.1889174,.0971985,.7972293,.3499858,1.6041904,.738839,2.391688-2.4305556-2.1972317-4.1610803-5.1722293-4.511066-8.011161-.1263936-.3110589-.2430556-.6416406-.3500451-.9916263v-.0194634c-.3013865-1.059689-.4763794-2.2846985-.4763794-3.6069658,0-4.0832859,3.0333286-7.2430081,3.3930461-7.0777469,.0972578,.0485992-.340254,.7388984-.2333238,1.8666501,.0097317,.0777944,.0291951,.2916548,.0875261,.5347104,.0680627,.3111182,.1847246,.6805674,.3888533,.9528181,.3305817-.4861111,.6805674-.9722222,1.0402849-1.4486016v-.0097317c2.8680674-3.9083523,6.1153158-7.6513841,5.0555674-11.6277991-.204188-.7583025-.6708357-1.9541762-.2527873-2.2555627,.7972293-.5833096,4.9486372,2.0319706,6.2708452,5.959727,1.0305532,3.052792-.8360969,4.9972365,.7486301,7.2041999,.340254,.4861111,.8263652,.9527588,1.3513438,1.2930128,.6416999,.4083761,1.3416714,.6222365,1.9153086,.4083761,.456916-.1750522,.7583025-.5833689,.9624905-1.0597483,.4083167-.9333547,.4180484-2.1194373,.4180484-2.2069634,0-1.2930128-.5055152-2.0999739-.4375119-2.129169,.1847246-.0874668,5.9986538,6.0375214,5.2694872,13.0472649Z" fill="#c1121f"/>
    </g>
  </g>
  <path d="M20.483871,28s1.4193548-.7096774,1.483871-2.6451613-2.4516129-1.5483871-.516129-5.2903226c0,0-2.516129,1.3548387-1.9354839,3.7419355s.9677419,4.1935484,.9677419,4.1935484Z" fill="#780000"/>
  <path d="M21.6451613,7.5483871s2.9032258,.2580645,4.2580645,2.8387097c0,0,.6451613-3.0322581-1.4193548-5.2903226s-.7096774-2.5806452-.7096774-2.5806452c0,0-2.673397-1.2318795-1.2258065,2.3870968,.6451613,1.6129032-.9032258,2.6451613-.9032258,2.6451613Z" fill="#c1121f"/>
  <path d="M23.967741,18.7096752c-.3427277-1.0147476,.5139618-1.988205,.3871002-2.0645142-.1531067-.0920868-1.6896667,1.151825-1.4838715,2.6451645,.1433563,1.0402145,1.0970001,1.9467316,1.4838715,1.8064499,.2624817-.0951767,.3190002-.692131,.2580566-1.0967789-.0943756-.6265869-.465271-.7576828-.6451569-1.2903214Z" fill="#780000"/>
  <path d="M31.4516129,28.6451613s1.8709677,1.1612903,2.4516129,3.483871c0,0,1.6129032-5.1612903-.516129-6.8387097s1.3548387,2.2580645-1.9354839,3.3548387Z" fill="#780000"/>
  <path d="M17.7741935,19.6774194s1.6129032-1.8064516,1.8064516-3.1612903-.3225806-2.1935484,.1935484-3.3548387c0,0-3.6774194,3.2258065-2,6.516129Z" fill="#c1121f"/>
</svg>