<?xml version="1.0" encoding="UTF-8"?>
<svg id="_Шар_2" data-name="Шар 2" xmlns="http://www.w3.org/2000/svg" viewBox="0 0 23.7 23.69">
  <g id="_2handschwert" data-name="2handschwert">
    <g>
      <path d="M20.77,2.93l-3.29,3.3-3.79,.05c1.02-1.14,2.05-2.29,3.08-3.43,1.34,.03,2.66,.06,4,.08Z" fill="#8595a0"/>
      <polygon points="8.2 17.12 7.72 17.6 5.19 17 6.63 15.56 8.2 17.12" fill="#894d25"/>
      <path d="M23.61,.15l.07-.07-.06,4.46-2.83,2.54,.05-4.17-3.54,3.54c1.17-1.17,2.34-2.34,3.51-3.52h-.04c-1.34-.02-2.66-.05-4-.08l.09-.1,2.47-2.75h4.37l-.09,.09v.06Z" fill="#ba8d6e"/>
      <polygon points="20.84 2.91 20.79 7.08 17.25 10.26 17.3 6.45 20.84 2.91" fill="#849299"/>
      <polygon points="20.84 2.91 20.79 7.08 17.25 10.26 17.3 6.45 20.84 2.91" fill="#b2896d"/>
      <path d="M20.81,2.93c-1.17,1.18-2.34,2.35-3.51,3.52,0,.01-.02,.02-.03,.03h-3.76c.06-.07,.12-.13,.18-.2,1.02-1.14,2.05-2.29,3.08-3.43,1.34,.03,2.66,.06,4,.08h.04Z" fill="#c19374"/>
      <polygon points="17.25 10.26 15.08 12.22 11.53 15.4 9.53 17.2 8.05 15.71 17.3 6.46 17.25 10.26" fill="#ad8264"/>
      <polygon points="17.31 6.44 8.06 15.68 6.57 14.19 8.24 12.34 11.42 8.81 13.5 6.48 17.31 6.44" fill="#ba8d6e"/>
      <rect x="3.12" y="15.54" width="9.6" height=".87" transform="translate(13.62 -.92) rotate(45)" fill="#c19374"/>
      <rect x="3.59" y="14.92" width="2.38" height="8.1" transform="translate(14.81 2.18) rotate(45)" fill="#898149"/>
      <path d="M.08,21.41c.61-.61,1.6-.61,2.2,0s.61,1.59,0,2.2c-.03,.03-.05,.05-.08,.08l-2.2-2.2s.05-.05,.08-.08Z" fill="#ba8d6e"/>
      <polygon points="6.06 19.3 5.58 19.78 3.04 19.18 4.49 17.73 6.06 19.3" fill="#cd9777"/>
      <polygon points="7.51 17.85 6.06 19.3 4.49 17.73 4.98 17.25 7.51 17.85" fill="#b27f66"/>
      <polygon points="5.58 19.78 4.13 21.23 2.56 19.66 3.04 19.18 5.58 19.78" fill="#b27f66"/>
      <polygon points="15.1 12.2 11.53 15.39 11.53 12.26 15.1 8.7 15.1 12.2" fill="#b2896d"/>
      <polygon points="15.07 8.71 11.53 12.25 11.41 12.25 11.39 12.25 8.25 12.36 11.44 8.83 14.94 8.71 14.95 8.71 15.07 8.71" fill="#c19374"/>
      <rect x="4.28" y="11.59" width="1.23" height="2.77" transform="translate(10.61 .34) rotate(45)" fill="#b2896d"/>
      <rect x="10.35" y="17.52" width="1.23" height="2.77" transform="translate(16.58 -2.21) rotate(45)" fill="#b2896d"/>
      <circle cx="1.75" cy="22.01" r=".58" fill="#cca183"/>
    </g>
  </g>
</svg>