<?xml version="1.0" encoding="UTF-8"?>
<svg id="_Шар_2" data-name="Шар 2" xmlns="http://www.w3.org/2000/svg" viewBox="0 0 23.82 23.81">
  <g id="_2handschwert" data-name="2handschwert">
    <polygon points="23.82 0 21 2.82 16.86 2.87 19.39 .06 23.82 0" fill="#7c8c99"/>
    <polygon points="21 2.82 17.47 6.35 13.68 6.4 16.86 2.87 21 2.82" fill="#8595a0"/>
    <polygon points="8.2 17.24 7.72 17.72 5.19 17.12 6.63 15.68 8.2 17.24" fill="#894d25"/>
    <g>
      <polygon points="23.62 4.66 20.79 7.21 20.84 3.03 23.68 .2 23.62 4.66" fill="#7c8c99"/>
      <polygon points="20.79 7.21 17.25 10.38 17.3 6.58 20.84 3.03 20.79 7.21" fill="#849299"/>
      <polygon points="20.79 7.21 17.25 10.38 17.3 6.58 20.84 3.03 20.79 7.21" fill="#849299"/>
      <polygon points="20.85 3.01 17.31 6.56 13.5 6.61 16.69 3.06 20.85 3.01" fill="#8595a0"/>
      <polygon points="17.25 10.38 15.08 12.34 11.53 15.52 9.53 17.32 8.05 15.83 17.3 6.58 17.25 10.38" fill="#7c8c99"/>
      <polygon points="17.31 6.56 8.06 15.8 6.57 14.31 8.24 12.47 11.42 8.93 13.5 6.61 17.31 6.56" fill="#7c8c99"/>
      <rect x="3.12" y="15.66" width="9.6" height=".87" transform="translate(13.7 -.89) rotate(45)" fill="#849299"/>
      <rect x="3.59" y="15.04" width="2.38" height="8.1" transform="translate(14.9 2.21) rotate(45)" fill="#936639"/>
      <path d="M.08,21.53c.61-.61,1.6-.61,2.2,0s.61,1.59,0,2.2c-.03,.03-.05,.05-.08,.08l-2.2-2.2s.05-.05,.08-.08Z" fill="#849299"/>
      <polygon points="6.06 19.42 5.58 19.9 3.04 19.3 4.49 17.85 6.06 19.42" fill="#894d25"/>
      <polygon points="7.51 17.97 6.06 19.42 4.49 17.85 4.98 17.37 7.51 17.97" fill="#99582a"/>
      <polygon points="5.58 19.9 4.13 21.36 2.56 19.79 3.04 19.3 5.58 19.9" fill="#99582a"/>
      <g>
        <polygon points="15.08 12.34 11.53 15.52 11.57 12.44 15.12 8.9 15.08 12.34" fill="#849299"/>
        <polygon points="15.12 8.88 11.58 12.42 11.45 12.42 11.44 12.42 8.24 12.47 11.42 8.93 14.98 8.88 15 8.88 15.12 8.88" fill="#8595a0"/>
      </g>
    </g>
  </g>
</svg>