<?xml version="1.0" encoding="UTF-8"?>
<svg id="_Шар_2" data-name="Шар 2" xmlns="http://www.w3.org/2000/svg" viewBox="0 0 23.55 23.36">
  <g id="_2handschwert" data-name="2handschwert">
    <g>
      <path d="M9.77,10.47h0c-2.79,3.09-5.3,5.92-5.3,5.92l1.34,1.34L15.23,8.3s-2.72,.4-5.46,2.16Z" fill="#d3e5e5"/>
      <polygon points="2.44 20.92 2.04 20.52 2.05 20.51 2.44 20.92" fill="#601f12"/>
      <path d="M19.76,7.24c-.34,.33-.75,.72-1.23,1.14,2.89-3,3.5-6.95,3.5-6.95L23.53,.02s-.65,4.19-3.77,7.22Z" fill="#edf2f2"/>
      <path d="M18.53,8.39s0,.02-.03,.03c-.49,.45-1.04,.95-1.63,1.47,2.39-2.9,2.93-6.31,2.93-6.31l2.24-2.13s-.61,3.94-3.5,6.95Z" fill="#e8efef"/>
      <path d="M16.87,9.89l-.02,.02c-.77,.68-1.59,1.41-2.44,2.14,1.95-2.72,2.4-5.62,2.4-5.62l2.98-2.85s-.53,3.41-2.93,6.31Z" fill="#e2eded"/>
      <path d="M14.41,12.05c-.42,.35-.84,.72-1.25,1.08,1.75-2.62,2.16-5.28,2.16-5.28l1.49-1.42s-.45,2.91-2.4,5.62Z" fill="#d9e8e8"/>
      <path d="M13.16,13.13h0c-3.04,2.63-5.83,4.97-5.83,4.97l-1.31-1.37L15.32,7.85s-.41,2.66-2.16,5.28Z" fill="#d3e5e5"/>
      <path d="M6.88,16.36c-.3-.08-.47-.31-.57-.43-.04-.04-.06-.06-.11-.09,.62-.53,1.18-.9,1.24-.86,.07,.07-.7,.69-.56,1.38Z" fill="#edf2f2"/>
      <path d="M6.7,17.79c.13-.1,.27-.21,.42-.35,.1-.11,.2-.23,.29-.35,.93,1.04,.37,3.57,.09,3.97-.05-1.51-.42-2.56-.8-3.27Z" fill="#edf2f2"/>
      <path d="M7.5,21.06c-.02,.05-.05,.06-.07,.06-.17,0-.02-1.26-.64-2.09-.06-.07-.12-.14-.18-.2-.59-.59-1.36-.47-1.55-1.03-.01-.04-.03-.1-.03-.15-.04-.29,.1-.76,.76-1.48,.16,.45,.53,.91,.85,1.52,.38,.72,.79,1.8,.85,3.37Z" fill="#e8c6c1"/>
      <g>
        <path d="M7.12,17.45c-.15,.13-.29,.25-.42,.35-.01-.03-.04-.06-.05-.09-.15-.28-.3-.52-.44-.75-.18-.28-.33-.52-.41-.78,.13-.12,.26-.23,.4-.34,.04,.03,.07,.06,.11,.09,.11,.12,.28,.35,.57,.43,0,0,0,.02,0,.03,.07,.31,.31,.48,.44,.61,.04,.04,.07,.07,.09,.11-.09,.12-.19,.23-.29,.35Z" fill="#edf2f2"/>
        <path d="M5.8,16.17c.08,.25,.23,.5,.41,.78-.19-.12-.4-.24-.62-.36-.72-.38-1.8-.78-3.37-.84,.4-.28,2.93-.84,3.97,.08-.13,.11-.26,.22-.4,.34Z" fill="#edf2f2"/>
        <path d="M7.41,17.1s-.06-.07-.09-.11c-.13-.13-.37-.3-.44-.61,0,0,0-.03,0-.03,.01,0,.02,0,.04,0,.69,.17,1.33-.62,1.39-.56,.05,.06-.35,.66-.9,1.29Z" fill="#edf2f2"/>
        <path d="M6.7,17.79c-.49,.37-.84,.45-1.07,.42-.05,0-.11-.02-.16-.03-.56-.19-.44-.96-1.03-1.56-.06-.06-.12-.12-.19-.18-.83-.62-2.09-.46-2.09-.64,0-.01,.01-.04,.06-.06,1.57,.06,2.65,.46,3.37,.84,.22,.12,.42,.24,.62,.36,.14,.23,.29,.47,.44,.75,.01,.03,.04,.06,.05,.09Z" fill="#e8c6c1"/>
      </g>
      <path d="M3.44,21.92s-.01,.02-.02,.03l-.98-1.03,1,1Z" fill="#6b3f20"/>
      <path d="M4.18,17.64c.12-.22,.26-.56,.24-1.09,.12,.12,.21,.25,.29,.39,.04,.06,.07,.13,.1,.2,.09,.21,.16,.4,.24,.55,0,.05,0,.09,.01,.13,.07,.21,.23,.33,.44,.42,.32,.15,.75,.24,1.11,.6-.53-.02-.87,.12-1.09,.24-.01,.01-.03,.01-.05,.04-.13,.08-.25,.17-.35,.29h0s-1.32-1.32-1.32-1.32c.03-.01,.04-.03,.06-.05,.11-.1,.21-.21,.29-.36,.01-.01,.01-.03,.03-.04Z" fill="#601f12"/>
      <path d="M4.7,20.02c-.06,.08-.11,.18-.16,.27h0s-1.64-1.63-1.64-1.63c.03-.01,.05-.02,.08-.04,.09-.05,.19-.11,.28-.15,.03-.01,.04-.03,.07-.04l1.46,1.46s-.05,.09-.08,.13Z" fill="#601f12"/>
      <path d="M3.42,21.95s-.09,.09-.14,.14c-.08,.08-.2,.18-.34,.28-.21,.15-.48,.31-.84,.44-.06-.04-.37-.28-.55-.68-.04,0-.07,0-.11-.01-.14-.04-.24-.15-.41-.34-.2-.23-.33-.45-.4-.6,.08-.31,.26-.85,.69-1.38l1.12,1.12,.98,1.03Z" fill="#601f12"/>
      <polygon points="2.05 20.51 2.44 20.92 2.04 20.52 2.05 20.51" fill="#601f12"/>
      <path d="M2.44,20.92l1,1s-.01,.02-.02,.03l-.98-1.03Z" fill="#601f12"/>
      <path d="M4.25,20.83c-.09,.17-.2,.34-.32,.49l-2.04-2.05c.17-.14,.34-.24,.49-.32l1.87,1.88Z" fill="#601f12"/>
      <g>
        <g>
          <circle cx="1.15" cy="22.21" r="1.13" fill="#61c1bf"/>
          <path d="M.34,22.98c1.03,1.02,2.57-.47,1.58-1.51-.99-1.04-2.55,.44-1.58,1.51H.34Zm0,0c-1.05-1.1,.59-2.68,1.68-1.6,1.03,1.14-.63,2.7-1.68,1.6H.34Z" fill="#fff"/>
        </g>
        <g>
          <circle cx="1.15" cy="22.21" r=".79" fill="#5ae0d9"/>
          <path d="M1.7,22.78c.7-.7-.34-1.78-1.04-1.09-.72,.66,.31,1.76,1.04,1.09h0Zm0,0c-.76,.75-1.9-.43-1.13-1.19,.8-.73,1.92,.47,1.13,1.19h0Z" fill="#f3fffe"/>
        </g>
        <circle cx="1.15" cy="22.21" r=".42" fill="#8dfff4"/>
      </g>
      <polygon points="11.89 11.65 12.05 12 12.43 11.94 12.16 12.21 12.33 12.55 11.99 12.37 11.72 12.64 11.78 12.26 11.44 12.08 11.82 12.03 11.89 11.65" fill="#fff"/>
      <polygon points="20 5.28 20.08 5.43 20.24 5.41 20.12 5.52 20.2 5.68 20.05 5.6 19.93 5.71 19.96 5.55 19.81 5.47 19.97 5.45 20 5.28" fill="#fff"/>
      <path d="M16.04,3.79c-.35,.35-.76,.76-1.22,1.25,3.18-2.93,7.22-3.52,7.22-3.52l1.51-1.51s-4.29,.63-7.51,3.79Z" fill="#edf2f2"/>
      <path d="M14.82,5.03s-.02,0-.03,.03c-.48,.5-1.01,1.06-1.57,1.65,3.05-2.42,6.55-2.94,6.55-2.94l2.27-2.26s-4.04,.6-7.22,3.52Z" fill="#e8efef"/>
      <path d="M13.22,6.71l-.02,.02c-.73,.78-1.5,1.61-2.28,2.47,2.85-1.97,5.82-2.41,5.82-2.41l3.02-3.02s-3.5,.52-6.55,2.94Z" fill="#e2eded"/>
      <path d="M10.92,9.2c-.38,.42-.76,.85-1.15,1.27,2.74-1.76,5.46-2.16,5.46-2.16l1.51-1.51s-2.98,.44-5.82,2.41Z" fill="#d9e8e8"/>
      <circle cx="5.3" cy="17.9" r=".8" fill="#5ae0d9" stroke="#f3fffe" stroke-miterlimit="10" stroke-width=".2"/>
      <polygon points="15.71 5.42 15.88 5.77 16.26 5.71 15.98 5.98 16.15 6.32 15.81 6.14 15.54 6.41 15.61 6.03 15.27 5.85 15.65 5.8 15.71 5.42" fill="#fff"/>
      <polygon points="20.84 1.67 20.66 2 20.92 2.28 20.55 2.21 20.37 2.54 20.32 2.17 19.94 2.1 20.29 1.93 20.24 1.56 20.5 1.83 20.84 1.67" fill="#fff"/>
      <path d="M4.25,20.83l-1.87-1.87c.06-.04,.12-.08,.18-.11,.13-.07,.24-.13,.35-.19l1.64,1.64c-.07,.14-.13,.28-.22,.42-.03,.04-.05,.08-.07,.11Z" fill="#6b3f20"/>
      <path d="M4.78,19.89l-1.46-1.46c.11-.06,.22-.13,.31-.2,.06-.05,.12-.09,.17-.14l1.32,1.32c-.07,.07-.13,.13-.19,.22-.05,.08-.11,.16-.16,.25Z" fill="#6b3f20"/>
      <path d="M3.93,21.32c-.07,.1-.15,.2-.22,.29-.04,.05-.08,.09-.12,.14-.04,.05-.09,.11-.15,.17l-1-1-.39-.41h-.01s-.72-.71-.72-.71c.08-.09,.17-.18,.26-.27,.1-.1,.21-.19,.31-.26l2.04,2.05Z" fill="#6b3f20"/>
      <polygon points="2.05 20.51 2.44 20.92 2.04 20.52 2.05 20.51" fill="#6b3f20"/>
      <polygon points="9.13 12.64 9.3 13.23 9.92 13.24 9.41 13.59 9.59 14.18 9.1 13.81 8.59 14.16 8.8 13.57 8.31 13.2 8.92 13.22 9.13 12.64" fill="#fff"/>
    </g>
  </g>
</svg>