<?xml version="1.0" encoding="UTF-8"?>
<svg id="_Шар_2" data-name="Шар 2" xmlns="http://www.w3.org/2000/svg" viewBox="0 0 23.87 23.85">
  <g id="_2handschwert" data-name="2handschwert">
    <g>
      <path d="M18.1,5.77L6.57,17.29s-.03-.01-.04-.02c0-.02,0-.04,0-.06-.25-.51,.54-2.19,.86-2.78,.06-.11,.11-.23,.18-.32,.23-.4,.49-.76,.81-1.12l.03-.03c.49-.45,.89-.82,1.22-1.1l.02-.02c1.27-1.17,1.42-1.25,2.04-1.85,.4-.39,.74-.74,1.02-1.05h0c.32-.28,.51-.46,.84-.78,.31-.3,.58-.58,.82-.83h0c.74-.38,1.63-.79,2.81-1.32,.23-.11,.52-.23,.71-.28,.06-.05,.12-.05,.15-.04,0,0,0,.03,0,.04s.03,0,.04,.01Z" fill="#423939"/>
      <path d="M10.5,15.8l-.02,.02c-.29,.23-.6,.43-.93,.61h0s-.06,.04-.09,.06c-.59,.31-2.28,1.1-2.79,.84-.01,0-.04,0-.06,0,0,0,0-.02-.01-.03L18.1,5.77s0,.08-.04,.15c-.05,.19-.17,.48-.28,.71-.59,1.28-1.01,2.23-1.42,3.01h0c-.21,.21-.45,.42-.68,.67-.18,.19-.33,.34-.46,.49l-.03,.03c-.4,.34-.84,.76-1.38,1.31-.59,.62-.68,.76-1.85,2.04l-.02,.02c-.28,.33-.65,.72-1.1,1.22-.12,.13-.24,.25-.35,.38Z" fill="#3f3131"/>
      <polyline points="3.49 20.52 3.34 20.68 3.29 20.73" fill="none"/>
      <polygon points="5.95 19.69 5.77 19.87 4.8 19.63 4.59 19.27 3.96 18.21 4.05 18.12 4.04 18.11 4.66 17.51 5.29 18.58 5.95 19.69" fill="#6b3f20"/>
      <path d="M1,21.52h-.04S0,23.85,0,23.85c.13-.98,.26-1.96,.39-2.93l.61,.6Z" fill="#891a1a"/>
      <path d="M.4,20.85c.61,.06,1.21,.12,1.82,.18l.31,.3-1.53,.19-.61-.6s0-.05,0-.07Z" fill="#871212"/>
      <polygon points="2.53 21.33 2.98 21.78 2.99 23.49 2.38 22.89 2.53 21.33" fill="#6d0f0f"/>
      <polygon points="1 21.52 2.52 21.33 2.53 21.33 2.38 22.89 1 21.52" fill="#771818"/>
      <path d="M0,23.85l2.38-.96,.62,.61c-1,.12-2,.24-2.99,.36Z" fill="#721616"/>
      <polygon points=".95 21.52 .99 21.52 2.38 22.88 0 23.85 .95 21.52" fill="#891a1a"/>
      <polygon points="4.82 19.61 4.37 19.49 3.02 19.14 3.98 18.19 4.61 19.25 4.82 19.61" fill="#56331b"/>
      <polygon points="5 20.63 3.89 21.74 3.24 20.62 2.94 20.11 3.59 20.27 5 20.63" fill="#56331b"/>
      <polygon points="3.06 22.2 1.52 20.65 1.92 20.25 2.54 21.32 3.06 22.2" fill="#56331b"/>
      <polygon points="5.78 19.85 5 20.63 3.59 20.27 2.94 20.11 2.61 19.56 3.02 19.14 4.37 19.49 4.82 19.61 5.78 19.85" fill="#6b3f20"/>
      <polygon points="3.89 21.74 3.25 22.38 3.06 22.2 2.54 21.32 1.92 20.25 2.61 19.56 2.94 20.11 3.24 20.62 3.89 21.74" fill="#6b3f20"/>
      <polygon points="3.25 22.38 3.2 22.43 3.06 22.2 3.25 22.38" fill="#b6ad90"/>
      <rect x="5.07" y="16.59" width="2.44" height="2.02" transform="translate(14.29 .71) rotate(45)" fill="#b6ad90"/>
      <polygon points="7 18.62 6.36 19.26 6.17 19.07 5.65 18.19 5.03 17.13 5.72 16.44 6.05 16.99 6.35 17.5 7 18.62" fill="#6b3f20"/>
      <path d="M19.08,7.56c.94-1.17,1.49-2.4,2.58-4.8,.11-.24,.23-.53,.28-.72,.04-.06,.05-.12,.04-.15L23.82,.05s.03,0,.04,0c.02,.04,0,.08-.03,.16-.04,.2-.17,.48-.28,.72-1.12,2.45-1.67,3.66-2.63,4.88-.74,.92-1.27,1.36-1.83,1.75Z" fill="#443a39"/>
      <path d="M23.82,.05l-1.84,1.84s-.04,0-.04-.01,0-.03,0-.04c-.03-.01-.09,0-.15,.04-.2,.04-.49,.16-.72,.28-2.27,1.03-3.51,1.58-4.62,2.44,.36-.49,.8-.98,1.62-1.63,1.2-.98,2.42-1.53,4.87-2.64,.24-.11,.53-.23,.73-.28,.07-.04,.11-.06,.14-.04,0,0,0,.03,.01,.04Z" fill="#4c4443"/>
      <path d="M21.98,1.89l-3.88,3.88s-.04,0-.04-.01,0-.03,0-.04c-.03-.01-.08-.01-.15,.04-.2,.04-.49,.16-.71,.28-1.17,.52-2.06,.93-2.81,1.31,1.17-1.24,1.52-1.99,2.06-2.74h0c1.11-.86,2.35-1.42,4.62-2.45,.23-.12,.52-.24,.72-.28,.06-.04,.12-.05,.15-.04,0,0,0,.03,0,.04s.03,0,.04,.01Z" fill="#4f4141"/>
      <path d="M19.08,7.56c-.71,.5-1.46,.88-2.72,2.08,.41-.78,.83-1.73,1.42-3.01,.11-.23,.23-.52,.28-.71,.04-.07,.05-.12,.04-.15l3.88-3.88s0,.08-.04,.15c-.05,.19-.17,.48-.28,.72-1.09,2.4-1.64,3.63-2.58,4.8Z" fill="#4c3c3c"/>
      <path d="M13.56,8.18c-.33,.32-.53,.5-.85,.77,.43-.47,.74-.88,.98-1.23,.22-.12,.44-.24,.68-.37-.24,.26-.5,.54-.81,.83Z" fill="#9aa1a8"/>
      <path d="M16.1,10.13c-.26,.18-.55,.4-.87,.67,.13-.15,.28-.29,.46-.49,.23-.25,.47-.47,.68-.66-.09,.17-.18,.33-.26,.48Z" fill="#9aa1a8"/>
      <path d="M6.59,16.36c-.08,.26-.12,.5-.09,.68-.33-.31-.65-.57-.99-.79,.09-.16,.18-.32,.27-.46,.03-.06,.06-.12,.1-.18l.02-.02c.56-.82,1.29-1.51,2.48-2.61-.32,.36-.57,.71-.81,1.12-.06,.09-.12,.21-.18,.32-.21,.4-.62,1.24-.8,1.93Z" fill="#3f3131"/>
      <path d="M8.22,17.93l-.02,.02s-.07,.04-.11,.06c-.16,.1-.33,.2-.5,.29-.22-.31-.47-.63-.77-.92,.19,.02,.43-.02,.7-.09,.68-.19,1.53-.6,1.92-.8,.03-.02,.06-.03,.09-.05h0c.33-.19,.64-.38,.93-.61-.9,.98-1.52,1.6-2.26,2.1Z" fill="#443a39"/>
      <path d="M13.56,8.18c-.33,.32-.53,.5-.85,.77,.43-.47,.74-.88,.98-1.23,.22-.12,.44-.24,.68-.37-.24,.26-.5,.54-.81,.83Z" fill="#443a39"/>
      <path d="M16.1,10.13c-.26,.18-.55,.4-.87,.67,.13-.15,.28-.29,.46-.49,.23-.25,.47-.47,.68-.66-.09,.17-.18,.33-.26,.48Z" fill="#443a39"/>
      <path d="M9,20.77s-.1,.09-.15,.12c.4-.92-.28-2.59-1.68-4-1.51-1.51-3.31-2.17-4.19-1.58,.04-.13,.12-.24,.22-.34,.8-.8,2.75-.16,4.35,1.45s2.25,3.55,1.45,4.35Z" fill="#4c3c3c"/>
      <path d="M8.85,20.89h0c-.12,.09-.26,.15-.41,.19,.2-.71-.12-1.75-.84-2.78-.22-.31-.47-.63-.77-.92-.04-.05-.09-.1-.13-.15-.06-.06-.13-.13-.2-.19-.33-.31-.65-.57-.99-.79-.95-.64-1.92-.94-2.59-.78,.02-.06,.04-.12,.07-.16,.61-.41,1.69-.2,2.79,.48,.27,.16,.54,.36,.81,.57,.19,.16,.39,.34,.58,.54,.12,.12,.24,.26,.36,.39,.22,.23,.4,.48,.57,.72,.75,1.09,1.06,2.2,.76,2.89Z" fill="#493030"/>
      <rect x=".94" y="21.44" width="2.56" height=".34" transform="translate(15.93 4.76) rotate(45)" fill="#b6ad90"/>
      <polygon points="6.41 19.22 5.95 19.69 5.29 18.57 4.67 17.51 4.67 17.5 4.64 17.47 5.05 17.07 5.68 18.14 6.17 18.98 6.41 19.22" fill="#56331b"/>
      <line x1="6.48" y1="17.39" x2="6.57" y2="17.29" fill="none"/>
    </g>
  </g>
</svg>