<?xml version="1.0" encoding="UTF-8"?>
<svg id="_Шар_2" data-name="Шар 2" xmlns="http://www.w3.org/2000/svg" xmlns:xlink="http://www.w3.org/1999/xlink" viewBox="0 0 23.65 23.61">
  <defs>
    <radialGradient id="_Градієнт_без_назви_9" data-name="Градієнт без назви 9" cx="9.44" cy="16.35" fx="9.44" fy="16.35" r="2.26" gradientTransform="translate(8.06 16.4) rotate(90) scale(.6 .39)" gradientUnits="userSpaceOnUse">
      <stop offset="0" stop-color="#662d91" stop-opacity=".7"/>
      <stop offset="1" stop-color="#662d91" stop-opacity="0"/>
    </radialGradient>
  </defs>
  <g id="_2handschwert" data-name="2handschwert">
    <g>
      <rect x="6.14" y="13.9" width=".73" height="6.58" transform="translate(-10.25 9.63) rotate(-45)" fill="#2d120c"/>
      <g>
        <g>
          <polygon points="2.11 21.51 1.41 22.21 .04 20.84 .04 20.82 1.45 20.83 2.11 21.51" fill="#534a7c"/>
          <polygon points="1.41 22.21 .7 22.92 0 22.2 .04 20.84 1.41 22.21" fill="#463f75"/>
          <polygon points="2.78 23.61 1.37 23.6 .7 22.92 1.41 22.21 2.78 23.59 2.78 23.61" fill="#484675"/>
          <polygon points="2.78 23.59 1.41 22.21 2.11 21.51 2.82 22.22 2.78 23.59" fill="#554f84"/>
        </g>
        <ellipse cx="1.62" cy="22.06" rx=".89" ry="1.36" transform="translate(-15.12 7.61) rotate(-45)" fill="url(#_Градієнт_без_назви_9)"/>
        <path d="M12.34,15.69c-.07,.04-.57,.27-1.27,.66-.7,.38-1.59,.89-2.5,1.52l-2.63-2.63c.64-.92,1.17-1.82,1.54-2.53,.37-.67,.6-1.15,.64-1.23-.01,.16,0,1.13,2.7-.81,.19-.13,.36-.27,.52-.4,1.23-1,1.76-1.97,2-2.68,.22-.67,.16-1.09,.16-1.09,1.16,.77,4.07-.47,4.43-.62h.01c-.15,.36-1.39,3.26-.61,4.43,0,0-.44-.05-1.14,.18-.64,.22-1.48,.67-2.36,1.65-.24,.24-.46,.52-.7,.84-1.93,2.69-.96,2.72-.8,2.71Z" fill="#434149"/>
        <path d="M12.34,15.69c-.07,.04-.57,.27-1.27,.66-.7,.38-1.59,.89-2.5,1.52l-2.63-2.63c.64-.92,1.17-1.82,1.54-2.53,.37-.67,.6-1.15,.64-1.23-.01,.16,0,1.13,2.7-.81,.19-.13,.36-.27,.52-.4,1.23-1,1.76-1.97,2-2.68,.22-.67,.16-1.09,.16-1.09,1.16,.77,4.07-.47,4.43-.62h.01c-.15,.36-1.39,3.26-.61,4.43,0,0-.44-.05-1.14,.18-.64,.22-1.48,.67-2.36,1.65-.24,.24-.46,.52-.7,.84-1.93,2.69-.96,2.72-.8,2.71Z" fill="#3b3944"/>
        <path d="M11.42,16.55c-.12,.06-1.29,.62-2.7,1.47l-3-3c.86-1.4,1.41-2.56,1.47-2.68,0,.08,0,.32,.28,.37,.31,.06,.99-.14,2.44-1.18,.59-.43,1.05-.84,1.42-1.26,1.41-1.6,1.26-2.92,1.26-2.92,.21,.13,.46,.2,.74,.23,1.35,.14,3.38-.73,3.69-.86h.01c-.13,.31-1.02,2.41-.84,3.75,.03,.27,.1,.49,.23,.68,0,0-1.14-.14-2.59,.97-.51,.39-1.05,.93-1.61,1.7-1.11,1.56-1.26,2.24-1.16,2.52,.07,.21,.28,.21,.35,.2Z" fill="#434149"/>
        <path d="M23.62,.02c-1.11,1.29-2.28,2.95-3.23,5.02-.25,.54-.46,1.06-.65,1.57-.42,.1-.97,.27-1.54,.63-1.38,.85-1.95,2.15-2.15,2.68l-1.16-1.16L23.62,.02Z" fill="#434149"/>
        <path d="M23.65,0c-1.29,1.11-2.95,2.28-5.02,3.23-.54,.25-1.06,.46-1.57,.65-.1,.42-.27,.97-.63,1.54-.85,1.38-2.15,1.95-2.68,2.15l1.16,1.16L23.65,0Z" fill="#434149"/>
        <path d="M10.61,15.44c-.17,.11-1.31,.84-2.62,1.85l-1.53-1.53c1.01-1.31,1.74-2.44,1.85-2.6-.04,.13-.14,.76,2.09-1.08,2.46-2.01,2.65-3.46,2.65-3.46,.7,.35,3.01-1.05,3.29-1.23h.01c-.17,.29-1.58,2.59-1.21,3.29,0,0-1.46,.19-3.48,2.65-1.82,2.23-1.2,2.14-1.07,2.1Z" fill="#48464f"/>
        <path d="M9.05,13.53c.15,.54,.24,.74,.47,1.05-.37,.05-.56,.14-1.05,.47,.13-.47,.04-.67-.47-1.04,.65,.03,.84-.06,1.04-.47Z" fill="#524f5e"/>
        <path d="M19.25,5.26c-.46,.33-.61,.49-.81,.81-.17-.33-.33-.48-.81-.81,.49-.04,.64-.19,.81-.81,.2,.61,.36,.77,.81,.81Z" fill="#524f5e"/>
        <rect x="3.68" y="16.26" width="6.58" height=".89" transform="translate(13.85 -.04) rotate(45)" fill="#411d13"/>
        <path d="M5.14,19.89l-1.39-1.39,2.27-2.27c.38-.09,.82,.06,1.11,.39,.4,.45,.28,.97,.27,1l-2.27,2.27Z" fill="#411d13"/>
        <rect x="2.49" y="19.02" width="3.85" height=".48" transform="translate(14.91 2.52) rotate(45)" fill="#411d13"/>
        <path d="M6.8,18.22c-.05,.05-.1,.1-.16,.15s-.1,.11-.15,.16c-.47-.46-.93-.92-1.4-1.38,.01-.01,.15-.15,.16-.16s.15-.15,.16-.16c.46,.46,.92,.92,1.38,1.39Z" fill="#60381d"/>
        <path d="M2.8,22.22l-1.39-1.39,2.27-2.27c.38-.09,.82,.06,1.11,.39,.4,.45,.28,.97,.27,1l-2.27,2.27Z" fill="#411d13"/>
        <path d="M7.11,17.91c-.05,.05-.1,.1-.16,.15s-.1,.11-.15,.16c-.47-.46-.93-.92-1.4-1.38,.01-.01,.15-.15,.16-.16s.15-.15,.16-.16c.46,.46,.92,.92,1.38,1.39Z" fill="#6b3f20"/>
        <path d="M5.76,19.26c-.05,.05-.1,.1-.16,.15s-.1,.11-.15,.16c-.47-.46-.93-.92-1.4-1.38,.01-.01,.15-.15,.16-.16s.15-.15,.16-.16c.46,.46,.92,.92,1.38,1.39Z" fill="#60381d"/>
        <path d="M6.08,18.95c-.05,.05-.1,.1-.16,.15s-.1,.11-.15,.16c-.47-.46-.93-.92-1.4-1.38,.01-.01,.15-.15,.16-.16s.15-.15,.16-.16c.46,.46,.92,.92,1.38,1.39Z" fill="#6b3f20"/>
        <path d="M4.47,20.56c-.05,.05-.1,.1-.16,.15s-.1,.11-.15,.16c-.47-.46-.93-.92-1.4-1.38,.01-.01,.15-.15,.16-.16s.15-.15,.16-.16c.46,.46,.92,.92,1.38,1.39Z" fill="#60381d"/>
        <path d="M4.78,20.25c-.05,.05-.1,.1-.16,.15s-.1,.11-.15,.16c-.47-.46-.93-.92-1.4-1.38,.01-.01,.15-.15,.16-.16s.15-.15,.16-.16c.46,.46,.92,.92,1.38,1.39Z" fill="#6b3f20"/>
        <path d="M3.44,21.59c-.05,.05-.1,.1-.16,.15s-.1,.11-.15,.16c-.47-.46-.93-.92-1.4-1.38,.01-.01,.15-.15,.16-.16s.15-.15,.16-.16c.46,.46,.92,.92,1.38,1.39Z" fill="#60381d"/>
        <path d="M3.75,21.28c-.05,.05-.1,.1-.16,.15s-.1,.11-.15,.16c-.47-.46-.93-.92-1.4-1.38,.01-.01,.15-.15,.16-.16s.15-.15,.16-.16c.46,.46,.92,.92,1.38,1.39Z" fill="#6b3f20"/>
      </g>
    </g>
  </g>
</svg>