<?xml version="1.0" encoding="UTF-8"?>
<svg id="_Шар_2" data-name="Шар 2" xmlns="http://www.w3.org/2000/svg" viewBox="0 0 23.7 23.68">
  <g id="_2handschwert" data-name="2handschwert">
    <g>
      <polygon points="21 2.7 17.47 6.23 13.68 6.28 16.86 2.75 21 2.7" fill="#8595a0"/>
      <polygon points="8.2 17.12 7.72 17.6 5.19 17 6.63 15.55 8.2 17.12" fill="#894d25"/>
      <polygon points="23.61 .15 23.68 .08 23.62 4.54 20.79 7.08 20.84 2.91 21 2.75 16.86 2.75 19.33 0 23.7 0 23.61 .09 23.61 .15" fill="#929aa0"/>
      <polygon points="20.84 2.91 20.79 7.08 17.25 10.26 17.3 6.45 20.84 2.91" fill="#849299"/>
      <polygon points="20.84 2.91 20.79 7.08 17.25 10.26 17.3 6.45 20.84 2.91" fill="#adb5bd"/>
      <polygon points="20.85 2.89 17.31 6.43 13.5 6.48 16.69 2.94 20.85 2.89" fill="#bcc3c9"/>
      <polygon points="17.25 10.26 15.08 12.21 11.53 15.4 9.53 17.2 8.05 15.71 17.3 6.45 17.25 10.26" fill="#9aa1a8"/>
      <polygon points="17.31 6.43 8.06 15.68 6.57 14.19 8.24 12.34 11.42 8.81 13.5 6.48 17.31 6.43" fill="#adb5bd"/>
      <rect x="3.12" y="15.54" width="9.6" height=".87" transform="translate(13.62 -.92) rotate(45)" fill="#9aa1a8"/>
      <rect x="3.59" y="14.92" width="2.38" height="8.1" transform="translate(14.81 2.18) rotate(45)" fill="#936639"/>
      <path d="M.08,21.41c.61-.61,1.6-.61,2.2,0s.61,1.59,0,2.2c-.03,.03-.05,.05-.08,.08l-2.2-2.2s.05-.05,.08-.08Z" fill="#849299"/>
      <polygon points="6.06 19.3 5.58 19.78 3.04 19.18 4.49 17.73 6.06 19.3" fill="#894d25"/>
      <polygon points="7.51 17.85 6.06 19.3 4.49 17.73 4.98 17.24 7.51 17.85" fill="#99582a"/>
      <polygon points="5.58 19.78 4.13 21.23 2.56 19.66 3.04 19.18 5.58 19.78" fill="#99582a"/>
      <polygon points="15.1 12.19 11.53 15.39 11.53 12.26 15.1 8.7 15.1 12.19" fill="#adb5bd"/>
      <polygon points="15.07 8.71 11.53 12.25 11.41 12.25 11.39 12.25 8.25 12.35 11.44 8.83 14.94 8.71 14.95 8.71 15.07 8.71" fill="#bcc3c9"/>
      <circle cx="10.95" cy="19.07" r=".74" fill="#9aa1a8"/>
      <circle cx="4.78" cy="12.87" r=".74" fill="#9aa1a8"/>
    </g>
  </g>
</svg>