<?xml version="1.0" encoding="UTF-8"?>
<svg id="_Шар_2" data-name="Шар 2" xmlns="http://www.w3.org/2000/svg" viewBox="0 0 23.99 24">
  <g id="_2handschwert" data-name="2handschwert">
    <polyline points="1.68 22.24 1.49 22.43 1.43 22.48" fill="none"/>
    <polygon points="20.89 6.81 17.35 10.34 20.45 3.54 23.99 0 20.89 6.81" fill="#f2ac30"/>
    <polygon points="17.35 10.34 14.68 13.02 14.59 13.02 17.63 6.36 20.45 3.54 17.35 10.34" fill="#f2a22f"/>
    <polygon points="14.59 13.02 13.49 13.02 9.73 16.77 9.73 14.28 9.71 14.28 17.63 6.36 14.59 13.02" fill="#e29229"/>
    <polygon points="23.99 0 20.45 3.54 13.64 6.64 17.18 3.1 23.99 0" fill="#fb3"/>
    <polygon points="20.45 3.54 17.63 6.36 10.98 9.39 10.98 9.31 13.64 6.64 20.45 3.54" fill="#ffaf2e"/>
    <polygon points="17.63 6.36 9.71 14.28 7.18 14.29 10.98 10.49 10.98 9.39 17.63 6.36" fill="#f2a02a"/>
    <polygon points="9.73 17.48 8.69 17.49 8.69 15.37 6.55 15.37 6.54 14.29 7.18 14.29 9.71 14.28 9.73 14.28 9.73 17.48" fill="#ffaf2e"/>
    <polygon points="8.69 18.56 7.48 18.56 5.5 18.56 5.5 16.44 5.5 15.37 6.55 15.37 6.54 17.48 8.69 17.49 8.69 18.56" fill="#e29229"/>
    <g>
      <polygon points="2.66 21.35 1.72 22.31 .2 20.8 .2 20.77 1.92 20.61 2.66 21.35" fill="#ce9334"/>
      <polygon points="1.72 22.31 .78 23.25 0 22.47 .2 20.8 1.72 22.31" fill="#ba862b"/>
      <polygon points="3.24 23.84 1.52 24 .78 23.25 1.72 22.31 3.24 23.81 3.24 23.84" fill="#af7828"/>
      <polygon points="3.24 23.81 1.72 22.31 2.66 21.35 3.44 22.14 3.24 23.81" fill="#cc8b36"/>
    </g>
    <rect x="5.5" y="16.87" width="2.96" height=".39" transform="translate(14.11 .06) rotate(45)" fill="#601f12"/>
    <polygon points="7.9 18.25 7.36 18.79 6.55 17.45 5.79 16.18 5.8 16.16 7.9 18.25" fill="#56331b"/>
    <polygon points="6 18.69 5.47 18.54 3.86 18.1 4.97 16.99 5.74 18.26 6 18.69" fill="#56331b"/>
    <polygon points="6.24 19.91 4.95 21.19 4.16 19.85 3.78 19.24 4.56 19.45 6.24 19.91" fill="#56331b"/>
    <polygon points="3.98 21.71 2.11 19.85 2.58 19.38 3.34 20.66 3.98 21.71" fill="#56331b"/>
    <polyline points="3.21 20.91 3.02 21.1 2.96 21.16" fill="none"/>
    <polygon points="7.36 18.79 7.15 19 6 18.69 5.74 18.26 4.97 16.99 5.07 16.89 5.06 16.88 5.79 16.18 6.55 17.45 7.36 18.79" fill="#6b3f20"/>
    <polygon points="7.15 19 6.24 19.91 4.56 19.45 3.78 19.24 3.38 18.58 3.86 18.1 5.47 18.54 6 18.69 7.15 19" fill="#6b3f20"/>
    <polygon points="4.95 21.19 4.2 21.94 3.98 21.71 3.34 20.66 2.58 19.38 3.38 18.58 3.78 19.24 4.16 19.85 4.95 21.19" fill="#6b3f20"/>
    <path d="M3.45,22.15c-.51-.51-1.02-1.03-1.52-1.54,.07-.26,.14-.52,.21-.78l2.11,2.11c-.26,.07-.53,.14-.79,.21Z" fill="#601f12"/>
    <path d="M10.21,13.37c-.64-.28-.74-.39-.83-.83-.16,.45-.26,.55-.83,.83,.58-.04,.68,.07,.83,.83,.09-.77,.19-.87,.83-.83Z" fill="#ffc050"/>
    <path d="M15,11.28c-.64-.28-.74-.39-.83-.83-.16,.45-.26,.55-.83,.83,.58-.04,.68,.07,.83,.83,.09-.77,.19-.87,.83-.83Z" fill="#ffc050"/>
    <path d="M17.63,5.12c-.64-.28-.74-.39-.83-.83-.16,.45-.26,.55-.83,.83,.58-.04,.68,.07,.83,.83,.09-.77,.19-.87,.83-.83Z" fill="#ffc050"/>
    <path d="M22.7,2.39c-.64-.28-.74-.39-.83-.83-.16,.45-.26,.55-.83,.83,.58-.04,.68,.07,.83,.83,.09-.77,.19-.87,.83-.83Z" fill="#ffc050"/>
    <rect x="2.68" y="16.1" width="9.23" height="1.05" rx=".52" ry=".52" transform="translate(13.89 -.29) rotate(45)" fill="#ffaf2e"/>
    <rect x="6.56" y="15.35" width="2.12" height="2.15" transform="translate(-8.83 23.99) rotate(-89.81)" fill="#ffc050"/>
  </g>
</svg>