<?xml version="1.0" encoding="UTF-8"?>
<svg id="_Шар_2" data-name="Шар 2" xmlns="http://www.w3.org/2000/svg" xmlns:xlink="http://www.w3.org/1999/xlink" viewBox="0 0 14.28 20.75">
  <defs>
    <style>
      .cls-1 {
        fill: none;
        stroke: #1d1d1b;
        stroke-miterlimit: 10;
        stroke-width: .25px;
      }

      .cls-2 {
        fill: #353535;
      }
    </style>
    <symbol id="helmet" viewBox="0 0 14.28 20.75">
      <g>
        <path class="cls-1" d="M6.15,16.62"/>
        <path class="cls-1" d="M1.15,13.62h0"/>
        <path class="cls-1" d="M6.15,15.37c0,1.75,0,3.5,0,5.25h-1.67c-.38-.76-.91-1.68-1.67-2.63-.57-.72-1.15-1.29-1.67-1.75v-2.62"/>
        <path class="cls-1" d="M4.15,2.07C1.93,2.77,.43,4.18,.15,5.62c-.06,.29,0,.62,0,1v6"/>
        <path class="cls-1" d="M14.15,12.62V5.62s-.64-2.58-4-3.59"/>
        <path class="cls-1" d="M8.15,13.62"/>
        <path class="cls-1" d="M6.15,20.62c-.36-1.08-.97-2.51-2-4-1.37-1.98-2.92-3.25-4-4v-1"/>
        <path class="cls-1" d="M4.9,2.38l-.75-.75S4.9,.12,6.4,.12h1.5s1.5,0,2.25,1.5l-1.5,1.5h-3l-.75-.75"/>
        <polyline class="cls-1" points="3.15 2.62 5.15 4.62 9.15 4.62 11.15 2.62"/>
        <path class="cls-1" d="M1.15,12.62"/>
        <line class="cls-1" x1="1.15" y1="8.62" x2="1.15" y2="11.63"/>
        <path class="cls-1" d="M1.15,8.62"/>
        <line class="cls-1" x1="1.15" y1="5.62" x2="1.15" y2="7.62"/>
        <line class="cls-1" x1="9.15" y1="14.62" x2="9.15" y2="16.62"/>
        <path class="cls-1" d="M9.15,14.62"/>
        <line class="cls-1" x1="9.15" y1="12.62" x2="9.15" y2="13.62"/>
        <path class="cls-1" d="M8.15,8.62"/>
        <path class="cls-1" d="M8.15,15.62h-2v-4c-1-2-3-2-3-2h-1v-1h4"/>
        <g>
          <path class="cls-1" d="M9.61,10.08c.25-.14,.62-.32,1.1-.42,.61-.13,1.12-.09,1.45-.04v-1h-4"/>
          <path class="cls-1" d="M9.61,10.08"/>
          <path class="cls-1" d="M9.15,10.41c-.66,.56-1,1.21-1,1.21v9h1.67c.38-.76,.91-1.68,1.67-2.62,.57-.72,1.15-1.29,1.67-1.75v-2.62"/>
          <path class="cls-1" d="M9.61,10.08c-.17,.1-.32,.21-.46,.33"/>
          <path class="cls-2" d="M4.15,8.62H2.15v1c.32-.04,1.82-.21,3.05,.8,.49,.41,.78,.87,.95,1.2v4h2v-4c.16-.31,.39-.67,.75-1,1.22-1.14,2.87-1.04,3.25-1v-1h-4l-1,4-1-4h-2Z"/>
          <path class="cls-1" d="M4.15,8.62"/>
        </g>
        <path class="cls-1" d="M14.15,11.62v1c-.92,.74-1.97,1.73-3,3-1.49,1.83-2.42,3.62-3,5"/>
        <rect class="cls-1" x="6.15" y="7.62" width="2" height="0"/>
        <polyline class="cls-1" points="6.15 8.62 7.15 12.62 8.15 8.62"/>
      </g>
    </symbol>
  </defs>
  <g id="ICONS">
    <use width="14.28" height="20.75" xlink:href="#helmet"/>
  </g>
</svg>