<?xml version="1.0" encoding="UTF-8"?>
<svg xmlns="http://www.w3.org/2000/svg" xmlns:xlink="http://www.w3.org/1999/xlink" viewBox="0 0 50 50">
  <defs>
    <clipPath id="clippath">
      <rect width="50" height="50" fill="none"/>
    </clipPath>
  </defs>
  <g id="fuerwaffe">
    <polygon points="32.2299805 -.8499756 31.8400269 .1099854 32.1699829 -.789978 32.2299805 -.8499756" fill="#ffd00b"/>
  </g>
  <g id="inferno">
    <g clip-path="url(#clippath)">
      <rect width="50" height="50" fill="#03071e"/>
      <path d="M26.7172397,6.0359086c.3356713,.1925717-.233922,1.8461076-.265985,3.7035883-.0564552,3.2709252,1.5334641,8.3613348,4.7877295,9.0906257,2.7189187,.6093166,5.6178286-2.0458303,6.3836394-5.0503476,1.037981-4.0723379-2.0791765-7.8811077-1.5959098-8.417246,1.1971678-1.3281354,22.7301077,19.3779219,19.4169031,28.6186365-1.8015839,5.0247013-11.9297768,3.232597-21.012813,1.6834492-9.9233874-1.6924706-17.9068897-3.0540876-19.6828881-9.4273156-2.2829755-8.1925186,7.1547669-19.4147236,7.4475793-19.191321,.1435043,.1094906-1.703187,3.1257291-.7979549,5.3870375,.4945902,1.2355073,1.7517685,2.0984689,2.3938648,1.6834492,.7985394-.5161356,.0452129-2.6206712,1.0639399-5.3870375,.565973-1.5369183,1.5330988-2.8821483,1.8618948-2.6935187Z" fill="#370617"/>
      <path d="M-1.9349723,28.614267c2.4669035,11.1867969,17.0078916,14.3402407,26.5984975,12.1208343,10.1926842-2.3587375,19.4309703-11.8591825,18.3529632-16.4978022-1.571063-6.7602574-24.8014511-2.1089185-26.5984975-10.7740749-.6249608-3.0134899,1.3837826-7.4376658,.7979549-7.7438663-.3008403-.1572448-.7807221,1.0355546-2.1278798,2.6935187-1.3916725,1.7127438-3.2104325,3.9511094-4.7877295,3.3668984-1.1406638-.422487-2.0358874-2.2769944-1.8618948-3.7035883,.1818013-1.4906403,1.5046967-2.298636,1.3299249-2.6935187-.1703398-.3848637-1.5198353,.1727982-1.8618948,.3366898C4.8989697,7.1603642-4.1895699,18.3902453-1.9349723,28.614267Z" fill="#6a040f"/>
      <path d="M8.4206182,35.1003445c-5.7465254-.0666797-8.4015857,2.5072815-11.4009982,.5391639-4.9151695-3.2251746-3.5170342-13.8981668-2.7145234-14.0182608,.5149791-.0770658,.9976834,4.1596185,2.7145234,4.313311,.9908574,.0887024,1.5616711-1.2570118,3.2574281-3.2349833,2.9704845-3.4648463,6.5665653-5.5730955,7.0577608-5.1220568,.3762955,.3455309-1.4425876,1.8505437-1.0858094,3.7741471,.3854908,2.0784282,3.197907,4.0360677,5.1575944,3.5045652,1.8748585-.5084957,1.522678-2.9029806,4.3432374-5.6612207,2.248354-2.198675,4.8942108-3.0457412,5.1575944-2.6958194,.302791,.4022771-2.7230477,2.1475163-2.7145234,4.8524749,.0046639,1.4800531,.9169718,2.9894452,1.628714,2.9654013,.838298-.0283193,.8030907-2.1637605,2.7145234-4.5828929,1.1899567-1.5060273,2.8261181-2.7318772,3.2574281-2.4262374,.6620876,.469182-1.7739089,4.3646453-1.0858094,4.8524749,.4335798,.3073844,1.6686267-1.0496459,4.8861421-2.9654013,1.167134-.6949283,2.916025-1.7244132,3.2574281-1.3479097,.2088496,.2303204-.3024348,.7734839-.5429047,1.6174916-.4789517,1.6810492,.2499138,4.0870658,1.9001664,5.1220568,2.3742884,1.4890858,6.0260878-.2547878,7.0577608-2.4262374,.9288677-1.9550694-.4117927-3.9503425,.2714523-4.313311,.7113612-.3779072,2.9383589,1.3739571,3.8003327,3.7741471,.8413962,2.3429047-.0643341,4.0603023,.5429047,4.313311,.7585721,.3160644,3.0271144-2.0077599,3.5288804-4.8524749,.311365-1.7652833-.2054117-2.8932514,0-2.9654013,.5430704-.1907588,6.1796496,6.9831064,4.8861421,13.4790969-1.7385442,8.7309711-15.6767287,14.633187-25.9236982,12.4007691-8.7203981-1.8998377-10.621923-8.787945-19.9517468-8.8962039Z" fill="#9d0208"/>
      <path d="M-8.5206567,28.1962788c.8412035-.1664323,1.9239672,4.003867,3.7237896,3.8742399,1.2028336-.0866309,1.353619-1.9949208,3.4578047-4.6490879,2.3736935-2.9941178,5.486971-4.7347288,5.8516694-4.3908052,.3176429,.2995507-1.443087,2.1867657-1.0639399,2.5828266,.6710179,.7009507,7.0313933-4.3280041,7.7135643-3.6159572,.3748612,.3912808-1.3597475,1.7561468-1.5959098,4.1325226-.2929423,2.9477234,1.860588,6.092283,3.1918197,5.9405012,1.0432653-.1189497,.8051955-2.1738873,2.6598497-4.9073705,2.183572-3.2182616,5.9114527-5.377797,6.9156093-4.6490879,.7175133,.520699-.5708027,2.0696733-.265985,4.1325226,.7448927,5.0410914,10.512048,9.822574,14.8951586,7.2319145,2.5001273-1.4777131,2.0879269-4.6680218,6.1176544-6.9736318,1.1674669-.6679678,2.7086261-1.262169,3.1918197-.774848,.7153379,.7214463-1.5793101,3.1160716-.7979549,4.1325226,.6869844,.8936834,3.6404421,.5771407,5.0537145-1.0331306,2.0111704-2.2915201,.146045-6.3402275,.5319699-6.4570665,.5620524-.1701663,6.7604731,7.8202962,4.5217446,14.463829-2.8078753,8.3325085-16.6540865,10.3683467-30.4552796,12.3975677-14.7797805,2.1731059-25.2227347,3.7085549-30.9872495-2.5828266-6.0377485-6.5895814-4.0279255-18.5839613-2.6598497-18.8546342Z" fill="#dc2f02"/>
      <path d="M-12.1165666,47.1834895c0-.0649497,.3924999,.2437146,.8702306,.2141489,3.8646639-.2391778,2.1552186-13.4556319,10.5671233-19.4402858,2.272553-1.6168078,5.3772181-2.7722417,5.5856845-2.4807919,.1413613,.1976323-1.1778975,.88037-1.8618948,2.2327127-1.3215641,2.6128754,.1407931,6.9099598,2.3938648,7.4423756,1.6459931,.388959,3.3909919-1.3076604,6.3836394-4.2173462,3.1483276-3.0610488,4.8455485-5.6956786,5.3196995-5.4577421,.4349043,.2182447-1.0279725,2.417283-.7979549,5.7058213,.0853688,1.2205463,.5049964,4.0358397,1.5959098,4.2173462,2.2218122,.3696649,6.021368-10.3862725,6.6496244-10.1712466,.2415359,.0826667-.4567639,1.6256249-.265985,3.969267,.1044686,1.2833563,.2764481,3.3961204,1.8618948,4.7135045,1.2834376,1.0664384,3.4899326,1.6089943,5.3196995,.9923167,3.5948639-1.2115579,2.7263541-5.8834005,7.7135643-9.1789299,1.1997166-.7927662,2.7104768-1.4875184,2.9258347-1.2403959,.190779,.218917-.8484278,.9439646-1.3299249,2.2327127-.5453552,1.4596603-.3698691,3.6279755,1.0639399,4.9615837,1.91391,1.7801601,4.950496,1.031858,6.1176544,.7442376,.8516747-.2098789,3.4308068-.8454465,4.2557596-2.7288711,.782451-1.7863894-.4721298-3.6475024-.265985-3.7211878,.2461627-.0879895,2.3309726,2.4600716,2.6598497,5.9539005,.3721906,3.9540024-1.7440491,6.5751867-1.0639399,6.9462172,.6176878,.3369809,2.8841934-1.5410248,3.9897746-3.969267,.7756163-1.7035117,.6610499-2.9776004,.7979549-2.9769502,.3828891,.0018198,3.6106356,9.9788846-.5319699,15.1328304-3.6803788,4.5788734-11.117568,2.7873137-36.1739565,1.2403959-16.504056-1.0189186-33.7800918-.7261264-33.7800918-1.1163563Z" fill="#e85d04"/>
      <path d="M-12.6485365,47.4033021c-3.6934394-5.1680432,1.7263698-14.6256218,2.1278798-14.5515386,.3197778,.0590041-1.7314187,6.3141486,.265985,7.2757693,1.8571381,.8940913,6.5739719-3.0962181,9.3094741-6.3056667,2.6427874-3.1006681,3.2238259-5.2232601,4.2557596-5.0930385,2.2434284,.2831032,2.3600728,10.676411,3.4578047,10.6711283,.7781083-.0037451,.2646294-5.2235576,3.9897746-8.0033462,1.7961535-1.3403302,4.0779763-1.7404571,4.2557596-1.4551539,.1876457,.3011356-2.1459974,1.0814375-2.6598497,2.9103077-.6627383,2.3587641,2.1463708,4.8788247,2.9258347,5.5780898,1.3979309,1.2540884,3.444598,3.0901666,5.3196995,2.6677821,3.5076038-.7901234,1.7248275-8.4266522,7.4475793-12.3688078,2.3547073-1.6220535,5.4180071-2.231435,6.1176544-1.4551539,.8031418,.8911201-2.0672361,2.988198-1.5959098,5.8206154,.4755553,2.857851,4.0259936,4.4985128,4.7877295,4.8505129,4.5826156,2.1176327,11.2301214,1.3016899,13.5652337-1.9402051,2.2312282-3.0976798-.2161164-7.3810902,.265985-7.5182949,.77836-.2215208,8.7677797,10.4858165,5.0537145,16.6130065-2.9088535,4.7988093-10.7243294,3.0394714-35.6419866,4.0016731-22.2090554,.8576084-30.0357493,2.7972289-33.2481218-1.6976795Z" fill="#faa307"/>
      <path d="M-8.6013962,45.246718c-.5190441-1.6213831,.1625408-5.5913276,2.7814049-7.632564,1.0703587-.8342772,2.5242055-1.3930352,2.7814049-2.7340528,.2726016-1.4213167-1.0233728-2.5516941-.758565-2.7340528,.2616595-.1801893,2.4007257,.9845092,3.0342599,2.9618905,.7706027,2.405221-1.274808,4.163269,0,5.923781,.3465336,.4785684,.992391,1.0318526,1.2642749,.9113509,.3101502-.1374602,.0566393-1.1175455,0-1.3670264-.7146657-3.1480873,2.7646214-9.5779543,3.7928248-9.341347,.8005583,.1842221-1.5993263,4.4513341,.758565,7.9743206,2.3190772,3.4649962,8.5414489,5.1791001,11.8841845,3.417566,2.1384334-1.1268991,2.9969659-3.6227559,3.5399698-3.417566,.5715088,.2159602-.7820772,2.8285917,.252855,3.6454037,1.1075601,.874133,5.063736-.2191794,6.8270847-2.7340528,2.4123314-3.4404441-1.0393769-7.3306884,1.7699849-9.7970225,1.3042542-1.1450023,3.3438699-1.6275839,3.5399698-1.3670264,.1695088,.225229-1.1618767,.8417769-1.7699849,2.2783773-.434363,1.0261485-.1066809,1.5422043,.252855,4.3289169,.3952788,3.0637649,.1339743,3.4846212,.758565,4.1010792,.9832932,.9704954,3.0627956,1.3406552,4.5513898,.6835132,2.6919627-1.1883728,1.4881467-4.8696082,4.2985348-6.3794565,2.1079686-1.132479,5.2008123-.359194,5.3099548,.2278377,.065467,.3521419-.9798594,.4375749-1.7699849,1.3670264-1.1918168,1.4019759-1.0393306,3.825978,.252855,5.4681056,.3101733,.3941635,1.475291,1.8748237,3.0342599,1.8227019,2.1726639-.0726386,3.6866301-3.0747873,4.0456798-5.2402678,.4087287-2.465106-.6037407-4.3008526-.50571-4.3289169,.2017716-.0577651,5.7377742,7.3626134,3.2871149,11.9614809-1.7211702,3.2299047-6.8323319,3.9871603-31.6068736,3.9871603-10.3472694,0-29.9517877,1.1829877-31.6068736-3.9871603Z" fill="#ffba08"/>
      <path d="M-8.7767742,49.7777215c-.0407615-.4748034,.5414303-.606214,1.8046575-2.6720142,1.402798-2.2940503,2.1316719-4.498058,2.2558219-4.4533569,.1139201,.0410163-.8737317,1.7620951-.2255822,3.3400177,.3603408,.877249,1.2288819,1.7165956,1.8046575,1.5586749,.9027005-.2475862,.9024045-2.8961226,.9023288-3.5626855-.0002134-1.9231026-.4795618-2.2171124-.2255822-3.3400177,.4565134-2.0183487,2.5057399-3.2816182,2.7069863-3.1173498,.1721675,.1405333-1.131002,1.2256406-1.3534932,3.1173498-.1880701,1.5990593,.3928688,3.8013325,1.8046575,4.2306891,1.181126,.3592072,2.4433275-.6746986,2.7069863-.8906714,1.7907652-1.4668689,1.851188-3.82533,2.2558219-3.7853534,.4745088,.046879-.3513019,3.2168396,1.127911,4.4533569,1.7100133,1.4294541,4.6409846-1.2793837,7.8953768,.2226678,1.7135793,.7908962,1.4242079,1.7834153,2.7069863,2.2266785,4.2144107,1.4562887,10.843421-8.0453531,12.1814385-7.1253711,.7702756,.5296193-1.4116029,3.6889317-.2255822,4.8986926,1.1369775,1.159734,4.9065642,.0560441,7.4442124-1.7813428,1.7463413-1.2644426,2.6723793-2.7048405,3.1581507-2.4493463,.6001803,.3156681-.8422639,2.4992764,0,4.2306891,1.2043603,2.4757715,6.7754515,3.4005688,8.7977056,1.3360071,1.8571016-1.8959486,.3139068-5.8969333,.9023288-6.0120318,.4022864-.0786894,1.3629521,1.7445582,1.5790754,3.7853534,.1628807,1.5380173-.2333614,1.9129674,0,2.6720142,.8119114,2.6408187,6.9659242,2.518259,6.993048,3.1173498,.0347102,.7665233-9.9496562,2.9572054-33.4989558,3.3400177-22.7253545,.3694171-33.3278691-1.3471547-33.4989558-3.3400177Z" fill="#ffd00b"/>
    </g>
  </g>
</svg>