<?xml version="1.0" encoding="UTF-8"?>
<svg id="teleport" xmlns="http://www.w3.org/2000/svg" xmlns:xlink="http://www.w3.org/1999/xlink" viewBox="0 0 50 50">
  <defs>
    <clipPath id="clippath">
      <rect width="50" height="50" fill="none"/>
    </clipPath>
  </defs>
  <g clip-path="url(#clippath)">
    <rect width="50" height="50" fill="#03071e"/>
    <path d="M39.4480031,14.6122657c5.2827574,6.7727484,1.0435421,16.8408849-5.8451829,21.0801002-5.8289211,3.1794115-12.7176461,2.1196077-18.0166653-1.5897058-2.1196077-1.5897058-3.5326796-3.5326796-4.3765974-5.6522874-.8439179-2.1196079-1.1186818-4.4158498-.9616737-6.7120917,.1570081-2.4686912,.7457879-4.4136056,1.6289577-6.7120901,1.0598039-1.3289648,2.5317537-4.5382694,4.2588415-5.1616374,1.7270879-.9988092,3.7093139-3.2939186,5.7896698-2.9242737,2.0803554-1.2382557,4.2588408-.4181519,6.3784482-.9224216,2.4728757,.2919078,4.8868734-.1466704,7.0457331,1.5504539,2.1588599,1.138308,4.0625818,2.826144,5.514906,4.8476226,1.4523232,2.0214774,2.4532487,4.3765965,2.8065165,6.8494715,2.1196077,13.77745-12.7176461,24.3754884-24.9053903,19.0764692-5.0340683-2.1196077-9.1408081-6.623774-11.1279403-11.72408-.9935661-2.5501532-1.4572303-4.4803819-1.2419576-7.8740115,.2152727-2.6603167,1.1094822-5.9808975,2.8316634-7.4269065,.8831699-1.6461842,2.1196078-2.3868783,3.5915576-4.9064994,1.4719499-2.2125927,3.1794119-4.1808398,5.0046299-3.9644516,1.8252175-.0036732,3.768191-.6688769,5.7111644,.3925203-2.8261437,.8477825-5.3578974,1.0286082-7.5167571,2.9635257-2.1588599,1.9851063-3.9448257,2.6399557-5.2793936,5.9074259-1.3345675,3.2424024-2.2177372,4.2657425-2.5710051,7.5560079-.264951,2.3863995,.1987132,5.4646136,1.2171185,7.8988505,3.0552158,7.3027109,11.1031012,12.369898,19.4490565,11.1776187,9.0083327-1.5897058,15.8970576-10.0681365,13.77745-19.0764692-.7065359-2.4728757-2.1196078-4.7691174-3.9644516-6.5943352s-4.1214599-3.361982-6.5550838-3.7681915c-2.4336234-1.4940377-5.0242546-1.2239291-7.4971299,.8242921,1.5897058-.0530319,3.311887-1.5000245,5.0048372-.5345757,1.6929502,.6111935,3.3566694,.2193745,4.8294512,1.0270877,.9314283,.5536152,1.8489655,1.2239764,2.7022804,1.969826,.8533149,.7458496,1.6424076,1.5671874,2.3169467,2.4227559Z" fill="#f72585"/>
    <path d="M39.410615,34.4727635c-5.4566466,6.6334497-16.2072398,4.6935874-21.8476093-1.1039733-4.3748282-4.9945828-4.8438997-11.948552-2.3803995-17.9293361,1.0888261-2.4154419,2.6765932-4.2184712,4.5609437-5.5046117,1.8843507-.9539483,4.0652849-2.3965043,6.3404449-2.403279,2.2751595-1.2764884,4.6445449-.5049167,6.9057985,.1249114,2.299801,.9688997,4.2873328,2.3474248,5.9666374,3.029764,1.6793047,1.5796564,3.050382,3.6395634,4.1172741,5.0119565,1.0668918,2.7223684,1.8295984,3.6115245,2.2921617,6.0234092,.7120339,1.806865,.6642535,4.7165846,.0245114,7.2142679-.6397422,2.3552391-1.8714461,4.5814135-3.5272598,6.4398814-1.6558127,1.8584666-3.7357342,3.3492261-6.0719122,4.2336364-12.9828116,5.0751814-26.5633517-7.0916363-24.0517931-20.1420304,.4849656-2.6876483,1.6022951-5.2791483,3.1663483-7.5802711,1.5640533-2.301123,3.5748304-4.3118688,5.8466911-5.8380088,2.2718606-1.9196885,4.8048048-2.9064289,7.4131924-2.9303736,2.6083876-.6758216,5.2922187-1.0251238,7.8658532,1.1426336,1.5717476,.3174333,3.6228013,1.1122567,5.5720271,2.4342424,1.949226,1.8980362,3.7966243,1.7817881,4.961061,4.0188394,1.1644364,.9490476,1.6459115,3.3722717,.8632918,5.6591694-.9615044-2.1248668-2.5482704-5.5666908-4.5324834-6.6888501-1.9842131-2.2126472-4.3658734-2.640847-6.9171661-3.862964-2.5512921-1.7341696-5.2722167-1.8711825-7.9349593-.860084-2.7727519,.083912-5.2895358,2.2658028-7.4428536,2.911554-2.1533179,1.5250841-3.9431696,3.5373318-5.262057,5.8345357-2.6377749,4.5944081-3.391693,10.3286418-1.4017694,15.5850436,3.5172839,8.4442842,13.2946919,13.3167181,21.6233353,9.2823044,2.2590847-1.2291638,4.191605-3.109287,5.5702284-5.3079834,1.3786235-2.1986966,2.2033501-4.7159664,2.2468473-7.219423,.0434971-3.0046942-.6942348-4.7100553-2.4405281-7.1365424,.6054875,2.2217916,1.2398851,3.2516078,1.6138999,4.7675459,.3740147,2.0054797,.4876466,3.1933103,.0516023,4.93719-.3370053,1.0297941-.7909742,2.0715095-1.3326272,3.0670244-.541653,.9955149-1.1709901,1.9448293-1.8587319,2.7898215Z" fill="#7209b7"/>
    <path d="M21.8064508,39.9204357c-8.1193236-2.8025399-10.0480071-13.5551443-6.5798103-20.8624755,3.1566476-5.8412803,9.511099-8.7046112,15.9754775-8.4800655,2.6434766,.1786983,4.8868368,1.0384972,6.7490868,2.3564346s3.3433903,4.0429352,4.4624265,5.105266c1.119036,3.5391918,1.8759684,4.8354112,2.2898034,6.5163223,.2657018,2.5160135-.0387274,3.4702245-.7602338,6.6484792-.7215065,2.7190997-1.8600902,3.7146736-3.2626974,5.6059307-1.4026069,2.0855893-3.0692371,3.0211071-4.846837,4.2477799-1.9776584,2.795374-4.3228425,1.8683515-6.7533715,2.5373681-2.4305292,.2212444-4.9464032-.1573385-7.2654421-1.0615953-2.3190373-.9042563-4.4412388-2.3341859-6.0844239-4.2156353-9.2818621-10.399899-2.6111704-27.3694126,10.496285-29.5637978,5.3763022-.9643417,11.2737188,.5762112,15.718239,3.7712161,2.2222602,1.5975026,4.0812961,3.024498,5.3303566,5.9270409,1.2490604,2.9663311,1.8881454,5.1295913,1.6705035,7.7708864,.0290012,1.531667-.0137779,3.1603778-.3395867,6.0710546-.3258089,.7086878-.9346476,5.7437021-2.0377658,6.0506782-1.1031179,.6522626-2.7005151,5.3617249-5.003441,2.7815552,2.1777166-.1485427,3.7237103-4.7366347,4.6897323-6.5795542,.966022-2.1119956,1.3520721-5.6811911,1.2099015-7.829803-.1421706-4.5627449-.8125616-4.0497311-1.9594221-7.7371822-1.2930836-3.0541372-3.1431001-4.4746408-5.3230546-5.9614014-6.5398636-4.4602818-16.04917-4.3263579-22.3990633,1.2193931-6.6889242,6.2398329-7.8481173,17.1023644-1.1638843,23.5026632,1.9394523,1.6890329,4.3752294,2.8450985,6.9165544,3.3709655s5.188198-.6257585,7.5498415-.4102262c2.3616429-.9769832,4.4380564-2.2960688,5.8384636-4.7748044-1.1888874,.2142242-2.4888748,3.8333858-3.9061147,3.17434-1.41724,.5929916-2.9517325,.2177353-4.6096303,1.7691288-1.08268,.0430407-2.2172992-.0193935-3.3391754-.180116-1.1218762-.1607225-2.2310094-.4197334-3.2627174-.7698462Z" fill="#3a0ca3"/>
    <path d="M12.1855432,22.7975494c.9857792-8.5326365,11.0695177-12.7346049,18.9528054-10.9237337,6.3845461,1.8227866,10.5507682,7.4103002,11.7254649,13.7710155,.3955374,2.619819,.039718,4.9958055-.845643,7.0984396-.885361,2.2963599-2.3002637,3.3854614-4.0228929,5.4583262-1.7226288,1.9074345-3.7529838,2.2772345-5.8692502,3.6410931-2.2421548,.1068149-4.4889433,.8348165-6.6559989,.6913102-2.1670558-.6871809-4.2543786-1.7630993-6.1776017-1.9770915-1.9232227-1.5485777-3.6823457-3.0551788-5.1930025-3.8168296-1.8863354-1.6087425-3.1937986-3.7216994-3.93395-6.0473383-1.4803027-4.6512775-.6913583-10.153283,2.2743505-14.173758,8.1537133-11.3060967,26.1624434-8.4515983,31.1316556,3.8742949,1.0504921,2.5209346,1.5175862,5.3041199,1.451878,8.0856863-.0657082,2.7815665-.6642189,5.561514-1.7449362,8.0759731-1.0807173,1.8093361-2.6436413,4.7402872-4.6381764,6.4830418-1.9945351,2.4638372-4.4206813,3.392304-7.2278429,3.3068936-1.6206579,.8358568-3.7821972,.3098893-6.0014519,.9775468-2.2192549,1.0872086-4.4962253-.1078211-6.3477453-.6850741-1.8515195-1.6653829-3.2775889-2.3023483-3.7950424-4.2859216,2.2620138,.8758684,4.8098228,2.3359461,7.4360409,3.160604,2.6262182-.1543318,5.3308455,.2932422,7.9064954-.5069587,2.5756493,.1115036,5.0223214-1.3492074,7.13263-3.5817471,2.1402915-2.153916,3.6915997-4.8783034,4.6733032-6.4833212,.9817035-2.4492688,1.3938023-5.1106377,1.2556749-7.7559223-.2762546-5.2905695-2.7534136-10.5168026-7.2764481-13.853225-7.5354119-5.1860186-18.392352-3.9755758-23.2007064,3.9315427-1.2310783,2.258042-1.834702,4.8858046-1.8001934,7.4807377s.7071495,5.157037,2.0286006,7.2837608c1.3214508,1.2006179,3.2917113,3.5586021,5.9214594,4.6714808-1.318846-1.5074914-2.7321081-1.5298987-3.9419623-3.1297125-1.2098541-1.1842108-2.2163003-2.5334183-2.7215146-4.1196925-.550988-2.0958545-.7348027-4.4855551-.4959998-6.651421Z" fill="#4361ee"/>
    <path d="M22.6101275,10.370184c7.9095087-3.3492265,16.5368761,3.3520309,18.8481136,11.103396,1.561943,6.453318-1.2451734,12.8328018-6.1999024,16.9908388-2.0842587,1.6357772-4.3268235,2.4976485-6.59265,2.7640412-2.2658266,.6675899-4.5549148-.1974917-6.73222-.8088301-2.1773047-1.3762869-4.2428265-1.7187677-6.0615209-3.3111358-1.7729654-2.4643659-3.0411346-3.5448372-3.8830699-5.4499541-.8419353-1.5893768-1.2576365-3.9146611-1.3256658-6.3493514-.0680292-2.731051,.2116134-5.1055759,.7603658-6.3997896,.4695995-2.4342946,1.6632736-4.613558,3.3216865-6.4041129,3.3168256-3.5811097,8.4926061-5.6073856,13.4526538-5.0094103,13.8564726,1.5195496,20.2519129,18.594703,11.9782322,28.9950357-1.6753144,2.1568419-3.8664237,3.9354191-6.3188134,5.2496542-2.4523897,1.3142352-5.1660598,2.5708445-7.8864954,2.4636017-2.7204355-.6257284-5.4476366-.8918609-7.9270885-.8389156-2.4794519-1.3713294-4.7111548-2.3007662-6.4405937-4.6578976-1.1362475-1.5625828-2.5791305-2.3872231-3.8093861-4.7393671-1.2302556-1.264573-2.2478838-4.8803045-2.5336214-5.8603719-.2857375-1.3962318,.1604151-3.2193571,1.8577205-5.4148265-.3904464,3.1174472-.02223,5.1295691,.916448,8.0277173,.938678,2.5443447,2.4478175,4.7010802,4.3392172,6.6287911,1.8913992,1.5324637,4.1650584,4.1394186,6.6327763,4.4395497,2.6185417,1.8397117,5.329748,1.2805894,7.9446502,.8693386,2.6149023-.8949766,5.1335006-1.3070861,7.3668261-2.7314691,4.4666513-2.8487662,7.7922123-7.5806234,8.4649345-13.1606772,.7966919-9.112766-5.6092287-17.961636-14.8591828-18.2464925-2.5714827,.0422359-5.1552711,.8126485-7.3958777,2.1220571-2.2406067,1.3094087-4.1380314,3.1578136-5.3367865,5.3560341-1.1987548,1.6376754-1.6988403,5.2124216-1.144769,7.4549258,.1556467-1.1037744,.3455904-2.7168508,.7793697-4.9725999,.4337793-1.6364406,1.1113942-3.1772627,2.2423832-4.3988891,1.5517616-1.5126895,3.5402009-2.8508099,5.5422656-3.7108906Z" fill="#4cc9f0"/>
    <path d="M38.7900654,15.8845555c-1.8104528-.6702448-3.4392342-.2630494-5.0680157-.2630494,1.2215861,4.0719537,5.7007352,4.8863444,7.736712,8.1439074-.8143907-1.6287815-2.8503676-2.0359768-3.257563-1.6287815-3.6647583,2.8503676,2.0359768,6.9223213,.4071954,10.994275,.4071954-1.2215861-1.2215861-1.6287815-1.2215861-2.8503676-4.0719537,2.4431722-4.0719537,8.1439074-8.9582981,9.7726889,.8143907-.8143907,1.2215861-1.6287815,.8143907-2.4431722-4.4791491-2.8503676-9.3654935,1.2215861-13.4374472-2.0359768,1.2215861,.4071954,3.6647583,.8143907,3.6647583,0-.4071954-4.8863444-7.3295166-6.1079305-7.3295166-11.8086657,.8143907,1.6287815,1.6287815,2.8503676,3.257563,3.6647583,1.6287815-4.8863444,0-10.5870796,3.6647583-15.0662287,0,1.6287815-1.6287815,4.4791491-.4071954,4.4791491,4.8863444,.4071954,7.3295166-6.5151259,13.0302518-6.1079305-1.6287815,0-6.1079305,1.6287815-3.6647583,3.257563,1.2215861,1.2215861,4.0719537,.4071954,6.3087281,.4789054,1.3417053,.2663828,2.8335612,.7236717,4.4600228,1.4129255Z" fill="#94ebff"/>
    <path d="M33.7049397,19.3418764c-1.1854366-.4388585-2.2519196-.1722378-3.3184026-.1722378,.7998623,2.6662075,3.7326905,3.199449,5.0657943,5.3324151-.5332415-1.066483-1.8663453-1.3331038-2.132966-1.066483-2.3995868,1.8663453,1.3331038,4.5325528,.2666208,7.1987603,.2666208-.7998623-.7998623-1.066483-.7998623-1.8663453-2.6662075,1.5997245-2.6662075,5.3324151-5.8656566,6.3988981,.5332415-.5332415,.7998623-1.066483,.5332415-1.5997245-2.9328283-1.8663453-6.1322773,.7998623-8.7984849-1.3331038,.7998623,.2666208,2.3995868,.5332415,2.3995868,0-.2666208-3.199449-4.7991736-3.9993113-4.7991736-7.7320018,.5332415,1.066483,1.066483,1.8663453,2.132966,2.3995868,1.066483-3.199449,0-6.9321396,2.3995868-9.8649679,0,1.066483-1.066483,2.9328283-.2666208,2.9328283,3.199449,.2666208,4.7991736-4.2659321,8.5318641-3.9993113-1.066483,0-3.9993113,1.066483-2.3995868,2.132966,.7998623,.7998623,2.6662075,.2666208,4.1307882,.3135746,.8785131,.1744204,1.8553409,.4738411,2.9203049,.9251463Z" fill="#c7faff"/>
    <path d="M.7392248,32.7237116C-3.3162637,22.1407824,5.9694137,10.5433692,6.4399599,10.7351616c.4841814,.1973347-8.1440503,12.9672489-3.257563,23.6173314,2.9390066,6.4055729,9.4729682,9.2240289,9.3654935,9.3654935-.1225233,.1612726-8.8290924-3.2189659-11.8086657-10.994275Z" fill="#f72585"/>
    <path d="M.8528803,33.8373671c.087575,.1453753-.109536,1.4575274,.1772102,3.810302,.2867461,4.4486801,1.0573493,5.3032856,3.0803528,7.5911684,1.9992049,2.0607489,4.5881251,1.5104857,6.6552694,4.6665145,2.0671444-1.299733,3.6125129,1.5955903,3.5246148,1.4414161-.0797509,1.2735846-1.483067,1.4005062-3.335474,.3619159-1.852407-1.0932556-4.1539049-.265326-6.0300195-2.3978927-1.9492288-3.3757727-3.0765379-3.8436144-3.7049173-6.1378227-.6283794-1.8302883-.7578289-4.0954356-.7113383-6.3795235,.0464905-2.6025243,.2689211-2.2002309,.3443019-2.9560778Z" fill="#7209b7"/>
    <path d="M6.6255692,3.6632079c1.306769-1.7920278,2.55652-.888927,3.4654964-2.3739777,.9089763,.1137938,1.4771779-.6616436,1.4208481-.8835852-.0783483,.430629-1.3610788-1.4057893-3.0517448,.5254253-1.690666,1.031139-3.7892676,1.010274-5.499358,3.5465284C1.0178069,6.0117287,.0796439,8.373961-.3108819,11.0823422c-.3905258,.6256344-.2334146,3.2269159,.0141298,3.5751407,.2651607,1.4010703,.605556-3.1680326,1.5747537-3.6557739,.9691976-2.5865,2.5671976-4.6352783,5.3475676-7.3385011Z" fill="#4361ee"/>
  </g>
</svg>