<?xml version="1.0" encoding="UTF-8"?>
<svg id="blizzard" xmlns="http://www.w3.org/2000/svg" xmlns:xlink="http://www.w3.org/1999/xlink" viewBox="0 0 50 50">
  <defs>
    <clipPath id="clippath">
      <rect width="50" height="50" fill="none"/>
    </clipPath>
  </defs>
  <g clip-path="url(#clippath)">
    <rect width="50" height="50" fill="#03071e"/>
    <g>
      <path d="M.0160426-.1026676C.8540566,1.0424693,1.6727724,2.2328691,2.5310797,3.3303666c.4776866,.4314877,.8904382,1.0154539,1.2933755,1.6290338,.4005524,.612564,.7618957,1.3238284,1.218267,1.8053549,.3295075,.7793456,.6522836,1.5811482,1.3126529,1.5837792,.8342742-.3990051,.6634462,1.5549436,1.2023842,1.849255,.2594784,.9437423,1.0731146,.5866118,1.1594066,1.9435325,.7841853-.2880334,.4685851,2.0123896,1.3532456,1.4884858,.5278913,.8356932,.965454,1.8834372,1.655714,2.3379216,.6212613,.6165025,.9590056,1.8919608,1.6949522,2.2392336,.7897253,.2209843,.6457402,2.633941,1.6729657,2.2974223,.3137467,1.3384084,1.0496933,1.6856812,1.6800708,2.2807427,.5035344,.8928722,1.5192381,.576787,1.7162676,2.1891948,.572533,.7308541,1.0994084,1.5689323,1.6343986,2.3879604,.5517516,1.0175608,1.7043285,.6246543,2.1180476,1.9662533,.6593257,.7650253,1.6545927,.7414116,2.340307,1.4444882,.2838138,1.6465582,1.3054695,1.5609958,1.9678429,2.3188665,1.1353189-.3523926,1.6637234,.7199768,2.4894959,1.0942599,.9546681,.0716943,2.2067104-.5547123,2.2296853,1.7041783,.9130595,.1693725,1.0862453,2.0756354,2.2286694,1.7065632,1.6810016-.8602769,2.1295559,1.1661039,2.9722406,2.273818,1.3562229-.0978426,1.9803608,1.5163467,2.9722344,2.2738325s1.9803608,1.5163467,2.9722344,2.2738325c-.4386314-.761093-.8758854-1.5187646-1.3155327-2.2774727L.7399303,.3323643C.491762,.201309,.2476365,.0607226,.0160426-.1026676Z" fill="#0472a3"/>
      <path d="M.7399303,.3323643L41.1000049,42.1409029c-.1935551-.3385964-.3905049-.6758384-.5850613-1.0120437-.6332024-1.0973046-1.5296079-1.583301-1.901963-3.2929172-.3063981-1.8644941-1.1496731-2.4686023-1.9006086-3.2895226-.7539051-.1663305-.7317605-2.1610909-1.4257893-2.4679839-.8868581,.1457833-1.1407662-1.2009296-1.4247672-2.4703833-.0840667-1.7388096-.5551671-2.5756528-1.2725369-2.8277517-.7153587-.2568603-.9814307-1.5749776-1.5790563-2.1082222-.6016685-.5237134-1.2808305-.8721216-1.4450729-2.4227148-.8594535,.0814498-.6931934-2.2516291-1.4065058-2.5132529-.6743678-.8023924-1.6806132-.8256854-2.3681898-1.5971096-.3871526-1.4766444-1.5987588-1.0244572-2.3228624-1.7100923-1.1422545,.2959548-1.4461837-1.3760607-2.4290882-1.4541477-.8509612-.3878305-1.5212715-1.1997479-2.2595937-1.8520445-1.0640961,.1125143-1.301397-1.7225289-2.3766556-1.5838101-.8682337-.3473229-1.0899492-2.2123391-2.3154187-1.7209925-.6286956-.9096102-1.4989403-1.2521716-2.343833-1.6542886-.8113844-.480739-2.1102776,.1763587-2.3472192-1.6529134-.5505032-.2936198-1.243441-.2594413-1.4969292-1.2569331,.0794137-1.7789553-.8760439-1.1219243-1.628858-.9471834-.2027427-1.1166194-.9677352-.9132889-1.505044-1.2378831-.5386695-.3279742-1.0976467-.6083152-1.6231218-.9672637C2.5028062,1.1367905,1.6005567,.7834134,.7399303,.3323643Z" fill="#0077b6"/>
      <path d="M7.4616851,7.4827279c.4625068,.7909524,.9617941,1.6144611,1.5195531,2.4262996,.8855392-.2814711,1.3911231,.3026442,1.3985871,2.0032047,.6441923-.2435351,1.15927-.1310912,1.5253455,.1064908L7.4616851,7.4827279Z" fill="none"/>
      <g>
        <path d="M7.3091226,7.2263301c.0505176,.086256,.0986503,.1714962,.1525625,.2563978l4.4434857,4.5359951c.2172497,.1375737,.3815469,.3201624,.4863359,.4970912l.0037539,.0044167L47.1735241,48.0046013c-.0296805-.3532499-.0752849-.6823062,.0248054-1.2476768-.060611-.4987167-.2181123-.8360431,.0503371-1.8560952-.2137639-.2515085,.2078322-1.5187542,.0618465-1.8764995,.2111563-.9318554-.0805178-1.0533012,.0194822-1.8101199,.150188-.8283358,.0262155-1.2245694,.0916917-1.9201045-.3676427-.7955731-1.3675976-.5825638-1.6948954-1.4397758-.577052-.4625616-1.2903294-.7044643-1.6982961-1.4384068-.4638701-.6423534-1.0649754-1.0616777-1.7033694-1.426497-.7227467-.2262474-1.3177627-.6598664-1.6864151-1.4530692-.4618445-.6471087-.9128238-1.3064948-1.6813334-1.4649583-.3632198-.7993415-1.2869286-.7058333-1.7118435-1.4132182-.2829101-.9283822-1.1019049-1.0014016-1.7074269-1.416972-.6055074-.4155642-1.2079816-.8382893-1.6833736-1.4602093-.981618-1.1978731-2.1513073-2.0930232-3.392161-2.8805614-.9268109-.2428019-1.4265821-1.4352652-2.1193759-1.7979332-.6660777-.74256-1.125528-1.6926607-2.1193759-1.7979332-.6569909-.6317224-1.3277477-1.3368803-1.9726653-2.0366323-.9859053,.100774-1.1971795-1.6500101-2.2674493-1.5626495-.9957635,.2626601-1.4896645-.8907079-2.2450955-1.595323-.9834672-.3344905-2.0724923-.1171928-2.1449088-1.9692599-.5511165-.265722-1.1789802-1.1046058-2.1795708-1.491421-1.0346049-1.3245934-1.9367611-1.7905157-2.214844-2.0694226-.5414074-.3347758-.645808-2.1976668-2.0771984-1.6392226-1.5156235,.7561857-2.1829398-1.1663375-3.8129659-1.7143103Z" fill="#00b4d8"/>
        <path d="M12.5241229,12.8256516c-.1891582,1.0453753-.2472259,.1508343-.5074552,1.1912764-.125294,.7038313,.7944951,.2230161,2.214844,2.0694226,.6040701,1.0004519,1.8794622,.1672578,1.9272272,1.9384518,.3962171,.9597597,1.0225699,1.1083508,1.3763091,1.6193481,.9471916,.5385897,1.9847478,.10514,1.4509613,2.0058087,.101284,1.5265748,.8869285,1.4333904,1.3049135,2.2363372,.2287048,1.3331594,1.2728935,.8180749,1.5166932,1.9043354,.2838471,1.0385486,.9395863,1.2503234,1.2405299,2.3412196,.3443894,.5858223,.7417402,.9746359,1.0589091,1.5516805,.3137827,.5784198,.6224775,1.1687432,1.0080874,1.6313805,.7112384,1.0263968,1.4699268,1.974475,2.0679978,3.1806699,.4015422,.4384644,.8244348,.8466111,1.1920806,1.3381909,.3700307,.4925957,.6848147,1.0686244,.8749159,1.8448701,.3256285,.5637596,.8677921,.7778197,1.0812691,1.5189925,.0643816,.9788559,.4615133,1.4210597,.9880977,1.6650782,.5910781,.5023136,1.2163973,.9572767,1.970486,1.2025103,.4264096,.7699406,1.1730255,1.026062,1.9704922,1.2024958,.548051,.5768637,1.2872233,.8438852,1.9969158,1.1602682,.412856,.7951439,1.3614438,.7291393,1.945423,1.2481179,.6683463,.380413,1.3241611,.7836298,1.91864,1.2845744,.6917285,.3453255,1.2174278,.9548981,2.0223381,1.1204317,.6093953,.4791567,1.2767174,.8619338,1.9874258,1.1759319,.8333741,.118557,1.2238701,.946389,1.9549213,1.232475,.0146316-.615862,.0736448-1.3028796,.1042086-1.9429145,.0107688-.2037111-.0008224-.3747342-.0168304-.5420035L12.3952606,12.5202309c.064488,.1062953,.1068992,.211622,.1288623,.3054207Z" fill="#00aed6"/>
      </g>
      <polyline points="12.3952551 12.5202326 12.3915049 12.5158202 11.9051676 12.0187195" fill="none"/>
      <g>
        <path d="M22.032047,22.2240719c.0233321,.0971995,.0466787,.1944052,.0734116,.2902358l29.6329553,30.3426035c-.5063642-1.7188527-1.6457196-1.9649156-1.5725678-5.0442112-.1427622-2.6054589-1.3771951-2.6415113-1.5889705-5.0849584-.4407868-1.8992167-.6870718-4.2616505-1.5855842-5.0863335-.8779809,.0060032-1.5874894-.383491-2.0788042-1.2852461-.7135721-.3799547-1.3046909-1.0539892-2.0821966-1.2838564-1.0941718,.5134819-.9988571-1.765375-1.9042426-1.6950382-.8414456-.0797652-.832402-2.1560964-2.253372-.8754394-.9733889,.2299783-1.2711971-1.1326175-2.0913335-1.262407-.1076757-1.802367-.7146834-2.4324869-2.0696734-1.3066809-.7866427-.2084179-1.3743607-.8838213-2.1062087-1.2209125-.524794-.8231206-.9606348-1.8616781-2.054792-1.34819-1.1083821,.5468411-1.7366989-.0332544-2.1417343-1.1375144-.9500417,.1751697-1.5529859-.4644897-2.0158802-1.4329632-.1442088-1.7165634-1.0925719-1.5519491-1.907635-1.6936485-.3817028-1.1590749-1.1916864-1.3126986-2.253372-.8754394Z" fill="#90e0ef"/>
        <path d="M22.1054586,22.5143076c.229873,.9339488,.485125,1.8083192,1.1416355,1.7473702,.1459779,1.289484,1.3532158,.081033,1.1744274,2.1329223,.2556107,1.0321559,1.2233167,.3859776,1.1714066,2.140054,.3296827,.858228,.7858844,1.4128719,1.218074,2.0304597,.5042588,.448442,.9553873,1.0149958,1.097314,2.3139903,.0769648,1.4514958,1.1136985,.643312,1.292175,1.8565442,.7528986-.1352925,.7361548,1.5296147,1.3063707,1.8231788-.021464,1.6826027,1.0243921,.8529632,1.0831037,2.3473495,.5174386,.4174615,1.2902981,.2287356,1.3500111,1.7207307,.8757195-.4235804,.3850143,2.3539748,1.0394633,2.4497975,.3024001,1.4377242,1.1934407,1.4935853,2.1880104,1.3064067,1.1051853-.4468541,1.6653703,.3857069,2.2549856,1.1491791,1.340604,1.1481122,2.7004915,2.2509553,4.442996,2.4555858,1.5506912,.654922,2.8070558,2.0007901,4.442996,2.4555858,1.7668676,.1474371,3.1084813,1.2931789,4.442996,2.4555858-.0054614-.0135969-.0075427-.0285545-.0130103-.0421369L22.1054586,22.5143076Z" fill="#82d1db"/>
        <g>
          <path d="M29.5806069,30.2220563l20.34365,21.0851577c-.0110191-.2186275,.0026717-.4886483,.0363089-.8121088,.242333-1.4477738-.2616354-1.1501419-.4618018-1.5591261-.5716271,.4630383-.0637328-1.6147281-.4628239-1.5567267-.3747342,.0008224-.0008027-1.7624598-.4628177-1.5567413,.0352873-.9617237-.3032502-1.0524491-.4516552-1.5829459-.1747937-.468548,.5837867-3.1348125-.4729705-1.532907-1.2899753,.6890385-1.4980797-1.1617096-2.2603004-1.7116015-.7595385-.5628031-2.4433141,1.0506609-2.3712876-1.457668-.4496328-1.2837077-1.4087671-1.3713754-2.3201828-1.5710245-.8275357-.4031762-1.9277378-.1596801-2.3114051-1.598245-.9986965,.005247-1.8198045-.4064444-2.2562429-1.7211265-1.1238878,.2925252-1.2670364-1.7107098-2.375345-1.448143-.7307649-.6237359-1.4656018-1.2379531-2.2054974-1.8402542-.6030025-.5073931-1.2776983-.8398278-1.9676285-1.1365392Z" fill="#caf0f8"/>
          <path d="M29.122145,30.0295801c.2336331,.9383509,.4855338,1.8338177,1.1159941,1.8405968,.3371497,.6953404,.733166,1.2524887,1.2124057,1.6142659,.4954817,.3236482,.4378298,1.9458052,1.1748607,1.7024047,.4021055,.5428536,.7473762,1.2191295,1.1535391,1.7524581,.3412133,.6858009,1.0498237,.5091189,1.1758704,1.7000344,.6994797-.1552472,.7230194,1.2763084,1.1525294,1.7548284,.7715343-.3243992,1.0021197,.6211064,1.061185,1.969264,.2498751,.9002219,1.1553722,.2613386,1.2672148,1.4855988,.4316926,1.0086486,2.1458741-1.0000243,2.019366,1.3190284,.8971799-.0907207,.7514028,2.2736072,1.9753871,1.4156969,1.2700096-.9593424,1.2243338,1.1633378,1.8975755,1.6049376,.2652458,1.3993907,.8275065,2.0949096,2.1005638,1.1284125,.7144911,.3381504,1.2294216,1.1514341,1.9956803,1.3680575,.6413543,.0142374,1.0837901,.4954458,1.5360194,.9470488-.0195782-.0927828-.0306969-.1988507-.0360795-.3249989L29.5806069,30.2220563c-.1524723-.0649496-.3049592-.1299053-.458462-.1924762Z" fill="#b6ebf2"/>
        </g>
      </g>
    </g>
    <g>
      <path d="M-15.1310319,18.6103344c.4743322,.6481697,.9377413,1.3219591,1.4235598,1.943164,.2703799,.2442304,.5040053,.5747666,.7320757,.9220647,.2267205,.3467231,.4312478,.7493126,.6895627,1.0218659,.1865076,.4411247,.3692052,.8949606,.742987,.8964498,.4722154-.2258446,.3755234,.8801282,.6805728,1.0467142,.1468698,.5341765,.6074037,.3320337,.6562467,1.1000771,.4438641-.1630325,.2652283,1.1390516,.7659633,.8425119,.2987967,.4730186,.5464657,1.066062,.9371662,1.323309,.351646,.3489524,.5428158,1.0708865,.9593759,1.2674497,.4469999,.1250814,.3655015,1.4908617,.9469311,1.3003856,.1775867,.7575651,.5941468,.9541283,.9509527,1.2909446,.2850103,.505383,.8599182,.3264726,.9714408,1.2391267,.3240648,.4136776,.6222865,.8880461,.9251013,1.351632,.3123021,.5759592,.964683,.3535665,1.1988561,1.1129376,.3731911,.4330192,.9365316,.4196534,1.3246592,.8176084,.1606441,.9319839,.7389211,.883554,1.1138373,1.3125235,.6426125-.199461,.9416997,.4075208,1.409103,.6193724,.5403607,.0405803,1.2490409-.3139779,1.2620452,.964598,.5168094,.0958681,.614836,1.1748499,1.2614701,.9659479,.9514796-.4869334,1.20537,.6600375,1.6823459,1.2870251,.7676485-.0553808,1.1209227,.8582817,1.6823424,1.2870334,.5614197,.4287517,1.1209227,.8582817,1.6823424,1.2870334-.2482739-.4307934-.4957682-.8596502-.7446171-1.2890938L-14.7212974,18.8565709c-.1404681-.0741798-.2786478-.1537544-.4097345-.2462365Z" fill="#0472a3"/>
      <path d="M-14.7212974,18.8565709L8.1232883,42.5210155c-.109556-.1916521-.2210333-.3825376-.3311561-.5728364-.3584049-.6210957-.8657878-.8961791-1.076548-1.863855-.1734272-1.0553399-.6507373-1.3972768-1.0757814-1.8619336-.4267249-.0941463-.4141907-1.2232194-.8070244-1.3969268-.5019789,.0825162-.6456958-.6797495-.8064459-1.3982849-.0475834-.9842-.3142354-1.4578695-.7202806-1.6005623-.4049069-.1453879-.5555088-.8914679-.8937765-1.1932947-.3405561-.296432-.7249749-.4936378-.8179393-1.3713036-.4864674,.0461021-.3923609-1.2744658-.7961096-1.42255-.3817052-.4541697-.9512597-.467354-1.3404414-.9039951-.2191359-.8358094-.9049285-.5798627-1.3147852-.9679455-.6465382,.1675162-.818568-.7788771-1.3749111-.8230758-.4816605-.2195196-.8610692-.6790806-1.2789739-1.0482932-.602299,.0636853-.736616-.9749848-1.3452332-.8964672-.4914371-.1965915-.6169324-1.2522269-1.3105719-.9741152-.3558539-.514857-.8484293-.7087535-1.326655-.9363594-.4592593-.2721076-1.1944581,.0998225-1.3285716-.9355811-.3115955-.1661945-.7038117-.1468488-.847291-.7114485,.0449497-1.0069232-.4958579-.6350309-.9219652-.5361242-.1147563-.6320282-.5477569-.5169393-.8518841-.7006659-.3048974-.1856398-.6212893-.3443182-.9187185-.5474901-.3616998-.5460153-.8723905-.7460336-1.3595217-1.0013362Z" fill="#0077b6"/>
      <path d="M13.4005016,48.1308019c-.0910028-.0706325-.1768375-.1533976-.2620937-.2375207,.0387251,.1933571,.1280064,.268031,.2620937,.2375207Z" fill="#caf0f8"/>
      <g>
        <path d="M-11.003007,22.7586894c.0285939,.0488226,.055838,.0970702,.0863533,.1451261l2.5150992,2.5674613c.1229675,.0778694,.2159629,.1812181,.2752756,.2813633l.0021248,.0024999L11.5610181,45.8399826c-.0167997-.1999463-.0426127-.3861986,.0140403-.7062093-.034307-.2822833-.1234558-.4732166,.0284918-1.0505859-.1209945-.1423587,.1176371-.8596443,.0350063-1.0621352,.1195186-.5274483-.0455747-.5961889,.0110273-1.024563,.0850093-.4688541,.0148385-.6931301,.0518993-1.0868164-.2080929-.4503098-.7740868-.3297424-.9593437-.8149411-.3266226-.2618188-.7303515-.3987405-.9612686-.8141662-.2625595-.3635845-.6027967-.6009302-.9641402-.807425-.4090886-.1280604-.7458793-.3734972-.9545437-.8224654-.261413-.3662761-.516676-.7395014-.9516673-.8291948-.2055894-.4524428-.7284266-.3995154-.9689367-.7999089-.1601326-.5254823-.6236996-.5668127-.9664368-.8020337-.3427289-.2352174-.6837411-.474488-.9528221-.8265068-.5556148-.6780194-1.2176817-1.1846918-1.920029-1.6304536-.524593-.1374306-.8074731-.812388-1.1996079-1.0176651-.3770129-.4203034-.6370707-.9580788-1.1996079-1.0176651-.3718696-.3575671-.751531-.7567002-1.1165669-1.1527734-.5580416,.05704-.6776269-.9339377-1.2834203-.8844899-.5636215,.1486707-.843179-.504158-1.2707676-.9029838-.5566615-.1893281-1.1730709-.0663334-1.21406-1.1146393-.3119426-.1504038-.6673257-.6252283-1.2336794-.8441732-.5856065-.7497456-1.0962444-1.0134666-1.2536447-1.1713333-.3064471-.1894896-.3655399-1.2439221-1.1757346-.9278318-.8578723,.4280158-1.2355863-.6601697-2.1582128-.9703329Z" fill="#00b4d8"/>
        <path d="M-8.0512156,25.9280141c-.1070672,.5917027-.1399346,.0853751-.2872295,.6742856-.0709189,.3983822,.4496997,.1262315,1.2536447,1.1713333,.3419154,.5662752,1.0638121,.0946711,1.090848,1.0972014,.2242665,.5432426,.5787944,.6273481,.7790177,.9165825,.5361289,.3048522,1.1234058,.0595113,.8212723,1.1353266,.0573287,.864071,.5020187,.8113268,.7386064,1.2658103,.1294514,.7545941,.7204825,.4630463,.8584778,1.0778908,.160663,.5878387,.5318241,.7077073,.702164,1.3251758,.1949311,.3315868,.4198393,.5516628,.5993631,.8782813,.1776071,.3273968,.3523343,.6615314,.570597,.923393,.4025747,.5809605,.8320071,1.1175912,1.1705269,1.8003209,.2272807,.2481794,.4666461,.4791983,.6747408,.757442,.2094446,.2788187,.3876184,.6048621,.4952194,1.0442323,.184312,.3190989,.4911872,.440261,.6120193,.8597792,.0364412,.5540515,.2612255,.8043474,.5592825,.9424666,.3345617,.2843192,.6885045,.5418372,1.1153333,.6806442,.2413561,.4358014,.6639552,.580771,1.1153368,.680636,.3102075,.3265161,.7285934,.4776554,1.1302931,.6567343,.2336845,.4500669,.7706036,.412707,1.1011472,.706459,.378297,.2153211,.7495009,.4435497,1.0859875,.7270941,.3915317,.1954609,.6890878,.5404908,1.1446826,.6341861,.3449296,.271212,.7226468,.4878713,1.1249216,.6656003,.4717059,.0671056,.6927342,.5356745,1.1065234,.6976048,.0082818-.3485899,.0416844-.7374552,.0589841-1.0997273,.0060953-.1153045-.0004655-.2121069-.0095263-.3067845L-8.1241542,25.75514c.0365015,.0601652,.060507,.1197822,.0729386,.1728741Z" fill="#00aed6"/>
      </g>
      <g>
        <path d="M-2.669546,31.2477024c.0132064,.0550168,.0264211,.1100371,.0415524,.1642791L14.1448344,48.5864841c-.286612-.972904-.9315092-1.1121804-.8901039-2.8551215-.0808062-1.4747403-.7795192-1.4951467-.8993881-2.8781852-.2494939-1.0749935-.388896-2.4121769-.8974714-2.8789635-.4969542,.0033979-.8985498-.2170634-1.1766435-.7274742-.4038957-.2150617-.7384804-.5965783-1.1785637-.7266876-.6193225,.2906407-.5653725-.9992365-1.0778383-.9594245-.4762745-.0451487-.4711557-1.2203924-1.2754523-.4955157-.550957,.1301722-.7195222-.6410835-1.1837354-.7145469-.0609465-1.0201747-.4045247-1.3768348-1.1714753-.7396068-.445255-.1179686-.7779148-.50026-1.192155-.6910602-.2970436-.4659022-.5437379-1.0537459-1.1630522-.7631017-.6273658,.3095227-.9830053-.0188226-1.2122632-.6438553-.5377421,.0991494-.8790202-.2629102-1.1410273-.811085-.081625-.9716082-.6184169-.8784333-1.0797584-.9586379-.2160512-.6560589-.6745176-.7430129-1.2754523-.4955157Z" fill="#90e0ef"/>
        <path d="M-2.6279936,31.4119815c.1301126,.5286332,.2745902,1.0235438,.6461878,.9890455,.0826264,.729873,.7659464,.0458662,.6647487,1.2072754,.1446806,.5842203,.692421,.2184708,.6630389,1.2113121,.1866068,.4857737,.4448258,.7997129,.6894535,1.1492796,.2854203,.2538269,.5407677,.5745073,.621101,1.3097634,.0435636,.8215748,.630375,.3641271,.7313962,1.05084,.4261552-.0765782,.4166779,.8657916,.7394312,1.0319546-.012149,.9523858,.5798258,.4827938,.6130577,1.3286454,.2928803,.2362913,.7303338,.1294688,.7641325,.973967,.4956742-.2397548,.2179256,1.3323955,.5883564,1.386633,.1711643,.8137798,.6755106,.8453982,1.2384564,.7394515,.6255563-.2529281,.9426319,.2183176,1.2763656,.6504577,.7588079,.6498538,1.5285306,1.2740844,2.514822,1.3899092,.8777213,.3706986,1.5888481,1.1324861,2.514822,1.3899092,1.0000813,.0834522,1.7594607,.7319644,2.514822,1.3899092-.0030912-.0076961-.0042693-.0161624-.0073641-.0238503L-2.6279936,31.4119815Z" fill="#82d1db"/>
        <g>
          <path d="M1.6030855,35.7747169l11.5149008,11.9346086c-.006237-.1237474,.0015122-.2765845,.0205515-.4596693,.1371652-.8194681-.1480907-.6510027-.2613888-.8824957-.323552,.2620887-.036074-.9139675-.2619673-.8811375-.2121069,.0004655-.0004543-.9975864-.2619638-.8811458,.0199733-.5443543-.1716455-.5957066-.2556456-.8959781-.0989366-.2652073,.3304346-1.7743648-.2677105-.8676551-.7301511,.3900092-.8479422-.6575502-1.2793739-.9687997-.4299135-.3185575-1.3829632,.5946944-1.3421948-.8250684-.2545009-.7266035-.7973895-.7762251-1.3132685-.8892304-.4684013-.2282055-1.091137-.090382-1.3083002-.9046377-.5652816,.0029699-1.0300447-.2300554-1.2770773-.974191-.6361423,.165575-.7171672-.9682949-1.3444914-.8196771-.4136271-.3530466-.8295591-.7007055-1.2483544-1.0416196-.3413111-.2871943-.723202-.4753589-1.1137159-.6433032Z" fill="#caf0f8"/>
          <path d="M1.3435871,35.6657716c.1322409,.5311248,.2748216,1.0379764,.6316743,1.0418135,.1908333,.3935762,.4149862,.7089329,.6862451,.9137059,.2804523,.1831912,.2478202,1.1013635,.6649939,.9635941,.2275995,.3072657,.4230295,.690051,.6529255,.9919253,.1931334,.3881766,.5942206,.2881712,.6655655,.9622524,.3959191-.0878729,.409243,.7224154,.652354,.993267,.4367034-.1836162,.5672192,.3515583,.6006513,1.1146417,.1414342,.5095431,.6539631,.1479227,.7172682,.8408778,.2443464,.5709147,1.2146064-.5660332,1.1430004,.7465957,.5078213-.0513497,.4253086,1.2869058,1.1181074,.8013119,.7188501-.5430064,.6929967,.6584718,1.0740646,.9084258,.1501343,.7920823,.4683848,1.1857595,1.1889599,.6387034,.4044158,.1913997,.6958765,.6517341,1.1295938,.7743471,.363019,.0080586,.6134462,.2804319,.8694168,.536048-.0110817-.0525169-.017375-.1125534-.0204217-.1839557L1.6030855,35.7747169c-.0863023-.0367627-.1726128-.0735289-.2594984-.1089453Z" fill="#b6ebf2"/>
        </g>
      </g>
    </g>
    <g>
      <path d="M30.8689681,2.6103344c.4743322,.6481697,.9377413,1.3219591,1.4235598,1.943164,.2703799,.2442304,.5040053,.5747666,.7320757,.9220647,.2267205,.3467231,.4312478,.7493126,.6895627,1.0218659,.1865076,.4411247,.3692052,.8949606,.742987,.8964498,.4722154-.2258446,.3755234,.8801282,.6805728,1.0467142,.1468698,.5341765,.6074037,.3320337,.6562467,1.1000771,.4438641-.1630325,.2652283,1.1390516,.7659633,.8425119,.2987967,.4730186,.5464657,1.066062,.9371662,1.323309,.351646,.3489524,.5428158,1.0708865,.9593759,1.2674497,.4469999,.1250814,.3655015,1.4908617,.9469311,1.3003856,.1775867,.7575651,.5941468,.9541283,.9509527,1.2909446,.2850103,.505383,.8599182,.3264726,.9714408,1.2391267,.3240648,.4136776,.6222865,.8880461,.9251013,1.351632,.3123021,.5759592,.964683,.3535665,1.1988561,1.1129376,.3731911,.4330192,.9365316,.4196534,1.3246592,.8176084,.1606441,.9319839,.7389211,.883554,1.1138373,1.3125235,.6426125-.199461,.9416997,.4075208,1.409103,.6193724,.5403607,.0405803,1.2490409-.3139779,1.2620452,.964598,.5168094,.0958681,.614836,1.1748499,1.2614701,.9659479,.9514796-.4869334,1.20537,.6600375,1.6823459,1.2870251,.7676485-.0553808,1.1209227,.8582817,1.6823424,1.2870334,.5614197,.4287517,1.1209227,.8582817,1.6823424,1.2870334-.2482739-.4307934-.4957682-.8596502-.7446171-1.2890938L31.2787026,2.8565709c-.1404681-.0741798-.2786478-.1537544-.4097345-.2462365Z" fill="#0472a3"/>
      <path d="M31.2787026,2.8565709l22.8445858,23.6644446c-.109556-.1916521-.2210333-.3825376-.3311561-.5728364-.3584049-.6210957-.8657878-.8961791-1.076548-1.863855-.1734272-1.0553399-.6507373-1.3972768-1.0757814-1.8619336-.4267249-.0941463-.4141907-1.2232194-.8070244-1.3969268-.5019789,.0825162-.6456958-.6797495-.8064459-1.3982849-.0475834-.9842-.3142354-1.4578695-.7202806-1.6005623-.4049069-.1453879-.5555088-.8914679-.8937765-1.1932947-.3405561-.296432-.7249749-.4936378-.8179393-1.3713036-.4864674,.0461021-.3923609-1.2744658-.7961096-1.42255-.3817052-.4541697-.9512597-.467354-1.3404414-.9039951-.2191359-.8358094-.9049285-.5798627-1.3147852-.9679455-.6465382,.1675162-.818568-.7788771-1.3749111-.8230758-.4816605-.2195196-.8610692-.6790806-1.2789739-1.0482932-.602299,.0636853-.736616-.9749848-1.3452332-.8964672-.4914371-.1965915-.6169324-1.2522269-1.3105719-.9741152-.3558539-.514857-.8484293-.7087535-1.326655-.9363594-.4592593-.2721076-1.1944581,.0998225-1.3285716-.9355811-.3115955-.1661945-.7038117-.1468488-.847291-.7114485,.0449497-1.0069232-.4958579-.6350309-.9219652-.5361242-.1147563-.6320282-.5477569-.5169393-.8518841-.7006659-.3048974-.1856398-.6212893-.3443182-.9187185-.5474901-.3616998-.5460153-.8723905-.7460336-1.3595217-1.0013362Z" fill="#0077b6"/>
      <path d="M35.0833463,6.9038155c.2617878,.4476944,.5443941,.9138163,.8600966,1.3733327,.5012324-.1593181,.7874027,.1713025,.7916275,1.1338528,.3646254-.1378456,.6561693-.0742001,.8633752,.0602758l-2.5150992-2.5674613Z" fill="none"/>
      <g>
        <path d="M34.996993,6.7586894c.0285939,.0488226,.055838,.0970702,.0863533,.1451261l2.5150992,2.5674613c.1229675,.0778694,.2159629,.1812181,.2752756,.2813633l.0021248,.0024999,19.6851723,20.0848426c-.0167997-.1999463-.0426127-.3861986,.0140403-.7062093-.034307-.2822833-.1234558-.4732166,.0284918-1.0505859-.1209945-.1423587,.1176371-.8596443,.0350063-1.0621352,.1195186-.5274483-.0455747-.5961889,.0110273-1.024563,.0850093-.4688541,.0148385-.6931301,.0518993-1.0868164-.2080929-.4503098-.7740868-.3297424-.9593437-.8149411-.3266226-.2618188-.7303515-.3987405-.9612686-.8141662-.2625595-.3635845-.6027967-.6009302-.9641402-.807425-.4090886-.1280604-.7458793-.3734972-.9545437-.8224654-.261413-.3662761-.516676-.7395014-.9516673-.8291948-.2055894-.4524428-.7284266-.3995154-.9689367-.7999089-.1601326-.5254823-.6236996-.5668127-.9664368-.8020337-.3427289-.2352174-.6837411-.474488-.9528221-.8265068-.5556148-.6780194-1.2176817-1.1846918-1.920029-1.6304536-.524593-.1374306-.8074731-.812388-1.1996079-1.0176651-.3770129-.4203034-.6370707-.9580788-1.1996079-1.0176651-.3718696-.3575671-.751531-.7567002-1.1165669-1.1527734-.5580416,.05704-.6776269-.9339377-1.2834203-.8844899-.5636215,.1486707-.843179-.504158-1.2707676-.9029838-.5566615-.1893281-1.1730709-.0663334-1.21406-1.1146393-.3119426-.1504038-.6673257-.6252283-1.2336794-.8441732-.5856065-.7497456-1.0962444-1.0134666-1.2536447-1.1713333-.3064471-.1894896-.3655399-1.2439221-1.1757346-.9278318-.8578723,.4280158-1.2355863-.6601697-2.1582128-.9703329Z" fill="#00b4d8"/>
        <path d="M37.9487844,9.9280141c-.1070672,.5917027-.1399346,.0853751-.2872295,.6742856-.0709189,.3983822,.4496997,.1262315,1.2536447,1.1713333,.3419154,.5662752,1.0638121,.0946711,1.090848,1.0972014,.2242665,.5432426,.5787944,.6273481,.7790177,.9165825,.5361289,.3048522,1.1234058,.0595113,.8212723,1.1353266,.0573287,.864071,.5020187,.8113268,.7386064,1.2658103,.1294514,.7545941,.7204825,.4630463,.8584778,1.0778908,.160663,.5878387,.5318241,.7077073,.702164,1.3251758,.1949311,.3315868,.4198393,.5516628,.5993631,.8782813,.1776071,.3273968,.3523343,.6615314,.570597,.923393,.4025747,.5809605,.8320071,1.1175912,1.1705269,1.8003209,.2272807,.2481794,.4666461,.4791983,.6747408,.757442,.2094446,.2788187,.3876184,.6048621,.4952194,1.0442323,.184312,.3190989,.4911872,.440261,.6120193,.8597792,.0364412,.5540515,.2612255,.8043474,.5592825,.9424666,.3345617,.2843192,.6885045,.5418372,1.1153333,.6806442,.2413561,.4358014,.6639552,.580771,1.1153368,.680636,.3102075,.3265161,.7285934,.4776554,1.1302931,.6567343,.2336845,.4500669,.7706036,.412707,1.1011472,.706459,.378297,.2153211,.7495009,.4435497,1.0859875,.7270941,.3915317,.1954609,.6890878,.5404908,1.1446826,.6341861,.3449296,.271212,.7226468,.4878713,1.1249216,.6656003,.4717059,.0671056,.6927342,.5356745,1.1065234,.6976048,.0082818-.3485899,.0416844-.7374552,.0589841-1.0997273,.0060953-.1153045-.0004655-.2121069-.0095263-.3067845L37.8758458,9.75514c.0365015,.0601652,.060507,.1197822,.0729386,.1728741Z" fill="#00aed6"/>
      </g>
      <polyline points="37.8758427 9.755141 37.87372 9.7526435 37.5984436 9.4712749" fill="none"/>
      <g>
        <path d="M43.330454,15.2477024c.0132064,.0550168,.0264211,.1100371,.0415524,.1642791l16.772828,17.1745027c-.286612-.972904-.9315092-1.1121804-.8901039-2.8551215-.0808062-1.4747403-.7795192-1.4951467-.8993881-2.8781852-.2494939-1.0749935-.388896-2.4121769-.8974714-2.8789635-.4969542,.0033979-.8985498-.2170634-1.1766435-.7274742-.4038957-.2150617-.7384804-.5965783-1.1785637-.7266876-.6193225,.2906407-.5653725-.9992365-1.0778383-.9594245-.4762745-.0451487-.4711557-1.2203924-1.2754523-.4955157-.550957,.1301722-.7195222-.6410835-1.1837354-.7145469-.0609465-1.0201747-.4045247-1.3768348-1.1714753-.7396068-.445255-.1179686-.7779148-.50026-1.192155-.6910602-.2970436-.4659022-.5437379-1.0537459-1.1630522-.7631017-.6273658,.3095227-.9830053-.0188226-1.2122632-.6438553-.5377421,.0991494-.8790202-.2629102-1.1410273-.811085-.081625-.9716082-.6184169-.8784333-1.0797584-.9586379-.2160512-.6560589-.6745176-.7430129-1.2754523-.4955157Z" fill="#90e0ef"/>
        <path d="M43.3720064,15.4119815c.1301126,.5286332,.2745902,1.0235438,.6461878,.9890455,.0826264,.729873,.7659464,.0458662,.6647487,1.2072754,.1446806,.5842203,.692421,.2184708,.6630389,1.2113121,.1866068,.4857737,.4448258,.7997129,.6894535,1.1492796,.2854203,.2538269,.5407677,.5745073,.621101,1.3097634,.0435636,.8215748,.630375,.3641271,.7313962,1.05084,.4261552-.0765782,.4166779,.8657916,.7394312,1.0319546-.012149,.9523858,.5798258,.4827938,.6130577,1.3286454,.2928803,.2362913,.7303338,.1294688,.7641325,.973967,.4956742-.2397548,.2179256,1.3323955,.5883564,1.386633,.1711643,.8137798,.6755106,.8453982,1.2384564,.7394515,.6255563-.2529281,.9426319,.2183176,1.2763656,.6504577,.7588079,.6498538,1.5285306,1.2740844,2.514822,1.3899092,.8777213,.3706986,1.5888481,1.1324861,2.514822,1.3899092,1.0000813,.0834522,1.7594607,.7319644,2.514822,1.3899092-.0030912-.0076961-.0042693-.0161624-.0073641-.0238503L43.3720064,15.4119815Z" fill="#82d1db"/>
        <g>
          <path d="M47.6030855,19.7747169l11.5149008,11.9346086c-.006237-.1237474,.0015122-.2765845,.0205515-.4596693,.1371652-.8194681-.1480907-.6510027-.2613888-.8824957-.323552,.2620887-.036074-.9139675-.2619673-.8811375-.2121069,.0004655-.0004543-.9975864-.2619638-.8811458,.0199733-.5443543-.1716455-.5957066-.2556456-.8959781-.0989366-.2652073,.3304346-1.7743648-.2677105-.8676551-.7301511,.3900092-.8479422-.6575502-1.2793739-.9687997-.4299135-.3185575-1.3829632,.5946944-1.3421948-.8250684-.2545009-.7266035-.7973895-.7762251-1.3132685-.8892304-.4684013-.2282055-1.091137-.090382-1.3083002-.9046377-.5652816,.0029699-1.0300447-.2300554-1.2770773-.974191-.6361423,.165575-.7171672-.9682949-1.3444914-.8196771-.4136271-.3530466-.8295591-.7007055-1.2483544-1.0416196-.3413111-.2871943-.723202-.4753589-1.1137159-.6433032Z" fill="#caf0f8"/>
          <path d="M47.3435871,19.6657716c.1322409,.5311248,.2748216,1.0379764,.6316743,1.0418135,.1908333,.3935762,.4149862,.7089329,.6862451,.9137059,.2804523,.1831912,.2478202,1.1013635,.6649939,.9635941,.2275995,.3072657,.4230295,.690051,.6529255,.9919253,.1931334,.3881766,.5942206,.2881712,.6655655,.9622524,.3959191-.0878729,.409243,.7224154,.652354,.993267,.4367034-.1836162,.5672192,.3515583,.6006513,1.1146417,.1414342,.5095431,.6539631,.1479227,.7172682,.8408778,.2443464,.5709147,1.2146064-.5660332,1.1430004,.7465957,.5078213-.0513497,.4253086,1.2869058,1.1181074,.8013119,.7188501-.5430064,.6929967,.6584718,1.0740646,.9084258,.1501343,.7920823,.4683848,1.1857595,1.1889599,.6387034,.4044158,.1913997,.6958765,.6517341,1.1295938,.7743471,.363019,.0080586,.6134462,.2804319,.8694168,.536048-.0110817-.0525169-.017375-.1125534-.0204217-.1839557l-11.5149008-11.9346086c-.0863023-.0367627-.1726128-.0735289-.2594984-.1089453Z" fill="#b6ebf2"/>
        </g>
      </g>
    </g>
    <g>
      <path d="M15.213668-.8896656c.2687882,.3672962,.5313867,.7491102,.8066839,1.1011263,.1532153,.1383972,.285603,.3257011,.4148429,.5225033,.1284749,.1964764,.2443737,.4246105,.3907522,.5790574,.1056877,.2499707,.2092163,.5071443,.421026,.5079882,.2675887-.1279786,.2127966,.4987393,.3856579,.5931381,.0832262,.3027,.3441954,.1881524,.3718731,.623377,.251523-.0923851,.150296,.6454626,.4340459,.4774234,.1693181,.2680439,.3096639,.6041018,.5310609,.7498751,.199266,.1977397,.3075956,.6068357,.5436463,.7182215,.2532999,.0708795,.2071175,.8448216,.5365943,.7368852,.1006325,.4292869,.3366832,.5406727,.5388732,.7315353,.1615058,.2863837,.487287,.1850012,.5504831,.7021718,.1836367,.2344173,.352629,.5032261,.5242241,.7659248,.1769712,.3263769,.5466537,.2003543,.6793518,.6306646,.211475,.2453775,.5307012,.2378036,.7506402,.4633114,.0910317,.5281242,.4187219,.5006806,.6311744,.7437633,.3641471-.1130279,.5336299,.2309285,.7984917,.3509777,.3062044,.0229955,.7077898-.1779208,.7151589,.5466055,.2928587,.0543253,.348407,.6657483,.7148331,.5473705,.5391718-.2759289,.683043,.3740212,.9533293,.7293142,.4350008-.0313824,.6351895,.4863596,.9533273,.7293189s.6351895,.4863596,.9533273,.7293189c-.1406885-.2441163-.2809353-.4871351-.4219497-.7304865L15.4458509-.7501316c-.0795986-.0420352-.1579004-.0871275-.2321829-.139534Z" fill="#0472a3"/>
      <path d="M15.4458509-.7501316l12.9452653,13.4098519c-.0620817-.1086029-.1252522-.2167713-.1876551-.3246073-.2030961-.3519542-.4906131-.5078348-.6100439-1.0561845-.0982754-.5980259-.3687511-.7917902-.6096094-1.0550957-.2418108-.0533496-.234708-.6931577-.4573139-.7915918-.2844547,.0467592-.3658943-.3851914-.456986-.7923614-.0269639-.5577133-.1780667-.826126-.408159-.9069853-.2294473-.0823865-.3147883-.5051652-.5064734-.6762003-.1929818-.1679781-.4108191-.2797281-.4634989-.777072-.2756648,.0261246-.2223379-.7221973-.4511288-.8061116-.2162996-.2573628-.5390472-.2648339-.7595835-.5122639-.124177-.4736253-.5127928-.3285889-.7450449-.5485024-.3663717,.0949258-.4638552-.4413637-.7791163-.4664096-.272941-.1243944-.4879392-.3848123-.7247519-.5940328-.3413028,.0360883-.4174157-.5524914-.7622988-.5079981-.278481-.1114018-.349595-.7095952-.7426574-.5519986-.2016505-.2917523-.4807766-.401627-.7517711-.5306037-.2602469-.1541943-.6768596,.0565661-.7528573-.5301626-.1765708-.0941769-.3988266-.0832143-.4801316-.4031542,.0254715-.5705898-.2809861-.3598509-.522447-.3038037-.0650286-.3581493-.3103956-.2929323-.4827343-.397044-.1727752-.1051959-.352064-.1951137-.5206071-.3102444-.2049632-.3094087-.4943546-.4227524-.7703956-.5674238Z" fill="#0077b6"/>
      <path d="M17.6018157,1.5433071c.1483464,.2536935,.30849,.5178292,.487388,.7782219,.2840317-.0902803,.4461949,.0970714,.4485889,.6425166,.206621-.0781125,.3718293-.0420467,.4892459,.0341563l-1.4252229-1.4548947Z" fill="none"/>
      <path d="M31.381537,15.8385994c-.0515683-.0400251-.1002079-.0869253-.1485198-.1345951,.0219442,.109569,.072537,.1518843,.1485198,.1345951Z" fill="#caf0f8"/>
      <g>
        <path d="M17.5528821,1.4610689c.0162032,.0276661,.0316415,.0550064,.0489336,.0822381l1.4252229,1.4548947c.0696816,.044126,.122379,.1026903,.1559895,.1594392l.001204,.0014166,11.154931,11.3814108c-.0095198-.1133029-.0241472-.2188459,.0079562-.4001853-.0194406-.1599605-.0699583-.2681561,.0161453-.595332-.0685636-.0806699,.066661-.4871318,.0198369-.6018766,.0677272-.2988873-.0258256-.3378404,.0062488-.5805857,.048172-.265684,.0084085-.3927737,.0294096-.6158626-.1179193-.2551756-.4386492-.186854-.5436281-.4617999-.1850861-.148364-.4138658-.2259529-.5447189-.4613608-.1487837-.2060312-.3415848-.3405271-.5463461-.4575408-.2318169-.0725676-.4226649-.2116484-.5409081-.4660637-.148134-.2075564-.2927831-.4190508-.5392782-.4698771-.1165007-.2563843-.412775-.226392-.5490641-.4532817-.0907418-.2977733-.3534298-.3211939-.5476475-.4544857-.1942131-.1332899-.3874533-.2688766-.5399325-.4683539-.3148484-.384211-.6900196-.6713253-1.0880164-.9239237-.2972693-.0778773-.4575681-.4603532-.6797778-.5766769-.2136407-.2381719-.3610067-.5429113-.6797778-.5766769-.2107261-.2026214-.4258675-.4287968-.6327212-.6532383-.3162236,.0323227-.3839886-.5292314-.7272715-.501211-.3193855,.0842468-.4778014-.2856895-.7201017-.5116908-.3154415-.1072859-.6647402-.0375889-.6879674-.6316289-.1767675-.0852288-.3781512-.3542961-.699085-.4783648-.3318437-.4248558-.6212051-.5742978-.7103987-.6637556-.1736534-.1073774-.2071393-.7048892-.6662496-.5257714-.4861276,.2425423-.7001656-.3740961-1.2229872-.5498553Z" fill="#00b4d8"/>
        <path d="M19.2255639,3.2570196c-.0606714,.3352982-.0792963,.0483792-.1627634,.3820952-.0401873,.2257499,.2548298,.0715312,.7103987,.6637556,.1937521,.3208893,.6028269,.053647,.6181472,.6217474,.1270844,.3078375,.3279835,.3554972,.4414433,.5193967,.3038064,.1727496,.6365966,.0337231,.4653876,.6433518,.0324863,.4896402,.2844773,.4597518,.4185436,.7172925,.0733558,.4276033,.4082734,.2623929,.4864707,.6108048,.0910424,.3331086,.301367,.4010342,.3978929,.7509329,.1104609,.1878992,.237909,.3126089,.3396391,.4976927,.100644,.1855249,.1996561,.3748678,.3233383,.523256,.2281257,.329211,.4714707,.6333017,.6632986,1.0201819,.1287924,.140635,.2644328,.2715457,.3823531,.4292171,.1186853,.1579973,.2196505,.3427552,.2806243,.5917316,.1044435,.1808227,.2783394,.2494813,.3468109,.4872082,.02065,.3139625,.1480278,.4557968,.3169267,.5340644,.189585,.1611142,.3901526,.3070411,.6320222,.3856984,.1367685,.2469541,.3762413,.3291036,.6320242,.3856937,.1757843,.1850258,.4128696,.2706714,.6404994,.3721495,.1324212,.2550379,.4366754,.2338673,.6239834,.4003268,.2143683,.1220153,.4247172,.2513448,.6153929,.41202,.221868,.1107612,.3904831,.3062781,.6486535,.3593721,.1954601,.1536868,.4094999,.2764604,.6374556,.3771735,.2673,.0380265,.3925494,.3035489,.6270299,.3953094,.004693-.1975343,.0236211-.4178913,.0334243-.6231788,.003454-.0653392-.0002638-.1201939-.0053982-.1738445L19.184232,3.1590576c.0206842,.0340936,.0342873,.0678766,.0413318,.097962Z" fill="#00aed6"/>
      </g>
      <polyline points="19.1842303 3.1590582 19.1830274 3.1576429 19.0270375 2.9982007" fill="none"/>
      <g>
        <path d="M22.2751767,6.2715096c.0074836,.0311762,.0149719,.0623544,.0235464,.0930915l9.5046025,9.7322182c-.1624135-.5513123-.5278552-.6302355-.5043922-1.6179022-.0457902-.8356862-.4417275-.8472498-.5096533-1.6309716-.1413799-.609163-.2203744-1.3669003-.5085672-1.6314127-.2816074,.0019255-.5091782-.1230026-.6667647-.4122354-.2288742-.1218683-.4184722-.338061-.6678528-.4117897-.3509494,.1646964-.3203778-.566234-.610775-.5436739-.2698889-.0255842-.2669882-.6915557-.7227563-.2807922-.312209,.0737642-.4077293-.3632806-.6707834-.4049099-.0345364-.578099-.2292307-.7802064-.663836-.4191105-.2523112-.0668488-.4408184-.2834807-.6755545-.3916008-.1683247-.2640113-.3081182-.5971227-.6590629-.4324243-.3555073,.1753962-.5570363-.0106662-.6869491-.3648513-.3047205,.0561847-.4981114-.1489824-.6465822-.4596148-.0462542-.550578-.3504362-.4977789-.6118631-.5432282-.122429-.3717667-.3822267-.4210407-.7227563-.2807922Z" fill="#90e0ef"/>
        <path d="M22.298723,6.3646011c.0737305,.2995588,.1556011,.5800081,.3661731,.5604591,.0468216,.4135947,.4340363,.0259909,.3766909,.6841227,.0819857,.3310581,.3923719,.1238001,.375722,.6864102,.1057438,.2752718,.252068,.4531707,.3906903,.6512584,.1617382,.1438352,.306435,.3255542,.3519572,.7421993,.024686,.4655591,.3572125,.2063387,.4144578,.595476,.2414879-.0433943,.2361175,.4906152,.419011,.5847743-.0068845,.5396853,.328568,.2735831,.3473994,.7528991,.1659655,.1338984,.4138558,.0733656,.4330084,.5519146,.2808821-.135861,.1234912,.7550241,.333402,.7857587,.0969931,.4611419,.3827894,.479059,.7017919,.4190225,.3544819-.1433259,.5341581,.1237133,.7232739,.3685927,.4299911,.3682505,.8661673,.7219811,1.4250658,.7876152,.4973754,.2100625,.9003473,.6417421,1.4250658,.7876152,.5667128,.0472896,.9970278,.4147798,1.4250658,.7876152-.0017517-.0043611-.0024193-.0091587-.004173-.0135152L22.298723,6.3646011Z" fill="#82d1db"/>
        <g>
          <path d="M24.6963345,8.8368178l6.5251105,6.7629449c-.0035343-.0701235,.0008569-.1567312,.0116459-.2604793,.0777269-.4643652-.0839181-.3689015-.1481203-.5000809-.1833462,.1485169-.0204419-.5179149-.1484481-.4993113-.1201939,.0002638-.0002574-.565299-.1484462-.4993159,.0113182-.3084674-.0972658-.3375671-.1448658-.5077209-.0560641-.1502841,.1872463-1.0054734-.1517026-.4916712-.4137523,.2210052-.4805006-.3726118-.7249785-.5489865-.2436177-.1805159-.7836791,.3369935-.7605771-.4675388-.1442172-.411742-.4518541-.4398609-.7441855-.5038972-.2654274-.1293165-.618311-.0512165-.7413701-.512628-.3203263,.0016829-.583692-.1303648-.7236771-.5520416-.3604806,.0938258-.4063947-.5487005-.7618784-.4644837-.2343887-.2000598-.4700835-.3970664-.7074008-.5902511-.1934096-.1627435-.4098145-.26937-.6311057-.3645385Z" fill="#caf0f8"/>
          <path d="M24.5492854,8.7750822c.0749365,.3009707,.1557322,.5881866,.3579488,.590361,.1081389,.2230265,.2351588,.4017287,.3888722,.5177667,.1589229,.1038083,.1404314,.624106,.3768299,.5460367,.1289731,.1741172,.2397167,.3910289,.3699911,.562091,.1094422,.2199668,.336725,.163297,.3771538,.5452764,.2243541-.0497947,.2319044,.4093687,.3696673,.5628513,.2474653-.1040492,.3214242,.1992164,.3403691,.6316303,.080146,.2887411,.3705791,.0838229,.406452,.4764974,.138463,.3235183,.688277-.3207521,.6477002,.4230709,.2877654-.0290982,.2410082,.7292466,.6335942,.4540768,.4073484-.3077036,.3926981,.373134,.6086366,.5147746,.0850761,.4488467,.265418,.6719304,.6737439,.3619319,.229169,.1084598,.39433,.369316,.6401032,.4387967,.2057107,.0045666,.3476195,.1589114,.4926695,.3037605-.0062796-.0297596-.0098459-.0637802-.0115723-.1042416l-6.5251105-6.7629449c-.0489046-.0208322-.0978139-.0416664-.1470491-.0617356Z" fill="#b6ebf2"/>
        </g>
      </g>
    </g>
    <g>
      <path d="M12.213668,31.1103344c.2687882,.3672962,.5313867,.7491102,.8066839,1.1011263,.1532153,.1383972,.285603,.3257011,.4148429,.5225033,.1284749,.1964764,.2443737,.4246105,.3907522,.5790574,.1056877,.2499707,.2092163,.5071443,.421026,.5079882,.2675887-.1279786,.2127966,.4987393,.3856579,.5931381,.0832262,.3027,.3441954,.1881524,.3718731,.623377,.251523-.0923851,.150296,.6454626,.4340459,.4774234,.1693181,.2680439,.3096639,.6041018,.5310609,.7498751,.199266,.1977397,.3075956,.6068357,.5436463,.7182215,.2532999,.0708795,.2071175,.8448216,.5365943,.7368852,.1006325,.4292869,.3366832,.5406727,.5388732,.7315353,.1615058,.2863837,.487287,.1850012,.5504831,.7021718,.1836367,.2344173,.352629,.5032261,.5242241,.7659248,.1769712,.3263769,.5466537,.2003543,.6793518,.6306646,.211475,.2453775,.5307012,.2378036,.7506402,.4633114,.0910317,.5281242,.4187219,.5006806,.6311744,.7437633,.3641471-.1130279,.5336299,.2309285,.7984917,.3509777,.3062044,.0229955,.7077898-.1779208,.7151589,.5466055,.2928587,.0543253,.348407,.6657483,.7148331,.5473705,.5391718-.2759289,.683043,.3740212,.9533293,.7293142,.4350008-.0313824,.6351895,.4863596,.9533273,.7293189s.6351895,.4863596,.9533273,.7293189c-.1406885-.2441163-.2809353-.4871351-.4219497-.7304865l-12.9452653-13.4098519c-.0795986-.0420352-.1579004-.0871275-.2321829-.139534Z" fill="#0472a3"/>
      <path d="M12.4458509,31.2498684l12.9452653,13.4098519c-.0620817-.1086029-.1252522-.2167713-.1876551-.3246073-.2030961-.3519542-.4906131-.5078348-.6100439-1.0561845-.0982754-.5980259-.3687511-.7917902-.6096094-1.0550957-.2418108-.0533496-.234708-.6931577-.4573139-.7915918-.2844547,.0467592-.3658943-.3851914-.456986-.7923614-.0269639-.5577133-.1780667-.826126-.408159-.9069853-.2294473-.0823865-.3147883-.5051652-.5064734-.6762003-.1929818-.1679781-.4108191-.2797281-.4634989-.777072-.2756648,.0261246-.2223379-.7221973-.4511288-.8061116-.2162996-.2573628-.5390472-.2648339-.7595835-.5122639-.124177-.4736253-.5127928-.3285889-.7450449-.5485024-.3663717,.0949258-.4638552-.4413637-.7791163-.4664096-.272941-.1243944-.4879392-.3848123-.7247519-.5940328-.3413028,.0360883-.4174157-.5524914-.7622988-.5079981-.278481-.1114018-.349595-.7095952-.7426574-.5519986-.2016505-.2917523-.4807766-.401627-.7517711-.5306037-.2602469-.1541943-.6768596,.0565661-.7528573-.5301626-.1765708-.0941769-.3988266-.0832143-.4801316-.4031542,.0254715-.5705898-.2809861-.3598509-.522447-.3038037-.0650286-.3581493-.3103956-.2929323-.4827343-.397044-.1727752-.1051959-.352064-.1951137-.5206071-.3102444-.2049632-.3094087-.4943546-.4227524-.7703956-.5674238Z" fill="#0077b6"/>
      <path d="M14.6018157,33.5433071c.1483464,.2536935,.30849,.5178292,.487388,.7782219,.2840317-.0902803,.4461949,.0970714,.4485889,.6425166,.206621-.0781125,.3718293-.0420467,.4892459,.0341563l-1.4252229-1.4548947Z" fill="none"/>
      <path d="M28.381537,47.8385994c-.0515683-.0400251-.1002079-.0869253-.1485198-.1345951,.0219442,.109569,.072537,.1518843,.1485198,.1345951Z" fill="#caf0f8"/>
      <g>
        <path d="M14.5528821,33.4610689c.0162032,.0276661,.0316415,.0550064,.0489336,.0822381l1.4252229,1.4548947c.0696816,.044126,.122379,.1026903,.1559895,.1594392l.001204,.0014166,11.154931,11.3814108c-.0095198-.1133029-.0241472-.2188459,.0079562-.4001853-.0194406-.1599605-.0699583-.2681561,.0161453-.595332-.0685636-.0806699,.066661-.4871318,.0198369-.6018766,.0677272-.2988873-.0258256-.3378404,.0062488-.5805857,.048172-.265684,.0084085-.3927737,.0294096-.6158626-.1179193-.2551756-.4386492-.186854-.5436281-.4617999-.1850861-.148364-.4138658-.2259529-.5447189-.4613608-.1487837-.2060312-.3415848-.3405271-.5463461-.4575408-.2318169-.0725676-.4226649-.2116484-.5409081-.4660637-.148134-.2075564-.2927831-.4190508-.5392782-.4698771-.1165007-.2563843-.412775-.226392-.5490641-.4532817-.0907418-.2977733-.3534298-.3211939-.5476475-.4544857-.1942131-.1332899-.3874533-.2688766-.5399325-.4683539-.3148484-.384211-.6900196-.6713253-1.0880164-.9239237-.2972693-.0778773-.4575681-.4603532-.6797778-.5766769-.2136407-.2381719-.3610067-.5429113-.6797778-.5766769-.2107261-.2026214-.4258675-.4287968-.6327212-.6532383-.3162236,.0323227-.3839886-.5292314-.7272715-.501211-.3193855,.0842468-.4778014-.2856895-.7201017-.5116908-.3154415-.1072859-.6647402-.0375889-.6879674-.6316289-.1767675-.0852288-.3781512-.3542961-.699085-.4783648-.3318437-.4248558-.6212051-.5742978-.7103987-.6637556-.1736534-.1073774-.2071393-.7048892-.6662496-.5257714-.4861276,.2425423-.7001656-.3740961-1.2229872-.5498553Z" fill="#00b4d8"/>
        <path d="M16.2255639,35.2570196c-.0606714,.3352982-.0792963,.0483792-.1627634,.3820952-.0401873,.2257499,.2548298,.0715312,.7103987,.6637556,.1937521,.3208893,.6028269,.053647,.6181472,.6217474,.1270844,.3078375,.3279835,.3554972,.4414433,.5193967,.3038064,.1727496,.6365966,.0337231,.4653876,.6433518,.0324863,.4896402,.2844773,.4597518,.4185436,.7172925,.0733558,.4276033,.4082734,.2623929,.4864707,.6108048,.0910424,.3331086,.301367,.4010342,.3978929,.7509329,.1104609,.1878992,.237909,.3126089,.3396391,.4976927,.100644,.1855249,.1996561,.3748678,.3233383,.523256,.2281257,.329211,.4714707,.6333017,.6632986,1.0201819,.1287924,.140635,.2644328,.2715457,.3823531,.4292171,.1186853,.1579973,.2196505,.3427552,.2806243,.5917316,.1044435,.1808227,.2783394,.2494813,.3468109,.4872082,.02065,.3139625,.1480278,.4557968,.3169267,.5340644,.189585,.1611142,.3901526,.3070411,.6320222,.3856984,.1367685,.2469541,.3762413,.3291036,.6320242,.3856937,.1757843,.1850258,.4128696,.2706714,.6404994,.3721495,.1324212,.2550379,.4366754,.2338673,.6239834,.4003268,.2143683,.1220153,.4247172,.2513448,.6153929,.41202,.221868,.1107612,.3904831,.3062781,.6486535,.3593721,.1954601,.1536868,.4094999,.2764604,.6374556,.3771735,.2673,.0380265,.3925494,.3035489,.6270299,.3953094,.004693-.1975343,.0236211-.4178913,.0334243-.6231788,.003454-.0653392-.0002638-.1201939-.0053982-.1738445l-11.154931-11.3814108c.0206842,.0340936,.0342873,.0678766,.0413318,.097962Z" fill="#00aed6"/>
      </g>
      <polyline points="16.1842303 35.1590582 16.1830274 35.1576429 16.0270375 34.9982007" fill="none"/>
      <g>
        <path d="M19.2751767,38.2715096c.0074836,.0311762,.0149719,.0623544,.0235464,.0930915l9.5046025,9.7322182c-.1624135-.5513123-.5278552-.6302355-.5043922-1.6179022-.0457902-.8356862-.4417275-.8472498-.5096533-1.6309716-.1413799-.609163-.2203744-1.3669003-.5085672-1.6314127-.2816074,.0019255-.5091782-.1230026-.6667647-.4122354-.2288742-.1218683-.4184722-.338061-.6678528-.4117897-.3509494,.1646964-.3203778-.566234-.610775-.5436739-.2698889-.0255842-.2669882-.6915557-.7227563-.2807922-.312209,.0737642-.4077293-.3632806-.6707834-.4049099-.0345364-.578099-.2292307-.7802064-.663836-.4191105-.2523112-.0668488-.4408184-.2834807-.6755545-.3916008-.1683247-.2640113-.3081182-.5971227-.6590629-.4324243-.3555073,.1753962-.5570363-.0106662-.6869491-.3648513-.3047205,.0561847-.4981114-.1489824-.6465822-.4596148-.0462542-.550578-.3504362-.4977789-.6118631-.5432282-.122429-.3717667-.3822267-.4210407-.7227563-.2807922Z" fill="#90e0ef"/>
        <path d="M19.298723,38.3646011c.0737305,.2995588,.1556011,.5800081,.3661731,.5604591,.0468216,.4135947,.4340363,.0259909,.3766909,.6841227,.0819857,.3310581,.3923719,.1238001,.375722,.6864102,.1057438,.2752718,.252068,.4531707,.3906903,.6512584,.1617382,.1438352,.306435,.3255542,.3519572,.7421993,.024686,.4655591,.3572125,.2063387,.4144578,.595476,.2414879-.0433943,.2361175,.4906152,.419011,.5847743-.0068845,.5396853,.328568,.2735831,.3473994,.7528991,.1659655,.1338984,.4138558,.0733656,.4330084,.5519146,.2808821-.135861,.1234912,.7550241,.333402,.7857587,.0969931,.4611419,.3827894,.479059,.7017919,.4190225,.3544819-.1433259,.5341581,.1237133,.7232739,.3685927,.4299911,.3682505,.8661673,.7219811,1.4250658,.7876152,.4973754,.2100625,.9003473,.6417421,1.4250658,.7876152,.5667128,.0472896,.9970278,.4147798,1.4250658,.7876152-.0017517-.0043611-.0024193-.0091587-.004173-.0135152l-9.5046025-9.7322182Z" fill="#82d1db"/>
        <g>
          <path d="M21.6963345,40.8368178l6.5251105,6.7629449c-.0035343-.0701235,.0008569-.1567312,.0116459-.2604793,.0777269-.4643652-.0839181-.3689015-.1481203-.5000809-.1833462,.1485169-.0204419-.5179149-.1484481-.4993113-.1201939,.0002638-.0002574-.565299-.1484462-.4993159,.0113182-.3084674-.0972658-.3375671-.1448658-.5077209-.0560641-.1502841,.1872463-1.0054734-.1517026-.4916712-.4137523,.2210052-.4805006-.3726118-.7249785-.5489865-.2436177-.1805159-.7836791,.3369935-.7605771-.4675388-.1442172-.411742-.4518541-.4398609-.7441855-.5038972-.2654274-.1293165-.618311-.0512165-.7413701-.512628-.3203263,.0016829-.583692-.1303648-.7236771-.5520416-.3604806,.0938258-.4063947-.5487005-.7618784-.4644837-.2343887-.2000598-.4700835-.3970664-.7074008-.5902511-.1934096-.1627435-.4098145-.26937-.6311057-.3645385Z" fill="#caf0f8"/>
          <path d="M21.5492854,40.7750822c.0749365,.3009707,.1557322,.5881866,.3579488,.590361,.1081389,.2230265,.2351588,.4017287,.3888722,.5177667,.1589229,.1038083,.1404314,.624106,.3768299,.5460367,.1289731,.1741172,.2397167,.3910289,.3699911,.562091,.1094422,.2199668,.336725,.163297,.3771538,.5452764,.2243541-.0497947,.2319044,.4093687,.3696673,.5628513,.2474653-.1040492,.3214242,.1992164,.3403691,.6316303,.080146,.2887411,.3705791,.0838229,.406452,.4764974,.138463,.3235183,.688277-.3207521,.6477002,.4230709,.2877654-.0290982,.2410082,.7292466,.6335942,.4540768,.4073484-.3077036,.3926981,.373134,.6086366,.5147746,.0850761,.4488467,.265418,.6719304,.6737439,.3619319,.229169,.1084598,.39433,.369316,.6401032,.4387967,.2057107,.0045666,.3476195,.1589114,.4926695,.3037605-.0062796-.0297596-.0098459-.0637802-.0115723-.1042416l-6.5251105-6.7629449c-.0489046-.0208322-.0978139-.0416664-.1470491-.0617356Z" fill="#b6ebf2"/>
        </g>
      </g>
    </g>
  </g>
</svg>