<?xml version="1.0" encoding="UTF-8"?>
<svg id="eissplitter" xmlns="http://www.w3.org/2000/svg" xmlns:xlink="http://www.w3.org/1999/xlink" viewBox="0 0 50 50">
  <defs>
    <clipPath id="clippath">
      <rect width="50" height="50" fill="none"/>
    </clipPath>
  </defs>
  <g clip-path="url(#clippath)">
    <rect width="50" height="50" fill="#03071e"/>
    <g>
      <path d="M-8.9712167-8.2600539c1.0922864,1.4337875,2.1611724,2.9255302,3.2780648,4.29832,.617212,.5362881,1.15569,1.2678098,1.6824288,2.0371805,.5236852,.7681389,.9999914,1.6625847,1.5913581,2.2629427,.4375417,.9816866,.8670845,1.9920578,1.705803,1.9792365C.3361818,1.7904793,.1670574,4.2761312,.8586999,4.6367094c.3526301,1.1921807,1.3771889,.718719,1.5199887,2.4398658,.988848-.3849891,.6443463,2.5442208,1.7550225,1.8572225,.6908638,1.0483913,1.2722025,2.3682931,2.1599406,2.9285838,.8040769,.7677387,1.2642217,2.3792758,2.2073569,2.8022919,1.0083421,.2613164,.8845419,3.3292411,2.1808587,2.8767283,.4312091,1.6920695,1.3743444,2.1150857,2.1894738,2.8553717,.6613306,1.1216035,1.9435151,.6953228,2.2332022,2.738222,.7449919,.9141554,1.4346239,1.9656004,2.1340953,2.9926537,.7256172,1.278775,2.1797474,.7515831,2.7379973,2.4452577,.856053,.9554277,2.1194417,.9010795,3.0074915,1.7771879,.4007371,2.0841455,1.6961226,1.9504779,2.555871,2.8967448,1.4332046-.4753179,2.1305129,.8736343,3.188386,1.3287544,1.2141617,.0676844,2.7888958-.7584819,2.8733603,2.109696,1.1637104,.1927519,1.4303088,2.6094241,2.8721285,2.1127496,2.1137788-1.1336752,2.7330287,1.4288043,3.8303309,2.8149514,1.7199778-.1574517,2.5521266,1.8772564,3.8303234,2.81497,1.2781967,.9377136,2.5521266,1.8772564,3.8303234,2.81497-.5756799-.9558354-1.1495269-1.9073593-1.7264386-2.8601411L-8.041248-7.7252905c-.3183758-.1603632-.6318505-.3329298-.9299686-.5347633Z" fill="#0472a3"/>
      <path d="M-8.041248-7.7252905L44.2384123,44.3827901c-.2540979-.4252725-.5124737-.8487418-.7677848-1.2709532-.8310096-1.3780543-1.9813193-1.9733191-2.4960452-4.1353797-.4347526-2.3603664-1.5204786-3.1069308-2.494242-4.1311018-.9615135-.192784-.9822126-2.7266268-1.8711249-3.0993874-1.1227217,.2068476-1.4781404-1.4972331-1.8698856-3.1024596-.1493206-2.2061915-.7680894-3.2574332-1.6853031-3.5600353-.9147762-.3086983-1.2849428-1.9761654-2.0569653-2.638747-.7769235-.6503783-1.6479713-1.0762262-1.8945066-3.0414247-1.0894931,.1244747-.9354492-2.8425521-1.8477432-3.1573501-.8760706-1.002515-2.1545498-1.0074684-3.0466374-1.9703313-.5278163-1.8658295-2.0554615-1.2619076-2.9918378-2.1149262-1.4433939,.4038129-1.8703002-1.7121704-3.1204779-1.7872824-1.0901938-.4717086-1.9613447-1.4864194-2.9149624-2.2967508-1.3486243,.1689346-1.6949042-2.155721-3.0570632-1.9532339-1.111138-.419842-1.4383584-2.7829441-2.9826514-2.1289513-.8206921-1.139797-1.9342676-1.5535429-3.0171042-2.0435434-1.0422061-.5906689-2.6756886,.2756212-3.021371-2.0417141-.706313-.3594169-1.5854919-.2990511-1.9318301-1.559639C1.2281895-3.9115978,.0308608-3.0537982-.9209193-2.8134558c-.2848082-1.4131193-1.2513549-1.1361708-1.9416695-1.5352474-.6921253-.4033358-1.4088753-.7456814-2.0850022-1.1886769-.8351558-1.2094541-1.9896414-1.6361522-3.093657-2.1879105Z" fill="#0077b6"/>
      <path d="M.6702362,1.1909938c.606732,.9931718,1.2609711,2.0267891,1.9891825,3.0441545,1.1177257-.3791358,1.7741023,.3503032,1.8252031,2.5097942,.8121492-.3250508,1.4690383-.1948562,1.9397609,.0979077L.6702362,1.1909938Z" fill="none"/>
      <g>
        <path d="M.4702098,.8691084c.0662674,.1083068,.1294811,.2153818,.2000264,.3218854L6.4243826,6.8428501c.2792694,.1693982,.492392,.3972606,.6298021,.6193914l.0048754,.0055172L52.0951605,51.6809042c-.0463394-.447893-.1123098-.864671,.0009651-1.5851286-.0891808-.6318755-.29746-1.0564176,.0184986-2.3584311-.2776311-.3141782,.2267703-1.9338703,.0326159-2.3846259,.2453564-1.1886035-.1280357-1.3356981-.0195611-2.2992884,.1704617-1.0556437,.0033215-1.5558172,.0694514-2.4407336-.4863697-1.0013618-1.7510765-.7063706-2.1877178-1.7869999-.7441643-.5733193-1.6559312-.8630727-2.1920032-1.7851781-.6048264-.8044211-1.3784796-1.3222413-2.1981547-1.7699287-.9234094-.2696397-1.6896794-.805763-2.1772734-1.8040898-.6023703-.8105097-1.1912425-1.6368774-2.1711108-1.8193131-.480845-1.0062558-1.6516458-.8648945-2.2085916-1.7528575-.3820118-1.1721002-1.423904-1.2447881-2.2030744-1.7577329-.7791518-.5129373-1.5546268-1.0350429-2.1735855-1.813232-1.2759509-1.4972465-2.7833391-2.6054386-4.3784706-3.5752241-1.1829716-.285669-1.8468556-1.7878386-2.7355646-2.2314625-.8640781-.9267321-1.4708235-2.1220934-2.7355646-2.2314625-.8498252-.7861932-1.7189301-1.665311-2.5550876-2.5381957-1.2496111,.1521109-1.5607754-2.0661744-2.9178558-1.9290333-1.2581685,.357944-1.9136406-1.0947191-2.8902666-1.971075-1.257168-.4007248-2.6348869-.0981075-2.7721841-2.4484185-.7064091-.3239722-1.5243138-1.3739687-2.8045087-1.8407255-1.3463447-1.6568817-2.5034663-2.2265119-2.8634517-2.5739112-.6957689-.4119066-.8739501-2.7751811-2.6781156-2.0309358C3.4482491,3.9503546,2.5537181,1.5251262,.4702098,.8691084Z" fill="#00b4d8"/>
        <path d="M7.2301876,7.8524822c-.2146409,1.3322328-.3102796,.197607-.6152999,1.5253143-.1418942,.8969165,1.0144493,.26378,2.8634517,2.5739112,.7916418,1.2557667,2.3909684,.1664133,2.4949793,2.4146209,.5266771,1.2091757,1.3257679,1.3825529,1.7875155,2.0228502,1.2160942,.660814,2.5231583,.0849483,1.8917809,2.5118192,.1659917,1.9362367,1.1614618,1.7986657,1.7119457,2.8081598,.3230794,1.6874848,1.6365687,1.0077823,1.9727753,2.3813416,.3858982,1.3119862,1.2238554,1.564886,1.632747,2.942934,.4517049,.7355521,.9658478,1.2196114,1.3827685,1.9446823,.4126539,.7269002,.8191376,1.4690423,1.3201767,2.0471433,.9283781,1.2860931,1.9150997,2.4715621,2.7041584,3.9887645,.5206811,.5470121,1.0677346,1.0549988,1.5466681,1.6702959,.4819871,.6165288,.8958542,1.3403679,1.1562771,2.3215297,.427339,.7079922,1.1211137,.9665741,1.4103651,1.9026219,.1057209,1.2415493,.6208923,1.7934182,1.295615,2.0904279,.7629502,.6234602,1.5682268,1.1859483,2.5319046,1.4789329,.5603751,.9673708,1.5148291,1.2743655,2.5319121,1.4789143,.7101313,.7191903,1.6553989,1.0402102,2.564436,1.4246395,.5437792,.9997101,1.7468488,.8926688,2.5011914,1.537467,.8580955,.466758,1.7008344,.9627831,2.4680699,1.5844214,.8869315,.4216254,1.5694773,1.1829022,2.5957467,1.3734258,.7856458,.5936031,1.6424984,1.0633886,2.5527673,1.4447643,1.0612681,.1301678,1.5774506,1.1719382,2.5128712,1.5173683,.0035084-.782489,.0616389-1.6564303,.0847893-2.4700082,.0086902-.2589721-.0102162-.4758839-.0346399-.6879203L7.0590601,7.4677587c.0845,.1334142,.140939,.2661388,.1711274,.3847235Z" fill="#00aed6"/>
      </g>
      <polyline points="7.0590531 7.4677611 7.0541825 7.4622493 6.4243783 6.8428458" fill="none"/>
      <g>
        <path d="M19.5350657,19.5555557c.0320102,.1228701,.064039,.2457478,.1003347,.3667961L58.0112293,57.7315017c-.6851405-2.1705108-2.1381186-2.4551192-2.1205839-6.3675457-.245074-3.30538-1.8136584-3.3209527-2.1424123-6.4188923-.6062731-2.4011741-.9768707-5.395384-2.1381455-6.4207216-1.114869,.0291127-2.0254618-.4481708-2.6714912-1.5813544-.91552-.465069-1.6827247-1.3066099-2.6757655-1.5795064-1.377006,.6788906-1.311734-2.2175392-2.4598317-2.1060536-1.0705692-.0807055-1.1099028-2.7178207-2.8831583-1.0566366-1.2305532,.3158912-1.6421128-1.4072858-2.6868442-1.5520426-.1808591-2.2863302-.9671676-3.0717115-2.66042-1.6087996-1.0041195-.2454327-1.7670388-1.0887954-2.7047198-1.4989815-.6866227-1.0325001-1.2655495-2.3407775-2.6425369-1.6618794-1.3942362,.7216039-2.2063825,.0002738-2.7477953-1.3921983-1.2022443,.245714-1.9836256-.5518817-2.5951946-1.7704919-.2251553-2.1764673-1.425526-1.9441995-2.464106-2.1042056-.5131225-1.4626567-1.5455435-1.6379309-2.8831583-1.0566366Z" fill="#90e0ef"/>
        <path d="M19.6354004,19.9223518c.3147922,1.1804678,.6603569,2.2846512,1.4926187,2.1911791,.2169491,1.6340428,1.720537,.0697898,1.5437002,2.6800189,.3498821,1.3045586,1.5630316,.460242,1.5400384,2.68915,.4396949,1.0818611,1.0326359,1.7750808,1.5966226,2.5488255,.6513731,.5571694,1.2381626,1.2656385,1.4501995,2.9118585,.1332693,1.8414833,1.4301172,.7897337,1.6864726,2.326143,.9528529-.1902458,.9723377,1.9245586,1.7036842,2.2834222,.0139233,2.1373929,1.3218313,1.0581719,1.4329693,2.9545718,.6673529,.5175023,1.6442479,.2589087,1.7565991,2.1522474,1.1017768-.5593711,.5465736,2.9800717,1.3800544,3.0857466,.4192299,1.8184761,1.5521987,1.8676099,2.8106986,1.605555,1.3926235-.5945444,2.1244231,.4490787,2.8919074,1.4042403,1.7306372,1.425265,3.4846561,2.7925674,5.702606,3.0097953,1.9853723,.7937826,3.6138676,2.4722551,5.702606,3.0097953,2.2474906,.1439972,3.9793521,1.5662273,5.702606,3.0097953-.0072686-.0171341-.0102779-.036079-.017554-.0531945L19.6354004,19.9223518Z" fill="#82d1db"/>
        <g>
          <path d="M29.3173196,29.5280632l26.3520419,26.27976c-.019345-.2773824-.0085668-.6206378,.0262349-1.0322486,.2723229-1.8445713-.360421-1.4542508-.6246379-1.9687524-.7146206,.6020389-.1204601-2.0491085-.6258772-1.9656802-.4758839,.0102162-.044156-2.2382646-.6258697-1.9656988,.0212757-1.2222311-.4108798-1.3291646-.6123349-1.9992512-.2334519-.5907673,.6646707-3.9954297-.6381802-1.9351813-1.6213753,.9066358-1.9309606-1.4386792-2.9124224-2.118374-.9783715-.6961574-3.0772387,1.3941163-3.0471586-1.7931677-.6024425-1.619275-1.8226672-1.707136-2.9850311-1.9383787-1.0608196-.4917705-2.4520919-.1556083-2.9745499-1.973163-1.2681937,.0311069-2.3210586-.4716351-2.9075027-2.1305698-1.4201526,.3990079-1.6509777-2.1415519-3.0520783-1.7809719-.9433211-.7742449-1.8915805-1.5363016-2.8459728-2.2831013-.7782182-.6296192-1.6432031-1.0352905-2.526661-1.395221Z" fill="#caf0f8"/>
          <path d="M28.7303723,29.2948437c.3196751,1.1859663,.6615001,2.3170236,1.4623365,2.3102023,.4451912,.8748149,.9617593,1.5726881,1.5792375,2.0204075,.637172,.3988989,.603658,2.4604128,1.5337134,2.1332606,.5239514,.6795702,.9789895,1.5299748,1.5078606,2.1973492,.4501184,.8626004,1.3457133,.6208748,1.5349377,2.1302257,.8845237-.2142804,.9494563,1.6031869,1.5066363,2.2003842,.9718915-.4308631,1.2878712,.764264,1.3958793,2.4749482,.3393689,1.1371459,1.473693,.3036161,1.6456946,1.8556616,.5729268,1.2703952,2.700736-1.3225291,2.5968329,1.6257119,1.1371779-.137172,1.0099117,2.8690392,2.5433467,1.7495552,1.5894034-1.2494271,1.5833493,1.4474469,2.4491595,1.991791,.3711066,1.7707028,1.1021881,2.6402346,2.6952869,1.3816467,.9156639,.4119561,1.5895194,1.432205,2.5679526,1.6885575,.814854,.0023838,1.3885152,.602679,1.9738893,1.1651362-.0271348-.1173529-.0438513-.2517846-.0537745-.4118583L29.3173196,29.5280632c-.1952261-.0787527-.3904708-.1575129-.5869473-.2332194Z" fill="#b6ebf2"/>
        </g>
      </g>
    </g>
  </g>
</svg>