<?xml version="1.0" encoding="UTF-8"?>
<svg id="feuerball" xmlns="http://www.w3.org/2000/svg" xmlns:xlink="http://www.w3.org/1999/xlink" viewBox="0 0 50 50">
  <defs>
    <clipPath id="clippath">
      <path d="M50,0V49.7448226H24.0719679c-.126834,.0872015-.2524474,.1711895-.37684,.2551774,.0170601-.0839879,.0329292-.1711895,.0487686-.2551774H0V0H50Z" fill="none"/>
    </clipPath>
  </defs>
  <g clip-path="url(#clippath)">
    <path d="M50,0V49.7448226H24.0719679c-.126834,.0872015-.2524474,.1711895-.37684,.2551774,.0170601-.0839879,.0329292-.1711895,.0487686-.2551774H0V0H50Z" fill="#03071e"/>
    <path d="M3.5975087,8.1947316c-.4383874,.4148196-2.3978776-1.3301423-2.5658456-1.1100669-.2106765,.275724,3.0163173,2.8655745,2.455313,4.1036629-.3744869,.8264475-2.1975209,.5224679-2.3300152,1.0829343-.1270409,.5362105,1.5126359,.9471468,2.9322175,2.2190136,2.0319199,1.820014,2.9766061,4.8310274,2.3980459,5.4095067-.7604323,.760216-4.3512049-2.4869505-4.7040502-2.0351227-.4018746,.5142556,4.2730526,4.6429625,3.3998765,6.2231077-.4755524,.8606545-2.2769692,.3892463-2.4032896,.8611449-.1208575,.4514407,1.5146666,.9347178,3.7377563,2.0390639,1.5433737,.7665626,3.3715924,1.8331392,5.0936354,3.3955283,.7564453,.6884352,1.4933101,1.472934,2.1767399,2.3692938,.2320329,.2068339,.4626736,.4130656,.6911193,.6164449,.9654291,.8586822,1.9048858,1.6795128,2.8156261,2.46511,.7059569,.6095565,1.3946229,1.1964337,2.0674984,1.7612691,.5196785,.4377277,1.028586,.8612935,1.5295066,1.2719017,.1295537,.1073651,.2583697,.2125199,.3857589,.3170574-.0019297-.0502597-.0017782-.1015102-.002281-.1511526l25.8280782,11.1740533c.9538845-.9844764,1.575777-2.441421,1.9340012-4.1417073,.0276978-.1305834,.0525767-.2623864,.0760287-.3948067,.0530561-.2868914,.0982443-.5790894,.1369875-.875967,.0399655-.3153645,.0741835-.637021,.0984483-.9629837,.0426402-.5366076,.0659578-1.0872831,.0686058-1.6449981,.0055584-.6229822-.0131355-1.2564684-.0538457-1.8899658-.0035653-.0699715-.0092509-.1389576-.0142389-.2095563-.0227015-.3348653-.0531917-.6712091-.0878876-1.0055669-.2050783-1.9667986-.6027021-3.8914454-1.1251044-5.535506-.1789855-.5602671-.3739909-1.091336-.5893327-1.5988912-.0196611-.0484288-.0407533-.0974651-.0611078-.1442911-.0247595-.0601366-.0516045-.1192727-.0791776-.1768212-.9474572-2.1245022-2.2504219-3.8458389-4.0608363-5.6536618-1.5795543-1.5748812-3.5471743-3.2150085-6.0027034-5.241099-.183216-.1514996-.367863-.3036068-.556093-.4591784-1.829994-1.5083513-9.6811375-7.7848526-16.2743661-9.3218736-.7930231-.1853221-2.6031829-.5426472-4.911868-1.5547658-3.1226628-1.3680769-5.0683952-3.0196419-5.2089673-2.8238315-.2083918,.29002,4.1383053,3.9060492,3.9460536,4.1783395-.2069206,.2944504-6.1929075-2.6070154-11.1466768-7.483648-.3856927-.3797612-1.6569538-1.6501922-1.9303869-1.4054126-.5082158,.4549414,3.0112136,5.6937869,2.3367769,6.3334423Z" fill="#370617"/>
    <path d="M8.3895977,18.6318381c2.2700884,4.0976655,2.4472281,7.9361458,2.727161,9.7338365,.1072569,.6870032,.2732277,1.3594809,.4943941,2.0178298,.7171952,2.1560442,1.9983364,4.1663783,3.5957337,6.0246115,2.1814533,1.8429316,4.3629067,3.6858631,6.54436,5.5287947-.5824319-1.8854294-.8043707-2.8552802-.6659127-2.909797,.037538-.0147804,.1015627,.0377203,.1920667,.157469-.0019274-.0502622-.0017753-.1015132-.0022809-.1511531l27.7538894,12.0072215-.2188992,.5059695c.0941058-.1588792,.1832262-.3218123,.2673776-.4849968l.0940705,.0406954,2.0359212-4.7058961c.1327851,.1467828,.2599784,.2987581,.3779684,.4562521-.0520984-.3019656-.1114059-.610855-.1763863-.9221945-.0044851-.0209587-.0089394-.0418896-.013426-.062843-.0141618-.0650574-.0276305-.1317137-.0425328-.1989766-.1259481-.5772342-.2740419-1.1697551-.4414619-1.7763332-.0604654-.2162512-.12306-.4353201-.1885057-.6556272-.1427263-.483736-.2975637-.9746196-.4652421-1.4710654-.2401751-.7121967-.5039214-1.4364784-.7918118-2.167409-.0663688-.1712825-.1341663-.3431805-.2047843-.5162956-.3722378-.9232974-.7821919-1.8572085-1.228351-2.7934807-.6661022-1.4096967-1.4088617-2.8259466-2.2188343-4.2199529-.6899828-1.186231-1.4281119-2.3590635-2.2098622-3.4975358-.843694-1.2299258-1.7381418-2.424764-2.6773435-3.5591275-.9758593-1.1787474-1.9979009-2.2938209-3.0608542-3.3220553-.4823763-.4653156-1.0032053-.9434531-1.5409956-1.4175317-3.1917742-2.8160313-7.0189328-5.5362872-7.2556587-5.2395076-.1897706,.2391482,1.9851971,2.3700676,1.6613018,2.8097031-.2238803,.3023262-1.4722265-.4069276-3.8487708-1.6650976-6.1321837-3.244152-6.4348179-3.0766513-6.4878884-2.9969568-.0873021,.1314119,.1287639,.5746461,1.6532958,2.0458893-.595082-.1852211-1.5242272-.4940534-2.6351158-.94995-2.6094223-1.0718951-3.7238691-1.9342195-4.0605891-1.5666516-.5591042,.607805,1.7959395,3.7423547,1.4614856,4.0538799-.2150132,.199707-1.4337214-.8635926-5.1556995-4.5115861-2.135537-2.0929499-2.9546431-2.937751-3.2213133-2.7242614-.6395662,.5121628,2.8802444,6.332854,1.9904112,7.1340389-.7478552,.6725118-4.0182107-2.7363729-4.4229584-2.2936907-.2896786,.3175703,1.2506482,2.2138461,2.3860411,4.2637819Z" fill="#6a040f"/>
    <path d="M15.8020414,21.8386967c-.0465845,.4284524-.1795565,1.553269-.8312719,1.9214283-.9719533,.5489459-2.1840682-1.1045806-2.7043914-.7898282-.5590856,.3378875-.2463561,2.896811,2.2126327,10.3989475,.1246345,.3808777,.2550335,.7756453,.3919901,1.1827611,.1168611,.315429,.2720581,.6686506,.4800538,1.0406972,.3305126,.591192,.6966829,1.0552041,1.0164778,1.4029113,6.5731994,6.6693488,18.1724375,16.1672026,30.9560103,14.3537996,.5646922-.0801032,1.1333011-.182506,1.7054663-.3087624l-.2188992,.5059695c.0941058-.1588792,.1832262-.3218123,.2673776-.4849968,.4005999-.7695337,.7079861-1.5660821,.9435049-2.3138783,.3707414-1.1816315,.5660754-2.2433635,.6686615-2.8832931,.0226446-.1384805,.0405541-.2580878,.0551645-.3544122,.0006086-.0092378,.0033371-.0194607,.0039505-.0287074,.0809229-.5390508,.1342538-1.0691445,.1628717-1.5890048,.0145442-.2370265,.0234183-.4726929,.0273643-.7047989,.0014242-.2027831,.0021489-.40396-.00279-.6037839-.0177624-1.0189614-.1252183-1.9987797-.2988732-2.9312077l-.0022349-.0066746c-.5812506-3.1313013-1.9028492-5.7522273-3.0882467-7.6983288-.0505319-.0826929-.0996383-.1647667-.1487016-.2430202-.1580508-.2565596-.3145809-.5010636-.46528-.7316376-.2711384-.4176438-.52697-.7925521-.7510821-1.1233131-.4669773-.6886565-1.465627-2.2137146-2.8360561-3.8768053-1.5846113-1.9230287-3.6678044-4.031346-6.0027049-5.241097-.3331368-.1726328-.6738889-.3276637-1.0179793-.4594139-1.0878453-.4231177-2.2202458-.6298004-3.3748767-.51914-.9320651,.0890804-2.3553179,.429486-4.4682184,.1578769-3.1345464-.4018678-5.4470468-1.8471304-5.5513286-1.6413285-.1056636,.208997,2.3900722,1.3989888,2.2103524,1.9200195-.1934868,.5606828-3.5262195,.5426107-6.5280224-.9366532-3.2164825-1.5854466-5.1032429-4.3824413-5.294247-4.1913457-.2169708,.2159771,2.8744974,3.1425792,2.483326,6.7770208Z" fill="#9d0208"/>
    <path d="M39.8076547,47.0511958l9.2213555,3.9894536-.2188995,.5059716c.0941035-.1588784,.1832277-.3218137,.267378-.4849982l.0940685,.040697,2.0359223-4.7058984c-.0366591-.0443778-.0746701-.085535-.1141471-.1273149-.0825379-.0908416-.1678937-.1790853-.2560589-.2647505-.0487674-.0477135-.0974999-.0954119-.1476193-.1399049-.1547979-.1468044-.3137477-.2840119-.4761645-.4132056-.1774284-.1413848-.3590088-.2731726-.5440909-.3969617-.1379061-.0919744-.27712-.1769152-.4191823-.2592829-.137044-.0783054-.2761683-.1518026-.4173727-.2204916-.3637505-.1801798-.7370411-.3264669-1.1150072-.4424651-2.1181959-.6388776-4.4109101-.2640424-6.214348,1.1037303-.4096725,.3093886-.7947047,.671263-1.1458429,1.0839066-.1997592,.2348278-.3830895,.478666-.5499908,.7315146Z" fill="#d00000"/>
    <path d="M16.4202504,26.6682782c-.4960193,.6297975-.1880295,4.4577158,.4745568,7.5832989,.4268702,2.0136523,1.4894334,3.8357826,2.9956521,5.2387506,6.8435024,6.3743829,17.1960636,13.6471337,28.041378,11.7393509,.4577818-.080529,.9170218-.1775147,1.3775068-.2918197-1.4371897-.5470828-2.8743761-1.0941693-4.3115658-1.6412521,2.1517011-2.4617318,5.9702839-4.0122457,6.1417224-7.8092213-.2377366-6.9322486-4.6486282-12.3350846-10.2117263-16.4760979-4.4679302-2.6517361-7.0908645-.1577482-12.7681929-2.008047-.9974951-.3348241-4.2509053-1.5180521-4.3416542-1.3082946,.339079,.1894712,1.9595739,1.4806738,.8702007,2.4315462-1.2562772,1.0112032-5.8632522-4.5574857-6.7026191-3.8143098-.3915604,.3457343,.5215822,1.6342076,.6834799,4.2875545,.1311634,2.1572233-.2785684,4.4929229-.8032586,4.594786-.5898002,.1155105-1.112324-2.6235291-1.4454796-2.5262446Z" fill="#dc2f02"/>
    <path d="M20.7726947,35.7746469c-.2992419,.2183911-1.0426463-.8483718-1.4254693-.6167046-.4287201,.1644253,1.5444173,3.7095821,1.5444173,3.7095821,3.2751533,4.0400306,19.1537576,16.9287343,28.1373665,12.1731265l-.2188992,.5059695c.0941058-.1588792,.1832262-.3218123,.2673776-.4849968l.0940705,.0406954,2.0359212-4.7058961c.1327851,.1467828,.2599784,.2987581,.3779684,.4562521-.0520984-.3019656-.1114059-.610855-.1763863-.9221945l.3006455-.6949217c.0790206,.228082,.158052,.4599617,.2357298,.6950619-.0401938-.3177318-.0818089-.6322777-.1290509-.9416431l.982283-2.2704857c-1.3396369-6.5056838-5.6477928-14.0782715-12.5303456-15.2375875-7.8630329,1.3536789-10.5209556,1.2874242-16.9072094-1.99257-.3138081,.5303818,9.1901615,5.8966803,8.3692035,7.9898499-.489976,1.245996-4.6926445,1.4902576-7.861607-.1658725-2.7573388-1.4419285-4.0901742-3.9859778-4.5082388-3.6612031-.5961131,.4625322,2.0431173,5.6627426,1.4122234,6.1235381Z" fill="#e85d04"/>
    <path d="M30.282565,40.7557252c.5714653,1.3820585,1.4365216,2.414017,2.3107708,3.1743274,1.2139062,1.3501725,3.1969637,3.2180416,6.0821741,4.7127067,4.2884656,2.2216106,8.2862536,2.4356068,10.3534992,2.3978917-.0729658,.1686571-.1459334,.3373125-.2188992,.5059695,.0941058-.1588792,.1832262-.3218123,.2673776-.4849968l.0940705,.0406954,2.0359212-4.7058961c.1327851,.1467828,.2599784,.2987581,.3779684,.4562521-.0520984-.3019656-.1114059-.610855-.1763863-.9221945l.3006455-.6949217c.0790206,.228082,.158052,.4599617,.2357298,.6950619-.0401938-.3177318-.0818089-.6322777-.1290509-.9416431-.0137999-.0972189-.0289943-.1950291-.0434901-.2906386-.1818121-1.1678732-.4032467-2.2597356-.6331685-3.2107962-.1676398-.6960241-.3394653-1.3159131-.5023853-1.8350055l-.0022349-.0066746c-.3404833-1.0787315-.6473037-1.7190152-.8059711-1.6926152-.1827261,.0311984-.2425306,.9595767-.3630547,1.6449788-.0334683,.1908178-.069998,.3612942-.1168955,.4892726-.0144601,.0450718-.0317772,.0850989-.0512664,.1184949-.0368734,.0695747-.0811402,.1131591-.1293273,.118925-.1289544,.0164456-.223638-.2184106-.3230062-.6263657-.1779681-.7347052-.3738437-2.0265047-.8126399-3.4101032-.0726655-.2310286-.1538567-.4657471-.2421726-.6997505-.5225078-1.385592-1.2430256-2.5717234-1.9766617-3.5202024-1.394633-1.8028206-2.8369756-2.7442785-3.0513403-2.5499854-.3162744,.2851707,1.7171772,3.2672858,1.3537466,3.5909736-.4344042,.3861344-3.7859891-3.4608845-4.0450659-3.2023043-.193087,.1920943,1.8625029,2.1059904,1.3462004,3.2094315-.5982566,1.2732925-4.5659607,1.3264562-7.1858455-.5426296-1.039403-.7424132-1.488134-1.5163148-1.5928543-1.4228575-.2108591,.1901031,1.0332361,3.8781049,3.8656044,4.8297484,1.7657705,.5928594,2.9329772-.1453558,3.5665486,.7332249,.7904601,1.0909268,.092633,3.7601097-1.3882026,4.9024833-2.0860913,1.6104659-5.5668381,.0608566-7.2853145-1.9086705-1.0226195-1.1723677-1.4454336-2.5224349-1.6840356-2.40515-.2632628,.1313139-.0520181,1.9430019,.5690123,3.4529636Z" fill="#faa307"/>
    <path d="M42.9903226,39.8589274c.0024674,.0999172,.0300371,1.9176854-1.1309011,3.1186118-1.417818,1.4661751-3.6103448,.9795315-3.6677529,1.3234671-.0500779,.2995847,1.6183356,.5385732,3.3118199,.9347684,1.6948669,.3929994,3.415538,.9454256,3.4727499,1.8692921,.0324911,.5272979-.4806275,1.1226846-1.2257468,1.6519265l5.2785187,2.2836561-.2188995,.5059716c.0941035-.1588784,.1832277-.3218137,.267378-.4849982l.0940685,.040697,2.0359223-4.7058984c.1327859,.1467834,.2599792,.2987583,.3779675,.456253-.0520984-.3019639-.111406-.6108523-.1763862-.9221948l.3006449-.6949206c-.0256174-.0738153-.0497773-.1469885-.0746612-.2185838-.0263508-.0760354-.0512442-.1514287-.077595-.2274641-.1983177-.5781329-.4068583-1.1131548-.6184442-1.6019837-.0363483-.0841545-.0733901-.1667063-.1090355-.2486656-.192538-.4311517-.3853478-.8225214-.5720759-1.1732284-.3314847-.622426-.6403478-1.1172228-.8944691-1.4685799-.0216169-.0321619-.0439273-.062721-.0655041-.09106-.1964892-.2655939-.3543853-.43656-.4523341-.5074421-.0443276-.0343879-.0763771-.0463508-.0947176-.0352812-.1276329,.0759434,.4610764,1.2772865,.6664015,2.5237491,.0932919,.5745093,.1072024,1.1565011-.0686058,1.6449981-.0571643,.1634547-.1364692,.3154394-.2400318,.4531125-.0237685,.0315425-.1280688,.1670052-.2757892,.2893796-.1463379,.1191787-.334669,.2258863-.5299622,.2079226-.2613481-.0256227-.4377315-.2673078-.5850451-.6503877-.2327269-.6082297-.3897147-1.5752625-.6878131-2.5995504-.1479538-.5107129-.8629531-2.8634958-2.2116629-4.4164491-1.8241414-2.1007856-4.6376728-2.5405539-4.8891237-2.0923701-.2883329,.5139525,2.9749566,1.8972381,3.0610858,4.8352526Z" fill="#ffba08"/>
    <path d="M45.8689659,47.3924512c.0367448,.3922685-.008555,.7395397-.0996387,1.0555986-.1018861,.3646157-.2644887,.6896559-.4265623,.997812l3.6862453,1.5947877-.2188995,.5059716c.0941035-.1588784,.1832277-.3218137,.267378-.4849982l.0940685,.040697,2.0359223-4.7058984c.1327859,.1467834,.2599792,.2987583,.3779675,.456253-.0520984-.3019639-.111406-.6108523-.1763862-.9221948l.0152422-.0352313c-.0093389-.0097369-.0186388-.0194686-.0286669-.0276125-.0294046-.0298228-.0609252-.05867-.0924058-.0836943-.1596475-.1355949-.3410138-.2444805-.5544611-.3026101-.0462433-.0142981-.0960243-.0244301-.1464986-.0329593-.1407417-.0228693-.2676646-.0188533-.3887809,.0028736-.4206521,.0765416-.7445424,.3793141-1.1762894,.6145291-.1467511,.0809799-.3049224,.1532136-.4838527,.2069641-.0445582,.0130345-.0884229,.0244663-.1315985,.034305-1.9039499,.4422862-3.7125158-1.862768-3.9289894-1.6009568-.1632385,.1973975,1.2253553,1.0870858,1.3762062,2.6863643Z" fill="#ffd00b"/>
    <path d="M20.8916431,38.8675238c.1295537,.1073651,.2583697,.2125199,.3857589,.3170574-.0019297-.0502597-.0017782-.1015102-.002281-.1511526l-.3834778-.1659048Z" fill="#606060"/>
  </g>
</svg>