<?xml version="1.0" encoding="UTF-8"?>
<svg id="_Шар_2" data-name="Шар 2" xmlns="http://www.w3.org/2000/svg" viewBox="0 0 50 50">
  <g id="fuerwaffe">
    <rect width="50" height="50" fill="#03071e"/>
    <path d="M26.789978,27.9632231c-.4099731,.2199707-.7999878,.4500122-1.1900024,.6699829-.1300049,.0700073-.25,.1400146-.3699951,.2200317l.4400024-.4200439c.1000366-.1799927,.2900391-.3899536,.5800171-.5999756,.0100098,0,.0200195,.0100098,.039978,.0100098,.0900269,.0299683,.2800293,.0700073,.5,.1199951Z" fill="#370617"/>
    <path d="M37.1900024,22.4831815c.0700073,.3100586-2.8200073,1.7300415-4.9899902,2.7700195-.7300415,.3500366-1.3900146,.6600342-1.8099976,.8599854-.9100342,.4300537-1.7700195,.8699951-2.5900269,1.3099976-.75-.7699585,1.2900391-1.6399536,2.25-2.2299805,.0300293-.0200195,.0599976-.0299683,.0800171-.0499878h.0100098c.0499878-.0499878,.1499634-.0900269,.2199707-.1300049,1.5100098-1.0100098,3.6400146-1.960022,.75-1.5599976,.0499878-.0499878,.2200317-.2000122,.4400024-.4000244,.5-.4499512,1.25-1.1199951,1.4000244-1.25,.5499878,.1600342,1.6499634,.1100464,2.0599976-.5199585-.3400269-.0200195-.9700317-.1199951-.75-.6600342,.1199951-.1300049,.289978-.2799683,.4899902-.4400024,.5900269-.0999756,1.1699829-.1599731,1.7000122-.1900024-1.0400391,1.1700439-1.8200073,2.0599976-1.5400391,2.5,.2400513,.3699951,1.0700073,.1700439,1.6600342,.0400391,.3399658-.0800171,.5999756-.1400146,.6199951-.0500488Z" fill="#e85d04"/>
    <path d="M40.039978,14.2532011c-.0499878,.210022-.0999756,.4199829-.1699829,.6300049,.0100098-.1900024,.0599976-.4099731,.1699829-.6300049Z" fill="#e85d04"/>
    <path d="M15.8699951,27.3432279c-.1400146,.3699951-.2399902,.7000122-.2600098,.9599609-.0100098,.0700073-.0100098,.1300049-.0100098,.1799927-.5699463,.6300049-1.5899658,1.7700195-2.5099487,2.7900391-.5700073,.6400146-1.1000366,1.2199707-1.4500122,1.6099854-.0400391-.0499878-.0700073-.0999756-.1099854-.1500244,.6799927-3.539978,2.9599609-8.0099487,3.1599731-8.0099487,.0800171,0-.1900024,.9199829,.2199707,1.9400024,.0400391,.1099854,.0900269,.2299805,.1300049,.3299561,0,.0100098,0,.0200195,.0100098,.0300293,.0700073,.1499634,.1400146,.289978,.2200317,.3900146,0,0,.0100098,0,.0100098,.0099487,.0799561,.1100464,.1799927,.1700439,.289978,.1600342s.2000122-.0900269,.2999878-.2399902Z" fill="#e85d04"/>
    <path d="M22.2399902,20.1432157c-.1400146,.4899902-.2199707,.9199829-.1900024,1.1799927-.1900024,.2000122-.4599609,.5-.6599731,.7299805-.0400391,.0400391-.0700073,.0800171-.1000366,.1100464-.039978-.0700073-.0700073-.0800171-.0799561-.1300049h-.0100098c-.3400269-.6199951,.1300049-1.3400269-.0300293-1.4200439-.3999634,0-.8299561,.5900269-1.0899658,1.2900391-.2399902,.5799561-.3600464,1.2299805-.2600098,1.6799927,.0700073,.2999878-1.4799805,1.8399658-1.9500122,2.3599854-.0599976,.0700073-.0999756,.1199951-.1199951,.1500244-.5900269-.2000122,.2600098-1.5200195,.0800171-1.6199951-.3699951-.0400391-1.1400146,1.0799561-1.6700439,2.1900024,.0300293-.0800171,.0599976-.1600342,.0900269-.2400513v-.0099487c.5999756-1.8200073,1.4400024-5.4700317,4.1099854-8.8200073,1.25-1.5599976,2.5599976-2.6400146,2.6700439-2.5599976,.0899658,.0799561-.9400024,1.0999756-1.2600098,2.5299683-.25,1.1300049-.0500488,2.5300293,.4699707,2.5800171Z" fill="#e85d04"/>
    <path d="M31.8800049,8.7232328c-1.8599854,1.039978-3.5100098,3.2999878-4.8400269,5.6999512-.1900024-3.25-1.4499512,2.1000366-1.6199951,3.1800537-.1199951,.1399536-1.0799561,1.1900024-1.2199707,1.3499756-.4400024,.1099854-.7200317-.1300049-.6799927-.5900269l.0100098-.0099487c.8499756-1.7400513,2.1799927-4.5100098,4.7999878-7.1300049,1.7299805-1.7300415,3.3499756-2.7200317,3.539978-2.5300293,.0100098,.0100098,.0100098,.0200195,.0100098,.0300293Z" fill="#e85d04"/>
    <path d="M42.2399902,16.4032255c.1199951,.2000122-.8399658,1.7799683-2.3900146,3.3999634-1.1300049,1.1799927-2.2599487,2.0599976-3.2799683,2.7300415-2.4400024,1.5899658-4.3099976,2.0199585-4.3699951,2.7199707-.0400391,.5400391,1.0299683,.8800049,1.9400024,.7200317,1.1499634-.1900024,2.0700073-1.1700439,2.1199951-1.0599976,.0499878,.1199951-.9500122,1.3699951-2.3099976,2.5199585-4.0499878,3.3900146-8.1400146,3.1000366-8.3200073,4.0200195-.0499878,.289978,.2999878,.5299683,.6300049,.7600098,.75,.5100098,1.4899902,.3099976,1.4899902,.3999634-.0200195,.25-5.6300049,3.1000366-8.289978,2.5,.6599731-.3699951,.8399658-.5-.1500244-.5899658,0-.0200195,.0100098-.0400391,.0100098-.0599976,.039978-.2399902,.1400146-.4500122,.289978-.6300049,.1000366,.0200195,.210022,.0499878,.3099976,.0700073,.5499878,.1300049,1.1100464,.2600098,1.6199951,.3800049,1.9700317,.4799805,3.2600098-1.4899902,3.2600098-1.4899902,0,0-1.0199585,.6799927-3.0599976-.0700073-.0499878-.0200195-.0899658-.0400391-.1199951-.0599976,.8400269-.3099976,1.7299805-.5700073,2.3200073-.9700317,0-.0100098,.0100098-.0200195,.0100098-.0299683,.0299683-.0200195,.7099609-.710022,.75-.6400146,.0800171-.1799927-1.1699829,.5800171-1.0499878-.4799805,.1399536-.1700439,3.1799927-.8800049,2.9400024-1.5400391-.710022,.1300049-1.0500488-.039978-.9900513-.3699951-.1300049,.0700073-.25,.1400146-.3699951,.2200317l.4400024-.4200439c.1000366-.1799927,.2900391-.3899536,.5800171-.5999756,.0100098,0,.0200195,.0100098,.039978,.0100098,.0900269,.0299683,.2800293,.0700073,.5,.1199951,.6500244,.1400146,1.6300049,.2699585,1.7900391-.0900269-.3800049-.1400146-.6400146-.289978-.7800293-.4500122-.75-.7699585,1.2900391-1.6399536,2.25-2.2299805,.0300293-.0200195,.0599976-.0299683,.0800171-.0499878h.0100098c.0499878-.0499878,.1499634-.0900269,.2199707-.1300049,1.5100098-1.0100098,3.6400146-1.960022,.75-1.5599976,.0499878-.0499878,.2200317-.2000122,.4400024-.4000244,.5-.4499512,1.25-1.1199951,1.4000244-1.25,.5499878,.1600342,1.6499634,.1100464,2.0599976-.5199585-.3400269-.0200195-.9700317-.1199951-.75-.6600342,.1199951-.1300049,.289978-.2799683,.4899902-.4400024,.5900269-.0999756,1.1699829-.1599731,1.7000122-.1900024,.25-.0100098,.4799805-.0199585,.6900024-.0100098,1.5999756,.0400391,2.9099731-1.5899658,3.5899658-2.7999878,.8300171-.2999878,1.4200439-.9299927,1.5100098-.7799683Z" fill="#e85d04"/>
    <path d="M44.460022,12.5531889c-1.6100464,1.5700073-3.3200073,2.3800049-4.5,2.9500122-.0800171-.1699829-.1199951-.3800049-.0900269-.6199951,.0100098-.1900024,.0599976-.4099731,.1699829-.6300049,.1000366-.2299805,.2600098-.4699707,.4900513-.7199707,.8599854-.9400024,1.3099976-1.9000244,1.3599854-2.7300415,.0499878-.6699829-.1700439-1.25-.6199951-1.6699829-.2900391-.2700195-.3200073-.6199951-.210022-.9899902,.2600098-.9199829,1.3699951-1.9299927,1.3699951-1.9299927-1.8999634-.9100342-2.9899902-.1000366-3.7600098,.8300171-.1900024,.2199707-.3499756,.4399414-.5100098,.6499634-.0299683,.039978-.0599976,.0800171-.0799561,.1199951v.0100098c-.3699951,.5-.6700439,.8699951-1.0100098,.8300171-.1900024-.0200195-.25-.1300049-.2200317-.2999878,.0900269-.7700195,2.0700073-2.75,.4900513-1.8000488-.6300049,.3800049-1.2700195,1.1300049-1.8900146,1.9500122-1.0499878,.4799805-1.9899902,1.8400269-2.5,2.7999878-.0100098-.1199951-.0300293-.2599487-.0700073-.4099731,.6500244-1.3200073,1.539978-2.9700317,2.9199829-4.4500122,3.6799927-3.9699707,8.9400024-4.8099976,9.0700073-4.3999634,.0700073,.2399902-1.6500244,.9299927-3.3599854,2.0899658,.25-.0499878,.4899902-.0499878,.7099609-.0200195,.7800293,.1100464,1.2600098,.710022,2.1700439,.5400391,1-.1799927,1.3499756-1.0499878,1.5599976-.9500122,.3999634,.2000122,.0999756,3.8200073-1.5200195,5.8099976,2.4299927-1.3300171,4.2299805-6.0300293,4.5300293-5.8699951,.2999878,.1599731-.9800415,5.4899902-4.5,8.9099731Z" fill="#e85d04"/>
    <path d="M24.7999878,32.7932401s-1.289978,1.9699707-3.2600098,1.4899902c-.5099487-.1199951-1.0700073-.25-1.6199951-.3800049-.0999756-.0200195-.2099609-.0499878-.3099976-.0700073,.2900391-.3800049,.7700195-.6699829,1.3300171-.9000244,.210022-.0999756,.4400024-.1799927,.6799927-.2699585,.0300293,.0199585,.0700073,.039978,.1199951,.0599976,2.0400391,.75,3.0599976,.0700073,3.0599976,.0700073Z" fill="#ffd00b"/>
    <path d="M34.2199707,23.1632353s-1.7099609,1.9499512-4.1699829,2.0299683c.0300293-.0200195,.0599976-.0299683,.0800171-.0499878h.0100098c.0499878-.0499878,.1499634-.0900269,.2199707-.1300049,1.5100098-1.0100098,3.6400146-1.960022,.75-1.5599976,.0499878-.0499878,.2200317-.2000122,.4400024-.4000244,1.2600098,.4500122,2.6699829,.1100464,2.6699829,.1100464Z" fill="#faa307"/>
    <path d="M15.6099854,28.3031889c-.0100098,.0700073-.0100098,.1300049-.0100098,.1799927-.5699463,.6300049-1.5899658,1.7700195-2.5099487,2.7900391-.4100342-.5-.6000366-1.0900269-.3600464-1.7999878,.8800049-2.5800171,1.6900024-1.8300171,1.8900146-3.0500488,0,0,.1900024,.2300415,.4199829,.5700073,0,.0100098,0,.0200195,.0100098,.0300293,.0800171,.1199951,.1500244,.25,.2200317,.3900146,0,0,.0100098,0,.0100098,.0099487,.1399536,.2800293,.2799683,.5800171,.3299561,.8800049Z" fill="#faa307"/>
    <path d="M19.8200073,23.5832182c.0700073,.2999878-1.4799805,1.8399658-1.9500122,2.3599854-.0200195-2.1699829,.2600098-5.2799683,1.8300171-6.8999634-.0700073,.2199707-.9700317,2.8399658,.0100098,2.8399658,.0899658,0,.1999512,0,.3200073,.0100098,.0199585,0,.0299683,0,.0499878,.0100098-.2399902,.5799561-.3600464,1.2299805-.2600098,1.6799927Z" fill="#faa307"/>
    <path d="M21.3900146,22.0531889c-.0400391,.0400391-.0700073,.0800171-.1000366,.1100464-.039978-.0700073-.0700073-.0800171-.0799561-.1300049,.0599976,0,.1199951,.0100098,.1799927,.0199585Z" fill="#faa307"/>
    <path d="M41.0599976,8.1432157c-.1099854,.3699951-.0800171,.7199707,.210022,.9899902,.4499512,.4199829,.6699829,1,.6199951,1.6699829-.0499878,.8300171-.5,1.7900391-1.3599854,2.7300415-.2300415,.25-.3900146,.4899902-.4900513,.7199707-.1099854,.2200317-.1599731,.4400024-.1699829,.6300049-.0299683,.2399902,.0100098,.4500122,.0900269,.6199951,.2299805,.5900269,.8499756,.8400269,1.1799927,.4799805,.25-.2799683,.0799561,.3600464-.4100342,1.2000122-.6799927,1.210022-1.9899902,2.8400269-3.5899658,2.7999878-.210022-.0099487-.4400024,0-.6900024,.0100098-.5300293,.0300293-1.1099854,.0900269-1.7000122,.1900024,.5100098-.4400024,1.1599731-.9400024,1.3099976-1.3999634,.3900146-.1700439,.7800293-.2800293,1.0999756-.4800415-.1900024,0-.3899536-.0700073-.4699707-.1999512l.3300171-.9100342c-.1100464-.0299683-.210022-.0999756-.25-.1900024,.2099609-1.6400146,2.0999756-1.3900146,2.8599854-2.3099976-.5200195,.2800293-1.3900146-.4799805-1.039978-.9400024-.3700562-.6699829,.6799927-.789978,1.4899902-1.1699829,.4299927-.2000122,.789978-.4700317,.8599854-.9299927-.3900146,.2600098-.7299805,.3800049-1.0100098,.3800049-.5700073,0-.8599854-.4700317-.6199951-1.1900024,.0499878-.1900024,.1400146-.3900146,.2700195-.6000366-.0499878,.0900269-.1199951,.1900024-.1799927,.3099976,.0099487-.0599976,.0999756-.289978,.1199951-.3399658-.0200195,.039978-.0500488,.0800171-.0800171,.1300049,.0299683-.0800171,.0700073-.1600342,.1099854-.2600098,.0400391-.0900269,.0800171-.1900024,.1199951-.2999878,.0100098-.0200195,.0200195-.0500488,.0200195-.0700073,.1199951-.2999878,.25-.6300049,.3300171-.8599854l-.0800171,.039978c.039978-.0300293,.0700073-.0599976,.0999756-.0900269,.0300293-.039978,.0599976-.0799561,.0700073-.1099854l-.289978,.1099854c-1.2200317,.3500366-3.1099854,1.1600342-4.289978,1.210022-.2000122-.2999878,1.0899658-1.1400146,1.039978-1.6599731-.3800049-.0900269-.75-.0200195-1.1199951,.1499634,.6199951-.8200073,1.2600098-1.5700073,1.8900146-1.9500122,1.5799561-.9499512-.4000244,1.0300293-.4900513,1.8000488-.0299683,.1699829,.0300293,.2799683,.2200317,.2999878,.3399658,.039978,.6400146-.3300171,1.0100098-.8300171v-.0100098c.0199585-.039978,.0499878-.0800171,.0799561-.1199951,.1600342-.210022,.3200073-.4299927,.5100098-.6499634,.7700195-.9300537,1.8600464-1.7400513,3.7600098-.8300171,0,0-1.1099854,1.0100098-1.3699951,1.9299927Z" fill="#faa307"/>
    <line x1="30.6372229" y1="18.6476472" x2="17.3358785" y2="32.3301514" fill="none" stroke="#fff" stroke-miterlimit="10" stroke-width=".4641937"/>
    <path d="M17.210022,36.4732328l-.5900269,.5599976c-.0200195-.0800171,.1300049-.2399902,.5900269-.5599976Z" fill="#ffd00b"/>
    <path d="M26.289978,27.8432279l-.6199951,.5899658c.1000366-.1799927,.2900391-.3899536,.5800171-.5999756,.0100098,0,.0200195,.0100098,.039978,.0100098Z" fill="#ffd00b"/>
    <path d="M25.6699829,28.4331938c-.039978,.0700073-.0599976,.1400146-.0700073,.2000122-.1300049,.0700073-.25,.1400146-.3699951,.2200317l.4400024-.4200439Z" fill="#ffd00b"/>
    <path d="M40.9400024,11.6532255c-.0700073,.4599609-.4299927,.7299805-.8599854,.9299927-.8099976,.3800049-1.8600464,.5-1.4899902,1.1699829-.3500366,.460022,.5199585,1.2200317,1.039978,.9400024-.7600098,.9199829-2.6500244,.6699829-2.8599854,2.3099976,.039978,.0900269,.1399536,.1600342,.25,.1900024l-.3300171,.9100342c.0800171,.1299438,.2799683,.1999512,.4699707,.1999512-.3199463,.2000122-.7099609,.3099976-1.0999756,.4800415-.1500244,.4599609-.7999878,.9599609-1.3099976,1.3999634-.2000122,.1600342-.3699951,.3099976-.4899902,.4400024-.2200317,.5400391,.4099731,.6400146,.75,.6600342-.4100342,.6300049-1.5100098,.6799927-2.0599976,.5199585-.1500244,.1300049-.9000244,.8000488-1.4000244,1.25-.2199707,.2000122-.3900146,.3500366-.4400024,.4000244,2.8900146-.4000244,.7600098,.5499878-.75,1.5599976-.0700073,.039978-.1699829,.0800171-.2199707,.1300049h-.0100098c-.0200195,.0200195-.0499878,.0299683-.0800171,.0499878-.9599609,.5900269-3,1.460022-2.25,2.2299805,.1400146,.1600342,.4000244,.3099976,.7800293,.4500122-.1600342,.3599854-1.1400146,.2300415-1.7900391,.0900269-.2199707-.0499878-.4099731-.0900269-.5-.1199951-.0199585,0-.0299683-.0100098-.039978-.0100098-.289978,.210022-.4799805,.4199829-.5800171,.5999756l-.4400024,.4200439c.1199951-.0800171,.2399902-.1500244,.3699951-.2200317-.0599976,.3300171,.2800293,.5,.9900513,.3699951,.2399902,.6600342-2.8000488,1.3699951-2.9400024,1.5400391-.1199951,1.0599976,1.1300049,.2999878,1.0499878,.4799805-.0400391-.0700073-.7200317,.6199951-.75,.6400146,0,.0099487-.0100098,.0199585-.0100098,.0299683-.5900269,.4000244-1.4799805,.6600342-2.3200073,.9700317-.2399902,.0899658-.4699707,.1699829-.6799927,.2699585-.5599976,.2300415-1.039978,.5200195-1.3300171,.9000244-.1499634,.1799927-.25,.3900146-.289978,.6300049,0,.0199585-.0100098,.039978-.0100098,.0599976,.9899902,.0899658,.8099976,.2199707,.1500244,.5899658-.4299927,.2200317-1.0599976,.5400391-1.7000122,1-.2200317,.1400146-.4000244,.2600098-.5499878,.3600464-.460022,.3200073-.6100464,.4799805-.5900269,.5599976,.0499878,.25,1.710022-.3000488,.25,.7399902,.7999878,.7000122,1.7600098,.5499878,1.8800049,1.8599854,.0499878,1.1600342-1.5,1.8699951-2.3200073,1-1.3099976-.3200073-2.3999634-.710022-3.9099731-1.7299805-1.2300415,1.2399902-2.7399902,2.75-3.9800415,3.9899902v.0100098c-.2099609,.2000122-1.0499878,1.0499878-1.2799683,1.2699585,.6300049,2.8900146-3.3200073,4.960022-5.3400269,2.7700195-.0100098,0-.0100098-.0100098-.0100098-.0200195l.7000122-.6999512c1.9200439,2.0599976,5.1099854-1.1100464,3.0700073-3.0400391l-.0200195-.0100098c1.3800049-1.3799438,2.7600098-2.7599487,4.1500244-4.1499634,.7600098-.7600098,1.5200195-1.5300293,2.289978-2.2900391,.0200195-.0199585,.0300293-.039978,.0500488-.0499878,.5799561-.5899658,1.1699829-1.1699829,1.75-1.75l4.1499634-4.1499634,4.7999878-4.8000488c2.2000122-2.1999512,4.3900146-4.3899536,6.5800171-6.5699463,.7299805-.7300415,1.4500122-1.460022,2.1699829-2.1700439,2.4100342-2.4099731,4.8000488-4.8099976,7.1700439-7.1799927l.25-.25c.0199585-.0299683,.0499878-.0499878,.0700073-.0700073v-.0100098c-.0700073-.0499878-.1300049-.1099854-.1900024-.1699829,.5799561-.3300171,.9299927-.5599976,.9299927-.6099854,.0299683-.0100098,.0700073-.039978,.1099854-.0599976l.0800171-.039978c-.0800171,.2299805-.210022,.5599976-.3300171,.8599854,0,.0199585-.0100098,.0499878-.0200195,.0700073l-.1300049,.289978-.289978,.6799927c.0200195,.0300293,.039978,.0599976,.0599976,.0900269-.2399902,.7199707,.0499878,1.1900024,.6199951,1.1900024,.2800293,0,.6199951-.1199951,1.0100098-.3800049Z" fill="#ffba08"/>
    <path d="M12.0999756,36.7331815c-.7699585,.7600098-1.5299683,1.5300293-2.289978,2.2900391l.4199829-.4299927,1.8699951-1.8600464Z" fill="#ffba08"/>
    <path d="M13.9000244,34.9331938c-.5800171,.5800171-1.1700439,1.1600342-1.75,1.75l.0299683-.039978,1.4100342-1.4100342,.3099976-.2999878Z" fill="#ffba08"/>
    <polygon points="18.0499878 30.7832304 15.289978 33.5432401 15.8900146 32.9331938 16.5200195 32.3031889 18.0499878 30.7832304" fill="#ffba08"/>
    <path d="M19.9199829,33.9032255l-.5999756,.5599976c.039978-.2399902,.1400146-.4500122,.289978-.6300049,.1000366,.0200195,.210022,.0499878,.3099976,.0700073Z" fill="#ffba08"/>
    <path d="M40.1099854,8.6932035c-.0100098,.0300293-.039978,.0700073-.0700073,.1099854-.0299683,.0300293-.0599976,.0599976-.0999756,.0900269-.039978,.0200195-.0800171,.0499878-.1099854,.0599976,0,.0499878-.3500366,.2799683-.9299927,.6099854,.0599976,.0599976,.1199951,.1199951,.1900024,.1699829v.0100098c-.0200195,.0200195-.0500488,.0400391-.0700073,.0700073-.0800171,.0700073-.1900024,.1799927-.25,.2399902v.0100098c-2.3699951,2.3699951-4.7600098,4.7700195-7.1700439,7.1799927-.7199707,.710022-1.4400024,1.4400024-2.1699829,2.1700439-2.1900024,2.1799927-4.3800049,4.3699951-6.5800171,6.5699463l-4.7999878,4.8000488-1.5299683,1.5199585-.6300049,.6300049-.6000366,.6100464-1.3899536,1.3899536-.3099976,.2999878-1.4100342,1.4100342-.0299683,.039978c-.0200195,.0100098-.0300293,.0300293-.0500488,.0499878l-1.8699951,1.8600464-.4199829,.4299927c-1.3900146,1.3900146-2.7700195,2.7700195-4.1500244,4.1499634-1.9400024-1.9899902-5.039978,1.1200562-3.0499878,3.0500488l-.7000122,.6999512c-2.1900024-2.0599976-.0999756-5.9199829,2.7800293-5.3199463l.3300171-.3200073v-.0100098h.0100098c1.5699463-1.5800171,3.3099976-3.3099976,4.8899536-4.8800049-1.2000122-1.9799805-2.3200073-3.8099976-2.2000122-5.6900024,1.5700073-2.3099976,2.7600098,.5599976,3.8100586,2.0299683,.039978,.0500488,.0699463,.1000366,.1099854,.1500244,.3499756-.3900146,.8800049-.9699707,1.4500122-1.6099854,.9199829-1.0200195,1.9400024-2.1600342,2.5099487-2.7900391,0-.0499878,0-.1099854,.0100098-.1799927,.0200195-.2599487,.1199951-.5899658,.2600098-.9599609,0-.0100098,.0100098-.0100098,.0100098-.0200195,.0899658-.1500244,.1799927-.3599854,.2600098-.6099854,0-.0100098,.0100098-.0300293,.0199585-.0499878,.5300293-1.1100464,1.3000488-2.2300415,1.6700439-2.1900024,.1799927,.0999756-.6700439,1.4199829-.0800171,1.6199951,.0200195-.0300293,.0599976-.0800171,.1199951-.1500244,.4700317-.5200195,2.0200195-2.0599976,1.9500122-2.3599854-.1000366-.4500122,.0200195-1.1000366,.2600098-1.6799927,.2600098-.7000122,.6900024-1.2900391,1.0899658-1.2900391,.1600342,.0800171-.3099976,.8000488,.0300293,1.4200439h.0100098c.0099487,.0499878,.039978,.0599976,.0799561,.1300049,.0300293-.0300293,.0599976-.0700073,.1000366-.1100464,.2000122-.2299805,.4699707-.5299683,.6599731-.7299805-.0299683-.2600098,.0499878-.6900024,.1900024-1.1799927,.5499878-1.8900146,2.0100098-4.6500244,1.2900391-1.789978l-.0100098,.0099487c-.0400391,.460022,.2399902,.7000122,.6799927,.5900269,.1400146-.1599731,1.0999756-1.210022,1.2199707-1.3499756,.1700439-1.0800171,1.4299927-6.4300537,1.6199951-3.1800537,1.3300171-2.3999634,2.9800415-4.6599731,4.8400269-5.6999512,.2999878-.1700439,.6099854-.3099976,.9199829-.4100342,0,0-.4400024,1.2600098-.2699585,1.6300049,.1699829,.3699951,.2799683,.6900024,.3499756,.9500122,.039978,.1500244,.0599976,.289978,.0700073,.4099731,.5100098-.9599609,1.4500122-2.3200073,2.5-2.7999878,.3699951-.1699829,.7399902-.2399902,1.1199951-.1499634,.0499878,.5199585-1.2399902,1.3599854-1.039978,1.6599731,1.1799927-.0499878,3.0699463-.8599854,4.289978-1.210022l.289978-.1099854Z" fill="#ffd00b"/>
    <path d="M12.0999756,36.7331815c-.7699585,.7600098-1.5299683,1.5300293-2.289978,2.2900391l.4199829-.4299927,1.8699951-1.8600464Z" fill="#ffd00b"/>
    <path d="M13.9000244,34.9331938c-.5800171,.5800171-1.1700439,1.1600342-1.75,1.75l.0299683-.039978,1.4100342-1.4100342,.3099976-.2999878Z" fill="#ffd00b"/>
    <path d="M16.1400146,26.7132231c-.0800171,.25-.1700439,.4599609-.2600098,.6099854,.0700073-.2000122,.1599731-.4000244,.2600098-.6099854Z" fill="#ffd00b"/>
    <polygon points="18.0499878 30.7832304 15.289978 33.5432401 15.8900146 32.9331938 16.5200195 32.3031889 18.0499878 30.7832304" fill="#ffd00b"/>
  </g>
</svg>