<?xml version="1.0" encoding="UTF-8"?>
<svg id="_Шар_2" data-name="Шар 2" xmlns="http://www.w3.org/2000/svg" xmlns:xlink="http://www.w3.org/1999/xlink" viewBox="0 0 50 50">
  <defs>
    <clipPath id="clippath">
      <rect width="50" height="50" fill="none"/>
    </clipPath>
  </defs>
  <g id="_6334a0f80d41f4cf23939af2" data-name="6334a0f80d41f4cf23939af2">
    <g clip-path="url(#clippath)">
      <rect width="50" height="50" fill="#0c162a"/>
      <path d="M33.5948126,.0008892c7.6487471,.7185089,10.8641449,8.7570036,17.2949407,11.9724014C41.2435596,3.934796,29.9896671-.8883008,17.1280757,3.934796,5.8741831,10.3655918-2.1643115,20.0117853,1.0510863,32.8733768c6.4307957,16.0769893,27.3308818,20.9000861,40.1924733,11.2538925,8.0384947-6.4307957,9.6461936-17.6846882,4.8230968-27.3308818,3.2153979,9.6461936,1.6076989,22.507785-9.6461936,27.3308818-6.4307957,1.6076989-12.8615914,4.8230968-20.9000861,1.6076989C4.2664842,40.9118714-2.1643115,28.05028,4.2664842,16.7963875,12.3049789,2.3270971,31.597366,.7193982,44.4589575,10.3655918c8.0384947,8.0384947,12.8615914,22.507785,3.2153979,32.1539786C31.597366,58.5965597,2.6587853,52.165764-2.1643115,31.2656779-8.5951072,7.1501939,21.9511724-7.3190965,41.2435596,2.3270971c-1.6076989,0-3.2153979-1.6076989-4.3156292-1.7675169C34.5365713-.041065,33.5397604-.1312686,33.5948126,.0008892Z" fill="#ffd000"/>
      <g>
        <path d="M14.3952221,20.8415884c-6.8018947,18.8718067-4.8576977,21.2700913-4.0918385,21.9667117,2.3642337,2.1504971,7.8172634,1.1080836,10.767996-1.7228794,2.8016999-2.6879768,2.9484684-6.6055845,3.0150389-9.4758364,.4699398-20.2619061,.6821976-30.3966119-.4307198-30.5811085-1.9998181-.3315181-4.521487,6.6648269-9.2604765,19.8131126Z" fill="#fff3c0"/>
        <path d="M18.9177804,39.3625414c3.0927625,.4760947,4.3088316-.257383,4.7379182,.4307198,.9867694,1.5824169-3.623913,8.3811209-8.1836769,8.1836769-6.3058663-.2730644-9.9147782-13.8138062-8.6143968-14.6444745,.4958477-.3167437,1.4379783,1.3854199,5.1686381,3.4457587,1.551593,.8569048,3.8245379,2.1121939,6.8915174,2.584319Z" fill="#fff3c0"/>
        <path d="M-3.4796512,47.1154985c-.1714194,2.2325058,6.6515246,4.6935292,11.8447955,5.5993579,3.9486551,.6887337,9.7866125,1.7070008,11.4140757-.8614397,2.3222303-3.6649174-4.4661091-13.7838366-9.4758364-13.352315-1.6930084,.1458254-1.894836,1.3856434-5.5993579,3.8764785-5.1507106,3.4632278-8.0727716,3.2935188-8.1836769,4.7379182Z" fill="#fff3c0"/>
        <path d="M34.9422066,20.9180274c6.8018947,18.8718067,4.8576977,21.2700913,4.0918385,21.9667117-2.3642337,2.1504971-7.8172634,1.1080836-10.767996-1.7228794-2.8016999-2.6879768-2.9484684-6.6055845-3.0150389-9.4758364-.4699398-20.2619061-.6821976-30.3966119,.4307198-30.5811085,1.9998181-.3315181,4.521487,6.6648269,9.2604765,19.8131126Z" fill="#fff3c0"/>
        <path d="M30.4196483,39.4389804c-3.0927625,.4760947-4.3088316-.257383-4.7379182,.4307198-.9867694,1.5824169,3.623913,8.3811209,8.1836769,8.1836769,6.3058663-.2730644,9.9147782-13.8138062,8.6143968-14.6444745-.4958477-.3167437-1.4379783,1.3854199-5.1686381,3.4457587-1.551593,.8569048-3.8245379,2.1121939-6.8915174,2.584319Z" fill="#fff3c0"/>
        <path d="M52.8170799,47.1919375c.1714194,2.2325058-6.6515246,4.6935292-11.8447955,5.5993579-3.9486551,.6887337-9.7866125,1.7070008-11.4140757-.8614397-2.3222303-3.6649174,4.4661091-13.7838366,9.4758364-13.352315,1.6930084,.1458254,1.894836,1.3856434,5.5993579,3.8764785,5.1507106,3.4632278,8.0727716,3.2935188,8.1836769,4.7379182Z" fill="#fff3c0"/>
      </g>
      <path d="M40.1948297,17.5405314c1.1203823,.716738,1.9818219,1.5781776,3.2739815,2.8703372-9.0451166-8.1836769-23.6895911-8.6143968-31.873268,1.2921595-3.0150389,4.3071984-4.3071984,9.4758364-2.1535992,14.2137547,3.0150389,7.3222372,11.1987158,11.6294356,19.3823927,9.4758364,5.5993579-1.7228794,9.9065563-6.4607976,9.9065563-12.0601555-.4307198-5.1686381-4.7379182-9.9065563-10.3372761-9.0451166,3.0150389,1.7228794,6.0300777,3.8764785,6.8915174,7.3222372,.4307198,3.0150389-.8614397,6.4607976-3.4457587,8.1836769-5.1686381,3.4457587-12.0601555,2.1535992-15.936634-2.584319-3.0150389-4.3071984-2.1535992-9.9065563,1.2921595-13.352315,6.4607976-6.0300777,16.7980737-5.1686381,22.3974316,2.1535992,6.0300777,8.1836769,0,18.520953-9.0451166,21.1052721-6.0300777,1.7228794-12.0601555,.4307198-17.2287935-3.0150389-5.1686381-3.8764785-7.3222372-9.9065563-6.0300777-16.3673538,3.0150389-12.0601555,17.6595134-17.2287935,28.3178582-12.5991201,2.0483425,.8050891,3.4972113,1.6013473,4.5886268,2.4065457Z" fill="#ffe552"/>
      <path d="M58.1132857,32.471024c4.2079046-11.7204746-7.7228824-24.7867253-8.1836769-24.5510308-.4352284,.2226288,9.4022994,12.2918409,5.5993579,24.1203109-2.1361958,6.6443083-7.6778427,10.4178521-7.3222372,10.767996,.3850755,.3791539,7.4480435-3.4894643,9.9065563-10.3372761Z" fill="#ffe552"/>
      <path d="M3.8425861,2.7513552C8.2864842-.6242906,12.5167181-1.3967156,12.4569828-1.5558432c-.0750322-.1998888-6.8978925,.6236421-12.0601555,5.5993579-4.7814167,4.6086287-5.9009689,10.6229724-5.5993579,10.767996,.3344395,.160797,2.3115372-6.9452522,9.0451166-12.0601555Z" fill="#ffe552"/>
      <path d="M36.2499213,33.1405359c-4.885664-.5340851-6.0487368-.2550084-4.5416547,1.8528701-2.288361-.4840154-1.9065672,.8607711,.6212727,5.2209291-3.2293446-3.6586533-4.312643-4.3019352-4.4570262-1.7337121-1.4968311-1.9471006-2.0547469-.6826962-2.7902784,4.1388464-.3349285-4.8215426-.7968025-6.085947-2.4778656-4.1778817,.0519843-2.5506747-1.1152204-1.9288799-4.6579178,1.5770408,2.8411928-4.2074254,3.3068928-5.5307249,.8723832-5.0808363,1.6668131-2.0604017,.4334165-2.3476154-4.6299626-1.8805383,5.0633791-1.5375371,6.2967757-2.2701133,4.4292582-3.5296954,2.5330404-.4521262,1.9651668-1.4312584-1.6734355-4.411891,4.340107,2.279128,5.6094852,2.5567555,5.4475586,.5287937,1.8837395,1.2900652,2.3361741,.274541,2.5979433-4.0422332,.8086908,4.3167742,1.376046,5.3322984,3.0469417,4.0103318,.072844,2.044756,1.2492285,1.7520212,5.2393924-.6629385-3.2886593,3.1164643-3.7635392,4.1107038-1.3791019,4.5610047-1.6962444,1.2846516-.5331716,2.0253647,4.3524924,3.6299098Z" fill="#fff7d7"/>
      <path d="M11.5924907,18.7089749c-2.2146109-.2420942-2.7418174-.1155922-2.0586757,.839883-1.0372857-.2193982-.8642233,.3901769,.2816152,2.3665824-1.4638218-1.6584222-1.9548676-1.9500138-2.0203147-.7858702-.678495-.8825965-.9313913-.3094577-1.2647986,1.8760877-.1518189-2.1855455-.3611807-2.7586843-1.1231857-1.8937819,.0235639-1.1561892-.5055156-.8743373-2.1113763,.714853,1.2878774-1.9071737,1.4989735-2.507009,.3954405-2.3030801,.7555457-.9339545,.1964623-1.0641449-2.0987046-.8524247,2.295167-.6969465,2.8542503-1.0290142,2.0077278-1.5999671,1.1481958-.2049432,.8907857-.6487717-.7585475-1.9998555,1.9673166,1.0331004,2.5427101,1.1589456,2.4693107,.2396956,.8538758,.5847705,1.0589588,.124446,1.1776155-1.8322942,.3665695,1.9567402,.6237446,2.4170647,1.3811409,1.8178336,.0330193,.9268625,.5662598,.7941695,2.3749516-.3005018-1.4907085,1.4126546-1.7059656,1.863331-.6251298,2.0674469-.7688865,.5823166-.2416801,.9180727,1.9729308,1.6453931Z" fill="#ffe552"/>
      <path d="M9.2591573,18.4911608c-1.1811258-.1291169-1.4623026-.0616492-1.0979604,.4479376-.553219-.1170123-.4609191,.2080943,.1501948,1.2621773-.780705-.8844918-1.042596-1.0400074-1.0775012-.4191308-.361864-.4707181-.496742-.1650441-.6745592,1.0005801-.0809701-1.1656242-.1926297-1.4712983-.5990324-1.010017,.0125674-.6166343-.2696083-.4663132-1.1260674,.381255,.686868-1.0171593,.7994525-1.3370715,.2109016-1.2283094,.4029577-.4981091,.1047799-.567544-1.1193091-.4546265,1.224089-.3717048,1.5222668-.5488076,1.0707882-.8533158,.6123711-.109303,.4750857-.3460116-.4045587-1.0665896,1.0492355,.5509869,1.356112,.6181043,1.3169657,.1278377,.4554004,.3118776,.564778,.0663712,.6280616-.9772236,.1955037,1.0435948,.3326638,1.2891012,.7366085,.9695113,.0176103,.4943267,.3020052,.423557,1.2666409-.1602676-.7950445,.7534158-.9098483,.9937765-.3334025,1.1026383-.4100728,.3105689-.128896,.4896388,1.0522298,.877543Z" fill="#fff7d7"/>
      <g>
        <path d="M50.7232641,8.6765759c-3.0037516-.3283605-3.7188196-.1567816-2.7922515,1.1391617-1.4069056-.2975771-1.1721752,.5292101,.3819642,3.2098757-1.985431-2.2493741-2.651453-2.6448697-2.7402211-1.0659023-.9202657-1.1970955-1.2632775-.419728-1.7154891,2.5446012-.2059172-2.9643292-.4898816-3.7416967-1.5234148-2.5686005,.0319605-1.5681785-.6856478-1.1858933-2.8637311,.9695794,1.7467917-2.5867642,2.0331084-3.400341,.5363493-3.1237453,1.0247722-1.2667541,.2664685-1.4433358-2.846544-1.1561724,3.1130125-.9452921,3.8713162-1.3956867,2.7231491-2.1700895,1.5573368-.2779714,1.2082028-.879951-1.0288437-2.7124716,2.6683381,1.401229,3.4487636,1.571917,3.3492096,.3251073,1.1581406,.793144,1.4363016,.1687903,1.5972397-2.4852025,.4971906,2.6539929,.8460059,3.2783466,1.8732881,2.4655892,.0447852,1.257135,.7680373,1.0771589,3.2212271-.4075808-2.0218983,1.9160312-2.3138588,2.5272989-.8478846,2.8041481-1.0428668,.7898157-.3277989,1.245213,2.6759528,2.2317023Z" fill="#ffe552"/>
        <path d="M47.5584853,7.9504275c-1.6020009-.1751256-1.9833704-.0836168-1.4892008,.6075529-.7503497-.1587078-.6251601,.2822454,.2037143,1.7119337-1.0588965-1.1996662-1.4141083-1.4105972-1.4614513-.5684812-.4908083-.6384509-.673748-.2238549-.9149275,1.3571206-.1098225-1.5809756-.2612702-1.9955716-.8124879-1.3699202,.0170456-.8363619-.3656788-.6324764-1.5273233,.517109,.9316222-1.3796076,1.0843245-1.8135152,.286053-1.6659975,.5465452-.6756022,.1421165-.7697791-1.5181568-.6166253,1.6602733-.5041558,2.064702-.7443663,1.4523462-1.1573811,.8305796-.1482514,.6443748-.4693072-.5487166-1.4466515,1.4231136,.7473222,1.8393406,.8383558,1.7862451,.1733906,.617675,.4230102,.7660275,.0900215,.8518612-1.3254414,.2651683,1.4154629,.4512031,1.7484515,.999087,1.3149809,.0238854,.670472,.4096199,.5744847,1.7179878-.2173764-1.0783458,1.0218833-1.234058,1.3478927-.4522051,1.4955456-.5561956,.4212351-.1748261,.6641136,1.4271748,1.1902412Z" fill="#fff7d7"/>
      </g>
      <g>
        <path d="M52.6598981,24.4263225c-3.0037516-.3283605-3.7188196-.1567816-2.7922515,1.1391617-1.4069056-.2975771-1.1721752,.5292101,.3819642,3.2098757-1.985431-2.2493741-2.651453-2.6448697-2.7402211-1.0659023-.9202657-1.1970955-1.2632775-.419728-1.7154891,2.5446012-.2059172-2.9643292-.4898816-3.7416967-1.5234148-2.5686005,.0319605-1.5681785-.6856478-1.1858933-2.8637311,.9695794,1.7467917-2.5867642,2.0331084-3.400341,.5363493-3.1237453,1.0247722-1.2667541,.2664685-1.4433358-2.846544-1.1561724,3.1130125-.9452921,3.8713162-1.3956867,2.7231491-2.1700895,1.5573368-.2779714,1.2082028-.879951-1.0288437-2.7124716,2.6683381,1.401229,3.4487636,1.571917,3.3492096,.3251073,1.1581406,.793144,1.4363016,.1687903,1.5972397-2.4852025,.4971906,2.6539929,.8460059,3.2783466,1.8732881,2.4655892,.0447852,1.257135,.7680373,1.0771589,3.2212271-.4075808-2.0218983,1.9160312-2.3138588,2.5272989-.8478846,2.8041481-1.0428668,.7898157-.3277989,1.245213,2.6759528,2.2317023Z" fill="#ffe552"/>
        <path d="M49.0643994,24.1308939c-1.6020009-.1751256-1.9833704-.0836168-1.4892008,.6075529-.7503497-.1587078-.6251601,.2822454,.2037143,1.7119337-1.0588965-1.1996662-1.4141083-1.4105972-1.4614513-.5684812-.4908083-.6384509-.673748-.2238549-.9149275,1.3571206-.1098225-1.5809756-.2612702-1.9955716-.8124879-1.3699202,.0170456-.8363619-.3656788-.6324764-1.5273233,.517109,.9316222-1.3796076,1.0843245-1.8135152,.286053-1.6659975,.5465452-.6756022,.1421165-.7697791-1.5181568-.6166253,1.6602733-.5041558,2.064702-.7443663,1.4523462-1.1573811,.8305796-.1482514,.6443748-.4693072-.5487166-1.4466515,1.4231136,.7473222,1.8393406,.8383558,1.7862451,.1733906,.617675,.4230102,.7660275,.0900215,.8518612-1.3254414,.2651683,1.4154629,.4512031,1.7484515,.999087,1.3149809,.0238854,.670472,.4096199,.5744847,1.7179878-.2173764-1.0783458,1.0218833-1.234058,1.3478927-.4522051,1.4955456-.5561956,.4212351-.1748261,.6641136,1.4271748,1.1902412Z" fill="#fff7d7"/>
      </g>
      <rect width="50" height="50" fill="none"/>
    </g>
  </g>
</svg>