<?xml version="1.0" encoding="UTF-8"?>
<svg id="_Шар_2" data-name="Шар 2" xmlns="http://www.w3.org/2000/svg" xmlns:xlink="http://www.w3.org/1999/xlink" viewBox="0 0 50 50">
  <defs>
    <clipPath id="clippath">
      <rect width="50" height="50" fill="none"/>
    </clipPath>
  </defs>
  <g id="_Шар_4" data-name="Шар 4">
    <g clip-path="url(#clippath)">
      <rect width="50" height="50" fill="#0c162a"/>
      <g>
        <path d="M2.3613451,9.2138056C-.4919943,16.4569309,1.2229907,24.702525,6.7276936,30.2072278l18.2722633,18.2722633V5.0197914l-6.9860025-2.6869506C11.7921684-.0601936,4.8046149,3.0115795,2.3613451,9.2138056Z" fill="#010711"/>
        <path d="M47.6386549,9.2138056C45.1952989,3.0115795,38.2078316-.0601936,31.9859594,2.3328408l-6.9859164,2.6869506V48.4794912l18.2722633-18.2722633c5.5047029-5.5047029,7.2196879-13.7502969,4.3663485-20.9934223Z" fill="#010711"/>
      </g>
      <polygon points="40 17.5 32.5 17.5 32.5 10 17.5 10 17.5 17.5 10 17.5 10 32.5 17.5 32.5 17.5 40 32.5 40 32.5 32.5 40 32.5 40 17.5" fill="#ffd000"/>
      <polygon points="43.5 15.75 34.25 15.75 34.25 6.5 15.75 6.5 15.75 15.75 6.5 15.75 6.5 34.25 15.75 34.25 15.75 43.5 34.25 43.5 34.25 34.25 43.5 34.25 43.5 15.75" fill="none" stroke="#ffd000" stroke-miterlimit="10" stroke-width="1.2333333"/>
      <polygon points="51.5 11.75 38.25 11.75 38.25 -1.5 11.75 -1.5 11.75 11.75 -1.5 11.75 -1.5 38.25 11.75 38.25 11.75 51.5 38.25 51.5 38.25 38.25 51.5 38.25 51.5 11.75" fill="none" stroke="#ffe552" stroke-miterlimit="10"/>
      <polygon points="35.5 19.75 30.25 19.75 30.25 14.5 19.75 14.5 19.75 19.75 14.5 19.75 14.5 30.25 19.75 30.25 19.75 35.5 30.25 35.5 30.25 30.25 35.5 30.25 35.5 19.75" fill="#ffe552"/>
      <polygon points="31 22 28 22 28 19 22 19 22 22 19 22 19 28 22 28 22 31 28 31 28 28 31 28 31 22" fill="#fff8d9"/>
    </g>
  </g>
</svg>