<?xml version="1.0" encoding="UTF-8"?>
<svg xmlns="http://www.w3.org/2000/svg" xmlns:xlink="http://www.w3.org/1999/xlink" viewBox="0 0 50 50">
  <defs>
    <clipPath id="clippath">
      <rect width="50" height="50" fill="none"/>
    </clipPath>
  </defs>
  <g id="_6334a0f80d41f4cf23939af2" data-name="6334a0f80d41f4cf23939af2">
    <rect x="-55.3785516" y="39.3874378" width="105.7571031" height="44.6102689" fill="none"/>
  </g>
  <g id="_Шар_3" data-name="Шар 3">
    <g clip-path="url(#clippath)">
      <rect width="50" height="50" fill="#0c162a"/>
      <g>
        <polygon points="33.8367205 35.4182914 25.1892637 41.3165269 20.2163921 39.3064429 33.8367205 35.4182914" fill="#0c162a"/>
        <polygon points="38.6218576 40.6678876 34.3489423 45.0189597 28.2385232 42.5490677 38.6218576 40.6678876" fill="#0c162a"/>
        <polygon points="42.3205766 43.8206447 37.3293373 46.2236648 35.8284499 45.6169913 42.3205766 43.8206447" fill="#0c162a"/>
        <path d="M29.3805483,29.6966055c-1.7620181,1.7549803-4.4670185,2.3911269-6.9202106,1.3995223-3.2796245-1.3256567-4.8628908-5.0572365-3.5372341-8.3368609,.3292537-.8145612,.8070143-1.5248966,1.3899225-2.1125973l9.0675222,9.0499359Z" fill="none"/>
        <path d="M30.7971986,27.5588937c-.3340522,.8264324-.8213654,1.5467172-1.4166503,2.1377118l-9.0675222-9.0499359c1.763984-1.7735275,4.4818751-2.4210398,6.9469384-1.4246368,3.2796245,1.3256567,4.8628908,5.0572365,3.5372341,8.3368609Z" fill="#fff3c0"/>
        <line x1="55.0741081" y1="55.3302582" x2="29.380548" y2="29.6966061" fill="none"/>
        <line x1="20.3130262" y1="20.6466676" x2="-4.9748346" y2="-4.5826306" fill="none"/>
        <path d="M31.0944917,30.1349248c-.1900689,.1907302-.3869363,.3701282-.5951812,.5382158,2.5739162-3.1505065,2.3890385-7.8012451-.5558265-10.7358995-2.9448649-2.9346544-7.5962176-3.1033778-10.7377652-.5185346,.1673632-.2088275,.3460764-.4063167,.5361453-.597047,3.1247233-3.1355952,8.1973513-3.1444045,11.3329464-.0196812,3.1355952,3.1247233,3.1444045,8.1973513,.0196812,11.3329464Z" fill="#ffe552"/>
        <path d="M33.8526402,31.8365327c-.2590507,.259952-.5273672,.504459-.8111905,.7335506,3.5080684-4.2939207,3.2560929-10.6325532-.7575527-14.6322826-4.0136456-3.9997294-10.3531151-4.2296877-14.6348255-.7067266,.2281044-.2846173,.471678-.5537814,.7307287-.8137334,4.2587801-4.2735977,11.1724183-4.2856041,15.446016-.026824,4.2735977,4.2587801,4.2856041,11.1724183,.026824,15.446016Z" fill="#ffe552"/>
        <path d="M36.84959,35.2180895c-.3713643,.3726564-.7560117,.7231714-1.1628889,1.0515876,5.0290208-6.1555859,4.6677992-15.2423855-1.0859961-20.9762309-5.7537952-5.7338454-14.8417947-6.0635041-20.9798764-1.0131338,.327001-.4080155,.6761779-.7938779,1.0475422-1.1665343,6.1052097-6.1264516,16.0163136-6.1436636,22.1427653-.0384538,6.1264516,6.1052097,6.1436636,16.0163136,.0384538,22.1427653Z" fill="#ffd000"/>
        <path d="M41.1638956,38.5547354c-.5056805,.50744-1.0294484,.9847304-1.5834863,1.4319292,6.8479332-8.3819581,6.3560638-20.7553007-1.4787826-28.5629818-7.8348465-7.8076811-20.2098228-8.2565718-28.5679457-1.3795672,.4452718-.5555878,.9207401-1.0810103,1.4264207-1.5884502C19.2734633,.1133789,32.7692472,.0899417,41.1115337,8.4033034c8.3422864,8.3133617,8.3657236,21.8091456,.0523619,30.151432Z" fill="#ffd000"/>
        <path d="M47.5850514,43.8042191c-.6841597,.6865401-1.3927907,1.3322895-2.1423755,1.9373265,9.2649011-11.3403577,8.5994271-28.0808532-2.0007167-38.6442439C32.8418153-3.4660889,16.0991094-4.0734149,4.7909994,5.2308182c.6024298-.7516817,1.245714-1.4625512,1.9298738-2.1490914,11.2475504-11.286684,29.5066512-11.3183934,40.7933352-.070843,11.286684,11.2475504,11.3183934,29.5066512,.070843,40.7933352Z" fill="#ffd000"/>
        <polyline points="4.5116668 4.7810464 53.558223 53.6123903 51.9818626 52.044136" fill="none"/>
        <path d="M-2.5619812-2.2615674C-.0830959-.0363312,2.2766926,2.3108575,4.5116992,4.7810202,2.0316745,2.5569673-.325879,.2075184-2.5619812-2.2615674h0Z" fill="#ffd000"/>
        <path d="M13.172821,13.4922199c2.4788962,2.2252291,4.8386781,4.5724166,7.0736804,7.0425878-2.4800327-2.2240535-4.8375629-4.5735011-7.0736804-7.0425878h0Z" fill="#ffd000"/>
        <path d="M40.6607361,41.180088c2.4788951,2.2252384,4.8386769,4.5724238,7.0736804,7.0425878-2.4800337-2.2240539-4.8375639-4.5735001-7.0736804-7.0425878h0Z" fill="#ffd000"/>
        <path d="M32.5929108,33.139782c1.9218597,1.7254677,3.7506256,3.5444527,5.4836426,5.4595871-1.9227295-1.7245865-3.7497406-3.54533-5.4836426-5.4595871,0,0,1.733902,1.914257,0,0Z" fill="#ffd000"/>
        <path d="M49.5606232,49.9444885c1.9218597,1.7254677,3.7506256,3.5444527,5.4836426,5.4595871-1.9227295-1.7245865-3.7497406-3.54533-5.4836426-5.4595871,0,0,1.733902,1.914257,0,0Z" fill="#ffd000"/>
        <path d="M47.1596875,7.9258854c-.2239905,.1110324,8.9847195,11.6541353,5.8115686,23.8991703-.9069114,3.4997316-2.8434151,7.1268867-2.6422942,7.2204496,.2053184,.0955167,2.6006717-3.5090885,3.6882143-7.0739613,3.574235-11.7160208-6.6240146-24.1613903-6.8574888-24.0456586Z" fill="#ffe552"/>
        <path d="M40.2577158,9.2802856c-.2241996,.1084522,7.5752361,10.1318523,4.7139869,20.6221403-.7942429,2.9119546-2.4414516,5.9754474-2.2421615,6.0713183,.2043502,.0983082,2.3113414-2.9422829,3.2880816-5.92483,3.2579565-9.9483806-5.5247126-20.8824001-5.759907-20.7686285Z" fill="#ffe552"/>
        <path d="M21.4666523,9.9732427c-.0272532,.2210565,8.2881238-.6659283,14.0225596,4.7412134,3.9027096,3.6799647,4.7635082,8.5341722,4.9559969,8.4557678,.2023495-.08242-.4589209-5.5647946-4.3979997-9.3524552-5.635598-5.4189682-14.5524131-4.0728024-14.5805569-3.844526Z" fill="#ffe552"/>
        <path d="M30.1729937,22.6097723c1.3055807,2.6951568-.6568307,6.0103676-1.0204188,5.9420464-.3025791-.056856,.6462615-2.4299711-.505464-4.9011251-1.3174346-2.8267072-4.3668232-3.6005429-4.2191796-3.9156985,.1670604-.3566059,4.3605847,.0167505,5.7450625,2.8747772Z" fill="#fff8d9"/>
        <polygon points="42.3254279 43.8198444 35.8311652 45.6223957 32.9927863 46.4005939 34.3444098 45.0214435 38.6173591 40.6673786 28.2382697 42.5533039 21.6319465 43.7448322 25.1899299 41.3210651 33.8416633 35.4190876 20.2152594 39.3102619 15.4100837 40.675069 17.6718635 38.2822468 21.9346198 33.756673 26.5352668 28.8752643 26.5244635 28.8838703 26.5329474 28.8748371 15.6707648 37.4733478 14.7560309 38.2022907 15.3902472 37.3599445 20.2425422 30.9026691 24.3119391 25.4900715 24.3075446 25.4930622 24.3127326 25.4861652 20.499134 28.0877277 22.2251471 23.8177082 22.2232551 23.8194782 22.224903 23.8154499 20.9258918 25.0620319 18.178028 27.6937458 19.5994758 24.9182941 20.7547492 22.6707966 20.7485236 22.6748249 20.7531623 22.6657917 13.688526 27.2972004 4.839466 33.0909015 4.846485 33.0937702 4.8424567 33.0964557 1.964527 34.9682819 4.1130866 32.8016559 17.3919562 19.381673 17.3710212 19.3951008 17.3894538 19.3765461 -.5252801 30.9224445 -.5208245 30.9242756 -.5249139 30.9269001 -3.158764 32.6254474 -1.5628778 30.5073444 -1.5603143 30.5040485 -1.5583612 30.504903 11.0834845 13.7884113 11.0719489 13.7979938 11.0817756 13.7849933 -1.4112664 24.195882 2.0657843 16.5658161 5.9238166 8.1100666 5.9143561 8.1203205 5.9193 8.1093342 -.0799676 14.5736896 -1.9115716 16.5454914 -.5943109 10.5401813 1.0405768 3.1010944 1.0345954 3.1139728 1.0381965 3.0972492 -2.9847528 11.6842853 -1.3314324 .7607013 -1.3321038 .7615558 -1.3316156 .7579548 -3.9650384 3.9261066 -5.0974237 5.2870075 -18.0000115 20.8172199 -16.5310174 33.5733234 -1.3607904 39.3839924 -4.7580682 54.6716511 27.4777106 50.4300739 35.8639411 53.6422931 35.4624518 47.1268512 37.32732 46.227193 42.3254279 43.8198444" fill="#010711"/>
      </g>
    </g>
  </g>
</svg>