<?xml version="1.0" encoding="UTF-8"?>
<svg xmlns="http://www.w3.org/2000/svg" xmlns:xlink="http://www.w3.org/1999/xlink" viewBox="0 0 50 50">
  <defs>
    <clipPath id="clippath">
      <rect width="50" height="50" fill="none"/>
    </clipPath>
    <clipPath id="clippath-1">
      <rect x="-70" y="70" width="50" height="50" fill="none"/>
    </clipPath>
  </defs>
  <g id="_6334a0f80d41f4cf23939af2" data-name="6334a0f80d41f4cf23939af2">
    <rect x="14.6214484" y="39.3874378" width="105.7571031" height="44.6102689" fill="none"/>
  </g>
  <g id="_6334a0ba0d41f4cf23939aec" data-name="6334a0ba0d41f4cf23939aec">
    <g clip-path="url(#clippath)">
      <rect width="50" height="50" fill="#0c162a"/>
      <g>
        <polygon points="45.7324731 27.1001722 55.9528305 41.6910781 47.307655 36.5760644 37.9584063 21.185373 45.7324731 27.1001722" fill="#ffd000"/>
        <polygon points="61.816171 55.1499445 34.1842 18.2112436 24.2922639 15.0831083 58.9710067 55.8697955 61.816171 55.1499445" fill="#ffd000"/>
        <polygon points="45.2742851 59.2750184 7.1199567 33.192001 3.9797161 22.4066753 46.0585265 55.9406132 45.2742851 59.2750184" fill="#ffd000"/>
        <ellipse cx="46.6180053" cy="50.8217738" rx="13.1399798" ry="14.5839336" transform="translate(-17.7499535 75.5777225) rotate(-68.5071031)" fill="#ffe552"/>
        <polygon points="5.8201049 -5.4364317 55.0468551 48.7273723 48.6720128 58.6139715 -21.3919195 2.4435688 5.8201049 -5.4364317" fill="#ffe552"/>
        <polygon points="36.5174258 22.4802011 54.3039978 49.0374818 56.0053134 46.2932992 43.8296635 25.9802674 36.5174258 22.4802011" fill="#ffe552"/>
        <polygon points="13.3140591 35.6903441 46.0446426 54.4951235 43.0264893 56.7336787 18.1385698 44.0386009 13.3140591 35.6903441" fill="#ffe552"/>
        <polygon points="49.1635024 30.5635441 58.4862613 44.0863871 56.9575932 43.8749171 50.1979954 33.453879 49.1635024 30.5635441" fill="#ffe552"/>
        <polygon points="5.2444115 30.960915 -8.1284791 19.8600962 -8.1591761 19.8355817 -8.1715556 19.8276192 -11.8319417 16.7878495 -16.1776067 13.4627245 -1.5932862 19.2800392 3.3786693 23.0876635 5.2444115 30.960915" fill="#ffd000"/>
        <polygon points="-1.5433607 -4.6114452 52.6430256 49.3145648 41.976874 50.3909276 -21.4263093 -2.1983846 -1.5433607 -4.6114452" fill="#ffeb99"/>
        <ellipse cx="49.1505701" cy="53.0605078" rx="11.9848167" ry="13.1399798" transform="translate(-18.2283437 79.3526739) rotate(-68.5071031)" fill="#ffeb99"/>
        <ellipse cx="51.3615215" cy="55.3277874" rx="12.4180029" ry="13.4287706" transform="translate(-18.9370735 82.8464627) rotate(-68.5071031)" fill="#fff3c0"/>
        <polygon points="-6.6905905 -1.7880366 53.3481821 52.2679932 42.9839588 48.4633334 -25.9601457 -8.6426312 -6.6905905 -1.7880366" fill="#fff3c0"/>
        <polygon points="40.8460466 37.3204645 49.5730424 46.8642132 50.3137045 44.9832494 39.8979878 32.8121782 40.8460466 37.3204645" fill="#fff3c0"/>
        <polygon points="40.1957283 51.4817256 22.8985265 42.8784987 31.1546699 42.4050195 43.3204196 50.9199719 40.1957283 51.4817256" fill="#fff3c0"/>
        <polygon points="31.8184401 16.2846697 25.1578034 14.2826754 15.662397 3.715485 26.956554 9.7146203 31.8184401 16.2846697" fill="#ffd000"/>
        <polygon points="44.7903172 25.1170486 38.7074423 20.8595725 32.7220023 14.7782238 43.2754973 22.658323 44.7903172 25.1170486" fill="#ffd000"/>
        <rect x="-15.6276608" y="11.6963681" width="79.4174603" height="33.4997287" transform="translate(12.0968232 -6.844898) rotate(21.4928969)" fill="none"/>
      </g>
    </g>
  </g>
  <g id="lichthammer">
    <g clip-path="url(#clippath-1)">
      <path d="M7,96.7125607c-39.4376357-4.1453304-40.8364322-7.2696299-14.4606406-36.7528092-30.8988875,24.9600834-34.0231869,23.5612869-36.7521496-16.006682-4.1730491,39.5679689-7.2973485,40.9667654-37.5601496,15.2270602,25.7397051,30.2628011,24.3409086,33.3871005-15.2270602,37.5601496,39.5679689,2.7289626,40.9667654,5.8532621,16.006682,36.7521495,29.4831793-26.3757915,32.6074788-24.976995,36.7528092,14.4606406,2.7566813-39.4376357,5.8809807-40.8364322,36.013117-15.2273918-25.6090404-30.1321363-24.2102439-33.2564357,15.2273918-36.013117Z" fill="none" stroke="#ffd000" stroke-miterlimit="10"/>
    </g>
  </g>
</svg>