<?xml version="1.0" encoding="UTF-8"?>
<svg xmlns="http://www.w3.org/2000/svg" xmlns:xlink="http://www.w3.org/1999/xlink" viewBox="0 0 50 50">
  <defs>
    <clipPath id="clippath">
      <rect width="50" height="50" fill="none"/>
    </clipPath>
  </defs>
  <g id="_6334a0f80d41f4cf23939af2" data-name="6334a0f80d41f4cf23939af2">
    <rect x="-55.3785516" y="-30.6125622" width="105.7571031" height="44.6102689" fill="none"/>
  </g>
  <g id="Waffe_des_Lichts" data-name="Waffe des Lichts">
    <g clip-path="url(#clippath)">
      <path d="M50,0V50H0l1.6400146-1.6300049v-.0100098c-.0300293-.0200195-.0400391-.0499878-.0599976-.0800171-1.460022-1.539978-1.4400024-3.9799805,.0799561-5.4799805,.9400024-.9400024,2.2600098-1.3099976,3.4700317-1.1099854l.4099731-.3900146v-.0200195h.0100098l.7300415-.7299805,.4499512-.4500122,.0100098-.0100098,.4000244-.3999634,1.2099609-1.210022,.4000244-.4000244,1.2000122-1.2099609,1.3599854-1.3300171-.5999756-1.8800049c-.8900146-1.5899658-1.2700195-3.0199585-1.460022-3.75-.0599976-.0800171-.4699707-.5100098-.4899902-1.2099609,.0100098-.2200317,.0599976-.4500122,.1599731-.6600342,.0800171-.1699829,.1799927-.3300171,.3099976-.4699707l.0900269-.0800171c.1599731-.1699829,.3200073-.289978,.5299683-.3499756,.5900269-.2900391,1.3300171-.1700439,1.8500366,.3499756,.5100098,.9400024,1.2299805,2.0700073,2.1300049,3.2799683l10.2000122-11.3299561,4.4099731-4.8800049,2.4099731-2.6600342,1.3300171-1.4799805,3.0800171-3.4099731,1.1599731-1.3000488L49.1400146,.5999756l.3599854-.1400146-.0300293,.0700073,.5300293-.5299683Z" fill="#0c162a"/>
      <polyline points="50 50 31 50 50 18.2903233" fill="#ffa300"/>
      <path d="M50,0S61,66,0,50L50,0Z" fill="#ffb600"/>
      <path d="M49.4699707,.5299683l.0300293-.0700073-.3599854,.1400146-12.7200317,5.1099854-1.1599731,1.3000488-3.0800171,3.4099731-1.3300171,1.4799805-2.4099731,2.6600342-4.4099731,4.8800049-10.2000122,11.3299561c-.9000244-1.2099609-1.6199951-2.3399658-2.1300049-3.2799683-.5200195-.5200195-1.2600098-.6400146-1.8500366-.3499756-.2099609,.0599976-.3699951,.1799927-.5299683,.3499756l-.0900269,.0800171c-.1300049,.1399536-.2299805,.2999878-.3099976,.4699707-.0999756,.210022-.1499634,.4400024-.1599731,.6600342,.0200195,.6999512,.4299927,1.1299438,.4899902,1.2099609,.1900024,.7300415,.5700073,2.1600342,1.460022,3.75l.5999756,1.8800049-1.3599854,1.3300171-1.2000122,1.2099609-.4000244,.4000244-1.2099609,1.210022-.4000244,.3999634-.0100098,.0100098-.4499512,.4500122-.7300415,.7299805h-.0100098v.0200195l-.4099731,.3900146c-1.210022-.2000122-2.5300293,.1699829-3.4700317,1.1099854-1.5199585,1.5-1.539978,3.9400024-.0799561,5.4799805,.0199585,.0300293,.0299683,.0599976,.0599976,.0800171v.0100098l-1.6400146,1.6300049V0H50l-.5300293,.5299683Z" fill="#0c162a"/>
      <path d="M50,0S42,50,0,50L50,0Z" fill="#ffd000"/>
      <path d="M49.4699707,.5299683l.0300293-.0700073-.3599854,.1400146-12.7200317,5.1099854-1.1599731,1.3000488-3.0800171,3.4099731-1.3300171,1.4799805-2.4099731,2.6600342-4.4099731,4.8800049-10.2000122,11.3299561c-.9000244-1.2099609-1.6199951-2.3399658-2.1300049-3.2799683-.5200195-.5200195-1.2600098-.6400146-1.8500366-.3499756-.2099609,.0599976-.3699951,.1799927-.5299683,.3499756l-.0900269,.0800171c-.1300049,.1399536-.2299805,.2999878-.3099976,.4699707-.0999756,.210022-.1499634,.4400024-.1599731,.6600342,.0200195,.6999512,.4299927,1.1299438,.4899902,1.2099609,.1900024,.7300415,.5700073,2.1600342,1.460022,3.75l.5999756,1.8800049-1.3599854,1.3300171-1.2000122,1.2099609-.4000244,.4000244-1.2099609,1.210022-.4000244,.3999634-.0100098,.0100098-.4499512,.4500122-.7300415,.7299805h-.0100098v.0200195l-.4099731,.3900146c-1.210022-.2000122-2.5300293,.1699829-3.4700317,1.1099854-1.5199585,1.5-1.539978,3.9400024-.0799561,5.4799805,.0199585,.0300293,.0299683,.0599976,.0599976,.0800171v.0100098l-1.6400146,1.6300049V0H50l-.5300293,.5299683Z" fill="#0c162a"/>
      <path d="M49.4699707,.5299683l-5.2199707,13.0100098-.6500244,.5800171-5.0199585,4.5200195-3.3200073,2.9899902-.8599854,.7699585-3.5500488,3.210022-2.4099731,2.1599731-.960022,.8700562-3.4499512,3.1099854v.0100098l-1.8500366,1.6599731-2.9699707,2.6699829c1.1099854,.8200073,2.1599731,1.460022,3.039978,1.9500122,.0800171,.0800171,.5100098,.5100098,.4899902,1.1900024,0,.2299805-.039978,.4500122-.1199951,.6600342-.0800171,.1999512-.210022,.3899536-.3699951,.5299683l-.0200195,.039978c-.0599976,.0400391-.0999756,.1000366-.1699829,.1300049-.6500244,.5300293-1.6199951,.5100098-2.2299805-.1099854-.9500122-.2199707-2.8800049-.7600098-4.8900146-2.1699829l-1.7700195,1.7799683-.3099976,.3099976-.0899658,.0900269-1.210022,1.210022-.4000244,.3999634-1.2099609,1.210022v.0100098l-.3900146,.3899536-1.210022,1.210022c.2300415,1.2299805-.1399536,2.5200195-1.0899658,3.4700317-1.5599976,1.539978-4.0599976,1.539978-5.6000366,0-.0099487,0-.0199585-.0100098-.0199585-.0200195v-.0100098l.8800049-.8800049,.0199585,.0200195c1.0700073,1.0700073,2.7700195,1.0700073,3.8200073,0,1.0700073-1.0599976,1.0700073-2.7700195,0-3.8200073,0-.0100098-.0199585-.0200195-.0199585-.0200195l5.1999512-5.2000122,.5300293-.5299683L37.7700195,12.2299805,49.4699707,.5299683Z" fill="#ffe552"/>
      <path d="M49.5,.4599609l-.0300293,.0700073-11.6999512,11.7000122L12.0700073,37.9299927l-.5300293,.5299683-5.1999512,5.2000122c-.0200195-.0299683-.0500488-.039978-.0800171-.0599976-1.0499878-.9799805-2.6900024-.9599609-3.7200317,.0800171-1.0299683,1.0299683-1.0700073,2.6699829-.0999756,3.7199707l.0800171,.0800171-.8800049,.8800049c-.0300293-.0200195-.0400391-.0499878-.0599976-.0800171-1.460022-1.539978-1.4400024-3.9799805,.0799561-5.4799805,.9400024-.9400024,2.2600098-1.3099976,3.4700317-1.1099854l.4099731-.3900146v-.0200195h.0100098l.7300415-.7299805,.4499512-.4500122,.0100098-.0100098,.4000244-.3999634,1.2099609-1.210022,.4000244-.4000244,1.2000122-1.2099609,1.3599854-1.3300171,.3699951-.3699951c-.3800049-.5100098-.7000122-1.0200195-.9699707-1.5100098-.8900146-1.5899658-1.2700195-3.0199585-1.460022-3.75-.0599976-.0800171-.4699707-.5100098-.4899902-1.2099609,.0100098-.2200317,.0599976-.4500122,.1599731-.6600342,.0800171-.1699829,.1799927-.3300171,.3099976-.4699707l.0900269-.0800171c.1599731-.1699829,.3200073-.289978,.5299683-.3499756,.5900269-.2900391,1.3300171-.1700439,1.8500366,.3499756,.5100098,.9400024,1.2299805,2.0700073,2.1300049,3.2799683l10.2000122-11.3299561,4.4099731-4.8800049,2.4099731-2.6600342,1.3300171-1.4799805,3.0800171-3.4099731,1.1599731-1.3000488L49.1400146,.5999756l.3599854-.1400146Z" fill="#010711"/>
    </g>
  </g>
</svg>