<?xml version="1.0" encoding="UTF-8"?>
<svg id="lichthammer" xmlns="http://www.w3.org/2000/svg" xmlns:xlink="http://www.w3.org/1999/xlink" viewBox="0 0 50 50">
  <defs>
    <clipPath id="clippath">
      <rect width="50" height="50" fill="none"/>
    </clipPath>
  </defs>
  <g clip-path="url(#clippath)">
    <rect width="50" height="50" fill="#0c162a"/>
    <path d="M62.4483952,26.5000258C34.0469305,23.5147186,33.0395712,21.2647186,52.0343994,.0320695,29.7822118,18.0073593,27.5322118,17,25.5669182-11.4953257,22.5616491,17,20.3116491,18.0073593-1.4824535-.529384,17.0542898,21.2647186,16.0469305,23.5147186-12.4483952,26.5199877c28.4953257,1.9652937,29.502685,4.2152937,11.5273952,26.4674812,21.2326491-18.9948282,23.4826491-17.9874689,26.4679563,10.4139959,1.9852556-28.4014648,4.2352556-29.4088241,25.9352585-10.9661805-18.4426436-21.7000029-17.4352843-23.9500029,10.9661805-25.9352585Z" fill="#ffd000"/>
    <path d="M77,26.7125607c-39.4376357-4.1453304-40.8364322-7.2696299-14.4606406-36.7528092C31.6404719,14.9198349,28.5161725,13.5210384,25.7872098-26.0469305,21.6141607,13.5210384,18.4898613,14.9198349-11.7729398-10.8198702,13.9667654,19.4429308,12.5679689,22.5672303-27,26.7402794c39.5679689,2.7289626,40.9667654,5.8532621,16.006682,36.7521495,29.4831793-26.3757915,32.6074788-24.976995,36.7528092,14.4606406,2.7566813-39.4376357,5.8809807-40.8364322,36.013117-15.2273918-25.6090404-30.1321363-24.2102439-33.2564357,15.2273918-36.013117Z" fill="none" stroke="#ffd000" stroke-miterlimit="10"/>
    <path d="M39.4648941,19.0559565h-.5752891c-.0549756-1.9329267-1.265301-3.4809736-2.7607074-3.4809736H13.8711035c-1.4954064,0-2.7057318,1.5480469-2.7607074,3.4809736h-.5752891c-1.5304324,0-2.7710121,1.6182512-2.7710121,3.6143769v7.5656124c0,1.9961765,1.2405797,3.6143769,2.7710121,3.6143769h.5752891c.054874,1.9329267,1.265301,3.4810751,2.7607074,3.4810751h5.1337939s0,3.2926962,0,3.2926962h2.2481605s0,25.6072426,0,25.6072426h7.4938853v-25.6072426h2.2481605v-3.2926962s5.1337939,0,5.1337939,0c1.4954064,0,2.7057826-1.5481485,2.7607074-3.4810751h.5752891c1.5303817,0,2.7710121-1.6182004,2.7710121-3.6143769v-7.5656124c0-1.9961257-1.2406305-3.6143769-2.7710121-3.6143769Z" fill="#fff3c0"/>
    <path d="M34.2315313,22.548365h-.3671518c-.0350856-1.2335983-.8075175-2.2215671-1.7618889-2.2215671l-14.2049826,.0000009c-.9543715,0-1.7268042,.9879663-1.7618915,2.2215663l-.3671466-.0000017c-.9767284,.0000017-1.7684693,1.0327748-1.7684676,2.3067041l-.0000017,4.828396c.0000017,1.2739637,.7917409,2.3067041,1.7684693,2.3067024l.3671466,.0000017c.0350236,1.2335983,.8075192,2.2216308,1.7618915,2.2216317l3.2764011-.0000009,.0000009,2.1014056,1.4347824-.0000009c.0449747,6.46855,.0899459,12.9371035,.1349206,19.4056536,1.5042579-.3008516,3.0085157-.6017032,4.5127735-.9025547,.0449738-6.1676988,.0899477-12.3353975,.1349215-18.5030963l1.434782-.0000013-.0000013-2.1014061,3.2764015-.0000004c.9543719,.0000004,1.726836-.9880308,1.7618893-2.2216304h.3671518c.9766944-.0000013,1.7684684-1.0327413,1.7684667-2.306705l.0000026-4.8283952c-.0000026-1.2739301-.7917745-2.3067032-1.7684693-2.3067024Z" fill="#fffef8"/>
  </g>
</svg>