<?xml version="1.0" encoding="UTF-8"?>
<svg id="Lichtsegen" xmlns="http://www.w3.org/2000/svg" xmlns:xlink="http://www.w3.org/1999/xlink" viewBox="0 0 50 50">
  <defs>
    <clipPath id="clippath">
      <rect width="50" height="50" fill="none"/>
    </clipPath>
  </defs>
  <g clip-path="url(#clippath)">
    <rect width="50" height="50" fill="#0c162a"/>
    <path d="M33.3449949,1.9911899c7.6487471,.7185089,10.8641449,8.7570036,17.2949407,11.9724014C40.993742,5.9250967,29.7398495,1.1019999,16.878258,5.9250967,5.6243655,12.3558924-2.4141291,22.002086,.8012687,34.8636774c6.4307957,16.0769893,27.3308818,20.9000861,40.1924733,11.2538925,8.0384947-6.4307957,9.6461936-17.6846882,4.8230968-27.3308818,3.2153979,9.6461936,1.6076989,22.507785-9.6461936,27.3308818-6.4307957,1.6076989-12.8615914,4.8230968-20.9000861,1.6076989C4.0166666,42.9021721-2.4141291,30.0405807,4.0166666,18.7866881,12.0551612,4.3173978,31.3475484,2.7096988,44.2091399,12.3558924c8.0384947,8.0384947,12.8615914,22.507785,3.2153979,32.1539786C31.3475484,60.5868603,2.4089677,54.1560646-2.4141291,33.2559785-8.8449249,9.1404946,21.7013548-5.3287958,40.993742,4.3173978c-1.6076989,0-3.2153979-1.6076989-4.3156292-1.7675169-2.391359-.6006453-3.3881699-.6908489-3.3331178-.558691Z" fill="#ffd000"/>
    <path d="M46.6976895,7.6226576c1.6247742,1.0394107,2.8740308,2.2886674,4.7479158,4.1625523C38.3284107-.0827281,17.091048-.7073564,5.2231101,13.6590948,.8507119,19.9053779-1.0231731,27.4009177,2.0999685,34.2718291c4.3723982,10.6186813,16.2403361,16.8649645,28.1082741,13.7418229,8.1201681-2.4985133,14.3664512-9.3694247,14.3664512-17.4895928-.6246283-7.4955398-6.8709114-14.3664512-14.9910795-13.1171946,4.3723982,2.4985133,8.7447964,5.6216548,9.994053,10.6186813,.6246283,4.3723982-1.2492566,9.3694247-4.9970265,11.867938-7.4955398,4.9970265-17.4895928,3.1231416-23.1112476-3.7477699-4.3723982-6.2462831-3.1231416-14.3664512,1.8738849-19.3634777,9.3694247-8.7447964,24.3605042-7.4955398,32.4806723,3.1231416,8.7447964,11.867938,0,26.8590175-13.1171946,30.6067874-8.7447964,2.4985133-17.4895928,.6246283-24.9851325-4.3723982C.2260836,40.5181123-2.897058,31.7733159-1.0231731,22.4038912,3.3492251,4.9142984,24.5865878-2.5812413,40.0432799,4.1326939c2.9704987,1.1675373,5.0716429,2.3222679,6.6544095,3.4899637Z" fill="#ffe552"/>
    <g>
      <path d="M33.8954058,23.7610105c0-1.638772,1.3284875-2.9672595,2.9672595-2.9672595s2.9672595,1.3284875,2.9672595,2.9672595v15.5861219c0,5.5884465-6.3660435,10.2283948-14.2103758,10.121582-2.3485908-.014587-4.6672024-.5286986-6.8018383-1.5081962-2.8866853-1.3926671-5.3312114-3.5576896-7.0624618-6.2549573l-4.9176606-7.3188119c-.636605-.76478-1.3672042-1.8841794-.636605-3.3624681,.744914-1.455709,2.5288732-2.0319205,3.9845806-1.2870082,.0034096,.0017472,.006816,.0034976,.0102174,.0052546l.4998831,.4571587,5.4090018,5.0073846V11.4818103c.0010561-1.637592,1.3294393-2.9642679,2.9670313-2.9632126,1.6361023,.0010537,2.9621613,1.3271119,2.9632142,2.9632126v-3.7768999c0-1.638772,1.3284875-2.9672595,2.9672595-2.9672595s2.9672595,1.3284875,2.9672595,2.9672595v4.4476857c.0010561-1.637592,1.3294393-2.9642679,2.9670313-2.9632126,1.6361023,.0010537,2.9621613,1.3271119,2.9632142,2.9632126v11.6084143h-.0042702Z" fill="#fff3c0"/>
      <g>
        <path d="M27.9651603,27.6062713c-.3539478,0-.6408768-.286929-.6408768-.6408768V7.7049104c0-1.2848258-1.0415584-2.3263827-2.3263827-2.3263827s-2.3263827,1.0415568-2.3263827,2.3263827h0V26.3245177c0,.3539478-.286929,.6408768-.6408768,.6408768s-.6408768-.286929-.6408768-.6408768V7.7049104c0-1.992719,1.6154165-3.6081363,3.6081363-3.6081363s3.6081363,1.6154173,3.6081363,3.6081363V26.9782115c-.0069789,.3489312-.2918772,.6281282-.6408768,.6280598Z" fill="#ffe552"/>
        <path d="M33.8954058,29.1016505c-.3539478,0-.6408768-.286929-.6408768-.6408768V12.1525962c.0009486-1.2836458-1.0388823-2.3250152-2.3225265-2.3259638-1.2836475-.0009486-2.3250169,1.0388823-2.3259654,2.3225281v.0034357c0,.3539462-.286929,.6408768-.6408768,.6408768s-.6408768-.2869306-.6408768-.6408768c-.000828-1.9915381,1.6129587-3.6066718,3.6044985-3.6075014,1.9915365-.0008296,3.6066727,1.6129595,3.6075006,3.6044976V28.4607737c0,.3539478-.286929,.6408768-.6408768,.6408768Z" fill="#ffe552"/>
        <path d="M25.8801724,50.0967742h-.2734405c-2.4364486-.0115197-4.8425204-.5416688-7.0581884-1.5551941-2.9946113-1.4350851-5.533627-3.6709598-7.3359023-6.4600393l-4.8920282-7.3145385c-.4742491-.5896055-1.6620069-2.0935315-.6750577-4.0161619,.9132481-1.7696542,3.0881051-2.4640026,4.8578457-1.5509207,.0496447,.0266836,.0956044,.0597204,.1367203,.0982692l.5041582,.4443384,4.3195099,3.9862545V11.4818103c.0008296-1.9915381,1.6159641-3.6053272,3.6075006-3.6044976,1.9903663,.0008288,3.6036705,1.6141313,3.6044985,3.6044976,0,.3539462-.286929,.6408768-.6408768,.6408768s-.6408768-.2869306-.6408768-.6408768c-.0009486-1.2836458-1.0423179-2.3234767-2.3259654-2.3225281-1.2823012,.0009477-2.3215779,1.0402236-2.3225265,2.3225281v23.7252602c.0000424,.3539478-.286854,.6409127-.6407986,.640955-.1616567,.0000196-.3173466-.0610536-.4358747-.1709794l-5.8234343-5.3705475c-1.1317469-.5355895-2.4843641-.0784211-3.0591185,1.0339471-.5127018,.9954961-.1538107,1.7773633,.546881,2.644686l.0384543,.0299075,4.909117,7.3273587c1.6710655,2.591938,4.0266613,4.6710129,6.8061117,6.0071508,2.0528509,.941705,4.2827115,1.4354502,6.5412148,1.4483813,4.3323269,.0555415,8.4638452-1.4184739,11.0358993-3.956347,1.6491899-1.627826,2.5250562-3.5376394,2.5250562-5.5243581v-15.5562145c0-1.2848258-1.0415584-2.3263827-2.3263827-2.3263827s-2.3263827,1.0415568-2.3263827,2.3263827c0,.3539478-.286929,.6408768-.6408768,.6408768s-.6408768-.286929-.6408768-.6408768c0-1.9927181,1.6154165-3.6081363,3.6081363-3.6081363s3.6081363,1.6154181,3.6081363,3.6081363v15.5861219c0,2.3370646-1.0040397,4.5630429-2.9053095,6.4386755-2.7386818,2.7045009-7.109463,4.3109663-11.6853229,4.3109663Z" fill="#ffe552"/>
      </g>
    </g>
  </g>
</svg>