<?xml version="1.0" encoding="UTF-8"?>
<svg xmlns="http://www.w3.org/2000/svg" xmlns:xlink="http://www.w3.org/1999/xlink" viewBox="0 0 50 50">
  <defs>
    <clipPath id="clippath">
      <rect x="-70" width="50" height="50" fill="none"/>
    </clipPath>
    <clipPath id="clippath-1">
      <rect width="50" height="50" fill="none"/>
    </clipPath>
  </defs>
  <g id="_6334a0f80d41f4cf23939af2" data-name="6334a0f80d41f4cf23939af2">
    <rect x="14.6214484" y="-30.6125622" width="105.7571031" height="44.6102689" fill="none"/>
  </g>
  <g id="lichthammer">
    <g clip-path="url(#clippath)">
      <path d="M7,26.7125607c-39.4376357-4.1453304-40.8364322-7.2696299-14.4606406-36.7528092C-38.3595281,14.9198349-41.4838275,13.5210384-44.2127902-26.0469305c-4.1730491,39.5679689-7.2973485,40.9667654-37.5601496,15.2270602,25.7397051,30.2628011,24.3409086,33.3871005-15.2270602,37.5601496,39.5679689,2.7289626,40.9667654,5.8532621,16.006682,36.7521495,29.4831793-26.3757915,32.6074788-24.976995,36.7528092,14.4606406,2.7566813-39.4376357,5.8809807-40.8364322,36.013117-15.2273918C-33.8364322,32.5935414-32.4376357,29.469242,7,26.7125607Z" fill="none" stroke="#ffd000" stroke-miterlimit="10"/>
    </g>
  </g>
  <g id="Heilendes_Licht" data-name="Heilendes Licht">
    <g clip-path="url(#clippath-1)">
      <rect width="50" height="50" fill="#0c162a"/>
      <polygon points="23.4980916 -15.5763359 -19.25 27.1717557 -9.8454198 36.5763359 36.75 -10.019084 23.4980916 -15.5763359" fill="#010711"/>
      <polygon points="41 -6 -9 44 2 55 56.5 .5 41 -6" fill="#010711"/>
      <polygon points="70 10.3599854 70 17.7099609 16.2199707 71.5 4.3200073 59.5999756 58.4099731 5.5 70 10.3599854" fill="#010711"/>
      <g>
        <polygon points="44.5 9.5 40 9.5 40 5 31 5 31 9.5 26.5 9.5 26.5 18.5 31 18.5 31 23 40 23 40 18.5 44.5 18.5 44.5 9.5" fill="#ffd000"/>
        <polygon points="41.5 11 38.5 11 38.5 8 32.5 8 32.5 11 29.5 11 29.5 17 32.5 17 32.5 20 38.5 20 38.5 17 41.5 17 41.5 11" fill="#ffe552"/>
      </g>
      <g>
        <polygon points="23.5 4.5 22 4.5 22 3 19 3 19 4.5 17.5 4.5 17.5 7.5 19 7.5 19 9 22 9 22 7.5 23.5 7.5 23.5 4.5" fill="#ffd000"/>
        <polygon points="22.5 5 21.5 5 21.5 4 19.5 4 19.5 5 18.5 5 18.5 7 19.5 7 19.5 8 21.5 8 21.5 7 22.5 7 22.5 5" fill="#ffe552"/>
      </g>
      <g>
        <polygon points="46.5 26.5 45 26.5 45 25 42 25 42 26.5 40.5 26.5 40.5 29.5 42 29.5 42 31 45 31 45 29.5 46.5 29.5 46.5 26.5" fill="#ffd000"/>
        <polygon points="45.5 27 44.5 27 44.5 26 42.5 26 42.5 27 41.5 27 41.5 29 42.5 29 42.5 30 44.5 30 44.5 29 45.5 29 45.5 27" fill="#ffe552"/>
      </g>
      <g>
        <polygon points="21 17.25 17.25 17.25 17.25 13.5 9.75 13.5 9.75 17.25 6 17.25 6 24.75 9.75 24.75 9.75 28.5 17.25 28.5 17.25 24.75 21 24.75 21 17.25" fill="#ffd000"/>
        <polygon points="18.5 18.5 16 18.5 16 16 11 16 11 18.5 8.5 18.5 8.5 23.5 11 23.5 11 26 16 26 16 23.5 18.5 23.5 18.5 18.5" fill="#ffe552"/>
      </g>
      <g>
        <polygon points="37 32.75 31.75 32.75 31.75 27.5 21.25 27.5 21.25 32.75 16 32.75 16 43.25 21.25 43.25 21.25 48.5 31.75 48.5 31.75 43.25 37 43.25 37 32.75" fill="#ffd000"/>
        <polygon points="33.5 34.5 30 34.5 30 31 23 31 23 34.5 19.5 34.5 19.5 41.5 23 41.5 23 45 30 45 30 41.5 33.5 41.5 33.5 34.5" fill="#ffe552"/>
      </g>
    </g>
  </g>
</svg>