<?xml version="1.0" encoding="UTF-8"?>
<svg xmlns="http://www.w3.org/2000/svg" xmlns:xlink="http://www.w3.org/1999/xlink" viewBox="0 0 50 50">
  <defs>
    <clipPath id="clippath">
      <rect x="-70" width="50" height="50" fill="none"/>
    </clipPath>
    <clipPath id="clippath-1">
      <rect width="50" height="50" fill="none"/>
    </clipPath>
  </defs>
  <g id="schmettern">
    <g clip-path="url(#clippath)">
      <path d="M8.2675318,50H-44.7324682v-1.5703704H-.7620979c3.0098785,.5234608,6.0197511,1.0469096,9.0296296,1.5703704Z" fill="#f48c06"/>
    </g>
  </g>
  <g id="spotten">
    <g clip-path="url(#clippath-1)">
      <rect width="50" height="50" fill="#161a1d"/>
      <path d="M58.9177746,22.7919754c-12.2347443,3.1062238-13.4471077,6.0263291-4.1533379,13.4125489-13.5237564-2.369777-16.5413798-.2734395-12.645857,10.9288065-11.1165612-8.2636824-15.319976-7.4214559-20.5065276,4.3170839-3.7866038-11.7385399-7.9900192-12.5807666-19.3707289-5.504712,4.1596711-10.0146189,1.142048-12.1109565-11.084607-10.6920694,7.9966693-6.4353298,6.7843063-9.3554347-3.5669227-12.4640028,10.351229-3.1250671,11.5635924-6.0451724,3.5399107-12.4723967C3.3833726,11.7280153,6.400996,9.6316779,2.2050623-.3990976c11.4169721,7.0922119,15.6203869,6.2499854,19.4030599-5.5262872C26.7986045,5.8508878,31.0020199,6.6931145,42.1545633-1.5901965c-3.9315047,11.2218753-.9138816,13.318213,12.6408461,10.9582966-9.3247421,7.3763591-8.112379,10.2964639,4.1223652,13.4238754Z" fill="#003049"/>
      <path d="M63.8273295,40.7890036c-12.2347443,3.1062238-13.4471077,6.0263291-4.1533379,13.4125489-13.5237564-2.369777-16.5413798-.2734395-12.645857,10.9288065-11.1165612-8.2636824-15.319976-7.4214559-20.5065276,4.3170839-3.7866038-11.7385399-7.9900192-12.5807666-19.3707289-5.504712,4.1596711-10.0146189,1.142048-12.1109565-11.084607-10.6920694,7.9966693-6.4353298,6.7843063-9.3554347-3.5669227-12.4640028,10.351229-3.1250671,11.5635924-6.0451724,3.5399107-12.4723967,12.2536684,1.4107815,15.2712917-.685556,11.075358-10.7163315,11.4169721,7.0922119,15.6203869,6.2499854,19.4030599-5.5262872,5.1904823,11.7762726,9.3938978,12.6184994,20.5464411,4.3351883-3.9315047,11.2218753-.9138816,13.318213,12.6408461,10.9582966-9.3247421,7.3763591-8.112379,10.2964639,4.1223652,13.4238754Z" fill="#03384f"/>
      <path d="M35.3239644,36.7796745c-8.3604086,2.1225863-9.1888569,4.1179916-2.8381142,9.1652418-9.2412336-1.6193476-11.3032762-.1868503-8.6413356,7.4680178-7.5963168-5.6468496-10.4686503-5.0713282-14.0127939,2.9500073-2.5875126-8.0213356-5.4598464-8.5968572-13.2366647-3.7615532,2.8424419-6.8433229,.7803995-8.2758203-7.5744815-7.3062474,5.4643907-4.3974754,4.6359427-6.3928803-2.4373972-8.5170686,7.0733398-2.1354625,7.9017882-4.1308678,2.418939-8.5228044,8.3733401,.964034,10.4353827-.4684633,7.5681613-7.3228265,7.8015976,4.8463448,10.673931,4.2708234,13.2587576-3.7762962,3.5468296,8.0471196,6.4191635,8.6226412,14.0400681,2.9623787-2.6865282,7.6682815-.6244858,9.1007789,8.6379115,7.4881693-6.3719071,5.040512-5.543459,7.035917,2.8169496,9.1729815Z" fill="#31627a"/>
      <path d="M58.1430742,30.8234112c-8.3604086,2.1225863-9.1888569,4.1179916-2.8381142,9.1652418-9.2412336-1.6193476-11.3032762-.1868503-8.6413356,7.4680178-7.5963168-5.6468496-10.4686503-5.0713282-14.0127939,2.9500073-2.5875126-8.0213356-5.4598464-8.5968572-13.2366647-3.7615532,2.8424419-6.8433229,.7803995-8.2758203-7.5744815-7.3062474,5.4643907-4.3974754,4.6359427-6.3928803-2.4373972-8.5170686,7.0733398-2.1354625,7.9017882-4.1308678,2.418939-8.5228044,8.3733401,.964034,10.4353827-.4684633,7.5681613-7.3228265,7.8015976,4.8463448,10.673931,4.2708234,13.2587576-3.7762962,3.5468296,8.0471196,6.4191635,8.6226412,14.0400681,2.9623787-2.6865282,7.6682815-.6244858,9.1007789,8.6379115,7.4881693-6.3719071,5.040512-5.543459,7.035917,2.8169496,9.1729815Z" fill="#08465b"/>
      <g>
        <path d="M22.0497081,3.912009c-.1657241,0-.332705,.0044911-.5000464,.0141022-1.3755536,.0785954-2.7629641,.4765126-3.5474816,.9757506l-.0007182,6.5705747c.2590506-.0084435,.5189085-.0132043,.7793065-.0127548,2.1002487,.0032339,4.231037,.2951596,6.1502027,.8544891l.0008991-7.8601676c-.6318168-.3159983-1.7226306-.5416345-2.8821606-.541904l-.0000014-.0000901Zm7.2523335,.8227814c-1.0711417,.0134735-2.0728519,.2123421-2.6917357,.5026512l-.0007182,6.970467v.6878666c3.4569387,1.4075316,5.8218068,3.815694,5.2757701,7.0748422l-.0862296,.5146871-.4995982,.1503638c-1.5674176,.4718423-3.1323189,.8715557-4.6910223,1.1977943v2.2666019c2.2960642-.0632351,4.61036-.2413549,6.9294173-.5477431l.0017955-17.7785451c-.7440959-.499687-2.1115657-.92006-3.4889175-1.0175182-.2507859-.017785-.5015746-.0245218-.7487669-.021378l.0000055-.0000896Zm-14.7978496,1.3794162c-.1056317-.0013473-.2132399-.0008981-.3222858,.0017965-.3750125,.0089822-.7664626,.0420372-1.15899,.1034765-1.4075309,.2204262-2.8273677,.7693364-3.6294,1.3834585l-.0008984,6.5530585c1.6893965-1.4201061,4.1951068-2.258427,6.9298668-2.563557l.0006291-5.2066972c-.432949-.1573703-1.0794969-.2619248-1.8189218-.2715357Zm23.2098009,.3107885c-.9704496,.0105094-1.861317,.173359-2.4290914,.4181273l-.0017955,16.4540119c2.2522298-.36109,4.5055369-.8454171,6.7477066-1.4693297l.1787475-14.2322326c-.7502033-.5299576-2.1241423-.990302-3.5075987-1.127552-.3321664-.0328754-.6645137-.0464385-.9880563-.0429356l.0000877-.0000894Zm-20.0103845,6.6650686c-4.8253076,.0630563-9.1087109,1.8292513-8.7925332,5.9822315,1.4224416-.3519276,2.7701508-.5293292,4.0366585-.5479227,3.1294434-.0458094,5.7678232,.8716448,7.8431914,2.4802913,3.1086048-.2793505,6.2743361-.898233,9.4684523-1.82467,.0125766-3.7085347-6.655726-6.1669979-12.5557704-6.0900198l.0000014,.0000898Zm-4.3902932,7.0646025c-.1164115-.00027-.2338098,.0010773-.3521072,.0040419-1.5499905,.0391634-3.2740589,.3619878-5.1707681,.99138,.520077,4.8332119,2.3645987,9.5580988,5.2546629,12.8758098,.5592403,.642236,1.1547679,1.2316576,1.7852374,1.7618831,2.6320915,.833741,6.2211625,1.1602468,9.9285281,1.0904561,.3392633-5.0125885-.7829893-9.7329826-3.250974-12.821378-1.9100924-2.390198-4.5867364-3.8974328-8.1947586-3.9022834l.0001795,.0000905Zm11.6164881,2.0014425c-.8405666,.1470401-1.6787976,.2709076-2.5146028,.3727661,.1383273,.156293,.2733322,.3161784,.4043844,.4801947,.2825837,.353634,.5473826,.7241551,.7970022,1.1078805,.8906879,.0129343,1.7846103,.0112279,2.6818537-.0095215h-1.368728v-1.9512321l.0000905-.0000877Zm17.2296369,1.3781591c-5.8749831,1.6011905-11.8083508,2.2824089-17.5918934,2.2738756,1.5268151,3.1567511,2.1403098,7.0145696,1.887457,11.0123368,3.8158728-.1868313,7.6376749-.7392467,10.6159444-1.4356459,2.3976527-2.9444076,4.2549292-6.9269941,5.0884893-11.8505679l.0000027,.0000014Zm-4.5448812,13.4437623c-3.4432849,.8214331-7.8999601,1.4422028-12.2943829,1.5677767-4.2818764,.1221584-8.4735705-.200126-11.627446-1.3708826l-.0008977,7.0897522c2.4420257,1.1288986,6.8637576,1.8148785,11.4361233,1.8232337,4.6011085,.0084429,9.3608442-.6443029,12.4854383-1.8659003l.0010773-7.2439798h.0000877Z" fill="#8d99ae" stroke="#edf2f4" stroke-miterlimit="10" stroke-width=".3496956"/>
        <path d="M20.4938456,28.7117988c-3.0306481,.2432517-3.1382482,.496935-1.2089515,2.8500168-2.2772283-1.9858206-2.5175599-1.8722427-2.7020408,1.1443374-.3464449-3.0165801-.5867765-3.130158-2.7828998-1.0516834,1.8481917-2.4457359,1.7405916-2.6994192-1.3061079-2.9402815,3.0466996-.3195594,3.1542997-.5732427,1.2648821-2.9887887,2.2373492,2.0482849,2.4776808,1.934707,2.8263064-1.0903367,.1823002,3.0250437,.4226317,3.1386216,2.740222,1.184265-1.9696586,2.3216178-1.8620585,2.5753011,1.1685895,2.8924711Z" fill="#a6b0bf"/>
      </g>
    </g>
  </g>
</svg>