<?xml version="1.0" encoding="UTF-8"?>
<svg id="schmettern" xmlns="http://www.w3.org/2000/svg" xmlns:xlink="http://www.w3.org/1999/xlink" viewBox="0 0 50 50">
  <defs>
    <clipPath id="clippath">
      <rect width="50" height="50" fill="none"/>
    </clipPath>
  </defs>
  <g clip-path="url(#clippath)">
    <rect width="50" height="50" fill="#161a1d"/>
    <path d="M-3.2444293,14.7463663v3.8789651c6.0225968,4.7973878,11.5750241,12.4073707,14.3296722,19.9957925l-4.6273323-4.7826001C3.8519914,29.1517143,.4040801,24.8777868-3.2444293,21.6644006v2.1056412c2.5685506,2.4890936,5.0079858,5.5354466,7.0472472,8.8484114l2.7102149,9.1237633-7.7212686-3.2576024,4.3545077,6.6721111-5.8736818-.4143382,5.2142549,4.0360916H10.9080688l-2.6608556-3.0459161,4.5635643,.9424602,.159698-4.7053119,3.7617296,3.3872654,3.7619154-5.8982126-.0785476,6.5880493,3.8432516-2.2581769-2.7305723,4.9898426h12.8394996l6.2020013-7.2936206-7.9188923,1.7072555,4.8832383-7.6030627-9.7022463,2.3788077,5.3274755-14.1203805-11.9708289,11.5411773c-2.1691194-7.638978-7.1322088-15.453144-12.3895945-20.6422888h-2.2512002c3.8957718,3.5974944,7.7852217,8.9161572,10.4807499,14.5666981l-.7668841,2.9957267c-3.3233504-6.7890995-8.4041209-13.1702709-13.0080285-17.5623515H-3.2444293v-.0000732Zm34.3616154,3.5785547l-5.5773392,4.0814726-.1975308,5.7206904,4.5868968-5.408698,1.1879731-4.3935378v.0000728Zm9.6383846,17.5850804l-3.2012057,4.1271471,3.2012057-1.2339846v-2.8931625Z" fill="#f48c06"/>
    <rect x="-3.5048974" y="47.9444904" width="31.6251798" height="2" fill="#f48c06"/>
    <path d="M78.2675318,50H25.2675318v-1.5703704h43.9703704c3.0098785,.5234608,6.0197511,1.0469096,9.0296296,1.5703704Z" fill="#f48c06"/>
    <polyline points="33.2910491 34.5450695 37.5334513 26.4459381 48.3322932 23.7462276 41.7758534 32.6167049 34.062395 34.5450695" fill="#f48c06"/>
    <polygon points="-.846431 31.9748818 3.3959712 36.2172839 4.9386629 32.3605547 6.4813546 41.6167049 4.167317 36.6029568 3.0102982 39.6883402 -.846431 31.9748818" fill="#f48c06"/>
    <polygon points="-8.8264588 .3968284 -4.2250922 11.0197006 3.1674265 12.2142742 -8.8264588 .3968284" fill="#f48c06"/>
    <polygon points="-7.8264588 -8.6031716 -3.2250922 2.0197006 4.1674265 3.2142742 -7.8264588 -8.6031716" fill="#f48c06"/>
    <polygon points="51.0358779 20.9311431 42.721653 22.9815727 46.1699579 18.3205376 51.0358779 20.9311431" fill="#f48c06"/>
    <polygon points="6.0505778 10.206792 -.4244306 4.6027878 5.372182 4.7266261 6.0505778 10.206792" fill="#f48c06"/>
    <polygon points="48.3047971 48.5588175 52.1615264 44.7020882 40.9770116 46.2447799 43.676722 40.4596861 38.1777726 48.4468479 48.3047971 48.5588175" fill="#f48c06"/>
    <g>
      <g>
        <rect x="34.6076966" y="-7.8923643" width="4.4981836" height="42.63976" transform="translate(56.225254 47.5388564) rotate(-139.6054581)" fill="#808da0" stroke="#edf2f4" stroke-miterlimit="10" stroke-width=".3518626"/>
        <rect x="4.5329712" y="27.4801279" width="25.2682622" height="17.9734852" rx="7.3535978" ry="7.3535978" transform="translate(6.6093093 75.3651359) rotate(-139.6054581)" fill="#8d99ae" stroke="#edf2f4" stroke-miterlimit="10" stroke-width=".3518626"/>
        <rect x="2.5110252" y="31.6332128" width="29.0833828" height="9.8508524" rx="2.578993" ry="2.578993" transform="translate(6.348337 75.452668) rotate(-139.6054581)" fill="#808da0" stroke="#edf2f4" stroke-miterlimit="10" stroke-width=".3518626"/>
        <rect x="9.4742102" y="30.2735326" width="15.1991228" height="12.6060445" rx="3.2349277" ry="3.2349277" transform="translate(6.3738173 75.4978732) rotate(-139.6054581)" fill="#9faabc" stroke="#edf2f4" stroke-miterlimit="10" stroke-width=".3518626"/>
        <path d="M20.2865211,27.3210687c-.0200009,.110446-.4135033,2.5229639,1.4307156,4.0537993,1.7945263,1.4895919,4.0219402,.7449987,4.1540322,.6982763,1.1088913-2.0580713,2.2177826-4.1161425,3.3266739-6.1742138-1.1419427-.9716818-2.2838763-1.943356-3.425819-2.9150378-1.8285312,1.4457279-3.6570715,2.8914481-5.4856027,4.3371759Z" fill="#9faabc" stroke="#edf2f4" stroke-miterlimit="10" stroke-width=".3518626"/>
        <g>
          <path d="M23.0056351,26.0556395l-.8720189,1.0248165,.8299114,2.5187882,.0241221-.0024419,2.5723513,.4449681,.9074076-1.0404992,.8720189-1.0248165-.8298334-2.5187218-2.5965514-.4425924-.9074076,1.0404992Zm.1788543,.1521875l1.968266-.7344078,1.5456782,1.3152214-.4098793,2.0604429-1.968266,.7344078-1.5456782-1.3152214,.4098793-2.0604429Z" fill="#bcaa5c" stroke="#52555b" stroke-miterlimit="10" stroke-width=".4280043"/>
          <polygon points="25.9320266 26.1365031 24.742954 27.5339285 26.2885543 28.8490836 26.6984336 26.7886407 25.9320266 26.1365031" fill="#ce9334"/>
          <polygon points="24.742954 27.5339285 23.5538814 28.9313539 24.3202883 29.5834914 26.2885543 28.8490836 24.742954 27.5339285" fill="#ba862b"/>
          <polygon points="23.1844893 26.2078271 22.7746101 28.26827 23.5538814 28.9313539 24.742954 27.5339285 23.1844893 26.2078271" fill="#af7828"/>
          <polygon points="23.1844893 26.2078271 24.742954 27.5339285 25.9320266 26.1365031 25.1527553 25.4734193 23.1844893 26.2078271" fill="#cc8b36"/>
          <polyline points="25.9319844 26.1364896 26.5095407 25.4577323 27.0191492 24.8588287" fill="none"/>
        </g>
        <rect x="3.7884703" y="42.142043" width="14.4649229" height="3.2967249" transform="translate(-8.9637825 84.2832658) rotate(-139.6054581)" fill="#9faabc" stroke="#edf2f4" stroke-miterlimit="10" stroke-width=".3518626"/>
      </g>
      <path d="M22.8574037,36.3073689c-3.4094791,.2736582-3.5305292,.5590519-1.3600704,3.2062689-2.5618819-2.2340482-2.8322549-2.1062731-3.0397959,1.2873796-.3897505-3.3936527-.6601235-3.5214278-3.1307623-1.1831438,2.0792157-2.7514528,1.9581656-3.0368466-1.4693714-3.3078167,3.427537-.3595043,3.5485871-.644898,1.4229924-3.3623873,2.5170179,2.3043205,2.7873909,2.1765454,3.1795947-1.2266288,.2050877,3.4031742,.4754607,3.5309493,3.0827498,1.3322981-2.2158659,2.61182-2.0948158,2.8972138,1.3146632,3.25403Z" fill="#a6b0bf"/>
    </g>
  </g>
</svg>