<?xml version="1.0" encoding="UTF-8"?>
<svg id="reflektor" xmlns="http://www.w3.org/2000/svg" xmlns:xlink="http://www.w3.org/1999/xlink" viewBox="0 0 50 50">
  <defs>
    <clipPath id="clippath">
      <rect width="50" height="50" fill="none"/>
    </clipPath>
  </defs>
  <g clip-path="url(#clippath)">
    <rect width="50" height="50" fill="#161a1d"/>
    <path d="M53.8203033,45.3517211c-9.6063156,1.4470557-11.0022342,2.5248994-2.0679873,4.7909125-10.6393669-.0893611-10.9485683,1.0094471-2.3667306,4.6601897-11.832556-2.2189148-14.774073-1.8858952-9.0416275,4.014108-10.4968009-4.730664-12.3196394-3.8943444-10.3571852,3.7312916-6.9228832-7.625636-9.8256718-8.4619556-16.8477202-1.6557881,1.48682-7.7386582-1.1456196-7.8348294-12.7792277-2.9284094,8.3828898-6.3382479,7.7646111-7.6739045-5.594117-6.7755571,11.083609-3.3716412,9.4267686-4.5092784-3.4459258-6.3947923,12.8726944-.2993817,14.5295348-1.2432181,4.6616125-5.6016674,12.24223,1.9676693,12.9596972,.5207258,6.6860186-6.1715086,9.5243969,5.2604066,12.057648,5.2755223,11.3885675-2.0702179,6.0022567,6.49791,8.8021818,5.6349639,14.5487135-1.4020592-.7861028,7.0370231,1.1395994,7.8999692,10.1023531,3.1590581-4.2371471,5.8795937-1.4372426,6.1553302,9.0012977,3.4640676-7.187822,4.1230903-6.7370082,5.2791817,3.296234,4.5773248-8.1865099,2.8615781-6.7905913,3.865208,2.8157243,4.6030478Z" fill="#003049"/>
    <path d="M47.424317,44.5165619c-7.3327929,1.1045816-8.39834,1.9273325-1.5785576,3.6570492-8.1213523-.0682121-8.3573751,.7705416-1.8065974,3.5572645-9.0321499-1.6937651-11.2774992-1.4395612-6.9017493,3.0640907-8.0125273-3.6110597-9.4039554-2.9726715-7.9059544,2.8482083-5.2844472-5.8208798-7.5002341-6.459268-12.8603772-1.2639134,1.134935-5.9071532-.8744863-5.9805636-9.7547731-2.2353439,6.3989147-4.8381773,5.9269638-5.8577246-4.2701596-5.1719888,8.4604558-2.5736762,7.1957391-3.4420693-2.63038-4.8813394,9.8261191-.2285271,11.0908358-.9489862,3.5583505-4.2759231,9.3448664,1.5019819,9.892531,.3974858,5.1036413-4.7109002,7.2702618,4.0154283,9.2039694,4.0269666,8.6932399-1.5802603,4.5817051,4.9600523,6.718973,4.3013393,11.1054755-1.0702344-.6000562,5.3715737,.8698909,6.0302867,7.7114334,2.4114051-3.2343432,4.4880727-1.097091,4.6985507,6.8709643,2.6442281-5.4866831,3.1472802-5.1425632,4.0297599,2.5161157,3.4940112-6.2490119,2.1843296-5.1834648,2.9504308,2.149328,3.5136464Z" fill="#f48c06"/>
    <path d="M25.5415736,6.4655261c-2.1353546-1.1276737-4.9163222-1.6952797-7.8146149-1.522812-4.840002,.2879684-9.8406292,2.5788454-12.5605515,7.3054335,.9209715,3.1264098,.7113917,6.4912306,.1731959,9.8892803,6.9064909-4.8363025,14.432142-4.9363848,18.7287224-2.2518826,.6426833-3.7500196,2.8021461-7.250883,4.6036934-10.6677708-.6281272-.9891223-1.5588198-1.841821-2.7111399-2.5181182-.1365177-.080066-.2769971-.1590999-.4193937-.2341784l.0000882,.0000482Zm-3.0896596,14.6690944c-3.3331-1.5975091-9.0473252-1.6584056-14.6334248,1.6183505-.4899215,6.1794835-.3462619,12.9358996,.930603,18.1232069,3.2343256,.5144387,7.8490637,.7610026,12.5096306,.6004509,.4498142-4.9460153,2.9965836-8.832592,6.2617481-11.2274272-.8757949-.4249597-1.6276834-.9412427-2.2586022-1.5530508-.2059654-.1997304-.3957705-.4102299-.5753208-.6270914l.0017774,.0752979c-.5918875,.0195623-1.599078,.2980026-2.5552382,.7757915-.9560719,.4778368-1.8791433,1.1493391-2.4346815,1.8236728l-1.4402644-1.1844025c.7957272-.9663173,1.9015934-1.7383321,3.0406524-2.3076105,.781521-.3904484,1.5718074-.6885354,2.3244956-.8474208-.3205615-.6616187-.5696635-1.3673819-.7499741-2.1121523-2.1794019-.1530516-5.019158,.8448613-6.1843713,2.34273l-1.4722749-1.1449946c1.64399-2.1134531,4.640692-3.1601703,7.3359666-3.080788-.046236-.4154443-.0780609-.8401063-.1007229-1.2745599l.0000015-.0000027Zm16.1729404,9.074704c-.0644158-.0346605-.1303231-.0701288-.196063-.1025556-1.0522699-.5188357-2.2643635-.7304236-3.564107-.6747758-5.1677533,.2211114-11.428512,5.0557783-11.8071508,12.8488564l.2916302,.9807424-1.1919998,.0530574c-5.4084995,.2423437-10.7709441-.0424896-14.4450275-.7268945l.2337627,2.1552242c9.7059469,1.4116905,23.5762466,1.0158675,33.4001145-.7248594,1.4167892-5.4295218,.9900949-9.144396-.3022088-11.3991044-.6273416-1.0949237-1.451197-1.8871488-2.418817-2.4097327l-.0001336,.000042Z" fill="#8d99ae" stroke="#edf2f4" stroke-miterlimit="10" stroke-width=".3451594"/>
    <path d="M26.2555174,10.7112262c-3.3794483,.2712478-3.4994322,.5541278-1.3480909,3.1780281-2.5393168-2.2143707-2.8073083-2.087721-3.0130213,1.2760403-.3863176-3.3637613-.6543091-3.490411-3.1031865-1.1727226,2.0609019-2.727218,1.940918-3.010098-1.4564292-3.2786814,3.3973472-.3563378,3.5173311-.6392177,1.4104586-3.3327714,2.4948479,2.284024,2.7628395,2.1573743,3.1515887-1.2158246,.2032813,3.373199,.4712728,3.4998487,3.0555968,1.3205632-2.1963486,2.5888151-2.0763647,2.8716951,1.3030836,3.2253684Z" fill="#a6b0bf"/>
  </g>
</svg>