<?xml version="1.0" encoding="UTF-8"?>
<svg id="_Шар_1" data-name="Шар 1" xmlns="http://www.w3.org/2000/svg" xmlns:xlink="http://www.w3.org/1999/xlink" viewBox="0 0 50 50">
  <defs>
    <clipPath id="clippath">
      <rect width="50" height="50" fill="none"/>
    </clipPath>
  </defs>
  <g clip-path="url(#clippath)">
    <rect width="50" height="50" fill="#161a1d"/>
    <g>
      <path d="M50.6921445,32.8512287c-.1051019-1.0978844-.6090708-2.1919085-.0448415-2.9822964,.5470121-.2519845,1.0595896,.5728379,1.4183322,1.0359842,.3849428,.4102151,.7512895,.8541496,1.0884116,1.3203123,1.6856104,2.3308129,2.6406045,5.2173262,2.5415542,8.3147429-.2377206,7.4338001-6.4567168,13.2673751-13.8905169,13.0296546-.6969188-.0222863-1.379773-.0971424-2.0448788-.2206409s-1.312463-.2956393-1.9383876-.512495c-4.857347-.8969573-9.0526624-4.5343175-10.5215261-9.1623984-.9562861-3.8032585-.0281603-7.5462566,1.6989621-10.9942272,.2950276-.7989965-.7989965-.2950276-1.3287913-.5814465,2.9072327-6.6439566,11.295529-7.7230979,17.1146633-4.3032876,7.39991,4.5482689,8.1237633,15.6199737,.4311601,20.2245631-4.3933137,2.5542792-10.2899255,1.5572843-13.1134064-2.844638-1.2771396-2.1966568-1.7380654-4.6366895-1.1221844-7.0422877,.5986638-1.8671948,1.9963241-3.4393619,3.9151706-4.4559084,3.8290844-1.7638913,8.0674428,.5274604,9.3015393,4.0701258,.355288-2.6834085-2.2850775-4.384705-4.1522722-4.9833688-2.9181757-1.4407034-6.4608412-.206607-8.439948,2.6943515-3.6631861,5.0029205-1.1863846,11.8190496,4.4065911,13.8842427,4.5161688,2.0307586,9.9604634,.3185191,13.042203-3.3556101,2.5347275-3.4221447,3.2108689-7.7121549,2.0690471-11.5048427-.1973793-.7605461-.4173155-1.4383209-.4308813-1.6305293Z" fill="#003049"/>
      <path d="M49.8593246,35.135765c-.077636,.3970413-.4499047-1.3309955-.0331233-2.2029446,.4040635-1.0822248,.7826912,.2239128,1.047685,.7652545,.2843472,.7043788,.554958,.4099166,.8039812,.9752802,.6225582-.0263556,1.1101946,2.6103735,1.4330458,2.8585905,.3228511,1.6935183,.480917,1.8202037,.4443341,3.2832932-.0292663-.3739176-.1812608,1.3595023-.4396831,2.3000952-.2584223,1.296886-.6232723,2.1205206-1.0782499,2.6747235-.4549776,.6298152-1.0000827,.4213001-1.619015,2.0622243-.6189323,.5599952-1.3116918,1.50489-2.0619781,1.3906396-.7502862,.4527348-1.5580991,1.3290068-2.4071387,.7582965-.8490395,.0519908-1.7393055,.219009-2.6544978,.4386869-.5147957-1.4401485-1.0192024-.3779866-1.5104986-.1629817-.4912963-1.4286164-.9694822,.0566341-1.4318364-.3785667-1.1959986,.4598698-2.3376609-.0983748-3.3685081-1.2894454-1.0308473-.7483953-1.9508793-2.0624745-2.7036172-2.3517452-.3763688-.4911128-.7109141-.8280427-.996576-1.2645838s-.5224404-.9726932-.7032755-1.8622503c-.1765959-.6446797-.2661939-1.2320683-.2813217-1.8572427-.0151278-.6222941,.0442147-2.3287247,.1654998-2.3017475,.1212851-1.1025035,.3045128-2.2002801,.5371555-2.072202,.2326427-1.5869851,.5147004-1.2804058,.8336455-1.8899567,.2179292-.4048566-.5901979,.5579598-.9815435-.4294994,.3579162-1.4787098,.8282968-1.9139567,1.3836117-2.4803355,.5553149-.9979471,1.1955643-2.1789093,1.8932179-1.0863476,.6976537-.236778,1.4527116-1.3186457,2.2376438-.7041238,.7849322-1.0331457,1.5997387-.3372263,2.4168893-.2971311,.8171505-.0492867,1.6366451-.4133037,2.4309539,.131948,.7943088-.078241,1.5634317,.5481192,2.2798387,1.2572637,.9110201-.3925624,1.6850561,1.9939704,2.3161561,1.7269262,.6311,.2988947,1.1192641,1.9733788,1.4585405,2.8835929,.3392764,1.7699873,.529665,3.2556912,.565214,3.0604939,.035549,.9630112-.0837415,1.6620839-.3638233,2.630091-.2800818,1.8073112-.7209549,1.6272187-1.328571,2.4358311-.6076162,.750391-1.3819754,1.2168182-2.3290295,2.2024221-.5408711,.2212972-1.1125879-.3642069-1.6995,.7114739-.5869122,.118975-1.1890196,.8891921-1.7906721,.3048981-.6016525-.2160232-1.2028499-.6313871-1.7879418,.1872257-.5850919,.2820347-1.1540783-.5652936-1.6913089-.8956535-.5372304,.6895735-1.0427049-.3920169-1.5007731-1.0542109-.4580682,.3328712-.8687302-.848697-1.2163354-1.3549932-.4716948-1.3555809-.7926607-1.3587948-.938836-2.5430998-.1461753-.9558484-.1175599-1.1991209,.1099077-2.6588544,.2211087,.3296125,.5897668-2.009801,1.080323-1.8813635,.4905562,.1148585,1.1030105-1.5126191,1.8117114-1.4100998,.7071112,.515316,1.4331174-1.3913594,2.1386203-.2656602,.7055029,.4641077,1.3905026,.3149505,2.0156006,.2989775,.6250981,.5318901,1.1902946,1.7448996,1.6561913,1.3399048,.4658967,.3876754,.8324935,2.13723,1.0603922,1.6332737,.131221-.5530291-.2907608-2.5396528-.9179538-2.4180222-.627193-.3892373-1.4595973-2.1107816-2.1492213-1.2630623-.5388951-.224597-1.106621-.7102816-1.6779239-.5611335-.5713029,.0442782-1.1461827,.0225628-1.6993854,.353605-.5532027,.7557047-1.0847284,.7258104-1.5693231,.7318513-.4845947,.3286466-.9222583,.7166248-1.287737,1.4659244-.4509834,1.3323144-.775982,1.590487-.9853368,2.1120523-.2093548,1.4404819-.3030656,.2736687-.2914734,1.8503475,.0115922,1.0120211,.1284876,2.1261645,.3403452,2.2175262,.2118577,.1644735,.5186776,2.043647,.9101191,1.5602843,.3914414,.9216892,.8675043,2.0104656,1.4178478,1.2626482,.5503435-.1896624,1.1749678,.8554317,1.8635319,1.2530693,.833994-.607395,1.7108369-.1919773,2.5925484,.3179216,.8817115,1.0912512,1.7682916,.2810438,2.6217599,.022997,.8534684,1.0448738,1.673825,.1992362,2.4230895-.9156095,.7492646-1.4946651,1.4274371-.3898026,1.9965373-1.9040108,.4680843-.3362279,.850363-.3866801,1.147305-1.6141749,.296942-.5981175,.5085473-1.7525423,.6352847-2.5323473,.1267374-.5577004,.168607-.9873833,.1260777-2.2850547-.0425294,.0579438-.1694578-.5881391-.3803163-2.0667504-.1457989-.8487787-.30826-1.3128083-.3182808-1.2044294Z" fill="#669bbc" opacity=".56"/>
    </g>
    <g>
      <path d="M-4.2315426,46.797883c.1134453,1.0970537,.6257168,2.1872148,.0675126,2.9818693-.5450806,.2561357-1.0639139-.564766-1.4261671-1.0251717-.3880502-.4072767-.7577613-.8484134-1.0984176-1.3119996-1.7032812-2.317931-2.680192-5.1971007-2.6046922-8.2951809,.1811995-7.4353925,6.3556673-13.3160778,13.7910598-13.1348783,.697068,.0169875,1.3804717,.0866501,2.0464971,.2050887s1.3146726,.285653,1.9422278,.4977439c4.8640256,.8600042,9.0868721,4.4653652,10.5908775,9.0821456,.9851721,3.7958786,.0855285,7.5458245-1.6153313,11.0068255-.2889448,.8012163,.8012163,.2889448,1.3331733,.5713278-2.8566392,6.6658664-11.2364891,7.808747-17.0814537,4.4332745-7.4342736-4.4918809-8.2422767-15.5577628-.5849013-20.2207008,4.3737683-2.5876048,10.2777892-1.6354667,13.1346533,2.7448634,1.2938024,2.1868841,1.7732648,4.6233422,1.1756897,7.033553-.5844515,1.871692-1.9701193,3.4544392-3.8811822,4.4855441-3.815564,1.7929502-8.0712196-.4661139-9.3322129-3.9992949-.3348775,2.686032,2.3183454,4.3672064,4.1900374,4.9516579,2.9290441,1.4184769,6.4622251,.1574836,8.4192208-2.7584369,3.6250464-5.0306246,1.096498-11.8277273-4.5120163-13.8503411-4.5314768-1.9963665-9.9625971-.2427872-13.0163157,3.4546642-2.508638,3.4413156-3.1521458,7.7363421-1.9815238,11.5202398,.2031555,.7590236,.428238,1.4351068,.4432647,1.6272065Z" fill="#003049"/>
      <path d="M-2.931167,45.3550775c.0936095,.3135901,.5163107,1.5901693,.0557081,2.4604916-.4497736,.8625129-.8778893,.2101499-1.1768027-.8459211-.3201999,.3524145-.6252673-.6249707-.90636-1.0825974-.7027319-.3170692-1.2556224-1.9203369-1.6250427-3.1809844-.3694203-1.5445575-.5553702-2.0018426-.5242209-3.6637899,.049839-2.071892,.6491613-4.6179939,1.653341-5.5699524,.5020899-.4935192,1.1053942-1.1038175,1.7918347-1.7716169s1.4560171-1.3930999,2.2906517-2.1166236c.8346344-1.4168941,1.7343266-1.5790219,2.6809986-1.2004303,.9466719,.8319001,1.9403236-.1376087,2.9628766-.1796308,.5751862,1.0997899,1.1390972,.1087079,1.6886685,.1692291,.5495713-.5013113,1.084803,.0228398,1.6026306,.4107138,.6689257,.1234964,1.3231551,.0776425,1.9547511,.7255077,.631596-.6446219,1.2405587,.7590767,1.818951,.6862454,.5783924-.0406409,1.1262145,.7267967,1.6355294,1.1916026,.5093149-.0884735,.9801225,.9288014,1.4044859,1.4124265,.4243631,.3248056,.8022821,1.754072,1.1258198,1.6497589,.3235378-.2434582,.5926944,1.4518305,.7995328,1.8285977,.4064577,.9926831,.4241012,2.466174,.164697,4.6447666-.2594042,1.9034653-.795856,2.7431519-1.4975888,4.4375232-.238423-.4923144,.6611242,.3878052,1.1000689,.4714316-.3928595,.7528422-.9123157,1.4872841-1.5275855,2.3742349-.6152698,1.3238427-1.3263531,.6122226-2.102467,1.637713-.7761149,.5430674-1.61726,.6722862-2.4926524,.9242186-.8753924,.8275722-1.7850322,.3668214-2.6981364,.2337498-.913104-.7104608-1.8296723,.7696944-2.718922-.4751136-.8892497-.4502003-1.7511807-.5583575-2.5550101-1.0366831-.7667995,.2987136-1.4481666-1.6323265-2.0411375-1.6209308-.5929708-.9166298-1.0975453-.9037166-1.5107596-2.0087183-.4132142-1.5769393-.7350682-1.7749054-.962598-2.4262087-.2275298-.9977913-.3607353-.4560893-.3966527-2.2337747-.0359174-1.3384783,.0254534-1.8102017,.1870763-2.2364681,.1616229-.276007,.4234979-1.5897293,.788589-2.4499802,.3650911-1.1634961,.8333982-.9825476,1.4078853-2.1934109,.5744871-.3742606,1.2551542-1.9267459,2.0449653-1.5156338,.601503,.3782316,1.2380807,.3977818,1.8922468-.6420573,.654166,.6571357,1.3259204-.1854256,1.9977768-.5229086,.6718564,.3524045,1.3438148-.395797,1.9983889,.0244588,.654574,.2855082,1.2917637-.3916361,1.8940826,.737335,.6023188,.6488948,1.1697668,.794097,1.6848578,1.3810162,.515091-.4426652,.9778249,.5210382,1.3707155,1.2870819,.533791,2.4021034,.8995936,1.5166373,1.0703124,2.8327663,.1707187,.432057,.1463535,2.071506-.1001912,2.9709749-.2411303,.992043-.6475416,1.2470717-1.1907847,2.1107291-.5432431,.532071-1.223318,.2472624-2.0117755,1.5905207-.7871038,.2180102-1.596904,.198891-2.3851164,.0857094-.7882124-.6431967-1.5548369,.960291-2.2555893-.087647-.7007524-1.1094409-1.3356328-.1118423-1.860357-1.8359779-.5247241-.1024273-.939292-.6862796-1.1994194-1.4621054-.1381622,.6169123,.3400839,1.7529837,1.045924,2.6932272,.7058401,2.5559273,1.6392743,1.9453544,2.4114883,1.3926368,.6042257-.3889766,1.2396079-1.0194525,1.8780357,.0951549,.6384278,.4154006,1.2799013-.1331457,1.8963096,.1079811,.6164083-.9178681,1.2077514,.1492111,1.7459184-.9359817,.538167-.8939181,1.023158-1.5753067,1.4268621-1.5432805,.498535-1.5210556,.8560243-1.7235029,1.0842096-2.0922944,.2281854-.8277219,.3270668-.8248382,.3083859-2.3447-.0186808-.2145825-.154924-1.7298019-.3969876-2.3019518-.2420637-1.2745587-.5899479-1.3432626-1.031911-1.9073869-.441963-.5364239-.9780048-.9157041-1.5963837-1.7797074-.6183789-1.0572758-1.319095-.7260556-2.0904065-1.0025782-.6231919-.4391469-1.2670044-.4860498-1.9189187-.4684172-.6519143-.0973186-1.3119304-.2347686-1.9675296-.2026582-.6555992-.0488495-1.3067815,.3244366-1.941028,.2680943-.6342465-.3802165-1.2515573,1.38703-1.8394135,.7925035-.5878561,.886088-1.1462577-.4594411-1.662686,.7905726-.5164283,.5807101-.9908833,.6154813-1.4108463,1.6705236-.5175011,.4434624-.9388139,1.3155328-1.2645958,2.2887687-.325782,.9219757-.5560331,1.982038-.691411,2.3581926-.1353779-.252451-.1758826,2.1417296-.1221715,2.3488751,.053711,1.5482494,.2016378,2.1017563,.4431227,2.5100976,.1676339,.2342945,.3533609,.1082479,.3657602,1.3426905Z" fill="#669bbc" opacity=".56"/>
    </g>
    <g>
      <path d="M29.6319873-.920391c1.4533805-.4251346,3.104979-.3397294,3.825402-1.4616862,.0427026-.8257992-1.2700356-1.0592832-2.0432733-1.2808194-.7190914-.2819002-1.471706-.5229165-2.2377784-.7153495-3.830362-.9621648-7.9971699-.7097465-11.8960725,.9940382C7.9228989,.7048753,3.6521117,11.6053764,7.741195,20.9627426c.3833516,.8772531,.8265691,1.7097999,1.3227687,2.4949434s1.0453812,1.5228835,1.6406609,2.2105231c3.617472,5.7365263,10.3919156,9.2332651,17.0410119,8.7490867,5.3363581-.7176624,9.6361646-3.8073463,13.1528744-7.765532,.8685018-.7830966,.7830966,.8685018,1.4181144,1.3981434,6.9907171-7.0905722,4.0945752-18.3356326-3.229481-24.0136115C29.5191746-3.0825292,15.0335909,1.633261,13.0803137,13.7867652c-1.0193412,6.9025514,3.2549731,13.9132395,10.3056033,15.2714409,3.4512757,.5096706,6.7971751-.1453182,9.5507594-2.1557479,2.0758638-1.714272,3.3686311-4.2970459,3.6875202-7.2613826,.2989182-5.7805945-4.7812244-10.0177274-9.9268011-9.787004,3.2405233-1.8196483,6.7544725,.680481,8.4687446,2.7563448,3.3231679,2.9870682,3.5538913,8.132645,.8629807,12.1335333-4.5133195,7.21868-14.4656127,7.532048-19.947289,1.4525353-4.8893611-4.7240719-5.4789158-12.5378276-2.3637397-18.3383932C16.7905655,2.8833256,21.9161712-.1636557,27.3335431-.6393681c1.0702549-.1356728,2.0464607-.2004298,2.2984441-.2810229Z" fill="#003049"/>
      <path d="M29.1753272,.3203214c1.2639428-.0984768,2.7002673-.6524268,3.3267884-1.2711659,.0371366-.7181622-1.1044956-.4094934-1.7769473-1.1138739-.6253631,.4404432-1.2798797-.5540458-1.9461001-.6221088-1.6655509-1.6910457-3.40425,.2670777-5.1504-.4371871-1.74615,.4481556-3.4997508-.3193482-5.1951051,1.3016596-1.0172126,.6397046-1.9653068,1.1599014-2.8387227,1.7181017s-1.6721535,1.1544044-2.390653,1.9461236c-.7184995,.8920545-1.3567609,1.2177254-1.9092242,2.5181285-.5524634,1.3027518-1.0191288,1.8187676-1.3944363,2.6862968-.3753075,.9700204-.6592573,1.2271681-.8462893,2.6607143-.187032,.8903341-.2771464,.7055645-.2647833,3.4027608,.0123631,1.7503129,.1272038,1.8235749,.3500818,3.5978212,.222878-.200086,.5537934-.4243223,.998306,2.6435541,.3333844,.0516339,.7188318,1.093862,1.1503553,2.1697455,.4315235,2.1167121,.9091233,2.3926783,1.4268126,1.9223974,1.0486536,2.5823918,2.4023608,3.0038225,3.9553998,4.2834481,.7765196,1.5017377,1.6028721,2.6033104,2.4658423,2.2356633,.8629703-.3474997,1.7625583,.7180581,2.685549,.4127344,.92299-.6730862,1.8693825-.8044756,2.8259622,.6059025,.9565797-.7026513,1.9233466,.1610857,2.8870854,.0709579,.7734671,.7136077,1.521894-.9340494,2.2463013-.4779105,.7244073,.3286995,1.4247949-1.2786389,2.1021833-.7853974,.6773884,.4669031,1.3317777,.2901931,1.9641881-1.0853151,.6324105-.2272985,1.2428422-1.6294602,1.8323156-1.2626575,.5894733-.7917238,1.1579882,.0847706,1.7065654-1.4808994,.5485771-.7113747,1.0772165-.8478063,1.5869384-1.661171,.7552989,.6567543,.6810256,1.0467945,1.2332734,1.2159055,.7599409-.363254,1.3855353-2.9604471,1.8860555-2.6880236,.5005202,.092128,.8759661-2.3443144,1.13561-2.4820851,.259644-.8113754,.4034859-1.7808066,.4407982-3.02408,.0373123-1.7081578-.0319051-2.0040468-.1983798-2.7082935-.3329495-1.9173871-1.0549286-4.3140167-2.0917589-5.5020348-1.0368303-2.0460227-2.3885119-3.7934198-3.9808664-4.4790932-.8320854-.0953409-1.7069372-.6625333-2.6093799-1.6511756-.9024427-.1240942-1.8324764-.97759-2.7749255-.8589302-.9424491-.0292745-1.8973137-.2027367-2.8494184-.3100935s-1.9014493-.1486081-2.8328586,.0865395c-.9314092,.0531831-1.844883,.2115363-2.725246,.512349s-1.727615,.744085-2.5265808,1.3671063c-.798966,.3661324-1.5496456,2.0083024-2.2368634,1.198729-.6872178,.0053266-1.3109739,2.4450856-1.8560928,2.6001943-.5451187,.3645138-1.0116002,1.5616694-1.3842691,2.3233173-.3726689,1.1996319-.6515251,.6015619-.8213932,3.21153-.1477462-1.0277487-.1676129,2.0524132-.0697352,3.32007,.0978777,.3235398,.3134997,1.581792,.6367307,2.528584,.3232311-.0208529,.7540712,2.5030749,1.2823851,2.7215642,.5283139,.7071635,1.1541016,1.1420795,1.8672279,2.0765034,.7131259,.212021,1.5135901,.9837534,2.3912575,1.6571621,.8776674,1.42699,1.8325378,.6686377,2.8544761,.9770349,.7503567-.5682437,1.4949858-.2701556,2.2272706,.1399264,.7322848-.58647,1.4522254,.6243371,2.1532049-.2554485,.7009795,.1883283,1.382998-.3023966,2.0394388-.6663779,.6564408,.1015931,1.2873038-.5553253,1.8859724-1.0928617,.902645,1.2304911,1.6350335,.1659991,2.1764264-2.7497839,.2706964,.5076543,.4936439-1.1628124,.6662501-1.7948166,.1726062-.1348759,.294871-2.1839928,.3642021-1.7703131,.0433261-.497296-.0432906-2.4640994-.2384564-2.3899369-.1951658-1.6387372-.4988806-1.0663867-.8897509-2.0955781-.3908703-1.7112821-.868896-2.009519-1.4126834-2.0052817-.5437874-1.5887635-1.1533366-.8946103-1.8072538-1.020218-.6539171-1.8126689-1.3522022,.5443821-2.0734616-.4987203-.7212595-.9301641-1.4654933-1.2161831-2.2113079-.5016036,.7045361,.0139555,1.4239339-1.8986498,2.1300232-1.2312189,.7060893,1.3714301,1.3988702,.5942295,2.0501724,1.1593464,.6513023-1.2497531,1.2611259-.7066896,1.8013008,.8396126,.5401749,.5604375,1.0107011,.8384536,1.3834083,1.629335,.4816695,1.3544355,.8886344,.45793,1.2215823,1.4419937,.3329479-.7120938,.591879,1.9277647,.7774808,1.6750583,.1856018,.4306181,.2978744,1.7810467,.3375056,1.7943756,.0396311,.491947,.0066208,1.0976866-.0983433,1.9357513-.1049641,.9817792-.281882,.0043716-.5300659,1.8143867-.2481839-.1325536-.5676339,.6802972-.9576622,1.890449-.4906301,.23346-1.0551671,1.1183067-1.6767791,1.8263409-.621612,.2672529-1.300299,1.1985236-2.0192291,1.7629698-.7189301,.2520117-1.4781032,.6426205-2.2606874,1.194788-.7825843-.5677587-1.5885796,.3136864-2.4011542,.1843311-.8125747-1.3405995-1.6317285-.0423563-2.4406296,.0781885-.8089011-.9535283-1.6075494-1.2165596-2.3791131-.8674824-.7715637,1.0300743-1.5160428-1.5149279-2.2166052-.8971872-.7005625-2.2572346-1.3572084-1.8358184-1.9531058-2.0187409-.708678-1.9466733-1.313485-1.5569028-1.8168169-2.2575303-.5033318-.5049873-.9051885-1.3289278-1.2079659-2.5820871-.3027774-1.5051843-.5064755-1.7454639-.6134902-2.859527-.1070147-.8237727-.117346-2.1088065-.0333898-2.7852345,.0839562-.3963853,.2621998-1.2574439,.532335-2.5710354,.2701352,.7853575,.632162-.4959637,1.0836845-2.8927014,.4453331-.4426943,.9402641-1.5996657,1.4777012-2.0872371,.5374372,1.7899849,1.1173805-1.2637244,1.7327385-1.6595407,.615358-1.6290534,1.2661307-1.7684262,1.9452264-1.5460267,.6790957-.6656442,1.3865144-1.2334037,2.1151646-.9587185,1.4573-1.2868362,2.9995257-.3534569,4.5699443-1.1383543,.9307549,.7849851,1.7797193-.7613432,1.9988585-.2443936Z" fill="#669bbc" opacity=".56"/>
    </g>
    <g>
      <path d="M.9727826,4.81081c-.1289692,3.7279744,.3475751,7.4724748,1.3982368,11.1813131l5.9064418-.9905312c-.3102262-1.6998552-.4796957-3.4152799-.4201712-5.1320092l.0275446-.791781h5.765918V4.81081H.9727826Zm35.7854099,0v4.2669902h5.3576505l.0268456,.7921294c.058122,1.7015945-.0574239,3.4216299-.3569138,5.131836l5.8457503,.9863558c1.0560311-3.7090997,1.5231197-7.4481195,1.3959016-11.1773988h-12.2691166l-.0001175,.0000873Zm-15.3654318,.1177713v3.9824785h7.592963v-3.9823915h-7.592963v-.0000869Zm-5.5607357,1.3652421v4.4094643h-5.7936959c.009804,1.5936522,.1979473,3.1994816,.5322167,4.8027024l.1563967,.7509002-5.8609238,.9827033c.3676501,1.1838014,.8029938,2.3636012,1.3039314,3.5380962l4.7969551-.5390172,5.9295514,9.3129758-3.7049779,2.4765883c.8280878,.9931406,1.7070636,1.9779303,2.6394937,2.9531534l4.9598895-2.7369212,.6575685,.6012065c1.1269936,1.029846,2.324248,2.0501254,3.5908317,3.0382199,1.2690325-.9793986,2.464538-1.9648838,3.5789263-2.9864665l.6565177-.6020771,4.8809913,2.6864711c.9395484-.9841819,1.8254128-1.9786257,2.6596839-2.9814231l-3.6628432-2.4484938,5.9294357-9.3131497,4.7417484,.532928c.5028067-1.174495,.940015-2.354555,1.3095342-3.5383577l-5.7932311-.9776586,.1572123-.7503786c.3332205-1.5886081,.4738596-3.1986123,.4695427-4.8019193h-5.3902128V6.2939976h-3.4103909v4.2428973h-11.955041V6.2939979h-3.3798125l.0007017-.0001745Zm-1.6240782,6.8933595h21.6399899l.0256773,.7932602c.2037834,6.353039-3.2574955,12.0011869-10.050965,17.3877889l-.793424,.6288682-.7948238-.6276499c-6.8345536-5.3985177-10.2585987-11.0426654-10.0523648-17.3890935l.0256773-.7932602,.0002333,.0000863Zm2.1568791,1.6256606c.0954715,5.3223224,2.9292936,10.0562233,8.661717,14.7920368,5.7014924-4.7272025,8.5633248-9.4679744,8.6637009-14.7921244H16.3648258v.0000876Zm-6.6737215,7.2132737l-6.3277799,.71089,6.1082408,9.5944446,4.7563404-3.1793902-4.5370336-7.1259444h.0002324Zm30.6678414,0l-4.5371494,7.1258594,4.7564552,3.1793902,6.1083574-9.5943597-6.3277808-.71089h.0001175Zm-19.9283778,12.4399159l-4.9841652,2.7503154c2.791105,2.8451236,5.9886085,5.6105745,9.5880759,8.2836514,3.5869796-2.6740351,6.7344143-5.4310477,9.5178151-8.2796512l-4.9195054-2.7075207c-1.1979561,1.0630741-2.4500663,2.1027467-3.8272932,3.1293755l-.7699622,.5738951-.771248-.5728519c-1.3924003-1.0341966-2.6424108-2.1089236-3.8335976-3.1773888l-.0001193,.0001752Z" fill="#8d99ae" stroke="#edf2f4" stroke-miterlimit="10" stroke-width=".3728867"/>
      <ellipse cx="6.458649" cy="6.1824958" rx="4.5510589" ry=".4124536" fill="#a6b0bf"/>
      <path d="M38.3160612,13.6066606c-.1446228-.0622187-1.0039905,4.790654-4.0453857,10.31134-2.8282752,5.1338283-5.820499,7.7176201-5.730963,7.8366184,.0989135,.1314658,3.921241-2.7954091,6.7423094-8.249072,2.566879-4.962271,3.177479-9.8371758,3.0340393-9.8988864Z" fill="#a6b0bf"/>
      <path d="M23.9483533,19.1986046c-2.4151437,.23717-2.5008909,.4845108-.9634215,2.7787617-1.8147385-1.9361718-2.0062603-1.8254336-2.1532744,1.1157271-.2760843-2.9411607-.4676061-3.0518989-2.2177115-1.0253896,1.4728364-2.3845885,1.3870891-2.6319293-1.0408461-2.8667696,2.4279353-.3115698,2.5136825-.5589107,1.007993-2.9140641,1.7829586,1.9970744,1.9744804,1.8863362,2.2523025-1.0630765,.1452762,2.9494127,.3367981,3.0601509,2.1837013,1.1546564-1.5696341,2.2635736-1.4838869,2.5109144,.9312568,2.8201546Z" fill="#a6b0bf"/>
      <path d="M48.2206673,8.474811c-2.4151437,.23717-2.5008909,.4845108-.9634215,2.7787617-1.8147385-1.9361718-2.0062603-1.8254336-2.1532744,1.1157271-.2760843-2.9411607-.4676061-3.0518989-2.2177115-1.0253896,1.4728364-2.3845885,1.3870891-2.6319293-1.0408461-2.8667696,2.4279353-.3115698,2.5136825-.5589107,1.007993-2.9140641,1.7829586,1.9970744,1.9744804,1.8863362,2.2523025-1.0630765,.1452762,2.9494127,.3367981,3.0601509,2.1837013,1.1546564-1.5696341,2.2635736-1.4838869,2.5109144,.9312568,2.8201546Z" fill="#a6b0bf"/>
    </g>
  </g>
</svg>