<?xml version="1.0" encoding="UTF-8"?>
<svg id="reflektor" xmlns="http://www.w3.org/2000/svg" viewBox="0 0 50 50">
  <rect width="50" height="50" fill="#161a1d"/>
  <g>
    <ellipse cx="25" cy="25" rx="22.1087433" ry="21.4718659" fill="#003049"/>
    <ellipse cx="25" cy="24.5723614" rx="17.9942129" ry="17.4758611" fill="#03384f"/>
    <ellipse cx="25" cy="24.4494393" rx="11.3378171" ry="11.0112133" fill="#0a3f56"/>
    <ellipse cx="25" cy="24.4494393" rx="6.2357994" ry="6.0561673" fill="#0c5068"/>
  </g>
  <path d="M13.1986154,17.6746046c.3673875,7.4603341,3.7529342,14.9206682,10.2993215,21.5156292,6.5160312-6.5828222,9.9622902-14.0583344,10.3387957-21.5186685-6.1668426,1.1477523-14.4682353,1.1629303-20.6381172,.0030393Zm0,0c.3673875,7.4603341,3.7529342,14.9206682,10.2993215,21.5156292,6.5160312-6.5828222,9.9622902-14.0583344,10.3387957-21.5186685-6.1668426,1.1477523-14.4682353,1.1629303-20.6381172,.0030393Zm0,0c.3673875,7.4603341,3.7529342,14.9206682,10.2993215,21.5156292,6.5160312-6.5828222,9.9622902-14.0583344,10.3387957-21.5186685-6.1668426,1.1477523-14.4682353,1.1629303-20.6381172,.0030393Zm0,0c.3673875,7.4603341,3.7529342,14.9206682,10.2993215,21.5156292,6.5160312-6.5828222,9.9622902-14.0583344,10.3387957-21.5186685-6.1668426,1.1477523-14.4682353,1.1629303-20.6381172,.0030393Zm0,0c.3673875,7.4603341,3.7529342,14.9206682,10.2993215,21.5156292,6.5160312-6.5828222,9.9622902-14.0583344,10.3387957-21.5186685-6.1668426,1.1477523-14.4682353,1.1629303-20.6381172,.0030393Zm0,0c.3673875,7.4603341,3.7529342,14.9206682,10.2993215,21.5156292,6.5160312-6.5828222,9.9622902-14.0583344,10.3387957-21.5186685-6.1668426,1.1477523-14.4682353,1.1629303-20.6381172,.0030393Zm0,0c.3673875,7.4603341,3.7529342,14.9206682,10.2993215,21.5156292,6.5160312-6.5828222,9.9622902-14.0583344,10.3387957-21.5186685-6.1668426,1.1477523-14.4682353,1.1629303-20.6381172,.0030393Zm0,0c.3673875,7.4603341,3.7529342,14.9206682,10.2993215,21.5156292,6.5160312-6.5828222,9.9622902-14.0583344,10.3387957-21.5186685-6.1668426,1.1477523-14.4682353,1.1629303-20.6381172,.0030393Zm0,0c.3673875,7.4603341,3.7529342,14.9206682,10.2993215,21.5156292,6.5160312-6.5828222,9.9622902-14.0583344,10.3387957-21.5186685-6.1668426,1.1477523-14.4682353,1.1629303-20.6381172,.0030393Zm0,0c.3673875,7.4603341,3.7529342,14.9206682,10.2993215,21.5156292,6.5160312-6.5828222,9.9622902-14.0583344,10.3387957-21.5186685-6.1668426,1.1477523-14.4682353,1.1629303-20.6381172,.0030393Zm24.8859793-5.3986351c-8.1920883,1.8066183-20.9447923,1.827875-29.130802,0l-1.169009-.2611409,.0060786,1.1993652c.0789483,11.2132683,5.1071566,22.4477933,15.0421114,32.0487562l.6619238,.6406856,.6619238-.6406856c9.8772818-9.5766668,14.9996165-20.8202913,15.0876642-32.0487562l.009118-1.1963258-1.169009,.2581016Zm-2.2985068,4.2509014c-.0698488,8.6657594-4.0262138,17.3315188-11.6231878,24.7007659l-.6619238,.6406671-.6619238-.6406671c-7.6455475-7.3844252-11.5260221-16.0471452-11.5897737-24.7007659l-.0060786-1.1993652,1.1659511,.2611224c6.2215133,1.3906572,15.9894722,1.3754791,22.2140063,0l1.1720298-.258083-.0090994,1.1963258Zm-22.5874725,1.1477337c.3673875,7.4603341,3.7529342,14.9206682,10.2993215,21.5156292,6.5160312-6.5828222,9.9622902-14.0583344,10.3387957-21.5186685-6.1668426,1.1477523-14.4682353,1.1629303-20.6381172,.0030393Zm0,0c.3673875,7.4603341,3.7529342,14.9206682,10.2993215,21.5156292,6.5160312-6.5828222,9.9622902-14.0583344,10.3387957-21.5186685-6.1668426,1.1477523-14.4682353,1.1629303-20.6381172,.0030393Zm0,0c.3673875,7.4603341,3.7529342,14.9206682,10.2993215,21.5156292,6.5160312-6.5828222,9.9622902-14.0583344,10.3387957-21.5186685-6.1668426,1.1477523-14.4682353,1.1629303-20.6381172,.0030393Zm0,0c.3673875,7.4603341,3.7529342,14.9206682,10.2993215,21.5156292,6.5160312-6.5828222,9.9622902-14.0583344,10.3387957-21.5186685-6.1668426,1.1477523-14.4682353,1.1629303-20.6381172,.0030393Zm0,0c.3673875,7.4603341,3.7529342,14.9206682,10.2993215,21.5156292,6.5160312-6.5828222,9.9622902-14.0583344,10.3387957-21.5186685-6.1668426,1.1477523-14.4682353,1.1629303-20.6381172,.0030393Zm0,0c.3673875,7.4603341,3.7529342,14.9206682,10.2993215,21.5156292,6.5160312-6.5828222,9.9622902-14.0583344,10.3387957-21.5186685-6.1668426,1.1477523-14.4682353,1.1629303-20.6381172,.0030393Zm0,0c.3673875,7.4603341,3.7529342,14.9206682,10.2993215,21.5156292,6.5160312-6.5828222,9.9622902-14.0583344,10.3387957-21.5186685-6.1668426,1.1477523-14.4682353,1.1629303-20.6381172,.0030393Zm0,0c.3673875,7.4603341,3.7529342,14.9206682,10.2993215,21.5156292,6.5160312-6.5828222,9.9622902-14.0583344,10.3387957-21.5186685-6.1668426,1.1477523-14.4682353,1.1629303-20.6381172,.0030393Zm0,0c.3673875,7.4603341,3.7529342,14.9206682,10.2993215,21.5156292,6.5160312-6.5828222,9.9622902-14.0583344,10.3387957-21.5186685-6.1668426,1.1477523-14.4682353,1.1629303-20.6381172,.0030393Z" fill="#8d99ae" stroke="#edf2f4" stroke-miterlimit="10" stroke-width=".3378847"/>
  <path d="M34.0454398,26.0629215c-5.977122,.8102947-6.4251987,1.811102-3.1784739,7.0914266-4.6956088-3.8314406-5.6964161-3.3833639-7.0913935,2.6964753-.8159451-6.0798392-1.8167524-6.5279159-6.8635144-2.9467831,3.597878-5.0300169,3.1498014-6.0308242-2.93294-6.8644311,6.0827414-1.3773156,6.5308181-2.3781229,2.6972696-7.0778353,5.2824324,3.2508284,6.2832397,2.8027517,7.0758782-3.1776837,1.418284,5.9804354,2.4190913,6.4285121,7.3455726,2.932166-3.4775973,4.9452301-3.0295206,5.9460374,2.9476014,7.3466652Z" fill="#780000"/>
  <g>
    <polygon points="7.972467 4.124788 24.3042351 26.4498431 10.6094443 16.4635575 12.4377294 16.7812734 8.3435905 13.244556 10.2048132 12.7945 3.7353452 5.9963882 8.694529 8.3070297 3.0898209 2.6243112 7.972467 4.124788" fill="#780000"/>
    <polygon points="9.2278793 6.430383 21.8583203 23.6958309 11.267229 15.972773 12.6811633 16.2184838 9.5148938 13.4833053 10.9543009 13.1352471 5.9510316 7.8778157 9.7862978 9.6647883 5.4518048 5.2699647 9.2278793 6.430383" fill="#c1121f"/>
  </g>
  <path d="M28.7713441,24.3265789c-3.138929,1.2740602-3.2431945,1.8810173-.7407154,4.3012102-3.0887787-1.4299476-3.5708126-1.046654-3.4822235,2.4555719-1.2914526-3.1940216-1.8984097-3.2982871-4.1449118-.6464343,1.2562568-3.2381523,.8729632-3.7201862-2.5525906-3.3257751,3.1173495-1.5972746,3.2216151-2.2042317,.4808094-4.2267372,3.3271051,1.0322602,3.8091335,.6489665,3.4066981-2.715214,1.6053044,3.0559763,2.2122615,3.1602419,4.4051426,.5712838-1.2026358,3.1752576-.8193421,3.6572859,2.6277911,3.5860948Z" fill="#c1121f"/>
  <path d="M41.9418382,5.9828712c-4.0400765-3.5112884-9.106602-3.7655225-9.1558136-3.6085286-.0479342,.1529207,4.6863535,.6262884,8.8162015,4.277524,3.9929389,3.5301922,5.0678856,7.9507681,5.2020152,7.8871392,.1408926-.0668386-.826367-5.0483578-4.8624031-8.5561346Z" fill="#003049"/>
  <path d="M43.3343965,3.1939291C39.1706379-.169771,34.0982463-.2416043,34.0547134-.082942c-.0424029,.1545459,4.7058478,.4573212,8.9643536,3.957649,4.1173315,3.3842872,5.3505849,7.7633381,5.4823391,7.6949259,.1383973-.0718631-1.0074151-5.0153678-5.1670096-8.3757038Z" fill="#003049"/>
  <path d="M47.2573993,36.4799806c2.2869005-4.8395713,1.160501-9.7858366,.9960475-9.7907248-.1601867-.0047608,.6653434,4.6809683-1.7319873,9.6448349-2.3178557,4.7993086-6.2825613,7.0304765-6.1850075,7.1423812,.102474,.1175466,4.636334-2.16176,6.9209473-6.9964913Z" fill="#003049"/>
  <path d="M45.0152702,44.4979869c3.8962558-3.6702255,4.6539-8.686229,4.5025889-8.750834-.1473854-.0629282-1.0899794,4.600662-5.1344285,8.3462726-3.9103702,3.6214394-8.4160357,4.2507082-8.3660839,4.3905088,.0524719,.1468497,5.1055644-.3193923,8.9979235-3.9859473Z" fill="#003049"/>
  <path d="M39.0363362,14.6435802c-.7779803,.5267943-1.1853228,.9341367-2.1582808,2.1462096-.0320067-1.2120729-.4393492-1.6194153-2.1165813-2.1454103,1.6772321-.4789698,2.0845746-.8863122,2.1173789-2.1440941,.9721604,1.2577819,1.3795029,1.6651243,2.1574832,2.1432948Z" fill="#a6b0bf"/>
  <path d="M30.9797573,35.2299331c2.6420182-4.0898747,3.7856076-7.9395433,3.6392993-8.0064585-.145231-.066421-1.5187644,3.6138271-4.7310891,8.3703884-2.9864345,4.4220741-5.5646917,6.8167448-5.458949,6.9146687,.1192535,.1104351,3.6152376-2.7344001,6.5507388-7.2785986Z" fill="#a6b0bf"/>
  <path d="M11.6914709,25.22186c1.2266059,3.522678,1.9832338,4.8243817,1.8196497,4.9130541-.2242993,.1215858-2.0676247-2.0975894-2.9114394-5.095019-.5616908-1.9952563-.5756763-3.9630079-.3639299-4.0032292,.1815957-.034496,.4718411,1.3596061,1.4557197,4.1851942Z" fill="#a6b0bf"/>
  <path d="M23.5858289,29.0065254c-.6545971-1.4086407-.9349229-1.4426371-1.9865747-.2417569,.584872-1.4469447,.3984155-1.6590127-1.2034633-1.5390842,1.4334769-.6638105,1.4674733-.9441363,.2021214-1.9128596,1.5114165,.5019435,1.7234845,.315487,1.4652385-1.2443492,.802128,1.3914343,1.0824538,1.4254307,1.9465796,.1244174-.397346,1.5470778-.2108896,1.7591433,1.3206582,1.4986132-1.3631458,.8044147-1.3971422,1.0847405-.1618087,2.0303326-1.481398-.4788123-1.6934635-.2923559-1.582751,1.2846868Z" fill="#f48c06"/>
  <g>
    <polygon points="21.1402108 27.9294745 13.3033566 34.5933354 13.3519937 32.7136992 9.7499579 38.0786461 9.6661786 36.1380628 5.2634121 42.3341955 4.6393664 40.3205157 .3141466 49.6541003 11.2884526 42.9126927 10.071135 41.679376 13.8018587 40.8214662 11.3044516 40.4620584 18.8014334 36.9360863 14.0677208 37.6372416 21.6239381 28.912928 21.1402108 27.9294745" fill="#780000"/>
    <polygon points="21.9166905 27.329844 16.1584285 32.2262293 16.1941654 30.8451346 13.5475082 34.7871207 13.48595 33.361244 10.2509424 37.9139581 9.7924142 36.4343725 6.6143853 43.2923827 14.6779434 38.3390187 13.7834986 37.4328183 16.5247113 36.8024544 14.689699 36.5383734 20.198234 33.9476054 16.7200581 34.4627912 22.2721173 28.0524532 21.9166905 27.329844" fill="#c1121f"/>
    <path d="M11.6095426,37.5658541l1.0929982-2.2475439,.4369544,.6400447c3.0582163-2.9681627,6.1164352-5.9363257,9.1746515-8.9044884-6.1936885,6.3745449-8.5841845,9.1630053-9.3309689,10.3248963-.0828846,.1289585-.3827547,.6069773-.8899079,1.1705448-.9783577,1.0871839-2.052403,1.7418557-2.8568149,2.1379993,.7910281-1.0404859,1.5820595-2.0809669,2.3730876-3.1214528Z" fill="#f48c06"/>
  </g>
  <polygon points="13.1960795 14.9964218 22.281058 25.442561 18.0714697 19.3618412 9.4256103 8.7705436 13.1960795 14.9964218" fill="#f48c06"/>
</svg>