<?xml version="1.0" encoding="UTF-8"?>
<svg id="_Шар_2" data-name="Шар 2" xmlns="http://www.w3.org/2000/svg" xmlns:xlink="http://www.w3.org/1999/xlink" viewBox="0 0 50 50">
  <defs>
    <clipPath id="clippath">
      <rect width="50" height="50" fill="none"/>
    </clipPath>
  </defs>
  <g clip-path="url(#clippath)">
    <rect width="50" height="50" fill="#161a1d"/>
    <g>
      <g>
        <path d="M39.7778406,7.6675275c4.6447631,.556347,13.1372851,17.7503733,7.7349922,29.8630871-5.0224049,11.2609526-19.1810614,11.6881768-21.2491264,11.717219-10.0681357,.1414007-21.5810332-5.0364705-21.9050717-8.8088522-.3524772-4.1034839,12.9385519-1.8361981,23.2114148-11.5613057,9.9498483-9.4193202,8.1971466-21.6905413,12.2077911-21.2101481Z" fill="#3e4344"/>
        <path d="M30.2849115-1.3738078c4.6447631,.556347,13.1372851,17.7503733,7.7349922,29.8630871-5.0224049,11.2609526-19.1810614,11.6881768-21.2491264,11.717219-10.0681357,.1414007-21.5810332-5.0364705-21.9050717-8.8088522-.3524772-4.1034839,12.9385519-1.8361981,23.2114148-11.5613057C28.0269686,10.4170202,26.2742669-1.854201,30.2849115-1.3738078Z" fill="#2e3335"/>
        <path d="M20.5661855-10.1893462c4.6447631,.556347,13.1372851,17.7503733,7.7349922,29.8630871-5.0224049,11.2609526-19.1810614,11.6881768-21.2491264,11.717219-10.0681357,.1414007-21.5810332-5.0364705-21.9050717-8.8088522-.3524772-4.1034839,12.9385519-1.8361981,23.2114148-11.5613057C18.3082427,1.6014817,16.5555409-10.6697394,20.5661855-10.1893462Z" fill="#282d30"/>
        <path d="M10.7695028-19.9860289c4.6447631,.556347,13.1372851,17.7503733,7.7349922,29.8630871C13.4820901,21.1380108-.6765664,21.5652351-2.7446314,21.5942772c-10.0681357,.1414007-21.5810332-5.0364705-21.9050717-8.8088522-.3524772-4.1034839,12.9385519-1.8361981,23.2114148-11.5613057C8.51156-8.1952009,6.7588583-20.4664221,10.7695028-19.9860289Z" fill="#1e2326"/>
      </g>
      <path d="M29.685356,29.145346c9.0438776-9.7981977,10.4976081-11.8620149,11.6842665-11.3401832,2.3552332,1.0357124,2.1231731,11.581877-3.6830099,18.4150497-6.4238854,7.5601369-18.3050789,8.9676804-19.5936117,6.6294199-.610115-1.1071584,1.3817188-2.6420191,11.5923551-13.7042865Z" fill="#8d99ae" stroke="#edf2f4" stroke-miterlimit="10" stroke-width=".416685"/>
      <path d="M30.4796816,30.2044468c8.1202066-8.9784555,9.352246-10.7643185,10.326233-10.326233,1.9949912,.8973191,1.5616772,10.519742-3.955314,16.6965623-5.60422,6.2744807-15.3207986,7.7246639-16.4323769,5.8093303-.5509349-.9493017,1.2069824-2.389332,10.0614578-12.1796595Z" fill="#a6b0bf"/>
      <ellipse cx="6.5175254" cy="-13.0862994" rx=".9361217" ry="24.7136134" transform="translate(11.1623501 .7756981) rotate(-45)" fill="#a6b0bf"/>
      <ellipse cx="-7.5155605" cy="14.7150972" rx=".561673" ry="32.2025871" transform="translate(-12.6064018 -1.0043516) rotate(-45)" fill="#a6b0bf"/>
      <path d="M24.6465735,45.7055514c-6.8419156,.0589337-12.0487021-5.9031021-14.5626363-8.7375818C-3.5044193,21.6470074-19.5093858,6.2703204-19.8356612,6.5188209c-.3237745,.2465976,13.8202145,16.6197954,29.6548231,32.8321256,4.394462,4.4992877,10.4017232,10.4936124,16.680838,9.2671322,4.2723101-.8344988,7.6537553-4.8132315,7.2813182-5.4278917-.3712695-.612733-4.2573373,2.473353-9.1347446,2.5153645Z" fill="#a6b0bf"/>
      <g>
        <ellipse cx="35.9784999" cy="36.8094963" rx="4.7918777" ry="1.250055" transform="translate(-15.4903858 36.2218931) rotate(-45)" fill="#8d99ae" stroke="#edf2f4" stroke-miterlimit="10" stroke-width=".3744487"/>
        <path d="M41.4770886,42.5131228c-2.3929461-1.3116697-4.7858833-2.6233397-7.1788248-3.9350051l3.1535011-3.326293c.1060359,.291918,.2120628,.5838362,.3180986,.8757541,1.2357418,2.1285177,2.4714879,4.2570307,3.7072251,6.385544Z" fill="#8d99ae" stroke="#edf2f4" stroke-miterlimit="10" stroke-width=".3744487"/>
      </g>
      <path d="M48.2196204,51.6512385c-7.3768818,6.5336058-19.865033,1.5729108-19.8581405,.2647752,.0062501-1.1865554,10.2922069,.7524212,16.9456132-5.8250545,5.7270971-5.6617356,4.9507249-13.8651521,5.8250545-13.7683107,1.079793,.119598,4.3837496,12.8663778-2.9125273,19.3285901Z" fill="#a6b0bf" opacity=".67"/>
      <path d="M45.9278287,48.8117178c-10.4638294,9.2238592-29.0577871,.910788-28.9516826-.3377817,.1009936-1.1883755,17.1650216,3.7584011,26.0391554-5.2224976,9.0263156-9.1349067,3.7320511-26.7615388,4.4099934-26.8153023,.7643284-.0606152,10.1183497,22.1362447-1.4974661,32.3755817Z" fill="#525656"/>
      <ellipse cx="23.0659758" cy=".2848485" rx=".9361217" ry="23.0285943" transform="translate(6.5544496 16.3935381) rotate(-45)" fill="#003049"/>
      <ellipse cx="-8.7070489" cy="9.8167559" rx=".9361217" ry="23.0285943" transform="translate(-9.4917303 -3.2815521) rotate(-45)" fill="#669bbc"/>
      <ellipse cx=".5600833" cy="27.0271443" rx=".9361217" ry="23.0285943" transform="translate(-18.9470324 8.312106) rotate(-45)" fill="#003049"/>
      <path d="M18.0352469,35.2351757c-.6498216-.7689333,9.8750252-7.2174232,8.7375818-14.5626363-.6201427-4.0046563-4.3951448-6.2626956-7.1489306-8.2080314C3.2696658,.9115079-2.9782004-17.9171601-2.8819944-17.9846407c.0857602-.0601538,5.1119763,14.8579026,18.7990396,21.9763421,4.2015085,2.1851429,8.8714521,3.4545011,12.1796595,8.4728066,.6823024,1.0350034,3.5395645,5.369255,2.6477521,10.5910083-1.4788521,8.6589888-12.0964203,12.9047733-12.7092099,12.1796595Z" fill="#a6b0bf"/>
      <path d="M16.2433012,31.324673c-.6759379-.742817,6.1273598-3.4697579,3.6288099-9.4538644-1.3622262-3.2625728-4.8046213-5.8532191-7.3811475-7.9758145C-2.8105575,1.2892828-11.816872-14.7809369-11.7565557-14.8125278c.0537673-.0281609,7.2488539,12.721025,19.4956904,21.2796914,3.7594031,2.6272483,7.6837394,4.6422139,11.3669003,9.2855658,.7596351,.9576707,3.9407397,4.9680797,4.3893789,8.8493815,.7439561,6.4361805-6.614695,7.423048-7.2521126,6.7225622Z" fill="#003049"/>
      <ellipse cx="1.4867965" cy="9.4195931" rx=".561673" ry="12.7312554" transform="translate(-6.2251855 3.8102589) rotate(-45)" fill="#669bbc"/>
      <g>
        <path d="M45.4686685,26.3360186c.7798052-7.5627871-5.2611249-12.6906793-8.1290892-15.171129C21.8376269-2.2424767,6.5265708-18.3130741,6.8351131-18.6993912c.3061794-.3833563,16.9122432,13.5277667,33.1640307,29.322918,4.5102379,4.3835118,10.5032112,10.3921244,8.492687,17.4552832-1.3679626,4.8057739-6.1155489,8.9560727-6.7555121,8.6089385-.6379566-.3460459,3.1764495-4.9604339,3.7323498-10.3517299Z" fill="#a6b0bf"/>
        <path d="M46.6309692,26.7623691c.8126598-6.1658896-4.2828428-11.5853596-7.4137058-14.8274116C23.9626061-3.8614474,10.9195082-14.3891889,11.0517746-14.5771972c.1374095-.195317,14.9253791,10.1561125,29.8890568,26.4272551,4.3654699,4.7469085,8.9177442,10.1845087,7.6540219,15.7315565-1.0270443,4.508174-5.5734785,7.6747519-5.9355122,7.3887861-.3477457-.2746796,3.3615979-3.5795397,3.9716281-8.2080314Z" fill="#84b0bf" opacity=".31"/>
      </g>
      <polygon points="41.0706899 37.6181526 45.5718684 46.3557344 45.3070932 41.8545559 44.5554732 42.2986949 43.9832171 40.0011294 43.1888915 39.7363542 41.0706899 37.6181526" fill="#f48c06"/>
      <polygon points="35.7709152 42.3798357 44.508497 46.8810142 40.0073185 46.616239 40.4514575 45.8646191 38.153892 45.292363 37.8891168 44.4980374 35.7709152 42.3798357" fill="#f48c06"/>
    </g>
  </g>
</svg>