<?xml version="1.0" encoding="UTF-8"?>
<svg id="letzte_ansterngung" data-name="letzte ansterngung" xmlns="http://www.w3.org/2000/svg" xmlns:xlink="http://www.w3.org/1999/xlink" viewBox="0 0 50 50">
  <defs>
    <clipPath id="clippath">
      <rect width="50" height="50" fill="none"/>
    </clipPath>
  </defs>
  <g clip-path="url(#clippath)">
    <rect width="50" height="50" fill="#161a1d"/>
    <g>
      <g>
        <path d="M42.1653271,23.453116s-.513894-2.1271-1.1990861-4.9632332c-.6851921-4.1100316-1.5416822-4.379572-2.2268742-9.2174336-.6851919-1.9300196-1.1990857-4.9632318-1.1990857-4.9632318-2.0821275,.128971-4.1693146-1.5338497-6.2577666-1.7557992-2.088452-.0787324-4.1781688-1.4092258-6.2653559-.5170288-2.0875766,.6373723-4.1726235,.2727181-6.2505674,.6177302-2.0779439-.4242945-4.1487848,1.3413238-6.2079495,1.6550978,0-1.169689-.5134617,3.6228501-1.1980773,4.9630312-.6846157,2.4160659-1.5403852,5.2252871-2.2250008,9.2170584-.6846154,2.7254196-1.198077,5.7911536-1.198077,4.9630298,0,1.0363122,2.1082021,1.7660067,4.2164042,0,2.1082021,1.7468093,4.2164042-.9863046,4.2164042,0-.9126316,.8708142-1.0634399,4.115961-.7482022,6.8796792,.3152376,1.0005648,1.0965212,4.1025446,2.0480734,6.1190234,0,.8066201,.5672343-.1698739,1.1344686-3.2286607,.5672343-.601194,1.1344686-3.1605761,1.1344686-3.2286607,0,.9917189,.6291142,.8562826,1.2582284,3.5115972,.6291142,.7634146,1.2582284,4.338207,1.2582284,3.5115972,0,.8435641,.6489617-.6858784,1.2979234-3.2341098,.6489617-1.3050823,1.2979234-3.2038445,1.2979234-3.2341098,0,1.5174714,.6489617,2.6168965,1.2979234,3.2761398,.6489617,.7527631,1.2979234,3.3798783,1.2979234,3.2761398,0-.9591882,.6489629-2.5414615,1.2979258-3.5536273,.6489629-.5942334,1.2979258-2.947467,1.2979258-3.5536273,0-.1770747,.5672331,2.7363641,1.1344662,3.268358,.5672331,1.2426075,1.1344662,3.268358,1.1344662,3.268358,1.0725875-1.9463031,1.706956-5.7748565,1.9184773-6.5386592,.2115213-2.1449544,.0001954-5.1338158-.6186061-6.5386592,0-.7729913,2.0883546-.6209906,4.1767092,0,2.0883546,.5566554,4.1767092,0,4.1767092,0Zm-29.7966068-3.7509432c0-1.9050156,.3638861-1.1054205,.7277722-3.3617605,.3638861-2.314655,.7277722-3.0204023,.7277722-3.3617605,0,.0399814,0-.0407448,0-.0007791,1.8260446,1.7435122,3.4890216,2.3941509,4.9048679,1.9344339,1.4158463,.4044651,2.584562,2.6229612,3.4220839,3.9110885,0-1.9090753-2.445624,1.2870717-4.8912481,.4393888-2.445624-.9109969-4.8912481,1.2962529-4.8912481,.4393888Zm14.8146305,7.7034804c0-.2954713-2.1171549-4.0149578-2.1171549-2.7974455,0-.1387909-2.1171549,3.0742399-2.1171549,2.7974455,0,1.3366597-1.8128114-1.6643583-1.8128114-1.3722586,0-.4300741,3.025506-3.3439786,3.025506-3.9945719,0-.1111468,.9044602-2.6767588,.9044602-1.1932308,0,.7676502,.9044602,1.8071872,.9044602,1.1932308,0-.3776779,3.025506,2.9710038,3.025506,3.9945719,0-.9847311-1.8128114,.9602383-1.8128114,1.3722586Zm.8056063-8.582258c.9157481-1.415189,2.129609-2.1981707,3.5489585-3.7238941,1.4193494-.8827969,3.0441872-.6246766,4.781889-2.1208492,0,.9337799,.3638849,1.0152274,.7277698,3.3613709,.3638849,2.9692533,.7277698,2.0761363,.7277698,3.3613709,0-.9259758-2.4465968,1.4168126-4.8931935-.4389992-2.4465968,.1398118-4.8931935,.2901717-4.8931935-.4389992Z" fill="#8d99ae"/>
        <path d="M34.735049,45.9758968c-6.3724774,2.4207146-12.7013665,2.6246459-19.5081684,0,.0147868-1.5485572-.0046724-2.9706311,.2427511-4.3592354,.2474234-1.3886042,.7617294-4.2263887,1.8440465-4.1584169,.0443626,1.2872039,.0895092-.3969863,.1362139-.1743531,0,.351012,.0396926-.9469123,.0396926,.140884,0-.1793468,.4642959,2.0021276,.9285918,3.2718594,.4642959,1.6359297,.9285918,3.2718594,.9285918,3.2718594,0,0,.7534572-1.5571204,1.5069143-3.1142408,.7534572-.4657458,1.5069143-2.0133528,1.5069143-3.1142408,0,.1883815,.6337842,1.8015271,1.2675684,3.6030542,.6337842,1.8015271,1.2675684,3.6030542,1.2675684,3.6030542,0,0,.6335894-1.8215706,1.2671788-3.6431412,.6335894-1.8215706,1.2671788-3.3394262,1.2671788-3.6431412,0,.7418995,.7108428,1.5773575,1.4216856,3.154715l1.4216856,3.154715,2.0673384-6.6098779c2.0424301,2.4098211,2.7180507,5.184691,2.3942481,8.6165062Z" fill="#8d99ae"/>
      </g>
      <path d="M17.5557759,14.7697377c.0082322,.674207-2.1572772,.5763531-5.0702888-.8988313-2.9130118-.4271928-6.573526-1.7584367-9.555303-.7842447-2.9817763-1.0841156-5.2848156-.6902546-5.4828795,1.0127936-.1815848,1.8250038,1.4361397,2.2226476,3.6770986,3.0208185,2.2409591,1.6152448,5.1051528,1.4225879,7.4165059,3.1979835,2.3113526,.4077098,4.0698649,.5459424,4.0994627,1.3777316,.0354168-.4398499-2.4219264-.2112998-4.8324464-2.2129192-2.41052-.6459889-4.7742167-1.7930118-4.5515069-3.5961948,.255551-1.8813532,3.8252117-1.381012,7.333574-1.2959243,3.5083623-.4544937,6.9554262,1.2711169,6.9657834,.178787Z" fill="#c1121f"/>
      <path d="M34.5362628,30.6330873c-.0077208,1.4349632,1.760552,.1401488,4.1437551-.3456144,2.3832033-.4096168,5.381337-1.5528438,7.8333377-1.0445163,2.4520001-2.4139211,4.3578674,1.0962582,4.5565392-2.6315636,.2587301-1.8910803-2.4559412-4.3946636-5.2185241-4.9026843-2.7625829-2.1918906-5.5730774-3.4203753-5.505994-2.6938494,.0528158-.8988317,1.871243,.8294862,4.2513212,1.2683659,2.3800784,1.403442,5.321808,1.334869,7.6212283,3.3799327,2.2994197,1.5192737,3.9565305,.7070425,3.7673727,3.8419449-.210161-.021226-2.6605068,.0919908-5.8352077,2.6246828-3.1747011,2.1635545-7.0737575-.5648942-10.1813389,.710282-3.1075807-1.4846539-5.4236868,.6242641-5.4324895-.2069803Z" fill="#c1121f"/>
      <path d="M14.4277915,41.3576053c.0626702-.4115864-2.7042782-1.3339914-5.3881279-3.166144-2.6838497-.2133523-5.2846005-5.154504-4.8895353-5.7709544,.3651544-1.2382545,3.1718135-1.6348616,5.8802761-3.0837735,2.7084626-1.9862224,5.3187287,.0782181,5.2910968-.9379208-.02236-.6543145-1.7656177-.1475083-4.1137789-.5381688-2.3481613-1.8904365-5.3012261-1.0207599-7.7431998,.4025735-2.4419732,.9914665-4.3728555,2.8735439-4.6766533,2.36987-.3265408,.7021691,1.2855808,2.6185265,3.5858057,4.6039368,2.3002251,1.220238,5.2885536,4.4452434,7.7144262,4.3389078,2.425872,1.3930535,4.2892883,1.4413286,4.3396903,1.7816735Z" fill="#c1121f"/>
      <path d="M25.1523095,49.4009939c-.023626,.4852888,2.0993562-1.9170372,4.9418716-.9852268,2.8425156-2.6548948,6.4045645-.5899281,9.2590712-1.9329452,2.8545061-.1247801,5.0014704-.4659996,5.0138187-2.8909419,.0130403-1.3254833-2.3589212-1.2615437-4.7211563-2.9666186-2.362235-1.2925189-4.7147435-1.4726415-4.662797-1.5019305,.0511499,.3633218,2.4104858-1.2752026,5.5306304,.4380788,3.1201448,.3154065,7.0010984-1.1877741,10.0954828,2.0455095,3.0943837-.0936647,5.4021986-1.112473,5.376068,2.8786707-.023655,.4904987-1.9569689,1.5813237-4.8450278,2.4057228-2.8880589,.7509483-6.7308628-.2335222-10.5734975,1.669684-3.8426345,3.1152839-7.6850998,.0581137-10.5724818,.8608316-2.887382-.4766491-4.8196808,1.1515639-4.8419823-.0208343Z" fill="#c1121f"/>
      <path d="M-15.999945,35.3433111c.0109992-.4986998,1.661111,.0740481,3.9310521-.6551175,2.2699413,.2272766,5.1597122,.5851056,7.6500291,.3939504,2.4903163-.2352272,4.5811789,2.4395553,5.253305,3.1134023,.7994336,2.6882657-1.0768071,2.9694657-.3373758,5.3516352,.6574037,1.3908286,2.8819002,2.4251496,5.5582275,3.175429,2.6763275-.2873268,5.8044859,.3427464,8.269213,.4770757,2.4647265-.0365298,4.2660221-.0988462,4.2886252,.1760136,.0231485,.2814894-1.8166455,1.6110657-4.4332557,1.5148689-2.6166104,1.5239541-6.0100372,1.7975976-9.0941538,.7604763-3.0841158-.1338466-5.8589217-1.8767212-7.2382917-3.136707-.755335-2.2266545-.8026893-1.4173561-.8914219-3.2583383-.0887326-1.8932131-.2188433-2.5443357-1.1396911-3.5858363-1.7145961-2.2100312-4.6748794-4.2068456-7.2034047-3.8555557-2.5285254-.1212379-4.6252928-1.2158809-4.6128573-.4712967Z" fill="#c1121f"/>
      <path d="M1.4689988,30.6330873c.4983377-1.3231972,2.5996122-2.0018395,4.5869454-2.5922014,1.9873332,.3151752,3.8607252-.8987432,3.903298,.3579268,.0371896-.2897736-1.3087072-.0048322-2.7729491,.8544491-1.4642419-.2239211-3.0468289,1.4112939-3.4830198,2.7203902-.6404925,3.189315,1.5720448,4.9651241,1.3405648,4.4685492-.1465271-.8098849-1.241501-.615553-2.1992111-1.7682496-.9577101-.6974507-1.7781564-2.1116221-1.3756283-4.0408644Z" fill="#780000"/>
      <path d="M1.9158537,15.44002c-.1052362-.3675434,.6211212,2.1702028,.4468549,1.3405648-.3665948,.0691694-4.1173914-1.6422084-4.0216943-1.7874197,.0718939-.6388646,2.3036329-.4797497,4.5186662-1.2430283,2.2150333,.9134034,4.413361-.3915575,4.4184322-.0975364,.0038746,.5740019-1.2708835-.5736235-2.5795135,.3571699-1.3086301,.2858484-2.6511321-.2574592-2.7827455,1.4302497Z" fill="#780000"/>
      <path d="M-6.5743897,36.7850894c.1478311-.2620169,1.2033253-.6000977,2.4761106-.0378719,1.2727854,.0139989,2.762862,1.2015149,3.7798582,1.9820763,.9959169-.0548973,1.0945767,1.7229097,1.1183548,3.1330035,.0237781,.7267933-.0273254,2.9404722,.6690649,3.0884508,.7227232,1.1963893,1.9745642,.7940102,3.4466014,1.906575,1.4720373,1.0689408,3.1642709,.9108929,4.7677793,.8610803,1.6035084-.5304364,3.1182917-1.5071557,4.2354283-.5832577,1.1171366-.6412601,1.8366266-.9362236,1.8495484,.5374887,.0128724,1.447021-.6764872,1.8363152-1.7742279,.6185042-1.0977407-1.0251595-2.6038626-.6486149-4.2245148,.8481099-1.6206522-.1037133-3.3558346,.7974762-4.9116965-.2513505-1.5558619-1.5236725-2.9324032,.2316917-3.8357731-1.6041045-.7773016,.7027178-.9000075-.7218209-1.1021763-2.6469731-.2021688-.8530738-.4838003-3.3870541-1.5789532-3.5744811-1.1044106-2.3672943-2.4012639-1.9491303-3.3880134-3.059547-.9867495,.2247924-1.6633952-1.5224922-1.5273907-1.2177028Z" fill="#780000"/>
      <path d="M46.1544907,44.0387349c-.1454174,.3012896-1.4493125,.7690859-1.3405648,1.7874197,.1455879,1.7717777,2.6793669,1.5034762,5.1945674,.1754221,2.5152005-.3614557,5.0118223,.3545499,5.0830957-1.9628417,.0775771-2.3194293-2.7303009-3.0434567-5.6059126-2.9042842-2.8756117-2.4662799-5.8189573-1.3138159-6.0123153-.6705551-.2104315,1.2411254,2.9175325,1.6259977,2.6811295,3.5748394Z" fill="#780000"/>
    </g>
  </g>
</svg>