<?xml version="1.0" encoding="utf-8"?>
<!-- Generator: Adobe Illustrator 26.5.0, SVG Export Plug-In . SVG Version: 6.00 Build 0)  -->
<svg version="1.1" id="_Шар_2" xmlns="http://www.w3.org/2000/svg" xmlns:xlink="http://www.w3.org/1999/xlink" x="0px" y="0px"
	 viewBox="0 0 550 1081" style="enable-background:new 0 0 550 1081;" xml:space="preserve">
<style type="text/css">
	.st0{fill:#0D5085;}
	.st1{fill:#F9EC37;}
</style>
<path class="st0" d="M176.8,1081H0V0h127.3C162.9,99.5,290.3,186.9,314,355c29.2,207-139.4,249.8-152,524
	C160.8,904.4,157,987.5,176.8,1081z"/>
<path class="st1" d="M550,1081H176.8c-19.8-93.5-16-176.6-14.8-202c12.6-274.2,181.2-317,152-524C290.3,186.9,162.9,99.5,127.3,0
	H339c98.7,65.2,166.9,175.6,191,284c60.5,272.3-180.8,425.8-91,652C469.1,1011.9,518.5,1050.4,550,1081z"/>
</svg>
