<?xml version="1.0" encoding="UTF-8"?>
<svg id="_Шар_1" data-name="Шар 1" xmlns="http://www.w3.org/2000/svg" viewBox="0 0 1920 1080">
  <defs>
    <style>
      .cls-1 {
        fill: #f9ec37;
      }

      .cls-2 {
        fill: #0d5085;
      }
    </style>
  </defs>
  <path class="cls-1" d="M1769,655.42c-57.86,122.27-153.09,87.31-292,282.04-28.98,40.62-66.08,92.64-91.06,144.54h-226.29c38.22-93.47,115.97-182,140.35-209.78,147.51-167.98,252.96-135.5,318-263.98,82.12-162.21-54.47-276.21,14-454.68,21.15-55.14,58.51-107.64,103.62-151.56h7.04c-1.91,2.35-3.8,4.69-5.66,7.03-95.46,119.88,138.21,421.94,32,646.39Z"/>
  <path class="cls-1" d="M1919,2V1083h-761.37c.66-1.67,1.33-3.33,2.02-5h226.29c24.98-51.7,62.08-103.53,91.06-144,138.91-194.01,234.14-159.18,292-281,106.21-223.62-127.46-524.56-32-644,1.86-2.33,3.75-4.66,5.66-7h176.34Z"/>
  <path class="cls-2" d="M1923-5V1085h-537.06c24.98-52.03,62.08-104.2,91.06-144.93,138.91-195.26,234.14-160.21,292-282.82,106.21-225.07-127.46-527.95-32-648.16,3.71-4.67,7.52-9.37,11.42-14.09h174.58Z"/>
</svg>