<?xml version="1.0" encoding="UTF-8"?>
<svg id="_Шар_2" data-name="Шар 2" xmlns="http://www.w3.org/2000/svg" viewBox="0 0 23.8 23.67">
  <g id="sword_icon">
    <g>
      <path d="M5.75,17.78l-.06-.06,.22-.22c-.05,.1-.1,.2-.16,.28Z" fill="#434149"/>
      <path d="M6.31,17.87l-.24,.24-.07-.07c.1-.07,.2-.12,.3-.17Z" fill="#434149"/>
      <path d="M12.69,13.17c-2.22,2.22-2.42,4.38-2.42,4.38,0,0-2.2-.58-3.95,.33-.1,.05-.2,.11-.3,.17l-.26-.26c.07-.08,.11-.18,.16-.28,.91-1.74,.33-3.94,.33-3.94,0,0,2.16-.22,4.37-2.43s3.9-5.83,3.9-5.83c0,0-.2,1.23,2.56-.76,2.76-1.98,2.53-3.94,2.53-3.94,1.1,.72,3.85-.45,4.19-.59h.02c-.15,.34-1.32,3.09-.58,4.19,0,0-1.98-.24-3.96,2.53-1.98,2.76-.75,2.57-.75,2.57,0,0-3.62,1.67-5.83,3.88Z" fill="#434149"/>
      <path d="M12.69,13.17c-2.22,2.22-2.42,4.38-2.42,4.38,0,0-2.2-.58-3.95,.33-.1,.05-.2,.11-.3,.17l-.26-.26c.07-.08,.11-.18,.16-.28,.91-1.74,.33-3.94,.33-3.94,0,0,2.16-.22,4.37-2.43s3.9-5.83,3.9-5.83c0,0-.2,1.23,2.56-.76,2.76-1.98,2.53-3.94,2.53-3.94,1.1,.72,3.85-.45,4.19-.59h.02c-.15,.34-1.32,3.09-.58,4.19,0,0-1.98-.24-3.96,2.53-1.98,2.76-.75,2.57-.75,2.57,0,0-3.62,1.67-5.83,3.88Z" fill="#4b00ac"/>
      <rect x="5.01" y="18.53" width=".01" height=".37" transform="translate(-11.77 9.03) rotate(-45)" fill="#434149"/>
      <path d="M11.82,13.98c-2.22,2.22-2.42,4.38-2.42,4.38,0,0-1.28-.33-2.67-.1-.38,.07-.78,.18-1.16,.37l-.46-.46c.2-.41,.32-.84,.38-1.24,.2-1.34-.11-2.55-.11-2.55,0,0,2.16-.22,4.37-2.43s3.9-5.83,3.9-5.83c0,0-.2,1.23,2.56-.76,2.76-1.98,2.53-3.94,2.53-3.94,1.1,.72,3.85-.45,4.19-.59h.02c-.15,.34-1.32,3.09-.58,4.19,0,0-1.98-.24-3.96,2.53-1.98,2.76-.75,2.57-.75,2.57,0,0-3.62,1.67-5.83,3.88Z" fill="#4b2fac"/>
      <path d="M12.02,12.85c-1.98,1.98-2.5,3.57-2.5,3.57,0,0-1.49-.03-2.9,.92-.08,.05-.16,.11-.25,.18l-.14-.14c.06-.07,.11-.15,.17-.23,.96-1.41,.92-2.9,.92-2.9,0,0,1.59-.53,3.56-2.51s3.82-4.87,3.82-4.87c0,0-.36,.92,1.97-.99,2.33-1.9,2.51-3.28,2.51-3.28,.66,.33,2.85-.99,3.12-1.15h.01c-.16,.27-1.48,2.45-1.14,3.11,0,0-1.38,.17-3.29,2.51-1.9,2.33-.98,1.98-.98,1.98,0,0-2.89,1.83-4.87,3.8Z" fill="#5042b1"/>
      <path d="M5.11,18.17l-.28-.28c.28-.35,.5-.68,.67-.96-.07,.41-.19,.84-.38,1.24Z" fill="#3a1916"/>
      <path d="M6.73,18.26c-.27,.19-.55,.42-.85,.68l-.32-.32c.38-.19,.78-.29,1.16-.37Z" fill="#3a1916"/>
      <rect x="5.01" y="18.53" width=".01" height=".37" transform="translate(-11.77 9.03) rotate(-45)" fill="#411d13"/>
      <path d="M3.96,21.08l-1.33-1.33c.17-.09,.37-.2,.57-.34l1.15,1.15c-.15,.18-.28,.36-.39,.52Z" fill="#411d13"/>
      <polygon points="3.29 20.4 2.01 21.68 .58 20.26 .6 20.22 2.61 19.69 3.29 20.4" fill="#500076"/>
      <polygon points="2.01 21.68 .73 22.96 0 22.21 .58 20.26 2.01 21.68" fill="#5000b1"/>
      <polygon points="3.42 23.14 1.41 23.67 .73 22.96 2.01 21.68 3.43 23.11 3.42 23.14" fill="#5029ee"/>
      <polygon points="3.43 23.11 2.01 21.68 3.29 20.4 4.02 21.15 3.43 23.11" fill="#5000ee"/>
      <rect x="4.29" y="17.37" width="3.23" height=".86" rx=".3" ry=".3" transform="translate(14.32 1.04) rotate(45)" fill="#411d13"/>
      <path d="M7.14,18.85l-.18,.18s-.04,.04-.07,.05c.12-.11,.12-.31,0-.43l-1.86-1.85c-.08-.09-.22-.11-.33-.07l.16-.16c.12-.12,.31-.12,.43,0l1.85,1.85c.12,.12,.12,.32,0,.43Z" fill="#4c221c"/>
      <path d="M6.89,19.08c-.11,.07-.26,.05-.36-.05l-1.85-1.85c-.12-.12-.12-.31,0-.43,.01,0,.02,0,.02-.02,.11-.04,.25-.02,.33,.07l1.86,1.85c.12,.12,.12,.32,0,.43Z" fill="#411d13"/>
      <path d="M5.89,18.94c-.11,.08-.22,.19-.33,.3l-1.02-1.02c.09-.07,.15-.15,.22-.24,.03-.03,.05-.07,.07-.11l1.06,1.06Z" fill="#6b3f20"/>
      <path d="M5.3,19.48c-.09,.09-.18,.18-.25,.27l-1.01-1.01c.1-.08,.2-.18,.29-.28,.07-.07,.15-.15,.2-.24l.36,.36h0s.26,.27,.26,.27h0s.4,.39,.4,.39c-.08,.07-.17,.15-.25,.24Z" fill="#411d13"/>
      <path d="M5.05,19.75c-.08,.08-.15,.16-.21,.23l-1.04-1.03c.08-.06,.16-.14,.24-.21l1.01,1.01Z" fill="#6b3f20"/>
      <path d="M4.35,20.56l-1.15-1.15c.1-.07,.19-.14,.28-.2l1.09,1.09s-.05,.05-.07,.08c-.06,.06-.11,.12-.15,.19Z" fill="#411d13"/>
      <path d="M20.85,3.87c-.43,.32-.57,.46-.77,.77-.16-.31-.31-.45-.77-.77,.46-.04,.6-.18,.77-.76,.19,.58,.34,.73,.77,.76Z" fill="#5078b1"/>
      <path d="M15.39,7.24c.14,.51,.23,.7,.45,.99-.35,.04-.53,.13-.99,.45,.13-.44,.04-.63-.44-.99,.61,.03,.8-.06,.99-.45Z" fill="#5078b1"/>
      <path d="M9.47,15.26c-.27,.46-.35,.65-.41,1.01-.27-.22-.46-.3-1.01-.41,.41-.21,.49-.4,.41-1,.4,.46,.59,.54,1,.41Z" fill="#5078b1"/>
      <path d="M6.9,18.15c-.06,.04-.11,.07-.16,.11-.04,.01-.09,.02-.13,.03-.01-.18-.07-.49-.31-.75-.28-.32-.62-.4-.84-.41,.02-.07,.03-.13,.04-.2,.02-.04,.04-.07,.06-.12,.07-.01,.65-.05,1.05,.41,.34,.39,.3,.85,.29,.93Z" fill="#56281f"/>
      <path d="M6.61,18.29c-.35,.07-.7,.17-1.04,.34l-.45-.46c.16-.34,.27-.69,.34-1.04,.22,.01,.56,.09,.84,.41,.24,.26,.3,.57,.31,.75Z" fill="#471f15"/>
      <circle cx="6.01" cy="18.06" r=".29" fill="#5b2c25"/>
      <path d="M4.84,19.98c-.1,.11-.18,.22-.27,.32l-1.09-1.09c.1-.07,.21-.16,.32-.26l1.04,1.03Z" fill="#60381d"/>
    </g>
  </g>
</svg>