<?xml version="1.0" encoding="UTF-8"?>
<svg id="_Шар_2" data-name="Шар 2" xmlns="http://www.w3.org/2000/svg" viewBox="0 0 24.08 24">
  <g id="_2handschwert" data-name="2handschwert">
    <g>
      <g>
        <path d="M9.13,15.56c-.36,1.15-.17,2.46,0,3.22,.09,.39,.17,.63,.17,.63,0,0-1.87,.03-3.84,1.62-.01,.01-.03,.03-.04,.04-.23,.16-.44,.36-.67,.59-.68,.68-1.29,1.51-1.81,2.34H0v-2.96c.81-.51,1.63-1.12,2.3-1.79,.06-.06,.11-.11,.16-.17h.01s.01-.02,.01-.02c2.04-2.16,2.07-4.37,2.07-4.37,0,0,.27,.09,.7,.19,.77,.16,2.06,.33,3.19-.04,.13-.03,.26-.08,.39-.14,.1-.05,.21-.1,.31-.16l.31,.31c-.06,.08-.11,.18-.15,.28-.06,.14-.12,.28-.17,.43Z" fill="#434149"/>
        <path d="M9.13,15.56c-.36,1.15-.17,2.46,0,3.22,.09,.39,.17,.63,.17,.63,0,0-1.87,.03-3.84,1.62-.01,.01-.03,.03-.04,.04-.23,.16-.44,.36-.67,.59-.68,.68-1.29,1.51-1.81,2.34H0v-2.96c.81-.51,1.63-1.12,2.3-1.79,.06-.06,.11-.11,.16-.17h.01s.01-.02,.01-.02c2.04-2.16,2.07-4.37,2.07-4.37,0,0,.27,.09,.7,.19,.77,.16,2.06,.33,3.19-.04,.13-.03,.26-.08,.39-.14,.1-.05,.21-.1,.31-.16l.31,.31c-.06,.08-.11,.18-.15,.28-.06,.14-.12,.28-.17,.43Z" fill="#4b00ac"/>
        <path d="M9.39,15.83c-.14,.88-.15,1.91,.11,2.86-.12,.02-.24,.05-.37,.09-.89,.23-2.22,.78-3.51,2.08-.06,.06-.11,.11-.16,.17-.01,.01-.03,.03-.04,.04-.82,.87-1.54,1.95-2.11,2.93H0v-3.25c.81-.46,1.69-1.03,2.46-1.67h.01s.01-.02,.01-.02c.25-.21,.47-.4,.69-.62,1.32-1.32,1.86-2.67,2.08-3.56h0c.04-.13,.06-.25,.08-.35,.96,.25,2.01,.24,2.9,.1l-.09-.1,.1-.29h.1c.41-.04,.83-.13,1.23-.3l.24,.25,.02,.02,.27,.27c-.15,.39-.24,.83-.28,1.24l-.41,.13-.02-.02Z" fill="#4b2fac"/>
        <path d="M8.96,15.25s-.04,.04-.05,.07c-.04,.05-.08,.1-.11,.16-.91,1.45-.74,3.08-.74,3.08,0,0-1.69,.44-3.66,2.41-.93,.93-1.8,2.07-2.46,3.03H0v-1.87c.96-.66,2.12-1.54,3.05-2.47,1.99-1.99,2.41-3.67,2.41-3.67,0,0,1.63,.17,3.08-.74,.06-.03,.12-.07,.18-.12,.02-.01,.05-.03,.08-.05l.06,.06h0s.1,.11,.1,.11Z" fill="#5042b1"/>
        <path d="M.35,23.95s-.01,.04-.01,.05h-.07s.05-.03,.08-.05Z" fill="#5078b1"/>
        <path d="M5.62,17.26c.26-.48,.32-.68,.35-1.06,.31,.27,.53,.37,1.13,.54-.43,.2-.49,.4-.36,1.06-.48-.54-.69-.64-1.13-.54Z" fill="#5078b1"/>
      </g>
      <path d="M11.34,15.25l-.33,.11h0s-.42,.13-.42,.13c-.05-.36-.06-.72-.02-1.07,0-.12,.02-.23,.04-.34,0-.04,0-.08,.01-.11,.04-.3,.12-.56,.19-.77,0,0,0,0,0-.02h0c.11-.31,.24-.5,.33-.51,.02,0,.04,0,.05,0,.04,.02,.06,.04,.07,.06s.02,.04,.04,.05c.15,.21,.28,.67,.33,.97,0,.02,0,.05,.01,.07,.03,.16,.04,.29,.04,.41l-.35,.98v.04Z" fill="#5b2c25"/>
      <path d="M13.86,17.61c-.69,.51-1.9,.11-2.54-.53-.1-.1-.19-.2-.26-.33-.26-.36-.41-.81-.48-1.27l.42-.13h.01l.33-.1v-.04s.36-.99,.36-.99c.02,.87-.39,1.33-.11,2,.3,.73,1.21,1.24,1.62,1.03,.24-.12,.39-.54,.24-.78-.1-.17-.35-.24-.53-.22-.38,.02-.55,.35-.65,.29-.1-.05-.05-.5,.2-.74,.43-.39,1.52-.29,1.83,.36,.24,.49-.03,1.14-.44,1.45Z" fill="#7c3c11"/>
      <path d="M11.34,15.25l-.33,.11h0s-.42,.13-.42,.13c-.05-.36-.06-.72-.02-1.07,0-.12,.02-.23,.04-.34,0-.04,0-.08,.01-.11,.04-.3,.12-.56,.19-.77,0,0,0,0,0-.02h0c.11-.31,.24-.5,.33-.51,.02,0,.04,0,.05,0,.04,.02,.06,.04,.07,.06s.02,.04,.04,.05c.15,.21,.28,.67,.33,.97,0,.02,0,.05,.01,.07,.03,.16,.04,.29,.04,.41l-.35,.98v.04Z" fill="#5b2c25"/>
      <path d="M9.82,12.29l-1.02,.32v.04l-.14,.37c-.53-.1-.98-.1-1.36-.05-.15-.08-.28-.19-.4-.31-.64-.64-1.04-1.84-.53-2.54,.31-.41,.96-.68,1.45-.44,.65,.31,.75,1.4,.36,1.83-.24,.25-.69,.3-.74,.2-.06-.1,.27-.27,.29-.65,.02-.18-.05-.43-.22-.53-.24-.15-.66,0-.78,.24-.21,.41,.3,1.32,1.03,1.62,.69,.28,1.15-.15,2.06-.1Z" fill="#7c3c11"/>
      <path d="M11.32,12.82c-.01,.1-.18,.22-.47,.33,0,.01-.02,.01-.03,.01h0c-.22,.09-.5,.15-.79,.21h-.01s-.11,.01-.16,.02c-.1,0-.19,.02-.29,.03h-.01c-.34,.03-.68,.03-1.03-.02l.13-.38,.14-.37v-.04l1.02-.32h.01c.12,0,.24,.01,.38,.05h.01s.01-.01,.02,0c.29,.05,.76,.18,.97,.33,.03,.02,.05,.04,.07,.05,.01,.02,.02,.04,.03,.05,.01,.03,.02,.03,.01,.05Z" fill="#5b2c25"/>
      <path d="M21.64,4.78s-.04,.01-.06,0c.02-.05,.04-.08,.06-.1,.01,.01,0,.05,0,.09Z" fill="#4b2fac"/>
      <path d="M21.03,2.97l-1.25,1.25c-.2-.21-.37-.45-.49-.71-.01-.02-.02-.04-.03-.06-.35-.75-.35-1.61,0-2.36,.12-.26,.3-.53,.53-.75,.13-.14,.27-.25,.41-.34h.3c-.21,.48-.28,1.01-.19,1.52,.08,.53,.32,1.04,.72,1.45Z" fill="#5042b1"/>
      <path d="M23.98,3.65c-.55,.21-1.16,.23-1.72,.07-.43-.12-.84-.36-1.19-.7l-.04-.05-1.25,1.25,.02,.02c.22,.22,.46,.39,.73,.52h.02c.47,.23,.99,.31,1.49,.26,.03-.06,.06-.1,.08-.12,0,.01,0,.06,0,.12,.28-.04,.53-.1,.77-.22,.29-.14,.56-.32,.8-.56,.15-.15,.29-.3,.39-.47-.04-.03-.07-.08-.1-.12Zm-2.34,1.13s-.04,.01-.06,0c.02-.05,.04-.08,.06-.1,.01,.02,0,.05,0,.1Z" fill="#4b2fac"/>
      <path d="M21.64,4.78s-.04,.01-.06,0c.02-.05,.04-.08,.06-.1,.01,.01,0,.05,0,.09Z" fill="#4b2fac"/>
      <path d="M19.78,4.22l-1.63,1.63-.88-.88c.53-.42,1.05-.83,1.55-1.2,.14-.1,.28-.21,.42-.31,0,0,0,0,.02,0,.01,.02,.02,.04,.03,.06,.12,.26,.29,.5,.49,.71Z" fill="#7c3c11"/>
      <path d="M20.53,4.76c-.1,.14-.2,.28-.3,.43-.36,.5-.75,1.02-1.18,1.56l-.9-.9,1.63-1.63,.02,.02c.22,.22,.46,.39,.73,.52Z" fill="#472209"/>
      <path d="M12.28,11.72l-.93,.93-.61-.65-.37,.12c.32-.42,.67-.85,1.02-1.29l.89,.89Z" fill="#7c3c11"/>
      <path d="M13.21,12.65c-.46,.35-.89,.68-1.31,.99-.09,.06-.16,.12-.24,.17-.23,.18-.47,.34-.69,.5l-.35-.35-.22-.21-.07-.08-.3-.3h-.01l-.33-.33c.17-.24,.34-.46,.52-.7h.01c.05-.08,.1-.15,.15-.22l.37-.12,.61,.65,.93-.93,.93,.93Z" fill="#472209"/>
      <path d="M14.42,21.33c-1.06,.78-2.94,.16-3.93-.82-.5-.5-.82-1.13-.99-1.82-.26-.95-.25-1.98-.11-2.86l.02,.02,.41-.13,.76-.24c.07,.46,.22,.91,.48,1.27-.13,.95-.49,1.57-.14,2.43,.46,1.14,1.87,1.92,2.5,1.6,.37-.19,.6-.83,.38-1.2-.16-.28-.55-.37-.83-.36-.58,.05-.87,.55-1.01,.46-.15-.09-.08-.77,.32-1.14,.67-.61,2.34-.45,2.83,.55,.37,.76-.06,1.77-.69,2.24Z" fill="#472209"/>
      <path d="M11,15.35l-.42,.13-.76,.24-.41,.13-.02-.02c.11-.66,.27-1.23,.45-1.62,0,0,0-.02,.02-.04h0s0-.04,.01-.05c.04-.1,.1-.18,.15-.25,.07-.13,.16-.2,.23-.2,.02,0,.04,0,.06,.01,0,0,.01,0,.02,0,.09,.05,.18,.18,.28,.37,.08,.18,.16,.39,.23,.61,.07,.24,.13,.47,.17,.66Z" fill="#5b2c25"/>
      <path d="M8.66,13.02l-.13,.38-.29,.84-.1,.29,.09,.1c-.89,.14-1.94,.15-2.9-.1-.69-.18-1.31-.5-1.82-1-.97-.99-1.6-2.86-.81-3.92,.47-.64,1.47-1.06,2.23-.7,1.01,.5,1.16,2.17,.56,2.83-.38,.4-1.06,.48-1.15,.33-.09-.15,.42-.43,.46-1.01,0-.29-.08-.68-.35-.84-.37-.21-1.01,.01-1.21,.38-.31,.63,.46,2.05,1.61,2.51,.86,.35,1.48-.03,2.45-.14,.38-.05,.83-.05,1.36,.05Z" fill="#472209"/>
      <path d="M10.15,14c-.07,.06-.17,.11-.28,.17-.02,0-.03,.01-.04,.01h0c-.38,.18-.94,.34-1.58,.45l-.09-.09,.1-.3,.3-.83,.13-.38s.01,0,.01,0c.19,.04,.42,.1,.66,.17,.18,.06,.37,.12,.52,.2,.23,.08,.39,.19,.45,.3h.01s.01,.06,.01,.08c0,.07-.07,.16-.2,.23Z" fill="#5b2c25"/>
      <g>
        <polygon points="11.35 12.65 10.32 13.68 10.32 13.69 10.31 13.69 10.07 13.93 10.03 13.89 10.03 13.88 9.57 13.42 9.56 13.42 9.34 13.19 9.33 13.19 8.8 12.65 8.8 12.61 9.82 12.29 9.83 12.29 10.37 12.12 10.74 12 11.35 12.65" fill="#500076"/>
        <polygon points="10.07 13.93 8.8 15.21 8.72 15.13 8.45 14.85 8.14 14.53 8.24 14.24 8.53 13.4 8.66 13.02 8.8 12.65 10.07 13.93" fill="#5000b1"/>
        <polygon points="11.34 15.25 11.01 15.35 11 15.35 10.58 15.48 9.82 15.72 9.41 15.85 9.39 15.83 9.14 15.57 8.92 15.33 8.8 15.21 10.07 13.93 11.35 15.21 11.34 15.25" fill="#5029ee"/>
        <polygon points="12.01 13.32 11.9 13.64 11.7 14.22 11.35 15.21 10.83 14.69 10.07 13.93 10.31 13.69 10.32 13.69 10.32 13.68 11.35 12.65 12.01 13.32" fill="#5000ee"/>
      </g>
      <path d="M18.15,5.85l-1.12,1.12-.97-.97c.41-.36,.82-.7,1.21-1.03l.88,.88Z" fill="#772a23"/>
      <path d="M19.05,6.75c-.31,.4-.65,.81-1.01,1.22l-1.01-1,1.12-1.12,.9,.9Z" fill="#4c120f"/>
      <path d="M17.03,6.97l-1.64,1.64-1.03-1.03c.57-.56,1.15-1.09,1.7-1.58l.97,.97Z" fill="#4c120f"/>
      <path d="M18.04,7.97c-.49,.56-1.01,1.13-1.57,1.71l-1.08-1.07,1.64-1.64,1.01,1Z" fill="#772a23"/>
      <path d="M15.39,8.61l-1.47,1.47-1-1c.23-.27,.48-.53,.74-.79,.12-.12,.23-.23,.34-.35l.36-.36,1.03,1.03Z" fill="#772a23"/>
      <path d="M16.47,9.68l-.69,.69c-.27,.26-.54,.52-.8,.76l-1.06-1.05,1.47-1.47,1.08,1.07Z" fill="#4c120f"/>
      <path d="M13.92,10.08l-1.64,1.64-.89-.89c.47-.57,.98-1.16,1.53-1.75l1,1Z" fill="#7c3c11"/>
      <path d="M14.98,11.13c-.61,.55-1.21,1.05-1.77,1.52l-.93-.93,1.64-1.64,1.06,1.05Z" fill="#472209"/>
      <polyline points="11.35 12.65 11.28 12.72 10.85 13.15 10.81 13.19 10.33 13.67 10.32 13.68 10.32 13.69 10.31 13.69 10.07 13.93 9.88 14.12 9.87 14.14 9.82 14.18 9.81 14.19 9.3 14.7 8.86 15.14 8.86 15.15 8.8 15.21 6.69 17.31 6.69 17.32 6.48 17.52 0 24" fill="none"/>
      <polygon points="20.72 4.94 20.35 5.31 19.52 4.48 18.82 3.77 18.7 3.65 19.06 3.28 19.24 3.46 19.29 3.51 19.89 4.11 20.53 4.76 20.55 4.77 20.72 4.94" fill="#4b00ac"/>
    </g>
  </g>
</svg>