<?xml version="1.0" encoding="UTF-8"?>
<svg id="_Шар_2" data-name="Шар 2" xmlns="http://www.w3.org/2000/svg" viewBox="0 0 24 24.04">
  <g id="_2handschwert" data-name="2handschwert">
    <g>
      <path d="M17.83,18.99l-2.87,2.87-6.4-6.4,1.82-1.82,.04,.04c2.72,2.71,5.47,4.36,7.4,5.31Z" fill="#dd2c0a"/>
      <path d="M10.39,13.63l-1.82,1.82L2.16,9.06l2.87-2.87c.96,1.94,2.62,4.71,5.35,7.45Z" fill="#f9380b"/>
      <path d="M3.09,15.3v1.03c-.7,.66-1.55,1.65-2.75,3.19v-4.22H3.09Z" fill="#e85d04"/>
      <path d="M8.67,20.88v2.74H4.44c.9-.61,2.37-1.58,3.35-2.74h.88Z" fill="#9b3d0a"/>
      <path d="M6.28,13.95c-.11,.16-.24,.32-.39,.47-.55,.56-1.12,.79-1.33,.88-.47,.21-.93,.51-1.47,1.03v-2.39h3.19Z" fill="#f9380b"/>
      <path d="M10.03,20.88h-2.24c.39-.46,.7-.96,.87-1.48,.06-.18,.21-.67,.62-1.18,.22-.28,.47-.5,.74-.69v3.35Z" fill="#dd2c0a"/>
      <polygon points="8.24 13.47 7.95 13.18 8.41 11.44 8.64 11.39 8.93 11.68 8.71 11.74 8.24 13.47" fill="#f9380b"/>
      <polygon points="12.4 15.43 10.67 15.89 10.38 15.6 12.1 15.13 12.17 14.92 12.46 15.21 12.4 15.43" fill="#f9380b"/>
      <path d="M15.76,8.08l-2.8,2.8-1.47-1.47c.31-.07,1.15-.3,1.86-1.08,.64-.7,.81-1.47,.87-1.79l1.54,1.54Z" fill="#601f12"/>
      <path d="M17.3,9.63c-.37,.11-1.09,.38-1.76,1.03-.67,.64-.98,1.33-1.11,1.7l-1.47-1.48,2.8-2.8,1.54,1.55Z" fill="#2d0905"/>
      <path d="M17.9,5.94l-.96,.96-1.57-1.57c.32-.33,.63-.65,.94-.98l1.59,1.59Z" fill="#772a23"/>
      <path d="M19.49,7.53c-.32,.31-.65,.63-.98,.94l-1.57-1.57,.96-.96,1.59,1.59Z" fill="#4c120f"/>
      <path d="M21.2,2.65l-2,2-1.63-1.63c.95-.99,1.89-1.99,2.84-2.98l.04-.04s-.01,.03-.01,.04c-.2,.9,.05,1.9,.76,2.61Z" fill="#601f12"/>
      <path d="M23.84,3.4c-.99,.95-2.01,1.91-3.02,2.87l-1.62-1.62,2-2c.72,.72,1.73,.97,2.64,.75Z" fill="#2d0905"/>
      <path d="M23.81,.04l-2.61,2.61c-.71-.71-.96-1.71-.76-2.61h3.37Z" fill="#faa307"/>
      <path d="M24,.04V3.35s-.11,.04-.16,.05c-.91,.22-1.92-.03-2.64-.75L23.81,.04h.19Z" fill="#e85d04"/>
      <path d="M7.01,12.23l-.02,.06s0-.05,.01-.07h.01Z" fill="#f48c06"/>
      <polygon points="10.67 15.89 9.68 16.16 7.69 14.17 7.95 13.18 8.24 13.47 8.09 14.06 9.79 15.76 10.38 15.6 10.67 15.89" fill="#f48c06"/>
      <path d="M11.12,16.98c-.35,.13-.74,.3-1.1,.55-.27,.19-.52,.41-.74,.69-.41,.51-.56,1-.62,1.18-.17,.52-.48,1.02-.87,1.48-.98,1.16-2.45,2.13-3.35,2.74-.2,.13-.4,.27-.61,.42h-1.6c.58-.44,1.11-.83,1.6-1.18,.18-.14,.38-.27,.61-.44h.01c.65-.5,1.44-1.13,2.05-1.83,.34-.38,.63-.78,.8-1.19,.01-.01,0-.02,.01-.02,.06-.15,.21-.53,.55-.94,.42-.53,.95-.84,1.42-1.04l.05,.05,.35-.09,1.44-.38Z" fill="#e08a00"/>
      <path d="M6.84,12.82l-.29,1.13-.07,.2-.02,.08c-.14,.47-.42,1.04-.92,1.55-.39,.39-.77,.61-.97,.71h-.01s-.06,.03-.09,.04c-.39,.2-.77,.48-1.24,.93-.47,.46-1.05,1.11-1.83,2.06-.14,.15-.27,.32-.41,.49-.33,.41-.67,.83-.99,1.24v-1.29c.11-.15,.23-.29,.34-.44,1.2-1.54,2.05-2.53,2.75-3.19,.54-.52,1-.82,1.47-1.03,.21-.09,.78-.32,1.33-.88,.15-.15,.28-.31,.39-.47,.27-.37,.44-.76,.56-1.13Z" fill="#faa307"/>
      <path d="M7.86,15.98L0,23.85v-2.6c.32-.41,.66-.83,.99-1.24,.14-.17,.27-.34,.41-.49,.78-.95,1.36-1.6,1.83-2.06,.47-.45,.85-.73,1.24-.93,.03-.01,.05-.02,.09-.03h.01c.2-.11,.58-.33,.97-.72,.5-.51,.78-1.08,.92-1.55l-.07,.28,1.33,1.33,.14,.14Z" fill="#f9c00b"/>
      <path d="M9.28,17.4c-.47,.2-1,.51-1.42,1.04-.34,.41-.49,.79-.55,.94-.01,0,0,.01-.01,.02-.17,.41-.46,.81-.8,1.19-.61,.7-1.4,1.33-2.05,1.82h-.01c-.23,.18-.43,.31-.61,.45-.49,.35-1.02,.74-1.6,1.18H0v-.19l7.86-7.87,.14,.14,1.28,1.28Z" fill="#f7ae0d"/>
      <rect x="2.07" y="6.18" width="2.96" height="2.96" fill="#faa307"/>
      <rect x="14.88" y="18.99" width="2.96" height="2.96" fill="#e85d04"/>
      <path d="M12.62,12.19l-.48-.48h0s-1-1-1-1l-2.5,.68-.23,.05-.26,1-.2,.74-.26,.99,1.99,1.99,.99-.27,1.73-.46,.06-.22,.68-2.51-.52-.51Zm-.45,2.73l-.07,.21-1.72,.47-.59,.16-.85-.85-.85-.85,.15-.59,.2-.74,.27-.99,.22-.06,2.11-.57,.85,.85,.48,.48,.36,.37-.56,2.11Z" fill="#f9380b"/>
      <polygon points="11.89 11.96 10.55 13.3 8.93 11.68 11.04 11.11 11.89 11.96" fill="none"/>
      <path d="M12.62,12.19l-.25,.25,.36,.37-.56,2.11-.07,.21-1.72,.47-.59,.16-.85-.85-.85-.85,.15-.59,.2-.74-.29-.29-.2,.74-.26,.99,1.99,1.99,.99-.27,1.73-.46,.06-.22,.68-2.51-.52-.51Z" fill="#faa307"/>
      <polygon points="12.62 12.19 12.37 12.44 11.04 11.11 8.93 11.68 8.71 11.74 8.44 12.73 8.15 12.44 8.36 11.62 8.41 11.44 8.58 11.4 8.64 11.39 11.14 10.71 12.62 12.19" fill="#faa307"/>
      <polygon points="12.37 12.44 10.26 14.55 8.44 12.73 8.71 11.74 8.93 11.68 11.04 11.11 12.37 12.44" fill="#fb4400"/>
      <polygon points="10.55 13.3 8.94 14.91 8.09 14.06 8.24 13.47 8.44 12.73 8.71 11.74 8.93 11.68 10.55 13.3" fill="#e22600"/>
      <polygon points="12.1 15.13 10.38 15.6 9.79 15.76 8.94 14.91 10.55 13.3 12.17 14.92 12.1 15.13" fill="#b70000"/>
      <polygon points="12.17 14.92 10.55 13.3 11.89 11.96 12.73 12.81 12.17 14.92" fill="red"/>
      <path d="M19.2,4.65l-1.3,1.29-1.59-1.59c.42-.44,.84-.89,1.26-1.33l1.63,1.63Z" fill="#4c120f"/>
      <path d="M20.82,6.27c-.43,.43-.88,.85-1.33,1.26l-1.59-1.59,1.3-1.29,1.62,1.62Z" fill="#772a23"/>
      <path d="M16.94,6.9l-1.18,1.18-1.54-1.54c.39-.4,.77-.81,1.15-1.21l1.57,1.57Z" fill="#4c120f"/>
      <path d="M18.51,8.47c-.39,.39-.8,.77-1.21,1.16l-1.54-1.55,1.18-1.18,1.57,1.57Z" fill="#772a23"/>
      <line x1="11.89" y1="11.96" x2="12.14" y2="11.7" fill="none"/>
      <line x1="8.68" y1="15.16" x2="8.94" y2="14.91" fill="none"/>
      <path d="M8.16,15.68c.05,.05,0,.2-.16,.44-.7,1.1-3.38,4.07-6.73,7.41-.17,.17-.34,.34-.51,.51H0v-1.16c.1-.1,.21-.21,.31-.31,3.34-3.34,6.31-6.02,7.41-6.73,.24-.15,.39-.21,.44-.16Z" fill="#ffc931"/>
      <path d="M12.96,10.88l-.82,.82-1-.99-2.5,.68-.23,.05-.26,1-.2,.74-.26,.99,.99,.99-.82,.82-.14-.14-1.33-1.33,.07-.28,.02-.08,.07-.2,.29-1.13v-.04s.03-.05,.03-.05c.05-.15,.09-.3,.12-.44l.02-.06h-.01s.47-1.73,.47-1.73l.22-.06,3.8-1.03,1.47,1.47Z" fill="#e85d04"/>
      <polygon points="14.43 12.36 13.41 16.15 13.35 16.38 11.62 16.84 11.12 16.98 9.68 17.36 9.33 17.45 8 16.12 7.86 15.98 8.68 15.16 9.68 16.16 10.67 15.89 12.4 15.43 12.46 15.21 13.14 12.7 12.62 12.19 12.14 11.71 12.14 11.7 12.96 10.88 14.43 12.36" fill="#9b3d0a"/>
    </g>
  </g>
</svg>