<?xml version="1.0" encoding="UTF-8"?>
<svg id="_Шар_2" data-name="Шар 2" xmlns="http://www.w3.org/2000/svg" viewBox="0 0 24.09 24.04">
  <g id="_2handschwert" data-name="2handschwert">
    <g>
      <path d="M20.67,3.35l-.23,.22-2.39,2.39v-.12h-1.54c1.09-1.04,2.18-2.03,3.24-2.96,.08-.07,.16-.14,.24-.21l.02,.02,.66,.66Z" fill="#ba6d35"/>
      <path d="M15.51,8.5l-3.97,3.97v-1.73c.65-.68,1.33-1.36,2.02-2.06l.18-.18h1.77Z" fill="#aa4100"/>
      <path d="M9.42,13.02v1.57l-.13,.13c-.24-.24-.49-.48-.74-.72,.28-.33,.58-.66,.87-.98Z" fill="#d67b54"/>
      <path d="M21.42,4.1c-.07,.08-.14,.16-.21,.24-1.01,1.13-2.05,2.27-3.16,3.42v-1.8l2.39-2.39,.23-.22,.75,.75Z" fill="#9b541f"/>
      <path d="M11.03,14.67c-.31,.3-.62,.59-.94,.87-.25-.26-.51-.53-.77-.79l-.03-.03,.13-.13v.08h1.61Z" fill="#fc9765"/>
      <path d="M15.51,8.5v1.88l-.22,.22c-.66,.67-1.33,1.32-1.99,1.95h-1.76v-.08l3.97-3.97Z" fill="#b76730"/>
      <polygon points="3.77 17.4 3.77 20.24 0 24.01 0 21.17 3.77 17.4" fill="#7c8c99"/>
      <polygon points="6.73 20.24 2.93 24.04 0 24.04 0 24.01 3.77 20.24 6.73 20.24" fill="#596e7c"/>
      <line x1="8.53" y1="15.48" x2="8.54" y2="15.48" fill="none"/>
      <path d="M10.01,16.96h0c-.16-.17-.33-.34-.49-.5l.5,.5Z" fill="#bc6a33"/>
      <path d="M7.5,14.45c-.13-.13-.26-.26-.4-.38h0s.39,.38,.39,.38Z" fill="#bc6a33"/>
      <path d="M9.3,16.25l-1.46-1.46c.23,.22,.47,.45,.7,.69l.03,.03c.25,.25,.49,.49,.74,.75Z" fill="#bc6a33"/>
      <path d="M18.05,5.96v1.8c-.81,.87-1.66,1.75-2.54,2.62v-1.88l2.54-2.54Z" fill="#aa4100"/>
      <path d="M18.05,5.84v.12l-2.54,2.54h-1.77c.93-.93,1.86-1.81,2.77-2.66h1.54Z" fill="#b76730"/>
      <path d="M11.03,14.67c-.31,.3-.62,.59-.94,.87-.25-.26-.51-.53-.77-.79l-.03-.03c-.24-.24-.49-.48-.74-.72,.28-.33,.58-.66,.87-.98v1.65h1.61Z" fill="#bc6a33"/>
      <polygon points="6.44 17.57 3.77 20.24 3.77 17.4 6.31 14.86 6.31 17.57 6.44 17.57" fill="#95adbc"/>
      <polygon points="9.39 17.57 6.73 20.24 3.77 20.24 6.44 17.57 9.39 17.57" fill="#617d8c"/>
      <path d="M10,16.97l-.61,.6h-2.95l2.09-2.09,.98,.98c.16,.16,.33,.33,.49,.51Z" fill="#596e7c"/>
      <path d="M8.53,15.48l-2.09,2.09h-.13v-2.71s.79-.79,.79-.79c.14,.12,.27,.25,.4,.38l1.03,1.03Z" fill="#7c8c99"/>
      <path d="M10.01,16.96h0c-.16-.17-.33-.34-.49-.5l.5,.5Z" fill="#bc6a33"/>
      <path d="M7.5,14.45c-.13-.13-.26-.26-.4-.38h0s.39,.38,.39,.38Z" fill="#bc6a33"/>
      <path d="M9.3,16.25l-1.46-1.46c.23,.22,.47,.45,.7,.69l.03,.03c.25,.25,.49,.49,.74,.75Z" fill="#bc6a33"/>
      <path d="M11.03,14.67c-.31,.3-.62,.59-.94,.87-.25-.26-.51-.53-.77-.79l-.03-.03c-.24-.24-.49-.48-.74-.72,.28-.33,.58-.66,.87-.98v1.65h1.61Z" fill="#bc6a33"/>
      <path d="M13.3,12.55c-.76,.73-1.52,1.45-2.27,2.12h-1.61v-.08s2.12-2.12,2.12-2.12v.08s1.76,0,1.76,0Z" fill="#9b541f"/>
      <path d="M11.54,10.74v1.73l-2.12,2.12v-1.57c.68-.75,1.39-1.51,2.12-2.28Z" fill="#ba6d35"/>
      <path d="M18.05,5.84v.12l-6.51,6.51v-1.73c.65-.68,1.33-1.36,2.02-2.06l.18-.18c.93-.93,1.86-1.81,2.77-2.66h1.54Z" fill="none"/>
      <path d="M18.05,5.96v1.8c-.81,.87-1.66,1.75-2.54,2.62l-.22,.22c-.66,.67-1.33,1.32-1.99,1.95h-1.76v-.08s6.51-6.51,6.51-6.51Z" fill="none"/>
      <circle cx="22.06" cy="2.03" r="2.03" fill="#95adbc"/>
      <polygon points="21.75 4.14 21.38 4.51 19.56 2.69 19.92 2.32 20.12 2.51 20.12 2.52 20.81 3.2 20.81 3.21 21.61 4 21.75 4.14" fill="#617d8c"/>
      <rect x=".15" y="13.93" width="18.15" height="1.9" transform="translate(13.22 -2.16) rotate(45)" fill="#95adbc"/>
      <rect x="14.57" y="18.9" width="1.21" height="4" transform="translate(19.22 -4.61) rotate(45)" fill="#617d8c"/>
      <rect x="2.55" y="6.88" width="1.21" height="4" transform="translate(7.2 .37) rotate(45)" fill="#617d8c"/>
    </g>
  </g>
</svg>