<?xml version="1.0" encoding="UTF-8"?>
<svg id="_Шар_2" data-name="Шар 2" xmlns="http://www.w3.org/2000/svg" viewBox="0 0 24.12 24.06">
  <g id="_2handschwert" data-name="2handschwert">
    <g>
      <path d="M22.68,1.44l-3.5,3.5c-.36-.36-.75-.65-1.12-.84,1.32-1.22,2.62-2.35,3.88-3.4l.74,.74Z" fill="#936639"/>
      <path d="M12.95,11.17l-3.72,3.72c-.25-.25-.52-.5-.78-.71,1.12-1.35,2.35-2.74,3.66-4.15,.2,.38,.48,.78,.85,1.15Z" fill="#936639"/>
      <path d="M20.12,6.27c-.18-.44-.51-.91-.93-1.33l3.5-3.5,.83,.83c-1.03,1.29-2.16,2.63-3.4,4Z" fill="#704620"/>
      <path d="M14.31,12.12c-1.46,1.34-2.88,2.56-4.27,3.66-.22-.28-.47-.55-.73-.81l-.08-.08,3.72-3.72c.43,.43,.91,.76,1.36,.95Z" fill="#704620"/>
      <path d="M24.12,0V2.56c-.25-.04-.49-.15-.68-.35l-.76-.77,1.44-1.44Z" fill="#667784"/>
      <path d="M24.12,0l-1.44,1.44-.75-.74-.02-.02c-.2-.19-.31-.43-.35-.68h2.56Z" fill="#848f99"/>
      <path d="M9.74,17.72l-2.76,2.76c-.34-1.07-.94-1.76-1.26-2.08l2.49-2.49c.59,.59,1.1,1.19,1.53,1.8Z" fill="#7d8489"/>
      <path d="M8.21,15.92l-2.49,2.49c-.32-.32-1-.92-2.08-1.26l2.76-2.76c.88,.63,1.49,1.21,1.81,1.53Z" fill="#adb5bd"/>
      <path d="M5.72,18.41l-1.41,1.41c-.32-.32-1-.92-2.08-1.26l1.41-1.41c1.07,.34,1.76,.94,2.08,1.26Z" fill="#d5dde2"/>
      <path d="M6.98,20.49l-1.41,1.41c-.34-1.07-.94-1.76-1.26-2.08l1.41-1.41c.32,.32,.92,1,1.26,2.08Z" fill="#8f989e"/>
      <path d="M5.57,21.9l-2.09,2.09H.14l4.17-4.17c.32,.32,.92,1,1.26,2.08Z" fill="#7d8489"/>
      <path d="M4.3,19.82L.14,23.99l-.07,.07-.06-.06h-.01v-3.21l2.22-2.23h.01c1.07,.34,1.75,.94,2.07,1.26Z" fill="#adb5bd"/>
      <path d="M10.05,14.07l-1.18,1.18c-.61-.51-1.23-1.01-1.84-1.52,.23-.42,.49-.86,.8-1.32,.25-.38,.51-.72,.76-1.03,.07,.32,.18,.71,.37,1.12,.33,.73,.77,1.25,1.1,1.57Z" fill="#848f99"/>
      <path d="M12.8,15.52c-.32,.27-.66,.54-1.02,.81-.57,.43-1.13,.8-1.66,1.13-.42-.73-.84-1.47-1.25-2.2l1.18-1.18c1.07,1.06,2.29,1.36,2.75,1.45Z" fill="#667784"/>
      <path d="M8.94,15.18l-1.03,1.03c-.26-.26-.77-.74-1.53-1.25-1.32-.9-3.41-1.88-6.27-1.97l.54-.54c.72-.07,4.55-.39,7.62,2.15,.23,.17,.45,.38,.66,.59Z" fill="#bcc6ce"/>
      <path d="M11.68,23.46l-.54,.54c-.02-.94-.2-3.69-1.96-6.27-.35-.52-.77-1.03-1.25-1.52l1.03-1.03,.06,.06c.22,.22,.42,.45,.6,.68,2.44,3.05,2.15,6.77,2.07,7.53Z" fill="#99a3aa"/>
      <path d="M18.74,7.77c-.19-.46-.52-.96-.98-1.41-.38-.38-.79-.68-1.19-.88,.49-.47,.99-.93,1.48-1.38,.37,.19,.76,.48,1.12,.84,.42,.42,.75,.89,.93,1.33-.44,.5-.9,1-1.37,1.5Z" fill="#aa4100"/>
      <path d="M17.34,9.21c-.19-.47-.53-.98-.99-1.44-.39-.39-.81-.69-1.22-.89,.39-.39,.78-.77,1.17-1.15,.08-.08,.18-.16,.27-.25,.4,.2,.81,.5,1.19,.88,.45,.45,.78,.95,.98,1.41l-.13,.13c-.4,.43-.83,.87-1.27,1.31Z" fill="#b76730"/>
      <path d="M17.34,9.21l-.12,.12c-.33,.33-.66,.66-1,.98-.1,.1-.21,.21-.31,.3-.18-.47-.52-.98-.98-1.43-.39-.39-.81-.69-1.21-.88l.13-.13c.34-.35,.69-.7,1.03-1.04l.25-.25c.4,.21,.83,.5,1.22,.89,.46,.46,.8,.97,.99,1.44Z" fill="#aa4100"/>
      <path d="M15.92,10.61l-.12,.12c-.49,.48-1,.94-1.48,1.39-.45-.19-.93-.52-1.36-.95-.37-.37-.65-.76-.85-1.15,.45-.49,.91-.98,1.39-1.47,.08-.08,.16-.17,.24-.25,.4,.19,.82,.49,1.21,.88,.45,.45,.79,.96,.98,1.43Z" fill="#b76730"/>
    </g>
  </g>
</svg>