<?xml version="1.0" encoding="UTF-8"?>
<svg id="_Шар_2" data-name="Шар 2" xmlns="http://www.w3.org/2000/svg" viewBox="0 0 23.8 23.92">
  <g id="_1handschwert" data-name="1handschwert">
    <g id="sword_icon">
      <g>
        <path d="M1.58,21.11h-.05S0,23.92,0,23.92c.34-1.12,.68-2.23,1.03-3.35l.55,.55Z" fill="#3e9b7a"/>
        <path d="M1.05,20.49c.66-.05,1.32-.11,1.99-.17l.28,.28-1.74,.52-.55-.55s.01-.05,.02-.08Z" fill="#2b8764"/>
        <polygon points="3.32 20.6 3.73 21 3.4 22.92 2.84 22.36 3.32 20.6" fill="#113f2d"/>
        <polygon points="1.58 21.11 3.31 20.6 3.32 20.6 2.84 22.36 1.58 21.11" fill="#18513b"/>
        <path d="M0,23.92l2.84-1.56,.56,.56c-1.13,.33-2.27,.67-3.4,1Z" fill="#1b5943"/>
        <polygon points="1.53 21.13 1.58 21.11 2.84 22.36 0 23.92 1.53 21.13" fill="#2b7f63"/>
        <path d="M3.98,21.56l-.43,.43c-.04-.41-.19-.79-.49-1.08,0,0-.01-.01-.03-.01,0-.02-.02-.02-.04-.01-.28-.28-.64-.44-1.02-.48l.23-.21,.21-.21,1.58,1.58Z" fill="#b6ad90"/>
        <path d="M3.98,21.56l-.43,.43c-.06-.38-.23-.74-.54-1.04,0,0-.01-.01-.03-.01,0-.02-.02-.02-.04-.02-.28-.28-.62-.45-.99-.51l.23-.21,.21-.21,1.58,1.58Z" fill="#7f714a"/>
        <polygon points="6.87 18.66 6.45 19.08 5.85 18.07 5.28 17.09 5.29 17.08 6.87 18.66" fill="#56331b"/>
        <polygon points="5.41 19.03 5 18.92 3.77 18.6 4.64 17.73 5.21 18.7 5.41 19.03" fill="#56331b"/>
        <polygon points="5.57 19.96 4.56 20.97 3.97 19.95 3.69 19.48 4.28 19.63 5.57 19.96" fill="#56331b"/>
        <path d="M21.92,4.62l-13.81,12.47-.69-.69L16.87,6.87,23.8,0V.52c-.04,1.57-.72,3.05-1.89,4.1Z" fill="#4f7767"/>
        <path d="M23.8,0l-6.87,6.93L7.39,16.38l-.68-.68L19.18,1.89C20.24,.72,21.72,.04,23.28,0h.52Z" fill="#acccc0"/>
        <path d="M20.77,4.98L7.97,16.82l-.49-.49L16.36,7.41,22.84,.96l-.06,.43c-.2,1.3-.93,2.59-2.01,3.59Z" fill="#77968a"/>
        <path d="M22.84,.96l-6.44,6.48L7.47,16.31l-.48-.48L18.82,3.04c1-1.08,2.29-1.81,3.59-2.01l.43-.06Z" fill="#98afa7"/>
        <path d="M19.56,2.82c.04,.08,1.22-.59,1.59-.21,.36,.37-.3,1.48-.21,1.52,.13,.07,1.63-2.02,1.21-2.46-.43-.45-2.65,1.02-2.59,1.14Z" fill="#bee5d5"/>
        <path d="M8.23,18.78s-.01,0-.03,0c-.09,0-.58-.08-1.09-.35-.31-.16-.64-.39-.89-.72-.02-.02-.04-.05-.06-.08l-.03-.03c-.13-.14-.37-.4-.7-.64-.11-.08-.22-.15-.35-.22h0c-.08-.04-.16-.08-.24-.11l-.06-.06-.04,.02s-.05-.02-.07-.03c-1.24-.44-2.22,.19-2.32-.04,0-.02,0-.04,0-.05,2.12-1.29,3.25-1.26,3.89-.89,.42,.25,.6,.61,.86,1,.01,.03,.03,.04,.04,.07,.01,.03,.04,.05,.06,.09,.21,.26,.46,.55,.91,.78,.24,.13,1.37,.68,2.6,.19,.34-.14,.61-.32,.82-.51-.21,.49-1.64,1.77-3.27,1.57Z" fill="#77968a"/>
        <path d="M11.51,17.2c-.21,.19-.49,.37-.82,.51-1.23,.49-2.35-.06-2.6-.19-.49-.26-.75-.56-.97-.87l.64-.64s0-.02-.02-.04c.22,.24,.72,.78,1.46,1.04,1.24,.44,2.22-.19,2.32,.04,0,.02,0,.04,0,.06,0,.03-.01,.06-.03,.09Z" fill="#bee5d5"/>
        <path d="M7.77,16.01l-.64,.64s-.03-.04-.04-.07c-.26-.39-.44-.75-.86-1-.64-.37-1.77-.41-3.89,.89h0c.04-.41,1.57-1.9,3.33-1.67,.14,.01,1.37,.19,2.05,1.15l.03,.03s.01,.03,.02,.04Z" fill="#bee5d5"/>
        <polygon points="3.81 21.38 2.4 19.98 2.76 19.61 3.33 20.58 3.81 21.38" fill="#56331b"/>
        <polyline points="3.17 20.75 3.03 20.89 2.98 20.93" fill="none"/>
        <path d="M4.83,16.62s-.06-.03-.09-.04l.04-.02,.06,.06Z" fill="#96a3a8"/>
        <polygon points="6.45 19.08 6.29 19.25 5.41 19.03 5.21 18.7 4.64 17.73 4.72 17.65 4.71 17.65 5.28 17.09 5.85 18.07 6.45 19.08" fill="#6b3f20"/>
        <path d="M4.83,16.62s-.06-.03-.09-.04l.04-.02,.06,.06Z" fill="#b6ad90"/>
        <polygon points="6.29 19.25 5.57 19.96 4.28 19.63 3.69 19.48 3.39 18.98 3.77 18.6 5 18.92 5.41 19.03 6.29 19.25" fill="#6b3f20"/>
        <polygon points="4.56 20.97 3.98 21.56 3.81 21.38 3.33 20.58 2.76 19.61 3.39 18.98 3.69 19.48 3.97 19.95 4.56 20.97" fill="#6b3f20"/>
        <polygon points="3.98 21.56 3.93 21.6 3.81 21.38 3.98 21.56" fill="#b6ad90"/>
        <path d="M7.11,18.42l-.24,.24-1.58-1.58,.13-.13c.33,.24,.57,.5,.7,.64l.03,.03s.04,.06,.06,.08c.25,.34,.58,.56,.89,.72Z" fill="#7f714a"/>
        <line x1="2.98" y1="20.83" x2="20.67" y2="3.13" fill="none"/>
      </g>
    </g>
  </g>
</svg>