<?xml version="1.0" encoding="UTF-8"?>
<svg id="_Шар_2" data-name="Шар 2" xmlns="http://www.w3.org/2000/svg" viewBox="0 0 24.01 23.7">
  <g id="_2handschwert" data-name="2handschwert">
    <g>
      <g>
        <path d="M5.32,20.95s-.37-.1-.78-.18c-.1-.03-.2-.05-.3-.07-.01-.01-.02-.01-.03-.01-.12-.03-.24-.06-.35-.07-.24-.06-.41-.1-.41-.1l.6-.59,.12-.12h0s.72-.72,.72-.72c0,0,.01,.05,.03,.14h0c.03,.14,.07,.34,.12,.57,.03,.11,.05,.22,.07,.32,.1,.44,.19,.83,.21,.83Z" fill="#173872"/>
        <path d="M4.48,21.79s-.34-.09-.72-.17c-.1-.03-.21-.05-.31-.07-.03-.01-.06-.01-.08-.02-.09-.02-.18-.04-.26-.06-.26-.06-.46-.1-.49-.11l.71-.71h0s.12-.13,.12-.13l.6-.59s.03,.15,.08,.38c.03,.11,.05,.24,.08,.38,0,.01,0,.02,0,.03,.03,.1,.05,.21,.07,.31h0c.09,.41,.17,.76,.19,.76Z" fill="#173872"/>
        <path d="M3.64,22.63s-.3-.08-.66-.16c-.11-.03-.23-.05-.34-.07-.11-.03-.23-.06-.33-.08-.3-.07-.54-.12-.54-.12l.72-.71,.72-.72s.04,.2,.1,.48c.02,.08,.04,.18,.06,.28,.01,.03,.02,.06,.02,.09,.03,.11,.06,.22,.08,.33,.08,.37,.15,.68,.17,.68Z" fill="#173872"/>
      </g>
      <g>
        <path d="M3.18,20.74l-.59,.6-.12,.12-.72,.72s-.04-.22-.1-.51c-.03-.12-.05-.26-.08-.4-.02-.09-.04-.19-.06-.28-.07-.35-.13-.63-.15-.63,0,.01,.31,.08,.67,.15,.09,.02,.19,.04,.28,.06,.04,.01,.09,.02,.13,.02,.1,.02,.2,.04,.29,.06,.26,.05,.45,.09,.45,.09Z" fill="#384b7f"/>
        <path d="M4.02,19.9l-.59,.6-.12,.12-.72,.72s-.04-.2-.09-.47c-.02-.09-.04-.18-.06-.28-.01-.04-.01-.08-.02-.12,0-.01-.01-.03-.01-.04-.02-.08-.03-.16-.05-.23-.08-.37-.14-.68-.16-.68,0,.01,.35,.09,.73,.17h.01c.09,.01,.18,.03,.27,.05,.02,0,.05,0,.07,0,.15,.03,.28,.06,.4,.08,.2,.04,.34,.07,.34,.07Z" fill="#384b7f"/>
        <path d="M4.86,19.06l-.71,.72-.72,.72s-.03-.16-.08-.39c-.02-.11-.04-.23-.07-.36,0-.02-.01-.04-.01-.06-.01-.03-.01-.07-.02-.1-.01-.05-.02-.1-.04-.15-.08-.4-.15-.76-.17-.76,0,0,.39,.1,.81,.18,.11,.02,.21,.04,.31,.06,.24,.05,.46,.09,.59,.12h.01c.06,.01,.1,.02,.1,.02Z" fill="#384b7f"/>
      </g>
      <path d="M20.32,3.65l-2.38,2.38c-.3-.3-.63-.54-.97-.74,1.03-.84,2.03-1.56,2.94-2.16,.1,.17,.24,.35,.41,.52Z" fill="#bcbc8b"/>
      <path d="M12.06,11.92l-2.22,2.22c-.19-.19-.38-.37-.57-.55,.02-.01,.03-.02,.04-.02h.01c.05-.08,.09-.14,.14-.21,.18-.26,.36-.52,.57-.79h0c.38-.53,.8-1.08,1.26-1.64,.2,.34,.45,.68,.76,.99Z" fill="#bcbc8b"/>
      <path d="M20.71,3.97c-.54,.92-1.2,1.95-2.03,3.03-.19-.34-.43-.66-.74-.97l2.38-2.38c.13,.13,.27,.23,.39,.32Z" fill="#a09f6e"/>
      <path d="M13.13,12.71c-.58,.46-1.14,.87-1.68,1.26-.29,.2-.58,.39-.86,.57-.07,.04-.13,.08-.19,.12,0,.01-.01,.03-.02,.04-.16-.18-.33-.35-.5-.52l-.04-.04,2.22-2.22c.33,.33,.7,.6,1.07,.79Z" fill="#a09f6e"/>
      <path d="M9.27,13.59s-.05,.03-.08,.04c-.25,.13-.53,.29-.84,.49-2.08-1.87-4.27-3.03-5.84-3.15,.26,.28,.24,.73-.04,1-.29,.29-.76,.29-1.05,0-.19-.2-.26-.49-.19-.74,.01-.02,.02-.04,.02-.06h.01v-.02s.04-.08,.06-.11c.03-.04,.06-.09,.1-.12,.05-.06,.08-.13,.14-.19,1.26-1.26,4.61,.01,7.69,2.84l.02,.02Z" fill="#2f7edd"/>
      <path d="M13.33,22.51s-.08,.08-.12,.1t-.01,.02c-.09,.07-.19,.13-.29,.17-.06,.03-.12,.05-.19,.08-.21,.02-.44-.05-.6-.21-.29-.29-.29-.76-.01-1.05,.27-.27,.7-.29,.99-.06-.12-1.6-1.33-3.87-3.3-6.01h0c.21-.28,.38-.54,.53-.78,.02-.03,.04-.05,.05-.07l.02,.02c2.9,3.1,4.21,6.51,2.93,7.79Z" fill="#3d69b7"/>
      <path d="M9.84,14.14l-1.79,1.79c-.19-.2-1.15,.41-2.57,1.56-.02-.01-.03-.02-.04-.04,.29-.61,.81-1.48,1.68-2.34,.42-.4,.84-.73,1.23-.99,.31-.2,.59-.36,.84-.49,.03,0,.05-.03,.08-.04,.19,.18,.38,.36,.57,.55Z" fill="#3d69b7"/>
      <path d="M10.38,14.7s-.03,.04-.05,.07c-.15,.24-.32,.5-.53,.77h0c-.28,.4-.63,.8-1.03,1.22-.8,.81-1.6,1.38-2.24,1.77-.02,0-.04-.02-.05-.03,1.16-1.43,1.76-2.38,1.57-2.57l1.79-1.79,.04,.04c.17,.17,.34,.34,.5,.52Z" fill="#173872"/>
      <path d="M6.48,18.5s-.07-.04-.1-.07c-.16-.11-.3-.25-.45-.39l2.11-2.11c.19,.19-.41,1.15-1.57,2.57Z" fill="#3d69b7"/>
      <path d="M5.79,19.33c-.21,.26-.43,.52-.68,.79-.03,.03-.06,.07-.09,.1-.12,.15-.24,.29-.39,.44-.03,.04-.06,.07-.09,.11-.08,.09-.15,.17-.25,.26h0s-.06,.09-.1,.13c-.11,.12-.21,.23-.32,.34-.04,.04-.07,.08-.11,.12-.1,.11-.2,.22-.29,.33-.04,.04-.07,.08-.11,.12h-.01c-.09,.1-.17,.18-.26,.29-.03,.04-.07,.07-.11,.11-.37,.4-.77,.81-1.17,1.23H0v-1.27c.52-.5,1.02-.99,1.51-1.44,.03-.03,.05-.06,.08-.08h0c.11-.11,.21-.2,.33-.3l.1-.1c.11-.1,.22-.21,.33-.31,.03-.03,.05-.05,.08-.08h.01c.13-.12,.25-.24,.38-.35,.03-.03,.07-.06,.1-.08h.01c.09-.1,.17-.17,.27-.25,.03-.03,.06-.05,.09-.08h0c.15-.15,.32-.29,.46-.42,.03-.03,.06-.05,.09-.08,.28-.23,.54-.47,.79-.67,.01,.11,.02,.21,.05,.3,.03,.17,.1,.33,.23,.48,.01,.02,.02,.03,.04,.05l.02,.02s.02,.02,.03,.02c.04,.04,.08,.07,.12,.09,.03,.02,.05,.04,.08,.05,.09,.05,.18,.07,.28,.09,.09,.02,.19,.03,.3,.04Z" fill="#3d69b7"/>
      <path d="M5.51,19.26s-.02,.02-.02,.03c-.15,.17-.3,.34-.45,.51-.26,.31-.53,.61-.8,.9l-.02,.02c-.25,.28-.51,.55-.77,.83-.02,.02-.04,.04-.06,.07-.25,.26-.5,.51-.75,.78-.39,.4-.79,.8-1.21,1.22-.03,.03-.05,.05-.08,.08H0v-.85c.51-.53,1.04-1.07,1.57-1.58,.25-.24,.49-.47,.74-.7,.03-.04,.07-.07,.11-.1,.26-.26,.53-.5,.79-.73,.02-.02,.04-.04,.06-.05,.3-.27,.6-.53,.89-.77,.18-.15,.36-.3,.53-.43l.02-.02c.24-.19,.57-.18,.77,.02,.2,.2,.21,.54,.03,.77Z" fill="#55a4f2"/>
      <g>
        <path d="M24.01,0s-.03,.09-.04,.13c-.34,1.07-.67,2.14-1.01,3.21l-.54-.54h-.01s.05-.02,.05-.02L23.97,.07l.04-.07Z" fill="#2fd0f9"/>
        <path d="M22.96,3.34h0s-.01,.06-.02,.08c-.66,.06-1.32,.11-1.99,.16l-.28-.28h.01l1.72-.51h0s.01,.01,.01,.01l.54,.54Z" fill="#2fa6f9"/>
        <polygon points="21.16 1.54 20.67 3.3 20.26 2.89 20.6 .98 21.16 1.54" fill="#2f53f9"/>
        <polygon points="22.41 2.79 20.68 3.3 20.67 3.3 21.16 1.54 22.41 2.79" fill="#257bf9"/>
        <path d="M24.01,0l-.04,.02-.05,.03-2.76,1.49-.56-.56c1.13-.32,2.24-.64,3.37-.97,.01,0,.03-.01,.04-.01Z" fill="#2f73f9"/>
        <polygon points="22.46 2.78 22.41 2.8 21.16 1.54 24.01 0 22.46 2.78" fill="#2fa0f9"/>
      </g>
      <polyline points="20.67 3.3 20.68 3.3 21.8 2.18 23.92 .05 23.94 .03 23.97 .01" fill="none"/>
      <path d="M8.05,15.93l-2.11,2.11c-.14-.14-.27-.28-.37-.43-.04-.04-.06-.08-.08-.11,1.43-1.16,2.38-1.76,2.57-1.57Z" fill="#2f7edd"/>
      <path d="M5.01,18.97s.02,.05,0,.09c-.01,.04-.04,.11-.09,.18-.13,.24-.4,.61-.79,1.07-.09,.1-.17,.2-.27,.31-.16,.2-.35,.41-.55,.63-.06,.07-.13,.14-.2,.22-.25,.27-.52,.56-.8,.85-.35,.37-.72,.75-1.11,1.14l-.24,.24H0v-.41l.51-.51c.39-.39,.77-.77,1.14-1.11,.3-.29,.58-.55,.85-.8,.08-.07,.16-.14,.23-.22,.22-.19,.43-.37,.62-.54,.12-.1,.23-.19,.33-.28,.47-.38,.84-.66,1.07-.79,.07-.04,.13-.06,.17-.07,.04-.02,.07-.02,.09,0Z" fill="#8acaff"/>
      <path d="M8.69,20.61c-.34,.16-.64-.61-1.98-1.07-.4-.14-.69-.19-.92-.21-.11-.01-.21-.02-.3-.04-.1-.02-.19-.04-.28-.09-.03-.01-.05-.03-.08-.05-.04-.02-.08-.05-.12-.09-.01,0-.02,0-.03-.02l-.02-.02,.05-.05,.47-.48,.45-.45c.15,.14,.29,.28,.45,.39,.03,.03,.06,.05,.1,.07,.01,.01,.03,.03,.05,.03,.91,.65,1.92,.82,2.55,.42,.07,.85-.1,1.54-.39,1.66Z" fill="#173872"/>
      <path d="M5.93,18.04l-.45,.45-.47,.48-.05,.05s-.03-.03-.04-.05c-.13-.15-.2-.31-.23-.48-.03-.09-.04-.19-.05-.3-.04-.31-.08-.7-.32-1.18-.51-1.06-1.24-1.25-1.14-1.55,.1-.28,.85-.5,1.78-.46-.31,.64-.13,1.58,.48,2.45,.01,.02,.02,.03,.04,.04,.02,.04,.04,.08,.08,.12,.11,.15,.23,.29,.37,.43Z" fill="#384b7f"/>
      <path d="M18.68,7c-.39,.52-.82,1.07-1.3,1.61-.2-.41-.49-.81-.85-1.17-.34-.35-.72-.62-1.11-.82,.52-.48,1.04-.92,1.55-1.33,.34,.2,.67,.44,.97,.74s.55,.63,.74,.97Z" fill="#8c400c"/>
      <path d="M17.38,8.61c-.39,.46-.8,.92-1.26,1.38-.02,.04-.06,.07-.11,.11-.04-.09-.08-.16-.13-.24-.19-.36-.45-.69-.76-1.01-.31-.31-.65-.56-1-.76-.06-.03-.11-.06-.17-.08l.08-.09c.46-.46,.93-.9,1.39-1.3,.39,.2,.77,.47,1.11,.82,.36,.36,.65,.76,.85,1.17Z" fill="#5b2806"/>
      <path d="M16.01,10.1h-.01c-.17,.19-.34,.37-.53,.55-.26,.25-.52,.49-.78,.73-.04,.03-.07,.07-.11,.1-.03-.07-.08-.14-.11-.21,0,0,0-.01,0-.01-.2-.35-.45-.69-.75-.99s-.65-.56-.99-.75c0,0,0-.01-.02-.02-.03-.02-.08-.05-.12-.06l.07-.06c.24-.27,.49-.54,.74-.81,.19-.2,.37-.38,.56-.56,.06,.02,.11,.05,.17,.08,.35,.2,.69,.45,1,.76,.31,.32,.57,.65,.76,1.01,.05,.08,.09,.15,.13,.24Z" fill="#8c400c"/>
      <path d="M14.58,11.48c-.49,.44-.98,.86-1.45,1.23-.37-.19-.74-.46-1.07-.79-.31-.31-.56-.65-.76-.99h.01c.4-.49,.82-.98,1.27-1.49,.04,.01,.09,.04,.12,.06,.01,.01,.02,.02,.02,.02,.34,.19,.68,.44,.99,.75s.55,.64,.75,.99c0,0,0,.01,0,.01,.03,.07,.08,.14,.11,.21Z" fill="#5b2806"/>
      <path d="M20.95,3.58c-.07,.13-.15,.26-.24,.39-.12-.09-.26-.19-.39-.32-.17-.17-.31-.35-.41-.52,.12-.09,.24-.17,.35-.24l.41,.41,.28,.28Z" fill="#2f7edd"/>
      <polygon points="10.66 14.47 10.59 14.54 10.4 14.72 10.34 14.78 9.19 13.63 9.25 13.57 9.46 13.36 9.51 13.31 10.09 13.89 10.66 14.47" fill="#2f7edd"/>
    </g>
  </g>
</svg>