<?xml version="1.0" encoding="UTF-8"?>
<svg id="_Шар_2" data-name="Шар 2" xmlns="http://www.w3.org/2000/svg" viewBox="0 0 24 24">
  <g id="_2handschwert" data-name="2handschwert">
    <g>
      <path d="M23.4,.58l-2.73,2.73-.66-.66c.04-.06,.07-.11,.11-.17h0c.49-.84,.98-1.66,1.48-2.48h1.22l.58,.58Z" fill="#726a39"/>
      <path d="M24,1.18v1.28c-.8,.5-1.59,1-2.39,1.5-.06,.04-.12,.07-.18,.11l-.76-.76,2.73-2.73,.6,.6Z" fill="#51501d"/>
      <path d="M20.67,3.31l-.23,.22-2.39,2.39v-.12h-1.54c1.09-1.04,2.18-2.03,3.24-2.96,.08-.07,.16-.14,.24-.21l.02,.02,.66,.66Z" fill="#d67b54"/>
      <path d="M15.51,8.46l-3.97,3.97v-1.73c.65-.68,1.33-1.36,2.02-2.06l.18-.18h1.77Z" fill="#d67b54"/>
      <path d="M9.42,12.98v1.57l-.13,.13c-.24-.24-.49-.48-.74-.72,.28-.33,.58-.66,.87-.98Z" fill="#d67b54"/>
      <path d="M21.42,4.06c-.07,.08-.14,.16-.21,.24-1.01,1.13-2.05,2.27-3.16,3.42v-1.8l2.39-2.39,.23-.22,.75,.75Z" fill="#fc9765"/>
      <path d="M11.03,14.63c-.31,.3-.62,.59-.94,.87-.25-.26-.51-.53-.77-.79l-.03-.03,.13-.13v.08h1.61Z" fill="#fc9765"/>
      <path d="M15.51,8.46v1.88l-.22,.22c-.66,.67-1.33,1.32-1.99,1.95h-1.76v-.08l3.97-3.97Z" fill="#fc9765"/>
      <polygon points="3.77 17.36 3.77 20.2 0 23.97 0 21.13 3.77 17.36" fill="#bc6a33"/>
      <polygon points="6.73 20.2 2.93 24 0 24 0 23.97 3.77 20.2 6.73 20.2" fill="#9b5424"/>
      <line x1="8.53" y1="15.44" x2="8.54" y2="15.43" fill="none"/>
      <path d="M10.01,16.92h0c-.16-.17-.33-.34-.49-.5l.5,.5Z" fill="#bc6a33"/>
      <path d="M7.5,14.41c-.13-.13-.26-.26-.4-.38h0s.39,.38,.39,.38Z" fill="#bc6a33"/>
      <path d="M9.3,16.21l-1.46-1.46c.23,.22,.47,.45,.7,.69l.03,.03c.25,.25,.49,.49,.74,.75Z" fill="#bc6a33"/>
      <path d="M18.05,5.92v1.8c-.81,.87-1.66,1.75-2.54,2.62v-1.88l2.54-2.54Z" fill="#d67b54"/>
      <path d="M18.05,5.8v.12l-2.54,2.54h-1.77c.93-.93,1.86-1.81,2.77-2.66h1.54Z" fill="#fc9765"/>
      <path d="M11.03,14.63c-.31,.3-.62,.59-.94,.87-.25-.26-.51-.53-.77-.79l-.03-.03c-.24-.24-.49-.48-.74-.72,.28-.33,.58-.66,.87-.98v1.65h1.61Z" fill="#bc6a33"/>
      <polygon points="6.44 17.53 3.77 20.2 3.77 17.36 6.31 14.82 6.31 17.53 6.44 17.53" fill="#ce7f49"/>
      <polygon points="9.39 17.53 6.73 20.2 3.77 20.2 6.44 17.53 9.39 17.53" fill="#a3653b"/>
      <path d="M10,16.93l-.61,.6h-2.95l2.09-2.09,.98,.98c.16,.16,.33,.33,.49,.51Z" fill="#9b5424"/>
      <path d="M8.53,15.44l-2.09,2.09h-.13v-2.71l.79-.79c.14,.12,.27,.25,.4,.38l1.03,1.03Z" fill="#bc6a33"/>
      <path d="M17.04,23.03l-.76,.75c-1.07-1.24-2.13-2.43-3.19-3.58-.84-.93-1.68-1.81-2.51-2.67-.19-.2-.38-.41-.58-.6h.01s-.71-.72-.71-.72c-.24-.25-.49-.5-.73-.75l-.03-.03,.75-.75,.03,.03c.26,.26,.52,.53,.77,.79,.68,.69,1.33,1.36,1.98,2.03,.85,.9,1.68,1.78,2.46,2.67,.88,.95,1.71,1.89,2.51,2.83Z" fill="#a3653b"/>
      <path d="M10.01,16.92h0c-.16-.17-.33-.34-.49-.5l.5,.5Z" fill="#bc6a33"/>
      <path d="M9.29,14.68l-.75,.75c-.23-.23-.47-.46-.7-.68l-.73-.73h-.01c-.26-.26-.53-.51-.79-.76-.85-.82-1.7-1.61-2.54-2.38-1.19-1.1-2.37-2.14-3.53-3.13l.76-.76c.95,.82,1.87,1.63,2.77,2.45,.88,.79,1.72,1.57,2.54,2.35,.77,.73,1.51,1.45,2.24,2.17,.25,.24,.5,.48,.74,.72Z" fill="#ce7f49"/>
      <path d="M7.5,14.41c-.13-.13-.26-.26-.4-.38h0s.39,.38,.39,.38Z" fill="#bc6a33"/>
      <path d="M9.3,16.21l-1.46-1.46c.23,.22,.47,.45,.7,.69l.03,.03c.25,.25,.49,.49,.74,.75Z" fill="#bc6a33"/>
      <path d="M11.03,14.63c-.31,.3-.62,.59-.94,.87-.25-.26-.51-.53-.77-.79l-.03-.03c-.24-.24-.49-.48-.74-.72,.28-.33,.58-.66,.87-.98v1.65h1.61Z" fill="#bc6a33"/>
      <polygon points="21.75 4.1 21.38 4.47 19.56 2.65 19.92 2.28 20.12 2.47 20.12 2.48 20.81 3.16 20.81 3.17 21.61 3.96 21.75 4.1" fill="#ce7f49"/>
      <path d="M13.3,12.51c-.76,.73-1.52,1.45-2.27,2.12h-1.61v-.08l2.12-2.12v.08h1.76Z" fill="#d67b54"/>
      <path d="M11.54,10.7v1.73l-2.12,2.12v-1.57c.68-.75,1.39-1.51,2.12-2.28Z" fill="#fc9765"/>
      <path d="M18.05,5.8v.12l-6.51,6.51v-1.73c.65-.68,1.33-1.36,2.02-2.06l.18-.18c.93-.93,1.86-1.81,2.77-2.66h1.54Z" fill="none"/>
      <path d="M18.05,5.92v1.8c-.81,.87-1.66,1.75-2.54,2.62l-.22,.22c-.66,.67-1.33,1.32-1.99,1.95h-1.76v-.08l6.51-6.51Z" fill="none"/>
    </g>
  </g>
</svg>