<?xml version="1.0" encoding="UTF-8"?>
<svg id="_Шар_2" data-name="Шар 2" xmlns="http://www.w3.org/2000/svg" viewBox="0 0 24 24">
  <g id="_2handschwert" data-name="2handschwert">
    <g>
      <path d="M24,0V.33l-1.42,1.42c-.18-.19-.37-.38-.54-.57-.08-.41,.02-.85,.32-1.18h1.64Z" fill="#657a72"/>
      <path d="M24,.33v1.86c-.29,.13-.61,.16-.92,.08-.25-.05-.48-.17-.66-.36-.21-.2-.34-.46-.38-.73,.17,.19,.36,.38,.54,.57l1.42-1.42Z" fill="#4f7767"/>
      <path d="M22.42,1.91l-2.55,2.56c-.25-.27-.52-.49-.77-.69,.98-.87,1.95-1.73,2.94-2.6,.04,.27,.17,.53,.38,.73Z" fill="#b6ad90"/>
      <path d="M23.08,2.27c-.86,.97-1.71,1.96-2.56,2.93-.18-.22-.36-.44-.58-.66l-.07-.07,2.55-2.56c-.21-.2-.34-.46-.38-.73,.17,.19,.36,.38,.54,.57,.16,.18,.33,.35,.5,.52Z" fill="#7f714a"/>
      <path d="M12.37,11.96l-.85,.86-1.24-1.24c.25-.22,.49-.43,.73-.65,.45,.25,.92,.59,1.36,1.03Z" fill="#b6ad90"/>
      <path d="M13.4,13.31c-.22,.26-.43,.5-.65,.74-.2,.24-.41,.48-.62,.71l-1.28-1.28,.67-.66,.85-.86c.45,.45,.78,.91,1.03,1.35Z" fill="#7f714a"/>
      <path d="M14.99,11.5c-.53,.6-1.06,1.2-1.59,1.81-.25-.44-.58-.9-1.03-1.35l1.68-1.67c.4,.4,.71,.81,.94,1.21Z" fill="#7f714a"/>
      <path d="M9.57,12.2c-.66,.41-1.33,.82-2,1.23l-1.94-1.94,1.61-1.61,1.93,1.93,.4,.39Z" fill="#6a9181"/>
      <path d="M14.46,17.09c-.54,.53-1.08,1.07-1.62,1.61l-1.93-1.93-.59-.59c.26-.44,.54-.87,.8-1.3l-.83-.83h-.01l-.83-.84c-.43,.27-.86,.54-1.29,.8l-.59-.58c.67-.41,1.34-.82,2-1.23l1.28,1.28,1.28,1.28,.4,.4,1.93,1.93Z" fill="#4f7767"/>
      <path d="M7.24,9.88l-1.61,1.61c-1.12-.2-2.24-.4-3.36-.6,.27-.6,.77-1.49,1.67-2.37,.84-.85,1.72-1.35,2.31-1.61,.33,.99,.67,1.98,.99,2.97Z" fill="#98afa7"/>
      <path d="M17.43,18.08c-.29,.6-.79,1.48-1.66,2.34-.86,.86-1.73,1.36-2.33,1.65-.2-1.13-.4-2.25-.6-3.37,.54-.54,1.08-1.08,1.62-1.61h0c.99,.33,1.98,.66,2.97,.99Z" fill="#657a72"/>
      <path d="M3.17,10.51c.77,.14,1.53,.27,2.3,.41l1.1-1.1c-.23-.67-.45-1.35-.68-2.02-.4,.19-1,.52-1.58,1.1-.6,.6-.95,1.21-1.13,1.62Z" fill="#bee5d5"/>
      <path d="M13.82,21.17c-.14-.77-.27-1.53-.41-2.3l1.1-1.1c.67,.23,1.35,.45,2.02,.68-.19,.41-.54,1.01-1.13,1.59-.59,.58-1.18,.93-1.59,1.12Z" fill="#bee5d5"/>
      <path d="M5.96,15.02c-.28,.41-.58,.8-.89,1.21-1.18-.85-2.39-1.34-3.38-1.45,.9-.89,2.59-.74,4.27,.24Z" fill="#6a9181"/>
      <path d="M9.55,22.65c-.1-1.01-.61-2.21-1.46-3.4-.19-.27-.39-.55-.61-.81-.24-.28-.49-.56-.76-.83s-.56-.53-.83-.76c.11-.12,.21-.23,.31-.34,.25-.28,.49-.57,.73-.84,.31,.24,.63,.51,.92,.81,.3,.3,.57,.61,.82,.93,.24,.31,.45,.63,.64,.95,.97,1.68,1.13,3.38,.24,4.29Z" fill="#4f7767"/>
      <path d="M6.93,15.67c-.24,.27-.48,.56-.73,.84-.1,.11-.2,.22-.31,.34-.07,.08-.13,.15-.2,.22-.28,.3-.56,.6-.84,.89-.15,.17-.31,.33-.47,.49-.07,.07-.14,.14-.21,.21-.25,.25-.49,.5-.74,.73-.31,.3-.61,.58-.91,.86-.89,.83-1.74,1.56-2.52,2.2v-1.38c1.48-1.07,3.1-2.47,4.62-4.29,.16-.18,.31-.37,.45-.55,.31-.41,.61-.8,.89-1.21,.32,.19,.65,.4,.97,.65Z" fill="#6a9181"/>
      <path d="M9.31,18.36c-.4,.28-.81,.57-1.22,.89-.24,.19-.5,.41-.75,.62-1.61,1.36-2.87,2.8-3.85,4.13H.68l-.17-.17-.51-.51v-.87c.78-.64,1.63-1.37,2.52-2.2,.3-.28,.6-.56,.91-.86,.25-.23,.49-.48,.74-.73,.07-.07,.14-.14,.21-.21,.16-.16,.32-.32,.47-.49,.28-.29,.56-.59,.84-.89,.07-.07,.13-.14,.2-.22,.11-.12,.21-.23,.31-.34,.25-.28,.49-.57,.73-.84,.31,.24,.63,.51,.92,.81,.3,.3,.57,.61,.82,.93,.24,.31,.45,.63,.64,.95Z" fill="#4f7767"/>
      <path d="M9.04,17.09c-.13,.1-.25,.2-.37,.32-.28,.23-.56,.47-.85,.72-.11,.1-.22,.2-.34,.31-.14,.13-.29,.25-.43,.38-2,1.87-3.63,3.65-4.89,5.18H.68l-.17-.17-.51-.51v-.87c.78-.64,1.63-1.37,2.52-2.2,.3-.28,.6-.56,.91-.86,.25-.23,.49-.48,.74-.73,.07-.07,.14-.14,.21-.21,.16-.16,.32-.32,.47-.49,.28-.29,.56-.59,.84-.89,.07-.07,.13-.14,.2-.22,.11-.12,.21-.23,.31-.34,.25-.28,.49-.57,.73-.84,.1-.12,.21-.24,.31-.37,.25,.07,.49,.18,.7,.32h.01c.13,.12,.26,.25,.39,.37,.15,.15,.28,.3,.41,.45,.01,.02,.02,.03,.03,.05,.11,.2,.2,.39,.26,.6Z" fill="#bee5d5"/>
      <polygon points="11.52 12.82 10.85 13.48 9.57 12.2 9.17 11.81 9.84 11.14 10.28 11.58 11.52 12.82" fill="#98afa7"/>
      <polygon points="13.19 14.49 12.53 15.16 12.13 14.76 10.85 13.48 11.52 12.82 13.19 14.49" fill="#657a72"/>
      <path d="M10.85,13.48l-1.28-1.28c-.66,.41-1.33,.82-2,1.23-.3,.19-.62,.38-.93,.57-.21,.34-.44,.68-.68,1.02,.32,.19,.65,.4,.97,.65,.31,.24,.63,.51,.92,.81,.3,.3,.57,.61,.82,.93,.24,.31,.45,.63,.64,.95,.35-.25,.69-.47,1.02-.67,.19-.31,.39-.61,.58-.92h0c.4-.68,.81-1.34,1.22-2.01l-1.28-1.28Zm-.53,2.7c-.13,.19-.25,.4-.37,.6-.21,.13-.44,.27-.67,.44-.13-.25-.3-.49-.5-.73-.01-.02-.02-.03-.03-.05-.13-.15-.26-.3-.41-.45-.13-.12-.26-.25-.39-.36h-.01c-.26-.23-.55-.43-.83-.59,.16-.21,.3-.44,.45-.65,.19-.13,.4-.25,.6-.38,.43-.26,.86-.53,1.29-.8l.83,.84h.01l.83,.83c-.26,.43-.54,.86-.8,1.3Z" fill="#98afa7"/>
      <path d="M9.24,15.09l-.9,.9c-.13-.13-.26-.25-.39-.36h0c-.27-.23-.55-.43-.83-.59,.16-.22,.3-.45,.45-.66,.2-.13,.4-.25,.6-.37l1.08,1.08Z" fill="#14915c"/>
      <path d="M9.95,16.78c-.21,.13-.43,.28-.66,.44-.13-.25-.3-.49-.5-.73,0-.02-.01-.03-.03-.04-.13-.16-.26-.3-.41-.45l.9-.9,1.08,1.08c-.13,.2-.25,.4-.37,.6Z" fill="#116840"/>
      <path d="M10.32,16.18l-1.08-1.08,1.05-1.05,.83,.83c-.26,.43-.54,.86-.8,1.29Z" fill="#138c58"/>
      <path d="M10.28,14.05l-1.05,1.05-1.08-1.08c.43-.26,.86-.54,1.29-.8l.83,.83Z" fill="#17bc79"/>
      <path d="M19.87,4.47l-1.21,1.2c-.27-.29-.57-.55-.86-.75,.43-.38,.86-.76,1.3-1.14,.25,.2,.52,.42,.77,.69Z" fill="#6b3f20"/>
      <path d="M20.52,5.2c-.39,.43-.76,.86-1.13,1.29-.2-.25-.41-.5-.66-.75l-.07-.07,1.21-1.2,.07,.07c.22,.22,.4,.44,.58,.66Z" fill="#56331b"/>
      <path d="M18.66,5.67l-1.67,1.67-.1-.09c-.3-.29-.59-.53-.88-.74,.6-.53,1.19-1.06,1.79-1.59,.29,.2,.59,.46,.86,.75Z" fill="#56331b"/>
      <path d="M19.39,6.49c-.53,.6-1.07,1.2-1.59,1.81-.2-.29-.45-.59-.74-.88l-.07-.08,1.67-1.67,.07,.07c.25,.25,.46,.5,.66,.75Z" fill="#6b3f20"/>
      <path d="M16.99,7.34l-1.74,1.74c-.38-.37-.76-.66-1.14-.89,.63-.56,1.27-1.12,1.9-1.68,.29,.21,.58,.45,.88,.74l.1,.09Z" fill="#56331b"/>
      <path d="M17.8,8.3c-.56,.63-1.11,1.26-1.67,1.89-.22-.36-.51-.74-.88-1.11l1.74-1.74,.07,.08c.29,.29,.54,.59,.74,.88Z" fill="#6b3f20"/>
      <path d="M15.25,9.08l-1.2,1.21c-.41-.41-.83-.72-1.23-.95,.43-.39,.86-.77,1.29-1.15,.38,.23,.76,.52,1.14,.89Z" fill="#6b3f20"/>
      <path d="M16.13,10.19c-.37,.44-.75,.87-1.14,1.31-.23-.4-.54-.81-.94-1.21l1.2-1.21c.37,.37,.66,.75,.88,1.11Z" fill="#56331b"/>
      <path d="M14.05,10.29l-1.68,1.67c-.44-.44-.91-.78-1.36-1.03,.6-.53,1.21-1.06,1.81-1.59,.4,.23,.82,.54,1.23,.95Z" fill="#56331b"/>
      <path d="M14.99,11.5c-.53,.6-1.06,1.2-1.59,1.81-.25-.44-.58-.9-1.03-1.35l1.68-1.67c.4,.4,.71,.81,.94,1.21Z" fill="#6b3f20"/>
      <line x1="11.52" y1="12.82" x2="12.37" y2="11.96" fill="none"/>
      <polyline points=".34 24 .51 23.83 6.72 17.61 7.85 16.48 8.34 15.99" fill="none"/>
      <line x1="10.28" y1="14.05" x2="10.85" y2="13.48" fill="none"/>
      <line x1="22.42" y1="1.91" x2="22.58" y2="1.75" fill="none"/>
      <line x1="12.37" y1="11.96" x2="14.05" y2="10.29" fill="none"/>
    </g>
  </g>
</svg>