<?xml version="1.0" encoding="UTF-8"?>
<svg id="_Шар_2" data-name="Шар 2" xmlns="http://www.w3.org/2000/svg" viewBox="0 0 23.77 24.04">
  <g id="_1handschwert" data-name="1handschwert">
    <g id="sword_icon">
      <g>
        <path d="M5.73,19.09l-.94-.98,.49-.47c0,.05,.02,.11,.03,.15,.19,.56,.96,.44,1.55,1.03-.53-.02-.87,.12-1.09,.24-.01,.01-.03,.01-.04,.03Z" fill="#601f12"/>
        <path d="M3.95,21.59l-1.34-1.41,1.85-1.76,.92,.96c-.07,.07-.13,.14-.2,.23l-.93-.98-.32,.31,1.01,1.06c-.05,.09-.1,.18-.15,.27l-1.07-1.13-.33,.31,1.18,1.24c-.05,.09-.11,.18-.17,.27l-1.24-1.3-.33,.31,1.3,1.37c-.05,.08-.12,.16-.18,.24Z" fill="#601f12"/>
        <path d="M3.2,22.37l-1.37-1.44,.46-.44,1.37,1.44c-.17,.19-.34,.34-.46,.44Z" fill="#601f12"/>
        <path d="M20.01,7.22c-.34,.33-.75,.72-1.23,1.14,2.89-3,3.5-6.95,3.5-6.95l1.49-1.42s-.65,4.19-3.77,7.22Z" fill="#edf2f2"/>
        <path d="M18.78,8.37s0,.02-.03,.03c-.49,.45-1.04,.95-1.63,1.47,2.39-2.9,2.93-6.31,2.93-6.31l2.24-2.13s-.61,3.94-3.5,6.95Z" fill="#c4e8e7"/>
        <path d="M17.12,9.87l-.02,.02c-.77,.68-1.59,1.41-2.44,2.14,1.95-2.72,2.4-5.62,2.4-5.62l2.98-2.85s-.53,3.41-2.93,6.31Z" fill="#afe2df"/>
        <path d="M14.66,12.03c-.42,.35-.84,.72-1.25,1.08,1.75-2.62,2.16-5.28,2.16-5.28l1.49-1.42s-.45,2.91-2.4,5.62Z" fill="#edf2f2"/>
        <path d="M13.41,13.1h0c-3.04,2.63-5.83,4.97-5.83,4.97l-1.31-1.37L15.57,7.83s-.41,2.66-2.16,5.28Z" fill="#8adbd5"/>
        <path d="M7.74,21.04c-.06-1.57-.46-2.65-.85-3.37-.33-.61-.7-1.07-.85-1.52,.75-.69,1.58-1.25,1.64-1.19,.06,.07-.72,.7-.56,1.4,.07,.32,.31,.49,.44,.61,1.06,.97,.47,3.66,.18,4.07Z" fill="#edf2f2"/>
        <path d="M7.74,21.04c-.02,.05-.05,.06-.07,.06-.17,0-.02-1.26-.64-2.09-.06-.07-.12-.14-.18-.2-.59-.59-1.36-.47-1.55-1.03-.01-.04-.03-.1-.03-.15-.04-.29,.1-.76,.76-1.48,.16,.45,.53,.91,.85,1.52,.38,.72,.79,1.8,.85,3.37Z" fill="#dd9b94"/>
        <path d="M5.73,19.09c-.14,.08-.26,.18-.35,.29l-.92-.96,.33-.31,.94,.98Z" fill="#6b3f20"/>
        <path d="M4.94,20l-1.01-1.06,.32-.31,.93,.98c-.08,.12-.16,.25-.24,.39Z" fill="#6b3f20"/>
        <path d="M4.56,20.7l-1.18-1.24,.33-.31,1.07,1.13c-.07,.14-.14,.27-.22,.42Z" fill="#6b3f20"/>
        <path d="M4.13,21.35l-1.3-1.37,.33-.31,1.24,1.3c-.08,.12-.17,.26-.26,.38Z" fill="#6b3f20"/>
        <path d="M3.66,21.93l-1.37-1.44,.32-.31,1.34,1.41s-.08,.09-.12,.14c-.06,.07-.11,.14-.17,.19Z" fill="#6b3f20"/>
        <g>
          <g>
            <circle cx="1.65" cy="22.39" r="1.62" fill="#61c1bf"/>
            <path d="M.48,23.51c1.47,1.48,3.68-.68,2.28-2.17-1.44-1.47-3.68,.61-2.28,2.17H.48Zm0,0c-1.49-1.59,.86-3.88,2.42-2.31,1.49,1.65-.88,3.86-2.42,2.31H.48Z" fill="#fff"/>
          </g>
          <g>
            <circle cx="1.65" cy="22.39" r="1.13" fill="#5ae0d9"/>
            <path d="M2.43,23.21c1.02-1.02-.47-2.53-1.5-1.57-1.01,.98,.43,2.54,1.5,1.57h0Zm0,0c-1.12,1.05-2.74-.6-1.63-1.71,1.16-1.06,2.73,.65,1.63,1.71h0Z" fill="#f3fffe"/>
          </g>
          <circle cx="1.65" cy="22.39" r=".6" fill="#8dfff4"/>
        </g>
        <polygon points="22.16 2.64 21.98 2.97 22.24 3.25 21.87 3.18 21.69 3.51 21.64 3.14 21.26 3.07 21.61 2.9 21.56 2.52 21.82 2.8 22.16 2.64" fill="#fff"/>
        <polygon points="16.42 7.96 16.59 8.3 16.96 8.25 16.69 8.51 16.86 8.85 16.52 8.68 16.25 8.94 16.31 8.57 15.98 8.39 16.35 8.33 16.42 7.96" fill="#fff"/>
        <polygon points="12.13 11.63 12.3 11.97 12.68 11.92 12.4 12.19 12.57 12.53 12.24 12.35 11.96 12.62 12.03 12.24 11.69 12.06 12.07 12.01 12.13 11.63" fill="#fff"/>
        <polygon points="20.25 5.26 20.32 5.41 20.49 5.39 20.37 5.5 20.44 5.65 20.29 5.58 20.17 5.69 20.2 5.53 20.05 5.45 20.22 5.43 20.25 5.26" fill="#fff"/>
        <polygon points="10.18 13.77 10.36 14.36 10.98 14.37 10.47 14.72 10.65 15.31 10.16 14.94 9.65 15.29 9.85 14.71 9.37 14.34 9.98 14.35 10.18 13.77" fill="#fff"/>
      </g>
    </g>
  </g>
</svg>