<?xml version="1.0" encoding="UTF-8"?>
<svg id="_Шар_2" data-name="Шар 2" xmlns="http://www.w3.org/2000/svg" viewBox="0 0 23.79 23.89">
  <g id="_2handschwert" data-name="2handschwert">
    <g>
      <path d="M18.43,21.85c-.14,.28-1.35-.07-1.88-.23-.04-.02-.08-.03-.11-.04-.56-.2-1.66-.67-2.65-1.69-.7-.73-1.29-1.67-1.66-2.91h0s-.02-.06-.06-.11c-.1-.18-.36-.52-.38-.6,.03-.29,.49-.42,.5-.62,0-.02-.01-.04-.01-.06t.02,0c.32,.39,1.57,1.87,2.63,2.94,2.13,2.16,3.78,2.96,3.6,3.31Z" fill="#e0a838"/>
      <path d="M5.3,9.01c1.08,1.07,2.57,2.33,2.95,2.65-.02,0-.04,0-.06,0s-.04,0-.06,.02h-.01c-.13,.08-.25,.33-.42,.43-.04,.03-.08,.05-.13,.05-.01,0-.04-.01-.06-.03-.13-.07-.39-.26-.54-.35-.05-.03-.08-.05-.1-.06t-.02-.01c-1.23-.37-2.17-.95-2.9-1.65-1.02-.99-1.49-2.09-1.69-2.65-.01-.03-.02-.06-.03-.1-.17-.53-.52-1.75-.24-1.89,.35-.18,1.15,1.47,3.31,3.6Z" fill="#e0a838"/>
      <path d="M8.29,11.68s-.02-.01-.03-.02h.01s.02,.02,.02,.02Z" fill="#e0a838"/>
      <path d="M16.56,21.61s0,.01-.01,.01c-.12,.18-.76,.07-1.66-.25,.04-.01,.06-.03,.08-.05,.19-.26-.75-.66-2.22-2.34-.33-.39-.62-.75-.87-1.1,.07-.3,.14-.62,.19-.98,.02,.02,.04,.05,.06,.07h0c.48,.61,1.05,1.29,1.77,2.04,1.8,1.86,2.81,2.35,2.66,2.6Z" fill="#e0bf38"/>
      <path d="M14.97,21.32s-.04,.04-.08,.05c-.36,.2-1.64-.07-3.08-.75,.55,.14,.93,.16,1.02,.02,.04-.07,.01-.14-.09-.26h-.01c-.27-.32-1.03-.88-2.07-2.12-.06-.07-.11-.13-.16-.2,.49,.02,.92,.06,1.3,.12,.03-.1,.05-.2,.08-.3,.25,.35,.54,.71,.87,1.1,1.47,1.68,2.41,2.08,2.22,2.34Z" fill="#ffe471"/>
      <path d="M12.83,20.64c-.09,.14-.47,.12-1.02-.02-.01-.01-.02-.01-.04-.02-.84-.4-1.74-.95-2.52-1.62-.19-.15-.37-.32-.56-.5-.1-.1-.21-.21-.31-.32,.1,0,.2-.03,.31-.03,.65-.07,1.26-.08,1.81-.07,.05,.07,.1,.13,.16,.2,1.04,1.24,1.8,1.8,2.07,2.11h.01c.1,.13,.13,.2,.09,.27Z" fill="#fff7cf"/>
      <path d="M6.93,11.77c-.36,.03-.7,.09-1.02,.15-.14-.09-.27-.19-.41-.31-.21-.16-.42-.33-.63-.51-1.68-1.47-2.08-2.41-2.34-2.22-.02,.02-.04,.04-.05,.08-.32-.9-.43-1.54-.25-1.66,0-.01,.01-.01,.01-.01,.25-.15,.74,.86,2.6,2.66,.74,.71,1.42,1.28,2.01,1.75,.03,.03,.05,.05,.08,.07Z" fill="#e0bf38"/>
      <path d="M5.61,11.98c.08,.38,.16,.85,.21,1.39-.08-.05-.15-.12-.23-.18-1.24-1.04-1.8-1.8-2.11-2.07h-.01c-.12-.11-.19-.14-.26-.1-.14,.09-.12,.47,.02,1.02-.68-1.44-.95-2.72-.75-3.08,.01-.04,.03-.06,.05-.08,.26-.19,.66,.75,2.34,2.22,.21,.18,.42,.35,.63,.51,.14,.12,.27,.22,.41,.31-.1,.02-.21,.04-.3,.06Z" fill="#ffe471"/>
      <path d="M5.81,15.12c-.02,.14-.03,.28-.05,.42-.15-.14-.3-.27-.43-.41-.16-.18-.32-.36-.46-.53-.67-.78-1.22-1.68-1.62-2.52-.01-.02-.01-.03-.02-.04-.14-.55-.16-.93-.02-1.02,.07-.04,.14-.01,.26,.09h.01c.31,.28,.87,1.04,2.11,2.08,.08,.06,.15,.13,.23,.18,.04,.53,.05,1.11-.01,1.75Z" fill="#fff7cf"/>
      <path d="M23.39,.4l-.12,.12-.34,.35h-.01l-.37,.37-.85,.85-.23,.23c-.16-.17-.27-.36-.33-.56-.05-.17-.07-.35-.06-.52,.02-.3,.15-.61,.38-.84,.18-.18,.4-.3,.63-.36,.45-.11,.95,.01,1.3,.36Z" fill="none"/>
      <path d="M23.74,1.7v.02c-.06,.22-.17,.42-.35,.6-.23,.23-.52,.36-.82,.38-.18,.03-.37,.01-.54-.05-.21-.07-.4-.17-.56-.33l.23-.23,.85-.85,.37-.37h.01l.34-.35,.12-.12c.35,.35,.47,.85,.35,1.3Z" fill="none"/>
      <path d="M21.47,2.32l-3.3,3.3-.06-.06c-.29-.29-.54-.57-.78-.85,1.25-1.09,2.37-1.99,3.24-2.58,.15-.1,.29-.2,.43-.29,.05-.02,.09-.05,.14-.08,.06,.2,.17,.39,.33,.56Z" fill="#601f12"/>
      <path d="M12.98,10.81l-1.18,1.17c-.41-.08-.85-.16-1.33-.22,.49-.59,1.05-1.24,1.67-1.91,.24,.31,.51,.63,.84,.96Z" fill="#601f12"/>
      <path d="M22.03,2.65s-.05,.08-.08,.13c-.09,.13-.18,.28-.29,.44-.59,.86-1.49,1.98-2.58,3.22-.29-.24-.6-.51-.91-.82l3.3-3.3c.16,.16,.35,.26,.56,.33Z" fill="#28120e"/>
      <path d="M13.94,11.64c-.66,.6-1.28,1.14-1.87,1.63-.07-.48-.17-.91-.27-1.29l1.18-1.17c.32,.32,.65,.59,.96,.83Z" fill="#28120e"/>
      <path d="M11.8,11.98l-1.86,1.87h-.01l-3.51,3.52h-.01l-1.86,1.87c.14-.26,.28-.54,.42-.85l.02-.02c.14-.32,.27-.66,.39-1.06,.05-.16,.1-.32,.15-.49,.11-.44,.19-.87,.23-1.28,.02-.14,.03-.28,.05-.42,.06-.64,.05-1.22,.01-1.75-.05-.54-.13-1.01-.21-1.39,.09-.02,.2-.04,.3-.06,.32-.06,.66-.12,1.02-.15h.04c.36-.06,.74-.09,1.15-.1h.01s.08-.01,.12-.01h.02c.45,0,.93,0,1.43,.02,.26,.03,.52,.05,.77,.08,.48,.06,.92,.14,1.33,.22Z" fill="#edf2f2"/>
      <path d="M12.2,15.6c-.02,.46-.07,.88-.13,1.27v.03c-.05,.36-.12,.68-.19,.98-.03,.1-.05,.2-.08,.3-.38-.06-.81-.1-1.3-.12-.55-.01-1.16,0-1.81,.07-.11,0-.21,.02-.31,.03-.41,.05-.86,.13-1.32,.23-.22,.05-.44,.1-.64,.17-.41,.1-.78,.24-1.11,.37l-.02,.02c-.28,.1-.51,.18-.74,.29l1.86-1.87h.01l3.51-3.52h.01l1.86-1.87c.1,.38,.2,.81,.27,1.29h0c.07,.39,.1,.8,.12,1.25,.02,.38,.02,.74,.01,1.08Z" fill="#c5d8d7"/>
      <path d="M9.94,13.84l-3.53,3.53c.07-.12,.14-.26,.21-.41h0c.07-.17,.13-.33,.19-.53,.03-.08,.05-.15,.07-.24,.06-.21,.09-.42,.11-.62,.01-.07,.02-.13,.02-.2,.03-.31,.02-.59,0-.85-.02-.26-.06-.5-.1-.68,.04-.01,.1-.02,.14-.03,.15-.03,.32-.06,.5-.08,.4-.05,.85-.07,1.35-.04,.13,.01,.25,.02,.37,.04,.23,.03,.45,.07,.65,.11Z" fill="#f9f9f9"/>
      <path d="M9.94,16.86c-.19-.03-.4-.04-.63-.06-.27,0-.56,0-.88,.03-.05,0-.1,.01-.15,.02-.2,.02-.42,.06-.64,.11-.11,.02-.21,.05-.31,.08-.2,.05-.38,.12-.54,.18h-.01c-.13,.06-.24,.1-.36,.15l3.53-3.53c.05,.19,.09,.4,.13,.63h0c.03,.19,.05,.39,.06,.61,.02,.43-.01,.82-.06,1.16-.03,.17-.06,.33-.1,.47-.01,.05-.02,.1-.03,.14Z" fill="#e1f4f3"/>
      <path d="M5.76,15.54c-.04,.41-.12,.84-.23,1.28-.05,.17-.1,.33-.15,.49-.52,.22-1.2,.54-2.05,.96v-.5c-.03-.94-.19-1.75-.36-2.37,.52-.11,1.11-.2,1.74-.24,.21-.02,.42-.02,.62-.03,.13,.14,.28,.27,.43,.41Z" fill="#8adbd5"/>
      <path d="M8.69,18.48c-.01,.18-.02,.36-.04,.54-.05,.66-.15,1.27-.27,1.8-.58-.18-1.36-.37-2.27-.41-.2,0-.39,0-.57,0,.37-.75,.66-1.37,.88-1.85,.2-.07,.42-.12,.64-.17,.46-.1,.91-.18,1.32-.23,.1,.11,.21,.22,.31,.32Z" fill="#76b5af"/>
      <path d="M6.42,18.56c-.22,.48-.51,1.1-.88,1.85-.09,.17-.17,.34-.26,.52-.73,1.46-1.25,2.36-1.69,2.96h-1.21s.05-.09,.07-.14c.76-1.52,1.27-2.55,1.44-3.17,0-.02,.02-.05,.02-.08v-.02c.53-.57,.99-1.09,1.38-1.53l.02-.02c.33-.13,.7-.27,1.11-.37Z" fill="#8dc4c0"/>
      <path d="M5.38,17.31c-.12,.4-.25,.74-.39,1.06l-.02,.02c-.46,.39-1.04,.9-1.68,1.48h0s-.07,.03-.1,.05c-.37,.1-.86,.3-1.5,.61-.19,.09-.39,.18-.61,.29-.26,.13-.55,.27-.85,.42-.07,.04-.15,.07-.22,.11v-1.23c.62-.44,1.56-.98,3.04-1.71,.1-.05,.19-.09,.29-.14,.85-.42,1.53-.74,2.05-.96Z" fill="#afe2df"/>
      <path d="M3.28,19.88l-.12,.13c-.92,.85-1.99,1.86-3.16,2.98v-1.64c.07-.04,.15-.07,.22-.11,.3-.15,.59-.29,.85-.42,.22-.11,.42-.2,.61-.29,.64-.31,1.13-.51,1.5-.61,.03-.02,.07-.03,.1-.04Z" fill="#c4e8e7"/>
      <path d="M3.91,20.5s-.02,.06-.02,.08c-.17,.62-.68,1.65-1.44,3.17-.02,.05-.05,.09-.07,.14H.68c1.19-1.22,2.25-2.34,3.13-3.3l.1-.09Z" fill="#96d6d3"/>
      <path d="M4.97,18.39c-.14,.31-.28,.59-.42,.85L0,23.79v-.8c1.17-1.12,2.24-2.13,3.16-2.98l.12-.13h0c.64-.59,1.22-1.1,1.68-1.49Z" fill="#edf2f2"/>
      <path d="M5.29,18.95c-.39,.44-.85,.96-1.38,1.53v.02l-.1,.09c-.88,.96-1.94,2.08-3.13,3.3H0v-.1l4.55-4.55c.23-.11,.46-.19,.74-.29Z" fill="#daedec"/>
      <path d="M11.2,12.45c0,.08-.5,.05-2.43,.09-2.18,.05-2.73,.11-2.75,.03-.02-.12,1.2-.51,2.58-.54,1.38-.03,2.61,.3,2.6,.42Z" fill="#f9f9f9"/>
      <g>
        <g>
          <path d="M23.74,1.7v.02c-.03,.89-.77,1.59-1.66,1.57-.15,0-.29-.03-.42-.07-.26-.07-.49-.22-.68-.41-.19-.18-.33-.42-.41-.68-.05-.16-.07-.33-.07-.5,.02-.88,.72-1.57,1.59-1.59h.07c.44,.01,.83,.19,1.11,.48,.3,.3,.48,.72,.47,1.18Z" fill="#61c1bf"/>
          <path d="M23.74,1.7c-.09,2.19-3.31,2.15-3.34-.08,.12-2.22,3.35-2.11,3.34,.08h0Zm0,0c-.01-2.1-3.06-2.13-3.14-.07,0,2.06,3.03,2.17,3.14,.07h0Z" fill="#fff"/>
        </g>
        <g>
          <circle cx="22.12" cy="1.67" r="1.13" fill="#5ae0d9"/>
          <path d="M22.09,2.8c1.45,0,1.46-2.13,.05-2.17-1.4-.03-1.5,2.1-.05,2.17h0Zm0,0c-1.53-.04-1.52-2.36,.06-2.36,1.57,.07,1.48,2.39-.06,2.36h0Z" fill="#f3fffe"/>
        </g>
        <circle cx="22.12" cy="1.67" r=".6" fill="#8dfff4"/>
      </g>
      <polygon points="2.39 23.56 2.21 23.89 1.48 23.89 1.41 23.38 1.84 23.82 2.39 23.56" fill="#fff"/>
      <polygon points="1.91 19.93 1.62 20.47 2.04 20.92 1.44 20.81 1.14 21.35 1.06 20.74 .46 20.63 1.01 20.36 .93 19.75 1.35 20.2 1.91 19.93" fill="#fff"/>
      <polygon points="7.86 18.7 7.57 19.24 8 19.69 7.39 19.58 7.1 20.12 7.02 19.51 6.41 19.4 6.97 19.13 6.88 18.52 7.31 18.97 7.86 18.7" fill="#fff"/>
      <path d="M19.08,6.44c-.42,.47-.88,.97-1.35,1.47-.32-.26-.64-.55-.98-.88l-.05-.05c-.31-.32-.59-.62-.83-.92,.5-.47,1-.92,1.46-1.35,.24,.28,.49,.56,.78,.85l.06,.06c.31,.31,.62,.58,.91,.82Z" fill="#772a23"/>
      <path d="M17.73,7.91c-.3,.31-.6,.63-.91,.94-.33-.24-.67-.53-1.01-.87-.34-.34-.63-.67-.88-1,.31-.32,.63-.62,.94-.92,.24,.3,.52,.6,.83,.92l.05,.05c.34,.33,.66,.62,.98,.88Z" fill="#4c120f"/>
      <path d="M16.82,8.85c-.16,.17-.32,.33-.48,.49-.32-.26-.66-.55-1-.89l-.06-.06c-.31-.32-.6-.63-.84-.93,.16-.17,.32-.33,.49-.48,.25,.33,.54,.66,.88,1,.34,.34,.68,.63,1.01,.87Z" fill="#601f12"/>
      <path d="M16.34,9.34l-.07,.07c-.29,.29-.58,.58-.87,.85-.33-.24-.67-.53-1.01-.87s-.63-.67-.87-.99c.27-.3,.56-.59,.85-.88l.07-.06c.24,.3,.53,.61,.84,.93l.06,.06c.34,.34,.68,.63,1,.89Z" fill="#772a23"/>
      <path d="M15.4,10.26c-.5,.49-.99,.95-1.46,1.38-.31-.24-.64-.51-.96-.83-.33-.33-.6-.65-.84-.96,.43-.47,.89-.96,1.38-1.45,.24,.32,.54,.66,.87,.99s.68,.63,1.01,.87Z" fill="#4c120f"/>
    </g>
  </g>
</svg>