<?xml version="1.0" encoding="UTF-8"?>
<svg id="_Шар_2" data-name="Шар 2" xmlns="http://www.w3.org/2000/svg" viewBox="0 0 23.79 23.82">
  <g id="_1handschwert" data-name="1handschwert">
    <g id="sword_icon">
      <g>
        <path d="M4.13,21.37l-.2,.2-.63,.63c-.06-.4-.24-.78-.56-1.09-.02-.02-.04-.04-.06-.04-.3-.29-.66-.47-1.04-.53l.21-.2h0s.01-.01,.01-.01l.6-.61,1.66,1.66Z" fill="#898149"/>
        <polygon points="5.8 19.7 5.59 19.91 3.51 18.67 4.14 18.04 5.8 19.7" fill="#b27f66"/>
        <path d="M6.71,18.78l-.91,.92-1.66-1.66,.89-.88c.21,.3,.48,.59,.77,.88,.3,.3,.6,.54,.91,.74Z" fill="#898149"/>
        <polygon points="4.14 21.36 3.93 21.57 1.85 20.33 2.48 19.7 4.14 21.36" fill="#936639"/>
        <polygon points="4.97 20.53 4.76 20.74 2.68 19.5 3.31 18.87 4.97 20.53" fill="#b27f66"/>
        <polygon points="4.14 21.36 3.93 21.57 1.85 20.33 2.48 19.7 4.14 21.36" fill="#b27f66"/>
        <path d="M10.65,13.03v3.13l-2.49,2.24c-.47-.35-.96-.76-1.46-1.25l-.06-.07h-.01s4.03-4.04,4.03-4.04Z" fill="#ad8264"/>
        <polygon points="14.17 9.51 14.17 12.98 12.93 14.1 12.93 10.75 14.17 9.51" fill="#ad8264"/>
        <polygon points="23.79 0 21.08 6.75 16.45 10.93 16.45 7.23 23.61 .07 23.79 0" fill="#ad8264"/>
        <path d="M10.65,9.79v3.23l-4.03,4.03c-.48-.48-.89-.95-1.24-1.41l5.27-5.85Z" fill="#ba8d6e"/>
        <polygon points="14.17 5.9 14.17 9.51 12.93 10.75 12.93 7.28 14.17 5.9" fill="#ba8d6e"/>
        <polygon points="23.61 .07 16.45 7.23 16.45 3.38 17.05 2.71 23.61 .07" fill="#ba8d6e"/>
        <polygon points="16.45 7.23 16.45 10.93 14.17 12.98 14.17 9.51 16.45 7.23" fill="#b2896d"/>
        <polygon points="16.45 3.38 16.45 7.23 14.17 9.51 14.17 5.9 16.45 3.38" fill="#c19374"/>
        <polygon points="12.93 7.28 12.93 10.75 10.65 13.03 10.65 9.8 12.93 7.28" fill="#c19374"/>
        <polygon points="12.93 10.75 12.93 14.1 10.65 16.15 10.65 13.03 12.93 10.75" fill="#b2896d"/>
        <polygon points="5.59 19.91 4.97 20.53 3.31 18.87 3.51 18.67 5.59 19.91" fill="#cd9777"/>
        <polygon points="4.76 20.74 4.14 21.36 2.48 19.7 2.68 19.5 4.76 20.74" fill="#cd9777"/>
        <polygon points="3.93 21.57 1.85 20.33 1.86 20.32 3.93 21.57" fill="#936639"/>
        <path d="M8.3,19.21l-.19,.19c-.3,.3-.79,.29-1.09,0l-2.57-2.57c-.3-.3-.31-.79,0-1.09l.19-.19c.27-.27,.68-.29,.98-.08,.08,.28,.1,.52,.1,.73,0,.18,0,.44,.1,.76,.29,.82,1.07,1.24,1.42,1.42,.55,.28,.95,.34,1.27,.38-.02,.16-.08,.32-.21,.45Z" fill="#b2896d"/>
        <path d="M8.51,18.76c-.31-.04-.71-.1-1.27-.38-.34-.18-1.12-.6-1.42-1.42-.11-.32-.1-.58-.1-.76,0-.21-.02-.46-.1-.73,.04,.02,.07,.06,.1,.09l2.57,2.57c.17,.17,.25,.41,.22,.64Z" fill="#c19374"/>
        <ellipse cx="1.67" cy="22.15" rx="1.64" ry="1.69" transform="translate(-15.17 7.67) rotate(-45)" fill="#ba8d6e"/>
        <circle cx="2.17" cy="22.44" r=".92" fill="#cca183"/>
      </g>
    </g>
  </g>
</svg>