<?xml version="1.0" encoding="UTF-8"?>
<svg id="_Шар_2" data-name="Шар 2" xmlns="http://www.w3.org/2000/svg" viewBox="0 0 23.87 23.91">
  <g id="Eisenschwert">
    <g id="sword_icon">
      <path d="M4.6,20.88l-.19,.19-.59,.59c-.06-.38-.23-.74-.53-1.03-.02-.02-.04-.04-.06-.04-.28-.27-.62-.44-.98-.5l.2-.19h0s.01-.01,.01-.01l.57-.58,1.57,1.57Z" fill="#936639"/>
      <polygon points="6.17 19.31 5.98 19.5 4.02 18.33 4.61 17.74 6.17 19.31" fill="#894d25"/>
      <path d="M7.03,18.44l-.86,.87-1.57-1.57,.84-.83c.2,.28,.45,.56,.73,.83,.28,.28,.57,.51,.86,.7Z" fill="#936639"/>
      <polygon points="4.61 20.87 4.41 21.07 2.45 19.89 3.04 19.31 4.61 20.87" fill="#936639"/>
      <polygon points="5.39 20.09 5.19 20.28 3.23 19.11 3.82 18.52 5.39 20.09" fill="#894d25"/>
      <polygon points="4.61 20.87 4.41 21.07 2.45 19.89 3.04 19.31 4.61 20.87" fill="#894d25"/>
      <path d="M11.46,12.3v2.95l-2.35,2.11c-.44-.33-.91-.72-1.38-1.18l-.06-.07h-.01s3.8-3.81,3.8-3.81Z" fill="#9aa1a8"/>
      <polygon points="14.78 8.97 14.78 12.25 13.61 13.31 13.61 10.15 14.78 8.97" fill="#9aa1a8"/>
      <polygon points="23.87 0 21.31 6.37 16.93 10.31 16.93 6.82 23.69 .07 23.87 0" fill="#9aa1a8"/>
      <path d="M11.46,9.25v3.05l-3.8,3.8c-.45-.45-.84-.9-1.17-1.33l4.97-5.52Z" fill="#adb5bd"/>
      <polygon points="14.78 5.57 14.78 8.97 13.61 10.15 13.61 6.87 14.78 5.57" fill="#adb5bd"/>
      <polygon points="23.69 .07 16.93 6.82 16.93 3.19 17.5 2.56 23.69 .07" fill="#adb5bd"/>
      <path d="M10.5,19.55c-.32,.26-.79,.25-1.09-.05-.46-.11-1.4-.37-2.38-1.06-.29-.19-.58-.42-.86-.7-.28-.27-.53-.55-.73-.83-.78-1.05-1.06-2.09-1.18-2.56-.03-.04-.23-.25-.24-.59,0-.19,.08-.39,.23-.55,.54,1.07,1.38,2.43,2.7,3.75,.71,.7,1.87,1.73,3.55,2.59Z" fill="#9aa1a8"/>
      <path d="M10.83,18.89c0,.11-.02,.22-.06,.32-.04,.1-.1,.19-.18,.26v.02s-.06,.05-.09,.06c-1.68-.86-2.84-1.89-3.55-2.59-1.32-1.32-2.16-2.68-2.7-3.75l.04-.04c.08-.08,.16-.14,.26-.17,.29-.14,.65-.08,.9,.17,.25,.46,.6,1.01,1.04,1.6,.33,.43,.72,.88,1.17,1.33h.01s.06,.08,.06,.08c.47,.46,.94,.85,1.38,1.18,.54,.4,1.05,.71,1.48,.95,.04,.04,.25,.25,.24,.58Z" fill="#9aa1a8"/>
      <polygon points="16.93 6.82 16.93 10.31 14.78 12.25 14.78 8.97 16.93 6.82" fill="#adb5bd"/>
      <polygon points="16.93 3.19 16.93 6.82 14.78 8.97 14.78 5.57 16.93 3.19" fill="#bcc3c9"/>
      <polygon points="13.61 6.87 13.61 10.15 11.46 12.3 11.46 9.25 13.61 6.87" fill="#bcc3c9"/>
      <polygon points="13.61 10.15 13.61 13.31 11.46 15.24 11.46 12.3 13.61 10.15" fill="#adb5bd"/>
      <polygon points="5.98 19.5 5.39 20.09 3.82 18.52 4.02 18.33 5.98 19.5" fill="#99582a"/>
      <polygon points="5.19 20.28 4.61 20.87 3.04 19.31 3.23 19.11 5.19 20.28" fill="#99582a"/>
      <polygon points="4.41 21.07 2.45 19.89 2.46 19.88 4.41 21.07" fill="#936639"/>
      <path d="M3.29,23.35c-.76,.75-1.98,.75-2.73,0-.02-.01-.03-.03-.04-.05l.42-.43,.05,.05c.52,.52,1.35,.52,1.86,0,.52-.52,.52-1.35,0-1.86-.01-.02-.03-.03-.05-.04l.43-.43s.04,.02,.06,.04c.3,.29,.47,.65,.53,1.03,.11,.6-.07,1.23-.53,1.69Z" fill="#9aa1a8"/>
      <path d="M3.23,20.59l-.43,.43c-.51-.48-1.31-.47-1.81,.04-.5,.5-.52,1.3-.05,1.81l-.42,.43c-.71-.75-.7-1.94,.04-2.67,.46-.46,1.1-.64,1.69-.54,.36,.06,.7,.23,.98,.5Z" fill="#adb5bd"/>
    </g>
  </g>
</svg>