<?xml version="1.0" encoding="UTF-8"?>
<svg id="_Шар_2" data-name="Шар 2" xmlns="http://www.w3.org/2000/svg" viewBox="0 0 23.62 23.52">
  <g id="_1handschwert" data-name="1handschwert">
    <g id="sword_icon">
      <g>
        <g>
          <polygon points="2.56 20.97 1.64 21.89 .21 20.48 .22 20.45 1.87 20.27 2.56 20.97" fill="#ce9334"/>
          <polygon points="1.64 21.89 .73 22.82 0 22.07 .21 20.48 1.64 21.89" fill="#ba862b"/>
          <polygon points="3.07 23.34 1.43 23.52 .73 22.82 1.64 21.89 3.08 23.31 3.07 23.34" fill="#af7828"/>
          <polygon points="3.08 23.31 1.64 21.89 2.56 20.97 3.29 21.71 3.08 23.31" fill="#cc8b36"/>
        </g>
        <g>
          <rect x="4.78" y="17.48" width="2.24" height=".3" transform="translate(14.2 .99) rotate(45)" fill="#601f12"/>
          <polygon points="6.59 18.53 6.17 18.95 5.57 17.94 4.99 16.97 5.01 16.95 6.59 18.53" fill="#56331b"/>
          <polygon points="5.12 18.9 4.71 18.79 3.48 18.48 4.36 17.6 4.93 18.58 5.12 18.9" fill="#56331b"/>
          <polygon points="5.29 19.83 4.28 20.84 3.69 19.82 3.41 19.36 4 19.51 5.29 19.83" fill="#56331b"/>
          <polygon points="3.52 21.26 2.11 19.85 2.48 19.48 3.05 20.46 3.52 21.26" fill="#56331b"/>
          <polyline points="2.88 20.62 2.74 20.76 2.7 20.81" fill="none"/>
          <polygon points="6.17 18.95 6 19.12 5.12 18.9 4.93 18.58 4.36 17.6 4.44 17.52 4.43 17.52 4.99 16.97 5.57 17.94 6.17 18.95" fill="#6b3f20"/>
          <polygon points="6 19.12 5.29 19.83 4 19.51 3.41 19.36 3.11 18.85 3.48 18.48 4.71 18.79 5.12 18.9 6 19.12" fill="#6b3f20"/>
          <polygon points="4.28 20.84 3.69 21.43 3.52 21.26 3.05 20.46 2.48 19.48 3.11 18.85 3.41 19.36 3.69 19.82 4.28 20.84" fill="#6b3f20"/>
          <polygon points="22.85 3.26 21.43 4.67 22.21 1.44 20.98 2.65 23.62 .02 22.85 3.26" fill="#f2ac30"/>
          <path d="M7.8,15.89h0s-.06-.06-.06-.06h0S18.14,5.47,18.14,5.47l.93-.93,.3-.3,.72-.71-.71,.73-.3,.3-.28,.28-.64,.64L7.8,15.89Z" fill="#d39a29"/>
          <polygon points="20.98 2.65 22.2 1.41 18.96 2.18 20.37 .77 23.62 0 20.98 2.65" fill="#fb3"/>
          <path d="M7.8,15.89l-.06-.06L18.14,5.47l.93-.93,.3-.3,.72-.71-.71,.73-.3,.3-.28,.28-.64,.64L7.8,15.89Z" fill="#f5b82e"/>
          <polygon points="21.43 4.67 19.29 6.82 18.7 7.09 19.38 4.26 20.1 3.54 20.98 2.65 22.21 1.44 21.43 4.67" fill="#f2a22f"/>
          <rect x="6.34" y="17.23" width=".01" height=".09" transform="translate(-10.36 9.55) rotate(-45)" fill="#d39a29"/>
          <path d="M7.76,15.82L18.14,5.47l.93-.93,.49-.47,.53-.53-.71,.73-.3,.3-.28,.28-.64,.64L7.81,15.87l-.06-.06Z" fill="#d39a29"/>
          <polygon points="20.98 2.65 20.1 3.54 19.37 4.24 16.54 4.91 16.81 4.33 18.96 2.18 22.2 1.41 20.98 2.65" fill="#ffaf2e"/>
          <polygon points="11.6 12.08 11.6 12.04 10.37 13.26 13.02 10.63 13.01 10.65 11.6 12.08" fill="#ffaf2e"/>
          <polygon points="10.37 13.26 11.6 12.02 11.55 12.03 12.97 10.61 13.01 10.61 10.37 13.26" fill="#ffaf2e"/>
          <polygon points="8.77 14.92 8.77 14.87 9.49 14.14 10.37 13.26 11.6 12.04 11.6 12.08 8.77 14.92" fill="#ffaf2e"/>
          <polygon points="10.37 13.26 9.49 14.14 8.77 14.85 8.7 14.86 11.55 12.03 11.6 12.02 10.37 13.26" fill="#ffaf2e"/>
          <path d="M7.81,15.87l-.06-.06-.02,.02h0s.02-.03,.02-.03L18.14,5.47l.93-.93,.3-.3,.72-.71-.53,.53-.48,.49-.28,.28-.64,.64L7.81,15.87Z" fill="#f5b82e"/>
          <polygon points="8.39 16.49 7.79 15.9 8.77 14.92 8.39 16.49" fill="#e29229"/>
          <polygon points="12.24 13.87 10.83 15.28 11.6 12.08 13.01 10.65 12.24 13.87" fill="#f2ac30"/>
          <path d="M14.73,11.38l-2.49,2.49,.77-3.22,5.15-5.16,.64-.64,.28-.28,.3-.3-.68,2.83h0s-.36,.18-.36,.18l-3.13,3.13-.37,.76-.11,.22Z" fill="#e29229"/>
          <polygon points="10.83 15.28 8.7 17.4 8.68 16.78 8.39 16.49 8.77 14.92 11.6 12.08 10.83 15.28" fill="#f2a22f"/>
          <polygon points="7.76 15.83 16.74 6.89 18.16 5.49 7.81 15.87 7.76 15.83" fill="#d39a29"/>
          <rect x="6.35" y="17.24" width=".01" height=".08" transform="translate(-10.36 9.55) rotate(-45)" fill="#d39a29"/>
          <polygon points="12.97 10.61 11.55 12.03 8.35 12.79 9.76 11.38 12.97 10.61" fill="#fb3"/>
          <polygon points="11.55 12.03 8.7 14.86 7.14 15.23 6.73 14.82 6.34 14.8 8.35 12.79 11.55 12.03" fill="#ffaf2e"/>
          <polygon points="8.7 14.86 7.74 15.83 7.14 15.23 8.7 14.86" fill="#f2a02a"/>
          <path d="M19.37,4.24l-.3,.3-.93,.93-5.17,5.14-3.21,.76,2.48-2.48,.22-.11,.77-.37,3.13-3.13,.18-.37,2.84-.67Z" fill="#f2a02a"/>
          <polygon points="7.74 15.84 7.73 15.83 7.75 15.81 18.14 5.47 16.74 6.89 7.81 15.87 7.76 15.82 7.74 15.84" fill="#ffbf40"/>
          <rect x="6.34" y="17.23" width=".01" height=".09" transform="translate(-10.36 9.55) rotate(-45)" fill="#f5b82e"/>
          <polygon points="8.75 18.57 8.16 18.54 8.14 18.11 8.11 17.49 7.23 16.6 7.25 16.58 7.19 16.53 7.17 16.55 7.16 16.54 7.17 16.53 6.17 15.53 5.78 15.51 4.95 15.47 4.92 14.74 6.34 14.8 6.73 14.82 7.74 15.83 7.73 15.83 7.74 15.84 7.76 15.82 7.81 15.87 7.79 15.9 8.68 16.78 8.7 17.4 8.75 18.57" fill="#d38f18"/>
          <path d="M6.32,17.24h0s.06,.07,.06,.07h0s-.06-.07-.06-.07Zm0,0h0s.06,.07,.06,.07h0s-.06-.07-.06-.07Z" fill="#fb3"/>
          <polygon points="8.16 18.54 7.59 18.52 6.92 18.49 5.01 16.57 4.98 16.16 4.95 15.47 5.78 15.51 6.17 15.53 7.17 16.53 7.16 16.54 7.17 16.55 7.19 16.53 7.25 16.58 7.23 16.6 8.11 17.49 8.14 18.11 8.16 18.54" fill="#c48218"/>
          <rect x="1.62" y="20.56" width="2.25" height=".51" transform="translate(15.52 4.16) rotate(45)" fill="#601f12"/>
        </g>
      </g>
      <path d="M17.4,5.74c-.39-.17-.45-.23-.5-.5-.09,.27-.16,.33-.5,.5,.35-.02,.41,.04,.5,.5,.06-.46,.12-.52,.5-.5Z" fill="#ffc050"/>
      <path d="M21.85,3.39c-.39-.17-.45-.23-.5-.5-.09,.27-.16,.33-.5,.5,.35-.02,.41,.04,.5,.5,.06-.46,.12-.52,.5-.5Z" fill="#ffc050"/>
      <path d="M9.92,15.77c-.39-.17-.45-.23-.5-.5-.09,.27-.16,.33-.5,.5,.35-.02,.41,.04,.5,.5,.06-.46,.12-.52,.5-.5Z" fill="#ffc050"/>
      <path d="M22.18,.97c-.39-.17-.45-.23-.5-.5-.09,.27-.16,.33-.5,.5,.35-.02,.41,.04,.5,.5,.06-.46,.12-.52,.5-.5Z" fill="#ffc050"/>
    </g>
  </g>
</svg>