<?xml version="1.0" encoding="UTF-8"?>
<svg id="_Шар_2" data-name="Шар 2" xmlns="http://www.w3.org/2000/svg" viewBox="0 0 23.72 23.75">
  <g id="_Шар_22" data-name="Шар 22">
    <g>
      <path d="M17.45,7.56l-.77-.52-.52-.77-4.32,.8-4.32-.8-.52,.77-.77,.52,.77,4.32-.77,4.32,.77,.52,.52,.77,4.32-.8,4.32,.8,.52-.77,.77-.52-.8-4.32,.8-4.32Zm-1.32,8.57l-4.28-.77-4.25,.77,.77-4.25-.77-4.25,4.25,.77,4.28-.77-.8,4.25,.8,4.25Z" fill="#b5c0c6"/>
      <polygon points="16.16 17.48 11.84 23.75 11.84 16.68 16.16 17.48" fill="#bcc6ce"/>
      <polygon points="11.84 16.68 11.84 23.75 7.52 17.48 11.84 16.68" fill="#7d8489"/>
      <polygon points="7 11.88 6.23 16.19 0 11.88 7 11.88" fill="#d0dbe2"/>
      <polygon points="7 11.88 0 11.88 6.23 7.56 7 11.88" fill="#b5c0c6"/>
      <polygon points="11.84 0 11.84 7.07 7.52 6.27 11.84 0" fill="#d0dbe2"/>
      <polygon points="16.16 6.27 11.84 7.07 11.84 0 16.16 6.27" fill="#b5c0c6"/>
      <polygon points="23.72 11.88 16.65 11.88 17.45 7.56 23.72 11.88" fill="#bcc6ce"/>
      <polygon points="23.72 11.88 17.45 16.19 16.65 11.88 23.72 11.88" fill="#7d8489"/>
    </g>
  </g>
</svg>