<?xml version="1.0" encoding="UTF-8"?>
<svg id="_Шар_2" data-name="Шар 2" xmlns="http://www.w3.org/2000/svg" viewBox="0 0 24.01 21.11">
  <g id="_Шар_22" data-name="Шар 22">
    <g>
      <path d="M16.88,16.3s-.07-.46-.23-1.12c2.36-.23,5.92-3.67,6.59-4.34,.25,.32,.52,.66,.78,1.01,0,0-4.58,4.68-7.13,4.45Z" fill="#3d69b7"/>
      <path d="M10.89,5.63l.02,.45c-.09-.11-.19-.22-.31-.33-.13-.13-.32-.27-.53-.38l-.04-.66L9.74,0s1.92-.15,5.54,2.58c-2.97-1.94-4.57-1.77-4.57-1.77l.18,4.82Z" fill="#3d69b7"/>
      <path d="M10.71,.92v-.11s1.6-.17,4.57,1.77c2.03,1.55,4.62,4,7.71,7.94-.46,.08-1.06,.03-1.85-.31-2.38-1.04-1.63-3.92-3.8-4.75s-4.02,.55-4.48-1.71c-.2-1-1.15-2.01-2.15-2.83Z" fill="#2f7edd"/>
      <path d="M20.68,13.1c-1.12,.87-2.43,1.71-3.54,1.99-.17,.04-.32,.07-.48,.09-.22-1.01-.66-2.5-1.35-3.6-.09-.12-.17-.24-.25-.36,0,0,0-.02,0-.03-.77-1.02-1.82-1.53-3.19-.64l-1.38-1.38c.04-.06,.12-.15,.2-.27,.35-.53,.87-1.53,.45-2.46-.05-.12-.12-.25-.21-.37l-.02-.45-.13-3.4c.78,1.15,1.39,2.45,1.28,3.59-.28,2.83,1.53,4.03,3.85,4.36,1.7,.24,4.19,.69,4.79,2.92Z" fill="#0f2749"/>
      <polygon points="9.99 11.11 6.96 14.15 6.29 13.42 9.3 10.42 9.99 11.11" fill="#173872"/>
      <polygon points="10.69 11.81 7.63 14.87 6.96 14.15 9.99 11.11 10.69 11.81" fill="#0f2749"/>
      <polygon points="7.19 15.31 6.55 15.95 4.92 14.8 6.1 13.61 7.19 15.31" fill="#665224"/>
      <polygon points="5.18 17.32 4.46 18.04 2.9 16.81 4.2 15.51 5.18 17.32" fill="#665224"/>
      <polygon points="3.68 17.43 1.79 19.31 1.1 18.62 2.9 16.81 3.68 17.43" fill="#173872"/>
      <polygon points="4.46 18.04 2.49 20.01 1.79 19.31 3.68 17.43 4.46 18.04" fill="#0f2749"/>
      <rect x="9.18" y="9.15" width="1.7" height="1.59" transform="translate(-4.09 10.01) rotate(-45)" fill="#384b7f"/>
      <rect x="10.31" y="10.28" width="1.7" height="1.59" transform="translate(-4.56 11.13) rotate(-45)" fill="#2b3b60"/>
      <polygon points="1.79 19.31 0 21.11 1.1 18.62 1.79 19.31" fill="#3d69b7"/>
      <polygon points="2.49 20.01 0 21.11 1.79 19.31 2.49 20.01" fill="#2b3b60"/>
      <polygon points="7.63 14.87 7.19 15.31 6.1 13.61 6.29 13.42 7.63 14.87" fill="#352a13"/>
      <polygon points="6.55 15.95 5.18 17.32 4.2 15.51 4.92 14.8 6.55 15.95" fill="#352a13"/>
      <line x1="3.68" y1="17.43" x2="6.96" y2="14.15" fill="none"/>
      <path d="M23.24,10.84c-.32,.32-1.34,1.3-2.56,2.26-.61-2.23-3.09-2.68-4.79-2.92-2.31-.33-4.12-1.53-3.85-4.36,.11-1.14-.51-2.44-1.28-3.59l-.04-1.31c1,.82,1.95,1.83,2.15,2.83,.46,2.27,2.31,.88,4.48,1.71s1.42,3.7,3.8,4.75c.79,.34,1.39,.39,1.85,.31,.08,.1,.16,.21,.25,.32Z" fill="#173872"/>
    </g>
  </g>
</svg>