<?xml version="1.0" encoding="UTF-8"?>
<svg id="_Шар_2" data-name="Шар 2" xmlns="http://www.w3.org/2000/svg" viewBox="0 0 23.84 20.45">
  <g id="_Шар_22" data-name="Шар 22">
    <g>
      <polygon points="9.24 11.21 2.31 18.14 1.91 17.34 8.64 10.61 9.24 11.21" fill="#8c2a03"/>
      <polygon points="9.83 11.8 2.69 18.93 2.31 18.14 9.24 11.21 9.83 11.8" fill="#561904"/>
      <polygon points="5.28 16.34 4.11 17.51 3.71 16.74 3.31 15.94 3.87 15.38 4.58 15.87 5.28 16.34" fill="#56341d"/>
      <polygon points="2.79 17.66 .84 19.61 .24 19.02 2.14 17.12 2.79 17.66" fill="#8c2a03"/>
      <polygon points="3.44 18.18 1.42 20.2 .84 19.61 2.79 17.66 3.44 18.18" fill="#561904"/>
      <path d="M14.97,4.42c-1.96-1.4-4.2-2.67-6.56-3.32-.05-.02-.08-.04-.14-.05l.28,1.95c.2,.01,.39,.01,.59,0,1.79-.01,3.58-.27,3.99,1.85,.67,3.37,5.42,3.19,2.36,10.59l.75,.56,5.58-5.23s-2.8-3.46-6.85-6.36Zm3.71,7.41c-.06-.06-.12-.14-.16-.21-.34-.5-.28-1.22,.18-1.68,.06-.06,.12-.12,.2-.15,.21-.16,.48-.25,.74-.25,.34,.01,.68,.14,.94,.4,.28,.28,.41,.64,.39,1-.01,.34-.13,.64-.38,.89-.53,.53-1.37,.53-1.9,0Z" fill="#f48c06"/>
      <path d="M15.49,15.45l-2.04-1.52c.91-1.29,1.67-2.98,1.74-4.13,.12-2.16-.77-2.11-1.68-1.51-.09,.05-.19,.12-.27,.18-.63,.47-1.22,1.1-1.45,1.36-.07,.09-.11,.13-.11,.13l-.34,.34-1.18-1.18,.34-.34c.26-.21,.47-.42,.64-.62l.09-.09c1.93-2.15-.21-3.24-1.56-3.67-.53-.18-.94-.26-.94-.26l-.18-1.11c.2,.01,.39,.01,.59,0,1.79-.01,3.58-.27,3.99,1.85,.67,3.37,5.42,3.19,2.36,10.59Z" fill="#e85d04"/>
      <path d="M23.84,11.29l-6.2,5.76-1.36-1.01-.04-.04,5.58-5.23s-2.8-3.46-6.85-6.36c-1.99-1.43-4.29-2.72-6.7-3.37l-.06-.39-.11-.67c2.88,.75,5.7,2.39,8.14,4.2,4.43,3.28,7.59,7.1,7.59,7.1Z" fill="#ffba08"/>
      <rect x="8.45" y="9.31" width="2.14" height="1.34" transform="translate(-4.27 9.65) rotate(-45)" fill="#faa307"/>
      <rect x="9.39" y="10.26" width="2.14" height="1.33" transform="translate(-4.66 10.6) rotate(-45)" fill="#f48c06"/>
      <polygon points="6.09 15.53 5.28 16.34 4.58 15.87 3.87 15.38 5.3 13.95 5.7 14.75 6.09 15.53" fill="#724422"/>
      <polygon points="4.11 17.51 3.44 18.18 2.79 17.66 2.14 17.12 3.31 15.94 3.71 16.74 4.11 17.51" fill="#724422"/>
      <circle cx="1.15" cy="19.3" r="1.15" fill="#e85d04"/>
      <circle cx="1.15" cy="19.3" r=".83" fill="#ffba08"/>
    </g>
  </g>
</svg>