<?xml version="1.0" encoding="UTF-8"?>
<svg id="_Шар_2" data-name="Шар 2" xmlns="http://www.w3.org/2000/svg" viewBox="0 0 24.05 24.12">
  <g id="_Шар_22" data-name="Шар 22">
    <g>
      <polygon points="23.95 0 15.34 3.48 13.67 6.48 13.86 10.08 23.95 0" fill="#77968a"/>
      <polygon points="23.93 .01 20.45 8.62 17.45 10.29 13.85 10.1 23.93 .01" fill="#4f7767"/>
      <polygon points="21.89 2.06 15.99 4.44 14.85 6.5 14.98 8.97 21.89 2.06" fill="#bee5d5"/>
      <polygon points="21.88 2.07 19.49 7.97 17.44 9.11 14.97 8.98 21.88 2.07" fill="#acccc0"/>
      <polygon points="0 23.95 8.61 20.47 10.28 17.47 10.08 13.87 0 23.95" fill="#4f7767"/>
      <polygon points=".01 23.93 3.49 15.33 6.5 13.66 10.1 13.85 .01 23.93" fill="#77968a"/>
      <polygon points="1.46 22.49 7.58 20.01 8.76 17.88 8.63 15.32 1.46 22.49" fill="#acccc0"/>
      <polygon points="1.47 22.48 3.94 16.36 6.08 15.17 8.64 15.31 1.47 22.48" fill="#bee5d5"/>
      <rect x="8.21" y="11.2" width="6.92" height=".9" transform="translate(-4.82 11.66) rotate(-45)" fill="#6b471c"/>
      <rect x="8.84" y="11.83" width="6.92" height=".89" transform="translate(-5.08 12.29) rotate(-45)" fill="#231809"/>
      <polygon points="15.16 .04 9.73 2.24 8.68 4.13 8.8 6.4 15.16 .04" fill="#77968a"/>
      <polygon points="15.15 .05 12.96 5.48 11.06 6.54 8.79 6.41 15.15 .05" fill="#4f7767"/>
      <polygon points="13.86 1.34 10.14 2.84 9.42 4.14 9.5 5.7 13.86 1.34" fill="#bee5d5"/>
      <polygon points="13.86 1.35 12.35 5.07 11.05 5.79 9.5 5.71 13.86 1.35" fill="#acccc0"/>
      <polygon points=".05 15.16 5.48 12.96 6.53 11.06 6.41 8.79 .05 15.16" fill="#4f7767"/>
      <polygon points=".06 15.15 2.25 9.71 4.15 8.66 6.42 8.78 .06 15.15" fill="#77968a"/>
      <polygon points=".97 14.23 4.83 12.67 5.58 11.33 5.49 9.71 .97 14.23" fill="#acccc0"/>
      <polygon points=".98 14.23 2.54 10.37 3.88 9.62 5.5 9.7 .98 14.23" fill="#bee5d5"/>
      <rect x="5.23" y="7.11" width="4.37" height=".56" transform="translate(-3.06 7.4) rotate(-45)" fill="#6b471c"/>
      <rect x="5.63" y="7.51" width="4.37" height=".56" transform="translate(-3.22 7.8) rotate(-45)" fill="#231809"/>
      <polygon points="24.05 9 18.62 11.2 17.56 13.1 17.69 15.37 24.05 9" fill="#77968a"/>
      <polygon points="24.04 9.01 21.84 14.45 19.95 15.5 17.68 15.38 24.04 9.01" fill="#4f7767"/>
      <polygon points="22.75 10.3 19.03 11.81 18.3 13.11 18.39 14.66 22.75 10.3" fill="#bee5d5"/>
      <polygon points="22.74 10.31 21.24 14.03 19.94 14.75 18.38 14.67 22.74 10.31" fill="#acccc0"/>
      <polygon points="8.93 24.12 14.37 21.92 15.42 20.03 15.3 17.76 8.93 24.12" fill="#4f7767"/>
      <polygon points="8.94 24.11 11.14 18.68 13.03 17.62 15.31 17.75 8.94 24.11" fill="#77968a"/>
      <polygon points="9.86 23.2 13.72 21.64 14.47 20.29 14.38 18.68 9.86 23.2" fill="#acccc0"/>
      <polygon points="9.86 23.19 11.42 19.33 12.77 18.58 14.39 18.67 9.86 23.19" fill="#bee5d5"/>
      <rect x="14.11" y="16.07" width="4.37" height=".56" transform="translate(-6.79 16.31) rotate(-45)" fill="#6b471c"/>
      <rect x="14.51" y="16.47" width="4.37" height=".56" transform="translate(-6.96 16.71) rotate(-45)" fill="#231809"/>
    </g>
  </g>
</svg>