<?xml version="1.0" encoding="UTF-8"?>
<svg id="_Шар_2" data-name="Шар 2" xmlns="http://www.w3.org/2000/svg" viewBox="0 0 23.73 21.79">
  <g id="_Шар_22" data-name="Шар 22">
    <g>
      <path d="M13.33,4.05l-1.47,1.07-.11-.08,.94,1.99,1.52-1.12,.91-.66-.1,.91-.2,1.9,2.07-.29,.21-1.9,.54-4.97-4.3,3.16Zm5.19,4.69l-1.67-.73,.02-.16-1.26,1.83,1.74,.77,1.02,.45-.83,.36-1.75,.77,1.28,1.65,1.76-.77,4.57-2.02-4.89-2.15Zm-7.5,6.02l-1.53,1.12-.9,.66,.1-.9,.2-1.9-2.07,.29-.21,1.9-.54,4.97,4.3-3.16,1.47-1.07,.12,.09-.95-2Zm-4.18-.82l1.25-1.82-1.74-.77-1.02-.45,.83-.36,1.75-.77-1.28-1.65-1.76,.77L.31,10.89l4.89,2.15,1.67,.73v.15Zm10.19,1.66l-.2-1.81,.13-.06-2.2-.17,.2,1.88,.12,1.12-.73-.54-1.55-1.13-.79,1.94,1.55,1.13,4.03,2.96-.58-5.31ZM10.12,3.85L6.09,.89l.58,5.31,.2,1.81-.13,.06,2.2,.17-.2-1.88-.12-1.12,.73,.54,1.54,1.14,.79-1.93-1.55-1.14Z" fill="#8adbd5"/>
      <path d="M13.33,4.05l-1.47,1.07-.11-.08,.94,1.99,1.52-1.12,.91-.66-.1,.91-.2,1.9,2.07-.29,.21-1.9,.54-4.97-4.3,3.16Zm5.19,4.69l-1.67-.73,.02-.16-1.26,1.83,1.74,.77,1.02,.45-.83,.36-1.75,.77,1.28,1.65,1.76-.77,4.57-2.02-4.89-2.15Zm-7.5,6.02l-1.53,1.12-.9,.66,.1-.9,.2-1.9-2.07,.29-.21,1.9-.54,4.97,4.3-3.16,1.47-1.07,.12,.09-.95-2Zm-4.18-.82l1.25-1.82-1.74-.77-1.02-.45,.83-.36,1.75-.77-1.28-1.65-1.76,.77L.31,10.89l4.89,2.15,1.67,.73v.15Zm10.19,1.66l-.2-1.81,.13-.06-2.2-.17,.2,1.88,.12,1.12-.73-.54-1.55-1.13-.79,1.94,1.55,1.13,4.03,2.96-.58-5.31ZM10.12,3.85L6.09,.89l.58,5.31,.2,1.81-.13,.06,2.2,.17-.2-1.88-.12-1.12,.73,.54,1.54,1.14,.79-1.93-1.55-1.14Z" fill="#8adbd5" stroke="#ffe266" stroke-miterlimit="10" stroke-width=".25"/>
      <path d="M18.84,12.91l-1.28-1.65-.4-.52,.21-.3,1.16-1.7,2.34-3.41-3.77,.53-2.08,.29-.65,.09-.16-.33-.88-1.85L11.56,.31l-1.44,3.54-.78,1.93-.25,.61-.36-.03-2.06-.17-4.13-.33,2.34,3.01,1.28,1.65,.4,.52-.21,.3-1.16,1.7-2.34,3.41,3.77-.53,2.08-.29,.65-.09,.15,.33,.89,1.86,1.78,3.74,1.44-3.54,.79-1.94,.24-.61,.36,.03,2.06,.17,4.13,.33-2.34-3.01Zm-1.85,.82l-2.2-.17-.47-.04-.9-.07-.4,.99-.18,.45-.79,1.94-.02,.06-.06-.11-.95-2-.2-.43-.38-.81-1.07,.15-.47,.07-2.07,.29h-.06s.07-.09,.07-.09l1.25-1.82,.26-.39,.51-.74-.66-.85-.29-.38-1.28-1.65-.04-.05h.13s2.2,.18,2.2,.18l.47,.04,.9,.07,.4-1,.18-.44,.79-1.93,.03-.06,.06,.12,.94,1.99,.2,.43,.38,.82,1.07-.15,.47-.06,2.07-.29h.06s-.06,.09-.06,.09l-1.26,1.83-.26,.39-.51,.74,.66,.85,.29,.38,1.28,1.65,.04,.05h-.13Z" fill="#edf2f2" stroke="#ffe578" stroke-miterlimit="10" stroke-width=".25"/>
      <polygon points="9.04 12.53 8.91 13.74 6.84 14.03 6.85 13.93 8.1 12.11 9.04 12.53" fill="#9ffff6"/>
      <polygon points="12.85 14.88 12.06 16.81 11.98 16.76 11.03 14.76 11.86 14.15 12.85 14.88" fill="#9ffff6"/>
      <polygon points="17.09 13.68 17 13.73 14.8 13.55 14.69 12.53 15.81 12.03 17.09 13.68" fill="#9ffff6"/>
      <polygon points="16.89 7.76 16.88 7.85 15.63 9.67 14.69 9.26 14.82 8.05 16.89 7.76" fill="#9ffff6"/>
      <polygon points="12.69 7.02 11.86 7.64 10.88 6.91 11.67 4.98 11.75 5.04 12.69 7.02" fill="#9ffff6"/>
      <polygon points="9.04 9.26 7.92 9.76 6.64 8.11 6.73 8.06 8.93 8.24 9.04 9.26" fill="#9ffff6"/>
      <path d="M17.37,10.44l-1.74-.77-.94-.41,.13-1.21,.2-1.9,.1-.91-.91,.66-1.52,1.12-.83,.61-.98-.73-1.54-1.14-.73-.54,.12,1.12,.2,1.88,.11,1.02-1.12,.5-1.75,.77-.83,.36,1.02,.45,1.74,.77,.94,.41-.13,1.21-.2,1.9-.1,.9,.9-.66,1.53-1.12,.83-.61,.98,.73,1.55,1.13,.73,.54-.12-1.12-.2-1.88-.11-1.02,1.12-.5,1.75-.77,.83-.36-1.02-.45Zm-1.85,1.21l-1.32,.59,.14,1.27,.22,2.04-1.52-1.12-1.16-.85-1.03,.75-1.65,1.21,.2-1.88,.15-1.43-1.17-.52-1.88-.83,1.72-.76,1.32-.59-.14-1.27-.22-2.04,1.52,1.12,1.16,.86,1.03-.76,1.65-1.21-.2,1.88-.15,1.44,1.17,.52,1.88,.83-1.72,.76Z" fill="#fff"/>
      <polygon points="5.63 7.06 5.83 7.41 6.23 7.41 6.03 7.76 6.23 8.11 5.83 8.11 5.63 8.45 5.43 8.11 5.02 8.11 5.23 7.76 5.02 7.41 5.43 7.41 5.63 7.06" fill="#fff"/>
      <polygon points="11.67 2.31 11.87 2.66 12.27 2.66 12.07 3.01 12.27 3.36 11.87 3.36 11.67 3.7 11.47 3.36 11.06 3.36 11.27 3.01 11.06 2.66 11.47 2.66 11.67 2.31" fill="#fff"/>
      <polygon points="17.64 6.11 17.84 6.46 18.24 6.46 18.04 6.81 18.24 7.16 17.84 7.16 17.64 7.51 17.44 7.16 17.03 7.16 17.23 6.81 17.03 6.46 17.44 6.46 17.64 6.11" fill="#fff"/>
      <polygon points="18.84 14.03 19.05 14.37 19.45 14.37 19.25 14.72 19.45 15.07 19.05 15.07 18.84 15.42 18.64 15.07 18.24 15.07 18.44 14.72 18.24 14.37 18.64 14.37 18.84 14.03" fill="#fff"/>
      <polygon points="12.06 17.76 12.26 18.1 12.66 18.1 12.46 18.45 12.66 18.8 12.26 18.8 12.06 19.15 11.86 18.8 11.45 18.8 11.66 18.45 11.45 18.1 11.86 18.1 12.06 17.76" fill="#fff"/>
      <polygon points="5.94 14.03 6.14 14.37 6.55 14.37 6.34 14.72 6.55 15.07 6.14 15.07 5.94 15.42 5.74 15.07 5.34 15.07 5.54 14.72 5.34 14.37 5.74 14.37 5.94 14.03" fill="#fff"/>
      <polygon points="10.43 4.54 10.63 4.89 11.03 4.89 10.83 5.24 11.03 5.59 10.63 5.59 10.43 5.94 10.23 5.59 9.83 5.59 10.03 5.24 9.83 4.89 10.23 4.89 10.43 4.54" fill="#fff"/>
    </g>
  </g>
</svg>