<?xml version="1.0" encoding="UTF-8"?>
<svg id="_Шар_2" data-name="Шар 2" xmlns="http://www.w3.org/2000/svg" viewBox="0 0 23.89 24.14">
  <g id="_Шар_22" data-name="Шар 22">
    <g>
      <g>
        <rect x="17.22" y="1.4" width="1.08" height="9.7" transform="translate(9.62 -10.73) rotate(45)" fill="#044aaf"/>
        <rect x="8.33" y="7.77" width="2.8" height="12.85" transform="translate(12.89 -2.72) rotate(45)" fill="#052dad"/>
        <path d="M5.96,18.59l-.4,.4s-.1-.12-.23-.21l-.06-.06c-.09-.09-.18-.16-.32-.24l.45-.45,.56,.56Z" fill="#411d13"/>
        <path d="M4.95,18.48l-3.88,3.88-.3-.3,3.78-3.78c.15,.07,.28,.13,.4,.21Z" fill="#054477"/>
        <path d="M23.66,.25l-2.71,2.64c-.87,.3-1.83,.73-2.83,1.29-2.29,1.29-3.92,2.84-4.99,4.09-.28-.33-.57-.67-.84-1.01C17.6,2.29,22.55,.58,23.66,.25Z" fill="#0089e5"/>
        <path d="M20.95,2.89l-6.81,6.64-2.1,2.03-1.66,1.61-4.99,4.87-.45,.45c-.12-.07-.26-.13-.4-.21-.27-.1-.56-.17-.91-.18-.66-.02-1.23,.26-1.59,.51,.61-.95,.16-2.96,.16-2.96,2.51,.32,4.31-1.01,5.22-1.93,.49-.49,.73-.85,.73-.85,0,0-.4-.11-.78-.34-.17-.1-.18-.13-.17-.15,.01-.04,.16-.04,.2-.02,.27,.02,.79-.16,1.5-.55,.11-.06,.23-.13,.37-.22,.2-.1,.38-.23,.59-.37,.16-.11,.39-.27,.66-.46l-.67-.99c.07-.07,.12-.15,.2-.22,.76-.83,1.51-1.59,2.26-2.28,.27,.34,.56,.68,.84,1.01,1.07-1.24,2.7-2.79,4.99-4.09,1-.56,1.96-.99,2.83-1.29Z" fill="#05a"/>
        <path d="M5.96,18.59l-.46,.46c-.05-.1-.11-.18-.17-.27l-.06-.06c-.09-.09-.18-.16-.32-.24l.45-.45,.56,.56Z" fill="#411d13"/>
        <path d="M5.96,18.59l-.46,.46c-.05-.1-.11-.18-.17-.27l-.06-.06c-.09-.09-.18-.16-.32-.24l.45-.45L14.15,9.52l.32,.32L5.96,18.59Z" fill="#052dad"/>
        <path d="M14.46,9.84l-.32-.32,2.15-2.1L23.66,.25s.07-.02,.11-.04c0,.02-.01,.06-.02,.1h-.01s-7.17,7.38-7.17,7.38l-2.1,2.15Z" fill="#044aaf"/>
        <path d="M15.63,10.77c1.24-1.07,2.81-2.71,4.09-4.99,.51-.9,.92-1.77,1.21-2.57L23.73,.32c-.33,1.11-2.05,6.03-6.98,11.32-.38-.28-.76-.59-1.12-.88Z" fill="#7727f4"/>
        <path d="M8.35,21.78s-2-.46-2.94,.13c.24-.37,.5-.91,.48-1.57-.01-.35-.09-.65-.18-.91-.06-.13-.12-.27-.21-.38l.46-.46,4.86-4.98L20.93,3.2c-.29,.81-.7,1.67-1.21,2.57-1.28,2.28-2.84,3.92-4.09,4.99,.37,.29,.74,.6,1.12,.88-.71,.76-1.48,1.52-2.32,2.29-.07,.07-.15,.12-.22,.2l-.98-.66c-.21,.26-.37,.49-.48,.65-.16,.23-.3,.48-.44,.68-.05,.07-.09,.16-.12,.22-.4,.72-.6,1.28-.57,1.55,.01,.04,.02,.17-.01,.21-.02,0-.06-.01-.15-.17-.23-.38-.34-.78-.34-.78,0,0-.38,.26-.87,.74-.93,.93-2.23,2.7-1.92,5.21Z" fill="#4b00ac"/>
        <path d="M5.7,19.43l-3.78,3.78-.29-.29,3.87-3.87c.09,.11,.15,.24,.21,.38Z" fill="#2f0177"/>
        <path d="M5.5,19.05l-3.87,3.87-.56-.56,3.88-3.88c.13,.09,.23,.16,.32,.24l.06,.06c.06,.09,.12,.17,.17,.27Z" fill="#072570"/>
        <rect x=".08" y="22.33" width="2.21" height=".79" transform="translate(16.42 5.81) rotate(45)" fill="#5a00a8"/>
      </g>
      <g>
        <rect x="9.45" y=".66" width=".6" height="5.36" transform="translate(5.22 -5.92) rotate(45)" fill="#044aaf"/>
        <rect x="4.54" y="4.18" width="1.55" height="7.11" transform="translate(7.02 -1.49) rotate(45)" fill="#052dad"/>
        <path d="M3.22,10.16l-.22,.22s-.05-.07-.13-.11l-.03-.03s-.1-.09-.18-.13l.25-.25,.31,.31Z" fill="#411d13"/>
        <path d="M2.66,10.1L.52,12.24l-.17-.17,2.09-2.09c.08,.04,.16,.07,.22,.11Z" fill="#054477"/>
        <path d="M13.01,.02l-1.5,1.46c-.48,.17-1.01,.4-1.56,.71-1.27,.71-2.17,1.57-2.76,2.26-.16-.18-.32-.37-.47-.56C9.66,1.15,12.4,.2,13.01,.02Z" fill="#0089e5"/>
        <path d="M11.51,1.48l-3.76,3.67-1.16,1.12-.92,.89-2.76,2.69-.25,.25c-.07-.04-.14-.07-.22-.11-.15-.05-.31-.09-.51-.1-.36-.01-.68,.14-.88,.28,.34-.53,.09-1.64,.09-1.64,1.39,.18,2.38-.56,2.89-1.07,.27-.27,.4-.47,.4-.47,0,0-.22-.06-.43-.19-.09-.05-.1-.07-.09-.08,0-.02,.09-.02,.11-.01,.15,.01,.44-.09,.83-.3,.06-.03,.13-.07,.2-.12,.11-.05,.21-.13,.32-.2,.09-.06,.22-.15,.36-.26l-.37-.55s.07-.08,.11-.12c.42-.46,.84-.88,1.25-1.26,.15,.19,.31,.38,.47,.56,.59-.69,1.49-1.54,2.76-2.26,.55-.31,1.09-.55,1.56-.71Z" fill="#05a"/>
        <path d="M3.22,10.16l-.26,.26c-.03-.05-.06-.1-.09-.15l-.03-.03s-.1-.09-.18-.13l.25-.25,.31,.31Z" fill="#411d13"/>
        <path d="M3.22,10.16l-.26,.26c-.03-.05-.06-.1-.09-.15l-.03-.03s-.1-.09-.18-.13l.25-.25L7.75,5.15l.18,.18L3.22,10.16Z" fill="#052dad"/>
        <path d="M7.93,5.32l-.18-.18,1.19-1.16L13.01,.02s.04-.01,.06-.02c0,.01,0,.03-.01,.05h0s-3.97,4.08-3.97,4.08l-1.16,1.19Z" fill="#044aaf"/>
        <path d="M8.57,5.83c.69-.59,1.55-1.5,2.26-2.76,.28-.5,.51-.98,.67-1.42L13.05,.06c-.18,.61-1.13,3.33-3.86,6.26-.21-.16-.42-.32-.62-.49Z" fill="#7727f4"/>
        <path d="M4.55,11.93s-1.11-.26-1.63,.07c.13-.2,.28-.51,.26-.87,0-.2-.05-.36-.1-.51-.03-.07-.07-.15-.11-.21l.26-.26,2.68-2.75L11.5,1.65c-.16,.45-.38,.92-.67,1.42-.71,1.26-1.57,2.17-2.26,2.76,.2,.16,.41,.33,.62,.49-.39,.42-.82,.84-1.28,1.27-.04,.04-.08,.07-.12,.11l-.54-.36c-.11,.14-.2,.27-.26,.36-.09,.13-.17,.26-.24,.38-.03,.04-.05,.09-.07,.12-.22,.4-.33,.71-.32,.86,0,.02,.01,.09,0,.11-.01,0-.03,0-.08-.09-.13-.21-.19-.43-.19-.43,0,0-.21,.14-.48,.41-.51,.51-1.23,1.49-1.06,2.88Z" fill="#4b00ac"/>
        <path d="M3.08,10.62L.99,12.71l-.16-.16,2.14-2.14c.05,.06,.08,.13,.11,.21Z" fill="#2f0177"/>
        <path d="M2.97,10.41L.83,12.55l-.31-.31,2.14-2.14c.07,.05,.13,.09,.18,.13l.03,.03s.07,.09,.09,.15Z" fill="#072570"/>
        <rect x="-.02" y="12.23" width="1.22" height=".44" transform="translate(8.97 3.23) rotate(45)" fill="#5a00a8"/>
      </g>
      <g>
        <rect x="20.26" y="11.77" width=".6" height="5.36" transform="translate(16.24 -10.31) rotate(45)" fill="#044aaf"/>
        <rect x="15.35" y="15.29" width="1.55" height="7.11" transform="translate(18.05 -5.88) rotate(45)" fill="#052dad"/>
        <path d="M14.04,21.27l-.22,.22s-.05-.07-.13-.11l-.03-.03s-.1-.09-.18-.13l.25-.25,.31,.31Z" fill="#411d13"/>
        <path d="M13.48,21.21l-2.14,2.14-.17-.17,2.09-2.09c.08,.04,.16,.07,.22,.11Z" fill="#054477"/>
        <path d="M23.82,11.13l-1.5,1.46c-.48,.17-1.01,.4-1.56,.71-1.27,.71-2.17,1.57-2.76,2.26-.16-.18-.32-.37-.47-.56,2.93-2.75,5.67-3.69,6.29-3.87Z" fill="#0089e5"/>
        <path d="M22.33,12.59l-3.76,3.67-1.16,1.12-.92,.89-2.76,2.69-.25,.25c-.07-.04-.14-.07-.22-.11-.15-.05-.31-.09-.51-.1-.36-.01-.68,.14-.88,.28,.34-.53,.09-1.64,.09-1.64,1.39,.18,2.38-.56,2.89-1.07,.27-.27,.4-.47,.4-.47,0,0-.22-.06-.43-.19-.09-.05-.1-.07-.09-.08,0-.02,.09-.02,.11-.01,.15,.01,.44-.09,.83-.3,.06-.03,.13-.07,.2-.12,.11-.05,.21-.13,.32-.2,.09-.06,.22-.15,.36-.26l-.37-.55s.07-.08,.11-.12c.42-.46,.84-.88,1.25-1.26,.15,.19,.31,.38,.47,.56,.59-.69,1.49-1.54,2.76-2.26,.55-.31,1.09-.55,1.56-.71Z" fill="#05a"/>
        <path d="M14.04,21.27l-.26,.26c-.03-.05-.06-.1-.09-.15l-.03-.03s-.1-.09-.18-.13l.25-.25,.31,.31Z" fill="#411d13"/>
        <path d="M14.04,21.27l-.26,.26c-.03-.05-.06-.1-.09-.15l-.03-.03s-.1-.09-.18-.13l.25-.25,4.84-4.7,.18,.18-4.7,4.84Z" fill="#052dad"/>
        <path d="M18.74,16.43l-.18-.18,1.19-1.16,4.07-3.97s.04-.01,.06-.02c0,.01,0,.03-.01,.05h0s-3.97,4.08-3.97,4.08l-1.16,1.19Z" fill="#044aaf"/>
        <path d="M19.39,16.95c.69-.59,1.55-1.5,2.26-2.76,.28-.5,.51-.98,.67-1.42l1.55-1.59c-.18,.61-1.13,3.33-3.86,6.26-.21-.16-.42-.32-.62-.49Z" fill="#7727f4"/>
        <path d="M15.36,23.04s-1.11-.26-1.63,.07c.13-.2,.28-.51,.26-.87,0-.2-.05-.36-.1-.51-.03-.07-.07-.15-.11-.21l.26-.26,2.68-2.75,5.59-5.75c-.16,.45-.38,.92-.67,1.42-.71,1.26-1.57,2.17-2.26,2.76,.2,.16,.41,.33,.62,.49-.39,.42-.82,.84-1.28,1.27-.04,.04-.08,.07-.12,.11l-.54-.36c-.11,.14-.2,.27-.26,.36-.09,.13-.17,.26-.24,.38-.03,.04-.05,.09-.07,.12-.22,.4-.33,.71-.32,.86,0,.02,.01,.09,0,.11-.01,0-.03,0-.08-.09-.13-.21-.19-.43-.19-.43,0,0-.21,.14-.48,.41-.51,.51-1.23,1.49-1.06,2.88Z" fill="#4b00ac"/>
        <path d="M13.9,21.74l-2.09,2.09-.16-.16,2.14-2.14c.05,.06,.08,.13,.11,.21Z" fill="#2f0177"/>
        <path d="M13.78,21.53l-2.14,2.14-.31-.31,2.14-2.14c.07,.05,.13,.09,.18,.13l.03,.03s.07,.09,.09,.15Z" fill="#072570"/>
        <rect x="10.79" y="23.34" width="1.22" height=".44" transform="translate(20 -1.16) rotate(45)" fill="#5a00a8"/>
      </g>
    </g>
  </g>
</svg>