<?xml version="1.0" encoding="UTF-8"?>
<svg id="_Шар_2" data-name="Шар 2" xmlns="http://www.w3.org/2000/svg" viewBox="0 0 23.87 24.11">
  <g id="_Шар_22" data-name="Шар 22">
    <g>
      <g>
        <polygon points="4.64 23.87 0 23.87 0 19.24 2.49 19.23 4.24 19.23 4.64 19.23 4.64 19.62 4.64 23.87" fill="#596e7c"/>
        <polygon points="3.66 22.88 .99 22.88 .99 20.22 2.42 20.21 3.43 20.21 3.66 20.21 3.66 20.44 3.66 22.88" fill="#95adbc"/>
        <path d="M23.74,.13L8.14,15.73S1.18,8.1,23.74,.13Z" fill="#95adbc"/>
        <path d="M23.74,.13L8.14,15.73S15.77,22.69,23.74,.13Z" fill="#596e7c"/>
        <path d="M20.59,3.28L11.29,12.59S7.14,8.03,20.59,3.28Z" fill="#aacfe2"/>
        <path d="M20.59,3.28L11.29,12.59s4.55,4.15,9.31-9.31Z" fill="#7994a3"/>
        <polygon points="8.46 15.41 6.79 17.08 5.97 15.75 7.38 14.34 8.46 15.41" fill="#442c09"/>
        <polygon points="7.22 18.81 5.85 20.18 5.03 18.83 4.21 17.5 4.76 16.96 5.99 17.88 7.22 18.81" fill="#47260d"/>
        <polygon points="4.64 19.23 3.44 20.43 2.36 19.36 3.37 18.35 4.24 19.23 4.64 19.23" fill="#442c09"/>
        <polygon points="9.54 16.49 7.62 18.42 6.79 17.08 8.46 15.41 9.54 16.49" fill="#281906"/>
        <polygon points="5.52 20.51 4.52 21.51 3.44 20.43 4.64 19.23 4.64 19.62 5.52 20.51" fill="#281906"/>
        <path d="M23.74,.13L8.14,15.73S1.18,8.1,23.74,.13Z" fill="#95adbc"/>
        <path d="M23.74,.13L8.14,15.73S15.77,22.69,23.74,.13Z" fill="#596e7c"/>
        <rect x="5.98" y="15.19" width="4.33" height="1.08" transform="translate(13.51 -1.15) rotate(45)" fill="#596e7c"/>
        <rect x="5.52" y="16.01" width="4.33" height=".36" transform="translate(13.7 -.69) rotate(45)" fill="#3b4951"/>
        <polygon points="7.62 18.42 7.22 18.81 5.99 17.88 4.76 16.96 5.97 15.75 6.79 17.08 7.62 18.42" fill="#683912"/>
        <polygon points="5.85 20.18 5.52 20.51 4.64 19.62 4.64 19.23 4.24 19.23 3.37 18.35 4.21 17.5 5.03 18.83 5.85 20.18" fill="#683912"/>
      </g>
      <g>
        <polygon points="14.6 24.11 12.35 24.11 12.35 21.86 13.56 21.86 14.41 21.86 14.6 21.86 14.6 22.05 14.6 24.11" fill="#596e7c"/>
        <polygon points="14.12 23.63 12.83 23.63 12.83 22.34 13.52 22.34 14.01 22.34 14.12 22.34 14.12 22.45 14.12 23.63" fill="#95adbc"/>
        <path d="M23.87,12.59l-7.57,7.57s-3.37-3.7,7.57-7.57Z" fill="#95adbc"/>
        <path d="M23.87,12.59l-7.57,7.57s3.7,3.37,7.57-7.57Z" fill="#596e7c"/>
        <path d="M22.34,14.12l-4.52,4.52s-2.01-2.21,4.52-4.52Z" fill="#aacfe2"/>
        <path d="M22.34,14.12l-4.52,4.52s2.21,2.01,4.52-4.52Z" fill="#7994a3"/>
        <polygon points="16.45 20.01 15.64 20.82 15.24 20.17 15.93 19.49 16.45 20.01" fill="#442c09"/>
        <polygon points="15.85 21.66 15.19 22.32 14.79 21.67 14.39 21.02 14.66 20.76 15.25 21.2 15.85 21.66" fill="#47260d"/>
        <polygon points="14.6 21.86 14.02 22.44 13.49 21.92 13.98 21.43 14.41 21.86 14.6 21.86" fill="#442c09"/>
        <polygon points="16.98 20.53 16.04 21.46 15.64 20.82 16.45 20.01 16.98 20.53" fill="#281906"/>
        <polygon points="15.03 22.48 14.54 22.97 14.02 22.44 14.6 21.86 14.6 22.05 15.03 22.48" fill="#281906"/>
        <path d="M23.87,12.59l-7.57,7.57s-3.37-3.7,7.57-7.57Z" fill="#95adbc"/>
        <path d="M23.87,12.59l-7.57,7.57s3.7,3.37,7.57-7.57Z" fill="#596e7c"/>
        <rect x="15.25" y="19.9" width="2.1" height=".52" transform="translate(19.03 -5.62) rotate(45)" fill="#596e7c"/>
        <rect x="15.03" y="20.3" width="2.1" height=".18" transform="translate(19.12 -5.4) rotate(45)" fill="#3b4951"/>
        <polygon points="16.04 21.46 15.85 21.66 15.25 21.2 14.66 20.76 15.24 20.17 15.64 20.82 16.04 21.46" fill="#683912"/>
        <polygon points="15.19 22.32 15.03 22.48 14.6 22.05 14.6 21.86 14.41 21.86 13.98 21.43 14.39 21.02 14.79 21.67 15.19 22.32" fill="#683912"/>
      </g>
      <g>
        <polygon points="2.68 11.52 .43 11.52 .43 9.27 1.64 9.27 2.49 9.27 2.68 9.27 2.68 9.46 2.68 11.52" fill="#596e7c"/>
        <polygon points="2.2 11.04 .91 11.04 .91 9.75 1.6 9.74 2.09 9.74 2.2 9.74 2.2 9.85 2.2 11.04" fill="#95adbc"/>
        <path d="M11.95,0L4.38,7.57S1,3.87,11.95,0Z" fill="#95adbc"/>
        <path d="M11.95,0L4.38,7.57S8.08,10.94,11.95,0Z" fill="#596e7c"/>
        <path d="M10.42,1.53L5.9,6.04S3.89,3.83,10.42,1.53Z" fill="#aacfe2"/>
        <path d="M10.42,1.53L5.9,6.04s2.21,2.01,4.52-4.52Z" fill="#7994a3"/>
        <polygon points="4.53 7.41 3.72 8.22 3.32 7.58 4.01 6.89 4.53 7.41" fill="#442c09"/>
        <polygon points="3.93 9.06 3.27 9.72 2.87 9.07 2.47 8.43 2.74 8.16 3.33 8.61 3.93 9.06" fill="#47260d"/>
        <polygon points="2.68 9.27 2.1 9.85 1.57 9.33 2.06 8.84 2.49 9.27 2.68 9.27" fill="#442c09"/>
        <polygon points="5.06 7.94 4.12 8.87 3.72 8.22 4.53 7.41 5.06 7.94" fill="#281906"/>
        <polygon points="3.11 9.89 2.62 10.37 2.1 9.85 2.68 9.27 2.68 9.46 3.11 9.89" fill="#281906"/>
        <path d="M11.95,0L4.38,7.57S1,3.87,11.95,0Z" fill="#95adbc"/>
        <path d="M11.95,0L4.38,7.57S8.08,10.94,11.95,0Z" fill="#596e7c"/>
        <rect x="3.33" y="7.31" width="2.1" height=".52" transform="translate(6.63 -.88) rotate(45)" fill="#596e7c"/>
        <rect x="3.11" y="7.7" width="2.1" height=".18" transform="translate(6.73 -.66) rotate(45)" fill="#3b4951"/>
        <polygon points="4.12 8.87 3.93 9.06 3.33 8.61 2.74 8.16 3.32 7.58 3.72 8.22 4.12 8.87" fill="#683912"/>
        <polygon points="3.27 9.72 3.11 9.89 2.68 9.46 2.68 9.27 2.49 9.27 2.06 8.84 2.47 8.43 2.87 9.07 3.27 9.72" fill="#683912"/>
      </g>
    </g>
  </g>
</svg>