<?xml version="1.0" encoding="UTF-8"?>
<svg id="_Шар_2" data-name="Шар 2" xmlns="http://www.w3.org/2000/svg" viewBox="0 0 23.31 17.64">
  <g id="Axt">
    <g>
      <path d="M8.2,9.47c.65-.28,1.31-.68,1.94-1.28,.98-.93,2.41-2.84,3.4-4.71,.26-.49,.64-1.26,1.42-2.04l.09-.09c.63-.6,1.28-.99,1.74-1.23l.97,.97c-2.13,1.89-3.77,3.53-4.84,4.66-1.65,1.73-2.83,3.11-3.99,4.44l-.73-.73Z" fill="#ad5836"/>
      <polygon points="7.23 10.11 6.5 9.91 6.77 9.64 7.23 10.11" fill="#824923"/>
      <path d="M6.68,12.67l-.55-1.68,1.7,.45c-.36,.41-.74,.81-1.15,1.23Z" fill="#824923"/>
      <polygon points="5.37 12.3 4.74 11.67 5.06 11.35 5.37 12.3" fill="#824923"/>
      <path d="M5.41,13.96c-.3,.3-.62,.61-.97,.92-.2,.19-.41,.38-.61,.55-.14-.77-.51-1.44-.77-2.08l.87-.87,1.48,1.48Z" fill="#be6439"/>
      <path d="M8.68,10.49l-1.45-.38-.47-.47,.8-.8,1.36,1.36c-.08,.1-.17,.2-.25,.29Z" fill="#824923"/>
      <path d="M7.83,11.45l-1.7-.45-.57-.15,.93-.93,.74,.2,1.45,.38c-.17,.19-.33,.38-.5,.56-.11,.13-.23,.26-.35,.39Z" fill="#99582a"/>
      <path d="M6.22,13.15l-.85-.85-.31-.95,.5-.5,.57,.15,.55,1.68c-.15,.17-.3,.33-.47,.48Z" fill="#99582a"/>
      <path d="M5.79,13.6c-.12,.12-.24,.24-.38,.36l-1.48-1.48,.8-.8,1.48,1.48c-.13,.14-.28,.29-.43,.44Z" fill="#99582a"/>
      <path d="M3.84,15.43c-1.07,.96-1.99,1.71-2.61,2.2-.05,0-.6,.05-.97-.38C-.04,16.9,0,16.48,0,16.41l3.06-3.06c.26,.64,.64,1.32,.77,2.08Z" fill="#ad5836"/>
      <path d="M10.14,8.19c-.63,.6-1.29,1-1.94,1.28l-.63-.63L14.96,1.45c-.78,.78-1.16,1.55-1.42,2.04-.99,1.86-2.42,3.77-3.4,4.71Z" fill="#be6439"/>
      <path d="M16.79,.13c-.47,.24-1.11,.63-1.74,1.23L16.31,.11c.13-.04,.25-.08,.36-.11l.13,.13Z" fill="#be6439"/>
      <path d="M20.84,10.82l.04-.04c1.2-1.42,1.51-2.93,1.63-3.62-.7-.18-2.26-.66-3.68-2.06-1.27-1.25-1.79-2.62-2-3.3-.91,.88-1.82,1.79-2.73,2.67h0c1.19-1.17,2.36-2.33,3.55-3.49,.21,.69,.73,2.06,1.99,3.31,1.41,1.4,2.98,1.89,3.68,2.06-.11,.69-.43,2.2-1.62,3.61-.27,.33-.57,.61-.86,.86Z" fill="#bcc6ce"/>
      <path d="M20.88,10.77l-.04,.04c-1.51,1.29-3.17,1.6-3.68,1.69,.21-.64,.58-2.12,.11-3.9-.69-2.57-2.67-3.86-3.16-4.15,.91-.88,1.82-1.79,2.73-2.67,.21,.68,.74,2.05,2,3.3,1.41,1.4,2.98,1.89,3.68,2.06-.11,.69-.43,2.2-1.63,3.62Z" fill="#929aa0"/>
      <path d="M20.88,10.77l-.04,.04c-1.51,1.29-3.17,1.6-3.68,1.69,.21-.64,.58-2.12,.11-3.9-.69-2.57-2.67-3.86-3.16-4.15,.91-.88,1.82-1.79,2.73-2.67,.21,.68,.74,2.05,2,3.3,1.41,1.4,2.98,1.89,3.68,2.06-.11,.69-.43,2.2-1.63,3.62Z" fill="#7d8489"/>
    </g>
  </g>
</svg>