<?xml version="1.0" encoding="UTF-8"?>
<svg id="_Шар_2" data-name="Шар 2" xmlns="http://www.w3.org/2000/svg" viewBox="0 0 23.49 23.32">
  <g id="_2hand_axt" data-name="2hand axt">
    <g>
      <polygon points="19.81 3.72 19.53 4 19.51 3.97 18.56 3.02 18.83 2.75 19.79 3.7 19.81 3.72" fill="#ce7f49"/>
      <polygon points="20.74 4.65 20.47 4.93 20.01 4.48 19.53 4 19.81 3.72 20.74 4.65" fill="#9b5424"/>
      <path d="M19.53,4l-4.11,4.11-.7,.7-.02-.02c-.11-.11-.22-.23-.32-.35-.11-.11-.2-.22-.28-.33h0c.28-.27,.55-.54,.82-.79,.04-.05,.08-.08,.12-.12,1.33-1.27,2.64-2.51,3.96-3.73l.5,.5,.02,.03Z" fill="#726a39"/>
      <path d="M20.01,4.48c-1.19,1.33-2.42,2.66-3.69,4-.14,.14-.27,.28-.4,.42-.13,.13-.25,.26-.37,.39-.04,.04-.08,.07-.11,.11l-.02,.02c-.1-.07-.18-.14-.26-.2-.06-.06-.11-.1-.16-.15-.12-.1-.21-.19-.28-.26l.7-.7,4.11-4.11,.48,.48Z" fill="#51481e"/>
      <path d="M13.23,11.67h0s-.05,.06-.05,.06l-1.15,1.16c-3.62,3.64-7.2,7.11-10.73,10.43H.21L11.34,12.2l.95-.96,.33-.33c.25,.25,.44,.5,.61,.76Z" fill="#51481e"/>
      <path d="M12.62,10.91l-.33,.33-.95,.96L.21,23.32h-.21v-.91c3.41-3.6,6.96-7.23,10.65-10.9,.24-.25,.49-.51,.75-.76l.46-.46h.01c.25,.16,.49,.37,.73,.6l.02,.02Z" fill="#726a39"/>
      <path d="M14.72,8.81l-.27,.28-.15,.14-1.68,1.68-.02-.02c-.24-.23-.48-.44-.73-.6h-.01c-1.05-.72-2.1-.85-2.42-.87l.47-.47,.04-.03,3.2-3.2c.05,.38,.24,1.36,.94,2.34,.01,0,.01,.02,.02,.03h0c.09,.12,.17,.24,.27,.35,.1,.12,.21,.24,.32,.35l.02,.02Z" fill="#a3653b"/>
      <path d="M17.77,10.34l-3.7,3.7c-.02-.31-.15-1.32-.84-2.36h0c-.17-.27-.36-.52-.61-.77l1.68-1.68,.15-.14,.27-.28c.07,.07,.16,.16,.28,.26,.06,.05,.12,.1,.19,.15,.07,.06,.16,.12,.25,.18,.02,.01,.03,.02,.05,.03,.53,.37,1.3,.76,2.28,.91Z" fill="#a3653b"/>
      <path d="M14.29,9.22l-1.29,1.29h-.01c-.14-.16-.3-.28-.45-.38-.65-.44-1.29-.52-1.49-.53l2.28-2.28c.03,.23,.15,.84,.59,1.46,.1,.14,.22,.29,.36,.43h.01Z" fill="#ce7f49"/>
      <path d="M16.17,10.16l-2.28,2.28c-.01-.2-.09-.82-.51-1.46-.1-.16-.23-.31-.38-.46l1.29-1.29c.09,.09,.23,.22,.44,.36,.33,.23,.81,.48,1.43,.57Z" fill="#ce7f49"/>
      <path d="M17.81,1.05l-.04,.04c-2.36,.47-4.72,.93-7.08,1.4l-3.59,3.58-1.54-1.54L9.18,.91c2.88,.05,5.75,.09,8.63,.14Z" fill="#9b5424"/>
      <path d="M17.77,1.09l-4.62,4.63-3.2,3.2-2.84-2.84h0s3.59-3.59,3.59-3.59c2.36-.47,4.72-.93,7.08-1.4Z" fill="#ce7f49"/>
      <path d="M9.95,8.92l-.04,.03-2.84-2.84-3.71,3.71c-.36,2.21-.73,4.41-1.08,6.62-.15-2.74-.28-5.46-.43-8.19l3.71-3.72,1.54,1.54h0s2.84,2.85,2.84,2.85Z" fill="#a3653b"/>
      <path d="M9.91,8.95l-7.62,7.62s-.01-.09-.01-.13c.35-2.21,.72-4.41,1.08-6.62l3.71-3.71,2.84,2.84Z" fill="#bc6a33"/>
      <path d="M18.95,17.93l-3.71,3.71c-2.78-.15-5.55-.29-8.33-.44,2.27-.37,4.53-.74,6.79-1.1l3.71-3.72,1.54,1.55Z" fill="#a3653b"/>
      <path d="M22.58,14.31l-3.63,3.62-1.54-1.55,3.62-3.62c.47-2.36,.94-4.72,1.4-7.08,.05,2.88,.1,5.75,.15,8.63Z" fill="#9b5424"/>
      <path d="M17.41,16.38l-3.71,3.72c-2.26,.36-4.52,.73-6.79,1.1l7.66-7.66,2.84,2.84Z" fill="#bc6a33"/>
      <path d="M22.43,5.68c-.46,2.36-.93,4.72-1.4,7.08l-3.62,3.62-2.84-2.84,7.86-7.86Z" fill="#ce7f49"/>
      <path d="M9.91,8.95l-7.66,7.66c.02-.06,.02-.11,.03-.17,.35-2.21,.72-4.41,1.08-6.62l3.71-3.71,2.84,2.84Z" fill="#bc6a33"/>
      <path d="M17.77,1.09l-4.62,4.63-3.2,3.2-.04,.03-2.84-2.84,.04-.03,3.58-3.59c2.36-.47,4.72-.93,7.08-1.4Z" fill="#ce7f49"/>
      <polygon points="21.68 1.81 19.81 3.68 19.27 3.14 19.66 1.66 19.87 1.61 21.14 1.27 21.68 1.81" fill="#9b5424"/>
      <polygon points="22.21 2.35 21.88 3.61 21.83 3.83 20.35 4.21 19.81 3.68 21.68 1.81 22.21 2.35" fill="#a3653b"/>
      <polygon points="23.49 0 23.48 3.61 21.88 3.61 22.21 2.35 21.68 1.81 23.49 0" fill="#ce7f49"/>
      <polygon points="23.49 0 21.68 1.81 21.14 1.27 19.87 1.61 19.87 .01 23.49 0" fill="#bc6a33"/>
      <polyline points="19.81 3.68 19.79 3.7 19.51 3.97 19.31 4.18" fill="none"/>
      <polygon points="16.38 8.54 15.96 8.96 15.92 8.9 15.42 8.11 14.93 7.32 14.89 7.26 15 7.15 15.69 7.84 16.32 8.48 16.38 8.54" fill="#d67b54"/>
      <polygon points="15.62 9.3 15.11 9.81 13.86 11.05 13.34 10.19 13.33 10.18 12.82 9.33 13.27 8.87 14.11 9.02 14.45 9.09 15.16 9.22 15.19 9.22 15.55 9.29 15.62 9.3" fill="#fc9765"/>
      <polygon points="13.18 11.73 12.03 12.89 10.64 11.5 11.4 10.75 12.29 11.24 13.18 11.73" fill="#fc9765"/>
      <polygon points="15.96 8.96 15.62 9.3 15.55 9.29 15.19 9.22 15.16 9.22 14.45 9.09 14.11 9.02 13.27 8.87 13.71 8.44 14.09 8.06 14.89 7.26 14.93 7.32 15.42 8.11 15.92 8.9 15.96 8.96" fill="#fc9765"/>
      <polygon points="13.86 11.05 13.58 11.33 13.23 11.68 13.18 11.73 12.29 11.24 11.4 10.75 11.86 10.29 11.87 10.29 12.21 9.94 12.82 9.33 13.33 10.18 13.34 10.19 13.86 11.05" fill="#d67b54"/>
    </g>
  </g>
</svg>