<?xml version="1.0" encoding="UTF-8"?>
<svg id="_Шар_2" data-name="Шар 2" xmlns="http://www.w3.org/2000/svg" viewBox="0 0 23.74 17.96">
  <g id="Axt">
    <g>
      <path d="M8.11,9.71c.65-.29,1.3-.69,1.92-1.3,.97-.94,2.37-2.87,3.34-4.75,.26-.49,.62-1.26,1.39-2.06l.09-.09c.62-.61,1.26-1.01,1.73-1.26l.98,.96c-2.1,1.91-3.72,3.57-4.78,4.72-1.63,1.75-2.79,3.15-3.93,4.49l-.74-.72Z" fill="#726a39"/>
      <path d="M16.45,.13c-.11,.02-.23,.07-.36,.11l.23-.24,.13,.13Z" fill="#936639"/>
      <polygon points="7.15 10.36 6.41 10.17 6.68 9.9 7.15 10.36" fill="#b2836b"/>
      <path d="M6.63,12.93l-.57-1.67,1.7,.43c-.36,.41-.73,.82-1.13,1.24Z" fill="#dd7547"/>
      <polygon points="5.31 12.58 4.67 11.95 4.99 11.62 5.31 12.58" fill="#b2836b"/>
      <path d="M5.38,14.23c-.3,.3-.62,.62-.96,.94-.2,.19-.4,.38-.6,.56-.15-.76-.53-1.44-.8-2.07l.86-.88,1.5,1.46Z" fill="#898149"/>
      <path d="M22.75,8.42c-1.13-.68-2.52-1.7-3.91-3.1-1.25-1.25-2.17-2.48-2.82-3.5l1.05-1.08c.63,1,1.52,2.21,2.73,3.42,1.41,1.42,2.8,2.41,3.93,3.08-.3,.39-.64,.79-.98,1.19Z" fill="#ce7f49"/>
      <path d="M20.72,10.66c-1.2,1.23-2.38,2.3-3.48,3.23,.06-.4,.12-.92,.14-1.53,.83-.73,1.69-1.54,2.58-2.45,.68-.72,1.32-1.42,1.9-2.08,.31,.23,.61,.42,.89,.59-.61,.72-1.3,1.47-2.03,2.24Z" fill="#bc6a33"/>
      <path d="M19.96,9.91c-.88,.91-1.74,1.71-2.58,2.45,.03-.86-.04-1.92-.36-3.08-.74-2.79-2.4-4.53-3.17-5.24l2.17-2.22c.62,.98,1.49,2.15,2.66,3.33,.05,.06,.11,.12,.16,.17,1.04,1.05,2.08,1.88,3.02,2.51-.58,.67-1.22,1.37-1.9,2.08Z" fill="#9b5424"/>
      <path d="M8.61,10.72l-1.46-.36-.47-.46,.79-.81,1.38,1.34c-.08,.1-.16,.2-.24,.3Z" fill="#dd7547"/>
      <path d="M7.77,11.69l-1.7-.43-.57-.14,.92-.94,.74,.19,1.46,.36c-.17,.19-.33,.38-.5,.57-.11,.13-.23,.27-.34,.4Z" fill="#fc9765"/>
      <path d="M6.17,13.41l-.86-.84-.32-.95,.5-.51,.57,.14,.57,1.67c-.15,.17-.3,.33-.46,.49Z" fill="#fc9765"/>
      <path d="M5.75,13.86c-.12,.12-.24,.24-.37,.37l-1.5-1.46,.79-.81,1.5,1.46c-.13,.14-.27,.3-.42,.45Z" fill="#fc9765"/>
      <path d="M3.82,15.72c-1.05,.98-1.97,1.73-2.58,2.24-.05,0-.6,.05-.97-.37C-.03,17.24,0,16.82,0,16.75l3.02-3.1c.27,.64,.66,1.31,.8,2.07Z" fill="#726a39"/>
      <path d="M10.03,8.4c-.62,.61-1.27,1.02-1.92,1.3l-.64-.62L14.76,1.6c-.77,.79-1.14,1.56-1.39,2.06-.97,1.88-2.37,3.8-3.34,4.75Z" fill="#898149"/>
      <path d="M16.58,.25c-.46,.25-1.1,.65-1.73,1.26l1.24-1.27c.13-.04,.25-.09,.36-.11l.13,.13Z" fill="#898149"/>
    </g>
  </g>
</svg>