<?xml version="1.0" encoding="UTF-8"?>
<svg id="_Шар_2" data-name="Шар 2" xmlns="http://www.w3.org/2000/svg" viewBox="0 0 24.15 24.1">
  <g id="_2hand_axt" data-name="2hand axt">
    <g>
      <path d="M9.14,2.31c-.08,.15-.15,.32-.2,.47-.04,.12-.07,.24-.1,.36-3.35-.79-5.48,1.28-6.63,4.1,1.06-3.23,3.27-5.79,6.93-4.93Z" fill="#bee5d5"/>
      <path d="M19.51,2.49h-.01s0,.02,0,.02c-.04,.02-.07,.04-.11,.06-.16,.08-.33,.18-.5,.29-.04,.03-.08,.05-.12,.08-.13,.07-.25,.15-.38,.23-.14,.08-.29,.17-.44,.27t-.02,.01c-1.53,1.01-3.25,2.43-4.78,4.4-.03-.02-.06-.03-.09-.05,.01-.01,.02-.01,.02-.02-.3-.16-.6-.31-.9-.45-.28-.13-.55-.25-.83-.35-.05-.03-.1-.05-.15-.06-.27-.1-.53-.19-.8-.27-.29-.09-.58-.17-.86-.23-.31-.07-.62-.13-.92-.17-1.65-.22-3.09,.06-4.06,.9-.11,.1-.22,.2-.3,.31-.37,.39-.64,.87-.86,1.42-.07,.16-.13,.33-.19,.51-.18,.54-.34,1.13-.5,1.75-.49,1.87-.56,3.52-.5,4.72t.01,.02c.02,.08,.05,.17,.09,.25,0,.05-.02,.11-.02,.17-.02-.05-.05-.08-.07-.13-.12-.22-.22-.47-.31-.76-.66-1.97-.63-5.33,.31-8.17,1.15-2.82,3.28-4.89,6.63-4.1t-.01,.02c-.19,.97,.22,1.77,.89,2.3,1.07,1.32,3.87,1.29,4.51-1.01,.05-.17,.09-.35,.11-.54,.67-.16,1.37-.33,2.07-.51,1.04-.27,2.05-.57,3-.88,.03-.01,.07-.02,.1-.03Z" fill="#77968a"/>
      <path d="M19.5,2.5s0,.01,0,.01c-.04,.02-.07,.04-.11,.06-.16,.08-.33,.18-.5,.29-.04,.03-.08,.05-.12,.08-.13,.07-.25,.15-.38,.23-.13,.08-.26,.17-.39,.26-.01,0-.03,.01-.05,.01t-.02,.01s-.05,.01-.08,.02c-.03,0-.07,.02-.1,.03-.65,.2-1.31,.39-1.99,.57-.52,.14-1.04,.27-1.52,.38t-.02,.01c.06-.17,.1-.37,.12-.58,.7-.17,1.42-.35,2.15-.55,.72-.19,1.42-.39,2.09-.6,.29-.06,.57-.13,.84-.21,.03,0,.06-.01,.09-.02Z" fill="#bee5d5"/>
      <polyline points="5.23 18.92 5.98 18.17 7.97 16.18 9.43 14.72 11.41 12.74 12.04 12.11" fill="none"/>
      <line x1="21.31" y1="2.84" x2="21.48" y2="2.67" fill="none"/>
      <line x1="11.42" y1="12.73" x2="12.04" y2="12.11" fill="none"/>
      <path d="M8.73,16.95c-.43,.4-.85,.81-1.26,1.22h-3.07c.93-.9,1.84-1.83,2.76-2.79l.78,.78,.03,.03,.76,.76Z" fill="#5b2806"/>
      <path d="M4.67,19.43L0,24.1v-1.79c1.3-1.16,2.6-2.38,3.9-3.65l.77,.77Z" fill="#b6ad90"/>
      <path d="M5.45,20.21c-1.26,1.29-2.46,2.59-3.59,3.89H0l4.67-4.67,.78,.78Z" fill="#9b8b5d"/>
      <path d="M12.35,13.67c-.4,.34-.8,.69-1.21,1.05h-3.36c.44-.46,.89-.93,1.33-1.42,.46-.5,.92-1,1.36-1.5l.91,.91,.03,.03,.94,.93Z" fill="#5b2806"/>
      <path d="M13.02,13.09c-.22,.19-.45,.38-.67,.58l-.94-.93-.03-.03-.91-.91c.21-.22,.41-.45,.6-.67l.94,.95,.03,.03,.98,.98Z" fill="none"/>
      <path d="M21.7,4.69c-.11,.35-.22,.7-.33,1.08,.06-.31,.14-.61,.22-.9,.03-.05,.06-.11,.09-.16l.02-.02Z" fill="#77968a"/>
      <path d="M13.07,7.78s0,0-.02,.02c-.15,.2-.32,.44-.48,.67-.41,.59-.75,1.18-1.06,1.75-.46-.25-2.2-1.09-4.36-.56-1.86,.46-2.93,1.64-3.27,2.08-.66,.87-1.16,1.98-1.41,3.24-.01,.01-.02,.01-.01,.02-.08,.36-.13,.74-.16,1.13-.04-.08-.07-.17-.09-.25t-.01-.02c-.06-1.2,.01-2.85,.5-4.72,.16-.62,.32-1.21,.5-1.75,.06-.18,.12-.35,.19-.51,.22-.55,.49-1.03,.86-1.42,.09-.12,.19-.22,.3-.31,.97-.84,2.41-1.12,4.06-.9,.57,.07,1.17,.2,1.78,.4,.27,.08,.53,.17,.8,.27,.05,.01,.1,.03,.15,.06,.28,.1,.55,.22,.83,.35,.3,.14,.6,.29,.9,.45Z" fill="#4f7767"/>
      <path d="M20.86,3.29L12.04,12.11l-.03-.03-.94-.95c.13-.3,.27-.6,.44-.91,.31-.57,.65-1.16,1.06-1.75,.16-.23,.33-.47,.48-.67,.01-.01,.02-.01,.02-.02,1.47-1.93,3.15-3.3,4.67-4.28,.58-.37,1.13-.68,1.64-.93,.04-.02,.07-.04,.11-.06,0,0,0,0,0-.01,.16-.08,.31-.16,.48-.23,.2,.27,.43,.56,.71,.85l.17,.17Z" fill="#acccc0"/>
      <path d="M17.59,15.79c0,.16-.01,.32-.02,.48,0,.17-.03,.33-.05,.49-.02,.14-.05,.28-.08,.41-.04,.17-.08,.34-.14,.5-.08,.23-.17,.45-.28,.65-.06,.1-.12,.2-.18,.3-.05,.08-.1,.17-.16,.25-.05,.08-.11,.15-.18,.23-.09,.1-.17,.18-.27,.27-.09,.08-.18,.16-.28,.24t-.02,.01s-.01,.01-.02,.02c-.09,.06-.18,.13-.28,.19-.83,.54-1.87,.86-3.01,1.22-1.51,.48-2.85,.66-3.91,.72,1.45-.23,2.72-.77,3.69-1.51,.45-.33,1.62-1.4,2.09-3.26,.52-2.1-.28-3.82-.54-4.34,.55-.27,1.12-.58,1.69-.95,.27-.18,.53-.36,.77-.54,.2,.41,.37,.82,.52,1.23,.07,.18,.13,.36,.19,.55,0,.03,.02,.06,.03,.09,.07,.22,.13,.43,.18,.65,.04,.19,.08,.39,.11,.58,.01,.02,.01,.04,.01,.06,.02,.07,.03,.13,.04,.2,0,.07,.02,.15,.03,.22,.02,.16,.04,.33,.05,.49,.01,.18,.02,.37,.02,.55Z" fill="#4f7767"/>
      <path d="M21.59,4.87c-.08,.29-.16,.59-.22,.9-.2,.65-.39,1.32-.57,2.01-.19,.71-.36,1.4-.52,2.07-.2,.03-.4,.06-.57,.12,.12-.48,.25-.98,.38-1.48,.18-.68,.36-1.34,.56-1.98,0-.01,.01-.03,.01-.04,.01-.05,.02-.1,.04-.14,.17-.26,.33-.51,.47-.75,.02-.02,.03-.05,.04-.07,.15-.22,.27-.43,.38-.64Z" fill="#bee5d5"/>
      <path d="M20.15,20.21c-1.03,.87-2.37,1.5-3.82,1.9,.18-.06,.37-.13,.54-.21,2.81-1.15,4.87-3.26,4.11-6.58,.13-.02,.28-.06,.42-.11,.15-.06,.29-.12,.44-.2,.53,2.27-.25,3.97-1.69,5.2Z" fill="#bee5d5"/>
      <path d="M16.87,21.9c-.17,.08-.36,.15-.54,.21-.04,.01-.08,.02-.12,.03-2.49,.68-5.24,.71-7.07,.23-.18-.05-.34-.1-.51-.15-.2-.08-.39-.15-.56-.24-.08-.03-.14-.07-.21-.11,.04,0,.09-.01,.12-.02,.25-.02,.49-.05,.73-.08,1.06-.06,2.4-.24,3.91-.72,1.14-.36,2.18-.68,3.01-1.22,.1-.06,.19-.13,.28-.19,.01-.01,.01-.02,.02-.02t.02-.01c.1-.08,.19-.16,.28-.24,.1-.09,.18-.17,.27-.27,.07-.08,.13-.15,.18-.23,.13-.17,.25-.35,.34-.55,.11-.2,.2-.42,.28-.65,.06-.16,.1-.33,.14-.5,.03-.13,.06-.27,.08-.41,.02-.16,.04-.32,.05-.49,.01-.16,.02-.32,.02-.48,0-.18-.01-.37-.02-.55,0-.16-.03-.33-.05-.49-.01-.07-.02-.15-.03-.22-.02-.07-.02-.14-.04-.2,0-.02,0-.04-.01-.06-.03-.19-.07-.39-.11-.58-.05-.22-.11-.43-.18-.65-.01-.03-.02-.06-.03-.09-.06-.18-.12-.36-.19-.55-.15-.41-.32-.82-.52-1.23-.01,0-.01-.02-.02-.03-.01-.03-.03-.06-.04-.08,.49-.38,.94-.77,1.36-1.18,.07-.05,.12-.13,.18-.18,1.18-1.13,2.09-2.29,2.81-3.37-.02,.04-.03,.09-.04,.14,0,0-.01,.03-.01,.04-.2,.64-.38,1.3-.56,1.98-.13,.5-.26,1-.38,1.48-.67,.19-1.13,.57-1.44,1.03-.72,1.1-.46,2.69,.44,3.45,.5,.62,1.22,1.01,2.12,.89,.05-.01,.1-.01,.15-.02,.76,3.32-1.3,5.43-4.11,6.58Z" fill="#77968a"/>
      <path d="M21.65,4.64c-.03,.08-.04,.15-.06,.23-.11,.21-.23,.42-.38,.64l.44-.87Z" fill="#77968a"/>
      <path d="M21.31,2.84l-.45,.45-.17-.17c-.28-.29-.51-.58-.71-.85-.09-.12-.18-.24-.25-.35l.44-.45c.22,.32,.45,.61,.66,.86,.17,.18,.33,.35,.48,.51Z" fill="#77968a"/>
      <path d="M22.68,3.98l-.45,.44c-.13-.08-.25-.17-.37-.27-.32-.24-.6-.47-.82-.7-.07-.04-.12-.1-.18-.16l.45-.45c.17,.17,.34,.32,.51,.47,.3,.26,.59,.48,.86,.67Z" fill="#4f7767"/>
      <path d="M24.15,0l-2.67,2.67-.17,.17c-.15-.16-.31-.33-.48-.51,.03-.21,.04-.44,.03-.68-.02-.67-.16-1.21-.31-1.58-.01-.02-.01-.04-.02-.06,.02,.02,.05,.04,.09,.06,.25,.19,.73,.49,1.4,.56,.97,.11,1.7-.32,2.01-.54,.05-.04,.09-.07,.12-.09Z" fill="#bee5d5"/>
      <path d="M24.03,3.42c.04,.08,.08,.14,.11,.2-.04-.01-.07-.03-.11-.04-.34-.13-.78-.25-1.3-.29-.33-.03-.63-.02-.91,.02-.17-.15-.34-.3-.51-.47l.17-.17,2.67-2.67s-.07,.12-.12,.21c-.2,.4-.48,1.13-.37,2.04,.07,.49,.23,.89,.37,1.17Z" fill="#77968a"/>
      <path d="M11.14,14.72c-.09,.08-.18,.17-.28,.25-.73,.66-1.43,1.31-2.13,1.98l-.76-.76-.03-.03-.78-.78c.21-.22,.42-.43,.62-.66h3.36Z" fill="#8c400c"/>
      <path d="M7.47,18.17c-.7,.68-1.37,1.36-2.02,2.04l-.78-.78-.77-.77c.17-.16,.33-.32,.5-.49h3.07Z" fill="#8c400c"/>
      <path d="M12.01,12.08l-.63,.63-.91-.91c.21-.22,.41-.45,.6-.67l.94,.95Z" fill="#b6ad90"/>
      <path d="M13.02,13.09c-.22,.19-.45,.38-.67,.58l-.94-.93-.03-.03,.63-.63,.03,.03,.98,.98Z" fill="#9b8b5d"/>
      <path d="M8.07,21.98c-.13,0-.27-.01-.4-.03" fill="none"/>
      <line x1="4.67" y1="19.43" x2="11.38" y2="12.71" fill="none"/>
      <path d="M21.86,4.15c-.07,.16-.14,.32-.21,.49l-.44,.87s-.02,.05-.04,.07c-.15,.3-.33,.61-.52,.93-.26,.42-.56,.87-.89,1.31-.85,1.14-1.94,2.3-3.33,3.33t-.02,.02c-.24,.18-.5,.36-.77,.54-.57,.37-1.14,.68-1.69,.95-.32,.16-.63,.31-.93,.43l-.98-.98L20.86,3.29c.06,.06,.11,.12,.18,.16,.22,.23,.5,.46,.82,.7Z" fill="#98afa7"/>
    </g>
  </g>
</svg>