<?xml version="1.0" encoding="UTF-8"?>
<svg id="_Шар_2" data-name="Шар 2" xmlns="http://www.w3.org/2000/svg" viewBox="0 0 24.21 19.41">
  <g id="Axt">
    <g>
      <path d="M9.84,12.74l-4.83,4.83c-.79-.41-1.42-1.11-1.8-1.92l5.04-5.04c.02,.43,.14,.9,.48,1.36,.33,.44,.73,.64,1.11,.78Z" fill="#33291a"/>
      <path d="M20.74,3.39h-3.39V0c.36,.14,.92,.3,1.63,.31,.78,.01,1.39-.17,1.76-.31-.15,.34-.37,.97-.36,1.79,.02,.72,.21,1.27,.36,1.6Z" fill="#2f7edd"/>
      <path d="M19.97,2.62h-1.85V.77c.2,.07,.5,.16,.89,.17,.42,0,.76-.09,.96-.17-.08,.19-.2,.53-.19,.98,0,.39,.12,.7,.19,.87Z" fill="#384b7f"/>
      <path d="M18.84,6.66c-.9,.02-2.13,.47-3.6,2.41-.84-.61-2-.91-3.19-.65l5.84-5.84c.02,.24,.22,2.39,2.17,3.63,1.88,1.2,3.83,.56,4.07,.49,.06,.44,.21,1.73-.14,3.23-1.39-1.11-3.04-3.33-5.14-3.28Z" fill="#384b7f"/>
      <path d="M19.39,15.15c-1.89,.75-4.14,.83-6.34,.11,2.45-.23,3.95-2.55,3.46-4.42-.18-.69-.64-1.32-1.27-1.76,1.47-1.94,2.7-2.39,3.6-2.41,2.1-.05,3.76,2.16,5.14,3.28-.11,.44-.26,.91-.47,1.39-.35,.07-.71,.06-1.03-.08-.93-.41-.85-1.54-1.82-2.02-.8-.39-2.11-.26-2.65,.41-.95,1.19,1.03,3.43,1.38,5.52Z" fill="#3d69b7"/>
      <path d="M19.39,15.15c-.35-2.09-2.33-4.33-1.38-5.52,.54-.66,1.85-.8,2.65-.41,.97,.47,.9,1.6,1.82,2.02,.32,.14,.68,.15,1.03,.08-.21,.47-.49,.94-.84,1.4-.84,1.09-1.98,1.92-3.28,2.42Z" fill="#2f7edd"/>
      <path d="M6.8,5.62c-.02-1.44,.55-2.84,1.44-3.82-.33,.9-.39,1.88-.26,2.67-.44,.29-.84,.69-1.17,1.14Z" fill="#173872"/>
      <path d="M14.57,4.29l-2.02,2.02c.03-.66-.13-1.26-.44-1.71-.26-.4-.66-.69-1.13-.83-.9-.28-2.03,0-3,.71-.13-.79-.07-1.77,.26-2.67,.37-.41,.79-.75,1.25-.98,.44-.21,.99-.33,.99-.33,.27-.06,.53-.11,.77-.14,.11,.44,.23,.77,.27,.89,.32,.84,.93,1.73,1.63,2.33,.44,.4,.93,.66,1.41,.72Z" fill="#3d69b7"/>
      <rect x="9.22" y="9.59" width="2.63" height="1.18" transform="translate(10.29 -4.47) rotate(45)" fill="#173872"/>
      <rect x="16.75" y="2.06" width="2.63" height="1.18" transform="translate(7.17 -12) rotate(45)" fill="#173872"/>
      <path d="M11.04,11.53l-1.2,1.2c-.38-.14-.78-.34-1.11-.78-.35-.45-.46-.93-.48-1.36l.93-.93,1.86,1.86Z" fill="#281f13"/>
      <path d="M5.01,17.57l-.51,.51c-.73,.73-1.92,.73-2.65,0l-.53-.53,1.9-1.9c.38,.81,1.01,1.51,1.8,1.92Z" fill="#564836"/>
      <path d="M9.84,12.74l-4.83,4.83c-.79-.41-1.42-1.11-1.8-1.92l5.04-5.04c.02,.43,.14,.9,.48,1.36,.33,.44,.73,.64,1.11,.78Z" fill="#33291a"/>
      <rect x="6.12" y="12.95" width="2.63" height=".69" transform="translate(11.57 -1.36) rotate(45)" fill="#6b3f20"/>
      <rect x="5.36" y="13.7" width="2.63" height=".69" transform="translate(11.89 -.61) rotate(45)" fill="#6b3f20"/>
      <rect x="4.61" y="14.45" width="2.63" height=".69" transform="translate(12.2 .14) rotate(45)" fill="#6b3f20"/>
      <rect x="3.86" y="15.2" width="2.63" height=".69" transform="translate(12.51 .9) rotate(45)" fill="#6b3f20"/>
      <path d="M15.42,3.43l-.86,.86c-1.21-.13-2.52-1.67-3.04-3.04-.05-.12-.17-.45-.27-.89,.66-.08,1.23-.04,1.63,.02-.03,.2-.16,1.08,.4,1.91,.74,1.1,2.01,1.15,2.15,1.15Z" fill="#2f7edd"/>
      <path d="M12.1,4.6c-.26-.4-.66-.69-1.13-.83-.9-.28-2.03,0-3,.71-.13-.79-.07-1.77,.26-2.67,.37-.41,.79-.75,1.25-.98,.44-.21,.99-.33,.99-.33,.27-.06,.53-.11,.77-.14,.11,.44,.23,.77,.27,.89,.32,.84,.93,1.73,1.63,2.33-.32,.37-.69,.72-1.05,1.02Z" fill="#384b7f"/>
      <rect x="12.62" y="1.26" width="3.71" height="10" transform="translate(8.67 -8.4) rotate(45)" fill="#384b7f"/>
      <rect x="13" y="2.28" width="2.95" height="7.96" transform="translate(8.67 -8.4) rotate(45)" fill="#3d69b7"/>
      <path d="M3.26,19.29c.2-.97-.1-2.08-.84-2.9l.13-.13,1.87,1.86-1.16,1.16Z" fill="#173872"/>
      <polygon points=".12 18.7 .06 18.82 0 18.81 .12 18.7" fill="#938787"/>
      <path d="M3.26,19.29l-.12,.12L.06,18.82l.05-.13,2.3-2.3c.75,.82,1.04,1.93,.84,2.9Z" fill="#3d69b7"/>
    </g>
  </g>
</svg>