<?xml version="1.0" encoding="UTF-8"?>
<svg id="_Шар_2" data-name="Шар 2" xmlns="http://www.w3.org/2000/svg" viewBox="0 0 23.88 20.36">
  <g id="Axt">
    <g>
      <path d="M16.47,3.27c-.13-.33-.36-.79-.73-1.11-.39-.44-1.01-.73-1.97-.24-.71,.35-1.11,.33-1.33,.15-.27-.3-.25-.83-.22-1.12,0-.04,.02-.08,.02-.11,.39-.48,.77-.85,.77-.85,0,0-.57,2.21,1.52,1.17s2.55,1.46,2.55,1.46l-.61,.64Z" fill="#bee5d5"/>
      <path d="M13.47,6.4c.04-.37,.28-2.87-1.28-3.43-1.04-.38-.47-1.44,.13-2.2-.07,.38-.25,1.94,1.52,1.09,2.02-.97,2.53,1.49,2.53,1.49l-2.9,3.05Z" fill="#77968a"/>
      <path d="M18.99,12.67c-2.01,1.96-4.03,3.31-5.67,4.21-.01,0-.03,0-.03,.01-.1,.05-.21,.09-.31,.14,.75-1.01,1.51-2.02,2.26-3.02,.66-.21,1.32-.62,1.9-1.19,1.44-1.44,1.8-3.41,.82-4.39-.72-.72-1.98-.72-3.17-.1-.02-.21-.03-.43-.05-.65h.01c.73-.79,1.52-1.59,2.33-2.39,.36,.47,.76,.85,1.12,1.17l.39,.39c1.11,1.07,2.25,1.87,3.28,2.49-.73,.99-1.68,2.15-2.89,3.33Z" fill="#4f7767"/>
      <path d="M14.74,7.68h.01s-.01,.01-.01,.01h0Z" fill="#9aaab2"/>
      <path d="M7.46,15.33c-.16,.15-.34,.3-.52,.46-.42-.33-1.32-.52-1.9-.87,.13-.11,.26-.23,.39-.34,.46-.41,.9-.83,1.34-1.24-.07,.28-.1,.61,.01,.99,.11,.37,.37,.75,.67,1.02Z" fill="#9b8b5d"/>
      <path d="M5.01,17.44c-.35,.29-.71,.59-1.09,.9-.58-.31-1.21-.63-1.66-.98,.53-.44,1.06-.9,1.59-1.38-.01,.45-.06,.96,.28,1.25,.21,.18,.53,.25,.89,.22Z" fill="#b6ad90"/>
      <path d="M9.36,13.6c.23-1.04,.59-2.26,1.62-3.13,.57-.5,1.22-.75,1.78-.89,.03,.07,.04,.13,.07,.19-.57,.86-1.61,2.07-3.47,3.83Z" fill="#9b8b5d"/>
      <path d="M19.28,3.24c-.18,.16-.37,.33-.55,.51-.52,.46-1.03,.94-1.55,1.44l-.1,.1c-.13-.14-.25-.28-.38-.44-.14-.17-.28-.36-.43-.55-.31-.4-.59-.8-.84-1.18,.48-.52,1.09-1.09,1.87-1.65h0s.07-.06,.12-.08l.26,.26c-.04,.28,0,.59,.14,.86,.17,.32,.47,.56,.82,.67,.19,.06,.41,.08,.62,.05Z" fill="#acccc0"/>
      <path d="M12.85,9.82s0-.04-.02-.05c-.04-.15-.14-.38-.37-.57-.46-.37-1.05-.25-1.22-.19-.02,0-.04,0-.04,.01,.45-.55,1.12-1.42,1.87-2.53,.12-.18,.23-.34,.32-.49,.29,.05,.54,.16,.72,.33,.13,.11,.49,.48,.51,1.37,.05,0,.09-.01,.13-.03h0c-.67,.73-1.29,1.44-1.89,2.14Z" fill="#acccc0"/>
      <path d="M14.76,7.68h-.01s0,0,0,0h.01Z" fill="#b1bfc4"/>
      <path d="M13.32,16.88c1.65-.91,3.66-2.25,5.67-4.21,1.21-1.18,2.16-2.33,2.89-3.33-1.04-.62-2.17-1.42-3.28-2.49l-.39-.39c-.37-.32-.76-.7-1.12-1.17l.1-.1c.51-.5,1.02-.99,1.53-1.46,.52,.7,1.13,1.43,1.89,2.14,1.11,1.07,2.25,1.87,3.28,2.49-.73,.99-1.68,2.15-2.89,3.33-2.93,2.85-5.86,4.4-7.68,5.19Z" fill="#77968a"/>
      <path d="M14.76,7.68h-.01s-.08,.02-.13,.03c-.01-.9-.38-1.26-.51-1.37-.18-.16-.43-.28-.72-.33,.57-.85,.81-1.28,1.2-1.83,.23-.32,.51-.67,.85-1.05,.25,.38,.52,.78,.84,1.18,.14,.19,.28,.37,.43,.55,.13,.16,.25,.3,.38,.44-.81,.8-1.6,1.6-2.32,2.38Z" fill="#98afa7"/>
      <path d="M9.36,13.6c-.55,.52-1.18,1.11-1.9,1.73-.31-.26-.56-.65-.67-1.02-.12-.37-.08-.71-.01-.99,1.54-1.42,2.99-2.84,4.38-4.24l.08-.08c.15-.04,.58-.13,.99,.05,.08,.04,.16,.08,.23,.14,.15,.12,.25,.26,.31,.38-.57,.13-1.21,.39-1.78,.89-1.03,.87-1.39,2.09-1.62,3.13Z" fill="#b6ad90"/>
      <path d="M6.95,15.78c-.59,.52-1.25,1.07-1.94,1.66-.36,.03-.68-.04-.89-.22-.34-.29-.29-.8-.28-1.25,.4-.34,.81-.7,1.2-1.07,.58,.36,1.49,.55,1.9,.87Z" fill="#b6ad90"/>
      <path d="M3.92,18.34c-.75,.61-1.55,1.26-2.41,1.95,.13-.87,.27-1.75,.4-2.62,.11-.1,.23-.2,.35-.31,.46,.35,1.08,.66,1.66,.98Z" fill="#9b8b5d"/>
      <path d="M8.72,14.36l-.97-1.96c.29-.28,.59-.54,.88-.82,.36,.57,.72,1.13,1.08,1.69-.29,.35-.62,.71-.99,1.08Z" fill="#8c400c"/>
      <path d="M8.72,14.36c-.23,.25-.49,.49-.75,.72l-.87-2.07c.22-.2,.44-.41,.66-.61l.97,1.96Z" fill="#5b2806"/>
      <path d="M7.19,15.74c-.35,.28-.68,.53-1.02,.75l-.87-1.81c.34-.31,.68-.62,1.01-.93l.88,2Z" fill="#5b2806"/>
      <path d="M6.17,16.49c-.08,.07-.17,.13-.25,.18-.37-.51-.75-1.01-1.13-1.52,.17-.16,.34-.31,.51-.48l.87,1.81Z" fill="#8c400c"/>
      <path d="M7.96,15.08c-.14,.13-.29,.26-.45,.39-.11,.1-.22,.18-.33,.27l-.88-2c.26-.25,.52-.48,.78-.72l.87,2.07Z" fill="#8c400c"/>
      <circle cx="1.47" cy="18.89" r="1.47" fill="#4f7767"/>
      <g>
        <circle cx="1.47" cy="18.89" r=".96" fill="#bee5d5"/>
        <path d="M2.16,19.57c.83-.88-.45-2.1-1.28-1.28-.82,.82,.39,2.11,1.28,1.28h0Zm0,0c-.94,.94-2.4-.45-1.45-1.45,1-.95,2.39,.51,1.45,1.45h0Z" fill="#d9fffe"/>
      </g>
    </g>
  </g>
</svg>