<?xml version="1.0" encoding="UTF-8"?>
<svg id="_Шар_2" data-name="Шар 2" xmlns="http://www.w3.org/2000/svg" viewBox="0 0 23.21 18.82">
  <g id="Axt">
    <g>
      <rect x="13.18" y="1.93" width="2.86" height="4.61" transform="translate(7.27 -9.09) rotate(45)" fill="#faa307"/>
      <rect x="9.75" y="4.96" width="2.1" height="6.17" transform="translate(8.85 -5.28) rotate(45)" fill="#1c1b19"/>
      <rect x="1.64" y="12.49" width="7.34" height="2.09" transform="translate(-8.01 7.72) rotate(-45)" fill="#1c1b19"/>
      <rect x="6.78" y="10.08" width="2.96" height="1.01" transform="translate(9.9 -2.74) rotate(45)" fill="#faa307"/>
      <polygon points="18.46 3.23 15.64 3.23 15.64 .41 16.41 .41 16.41 2.46 18.46 2.46 18.46 3.23" fill="#f48c06"/>
      <rect x="16.41" y=".41" width="2.05" height="2.05" fill="#ffba08"/>
      <rect x="16.41" y=".41" width="2.05" height="2.05" fill="#ffba08"/>
      <path d="M17.05,4.11l-.12-.12-2.39,2.39,1.81,1.81c.71-1.77,.74-3.35,.71-4.08Z" fill="#e85d04"/>
      <path d="M15.33,14.71l-.62-1.35,.98,.94c.26-.28,.5-.57,.74-.86,.15-.18,.29-.37,.43-.55,.25-.33,.48-.64,.7-.96l-.89-1.12,1.22,.64c.23-.36,.45-.71,.64-1.06,.13-.22,.26-.44,.37-.65,.06-.11,.12-.22,.18-.33l-.19-.19,.34-1.27,.62-.17-.83-.75,1.15,.05c.07-.15,.12-.29,.18-.44-1.22-.9-2.32-1.83-3.31-2.74,0,.06,0,.13,0,.22,.03,.73,0,2.31-.71,4.08-.29,.77-.72,1.59-1.33,2.39-.84,1.1-1.76,1.85-2.47,2.33,.16,.47,.5,1.21,1.18,1.89,.28,.28,.57,.5,.84,.69,.27-.26,.53-.53,.77-.79Z" fill="#ffba08"/>
      <path d="M20.28,11.76c-1.6,1.65-3.18,3.06-4.64,4.25-.28-.09-.67-.25-1.08-.52,2.05-1.97,3.51-4.18,4.52-6.1l.75,.75,1.27-.34,.35-1.28-.94-.94-.64,.17c.19-.4,.34-.79,.47-1.14,.36,.27,.74,.53,1.12,.8,.58,.4,1.16,.77,1.74,1.12-.88,1.03-1.84,2.12-2.93,3.22Z" fill="#e85d04"/>
      <path d="M13.81,3.23h0s1.24-1.25,1.24-1.25c-.28-.62-.56-1.25-.84-1.87v-.11s-3.22,.42-3.22,.42l-.42,3.23c.62,.32,1.24,.63,1.86,.95l1.37-1.37h0Z" fill="#ffba08"/>
      <path d="M13.87,3.29h0s.93-.94,.93-.94c-.24-.49-.47-.99-.71-1.48v-.09s-2.5,.23-2.5,.23l-.23,2.51c.49,.27,.99,.53,1.48,.8l1.03-1.03h0Z" fill="#e85d04"/>
      <path d="M15.33,14.71l-.62-1.35,.98,.94c-.11,.14-.24,.27-.36,.41Z" fill="#e85d04"/>
      <path d="M17.56,11.92l-.89-1.12,1.22,.64c-.11,.16-.21,.32-.33,.48Z" fill="#e85d04"/>
      <path d="M19.87,7.76h-.02s-.83-.74-.83-.74l1.15,.05c-.09,.22-.19,.46-.29,.7Z" fill="#e85d04"/>
      <path d="M18.53,10.38l-.97-.97,1.34,.32c-.12,.21-.24,.43-.37,.65Z" fill="#e85d04"/>
      <path d="M16.43,13.44l-.75-1.2,1.18,.65c-.13,.18-.28,.37-.43,.55Z" fill="#e85d04"/>
      <rect x="6.49" y="10.97" width=".67" height="2.09" transform="translate(-6.5 8.35) rotate(-45)" fill="#8c400c"/>
      <rect x="5.72" y="11.75" width=".67" height="2.09" transform="translate(-7.27 8.03) rotate(-45)" fill="#8c400c"/>
      <rect x="4.94" y="12.52" width=".67" height="2.09" transform="translate(-8.05 7.7) rotate(-45)" fill="#8c400c"/>
      <rect x="4.17" y="13.3" width=".67" height="2.09" transform="translate(-8.82 7.38) rotate(-45)" fill="#8c400c"/>
      <polygon points="2.85 15.99 1.79 17.05 .38 15.65 .39 15.61 2.18 15.29 2.85 15.99" fill="#bfa006"/>
      <polygon points="1.79 17.05 .72 18.12 0 17.38 .38 15.65 1.79 17.05" fill="#ddc514"/>
      <polygon points="3.19 18.5 1.4 18.82 .72 18.12 1.79 17.05 3.2 18.47 3.19 18.5" fill="#dba716"/>
      <polygon points="3.2 18.47 1.79 17.05 2.85 15.99 3.57 16.73 3.2 18.47" fill="#d88619"/>
    </g>
  </g>
</svg>