<?xml version="1.0" encoding="UTF-8"?>
<svg id="_Шар_2" data-name="Шар 2" xmlns="http://www.w3.org/2000/svg" viewBox="0 0 23.16 18.8">
  <g id="Axt">
    <g>
      <circle cx="13.23" cy="11.54" r="2.32" fill="#8adbd5"/>
      <polygon points="1.64 15.89 3.44 15.36 3.44 15.36 2.94 17.19 1.64 15.89" fill="#18513b"/>
      <path d="M1.64,15.89h-.05S0,18.8,0,18.8c.35-1.16,.71-2.32,1.06-3.48l.57,.57Z" fill="#3e9b7a"/>
      <path d="M1.09,15.24c.69-.06,1.37-.11,2.06-.17l.29,.29-1.8,.54-.57-.57s.02-.06,.02-.08Z" fill="#2b8764"/>
      <polygon points="3.44 15.36 3.86 15.78 3.53 17.76 2.94 17.19 3.44 15.36" fill="#113f2d"/>
      <path d="M0,18.8l2.94-1.62,.58,.58c-1.17,.35-2.35,.69-3.52,1.04Z" fill="#1b5943"/>
      <polygon points="1.59 15.9 1.64 15.89 2.94 17.18 0 18.8 1.59 15.9" fill="#29b69b"/>
      <polyline points="3.29 15.51 3.14 15.66 3.09 15.71" fill="none"/>
      <path d="M3.67,16.79l-1.65-1.65L11.87,5.29l1.65,1.65c-2.13,1.43-4.65,3.44-7.07,6.21-1.09,1.25-2.01,2.48-2.78,3.63Z" fill="#33251b"/>
      <path d="M23.14,6.86s0-.06,0-.08c-.85-.31-1.75-.67-2.46-1.72-.32-.47-.58-1.02-.74-1.59-.79,1.23-1.61,2.07-2.28,2.63-2.3,1.93-3.78,1.64-6.67,4.21-1.83,1.63-2.44,2.82-2.7,3.92-.26,1.13-.14,2.12,0,2.76,.12-.84,.43-2.02,1.35-2.58,1.45-.85,2.91,.77,5.58,.58,2.66-.18,4.52-2.03,5.17-2.68,.76-.74,2.57-2.54,2.75-5.45Zm-11.14,5.9c-.67-.67-.67-1.77,0-2.44s1.76-.67,2.43,0,.68,1.77,0,2.44-1.77,.67-2.45,0Z" fill="#c4e8e7"/>
      <path d="M12.91,7.56c.25-.08,1.3-.42,2.43,.1,1.1,.51,1.74,1.58,1.85,2.6,.15,1.51-.86,3.04-2.51,3.64,.53-.04,3.48-.28,5.54-2.79,1.42-1.74,1.65-3.62,1.7-4.35-2,1.66-4.46,1.34-5.31,.12-.83-1.19,.02-2.99,.07-3.09l-3.77,3.77Z" fill="#edf2f2"/>
      <path d="M10.07,4.42c1.13-1.45,3-1.5,3.75-.76,.74,.74,.7,2.62-.76,3.75l3.62-3.62c.24-1.08-.17-2.16-1-2.71-.86-.57-1.82-.33-1.99-.28-.4,.05-1.29,.21-2.13,.9-1.23,1-1.45,2.39-1.49,2.72Z" fill="#8adbd5"/>
      <path d="M17.16,0c-.18,.48-.06,1.02,.31,1.37,.35,.34,.88,.45,1.34,.27-.27,.64-.61,1.31-1.05,2-1.87,2.91-4.49,4.42-6.11,5.17-1.48,.38-2.95,.76-4.43,1.14,.71-1.48,1.81-3.15,3.58-4.46,.83-.61,1.32-.78,2.27-1.42,1.24-.84,2.71-2.1,4.09-4.07Z" fill="#edf2f2"/>
      <path d="M15.96,1.74c-.13,.34-.04,.72,.22,.97,.25,.24,.62,.31,.94,.19-.19,.45-.43,.92-.74,1.41-1.32,2.05-3.16,3.11-4.3,3.64-1.04,.27-2.08,.53-3.12,.8,.5-1.04,1.27-2.22,2.52-3.14,.59-.43,.93-.55,1.6-1,.88-.59,1.91-1.48,2.88-2.87Z" fill="#afe2df"/>
      <path d="M23.15,6.78c-.85-.31-1.75-.67-2.46-1.72-.32-.47-.58-1.02-.74-1.59,.43-.65,.84-1.4,1.22-2.29,.41,.47,2.14,2.58,1.99,5.6Z" fill="#8adbd5"/>
      <circle cx="19.03" cy="9.75" r="1.36" fill="#8adbd5"/>
      <path d="M2.02,15.14l1.65,1.65c.33-.51,.7-1.04,1.1-1.58,.65-.87,1.29-1.65,1.92-2.34-.5,.17-1.16,.47-1.77,1.02-.82,.74-1.12,1.54-1.48,1.47-.17-.03-.37-.27-.49-1.15l-.93,.93Z" fill="#afe2df"/>
      <polygon points="20.54 5.6 20.29 6.08 20.67 6.45 20.15 6.37 19.91 6.84 19.82 6.32 19.3 6.23 19.77 5.99 19.69 5.47 20.06 5.85 20.54 5.6" fill="#fff"/>
      <polygon points="10.75 12.7 10.57 13.06 10.85 13.34 10.46 13.28 10.28 13.64 10.21 13.24 9.82 13.18 10.18 13 10.11 12.6 10.4 12.89 10.75 12.7" fill="#fff"/>
      <polygon points="13.71 1.65 13.52 2.04 13.82 2.35 13.4 2.28 13.2 2.66 13.13 2.24 12.7 2.17 13.09 1.97 13.02 1.54 13.33 1.85 13.71 1.65" fill="#fff"/>
      <polygon points="17.26 1.39 17.1 1.72 17.36 1.98 16.99 1.92 16.82 2.25 16.77 1.89 16.4 1.83 16.73 1.66 16.67 1.3 16.93 1.56 17.26 1.39" fill="#fff"/>
      <rect x="6.3" y="10.94" width="1.64" height=".54" transform="translate(10.01 -1.76) rotate(45)" fill="#5b2806"/>
      <rect x="5.57" y="11.67" width="1.64" height=".54" transform="translate(10.31 -1.02) rotate(45)" fill="#5b2806"/>
    </g>
  </g>
</svg>