<?xml version="1.0" encoding="UTF-8"?>
<svg id="_Шар_2" data-name="Шар 2" xmlns="http://www.w3.org/2000/svg" viewBox="0 0 23.98 23.86">
  <g id="_2hand_axt" data-name="2hand axt">
    <g>
      <path d="M15.3,12.23c-.16-.04-.36-.07-.57-.07h-.01c-.24,0-.5,.05-.77,.17-.04,.02-.07,.04-.1,.06-.5,.27-.75,.72-.84,.93-.01,.01-.01,.02-.02,.03,.04,.08,.41,.97,.24,2.02-.09-.18-.2-.33-.36-.46-.25-.2-.52-.25-.66-.28-.86-.16-1.47,.37-1.79,.45-.07,.02-.12,.01-.16-.02-.11-.09-.12-.42,0-.83,.07-.24,.18-.51,.33-.79h0c.03-.06,.06-.11,.1-.16,.25-.41,.61-.8,1.08-1.09,.05-.04,.09-.06,.14-.09,.01,0,.01-.01,.02-.01,.41-.23,.92-.38,1.45-.41,.66-.04,1.34,.11,1.91,.55Z" fill="#8dc4c0"/>
      <path d="M23.98,13.19c.08,3.77-4.3,6.61-5.4,7.31-.07,.04-.12,.08-.19,.12-.21,.14-.52,.31-.82,.48-1.23,.68-2.5,1.19-3.72,1.55-2.98,.92-5.53,.99-5.71,.5-.01-.03-.01-.07-.01-.09,1.08-.58,1.98-1.19,2.73-1.8,.25-.02,.52-.05,.81-.1,.01,.01,.02,.01,.03,0,.6-.09,1.29-.23,2.02-.42,1.47-.41,3.1-1.06,4.56-2,.29-.19,.84-.54,1.46-1.03,.22-.17,.45-.36,.67-.58,.11-.08,.21-.18,.31-.28,1.17-1.13,2.26-2.66,2.22-4.43-.03-1.5-.84-2.76-.84-2.76-.83-1.29-2.21-2.13-3.77-2.41-.2-.04-.4-.06-.6-.08,.01-.03,.01-.06,.02-.08,2.15,.11,4.12,1.17,5.24,2.91,0,0,.95,1.45,.99,3.19Z" fill="#ffe471"/>
      <path d="M17.73,7.17c-.29-.04-.59-.04-.9-.02l.06-.06c.29-.02,.57-.02,.86,0,0,.02,0,.05-.02,.08Z" fill="#e85d04"/>
      <path d="M22.94,12.42c.04,1.77-1.05,3.3-2.22,4.43-.1,.1-.2,.2-.31,.28-.22,.22-.45,.41-.67,.58-.62,.49-1.17,.84-1.46,1.03-1.46,.94-3.09,1.59-4.56,2-.73,.19-1.42,.33-2.02,.42-.01,.01-.02,.01-.03,0-.29,.05-.56,.08-.81,.1-.91,.06-1.5-.02-1.58-.24-.01-.03-.01-.06-.01-.09,1.59-.86,2.73-1.77,3.56-2.68t.02-.02h.01c.22-.05,.46-.09,.71-.15h.01c.23-.05,.49-.11,.73-.19,.25-.06,.51-.14,.77-.22,.24-.07,.47-.16,.71-.26,.73-.28,1.47-.65,2.15-1.09,.43-.27,1.56-1.01,2.46-2.06,.07-.08,.14-.16,.2-.25,.06-.08,.13-.15,.18-.24,.07-.09,.13-.18,.19-.28,.01-.02,.02-.04,.03-.05,.1-.17,.19-.35,.27-.52,.04-.08,.07-.15,.09-.22,.02-.05,.04-.11,.06-.17,.01-.04,.02-.07,.03-.11,.03-.05,.05-.11,.06-.16,.03-.12,.05-.24,.07-.36,0-.03,.01-.05,.01-.08,.03-.16,.04-.32,.03-.48,0-.24-.04-.48-.08-.7,0-.05,0-.1-.03-.14-.19-.78-.56-1.34-.56-1.34-.3-.47-.7-.87-1.16-1.18-.08-.05-.16-.1-.24-.16-.03,0-.05-.02-.07-.02-.09-.06-.18-.11-.29-.16-.36-.18-.75-.3-1.16-.37-.1-.03-.21-.04-.31-.05,0-.02,.01-.04,.01-.05,.2,.02,.4,.04,.6,.08,1.56,.28,2.94,1.12,3.77,2.41,0,0,.81,1.26,.84,2.76Z" fill="#c4e8e7"/>
      <path d="M17.72,7.22c-.3-.04-.62-.05-.93-.03l.04-.04c.3-.02,.61-.01,.9,.02,0,.01,0,.04,0,.05Z" fill="#e85d04"/>
      <path d="M21.45,12.42s-.02,.07-.03,.11c-.42,1.59-1.63,3.11-3.36,3.9-1.37,.86-2.88,1.37-4.45,1.68h0c-.26,.06-.51,.1-.73,.13h-.01s-.04,.01-.04,.01c-1.17,.12-2,.1-2.04-.24,.3-.07,1.25-.36,1.91-1.28,.31-.45,.47-.91,.53-1.36,.17-1.05-.2-1.94-.24-2.02,.01-.01,.01-.02,.02-.03,.08-.19,.31-.59,.74-.86,0,0,0,0,.01,0,.03-.02,.06-.04,.09-.06,.03-.02,.06-.04,.1-.06,.27-.12,.53-.17,.77-.17h.01c.21,0,.41,.03,.57,.07,.2,.05,.36,.11,.46,.15,.32,.13,.56,.3,.72,.42-.39-1.1-.57-1.73-.59-2.2t0-.01c0-.08,0-.15,.01-.22v-.02c.07-.78,.7-1.17,1.59-3.15,.01-.02,.02-.03,.03-.05,0-.02,.01-.04,.02-.06,.01-.01,.01-.03,.02-.04,.06,.01,.12,.02,.17,.04h.02c.2,.05,.4,.1,.58,.16,1.92,.61,2.92,1.85,3.18,3.25,.02,.04,.03,.09,.03,.14,.09,.58,.06,1.18-.09,1.78Z" fill="#edf2f2"/>
      <path d="M12.35,10.53c0,.53-.14,1.03-.36,1.45-.01,.04-.03,.07-.05,.11,0,.01-.01,.01-.01,.02-.33,.6-.83,1.03-1.33,1.32h0s-.07,.04-.11,.06c-.26,.14-.51,.24-.74,.3-.38,.1-.68,.09-.77-.02-.06-.07-.02-.18,.05-.33h0c.17-.36,.51-.91,.38-1.62-.02-.14-.08-.41-.28-.66-.13-.16-.28-.27-.46-.36,.9-.15,1.69,.11,1.94,.2,.04,.02,.07,.03,.08,.04,.21-.09,.74-.37,1.02-.96,.23-.5,.19-.99,.1-1.35,.42,.54,.57,1.18,.55,1.8Z" fill="#8dc4c0"/>
      <path d="M16.98,6.47s-.06,.02-.08,.04c-.03,.01-.05,.02-.07,.03-.01,0-.03,.01-.04,.02-3.18,1.44-2.21,2.17-5.56,.99,.13,.16,.3,.4,.42,.72,.05,.1,.1,.26,.15,.46,.09,.36,.13,.85-.1,1.35-.28,.59-.81,.87-1.02,.96-.01-.01-.04-.02-.08-.04-.25-.09-1.04-.35-1.94-.2-.44,.06-.91,.22-1.36,.54-.92,.65-1.21,1.6-1.28,1.91-.34-.05-.36-.9-.24-2.09h0c.04-.23,.07-.47,.12-.74h.01c.07-.36,.15-.71,.25-1.06,.31-1.19,.77-2.33,1.43-3.38,.63-1.37,1.71-2.41,2.93-2.99,.02,0,.03-.02,.04-.03,.03-.02,.05-.03,.08-.04,1.07-.5,2.24-.63,3.29-.3,1.15,.34,2.15,1.22,2.73,2.75,0,0,.01,0,0,.02,.08,.2,.14,.41,.2,.63,.02,.07,.04,.14,.05,.21,.03,.08,.04,.16,.06,.24Z" fill="#edf2f2"/>
      <path d="M9.41,14.61c-.11,.08-.24,.2-.37,.33l.35-.35,.02,.02Z" fill="#e85d04"/>
      <path d="M23.09,4.72s-.4,1.1-2.14,1c-1.46-.09-.86,.71-.6,1.01-.35-.29-1.53-1.24-1.45-.43,0,0-1.35-.28-1.15,.52,.02,.07,.02,.16,0,.27-.01,.02-.01,.05-.02,.08,0,.01-.01,.03-.01,.05-.08-.01-.15-.02-.23-.02-.23-.02-.46-.02-.7-.01l.04-.04,.06-.06,1.4-1.4c.15,0,.31,0,.47,.01v-.06c.02-.06,.02-.1,0-.13-.1-.39,.57-.26,.57-.26-.04-.4,.55,.07,.72,.22-.12-.15-.43-.55,.3-.51,.86,.06,1.06-.49,1.06-.49-.06,0-.56-.01-.75-.34-.17-.31,.41-1.16,.53-1.34l.03-.04,1.48-1.48h.02s-1.52,2.06-1.14,2.76c.39,.72,1.51,.69,1.51,.69Z" fill="#c5d8d7"/>
      <path d="M16.51,12.83s-.02-.02-.08-.05c-.02-.02-.05-.04-.08-.06-.08-.06-.21-.13-.35-.2-.04-.03-.09-.05-.14-.07-.08-.04-.16-.07-.24-.1-.17-.07-.36-.13-.56-.16-.11-.02-.22-.04-.33-.04-.05,0-.11,0-.17,0-.1,0-.21,.02-.3,.05-.1,.03-.19,.06-.29,.12-.07,.03-.13,.07-.19,.12-1.07,.85-1.03,1.8-1.03,1.8,0,0-.39-.62-1.1-.51,2.38-2.68,3.8-4.62,3.51-4.91l1.65-1.65c.32-.02,.63,0,.93,.03-.3,1.07-2,3.17-1.86,3.32,.16,.16,.64,2.3,.64,2.3Z" fill="#96d6d3"/>
      <path d="M16.89,6.23s-.05,0-.08,.02c-.02-.25-.06-.48-.11-.72,0-.05-.01-.1-.03-.14,.01-.01,0-.02,0-.02-.01-.06-.03-.11-.04-.16-.04-.17-.09-.33-.14-.5-.05-.15-.11-.29-.17-.43-.01-.03-.02-.05-.04-.08-.04-.09-.08-.18-.13-.26-.05-.11-.11-.22-.17-.32-.05-.07-.08-.14-.13-.2-.09-.14-.18-.28-.29-.4-.12-.17-.26-.31-.4-.46-.26-.26-.53-.48-.84-.68,0,0-1.15-.75-2.57-.83-.06-.01-.13-.01-.19-.01-.15,0-.3,0-.44,.02-.91,.06-1.75,.42-2.5,.93-.13,.09-.27,.19-.41,.3-.37,.28-.71,.59-1.02,.91l-.08,.08c-.1,.1-.18,.2-.28,.3s-.18,.2-.27,.31c-.07,.1-.14,.18-.21,.26-.4,.49-.71,.95-.93,1.27-.07,.11-.13,.2-.18,.28,0,0,0,.01-.01,.01-.03,.06-.07,.11-.1,.17-.06,.09-.12,.19-.17,.29-.58,.97-1.04,2.01-1.38,3.01-.12,.33-.22,.66-.31,.98-.01,.02-.01,.03-.01,.05-.05,.15-.08,.28-.12,.43-.06,.23-.11,.47-.16,.68-.01,.04-.01,.06-.01,.09-.03,.11-.05,.21-.07,.32-.02,.08-.03,.15-.04,.24-.03,.14-.05,.27-.06,.4-.04,.26-.07,.52-.08,.74-.62,.76-1.22,1.66-1.8,2.73-.03,0-.06,.01-.09,0-.49-.18-.42-2.75,.49-5.73,.48-1.55,1.19-3.2,2.15-4.71,.05-.07,.1-.15,.15-.23,0-.02,.01-.03,.02-.03l.02-.02C4.58,3.7,7.29-.08,10.79,0c1.74,.04,3.19,.99,3.19,.99,1.67,1.08,2.73,2.96,2.89,5.03,.01,.07,.02,.14,.02,.21Z" fill="#ffe471"/>
      <path d="M16.89,7.09l-.06,.06c.01-.21,.01-.42,0-.64,0-.09,0-.18-.02-.26,.03-.01,.06-.01,.08-.02,.02,.29,.02,.57,0,.86Z" fill="#e85d04"/>
      <path d="M16.81,6.25s-.03,0-.05,0c-.17-1.32-.85-2.52-1.94-3.23,0,0-.35-.22-.88-.4-.36-.14-.82-.25-1.3-.26-.72-.02-1.4,.21-1.99,.56-.04,.02-.08,.05-.12,.07-1.49,.91-2.52,2.53-2.87,3.05-.58,.89-1.02,1.86-1.33,2.8-.06,.17-.12,.35-.16,.52-.11,.36-.2,.7-.27,1.04h-.01c-.05,.26-.1,.5-.13,.72h-.01c-.92,.84-1.84,1.99-2.71,3.59-.03,0-.05,0-.08-.01-.22-.08-.31-.67-.24-1.59,.01-.22,.04-.48,.08-.74,.01-.13,.03-.26,.06-.4,.01-.09,.02-.16,.04-.24,.02-.11,.04-.21,.07-.32,0-.03,0-.05,.01-.09,.05-.21,.1-.45,.16-.68,.04-.15,.07-.28,.12-.43,0-.02,0-.03,.01-.05,.09-.32,.19-.65,.31-.98,.34-1,.8-2.04,1.38-3.01,.05-.1,.11-.2,.17-.29,.03-.06,.07-.11,.1-.17,.01,0,.01-.01,.01-.01,.05-.08,.11-.17,.18-.28,.22-.32,.53-.78,.93-1.27,.07-.08,.14-.16,.21-.26,.09-.11,.17-.21,.27-.31s.18-.2,.28-.3l.08-.08c.31-.32,.65-.63,1.02-.91,.14-.11,.28-.21,.41-.3,.75-.51,1.59-.87,2.5-.93,.14-.02,.29-.02,.44-.02,.06,0,.13,0,.19,.01,1.42,.08,2.57,.83,2.57,.83,.31,.2,.58,.42,.84,.68,.14,.15,.28,.29,.4,.46,.11,.12,.2,.26,.29,.4,.05,.06,.08,.13,.13,.2,.06,.1,.12,.21,.17,.32,.05,.08,.09,.17,.13,.26,.02,.03,.03,.05,.04,.08,.06,.14,.12,.28,.17,.43,.05,.17,.1,.33,.14,.5,.01,.05,.03,.1,.04,.16,0,0,.01,0,0,.02,.02,.04,.03,.09,.03,.14,.05,.24,.09,.47,.11,.72Z" fill="#c4e8e7"/>
      <path d="M16.83,7.15l-.04,.04c.02-.32,0-.63-.03-.93,.01,0,.04,0,.05,0,.01,.08,.01,.17,.02,.26,.01,.21,.01,.42,0,.64Z" fill="#e85d04"/>
      <path d="M16.79,7.19l-1.65,1.65c-.29-.29-2.23,1.12-4.91,3.51,.11-.71-.51-1.1-.51-1.1,0,0,.95,.05,1.8-1.03,.3-.39,.34-.85,.25-1.29-.14-.78-.64-1.46-.64-1.46,0,0,2.14,.48,2.3,.64,.14,.14,2.25-1.56,3.32-1.86,.04,.3,.05,.62,.03,.93Z" fill="#c4e8e7"/>
      <path d="M22.7,1.27l-1.48,1.48s-1.02,.76-1.37,.57c-.33-.19-.34-.69-.34-.75,0,0-.55,.2-.49,1.06,.04,.75-.39,.4-.51,.3,.15,.17,.62,.76,.22,.71,0,0,.13,.67-.26,.58-.03-.02-.08-.02-.13,0h-.04s-.02,.01-.03,0c.02,.16,.03,.31,.02,.47l-1.4,1.4-.06,.06-.04,.04c.01-.21,.01-.42,0-.63,0-.1,0-.2-.03-.31,.02,0,.04,0,.05,0,.03-.02,.06-.02,.08-.02h.03c.09-.02,.18-.02,.24,0,.8,.2,.51-1.16,.51-1.16,.82,.09-.13-1.1-.42-1.44,.27,.23,1.1,.89,1.01-.6-.11-1.75,1-2.14,1-2.14,0,0-.03,1.12,.68,1.5,.67,.37,2.55-.97,2.76-1.12Z" fill="#edf2f2"/>
      <path d="M19.33,5.25s-.67-.13-.57,.26c.01,.03,.01,.07,0,.13,0,.01,0,.03,0,.04,0,.01,0,.02,0,.03-.16-.01-.31-.03-.47-.01l2.93-2.93s-.76,1.03-.57,1.37c.2,.35,.75,.34,.75,.34,0,0-.2,.55-1.06,.49-.82-.04-.33,.47-.25,.54-.09-.08-.81-.69-.76-.25Z" fill="#e1f4f3"/>
      <path d="M21.22,2.76l-2.93,2.93c.01-.16,0-.31-.01-.47,0,0,.01,0,.03,0,0,0,.02,0,.04,0,.06-.01,.1-.01,.13,0,.4,.1,.26-.57,.26-.57,.45,.05-.17-.66-.25-.76,.07,.07,.58,.57,.54-.25-.06-.86,.49-1.06,.49-1.06,0,0-.01,.55,.34,.75,.35,.19,1.37-.57,1.37-.57Z" fill="#f9f9f9"/>
      <path d="M9.39,14.59l-.35,.35c.13-.13,.25-.26,.33-.37l.02,.02Z" fill="#e85d04"/>
      <path d="M15.14,8.84l-5.75,5.75-.02-.02c.68-.85,.23-1.15,.23-1.15,.41-.41,.59-.77,.63-1.07,2.68-2.38,4.62-3.8,4.91-3.51Z" fill="#edf2f2"/>
      <path d="M11.63,13.74c-.3,.04-.66,.22-1.07,.63,0,0-.3-.45-1.15,.23l-.02-.02,5.75-5.75c.29,.29-1.12,2.23-3.51,4.91Z" fill="#daedec"/>
      <path d="M11.63,13.74c-.37,.43-.77,.88-1.21,1.34-.16,.18-.33,.36-.5,.54-.07-.36-.24-.72-.51-1.01,.39-.32,.67-.39,.85-.38,.22,.01,.31,.14,.31,.14,.41-.41,.77-.58,1.06-.63Z" fill="#76b5af"/>
      <path d="M9.74,13.79c-.01,.18-.1,.43-.37,.77-.27-.28-.61-.46-.96-.56,.21-.19,.41-.38,.61-.56h0c.42-.39,.82-.76,1.21-1.1-.04,.3-.21,.66-.62,1.07,0,0,.16,.11,.13,.38Z" fill="#8adbd5"/>
      <path d="M9.04,14.94c.13-.13,.25-.26,.33-.37l.04,.04c-.11,.08-.24,.2-.37,.33Z" fill="#e85d04"/>
      <path d="M17.15,23.33c-.11,.33-2.56,.37-3.3-.68,1.22-.36,2.49-.87,3.72-1.55-.6,.36-1.18,.79-1.14,1.27,.05,.53,.79,.76,.72,.96Z" fill="#e0a838"/>
      <path d="M3.62,5.17c-.05,.08-.1,.16-.15,.23-.96,1.51-1.67,3.16-2.15,4.71-.01,0-.02-.02-.03-.02-1.04-.73-1-3.18-.68-3.3,.2-.07,.44,.68,.96,.72,.74,.07,1.33-1.31,1.76-1.96,.08-.14,.18-.27,.29-.38Z" fill="#e0a838"/>
      <path d="M9.41,14.61c-.11,.08-.24,.2-.37,.33,.13-.13,.25-.26,.33-.37l.04,.04Z" fill="#e85d04"/>
      <line x1="8.37" y1="15.61" x2="9.7" y2="14.27" fill="none"/>
      <line x1="9.04" y1="14.94" x2="9.39" y2="14.59" fill="none"/>
      <path d="M8.37,15.61l-.15,.15-.37,.38h0l-1.21,1.21-.02-.02s-.04-.04-.06-.05c-.22-.21-.47-.37-.73-.48-.02-.01-.03-.01-.05-.02,.01-.01,.02-.03,.04-.04,.19-.21,.38-.41,.57-.62t.01-.02c.16-.17,.32-.34,.48-.52,.19-.21,.38-.42,.57-.63h.01c.31,.15,.63,.36,.92,.66Z" fill="#601f12"/>
      <path d="M1.89,22.09L.12,23.86h-.12v-1.15c.45-.44,.91-.89,1.37-1.35,.12,.25,.29,.49,.5,.71l.02,.02Z" fill="#601f12"/>
      <path d="M2.6,22.57c-.43,.43-.86,.86-1.27,1.29H.12l1.77-1.77c.21,.21,.45,.36,.71,.48Z" fill="#28120e"/>
      <path d="M8.97,16.59c-.19,.16-.37,.33-.56,.49-.19,.18-.39,.35-.58,.53-.2,.18-.41,.36-.61,.55-.02,.02-.03,.03-.05,.05-.01-.02-.01-.03-.02-.05-.11-.27-.25-.52-.46-.74-.02-.03-.04-.05-.06-.07l1.21-1.21h0l.37-.38,.15-.15c.28,.31,.47,.66,.6,.98Z" fill="#28120e"/>
      <path d="M7.17,18.21c-.49,.44-.97,.88-1.45,1.33-.11-.28-.28-.55-.51-.78l1.06-1.05,.36-.36s.04,.04,.06,.07c.21,.22,.35,.47,.46,.74,0,.02,0,.03,.02,.05Z" fill="#772a23"/>
      <path d="M6.63,17.35l-.36,.36-1.06,1.05-.02-.02c-.23-.23-.49-.39-.78-.52,.47-.48,.92-.96,1.36-1.44,.02,.01,.03,.01,.05,.02,.26,.11,.51,.27,.73,.48,.02,.01,.04,.03,.06,.05l.02,.02Z" fill="#772a23"/>
      <path d="M5.21,18.76l-1.91,1.91-.02-.02c-.22-.22-.38-.47-.5-.73,.57-.56,1.11-1.14,1.63-1.7,.29,.13,.55,.29,.78,.52l.02,.02Z" fill="#4c120f"/>
      <path d="M5.72,19.54c-.56,.52-1.13,1.06-1.69,1.61-.27-.1-.51-.26-.73-.48l1.91-1.91c.23,.23,.4,.5,.51,.78Z" fill="#601f12"/>
      <path d="M4.03,21.15l-.05,.05c-.47,.46-.93,.92-1.38,1.37-.26-.12-.5-.27-.71-.48l1.41-1.42c.22,.22,.46,.38,.73,.48Z" fill="#772a23"/>
      <path d="M3.3,20.67l-1.41,1.42-.02-.02c-.21-.22-.38-.46-.5-.71,.38-.38,.75-.75,1.14-1.15,.09-.09,.19-.19,.27-.29,.12,.26,.28,.51,.5,.73l.02,.02Z" fill="#772a23"/>
      <polygon points="8.74 8.92 8.15 9.09 8.13 9.71 7.78 9.2 7.19 9.38 7.57 8.89 7.22 8.38 7.8 8.59 8.17 8.1 8.16 8.71 8.74 8.92" fill="#fff"/>
      <polygon points="19.14 12.24 18.95 11.65 18.33 11.65 18.83 11.29 18.64 10.71 19.14 11.07 19.63 10.71 19.44 11.29 19.94 11.65 19.33 11.65 19.14 12.24" fill="#fff"/>
      <polygon points="20.03 18.3 19.84 17.71 19.22 17.71 19.72 17.35 19.53 16.77 20.03 17.13 20.53 16.77 20.34 17.35 20.84 17.71 20.22 17.71 20.03 18.3" fill="#fff"/>
      <polygon points="11.43 2.03 11.24 1.44 10.63 1.44 11.13 1.08 10.94 .5 11.43 .86 11.93 .5 11.74 1.08 12.24 1.44 11.62 1.44 11.43 2.03" fill="#fff"/>
      <polygon points="12.16 22.66 11.97 22.08 11.36 22.08 11.85 21.72 11.66 21.13 12.16 21.49 12.66 21.13 12.47 21.72 12.97 22.08 12.35 22.08 12.16 22.66" fill="#fff"/>
      <polygon points="5 6.29 4.81 5.71 4.19 5.71 4.69 5.35 4.5 4.76 5 5.12 5.5 4.76 5.31 5.35 5.8 5.71 5.19 5.71 5 6.29" fill="#fff"/>
      <polygon points="10.89 6.22 10.7 5.63 10.08 5.63 10.58 5.27 10.39 4.69 10.89 5.05 11.38 4.69 11.19 5.27 11.69 5.63 11.08 5.63 10.89 6.22" fill="#fff"/>
      <g>
        <g>
          <path d="M9.04,16.56c0,.06,0,.13-.02,.19-.03,.36-.2,.71-.48,.98t-.02,.02c-.36,.34-.84,.48-1.3,.41-.02,.01-.05,0-.07,0-.32-.05-.63-.2-.88-.45-.01-.01-.02-.02-.03-.03-.11-.1-.18-.22-.25-.34-.09-.17-.15-.35-.17-.54-.01-.02-.01-.04-.01-.06-.01-.06-.01-.12-.01-.18-.01-.26,.06-.53,.19-.77,.08-.14,.19-.28,.31-.4,.31-.3,.72-.45,1.12-.45h.01c.4,0,.8,.15,1.11,.45l.03,.03,.02,.02c.31,.32,.46,.72,.45,1.12Z" fill="#61c1bf"/>
          <path d="M9.04,16.56c-.03,2.05-2.99,2.28-3.31,.25-.33-2.21,3.17-2.75,3.31-.25h0Zm0,0c-.07-2.21-3.34-1.98-3.13,.2,.28,1.92,3.07,1.77,3.13-.2h0Z" fill="#fff"/>
        </g>
        <g>
          <circle cx="7.42" cy="16.56" r="1.13" fill="#5ae0d9"/>
          <path d="M6.6,17.34c1.02,1.02,2.53-.47,1.57-1.5-.98-1.01-2.54,.43-1.57,1.5h0Zm0,0c-1.05-1.12,.6-2.74,1.71-1.63,1.06,1.16-.65,2.73-1.71,1.63h0Z" fill="#f3fffe"/>
        </g>
        <circle cx="7.42" cy="16.56" r=".6" fill="#8dfff4"/>
      </g>
      <path d="M9.39,18.27c-.16,0-.1-.71-.37-1.52-.01-.05-.02-.09-.04-.14-.01,0,0-.01-.01-.02-.13-.32-.32-.67-.6-.98l.2-.19,.47-.48s.03-.03,.05-.05l.14-.14c.07-.05,.13-.1,.18-.14,.27,.29,.44,.65,.51,1.01,.29,1.24-.32,2.65-.53,2.65Z" fill="#8adbd5"/>
      <path d="M9.37,14.56c-.07,.1-.17,.21-.28,.33-.02,.02-.03,.03-.05,.05l-.47,.48-.2,.19c-.29-.3-.61-.51-.92-.66h-.01s-.01,0-.01-.01h-.01c-.9-.42-1.77-.37-1.77-.53,0-.24,1.52-.79,2.76-.41,.35,.1,.69,.28,.96,.56Z" fill="#afe2df"/>
    </g>
  </g>
</svg>