<?xml version="1.0" encoding="UTF-8"?>
<svg id="_Шар_2" data-name="Шар 2" xmlns="http://www.w3.org/2000/svg" viewBox="0 0 24.2 24.12">
  <g id="_2hand_axt" data-name="2hand axt">
    <g>
      <polygon points="23.05 1.26 23.05 1.34 20.08 4.31 19.15 3.38 19.15 1.26 23.05 1.26" fill="#bcc6ce"/>
      <polygon points="23.05 1.34 23.05 5.33 21.1 5.33 20.08 4.31 23.05 1.34" fill="#7d8489"/>
      <path d="M16.63,9.63l-2.94,2.94s-.08-.01-.13,0c.11-.13,.21-.27,.33-.4,.28-.33,.57-.64,.86-.93,.62-.62,1.24-1.15,1.87-1.61Z" fill="#7d8489"/>
      <path d="M21.89,13.81c-.88,1.16-2.02,2.51-3.44,3.91-2.38,2.32-4.73,3.96-6.63,5.07-.02,.01-.03,.02-.04,.03-.12,.06-.24,.11-.36,.17,.91-1.19,1.81-2.36,2.73-3.54,.75-.27,1.52-.76,2.21-1.45,1.7-1.7,2.23-3.94,1.18-4.98-.72-.73-2-.7-3.29-.05l2.92-2.92c.08,.1,.18,.2,.27,.29,.16,.16,.33,.32,.5,.45l.41,.42c1.18,1.13,2.41,1.97,3.54,2.6Z" fill="#7d8489"/>
      <path d="M24.2,12.59c-.88,1.16-2.01,2.51-3.44,3.91-3.46,3.39-6.85,5.3-8.94,6.29,1.9-1.11,4.25-2.75,6.63-5.07,1.42-1.4,2.56-2.75,3.44-3.91-1.13-.63-2.36-1.47-3.54-2.6l-.41-.42c-.17-.13-.34-.29-.5-.45-.09-.09-.19-.19-.27-.29l1.86-1.86c.46,.6,1,1.2,1.64,1.8,1.18,1.12,2.4,1.96,3.53,2.6Z" fill="#bcc6ce"/>
      <path d="M11.14,10.15c.74-1.36,.81-2.72,.05-3.48-1.05-1.06-3.28-.53-4.98,1.18-.69,.68-1.19,1.45-1.46,2.2-1.18,.92-2.36,1.82-3.54,2.73,.06-.13,.12-.24,.18-.36,.01-.01,.01-.02,.01-.04,1.12-1.9,2.75-4.25,5.08-6.62,1.39-1.44,2.75-2.57,3.91-3.44,.63,1.12,1.47,2.34,2.6,3.53l.42,.42c.23,.27,.49,.54,.8,.81l-3.07,3.07Z" fill="#7d8489"/>
      <path d="M16.08,5.22l-1.87,1.86c-.31-.27-.57-.54-.8-.81l-.42-.42c-1.13-1.19-1.97-2.41-2.6-3.53-1.16,.87-2.52,2-3.91,3.44-2.33,2.37-3.96,4.72-5.08,6.62,1-2.09,2.92-5.47,6.3-8.94,1.4-1.43,2.75-2.57,3.91-3.44,.63,1.13,1.48,2.35,2.61,3.54,.61,.65,1.23,1.2,1.86,1.68Z" fill="#bcc6ce"/>
      <path d="M19.03,8.19l-1.86,1.86-2.92,2.92-.49,.48-.61-.61,1.46-1.46,.3-.3,3.53-3.53,.13,.13,.34,.34s.08,.11,.12,.17Z" fill="#5f6568"/>
      <rect x="12.12" y="10.17" width="7.48" height=".19" transform="translate(-2.61 14.22) rotate(-45)" fill="#5f6568"/>
      <path d="M16.71,5.82l-5.29,5.29-.62-.62,3.41-3.41,1.87-1.86s.07,.05,.1,.07l.53,.53Z" fill="#5f6568"/>
      <polygon points="19.44 4.95 8.47 15.92 7.54 14.99 16.71 5.82 18.51 4.01 19.44 4.95" fill="#bcc6ce"/>
      <polygon points="20.38 5.88 18.57 7.68 18.44 7.55 14.91 11.08 14.61 11.38 13.15 12.84 13.28 12.97 9.4 16.85 8.47 15.92 19.44 4.95 20.38 5.88" fill="#7d8489"/>
      <polygon points="8.47 15.92 7.12 17.26 6.19 16.33 5.67 15.81 7.01 14.46 7.54 14.99 8.47 15.92" fill="#7d8489"/>
      <polygon points="9.92 17.38 8.58 18.72 7.12 17.26 8.47 15.92 9.4 16.85 9.92 17.38" fill="#5f6568"/>
      <polygon points="20.08 4.31 19.44 4.95 18.51 4.01 18.01 3.51 18.64 2.88 19.15 3.38 20.08 4.31" fill="#7d8489"/>
      <polygon points="21.51 5.75 20.88 6.38 20.38 5.88 19.44 4.95 20.08 4.31 21.1 5.33 21.51 5.75" fill="#5f6568"/>
      <polygon points="7.12 17.26 5.78 18.61 4.85 17.68 6.19 16.33 7.12 17.26" fill="#be6439"/>
      <polygon points="8.06 18.2 6.71 19.54 5.78 18.61 7.12 17.26 8.06 18.2" fill="#ad5836"/>
      <polygon points="4.69 19.7 .27 24.12 0 24.12 0 22.53 3.75 18.77 4.69 19.7" fill="#be6439"/>
      <polygon points="5.62 20.64 2.13 24.12 .27 24.12 4.69 19.7 5.62 20.64" fill="#ad5836"/>
      <rect x="3.99" y="18.03" width="1.55" height="1.32" transform="translate(-11.82 8.84) rotate(-45)" fill="#99582a"/>
      <rect x="4.93" y="18.96" width="1.55" height="1.32" transform="translate(-12.25 9.86) rotate(-45.26)" fill="#824923"/>
      <line x1="4.69" y1="19.7" x2="5.78" y2="18.61" fill="none"/>
    </g>
  </g>
</svg>