<?xml version="1.0" encoding="UTF-8"?>
<svg id="_Шар_2" data-name="Шар 2" xmlns="http://www.w3.org/2000/svg" viewBox="0 0 24.11 24.11">
  <g id="_2hand_axt" data-name="2hand axt">
    <g>
      <path d="M22.09,11.71c-.45-.29-.87-.59-1.3-.88-.13-.1-.26-.2-.39-.3-.88-.62-1.69-1.27-2.43-1.92-.49,.53-1,1.08-1.53,1.63-.38,.4-.78,.81-1.19,1.22l-.41,.41c.2,.16,.41,.34,.54,.58-1.42,2.34-3.85,4.61-5.45,5.98,.59,.7,1.34,1.75,1.9,3.17,.36,.89,.56,1.72,.67,2.4,.01,.04,.01,.08,.02,.11,.04-.03,.09-.07,.13-.11,2.48-2,5.1-4.32,7.74-7.02,1.34-1.36,2.57-2.71,3.72-4.04-.67-.37-1.34-.79-2.02-1.23Zm-5.18,6.93c-1.1,1.13-2.2,2.11-3.25,2.94-.05-.29-.13-.65-.28-1.03-.24-.59-.55-1.03-.79-1.31,.3-.25,.71-.62,1.15-1.1,1.28-1.32,1.99-2.52,2.21-2.92,0-.02,0-.02,0-.02,.34,.3,.72,.59,1.13,.89,.17,.12,.34,.24,.54,.36,.27,.18,.55,.36,.83,.51-.48,.56-.98,1.11-1.55,1.68Zm2.82-3.32l-1.93-.44-.59-1.88,1.34-1.45,1.93,.43,.59,1.88-1.34,1.46Z" fill="#e85d04"/>
      <path d="M14.47,9.58s-.03-.01-.04-.02l.02-.02s.01,.03,.01,.04Z" fill="#ffba08"/>
      <path d="M22.95,9.87c-.63,.26-1.48,.54-2.55,.66-.18,.02-.37,.04-.56,.05-1.27,.08-2.43-.09-3.4-.34,.53-.55,1.04-1.1,1.53-1.63,.14-.17,.29-.33,.44-.49,.7,.58,1.65,1.18,2.8,1.51,.67,.18,1.26,.24,1.74,.24Z" fill="#ffba08"/>
      <polygon points="7.67 17.91 1.58 24 .11 24 .11 22.51 3.87 18.75 4.26 18.37 4.5 18.12 6.19 16.43 7.67 17.91" fill="#1c1b19"/>
      <path d="M14.47,9.58s-.03-.01-.04-.02l.02-.02s.01,.03,.01,.04Z" fill="#ffa910"/>
      <path d="M22.95,9.87c-.63,.26-1.48,.54-2.55,.66-.18,.02-.37,.04-.56,.05-1.27,.08-2.43-.09-3.4-.34,.53-.55,1.04-1.1,1.53-1.63,.14-.17,.29-.33,.44-.49,.7,.58,1.65,1.18,2.8,1.51,.67,.18,1.26,.24,1.74,.24Z" fill="#ffa910"/>
      <path d="M13.52,3.64c-.07-.1-.16-.22-.24-.32-.29-.43-.59-.85-.88-1.3-.44-.68-.86-1.35-1.23-2.02-1.33,1.15-2.68,2.38-4.04,3.72C4.43,6.36,2.11,8.98,.11,11.46c-.04,.04-.08,.09-.11,.13,.03,.01,.07,.01,.11,.02,.68,.11,1.51,.31,2.4,.67,1.42,.56,2.47,1.31,3.17,1.9,1.37-1.6,3.64-4.03,5.98-5.45,.17,.09,.3,.22,.43,.36,.11-.12,.23-.24,.35-.36,.44-.44,.89-.89,1.33-1.3,.53-.51,1.06-1,1.58-1.47-.62-.71-1.23-1.48-1.83-2.32Zm-4.63,4.52c-.4,.22-1.6,.93-2.92,2.21-.48,.44-.85,.85-1.1,1.15-.28-.24-.72-.55-1.31-.79-.38-.15-.74-.23-1.03-.28,.83-1.05,1.81-2.15,2.94-3.25,.57-.57,1.12-1.07,1.68-1.55,.15,.28,.33,.56,.51,.83,.12,.2,.24,.37,.36,.54,.3,.41,.59,.79,.89,1.13,0,0,0,.01-.02,.01Zm2.22-1.26l-1.88-.59-.44-1.93,1.46-1.34,1.88,.59,.43,1.93-1.45,1.34Z" fill="#ffba08"/>
      <path d="M15.84,5.52c-.16,.15-.32,.29-.49,.44-.52,.47-1.05,.96-1.58,1.47-.23-.93-.37-2.03-.3-3.22,.01-.2,.03-.38,.05-.57,.12-1.06,.39-1.91,.66-2.54,0,.48,.05,1.07,.24,1.74,.31,1.09,.87,2,1.42,2.68Z" fill="#ffd00d"/>
      <path d="M15.51,8.54c-.35,.33-.71,.66-1.05,1l2.07-2.07c-.34,.35-.69,.71-1.02,1.07Z" fill="#ffd00d"/>
      <path d="M14.51,9.59l-.02,.02s0-.02-.01-.03c.01,0,.02,0,.04,0Z" fill="#ffd00d"/>
      <path d="M23.86,3.88h-.11c-.62,.26-1.24,.55-1.87,.82l-.29-.29c.48-.22,.94-.44,1.41-.67h.08s-.23-2.5-.23-2.5h-.09l-2.41-.22c-.25,.46-.5,.92-.76,1.39l-.32-.32c.31-.62,.63-1.23,.94-1.86l3.15,.41h.09s.41,3.24,.41,3.24Z" fill="#ffba08"/>
      <path d="M22.76,1.24l-2.17,2.17-1-1c.25-.47,.51-.93,.76-1.39l2.41,.22Z" fill="#e85d04"/>
      <path d="M23.08,3.75h-.08c-.47,.21-.93,.44-1.41,.66l-1-1,2.17-2.17h.09s.23,2.52,.23,2.52Z" fill="#e53505"/>
      <path d="M21.59,4.41s-.06,.03-.08,.04l-1.96-1.96s.03-.06,.04-.08l2,2Z" fill="#e85d04"/>
      <rect x="5.78" y="17" width=".55" height="2.09" transform="translate(-10.99 9.57) rotate(-45)" fill="#8c400c"/>
      <rect x="5.16" y="17.62" width=".54" height="2.09" transform="translate(-11.61 9.31) rotate(-45)" fill="#8c400c"/>
      <polygon points="5.73 19.84 5.35 20.23 3.87 18.75 4.25 18.36 5.73 19.84" fill="#8c400c"/>
      <rect x="3.91" y="18.87" width=".54" height="2.09" transform="translate(-12.86 8.79) rotate(-45)" fill="#8c400c"/>
      <path d="M20.01,3.98l-3.48,3.49-2.07,2.07-.02,.02-6.62,6.62-.09,.08-.96-.96s.05-.07,.07-.1c1.41-1.86,3.15-3.95,5.25-6.11,.11-.12,.23-.24,.35-.36,.44-.44,.89-.89,1.33-1.3,.53-.51,1.06-1,1.58-1.47,.17-.15,.33-.29,.49-.44,1.1-.95,2.15-1.81,3.14-2.57l1.03,1.03Z" fill="#faa307"/>
      <path d="M21.05,5.01h0c-.82,1.02-1.68,2.04-2.64,3.11-.15,.16-.3,.32-.44,.49-.49,.53-1,1.08-1.53,1.63-.38,.4-.78,.81-1.19,1.22l-.41,.41c-2.07,2.06-4.09,3.84-5.96,5.37-.03,.03-.06,.06-.09,.08l-1.06-1.06,.09-.08,6.62-6.62s.02,.01,.03,.02c.01,.01,.01,.02,.02,.03l.02-.02s-.02-.01-.04-.01c0,0,0-.02-.01-.04,.34-.33,.7-.67,1.05-1,.33-.36,.68-.72,1.02-1.07l3.49-3.48,1.03,1.02Z" fill="#db8700"/>
      <path d="M14.46,9.54s.01,.03,.01,.04c-.01-.01-.03-.01-.04-.02l.02-.02Z" fill="#faa307"/>
      <path d="M15.51,8.54c-.35,.33-.71,.66-1.05,1l2.07-2.07c-.34,.35-.69,.71-1.02,1.07Z" fill="#faa307"/>
      <path d="M14.51,9.59l-.02,.02s0-.02-.01-.03c.01,0,.02,0,.04,0Z" fill="#faa307"/>
      <path d="M21.05,5.01l-2.06-2.06c.2-.16,.39-.29,.58-.44l1.94,1.94c-.15,.19-.3,.37-.46,.56Z" fill="#faa307"/>
      <polygon points="9.2 17.56 8.24 18.52 7.65 17.93 5.42 15.7 6.38 14.74 6.84 15.2 7.82 16.18 9.2 17.56" fill="#e85d04"/>
      <polygon points="21.95 4.77 21.37 5.34 21.05 5.02 20.02 3.99 20.01 3.98 18.98 2.95 18.7 2.67 19.27 2.09 21.88 4.7 21.95 4.77" fill="#faa307"/>
      <line x1="6.21" y1="17.79" x2="7.73" y2="16.26" fill="none"/>
      <polyline points="20.59 3.41 20.52 3.47 20.02 3.98" fill="none"/>
    </g>
  </g>
</svg>