<?xml version="1.0" encoding="UTF-8"?>
<svg id="_Шар_2" data-name="Шар 2" xmlns="http://www.w3.org/2000/svg" viewBox="0 0 24 20.34">
  <g id="Axt">
    <g>
      <g>
        <path d="M1.29,17.72h-.05S0,20.34,0,20.34c.23-1.08,.45-2.16,.68-3.23l.61,.61Z" fill="#2fd0f9"/>
        <path d="M.7,17.03c.66,.02,1.31,.04,1.97,.06l.31,.31-1.68,.32-.61-.61s0-.05,.02-.08Z" fill="#2fa6f9"/>
        <polygon points="2.98 17.4 3.43 17.85 3.3 19.73 2.68 19.11 2.98 17.4" fill="#2f53f9"/>
        <polygon points="1.29 17.72 2.97 17.4 2.98 17.4 2.68 19.11 1.29 17.72" fill="#257bf9"/>
        <path d="M0,20.34l2.68-1.23,.62,.62c-1.1,.2-2.2,.41-3.3,.61Z" fill="#2f73f9"/>
        <polygon points="1.24 17.72 1.29 17.72 2.68 19.11 0 20.34 1.24 17.72" fill="#2fa0f9"/>
      </g>
      <path d="M22.14,8.3h-1.51s-1.74,0-1.74,0h-3.16c1-1.42,1.31-2.82,1.41-3.38,.68,.2,1.36,.41,2.03,.63,.57,.16,1.14,.34,1.69,.52,.33,.1,.66,.2,.98,.3,.19,.64,.28,1.29,.3,1.93Z" fill="#5042b1"/>
      <path d="M14.02,10.09c.24-.19,.47-.39,.71-.61,.34-.34,.64-.69,.89-1.04l6.6,2.16-.45,.3c-.15,.47-.34,.93-.58,1.36l-7.18-2.16Z" fill="#5042b1"/>
      <path d="M17.24,15.65c.57-.21,1.16-.5,1.73-.9l-5.13-4.54c-.4,.3-.81,.55-1.18,.74-.11,.06-.2,.1-.3,.14-.89,.41-1.65,.58-2.05,.65,.43,.64,.85,1.29,1.28,1.93,.41,.62,.82,1.24,1.24,1.85,.11,.18,.24,.36,.36,.54,.14,.02,.72,.11,1.51,.08l-.44-.94c.55-.16,1.13-.38,1.68-.69l-.78-.85,2.01,2.18,.07-.18Z" fill="#5042b1"/>
      <path d="M17.52,13.46c-.5,.42-1.04,.76-1.58,1.04-.55,.31-1.13,.53-1.68,.69-.5,.15-.98,.26-1.43,.33-.41-.61-.83-1.24-1.24-1.85,.56,0,1.21-.04,1.88-.19,.39-.08,.79-.2,1.19-.37,.5-.2,1.01-.47,1.51-.84,.1-.07,.19-.14,.28-.21,.35-.28,.67-.6,.96-.94,.44-.52,.81-1.11,1.08-1.73,.16-.34,.3-.71,.4-1.08,.26-.88,.36-1.81,.28-2.75,.57,.16,1.14,.34,1.69,.52,0,.65-.05,1.42-.23,2.23-.11,.52-.28,1.06-.5,1.61-.24,.58-.55,1.16-.94,1.73-.2,.3-.43,.59-.69,.89-.32,.35-.63,.67-.97,.94Z" fill="#6b96c9"/>
      <path d="M13.93,4.17l-3.42,3.42c-1.39-.3-2.8-.6-4.21-.9l.41-1.73c.52,.26,1.17,.18,1.6-.25,.54-.54,.54-1.42,0-1.95-.27-.27-.63-.4-.98-.41l.25-1.05,1.41-.33c.07,.26,.2,.5,.4,.71,.59,.59,1.54,.58,2.12,0,.37-.37,.51-.92,.4-1.41l1.07-.26c.32,1.39,.63,2.79,.94,4.17Z" fill="#5042b1"/>
      <rect x="7.91" y="3.38" width="2.19" height="16.23" transform="translate(10.77 -3) rotate(45)" fill="#471f15"/>
      <rect x="1.06" y="16.85" width="4.35" height=".67" transform="translate(13.1 2.75) rotate(45)" fill="#5078b1"/>
      <rect x="1.04" y="17.26" width="3.21" height=".93" transform="translate(13.31 3.32) rotate(45)" fill="#5042b1"/>
      <polygon points="15.7 3.74 16.76 3.74 16.76 4.8 15.7 3.74" fill="#5042b1"/>
      <polygon points="10.27 5.72 10.27 3.98 12.02 3.98 10.27 5.72" fill="#5078b1"/>
      <rect x="14.24" y="3.78" width="2.37" height="2.37" transform="translate(8.03 -9.45) rotate(45)" fill="#5042b1"/>
      <path d="M7.97,13.97c-.11,.09-.2,.19-.31,.29l-.2,.2-1.72-1.27,1.3-1.3,.93,2.08Z" fill="#8c400c"/>
      <path d="M6.62,15.36l-1.17-1.89,.28-.28,1.72,1.27c-.33,.33-.59,.63-.84,.9Z" fill="#5b2806"/>
      <path d="M8.96,13.08c-.32,.27-.66,.56-1,.89l-.93-2.08,.31-.31,1.61,1.5Z" fill="#5b2806"/>
      <path d="M16.43,17.8l-1.57-1.67c-.06,0-.11,0-.15,0l-.44-.94c.55-.16,1.13-.38,1.68-.69l1.23,1.33-.75,1.97Z" fill="#4b00ac"/>
      <path d="M21.53,15.24l-2.44-.57s-.07,.06-.11,.08l-1.45-1.29c.33-.27,.65-.59,.97-.94,.26-.29,.49-.59,.69-.89l2.01,.61c-.08,.15-.16,.29-.25,.43l.59,2.55Z" fill="#4b00ac"/>
      <path d="M17.52,13.46l-1.36-1.2-2.32-2.06c.07-.03,.11-.08,.17-.12l3.38,1.03,1.78,.53c-.2,.3-.43,.59-.69,.89-.32,.35-.63,.67-.97,.94Z" fill="#5042b1"/>
      <path d="M24,9.4l-1.78,1.2-2.1-.68c.23-.55,.39-1.09,.5-1.61h1.51s0,.02,0,.02l1.86,1.08Z" fill="#4b00ac"/>
      <path d="M18.48,9.38l-2.86-.94s.07-.09,.11-.14h3.16c-.1,.37-.24,.74-.4,1.08Z" fill="#5042b1"/>
      <path d="M15.73,8.3s-.07,.1-.11,.14l-.41-.14h.52Z" fill="#5042b1"/>
      <path d="M18.48,13.3c-.32,.24-.65,.39-.97,.51l-.02,.03-1.45-3.14v3.38c-.41,0-.71-.04-.77-.04-.54-.8-1.06-1.59-1.59-2.39,.41-.07,1.49-.32,2.44-1.25,1.01-.98,1.25-2.12,1.33-2.51,.87,.27,1.73,.53,2.6,.8,.1,.36,.15,.72,.16,1.07l.15,.08-3.53,.08,3.17,1.27c-.11,.35-.25,.68-.45,.98l.08,.34-3.26-2.03,2.11,2.81Z" fill="#5078b1"/>
      <path d="M16.28,11.21l.21,.46c-.14,.11-.28,.2-.44,.26v-.6c-.34,.18-.63,.26-.82,.3-.33-.8-.98-2.1-2.25-3.35-1.21-1.2-2.46-1.81-3.25-2.14l2.69-2.69c.46,.86,1.2,2.03,2.37,3.18,1.13,1.13,2.28,1.85,3.12,2.31-.04,.19-.15,.55-.37,.97h.29c-.02,.07-.05,.13-.07,.19-.03,.07-.06,.12-.1,.18l-.28-.12h0c-.14,.23-.32,.44-.54,.64l.36,.23h0c-.08,.09-.15,.18-.24,.26l-.27-.37c-.14,.12-.28,.22-.41,.3Z" fill="#5078b1"/>
      <path d="M17.07,15.01l-.87-.92s-.11,0-.15,0v-1.07c.13-.05,.25-.11,.37-.17,.16-.08,.33-.18,.49-.29l.59,1.29-.43,1.16Z" fill="#6891c1"/>
      <path d="M19.88,13.59l-1.35-.33s-.02,.02-.05,.03l-.95-1.26c.08-.08,.16-.16,.24-.26,.08-.1,.16-.18,.23-.28l1.64,1.02,.24,1.07Z" fill="#6891c1"/>
      <path d="M21.24,10.36l-1.23,.82h0s-1.46-.58-1.46-.58c.05-.07,.08-.15,.11-.23,.07-.17,.13-.34,.18-.5l1.53-.03,.88,.52Z" fill="#6891c1"/>
      <path d="M17.53,12.04c-.09,.09-.18,.18-.28,.24-.11,.1-.24,.19-.35,.27-.16,.11-.33,.21-.49,.29-.11,.07-.24,.12-.37,.17v-1.09c.16-.07,.3-.15,.44-.26,.02,0,.03-.02,.04-.02,.05-.03,.11-.07,.15-.11,.1-.08,.2-.16,.28-.25,.08-.08,.15-.17,.24-.25h0c.19-.24,.35-.49,.47-.76,.04-.06,.07-.11,.1-.18,.02-.06,.06-.12,.07-.19,.06-.12,.11-.25,.15-.39,.13-.47,.19-.97,.15-1.48,.3,.09,.61,.19,.9,.28,0,.35-.02,.76-.12,1.2-.02,.12-.05,.24-.09,.37-.05,.16-.11,.33-.18,.5-.03,.08-.07,.16-.11,.23-.11,.24-.23,.47-.39,.7-.05,.07-.1,.13-.15,.2-.07,.1-.15,.18-.23,.28-.08,.1-.16,.18-.24,.26Z" fill="#6891c1"/>
      <path d="M16.05,13.02c-.18,.08-.36,.15-.54,.2-.27,.09-.53,.14-.77,.17-.22-.32-.45-.66-.67-.99,.3,0,.65-.02,1.01-.1,.21-.05,.43-.11,.64-.2,.11-.05,.23-.1,.33-.16v1.09Z" fill="#6b96c9"/>
      <circle cx="13.5" cy="7" r=".91" fill="#4b00ac"/>
      <path d="M6.23,15.67l-1.87-1.09,1.17-1.17,1.09,1.81c-.13,.16-.26,.31-.39,.46Z" fill="#8c400c"/>
      <path d="M5.76,16.22l-1.53-1.53,.12-.12,1.87,1.09c-.16,.19-.31,.37-.47,.56Z" fill="#5b2806"/>
    </g>
  </g>
</svg>