<?xml version="1.0" encoding="UTF-8"?>
<svg id="_Шар_2" data-name="Шар 2" xmlns="http://www.w3.org/2000/svg" viewBox="0 0 24.04 23.7">
  <g id="_2hand_axt" data-name="2hand axt">
    <g>
      <polygon points="2.12 23.24 1.66 23.7 .36 23.7 1.47 22.59 2.12 23.24" fill="#5b2806"/>
      <polygon points="1.47 22.59 .36 23.7 0 23.7 0 22.76 .82 21.94 1.47 22.59" fill="#8c400c"/>
      <path d="M23.41,.65c-.09,.03-.18,.07-.3,.1,.18-.12,.27-.14,.3-.1Z" fill="none"/>
      <path d="M23.33,.92c.02-.1,.05-.19,.08-.27,.04,.03,.02,.11-.08,.27Z" fill="none"/>
      <g>
        <path d="M19.6,11.59l-.69,.68,.49-1.34,.25-.71,1.39,1.16,.91,.78,.05-1.78h.44s.77-.02,.77-.02c-.37-.55-.85-1.04-1.41-1.41h0c-.53-.38-1.13-.67-1.76-.85-1.62,1.73-3.36,3.32-5.02,4.67,1.87,1.11,1.66,4.59-.42,5.38-.55,.22-1.25,.23-2.07-.05-.05-.01-.12-.04-.17-.06-.04,.05-.07,.09-.1,.14-1.23,1.44-1.95,3.37-2.17,4.44,.29-1.41,3.63-3.98,5.96-3.04,.41,.16,.8,.43,1.11,.83l.32-.32c-.08-.24-.18-.51-.31-.77,.52-.22,1.49-.32,1.98-.26,.12-.32,.25-.63,.37-.95l-.49,.08s.41-.82,.58-1.72c.07-.31,.11-.65,.08-.95,0-.3-.09-.57-.24-.79-.61-.84,.82,.05,1.48,1.7,.17-.11,.31-.24,.45-.38,.78-.78,1.25-1.92,1.26-3.57l-.41,.73-2.62-1.62Z" fill="#5042b1"/>
        <path d="M24,14.65c-.13,1.25-.56,2.16-1.21,2.81-.4,.41-.88,.71-1.42,.93-.28,.7-.55,1.39-.82,2.09-.48-.07-1.45,.04-1.98,.25,.13,.27,.23,.54,.32,.78l-.52,.51c-.13,.15-.21,.22-.23,.2,0,0-1.63,1.23-2.36,.89,1.15-.56,1.82-1.43,1.68-2.14-.03-.14-.1-.32-.28-.53l-.03-.03,.32-.32c-.08-.24-.18-.51-.31-.77,.52-.22,1.49-.32,1.98-.26,.12-.32,.25-.63,.37-.95l1.74-.26c-.03-.51-.16-.99-.33-1.42,.17-.11,.31-.24,.45-.38,.78-.78,1.25-1.92,1.26-3.57l.53-.94,.7,.23c.06,.37,.11,.73,.14,1.07,.06,.67,.06,1.27,0,1.81Z" fill="#6b96c9"/>
        <path d="M15.12,2.27h-.01c-.37-.57-.86-1.05-1.41-1.42v.77s-.02,.44-.02,.44l-1.78,.04,.78,.92,1.16,1.39-.71,.25-1.34,.49,.68-.69-1.62-2.62,.74-.41c-1.95,0-3.2,.66-3.96,1.71,1.66,.67,2.55,2.08,1.7,1.48-.22-.15-.49-.23-.79-.25-.3-.02-.64,.02-.95,.09-.9,.17-1.72,.58-1.72,.58l.08-.49c-.32,.12-.63,.25-.95,.37,.06,.49-.04,1.45-.26,1.98-.26-.13-.53-.23-.77-.31l-.32,.32c.4,.31,.67,.7,.83,1.11,.94,2.33-1.63,5.67-3.04,5.96,1.07-.22,3-.94,4.44-2.17,.05-.03,.09-.06,.14-.1-.02-.05-.05-.12-.06-.17-.28-.82-.27-1.52-.05-2.07,.79-2.08,4.28-2.29,5.39-.43,1.36-1.66,2.95-3.39,4.67-5-.19-.64-.47-1.24-.85-1.77Z" fill="#5042b1"/>
        <path d="M12.52,.9l-.93,.53c-1.95,0-3.2,.66-3.96,1.71-.43-.17-.91-.3-1.42-.33l-.26,1.74c-.32,.12-.63,.25-.95,.37,.06,.49-.04,1.45-.26,1.98-.26-.13-.53-.23-.77-.31l-.32,.32-.03-.03c-.21-.18-.39-.25-.53-.28-.71-.14-1.58,.53-2.14,1.67-.34-.72,.89-2.35,.89-2.35-.02-.03,.05-.1,.2-.24l.51-.51c.25,.08,.51,.19,.78,.31,.22-.53,.32-1.49,.25-1.98,.7-.26,1.39-.53,2.09-.81C6.49,.68,8.41-.48,12.29,.2l.23,.7Z" fill="#6b96c9"/>
        <path d="M11.74,11.37c-.17,.31-.29,.58-.36,.8-.19,.03-.41,.05-.64,.07,.01-.04,.01-.11,.01-.16,.05-.93-.14-1.68-.31-2.14,.34,.07,.74,.14,1.19,.17,.04,.39-.01,.83-.14,1.31,.08-.01,.17-.02,.25-.05Z" fill="none"/>
        <path d="M14.12,13.62c-.52-.13-1.24-.25-2.09-.22-.07,0-.13,0-.19,.01,.01-.27,.03-.51,.07-.75,.21-.07,.48-.18,.79-.35-.03,.08-.05,.18-.06,.26,.5-.13,.94-.18,1.33-.13,.02,.44,.08,.84,.15,1.18Z" fill="none"/>
        <path d="M12,15.74c-.52-.13-1.24-.25-2.09-.22-.07,0-.13,.01-.2,.01,.03-.51,.1-.97,.17-1.35l1.51-1.51c.08,.08,.26,.08,.52-.01-.04,.24-.06,.48-.07,.75-.01,.15-.02,.31-.02,.47,0,.72,.08,1.35,.18,1.86Z" fill="#4b00ac"/>
        <path d="M11.39,12.67l-1.51,1.51c-.36,.07-.78,.14-1.26,.19,.01-.05,.01-.12,.01-.17,.05-.93-.15-1.68-.31-2.14,.5,.11,1.14,.21,1.88,.2,.19,0,.36,0,.54-.02,.23-.02,.45-.04,.64-.07-.07,.24-.07,.41,.01,.5Z" fill="#5042b1"/>
        <path d="M9.7,16c0,.72,.08,1.35,.18,1.86-.53-.13-1.24-.25-2.09-.22-.03,0-.06,0-.08,.01-.6,.02-1.1,.11-1.51,.21l3.68-3.68c-.07,.38-.14,.84-.17,1.35,0,.15-.01,.31-.01,.47Z" fill="#5042b1"/>
        <path d="M6.2,17.86c.13-.38,.28-.91,.31-1.54,.05-.93-.15-1.68-.31-2.14,.5,.11,1.14,.21,1.88,.2,.19,0,.36,0,.54,0,.48-.05,.9-.12,1.26-.19l-3.68,3.68Z" fill="#6b96c9"/>
        <path d="M7.71,17.65l-1.92,1.92-.65-.65,1.06-1.06c.41-.1,.91-.19,1.51-.21Z" fill="#5b2806"/>
        <path d="M6.51,16.32c-.03,.63-.18,1.16-.31,1.54l-1.06,1.06-.65-.65,1.99-1.99,.03,.04Z" fill="#8c400c"/>
        <rect x="3.23" y="20.62" width=".81" height=".92" transform="translate(-13.84 8.74) rotate(-45)" fill="#5b2806"/>
        <rect x="2.58" y="19.97" width=".81" height=".92" transform="translate(-13.57 8.09) rotate(-45)" fill="#8c400c"/>
        <path d="M22,2.06l-1.24,1.24c-.35,.13-.85,.27-1.46,.33,.84-.64,1.5-1.16,2.03-1.56h0s.67,0,.67,0Z" fill="#6891c1"/>
        <path d="M19.35,4.71l-7.96,7.96c-.08-.09-.08-.26-.01-.5,.07-.22,.19-.49,.36-.8,.05-.09,.11-.19,.16-.29,.11-.19,.24-.39,.38-.6,0,0,.01-.01,.01-.02,.07-.11,.14-.22,.22-.33,.9-1.27,2.22-2.81,3.68-4.09,.11-.09,.21-.18,.32-.27,.15-.12,.07-.06,1.38-1.06h1.46Z" fill="#6891c1"/>
        <path d="M22,2.06v.65c-.44,.57-.99,1.29-1.69,2.19,.08-.72,.3-1.28,.45-1.6l1.24-1.24Z" fill="#5078b1"/>
        <path d="M19.35,4.71v1.45c-.99,1.29-.92,1.21-1.06,1.39-.09,.11-.17,.22-.27,.32-1.28,1.48-2.81,2.78-4.07,3.65-.01,.01-.01,.02-.03,.02-.1,.07-.21,.14-.31,.21-.33,.22-.64,.41-.91,.56-.31,.17-.58,.28-.79,.35-.26,.09-.44,.09-.52,.01l7.96-7.96Z" fill="#5078b1"/>
        <path d="M16.19,6.04c-1.46,1.28-2.78,2.82-3.68,4.09,0,.01-.01,.01-.01,.03-.07,.1-.14,.2-.21,.3,0,.01-.01,.02-.01,.02-.14,.21-.27,.41-.38,.6-.05,.1-.11,.2-.16,.29-.08,.03-.17,.04-.25,.05,.13-.48,.18-.92,.14-1.31-.02-.23-.06-.46-.14-.67h0c-.05-.14-.11-.27-.18-.4,1.36-1.66,2.95-3.39,4.67-5,.18,.65,.25,1.32,.22,2Z" fill="#4b00ac"/>
        <path d="M20.03,8.1c-1.62,1.73-3.36,3.32-5.02,4.67-.13-.07-.26-.14-.4-.19-.19-.07-.41-.12-.64-.14-.39-.05-.83,0-1.33,.13,.01-.08,.03-.18,.06-.26,.27-.15,.58-.34,.91-.56,.05-.03,.09-.05,.14-.09,.05-.03,.09-.06,.14-.09,.01,0,.02-.02,.03-.03,.02,0,.02-.01,.03-.02,1.26-.87,2.79-2.17,4.07-3.65,.68-.04,1.36,.05,2.01,.23Z" fill="#4b00ac"/>
        <polygon points="5.79 19.57 4.24 21.12 3.59 20.47 2.94 19.82 4.49 18.27 5.14 18.92 5.79 19.57" fill="#471f15"/>
        <rect x=".82" y="21.03" width="2.19" height=".92" transform="translate(-14.63 7.65) rotate(-45)" fill="#471f15"/>
        <rect x="1.47" y="21.68" width="2.19" height=".92" transform="translate(-14.9 8.3) rotate(-45)" fill="#8c400c"/>
        <path d="M20.76,3.3l-1.41,1.41h-2.85v-1.41c.45,.16,1.08,.33,1.85,.36,.34,.01,.66,0,.95-.03,.61-.06,1.11-.2,1.46-.33Z" fill="#6b96c9"/>
        <path d="M20.29,5.68c.04,.84,.29,1.48,.47,1.88h-1.41v-2.85l1.41-1.41c-.15,.32-.37,.88-.45,1.6-.02,.25-.05,.51-.02,.78Z" fill="#5042b1"/>
        <path d="M23.07,2.73c-.01,.92,.18,1.67,.34,2.17h-1.41V2.06l1.41-1.41c-.03,.08-.06,.17-.08,.27-.13,.46-.25,1.08-.26,1.81Z" fill="#5042b1"/>
        <path d="M23.41,.65l-1.41,1.41h-.67s-2.18,0-2.18,0V.65c.47,.17,1.24,.39,2.19,.39,.71-.01,1.31-.14,1.76-.28h0c.12-.04,.21-.08,.3-.11Z" fill="#6b96c9"/>
      </g>
    </g>
  </g>
</svg>