<?xml version="1.0" encoding="UTF-8"?>
<svg id="_Шар_2" data-name="Шар 2" xmlns="http://www.w3.org/2000/svg" viewBox="0 0 22.58 22.55">
  <g id="_2hand_axt" data-name="2hand axt">
    <g>
      <polygon points="19.81 2.95 19.53 3.23 19.51 3.2 18.56 2.25 18.83 1.98 19.79 2.93 19.81 2.95" fill="#617d8c"/>
      <polygon points="20.74 3.88 20.47 4.16 20.01 3.71 19.53 3.23 19.81 2.95 20.74 3.88" fill="#596e7c"/>
      <path d="M19.53,3.23l-4.11,4.11-.7,.7-.02-.02c-.11-.11-.22-.23-.32-.35-.11-.11-.2-.22-.28-.33h0c.28-.27,.55-.54,.82-.79,.04-.05,.08-.08,.12-.12,1.33-1.27,2.64-2.51,3.96-3.73l.5,.5,.02,.03Z" fill="#936639"/>
      <path d="M20.01,3.71c-1.19,1.33-2.42,2.66-3.69,4-.14,.14-.27,.28-.4,.42-.13,.13-.25,.26-.37,.39-.04,.04-.08,.07-.11,.11l-.02,.02c-.1-.07-.18-.14-.26-.2-.06-.06-.11-.1-.16-.15-.12-.1-.21-.19-.28-.26l.7-.7,4.11-4.11,.48,.48Z" fill="#54381f"/>
      <path d="M13.23,10.9h0s-.05,.06-.05,.06l-1.15,1.16c-3.62,3.64-7.2,7.11-10.73,10.43H.21L11.34,11.43l.95-.96,.33-.33c.25,.25,.44,.5,.61,.76Z" fill="#54381f"/>
      <path d="M12.62,10.14l-.33,.33-.95,.96L.21,22.55h-.21v-.91c3.41-3.6,6.96-7.23,10.65-10.9,.24-.25,.49-.51,.75-.76l.46-.46h.01c.25,.16,.49,.37,.73,.6l.02,.02Z" fill="#936639"/>
      <path d="M14.72,8.04l-.27,.28-.15,.14-1.68,1.68-.02-.02c-.24-.23-.48-.44-.73-.6h-.01c-1.05-.72-2.1-.85-2.42-.87l.47-.47,.04-.03,3.2-3.2c.05,.38,.24,1.36,.94,2.34,.01,0,.01,.02,.02,.03h0c.09,.12,.17,.24,.27,.35,.1,.12,.21,.24,.32,.35l.02,.02Z" fill="#596e7c"/>
      <path d="M17.77,9.57l-3.7,3.7c-.02-.31-.15-1.32-.84-2.36h0c-.17-.27-.36-.52-.61-.77l1.68-1.68,.15-.14,.27-.28c.07,.07,.16,.16,.28,.26,.06,.05,.12,.1,.19,.15,.07,.06,.16,.12,.25,.18,.02,.01,.03,.02,.05,.03,.53,.37,1.3,.76,2.28,.91Z" fill="#596e7c"/>
      <path d="M17.81,.28l-.04,.04c-2.36,.47-4.72,.93-7.08,1.4h-.01S9.14,.18,9.14,.18l.04-.04c2.88,.05,5.75,.09,8.63,.14Z" fill="#9fb8c4"/>
      <rect x="5.59" y="1.65" width="5.06" height="2.18" transform="translate(.44 6.53) rotate(-44.92)" fill="#617d8c"/>
      <path d="M17.77,.32l-4.62,4.63-3.2,3.2-2.84-2.84h-.01s3.58-3.58,3.58-3.58h.01c2.36-.48,4.72-.94,7.08-1.41Z" fill="#ce7f49"/>
      <path d="M3.36,9.07c-.36,2.2-.73,4.4-1.08,6.6-.15-2.71-.28-5.41-.43-8.11l1.51,1.51Z" fill="#414f56"/>
      <path d="M9.95,8.15l-.04,.03-2.84-2.84-3.71,3.71v.02l-1.51-1.51v-.08l3.71-3.72,1.54,1.54h.01s2.84,2.85,2.84,2.85Z" fill="#596e7c"/>
      <path d="M9.91,8.18L2.29,15.8s-.01-.09-.01-.13c.35-2.2,.72-4.4,1.08-6.6v-.02l3.71-3.71,2.84,2.84Z" fill="#bc6a33"/>
      <path d="M15.16,20.87c-2.75-.15-5.5-.29-8.25-.44,2.25-.37,4.48-.73,6.72-1.09l1.53,1.53Z" fill="#414f56"/>
      <path d="M18.95,17.16l-3.71,3.71h-.08l-1.53-1.53s.05-.01,.07-.01l3.71-3.72,1.54,1.55Z" fill="#596e7c"/>
      <path d="M22.58,13.54l-.02,.02-1.55-1.55,.02-.02c.47-2.36,.94-4.72,1.4-7.08,.05,2.88,.1,5.75,.15,8.63Z" fill="#9fb8c4"/>
      <rect x="17.44" y="13.49" width="5.09" height="2.19" transform="translate(-4.46 18.37) rotate(-44.92)" fill="#617d8c"/>
      <path d="M17.41,15.61l-3.71,3.72s-.05,.01-.07,.01c-2.24,.36-4.47,.72-6.72,1.09l7.66-7.66,2.84,2.84Z" fill="#7c8c99"/>
      <path d="M22.43,4.91c-.46,2.36-.93,4.72-1.4,7.08l-3.62,3.62-2.84-2.84,7.86-7.86Z" fill="#95adbc"/>
      <path d="M9.91,8.18L2.25,15.84c.02-.06,.02-.11,.03-.17,.35-2.2,.72-4.4,1.08-6.6v-.02l3.71-3.71,2.84,2.84Z" fill="#7c8c99"/>
      <path d="M17.77,.32l-4.62,4.63-3.2,3.2-.04,.03-2.84-2.84,.04-.03,3.57-3.58h.01c2.36-.48,4.72-.94,7.08-1.41Z" fill="#95adbc"/>
      <path d="M20.45,2.34l-.62,.62-.84-.84,.55-2.12V.06c0,.88,.34,1.68,.91,2.28Z" fill="#95adbc"/>
      <path d="M22.34,3.35l-1.68,.43-.74-.73-.02-.02-.07-.07,.62-.62c.49,.53,1.15,.89,1.89,1.01Z" fill="#7c8c99"/>
      <polyline points="19.81 2.91 19.79 2.93 19.51 3.2 19.31 3.41" fill="none"/>
      <polygon points="16.38 7.77 15.96 8.19 15.92 8.13 15.42 7.34 14.93 6.55 14.89 6.49 15 6.38 15.69 7.07 16.32 7.71 16.38 7.77" fill="#a85324"/>
      <polygon points="15.62 8.53 15.11 9.04 13.86 10.28 13.34 9.42 13.33 9.41 12.82 8.56 13.27 8.1 14.11 8.25 14.45 8.32 15.16 8.45 15.19 8.45 15.55 8.52 15.62 8.53" fill="#a85324"/>
      <polygon points="13.18 10.96 12.03 12.12 10.64 10.73 11.4 9.98 12.29 10.47 13.18 10.96" fill="#a85324"/>
      <polygon points="15.96 8.19 15.62 8.53 15.55 8.52 15.19 8.45 15.16 8.45 14.45 8.32 14.11 8.25 13.27 8.1 13.71 7.67 14.09 7.29 14.89 6.49 14.93 6.55 15.42 7.34 15.92 8.13 15.96 8.19" fill="#894d25"/>
      <polygon points="13.86 10.28 13.58 10.56 13.23 10.91 13.18 10.96 12.29 10.47 11.4 9.98 11.86 9.52 11.87 9.52 12.21 9.17 12.82 8.56 13.33 9.41 13.34 9.42 13.86 10.28" fill="#99582a"/>
      <line x1="21.01" y1="12.01" x2="20.14" y2="11.14" fill="none"/>
      <line x1="4.9" y1="10.61" x2="3.36" y2="9.07" fill="none"/>
      <line x1="13.63" y1="19.34" x2="12.82" y2="18.53" fill="none"/>
      <path d="M14.29,8.45l-1.29,1.29h-.01c-.14-.16-.3-.28-.45-.38-.65-.44-1.29-.52-1.49-.53l2.28-2.28c.03,.23,.15,.84,.59,1.46,.1,.14,.22,.29,.36,.43h.01Z" fill="#95adbc"/>
      <path d="M16.17,9.39l-2.28,2.28c-.01-.2-.09-.82-.51-1.46-.1-.16-.23-.31-.38-.46l1.29-1.29c.09,.09,.23,.22,.44,.36,.33,.23,.81,.48,1.43,.57Z" fill="#95adbc"/>
    </g>
  </g>
</svg>