<?xml version="1.0" encoding="UTF-8"?>
<svg id="_Шар_2" data-name="Шар 2" xmlns="http://www.w3.org/2000/svg" viewBox="0 0 23.42 23.47">
  <g id="Tränke">
    <g>
      <path d="M17.7,5.92c-1.04-1.03-1.96-2.05-2.75-3.02L.83,17.02c-1.08,1.08-1.11,2.79-.08,3.82l1.92,1.92c.99,.99,2.62,.95,3.64-.07l14.2-14.2c-.9-.75-1.85-1.6-2.82-2.56ZM6.44,21.83c-.98,.98-2.47,1.08-3.33,.23l-1.67-1.67c-.9-.9-.79-2.46,.24-3.49L15.18,3.4c.69,.85,1.48,1.73,2.38,2.63,.84,.83,1.67,1.57,2.46,2.21L6.44,21.83Z" fill="#ade8f4"/>
      <path d="M20.02,8.24L6.44,21.83c-.98,.98-2.47,1.08-3.33,.23l-1.67-1.67c-.9-.9-.79-2.46,.24-3.49L15.18,3.4c.69,.85,1.48,1.73,2.38,2.63,.84,.83,1.67,1.57,2.46,2.21Z" fill="#90e0ef"/>
      <path d="M18.45,9.81l-6.62,6.62c-.05-.3-.12-.6-.22-.88l4.07-4.07c.43-.43,.43-1.12,0-1.55l-.34-.34c-.43-.43-1.12-.43-1.55,0l-3.78,3.78c-.63-.46-1.16-.69-1.24-1.34-.21-1.69,3.16-2.38,3.85-5.06,.09-.35,.14-.74,.14-1.14l.86-.86c-.2,.2,.72,1.45,2.06,2.79s2.59,2.26,2.79,2.06Z" fill="#b52857"/>
      <path d="M23.07,7.1l-.06,.06c-.16,.04-.47-.07-.87-.31-.77-.45-1.88-1.37-3.04-2.52s-2.08-2.29-2.53-3.06c-.27-.47-.37-.8-.25-.93l6.75,6.75Z" fill="#ade8f4"/>
      <path d="M21.16,7.83l-.65,.65c-.9-.75-1.85-1.6-2.82-2.56-1.04-1.03-1.96-2.05-2.75-3.02l.65-.65,5.57,5.57Z" fill="#6da7af"/>
      <path d="M23.09,7.12s-.05,.04-.08,.04c-.16,.04-.47-.07-.87-.31-.77-.45-1.88-1.37-3.04-2.52s-2.08-2.29-2.53-3.06c-.27-.47-.37-.8-.25-.93s.46-.03,.93,.25c.01,0,.03,.02,.04,.02,.37,.22,.82,.55,1.31,.95h0s.01,.01,.02,.02h0c.52,.44,1.1,.96,1.68,1.54s1.09,1.14,1.52,1.66h0c.4,.48,.72,.93,.94,1.29,.02,.03,.04,.05,.05,.08,.29,.48,.39,.82,.26,.95Z" fill="#6da7af"/>
      <path d="M23.39,5.61l-.44,.44c-.25,.25-1.71-.81-3.26-2.36-1.37-1.37-2.35-2.67-2.39-3.13l.44-.44c0,.11,.07,.26,.17,.45,.35,.62,1.17,1.63,2.22,2.68s2.06,1.87,2.68,2.22c.3,.17,.5,.22,.58,.14Z" fill="#a05720"/>
      <path d="M23.39,5.61c-.08,.08-.29,.03-.58-.14-.62-.35-1.63-1.17-2.68-2.22s-1.87-2.06-2.22-2.68c-.11-.19-.17-.34-.17-.45l.08-.08,5.57,5.57Z" fill="#bc6c25"/>
      <path d="M22.94,6.05l-.8,.8c-.77-.45-1.88-1.37-3.04-2.52s-2.08-2.29-2.53-3.06l.72-.72s0,.04,0,.06c.11,.5,1.07,1.75,2.38,3.07s2.62,2.32,3.1,2.39c.08,.01,.13,0,.16-.03Z" fill="#bc6c25"/>
      <path d="M23.39,5.61c-.08,.08-.29,.03-.58-.14-.62-.34-1.61-1.15-2.65-2.19s-1.86-2.04-2.2-2.66c-.1-.18-.17-.34-.17-.45,0-.06,0-.11,.03-.13,.25-.25,1.7,.8,3.24,2.34s2.58,2.99,2.34,3.23Z" fill="#dda15e"/>
      <path d="M22.8,5.47c-.62-.35-1.63-1.17-2.68-2.22s-1.87-2.06-2.22-2.68c.24,.14,.54,.34,.88,.61,.39,.3,.83,.69,1.29,1.12,.17,.16,.33,.32,.5,.49s.33,.34,.49,.5c.44,.46,.81,.9,1.12,1.29,.27,.34,.47,.64,.61,.88Z" fill="#dda15e"/>
      <ellipse cx="20.57" cy="2.8" rx=".4" ry="2.52" transform="translate(4.05 15.37) rotate(-45)" fill="#efb275"/>
      <path d="M16.4,7.03c.26,.26,.5,.51,.72,.75l-.7,.7c-.24-.22-.5-.46-.75-.72-1.34-1.34-2.26-2.59-2.06-2.79s1.45,.72,2.79,2.06Z" fill="#a4133c"/>
      <path d="M18.45,9.81c-.1,.1-.44-.07-.92-.41l.5-.5c.35,.48,.51,.82,.41,.92Z" fill="#a4133c"/>
      <path d="M11.83,16.44l-5.39,5.39c-.98,.98-2.47,1.08-3.33,.23l-1.67-1.67c-.9-.9-.79-2.46,.24-3.49L12.75,5.83c0,.39-.04,.78-.14,1.14-.69,2.68-4.06,3.37-3.85,5.06,.08,.65,.62,.88,1.24,1.34l-2.68,2.68c-.43,.43-.43,1.12,0,1.55l.34,.34c.43,.43,1.12,.43,1.55,0l2.39-2.39c.1,.29,.17,.58,.22,.88Z" fill="#a4133c"/>
      <path d="M15.68,11.48l-4.07,4.07c-.14-.43-.35-.84-.62-1.21-.32-.45-.67-.74-.99-.97l3.78-3.78c.43-.43,1.12-.43,1.55,0l.34,.34c.43,.43,.43,1.12,0,1.55Z" fill="#c4396f"/>
      <path d="M11.61,15.55l-2.39,2.39c-.43,.43-1.12,.43-1.55,0l-.34-.34c-.43-.43-.43-1.12,0-1.55l2.68-2.68c.32,.23,.67,.53,.99,.97,.27,.37,.47,.78,.62,1.21Z" fill="#bc1b50"/>
      <ellipse cx="13.61" cy="12.53" rx="2.34" ry=".28" transform="translate(-4.87 13.29) rotate(-45)" fill="#d34881"/>
      <path d="M18.04,8.9l-.5,.5c-.32-.23-.71-.55-1.12-.93l.7-.7c.37,.41,.69,.79,.93,1.12Z" fill="#bc1b50"/>
      <path d="M19.3,7.64l-1.26,1.26c-.23-.32-.55-.71-.93-1.12l1.11-1.11c.36,.34,.72,.66,1.07,.97Z" fill="#ade8f4"/>
      <path d="M23.01,7.16l-1.18,1.18c-1.1-.87-2.27-1.89-3.47-3.08-1.28-1.27-2.37-2.51-3.28-3.67l1.24-1.24c-.13,.13-.03,.46,.25,.93,.45,.77,1.37,1.9,2.53,3.06s2.27,2.06,3.04,2.52c.4,.24,.71,.35,.87,.31Z" fill="#ade8f4"/>
      <g>
        <circle cx="7.34" cy="12.24" r=".62" fill="#bc1950"/>
        <circle cx="5.67" cy="14.58" r=".58" fill="#bc1950"/>
        <circle cx="7.72" cy="14.02" r=".39" fill="#bc1950"/>
        <circle cx="3.53" cy="16.49" r=".39" fill="#bc1950"/>
        <circle cx="5.81" cy="16.48" r=".48" fill="#bc1950"/>
        <circle cx="3.93" cy="21.34" r=".46" fill="#bc1950"/>
        <circle cx="6.79" cy="19.74" r=".66" fill="#bc1950"/>
      </g>
      <g>
        <circle cx="12.91" cy="8.83" r=".52" fill="#cc2b69"/>
        <circle cx="14.59" cy="7.88" r=".36" fill="#cc2b69"/>
        <circle cx="13.64" cy="6.93" r=".42" fill="#cc2b69"/>
      </g>
      <g>
        <circle cx="9.72" cy="16.02" r=".39" fill="#cc2762"/>
        <circle cx="8.65" cy="15.97" r=".38" fill="#cc2762"/>
      </g>
    </g>
  </g>
</svg>