<?xml version="1.0" encoding="UTF-8"?>
<svg xmlns="http://www.w3.org/2000/svg" viewBox="0 0 22.59 23.46">
  <g isolation="isolate">
    <g id="_Шар_2" data-name="Шар 2">
      <g id="Tränke">
        <polygon points="4.05 10.54 4.17 10.83 4.47 10.74 4.31 11.01 4.58 11.19 4.26 11.24 4.28 11.56 4.05 11.34 3.82 11.56 3.84 11.24 3.53 11.19 3.79 11.01 3.63 10.74 3.94 10.83 4.05 10.54" fill="#464e4f"/>
        <ellipse cx="9.05" cy="14.24" rx="9.26" ry="9.01" transform="translate(-7.64 16.69) rotate(-65.91)" fill="#ade8f4"/>
        <path d="M16.73,17.68c-.43,.97-1.02,1.84-1.74,2.55-2.41,2.52-6.17,3.39-9.47,1.91C1.28,20.24-.58,15.17,1.37,10.81c.39-.87,.89-1.65,1.51-2.32,2.42-2.69,6.31-3.67,9.71-2.15,4.24,1.9,6.1,6.97,4.14,11.34Z" fill="#ade8f4"/>
        <path d="M14.98,20.22c-.25,.26-.55,.55-.92,.84-.34,.27-.67,.48-.97,.65-1.85-.12-3.81-.94-4.91-3.43-.29-.66-.64-1.26-1.03-1.81l.5-.96c.33,.27,.84,.69,1.43,1.25,1.59,1.96,1.72,2.48,3.37,3.08,.31,.11,.86,.28,2.26,.32,.11,0,.2,.05,.26,.06Z" fill="#80999b"/>
        <path d="M14.99,20.23s-.03,.03-.05,.05c-.56,.57-1.17,1.05-1.85,1.44-1.85-.12-3.81-.94-4.91-3.43-.29-.66-.64-1.26-1.03-1.81-1.78-2.56-4.32-4.01-6.05-4.76-.05,.04-.07,.07-.12,.1,.11-.34,.23-.68,.38-1.02,.39-.87,.89-1.65,1.51-2.32,2.1,.88,5.28,2.99,6.42,7.87,.01,.03,.01,.06,.03,.1,.86,3.81,3.32,4.28,5.57,3.78,.03,0,.06-.01,.09-.02Z" fill="#6a787a"/>
        <path d="M13.1,21.71c-1.39,.81-3,1.21-4.62,1.13-.04,0-.07,0-.09-.01-.97-.05-1.93-.27-2.86-.69-.57-.26-1.1-.56-1.58-.92C1.13,19.1-.1,15.34,.98,11.83c.05-.04,.07-.07,.12-.1,2.1,.91,5.4,2.85,7.08,6.56,1.11,2.49,3.06,3.3,4.91,3.43Z" fill="#464e4f"/>
        <polygon points="4.91 12.3 4.98 12.59 5.26 12.72 5.08 12.96 5.16 13.25 4.85 13.26 4.67 13.51 4.47 13.27 4.17 13.28 4.23 12.98 4.03 12.75 4.3 12.61 4.36 12.31 4.64 12.44 4.91 12.3" fill="#464e4f"/>
        <polygon points="9.27 18.2 9.3 18.31 9.42 18.37 9.34 18.46 9.37 18.58 9.25 18.59 9.18 18.69 9.1 18.59 8.97 18.59 9 18.47 8.92 18.38 9.03 18.32 9.05 18.2 9.16 18.25 9.27 18.2" fill="#464e4f"/>
        <polygon points="8.1 20.93 8.13 21.05 8.24 21.1 8.17 21.2 8.2 21.32 8.07 21.32 8 21.42 7.92 21.32 7.8 21.33 7.82 21.21 7.74 21.11 7.85 21.06 7.87 20.93 7.99 20.98 8.1 20.93" fill="#6a787a"/>
        <polygon points="7.93 13.76 7.96 13.88 8.07 13.93 8 14.03 8.03 14.15 7.91 14.15 7.83 14.25 7.75 14.15 7.63 14.16 7.65 14.04 7.57 13.94 7.68 13.89 7.71 13.76 7.82 13.81 7.93 13.76" fill="#464e4f"/>
        <polygon points="2.06 11.02 2.09 11.14 2.2 11.19 2.13 11.29 2.16 11.41 2.04 11.41 1.96 11.51 1.88 11.41 1.76 11.42 1.78 11.3 1.7 11.2 1.81 11.15 1.84 11.02 1.95 11.08 2.06 11.02" fill="#464e4f"/>
        <g>
          <polygon points="6.09 17.72 6.15 17.99 6.4 18.1 6.24 18.32 6.31 18.58 6.04 18.59 5.87 18.81 5.69 18.6 5.42 18.61 5.47 18.34 5.3 18.13 5.54 18.01 5.59 17.74 5.84 17.85 6.09 17.72" fill="#6a787a"/>
          <polygon points="9.9 20.68 9.94 20.84 10.09 20.91 9.99 21.05 10.03 21.21 9.86 21.22 9.76 21.35 9.65 21.22 9.48 21.23 9.51 21.06 9.4 20.93 9.56 20.85 9.59 20.69 9.74 20.76 9.9 20.68" fill="#6a787a"/>
          <polygon points="2.55 14.93 2.63 15.23 2.91 15.36 2.72 15.6 2.8 15.9 2.49 15.91 2.31 16.15 2.11 15.92 1.8 15.93 1.86 15.63 1.66 15.39 1.94 15.25 2 14.95 2.28 15.07 2.55 14.93" fill="#6a787a"/>
          <polygon points="6.34 21.19 6.4 21.41 6.61 21.51 6.47 21.69 6.53 21.92 6.3 21.92 6.16 22.11 6.01 21.93 5.78 21.94 5.82 21.71 5.67 21.54 5.88 21.43 5.92 21.2 6.13 21.3 6.34 21.19" fill="#6a787a"/>
          <polygon points="3.36 17.46 3.43 17.71 3.66 17.82 3.51 18.03 3.57 18.28 3.31 18.29 3.16 18.49 2.99 18.29 2.73 18.3 2.78 18.05 2.61 17.85 2.84 17.73 2.89 17.47 3.13 17.58 3.36 17.46" fill="#6a787a"/>
        </g>
        <circle cx="9.85" cy="16.14" r="5.73" fill="#e3fcff" mix-blend-mode="screen" opacity=".22"/>
        <circle cx="12.29" cy="16.92" r="1.56" fill="#e3fcff" mix-blend-mode="screen" opacity=".22"/>
        <path d="M17.4,18.64l-.46,.3c-.07,.04-.15,.06-.23,.05-.06,0-.15-.06-.19-.14-1.53-1.62-3.25-3.69-4.9-6.25-1.7-2.63-2.91-5.1-3.78-7.2,0-.02-.06-.11-.03-.23v-.02c.03-.06,.06-.13,.13-.17l.47-.31c.14-.1,.33-.06,.42,.08,.04,.09,.08,.19,.12,.29,.84,2.1,2.03,4.57,3.75,7.17,1.54,2.35,3.14,4.25,4.57,5.75,.07,.09,.16,.18,.24,.26,.02,.02,.07,.11,.05,.23-.02,.07-.06,.14-.14,.19Z" fill="#441b09"/>
        <path d="M17.26,17.96c-1.42-1.5-3.03-3.4-4.57-5.75-1.71-2.6-2.9-5.07-3.75-7.17,.8-.04,1.6,.05,2.4,.25,.52,.11,1.01,.29,1.5,.5,3.07,1.37,4.98,4.31,5.23,7.52,.13,1.52-.11,3.11-.79,4.62,0,0,0,.03-.02,.04Z" fill="#5e2e14"/>
        <rect x="14.89" y="6.75" width="3.67" height="2.57" rx=".4" ry=".4" transform="translate(10.58 -9.47) rotate(45)" fill="#442111"/>
        <rect x="15.42" y="6.97" width="3.67" height="1.05" rx=".4" ry=".4" transform="translate(10.36 -10.01) rotate(45)" fill="#44190c"/>
        <path d="M18.07,16.61l-.37,.41c-.06,.05-.13,.09-.21,.1-.06,0-.16-.02-.22-.08-1.89-1.17-4.09-2.72-6.36-4.76-2.33-2.09-4.14-4.16-5.53-5.97,0-.02-.08-.09-.09-.22v-.02c0-.07,.02-.14,.08-.19l.38-.42c.11-.13,.31-.14,.42-.03,.06,.08,.13,.17,.19,.25,1.36,1.81,3.15,3.88,5.48,5.95,2.09,1.87,4.14,3.29,5.91,4.37,.1,.07,.2,.13,.3,.19,.02,.01,.1,.09,.1,.21,0,.08-.03,.15-.08,.22Z" fill="#72361c"/>
        <path d="M18.06,13.3c-.27-.29-.56-.6-.87-.94-1.2-1.33-1.76-2.44-3.41-4.73-.88-1.21-1.79-1.94-2.44-2.35,.52,.11,1.01,.29,1.5,.5,3.07,1.37,4.98,4.31,5.23,7.52Z" fill="#442111"/>
        <path d="M18.69,7.15c-.64,.32-1.42,.22-1.45,.1,0-.1,.55-.18,1.15-.55,.43-.28,.73-.6,.95-.93l.38,.18c-.19,.46-.51,.95-1.03,1.21Z" fill="#44190c"/>
        <path d="M20.41,5.84c-.2,.35-.95,.47-1.25,.17-.39-.39,.14-1.32,.22-1.46,.53-.91,1.56-1.28,1.63-1.18,.06,.09-.71,.45-.8,1.2-.08,.61,.39,.93,.2,1.27Z" fill="#d8420e"/>
        <path d="M20.22,5.79c-.06,.24-.49,.43-.71,.3-.29-.17-.12-.8-.09-.9,.18-.62,.72-1,.78-.95,.05,.04-.35,.38-.29,.83,.05,.38,.37,.49,.31,.72Z" fill="#f49711"/>
        <path d="M19.67,3.11c-.67,.56-.87,.91-1.06,1.85-.47-.78-.81-.99-1.8-1.15,.82-.54,1.02-.89,1.06-1.85,.62,.8,.96,1.02,1.8,1.15Z" fill="#f49711"/>
        <path d="M22.57,4.53c-.32-.03-.47,.01-.76,.21,.08-.33,.05-.47-.17-.77,.36,.07,.5,.03,.76-.21-.05,.37-.01,.52,.17,.77Z" fill="#f49711"/>
        <path d="M22.59,2.08c-.87-.07-1.26,.03-2.06,.56,.21-.88,.13-1.27-.46-2.08,.96,.2,1.35,.09,2.06-.56-.12,1-.04,1.4,.47,2.08Z" fill="#f49711"/>
      </g>
    </g>
  </g>
</svg>