<?xml version="1.0" encoding="UTF-8"?>
<svg id="Tränke" xmlns="http://www.w3.org/2000/svg" viewBox="0 0 24 24">
  <path d="M-2.27,28.49c-.86-.91-1.71-1.83-2.57-2.74,2.99-3.66,5.99-7.33,8.98-10.99l4.45,4.52c-3.62,3.07-7.25,6.14-10.87,9.21Z" fill="#7c300a"/>
  <polygon points="-2.91 27.69 -4.03 26.76 4.89 15.68 6.01 16.6 -2.91 27.69" fill="#aa3704"/>
  <path d="M14.55,17.87c-.34,.34-2.51-1.29-4.86-3.64s-3.89-4.39-3.67-4.83c0-.02,0-.03,.02-.04s0,0,.03,0c.4-.26,2.54,1.36,4.84,3.66s3.91,4.43,3.65,4.83t0,.03Z" fill="#231207"/>
  <path d="M10.99,21.43l-.06,.06c-.44,.19-2.55-1.41-4.82-3.68-.75-.75-1.43-1.49-1.99-2.14-.26-.3-.49-.59-.7-.85-.71-.91-1.1-1.58-.99-1.82l.07-.07c.22-.13,.91,.27,1.83,.98,.26,.2,.55,.43,.85,.7,.67,.57,1.39,1.24,2.14,1.99,2.31,2.31,3.92,4.44,3.66,4.84Z" fill="#301b0c"/>
  <path d="M20.24,6.42c-.07,.07-.14,.14-.21,.19-1.72,1.47-3.38,1.1-4.92,1.49,.02-.08,.04-.15,.07-.22,0-.07,.03-.13,.05-.18,.74-2.1,2.26-2.84,1.96-3.27-.28-.42-1.85-.12-3.74,.86-.02,0-.03,0-.06,.02-1.51,.77-3.22,1.98-4.59,3.58-.53,.61-1.04,1.2-1.39,1.8-.14,.21-.24,.42-.32,.65-.05-.05-.09-.11-.13-.16,0-.17,.04-.37,.1-.58,0-.07,.02-.14,.05-.2,.38-1.36,1.44-3.33,3.09-5.1,.63-.69,1.34-1.34,2.14-1.91C17.19-.1,23.25,.51,23.34,.97c.08,.29-2.33,.24-3.3,1.91-.66,1.1-.28,2.23,.2,3.54Z" fill="#e54405"/>
  <path d="M18.03,6.61c-.06,.06-.12,.12-.18,.16-.93,.79-1.82,.99-2.67,1.11,0-.07,.03-.13,.05-.18,.74-2.1,2.26-2.84,1.96-3.27-.28-.42-1.85-.12-3.74,.86-.02,0-.03,0-.06,.02-1.5,.61-3.5,1.86-5.06,3.65-.47,.53-.91,1.04-1.23,1.55,0,.03-.03,.05-.04,.08,0-.07,.02-.14,.05-.2,.38-1.36,1.44-3.33,3.09-5.1,.38-.38,.8-.72,1.25-1.05C15.62,1.18,20.71,1.55,20.77,1.93c.07,.24-1.96,.26-2.83,1.69-.58,.95-.29,1.89,.09,2.98Z" fill="#e85d04"/>
  <path d="M7.64,12.01c-.22,.05-.39,.04-.51-.07-.08-.08-.13-.18-.15-.33-.03-.13-.03-.28,0-.45,.04,.06,.08,.12,.13,.16,.16,.22,.35,.44,.55,.69Z" fill="#e85d04"/>
  <path d="M18.2,15.91c-1.11,.61-2.61,.91-3.88,.71,.7-.07,1.26-.28,1.57-.65,.58-.68,.14-1.72-.34-3.06-.18-.53-.38-1.11-.51-1.73-.13-.61-.19-1.26-.14-1.94,.03-.38,.09-.76,.2-1.15,1.54-.39,3.21-.02,4.92-1.49,.08-.06,.14-.13,.21-.19,.93-.87,1.07-1.61,1.33-1.53,.85,.25,1.1,8.57-3.37,11.02Z" fill="#f48c06"/>
  <path d="M12.12,16.46c-2.36-.5-4.93-1.92-5.21-3.8-.06-.35-.02-.7,.07-1.03,.03-.11,.07-.2,.12-.29,.16,.22,.35,.44,.55,.69,.58,.68,1.28,1.44,2.06,2.21,.86,.86,1.7,1.62,2.42,2.23Z" fill="#faa307"/>
  <path d="M15.9,15.98c-.31,.37-.87,.58-1.57,.65-.31,.02-.64,.02-.98,0-.39-.02-.79-.08-1.21-.16h-.02c-.11-.09-.21-.17-.32-.28-.65-.55-1.37-1.22-2.1-1.95-.65-.65-1.26-1.29-1.77-1.88-.11-.11-.2-.22-.29-.33-.2-.24-.39-.46-.55-.69,.08-.23,.18-.43,.32-.65,.35-.6,.86-1.19,1.39-1.8,3.11-3.61,7.88-5.21,8.38-4.46,.3,.43-1.22,1.18-1.96,3.27-.05,.13-.09,.26-.12,.41-.32,1.11-.26,2.15-.06,3.09,.45,2.17,1.66,3.84,.85,4.79Z" fill="#ffba08"/>
  <path d="M14.55,17.87l-3.62,3.62L2.44,12.99l3.59-3.59c-.12,.23,.27,.91,.98,1.83,.2,.26,.43,.55,.7,.85,.57,.67,1.25,1.4,1.99,2.14,.99,.99,1.96,1.86,2.76,2.51,.12,.08,.22,.16,.33,.25,.94,.7,1.59,1.05,1.77,.88Z" fill="#301b0c"/>
  <path d="M6.97,11.16c-.69-.9-1.04-1.54-.94-1.77l.05-.05,1.03,1.03c-.09,.3-.14,.56-.14,.78Z" fill="#231207"/>
  <path d="M14.57,17.85l-.02,.02c-.21,.21-1.16-.37-2.41-1.41,.42,.09,.82,.14,1.21,.16l1.23,1.23Z" fill="#231207"/>
  <path d="M12.79,16.99c-1.47,.58-1.38,1.59-3.15,.6-2.04-1.15,.05-1.82-1.12-2.34-1.17-.51-1.5,2.33-2.22,.44-.72-1.9-1.13-3.93-2.27-3.06-.41,.31-1,.39-1.59,.36l3.59-3.59c-.12,.23,.27,.91,.98,1.83,.2,.26,.43,.55,.7,.85,.57,.67,1.25,1.4,1.99,2.14,1.13,1.13,2.23,2.1,3.09,2.76Z" fill="#8e2e09"/>
  <path d="M12.46,16.74c-.46,.33-1.02,.5-1.57,.16-1.31-.79-.17-2.45-1.72-2.59-1.54-.14-2.1,2-2.08-.26,.03-2.27,.72-2.31-1.1-2.68-.73-.15-1.4-.07-1.82-.11l1.86-1.86c-.12,.23,.27,.91,.98,1.83,.2,.26,.43,.55,.7,.85,.57,.67,1.25,1.4,1.99,2.14,.99,.99,1.96,1.86,2.76,2.51Z" fill="#e27600"/>
  <path d="M13.96,14.99c-.66,.08-1.43,.58-2.15,1.19-.65-.55-1.37-1.22-2.1-1.95-.65-.65-1.26-1.29-1.77-1.88,.61-.74,1.26-1.68,1.87-2.88,2.32-4.4,5.74-4.01,5.74-4.01-3.29,3.1,.02,4.23-2.73,5.26-2.75,1.01-3.22,5.04-1.26,3.73,1.96-1.3,2.39,.54,2.39,.54Z" fill="#f4d80f"/>
  <path d="M18.05,7.96c0-.06,0-.1,0-.1,0,0,.04,.04,0,.1Z" fill="#f4d80f"/>
  <path d="M17.82,14.31c-1.6-.12-1.57-1.71-2.26-1.39-.18-.53-.38-1.11-.51-1.73-.13-.61-.19-1.26-.14-1.94,.2-.14,.42-.25,.67-.32,2-.53,2.41-.83,2.48-.98,0,.33-.09,1.54-1.31,1.91-1.43,.44-.76,2.5,.36,1.42,1.12-1.06,.42-1.54,4.3-5.09,0,0,1.03,2.94-1.28,4.74-2.31,1.81,.3,1.38,.3,1.38,0,0-.54,2.12-2.59,1.99Z" fill="#faa307"/>
</svg>