<?xml version="1.0" encoding="UTF-8" standalone="no"?>
<!DOCTYPE svg PUBLIC "-//W3C//DTD SVG 1.1//EN" "http://www.w3.org/Graphics/SVG/1.1/DTD/svg11.dtd">
<svg width="100%" height="100%" viewBox="0 0 50 50" version="1.1" xmlns="http://www.w3.org/2000/svg" xmlns:xlink="http://www.w3.org/1999/xlink" xml:space="preserve" xmlns:serif="http://www.serif.com/" style="fill-rule:evenodd;clip-rule:evenodd;stroke-linejoin:round;stroke-miterlimit:2;">
    <g id="Ebene1" transform="matrix(1.0331,1.03305,-1.03305,1.0331,-47.7594,8.317)">
        <g transform="matrix(0.328585,-0.291165,0.279629,0.315567,0.719022,-37.5812)">
            <path d="M67.705,-0.881C67.705,-0.881 51.456,-10.597 35.897,16.369C20.339,43.335 13.858,49.315 -1.325,52.226C-16.509,55.137 -14.495,90.527 -12.529,93.733C-10.562,96.94 58.965,83.032 60.869,83.274C62.773,83.516 67.705,-0.881 67.705,-0.881Z" style="fill:rgb(123,94,198);"/>
        </g>
        <g transform="matrix(0.328585,-0.291165,0.279629,0.315567,12.8556,-35.1098)">
            <path d="M67.705,-0.881C67.705,-0.881 51.456,-10.597 35.897,16.369C20.339,43.335 13.858,49.315 -1.325,52.226C-16.509,55.137 -14.495,90.527 -12.529,93.733C-10.562,96.94 58.965,83.032 60.869,83.274C62.773,83.516 67.705,-0.881 67.705,-0.881Z" style="fill:rgb(133,106,202);"/>
        </g>
        <g transform="matrix(0.328585,-0.291165,0.279629,0.315567,22.8926,-32.929)">
            <path d="M67.705,-0.881C67.705,-0.881 51.456,-10.597 35.897,16.369C20.339,43.335 13.858,49.315 -1.325,52.226C-16.509,55.137 -14.495,90.527 -12.529,93.733C-10.562,96.94 58.965,83.032 60.869,83.274C62.773,83.516 67.705,-0.881 67.705,-0.881Z" style="fill:rgb(159,138,214);"/>
        </g>
        <g transform="matrix(0.328585,-0.291165,0.279629,0.315567,34.51,-32.7064)">
            <path d="M67.705,-0.881C67.705,-0.881 51.456,-10.597 35.897,16.369C20.339,43.335 13.858,49.315 -1.325,52.226C-16.509,55.137 -14.495,90.527 -12.529,93.733C-10.562,96.94 58.965,83.032 60.869,83.274C62.773,83.516 67.705,-0.881 67.705,-0.881Z" style="fill:rgb(198,181,237);"/>
        </g>
    </g>
    <g transform="matrix(0.91067,0,0,0.91067,1.32257,1.33233)">
        <path d="M49.9,10.6C47.8,6.5 42.5,-1.1 32.7,3.4C26.6,6.2 23.2,7.8 23.2,7.8L14.4,11.6C11.9,12.8 6.5,11.1 3.4,10C2.5,9.7 1.7,10.6 2.1,11.5C4.2,15.6 9.5,23.2 19.3,18.7C25.4,15.9 37.6,10.6 37.6,10.6C40.1,9.4 45.5,11.1 48.6,12.2C49.5,12.4 50.3,11.5 49.9,10.6ZM28.8,23.4C27.7,24 23.3,26 23.3,26L18.9,27.9C16.7,29.1 12,27.5 9.2,26.4C8.4,26 7.7,27 8.1,27.8C9.9,31.8 14.6,39 23.2,34.6C28.6,31.9 33.1,30.1 33.1,30.1C35.3,28.9 40,30.5 42.8,31.6C43.6,31.9 44.3,31 43.9,30.1C42.1,26.2 37.4,19 28.8,23.4ZM25.6,41.1C24.7,41.6 23.2,42.5 23.2,42.5C21.5,43.6 18,42.2 15.9,41.2C15.3,40.9 14.8,41.8 15.1,42.6C16.4,46.2 19.9,52.7 26.4,48.7C28.8,47.2 28.8,47.3 28.8,47.3C30.6,46.4 34,47.6 36.1,48.6C36.7,48.9 37.2,48 36.9,47.2C35.6,43.6 32.3,37.4 25.6,41.1Z" style="fill:white;fill-rule:nonzero;"/>
    </g>
</svg>
