<?xml version="1.0" encoding="UTF-8" standalone="no"?>
<!DOCTYPE svg PUBLIC "-//W3C//DTD SVG 1.1//EN" "http://www.w3.org/Graphics/SVG/1.1/DTD/svg11.dtd">
<svg width="100%" height="100%" viewBox="0 0 50 50" version="1.1" xmlns="http://www.w3.org/2000/svg" xmlns:xlink="http://www.w3.org/1999/xlink" xml:space="preserve" xmlns:serif="http://www.serif.com/" style="fill-rule:evenodd;clip-rule:evenodd;stroke-linejoin:round;stroke-miterlimit:2;">
    <g id="Ebene1">
        <g transform="matrix(0.996132,0,0,1.00339,-0.231114,-0.481349)">
            <rect x="0.231" y="0.44" width="50.135" height="49.862" style="fill:rgb(123,94,198);"/>
        </g>
        <g transform="matrix(0.234663,0,0,1.00339,5.57055,-0.517001)">
            <rect x="0.231" y="0.44" width="50.135" height="49.862" style="fill:rgb(133,106,202);"/>
        </g>
        <g transform="matrix(0.236479,0,0,1.00339,31.9442,-0.481349)">
            <rect x="0.231" y="0.44" width="50.135" height="49.862" style="fill:rgb(133,106,202);"/>
        </g>
        <g transform="matrix(0.502806,0,0,1.00339,11.976,-0.478449)">
            <rect x="0.231" y="0.44" width="50.135" height="49.862" style="fill:rgb(159,138,214);"/>
        </g>
        <g transform="matrix(0.284746,0,0,1.00339,17.3836,-0.481349)">
            <rect x="0.231" y="0.44" width="50.135" height="49.862" style="fill:rgb(198,181,237);"/>
        </g>
    </g>
    <g transform="matrix(0.377312,0,0,0.377312,2.80196,3.04056)">
        <g>
            <g transform="matrix(1,0,0,1,-1.00902,-1.64131)">
                <circle cx="59.058" cy="18.729" r="18.729" style="fill:white;"/>
            </g>
            <g transform="matrix(1,0,0,1,-1.00902,-1.64131)">
                <path d="M103.871,101.242C103.173,95.494 98.962,93.305 91.867,92.221C86.891,96.769 78.541,100.243 64.627,100.243C62.701,100.243 60.841,99.754 59.173,98.817C57.505,99.754 55.645,100.243 53.717,100.243C39.932,100.243 31.608,96.831 26.617,92.345C20.237,93.598 16.465,95.889 15.811,101.241C15.395,104.686 16.47,108.065 18.84,110.759C25.518,118.351 43.791,119.609 54.087,119.682L54.15,119.682C56.334,119.682 58.323,118.861 59.84,117.514C61.356,118.861 63.346,119.682 65.529,119.682L65.592,119.682C75.889,119.609 94.162,118.351 100.842,110.757C103.215,108.066 104.287,104.688 103.871,101.242Z" style="fill:white;fill-rule:nonzero;"/>
            </g>
            <g transform="matrix(1,0,0,1,-1.00902,-1.64131)">
                <path d="M54.024,97.725C56.2,97.725 58.146,96.764 59.479,95.249C60.812,96.764 62.759,97.725 64.933,97.725C85.84,97.725 92.554,89.483 94.507,82.565C99.075,66.379 80.736,47.463 72.319,42.302C71.755,41.954 71.153,41.724 70.543,41.547C68.458,40.154 66.113,39.129 63.726,38.543L59.059,43.24L54.533,38.491C54.519,38.495 54.504,38.496 54.488,38.501C51.416,39.235 48.423,40.701 45.947,42.743C37.266,48.463 20.003,66.806 24.449,82.565C26.402,89.482 33.117,97.725 54.024,97.725ZM39.889,71.49L39.889,77.687C40.378,77.91 41.4,78.564 41.408,78.635C42.262,79.256 45.653,80.589 53.218,80.589C55.146,80.589 57.006,81.077 58.674,82.014C60.342,81.077 62.202,80.589 64.128,80.589C70.424,80.589 73.821,79.667 75.281,78.998C76.267,78.796 77.253,78.547 78.228,78.268L78.228,69.832C80.106,73.287 81.104,76.511 80.509,78.614C79.716,81.429 73.746,83.179 64.932,83.179C62.758,83.179 60.812,84.139 59.478,85.655C58.145,84.139 56.199,83.179 54.023,83.179C45.21,83.179 39.239,81.429 38.446,78.614C37.95,76.854 38.57,74.304 39.889,71.49Z" style="fill:white;fill-rule:nonzero;"/>
            </g>
        </g>
    </g>
</svg>
